<svg width="140" height="140" viewBox="0 0 140 140" fill="none" xmlns="http://www.w3.org/2000/svg">
<rect width="140" height="140" rx="30" fill="white"/>
<g clip-path="url(#clip0_3610_788)">
<path d="M21.1927 80.0448V73.5055C23.3124 72.6309 23.5129 69.5976 21.3184 68.6721C18.4558 67.4645 16.402 71.4158 18.7297 73.1277C18.8434 73.2115 19.3978 73.4307 19.3978 73.4689V80.0456C12.4387 79.453 8.57576 71.5826 12.6812 65.7474C16.4955 60.3259 24.6682 60.4995 28.178 66.1507C31.8262 72.0241 27.9401 79.4321 21.192 80.0456L21.1927 80.0448Z" fill="#06AAE7"/>
<path d="M46.6176 62.4447C46.643 62.3624 46.7896 62.3213 46.8757 62.3287C50.402 62.6639 56.5178 61.0538 58.3711 65.1225C59.2637 67.0828 58.7781 69.3611 57.0124 70.6271C60.3494 72.1482 60.1705 77.1731 57.1845 78.9838C56.6001 79.3377 55.1673 79.8951 54.5074 79.8951H46.6183V62.4447H46.6176ZM52.0765 69.2826H53.6844C53.7188 69.2826 54.2455 69.0633 54.3166 69.0177C55.3813 68.3376 55.311 66.5262 54.1946 65.9328C54.1198 65.8932 53.641 65.6957 53.6095 65.6957H50.3563V76.6067H53.9081C54.039 76.6067 54.5463 76.4197 54.6959 76.3479C56.2178 75.6161 55.9387 72.9952 54.3203 72.5328C54.25 72.5126 53.7951 72.422 53.7584 72.422H52.0757V69.2833L52.0765 69.2826Z" fill="#1C1B69"/>
<path d="M128.314 59.0441C128.355 59.0509 128.431 59.1182 128.489 59.1317L128.423 60.0505L128.337 78.199C126.619 80.0605 123.232 80.2603 120.833 80.1233C116.886 79.8989 114.311 77.6183 113.705 73.7202C113.122 69.9657 114.059 65.9815 117.707 64.212C120.196 63.0051 122.813 63.3778 125.436 63.8282V59.0441C126.302 59.1474 127.489 58.9057 128.315 59.0441H128.314ZM125.347 66.8285C121.927 65.3515 117.576 65.781 116.709 70.0166C116.02 73.388 117.351 77.1649 121.207 77.432C122.084 77.4927 124.829 77.3026 125.246 76.3816C125.371 76.1062 125.359 73.9095 125.363 73.7329C125.416 71.4352 125.327 69.127 125.347 66.8292V66.8285Z" fill="#06AAE7"/>
<path d="M100.234 79.8951H96.7196L96.6448 78.9988C96.1547 79.1597 95.7253 79.4679 95.2442 79.6535C92.2469 80.8072 86.7775 80.3156 86.4019 76.2693C85.9462 71.3663 91.5106 70.8306 94.8708 69.4898C95.5232 69.2295 96.8162 68.6765 96.9396 67.8962C97.3429 65.3418 93.1657 65.9463 91.7074 66.2539C90.4886 66.5112 89.3116 66.9609 88.2709 67.6388C88.3637 67.127 88.3854 64.613 88.6083 64.3527C88.6944 64.2524 90.5207 63.7578 90.7961 63.6987C93.1163 63.2004 97.8816 62.7635 99.4745 64.9243C100.443 66.2381 100.241 67.3784 100.232 68.8688C100.21 72.544 100.256 76.2215 100.235 79.8959L100.234 79.8951ZM96.8685 71.525C96.2999 71.6926 95.7529 71.9859 95.1873 72.1984C93.6183 72.7894 89.2406 73.6963 90.0269 76.0823C90.6652 78.0186 94.8933 77.5682 96.1892 76.5626C96.9972 75.9356 96.8655 74.3569 96.8715 74.1803C96.9037 73.2982 96.8416 72.4071 96.8678 71.5242L96.8685 71.525Z" fill="#06AAE7"/>
<path d="M38.2257 62.129C40.471 61.9068 43.0561 62.6999 44.6528 64.3115L42.9079 67.261C41.5253 66.1342 38.8512 64.9041 37.2702 66.2546C36.0963 67.258 36.9986 68.2381 38.0431 68.7723C40.6199 70.0907 44.4463 70.666 44.7478 74.3278C45.2311 80.1982 38.3648 81.3931 34.228 78.9375C33.9415 78.7669 32.5805 77.7912 32.5558 77.5361C32.5326 77.2951 34.249 75.1298 34.4764 74.7423C34.635 74.6951 35.1535 75.2368 35.3331 75.3663C36.6088 76.2873 38.6596 77.162 40.162 76.3195C40.8915 75.9102 41.2215 74.9473 40.7441 74.2178C40.0685 73.1853 37.054 72.3136 35.8479 71.6372C30.7728 68.7925 32.8947 62.6558 38.2257 62.1275V62.129Z" fill="#1C1B69"/>
<path d="M84.2306 76.009C84.2216 76.4422 85.3207 78.8739 85.2743 79.0273C85.2429 79.1298 85.1224 79.138 85.0394 79.1709C82.8831 80.0426 78.5412 80.4114 76.3048 79.8585C71.1968 78.5955 69.9713 71.9904 71.7834 67.7166C74.1186 62.2091 80.5434 62.6879 85.323 64.2741L84.7162 67.4159C81.1786 65.6927 75.49 64.4245 74.3079 69.5677C73.7804 71.8632 74.0812 75.5975 76.4043 76.8455C78.8682 78.1683 81.8872 77.0924 84.2306 76.0105V76.009Z" fill="#06AAE7"/>
<path d="M102.926 79.8951C102.941 79.0863 102.907 78.273 102.923 77.4634C102.985 74.2648 102.797 70.7385 102.998 67.5983C103.323 62.4941 110.518 63.0253 114.056 63.876C114.162 63.9014 114.489 63.9373 114.435 64.0803L112.493 66.7401C110.885 65.9156 107.693 65.2504 106.636 67.1988C106.024 68.3293 106.345 71.1261 106.369 72.4557C106.416 74.9397 106.432 77.4193 106.666 79.8951H102.927H102.926Z" fill="#06AAE7"/>
<path d="M65.1626 62.4073H61.349V79.8952H65.1626V62.4073Z" fill="#1C1B69"/>
</g>
<defs>
<clipPath id="clip0_3610_788">
<rect width="117.488" height="21.1959" fill="white" transform="translate(11 59)"/>
</clipPath>
</defs>
</svg>
