<svg width="140" height="140" viewBox="0 0 140 140" fill="none" xmlns="http://www.w3.org/2000/svg">
<rect width="140" height="140" rx="30" fill="url(#paint0_linear_601_3121)"/>
<g clip-path="url(#clip0_601_3121)">
<path d="M55.2739 12.7484C60.3604 8.98088 65.6916 5.59508 71.2559 2.57008C72.8606 1.69813 74.4824 0.856256 76.0963 0H134.867C133.594 0.264067 132.323 0.539899 131.047 0.7922C128.1 1.37393 125.139 1.88769 122.207 2.53217C117.046 3.66948 111.875 4.78065 106.757 6.09445C101.365 7.47884 95.9986 8.9835 90.6791 10.6241C84.069 12.6621 77.5191 14.8936 70.9444 17.0441C70.7022 17.1238 70.4718 17.2375 70.1839 17.3578C70.8109 18.9644 71.4156 20.5201 72.0229 22.077C72.2926 22.766 72.5373 23.4653 72.8436 24.1373C73.0491 24.5922 72.9431 24.8785 72.5962 25.2145C69.4011 28.3009 66.2217 31.4056 63.0397 34.5065C62.8905 34.6529 62.7505 34.8084 62.5293 35.0385C68.481 36.7497 74.43 37.2282 80.4681 36.5262C90.3924 35.3732 98.2068 31.0618 102.318 27.9218C101.178 26.8433 100.059 25.7831 98.8364 24.6262C100.335 24.6863 101.614 25.0524 102.779 25.7374C106.13 27.7048 107.7 30.6553 107.553 34.5326C107.537 34.9509 107.407 35.113 106.978 35.096C106.287 35.0686 105.592 35.0882 104.899 35.0882C104.836 34.2699 104.83 33.509 104.708 32.7678C104.585 32.0279 104.346 31.3076 104.136 30.4971C89.6254 40.5173 74.0753 43.1775 57.1744 37.8047V38.6217C57.1731 42.3043 57.1574 45.9855 57.1875 49.6681C57.1914 50.2668 57.0043 50.5309 56.448 50.7544C50.7895 53.0134 45.6349 56.0763 41.322 60.4321C39.7931 61.9746 38.5222 63.7081 37.7905 65.7879C36.78 68.6652 37.8533 71.8314 40.4175 73.5125C42.5785 74.9296 44.9713 75.7584 47.4739 76.3192C53.2136 77.6082 59.0239 77.5886 64.8474 77.2591C71.8384 76.863 78.7639 75.9127 85.6175 74.5021C90.6228 73.4707 95.5954 72.2759 100.584 71.1555C100.831 71.0993 101.082 71.0536 101.376 71.1202C100.389 71.6157 99.4044 72.1151 98.4162 72.6079C92.8454 75.3871 87.2 77.9977 81.3477 80.1403C75.5099 82.2777 69.5386 83.934 63.4049 84.9576C57.698 85.9093 51.9452 86.444 46.1559 86.2845C40.661 86.1341 35.2616 85.3655 30.1594 83.1667C25.929 81.343 22.4223 78.6697 20.1579 74.557C18.7115 71.9268 18.0898 69.1319 18.0086 66.2089C17.9929 65.6611 17.9968 65.1081 18.0178 64.5499C18.0479 63.7394 18.1408 62.9394 18.2678 62.1472C18.2665 62.1433 18.2678 62.1394 18.2691 62.1354C18.595 60.1 19.1487 58.1078 19.4602 56.0711C19.5126 55.7299 19.5662 55.3887 19.6225 55.0488C23.8229 39.763 35.8978 26.5936 52.5578 14.657" fill="white"/>
<path d="M135 83.7954C133.195 83.7157 131.384 83.7117 129.588 83.5353C127.36 83.317 125.215 82.7222 123.328 81.4606C120.413 79.5115 119.294 76.6525 119.377 73.2667C119.451 70.209 120.588 67.456 122.039 64.8231C124.171 60.9549 126.846 57.4685 129.694 54.1114C131.299 52.2185 132.94 50.357 134.57 48.485C134.694 48.3425 134.855 48.2327 135 48.1072V83.7954Z" fill="white"/>
<path d="M78.3796 108.334C79.6113 109.071 80.5655 109.969 81.0878 111.249C82.2213 114.021 81.0131 116.996 78.178 118.159C75.5143 119.252 72.78 119.28 70.081 118.239C68.2328 117.527 66.9723 116.243 66.6555 114.219C66.2982 111.928 67.1686 110.138 69.0037 108.776C69.1935 108.635 69.3885 108.503 69.6163 108.341C69.5312 108.236 69.4815 108.139 69.4016 108.082C66.5953 106.07 66.7209 101.718 70.31 100.016C72.8847 98.795 75.53 98.8185 78.0445 100.175C81.1611 101.857 81.4686 105.76 78.7382 108.014C78.6387 108.096 78.5445 108.185 78.377 108.331L78.3796 108.334ZM74.0235 115.346C74.0274 115.32 74.0313 115.293 74.0352 115.267C74.2748 115.267 74.5182 115.295 74.7525 115.261C75.6832 115.125 76.5706 114.886 76.9345 113.877C77.4987 112.313 75.5484 109.981 73.8991 110.303C72.9318 110.491 72.0535 110.967 71.4357 111.785C70.5064 113.017 71.0182 114.619 72.4959 115.069C72.9881 115.218 73.513 115.257 74.0235 115.346ZM74.0444 102.718C74.0418 102.743 74.0392 102.766 74.0365 102.791C73.7761 102.791 73.5117 102.765 73.2538 102.797C72.4501 102.895 71.8179 103.384 71.6857 103.98C71.5064 104.793 71.7773 105.441 72.509 105.947C73.6858 106.76 74.7853 106.686 75.8363 105.721C76.8206 104.816 76.5235 103.336 75.2565 102.927C74.8703 102.803 74.4502 102.786 74.0457 102.719L74.0444 102.718Z" fill="white"/>
<path d="M95.142 108.262C95.7807 108.841 96.4431 109.321 96.9535 109.929C98.9588 112.315 98.6342 116.65 94.7716 118.189C92.1157 119.247 89.4089 119.264 86.7347 118.23C84.8302 117.494 83.5802 116.151 83.3027 114.072C83.0187 111.943 83.8119 110.239 85.4899 108.928C85.7439 108.729 86.0109 108.544 86.2897 108.341C86.2138 108.245 86.1732 108.163 86.1078 108.117C83.1208 106.069 83.4009 101.211 87.6693 99.7153C90.011 98.8943 92.3461 98.9518 94.5791 100.102C97.752 101.738 98.1866 105.657 95.4784 107.967C95.3632 108.065 95.2532 108.167 95.1433 108.263L95.142 108.262ZM90.6798 115.358C90.6851 115.327 90.689 115.296 90.6942 115.265C90.956 115.265 91.2191 115.286 91.4783 115.261C92.6629 115.149 93.405 114.611 93.655 113.703C93.9286 112.708 93.5804 111.81 92.583 111.132C92.138 110.828 91.6327 110.61 91.1432 110.381C90.9757 110.303 90.7479 110.24 90.5817 110.288C89.5856 110.577 88.6536 111 88.0358 111.885C87.2086 113.072 87.7099 114.592 89.0947 115.044C89.6039 115.21 90.151 115.256 90.6812 115.357L90.6798 115.358ZM90.7152 102.717C90.7126 102.742 90.7099 102.766 90.7073 102.791C90.4455 102.791 90.1772 102.751 89.9246 102.799C89.2138 102.934 88.5816 103.191 88.3643 103.99C88.1772 104.679 88.4115 105.359 89.0188 105.837C90.1628 106.739 91.3814 106.714 92.4665 105.767C93.515 104.85 93.2427 103.356 91.9272 102.925C91.5424 102.798 91.1196 102.785 90.7139 102.719L90.7152 102.717Z" fill="white"/>
<path d="M55.4722 106.29C57.4906 105.53 59.3532 105.497 61.1909 106.219C63.8048 107.245 65.3009 109.942 64.9384 112.874C64.5339 116.153 62.3218 118.376 58.9029 118.847C56.5324 119.174 54.2784 118.858 52.4263 117.174C51.065 115.937 50.5048 114.29 50.3425 112.517C50.0689 109.55 50.4603 106.692 52.048 104.099C53.6096 101.549 55.9382 100.051 58.7995 99.3297C60.132 98.9937 61.4841 98.7976 62.9802 98.9793C62.6831 100.115 62.4187 101.227 62.0784 102.312C62.0286 102.471 61.6176 102.573 61.3624 102.602C60.0456 102.752 58.8008 103.102 57.6869 103.84C56.7863 104.436 56.0612 105.193 55.4735 106.288L55.4722 106.29ZM57.5167 115.27C59.4448 115.276 60.6176 114.115 60.6215 112.2C60.6254 110.406 59.577 109.333 57.8099 109.32C55.9434 109.307 54.7326 110.495 54.7222 112.351C54.7117 114.257 55.6764 115.265 57.518 115.269L57.5167 115.27Z" fill="white"/>
<path d="M43.917 104.021C43.328 104.197 42.8424 104.308 42.3843 104.487C41.9955 104.64 41.7966 104.569 41.6434 104.17C41.2743 103.203 40.8698 102.249 40.4575 101.234C43.0309 100.407 45.527 99.6055 48.1344 98.7676C48.1344 99.0944 48.1344 99.3271 48.1344 99.5585C48.1344 105.742 48.1239 111.925 48.1449 118.109C48.1475 118.703 47.9538 118.856 47.3988 118.833C46.4851 118.795 45.5663 118.794 44.6526 118.831C44.0767 118.855 43.9065 118.65 43.9092 118.08C43.9275 113.703 43.917 109.328 43.9157 104.951C43.9157 104.675 43.9157 104.399 43.9157 104.02L43.917 104.021Z" fill="white"/>
<path d="M18.0183 64.55C18.0484 63.7395 18.1413 62.9394 18.2683 62.1472C18.1217 63.4845 18.034 64.8389 18.0091 66.2089C17.9934 65.6611 17.9973 65.1082 18.0183 64.55Z" fill="white"/>
<path d="M26 41C32.8788 25.392 44.7985 11.4767 63.9717 0H77C58.8918 10.3382 43.3088 21.9436 26 41Z" fill="url(#paint1_linear_601_3121)"/>
<path opacity="0.54" d="M26.6491 39.5C33.8149 22.8716 40.0714 10.4327 52.8869 -0.5H65.6491C48 9 35.1404 21.6538 26.6491 39.5Z" fill="url(#paint2_linear_601_3121)"/>
</g>
<defs>
<linearGradient id="paint0_linear_601_3121" x1="20" y1="5.5" x2="121" y2="140" gradientUnits="userSpaceOnUse">
<stop stop-color="#FE5E00"/>
<stop offset="1" stop-color="#FE4100"/>
</linearGradient>
<linearGradient id="paint1_linear_601_3121" x1="34.059" y1="28.6487" x2="79.1953" y2="-7.15957" gradientUnits="userSpaceOnUse">
<stop stop-color="white"/>
<stop offset="1" stop-color="white" stop-opacity="0"/>
</linearGradient>
<linearGradient id="paint2_linear_601_3121" x1="56.6077" y1="1" x2="26.9271" y2="36.5792" gradientUnits="userSpaceOnUse">
<stop stop-color="white" stop-opacity="0"/>
<stop offset="1" stop-color="white"/>
</linearGradient>
<clipPath id="clip0_601_3121">
<rect width="117" height="119" fill="white" transform="translate(18)"/>
</clipPath>
</defs>
</svg>
