<svg width="140" height="140" viewBox="0 0 140 140" fill="none" xmlns="http://www.w3.org/2000/svg">
<rect width="140" height="140" rx="30" fill="url(#paint0_linear_601_3143)"/>
<g clip-path="url(#clip0_601_3143)">
<path d="M96.8612 65.8407C102.715 75.8327 108.483 85.6799 114.524 95.9912C106.591 95.6158 99.0583 96.7569 91.635 94.8235C88.7095 94.0608 86.5479 92.3284 85.0556 89.6856C83.5336 86.9925 81.911 84.3555 80.2084 81.485C75.5684 85.5971 70.9907 89.5082 66.6024 93.6203C64.7903 95.3201 62.9693 96.0355 60.4613 96.0001C50.8202 95.8582 41.1731 95.9439 31.532 95.9439C30.6704 95.9439 29.8057 95.9439 28.5443 95.9439C31.2181 85.3399 33.815 75.0404 36.4088 64.7409C36.317 64.6227 36.2223 64.5044 36.1305 64.3862C33.6699 67.0527 31.2093 69.7163 28.7486 72.3828C28.4999 72.303 28.2512 72.2261 28.0054 72.1463C28.0054 67.978 27.9699 63.8097 28.0498 59.6415C28.0587 59.1182 28.5828 58.5092 29.0211 58.1042C33.7587 53.7261 38.5141 49.3686 43.2962 45.0436C43.7996 44.5884 44.5043 44.0917 45.1291 44.0769C49.0169 43.9882 52.9077 44.0326 57.2041 44.0326C53.1623 60.4278 49.1916 76.5422 45.2179 92.6566C45.3511 92.7364 45.4844 92.8133 45.6206 92.8931C49.1649 89.6176 52.7034 86.3332 56.2507 83.0636C69.8862 70.4849 83.5188 57.9032 97.1899 45.3658C97.8916 44.7214 98.925 44.074 99.8134 44.0622C106.588 43.9587 113.363 44.0119 120.141 44.0296C120.348 44.0296 120.555 44.1686 121.002 44.3253C112.889 51.5562 104.906 58.6718 96.8642 65.8407H96.8612Z" fill="white"/>
<path d="M87.2884 50.0661C81.7276 55.1656 76.3474 60.1025 70.6978 65.2877C66.5316 58.2371 62.4573 51.3403 58.2378 44.198C64.7521 44.198 70.985 44.1034 77.215 44.2335C80.9785 44.3104 84.0609 46.0782 86.5363 48.8866C86.788 49.1704 86.9509 49.531 87.2884 50.0661Z" fill="white"/>
</g>
<defs>
<linearGradient id="paint0_linear_601_3143" x1="70" y1="0" x2="70" y2="140" gradientUnits="userSpaceOnUse">
<stop stop-color="#003264"/>
<stop offset="1" stop-color="#00123A"/>
</linearGradient>
<clipPath id="clip0_601_3143">
<rect width="93" height="52" fill="white" transform="translate(28 44)"/>
</clipPath>
</defs>
</svg>
