<svg width="140" height="140" viewBox="0 0 140 140" fill="none" xmlns="http://www.w3.org/2000/svg">
<rect width="140" height="140" rx="30" fill="white"/>
<path d="M28 69.9524C28 66.7778 29.0331 64.1587 31.0993 62.0952C33.245 60.0317 35.947 59 39.2053 59C42.4636 59 45.1258 60.0317 47.1921 62.0952C49.3377 64.1587 50.4106 66.7778 50.4106 69.9524C50.4106 73.0476 49.3377 75.6667 47.1921 77.8095C45.1258 79.873 42.4636 80.9048 39.2053 80.9048C35.947 80.9048 33.245 79.873 31.0993 77.8095C29.0331 75.6667 28 73.0476 28 69.9524Z" fill="#2A926F"/>
<path d="M59 69.9524C59 66.7778 60.0331 64.1587 62.0993 62.0952C64.245 60.0317 66.947 59 70.2053 59C73.4636 59 76.1258 60.0317 78.1921 62.0952C80.3377 64.1587 81.4106 66.7778 81.4106 69.9524C81.4106 73.0476 80.3377 75.6667 78.1921 77.8095C76.1258 79.873 73.4636 80.9048 70.2053 80.9048C66.947 80.9048 64.245 79.873 62.0993 77.8095C60.0331 75.6667 59 73.0476 59 69.9524Z" fill="#2A926F"/>
<path d="M90 69.9524C90 66.7778 91.0331 64.1587 93.0993 62.0952C95.245 60.0317 97.947 59 101.205 59C104.464 59 107.126 60.0317 109.192 62.0952C111.338 64.1587 112.411 66.7778 112.411 69.9524C112.411 73.0476 111.338 75.6667 109.192 77.8095C107.126 79.873 104.464 80.9048 101.205 80.9048C97.947 80.9048 95.245 79.873 93.0993 77.8095C91.0331 75.6667 90 73.0476 90 69.9524Z" fill="#2A926F"/>
</svg>
