<svg width="140" height="140" viewBox="0 0 140 140" fill="none" xmlns="http://www.w3.org/2000/svg">
<rect width="140" height="140" rx="30" fill="#A01D22"/>
<g clip-path="url(#clip0_799_9714)">
<path d="M66.0465 86.6187C66.0951 85.9741 66.0989 85.3231 66.1987 84.6862C66.4546 83.0619 66.7462 81.4414 67.0379 79.8222C67.2017 78.9105 67.3833 78.0014 67.5765 77.0962C67.6558 76.7264 67.5726 76.5081 67.2055 76.3424C66.6554 76.0933 66.1169 75.8057 65.6116 75.4757C65.4363 75.3614 65.2815 75.0712 65.2802 74.8606C65.2764 74.13 65.5962 73.4982 66.058 72.95C66.1667 72.8216 66.3829 72.7663 66.5608 72.7214C66.8844 72.6379 67.2144 72.5776 67.5445 72.5262C68.4873 72.3773 68.4515 72.3773 68.5704 71.4296C68.7828 69.7334 68.9926 68.0333 69.2996 66.3538C69.6041 64.6909 70.3575 63.222 71.5344 61.9906C71.5895 61.9328 71.6355 61.8673 71.6803 61.8005C71.6956 61.7761 71.6931 61.7402 71.7135 61.6156C71.3528 61.7209 71.0253 61.8031 70.7068 61.911C68.8378 62.544 66.9714 63.1847 65.1037 63.8203C64.954 63.8717 64.798 63.9179 64.6419 63.9398C63.8833 64.0451 63.6274 63.7202 63.9357 63.014C64.2927 62.196 64.798 61.563 65.6333 61.102C68.0357 59.7769 70.6044 58.9885 73.2704 58.4607C75.3671 58.0472 77.4765 57.7583 79.6116 57.6094C82.2264 57.427 84.8066 57.5567 87.342 58.227C88.6635 58.5763 89.8992 59.1464 90.8843 60.1338C92.1865 61.4359 92.6778 63.57 91.758 65.2932C91.0877 66.5477 90.1397 67.5454 89.0716 68.4339C87.2653 69.9363 85.253 71.1202 83.1346 72.1179C80.855 73.1914 78.4935 74.0504 76.0387 74.6321C75.0933 74.8555 74.1351 75.0199 73.1834 75.215C73.0094 75.251 72.8406 75.3088 72.6679 75.3576C72.6679 75.3986 72.6679 75.441 72.6666 75.4821C72.9992 75.6015 73.3267 75.7364 73.6644 75.8365C76.2766 76.6069 78.8696 77.4724 81.5765 77.8486C82.6907 78.004 83.8318 77.9616 84.9627 77.9886C85.4091 77.9989 85.6547 77.805 85.7571 77.3016C86.0142 76.0355 86.6551 74.9223 87.3241 73.836C88.1978 72.4171 89.2673 71.1574 90.489 70.0275C92.6841 67.9987 95.2145 66.7377 98.2527 66.7428C99.624 66.7454 100.884 67.1383 101.892 68.1566C102.91 69.1851 103.148 70.4538 103.033 71.8238C102.864 73.8231 101.782 75.3049 100.273 76.5081C97.9636 78.3481 95.2823 79.4126 92.4731 80.1984C91.8437 80.3743 91.2117 80.5413 90.576 80.6928C90.2715 80.766 90.2101 80.9291 90.2587 81.2193C90.4416 82.2991 91.1337 83.0555 92.2313 83.3058C93.7945 83.6615 95.3424 83.5524 96.8494 83.0388C98.8706 82.3492 100.635 81.2783 101.751 79.3741C102.056 78.8553 102.282 78.2826 102.483 77.7125C103.348 75.2574 104.777 73.1798 106.61 71.3577C107.957 70.0185 109.469 68.9155 111.182 68.1027C112.91 67.2821 114.719 66.757 116.648 66.7339C117.324 66.7262 117.42 66.6915 117.42 66.0071C117.42 63.8987 117.377 61.7915 117.345 59.6831C117.326 58.4029 117.28 57.1227 117.276 55.8412C117.276 55.3315 117.563 55.1645 118.037 55.3661C119.401 55.9427 120.639 56.7118 121.635 57.8302C122.077 58.3285 122.191 58.914 122.1 59.5714C121.761 62.0406 121.41 64.5099 121.127 66.9855C120.999 68.1104 120.996 69.2519 120.982 70.3857C120.966 71.6942 120.973 73.0039 121.017 74.3123C121.087 76.431 121.467 78.5048 122.004 80.5503C122.452 82.2568 123.096 83.8862 123.925 85.4438C124.146 85.8585 123.871 86.2643 123.342 86.2232C122.954 86.1924 122.552 86.0807 122.198 85.915C119.889 84.8326 118.474 82.99 117.797 80.5567C117.623 79.9326 117.528 79.2868 117.304 78.6075C117.145 78.9799 116.976 79.3484 116.825 79.7246C115.835 82.1874 114.216 84.0853 111.838 85.2961C110.07 86.1962 108.172 86.5108 106.221 86.349C104.411 86.1988 102.918 85.4425 102.125 83.6692C102.089 83.5883 102.018 83.5228 102.006 83.51C100.949 84.0634 99.9566 84.6669 98.9 85.1215C96.8225 86.0165 94.6235 86.4325 92.3695 86.308C90.6118 86.2104 88.8899 85.8752 87.4802 84.6502C86.6346 83.9158 86.0398 83.0298 85.7507 81.955C85.6291 81.5017 85.4526 81.3143 84.9486 81.3181C82.7253 81.331 80.5224 81.0523 78.3682 80.5284C76.1397 79.9866 73.9944 79.1712 71.9566 78.0977C71.418 77.814 71.3195 77.8704 71.2428 78.4881C71.0854 79.7721 70.9767 81.0665 70.7464 82.3377C70.2949 84.8287 68.9453 86.1641 66.2857 86.6559C66.2435 86.6636 66.1962 86.6444 66.0452 86.6225L66.0465 86.6187ZM71.9246 71.0932C71.9221 72.1834 71.9233 72.1911 72.7612 72.0524C73.42 71.9433 74.0801 71.8354 74.73 71.6865C76.9776 71.1703 79.0909 70.292 81.107 69.1864C82.6319 68.3505 84.0441 67.363 85.2121 66.0405C86.5796 64.4932 85.8069 62.4169 84.3844 61.6387C82.7048 60.7194 80.8691 60.5601 79.0474 60.6423C77.0365 60.7322 75.037 61.0969 73.0312 61.3267C72.6116 61.3755 72.4235 61.5347 72.4146 61.9906C72.3877 63.3658 72.3365 64.7397 72.2585 66.1137C72.1587 67.8677 72.0257 69.6204 71.9246 71.0945V71.0932ZM107.457 82.5367C109.648 82.5726 111.058 81.8767 112.295 80.7673C113.802 79.4164 114.759 77.6881 115.503 75.8481C116.284 73.9181 116.742 71.8893 117.051 69.8297C117.141 69.2339 117.011 69.126 116.394 69.2301C115.127 69.4445 113.945 69.8631 112.849 70.5603C111.714 71.2833 110.666 72.0973 109.771 73.1053C108.717 74.2905 107.806 75.5656 107.11 77.0037C106.55 78.1606 106.043 79.315 106.052 80.6337C106.061 82.0269 106.563 82.538 107.457 82.538V82.5367ZM90.576 77.2605C90.7845 77.2413 90.8791 77.2438 90.9687 77.222C92.6445 76.8188 94.2589 76.241 95.8106 75.486C96.8788 74.9659 97.874 74.3432 98.6557 73.4328C99.2198 72.7766 99.7366 72.046 99.3503 71.142C98.9537 70.2149 98.1133 69.9787 97.1666 70.0249C95.6226 70.0994 94.4367 70.9045 93.3673 71.9163C92.1392 73.0796 91.3525 74.5293 90.819 76.1216C90.7052 76.4618 90.6655 76.8265 90.5747 77.2592L90.576 77.2605Z" fill="white"/>
<path d="M43.0086 93.065C45.6463 93.065 48.192 92.5668 50.6495 91.6795C54.2045 90.3942 57.2529 88.3063 59.7768 85.4853C61.4898 83.5694 62.8445 81.4097 63.8218 79.0226C64.0802 78.3909 64.3054 77.7424 64.5906 77.1235C64.6802 76.9296 64.8977 76.7254 65.0972 76.6689C65.3313 76.6035 65.678 76.606 65.8481 76.7421C65.985 76.8513 66.017 77.2275 65.9492 77.4394C65.6038 78.5167 65.2597 79.5992 64.826 80.6431C63.9203 82.8234 62.6782 84.8073 61.1763 86.6268C59.7884 88.3102 58.22 89.7945 56.4687 91.1004C53.4344 93.3629 50.0265 94.7702 46.355 95.5176C43.8349 96.0312 41.2777 96.1403 38.7026 95.836C36.3283 95.5561 34.0295 95.0104 31.8216 94.1115C29.3885 93.1215 27.1869 91.7347 25.1593 90.059C23.4413 88.6402 21.9318 87.0261 20.6512 85.2092C19.6662 83.8134 18.8437 82.3213 18.1708 80.7394C17.3674 78.8518 16.738 76.9142 16.399 74.8944C16.2123 73.7785 16.0971 72.6434 16.0332 71.5135C15.872 68.6924 16.2916 65.933 17.0758 63.2326C17.9213 60.3191 19.2863 57.6585 21.1003 55.2291C22.194 53.7653 23.4246 52.4248 24.8113 51.2396C26.4027 49.8798 28.0875 48.6381 30.0153 47.7957C31.4979 47.1486 32.9921 46.5168 34.5233 46.0045C36.1569 45.4575 37.8724 45.2469 39.5891 45.089C42.0261 44.8642 44.4311 45.1108 46.8092 45.609C49.2551 46.1213 51.5897 46.9778 53.7759 48.1976C55.5733 49.2005 57.2273 50.4088 58.7547 51.8007C60.5943 53.4777 62.0808 55.4359 63.4035 57.5289C63.7412 58.063 64.0163 58.646 64.2478 59.2354C64.3898 59.5962 64.4666 60.0328 63.9728 60.2652C63.5839 60.4488 63.172 60.3371 62.8624 59.8812C62.3903 59.1866 61.9823 58.4457 61.5089 57.7523C60.5354 56.3257 59.3969 55.0429 58.1228 53.8744C56.3549 52.254 54.3964 50.9134 52.2025 49.9722C50.8324 49.3854 49.3856 48.9527 47.9426 48.5662C46.1644 48.0911 44.3313 47.9575 42.4917 48.0025C39.7426 48.068 37.0921 48.6073 34.5412 49.6576C32.0096 50.7003 29.7313 52.1358 27.7216 53.9913C26.0739 55.5116 24.7026 57.2579 23.5679 59.1994C21.8895 62.0718 20.9045 65.1574 20.6001 68.4703C20.3621 71.0602 20.5962 73.5962 21.2243 76.1245C21.9817 79.1716 23.3581 81.8925 25.2667 84.3476C26.7942 86.3122 28.5992 87.9994 30.6843 89.3644C33.4449 91.1723 36.4691 92.3023 39.726 92.7812C40.8108 92.9405 41.9122 92.9777 43.0073 93.0701L43.0086 93.065Z" fill="white"/>
<path d="M36.6315 67.9242C37.4464 68.1836 38.1499 68.3826 38.8343 68.6317C40.5651 69.2609 42.0043 70.3215 43.1441 71.7622C44.5948 73.5959 45.2037 75.7235 45.0246 78.0361C44.9146 79.4576 44.4694 80.8148 43.808 82.0911C42.9305 83.7848 41.7177 85.1767 40.0944 86.1783C38.5951 87.1041 36.9615 87.5484 35.1847 87.5034C33.5639 87.4623 32.0185 87.1131 30.5704 86.4184C29.208 85.7635 28.067 84.7825 27.105 83.614C25.9204 82.1759 25.0096 80.5695 24.3431 78.8297C24.2638 78.6229 24.2587 78.2107 24.3687 78.1465C24.5836 78.0194 24.9226 77.995 25.1733 78.0631C25.7272 78.2133 25.9741 78.7154 26.2236 79.1815C27.2175 81.0421 28.5991 82.5534 30.4758 83.5036C32.5942 84.5758 34.815 84.7761 36.9986 83.6641C38.7844 82.7537 39.8488 81.3053 40.1187 79.256C40.482 76.5017 39.0659 74.4266 36.8963 73.2081C34.8623 72.0653 32.662 71.5683 30.3824 71.3359C29.2912 71.2255 28.1936 71.1651 27.0986 71.0907C26.7583 71.0676 26.592 70.9135 26.6585 70.5681C26.8555 69.5421 27.1561 68.547 27.719 67.6597C27.8162 67.5056 28.0861 67.4273 28.2908 67.381C29.5023 67.1114 30.7329 66.9188 31.9264 66.5888C33.395 66.183 34.7676 65.5448 35.8588 64.4252C37.1163 63.136 37.5359 61.554 37.2327 59.8308C36.9743 58.3593 36.0008 57.4065 34.3442 56.9969C32.5059 56.5424 30.816 56.9866 29.3142 58.0652C28.6247 58.5609 28.0861 59.2645 27.4299 59.8141C27.0922 60.0979 26.6662 60.32 26.2428 60.4433C25.8462 60.5589 25.6044 60.2045 25.7899 59.8308C27.4069 56.5757 29.744 54.1437 33.4155 53.3438C35.2371 52.947 37.0485 53.0587 38.6808 54.0795C40.4423 55.18 41.6052 56.7465 41.8815 58.8408C42.1425 60.8118 41.618 62.6429 40.5933 64.3263C39.7196 65.7619 38.5196 66.8546 37.0255 67.6212C36.9078 67.6815 36.8131 67.783 36.6315 67.9242Z" fill="white"/>
<path d="M43.1313 87.5227C42.5467 87.4829 41.9634 87.506 41.4082 87.3892C40.6957 87.2389 40.5396 86.7009 41.0551 86.1565C41.4798 85.7083 41.9711 85.3103 42.4828 84.9636C44.3811 83.6731 46.1644 82.2452 47.8415 80.6748C49.4943 79.1276 51.0179 77.4737 52.4301 75.7017C54.2006 73.4816 55.6948 71.1048 56.809 68.4918C57.6891 66.4296 58.1867 64.2968 57.7288 62.0535C57.304 59.9733 56.2717 58.3118 54.1072 57.7096C52.1705 57.1703 49.5953 58.0293 48.5809 60.1891C48.3775 60.6205 48.2445 61.0892 48.0168 61.5052C47.8914 61.7338 47.6534 62.0355 47.4385 62.0599C45.7448 62.2538 44.1483 61.9123 42.6708 61.0468C42.3126 60.8375 42.2717 60.5101 42.406 60.1749C43.5739 57.2524 45.3521 54.859 48.3852 53.7072C50.7505 52.8083 53.112 53.0215 55.3967 54.1039C56.9075 54.8204 58.156 55.8721 59.1359 57.2114C60.1018 58.5288 60.703 60.0183 60.9217 61.6542C61.1981 63.7279 60.9038 65.7272 60.2233 67.6918C59.4314 69.9787 58.3453 72.1218 57.1748 74.2289C55.8022 76.7007 54.1814 78.9992 52.4327 81.2129C52.3419 81.3271 52.3022 81.4825 52.2395 81.6199C52.402 81.652 52.5696 81.7291 52.7269 81.7111C54.5575 81.4954 56.3357 81.0793 57.9756 80.2036C59.1769 79.5616 60.2182 78.7038 61.1533 77.7151C61.2185 77.6458 61.2799 77.5662 61.358 77.5174C61.6752 77.3196 62.0385 77.0911 62.375 77.3517C62.7242 77.6239 62.5029 77.9912 62.3545 78.3122C61.7085 79.7041 60.7081 80.8431 59.5542 81.7894C58.3441 82.782 57.038 83.6885 55.6679 84.4423C54.4373 85.119 53.08 85.5812 51.7496 86.0576C49.548 86.8447 47.2582 87.2351 44.9287 87.3956C44.3261 87.4367 43.7236 87.4816 43.13 87.5227H43.1313Z" fill="white"/>
</g>
<defs>
<clipPath id="clip0_799_9714">
<rect width="108" height="51" fill="white" transform="translate(16 45)"/>
</clipPath>
</defs>
</svg>
