<svg width="140" height="140" viewBox="0 0 140 140" fill="none" xmlns="http://www.w3.org/2000/svg">
<g clip-path="url(#clip0_602_3157)">
<rect width="140" height="140" rx="30" fill="#FFDF01"/>
<g opacity="0.48" filter="url(#filter0_f_602_3157)">
<circle cx="70" cy="58" r="41" fill="#80720C"/>
</g>
<g clip-path="url(#clip1_602_3157)">
<path d="M70.5 90.6521C88.4493 90.6521 103 75.9554 103 57.8261C103 39.6967 88.4493 25 70.5 25C52.5507 25 38 39.6967 38 57.8261C38 75.9554 52.5507 90.6521 70.5 90.6521Z" fill="white"/>
<path d="M70.4999 85.8129C85.8031 85.8129 98.2087 73.2828 98.2087 57.8261C98.2087 42.3694 85.8031 29.8392 70.4999 29.8392C55.1967 29.8392 42.791 42.3694 42.791 57.8261C42.791 73.2828 55.1967 85.8129 70.4999 85.8129Z" fill="#393939"/>
<path d="M44.9353 61.6169C44.9353 46.1608 57.3403 33.63 72.6441 33.63C82.1766 33.63 90.583 38.4918 95.5684 45.8931C91.1342 36.4055 81.5769 29.8392 70.4999 29.8392C55.1973 29.8392 42.791 42.3687 42.791 57.8261C42.791 63.6554 44.556 69.0672 47.5756 73.5486C45.8841 69.9288 44.9353 65.8848 44.9353 61.6155V61.6169Z" fill="#2E2E2E"/>
<path d="M70.4999 78.6727C81.8989 78.6727 91.1395 69.3393 91.1395 57.826C91.1395 46.3127 81.8989 36.9794 70.4999 36.9794C59.101 36.9794 49.8604 46.3127 49.8604 57.826C49.8604 69.3393 59.101 78.6727 70.4999 78.6727Z" fill="#212121"/>
<path d="M51.7371 60.8043C51.7371 49.2915 60.9782 39.9577 72.3767 39.9577C79.0759 39.9577 85.0284 43.1825 88.7999 48.1781C85.3525 41.5217 78.4525 36.9794 70.5014 36.9794C59.1029 36.9794 49.8618 46.3132 49.8618 57.826C49.8618 62.5725 51.4339 66.9478 54.0782 70.4509C52.5848 67.5654 51.7384 64.2849 51.7384 60.803L51.7371 60.8043Z" fill="#1B1B1B"/>
<path d="M81.8751 52.4116C83.7906 52.4116 85.3435 50.8432 85.3435 48.9084C85.3435 46.9737 83.7906 45.4053 81.8751 45.4053C79.9596 45.4053 78.4067 46.9737 78.4067 48.9084C78.4067 50.8432 79.9596 52.4116 81.8751 52.4116Z" fill="#FFF9BD"/>
<path d="M95.0948 98.0893C93.5069 101.461 91.4624 104.714 88.8103 107.524C86.477 109.996 83.674 112.126 80.2988 113.69C79.287 114.158 78.2241 114.577 77.1073 114.938C74.2452 115.866 71.2178 116.19 68.2258 115.894C66.1813 115.691 64.2719 115.295 62.4977 114.73C57.4861 113.133 53.5571 110.197 50.7291 106.516C50.3184 105.981 50.653 105.214 51.2934 105.133C51.3275 105.129 51.363 105.126 51.3984 105.126C54.4403 105.105 57.4979 104.988 60.5411 104.77C60.9426 104.742 61.3455 104.71 61.7471 104.677C65.5855 104.369 69.3898 103.897 73.0944 103.252C73.244 103.227 73.3923 103.2 73.5405 103.172C77.1756 102.527 80.7109 101.712 84.0834 100.718C84.2094 100.682 84.3354 100.643 84.4614 100.606C87.8444 99.5923 91.0608 98.3981 94.0423 97.0117C94.7182 96.6976 95.4137 97.4106 95.0948 98.0893Z" fill="#150602"/>
<path d="M80.2987 113.69C79.2869 114.158 78.224 114.576 77.1072 114.938C74.2451 115.866 71.2177 116.19 68.2257 115.894C66.1811 115.691 64.2718 115.295 62.4976 114.73C64.903 112.253 68.2572 110.715 71.9657 110.715C75.1217 110.715 78.0219 111.829 80.2987 113.69Z" fill="#351E1E"/>
<path d="M60.5411 104.77V105.403C60.5411 106.573 59.6002 107.524 58.4415 107.524H53.3931C52.2331 107.524 51.2935 106.573 51.2935 105.403V105.133C51.3276 105.129 51.363 105.126 51.3984 105.126C54.4403 105.105 57.4979 104.988 60.5411 104.77Z" fill="#FDFDFD"/>
<path d="M73.0944 103.252V105.403C73.0944 106.573 72.1535 107.524 70.9947 107.524H63.8467C62.6867 107.524 61.7471 106.573 61.7471 105.403V104.677C65.5855 104.369 69.3898 103.897 73.0944 103.252Z" fill="#FDFDFD"/>
<path d="M95.0949 98.0893C93.507 101.461 91.4625 104.714 88.8103 107.524H86.5611C85.7986 107.524 85.132 107.113 84.7646 106.499C84.5717 106.178 84.4614 105.803 84.4614 105.403V100.606C87.8445 99.5923 91.0609 98.3981 94.0424 97.0117C94.7182 96.6976 95.4137 97.4106 95.0949 98.0893Z" fill="#FDFDFD"/>
<path d="M85.0663 102.515V105.403C85.0663 105.803 84.9561 106.178 84.7645 106.499C84.3957 107.113 83.7291 107.524 82.9667 107.524H75.6402C74.4814 107.524 73.5405 106.573 73.5405 105.403V103.172C77.1756 102.527 80.7108 101.712 84.0834 100.718C84.2212 100.805 84.3472 100.909 84.4613 101.024C84.8353 101.407 85.0663 101.933 85.0663 102.515Z" fill="#FDFDFD"/>
</g>
</g>
<defs>
<filter id="filter0_f_602_3157" x="-15.9" y="-27.9" width="171.8" height="171.8" filterUnits="userSpaceOnUse" color-interpolation-filters="sRGB">
<feFlood flood-opacity="0" result="BackgroundImageFix"/>
<feBlend mode="normal" in="SourceGraphic" in2="BackgroundImageFix" result="shape"/>
<feGaussianBlur stdDeviation="22.45" result="effect1_foregroundBlur_602_3157"/>
</filter>
<clipPath id="clip0_602_3157">
<rect width="140" height="140" rx="30" fill="white"/>
</clipPath>
<clipPath id="clip1_602_3157">
<rect width="65" height="91" fill="white" transform="translate(38 25)"/>
</clipPath>
</defs>
</svg>
