<svg width="140" height="140" viewBox="0 0 140 140" fill="none" xmlns="http://www.w3.org/2000/svg">
<rect width="140" height="140" rx="30" fill="white"/>
<path d="M117.094 64.0131C117.803 63.0365 121.99 59.6032 122 58.7461C122.002 58.5783 121.627 57.7468 121.499 57.6293C121.175 57.3321 120.667 57.2363 120.261 57.417C119.483 57.7636 115.738 62.296 115.377 62.296C113.956 61.4083 112.059 58.0342 110.762 57.4299C109.718 56.9441 108.333 57.8811 108.781 58.8696C109.135 59.6476 113.66 63.39 113.66 63.7495C113 64.5187 108.652 68.817 108.65 69.2821C108.648 69.8419 109.787 70.8146 110.424 70.541C111.514 70.074 114.948 65.6315 115.604 65.7451C116.948 66.5163 119.402 70.1095 120.51 70.6102C120.956 70.8116 121.885 69.8696 121.978 69.4371C122.173 68.5267 117.798 64.9897 117.094 64.0131ZM98.5889 57.3677C95.048 58.4361 93.7643 61.1051 93.6409 64.5404C93.4987 68.5148 93.6409 72.5505 93.6409 76.5279C93.6409 76.6493 95.6523 76.8587 96.0117 76.5279V64.8031C96.0117 64.6036 96.3178 62.8548 96.3978 62.5547C96.5212 62.0896 96.9774 61.4586 97.3181 61.1031C100.811 57.4634 106.689 61.5968 103.97 66.1756C102.556 68.5593 99.4825 67.9609 99.211 68.3983C99.0757 68.6155 99.1182 70.2399 99.289 70.4848C100.051 71.5769 103.671 69.8548 104.569 69.1448C110.663 64.3212 105.734 55.2131 98.5889 57.3677ZM75.9302 57.105C66.4538 58.2494 61.5976 69.4233 66.8132 77.4037C72.4011 85.9549 85.7513 84.8174 89.7366 75.3893C93.7841 65.8142 86.1897 55.8658 75.9302 57.105ZM85.1173 77.4886C76.1386 87.0184 60.6625 73.135 70.285 62.92C79.326 53.3231 94.649 67.3724 85.1173 77.4886ZM47.7389 57.105C37.4943 58.3432 32.7585 70.9943 39.6232 78.7743C45.9862 85.9875 57.945 84.0906 61.6252 75.2057C65.4851 65.8873 57.71 55.8993 47.7389 57.105ZM47.729 80.4174C36.4397 78.7763 36.5305 61.6956 47.4654 59.9923C63.4382 57.5049 63.451 82.7033 47.729 80.4174ZM21.9047 65.5209C21.1631 65.8102 20.6625 66.459 19.8696 66.5163V59.6654H32.253V57.2946H18.1573C18.1109 57.2946 17.6923 57.7014 17.634 57.8258C17.7614 59.7879 16.9636 69.3541 17.6271 70.4709C18.6481 72.1861 20.3149 69.7333 21.0614 69.1576C26.7609 64.7586 34.1716 70.1707 31.6714 76.6049C29.8861 81.1994 23.4579 82.0101 20.4413 78.1956C19.5664 77.0887 19.3837 74.9104 17.3881 76.2849C16.3256 77.0166 17.7199 78.8118 18.2946 79.5514C22.4961 84.9527 31.1115 84.0699 33.8803 77.7602C37.3313 69.8962 29.7785 62.453 21.9047 65.5209Z" fill="#FEFEFE"/>
<path d="M33.8803 77.7603C31.1115 84.07 22.4961 84.9527 18.2946 79.5515C17.7199 78.8119 16.3256 77.0167 17.3881 76.285C19.3837 74.9105 19.5664 77.0888 20.4413 78.1957C23.4579 82.0102 29.8861 81.1995 31.6714 76.605C34.1716 70.1708 26.7609 64.7587 21.0614 69.1577C20.3149 69.7334 18.6481 72.1862 17.6271 70.471C16.9636 69.3542 17.7614 59.788 17.634 57.8259C17.6923 57.7015 18.1109 57.2947 18.1573 57.2947H32.253V59.6655H19.8696V66.5163C20.6625 66.4591 21.1631 65.8103 21.9047 65.521C29.7785 62.453 37.3313 69.8963 33.8803 77.7603Z" fill="black"/>
<path d="M104.569 69.1447C103.672 69.8546 100.052 71.5767 99.2894 70.4846C99.1186 70.2397 99.0761 68.6154 99.2114 68.3981C99.483 67.9607 102.557 68.5591 103.971 66.1754C106.689 61.5967 100.811 57.4633 97.3185 61.103C96.9778 61.4585 96.5217 62.0894 96.3982 62.5545C96.3183 62.8547 96.0121 64.6034 96.0121 64.8029V76.5277C95.6527 76.8585 93.6413 76.6492 93.6413 76.5277C93.6413 72.5503 93.4991 68.5147 93.6413 64.5402C93.7648 61.105 95.0484 58.4359 98.5893 57.3675C105.734 55.2129 110.664 64.321 104.569 69.1447Z" fill="black"/>
<path d="M121.978 69.4371C121.885 69.8696 120.956 70.8116 120.509 70.6101C119.402 70.1095 116.948 66.5162 115.604 65.745C114.947 65.6315 111.514 70.074 110.424 70.541C109.787 70.8145 108.647 69.8419 108.649 69.282C108.651 68.817 112.999 64.5187 113.66 63.7494C113.66 63.39 109.134 59.6476 108.781 58.8695C108.332 57.8811 109.718 56.944 110.762 57.4299C112.059 58.0342 113.956 61.4082 115.377 62.2959C115.737 62.2959 119.483 57.7636 120.261 57.417C120.666 57.2363 121.175 57.3321 121.499 57.6293C121.626 57.7468 122.001 58.5782 122 58.7461C121.99 59.6032 117.803 63.0365 117.094 64.0131C117.798 64.9897 122.172 68.5266 121.978 69.4371Z" fill="black"/>
<path d="M75.9305 57.105C66.4541 58.2494 61.5979 69.4233 66.8135 77.4037C72.4014 85.9549 85.7516 84.8174 89.7369 75.3893C93.7844 65.8142 86.19 55.8658 75.9305 57.105ZM85.1177 77.4886C76.1389 87.0184 60.6628 73.135 70.2854 62.92C79.3263 53.3231 94.6494 67.3724 85.1177 77.4886Z" fill="black"/>
<path d="M47.7395 57.1049C37.4949 58.3432 32.7592 70.9942 39.6238 78.7742C45.9868 85.9874 57.9457 84.0906 61.6258 75.2056C65.4857 65.8872 57.7107 55.8993 47.7395 57.1049ZM47.7297 80.4173C36.4403 78.7762 36.5312 61.6955 47.466 59.9922C63.4388 57.5049 63.4516 82.7032 47.7297 80.4173Z" fill="black"/>
</svg>
