<svg width="140" height="140" viewBox="0 0 140 140" fill="none" xmlns="http://www.w3.org/2000/svg">
<rect width="140" height="140" rx="30" fill="#F56701"/>
<g clip-path="url(#clip0_846_3849)">
<path d="M111.914 63.861C109.653 63.861 107.389 63.826 105.128 63.869C101.35 63.9413 98.4753 60.5976 98.8887 56.9874C99.1453 54.7458 99.2812 52.4853 99.3709 50.2298C99.5407 45.9707 102.945 42.3708 106.896 41.8752C107.444 41.8066 107.996 41.7482 108.547 41.746C110.929 41.7336 113.312 41.7036 115.693 41.7562C118.821 41.8248 121.284 43.2043 123.05 45.8094C123.866 47.0131 124.327 48.3634 124.438 49.824C124.619 52.1962 124.78 54.5706 124.972 56.9421C125.146 59.0968 124.505 60.9238 122.881 62.3559C121.772 63.334 120.464 63.8464 118.989 63.8566C116.631 63.8734 114.272 63.861 111.914 63.861V63.8625L111.914 63.861ZM111.932 54.1684C112.357 54.1071 112.788 54.0663 113.209 53.9801C115.879 53.4341 117.886 51.0247 117.949 48.305C117.959 47.8481 117.868 47.6532 117.438 47.5598C117.046 47.4744 116.627 47.4503 116.228 47.486C115.504 47.551 115.414 47.6707 115.301 48.4109C115.081 49.8641 114.308 50.8714 112.905 51.305C110.752 51.9707 108.751 50.3473 108.573 48.5211C108.484 47.6211 108.281 47.4882 107.368 47.4627C107.224 47.4583 107.08 47.4605 106.936 47.4714C106.063 47.5386 105.892 47.7306 105.929 48.5919C106.061 51.605 108.784 54.1181 111.932 54.1692V54.1684Z" fill="white"/>
<path d="M89.443 82.9732C89.2341 83.26 89.023 83.5462 88.8156 83.8338C87.4436 85.7396 86.0703 87.6447 84.7019 89.5541C83.9111 90.6578 82.837 90.8921 81.6342 90.6235C80.9504 90.4702 80.4509 90.0184 80.0425 89.4425C78.6265 87.4498 77.1945 85.468 75.7669 83.4841C75.6693 83.3491 75.5544 83.2265 75.3253 82.952C75.3065 83.3498 75.2848 83.5951 75.2848 83.8403C75.2819 87.5096 75.2848 91.1797 75.2783 94.849C75.2776 95.3095 75.2595 95.773 75.2082 96.23C75.0369 97.7504 73.8276 98.8942 72.3175 98.9869C70.7801 99.0817 69.3944 98.0606 69.0575 96.565C68.9889 96.2599 68.9535 95.9402 68.9527 95.627C68.947 88.9439 68.9441 82.2608 68.9527 75.5777C68.9549 74.101 69.7132 72.9244 70.963 72.5106C72.2019 72.1003 73.4813 72.1529 74.7419 72.4127C75.3918 72.547 75.7929 73.0609 76.1508 73.5952C77.5516 75.6886 78.9568 77.7784 80.3606 79.8696C80.941 80.7338 81.5193 81.6002 82.1026 82.4622C82.1799 82.5768 82.2804 82.6761 82.4243 82.8462C82.5985 82.617 82.7481 82.4389 82.8768 82.2477C84.7576 79.455 86.6717 76.6849 88.4968 73.8558C89.237 72.7084 90.1702 72.166 91.4973 72.2529C92.1197 72.2938 92.7529 72.2689 93.3644 72.3726C94.7833 72.6135 95.7939 73.8229 95.8488 75.2726C95.864 75.6609 95.856 76.0499 95.856 76.439C95.856 82.733 95.8575 89.0279 95.856 95.3219C95.856 95.6621 95.8712 96.0066 95.8213 96.3409C95.577 97.965 94.1263 99.0912 92.45 98.9796C90.8699 98.8745 89.6179 97.581 89.602 95.9482C89.5738 93.1293 89.5912 90.3103 89.5905 87.4914C89.5905 86.0104 89.5905 84.5294 89.5905 83.0484C89.5406 83.0228 89.4914 82.9973 89.4416 82.9725L89.443 82.9732Z" fill="white"/>
<path d="M48.8058 82.4717C49.1795 82.5017 49.5077 82.5506 49.8359 82.5513C53.3257 82.5579 56.8156 82.5637 60.3054 82.5535C61.2596 82.5506 62.0439 82.8885 62.659 83.6155C63.4715 84.5746 63.65 85.671 63.1621 86.8133C62.6771 87.949 61.7909 88.6381 60.5317 88.6534C56.9948 88.6965 53.4573 88.7045 49.9197 88.7271C49.679 88.7286 49.4383 88.7322 49.1983 88.7388C48.9041 88.7468 48.7603 88.9067 48.7603 89.1994C48.7588 90.3381 48.7603 91.476 48.7603 92.6957C49.1448 92.7263 49.4701 92.7753 49.7947 92.7753C53.8136 92.7811 57.8333 92.7899 61.8523 92.7753C63.0898 92.7709 64.0606 93.2388 64.6981 94.3044C65.7506 96.0657 64.8716 98.7117 62.1523 98.9737C62.0092 98.9876 61.8639 98.9796 61.7193 98.9796C56.4245 98.9796 51.1297 98.981 45.8349 98.9803C43.8262 98.9803 42.4875 97.6964 42.4824 95.6884C42.4665 88.9804 42.4665 82.2732 42.4803 75.5653C42.4839 73.6383 43.6932 72.3974 45.613 72.2653C45.8046 72.2522 45.9983 72.2573 46.1906 72.2573C51.2447 72.2573 56.2987 72.2543 61.3528 72.2616C61.7829 72.2616 62.221 72.2908 62.6424 72.3726C64.2015 72.6748 65.1745 73.9492 65.1072 75.5623C65.0444 77.0711 63.89 78.2805 62.3475 78.4346C62.0135 78.4681 61.6745 78.4594 61.3376 78.4594C57.6071 78.4608 53.8765 78.4594 50.146 78.4594C49.9775 78.4594 49.8091 78.4586 49.6407 78.4594C48.7624 78.4659 48.7596 78.4667 48.7552 79.3528C48.7516 80.1302 48.7516 80.9083 48.7574 81.6856C48.7588 81.9236 48.7863 82.1608 48.8065 82.4703L48.8058 82.4717Z" fill="white"/>
<path d="M44.5742 59.0567C45.5659 57.9728 47.1222 53.9451 47.0745 52.5371C46.8439 52.6736 46.6465 52.7911 46.4485 52.9064C45.3071 53.5736 44.1672 53.6276 43.0526 52.8568C42.4584 52.4459 41.8505 52.0415 41.3149 51.5597C40.4171 50.7517 40.2596 49.9247 40.7128 48.797C40.8566 48.4386 41.0287 48.0846 41.2347 47.7591C42.4577 45.8328 43.8607 44.0474 45.3729 42.3431C46.2924 41.3073 47.5515 41.2365 48.6633 41.7205C49.5242 42.0956 50.2239 42.6861 50.792 43.4212C51.2192 43.9737 51.6117 44.5606 51.9681 45.1627C52.6895 46.381 53.554 47.4817 54.5587 48.4656C55.4478 49.3364 56.535 49.6379 57.7508 49.4218C58.2944 49.3255 58.8336 49.1955 59.3663 49.0474C60.3147 48.7831 61.1098 48.2539 61.8182 47.5693C62.1102 47.2868 62.4326 47.0124 62.789 46.8277C63.5205 46.4489 64.1399 46.6525 64.5903 47.3474C65.5112 48.7671 65.4107 50.0707 64.265 51.4087C63.9665 51.7576 63.6506 52.0926 63.3289 52.4189C63.0036 52.7488 62.9263 53.0911 63.1171 53.5364C63.7937 55.1159 64.4443 56.7057 65.1483 58.3954C65.4114 58.2224 65.5741 58.1035 65.7475 58.0042C66.015 57.8509 66.2752 57.656 66.5651 57.5757C67.0862 57.4319 67.6009 57.6911 67.8532 58.1465C68.0917 58.5786 68.0606 59.1188 67.6761 59.4896C67.191 59.9582 66.6699 60.3961 66.1241 60.791C63.2704 62.8611 60.0928 64.0749 56.5942 64.4486C52.2659 64.9107 48.2274 64.0165 44.4549 61.853C43.3222 61.2034 42.2654 60.4392 41.3221 59.5283C40.8978 59.1188 40.8349 58.5918 41.0952 58.1327C41.3474 57.6874 41.8751 57.4363 42.3941 57.5692C42.6413 57.6327 42.8813 57.7684 43.0952 57.9144C43.3728 58.1042 43.6186 58.3421 43.8846 58.5502C44.1108 58.7268 44.3472 58.891 44.5742 59.0567ZM50.1032 61.6253C53.0249 62.4399 55.8201 62.3465 58.7216 61.6647C58.4902 60.8655 58.1165 60.2845 57.5498 59.8633C55.9343 58.6655 54.1865 58.5604 52.3765 59.345C51.379 59.7779 50.6034 60.4706 50.1039 61.6253H50.1032Z" fill="white"/>
<path d="M124.003 82.2608C124.003 84.3746 124.035 86.4899 123.993 88.603C123.953 90.63 123.439 92.5417 122.355 94.2672C120.966 96.4774 118.908 97.7394 116.46 98.4146C114.276 99.0168 112.054 99.1138 109.807 98.8868C108.089 98.7131 106.44 98.3044 104.911 97.4883C102.268 96.0781 100.722 93.8219 100.139 90.9008C99.9371 89.8848 99.8474 88.8315 99.8388 87.7935C99.8055 83.687 99.82 79.5798 99.8279 75.4733C99.8308 73.8893 100.843 72.647 102.333 72.3536C104.328 71.9609 106.08 73.3777 106.088 75.428C106.102 79.4623 106.078 83.4958 106.105 87.53C106.11 88.3001 106.2 89.0862 106.377 89.8351C106.867 91.9125 108.226 93.1468 110.27 93.5694C111.701 93.865 113.14 93.8358 114.535 93.3037C116.265 92.6438 117.254 91.3563 117.588 89.549C117.693 88.9797 117.738 88.3913 117.74 87.8118C117.754 83.7294 117.75 79.6469 117.749 75.5638C117.749 74.3222 118.229 73.3412 119.306 72.7156C121.42 71.4872 124.043 73.0018 124.02 75.4068C123.998 77.6907 124.016 79.9754 124.016 82.26H124.003L124.003 82.2608Z" fill="white"/>
<path d="M26.986 43.327C27.137 43.189 27.2823 43.0708 27.4117 42.9357C28.8762 41.4066 30.7252 40.9759 32.7441 41.0161C33.1322 41.0241 33.2775 41.2978 33.4098 41.5898C34.1442 43.2138 34.0625 44.7948 33.1359 46.3189C32.9732 46.5861 32.7499 46.8153 32.58 47.0788C32.306 47.5036 32.0053 47.9211 31.8022 48.3802C31.4567 49.1605 31.5297 49.9167 32.0025 50.6627C33.8023 53.5064 35.5762 56.367 37.3594 59.2209C37.462 59.3852 37.5625 59.5509 37.6601 59.718C38.3266 60.8581 38.1054 61.7997 36.9951 62.5187C35.707 63.353 34.2982 63.9034 32.8207 64.2778C30.2814 64.9209 27.7088 65.1012 25.095 64.9004C23.0183 64.7413 20.9936 64.3873 19.0665 63.5822C18.3372 63.2771 17.6274 62.9063 16.9486 62.4983C15.8781 61.8538 15.6309 60.8268 16.2894 59.7574C17.811 57.283 19.3586 54.8239 20.8961 52.359C21.204 51.8656 21.5177 51.3765 21.822 50.8816C22.5318 49.7284 22.4957 48.6145 21.7085 47.4948C21.556 47.278 21.3688 47.0853 21.2076 46.8744C19.9672 45.2532 19.7055 43.5065 20.5375 41.6117C20.7247 41.1825 20.998 40.9993 21.4801 41C23.5178 41.0029 25.3177 41.5744 26.7373 43.1241C26.8002 43.1927 26.8826 43.2438 26.986 43.3277V43.327Z" fill="white"/>
<path d="M30.1152 78.52C30.1152 78.928 30.1152 79.239 30.1152 79.5499C30.1152 84.8951 30.1073 90.2403 30.1203 95.5855C30.1224 96.5314 29.9042 97.3628 29.2081 98.0263C28.2214 98.9672 27.0779 99.2161 25.8107 98.7409C24.6188 98.2942 23.8598 97.1752 23.8547 95.8606C23.8417 92.2651 23.8489 88.6688 23.8482 85.0732C23.8482 83.1783 23.8482 81.2827 23.8482 79.3879C23.8482 79.1251 23.8482 78.8623 23.8482 78.5266C23.5266 78.5003 23.2721 78.4616 23.017 78.4609C21.3812 78.4543 19.7447 78.4689 18.1089 78.4514C16.776 78.4375 15.8081 77.7952 15.258 76.5784C14.4788 74.8521 15.5399 72.7741 17.386 72.3821C17.7829 72.2982 18.1963 72.2602 18.6026 72.2595C24.1605 72.2522 29.7184 72.2529 35.2763 72.2595C35.6587 72.2595 36.0468 72.2879 36.4234 72.3573C38.0354 72.6522 39.0495 73.9945 38.9382 75.6565C38.8363 77.1806 37.5315 78.4251 35.942 78.4565C34.4508 78.4857 32.9589 78.4565 31.4669 78.4623C31.0441 78.4638 30.6212 78.4981 30.1159 78.5207L30.1152 78.52Z" fill="white"/>
<path d="M95.2871 64.1865C94.3806 64.2741 93.5588 64.2829 92.661 64.1836C92.6906 63.8311 92.7008 63.5705 92.7355 63.3128C93.0094 61.2858 93.146 59.2494 93.0441 57.2056C93.0065 56.4582 92.8764 55.71 92.729 54.9742C92.6234 54.448 92.4268 53.902 91.8254 53.767C91.2233 53.6312 90.8171 54.0502 90.4911 54.4706C90.032 55.0618 89.6301 55.6983 89.2145 56.3231C88.2763 57.7341 87.3843 59.1778 86.3983 60.5537C85.7066 61.5194 84.832 62.326 83.8446 63.0026C82.6526 63.8201 81.332 64.25 79.9073 64.2362C77.2877 64.2099 74.6609 64.1895 72.0753 63.6851C71.3734 63.5479 70.6701 63.3318 70.0203 63.034C69.0828 62.6041 69.0033 61.9399 69.7319 61.199C70.5075 60.4099 71.4754 59.9056 72.4483 59.4297C74.2084 58.5684 76.0394 57.9136 77.978 57.5786C79.0572 57.3925 80.0807 57.3625 80.9922 58.1107C81.4838 58.5143 82.002 58.4567 82.5427 58.172C84.6765 57.0465 86.1049 55.3341 86.8451 53.0203C87.3959 51.2977 87.5889 49.5108 87.8361 47.732C88.0667 46.07 88.3168 44.4087 89.1552 42.9197C89.3909 42.5014 89.7032 42.1262 89.9923 41.7401C90.1875 41.4795 90.4274 41.4087 90.7527 41.5401C92.4471 42.2219 94.0142 43.1029 95.2741 44.462C96.2188 45.4809 96.6865 46.6415 96.2846 48.0612C96.0598 48.8546 95.9196 49.6721 95.689 50.4634C95.1815 52.2071 94.9951 53.9954 95.024 55.7961C95.0652 58.3209 95.1946 60.845 95.2842 63.369C95.2929 63.6077 95.2856 63.8464 95.2856 64.1865H95.2871Z" fill="white"/>
</g>
<defs>
<clipPath id="clip0_846_3849">
<rect width="110" height="58" fill="white" transform="translate(15 41)"/>
</clipPath>
</defs>
</svg>
