<svg width="140" height="140" viewBox="0 0 140 140" fill="none" xmlns="http://www.w3.org/2000/svg">
<rect width="140" height="140" rx="30" fill="#006491"/>
<path d="M85.5 86L55 55.5L85.5 25L116 55.5L85.5 86Z" fill="#E31837"/>
<path d="M54.8213 116.994C53.9861 117.026 53.2718 116.779 52.5946 116.402C52.1285 116.143 51.7129 115.815 51.3278 115.448C51.1127 115.245 50.9043 115.033 50.6945 114.824C42.4701 106.633 34.2457 98.4427 26.0212 90.2513C25.8407 90.0715 25.6601 89.893 25.4822 89.7119C23.4453 87.6399 23.5701 84.4546 25.4742 82.5056C26.2735 81.6871 27.0848 80.8818 27.8921 80.07C36.5985 71.3126 45.2917 62.5421 54.014 53.8019C60.9425 46.8614 67.9068 39.9566 74.8552 33.0359C77.212 30.6889 79.5636 28.3392 81.9271 25.9988C82.3321 25.5982 82.7636 25.2173 83.2204 24.8749C83.7833 24.4531 84.422 24.1807 85.1284 24.0538C85.8441 23.9255 86.5199 24.0366 87.1852 24.2825C87.707 24.4756 88.1784 24.7625 88.6086 25.1102C88.9206 25.3628 89.2234 25.6312 89.5075 25.9142C98.1542 34.5208 106.798 43.1326 115.446 51.7392C116.01 52.2999 116.491 52.9134 116.739 53.6724C117.301 55.386 116.944 56.9198 115.773 58.2778C115.648 58.4219 115.507 58.5502 115.372 58.6851C107.595 66.4256 99.8192 74.1661 92.041 81.9052C88.2726 85.6552 84.5004 89.4025 80.7307 93.1511C73.3574 100.486 65.9841 107.82 58.6122 115.157C58.0678 115.698 57.4928 116.193 56.7957 116.53C56.1584 116.839 55.4945 117.042 54.82 116.993L54.8213 116.994ZM85.9251 84.4413C86.0977 84.2734 86.2663 84.1134 86.4297 83.9495C93.3714 76.9944 100.313 70.038 107.255 63.0816C109.095 61.237 110.937 59.3964 112.769 57.5439C113.051 57.2597 113.32 56.9502 113.527 56.6117C114.137 55.6201 114.13 54.6032 113.504 53.6221C113.278 53.2691 112.99 52.9491 112.691 52.6516C104.591 44.5765 96.4864 36.5055 88.3815 28.4357C88.1863 28.2414 87.9872 28.051 87.7734 27.8777C86.3951 26.7697 85.0607 26.7631 83.6785 27.887C83.3505 28.1541 83.0531 28.4582 82.753 28.757C74.1382 37.3345 65.5234 45.9147 56.9099 54.4935C56.805 54.5979 56.6948 54.6984 56.5966 54.8095C56.5182 54.8994 56.4545 55.0026 56.416 55.0541C66.2603 64.8587 76.0728 74.6315 85.9224 84.4413H85.9251ZM54.3845 56.9714C54.2185 57.1274 54.0631 57.2676 53.9157 57.4157C46.9302 64.4144 39.9446 71.4144 32.959 78.4145C31.2236 80.1533 29.4855 81.8881 27.7554 83.6321C27.4433 83.9468 27.13 84.2694 26.875 84.6291C26.1235 85.6896 26.1301 86.8796 26.883 87.9347C27.0901 88.2256 27.3398 88.4914 27.5934 88.744C35.693 96.8164 43.7952 104.885 51.8988 112.953C52.0488 113.103 52.2002 113.251 52.3582 113.392C52.6769 113.675 53.0235 113.92 53.4165 114.086C53.933 114.305 54.4641 114.397 55.0298 114.282C55.4772 114.192 55.8889 114.027 56.242 113.755C56.6258 113.458 56.9949 113.137 57.3388 112.795C66.0147 104.162 74.6852 95.5232 83.3584 86.8862C83.4328 86.8108 83.5125 86.7407 83.5828 86.6614C83.6771 86.5543 83.7648 86.4406 83.8497 86.3348C83.377 85.7332 58.4011 60.798 54.7456 57.2755C54.6407 57.175 54.5239 57.0864 54.3845 56.9701V56.9714Z" fill="white"/>
<path d="M85.9283 61.9969C81.6322 62.02 77.9885 58.6217 78 54.4672C78.0116 50.7377 81.1722 47.0068 86.0064 47C90.4718 46.9932 94.0302 50.3372 93.9998 54.5406C93.9665 59.1146 89.9076 62.1096 85.9283 61.9969Z" fill="white"/>
<path d="M65.475 93.9995C61.4474 94.0265 57.9906 90.6969 58 86.4794C58.0081 82.4257 61.3162 78.9852 65.5237 79C69.7352 79.0149 73.0135 82.4758 73 86.5282C72.9864 90.6739 69.5675 94.0495 65.4763 93.9995H65.475Z" fill="white"/>
<path d="M43.5156 93.999C39.7348 94.0639 36.0122 91.033 36 86.5218C35.9879 82.1067 39.5832 79.0081 43.4831 79C47.4005 78.9919 50.9905 82.0891 51 86.4893C51.0095 90.9789 47.3193 94.0436 43.5169 93.999H43.5156Z" fill="white"/>
</svg>
