<svg width="140" height="140" viewBox="0 0 140 140" fill="none" xmlns="http://www.w3.org/2000/svg">
<rect width="140" height="140" rx="30" fill="white"/>
<path fill-rule="evenodd" clip-rule="evenodd" d="M118.062 54.8172C118.023 56.6151 119.301 57.9659 121.014 57.9801V57.9789C122.645 57.993 124.003 56.6316 124 54.9835C123.998 53.3449 122.764 52.0826 121.223 52.0035C119.396 51.9092 118.096 53.2328 118.062 54.8172ZM58.4757 62.003V62.6141C58.3831 62.5791 58.3016 62.5488 58.2273 62.5211L58.2269 62.521L58.2267 62.5209C58.0987 62.4733 57.992 62.4337 57.8867 62.3911C55.1096 61.2751 52.2493 60.8492 49.2822 61.3612C47.3616 61.6927 45.6334 62.4513 44.2114 63.8139C42.3706 65.5788 41.4274 67.8144 41.1235 70.2965C40.7527 73.3332 40.7398 76.3922 41.1141 79.4312C41.4074 81.8178 42.3202 83.9614 44.0026 85.7204C46.1215 87.9347 48.8 88.8679 51.773 88.9776C55.6716 89.1216 59.2711 88.0799 62.5832 86.0023C63.4068 85.4856 63.7576 84.7919 63.7552 83.8328C63.7467 79.4715 63.7481 75.1096 63.7495 70.7476V70.7475V70.7474V70.7473V70.7473C63.75 69.1118 63.7505 67.4762 63.7505 65.8407V55.1381C63.7505 53.6871 62.948 52.5616 61.7326 52.3044C59.988 51.9352 58.4874 53.1432 58.4792 54.9458C58.4709 56.6121 58.4726 58.2784 58.4743 59.9447C58.475 60.6308 58.4757 61.3169 58.4757 62.003ZM58.4705 73.2346C58.4719 73.8137 58.4733 74.3928 58.4733 74.9718L58.4741 75.8895L58.4743 76.156V76.1561C58.4761 77.9725 58.478 79.7894 58.4616 81.6055C58.4592 81.8143 58.3407 82.1222 58.18 82.2142C55.9028 83.5178 53.4976 84.2375 50.8461 83.7196C48.475 83.2559 46.9463 81.7069 46.4594 79.2967C46.1309 77.6652 46.1273 76.0147 46.1778 74.3666C46.2165 73.0642 46.2576 71.7488 46.4688 70.4676C46.8782 67.989 48.5536 66.5179 51.0761 66.2925C53.4577 66.0802 55.7268 66.5367 57.9019 67.5194C58.3126 67.7058 58.4968 67.9347 58.4886 68.4314C58.4627 70.0325 58.4666 71.6335 58.4705 73.2346ZM83.429 71.9951V71.9954C83.4249 72.2271 83.4209 72.461 83.42 72.6972L83.4177 72.6996C83.308 72.6759 83.2084 72.6549 83.1151 72.6352L83.1136 72.6349C82.9521 72.6008 82.8098 72.5708 82.668 72.5379C79.79 71.8773 76.8957 71.567 73.9602 72.125C71.947 72.5073 70.1355 73.3024 68.7299 74.8455C67.1156 76.6175 66.5806 78.7422 66.7495 81.1075C66.9806 84.3412 69.0315 87.0805 72.069 88.1753C74.2289 88.9539 76.4475 89.1002 78.7118 88.928C81.6555 88.705 84.4325 87.9288 87.0324 86.5048C88.0449 85.9503 88.5271 85.1953 88.5142 83.9967C88.4854 81.3053 88.489 78.6139 88.4925 75.9225V75.9161C88.4945 74.4499 88.4964 72.9837 88.4931 71.5175C88.492 70.7554 88.4579 69.9909 88.3922 69.2323C88.0567 65.3722 85.8721 62.6128 82.2445 61.6785C78.2425 60.6474 74.3122 61.1099 70.4921 62.5987C70.0052 62.7874 69.5324 63.1331 69.1769 63.5201C68.1304 64.6585 68.4272 66.9342 70.444 67.2657C71.2102 67.3919 71.9176 67.2103 72.6263 66.9661C74.8484 66.1992 77.1139 65.7521 79.4744 66.099C81.1533 66.3455 82.5284 67.0298 83.1173 68.7769C83.467 69.815 83.4484 70.8805 83.429 71.995V71.9951ZM83.4302 79.2219C83.431 79.4623 83.4318 79.7027 83.4318 79.9431C83.4318 80.1702 83.4297 80.3974 83.4276 80.6246C83.4225 81.1764 83.4174 81.7283 83.4423 82.279C83.4611 82.6884 83.291 82.9019 82.9625 83.0871C81.5534 83.8823 80.0259 84.235 78.4326 84.34C77.0939 84.4285 75.7752 84.3459 74.4941 83.8823C71.7968 82.9054 71.3545 79.8723 72.3681 78.2514C73.1343 77.0257 74.3591 76.5066 75.7142 76.2942C77.6841 75.9863 79.6375 76.2187 81.5757 76.6068C81.7973 76.6517 82.0175 76.7044 82.2377 76.7572L82.2381 76.7573C82.5155 76.8237 82.7929 76.8901 83.0728 76.9407C83.3672 76.9938 83.4412 77.1413 83.4365 77.4197C83.4264 78.0204 83.4283 78.6212 83.4302 79.2219ZM32.6415 71.7817V71.7814C32.6573 70.2827 32.6729 68.796 31.6123 67.5147C30.8368 66.578 29.7668 66.2465 28.6276 66.086C26.2846 65.7557 24.0355 66.1969 21.8287 66.9531C21.1059 67.2009 20.3879 67.3979 19.6054 67.2445C18.7278 67.0723 18.1189 66.5851 17.8866 65.7368C17.6449 64.8579 17.8455 64.038 18.5049 63.3727C19.2346 62.6365 20.1967 62.3463 21.1423 62.0643C23.5826 61.3388 26.0793 61.0262 28.6229 61.1984C30.5294 61.3282 32.3655 61.7399 33.9951 62.8005C36.1163 64.1819 37.1852 66.2429 37.509 68.6909C37.6838 70.011 37.6932 71.3595 37.7014 72.6949C37.714 74.7417 37.7124 76.7884 37.7107 78.835V78.835V78.8351V78.8352C37.7093 80.5893 37.7079 82.3433 37.7155 84.097C37.7201 85.0939 37.3564 85.8242 36.4918 86.3362C34.6169 87.4463 32.599 88.1659 30.4731 88.5741C28.0691 89.0354 25.6487 89.1793 23.2283 88.7074C20.5076 88.1777 18.255 86.9213 16.8964 84.3814C16.3273 83.3184 15.9977 82.1776 16 80.9483L16.0002 80.7272C16.0006 79.5564 16.0011 78.3965 16.447 77.2711C17.4185 74.8196 19.2428 73.3225 21.6667 72.5156C23.9581 71.7523 26.3233 71.698 28.6944 72C29.5073 72.1039 30.3138 72.26 31.1199 72.416C31.5135 72.4921 31.9069 72.5682 32.301 72.6383C32.3582 72.6483 32.4173 72.6463 32.4949 72.6436H32.495C32.5367 72.6422 32.5838 72.6406 32.6389 72.6406L32.64 72.6418C32.6355 72.3558 32.6385 72.0689 32.6415 71.7824V71.7821V71.7817ZM32.6459 79.9196H32.6436C32.6436 79.684 32.6422 79.4483 32.6409 79.2126C32.6375 78.6232 32.6342 78.0336 32.6518 77.4445C32.6612 77.1059 32.5368 76.9821 32.22 76.9278C31.7628 76.8496 31.307 76.7597 30.8515 76.6699C29.9873 76.4995 29.1237 76.3292 28.251 76.2388C26.7762 76.0866 25.2815 76.043 23.8396 76.5574C22.7508 76.9455 21.8439 77.5472 21.357 78.6514C20.6566 80.2393 21.1493 82.9916 23.7047 83.8941C25.3742 84.484 27.0765 84.4757 28.7918 84.2186C29.9756 84.0416 31.1113 83.6971 32.1625 83.0978C32.5028 82.9043 32.6799 82.6814 32.6576 82.2531C32.6286 81.7052 32.6347 81.1555 32.6408 80.6057C32.6434 80.377 32.6459 80.1482 32.6459 79.9196ZM92.185 73.1073C92.1823 74.0198 92.1796 74.9324 92.1796 75.8448L92.1831 75.8424L92.1831 77.4876C92.1829 80.2263 92.1827 82.9655 92.1866 85.7038C92.1866 85.9834 92.2066 86.2666 92.2559 86.5403C92.5797 88.3264 94.6763 89.2572 96.2038 88.2957C97.1002 87.7306 97.465 86.8942 97.465 85.8489C97.4627 83.535 97.4628 81.2209 97.4628 78.9068C97.4629 75.3476 97.463 71.7884 97.4545 68.2296C97.4533 67.8073 97.5812 67.5819 97.959 67.4109C100.054 66.4659 102.249 66.079 104.527 66.2948C107.226 66.552 109.018 68.3075 109.382 71.0102C109.473 71.6798 109.472 72.3643 109.472 73.0446V73.0447C109.472 73.128 109.472 73.2111 109.472 73.2942C109.476 75.4972 109.475 77.6999 109.475 79.9027C109.475 81.9216 109.475 83.9406 109.478 85.9598C109.48 87.0959 110.016 87.9441 111.019 88.4278C111.938 88.8714 112.868 88.7759 113.698 88.1577C114.485 87.5725 114.741 86.7385 114.739 85.7805C114.735 83.8637 114.735 81.9469 114.735 80.0301V80.0248C114.736 77.379 114.737 74.7331 114.726 72.0873C114.722 71.1872 114.658 70.2812 114.54 69.3881C113.997 65.2472 111.408 62.4194 107.353 61.5346C104.408 60.8917 101.469 61.071 98.5479 61.708C96.7822 62.0938 95.108 62.7214 93.557 63.677C92.5808 64.2775 92.1444 65.0868 92.1632 66.2642C92.1984 68.5444 92.1917 70.8259 92.185 73.1073ZM123.687 75.2385L123.687 78.8355V78.8872C123.686 81.268 123.686 83.6487 123.687 86.0295C123.687 86.9048 123.404 87.6575 122.71 88.2025C121.871 88.862 120.936 89.0083 119.967 88.5329C118.939 88.0291 118.423 87.1597 118.418 86.0177C118.409 83.82 118.41 81.6223 118.412 79.4247C118.413 78.5704 118.413 77.7161 118.413 76.8618L118.413 73.7578C118.412 70.6504 118.412 67.543 118.416 64.4356C118.417 63.0636 119.132 62.0526 120.322 61.714C121.922 61.2586 123.566 62.3617 123.652 64.0286C123.706 65.084 123.7 66.1425 123.693 67.2005C123.691 67.6066 123.688 68.0126 123.689 68.4184C123.692 69.934 123.691 71.4495 123.69 72.9651C123.69 73.7229 123.689 74.4807 123.689 75.2385H123.687Z" fill="url(#paint0_linear_602_3179)"/>
<defs>
<linearGradient id="paint0_linear_602_3179" x1="16" y1="79" x2="124" y2="79" gradientUnits="userSpaceOnUse">
<stop stop-color="#2790A5"/>
<stop offset="0.175" stop-color="#0167B6"/>
<stop offset="0.375" stop-color="#2950AD"/>
<stop offset="0.585" stop-color="#6A3BA1"/>
<stop offset="0.76" stop-color="#BF2B78"/>
<stop offset="1" stop-color="#DF3957"/>
</linearGradient>
</defs>
</svg>
