<svg width="140" height="140" viewBox="0 0 140 140" fill="none" xmlns="http://www.w3.org/2000/svg">
<rect width="140" height="140" rx="30" fill="black"/>
<g clip-path="url(#clip0_746_2994)">
<path d="M73.4457 106C73.2342 105.906 73.0025 105.915 72.7809 105.874C71.5532 105.645 70.4133 105.198 69.3595 104.526C68.1754 103.77 67.2045 102.797 66.4351 101.623C65.6243 100.386 65.1424 99.026 64.955 97.5582C64.8806 96.9756 64.866 96.3897 64.9024 95.8083C64.9841 94.5023 65.3086 93.258 65.9035 92.0857C66.3002 91.3038 66.7821 90.5825 67.368 89.9354C68.0557 89.1759 68.8425 88.5327 69.7322 88.0221C70.9186 87.3412 72.1905 86.9278 73.552 86.8008C73.8693 86.7711 74.1894 86.734 74.5067 86.7452C75.2241 86.7716 75.9387 86.834 76.6415 87.0031C77.4904 87.2075 78.2979 87.5143 79.064 87.9339C79.1418 87.9766 79.2224 88.0148 79.2901 88.049C79.3875 87.994 79.364 87.9181 79.364 87.8547C79.3662 87.43 79.3656 87.0059 79.3656 86.5812C79.3656 85.078 79.3656 83.5753 79.3656 82.0721C79.3656 81.9474 79.3606 81.8221 79.3578 81.6845C79.2756 81.6688 79.2112 81.6503 79.1463 81.6463C79.0439 81.6401 78.9409 81.6441 78.838 81.6441C74.1749 81.6441 69.5118 81.6441 64.8492 81.6441C64.702 81.6441 64.5543 81.6441 64.4239 81.6441C64.3114 81.7761 64.3489 81.9081 64.3484 82.03C64.345 82.9591 64.3473 83.8888 64.3461 84.8179C64.3461 84.9409 64.3366 85.0639 64.3316 85.1858C64.2768 85.2021 64.2449 85.2201 64.2135 85.2201C62.5566 85.2212 60.899 85.2212 59.2421 85.2201C59.2102 85.2201 59.1789 85.2027 59.1246 85.187C59.119 85.078 59.1089 84.9662 59.1083 84.855C59.1072 83.9259 59.1083 82.9962 59.1072 82.0671C59.1072 81.9429 59.1027 81.8188 59.0999 81.6845C58.7787 81.6008 58.4676 81.6795 58.1749 81.6306C58.157 81.6205 58.1464 81.6154 58.1374 81.6092C58.1285 81.6025 58.1184 81.5958 58.1128 81.5868C58.0809 81.539 58.0485 81.4918 58.0194 81.443C53.9903 74.6852 49.9612 67.9269 45.9327 61.1687C45.9159 61.14 45.9064 61.1074 45.8784 61.0417C45.9081 61.0226 45.9456 60.9968 45.9847 60.9737C51.3535 57.8196 56.7228 54.6654 62.105 51.5034C62.1699 51.596 62.2253 51.6674 62.2717 51.7438C63.0042 52.9605 63.7356 54.1778 64.4681 55.3945C65.8436 57.6808 67.2202 59.9671 68.5957 62.2539C69.6052 63.9319 70.6136 65.6109 71.6225 67.2894C73.0154 69.6054 74.4082 71.922 75.8016 74.2381C76.7579 75.8278 77.7148 77.4175 78.6717 79.0073C79.1446 79.792 79.6186 80.5762 80.0931 81.3598C80.1457 81.4469 80.2045 81.5306 80.2666 81.625H84.5385C84.5536 81.7036 84.5721 81.7671 84.576 81.8311C84.5822 81.9339 84.5783 82.0373 84.5783 82.1407C84.5783 89.7477 84.5783 97.3548 84.5771 104.962C84.5771 105.119 84.5945 105.279 84.5553 105.435C84.5083 105.449 84.477 105.468 84.4451 105.468C82.8105 105.47 81.1765 105.471 79.5419 105.471C79.4983 105.471 79.4541 105.455 79.4037 105.446C79.3203 105.223 79.4037 104.987 79.3388 104.743C79.2728 104.762 79.2056 104.768 79.153 104.798C78.3226 105.274 77.4373 105.603 76.505 105.806C76.2051 105.871 75.8978 105.906 75.5945 105.957C75.5403 105.966 75.4882 105.987 75.4351 106.002H73.4463L73.4457 106ZM74.4849 101.195C77.1323 101.149 79.2655 99.1063 79.2576 96.3678C79.2498 93.5552 76.9225 91.4829 74.2711 91.5959C71.8945 91.6975 69.6919 93.6434 69.7026 96.4088C69.7132 99.0827 71.8257 101.157 74.4849 101.195Z" fill="white"/>
<path d="M46.6318 106C46.5792 105.984 46.5277 105.959 46.474 105.952C45.4214 105.824 44.418 105.523 43.4673 105.057C42.7046 104.683 42.0039 104.211 41.3626 103.651C40.6687 103.045 40.0733 102.353 39.5792 101.576C38.7863 100.329 38.2944 98.9732 38.1226 97.5009C38.0482 96.861 38.0263 96.2201 38.0868 95.5808C38.1791 94.6068 38.3923 93.658 38.7706 92.753C39.2256 91.665 39.8473 90.6858 40.6548 89.823C42.033 88.3496 43.7023 87.3963 45.6648 86.9615C46.1097 86.8626 46.5607 86.7902 47.0196 86.7806C47.2244 86.7761 47.4286 86.7379 47.6329 86.7424C49.268 86.7778 50.8209 87.1362 52.2574 87.944C52.3234 87.9811 52.3967 88.0063 52.4499 88.0299C52.4851 88.0131 52.4986 88.0103 52.5047 88.0024C52.5114 87.9945 52.5137 87.9811 52.5137 87.9698C52.5176 85.9852 52.521 84.0006 52.5243 82.0154C52.5243 81.9126 52.5243 81.8103 52.5243 81.6929C52.4454 81.6744 52.3827 81.6503 52.3189 81.6463C52.2053 81.639 52.0906 81.6435 51.9765 81.6435C45.1645 81.6435 38.3526 81.6435 31.5412 81.6435C31.3935 81.6435 31.2452 81.6435 31.0784 81.6435C30.1915 80.1953 29.3414 78.7315 28.4668 77.2732C28.5093 77.2322 28.5373 77.1945 28.5742 77.1726C33.9626 74.0044 39.3515 70.8368 44.7297 67.6758C44.8668 67.736 44.8998 67.855 44.9569 67.9505C45.826 69.3925 46.6917 70.8362 47.559 72.2793C48.5976 74.0072 49.6362 75.7346 50.6754 77.4614C51.4549 78.7567 52.2361 80.051 53.0168 81.3452C53.0694 81.4329 53.1281 81.5166 53.1941 81.6177H54.7011C55.2042 81.6177 55.7067 81.616 56.2098 81.6177C56.7106 81.6199 57.2115 81.6087 57.7319 81.6261C57.7436 81.7081 57.7571 81.7727 57.7604 81.8373C57.7649 81.9289 57.7621 82.021 57.7621 82.1126C57.7621 89.7314 57.7621 97.3503 57.7621 104.969V105.43C57.667 105.446 57.592 105.467 57.517 105.468C57.0369 105.471 56.5567 105.47 56.0772 105.47C55.0369 105.47 53.9972 105.47 52.9569 105.47H52.5663C52.5501 105.391 52.5277 105.327 52.5254 105.263C52.5187 105.093 52.521 104.924 52.5193 104.718C52.4051 104.768 52.3217 104.796 52.2456 104.838C51.8052 105.083 51.348 105.291 50.8735 105.459C50.1824 105.704 49.4768 105.885 48.7448 105.956C48.7023 105.96 48.6614 105.984 48.6195 105.999H46.6307L46.6318 106ZM52.4303 96.4279C52.4504 93.8541 50.4885 91.7824 48.0201 91.6071C45.1785 91.4054 43.0386 93.5625 42.8864 96.0752C42.7163 98.8822 44.8814 101.149 47.5988 101.187C50.1684 101.223 52.4057 99.1653 52.4303 96.4274V96.4279Z" fill="white"/>
<path d="M26.6748 106C26.4515 105.96 26.2282 105.919 26.005 105.88C24.8337 105.674 23.7397 105.263 22.7213 104.646C21.9434 104.175 21.2451 103.605 20.6295 102.937C19.9194 102.167 19.3447 101.305 18.9121 100.344C18.5036 99.4383 18.2372 98.4952 18.1276 97.5093C18.0789 97.0689 17.9664 96.633 18.0089 96.1836C18.0218 96.0477 18.0033 95.91 18.071 95.7808C18.0957 95.7336 18.0918 95.6696 18.0957 95.6129C18.1774 94.4928 18.4594 93.4255 18.925 92.4042C19.4152 91.329 20.075 90.3713 20.9138 89.5461C22.3027 88.1788 23.9524 87.2941 25.8679 86.9227C26.2601 86.8469 26.6535 86.7857 27.0548 86.7801C27.2708 86.7767 27.4868 86.7368 27.7022 86.7424C29.3127 86.7868 30.8415 87.1463 32.2551 87.9451C32.3217 87.9828 32.3955 88.0058 32.4918 88.0468C32.5701 87.6143 32.489 87.2031 32.541 86.8149C32.6233 86.716 32.7207 86.7419 32.8085 86.7413C33.3911 86.7391 33.9742 86.7402 34.5567 86.7402C35.4934 86.7402 36.4302 86.7402 37.3675 86.7407C37.4906 86.7407 37.6137 86.7492 37.7038 86.7525C37.7419 86.7879 37.7525 86.7941 37.7581 86.8037C37.7637 86.8132 37.7676 86.8256 37.7676 86.8362C37.7716 92.9839 37.7744 99.1316 37.7772 105.28C37.7772 105.324 37.7676 105.369 37.7643 105.402C37.6826 105.494 37.5858 105.47 37.4985 105.47C36.996 105.473 36.4929 105.472 35.9904 105.472C34.9736 105.472 33.9568 105.473 32.9395 105.471C32.8158 105.471 32.6893 105.49 32.5606 105.439C32.4845 105.217 32.5623 104.983 32.4996 104.738C32.4313 104.763 32.3687 104.778 32.3144 104.807C31.4571 105.276 30.5573 105.631 29.5976 105.824C29.3407 105.875 29.0799 105.909 28.822 105.954C28.7682 105.963 28.7168 105.985 28.6642 106.001H26.6754L26.6748 106ZM28.0402 91.5959C26.3463 91.5942 25.1975 92.066 24.2607 93.0075C23.3312 93.9411 22.85 95.1011 22.874 96.4145C22.9244 99.1827 25.066 101.188 27.663 101.187C30.4336 101.186 32.4112 98.912 32.4336 96.4341C32.4588 93.694 30.1879 91.5577 28.0402 91.5959Z" fill="white"/>
<path d="M93.608 106C93.3847 105.96 93.1614 105.92 92.9382 105.88C91.1984 105.57 89.6573 104.83 88.3299 103.668C86.7144 102.253 85.6657 100.487 85.2091 98.3783C85.1027 97.8862 85.0272 97.3874 85.0277 96.8801C85.0277 96.7206 84.9852 96.5605 84.9919 96.4021C85.0283 95.578 85.0999 94.7585 85.3131 93.9569C85.6718 92.6076 86.2863 91.3875 87.1682 90.3106C87.9136 89.4006 88.7899 88.6361 89.8095 88.0451C90.8285 87.4542 91.9191 87.0609 93.0809 86.8739C93.373 86.8267 93.6696 86.811 93.9645 86.7829C94.1346 86.7666 94.3047 86.7402 94.4748 86.7419C96.1469 86.7587 97.7316 87.1239 99.2034 87.9406C99.2616 87.9732 99.3254 87.9951 99.3875 88.0204C99.3959 88.0238 99.4088 88.0142 99.4356 88.0058C99.4994 87.6081 99.4199 87.1952 99.4821 86.784C99.608 86.7183 99.735 86.7413 99.857 86.7413C101.126 86.7396 102.394 86.7402 103.662 86.7402C103.913 86.7402 104.165 86.7391 104.417 86.7407C104.495 86.7413 104.574 86.7497 104.672 86.7559C104.686 86.8244 104.705 86.8879 104.71 86.952C104.717 87.0435 104.712 87.1356 104.712 87.2272C104.712 93.1468 104.712 99.0664 104.711 104.986C104.711 105.133 104.725 105.282 104.691 105.435C104.637 105.448 104.595 105.465 104.553 105.467C104.155 105.494 99.7344 105.473 99.4977 105.442C99.486 105.384 99.4647 105.32 99.4619 105.256C99.4552 105.097 99.4569 104.938 99.4552 104.788C99.3332 104.725 99.2633 104.806 99.1877 104.842C98.8464 105 98.5134 105.179 98.167 105.325C97.3729 105.659 96.5447 105.869 95.6869 105.959C95.6561 105.962 95.627 105.987 95.5974 106.001H93.6086L93.608 106ZM99.3852 96.4156C99.3679 93.8029 97.4104 91.7773 94.9527 91.6071C92.0803 91.4077 89.9885 93.6153 89.8319 96.0544C89.6528 98.8429 91.8083 101.167 94.5571 101.188C97.1206 101.207 99.3164 99.2232 99.3852 96.4162V96.4156Z" fill="white"/>
<path d="M122 100.974C121.979 101.012 121.944 101.048 121.94 101.086C121.88 101.644 121.671 102.152 121.405 102.636C120.899 103.555 120.148 104.227 119.253 104.75C118.557 105.156 117.807 105.425 117.026 105.613C116.022 105.855 115.004 105.966 113.973 105.952C113.528 105.946 113.082 105.952 112.638 105.922C111.379 105.837 110.148 105.616 108.98 105.111C108.228 104.786 107.543 104.359 106.955 103.786C106.177 103.027 105.692 102.109 105.489 101.042C105.408 100.614 105.351 100.183 105.358 99.7456C105.359 99.6894 105.367 99.6338 105.371 99.5911C105.455 99.495 105.552 99.5231 105.639 99.5226C106.256 99.5198 106.873 99.5209 107.491 99.5209C108.702 99.5209 109.914 99.5209 111.125 99.5209C111.25 99.5209 111.374 99.5209 111.509 99.5209C111.533 99.6051 111.56 99.6669 111.569 99.7315C111.671 100.467 112.083 100.938 112.783 101.159C113.305 101.324 113.838 101.33 114.371 101.231C114.504 101.206 114.634 101.153 114.759 101.097C114.95 101.011 115.112 100.877 115.209 100.689C115.422 100.275 115.38 99.9692 115.091 99.6894C114.787 99.3967 114.429 99.2013 114.054 99.0316C113.47 98.7676 112.868 98.5524 112.257 98.3615C111.188 98.0267 110.133 97.6514 109.127 97.152C108.232 96.7071 107.402 96.1634 106.716 95.4213C105.915 94.554 105.479 93.5406 105.465 92.3475C105.45 91.0897 105.885 90.0123 106.737 89.1074C107.082 88.7417 107.471 88.4192 107.891 88.1384C108.984 87.4075 110.19 86.984 111.483 86.784C112.493 86.6278 113.506 86.6099 114.522 86.6756C115.228 86.7216 115.928 86.8301 116.613 87.0126C117.695 87.3014 118.695 87.7625 119.567 88.4821C120.362 89.1394 120.947 89.9404 121.233 90.9442C121.324 91.2644 121.389 91.5891 121.406 91.9234C121.416 92.1059 121.436 92.2879 121.444 92.4705C121.448 92.5362 121.431 92.6025 121.422 92.6845C121.329 92.6918 121.252 92.7014 121.174 92.703C119.025 92.7396 115.746 92.721 115.403 92.6688C115.392 92.6222 115.375 92.5694 115.367 92.5149C115.253 91.7762 114.771 91.4094 114.19 91.2942C113.702 91.1976 113.215 91.1948 112.75 91.4037C112.617 91.4639 112.486 91.5431 112.375 91.6386C112.05 91.9222 112.019 92.3278 112.323 92.6356C112.497 92.812 112.711 92.957 112.925 93.0822C113.411 93.3648 113.933 93.5693 114.463 93.7518C115.262 94.0271 116.065 94.29 116.862 94.5714C117.639 94.8455 118.392 95.1764 119.121 95.5623C119.689 95.8634 120.223 96.2184 120.695 96.6549C121.287 97.2026 121.694 97.8727 121.905 98.6569C121.926 98.7333 121.921 98.817 121.939 98.8945C121.951 98.9473 121.98 98.9957 122.002 99.0462V100.974H122Z" fill="white"/>
<path d="M63.4819 45.2136C63.5284 45.1872 63.5703 45.1664 63.609 45.1411C68.8177 41.7656 74.0258 38.3895 79.2547 35C79.3576 35.1601 79.4539 35.3 79.5412 35.446C80.4902 37.0268 81.4365 38.6092 82.3861 40.1894C83.7778 42.506 85.1712 44.8215 86.5646 47.137C87.5741 48.8149 88.5859 50.4911 89.5954 52.169C90.9591 54.4356 92.3223 56.7023 93.686 58.9694C94.6894 60.6378 95.6927 62.3062 96.6966 63.974C97.7235 65.6811 98.7515 67.3882 99.7783 69.0954C100.811 70.8126 101.843 72.531 102.876 74.2482C103.856 75.8773 104.836 77.5057 105.817 79.1337C106.23 79.8201 106.646 80.506 107.059 81.193C107.135 81.3188 107.208 81.4463 107.274 81.5587C107.237 81.6576 107.172 81.639 107.12 81.6413C107.018 81.6458 106.915 81.643 106.812 81.643C99.761 81.643 92.7106 81.643 85.6598 81.643C85.512 81.643 85.3643 81.643 85.2065 81.643C77.9687 69.5054 70.7376 57.3803 63.4825 45.2136H63.4819Z" fill="white"/>
<path d="M64.3459 105.359C63.9822 105.42 61.187 105.441 59.3717 105.401C59.295 105.4 59.2183 105.387 59.1232 105.378C59.1171 105.283 59.1087 105.205 59.1075 105.128C59.0589 101.989 59.0835 87.2845 59.1406 86.9065C59.2122 86.8975 59.2883 86.8789 59.365 86.8784C60.9307 86.8767 62.4964 86.8767 64.0622 86.8778C64.14 86.8778 64.2178 86.8879 64.3123 86.8941C64.3246 86.9727 64.3403 87.0368 64.3442 87.1019C64.3493 87.1935 64.3459 87.2856 64.3459 87.3772C64.3459 93.217 64.3459 99.0575 64.3459 104.897V105.358V105.359Z" fill="white"/>
<path d="M119.565 82.8136C120.492 82.799 121.449 83.5456 121.432 84.6926C121.416 85.7998 120.613 86.5121 119.553 86.5717C118.359 86.5048 117.702 85.56 117.7 84.6954C117.699 83.6495 118.563 82.8024 119.565 82.8136ZM119.551 86.1886C120.37 86.2442 121.099 85.4673 121.069 84.6775C121.038 83.8377 120.418 83.1574 119.576 83.1653C118.759 83.1731 118.075 83.7377 118.053 84.6881C118.033 85.5223 118.724 86.188 119.551 86.1886Z" fill="white"/>
<path d="M120.4 85.8246H120.121C120.044 85.71 120.038 85.5864 120.031 85.46C120.024 85.3229 120.015 85.1847 119.988 85.051C119.961 84.9185 119.875 84.832 119.732 84.8089C119.562 84.782 119.395 84.7702 119.207 84.8072C119.147 85.1359 119.211 85.469 119.165 85.8139C119.091 85.8212 119.028 85.8274 118.973 85.833C118.95 85.8043 118.927 85.7892 118.923 85.7701C118.914 85.7139 118.909 85.6566 118.909 85.5999C118.908 84.9466 118.909 84.2927 118.909 83.6394C118.909 83.5826 118.916 83.5259 118.921 83.4501C118.984 83.436 119.047 83.4119 119.11 83.4096C119.27 83.4035 119.43 83.4057 119.59 83.4079C119.658 83.4091 119.726 83.4164 119.794 83.4259C120.035 83.4607 120.232 83.5596 120.307 83.8141C120.387 84.0848 120.363 84.3348 120.14 84.537C120.115 84.5601 120.09 84.5825 120.065 84.605C120.227 84.8286 120.321 85.1078 120.349 85.4426C120.358 85.5566 120.379 85.6695 120.4 85.8234L120.4 85.8246ZM119.201 84.4994C119.402 84.4994 119.563 84.5163 119.719 84.4955C119.918 84.4691 120.026 84.318 120.031 84.1067C120.037 83.8871 119.945 83.7478 119.741 83.7045C119.566 83.6669 119.386 83.6675 119.193 83.713C119.18 83.9775 119.172 84.223 119.202 84.5L119.201 84.4994Z" fill="white"/>
</g>
<defs>
<clipPath id="clip0_746_2994">
<rect width="104" height="71" fill="white" transform="translate(18 35)"/>
</clipPath>
</defs>
</svg>
