<svg width="140" height="140" viewBox="0 0 140 140" fill="none" xmlns="http://www.w3.org/2000/svg">
<rect width="140" height="140" rx="30" fill="url(#paint0_linear_570_448)"/>
<path d="M70.4465 101.899C70.2018 101.975 70.0849 102.138 69.9534 102.28C68.6459 103.696 67.2763 105.051 65.8373 106.336C63.8066 108.148 61.6225 109.743 59.2376 111.072C57.1302 112.248 54.9023 113.087 52.5429 113.585C51.0857 113.894 49.6138 114.013 48.1237 113.995C44.1025 113.952 40.505 112.681 37.3275 110.266C34.0989 107.814 31.9184 104.622 30.7387 100.758C30.4393 99.7705 30.2384 98.7609 30.1215 97.7332C29.9754 96.473 29.9645 95.2056 30.0704 93.9491C30.2165 92.206 30.6547 90.5173 31.2866 88.8831C31.9951 87.0564 32.8096 85.277 33.6131 83.4903C33.8615 82.9383 34.1025 82.3826 34.3582 81.8343C34.4714 81.5946 34.6102 81.3658 34.7344 81.1298C34.8184 80.9736 34.9024 80.8174 34.9791 80.654C36.0017 78.4606 37.017 76.2599 38.047 74.07C38.8505 72.3632 39.6613 70.6564 40.4831 68.9604C42.2946 65.2272 44.0988 61.4903 45.9396 57.7716C48.1456 53.3194 50.3771 48.8816 52.6123 44.4475C53.6788 42.3339 54.8037 40.2458 55.8592 38.1286C56.5605 36.7232 57.3311 35.3614 58.193 34.0504C58.8906 32.99 59.6649 31.9949 60.5743 31.1016C62.4151 29.2967 64.5918 28.0946 67.0864 27.4555C68.4961 27.096 69.9351 26.9362 71.3888 27.0233C73.0761 27.125 74.7123 27.4773 76.2719 28.1455C78.0871 28.919 79.6904 30.0085 81.0454 31.4357C82.1301 32.576 83.0651 33.8325 83.854 35.1979C84.8986 37.0028 85.8336 38.8622 86.7941 40.7143C89.0768 45.1084 91.3376 49.5135 93.5399 53.9476C94.8657 56.6096 96.1842 59.2751 97.488 61.9479C98.7079 64.4428 99.9132 66.9449 101.104 69.4543C102.371 72.1235 103.62 74.8036 104.873 77.4801C105.362 78.5296 105.815 79.5936 106.334 80.6286C107.185 82.3354 107.915 84.0931 108.693 85.8326C109.208 86.9874 109.679 88.1604 110.118 89.3443C110.53 90.4628 110.775 91.6286 110.91 92.8197C111.027 93.8329 111.009 94.8461 110.972 95.8557C110.954 96.3859 110.863 96.9161 110.768 97.439C110.611 98.3142 110.45 99.1894 110.242 100.05C109.34 103.74 107.437 106.841 104.603 109.369C102.196 111.515 99.3909 112.913 96.239 113.614C94.8547 113.923 93.4486 114.024 92.0315 113.995C89.1535 113.937 86.407 113.283 83.7664 112.161C82.6451 111.686 81.5787 111.108 80.5451 110.469C78.3939 109.144 76.4107 107.6 74.5443 105.904C73.3026 104.775 72.1083 103.598 70.9687 102.367C70.8117 102.2 70.6729 102.011 70.4392 101.899H70.4465ZM74.3836 97.6097C74.5078 97.8893 74.6722 98.0564 74.8256 98.2271C75.22 98.6629 75.6145 99.0987 76.0272 99.5199C78.4048 101.957 81.0235 104.103 83.9161 105.908C86.2353 107.357 88.7408 108.276 91.491 108.519C92.4625 108.606 93.4194 108.577 94.3763 108.464C96.0089 108.272 97.5501 107.774 98.9855 106.968C102.452 105.022 104.606 102.102 105.505 98.2525C105.647 97.646 105.731 97.0287 105.746 96.404C105.76 95.9065 105.808 95.409 105.782 94.9115C105.72 93.8293 105.589 92.7543 105.399 91.683C105.238 90.7679 104.997 89.8818 104.606 89.0356C104.128 88.0006 103.668 86.9584 103.2 85.9198C102.842 85.1245 102.484 84.3292 102.115 83.5375C101.845 82.9564 101.553 82.3863 101.279 81.8089C99.9716 79.038 98.6787 76.2635 97.3639 73.4962C96.2645 71.1793 95.1542 68.8697 94.0366 66.56C92.6999 63.8036 91.3558 61.0509 89.9972 58.3055C86.9366 52.1282 83.8248 45.98 80.64 39.8681C80.3369 39.2834 80.0301 38.6988 79.705 38.125C78.9928 36.8612 78.1491 35.6955 77.079 34.7004C76.3814 34.0504 75.5998 33.5202 74.7233 33.1352C73.193 32.4598 71.6042 32.1583 69.9205 32.3508C68.8577 32.4743 67.8533 32.7467 66.8928 33.197C65.4867 33.8579 64.3617 34.853 63.4122 36.0623C62.6342 37.0464 62.0133 38.1286 61.4399 39.2362C60.0703 41.8764 58.6897 44.5129 57.3493 47.1675C55.1105 51.6053 52.8935 56.0503 50.6803 60.4989C49.6321 62.6052 48.6094 64.7188 47.5941 66.8396C46.2099 69.7303 44.8366 72.6247 43.467 75.5226C42.9191 76.6811 42.3896 77.8468 41.8527 79.0126C41.2427 80.3381 40.6511 81.6745 40.0192 82.9891C39.1938 84.7068 38.3757 86.4282 37.6343 88.1822C37.2873 89.0029 36.9476 89.8237 36.6482 90.6626C36.177 91.9736 35.8921 93.3318 35.7935 94.7226C35.6986 96.0627 35.8264 97.3882 36.1478 98.6919C36.8235 101.419 38.2332 103.707 40.3808 105.53C42.8461 107.622 45.7241 108.631 48.9527 108.682C49.7416 108.693 50.5232 108.588 51.2975 108.457C53.3976 108.101 55.3698 107.379 57.2033 106.296C60.8921 104.11 64.117 101.372 66.9001 98.1181C67.0024 97.9983 67.09 97.8639 67.1777 97.7477C67.101 97.4463 66.8964 97.2611 66.7321 97.0577C64.6174 94.3849 62.6598 91.5995 60.9542 88.6471C59.99 86.9802 59.1207 85.2661 58.3683 83.4939C57.5794 81.6382 56.9878 79.7207 56.5349 77.7561C56.2135 76.3652 56.0455 74.9561 56.0309 73.5289C56.0236 72.7445 56.1222 71.9674 56.2171 71.1938C56.3377 70.2024 56.5568 69.2328 56.8855 68.2886C57.941 65.2417 59.8731 62.8885 62.5867 61.1635C64.7891 59.7654 67.2142 59.0282 69.811 58.8575C70.8993 58.7848 71.9914 58.803 73.0761 58.9628C74.8402 59.2279 76.5202 59.7581 78.0834 60.626C80.7861 62.1295 82.846 64.2358 84.1462 67.0539C84.8913 68.6699 85.3551 70.3659 85.4428 72.1417C85.5122 73.5253 85.472 74.9126 85.2711 76.2925C85.0666 77.6871 84.7561 79.0525 84.3398 80.3962C83.4486 83.2869 82.1594 85.9997 80.651 88.6144C78.9088 91.6286 76.8891 94.4539 74.716 97.1739C74.6064 97.3119 74.5042 97.4572 74.3909 97.6097H74.3836ZM70.6473 93.3172C70.976 93.1647 71.0966 92.9141 71.2536 92.7071C73.0615 90.3357 74.7452 87.8881 76.2134 85.2915C77.1959 83.552 78.0688 81.7616 78.7554 79.8841C79.2887 78.4279 79.7087 76.939 79.873 75.3919C79.9461 74.7201 80.0264 74.0446 80.0155 73.3728C80.0045 72.7009 79.9351 72.0218 79.8073 71.3609C79.285 68.6009 77.7584 66.5491 75.2784 65.2127C73.4048 64.1995 71.3924 63.9307 69.3033 64.2285C67.7803 64.4464 66.3669 64.9766 65.0995 65.87C63.7701 66.8106 62.773 68.0126 62.1302 69.5088C61.6225 70.6891 61.3888 71.9165 61.3997 73.1948C61.4034 73.8158 61.3742 74.4441 61.4363 75.0614C61.5385 76.1436 61.7796 77.2004 62.0791 78.2463C62.6853 80.378 63.5692 82.3972 64.6174 84.3473C66.2244 87.3361 68.1419 90.1251 70.2164 92.8088C70.3442 92.9759 70.4866 93.132 70.6437 93.3172H70.6473Z" fill="white"/>
<defs>
<linearGradient id="paint0_linear_570_448" x1="70" y1="0" x2="70" y2="140" gradientUnits="userSpaceOnUse">
<stop stop-color="#FC5A6A"/>
<stop offset="1" stop-color="#FE598C"/>
</linearGradient>
</defs>
</svg>
