<svg width="140" height="140" viewBox="0 0 140 140" fill="none" xmlns="http://www.w3.org/2000/svg">
<rect width="140" height="140" rx="30" fill="#EB1C24"/>
<path d="M78.2833 21C81.4299 21.0406 84.8504 21.6841 87.8897 23.6637C91.7396 26.1711 94.2186 29.6271 94.9158 34.2225C95.3403 37.0215 94.9997 39.7762 94.2445 42.4867C92.5367 48.6224 89.0619 53.6532 84.4691 57.9816C79.9479 62.2435 74.8801 65.7389 69.3853 68.6252C67.1419 69.8039 64.769 70.6639 62.2518 71.0453C60.8833 71.2532 59.4988 71.2778 58.1686 70.8177C56.198 70.1349 55.143 68.6412 54.6913 66.6899C54.1471 64.3387 54.7493 62.1401 55.7402 60.0264C57.1395 57.0391 59.1471 54.5784 62.1247 53.0221C63.9139 52.087 65.7451 51.8754 67.5936 52.9027C69.5457 53.9879 70.1182 56.173 68.7202 57.8991C67.6442 59.2279 66.3263 60.3635 65.117 61.5852C64.2952 62.4157 63.4129 63.197 62.6812 64.1C62.2345 64.6525 61.9322 65.3673 61.7273 66.0575C61.5126 66.7846 61.8964 67.2251 62.6664 67.1968C63.271 67.1747 63.8991 67.0688 64.468 66.8646C67.8292 65.6626 70.7833 63.7506 73.5499 61.536C77.4492 58.4146 80.9437 54.9217 83.5498 50.6217C84.8566 48.4661 85.8808 46.2097 86.1276 43.6579C86.246 42.4338 86.1498 41.2403 85.7401 40.0863C85.0997 38.2826 83.5622 37.2183 81.6051 37.131C79.7838 37.0498 78.134 37.6613 76.4941 38.3256C72.9341 39.7664 69.7271 41.8333 66.5496 43.9458C64.0731 45.592 61.6286 47.2887 58.8572 48.4317C56.5583 49.3803 54.2039 50.0409 51.6768 49.8023C48.4315 49.4959 45.5169 46.9946 45.9562 43.0219C46.2869 40.0346 47.7614 37.5825 49.4816 35.2313C51.2486 32.8162 53.5006 30.9202 55.9611 29.2544C59.7567 26.6842 63.698 24.381 68.0452 22.8418C71.2202 21.7161 74.4741 21.0172 78.2833 21Z" fill="white"/>
<path d="M41.429 106.868C41.429 109.038 41.4118 111.209 41.4414 113.378C41.4488 113.947 41.2575 114.329 40.8244 114.683C37.6272 117.301 33.9155 118.161 29.8829 117.841C27.9937 117.691 26.3045 116.943 24.8866 115.677C22.5434 113.588 21.5685 110.958 22.1769 107.887C22.7938 104.765 24.8755 102.914 27.8814 102.083C28.8402 101.819 29.8508 101.7 30.8466 101.629C31.9708 101.549 33.1035 101.596 34.2326 101.591C34.8554 101.588 35.1626 101.268 35.1544 100.631C35.1211 98.1718 34.2079 97.2626 31.7363 97.2688C29.7015 97.2737 27.821 97.9135 26.0145 98.7735C25.4814 99.0269 25.2642 98.915 25.0569 98.4044C24.6966 97.5136 24.2882 96.6425 23.8834 95.7702C23.7304 95.4417 23.7958 95.2473 24.1228 95.0812C27.0362 93.6036 30.0742 92.5935 33.3898 92.8014C36.1662 92.9761 38.6144 93.8816 40.2062 96.3497C41.086 97.7154 41.4253 99.241 41.429 100.848C41.434 102.855 41.429 104.86 41.4315 106.867L41.429 106.868ZM35.1371 109.407C35.1371 108.384 35.1346 107.36 35.1371 106.335C35.1371 106.04 35.0914 105.795 34.7126 105.81C33.6675 105.85 32.6137 105.818 31.5808 105.951C30.4135 106.101 29.5115 106.769 29.0043 107.835C28.3257 109.261 28.4108 110.704 29.1734 112.081C29.5646 112.788 30.1926 113.273 30.9947 113.443C32.2324 113.705 33.4416 113.549 34.6188 113.09C34.9989 112.942 35.1507 112.701 35.1433 112.295C35.1248 111.333 35.1371 110.371 35.1371 109.407Z" fill="white"/>
<path d="M98.5461 106.148C96.5755 106.148 94.6037 106.162 92.633 106.138C92.1518 106.132 91.9901 106.276 91.9914 106.763C91.9951 108.186 92.1271 109.582 92.6528 110.919C93.2599 112.463 94.4321 113.299 96.0536 113.465C98.5067 113.717 100.773 113.092 102.888 111.868C103.544 111.488 103.539 111.479 103.869 112.155C104.264 112.964 104.642 113.782 105.061 114.578C105.254 114.944 105.208 115.179 104.859 115.392C101.015 117.74 96.942 118.755 92.5121 117.379C89.6197 116.479 87.8428 114.362 86.6928 111.676C85.2133 108.22 85.275 104.662 86.1424 101.08C86.6064 99.1672 87.4245 97.414 88.7485 95.9277C90.4341 94.0367 92.5639 93.0893 95.0923 92.9971C96.752 92.9368 98.3759 93.0832 99.9121 93.7636C102.22 94.7847 103.512 96.661 104.253 98.9765C104.941 101.122 105.112 103.342 105.16 105.58C105.171 106.067 104.943 106.157 104.523 106.154C102.532 106.142 100.54 106.148 98.5486 106.149L98.5461 106.148ZM95.4292 102.236C96.3114 102.236 97.195 102.222 98.0772 102.242C98.5005 102.25 98.7066 102.102 98.6337 101.67C98.5178 100.987 98.4585 100.286 98.2549 99.6286C97.9637 98.6898 97.3899 97.9406 96.3571 97.7216C95.2428 97.4841 94.2113 97.6797 93.4363 98.5705C92.6565 99.4674 92.3504 100.569 92.232 101.73C92.1937 102.102 92.3467 102.246 92.7206 102.239C93.6239 102.225 94.5272 102.234 95.4304 102.236H95.4292Z" fill="white"/>
<path d="M73.1179 99.6101C73.1179 95.8428 73.129 92.0742 73.1055 88.3069C73.1018 87.7484 73.2474 87.522 73.8262 87.442C75.492 87.2132 77.1492 86.9277 78.8064 86.6447C79.3568 86.5512 79.5307 86.7395 79.5221 87.2907C79.4962 89.0722 79.5246 90.8537 79.5048 92.6353C79.4999 93.0868 79.6418 93.2517 80.1021 93.2381C81.0251 93.2111 81.9505 93.2468 82.8748 93.2234C83.3375 93.2123 83.5448 93.3489 83.5325 93.8484C83.5041 94.9741 83.5115 96.1011 83.53 97.2269C83.5362 97.6514 83.3646 97.8175 82.95 97.8138C81.9851 97.8052 81.0189 97.8248 80.0539 97.8101C79.6591 97.8039 79.5085 97.9516 79.5098 98.3502C79.5258 102.589 79.5135 106.827 79.5468 111.066C79.5567 112.403 80.4093 113.287 81.7334 113.469C82.1603 113.528 82.591 113.555 83.0216 113.574C83.3782 113.592 83.5312 113.747 83.5263 114.111C83.5127 115.073 83.5448 116.036 83.5016 116.997C83.493 117.184 83.2462 117.494 83.0734 117.521C80.9276 117.858 78.8002 117.793 76.7988 116.864C74.2581 115.684 73.2117 113.496 73.1524 110.852C73.0673 107.107 73.1302 103.358 73.1302 99.6101H73.1179Z" fill="white"/>
<path d="M115.035 99.166C115.035 102.789 115.035 106.411 115.035 110.035C115.035 110.137 115.039 110.239 115.035 110.342C114.941 112.646 115.897 113.415 118.105 113.546C118.698 113.581 118.996 113.901 118.998 114.505C119 115.323 118.993 116.142 118.998 116.96C118.999 117.277 118.941 117.505 118.557 117.569C116.512 117.909 114.499 117.833 112.573 117.021C110.283 116.055 109.205 114.18 108.905 111.818C108.782 110.847 108.772 109.858 108.771 108.877C108.76 102.061 108.772 95.2461 108.752 88.43C108.751 87.8173 108.875 87.5085 109.548 87.4162C111.151 87.196 112.747 86.9142 114.34 86.6214C114.916 86.5156 115.046 86.7137 115.044 87.2538C115.027 91.2241 115.036 95.1957 115.036 99.166H115.035Z" fill="white"/>
<path d="M56.8532 107.403C56.8532 104.353 56.863 101.303 56.8433 98.2543C56.8408 97.7621 56.9926 97.4127 57.3455 97.0731C60.2219 94.3049 63.63 92.7928 67.6453 92.8457C68.7769 92.8605 69.9047 93.189 71.0313 93.3858C71.4866 93.4658 71.5854 93.7106 71.3842 94.1388C70.9486 95.064 70.5266 95.9954 70.1392 96.9403C69.9491 97.4016 69.6999 97.5382 69.2014 97.43C67.4047 97.0387 65.7031 97.3672 64.073 98.178C63.4647 98.4807 63.1957 98.8768 63.2006 99.6138C63.2376 105.262 63.2228 110.912 63.2216 116.562C63.2216 117.518 63.2179 117.52 62.2776 117.521C60.7377 117.524 59.1989 117.524 57.6589 117.521C56.8803 117.52 56.8556 117.496 56.8556 116.736C56.8544 113.625 56.8556 110.515 56.8556 107.403H56.8532Z" fill="white"/>
<path d="M52.1087 105.35C52.1087 109.095 52.1087 112.84 52.1087 116.586C52.1087 117.192 51.7969 117.495 51.1733 117.497C49.6543 117.497 48.1353 117.481 46.6163 117.503C46.1005 117.51 45.8772 117.361 45.8784 116.81C45.892 109.484 45.892 102.156 45.8821 94.8289C45.8821 94.3331 46.0857 94.1436 46.5522 94.0735C48.1946 93.8262 49.837 93.5703 51.4719 93.2812C52.0729 93.1754 52.1136 93.478 52.1124 93.9296C52.105 97.7362 52.1087 101.543 52.1074 105.35H52.1087Z" fill="white"/>
<path d="M48.9548 91.3743C46.7731 91.3669 45.0777 89.6604 45.0728 87.4667C45.0691 85.3124 46.9175 83.5272 49.1251 83.5518C51.2623 83.5751 52.9553 85.3062 52.9491 87.4593C52.9417 89.7145 51.2413 91.3816 48.956 91.3743H48.9548Z" fill="white"/>
</svg>
