<svg width="140" height="140" viewBox="0 0 140 140" fill="none" xmlns="http://www.w3.org/2000/svg">
<rect width="140" height="140" rx="30" fill="#E91E2A"/>
<path d="M12.6477 11.1776C13.8561 10.0045 15.9151 9.14797 17.6041 9.002L122.137 9C125.983 9.46991 128.925 12.1814 129.267 16.1333L129.269 124.816C129.186 128.402 125.911 131.626 122.396 131.947H17.6021C13.2416 131.708 10.5407 128.209 10.2128 124.036C9.61824 116.476 10.4541 108.51 10.4941 100.958C10.6334 74.3344 10.6274 47.6814 10.4941 21.0577C10.4761 17.4737 9.6689 14.0697 12.6483 11.1776H12.6477ZM23.4476 66.3246V121.693C23.4476 121.769 24.0842 122.833 24.2215 122.994C26.0678 125.146 29.9698 124.213 32.3946 124.209C44.3477 124.191 56.4668 123.9 68.4299 124.428C82.3413 123.593 97.4751 125.498 111.242 124.425C111.984 124.367 113.386 124.148 114.028 123.84C114.424 123.65 115.771 122.281 115.771 121.952V66.3246C117.902 66.3639 120.76 66.282 121.417 63.8018C121.183 59.0246 121.942 54.0536 121.749 49.3258C121.707 48.2953 121.577 45.9191 121.355 45.0519C120.914 43.3336 118.978 42.8717 117.453 42.7297C114.019 42.4091 109.324 42.649 105.776 42.7144C103.929 42.7484 101.844 43.4196 99.9527 42.7217C104.989 38.1652 107.29 33.0255 103.791 26.5674C95.9821 12.1541 83.4524 19.8806 75.182 28.9763C74.4701 29.7595 70.4715 35.0545 70.0023 34.9432C66.0137 24.7337 55.5536 9.8585 42.9187 17.4597C32.052 23.9965 36.2832 36.7748 45.2316 42.721C44.831 42.7537 44.4677 42.9943 44.0571 42.9976C36.9391 43.0563 29.4225 42.1132 22.2845 42.7277C18.9452 43.0156 18.2466 44.2681 17.992 47.5121C17.7081 51.1328 17.7954 56.5678 17.9907 60.2398C18.054 61.4249 18.19 63.7818 18.7799 64.6376C19.839 66.174 21.702 66.4266 23.4476 66.3233V66.3246Z" fill="#E91E2A"/>
<path d="M23.447 66.3248C21.7013 66.4274 19.8384 66.1754 18.7792 64.6391C18.1893 63.7832 18.0534 61.4263 17.99 60.2412C17.7947 56.5692 17.7074 51.1342 17.9914 47.5136C18.246 44.2695 18.9445 43.0171 22.2839 42.7292C29.4219 42.114 36.9378 43.0571 44.0565 42.9991C44.4671 42.9958 44.8303 42.7552 45.2309 42.7225C36.2833 36.7756 32.0514 23.998 42.918 17.4612C55.5537 9.85997 66.0131 24.7352 70.0016 34.9446C70.4709 35.0559 74.4688 29.7609 75.1813 28.9777C83.4518 19.8821 95.9814 12.1555 103.791 26.5688C107.29 33.027 104.988 38.1667 99.952 42.7231C101.843 43.421 103.929 42.7498 105.776 42.7158C109.323 42.6505 114.018 42.4105 117.452 42.7312C118.977 42.8738 120.913 43.335 121.354 45.0534C121.577 45.9205 121.706 48.2968 121.748 49.3273C121.942 54.055 121.182 59.0254 121.417 63.8032C120.759 66.2841 117.901 66.3654 115.77 66.3261V121.954C115.77 122.283 114.423 123.651 114.027 123.841C113.386 124.15 111.984 124.369 111.241 124.427C97.4738 125.5 82.34 123.594 68.4293 124.43C56.4662 123.901 44.3464 124.192 32.394 124.211C29.9691 124.215 26.0672 125.147 24.2209 122.995C24.0836 122.835 23.447 121.77 23.447 121.694V66.3261V66.3248ZM53.79 45.318H21.2434C21.1988 45.318 20.7862 45.7179 20.7289 45.8406C20.8228 51.0089 20.147 56.9312 20.5849 62.0562C20.6329 62.6154 20.7435 63.7312 21.5027 63.7312H64.1634V44.2809H75.3146V63.7312L118.628 63.6052C119.897 62.4055 119.141 60.8011 119.132 59.4627C119.104 55.4494 119.601 50.0085 119.156 46.2125C119.125 45.9512 119.038 45.318 118.754 45.318H92.5607C92.5188 45.318 91.8022 45.0634 91.9142 44.8028C98.2863 41.3634 105.894 36.5437 101.908 28.1905C97.4592 18.8676 90.8331 19.5082 83.2725 24.8785C77.5929 28.9124 73.1124 34.8759 69.739 40.9042C68.1613 37.5781 67.0522 34.0574 65.3358 30.7894C61.002 22.5383 50.9792 12.0349 41.8482 21.3172C34.9842 28.2945 40.7471 36.455 47.0693 41.0168C48.9896 42.4019 51.7904 43.387 53.3587 44.5821C53.6534 44.8068 53.8873 44.8514 53.79 45.318ZM25.7812 66.3248V121.174C25.7812 121.22 26.3838 121.823 26.4298 121.823H64.0334C64.0607 121.823 64.4227 121.462 64.4227 121.434V115.987C64.4227 115.703 65.0559 115.616 65.3172 115.586C68.3066 115.235 72.2865 115.701 75.3146 115.858V121.434C75.3146 121.461 75.6759 121.823 75.7039 121.823H112.53C112.628 121.823 113.438 121.234 113.438 121.174V66.3248H75.3146V71.3818C75.3146 71.4091 74.9534 71.7711 74.9254 71.7711H64.422L64.1641 66.3234L25.7806 66.3248H25.7812Z" fill="#FEFDFE"/>
<path d="M53.7907 45.3179C53.8887 44.8513 53.6547 44.8066 53.3594 44.582C51.7911 43.3869 48.9903 42.4017 47.0699 41.0166C40.7478 36.4548 34.9849 28.295 41.8489 21.317C50.9799 12.0348 61.0027 22.5381 65.3365 30.7892C67.0529 34.0573 68.162 37.578 69.7397 40.904C73.1131 34.8758 77.5936 28.9123 83.2732 24.8784C90.8344 19.508 97.4598 18.8682 101.908 28.1904C105.894 36.5435 98.287 41.3633 91.9149 44.8026C91.8029 45.0632 92.5194 45.3179 92.5614 45.3179H118.755C119.038 45.3179 119.126 45.9511 119.156 46.2124C119.602 50.0083 119.105 55.4493 119.132 59.4625C119.142 60.801 119.897 62.4053 118.629 63.6051L75.3153 63.7311V44.2807H64.1641V63.7311H21.5034C20.7442 63.7311 20.6329 62.6153 20.5856 62.0561C20.1476 56.9304 20.8235 51.0088 20.7295 45.8404C20.7869 45.7178 21.1995 45.3179 21.2441 45.3179H53.7907ZM62.6064 40.6487C60.3474 35.8076 56.3629 30.3353 51.6951 27.5745C50.5353 26.8886 45.8422 24.4224 46.0255 27.2692C46.2174 30.2493 53.604 36.7648 56.1476 38.4232C58.0665 39.6749 60.2195 40.9153 62.607 40.6487H62.6064ZM91.331 30.0834C86.8532 30.6579 80.1777 35.7983 77.5082 39.3416C76.889 40.1635 76.9503 40.5328 78.0255 40.6627C81.2795 41.0553 87.503 37.5853 90.1792 35.675C92.4888 34.0266 98.1077 29.2142 91.331 30.084V30.0834Z" fill="#E91E2A"/>
<path d="M25.7822 66.3248L64.1657 66.3235L64.4237 71.7711H74.927C74.9544 71.7711 75.3163 71.4098 75.3163 71.3818V66.3248H113.439V121.175C113.439 121.233 112.629 121.823 112.531 121.823H75.7055C75.6782 121.823 75.3163 121.462 75.3163 121.434V115.858C72.2882 115.701 68.3083 115.235 65.3188 115.586C65.0576 115.616 64.4243 115.704 64.4243 115.987V121.434C64.4243 121.461 64.0631 121.823 64.0351 121.823H26.4314C26.3854 121.823 25.7829 121.221 25.7829 121.175V66.3248H25.7822ZM110.067 73.8454H33.6921C33.4441 73.8454 31.1506 75.3211 30.8306 75.6517C30.2607 76.2409 29.1543 78.4252 29.1543 79.1617V111.579C29.1543 111.863 29.7875 111.95 30.0488 111.981C34.3913 112.491 39.1937 111.742 43.5349 111.696C60.2991 111.517 77.1046 111.632 93.8708 111.696C97.5595 111.71 101.273 112.166 104.988 111.686C106.549 111.485 108.127 110.521 108.987 109.201C109.251 108.796 110.067 107.011 110.067 106.651V73.8454Z" fill="#E91E2A"/>
<path d="M62.6063 40.6489C60.2188 40.9155 58.0665 39.6744 56.1469 38.4233C53.6033 36.7649 46.2174 30.2501 46.0248 27.2694C45.8415 24.4226 50.5346 26.8881 51.6944 27.5746C56.3628 30.3361 60.3467 35.8084 62.6057 40.6489H62.6063Z" fill="#FEFDFE"/>
<path d="M91.3306 30.0833C98.1073 29.2142 92.4883 34.0259 90.1788 35.6743C87.5026 37.5846 81.2791 41.0553 78.025 40.662C76.9499 40.5321 76.8886 40.1628 77.5078 39.341C80.1773 35.7976 86.8527 30.6572 91.3306 30.0827V30.0833Z" fill="#FEFDFE"/>
<path d="M110.067 73.8452V106.651C110.067 107.011 109.251 108.795 108.987 109.201C108.128 110.521 106.55 111.486 104.988 111.686C101.273 112.165 97.5595 111.71 93.8708 111.696C77.104 111.631 60.2991 111.517 43.5349 111.696C39.1938 111.743 34.3913 112.491 30.0488 111.981C29.7875 111.95 29.1543 111.863 29.1543 111.579V79.1616C29.1543 78.425 30.2607 76.2408 30.8306 75.6515C31.1506 75.3209 33.4448 73.8452 33.6921 73.8452H110.067ZM98.616 78.2917C98.3687 78.1357 96.9236 78.2404 96.5117 78.3157C94.5067 78.685 92.4438 80.668 91.6013 82.4803C91.412 82.8875 91.28 84.028 91.0834 84.1693C90.6481 84.4826 89.1877 84.1659 89.0584 85.639C89.299 86.2502 90.5175 85.9383 90.6181 86.0336C90.9361 86.3349 89.4783 93.7642 88.9171 94.5794C87.4394 96.7256 85.4771 92.751 85.1625 96.0171C85.0352 97.3415 85.2311 97.8294 86.5929 97.97C90.0529 98.328 92.5418 94.6493 93.293 91.6939C93.5656 90.6201 93.8862 86.6828 94.1121 86.2889C94.5067 85.6017 97.1576 86.0056 96.839 84.22L94.5054 84.2186C94.3594 84.0713 94.8647 81.3825 95.07 81.0232C95.6425 80.0194 96.2924 81.0685 96.9923 81.1132C98.152 81.1872 99.4978 78.8483 98.616 78.2917ZM86.133 79.6055C83.4901 80.2101 84.5913 84.138 87.3821 82.4083C89.0204 81.3925 88.6018 79.0409 86.133 79.6055ZM101.769 84.4766C101.867 83.3014 103.224 80.5413 101.392 80.3167C97.7781 79.8734 98.9446 80.8499 98.6246 83.2795C98.1074 87.2054 94.0695 95.8451 101.783 94.2174C103.418 93.8721 104.132 92.8963 103.842 91.2213C103.489 90.8474 100.453 93.2956 100.496 90.6068C100.503 90.1788 101.116 86.7095 101.273 86.5768C101.509 86.3762 105.693 86.8095 105.138 84.22L101.769 84.4759L101.769 84.4766ZM42.3085 81.6964C41.2587 80.6239 38.3412 80.9159 37.4907 82.3123C37.0242 83.0782 34.0061 91.7759 33.8727 92.7164C33.6728 94.1281 34.5593 95.2712 36.0297 95.1333C37.7613 94.9706 37.7187 92.607 38.1413 92.5057C39.1751 92.701 41.0681 92.2525 41.9546 92.5531C42.6404 92.7857 42.4338 95.9238 45.2466 94.9966C46.753 94.5 46.2398 92.5684 45.9352 91.4253C45.6152 90.2255 42.7878 82.187 42.3078 81.6964H42.3085ZM48.5273 81.1612C47.9601 81.3318 47.4122 82.233 47.3216 82.8069C47.0296 84.6525 47.0716 91.2393 47.3009 93.1716C47.6148 95.8138 50.8076 95.7751 51.1822 93.4102C51.4755 91.5606 51.4188 85.2584 51.1968 83.3108C51.0215 81.7757 50.2237 80.6499 48.5273 81.1605V81.1612ZM58.9154 85.3171C58.4928 84.9065 56.7258 85.1878 56.9038 84.3526C57.0258 83.7807 59.3073 84.204 59.4406 82.7516C59.6366 80.6066 53.9863 80.208 53.3318 83.1108C53.2211 83.6001 53.3798 84.4559 53.2325 84.6999C53.1531 84.8305 52.1187 84.9545 51.8434 85.515C51.0129 87.2041 53.2058 87.4407 53.2831 87.7633C53.7544 89.7236 51.7914 96.3324 55.9446 95.0613C57.8016 94.4927 56.4505 88.0186 56.9031 87.5913C56.9851 87.514 58.4188 87.76 58.998 86.9601C59.3226 86.5115 59.314 85.7037 58.9161 85.3171H58.9154ZM82.5756 84.4792C79.3976 85.2258 77.2933 82.7196 74.1919 84.7805C71.8976 86.3049 71.4077 89.0124 73.7599 90.6974C71.8843 91.0013 73.4333 92.2531 73.2407 92.5137C67.863 94.7633 71.6297 98.5333 76.2021 97.9407C79.0843 97.5674 83.0289 94.482 79.1303 92.2044L75.8362 90.7054C77.6792 90.2602 79.4902 89.9749 80.3027 88.0386C80.5053 87.556 80.4234 86.9034 80.6333 86.5535C80.8966 86.1163 82.7829 85.739 82.5756 84.4792ZM87.5054 83.958C85.717 83.774 84.046 84.9698 82.8416 86.1636C82.9689 86.5935 84.1107 86.6915 84.1527 86.9714C84.3446 88.2365 81.7365 94.0421 83.4248 94.6847C84.4053 95.0579 87.554 93.5595 87.762 92.643C87.906 92.0071 86.8015 92.0592 86.5849 91.7519C85.9703 90.8787 88.1719 85.4824 87.5047 83.9587L87.5054 83.958ZM63.5845 84.5432C56.8091 85.3557 57.6323 95.9044 64.5503 95.3892C65.2375 95.3379 65.7501 94.806 66.3487 94.85C67.2785 94.918 68.2756 96.1177 69.3608 94.4727C70.1073 93.3416 70.1033 86.4609 69.4727 85.2637C68.6556 83.7134 67.0905 84.9598 66.374 84.9738C65.5761 84.9891 64.9996 84.3739 63.5845 84.5432ZM105.141 98.7406C93.0603 98.9725 81.0133 98.4553 68.9515 98.472C58.6368 98.486 48.1947 99.0278 37.8353 98.7359C34.6613 99.2898 33.6481 102.038 33.8208 104.967C35.0112 105.147 36.149 104.731 37.3101 104.695C58.5388 104.032 79.8855 105.211 101.126 104.714C104.022 104.288 105.483 101.499 105.14 98.7412L105.141 98.7406ZM101.639 105.744H34.0814V107.56H100.861C102.237 107.56 104.354 105.819 104.827 104.523C105.4 102.949 103.43 105.003 103.306 105.077C103.125 105.187 101.789 105.721 101.639 105.745V105.744Z" fill="#FEFDFE"/>
<path d="M105.14 98.7406C105.483 101.498 104.022 104.288 101.126 104.714C79.8851 105.211 58.5384 104.031 37.3097 104.694C36.1479 104.73 35.0101 105.147 33.8204 104.967C33.6471 102.037 34.6609 99.2892 37.835 98.7353C48.1943 99.0279 58.6364 98.4853 68.9511 98.4713C81.0129 98.4547 93.0599 98.9719 105.14 98.74L105.14 98.7406Z" fill="#EC1D2A"/>
<path d="M101.638 105.744C101.789 105.721 103.124 105.186 103.305 105.077C103.429 105.002 105.4 102.948 104.826 104.522C104.355 105.819 102.237 107.559 100.861 107.559H34.0811V105.743H101.638V105.744Z" fill="#FFD20A"/>
<path d="M98.6154 78.2917C99.4973 78.8489 98.1515 81.1878 96.9918 81.1132C96.2912 81.0685 95.642 80.0194 95.0694 81.0232C94.8648 81.3824 94.3589 84.0713 94.5049 84.2186L96.8384 84.2199C97.1571 86.0049 94.5069 85.6016 94.1116 86.2888C93.8857 86.6821 93.5651 90.6201 93.2925 91.6939C92.5413 94.6493 90.0524 98.3273 86.5924 97.97C85.2306 97.8294 85.034 97.3415 85.162 96.017C85.4766 92.7517 87.4389 96.7263 88.9166 94.5793C89.4778 93.7635 90.9355 86.3349 90.6176 86.0336C90.517 85.9383 89.2985 86.2509 89.0579 85.639C89.1879 84.1659 90.6476 84.4825 91.0829 84.1693C91.2795 84.028 91.4115 82.8875 91.6008 82.4803C92.4433 80.6679 94.5062 78.685 96.5112 78.3157C96.9224 78.2397 98.3682 78.1357 98.6154 78.2917Z" fill="#E91E2A"/>
<path d="M58.9145 85.3172C59.3124 85.7037 59.3211 86.5116 58.9965 86.9602C58.4172 87.76 56.9835 87.514 56.9015 87.5914C56.4489 88.0186 57.8 94.4934 55.943 95.0613C51.7898 96.3324 53.7528 89.7236 53.2815 87.7633C53.2042 87.4407 51.0113 87.2041 51.8418 85.5151C52.1171 84.9545 53.1516 84.8306 53.2309 84.6999C53.3789 84.456 53.2202 83.6001 53.3302 83.1109C53.9847 80.2081 59.635 80.6067 59.439 82.7516C59.3064 84.204 57.0248 83.7808 56.9022 84.3527C56.7236 85.1878 58.4912 84.9066 58.9138 85.3172H58.9145Z" fill="#1763A9"/>
<path d="M101.768 84.4765L105.138 84.2206C105.693 86.8101 101.508 86.3762 101.273 86.5775C101.116 86.7108 100.503 90.1794 100.496 90.6074C100.453 93.2962 103.489 90.8487 103.841 91.2219C104.132 92.897 103.417 93.8728 101.782 94.2181C94.0692 95.8457 98.1071 87.206 98.6243 83.2801C98.9449 80.8499 97.7778 79.8734 101.392 80.3173C103.223 80.5419 101.866 83.3021 101.769 84.4772L101.768 84.4765Z" fill="#E91E2A"/>
<path d="M48.5269 81.1612C50.2232 80.6507 51.0211 81.7764 51.1964 83.3115C51.4183 85.2591 51.475 91.5613 51.1817 93.4109C50.8071 95.7758 47.6144 95.8145 47.3004 93.1723C47.0712 91.24 47.0292 84.6532 47.3211 82.8076C47.4118 82.2337 47.9596 81.3325 48.5269 81.1619V81.1612Z" fill="#1763A9"/>
<path d="M87.5049 83.9581C88.1721 85.4825 85.9705 90.8788 86.5851 91.7513C86.8017 92.0593 87.9062 92.0073 87.7622 92.6425C87.5543 93.5583 84.4055 95.0574 83.425 94.6841C81.736 94.0415 84.3448 88.236 84.1529 86.9709C84.1102 86.6916 82.9691 86.5936 82.8418 86.163C84.0469 84.9693 85.7179 83.7728 87.5056 83.9574L87.5049 83.9581Z" fill="#E91E2A"/>
<path d="M86.1327 79.6056C88.6009 79.041 89.0201 81.3926 87.3818 82.4084C84.5916 84.1381 83.4898 80.2108 86.1327 79.6056Z" fill="#E91E2A"/>
<path d="M42.3078 81.6964C42.7877 82.187 45.6152 90.2255 45.9351 91.4252C46.2404 92.569 46.753 94.5007 45.2466 94.9966C42.4338 95.9231 42.6404 92.7857 41.9546 92.553C41.0681 92.2524 39.1751 92.701 38.1413 92.5057C37.7187 92.6063 37.7613 94.9699 36.0297 95.1332C34.5593 95.2712 33.6728 94.1281 33.8727 92.7163C34.006 91.7765 37.0241 83.0788 37.4907 82.3123C38.3412 80.9165 41.2587 80.6239 42.3085 81.6964H42.3078ZM40.3009 85.5163C39.8956 85.1204 39.8589 85.603 39.759 85.8769C39.5843 86.3575 38.7991 89.197 39.0064 89.4056L41.3407 89.4043C41.1887 88.7931 40.5348 85.745 40.3002 85.5163H40.3009Z" fill="#1763A9"/>
<path d="M40.301 85.5164C40.5349 85.745 41.1888 88.7931 41.3414 89.4044L39.0072 89.4057C38.7999 89.1971 39.5851 86.3576 39.7597 85.877C39.8597 85.6031 39.8964 85.1205 40.3017 85.5164H40.301Z" fill="#FEFDFE"/>
<path d="M63.5837 84.5433C64.9994 84.3733 65.5753 84.9892 66.3731 84.9738C67.0897 84.9598 68.6547 83.7134 69.4719 85.2638C70.1031 86.4609 70.1064 93.3416 69.3599 94.4727C68.2748 96.1178 67.2776 94.918 66.3478 94.85C65.7486 94.806 65.2367 95.3379 64.5495 95.3892C57.6308 95.9045 56.8076 85.3558 63.5837 84.5433ZM64.0929 87.3794C61.4761 87.9233 62.4745 94.0021 65.3473 92.2725C66.4838 91.5879 66.3731 86.9055 64.0929 87.3794Z" fill="#1763A9"/>
<path d="M64.093 87.3793C66.3732 86.9054 66.4838 91.5878 65.3474 92.2724C62.4753 94.0021 61.4768 87.9232 64.093 87.3793Z" fill="#FEFDFE"/>
<path d="M82.5754 84.4793C82.7827 85.7391 80.8957 86.1163 80.6331 86.5536C80.4232 86.9028 80.5051 87.556 80.3025 88.0386C79.49 89.9749 77.679 90.2596 75.836 90.7055L79.1301 92.2045C83.0287 94.4821 79.0847 97.5675 76.2019 97.9408C71.6295 98.5333 67.8622 94.7634 73.2405 92.5138C73.4331 92.2532 71.8841 91.0014 73.7597 90.6975C71.4075 89.0124 71.8981 86.305 74.1917 84.7806C77.2931 82.7196 79.3974 85.2258 82.5754 84.4793ZM76.5446 86.097C73.6851 86.5756 73.5451 89.441 76.1 88.7672C78.2849 88.1906 79.8773 85.5391 76.5446 86.097ZM74.7282 93.8775C71.6368 94.3874 72.8179 96.8137 76.1126 96.0358C79.4074 95.258 77.8843 93.3563 74.7282 93.8775Z" fill="#E91E2A"/>
<path d="M74.728 93.8776C77.8841 93.357 79.2765 95.2894 76.1124 96.0359C72.9483 96.7824 71.6373 94.3875 74.728 93.8776Z" fill="#FEFDFE"/>
<path d="M76.5445 86.0969C79.8772 85.539 78.2848 88.1905 76.0999 88.7671C73.545 89.4416 73.6857 86.5755 76.5445 86.0969Z" fill="#FEFDFE"/>
</svg>
