<svg width="140" height="140" viewBox="0 0 140 140" fill="none" xmlns="http://www.w3.org/2000/svg">
<rect width="140" height="140" rx="30" fill="white"/>
<path d="M46.8184 33C54.5836 33.1843 61.722 35.1413 68.0486 39.6483C68.7701 40.1618 69.3118 39.9705 69.9448 39.5374C73.7064 36.9595 77.7546 34.9841 82.2219 33.9545C89.334 32.3162 96.2664 32.883 102.903 35.9534C113.38 40.8002 116.002 51.1093 112.594 60.1058C110.369 65.983 106.285 70.4088 101.269 74.0661C97.9565 76.4807 94.3036 78.2343 90.4526 79.5992C89.8933 79.7975 89.1079 80.207 88.7651 79.539C88.4329 78.8919 89.2139 78.4718 89.6847 78.1155C92.9115 75.6729 96.0201 73.102 98.7271 70.0804C101.481 67.0047 103.783 63.6531 104.991 59.6622C107.65 50.8682 102.779 44.426 96.39 41.6446C89.9371 38.8353 83.3966 39.0981 76.985 41.7451C74.5418 42.7537 72.2967 44.247 69.9912 45.57C69.0076 46.135 68.7622 46.1857 67.9119 45.4766C64.1923 42.3747 59.839 40.6779 55.1175 39.878C50.4354 39.085 45.8085 39.2981 41.3868 41.1888C36.7004 43.193 33.3955 46.4599 32.4741 51.6367C31.6317 56.3682 33.1001 60.4962 36.1428 64.1151C39.2557 67.8169 43.2558 70.332 47.5714 72.3842C53.4939 75.1996 59.7189 77.0396 66.2112 77.9994C68.0679 78.2736 69.8317 78.1269 71.5849 77.3924C75.9821 75.5516 79.8936 73.0592 82.8382 69.2517C85.3182 66.045 86.4859 62.4139 86.2465 58.3505C86.0546 55.0932 84.0357 52.4183 81.1516 51.7267C78.9635 51.2018 76.8622 51.6096 75.0564 52.8724C73.7046 53.8182 72.5405 55.0408 71.3482 56.1961C70.753 56.7734 70.2989 57.4912 69.7493 58.1182C69.0988 58.8623 68.5202 58.8107 68.0302 57.961C67.0799 56.314 65.9219 54.8443 64.4237 53.6575C62.3032 51.9773 59.9039 51.1058 57.1942 51.5389C53.1214 52.1904 50.9894 55.8931 52.2079 60.0543C52.8891 62.379 54.3495 64.1884 56.1405 65.7507C59.2893 68.4972 62.9791 70.3005 66.859 71.7606C67.1615 71.8742 67.5025 71.9388 67.7514 72.1239C67.9846 72.2977 68.1196 72.6016 68.2976 72.8488C68.0267 73.026 67.7523 73.3561 67.4858 73.35C66.71 73.3326 65.9307 73.2155 65.1636 73.0749C59.5164 72.0383 54.1909 70.1678 49.3966 66.9541C47.5259 65.7001 45.8664 64.2129 44.5515 62.3729C39.7309 55.632 43.0156 47.355 51.1831 45.7997C57.9183 44.5177 63.3911 46.9524 67.9776 51.7564C68.8157 52.634 68.8805 52.6593 69.7826 51.8681C73.1322 48.9313 76.8394 46.6774 81.312 45.8774C87.4449 44.7806 93.8566 48.1078 94.9462 55.1552C95.495 58.7068 94.7314 62.0541 93.1456 65.2198C90.1116 71.2777 85.4926 75.8127 79.5324 79.0115C76.324 80.7327 73.0489 82.3536 69.4144 82.9203C68.0933 83.1264 66.6784 82.888 65.3249 82.7099C57.7088 81.7082 50.4135 79.6219 43.567 76.1087C37.7497 73.1238 32.5408 69.3635 28.6047 64.06C26.1098 60.6979 24.4065 56.9961 24.069 52.7746C23.5325 46.0818 26.13 40.836 31.6308 37.0346C35.083 34.6488 39.0357 33.634 43.1638 33.2271C44.3963 33.1057 45.6376 33.0716 46.8184 33Z" fill="#E82B31"/>
<path d="M69.0128 92.0716C68.0854 92.9845 67.1589 93.8965 66.1861 94.8538C66.155 94.8251 65.9957 94.6825 65.8417 94.5344C63.1646 91.9467 59.1292 93.203 58.3959 96.9268C58.1832 98.0054 58.2152 99.2146 58.443 100.294C59.0046 102.963 61.1309 104.31 63.7698 103.86C66.1096 103.46 66.2858 103.235 66.1737 100.784C66.1701 100.701 66.1434 100.62 66.1114 100.453H63.6194V96.7583C64.1899 96.7583 64.779 96.7583 65.3673 96.7583C66.6543 96.7583 67.9412 96.7796 69.2282 96.749C69.7765 96.7361 70.007 96.8824 69.9998 97.5073C69.9714 100.042 69.9981 102.577 69.9731 105.112C69.9705 105.377 69.8281 105.768 69.6314 105.885C66.6401 107.678 63.4556 108.574 60.0371 107.601C56.0258 106.459 53.4937 102.082 54.0856 97.6027C54.3241 95.7954 54.8447 94.1122 55.8727 92.6197C59.0313 88.034 65.7678 87.7544 69.0128 92.0726V92.0716Z" fill="#E82B31"/>
<path d="M81.0009 106.96V90.0174C82.5989 90.0174 84.1499 89.9699 85.6953 90.0318C87.0742 90.087 88.4899 90.104 89.8135 90.4137C93.5359 91.2861 95.7662 94.0722 95.9844 97.8716C96.2826 103.069 92.2822 106.978 86.6443 106.997C85.0584 107.002 83.4724 107 81.8864 106.996C81.5882 106.996 81.2899 106.972 81 106.959L81.0009 106.96ZM85.0344 93.6802V103.321C87.2657 103.539 89.3054 103.3 90.6797 101.517C92.0871 99.6903 92.1165 97.6841 90.9641 95.7594C89.6745 93.6055 87.3918 93.5834 85.0344 93.6802Z" fill="#E82B31"/>
<path d="M40.9991 106.295C39.8037 106.856 38.691 107.377 37.4812 107.945C37.041 107.023 36.5945 106.166 36.2227 105.278C36.0238 104.803 35.7529 104.639 35.2334 104.645C33.0757 104.67 30.9162 104.668 28.7585 104.647C28.2769 104.642 28.0095 104.791 27.8232 105.237C27.4469 106.134 27.0112 107.008 26.5503 108C25.363 107.43 24.2161 106.88 23 106.296C25.9976 100.555 28.9592 94.8851 32.0333 89C35.0597 94.8376 37.9979 100.504 41 106.294L40.9991 106.295ZM31.9838 96.4632C31.2249 98.0738 30.539 99.5312 29.8162 101.067H34.1334C33.4115 99.5197 32.73 98.0597 31.9847 96.4632H31.9838Z" fill="#E82B31"/>
<path d="M105.036 89C108.062 94.8416 111.004 100.52 114 106.303C112.813 106.858 111.679 107.387 110.47 107.952C110.012 106.978 109.62 106.058 109.142 105.184C109.01 104.941 108.628 104.689 108.356 104.683C106.142 104.643 103.926 104.671 101.712 104.652C101.256 104.647 101.015 104.8 100.84 105.213C100.448 106.131 100.004 107.028 99.5514 108C98.3568 107.428 97.2252 106.888 96 106.302C98.9995 100.557 101.97 94.8689 105.035 89H105.036ZM104.982 96.4603C104.212 98.1037 103.529 99.5612 102.828 101.055H107.125C106.408 99.5163 105.734 98.0729 104.982 96.4603Z" fill="#E82B31"/>
<path d="M44.0008 90H47.5287C47.5486 90.3226 47.5834 90.6239 47.5834 90.9243C47.5876 94.7847 47.6041 98.6451 47.5702 102.505C47.5635 103.236 47.7725 103.457 48.4731 103.426C49.6952 103.373 50.9214 103.408 52.146 103.414C52.4196 103.414 52.6941 103.441 53 103.458V107H44V90H44.0008Z" fill="#E82B31"/>
<path d="M77 107H74V90H77V107Z" fill="#E82B31"/>
<path d="M114.005 89C115.685 89 116.989 90.2831 117 91.9471C117.011 93.6373 115.676 94.9992 114.007 95C112.344 95 110.985 93.6221 111 91.9496C111.015 90.3017 112.341 89 114.005 89.0008V89ZM113.972 94.4075C115.32 94.4245 116.423 93.3741 116.459 92.0385C116.496 90.6902 115.37 89.5485 114.005 89.5485C112.672 89.5485 111.57 90.6369 111.556 91.9657C111.542 93.2886 112.633 94.3906 113.973 94.4067L113.972 94.4075Z" fill="#E82B31"/>
<path d="M113 91.0621C113.201 91.0222 113.487 91 113.76 91C114.183 91 114.457 91.0751 114.649 91.2428C114.803 91.3753 114.89 91.5783 114.89 91.8082C114.89 92.2011 114.635 92.4615 114.312 92.5681V92.5811C114.549 92.6608 114.691 92.873 114.763 93.1817C114.863 93.5969 114.936 93.8842 115 93.9991H114.59C114.541 93.9147 114.472 93.6589 114.385 93.2882C114.294 92.8777 114.13 92.7229 113.771 92.7099H113.397V94H113.001V91.0621H113ZM113.396 92.418H113.801C114.224 92.418 114.494 92.1928 114.494 91.8526C114.494 91.468 114.207 91.3003 113.788 91.2956C113.597 91.2956 113.46 91.3133 113.396 91.3309V92.418Z" fill="#E82B31"/>
</svg>
