<svg width="140" height="140" viewBox="0 0 140 140" fill="none" xmlns="http://www.w3.org/2000/svg">
<g clip-path="url(#clip0_571_537)">
<rect width="140" height="140" rx="30" fill="white"/>
<path d="M78.5241 102.65C78.5241 105.297 77.0918 106.967 74.8171 106.967C73.3152 106.967 72.1068 106.026 71.6126 104.859C71.5539 104.719 71.5047 104.577 71.4665 104.432C71.4132 104.178 71.3818 103.914 71.3818 103.644V102.031C71.3818 101.774 71.4597 101.476 71.5279 101.219C71.8269 100.112 72.5492 99.3164 73.4354 98.8996C73.8982 98.6823 74.4075 98.5688 74.9236 98.5688C77.2133 98.5688 78.5241 100.466 78.5241 102.65Z" fill="#FE9900"/>
<path d="M111.693 0H28.3069C12.6734 0 0 12.686 0 28.3351V94.7064C0 110.356 12.6734 123.042 28.3069 123.042H111.693C127.327 123.042 140 110.356 140 94.7064V28.3351C140 12.686 127.327 0 111.693 0ZM75.1912 108.583C73.6223 108.583 72.1764 107.941 71.4255 106.679H71.3818V112.898H69.3706V103.343C69.3706 100.779 70.4888 97.9278 73.6961 97.2308C74.245 97.0381 74.8621 96.9329 75.5489 96.9329C78.3766 96.9329 80.5625 99.2686 80.5625 102.542C80.5625 106.501 77.9697 108.583 75.1912 108.583Z" fill="#FE9900"/>
<path d="M74.9236 98.5688C77.2133 98.5688 78.5241 100.466 78.5241 102.65C78.5241 105.297 77.0918 106.967 74.8171 106.967C73.3152 106.967 72.1068 106.026 71.6126 104.859C71.5539 104.719 71.5047 104.577 71.4665 104.432C71.4132 104.178 71.3818 103.914 71.3818 103.644V102.031C71.3818 101.774 71.4597 101.476 71.5279 101.219C71.8269 100.112 72.5492 99.3164 73.4354 98.8996C73.8982 98.6823 74.4075 98.5688 74.9236 98.5688Z" fill="#E52E04"/>
<path d="M111.693 16.9597H28.3069C12.6734 16.9597 0 29.6457 0 45.2948V111.665C0 127.314 12.6734 140 28.3069 140H111.693C127.327 140 140 127.314 140 111.665V45.2948C140 29.6457 127.327 16.9597 111.693 16.9597ZM80.5625 102.542C80.5625 106.501 77.9697 108.583 75.1912 108.583C73.6223 108.583 72.1764 107.94 71.4255 106.679H71.3818V112.898H69.3706V103.343C69.3706 100.779 70.4888 97.9278 73.6961 97.2307C74.245 97.038 74.8621 96.9328 75.5489 96.9328C78.3766 96.9328 80.5625 99.2685 80.5625 102.542Z" fill="#E52E04"/>
<path d="M44.8017 92.864C43.0021 93.1865 41.9958 94.1911 41.7077 95.9883C41.3841 94.1993 40.4093 93.1332 38.5674 92.8626C40.3697 92.5291 41.4237 91.5465 41.6886 89.6904C41.9917 91.5014 42.983 92.577 44.8017 92.8626V92.864Z" fill="white"/>
<path d="M36.4997 47.9997C40.0521 47.9997 42.9319 45.117 42.9319 41.561C42.9319 38.005 40.0521 35.1223 36.4997 35.1223C32.9472 35.1223 30.0674 38.005 30.0674 41.561C30.0674 45.117 32.9472 47.9997 36.4997 47.9997Z" fill="#B52000"/>
<path d="M103.954 47.9997C107.506 47.9997 110.386 45.117 110.386 41.561C110.386 38.005 107.506 35.1223 103.954 35.1223C100.401 35.1223 97.5215 38.005 97.5215 41.561C97.5215 45.117 100.401 47.9997 103.954 47.9997Z" fill="#B52000"/>
<path d="M70.492 80.2191C70.2312 80.2191 69.9718 80.2164 69.711 80.2109C60.7364 80.0182 52.2151 76.5426 45.7172 70.4223C38.5504 63.672 34.3041 54.2101 33.4371 43.0562C33.306 41.3628 34.5703 39.884 36.262 39.7515C37.9524 39.6189 39.4311 40.8859 39.5635 42.5792C41.2224 63.9153 55.9671 73.7654 69.8434 74.0633C83.6951 74.3599 98.8644 64.801 101.528 42.7774C101.732 41.0909 103.265 39.8895 104.947 40.0945C106.632 40.2982 107.832 41.8316 107.627 43.5168C106.224 55.1245 101.546 64.7381 94.102 71.3175C87.5878 77.0756 79.2317 80.2205 70.4933 80.2205L70.492 80.2191Z" fill="white"/>
<path d="M27.4739 92.8394H25.0203L19.4072 108.308H21.5167L23.2371 103.371H29.1697L30.9678 108.308H33.1497L27.4739 92.8394ZM23.6795 101.761L25.3725 97.0954C25.6934 96.1851 25.9296 95.3651 26.1563 94.5505H26.2013C26.4348 95.3487 26.6669 96.1523 27.0246 97.1364L28.73 101.761H23.6795Z" fill="white"/>
<path d="M35.3291 91.8745V108.308H37.3403V91.8745H35.3291Z" fill="white"/>
<path d="M40.8477 97.209V108.308H42.8588V97.209H40.8477Z" fill="white"/>
<path d="M48.4047 106.6V101.089H54.8548V99.3805H48.4047V94.5464H55.2303V92.8394H46.3936V108.308H55.5921V106.6H48.4047Z" fill="white"/>
<path d="M63.1634 102.535L67.1721 97.209H64.9356L63.2767 99.557C62.8575 100.158 62.4684 100.712 62.0738 101.347H62.0233C61.6273 100.739 61.2573 100.202 60.8095 99.5857L59.0973 97.209H56.8253L60.8381 102.613L56.6191 108.308H58.9007L60.617 105.818C61.0907 105.128 61.4949 104.551 61.8909 103.875H61.9414C62.3537 104.513 62.7579 105.152 63.2303 105.818L64.9971 108.308H67.3114L63.1634 102.535Z" fill="white"/>
<path d="M88.2272 96.9329C86.8263 96.9329 85.5579 97.8991 85.009 99.5338H84.9366L84.8656 97.2089H83.1016C83.1671 98.3051 83.1903 99.4272 83.1903 100.862V108.308H85.2015V102.45C85.2015 102.139 85.2315 101.811 85.2848 101.531C85.5783 99.9438 86.5983 98.8586 88.0633 98.8586C88.3733 98.8586 88.5958 98.8791 88.8279 98.9324V97.0012C88.6272 96.9493 88.4566 96.9329 88.2272 96.9329Z" fill="white"/>
<path d="M100.263 102.263C100.263 100.373 99.3387 96.9329 95.4228 96.9329C91.9752 96.9329 89.9258 99.6855 89.9258 102.971C89.9258 106.257 92.1131 108.583 95.6358 108.583C97.6128 108.583 98.8908 108.133 99.5981 107.819L99.2376 106.337C98.4211 106.672 97.4913 106.956 95.8856 106.956C93.6942 106.956 91.9015 105.695 91.8551 103.193H100.185C100.236 102.989 100.263 102.683 100.263 102.263ZM98.3133 101.69H91.881C92.0626 100.325 93.002 98.4035 95.2712 98.4035C97.905 98.4035 98.3283 100.736 98.3133 101.69Z" fill="white"/>
<path d="M106.672 101.906C105.158 101.403 104.413 100.998 104.413 100.02C104.413 99.1442 105.086 98.4609 106.311 98.4609C107.451 98.4609 108.344 98.9064 108.756 99.1647L109.249 97.6531C108.604 97.2445 107.567 96.9329 106.397 96.9329C103.887 96.9329 102.456 98.4663 102.456 100.247C102.449 101.598 103.412 102.733 105.519 103.391C107.055 103.879 107.707 104.361 107.707 105.377C107.707 106.28 107.037 107.041 105.468 107.041C104.409 107.041 103.267 106.601 102.613 106.18L102.123 107.766C102.971 108.248 104.122 108.583 105.42 108.583C108.198 108.583 109.671 107.103 109.671 105.222C109.664 103.529 108.715 102.58 106.672 101.906Z" fill="white"/>
<path d="M116.21 101.906C114.695 101.403 113.95 100.998 113.95 100.02C113.95 99.1442 114.623 98.4609 115.848 98.4609C116.988 98.4609 117.881 98.9064 118.293 99.1647L118.786 97.6531C118.142 97.2445 117.104 96.9329 115.932 96.9329C113.424 96.9329 111.993 98.4663 111.993 100.247C111.986 101.598 112.949 102.733 115.056 103.391C116.592 103.879 117.245 104.361 117.245 105.377C117.245 106.28 116.574 107.041 115.005 107.041C113.946 107.041 112.804 106.601 112.15 106.18L111.66 107.766C112.508 108.248 113.659 108.583 114.958 108.583C117.735 108.583 119.208 107.103 119.208 105.222C119.201 103.529 118.252 102.58 116.21 101.906Z" fill="white"/>
<path d="M75.5484 96.9329C74.8617 96.9329 74.2445 97.0381 73.6956 97.2308C70.4884 97.9278 69.3701 100.779 69.3701 103.343V112.898H71.3813V106.679H71.425C72.176 107.941 73.6219 108.583 75.1907 108.583C77.9692 108.583 80.5621 106.501 80.5621 102.542C80.5621 99.2686 78.3761 96.9329 75.5484 96.9329ZM74.8166 106.967C73.3147 106.967 72.1063 106.026 71.6121 104.859C71.5533 104.719 71.5042 104.577 71.466 104.432C71.4127 104.178 71.3813 103.914 71.3813 103.644V102.031C71.3813 101.774 71.4591 101.476 71.5274 101.219C71.8264 100.112 72.5487 99.3164 73.4348 98.8996C73.8977 98.6823 74.407 98.5688 74.9231 98.5688C77.2128 98.5688 78.5236 100.466 78.5236 102.65C78.5236 105.297 77.0913 106.967 74.8166 106.967Z" fill="white"/>
</g>
<defs>
<clipPath id="clip0_571_537">
<rect width="140" height="140" rx="30" fill="white"/>
</clipPath>
</defs>
</svg>
