<svg width="140" height="140" viewBox="0 0 140 140" fill="none" xmlns="http://www.w3.org/2000/svg">
<g clip-path="url(#clip0_570_513)">
<rect width="140" height="140" rx="30" fill="white"/>
<path d="M142.907 96.5307C126.426 92.7514 110.846 86.7946 95.045 80.9774C100.467 71.3344 104.459 61.2931 107.079 50.4379H78.57C78.57 47.115 78.5468 43.9811 78.6105 40.8501C78.6163 40.571 79.1345 40.2047 79.4877 40.0564C79.8177 39.9198 80.2461 40.0215 80.6312 40.0215C91.0385 40.0215 101.449 40.0012 111.856 40.0477C113.144 40.0535 113.7 39.7599 113.567 38.3732C113.448 37.1376 113.541 35.8818 113.541 34.4136C112.777 34.4136 112.169 34.4136 111.561 34.4136C101.2 34.4136 90.8416 34.4136 80.4806 34.4136C79.1991 34.4136 78.5574 33.7508 78.5555 32.4252C78.5555 27.4452 78.5555 22.4653 78.5555 17.3429C78.0634 17.2993 77.6523 17.2295 77.2412 17.2295C73.1449 17.2208 69.0485 17.215 64.9551 17.2295C62.7057 17.2382 61.8952 18.0348 61.8807 20.2936C61.8575 24.2619 61.8807 28.2301 61.8691 32.1984C61.8604 34.6084 62.1615 34.4107 59.7355 34.4107C49.3283 34.4166 38.9181 34.4107 28.5108 34.4107C27.8971 34.4107 27.2862 34.4107 26.5915 34.4107V40.0215C27.2399 40.0215 27.845 40.0215 28.4529 40.0215C39.0049 40.0215 49.557 40.0477 60.1119 39.9925C61.4928 39.9867 61.9386 40.3559 61.8836 41.7629C61.7765 44.5625 61.8517 47.365 61.8517 50.3303C61.157 50.3739 60.5577 50.4408 59.9556 50.4408C51.4271 50.4466 42.8986 50.4786 34.3701 50.4146C32.9429 50.403 32.5058 50.8449 32.6303 52.2228C32.7403 53.4148 32.6534 54.6271 32.6534 56.0196H89.2523C89.0873 56.6999 89.0294 57.1708 88.8586 57.5982C86.5339 63.3223 84.1717 69.0291 81.8702 74.7649C81.3781 75.9946 80.7151 76.076 79.5543 75.6922C70.0328 72.5583 60.4101 69.7791 50.4833 68.247C44.3258 67.2964 38.1249 66.6714 31.95 67.9738C23.7949 69.6948 16.7689 73.2531 12.3629 80.8059C4.76945 93.8212 9.5403 109.04 23.352 115.555C33.0269 120.119 43.0376 120.087 53.1148 117.203C65.0622 113.782 74.6502 106.648 82.9645 97.6005C83.3235 97.208 83.6708 96.8069 84.0211 96.4086C86.2271 93.9026 86.1981 93.9666 89.1944 95.2806C106.668 102.947 124.151 110.593 141.648 118.206C142.632 118.634 143.014 119.116 143 120.221C142.846 132.576 132.482 142.978 120.193 142.987C87.0898 143.004 53.9862 143.004 20.8826 142.987C8.48365 142.981 -1.9468 132.611 -1.96417 120.166C-2.01338 87.0592 -2.00759 53.9584 -1.97285 20.8576C-1.96127 9.66219 6.69747 -0.207582 17.704 -1.73093C18.8909 -1.89373 20.0981 -1.98966 21.2966 -1.98966C54.1107 -2.00129 86.9248 -2.00129 119.739 -1.99838C132.589 -1.99838 142.959 8.32199 142.974 21.189C143.003 45.7254 142.982 70.2588 142.979 94.7951C142.979 95.2661 142.939 95.737 142.904 96.5307H142.907Z" fill="#01ADEF"/>
<path d="M74 88.0752C70.6073 92.4669 67.0049 96.2154 62.9389 99.5244C56.8562 104.472 50.1446 108.238 42.2636 109.475C34.5333 110.688 27.0362 109.949 20.2773 105.665C16.0046 102.956 13.2231 99.1257 13.0135 93.9948C12.7772 88.1742 15.665 83.832 20.605 80.942C25.9909 77.7872 31.9909 76.8763 38.1917 77.0131C46.8493 77.2052 54.9074 79.7721 62.7677 83.0724C66.4616 84.6236 70.0905 86.329 74 88.0781V88.0752Z" fill="#01ADEF"/>
</g>
<defs>
<clipPath id="clip0_570_513">
<rect width="140" height="140" rx="30" fill="white"/>
</clipPath>
</defs>
</svg>
