<svg width="140" height="140" viewBox="0 0 140 140" fill="none" xmlns="http://www.w3.org/2000/svg">
<rect width="140" height="140" rx="30" fill="white"/>
<g clip-path="url(#clip0_610_4259)">
<path d="M35.5001 34.7067C36.347 32.5071 37.8653 31.2569 40.2766 31.2197C42.7199 31.1811 44.1588 32.534 45.0787 34.6758C45.1312 34.5949 45.1658 34.5525 45.1863 34.505C46.1588 32.2925 48.0333 31.1117 50.4471 31.2338C52.1063 31.3173 53.4837 31.979 54.4702 33.3563C54.9661 34.0488 55.2121 34.848 55.2697 35.6806C55.3402 36.72 55.3235 37.7658 55.344 38.8091C55.3466 38.908 55.3427 39.0082 55.3427 39.1072C55.3427 43.0464 55.3427 46.9857 55.3427 50.9249C55.3427 51.5699 55.1211 51.7922 54.4805 51.7934C53.3555 51.7934 52.2293 51.7934 51.1044 51.7934C50.5611 51.7934 50.3164 51.5468 50.3164 51.0033C50.3164 47.5703 50.3216 44.1372 50.3126 40.7042C50.31 39.7354 50.3395 38.759 50.228 37.7992C50.0448 36.2138 48.5406 35.4609 47.0992 36.1675C46.2267 36.5953 45.7642 37.3251 45.6578 38.263C45.5656 39.084 45.5092 39.914 45.5066 40.7402C45.4925 44.1488 45.5041 47.5561 45.5066 50.9647C45.5066 51.5558 45.267 51.7934 44.6777 51.7934C43.5438 51.7934 42.4099 51.7934 41.276 51.7934C40.7225 51.7934 40.4854 51.5558 40.4842 51.011C40.4842 50.5549 40.4842 50.0988 40.4842 49.6427C40.4803 46.8148 40.4765 43.9869 40.4701 41.1603C40.4675 40.2982 40.4726 39.4361 40.4432 38.5753C40.424 38.0009 40.3035 37.4395 40.0293 36.9243C39.727 36.3577 39.2593 36.0287 38.6251 35.935C37.1965 35.723 36.1818 36.4502 35.8819 37.9829C35.741 38.7012 35.6795 39.4464 35.6757 40.18C35.6552 43.7621 35.6667 47.3454 35.6667 50.9275C35.6667 51.5712 35.4438 51.7947 34.8006 51.7947C33.6833 51.7947 32.5661 51.7947 31.4488 51.7947C30.8761 51.7947 30.6455 51.5647 30.6455 51.0007C30.6455 44.8143 30.6455 38.6279 30.6455 32.4415C30.6455 31.8724 30.8915 31.6231 31.4617 31.6218C32.5212 31.6193 33.5808 31.6193 34.6391 31.6218C35.1747 31.6218 35.4233 31.8775 35.4233 32.4184C35.4233 33.0814 35.4233 33.7456 35.4233 34.4086V34.6707C35.4489 34.6835 35.4745 34.6964 35.5001 34.708V34.7067Z" fill="black"/>
<path d="M21.9568 49.4063C21.7326 49.6183 21.5212 49.8123 21.3162 50.0127C19.3815 51.8976 17.042 52.3897 14.4769 51.8976C12.5089 51.5198 11.2097 50.2954 10.6857 48.3502C10.122 46.2585 10.3282 44.2478 11.6082 42.44C12.4679 41.2246 13.6838 40.491 15.0791 40.0336C16.3437 39.6173 17.6544 39.4323 18.9702 39.2871C19.6275 39.2139 20.2861 39.1496 20.9446 39.0802C21.033 39.0712 21.1214 39.0507 21.2342 39.0301C21.2137 38.1847 21.3136 37.3457 21.0779 36.526C20.8806 35.8425 20.4475 35.3633 19.7761 35.1281C18.8716 34.8108 17.9785 34.8789 17.1278 35.308C16.4334 35.6588 16.0041 36.2421 15.8017 36.9937C15.7569 37.1607 15.712 37.3329 15.6313 37.4832C15.4929 37.7376 15.2751 37.8468 14.9702 37.8096C13.8786 37.6785 12.7844 37.5629 11.6915 37.4434C11.1751 37.3869 10.9432 37.0862 11.047 36.5748C11.4775 34.4588 12.6358 32.8656 14.6089 31.9945C17.4558 30.7379 20.3732 30.6441 23.2585 31.875C25.0574 32.642 26.0555 34.072 26.2797 36.0211C26.3476 36.6121 26.3758 37.2108 26.3784 37.8057C26.3899 40.1107 26.4014 42.4169 26.3758 44.7219C26.363 45.9013 26.6833 46.942 27.4136 47.8632C27.5571 48.0444 27.7006 48.2294 27.8211 48.4273C28.0594 48.8153 27.9979 49.1172 27.6558 49.4127C26.8025 50.1477 25.9517 50.8851 25.101 51.6239C24.6308 52.0325 24.304 52.0338 23.8325 51.6432C23.142 51.0702 22.6038 50.3699 22.1195 49.6234C22.076 49.5554 22.0234 49.4937 21.9606 49.4076L21.9568 49.4063ZM21.2944 43.3934C21.2739 43.3908 21.2534 43.3882 21.2329 43.3857C21.2329 42.9797 21.2291 42.5737 21.2355 42.1677C21.238 42.025 21.1817 41.9762 21.0458 41.9814C20.2015 42.0096 19.361 42.0546 18.5384 42.2704C16.6127 42.7767 15.6467 44.0525 15.7684 45.9502C15.8132 46.653 16.0016 47.3133 16.5333 47.8119C17.2303 48.4645 18.3437 48.5506 19.238 48.0354C20.2207 47.4688 20.7601 46.5669 21.0125 45.5043C21.1765 44.8169 21.206 44.0987 21.2957 43.3934H21.2944Z" fill="black"/>
<path d="M69.4315 39.0365C69.3739 38.2271 69.3752 37.4356 69.2458 36.666C69.1048 35.8296 68.5488 35.2913 67.7262 35.0626C66.9408 34.8441 66.1657 34.902 65.4225 35.2334C64.6307 35.5868 64.1477 36.2073 63.9286 37.045C63.8812 37.2262 63.812 37.4099 63.7146 37.568C63.5942 37.7645 63.3969 37.8416 63.1573 37.8146C62.0567 37.6887 60.9548 37.5667 59.8543 37.4446C59.3008 37.3829 59.0804 37.0862 59.1944 36.5414C59.6569 34.3366 60.9074 32.7396 62.9831 31.8865C65.7031 30.7687 68.4796 30.6852 71.2266 31.7953C73.2151 32.5983 74.2721 34.1388 74.4502 36.2767C74.495 36.8125 74.5142 37.3521 74.5155 37.8904C74.5219 40.1466 74.536 42.4014 74.5117 44.6576C74.4989 45.8692 74.8153 46.9458 75.5764 47.8902C75.716 48.0636 75.8519 48.2448 75.9684 48.4349C76.1978 48.8088 76.1376 49.1133 75.8083 49.3973C74.9755 50.1168 74.144 50.8414 73.3112 51.5622C73.2112 51.6483 73.11 51.7369 72.9998 51.8076C72.7038 51.9964 72.3784 51.9695 72.1029 51.7485C71.397 51.1844 70.8281 50.4984 70.3412 49.7403C70.2746 49.6362 70.2016 49.5373 70.1106 49.405C69.9376 49.5669 69.7762 49.7146 69.6173 49.8649C68.6936 50.7412 67.6891 51.4928 66.4245 51.7947C65.0459 52.1249 63.6557 52.2046 62.2758 51.8204C60.5987 51.354 59.4353 50.2941 58.9177 48.6264C58.2501 46.4756 58.409 44.3929 59.7146 42.4952C60.5794 41.2387 61.8235 40.4871 63.2534 40.022C64.6717 39.5607 66.1426 39.3873 67.6147 39.2305C68.1964 39.1688 68.7781 39.1059 69.4328 39.0352L69.4315 39.0365ZM69.379 43.3561C69.379 43.0991 69.379 42.8421 69.379 42.5852C69.379 41.989 69.379 41.9839 68.7884 42.0006C67.7403 42.0301 66.7089 42.156 65.7467 42.6134C64.814 43.058 64.19 43.7698 64.0029 44.7951C63.9158 45.2691 63.9171 45.7677 63.9491 46.252C63.985 46.7981 64.1938 47.303 64.5744 47.7103C65.2867 48.4709 66.4808 48.584 67.4482 47.9968C68.1644 47.5625 68.6205 46.9176 68.9447 46.1608C69.3278 45.2627 69.379 44.3145 69.3777 43.3573L69.379 43.3561Z" fill="black"/>
<path d="M118.822 35.0099C118.916 34.8005 119.005 34.5885 119.103 34.3816C119.547 33.4399 120.106 32.5855 120.986 31.9919C121.987 31.3161 123.115 31.1529 124.285 31.2402C126.125 31.3777 127.52 32.2257 128.353 33.9088C128.699 34.6078 128.853 35.3697 128.918 36.1393C129 37.0875 129.062 38.0408 129.066 38.9915C129.081 42.9719 129.072 46.951 129.072 50.9314C129.072 51.5635 128.839 51.7935 128.201 51.7935C127.076 51.7935 125.95 51.7935 124.825 51.7935C124.265 51.7935 124.03 51.5545 124.03 50.9879C124.03 47.199 124.039 43.4087 124.021 39.6198C124.019 38.9607 123.959 38.2913 123.824 37.6476C123.6 36.5748 122.982 35.9966 122.088 35.8861C121.103 35.7654 120.215 36.2292 119.723 37.1453C119.305 37.9252 119.118 38.7718 119.059 39.6494C119.031 40.0631 119.014 40.4768 119.014 40.8918C119.01 44.2413 119.013 47.5908 119.012 50.9416C119.012 51.5673 118.785 51.7935 118.158 51.7947C117.033 51.7947 115.907 51.7947 114.782 51.7947C114.239 51.7947 113.994 51.5468 113.994 51.0033C113.992 44.8182 113.988 38.6318 113.985 32.4467C113.985 31.8762 114.231 31.6231 114.798 31.6218C115.857 31.6193 116.916 31.6193 117.975 31.6218C118.498 31.6218 118.748 31.8775 118.748 32.3992C118.748 33.1867 118.748 33.9743 118.748 34.7619C118.748 34.8416 118.754 34.9212 118.758 34.9996C118.778 35.0035 118.799 35.0073 118.819 35.0112L118.822 35.0099Z" fill="black"/>
<path d="M111.245 41.6909C111.226 43.8764 110.872 45.8704 109.906 47.718C108.754 49.9202 107.05 51.4722 104.575 52.0067C101.259 52.7223 97.9471 51.512 96.1021 48.1856C95.3731 46.8713 94.9528 45.458 94.7452 43.9753C94.4326 41.7551 94.5377 39.5581 95.1719 37.4022C95.6447 35.7949 96.4147 34.3482 97.6549 33.1918C99.1988 31.7528 101.054 31.149 103.135 31.2299C106.408 31.3558 108.654 33.0287 110.041 35.9388C110.767 37.4626 111.093 39.0904 111.2 40.7671C111.222 41.114 111.235 41.4622 111.246 41.6909H111.245ZM99.9304 41.4031C100.01 42.4836 100.066 43.568 100.178 44.6447C100.267 45.5132 100.486 46.3522 100.92 47.127C101.863 48.8126 103.98 48.5621 104.829 47.2644C105.362 46.4486 105.578 45.5351 105.686 44.5933C105.915 42.5941 105.902 40.5898 105.631 38.5958C105.536 37.8956 105.363 37.1928 105.123 36.5285C104.816 35.6754 104.166 35.1833 103.241 35.0895C102.239 34.988 101.437 35.3066 100.882 36.1752C100.571 36.6634 100.389 37.203 100.266 37.7645C100.006 38.9632 99.983 40.18 99.9279 41.4018L99.9304 41.4031Z" fill="black"/>
<path d="M63.0452 66.5869C61.3834 66.7437 59.7178 66.8259 58.0496 66.7861C56.835 66.7565 55.6191 66.7205 54.4083 66.6293C51.76 66.4302 49.1552 65.9574 46.5851 65.2892C44.5325 64.756 42.5299 64.079 40.5709 63.2657C38.3198 62.3303 36.1609 61.2189 34.0853 59.938C32.5824 59.0116 31.1397 57.9992 29.7547 56.9084C28.9424 56.2685 28.1736 55.5735 27.3908 54.8964C27.1525 54.6908 27.0897 54.3914 27.2165 54.1833C27.3408 53.9764 27.6355 53.8993 27.9289 54.0137C28.0826 54.0728 28.23 54.1525 28.3722 54.236C30.4786 55.4784 32.6669 56.5653 34.9322 57.475C36.7797 58.2163 38.6567 58.8986 40.5491 59.5153C43.177 60.3723 45.8701 60.9825 48.5953 61.4502C49.2795 61.5671 49.9611 61.6995 50.6492 61.7868C51.6139 61.9089 52.5838 61.9988 53.5525 62.0978C55.7921 62.3277 58.0394 62.428 60.2879 62.3663C61.7409 62.3265 63.1912 62.2095 64.6403 62.0965C65.6025 62.022 66.5648 61.9282 67.518 61.7843C68.7185 61.6031 69.9101 61.3693 71.1042 61.147C73.4002 60.7204 75.6577 60.132 77.8704 59.3945C79.595 58.8202 81.2837 58.1367 82.9928 57.5148C83.2043 57.4377 83.4426 57.3992 83.6668 57.4069C84.046 57.4185 84.3317 57.6125 84.4394 57.9941C84.5457 58.3731 84.3971 58.6879 84.1075 58.9191C83.7731 59.1889 83.4182 59.4356 83.0633 59.6785C81.0595 61.0468 78.9223 62.171 76.693 63.1153C74.1356 64.1984 71.5001 65.0554 68.7826 65.6233C67.1029 65.9741 65.4027 66.2259 63.7101 66.5175C63.4911 66.5548 63.2668 66.5638 63.0452 66.5869Z" fill="#F7981F"/>
<path d="M85.3213 45.1805C85.9517 45.2075 86.5462 45.2152 87.1381 45.2614C88.8793 45.3976 90.5475 45.8011 92.0952 46.6439C92.5847 46.9111 92.8076 47.3133 92.8076 47.8581C92.8076 48.7459 92.8101 49.6324 92.8076 50.5202C92.805 51.1729 92.363 51.4363 91.7775 51.1587C87.6301 49.1904 83.4827 49.1673 79.3392 51.169C78.7485 51.4543 78.3231 51.1947 78.3219 50.5343C78.3206 49.581 78.3219 48.6277 78.3219 47.6743C78.3219 47.0011 78.5064 46.3959 78.8997 45.8345C81.2175 42.5222 83.5211 39.201 85.8299 35.8823C85.8748 35.8167 85.9145 35.7474 85.9863 35.6304H85.6557C83.7197 35.6304 81.7838 35.6304 79.8465 35.6304C79.2367 35.6304 79.006 35.4005 79.006 34.7915C79.006 33.9795 79.0048 33.1662 79.006 32.3542C79.006 31.8133 79.2418 31.573 79.7722 31.573C83.7441 31.573 87.7159 31.573 91.6878 31.573C92.1875 31.573 92.4322 31.8223 92.4335 32.322C92.4335 32.9773 92.4168 33.6326 92.4399 34.2865C92.454 34.6874 92.3592 35.042 92.1375 35.3658C91.5392 36.2407 90.937 37.1144 90.3309 37.9829C88.6948 40.3265 87.0561 42.6674 85.4187 45.0109C85.3866 45.0559 85.3636 45.1085 85.3226 45.1818L85.3213 45.1805Z" fill="black"/>
<path d="M83.8124 54.9888C82.5542 55.1006 81.296 55.2073 80.0379 55.3242C79.6279 55.3627 79.2191 55.4449 78.8091 55.4629C78.6618 55.4694 78.4478 55.3858 78.3774 55.2715C78.3184 55.1777 78.3761 54.9207 78.4696 54.8385C78.7592 54.5841 79.0744 54.3477 79.4101 54.1588C80.763 53.3982 82.2365 52.9807 83.765 52.8124C84.6888 52.7109 85.6292 52.7224 86.5607 52.743C87.3333 52.7597 88.1084 52.8342 88.8515 53.0847C88.8823 53.095 88.9156 53.1014 88.9463 53.113C89.8932 53.465 89.9765 53.492 90.0111 54.5893C90.0495 55.8214 89.7984 57.0253 89.4383 58.206C88.9797 59.7067 88.3583 61.1341 87.4037 62.3842C86.9502 62.9778 86.3864 63.4879 85.8701 64.0339C85.8201 64.0866 85.7522 64.1265 85.6869 64.1611C85.51 64.2549 85.3204 64.305 85.1539 64.1611C84.9924 64.0224 85.0565 63.8412 85.1193 63.6768C85.4562 62.7954 85.8188 61.9217 86.1315 61.0313C86.553 59.8287 86.9719 58.6197 87.1206 57.3439C87.1616 56.9944 87.1603 56.6334 87.127 56.2827C87.0898 55.8882 86.8912 55.5567 86.494 55.436C86.0302 55.2946 85.5562 55.1751 85.0783 55.1019C84.6644 55.0377 84.2378 55.0505 83.8175 55.0287C83.8162 55.0158 83.8137 55.003 83.8124 54.9901V54.9888Z" fill="#F7981F"/>
<path d="M140 97.9788C140 97.9788 139.999 97.9749 139.996 97.9749H43.0675L43.0637 97.9724L39.6927 85.5097C39.0931 83.2985 37.0905 81.7618 34.8048 81.7618H14.8751C12.1947 81.7618 9.9474 83.9614 9.99993 86.6493C10.0512 89.2498 12.1691 91.3414 14.7751 91.3414H31.3019L31.307 91.3453L34.4025 102.56L44.564 139.996L44.5691 140H54.1554L54.1592 139.995L52.5897 134.053L53.0151 133.629C53.2739 133.372 53.6916 133.376 53.9453 133.638L60.1145 140H68.9461L74.3068 134.638C74.9935 133.951 76.1056 133.95 76.7937 134.637L82.1608 139.999L82.1634 140H90.7541C90.7541 140 90.7554 140 90.7566 139.999L96.02 134.674C96.7606 133.925 97.9675 133.92 98.7144 134.663L104.08 140L112.389 139.694L117.656 134.461C118.365 133.757 119.506 133.757 120.216 134.461L125.801 140.001H134.045L139.737 134.382V125.196L133.282 118.942L139.999 112.271L139.995 105.447C139.995 105.447 139.999 105.446 139.999 105.444V97.9801L140 97.9788ZM103.49 105.446H113.391C113.391 105.446 113.392 105.446 113.394 105.447L114.97 107.028C115.4 107.459 115.4 108.158 114.97 108.59L108.93 114.647C108.346 115.233 107.4 115.235 106.812 114.653L101.853 109.746C101.115 109.017 101.113 107.823 101.847 107.088L103.49 105.445V105.446ZM79.5419 107.466L81.5996 105.446H91.0616L92.7682 107.231C93.3537 107.842 93.3409 108.811 92.74 109.406L87.5843 114.513C86.8975 115.193 85.7944 115.193 85.1064 114.514L79.5394 109.014C79.1089 108.589 79.1102 107.891 79.5419 107.466ZM57.4277 107.475L57.5789 107.323L59.4572 105.447L59.4597 105.446H69.3407L71.0101 107.106C71.529 107.623 71.5303 108.463 71.014 108.981L65.3663 114.644C64.8781 115.134 64.0863 115.134 63.5981 114.644L57.4123 108.438C57.1778 108.086 57.2048 107.768 57.4277 107.475ZM46.7037 111.742L45.0419 105.451L45.0458 105.446H47.5749C47.5749 105.446 47.5749 105.447 47.5775 105.447L49.6544 107.522C49.9875 107.854 49.9901 108.394 49.6621 108.729L46.7114 111.744L46.7037 111.742ZM52.7486 125.749L49.5442 122.512L48.0477 116.841L48.049 116.837L52.5013 112.392C53.0625 111.832 53.9696 111.832 54.5295 112.392L60.2644 118.122C60.7089 118.565 60.7115 119.287 60.2695 119.733L57.8633 122.168L57.7634 122.268L54.3245 125.749C53.8902 126.187 53.1829 126.188 52.7486 125.749ZM70.8487 131.094L65.9121 135.984C65.0665 136.823 63.7032 136.816 62.864 135.97L57.5776 130.629C57.1548 130.201 57.1573 129.509 57.584 129.085L62.2042 124.49L62.2336 124.46L63.4188 123.282C63.4636 123.237 63.5097 123.197 63.5584 123.16C64.1171 122.731 64.9191 122.772 65.4303 123.283L70.8538 128.701C71.5149 129.362 71.5124 130.436 70.8487 131.094ZM76.6796 125.317C76.0006 125.989 74.9077 125.987 74.2325 125.309L68.9166 119.976C68.34 119.398 68.3452 118.46 68.9268 117.888L74.3901 112.524C74.9679 111.958 75.8904 111.96 76.4631 112.531L81.8904 117.928C82.508 118.542 82.5067 119.543 81.8879 120.156L76.6796 125.317ZM92.6683 130.954L87.1192 136.517C86.6464 136.991 85.8802 136.991 85.4075 136.517L80.1864 131.28C79.4907 130.582 79.492 129.452 80.1877 128.755L85.2755 123.667C85.9328 123.01 86.9975 123.008 87.6573 123.664L92.6644 128.644C93.3038 129.28 93.305 130.315 92.6683 130.954ZM98.4082 125.196C97.7253 125.881 96.617 125.886 95.929 125.205L90.9322 120.27C90.3056 119.651 90.3018 118.639 90.9245 118.016L95.8214 113.118C96.6158 112.324 97.8996 112.321 98.6965 113.111L103.322 117.698C104.033 118.404 104.037 119.555 103.328 120.264L98.4082 125.196ZM109.668 135.988C108.894 136.767 107.637 136.774 106.855 136.002L101.883 131.089C101.236 130.45 101.23 129.405 101.869 128.759L106.811 123.761C107.528 123.035 108.695 123.03 109.419 123.748L114.544 128.831C115.164 129.445 115.168 130.447 114.553 131.067L109.669 135.986L109.668 135.988ZM112.396 118.109L117.577 112.87C118.367 112.071 119.654 112.066 120.451 112.858L125.302 117.681C126.007 118.383 126.011 119.526 125.309 120.233L120.244 125.335C119.521 126.065 118.343 126.07 117.613 125.347L112.407 120.195C111.829 119.623 111.824 118.689 112.396 118.111V118.109ZM136.229 131.501L131.525 136.196C130.711 137.008 129.398 137.01 128.58 136.202L123.51 131.184C122.808 130.489 122.807 129.351 123.508 128.654L128.666 123.53C129.363 122.837 130.485 122.839 131.181 123.53L136.227 128.548C137.044 129.362 137.045 130.686 136.229 131.501ZM128.61 114.412L123.305 109.271C122.695 108.68 122.685 107.704 123.282 107.1L124.913 105.449H124.916L134.766 105.447L136.213 106.934C136.844 107.583 136.839 108.62 136.201 109.262L131.113 114.387C130.425 115.08 129.312 115.09 128.611 114.412H128.61Z" fill="url(#paint0_linear_610_4259)"/>
<path d="M63.5582 123.16L62.2334 124.46L63.4185 123.282C63.4634 123.237 63.5095 123.197 63.5582 123.16Z" fill="black"/>
</g>
<defs>
<linearGradient id="paint0_linear_610_4259" x1="74.9995" y1="81.7618" x2="74.9995" y2="140.001" gradientUnits="userSpaceOnUse">
<stop stop-color="#2999D5"/>
<stop offset="1" stop-color="#0F71B1"/>
</linearGradient>
<clipPath id="clip0_610_4259">
<rect width="130" height="109" fill="white" transform="translate(10 31)"/>
</clipPath>
</defs>
</svg>
