<svg width="140" height="140" viewBox="0 0 140 140" fill="none" xmlns="http://www.w3.org/2000/svg">
<rect width="140" height="140" rx="30" fill="white"/>
<g clip-path="url(#clip0_3610_826)">
<path d="M88.9328 77.2103C83.6988 68.4504 78.4351 59.6256 73.134 50.8764C71.941 48.9075 70.6522 46.8248 69.424 44.8581C69.2921 44.6463 69.0994 44.1056 68.9866 43.9577C68.8887 43.8289 68.7216 43.9119 68.6844 43.8726C68.6301 43.8162 68.6844 43.5107 68.6195 43.3479C68.4769 42.9882 67.8734 42.1155 67.6233 41.6855C65.4948 38.0266 63.1907 34.4635 61.0558 30.8068C60.9345 30.3619 61.4006 29.7617 61.6295 29.3519C63.5898 25.8527 65.9269 22.5407 67.817 19.0021L68.115 19.2873C81.9205 42.1581 95.6621 65.0671 109.344 88.0135C109.592 88.6158 109.049 89.1235 108.493 89.1895L96.1038 89.132L95.8015 88.7968C93.507 84.9388 91.2348 81.065 88.9328 77.2124V77.2103Z" fill="#04AE43"/>
<path d="M37.5614 116.408C37.2006 116.303 36.6887 114.035 36.3662 113.642C34.1302 113.399 31.8368 113.608 29.5795 113.53C29.4518 113.526 29.3528 113.538 29.2655 113.642C28.9878 113.976 28.4493 116.407 28.0959 116.407H25.1203C25.0756 116.407 24.9841 116.302 25.0032 116.186C25.0564 115.864 25.381 115.142 25.5172 114.783C27.4116 109.808 29.6902 104.973 31.5664 99.9896C32.5381 98.5347 33.4757 99.0222 34.1238 100.383C36.4812 105.33 38.2595 110.793 40.4891 115.817C40.6062 115.952 40.62 116.406 40.4317 116.406C39.8357 116.406 37.9722 116.525 37.5603 116.406L37.5614 116.408ZM30.0648 111.197H35.4882L32.8819 104.177L32.6126 104.439L30.0648 111.196V111.197Z" fill="#114FFF"/>
<path d="M63.9878 116.142C63.9165 116.947 63.577 118.123 63.1577 118.82C61.9359 120.85 58.9113 121.178 56.7562 120.928C56.6189 120.862 55.6345 119.094 55.6036 118.88C55.5845 118.747 55.5951 118.684 55.6824 118.579C55.9357 118.277 58.1355 118.483 58.7123 118.416C60.3853 118.221 61.3133 117.015 61.1154 115.343C59.2827 116.878 56.0719 116.568 54.5862 114.696C52.877 112.543 53.059 107.386 55.1609 105.507C56.7094 104.121 59.6371 103.891 61.0643 105.561C61.3027 105.381 61.1377 104.891 61.2378 104.725C61.3293 104.575 63.3216 104.551 63.6132 104.606C63.7302 104.629 63.9878 104.789 63.9878 104.869V116.142ZM58.2174 106.862C56.3518 107.182 56.2124 109.767 56.3262 111.255C56.4114 112.369 56.9414 113.78 58.2004 113.952C60.0852 114.21 61.0515 113.305 61.2197 111.461C61.4198 109.279 61.175 106.356 58.2164 106.862H58.2174Z" fill="#114FFF"/>
<path d="M33.3309 78.0404L45.4368 78.0138C45.7848 78.0149 45.9636 78.2639 45.9104 78.5938L39.9559 89.2385C39.6867 89.3481 39.3291 89.3513 39.1609 89.0746C37.4113 85.6328 35.0114 82.308 33.3065 78.8716C33.1404 78.5363 32.8573 78.2511 33.3299 78.0404H33.3309Z" fill="#FA6D07"/>
<path d="M68.2405 111.517C68.3001 113.728 70.1679 114.601 72.1751 114.015C73.0392 113.763 73.2393 113.258 73.93 112.788L75.6658 114.333C74.3334 116.305 72.1474 116.714 69.8912 116.512C64.5274 116.031 63.9527 107.108 68.133 104.974C71.7377 103.133 75.8978 105.569 75.8978 109.654V111.356C75.8978 111.368 75.7499 111.515 75.7382 111.515H68.2416L68.2405 111.517ZM73.1329 109.496C73.1265 105.933 68.1054 105.874 68.2416 109.496H73.1329Z" fill="#114FFF"/>
<path d="M54.3127 42.3987C54.5042 42.338 54.6873 42.2987 54.8906 42.2838C58.6037 42.0134 62.6383 42.5009 66.3856 42.2838C66.6261 42.2774 66.7761 42.436 66.9166 42.6116L61.01 53.2956C60.4715 53.5318 60.3129 53.1093 60.0735 52.7432C58.0567 49.6505 56.454 46.0672 54.4659 42.9319L54.3137 42.3998L54.3127 42.3987Z" fill="#FA6D07"/>
<path d="M47.5813 78.5789C47.478 78.4204 47.0832 78.5066 47.5068 78.1799L59.5796 78.1192C60.0224 78.0915 60.0202 78.5225 59.8872 78.8631L54.0998 89.1321C53.7348 89.3045 53.4442 89.1118 53.2676 88.7915C51.4903 85.47 49.4245 82.2964 47.6739 78.9621C47.6121 78.845 47.6419 78.6705 47.5823 78.5789H47.5813Z" fill="#FA6D07"/>
<path d="M52.662 66.0027C52.8025 66.0421 53.0186 66.372 52.8738 66.5252L46.9736 77.0102H46.4404L40.1688 66.1602C40.1581 66.1272 40.4178 66.0027 40.4327 66.0027H52.662Z" fill="#FA6D07"/>
<path d="M61.723 78.1468L73.7224 78.1191L74.1503 78.3373L68.1362 89.1309C67.9712 89.2118 67.7669 89.2278 67.6041 89.1299C67.5413 89.0916 66.957 88.0731 66.8378 87.8751C64.9711 84.7633 63.3524 81.4864 61.458 78.3884L61.7241 78.1468H61.723Z" fill="#FA6D07"/>
<path d="M54.5766 66.0027H66.8059C66.8517 66.0027 67.0645 66.2315 67.0528 66.355C67.0443 66.4529 66.8549 66.8136 66.7921 66.9467C65.2042 70.2788 62.8192 73.5131 61.1654 76.8453C60.9759 77.1507 60.6109 77.1433 60.4289 76.8453C58.6899 73.5972 56.6668 70.4917 54.9299 67.2447C54.8522 67.0989 54.1626 66.0038 54.5755 66.0038L54.5766 66.0027Z" fill="#FA6D07"/>
<path d="M68.2937 66.0027H80.5231C80.5475 66.0027 80.7572 66.2145 80.771 66.2836C78.9395 69.5626 77.16 72.9139 75.2774 76.1769C75.0358 76.5952 74.6739 77.4711 74.1514 76.84L68.1799 66.3262L68.2937 66.0027Z" fill="#FA6D07"/>
<path d="M44.6865 104.604C44.9504 104.686 44.8195 105.425 44.8461 105.667L46.368 104.691C48.4337 103.946 50.9305 104.626 51.7776 106.766C51.8362 106.914 52.0777 107.553 52.0777 107.635V116.249C52.0777 116.261 51.9298 116.409 51.9181 116.409H49.4725C49.4607 116.409 49.3128 116.261 49.3128 116.249V108.699C49.3128 108.625 49.0436 107.871 48.9776 107.757C48.222 106.446 45.9306 106.6 45.2495 107.933C45.1814 108.065 44.9515 108.811 44.9515 108.911V116.249C44.9515 116.261 44.8036 116.409 44.7919 116.409H42.3462C42.3345 116.409 42.1866 116.261 42.1866 116.249V104.765C42.1866 104.753 42.3345 104.605 42.3462 104.605C42.8241 104.605 44.3715 104.508 44.6854 104.605L44.6865 104.604Z" fill="#114FFF"/>
<path d="M61.7007 54.0927H73.93C74.0705 54.0927 74.1599 54.4907 74.0322 54.6195L68.3288 64.7618C68.1 65.0853 67.8563 65.3609 67.5541 64.9342C65.9481 62.0256 64.2059 59.1904 62.5861 56.2914C62.4084 55.9732 61.5676 54.5428 61.557 54.3374C61.5496 54.2023 61.6113 54.1714 61.7007 54.0927Z" fill="#FA6D07"/>
<path d="M47.4514 54.0927H59.6807C59.718 54.0927 59.9457 54.3215 59.9287 54.4428C59.9149 54.5396 59.2359 55.7476 59.1135 55.9721C57.5171 58.9254 55.7473 61.7893 54.1881 64.7639C53.855 65.2183 53.5943 65.2226 53.2622 64.7639L47.3365 54.3098L47.4504 54.0927H47.4514Z" fill="#FA6D07"/>
<path d="M87.893 99.8502C90.5941 99.6076 93.3952 101.16 93.9507 103.937C94.2477 105.421 94.253 111.229 93.8858 112.649C92.4235 118.308 83.5253 117.662 82.9155 112.101C82.7207 110.324 82.7548 106.358 82.9123 104.546C83.1369 101.96 85.3931 100.074 87.893 99.8491V99.8502ZM85.823 102.301C85.1174 102.935 84.7013 104.048 84.6194 104.978C84.4682 106.674 84.4693 109.873 84.6141 111.573C84.9897 115.999 91.1773 116.188 92.2032 112.349C92.5363 111.1 92.53 105.452 92.2256 104.173C91.5679 101.409 87.826 100.5 85.823 102.3V102.301Z" fill="#FA6D07"/>
<path d="M108.384 111.197C107.881 111.281 108.171 112.675 108.307 113.082C109.076 115.39 112.209 115.622 113.758 113.911C114.116 113.515 114.053 113.103 114.608 113.268C116.279 113.765 115.51 114.63 114.556 115.453C112.298 117.401 107.979 116.879 106.823 113.929C106.298 112.589 106.24 109.171 106.554 107.77C107.59 103.154 115.201 103.099 115.763 108.498C115.848 109.317 115.875 110.399 115.775 111.197H108.385H108.384ZM108.171 109.815H114.02C114.335 109.815 114.096 108.549 114.042 108.305C113.656 106.562 112.403 105.79 110.629 105.998C109.282 106.156 108.458 107.03 108.165 108.321C108.104 108.588 107.883 109.725 108.171 109.815Z" fill="#FA6D07"/>
<path d="M80.3634 113.696C80.522 114.245 81.8523 113.847 81.8523 114.335V116.249C81.8523 116.261 81.7044 116.409 81.6927 116.409H79.247C78.551 116.409 77.4921 115.351 77.4921 114.654V100.405C77.4921 100.387 77.656 100.217 77.706 100.194C77.8944 100.106 79.7174 100.091 79.9877 100.142C80.1048 100.164 80.3624 100.325 80.3624 100.405V113.697L80.3634 113.696Z" fill="#114FFF"/>
<path d="M104.716 116.301C104.457 116.425 103.014 116.516 103.014 116.248V108.485C103.014 108.365 102.768 107.585 102.697 107.42C101.74 105.179 97.9045 105.679 97.5873 108.27L97.566 116.013C97.4202 116.682 96.3017 116.394 95.7823 116.302V104.871C95.7823 104.542 97.0861 104.545 97.3095 104.62C97.5884 104.714 97.5511 105.274 97.5937 105.508C97.6182 105.643 97.5171 105.699 97.748 105.668C99.7339 103.486 103.773 104.222 104.535 107.179C104.574 107.332 104.716 107.966 104.716 108.062V116.303V116.301Z" fill="#FA6D07"/>
</g>
<defs>
<clipPath id="clip0_3610_826">
<rect width="90.8381" height="102" fill="white" transform="translate(25 19)"/>
</clipPath>
</defs>
</svg>
