<svg width="140" height="140" viewBox="0 0 140 140" fill="none" xmlns="http://www.w3.org/2000/svg">
<rect width="140" height="140" rx="30" fill="white"/>
<path d="M58.0464 102.048C58.0464 98.873 59.0795 96.254 61.1457 94.1905C63.2914 92.127 65.9934 91.0952 69.2517 91.0952C72.5099 91.0952 75.1722 92.127 77.2384 94.1905C79.3841 96.254 80.457 98.873 80.457 102.048C80.457 105.143 79.3841 107.762 77.2384 109.905C75.1722 111.968 72.5099 113 69.2517 113C65.9934 113 63.2914 111.968 61.1457 109.905C59.0795 107.762 58.0464 105.143 58.0464 102.048ZM41 40.7381C44.4172 37.0873 48.5894 34.0714 53.5166 31.6905C58.4437 29.2302 63.6093 28 69.0132 28C74.1788 28 78.7086 28.9524 82.6027 30.8571C86.4967 32.7619 89.5166 35.4206 91.6623 38.8333C93.8874 42.1667 95 46.0556 95 50.5C95 53.2778 94.5629 55.8968 93.6887 58.3571C92.8146 60.8175 91.2649 63.2778 89.0397 65.7381C86.894 68.119 83.755 70.7381 79.6225 73.5952C78.9868 73.9921 78.4305 74.5079 77.9536 75.1429C77.4768 75.6984 77.1192 76.3333 76.8808 77.0476C76.7219 77.6825 76.6027 78.3968 76.5232 79.1905L76.2848 82.4048H62.0993L61.5033 75.8571C61.2649 73.0794 61.5828 70.6984 62.457 68.7143C63.3311 66.7302 64.7616 65.0635 66.7483 63.7143C69.1325 62.0476 70.9603 60.5397 72.2318 59.1905C73.5033 57.8413 74.3377 56.6111 74.7351 55.5C75.2119 54.3095 75.4503 53.2778 75.4503 52.4048C75.4503 51.2143 75.0927 50.1032 74.3775 49.0714C73.7417 47.9603 72.7483 47.0873 71.3974 46.4524C70.1258 45.8175 68.5364 45.5 66.6291 45.5C63.8477 45.5 61.2649 46.1746 58.8808 47.5238C56.4967 48.7937 54.0331 50.9365 51.4901 53.9524L41 40.7381Z" fill="#2A926F"/>
</svg>
