<svg width="140" height="140" viewBox="0 0 140 140" fill="none" xmlns="http://www.w3.org/2000/svg">
<rect width="140" height="140" rx="30" fill="#01A3F8"/>
<g clip-path="url(#clip0_745_2956)">
<path d="M58.9757 88.9444C58.872 88.9508 58.7957 88.9614 58.7195 88.9614C55.26 88.9614 51.8005 88.955 48.341 88.9593C48.125 88.9593 48.0509 88.8828 47.9853 88.6767C47.5915 87.4447 47.1744 86.2212 46.7658 84.9935C46.6239 84.5686 46.4757 84.1438 46.3592 83.7126C46.3042 83.5087 46.2068 83.4513 46.0099 83.4577C45.5081 83.4747 45.0064 83.481 44.5046 83.481C40.7635 83.481 37.0224 83.481 33.2813 83.481C33.1839 83.481 33.0865 83.4917 32.9912 83.481C32.7858 83.4598 32.6863 83.5342 32.6164 83.7444C32.0787 85.3928 31.5218 87.0326 30.9777 88.6789C30.91 88.8828 30.8084 88.9699 30.5797 88.9699C27.3044 88.9635 24.0312 88.9699 20.7558 88.9699C20.5102 88.9699 20.2647 88.9699 20 88.9699C20.0106 88.8849 20.0064 88.8318 20.0233 88.7893C20.6182 87.2833 21.211 85.7773 21.8166 84.2755C23.3388 80.4987 24.8759 76.7262 26.394 72.9452C27.8146 69.4106 29.212 65.8675 30.6305 62.3308C32.2184 58.3714 33.819 54.4162 35.4133 50.4568C35.5932 50.0107 35.5911 50.0086 36.0866 50.0086C38.4642 50.0086 40.8397 50.0043 43.2173 50.0086C43.6746 50.0086 43.6111 49.9066 43.8144 50.4228C44.5829 52.3813 45.3345 54.344 46.1052 56.3003C47.4348 59.682 48.775 63.0573 50.1088 66.4368C51.4321 69.7909 52.7511 73.147 54.0765 76.5032C55.0207 78.8929 55.9693 81.2783 56.9157 83.668C57.5783 85.3439 58.2389 87.022 58.8995 88.7001C58.927 88.7723 58.9461 88.8467 58.9778 88.9465L58.9757 88.9444ZM39.6371 62.3903C39.6138 62.3967 39.5905 62.4009 39.5672 62.4073C38.2376 66.7087 36.9059 71.0101 35.5678 75.3392H43.6386C42.2984 71.0016 40.9667 66.696 39.6371 62.3903Z" fill="white"/>
<path d="M74.9075 89.9957C73.4191 90.0191 71.8079 89.8131 70.2475 89.3139C66.428 88.0904 63.3856 85.8345 61.3595 82.3382C59.636 79.3622 58.9861 76.125 59.3396 72.6987C59.6953 69.2555 61.0567 66.254 63.3496 63.6817C64.783 62.0716 66.5403 60.9012 68.4944 60.0154C71.141 58.8131 73.9145 58.4308 76.7875 58.7345C80.4905 59.1275 83.6875 60.6484 86.315 63.276C88.6545 65.6168 90.0476 68.4695 90.5769 71.7471C91.0152 74.4724 90.8204 77.1446 89.8867 79.7424C89.0102 82.1789 87.6425 84.3051 85.6946 86.0299C83.5563 87.9226 81.0643 89.1057 78.2823 89.692C77.2195 89.9172 76.146 90.0212 74.9075 89.9979V89.9957ZM82.0954 74.4554C82.0806 72.2017 81.3755 70.4004 79.8871 68.9177C77.2364 66.2774 73.5038 66.4495 71.1092 68.1594C68.0265 70.3622 67.1458 74.3152 68.721 77.665C70.275 80.966 73.8658 82.4932 77.3105 81.3313C79.722 80.5199 82.1674 77.9114 82.0954 74.4533V74.4554Z" fill="white"/>
<path d="M95.5062 88.9549C95.5062 88.1265 95.5062 87.3427 95.5062 86.5589C95.5062 80.2437 95.5041 73.9308 95.5041 67.6156C95.5041 62.2097 95.5062 56.8037 95.5083 51.3977C95.5083 51.0196 95.5041 50.6394 95.4914 50.2613C95.485 50.0807 95.5231 49.9979 95.737 50C98.4131 50.0085 101.089 50.0085 103.765 50.0064C103.973 50.0064 104.102 50.0149 104.1 50.2974C104.089 56.1006 104.085 61.9038 104.085 67.7049C104.085 74.6976 104.085 81.6924 104.094 88.6851C104.094 88.9082 104.034 88.9634 103.81 88.9634C101.134 88.9528 98.4576 88.9549 95.7814 88.9549C95.6946 88.9549 95.6099 88.9549 95.5062 88.9549Z" fill="white"/>
<path d="M120 84.5367C119.99 87.5806 117.529 90.034 114.455 89.9936C111.536 89.9554 109.05 87.6188 109.075 84.4475C109.101 81.3547 111.644 78.9947 114.654 79.033C117.654 79.0712 119.977 81.548 120 84.5367Z" fill="white"/>
</g>
<defs>
<clipPath id="clip0_745_2956">
<rect width="100" height="40" fill="white" transform="translate(20 50)"/>
</clipPath>
</defs>
</svg>
