<svg width="140" height="140" viewBox="0 0 140 140" fill="none" xmlns="http://www.w3.org/2000/svg">
<rect width="140" height="140" rx="30" fill="white"/>
<g clip-path="url(#clip0_608_3667)">
<path d="M106.984 52.2537C105.666 53.4915 104.299 54.611 103.125 55.9078C100.005 59.3552 98.3375 63.4643 97.8839 68.0873C97.5083 71.9069 97.906 75.6127 99.3477 79.1915C100.881 82.9978 103.486 85.9164 106.778 88.2634C107.61 88.8556 108.523 89.3327 109.362 89.9161C109.599 90.0801 109.816 90.4154 109.857 90.6975C110.362 94.1596 109.468 97.4061 108.182 100.555C106.318 105.128 103.582 109.125 99.978 112.507C97.0297 115.275 93.7205 117.408 89.7119 118.287C87.195 118.838 84.7209 118.647 82.2806 117.864C79.6386 117.016 77.0142 116.107 74.3486 115.339C71.4739 114.51 68.5757 114.746 65.7599 115.64C63.2091 116.449 60.707 117.412 58.1843 118.312C54.3523 119.679 50.8517 118.941 47.5543 116.7C44.0272 114.305 41.5487 110.98 39.3897 107.4C36.1438 102.02 33.7419 96.2599 31.9805 90.2307C30.147 83.9549 28.9188 77.5757 29.0042 71.0044C29.0498 67.4419 29.8377 64.0226 31.2132 60.7333C33.0644 56.3052 35.8714 52.5816 39.5414 49.5375C43.609 46.164 48.2318 43.9632 53.5188 43.2764C55.5437 43.0135 57.5937 42.8156 59.5436 43.4596C61.2151 44.012 62.8233 44.8007 64.3858 45.6263C66.6155 46.805 68.7642 48.1491 71.3811 48.2672C73.711 48.3721 75.976 47.9896 78.1173 47.1034C80.5693 46.0901 82.9698 44.9499 85.3865 43.8524C87.9284 42.6974 90.5601 42.5837 93.2684 43.0711C98.1328 43.9455 101.915 46.6145 105.158 50.1962C105.797 50.9022 106.423 51.6201 106.985 52.2537H106.984Z" fill="#333333"/>
<path d="M88.734 21C90.9991 31.7985 84.8284 42.6678 71.7626 46.4711C69.125 32.9771 78.3441 23.7576 88.734 21Z" fill="#333333"/>
</g>
<defs>
<clipPath id="clip0_608_3667">
<rect width="81" height="98" fill="white" transform="translate(29 21)"/>
</clipPath>
</defs>
</svg>
