<svg width="140" height="140" viewBox="0 0 140 140" fill="none" xmlns="http://www.w3.org/2000/svg">
<rect width="140" height="140" rx="30" fill="#E94A75"/>
<g clip-path="url(#clip0_3462_473)">
<path d="M113.67 41.1205C113.38 40.6996 113.083 40.283 112.782 39.8708C112.795 39.834 112.799 39.809 112.792 39.7987C112.76 39.7796 112.727 39.7648 112.694 39.7531C108.332 33.8283 102.763 28.7426 96.3687 25.0671C89.5936 21.1722 81.9961 18.8185 74.1907 18.1797C74.2448 19.2793 74.4966 20.3906 74.4893 21.4946C74.4761 23.863 73.153 28.5895 76.0934 29.72C76.8515 30.0115 77.9448 30.0866 78.722 29.7966C78.8171 29.7907 78.924 29.8113 79.0147 29.7966C79.7904 29.6317 79.3279 30.2853 79.0762 30.5193C78.0926 31.4319 76.31 31.8412 75.0688 31.2671C75.0103 31.5026 75.123 31.6101 75.2137 31.7852C75.5328 32.4035 76.771 33.5737 77.2613 34.2081C78.6327 35.9848 79.8826 37.8748 81.3594 39.572C82.1468 40.4773 84.0202 41.9978 84.4125 42.9723C85.6902 46.1547 80.875 46.773 79.6807 48.6262C78.2346 50.8724 82.2815 51.9381 82.2273 53.3836C82.1893 54.4008 80.6188 56.2584 79.7363 56.7913C79.6675 57.2535 80.5134 57.7304 80.771 58.1028C82.5391 60.642 78.2639 62.401 77.879 64.3131C77.3272 67.048 79.4216 68.6996 77.7282 71.6612C75.9821 74.7141 71.5445 74.6891 68.4226 74.8024C65.3534 74.9143 62.2565 74.7318 59.2107 74.642C57.9198 74.6037 56.5909 74.7877 55.3307 74.5022L55.0306 79.1271C54.8799 88.461 55.1931 98.4189 60.2396 106.546C64.1928 112.914 70.88 117.116 76.3832 121.999L76.9686 116.778C77.4179 111.955 75.8182 107.591 74.8478 103.031C73.5335 96.8513 75.5562 91.6949 76.4066 85.6259C76.7535 84.6353 78.4673 84.179 79.3777 84.3556C80.0392 84.4837 80.351 85.8099 80.9598 84.176C82.1863 80.892 82.5259 75.5944 83.1787 71.9968C83.7378 68.9233 84.3173 66.1339 84.7828 63.0222C84.9365 61.9933 86.1205 58.7799 87.1655 58.5076C88.4754 58.1676 89.036 58.8712 89.4034 60.0075C90.264 62.6615 89.1077 66.6197 88.8121 69.4268C88.3291 74.0194 87.5987 79.3097 87.3499 83.8389C87.2899 84.9488 87.2943 86.0881 87.6427 87.145C87.8856 87.201 87.9383 87.067 88.0773 86.9228C89.118 85.8453 89.8527 84.6588 91.6427 84.806C92.2647 84.8576 93.8469 85.9277 93.7839 84.7339C93.7342 83.8051 92.1359 83.2384 93.8542 82.3316C94.4806 82.9896 96.758 84.1172 97.1561 84.7104C97.5088 85.2359 97.1341 85.4272 96.8546 85.8232C96.1096 85.6554 95.5417 85.4051 94.728 85.5229C94.1586 85.6053 94.002 86.0499 93.2717 85.9822C92.5047 85.91 92.1798 85.9586 90.9299 85.3786C89.3551 84.6485 88.0934 86.518 87.9032 87.1229C89.1063 86.5032 91.4685 85.5038 92.8019 86.1485C93.8088 86.6357 94.2699 90.3054 94.3138 90.4761C94.4265 90.9104 94.9197 87.9517 94.2508 87.1907C94.1879 87.1185 93.4151 86.0116 94.002 86.2633C94.5875 86.515 94.6928 87.357 94.9548 87.7323V88.9085C94.3738 89.0277 94.1762 90.7543 94.4338 91.1238C94.7968 91.6434 95.6603 91.0031 95.8315 90.9678C98.0577 90.4997 100.525 91.4977 100.803 93.9824C101.339 98.7707 98.4587 106.038 97.0009 110.673C96.2691 112.997 95.492 115.308 95.1012 117.731C95.3222 117.949 98.9109 115.522 99.3412 115.232C123.712 98.8046 130.598 65.6482 113.67 41.1161V41.1205Z" fill="white"/>
<path d="M66.5619 36.7578C70.5634 31.2246 71.4387 24.5551 72.8745 18.0342C63.9289 17.7442 54.7975 19.3222 46.8472 23.4746C46.8048 23.4702 46.7433 23.4673 46.7009 23.4746C46.2354 23.5629 44.2566 24.7435 43.6785 25.0673C43.3258 25.2645 42.8501 25.506 42.6072 25.8283C42.5618 25.8268 42.5032 25.8195 42.4608 25.8283C41.8856 25.9505 39.8644 27.5932 39.2438 28.0348C39.2116 28.0584 39.1296 28.0113 39.0974 28.0348C38.2734 28.628 37.5416 29.311 36.7586 29.9469C36.6825 30.0088 36.542 30.0308 36.4659 30.0941C36.2493 30.2737 35.9946 30.3929 35.8804 30.6829C35.8395 30.7021 35.7707 30.6623 35.7341 30.6829C34.9993 31.0789 33.8855 32.4243 33.2489 33.0351C33.0937 33.1838 32.9605 33.3266 32.8098 33.4767C32.6107 33.6755 32.4219 33.8609 32.2244 34.0655C32.0824 34.2127 31.9316 34.357 31.7853 34.5071C31.5291 34.7721 30.6934 35.3653 30.6159 35.6832C30.6085 35.7127 30.6056 35.8142 30.6159 35.8304C30.2909 36.0483 29.9953 36.3456 29.7421 36.643C29.4698 36.9639 29.2196 37.4805 29.0074 37.7425C28.2507 38.6773 27.6667 39.3971 26.9598 40.3892C26.2002 41.4549 25.8416 42.1556 25.2049 43.183C22.6875 47.2442 20.5419 51.3407 19.21 56.1232C19.0812 56.5839 18.7929 57.3081 18.7709 57.7409C18.768 57.7895 18.7753 57.8395 18.7709 57.8881C18.3948 58.3106 18.4518 59.0024 18.3318 59.5058C18.1767 60.1638 17.9732 60.729 17.8927 61.4179C17.8503 61.7785 17.7991 62.0818 17.8927 62.4468C17.8693 62.4483 17.7786 62.5513 17.7464 62.594C17.5634 62.8369 17.3585 64.6842 17.3088 65.1685C17.0512 67.7003 16.9853 70.2631 17.0161 72.8125C17.019 73.0613 16.9224 73.4661 17.1653 73.6192C17.1668 73.6678 17.1639 73.7178 17.1653 73.7664C17.3541 79.1656 18.6509 84.5163 20.5653 89.5372C21.8401 92.883 23.4515 96.1317 25.4976 99.0595L23.5115 91.8968C22.5455 85.6732 22.5207 78.8653 23.7589 72.6786C24.1848 70.5471 24.7278 68.4731 25.3527 66.2666C25.4157 66.0458 25.704 65.619 25.7918 65.3849C27.9799 59.5176 30.8471 54.3112 34.8574 49.5037C34.9906 49.3447 35.0667 49.1607 35.1501 49.0621C35.2174 48.9826 35.3374 48.8899 35.4428 48.7677C35.7736 48.382 36.1234 47.9611 36.4659 47.5916L36.6122 47.4444C36.6591 47.3943 36.7103 47.3458 36.7586 47.2972C37.0352 47.0205 37.4509 46.81 37.6353 46.4155C37.8622 46.1961 37.9968 46.0857 38.2207 45.8267L38.8062 45.2379C39.0404 45.0392 39.3067 44.8522 39.538 44.6491C39.7678 44.4474 39.9566 44.2031 40.1234 44.0603C40.3064 43.9043 40.4454 43.7173 40.5625 43.6187C40.6035 43.5834 40.8011 43.5819 40.9284 43.4774C42.1183 42.4882 43.3038 41.4976 44.5113 40.5305C44.6094 40.4834 44.7089 40.4363 44.804 40.3833C45.246 40.1389 45.5812 39.7989 45.9734 39.5016C46.0027 39.4795 46.0788 39.5222 46.1198 39.5016C46.1754 39.4736 46.2208 39.4 46.2662 39.3544C46.613 39.0879 47.2014 38.7023 47.5819 38.4727C49.0616 37.5747 50.5735 36.7725 52.0152 35.7981C58.619 31.335 64.1543 25.556 69.296 19.5032C69.4057 19.4797 69.3896 19.6445 69.3662 19.7196C68.5334 22.3971 64.7602 27.9936 62.9922 30.3694C56.9578 38.4756 48.1044 42.9578 41.5109 50.5297C31.112 62.4704 26.5909 78.1691 29.3498 93.9399C30.6276 101.242 33.7231 108.822 38.6598 114.353C38.0685 106.487 37.445 98.6341 37.205 90.7457C37.0747 86.4357 36.8698 82.142 37.3631 77.829C38.7901 65.3687 44.7733 55.0972 54.2369 47.1529C58.357 43.6938 63.3684 41.1752 66.5634 36.7563L66.5619 36.7578Z" fill="white"/>
<path d="M114.125 112.9C113.987 113.021 113.504 115.054 113.304 115.384C113.118 115.066 112.61 112.986 112.48 112.903C112.307 112.793 111.732 112.933 111.477 112.883V116.56H112.209V114.353L112.816 116.315C113.844 117.238 113.844 115.675 114.148 114.905C114.211 114.748 114.189 114.468 114.403 114.5V116.56H115.135V112.883C114.906 112.928 114.239 112.803 114.128 112.9H114.125Z" fill="white"/>
<path d="M108.113 112.884C107.782 113.932 109.084 113.271 109.283 113.471C109.392 113.58 109.203 116.131 109.283 116.56H110.015V113.471C110.015 113.42 110.987 113.526 111.04 113.471C111.06 113.451 111.053 112.922 111.028 112.894C110.75 112.587 108.626 113.003 108.114 112.884H108.113Z" fill="white"/>
<path d="M94.4597 85.7274C93.946 85.1769 93.4323 84.6278 92.9185 84.0773L92.4751 84.6558C93.5625 85.4168 94.59 86.2588 95.5545 87.1729L96.0726 86.6518C95.013 85.7612 94.1758 84.6514 93.6094 83.384L92.9771 83.7549C93.8977 84.9973 94.8798 86.1911 95.9233 87.3304C96.2453 87.6807 96.7488 87.164 96.4414 86.8093C95.2954 85.4978 94.1011 84.1185 93.6445 82.3933L93.0327 82.751C94.5988 84.566 96.5922 85.957 98.1056 87.822L98.6237 87.3009C97.9446 86.7695 97.4601 86.0291 96.9654 85.3344C96.4151 84.5616 95.8809 83.7755 95.3613 82.9807L94.7861 83.4267C96.1912 85.0414 97.5991 86.6591 98.8359 88.4093C98.9501 88.5713 99.155 88.6478 99.3364 88.5418C99.5062 88.4417 99.5692 88.2091 99.4682 88.0384C98.9618 87.1817 98.4539 86.3235 97.8714 85.5154C97.5757 85.1062 97.264 84.7073 96.9259 84.3319C96.5878 83.9566 96.2029 83.6504 95.8984 83.2618C95.7872 83.119 95.5457 83.1308 95.4184 83.2324C95.2764 83.3457 95.231 83.5444 95.3247 83.7078C96.017 84.9281 96.7093 86.1469 97.403 87.3672L97.9036 86.8638C96.7942 86.0115 95.9687 84.8486 95.2252 83.6769C95.0086 83.3354 94.4348 83.5474 94.5563 83.961C94.8856 85.0768 95.3671 86.1454 95.9863 87.1287C96.238 87.5276 96.8644 87.164 96.6185 86.7578C96.3331 86.2882 96.0492 85.8187 95.7638 85.3491C95.6306 85.1283 95.4886 84.9104 95.3789 84.6749C95.2793 84.4615 95.2325 84.2289 95.1549 84.0066C95.0115 83.596 94.7627 83.2706 94.489 82.9409C94.2841 82.6951 94.0148 82.4095 93.9753 82.0769L93.2932 82.2623C93.6255 82.804 93.9592 83.3472 94.2914 83.8889C94.5388 84.2907 95.171 83.9213 94.9237 83.5179C94.5914 82.9763 94.2577 82.4331 93.9255 81.8914C93.8406 81.753 93.6708 81.678 93.5128 81.7221C93.3708 81.7619 93.2259 81.9194 93.2435 82.0769C93.2991 82.5332 93.5084 82.8879 93.7908 83.2412C94.0323 83.5444 94.3192 83.8285 94.4495 84.2024C94.5373 84.4541 94.5988 84.7102 94.7071 84.9561C94.8154 85.2019 94.9442 85.408 95.0759 85.6258C95.3789 86.1263 95.6833 86.6282 95.9877 87.1287L96.62 86.7578C96.0316 85.826 95.5764 84.8236 95.2632 83.7652L94.5944 84.0493C95.4111 85.3358 96.32 86.5664 97.5347 87.4997C97.6621 87.5968 97.8728 87.5468 97.9782 87.4422C98.0938 87.326 98.1158 87.1375 98.0353 86.9962C97.343 85.776 96.6507 84.5572 95.957 83.3369L95.3818 83.7829C95.6789 84.1627 96.0638 84.4703 96.3873 84.828C96.7107 85.1857 97.0005 85.5522 97.2772 85.9393C97.8436 86.7313 98.3412 87.5718 98.8374 88.4093L99.4696 88.0384C98.1963 86.2367 96.7517 84.5689 95.3057 82.9071C95.0335 82.5935 94.5036 83.0042 94.7305 83.3531C95.2618 84.1686 95.8106 84.9723 96.3756 85.7642C96.8922 86.4884 97.4001 87.2686 98.107 87.822C98.4773 88.112 98.9266 87.6748 98.6251 87.3009C97.1118 85.4345 95.1183 84.0449 93.5523 82.23C93.3049 81.9429 92.8512 82.2506 92.9405 82.5876C93.4323 84.4394 94.6968 85.9202 95.9262 87.3289L96.4444 86.8078C95.4418 85.7156 94.4948 84.5734 93.6123 83.381C93.3298 83.0013 92.7854 83.3163 92.98 83.752C93.5684 85.0665 94.4568 86.2441 95.5574 87.1685C95.7096 87.295 95.9263 87.3171 96.0755 87.1685C96.2131 87.0301 96.2204 86.7843 96.0755 86.6474C95.0671 85.6906 93.9855 84.8118 92.8483 84.014C92.497 83.7682 92.1297 84.2981 92.4048 84.5925C92.9185 85.143 93.4323 85.6921 93.946 86.2426C94.2694 86.5885 94.7861 86.0674 94.4641 85.7215L94.4597 85.7274Z" fill="white"/>
<path d="M95.5737 85.6774C96.045 85.6774 96.045 84.9414 95.5737 84.9414C95.1024 84.9414 95.1024 85.6774 95.5737 85.6774Z" fill="white"/>
<path d="M95.9673 85.1991C95.5502 83.9552 94.6632 82.9631 94.1539 81.7664C93.9929 81.3866 93.3416 81.6589 93.485 82.0505C93.9051 83.1972 94.3485 84.335 94.8169 85.4625C94.8871 85.6318 95.0233 85.7555 95.2179 85.726C95.3892 85.6995 95.5428 85.5509 95.5355 85.3639C95.5063 84.7104 95.215 84.0715 94.7159 83.6461C94.4612 83.4283 94.1788 83.2811 93.8641 83.1707C93.6021 83.0794 93.3225 83.0146 93.1308 82.7997C92.9157 82.5583 92.5044 82.7526 92.5059 83.0603C92.5088 83.6976 92.7986 84.3144 93.0313 84.8958C93.264 85.4773 93.5333 86.097 93.7924 86.6931C93.8714 86.8757 94.1363 86.9169 94.2929 86.8256C94.4803 86.7152 94.5037 86.5047 94.4246 86.3222C94.1905 85.7834 93.9548 85.2462 93.7367 84.7001C93.6314 84.4351 93.5275 84.1687 93.4309 83.8993C93.3343 83.6299 93.2391 83.3532 93.2377 83.0603L92.6127 83.3208C93.0108 83.7683 93.6328 83.7757 94.1041 84.0965C94.5154 84.3762 94.7818 84.8679 94.8037 85.3654L95.5223 85.2682C95.054 84.1407 94.6105 83.0029 94.1905 81.8562L93.5216 82.1403C94.0046 83.2767 94.8667 84.2202 95.2604 85.3978C95.4097 85.8438 96.1166 85.6524 95.9658 85.202L95.9673 85.1991Z" fill="white"/>
<path d="M93.7909 86.78C94.1948 87.675 94.448 88.6465 94.5329 89.6254C94.5505 89.8226 94.6881 89.9934 94.8988 89.9934C95.0832 89.9934 95.2823 89.8241 95.2647 89.6254C95.1667 88.5067 94.8842 87.4306 94.4231 86.4091C94.3412 86.228 94.0807 86.1839 93.9226 86.2766C93.7382 86.3855 93.7089 86.599 93.7909 86.78Z" fill="white"/>
<path d="M93.885 85.8599C93.5849 84.9032 92.6702 84.3408 91.7027 84.2923C90.6197 84.2378 89.6332 84.7927 88.7916 85.4198C88.6716 85.5096 88.594 85.6288 88.6175 85.7863C88.6379 85.9188 88.7375 86.0675 88.8794 86.0925C89.5849 86.2132 90.3064 85.9615 91.0104 85.9026C91.6661 85.8467 92.354 85.8658 92.9629 86.1455C93.1429 86.2279 93.3566 86.197 93.4634 86.013C93.56 85.8467 93.5074 85.6038 93.3317 85.5096C92.7595 85.2005 92.1652 84.8811 91.5198 84.7604C90.8143 84.6279 90.1425 84.7721 89.4605 84.9576C89.0068 85.0813 89.1985 85.7922 89.6551 85.6671C90.223 85.5126 90.7997 85.358 91.388 85.4816C91.9764 85.6053 92.4594 85.8732 92.9614 86.144L93.3303 85.5081C92.6585 85.199 91.934 85.1078 91.2007 85.1504C90.8363 85.1711 90.4718 85.2211 90.1118 85.2785C89.7766 85.3315 89.4136 85.439 89.0726 85.3801L89.1604 86.0528C89.8469 85.542 90.6226 85.0474 91.5037 85.0238C92.2004 85.0047 92.9541 85.3403 93.178 86.0528C93.3185 86.5032 94.0255 86.3104 93.8835 85.857L93.885 85.8599Z" fill="white"/>
<path d="M94.4426 87.9206C94.5567 88.0207 94.6665 88.1252 94.769 88.2386C94.8216 88.296 94.8729 88.3549 94.9226 88.4167C94.9344 88.4314 94.9461 88.4461 94.9578 88.4594C94.987 88.4962 94.9695 88.4623 94.9519 88.4505C94.9783 88.4682 95.0075 88.5256 95.0251 88.5506C95.0675 88.6095 95.1071 88.6699 95.1436 88.7332C95.1627 88.7641 95.1802 88.7964 95.1963 88.8288C95.2037 88.8421 95.2344 88.9333 95.249 88.9392C95.2373 88.9348 95.2241 88.873 95.2417 88.926C95.2476 88.9436 95.2534 88.9598 95.2593 88.976C95.2695 89.0099 95.2798 89.0437 95.2871 89.0791C95.2915 89.1012 95.2959 89.1232 95.3002 89.1438C95.3105 89.1924 95.2973 89.0747 95.2973 89.1247C95.2973 89.1644 95.3002 89.2042 95.3002 89.2454L95.9823 89.0599C95.9574 89.0069 95.9325 88.9554 95.9091 88.901C95.8696 88.8112 95.9369 88.9731 95.9018 88.8818C95.8915 88.8553 95.8798 88.8274 95.8696 88.8009C95.8286 88.6919 95.792 88.5815 95.7584 88.4711C95.7247 88.3607 95.6983 88.2474 95.6749 88.1326C95.6647 88.0811 95.6544 88.0281 95.6457 87.9751C95.6413 87.9471 95.6369 87.9177 95.6325 87.8897C95.6281 87.8617 95.6296 87.8706 95.6354 87.9162C95.6325 87.8971 95.631 87.8779 95.6281 87.8588C95.6164 87.7572 95.5959 87.6733 95.5213 87.5983C95.4583 87.535 95.3529 87.4864 95.2622 87.4908C95.0836 87.4982 94.8714 87.6542 94.8963 87.8588C94.9622 88.4108 95.11 88.9319 95.35 89.4323C95.4173 89.5722 95.6193 89.6487 95.7628 89.6016C95.9208 89.5501 96.0262 89.4147 96.032 89.2469C96.0438 88.8686 95.8842 88.5065 95.6735 88.2018C95.4627 87.8971 95.2329 87.6365 94.9622 87.401C94.8173 87.2744 94.5845 87.2479 94.444 87.401C94.3182 87.5394 94.2889 87.7867 94.444 87.9221L94.4426 87.9206Z" fill="white"/>
<path d="M97.5244 96.936C95.5807 96.936 94 95.3359 94 93.3694C94 91.4028 95.5807 89.8027 97.5244 89.8027C99.468 89.8027 101.049 91.4028 101.049 93.3694C101.049 95.3359 99.468 96.936 97.5244 96.936ZM97.5244 90.2443C95.8236 90.2443 94.4391 91.6457 94.4391 93.3694C94.4391 95.093 95.8222 96.4944 97.5244 96.4944C99.2265 96.4944 100.61 95.093 100.61 93.3694C100.61 91.6457 99.2265 90.2443 97.5244 90.2443Z" fill="#E94A75"/>
<path d="M98.7979 89.9735L97.4016 87.2828C97.3182 87.1238 97.4792 86.9472 97.6446 87.0149L102.42 88.9932C102.726 89.1198 102.679 89.5702 102.354 89.6306L99.1302 90.2297" fill="#E94A75"/>
</g>
<defs>
<clipPath id="clip0_3462_473">
<rect width="106" height="104" fill="white" transform="translate(17 18)"/>
</clipPath>
</defs>
</svg>
