<svg width="140" height="140" viewBox="0 0 140 140" fill="none" xmlns="http://www.w3.org/2000/svg">
<rect width="140" height="140" rx="30" fill="#F2EAE8"/>
<path d="M32 112.342H47.7613L53.9121 92.3518H58.3475C59.9966 92.3518 61.6655 92.2051 63.1955 91.5897C64.3802 91.1132 65.1946 90.5843 65.8174 89.932C67.1961 88.4879 67.3668 86.3259 67.3668 84.3294V77.7437H58.9095L69.2889 40.0704H70.4422V27H58.9095L32 112.342Z" fill="#0B1023"/>
<path d="M108.5 112.342H92.7387L86.5879 92.3518H82.1525C80.5034 92.3518 78.8345 92.2051 77.3045 91.5897C76.1198 91.1132 75.3054 90.5843 74.6826 89.932C73.3039 88.4879 73.1332 86.3259 73.1332 84.3294V77.7437H81.5905L71.2111 40.0704H70.0578V27H81.5905L108.5 112.342Z" fill="#0B1023"/>
</svg>
