<svg width="140" height="140" viewBox="0 0 140 140" fill="none" xmlns="http://www.w3.org/2000/svg">
<rect width="140" height="140" rx="30" fill="#612F86"/>
<g clip-path="url(#clip0_846_3863)">
<path d="M69.9299 117C43.7082 117.129 24.4065 95.5075 23.098 73.3191C22.255 59.0132 26.9046 46.6734 37.0209 36.5273C46.1545 27.3668 57.388 22.8681 70.2506 23.0026C96.4413 23.2768 114.662 43.212 116.744 64.958C118.065 78.7492 114.297 91.1226 104.895 101.439C95.5543 111.689 83.7985 116.806 69.9299 117ZM53.8297 50.8073C53.2763 50.8513 52.7048 50.8177 52.1721 50.9496C50.6308 51.3325 49.9818 52.613 49.3999 53.9091C45.1926 63.2662 41.2877 72.7577 36.9097 82.0398C36.0408 83.8843 36.4701 85.7003 37.8406 86.3057C39.4336 87.0093 41.2955 86.1582 42.1618 84.3267C42.198 84.249 42.2264 84.1689 42.2601 84.0887C42.9531 82.4692 43.7211 80.8756 44.3107 79.22C44.603 78.3999 45.0245 78.2111 45.8106 78.2137C50.9696 78.2395 56.1312 78.2473 61.2902 78.2085C62.1203 78.2033 62.5134 78.5034 62.8056 79.2407C63.4702 80.917 64.2149 82.5623 64.9157 84.2258C65.2597 85.0407 65.7458 85.7314 66.5268 86.1763C67.4552 86.7067 68.3913 86.88 69.4102 86.3497C70.3385 85.8659 70.4316 84.9294 70.4316 84.1533C70.4316 83.2531 70.2222 82.3243 69.8343 81.4344C68.2077 77.7066 66.6768 73.9348 65.0761 70.1941C62.6634 64.5467 60.2403 58.9045 57.7811 53.2779C57.0466 51.5989 55.7769 50.6366 53.8297 50.8073ZM78.3059 64.3708C78.3059 64.3708 78.3188 64.3708 78.324 64.3708C78.324 60.7154 78.3395 57.06 78.3188 53.4046C78.3059 51.2083 77.406 50.7452 75.4484 50.6262C73.7727 50.5228 72.8521 51.5576 72.8469 53.3736C72.8288 59.3935 72.8159 65.4159 72.8469 71.4358C72.8598 73.5571 72.7409 75.6551 73.1495 77.8023C73.8244 81.3335 77.2534 85.3666 80.8091 86.197C83.1779 86.7506 85.6061 86.6498 87.98 86.4169C91.7762 86.0444 94.6053 84.0447 96.2991 80.5859C97.2093 78.7259 97.6153 76.6951 97.6386 74.6566C97.7136 67.6899 97.68 60.7232 97.6826 53.7565C97.6826 53.371 97.6903 52.9778 97.6231 52.6001C97.38 51.2238 96.1827 50.4762 94.4941 50.6133C93.1364 50.7246 92.2572 51.5679 92.2262 52.9028C92.0529 60.4179 92.4149 67.9356 92.0322 75.4482C91.9003 78.0533 90.6384 79.7529 88.6446 80.4902C87.212 81.0205 85.7328 81.1602 84.2329 81.0412C80.6203 80.7566 78.3964 78.8294 78.3214 74.9541C78.2542 71.428 78.3059 67.902 78.3059 64.376V64.3708Z" fill="#F56819"/>
<path d="M53.8325 50.8073C55.7797 50.6365 57.052 51.6015 57.7838 53.2778C60.2431 58.9045 62.6636 64.5467 65.0789 70.194C66.677 73.9348 68.2105 77.7066 69.837 81.4344C70.2249 82.3243 70.4344 83.253 70.4344 84.1533C70.4344 84.9294 70.3413 85.8658 69.4129 86.3496C68.3941 86.8799 67.458 86.7066 66.5296 86.1763C65.7486 85.7313 65.2625 85.0406 64.9185 84.2257C64.2203 82.5623 63.473 80.917 62.8084 79.2406C62.5162 78.5033 62.1231 78.2033 61.293 78.2084C56.134 78.2472 50.9724 78.2421 45.8134 78.2136C45.0247 78.2084 44.6057 78.3999 44.3135 79.2199C43.7239 80.8756 42.9559 82.4692 42.2629 84.0886C42.2292 84.1688 42.2008 84.249 42.1646 84.3266C41.2983 86.1556 39.4364 87.0093 37.8434 86.3056C36.4729 85.7003 36.0436 83.8842 36.9125 82.0397C41.2905 72.7577 45.1953 63.2661 49.4027 53.9091C49.9846 52.6156 50.6311 51.335 52.1749 50.9496C52.7076 50.8176 53.2791 50.8487 53.8325 50.8073ZM53.4834 58.0404C52.6326 59.9548 51.681 61.6803 51.1198 63.5274C50.8043 64.5596 50.3259 65.5064 49.9587 66.4998C49.2889 68.3133 48.3606 70.0336 47.5279 71.785C47.2408 72.3878 47.2538 72.7499 48.0735 72.7473C51.7663 72.7344 55.4565 72.7344 59.1492 72.7473C59.7621 72.7473 59.9664 72.5171 59.669 71.9868C58.8182 70.4734 58.195 68.8565 57.5433 67.2552C56.8503 65.553 56.059 63.887 55.2858 62.2339C54.6626 60.9016 54.616 59.3262 53.486 58.0404H53.4834Z" fill="#612F86"/>
<path d="M78.3063 64.3733C78.3063 67.8994 78.252 71.428 78.3218 74.9514C78.3968 78.8267 80.6181 80.7566 84.2333 81.0386C85.7332 81.155 87.2124 81.0179 88.645 80.4875C90.6388 79.7503 91.9007 78.0506 92.0326 75.4456C92.4128 67.933 92.0533 60.4153 92.2266 52.9001C92.2576 51.5627 93.1342 50.7193 94.4945 50.6107C96.1831 50.4736 97.3804 51.2238 97.6235 52.5975C97.6907 52.9752 97.683 53.3684 97.683 53.7538C97.6804 60.7205 97.714 67.6872 97.639 74.6539C97.6183 76.6925 97.2097 78.7232 96.2995 80.5833C94.6057 84.0446 91.7766 86.0418 87.9804 86.4143C85.6065 86.6471 83.1808 86.748 80.8095 86.1944C77.2538 85.364 73.8248 81.3309 73.1499 77.7997C72.7413 75.6551 72.8576 73.5545 72.8473 71.4332C72.8137 65.4133 72.8266 59.3908 72.8473 53.371C72.8525 51.5523 73.7731 50.5175 75.4488 50.6236C77.4064 50.7452 78.3089 51.2057 78.3192 53.402C78.3399 57.0574 78.3244 60.7128 78.3244 64.3682C78.3192 64.3682 78.3115 64.3682 78.3063 64.3682V64.3733Z" fill="#612F86"/>
<path d="M53.4807 58.0405C54.6108 59.3288 54.6573 60.9017 55.2805 62.2339C56.0538 63.887 56.8451 65.553 57.5381 67.2552C58.1898 68.8566 58.813 70.4734 59.6638 71.9868C59.9637 72.5171 59.7569 72.75 59.144 72.7474C55.4512 72.7344 51.761 72.7318 48.0683 72.7474C47.2485 72.75 47.2382 72.3878 47.5226 71.785C48.3553 70.0311 49.2837 68.3133 49.9534 66.4998C50.3207 65.5064 50.7991 64.5596 51.1145 63.5274C51.6783 61.6829 52.6273 59.9548 53.4781 58.0405H53.4807Z" fill="#F56819"/>
</g>
<defs>
<clipPath id="clip0_846_3863">
<rect width="94" height="94" fill="white" transform="translate(23 23)"/>
</clipPath>
</defs>
</svg>
