<svg width="140" height="140" viewBox="0 0 140 140" fill="none" xmlns="http://www.w3.org/2000/svg">
<rect width="140" height="140" rx="30" fill="#1B1D1F"/>
<g clip-path="url(#clip0_2753_302)">
<path fill-rule="evenodd" clip-rule="evenodd" d="M16.7629 87.4982C16.4747 87.4982 16.2356 87.4268 16.0455 87.2839C15.8554 87.1411 15.7604 86.9424 15.7604 86.6878C15.7604 86.1911 16.1221 85.9179 16.8457 85.8682L18.1793 85.7797V86.2408C18.1793 86.5978 18.0452 86.8966 17.7769 87.1372C17.5087 87.3779 17.1707 87.4982 16.7629 87.4982ZM16.6158 88.2014C16.9469 88.2014 17.2442 88.13 17.5079 87.9872C17.7716 87.8443 17.9831 87.6394 18.1425 87.3724H18.2161V88.1129H18.9703V84.676C18.9703 84.1544 18.8071 83.7453 18.4806 83.4488C18.154 83.1523 17.6888 83.0041 17.0848 83.0041C16.5575 83.0041 16.1145 83.126 15.7558 83.3697C15.3971 83.6134 15.1917 83.9371 15.1395 84.3407H15.9397C15.9949 84.142 16.1206 83.9883 16.3168 83.8796C16.513 83.771 16.7598 83.7166 17.0572 83.7166C17.8053 83.7166 18.1793 84.0364 18.1793 84.676V85.1324L16.7491 85.2209C15.5442 85.2923 14.9418 85.7875 14.9418 86.7065C14.9418 87.166 15.1005 87.53 15.4178 87.7986C15.7351 88.0671 16.1344 88.2014 16.6158 88.2014ZM20.5722 88.1129H21.3632V85.1417C21.3632 84.7008 21.4812 84.3546 21.7173 84.1032C21.9534 83.8517 22.2691 83.7259 22.6646 83.7259C23.0601 83.7259 23.3537 83.8346 23.5453 84.0519C23.7369 84.2693 23.8327 84.6046 23.8327 85.0579V88.1129H24.6237V84.8623C24.6237 84.2662 24.4742 83.8074 24.1753 83.4861C23.8764 83.1648 23.448 83.0041 22.89 83.0041C22.5098 83.0041 22.1979 83.0817 21.9541 83.2369C21.7104 83.3922 21.5257 83.608 21.4 83.8843H21.3264V83.0926H20.5722V83.6002V84.8553V86.3502V87.6053V88.1129ZM66.8952 83.4814C66.538 83.1632 66.0574 83.0041 65.4534 83.0041C64.7606 83.0041 64.2087 83.2385 63.7979 83.7073C63.3871 84.1761 63.1817 84.8017 63.1817 85.5841C63.1817 86.382 63.3878 87.0177 63.8002 87.4912C64.2125 87.9647 64.7652 88.2014 65.458 88.2014C66.0528 88.2014 66.5296 88.0493 66.8883 87.745C67.247 87.4407 67.4616 87.0589 67.5321 86.5994H66.7319C66.6583 86.8819 66.5104 87.0992 66.2881 87.2513C66.0658 87.4035 65.7876 87.4795 65.4534 87.4795C65.012 87.4795 64.6594 87.3088 64.3957 86.9673C64.1321 86.6257 64.0002 86.1647 64.0002 85.5841C64.0002 85.0159 64.1313 84.5642 64.3934 84.2289C64.6556 83.8936 65.0089 83.7259 65.4534 83.7259C65.8091 83.7259 66.095 83.8144 66.3111 83.9914C66.5273 84.1684 66.6675 84.381 66.7319 84.6294H66.8538H67.132H67.4102H67.5321C67.4646 84.1823 67.2523 83.7997 66.8952 83.4814ZM72.5485 87.5052C72.9578 87.041 73.1625 86.4069 73.1625 85.6027C73.1625 84.7955 72.9578 84.1606 72.5485 83.698C72.1392 83.2354 71.582 83.0041 70.8769 83.0041C70.1717 83.0041 69.6145 83.2354 69.2052 83.698C68.7959 84.1606 68.5913 84.7955 68.5913 85.6027C68.5913 86.4069 68.7959 87.041 69.2052 87.5052C69.6145 87.9693 70.1717 88.2014 70.8769 88.2014C71.582 88.2014 72.1392 87.9693 72.5485 87.5052ZM69.7916 86.9859C69.5371 86.6568 69.4099 86.1957 69.4099 85.6027C69.4099 85.0066 69.5371 84.5448 69.7916 84.2173C70.046 83.8897 70.4078 83.7259 70.8769 83.7259C71.346 83.7259 71.7077 83.8897 71.9622 84.2173C72.2167 84.5448 72.3439 85.0066 72.3439 85.6027C72.3439 86.1957 72.2167 86.6568 71.9622 86.9859C71.7077 87.315 71.346 87.4795 70.8769 87.4795C70.4078 87.4795 70.046 87.315 69.7916 86.9859ZM75.3346 88.1129V85.002C75.3346 84.648 75.445 84.3469 75.6657 84.0985C75.8864 83.8501 76.1593 83.7259 76.4843 83.7259C76.797 83.7259 77.0476 83.8144 77.2362 83.9914C77.4247 84.1684 77.519 84.4059 77.519 84.7039V88.1129H78.31V84.8856C78.31 84.5658 78.4158 84.2926 78.6273 84.0659C78.8389 83.8393 79.1163 83.7259 79.4597 83.7259C79.8092 83.7259 80.0706 83.8175 80.2438 84.0007C80.417 84.1839 80.5036 84.4602 80.5036 84.8297V88.1129H81.2946V84.6434C81.2946 84.1156 81.1582 83.7104 80.8853 83.4279C80.6124 83.1454 80.2231 83.0041 79.7172 83.0041C79.3738 83.0041 79.0688 83.084 78.8021 83.2439C78.5353 83.4038 78.3345 83.6173 78.1996 83.8843H78.126C78.0126 83.6235 77.8402 83.4116 77.6087 83.2486C77.3772 83.0856 77.0928 83.0041 76.7556 83.0041C76.4245 83.0041 76.1394 83.0809 75.9002 83.2346C75.6611 83.3883 75.4848 83.6049 75.3714 83.8843H75.2978V83.0926H74.5436C74.5436 83.0926 74.5436 83.2618 74.5436 83.6002C74.5436 83.9386 74.5436 84.357 74.5436 84.8553C74.5436 85.3536 74.5436 85.8519 74.5436 86.3502C74.5436 86.8485 74.5436 87.2669 74.5436 87.6053C74.5436 87.9437 74.5436 88.1129 74.5436 88.1129H75.3346ZM84.3658 83.2509C84.0852 83.4155 83.8653 83.6421 83.7058 83.9309H83.6323V83.0926H82.8781V89.7895H83.6691V87.3585H83.7426C83.8775 87.6224 84.0814 87.8288 84.3543 87.9778C84.6271 88.1269 84.9398 88.2014 85.2924 88.2014C85.924 88.2014 86.4291 87.9647 86.8077 87.4912C87.1864 87.0177 87.3757 86.3882 87.3757 85.6027C87.3757 84.8141 87.1864 84.1839 86.8077 83.712C86.4291 83.2401 85.924 83.0041 85.2924 83.0041C84.9552 83.0041 84.6463 83.0864 84.3658 83.2509ZM84.0416 86.9719C83.7779 86.6335 83.6461 86.1771 83.6461 85.6027C83.6461 85.0253 83.7779 84.5681 84.0416 84.2312C84.3052 83.8944 84.6609 83.7259 85.1085 83.7259C85.5622 83.7259 85.9171 83.892 86.1731 84.2242C86.4291 84.5565 86.5571 85.0159 86.5571 85.6027C86.5571 86.1895 86.4291 86.649 86.1731 86.9812C85.9171 87.3134 85.5607 87.4795 85.1039 87.4795C84.6593 87.4795 84.3052 87.3103 84.0416 86.9719ZM89.5662 87.2839C89.3761 87.1411 89.281 86.9424 89.281 86.6878C89.281 86.1911 89.6428 85.9179 90.3664 85.8682L91.7 85.7797V86.2408C91.7 86.5978 91.5659 86.8966 91.2976 87.1372C91.0293 87.3779 90.6913 87.4982 90.2836 87.4982C89.9954 87.4982 89.7563 87.4268 89.5662 87.2839ZM91.0286 87.9872C91.2922 87.8443 91.5038 87.6394 91.6632 87.3724H91.7368V88.1129H92.491V84.676C92.491 84.1544 92.3277 83.7453 92.0012 83.4488C91.6747 83.1523 91.2095 83.0041 90.6055 83.0041C90.0782 83.0041 89.6351 83.126 89.2764 83.3697C88.9177 83.6134 88.7123 83.9371 88.6602 84.3407H89.4604C89.5156 84.142 89.6413 83.9883 89.8375 83.8796C90.0337 83.771 90.2805 83.7166 90.5779 83.7166C91.326 83.7166 91.7 84.0364 91.7 84.676V85.1324L90.2698 85.2209C89.0649 85.2923 88.4625 85.7875 88.4625 86.7065C88.4625 87.166 88.6211 87.53 88.9384 87.7986C89.2558 88.0671 89.6551 88.2014 90.1364 88.2014C90.4675 88.2014 90.7649 88.13 91.0286 87.9872ZM94.8838 88.1129V85.1417C94.8838 84.7008 95.0019 84.3546 95.2379 84.1032C95.474 83.8517 95.7898 83.7259 96.1853 83.7259C96.5808 83.7259 96.8743 83.8346 97.066 84.0519C97.2576 84.2693 97.3534 84.6046 97.3534 85.0579V88.1129H98.1444V84.8623C98.1444 84.2662 97.9949 83.8074 97.696 83.4861C97.3971 83.1648 96.9686 83.0041 96.4106 83.0041C96.0305 83.0041 95.7185 83.0817 95.4748 83.2369C95.231 83.3922 95.0463 83.608 94.9206 83.8843H94.847V83.0926H94.0928V83.6002V84.8553V86.3502V87.6053V88.1129H94.8838ZM100.986 89.6125C100.745 89.8236 100.405 89.9292 99.967 89.9292C99.9332 89.9292 99.8957 89.9284 99.8543 89.9268C99.8129 89.9253 99.7715 89.9222 99.7301 89.9175C99.6887 89.9129 99.6497 89.9074 99.6129 89.9012V89.2166C99.6619 89.2259 99.7156 89.2322 99.7738 89.2353C99.8321 89.2384 99.8888 89.2399 99.944 89.2399C100.171 89.2399 100.353 89.1786 100.491 89.056C100.629 88.9333 100.75 88.7199 100.855 88.4156L100.947 88.1176L99.1116 83.0926H99.967L101.328 87.2234H101.402L102.758 83.0926H103.6L101.664 88.4203C101.452 89.004 101.226 89.4014 100.986 89.6125ZM32.2428 88.189C32.1796 88.2446 32.0893 88.247 32.0198 88.2124C31.7049 87.9548 31.6474 87.8365 31.4748 87.5926C30.9553 88.1102 30.5861 88.2671 29.9116 88.2671C29.1141 88.2671 28.4931 87.7858 28.4931 86.8208C28.4931 86.0675 28.9087 85.5548 29.5048 85.3037C30.0203 85.0847 30.7379 85.0429 31.287 84.9833V84.8634C31.287 84.6429 31.3045 84.3805 31.1727 84.1914C31.0568 84.0199 30.8354 83.9491 30.6388 83.9491C30.2784 83.9491 29.9572 84.1302 29.8781 84.5044C29.8605 84.5898 29.7989 84.6719 29.7126 84.6767L28.7944 84.5793C28.7161 84.5624 28.629 84.5004 28.6521 84.3869C28.8623 83.294 29.8701 82.9648 30.7715 82.9648C31.235 82.9648 31.8376 83.0863 32.202 83.4276C32.6623 83.8493 32.6168 84.4087 32.6168 85.0236V86.4699C32.6168 86.9045 32.803 87.0944 32.9748 87.3287C33.0355 87.4148 33.0491 87.5138 32.9716 87.5757C32.779 87.7351 32.4338 88.0273 32.2459 88.1915L32.2428 88.189ZM31.287 85.9282V85.7262C30.5997 85.7262 29.8781 85.8695 29.8781 86.6606C29.8781 87.0631 30.0898 87.3343 30.4534 87.3343C30.7196 87.3343 30.9585 87.1725 31.1103 86.9126C31.2966 86.5906 31.287 86.2896 31.287 85.9282ZM44.6736 88.189C44.6121 88.2446 44.5194 88.247 44.4491 88.2124C44.1358 87.9548 44.0799 87.8365 43.9072 87.5926C43.387 88.1102 43.0186 88.2671 42.3433 88.2671C41.5465 88.2671 40.9248 87.7858 40.9248 86.8208C40.9248 86.0675 41.3403 85.5548 41.9341 85.3037C42.4504 85.0847 43.168 85.0429 43.7178 84.9833V84.8634C43.7178 84.6429 43.7362 84.3805 43.6028 84.1914C43.4893 84.0199 43.2663 83.9491 43.0713 83.9491C42.7093 83.9491 42.388 84.1302 42.3097 84.5044C42.2921 84.5898 42.2306 84.6719 42.1435 84.6767L41.2253 84.5793C41.147 84.5624 41.0598 84.5004 41.0838 84.3869C41.294 83.294 42.3001 82.9648 43.204 82.9648C43.6659 82.9648 44.2685 83.0863 44.6329 83.4276C45.0916 83.8493 45.05 84.4087 45.05 85.0236V86.4699C45.05 86.9045 45.2346 87.0944 45.4073 87.3287C45.4672 87.4148 45.4816 87.5138 45.4049 87.5757C45.2099 87.7351 44.8654 88.0273 44.6744 88.1915L44.6736 88.189ZM43.5412 86.9126C43.7266 86.5906 43.7178 86.2896 43.7178 85.9282V85.7262C43.0322 85.7262 42.3097 85.8695 42.3097 86.6606C42.3097 87.0631 42.5215 87.3343 42.8851 87.3343C43.1512 87.3343 43.3902 87.1725 43.5412 86.9126ZM55.4087 88.2019C55.3136 88.1963 55.2385 88.123 55.2385 88.0305L55.2369 83.2658C55.2441 83.1805 55.3248 83.1088 55.4191 83.1088H56.2966C56.3805 83.1137 56.4492 83.1708 56.466 83.2449V83.9716H56.4844C56.7497 83.3213 57.1221 83.0115 57.7774 83.0115C58.2017 83.0115 58.6173 83.162 58.8826 83.5708C59.1312 83.9531 59.1312 84.5938 59.1312 85.0566V88.053C59.1192 88.1367 59.0433 88.2019 58.9506 88.2019H57.9988C57.9117 88.1963 57.8405 88.1343 57.8301 88.053V85.4662C57.8301 84.9439 57.8909 84.1817 57.238 84.1817C57.0086 84.1817 56.7952 84.3322 56.6873 84.5648C56.5547 84.8546 56.5395 85.1451 56.5395 85.4662V88.0305C56.5363 88.1263 56.4548 88.2019 56.3525 88.2019H55.4087ZM52.3591 83.0115C53.7664 83.0115 54.5296 84.1922 54.5296 85.698C54.5296 87.1492 53.6865 88.3025 52.3591 88.3025C50.9782 88.3025 50.227 87.1194 50.227 85.6449C50.227 84.1632 50.987 83.0115 52.3591 83.0115ZM52.3687 83.9837C51.6686 83.9837 51.6239 84.9149 51.6239 85.4952C51.6239 86.0763 51.6159 87.3206 52.3591 87.3206C53.0927 87.3206 53.1279 86.3194 53.1279 85.7077C53.1279 85.3053 53.1111 84.8256 52.9888 84.4433C52.8818 84.1125 52.67 83.9837 52.3687 83.9837ZM34.8344 88.2019H33.8842C33.7947 88.1963 33.7236 88.1287 33.7156 88.0458V83.2827C33.7156 83.1877 33.7987 83.1088 33.8994 83.1088H34.7801C34.8736 83.1145 34.9479 83.1837 34.9543 83.2714V83.892H34.9711C35.2028 83.2907 35.6336 83.0115 36.2194 83.0115C36.8131 83.0115 37.1855 83.2907 37.4509 83.892C37.6794 83.2907 38.2021 83.0115 38.7599 83.0115C39.1587 83.0115 39.5934 83.1708 39.8595 83.5306C40.16 83.9322 40.0977 84.5149 40.0977 85.0252L40.0969 88.0305C40.0969 88.1263 40.0137 88.2019 39.9131 88.2019H38.9661C38.871 88.1963 38.7966 88.123 38.7966 88.0305V85.5057C38.7966 85.3053 38.8134 84.8047 38.7703 84.6139C38.6991 84.2936 38.4866 84.2026 38.2117 84.2026C37.9823 84.2026 37.7433 84.3531 37.6466 84.5938C37.5476 84.8352 37.5571 85.2352 37.5571 85.5057V88.0305C37.5571 88.1263 37.4764 88.2019 37.3741 88.2019H36.4255C36.3328 88.1963 36.2577 88.123 36.2577 88.0305V85.5057C36.2577 84.9753 36.3448 84.1922 35.6719 84.1922C34.9895 84.1922 35.0166 84.9552 35.0166 85.5057V88.0305C35.0166 88.1263 34.9343 88.2019 34.8344 88.2019ZM46.2032 83.9515V83.2714C46.2032 83.1676 46.2831 83.0992 46.3782 83.0992H49.4949C49.598 83.0992 49.6747 83.1692 49.6747 83.2706V83.8525C49.6739 83.9515 49.59 84.0795 49.4398 84.2807L47.8255 86.5383C48.4273 86.5246 49.0602 86.6115 49.6044 86.9109C49.7283 86.9777 49.7595 87.0792 49.7698 87.1765V87.9041C49.7698 88.0031 49.658 88.1182 49.5397 88.0595C48.5791 87.5661 47.3076 87.5138 46.2464 88.0635C46.1393 88.1222 46.0242 88.0071 46.0242 87.9073V87.2168C46.0242 87.1057 46.0274 86.9182 46.1409 86.7484L48.0117 84.1229H46.383C46.2831 84.1229 46.2032 84.0537 46.2032 83.9515ZM48.2427 89.2023C48.0141 88.919 46.7363 89.0679 46.1617 89.1347C45.989 89.1557 45.9619 89.0076 46.1193 88.8997C47.1374 88.1971 48.8053 88.4015 49.0019 88.6341C49.1961 88.8724 48.9507 90.5094 47.9949 91.2917C47.8479 91.4116 47.7072 91.3465 47.7752 91.1895C47.9869 90.6631 48.4704 89.4881 48.2427 89.2023ZM47.5002 90.0297C45.7197 91.3175 43.14 92 40.9176 92C37.8033 92 34.9974 90.8732 32.8749 88.9979C32.7095 88.8498 32.8581 88.6478 33.0571 88.7637C35.3483 90.0676 38.1797 90.8539 41.1038 90.8539C43.0769 90.8539 45.2458 90.4531 47.2421 89.6233C47.5418 89.5001 47.7967 89.8164 47.5002 90.0297ZM29.7785 74.022V63.6129H33.1726V73.8949C33.1726 76.3915 35.2208 77.0354 36.4267 77.0354C38.996 77.0354 39.8359 75.511 39.8359 74.6393V63.6129H43.2299V79.7694H41.2552L39.9598 77.9674C39.0344 79.0861 37.5224 80.1292 35.2703 80.1292C32.0314 80.1292 29.7785 77.9368 29.7785 74.022ZM68.3226 57.8534H71.636V65.1864C72.3888 64.223 73.8656 63.229 76.0337 63.229C79.1664 63.229 81.6965 65.093 81.6965 69.1631V74.1967C81.6965 78.2668 79.136 80.1308 76.1544 80.1308C73.9255 80.1308 72.3888 79.0749 71.4857 77.9561L70.2502 79.7582H68.3226V57.8534ZM75.201 77.0241C76.7969 77.0241 78.3832 75.8748 78.3832 73.948V69.4118C78.3832 67.4858 76.7969 66.3357 75.2314 66.3357C73.0017 66.3357 71.636 67.6283 71.636 69.3917V73.8192C71.584 76.0052 73.1032 77.0241 75.201 77.0241ZM55.6296 57.8647H58.9429V79.7694H57.0154L55.7807 77.9682C54.8768 79.0861 53.3409 80.1429 51.1112 80.1429C48.1296 80.1429 45.5691 78.2781 45.5691 74.2079V69.1752C45.5691 65.1043 48.0992 63.2403 51.2319 63.2403C53.4008 63.2403 54.8768 64.2343 55.6296 65.1977V57.8647ZM48.8824 73.96C48.8824 75.886 50.4687 77.0354 52.0654 77.0354C54.1624 77.0354 55.6816 76.0164 55.6288 73.8313L55.6296 69.403C55.6296 67.6404 54.2647 66.347 52.035 66.347C50.4687 66.347 48.8824 67.4971 48.8824 69.4231V73.96ZM83.9989 57.8655H87.3929V79.7702H83.9989V57.8655ZM61.9813 63.6129H65.3754V79.7694H61.9813V63.6129ZM63.6779 61.666C62.6119 61.666 61.7472 60.796 61.7472 59.7223C61.7472 58.6486 62.6119 57.7778 63.6779 57.7778C64.744 57.7778 65.6079 58.6486 65.6079 59.7223C65.6079 60.796 64.744 61.666 63.6779 61.666ZM96.7311 77.0354C98.4812 77.0354 99.6935 76.4197 100.569 75.1818L103.032 76.7134C102.093 78.8769 99.8534 80.1429 96.7311 80.1429C92.5667 80.1429 89.8823 77.9368 89.8823 74.2079V69.2372C89.8823 65.5703 92.5667 63.2403 96.7311 63.2403C100.741 63.2403 103.333 65.4464 103.333 69.1744V72.8099H93.2755V74.146C93.2755 75.8241 94.4167 77.0354 96.7311 77.0354ZM93.2755 69.1744V70.1998H99.9397V69.1744C99.9397 67.4971 98.7977 66.347 96.6072 66.347C94.4167 66.347 93.2755 67.4971 93.2755 69.1744ZM21.0358 63.2403C25.3544 63.2403 27.453 65.5397 27.453 68.7092V79.7694H25.4783L24.182 77.9674C23.2566 79.0861 21.56 80.1429 19.2768 80.1429C16.3775 80.1429 14 78.5581 14 75.3886C14 70.904 19.1386 70.1934 21.214 70.1934L24.059 70.1893V68.9265C24.059 67.3418 23.1024 66.347 21.0358 66.347C19.5965 66.347 18.5384 66.4742 17.4308 68.2505L14.7792 66.5884C15.6087 64.5771 17.7432 63.2403 21.0358 63.2403ZM24.059 74.5967V72.5821H22.5981C20.6825 72.6578 17.5618 73.0787 17.5618 75.016C17.5618 76.3834 18.7334 77.0354 20.3381 77.0354C21.8749 77.0354 23.1671 76.3279 23.685 75.5874C24.0278 75.156 24.0326 74.843 24.059 74.5967Z" fill="white"/>
<path fill-rule="evenodd" clip-rule="evenodd" d="M111.2 64.1829L126 54.7159V57.2729L111.2 66.7407L96.4 57.2729V54.7159L111.2 64.1829ZM111.196 52.3463C114.529 52.3463 117.466 54.0867 119.186 56.7288H119.183L117.005 58.1234C113.728 53.6557 107.733 52.8821 103.58 56.406C103.458 56.5092 103.34 56.6157 103.224 56.7239L103.21 56.7222C104.93 54.0843 107.865 52.3463 111.196 52.3463ZM111.196 56.6925C113.011 56.6925 114.615 57.6189 115.581 59.0341H115.58L113.478 60.3791C112.499 58.9977 111.071 58.1267 109.481 58.1267C108.514 58.1267 107.608 58.4495 106.825 59.0118C107.794 57.609 109.39 56.6925 111.196 56.6925ZM101.192 52.8747C100.66 53.3057 100.067 53.9241 99.6084 54.4178C102.101 50.5315 106.411 48 111.195 48C116.048 48 120.317 50.5562 122.788 54.4269V54.4261L120.532 55.8644L120.502 55.8165C115.909 49.2591 107.286 47.9364 101.192 52.8747Z" fill="#F7991C"/>
</g>
<defs>
<clipPath id="clip0_2753_302">
<rect width="112" height="44" fill="white" transform="translate(14 48)"/>
</clipPath>
</defs>
</svg>
