<svg width="140" height="140" viewBox="0 0 140 140" fill="none" xmlns="http://www.w3.org/2000/svg">
<rect width="140" height="140" rx="30" fill="black"/>
<g clip-path="url(#clip0_2643_332)">
<path d="M17.8327 81.8183V78.9907L20.3286 78.506V61.6212L17.8327 61.1365V58.2927H20.3286H28.251C31.0099 58.2927 33.1623 58.8313 34.7081 59.9085C36.2539 60.9857 37.0268 62.5961 37.0268 64.7396C37.0268 65.8276 36.737 66.8024 36.1573 67.6642C35.5884 68.5151 34.7564 69.1561 33.6614 69.5869C34.5954 69.7916 35.3737 70.1524 35.9963 70.6695C36.6297 71.1865 37.102 71.8167 37.4132 72.5599C37.7246 73.2924 37.8802 74.0949 37.8802 74.9674C37.8802 77.2188 37.1395 78.926 35.6581 80.0894C34.1767 81.242 32.078 81.8183 29.3621 81.8183H17.8327ZM25.0305 78.199H29.3621C30.6073 78.199 31.5573 77.9296 32.2122 77.3911C32.867 76.8418 33.1944 76.0339 33.1944 74.9674C33.1944 73.8149 32.9153 72.9369 32.3572 72.3337C31.7989 71.7198 30.9186 71.4127 29.7163 71.4127H25.0305V78.199ZM25.0305 68.1489H28.412C29.6681 68.1489 30.6342 67.8904 31.3105 67.3733C31.9867 66.8563 32.3249 66.1023 32.3249 65.1113C32.3249 64.0233 31.9814 63.2208 31.2943 62.7038C30.618 62.1867 29.6036 61.9282 28.251 61.9282H25.0305V68.1489ZM42.5307 81.8183V78.9907L44.2052 78.7483L51.6607 58.2927H56.4753L63.8825 78.7483L65.5571 78.9907V81.8183H57.5703V78.9907L59.1966 78.6998L58.166 75.4684H49.9216L48.891 78.6998L50.5174 78.9907V81.8183H42.5307ZM51.0327 71.9944H57.055L54.3176 63.9317L54.0922 63.2208H53.9955L53.754 63.9802L51.0327 71.9944ZM70.4168 81.8183V78.9907L72.9126 78.506V61.6212L70.4168 61.1365V58.2927H72.9126H77.679L87.888 74.6119L87.9845 74.5958V61.6212L84.9896 61.1365V58.2927H92.1873H94.6993V61.1365L92.1873 61.6212V81.8183H87.6464L77.212 65.6606L77.1154 65.6768V78.506L80.1265 78.9907V81.8183H70.4168ZM105.758 76.05L103.327 73.2547L114.808 61.3788L114.84 61.3304L112.521 61.1365V58.2927H122.167V61.1365L119.961 61.5727L105.758 76.05ZM99.5429 81.8183V78.9907L102.039 78.506V61.6212L99.5429 61.1365V58.2927H109.124V61.1365L106.741 61.6212V78.506L109.124 78.9907V81.8183H99.5429ZM113.037 81.8183V78.9907L115.227 78.7969H115.243L109.285 70.5564L112.393 67.438L120.701 78.5867L123.004 78.9907V81.8183H113.037Z" fill="#F4CB9D"/>
</g>
<defs>
<clipPath id="clip0_2643_332">
<rect width="106" height="26" fill="white" transform="translate(17 57)"/>
</clipPath>
</defs>
</svg>
