<svg width="140" height="140" viewBox="0 0 140 140" fill="none" xmlns="http://www.w3.org/2000/svg">
<rect width="140" height="140" rx="30" fill="black"/>
<g clip-path="url(#clip0_1643_18957)">
<path d="M15 41.0137C16.6251 41.0137 18.1484 41.0137 19.6717 41.0137C24.3615 41.0137 29.0513 41.0228 33.7411 41C34.273 40.9977 34.54 41.1547 34.7483 41.6505C35.5088 43.4745 36.3191 45.2803 37.1973 47.2931C37.4689 46.6972 37.7156 46.2719 37.8605 45.8148C38.0891 45.0961 38.4829 44.8573 39.2728 44.8596C52.2128 44.8914 65.1527 44.8823 78.0926 44.8823C85.1273 44.8823 92.162 44.8823 99.1989 44.8823C99.5045 44.8823 99.8123 44.8823 100.197 44.8823V60.5456H102.528C102.528 59.9452 102.528 59.3584 102.528 58.7739C102.519 56.1357 102.497 53.4998 102.508 50.8615C102.508 50.4521 102.587 50.0109 102.748 49.6357C103.902 46.9588 105.093 44.2955 106.256 41.6232C106.426 41.2275 106.605 41 107.107 41C113.266 41.025 119.425 41.0228 125.586 41.0273C125.694 41.0273 125.805 41.0478 125.984 41.066V54.2435H120.088V67.2367H126V80.6371H102.474V82.5475H112.291C112.248 82.8136 112.248 82.9796 112.193 83.1229C111.562 84.7604 110.942 86.4025 110.267 88.0241C110.167 88.2675 109.814 88.5631 109.579 88.5654C105.285 88.595 100.989 88.5836 96.6956 88.5768C96.6164 88.5768 96.5372 88.5313 96.3855 88.4835V72.5518H92.5196V86.05H86.2296V72.4813C84.618 72.4813 83.1015 72.4813 81.5873 72.4813C80.3168 72.4813 79.4816 71.8771 79.0817 70.6687C78.1469 67.8462 77.1872 65.0329 76.2864 62.1991C76.094 61.5918 75.802 61.4349 75.2045 61.4417C72.803 61.4736 70.4015 61.4736 68.0001 61.4417C67.4003 61.4326 67.1151 61.6009 66.9159 62.1968C65.8521 65.3945 64.7249 68.5695 63.6566 71.7649C63.4732 72.313 63.2378 72.5109 62.6516 72.4972C60.8183 72.454 58.9826 72.4813 57.0338 72.4813V86.0432H50.8389V72.5245H37.057V74.9308H47.0907V88.5449C46.7715 88.5631 46.4976 88.5904 46.2215 88.5904C42.1247 88.5927 38.028 88.579 33.9312 88.6063C33.3291 88.6109 33.0281 88.4267 32.8108 87.8603C32.1499 86.1501 31.4324 84.4625 30.6787 82.6294H40.778V80.6621H15V41.0137ZM30.9616 77.146C30.9865 76.8276 31.0499 76.5751 31.0204 76.3318C30.6696 73.4138 31.5365 70.7415 32.6569 68.1214C32.7338 67.9395 32.8266 67.7575 32.8651 67.5665C32.976 67.007 33.3178 66.8842 33.8452 66.9047C34.8501 66.9433 35.8573 66.916 36.9257 66.916C36.8963 64.6781 37.3263 62.5016 35.9705 60.5706C35.7464 60.25 35.6446 59.8474 35.4363 59.5108C34.8954 58.6375 34.7392 57.7027 34.7641 56.6793C34.8094 54.7256 35.0833 52.6924 34.6577 50.8342C34.2254 48.9488 33.062 47.2317 32.2178 45.4418C32.1702 45.3394 32.1069 45.2417 32.0729 45.1348C31.8986 44.5753 31.5501 44.3911 30.9457 44.3956C27.1907 44.4274 23.4335 44.4115 19.6785 44.4138C19.4318 44.4138 19.185 44.4365 18.8976 44.4502V77.1482H30.9638L30.9616 77.146ZM105.174 77.1187H122.435V71.1076H113.185V63.6251H116.369V57.8505H113.18V50.973H122.422V44.4684C122.283 44.4411 122.202 44.4138 122.121 44.4138C117.94 44.4092 113.762 44.3979 109.581 44.432C109.312 44.432 108.913 44.714 108.796 44.9687C108.008 46.6608 107.263 48.3734 106.544 50.0974C106.376 50.4999 106.283 50.9684 106.283 51.4051C106.265 56.2517 106.272 61.1006 106.272 65.9494C106.272 66.2497 106.272 66.5499 106.272 66.9138C107.44 66.9138 108.483 66.8956 109.525 66.9274C109.765 66.9342 110.143 67.0548 110.215 67.2253C110.932 68.9402 111.6 70.6778 112.327 72.52H102.497V75.0263H105.179V77.121L105.174 77.1187ZM47.3985 66.8614H54.2023C54.234 66.7341 54.2725 66.6568 54.2702 66.5772C54.1819 62.6676 54.0937 58.758 53.9918 54.8484C53.985 54.6028 53.9013 54.3481 53.8039 54.1184C53.048 52.3489 52.2626 50.5932 51.5292 48.8146C51.321 48.3097 51.0448 48.1642 50.5175 48.1687C47.5252 48.1937 44.5307 48.2006 41.5385 48.1642C40.9568 48.1573 40.692 48.3757 40.4589 48.8624C39.7029 50.4453 38.8858 51.9987 38.1411 53.5862C37.9329 54.0297 37.7971 54.5505 37.7948 55.0372C37.7654 58.6648 37.779 62.2923 37.779 65.9199C37.779 66.2246 37.779 66.5294 37.779 66.841H44.6711V64.8236H47.3985V66.8592V66.8614ZM83.9798 54.5277H88.579V48.2347H72.4839V54.5755H77.099C77.099 56.7907 77.0945 58.8854 77.1035 60.98C77.1035 61.3166 77.108 61.6737 77.2167 61.983C77.7441 63.4772 78.2986 64.9624 78.8735 66.4384C78.9482 66.6317 79.1949 66.8865 79.3669 66.891C80.8811 66.9274 82.3954 66.9115 83.9775 66.9115V54.53L83.9798 54.5277ZM66.6624 54.5209H71.2616V48.2256H55.171V54.5596H59.7816V66.9138C61.151 66.9138 62.4434 66.891 63.7335 66.9251C64.2677 66.9388 64.528 66.7864 64.6932 66.2451C65.2025 64.5962 65.8091 62.9746 66.3138 61.3235C66.5175 60.6593 66.6239 59.9475 66.6465 59.2515C66.6963 57.7277 66.6624 56.1994 66.6624 54.5187V54.5209ZM89.8103 48.2347V66.8387H105.131V64.2141H96.3402V48.2324H89.808L89.8103 48.2347Z" fill="white"/>
<path d="M63.3283 76.375C63.618 75.5357 63.8647 74.8216 64.1114 74.1075C65.3201 70.605 66.54 67.1071 67.7193 63.5932C67.9252 62.9769 68.2195 62.779 68.8623 62.7949C70.7817 62.8404 72.701 62.7904 74.6204 62.8359C74.8898 62.8427 75.3085 63.1111 75.3922 63.3522C76.8816 67.5665 78.3302 71.7945 79.7855 76.0179C79.8127 76.093 79.8127 76.1771 79.8421 76.3727C77.9318 76.3727 76.0554 76.3909 74.1791 76.3431C74.0002 76.3386 73.749 75.9588 73.6675 75.7086C72.9998 73.6367 72.3661 71.5534 71.6508 69.2495C71.4811 69.7112 71.3724 69.9796 71.2864 70.2548C70.7115 72.0901 70.1524 73.9301 69.5526 75.7586C69.4734 75.9974 69.1995 76.3431 69.0094 76.3477C67.1579 76.3932 65.3065 76.375 63.3237 76.375H63.3283Z" fill="white"/>
<path d="M64.1251 92.3498C62.7444 90.4076 61.4746 88.6404 60.2343 86.8505C60.0985 86.6549 60.0374 86.3047 60.1121 86.0841C61.0038 83.4276 61.9296 80.7826 62.8485 78.1375C62.8734 78.0648 62.9481 78.0079 63.05 77.8828C64.528 78.9768 66.006 80.0571 67.4636 81.1647C67.5949 81.2647 67.69 81.5741 67.6379 81.731C66.4994 85.2221 65.336 88.7064 64.1251 92.3498Z" fill="white"/>
<path d="M80.2452 77.8192C81.0555 80.1526 81.7322 82.4042 82.6263 84.5626C83.2012 85.9522 83.1061 86.9961 82.1125 88.1492C81.0306 89.4069 80.1546 90.842 79.1225 92.2907C78.9912 91.9769 78.8849 91.7631 78.8102 91.5357C77.7645 88.3948 76.7346 85.2494 75.6731 82.1131C75.4943 81.5855 75.5146 81.2671 76.0216 80.9145C77.4136 79.9525 78.7558 78.9154 80.2452 77.8169V77.8192Z" fill="white"/>
<path d="M38.3744 94.5241V97.872C39.0375 97.872 39.7007 97.872 40.3639 97.872C41.5499 97.872 42.736 97.8469 43.9197 97.8811C44.6191 97.9015 44.9066 97.6013 44.8771 96.828H39.2028V95.7136H46.3099C46.3099 96.5256 46.38 97.3193 46.2759 98.088C46.2352 98.3837 45.8459 98.7248 45.5335 98.8636C45.194 99.0159 44.7617 98.9818 44.3679 98.9818C42.3625 98.9909 40.3594 98.9955 38.354 98.9818C37.3106 98.975 36.9643 98.6361 36.9439 97.6218C36.9235 96.6302 36.9258 95.6386 36.9439 94.647C36.9597 93.8009 37.2811 93.4643 38.1367 93.4575C40.4228 93.4393 42.7111 93.4484 44.9971 93.4529C45.6512 93.4529 46.1492 93.6849 46.3099 94.5219H38.3721L38.3744 94.5241Z" fill="white"/>
<path d="M106.227 94.6083H98.3229V95.6567H106.245C106.245 96.6097 106.272 97.4785 106.224 98.3427C106.215 98.5269 105.971 98.7839 105.781 98.8567C105.473 98.9727 105.12 98.9977 104.785 99C102.637 99.0068 100.491 98.9886 98.3433 98.9932C97.628 98.9932 97.0735 98.818 96.9264 97.906H104.801V96.8007H96.9241C96.9241 95.9933 96.8743 95.2633 96.9377 94.5423C96.9988 93.8646 97.4424 93.4643 98.135 93.462C100.48 93.4506 102.825 93.4461 105.17 93.4665C105.772 93.4711 106.161 93.7963 106.224 94.6083H106.227Z" fill="white"/>
<path d="M84.0159 94.5423V95.634H89.6993V96.778H84.0272C84.0113 97.1464 83.9978 97.4421 83.9797 97.8287H91.8971C91.9401 98.6589 91.4534 98.9523 90.865 98.9614C88.4092 98.9955 85.9511 98.9864 83.4953 98.9614C82.9204 98.9545 82.5718 98.6748 82.5967 97.9948C82.6397 96.8621 82.6375 95.725 82.5967 94.5924C82.5718 93.8668 82.9181 93.487 83.5722 93.4779C86.028 93.4461 88.4861 93.4279 90.9419 93.4939C91.3176 93.503 91.682 93.9783 92.0532 94.2398C92.0057 94.3399 91.9605 94.44 91.9129 94.5401H84.0159V94.5423Z" fill="white"/>
<path d="M71.5831 97.3374C72.966 96.1252 74.2766 95.0085 75.5441 93.8463C75.9673 93.4574 76.4177 93.3437 76.8252 93.6507C77.1036 93.8623 77.3322 94.3035 77.3548 94.6583C77.425 95.6726 77.3797 96.6938 77.3797 97.715C77.3797 98.8112 77.2688 98.9136 76.0239 98.9204V95.3974C74.4644 96.662 73.0588 97.8014 71.6057 98.9795C70.1707 97.8173 68.7742 96.6847 67.2351 95.4361V98.9067C65.9268 98.9158 65.8318 98.8317 65.8295 97.7377C65.8295 96.7188 65.7752 95.6954 65.8567 94.6833C65.8861 94.308 66.1554 93.86 66.4542 93.6212C66.8458 93.3073 67.2555 93.512 67.6402 93.8668C68.9077 95.029 70.2183 96.1457 71.5831 97.3443V97.3374Z" fill="white"/>
<path d="M52.6744 97.9379C52.645 98.2745 52.6201 98.577 52.5929 98.8749C51.3503 98.9454 51.253 98.8544 51.2507 97.6695C51.2507 96.7052 51.2394 95.7409 51.2553 94.7766C51.2711 93.8441 51.6265 93.4643 52.5296 93.4575C54.7885 93.4438 57.0496 93.4415 59.3108 93.4575C60.2433 93.4643 60.5851 93.8282 60.5964 94.7515C60.6077 95.7432 60.6009 96.737 60.5986 97.7286C60.5986 98.8203 60.4719 98.934 59.2632 98.9022C59.2406 98.6043 59.218 98.2995 59.1885 97.9356H52.6744V97.9379ZM59.1772 96.7325V94.6538H52.6903V96.7325H59.1772Z" fill="white"/>
<path d="M25.4321 63.691H30.0201V70.5209H25.4321V63.691Z" fill="white"/>
<path d="M28.0983 57.8323H25.4434V50.7523H28.0983V57.8323Z" fill="white"/>
<path d="M44.7119 54.5891H47.342V59.1673H44.7119V54.5891Z" fill="white"/>
</g>
<defs>
<clipPath id="clip0_1643_18957">
<rect width="111" height="58" fill="white" transform="translate(15 41)"/>
</clipPath>
</defs>
</svg>
