<svg width="140" height="140" viewBox="0 0 140 140" fill="none" xmlns="http://www.w3.org/2000/svg">
<rect width="140" height="140" rx="30" fill="white"/>
<path d="M66.6872 47.7662H77.9384L70.9087 81.2876C70.4004 88.8441 79.1426 81.4737 81.2835 79.0021C93.6429 64.7252 87.5828 43.0449 69.0715 38.1919C52.1884 33.7656 33.7744 39.8459 26.5429 56.3023C16.3672 79.456 27.9334 102.186 53.8394 103.929C66.7617 104.798 78.5169 103.034 87.7961 93.5568C88.0883 93.259 88.0897 92.6847 88.1355 92.6847H97.2773C89.2453 109.327 70.0925 112.767 53.1535 111.631C20.1777 109.42 5.81491 77.447 21.2689 49.6364C39.216 17.3379 98.3313 23.5785 95.1623 65.1333C94.1742 78.0842 83.7035 92.0862 70.0424 93.0527C65.291 93.3893 61.0953 93.5239 59.1263 88.4818C53.7994 94.1353 43.9516 94.7454 37.8828 90.0241C25.8871 80.6918 32.099 57.9404 43.3688 50.2879C49.986 45.7943 60.5526 44.9938 65.4543 52.3213L66.6844 47.7662H66.6872ZM53.9368 54.5194C41.3898 56.424 36.3721 88.4962 52.3674 85.2355C63.3035 83.0074 69.3479 52.1796 53.9368 54.5194Z" fill="#FF6600"/>
<path d="M124 29.519C118.53 41.2484 114.343 53.807 113.787 66.8767C113.121 82.5355 117.29 97.537 123.649 111.636H115.738C103.779 93.9112 99.0678 72.1149 105.19 51.2781C107.472 43.511 111.525 36.4527 115.561 29.519H124Z" fill="#FF6600"/>
</svg>
