<svg width="140" height="140" viewBox="0 0 140 140" fill="none" xmlns="http://www.w3.org/2000/svg">
<rect width="140" height="140" rx="30" fill="#EC7C2D"/>
<path d="M87.7777 91.3671C85.2514 95.8022 82.7223 100.243 80.0853 104.875C81.784 105.921 83.4274 106.923 85.062 107.936C86.7899 109.009 86.7811 109.009 85.7672 110.744C84.9484 112.148 84.1325 113.552 83.3516 114.98C82.9612 115.692 82.5649 115.841 81.8452 115.388C79.995 114.222 78.1039 113.132 76.0934 111.93C74.8755 114.056 73.6721 116.079 72.5474 118.148C72.1161 118.944 71.6995 119.266 70.8487 118.75C69.1412 117.716 67.4133 116.708 65.6767 115.725C64.8201 115.239 65.024 114.655 65.4028 113.993C66.5712 111.948 67.7338 109.898 68.9838 107.701C66.8859 106.36 64.9191 105.027 62.8766 103.826C61.8509 103.224 61.7431 102.717 62.4599 101.763C63.4914 100.389 64.418 98.9319 65.3387 97.4774C65.8341 96.6905 66.3556 96.5504 67.1365 97.0481C69.0246 98.2553 70.9361 99.4237 72.9699 100.687C74.2199 98.5265 75.4524 96.4133 76.6675 94.2911C77.8417 92.2404 78.9664 90.157 80.1785 88.1301C80.6622 87.3194 80.6535 86.8336 79.9047 86.1421C76.1779 82.6875 73.7158 78.4282 72.5911 73.4059C69.622 60.148 77.7252 47.2598 89.9484 43.9186C102.979 40.3537 114.934 47.5549 119.31 58.777C120.91 62.8813 121.391 67.1406 120.68 71.5907C119.287 80.2941 114.651 86.4699 107.038 90.3268C101.172 93.2955 95.0388 93.54 88.8091 91.5549C88.5789 91.4803 88.3517 91.3969 88.1186 91.3254C88.0778 91.3134 88.0253 91.3343 87.7777 91.3701V91.3671ZM81.5043 67.7844C81.1168 76.5117 88.4158 83.233 96.3733 83.2568C104.847 83.2836 111.627 76.4729 111.65 67.9066C111.673 59.5072 104.899 52.5802 96.7084 52.4819C88.5003 52.3805 81.1284 59.3552 81.5043 67.7844Z" fill="white"/>
<path d="M59.8394 30.3015C57.9002 29.3224 56.0605 28.39 54.2209 27.4605C54.2062 27.3148 54.1887 27.1662 54.174 27.0205C55.3633 26.4494 56.5409 25.8492 57.7478 25.3131C61.5208 23.6318 65.3173 22.003 69.0698 20.2839C70.1537 19.7856 70.6224 19.8672 70.804 21.1463C71.4836 25.9337 72.2628 30.7094 72.9512 35.4967C73.1475 36.8662 72.7696 37.0673 71.4924 36.4554C70.0511 35.7677 68.607 35.0859 67.072 34.3574C64.3389 38.9933 61.6468 43.5825 58.9254 48.1542C58.4333 48.9788 58.9372 49.3809 59.4498 49.8617C63.006 53.2096 65.4608 57.2248 66.5681 61.9714C69.105 72.869 64.2041 83.886 54.0129 89.1512C42.4302 95.1332 28.7296 91.4356 21.7138 80.4856C18.4593 75.4127 17.4369 69.8736 18.2835 63.8275C19.6105 54.3693 27.3352 45.8232 37.6378 43.734C41.5192 42.9473 45.465 42.9648 49.323 44.2119C51.397 44.882 51.3794 44.8238 52.4896 42.9152C54.6603 39.1885 56.872 35.4851 59.0602 31.77C59.3268 31.3184 59.5523 30.8463 59.8394 30.3044V30.3015ZM57.6775 67.5717C58.0759 59.4452 50.7086 52.5103 42.5884 52.5803C34.3335 52.6502 27.3499 59.0955 27.3968 67.56C27.4436 76.0188 33.7417 82.5311 42.5093 82.6302C51.0982 82.7263 57.9324 75.9401 57.6775 67.5717Z" fill="white"/>
</svg>
