<svg width="140" height="140" viewBox="0 0 140 140" fill="none" xmlns="http://www.w3.org/2000/svg">
<rect width="140" height="140" rx="30" fill="white"/>
<path fill-rule="evenodd" clip-rule="evenodd" d="M33 35L47.3967 37.6477V56.3332C51.3524 53.9268 55.9974 52.5408 60.966 52.5408C75.4059 52.5408 87.1118 64.2466 87.1118 78.6865C87.1118 93.1264 75.4059 104.832 60.966 104.832C55.9974 104.832 51.3524 103.446 47.3967 101.04V104.832H33V35ZM73.2114 78.6865C73.2114 85.4495 67.7289 90.932 60.9659 90.932C54.203 90.932 48.7205 85.4495 48.7205 78.6865C48.7205 71.9235 54.203 66.441 60.9659 66.441C67.7289 66.441 73.2114 71.9235 73.2114 78.6865Z" fill="black"/>
<circle cx="98.8536" cy="96.7237" r="8.10848" fill="black"/>
</svg>
