<svg width="140" height="140" viewBox="0 0 140 140" fill="none" xmlns="http://www.w3.org/2000/svg">
<rect width="140" height="140" rx="30" fill="white"/>
<g clip-path="url(#clip0_3614_1176)">
<path d="M13.0741 83.6974C11.8986 83.5276 10.7002 83.4718 9.53952 83.2061C9.39392 83.8434 9.06983 86.4342 8.69145 86.7852C8.31306 87.1362 6.08801 87.11 6 86.2824C7.52011 75.9192 9.37336 65.6042 10.9584 55.2491C11.4906 53.4137 15.9975 53.5482 15.3756 56.0053C15.7326 56.0389 16.1234 56.0504 16.4762 56.0963C23.3644 56.9977 31.1764 57.124 38.1197 56.6934C41.7892 56.4654 45.3295 55.6723 48.985 55.3139C55.0778 54.7169 61.3449 55.1114 67.4426 55.934C68.3137 56.0512 69.184 56.1989 70.0444 56.3727C70.1522 56.4392 70.1045 56.4925 70.0921 56.5811C69.9622 57.4693 69.6002 58.6954 69.3847 59.6107C67.5422 67.4225 65.6141 75.2114 63.8743 83.0609C63.482 83.6121 63.0156 83.6129 62.3608 83.5292C56.6546 82.801 50.8991 82.0686 45.0893 82.3007C39.7977 82.5123 34.632 83.9163 29.3955 84.1107C25.1527 84.2674 20.3925 84.155 16.1579 83.8606C15.1486 83.79 14.0933 83.4013 13.0741 83.6974ZM51.382 59.6107C51.5045 59.8788 51.8146 59.9945 51.9857 60.2053C52.1568 60.416 52.615 61.2985 52.615 61.5355V63.3382C52.615 63.3759 52.4529 63.4834 52.6117 63.5875C52.717 63.6482 52.8322 63.617 52.9432 63.6252L52.8609 64.4437L56.9713 64.5258C56.1372 69.2194 54.8804 73.8409 54.094 78.5354C54.2577 78.5403 54.4238 78.5288 54.5875 78.5354L54.4271 79.3506L59.0162 79.5893L62.2399 65.186L66.7508 65.9134L67.5726 62.441C67.515 62.2007 66.8611 62.4008 66.6719 62.2302C66.7023 62.0981 66.653 61.8947 66.6924 61.7192C66.8216 61.146 67.093 60.3225 67.1317 59.7681C67.1407 59.6426 67.098 59.6541 67.0823 59.609C67.0717 59.5778 67.1136 59.4975 67.0675 59.4622C67.0396 59.4409 66.4407 59.2785 66.3865 59.2785C62.3995 59.2367 58.2915 59.3244 54.3021 59.4491C53.3282 59.4794 52.337 59.3728 51.3803 59.6098L51.382 59.6107ZM50.8892 60.7572C50.2624 60.1659 49.6792 59.7468 48.7933 59.6098L35.3904 59.6074C34.6155 59.6664 33.9057 60.0601 33.6482 60.8204C32.9688 65.4812 31.4528 70.2011 30.7733 74.8325C30.6713 75.5247 30.6006 76.0487 30.8317 76.7344C30.775 79.7714 33.83 79.6016 36.055 79.5237C39.4703 79.4031 42.9005 78.9775 46.324 78.8618C47.3333 78.8274 48.3508 78.8905 49.3601 78.87C49.6998 77.8965 49.8076 76.859 50.0543 75.8617C50.1424 75.5074 50.4393 75.2893 50.2221 74.8595C50.1925 74.8341 49.9581 74.8374 49.903 74.8513C49.9227 74.5881 49.9449 74.6217 49.7023 74.6036C49.3535 74.5782 48.9718 74.5364 48.6321 74.52C44.7438 74.3371 40.4393 74.8489 36.6234 74.5266C36.4054 74.5085 36.1998 74.4667 36.0098 74.3592C36.0863 73.7876 36.1521 72.8108 36.3594 72.2908C36.4013 72.1867 36.4466 72.1153 36.5609 72.0817L49.9745 71.3994C50.4122 69.1374 51.0316 66.8943 51.4412 64.6275C51.6485 63.4801 52.031 61.8521 51.1385 60.9007C51.0472 60.8031 50.932 60.7999 50.8892 60.7588V60.7572ZM11.183 78.5362C11.1608 78.8667 11.1978 79.1874 11.1016 79.5187C12.9589 79.6016 14.8015 80.0264 16.6506 80.174C19.4852 80.3996 22.9408 80.3282 25.7746 80.0108C27.5727 79.8091 28.5236 79.8304 29.064 77.8826C29.4202 76.5999 30.3875 72.263 30.2485 71.1287C30.2263 70.9466 30.1021 70.8171 30.0906 70.7539C30.0544 70.5579 30.0634 70.0838 30.0083 69.9346C30.2699 69.6287 30.5043 69.3941 30.7083 69.0349C31.2208 68.1319 32.0861 63.9648 31.9718 62.9396C31.9529 62.7707 31.9175 62.4762 31.7349 62.3975C31.7036 60.7588 30.7042 59.9264 29.1356 59.7041L15.133 59.6976C14.076 65.2885 12.6513 70.8138 11.5375 76.3916C11.3936 77.1133 11.2307 77.8293 11.183 78.537V78.5362Z" fill="url(#paint0_linear_3614_1176)"/>
<path d="M98.0759 63.6252L98.9487 59.5237L113.329 59.5253C114.976 59.6459 115.898 60.4873 115.907 62.1785L112.569 78.3541L112.424 78.4591L97.7971 78.4451C96.0162 78.1688 95.4569 76.4219 95.716 74.8324C96.022 72.9527 96.5698 70.0674 97.1135 68.2779C97.4006 67.3322 98.0044 66.7409 99.0186 66.654L110.357 66.6622C110.468 66.6318 110.827 64.5913 110.815 64.4142C110.798 64.1681 110.425 63.626 110.202 63.626H98.0768L98.0759 63.6252ZM109.585 70.589H101.898C101.787 70.589 101.279 70.9966 101.199 71.1205C101.039 71.369 100.614 73.2586 100.618 73.5801C100.625 74.1771 101.078 74.5126 101.649 74.5249L108.752 74.5109L109.585 70.589H109.585Z" fill="#04335D"/>
<path d="M134 59.5286L133.126 63.6145L122.368 63.6252C121.949 63.6703 121.498 63.9106 121.308 64.2895C120.54 67.4355 119.765 70.6283 119.281 73.8302C119.32 74.1648 119.661 74.4035 119.982 74.442C121.787 74.6561 124.032 74.2936 125.884 74.4215C127.072 74.1812 127.005 72.4958 127.34 71.5723H122.079L122.953 67.5684C123.405 67.6348 123.928 67.47 124.341 67.4692C126.717 67.461 129.1 67.6217 131.495 67.5618C131.897 67.552 132.394 67.3125 132.77 67.6127L130.836 76.9C130.586 77.725 130.019 78.377 129.111 78.4582C125.151 78.1982 120.766 78.7937 116.855 78.4582C114.902 78.2909 114.015 76.7335 114.293 74.9152C114.99 70.3618 116.369 65.7067 117.169 61.1508C117.311 60.452 118.189 59.5294 118.913 59.5294H133.998L134 59.5286Z" fill="#04335D"/>
<path d="M85.498 59.6106L84.6648 63.6145L76.0961 63.6358L75.9776 63.763L75.387 66.7384H84.0182L83.0616 70.6595L74.5751 70.6817L72.9201 78.4541H68.1525L72.304 59.6106H85.498Z" fill="#04335D"/>
<path d="M69.3855 59.6106C69.708 59.7295 70.584 59.7713 70.8176 59.9288C70.9163 59.9952 70.8645 60.115 70.8579 60.2126L64.5299 86.6408C62.6619 86.3644 60.8226 85.924 58.9611 85.6074C52.0968 84.442 45.063 83.9893 38.1065 84.5986C36.5996 84.7307 35.1041 85.03 33.5882 85.0932C26.6917 85.3786 19.857 84.6782 13.0741 83.6973C14.0933 83.4012 15.1486 83.79 16.1579 83.8605C20.3925 84.1549 25.1527 84.2673 29.3955 84.1107C34.6328 83.9171 39.7985 82.513 45.0893 82.3006C50.8991 82.0677 56.6546 82.8009 62.3608 83.5292C63.0156 83.6128 63.482 83.612 63.8743 83.0609C65.6141 75.2113 67.5422 67.4224 69.3847 59.6106H69.3855Z" fill="#04335D"/>
<path d="M91.4172 59.6105L88.3753 74.4395H94.7461C94.7758 74.4395 94.8835 74.5592 94.8539 74.6248L94.3217 76.7884C94.4722 77.0902 94.2115 77.0615 94.2049 77.1099C94.1917 77.2165 94.3003 77.342 94.2978 77.424C94.2962 77.4732 94.135 77.4609 94.1251 77.5216C94.093 77.7233 94.2287 78.1679 94.047 78.4524H82.9489L86.8536 59.6089H91.4164L91.4172 59.6105Z" fill="#04335D"/>
<path d="M31.7349 62.3959C31.7539 63.3923 31.0868 66.5294 30.7298 67.498C30.4962 68.1327 30.1416 68.5461 29.5469 68.8602C29.3816 68.948 29.0295 68.9234 29.2393 69.121C29.3413 69.2178 29.5041 69.2818 29.6407 69.44C29.6909 69.4991 29.9977 69.9042 30.0084 69.9338C30.0627 70.083 30.0544 70.5571 30.0906 70.7531L28.7169 77.1264C28.3797 77.9523 27.7521 78.4608 26.8464 78.5395L11.183 78.5362C11.2308 77.8276 11.3928 77.1125 11.5376 76.3907C12.6513 70.813 14.076 65.2877 15.133 59.6968L29.1356 59.7033C30.7051 59.9256 31.7045 60.7589 31.7349 62.3967V62.3959ZM26.7206 64.6086C26.6761 63.9648 26.6432 63.7794 25.9325 63.6326L18.8329 63.6294L18.1699 66.6967C18.1675 66.7795 18.7137 66.727 18.8288 66.7385C20.6048 66.9157 23.5775 66.9755 25.3674 66.823C25.7631 66.7894 26.2599 66.6475 26.4557 66.2694C26.5569 66.075 26.7748 65.0203 26.7864 64.7849C26.7929 64.6627 26.7214 64.6193 26.7206 64.6086ZM25.2408 71.8176C25.2827 71.0967 24.9932 70.7966 24.2858 70.6801L17.3523 70.6744C17.3416 71.1632 16.4656 74.4626 16.6087 74.6037C16.7839 74.6684 16.9846 74.5307 17.1023 74.5216C19.2015 74.3593 21.5589 74.7086 23.6409 74.5249C24.1081 74.4839 24.5391 74.2699 24.7645 73.8417C24.9274 73.5309 25.2194 72.1892 25.2408 71.8176Z" fill="#FCFDFD"/>
<path d="M50.8893 60.7571C51.1624 61.396 51.2274 61.9873 51.2923 62.6738L49.5732 71.0794L36.1464 71.077C36.0246 71.1057 35.6027 73.2454 35.5944 73.4964C35.5813 73.8933 35.6471 74.1533 36.0098 74.3575C36.1998 74.465 36.4055 74.5068 36.6235 74.5248C40.4394 74.8472 44.7439 74.3346 48.6322 74.5183C48.9719 74.5347 49.3535 74.5765 49.7023 74.6019C49.945 74.62 49.9219 74.5863 49.903 74.8496C49.8512 74.8627 49.7665 74.9407 49.7451 74.9981L48.9201 78.4992L34.0793 78.5361C32.838 78.4271 31.2784 78.0605 30.8309 76.7343C30.5998 76.0495 30.6714 75.5254 30.7725 74.8324C31.452 70.2011 32.968 65.4811 33.6474 60.8203C33.9057 60.0608 34.6148 59.6672 35.3896 59.6073L48.7926 59.6098C49.6785 59.7467 50.2617 60.1658 50.8885 60.7571H50.8893ZM46.1208 64.2805C45.9934 63.8499 45.7935 63.6998 45.3419 63.6235C43.1473 63.7818 40.6746 63.4193 38.5137 63.6219C37.9494 63.6752 37.6689 63.8647 37.4855 64.3994C37.2067 65.2105 37.1935 66.1971 36.913 67.0238C36.9097 67.1001 37.3827 67.0632 37.4896 67.0657C40.2535 67.1255 43.028 67.0206 45.7926 67.0657C45.7745 66.166 46.3742 65.1375 46.1208 64.2796V64.2805Z" fill="#FCFDFD"/>
<path d="M67.084 59.6106C67.0996 59.6565 67.1424 59.645 67.1333 59.7697C67.0947 60.3241 66.8232 61.1475 66.6941 61.7208C66.6546 61.8963 66.704 62.0997 66.6735 62.2318C66.6694 62.2482 66.5682 62.3089 66.5485 62.3909C66.5016 62.5861 66.3338 63.5989 66.2088 63.6285L61.8615 63.7031L58.6962 78.5321C57.3316 78.5017 55.953 78.5854 54.5892 78.5362C54.4255 78.5304 54.2593 78.5411 54.0956 78.5362C54.8828 73.8417 56.1397 69.2202 56.973 64.5265L57.2189 63.626C55.823 63.5514 54.3284 63.7244 52.9448 63.626C52.8338 63.6178 52.7186 63.6498 52.6133 63.5883C52.4546 63.4841 52.6166 63.3767 52.6166 63.339V61.5363C52.6166 61.2993 52.1576 60.416 51.9874 60.206C51.8171 59.9961 51.5062 59.8788 51.3836 59.6114H67.0848L67.084 59.6106Z" fill="#FCFDFD"/>
<path d="M30.0906 70.753C30.1022 70.8162 30.2255 70.9458 30.2486 71.1278C30.3884 72.2621 29.4202 76.599 29.0641 77.8817C28.5236 79.8303 27.5719 79.809 25.7746 80.0099C22.9417 80.3273 19.4852 80.3987 16.6507 80.1732C14.8007 80.0263 12.9582 79.6015 11.1016 79.5179C11.1987 79.1857 11.1617 78.8658 11.1831 78.5353L26.8464 78.5386C27.7521 78.4607 28.3797 77.9514 28.7169 77.1255L30.0906 70.7522V70.753Z" fill="#04335D"/>
<path d="M66.6727 62.2325C66.8611 62.4031 67.5159 62.203 67.5735 62.4433L66.7517 65.9158L62.2407 65.1883L59.0171 79.5916L54.428 79.353L54.5884 78.5378C55.9522 78.5878 57.33 78.5041 58.6955 78.5337L61.8607 63.7047L66.208 63.6301C66.3338 63.6005 66.5008 62.5877 66.5477 62.3925C66.5675 62.3105 66.6686 62.2498 66.6727 62.2334V62.2325Z" fill="#04335D"/>
<path d="M50.8892 60.7571C50.932 60.7981 51.0472 60.8014 51.1385 60.899C52.031 61.8503 51.6485 63.4783 51.4412 64.6257C51.0307 66.8934 50.4121 69.1356 49.9745 71.3976L36.5609 72.0799C36.4466 72.1136 36.4013 72.1849 36.3594 72.2891C36.1521 72.809 36.0863 73.7858 36.0098 74.3575C35.647 74.1533 35.5812 73.8933 35.5944 73.4963C35.6026 73.2462 36.0246 71.1056 36.1463 71.0769L49.5731 71.0794L51.2923 62.6737C51.2273 61.9881 51.1631 61.396 50.8892 60.7571Z" fill="#04335D"/>
<path d="M49.9022 74.8488C49.9573 74.8349 50.1909 74.8324 50.2213 74.857C50.4385 75.2868 50.1416 75.5049 50.0535 75.8592C49.8068 76.8565 49.699 77.894 49.3593 78.8675C48.35 78.8872 47.3325 78.8249 46.3232 78.8593C42.8997 78.9758 39.4695 79.4006 36.0542 79.5212C33.8292 79.5999 30.7742 79.7697 30.8309 76.7319C31.2776 78.058 32.838 78.4246 34.0792 78.5337L48.92 78.4968L49.7451 74.9956C49.7665 74.9382 49.8512 74.8603 49.903 74.8472L49.9022 74.8488Z" fill="#04335D"/>
<path d="M30.0083 69.9337C29.9976 69.905 29.6908 69.499 29.6406 69.4399C29.5041 69.2817 29.3412 69.2177 29.2392 69.1209C29.0303 68.9233 29.3815 68.947 29.5468 68.8601C30.1407 68.546 30.4961 68.1326 30.7297 67.4978C31.0867 66.5293 31.7538 63.3922 31.7349 62.3958C31.9175 62.4745 31.9528 62.7689 31.9718 62.9379C32.0861 63.963 31.2208 68.1302 30.7083 69.0331C30.5043 69.3924 30.2699 69.6269 30.0083 69.9328V69.9337Z" fill="#04335D"/>
<path d="M52.944 63.6252C54.3276 63.7245 55.8222 63.5514 57.2181 63.6252L56.9721 64.5257L52.8618 64.4437L52.944 63.6252Z" fill="#04335D"/>
<path d="M51.382 59.6106C52.3386 59.3735 53.3298 59.4802 54.3037 59.4498C58.2924 59.3252 62.4003 59.2374 66.3881 59.2792C66.4424 59.2792 67.0412 59.4416 67.0692 59.4629C67.1144 59.4982 67.0725 59.5786 67.084 59.6097H51.3828L51.382 59.6106Z" fill="#04335D"/>
<path d="M25.2407 71.8176C25.2193 72.1891 24.9273 73.5308 24.7645 73.8417C24.5399 74.2698 24.1089 74.483 23.6408 74.5248C21.5581 74.7086 19.2006 74.3584 17.1022 74.5216C17.173 73.8269 17.3071 73.0675 17.4716 72.3908C17.5143 72.2153 17.581 71.715 17.7299 71.665C19.2615 71.6289 20.7947 71.6749 22.3264 71.6576C22.5205 71.6552 22.7006 71.5723 22.8948 71.5691C23.6449 71.5568 24.5851 71.4575 25.2407 71.8176Z" fill="#036FA5"/>
<path d="M26.7205 64.6085C26.7205 64.6191 26.7929 64.6626 26.7863 64.7848C26.774 65.0202 26.556 66.0749 26.4557 66.2693C26.2591 66.6474 25.7631 66.7892 25.3674 66.8229C23.5775 66.9746 20.6047 66.9155 18.8288 66.7384L19.2434 64.6118C20.6228 64.4953 22.0088 64.5708 23.3949 64.5297C24.1278 64.5076 24.9536 64.3846 25.689 64.3592C26.088 64.3452 26.4129 64.3239 26.7205 64.6085Z" fill="#036B9F"/>
<path d="M25.2407 71.8176C24.5852 71.4583 23.6441 71.5559 22.8948 71.5682C22.7006 71.5715 22.5205 71.6543 22.3264 71.6568C20.7948 71.674 19.2615 71.6281 17.7299 71.6642C17.581 71.715 17.5143 72.2145 17.4716 72.39C17.3079 73.0675 17.173 73.8261 17.1022 74.5207C16.9846 74.5298 16.7847 74.6684 16.6087 74.6028C16.4656 74.4625 17.3416 71.1631 17.3523 70.6735L24.2857 70.6792C24.9931 70.7957 25.2819 71.0958 25.2407 71.8167V71.8176Z" fill="#04335D"/>
<path d="M26.7205 64.6085C26.4129 64.3239 26.088 64.3453 25.689 64.3592C24.9537 64.3846 24.1278 64.5085 23.3949 64.5298C22.0089 64.5708 20.6228 64.4953 19.2434 64.6118L18.8288 66.7384C18.7136 66.7269 18.1675 66.7794 18.1699 66.6966L18.8329 63.6293L25.9325 63.6326C26.6432 63.7794 26.6761 63.9647 26.7205 64.6085Z" fill="#04335D"/>
<path d="M46.1208 64.2805C46.3741 65.1384 45.7745 66.1668 45.7926 67.0665C43.0279 67.0214 40.2534 67.1256 37.4896 67.0665C37.5957 66.4563 37.659 65.2056 38.1452 64.8111C38.6593 64.3937 40.3694 64.4954 41.0653 64.4437C42.3575 64.3486 43.9188 64.1099 45.1855 64.1255C45.4635 64.1288 45.8386 64.2337 46.1224 64.2813L46.1208 64.2805Z" fill="#034F75"/>
<path d="M46.1208 64.2805C45.837 64.2329 45.4628 64.1287 45.1839 64.1246C43.9172 64.109 42.3567 64.3485 41.0637 64.4428C40.3678 64.4937 38.6576 64.392 38.1435 64.8103C37.6582 65.2048 37.5941 66.4563 37.488 67.0657C37.3818 67.0632 36.908 67.1001 36.9113 67.0238C37.1918 66.1971 37.205 65.2105 37.4838 64.3994C37.6673 63.8646 37.9478 63.6744 38.5121 63.6219C40.6729 63.4193 43.1456 63.781 45.3402 63.6235C45.7918 63.7006 45.9925 63.8507 46.1192 64.2805H46.1208Z" fill="#04335D"/>
<path d="M69.1684 84.2107L69.2506 81.7273H68.2792V81.3779H70.6408V81.7273H69.6693L69.5871 84.2107H69.1675H69.1684Z" fill="#04335D"/>
<path d="M70.95 84.2107L71.0323 81.3779H71.4518V82.5999H73.0476V81.3779H73.4671L73.3849 84.2107H72.9653L73.0476 82.9485H71.4518L71.3696 84.2107H70.95Z" fill="#04335D"/>
<path d="M74.0536 84.2107L74.1359 81.3779H75.9982V81.7117H74.543V82.604H75.9052V82.9419H74.543L74.4608 83.8744H75.9159V84.2123H74.0536V84.2107Z" fill="#04335D"/>
<path d="M78.1928 84.2107L78.275 81.7273H77.3036V81.3779H79.6652V81.7273H78.6937L78.6114 84.2107H78.1919H78.1928Z" fill="#04335D"/>
<path d="M79.782 82.7918C79.782 82.4941 79.8346 82.2374 79.9391 82.02C80.0436 81.8027 80.1966 81.6354 80.3964 81.5181C80.5963 81.4 80.8349 81.3409 81.1121 81.3409C81.3893 81.3409 81.6229 81.4 81.8211 81.5181C82.0202 81.6362 82.174 81.8035 82.2826 82.02C82.3912 82.2365 82.4455 82.4932 82.4455 82.7877C82.4455 83.0821 82.3089 83.3429 82.2003 83.5611C82.0918 83.7792 81.9371 83.9482 81.7372 84.0671C81.5373 84.186 81.3013 84.2459 81.0298 84.2459C80.7584 84.2459 80.5149 84.186 80.3166 84.0671C80.1176 83.9482 79.9654 83.7792 79.8593 83.5611C79.7532 83.3429 79.782 83.0862 79.782 82.7918ZM80.2221 82.7918C80.2221 83.1346 80.2146 83.4028 80.3652 83.5955C80.5157 83.7882 80.737 83.885 81.0298 83.885C81.3226 83.885 81.5349 83.7891 81.6912 83.598C81.8466 83.4069 82.007 83.1379 82.007 82.7926C82.007 82.4473 81.9297 82.1791 81.7751 81.9889C81.6204 81.7986 81.3991 81.7034 81.1121 81.7034C80.825 81.7034 80.5971 81.7986 80.4474 81.9889C80.2969 82.1791 80.2221 82.4473 80.2221 82.7926V82.7918Z" fill="#04335D"/>
<path d="M82.9365 84.2107L83.0188 81.3779H84.2238C84.5274 81.3779 84.7602 81.4509 84.923 81.5969C85.0859 81.7429 85.1665 81.9446 85.1665 82.2013C85.1665 82.4581 85.0851 82.6606 84.923 82.8083C84.7602 82.9559 84.5274 83.0289 84.2238 83.0289H83.4383L83.356 84.2107H82.9365ZM83.4383 82.6951H84.1802C84.3711 82.6951 84.515 82.6524 84.6113 82.5663C84.7083 82.481 84.756 82.3588 84.756 82.2005C84.756 82.0422 84.7075 81.925 84.6113 81.8388C84.5142 81.7536 84.3711 81.7101 84.1802 81.7101H83.4383V82.6943V82.6951Z" fill="#04335D"/>
<path d="M86.6504 82.7918C86.6504 82.4941 86.7031 82.2374 86.8075 82.02C86.912 81.8027 87.065 81.6354 87.2649 81.5181C87.4648 81.4 87.7033 81.3409 87.9805 81.3409C88.2577 81.3409 88.4913 81.4 88.6896 81.5181C88.8886 81.6362 89.0424 81.8035 89.151 82.02C89.2596 82.2365 89.3139 82.4932 89.3139 82.7877C89.3139 83.0821 89.1773 83.3429 89.0688 83.5611C88.9602 83.7792 88.8055 83.9482 88.6057 84.0671C88.4058 84.186 88.1697 84.2459 87.8983 84.2459C87.6268 84.2459 87.3833 84.186 87.1851 84.0671C86.986 83.9482 86.8338 83.7792 86.7277 83.5611C86.6216 83.3429 86.6504 83.0862 86.6504 82.7918ZM87.0897 82.7918C87.0897 83.1346 87.0823 83.4028 87.2328 83.5955C87.3833 83.7882 87.6046 83.885 87.8974 83.885C88.1903 83.885 88.4025 83.7891 88.5588 83.598C88.7142 83.4069 88.8746 83.1379 88.8746 82.7926C88.8746 82.4473 88.7973 82.1791 88.6427 81.9889C88.488 81.7986 88.2668 81.7034 87.9797 81.7034C87.6926 81.7034 87.4648 81.7986 87.3151 81.9889C87.1645 82.1791 87.0897 82.4473 87.0897 82.7926V82.7918Z" fill="#04335D"/>
<path d="M89.805 84.2107L89.8872 81.3779H91.7092V81.7117H90.3068V82.6196H91.6163V82.9534H90.3068L90.2245 84.2115H89.805V84.2107Z" fill="#04335D"/>
<path d="M94.5043 84.2467C94.1901 84.2467 93.9261 84.1885 93.7122 84.072C93.4983 83.9556 93.3379 83.7891 93.2302 83.5717C93.1224 83.3544 93.1512 83.096 93.1512 82.7959C93.1512 82.4957 93.208 82.2374 93.3223 82.02C93.4366 81.8027 93.6003 81.6354 93.8142 81.5181C94.0281 81.4 94.2847 81.3409 94.5858 81.3409C94.793 81.3409 94.9724 81.3696 95.1262 81.4271C95.2792 81.4845 95.4166 81.5681 95.5375 81.678L95.3886 82.0036C95.3022 81.9314 95.2191 81.874 95.1385 81.8306C95.0579 81.7871 94.9748 81.7559 94.8885 81.7363C94.8021 81.7166 94.7017 81.7059 94.5866 81.7059C94.2617 81.7059 94.0141 81.801 93.8446 81.9913C93.6752 82.1816 93.5904 82.4506 93.5904 82.7992C93.5904 83.1477 93.5896 83.4225 93.7517 83.607C93.9145 83.7915 94.1704 83.8842 94.5191 83.8842C94.64 83.8842 94.7593 83.8727 94.8778 83.8498C94.9962 83.8268 95.1106 83.7932 95.2208 83.7472L95.1402 83.9441L95.2224 83.0157H94.5208V82.7024H95.5728L95.4906 84.0408C95.3672 84.1024 95.2159 84.1524 95.0374 84.1893C94.8589 84.227 94.6803 84.2459 94.5035 84.2459L94.5043 84.2467Z" fill="#04335D"/>
<path d="M95.8344 84.2107L97.1826 81.3779H97.5412L98.7447 84.2107H98.3136L97.9632 83.407L98.1409 83.5193H96.4201L96.6093 83.407L96.2589 84.2107H95.8361H95.8344ZM97.3553 81.8356L96.7425 83.2782L96.6455 83.1855H98.0767L97.9961 83.2782L97.3718 81.8356H97.3553Z" fill="#04335D"/>
<path d="M99.123 84.2107L99.2053 81.3779H99.5722L100.586 83.8416H100.465L101.644 81.3779H102.007L101.925 84.2107H101.546L101.628 81.9438H101.761L100.655 84.2107H100.392L99.4504 81.9438H99.5878L99.5055 84.2107H99.123Z" fill="#04335D"/>
<path d="M102.602 84.2107L102.684 81.3779H104.546V81.7117H103.091V82.604H104.453V82.9419H103.091L103.009 83.8744H104.464V84.2123H102.602V84.2107Z" fill="#04335D"/>
<path d="M105.903 84.2467C105.674 84.2467 105.468 84.218 105.282 84.1606C105.096 84.1032 104.935 84.0204 104.798 83.9138L104.939 83.5841C105.03 83.6538 105.125 83.7112 105.222 83.7571C105.32 83.803 105.426 83.8367 105.537 83.8596C105.648 83.8826 105.769 83.8941 105.901 83.8941C106.126 83.8941 106.293 83.8539 106.399 83.7735C106.505 83.6931 106.558 83.5873 106.558 83.4561C106.558 83.3438 106.603 83.2568 106.529 83.1945C106.455 83.133 106.326 83.0838 106.14 83.046L105.701 82.9575C105.44 82.9042 105.246 82.8164 105.119 82.6942C104.991 82.572 104.927 82.4055 104.927 82.1939C104.927 82.0225 104.973 81.8724 105.064 81.7437C105.156 81.6149 105.282 81.5157 105.445 81.446C105.608 81.3762 105.798 81.3418 106.015 81.3418C106.217 81.3418 106.402 81.3705 106.571 81.4279C106.741 81.4853 106.883 81.5706 106.998 81.683L106.861 82.0004C106.74 81.8962 106.611 81.8191 106.474 81.7691C106.337 81.7199 106.182 81.6945 106.007 81.6945C105.8 81.6945 105.639 81.7371 105.522 81.8232C105.405 81.9093 105.347 82.0258 105.347 82.1726C105.347 82.2907 105.384 82.3826 105.458 82.4498C105.532 82.5171 105.654 82.5679 105.826 82.6024L106.265 82.6868C106.537 82.7434 106.737 82.8295 106.866 82.946C106.995 83.0625 106.977 83.2224 106.977 83.4266C106.977 83.5898 106.933 83.7333 106.846 83.8563C106.759 83.9794 106.635 84.0753 106.474 84.1434C106.312 84.2115 106.121 84.2459 105.901 84.2459L105.903 84.2467Z" fill="#04335D"/>
<path d="M107.48 82.663V82.1848H107.96V82.663H107.48ZM107.398 84.2106V83.7324H107.878V84.2106H107.398Z" fill="#04335D"/>
<path d="M110.308 84.2107L109.395 81.3779H109.83L110.574 83.8252H110.425L111.382 81.3779H111.7L112.44 83.8252H112.303L113.24 81.3779H113.651L112.565 84.2107H112.207L111.491 81.8799H111.576L110.664 84.2107H110.309H110.308Z" fill="#04335D"/>
<path d="M114.024 84.2107L114.106 81.3779H115.968V81.7117H114.513V82.604H115.875V82.9419H114.513L114.431 83.8744H115.886V84.2123H114.024V84.2107Z" fill="#04335D"/>
<path d="M116.406 84.2107L116.488 81.3779H116.908L116.826 83.8531H118.22V84.2107H116.406Z" fill="#04335D"/>
<path d="M119.76 84.2467C119.469 84.2467 119.223 84.1877 119.018 84.0696C118.814 83.9515 118.657 83.7833 118.548 83.5652C118.439 83.347 118.467 83.0887 118.467 82.7918C118.467 82.4949 118.522 82.2374 118.63 82.02C118.739 81.8027 118.896 81.6354 119.1 81.5181C119.304 81.4 119.552 81.3409 119.842 81.3409C120.043 81.3409 120.224 81.3705 120.382 81.4295C120.541 81.4886 120.679 81.5739 120.798 81.687L120.653 82.0208C120.524 81.9109 120.398 81.8322 120.276 81.7838C120.154 81.7354 120.012 81.7116 119.851 81.7116C119.545 81.7116 119.311 81.8051 119.149 81.993C118.988 82.1808 118.907 82.4473 118.907 82.7926C118.907 83.1379 118.906 83.4052 119.067 83.5947C119.228 83.7841 119.462 83.8776 119.769 83.8776C119.93 83.8776 120.071 83.8539 120.194 83.8055C120.317 83.7571 120.442 83.6767 120.571 83.5643L120.715 83.8981C120.597 84.0105 120.459 84.0974 120.3 84.1573C120.141 84.2172 119.961 84.2475 119.76 84.2475V84.2467Z" fill="#04335D"/>
<path d="M121.14 82.7918C121.14 82.4941 121.193 82.2374 121.297 82.02C121.402 81.8027 121.555 81.6354 121.754 81.5181C121.954 81.4 122.193 81.3409 122.47 81.3409C122.747 81.3409 122.981 81.4 123.179 81.5181C123.378 81.6362 123.532 81.8035 123.641 82.02C123.749 82.2365 123.803 82.4932 123.803 82.7877C123.803 83.0821 123.667 83.3429 123.558 83.5611C123.45 83.7792 123.295 83.9482 123.095 84.0671C122.895 84.186 122.659 84.2459 122.388 84.2459C122.116 84.2459 121.873 84.186 121.675 84.0671C121.476 83.9482 121.323 83.7792 121.217 83.5611C121.111 83.3429 121.14 83.0862 121.14 82.7918ZM121.579 82.7918C121.579 83.1346 121.572 83.4028 121.722 83.5955C121.873 83.7882 122.094 83.885 122.387 83.885C122.68 83.885 122.892 83.7891 123.048 83.598C123.204 83.4069 123.364 83.1379 123.364 82.7926C123.364 82.4473 123.287 82.1791 123.132 81.9889C122.978 81.7986 122.756 81.7034 122.469 81.7034C122.182 81.7034 121.954 81.7986 121.805 81.9889C121.654 82.1791 121.579 82.4473 121.579 82.7926V82.7918Z" fill="#04335D"/>
<path d="M124.299 84.2107L124.381 81.3779H124.748L125.762 83.8416H125.641L126.82 81.3779H127.183L127.1 84.2107H126.721L126.803 81.9438H126.937L125.83 84.2107H125.568L124.626 81.9438H124.763L124.681 84.2107H124.299Z" fill="#04335D"/>
<path d="M127.776 84.2107L127.859 81.3779H129.721V81.7117H128.266V82.604H129.628V82.9419H128.266L128.184 83.8744H129.639V84.2123H127.776V84.2107Z" fill="#04335D"/>
<path d="M130.179 83.4266L130.132 81.3771H130.636L130.428 83.4266H130.178H130.179ZM130.062 84.2107V83.7325H130.541V84.2107H130.062Z" fill="#04335D"/>
</g>
<defs>
<linearGradient id="paint0_linear_3614_1176" x1="6" y1="70.4994" x2="70.1133" y2="70.4994" gradientUnits="userSpaceOnUse">
<stop stop-color="#038FD6"/>
<stop offset="0.490385" stop-color="#024B70"/>
<stop offset="1" stop-color="#038FD6"/>
</linearGradient>
<clipPath id="clip0_3614_1176">
<rect width="128" height="33" fill="white" transform="translate(6 54)"/>
</clipPath>
</defs>
</svg>
