<svg width="140" height="140" viewBox="0 0 140 140" fill="none" xmlns="http://www.w3.org/2000/svg">
<rect width="140" height="140" rx="30" fill="white"/>
<g clip-path="url(#clip0_3599_987)">
<path d="M70.5 34.5787C89.7532 34.5787 105.421 50.2468 105.421 69.5C105.421 88.7532 89.7532 104.421 70.5 104.421C51.2468 104.421 35.5787 88.7532 35.5787 69.5C35.5787 50.2468 51.2468 34.5787 70.5 34.5787ZM70.5 25C45.9237 25 26 44.9237 26 69.5C26 94.0763 45.9237 114 70.5 114C95.0763 114 115 94.0763 115 69.5C115 44.9237 95.0763 25 70.5 25Z" fill="#00B7CD"/>
<path d="M90.8069 59.8118L50.1931 69.3905V59.9349L90.8069 50.3562V59.8118Z" fill="#F37161"/>
<path d="M90.8069 79.0649L50.1931 88.6437V79.1881L90.8069 69.6094V79.0649Z" fill="#007B78"/>
</g>
<defs>
<clipPath id="clip0_3599_987">
<rect width="89" height="89" fill="white" transform="translate(26 25)"/>
</clipPath>
</defs>
</svg>
