<svg width="140" height="140" viewBox="0 0 140 140" fill="none" xmlns="http://www.w3.org/2000/svg">
<rect width="140" height="140" rx="30" fill="white"/>
<g clip-path="url(#clip0_824_1209)">
<path fill-rule="evenodd" clip-rule="evenodd" d="M34.4501 93.6337C26.821 93.6337 20.6162 87.1585 20.6162 79.1956C20.6162 71.2327 26.821 64.7574 34.4501 64.7574H113.152C120.781 64.7574 126.986 71.2327 126.986 79.1956C126.986 87.1585 120.781 93.6337 113.152 93.6337H34.4501Z" fill="#F39200"/>
<path fill-rule="evenodd" clip-rule="evenodd" d="M34.4503 67.067C28.0622 67.067 23.042 72.3945 23.042 79.1956C23.042 85.9967 28.0481 91.3384 34.4503 91.3384H113.152C119.54 91.3384 124.561 86.0109 124.561 79.1956C124.561 72.3804 119.555 67.067 113.152 67.067H34.4503Z" fill="#FFED00"/>
<path fill-rule="evenodd" clip-rule="evenodd" d="M52.317 78.8414H52.6555C53.4452 78.8414 54.7707 78.8839 54.7707 77.7504C54.7707 76.5035 53.4593 76.631 52.585 76.631H52.317V78.8414ZM52.317 74.6474H52.6132C53.3183 74.6474 54.0516 74.5199 54.0516 73.6556C54.0516 72.7062 53.2195 72.6637 52.5004 72.6637H52.317V74.6616V74.6474ZM49.6518 80.8959V70.6234H53.4452C55.2643 70.6234 56.4912 71.3319 56.4912 73.3013C56.4912 74.2223 56.195 74.9733 55.363 75.3983V75.4267C56.8296 75.6109 57.4501 76.6169 57.4501 78.0479C57.4501 80.2016 55.6168 80.9101 53.7413 80.9101H49.6377L49.6518 80.8959Z" fill="#E30613"/>
<path fill-rule="evenodd" clip-rule="evenodd" d="M60.9897 80.9101H58.5219V73.9106H60.9897V80.9101ZM61.1448 71.6294C61.1448 72.3945 60.5243 73.018 59.7628 73.018C59.0013 73.018 58.3809 72.3945 58.3809 71.6294C58.3809 70.8643 59.0013 70.2408 59.7628 70.2408C60.5243 70.2408 61.1448 70.8643 61.1448 71.6294Z" fill="#E30613"/>
<path fill-rule="evenodd" clip-rule="evenodd" d="M67.1946 76.3761C67.0677 75.7101 66.4613 75.2709 65.7985 75.2709C65.0793 75.2709 64.4871 75.6535 64.332 76.3761H67.1946ZM69.4932 77.8071H64.3037C64.3037 78.8131 64.8396 79.3657 65.8549 79.3657C66.3908 79.3657 66.7575 79.1957 67.0395 78.7281H69.4086C69.2253 79.5499 68.7317 80.145 68.0971 80.5417C67.4625 80.9385 66.6728 81.1227 65.869 81.1227C63.5564 81.1227 61.8359 79.8191 61.8359 77.3962C61.8359 74.9733 63.4153 73.6556 65.6857 73.6556C68.0971 73.6556 69.4932 75.1575 69.4932 77.5379V77.793V77.8071Z" fill="#E30613"/>
<path fill-rule="evenodd" clip-rule="evenodd" d="M72.4968 77.3962C72.4968 78.2747 73.0749 78.9689 74.0903 78.9689C75.1056 78.9689 75.6697 78.2888 75.6697 77.3962C75.6697 76.5035 75.0915 75.8093 74.0903 75.8093C73.089 75.8093 72.4968 76.5319 72.4968 77.3962ZM75.585 80.1025H75.5568C75.1197 80.7967 74.2736 81.1085 73.4557 81.1085C71.3968 81.1085 69.9443 79.3798 69.9443 77.3679C69.9443 75.3559 71.3686 73.6414 73.4275 73.6414C74.2313 73.6414 75.0633 73.939 75.585 74.5482V70.5809H78.0529V80.8534H75.585V80.0741V80.1025Z" fill="#E30613"/>
<path fill-rule="evenodd" clip-rule="evenodd" d="M81.8033 75.0441H81.8315C82.311 74.1798 83.1148 73.7972 84.0878 73.7972H84.5673V76.1776C84.2288 75.9793 83.9045 75.9509 83.5237 75.9509C82.1559 75.9509 81.8174 76.8719 81.8174 78.0621V80.8817H79.3496V73.8823H81.8174V75.0299L81.8033 75.0441Z" fill="#E30613"/>
<path fill-rule="evenodd" clip-rule="evenodd" d="M87.2891 77.3962C87.2891 78.2747 87.8672 78.969 88.8826 78.969C89.8979 78.969 90.462 78.2889 90.462 77.3962C90.462 76.5036 89.8838 75.8093 88.8826 75.8093C87.8813 75.8093 87.2891 76.5319 87.2891 77.3962ZM93.0708 77.3962C93.0708 79.7625 91.1247 81.1227 88.8826 81.1227C86.6404 81.1227 84.6943 79.7908 84.6943 77.3962C84.6943 75.0017 86.6545 73.6556 88.8826 73.6556C91.1106 73.6556 93.0708 75.0017 93.0708 77.3962Z" fill="#E30613"/>
<path fill-rule="evenodd" clip-rule="evenodd" d="M96.3854 74.7892H96.4136C96.9776 73.939 97.6686 73.6556 98.6416 73.6556C100.517 73.6556 101.265 74.8458 101.265 76.5603V80.8818H98.7968V77.4671C98.7968 76.8011 98.9096 75.6251 97.6827 75.6251C96.6815 75.6251 96.3995 76.3761 96.3995 77.2404V80.8676H93.9316V73.8682H96.3995V74.775L96.3854 74.7892Z" fill="#E30613"/>
<path fill-rule="evenodd" clip-rule="evenodd" d="M105.071 76.4185L107.638 73.8964H111.022L107.525 77.1269L111.234 80.8817H107.779L105.071 78.0338V80.8817H102.604V70.6517H105.071V76.4185Z" fill="#E30613"/>
<path fill-rule="evenodd" clip-rule="evenodd" d="M113.716 77.3961C113.716 78.2746 114.294 78.9689 115.31 78.9689C116.325 78.9689 116.889 78.2888 116.889 77.3961C116.889 76.5035 116.311 75.8092 115.31 75.8092C114.308 75.8092 113.716 76.5318 113.716 77.3961ZM119.286 80.8817H116.818V80.1024H116.79C116.353 80.7967 115.507 81.1084 114.689 81.1084C112.63 81.1084 111.178 79.3798 111.178 77.3678C111.178 75.3558 112.602 73.6414 114.661 73.6414C115.465 73.6414 116.297 73.9389 116.818 74.5482V73.8681H119.286V80.8675V80.8817Z" fill="#E30613"/>
<path fill-rule="evenodd" clip-rule="evenodd" d="M53.0786 83.6872C52.7965 83.3755 52.3735 83.1913 51.9504 83.1913C50.9915 83.1913 50.4415 83.999 50.4415 84.8066C50.4415 85.6142 51.0056 86.3793 51.9363 86.3793C52.3594 86.3793 52.7965 86.1668 53.0786 85.8834V86.9744C52.6978 87.1303 52.3312 87.2578 51.9222 87.2578C50.4838 87.2578 49.4121 86.1243 49.4121 84.8349C49.4121 83.5456 50.4415 82.327 51.9363 82.327C52.3312 82.327 52.726 82.4262 53.0786 82.5962V83.6872Z" fill="#210810"/>
<path fill-rule="evenodd" clip-rule="evenodd" d="M54.5449 85.6142C54.5449 86.0251 54.841 86.4643 55.3346 86.4643C55.8281 86.4643 56.1243 86.0251 56.1243 85.6142C56.1243 85.2033 55.8281 84.764 55.3346 84.764C54.841 84.764 54.5449 85.2033 54.5449 85.6142ZM57.0832 85.6142C57.0832 86.5635 56.3781 87.2294 55.3346 87.2294C54.291 87.2294 53.5859 86.5493 53.5859 85.6142C53.5859 84.679 54.3051 83.9847 55.3346 83.9847C56.364 83.9847 57.0832 84.6649 57.0832 85.6142Z" fill="#210810"/>
<path fill-rule="evenodd" clip-rule="evenodd" d="M60.0452 85.6C60.0452 85.1891 59.749 84.7499 59.2555 84.7499C58.7619 84.7499 58.4658 85.1891 58.4658 85.6C58.4658 86.0109 58.7619 86.4502 59.2555 86.4502C59.749 86.4502 60.0452 85.9967 60.0452 85.6ZM59.9464 86.8469C59.749 87.1019 59.3965 87.2294 59.0439 87.2294C58.0709 87.2294 57.5068 86.4218 57.5068 85.5858C57.5068 84.7499 58.0709 83.9706 59.0298 83.9706C59.3824 83.9706 59.7349 84.1123 59.9464 84.3531V82.3837H60.9054V87.1161H59.9464V86.8327V86.8469Z" fill="#210810"/>
<path fill-rule="evenodd" clip-rule="evenodd" d="M64.5436 86.3935V87.1303H61.3848L63.077 84.8208H61.6386V84.084H64.6564L62.9642 86.3935H64.5436Z" fill="#210810"/>
<path fill-rule="evenodd" clip-rule="evenodd" d="M69.0134 85.2033C68.9711 84.8916 68.7455 84.594 68.3789 84.594C68.0122 84.594 67.7866 84.8916 67.7443 85.2033H69.0134ZM67.7161 85.7417C67.7161 86.1243 67.8853 86.5635 68.3789 86.5635C68.6891 86.5635 68.8865 86.3935 69.0134 86.1526L69.8877 86.2801C69.6621 86.8894 69.0698 87.2294 68.3789 87.2294C67.3494 87.2294 66.7148 86.5635 66.7148 85.6425C66.7148 84.7215 67.2507 83.9847 68.3366 83.9847C69.4224 83.9847 69.9159 84.7215 69.9159 85.6425V85.7417H67.7161Z" fill="#210810"/>
<path fill-rule="evenodd" clip-rule="evenodd" d="M71.481 84.3673H71.4951C71.6925 84.0981 72.0309 83.9847 72.3694 83.9847C73.2719 83.9847 73.5257 84.5657 73.5257 85.2741V87.1444H72.5809V85.5292C72.5809 85.1608 72.595 84.6932 72.0591 84.6932C71.4951 84.6932 71.481 85.2741 71.481 85.6425V87.1586H70.5361V84.1123H71.481V84.3956V84.3673Z" fill="#210810"/>
<path fill-rule="evenodd" clip-rule="evenodd" d="M75.2744 84.3673H75.2885C75.4859 84.0981 75.8243 83.9847 76.1628 83.9847C77.0653 83.9847 77.3191 84.5657 77.3191 85.2741V87.1444H76.3602V85.5292C76.3602 85.1608 76.3743 84.6932 75.8384 84.6932C75.2744 84.6932 75.2603 85.2741 75.2603 85.6425V87.1586H74.3154V84.1123H75.2603V84.3956L75.2744 84.3673Z" fill="#210810"/>
<path fill-rule="evenodd" clip-rule="evenodd" d="M81.9875 85.2033C81.9452 84.8916 81.7196 84.594 81.3529 84.594C80.9863 84.594 80.7606 84.8916 80.7183 85.2033H81.9875ZM80.6901 85.7417C80.6901 86.1243 80.8594 86.5635 81.3529 86.5635C81.6632 86.5635 81.8606 86.3935 81.9875 86.1526L82.8618 86.2801C82.6362 86.8894 82.0439 87.2294 81.3388 87.2294C80.3094 87.2294 79.6748 86.5635 79.6748 85.6425C79.6748 84.7215 80.2107 83.9847 81.2965 83.9847C82.3823 83.9847 82.8759 84.7215 82.8759 85.6425V85.7417H80.676H80.6901Z" fill="#210810"/>
<path fill-rule="evenodd" clip-rule="evenodd" d="M86.7817 84.3673H86.7958C86.9933 84.0981 87.3317 83.9847 87.6701 83.9847C88.5727 83.9847 88.8265 84.5657 88.8265 85.2741V87.1444H87.8817V85.5292C87.8817 85.1608 87.8958 84.6932 87.3599 84.6932C86.7958 84.6932 86.7958 85.2741 86.7958 85.6425V87.1586H85.8369V84.1123H86.7958V84.3956L86.7817 84.3673Z" fill="#210810"/>
<path fill-rule="evenodd" clip-rule="evenodd" d="M93.0854 84.8065C92.9444 84.6932 92.7751 84.594 92.5777 84.594C92.4226 84.594 92.2675 84.7074 92.2675 84.849C92.2675 85.0758 92.62 85.1324 92.9585 85.2741C93.311 85.4158 93.6495 85.6142 93.6495 86.1526C93.6495 86.8327 93.0572 87.2294 92.3521 87.2294C91.9008 87.2294 91.4637 87.0452 91.1816 86.7193L91.6188 86.2093C91.8021 86.3935 92.0418 86.5635 92.3239 86.5635C92.5354 86.5635 92.7046 86.436 92.7046 86.2376C92.7046 85.9684 92.3662 85.9117 92.0418 85.7842C91.7175 85.6567 91.3791 85.4725 91.3791 84.9766C91.3791 84.4098 91.8162 83.9847 92.4367 83.9847C92.7892 83.9847 93.2405 84.0839 93.5084 84.2965L93.0995 84.7924L93.0854 84.8065Z" fill="#210810"/>
<path fill-rule="evenodd" clip-rule="evenodd" d="M95.2143 85.2033H95.2285L96.2297 84.0839H97.4706L96.0605 85.43L97.5834 87.1303H96.3284L95.2285 85.8409H95.2143V87.1303H94.2695V82.3837H95.2143V85.2033Z" fill="#210810"/>
<path fill-rule="evenodd" clip-rule="evenodd" d="M101.899 85.2033C101.857 84.8916 101.631 84.594 101.265 84.594C100.898 84.594 100.672 84.8916 100.63 85.2033H101.899ZM100.602 85.7417C100.602 86.1243 100.771 86.5635 101.265 86.5635C101.575 86.5635 101.772 86.3935 101.899 86.1526L102.773 86.2801C102.548 86.8894 101.956 87.2294 101.265 87.2294C100.235 87.2294 99.6006 86.5635 99.6006 85.6425C99.6006 84.7215 100.136 83.9847 101.222 83.9847C102.308 83.9847 102.802 84.7215 102.802 85.6425V85.7417H100.602Z" fill="#210810"/>
<path fill-rule="evenodd" clip-rule="evenodd" d="M108.019 85.0191C107.822 84.8349 107.61 84.7215 107.314 84.7215C106.778 84.7215 106.468 85.1749 106.468 85.6283C106.468 86.1101 106.807 86.5068 107.342 86.5068C107.596 86.5068 107.836 86.3935 108.005 86.2093V87.0452C107.751 87.1728 107.469 87.2294 107.187 87.2294C106.2 87.2294 105.495 86.4926 105.495 85.6142C105.495 84.7357 106.228 83.9847 107.23 83.9847C107.498 83.9847 107.766 84.0414 108.005 84.1831V85.0191H108.019Z" fill="#210810"/>
<path fill-rule="evenodd" clip-rule="evenodd" d="M110.811 85.2033C110.769 84.8916 110.543 84.594 110.177 84.594C109.81 84.594 109.584 84.8916 109.542 85.2033H110.811ZM109.514 85.7417C109.514 86.1243 109.669 86.5635 110.177 86.5635C110.487 86.5635 110.684 86.3935 110.811 86.1526L111.686 86.2801C111.46 86.8894 110.868 87.2294 110.177 87.2294C109.147 87.2294 108.513 86.5635 108.513 85.6425C108.513 84.7215 109.049 83.9847 110.134 83.9847C111.22 83.9847 111.714 84.7215 111.714 85.6425V85.7417H109.514Z" fill="#210810"/>
<path fill-rule="evenodd" clip-rule="evenodd" d="M113.279 84.3673C113.477 84.0981 113.815 83.9847 114.154 83.9847C115.056 83.9847 115.31 84.5657 115.31 85.2741V87.1444H114.365V85.5292C114.365 85.1608 114.379 84.6932 113.843 84.6932C113.279 84.6932 113.265 85.2741 113.265 85.6425V87.1586H112.32V84.1123H113.265V84.3956L113.279 84.3673Z" fill="#210810"/>
<path fill-rule="evenodd" clip-rule="evenodd" d="M115.563 84.084H116.649L117.51 85.6851L118.299 84.084H119.357L117.143 88.278H116.142L116.988 86.6486L115.563 84.084Z" fill="#210810"/>
<path d="M66.1083 84.084H65.1494V87.1303H66.1083V84.084Z" fill="#210810"/>
<path fill-rule="evenodd" clip-rule="evenodd" d="M66.2071 82.8512C66.2071 83.1771 65.9533 83.4321 65.629 83.4321C65.3046 83.4321 65.0508 83.1771 65.0508 82.8512C65.0508 82.5253 65.3046 82.2703 65.629 82.2703C65.9533 82.2703 66.2071 82.5253 66.2071 82.8512Z" fill="#210810"/>
<path d="M79.0679 84.084H78.123V87.1303H79.0679V84.084Z" fill="#210810"/>
<path d="M78.6026 83.4321C78.9219 83.4321 79.1808 83.172 79.1808 82.8512C79.1808 82.5304 78.9219 82.2703 78.6026 82.2703C78.2833 82.2703 78.0244 82.5304 78.0244 82.8512C78.0244 83.172 78.2833 83.4321 78.6026 83.4321Z" fill="#210810"/>
<path d="M90.5893 84.084H89.6445V87.1303H90.5893V84.084Z" fill="#210810"/>
<path fill-rule="evenodd" clip-rule="evenodd" d="M90.7022 82.8512C90.7022 83.1771 90.4484 83.4321 90.1241 83.4321C89.7997 83.4321 89.5459 83.1771 89.5459 82.8512C89.5459 82.5253 89.7997 82.2703 90.1241 82.2703C90.4484 82.2703 90.7022 82.5253 90.7022 82.8512Z" fill="#210810"/>
<path d="M98.98 84.084H98.0352V87.1303H98.98V84.084Z" fill="#210810"/>
<path fill-rule="evenodd" clip-rule="evenodd" d="M99.0929 82.8512C99.0929 83.1771 98.839 83.4321 98.5147 83.4321C98.1904 83.4321 97.9365 83.1771 97.9365 82.8512C97.9365 82.5253 98.1904 82.2703 98.5147 82.2703C98.839 82.2703 99.0929 82.5253 99.0929 82.8512Z" fill="#210810"/>
<path fill-rule="evenodd" clip-rule="evenodd" d="M42.0791 69.079C40.0202 66.3302 37.1153 64.2615 33.8719 63.1989L33.9142 63.1705L32.8001 62.8871C31.4746 62.5471 30.1067 62.3912 28.7247 62.3912C19.5162 62.3912 12.0282 69.9008 12 79.1248V79.3373C12.0423 83.8572 13.8332 88.0654 17.0484 91.225L17.7535 91.9193L17.9651 90.9416C18.1061 90.2899 18.3176 89.3689 18.6137 88.2779C19.1073 88.7313 19.6291 89.1564 20.179 89.5389C20.179 91.2817 20.2918 92.6561 20.4047 93.5204L20.447 93.8038L20.6867 93.9455C23.084 95.2632 25.7915 95.9716 28.5414 96H28.767C37.9614 95.9716 45.4212 88.4479 45.4212 79.1956C45.4212 75.5117 44.2649 72.0119 42.0509 69.0931L42.0791 69.079Z" fill="#210810"/>
<path fill-rule="evenodd" clip-rule="evenodd" d="M16.8654 89.3547C15.6668 87.9378 14.7361 86.3509 14.1015 84.6223C13.4669 82.8937 13.1426 81.0659 13.1426 79.1956C13.1426 75.0158 14.7643 71.0768 17.7116 68.1297C20.6588 65.1684 24.565 63.5389 28.725 63.5389C29.4583 63.5389 30.2057 63.5956 30.939 63.6948L31.3621 63.7515L31.0518 64.0349C27.9918 66.7695 22.3651 72.8054 19.1217 82.5537C18.2474 85.2032 17.5987 87.6545 17.218 89.2556L17.1334 89.624L16.8795 89.3406L16.8654 89.3547Z" fill="#E30613"/>
<path fill-rule="evenodd" clip-rule="evenodd" d="M28.7248 94.8523C26.257 94.8523 23.8033 94.2572 21.6175 93.1237L21.5188 93.0812V92.982C21.2508 90.7433 20.9406 84.8349 23.493 78.303C26.398 70.8076 31.4182 66.0752 33.4489 64.3749L33.5335 64.3041L33.6322 64.3466C36.6077 65.3384 39.287 67.2654 41.1767 69.7875C43.2214 72.5221 44.3072 75.7809 44.3072 79.2098C44.3072 83.3896 42.6855 87.3286 39.7383 90.2757C36.791 93.237 32.8848 94.8665 28.7248 94.8665V94.8523Z" fill="#E30613"/>
<path fill-rule="evenodd" clip-rule="evenodd" d="M14.5943 82.157C14.5943 73.5989 20.7144 66.4861 28.7807 64.9701L28.3294 64.2333C28.3294 64.2333 19.9953 64.8709 15.9763 71.6295C13.861 75.2 14.0161 79.2382 14.5943 82.157Z" fill="white"/>
<path fill-rule="evenodd" clip-rule="evenodd" d="M26.0452 92.1035C24.4376 92.1035 22.8864 91.9193 21.3916 91.5651C21.4198 92.1318 21.4621 92.6136 21.5044 92.982V93.0812L21.6031 93.1237C23.7889 94.2572 26.2426 94.8523 28.7104 94.8523C32.8704 94.8523 36.7907 93.2229 39.7239 90.2615C42.3045 87.6686 43.8698 84.3106 44.2083 80.6975C40.9085 87.4419 34.0127 92.0893 26.0311 92.0893L26.0452 92.1035Z" fill="#9C1006"/>
<path fill-rule="evenodd" clip-rule="evenodd" d="M41.1621 69.7733C39.2724 67.2512 36.5931 65.3242 33.6176 64.3324L33.5189 64.3041L33.4343 64.3749C32.701 64.9842 31.587 66.0043 30.3037 67.3929C32.0946 70.4392 35.3945 72.4796 39.1596 72.4796C40.3301 72.4796 41.4582 72.2812 42.5017 71.9128C42.1069 71.176 41.6556 70.4676 41.148 69.7875L41.1621 69.7733Z" fill="#C00D0D"/>
<path fill-rule="evenodd" clip-rule="evenodd" d="M33.2934 78.6856C33.2934 80.6976 31.6716 82.3128 29.6833 82.3128C27.6949 82.3128 26.0732 80.6834 26.0732 78.6856C26.0732 76.6878 27.6949 75.0583 29.6833 75.0583C31.6716 75.0583 33.2934 76.6878 33.2934 78.6856Z" fill="#210810"/>
<path fill-rule="evenodd" clip-rule="evenodd" d="M34.6332 89.3122C34.6332 90.8283 33.0115 92.0752 31.0231 92.0752C29.0348 92.0752 27.4131 90.8425 27.4131 89.3122C27.4131 87.782 29.0348 86.5635 31.0231 86.5635C33.0115 86.5635 34.6332 87.7962 34.6332 89.3122Z" fill="#210810"/>
<path fill-rule="evenodd" clip-rule="evenodd" d="M42.7275 80.8817C43.5313 81.2643 43.5313 82.9362 42.7275 84.6223C41.9237 86.3084 40.6264 87.3569 39.8226 86.9743C39.0188 86.5918 39.0188 84.9198 39.8226 83.2337C40.6264 81.5476 41.9237 80.4991 42.7275 80.8817Z" fill="#210810"/>
<path fill-rule="evenodd" clip-rule="evenodd" d="M21.4204 74.2081C20.1794 75.6675 18.2616 76.0784 17.1475 75.1149C16.0335 74.1514 16.1322 72.1961 17.3732 70.7226C18.6141 69.2632 20.532 68.8523 21.646 69.8158C22.76 70.7792 22.6613 72.7487 21.4204 74.2081Z" fill="#210810"/>
<path fill-rule="evenodd" clip-rule="evenodd" d="M22.8022 67.2229C21.5049 67.7755 20.2498 67.7896 20.0242 67.2229C19.7986 66.6703 20.6588 65.7777 21.9702 65.2251C23.2676 64.6725 24.5227 64.6583 24.7483 65.2251C24.9739 65.7918 24.1137 66.6703 22.8022 67.2229Z" fill="#210810"/>
<path fill-rule="evenodd" clip-rule="evenodd" d="M15.4553 80.3008C15.54 82.0011 15.1451 83.4179 14.5669 83.4463C13.9888 83.4746 13.4388 82.1144 13.3542 80.4141C13.2696 78.7139 13.6644 77.297 14.2426 77.2686C14.8208 77.2403 15.3707 78.6005 15.4553 80.3008Z" fill="#210810"/>
<path fill-rule="evenodd" clip-rule="evenodd" d="M41.1347 73.0888C41.445 74.4349 40.9091 75.7243 39.922 75.951C38.9349 76.1777 37.8913 75.2709 37.5811 73.9248C37.2708 72.5788 37.8067 71.2894 38.7938 71.0627C39.781 70.836 40.8245 71.7428 41.1488 73.0888H41.1347Z" fill="#210810"/>
<path fill-rule="evenodd" clip-rule="evenodd" d="M37.9054 48.6758C37.2003 48.6758 36.5093 48.7466 35.8324 48.8741C35.917 48.2649 36.1709 47.4714 36.7772 46.5646C37.4823 45.5161 38.7233 45.1619 39.1463 45.0627C39.1604 45.1335 39.1745 45.1902 39.2027 45.2611C39.4143 45.7003 39.936 45.8987 40.3732 45.6861C40.8103 45.4878 41.0078 44.9493 40.7962 44.5101C40.5988 44.0709 40.077 43.8725 39.6258 44.085C39.4002 44.1842 39.245 44.3826 39.1745 44.5951C38.822 44.6235 37.2003 44.8502 35.776 46.6213C35.1132 47.4573 34.8312 48.4066 34.7184 49.1434C33.1108 49.6393 31.6583 50.5036 30.4596 51.6371C30.1212 51.1553 29.6699 50.5602 29.0636 49.9368C28.02 48.8741 26.906 48.4491 26.3701 48.3074C26.3701 48.2649 26.3701 48.2082 26.3701 48.1657C26.2996 47.684 25.8483 47.3581 25.3689 47.4289C24.8894 47.4998 24.5651 47.9532 24.6356 48.4349C24.7061 48.9167 25.1574 49.2425 25.6368 49.1717C25.8625 49.1434 26.0599 49.0158 26.1868 48.8458C26.5816 49.0158 27.3995 49.4692 28.3726 50.6028C28.9648 51.2829 29.3879 51.9346 29.6699 52.4731C28.0341 54.3859 27.0329 56.8796 27.0329 59.5859C27.0329 65.6077 31.9121 70.5101 37.9054 70.5101C43.8986 70.5101 48.7778 65.6077 48.7778 59.5859C48.7778 53.5641 43.8986 48.6616 37.9054 48.6616V48.6758Z" fill="#210810"/>
<path fill-rule="evenodd" clip-rule="evenodd" d="M47.5643 59.6C47.5643 64.9701 43.221 69.3341 37.8764 69.3341C32.5318 69.3341 28.1885 64.9842 28.1885 59.6C28.1885 54.2158 32.5177 49.866 37.8764 49.866C43.2351 49.866 47.5643 54.23 47.5643 59.6Z" fill="white"/>
<path fill-rule="evenodd" clip-rule="evenodd" d="M44.4765 62.0228C44.6175 62.5754 44.1663 63.1563 43.4894 63.3405C42.7984 63.5106 42.1356 63.213 41.9946 62.6746C41.8536 62.122 42.3048 61.5411 42.9817 61.3569C43.6586 61.1727 44.3355 61.4844 44.4765 62.0228Z" fill="#210810"/>
<path fill-rule="evenodd" clip-rule="evenodd" d="M44.2652 62.0087C44.3639 62.3913 43.9972 62.8164 43.4472 62.9439C42.8973 63.0856 42.3755 62.8872 42.2768 62.5188C42.1781 62.1363 42.5447 61.7254 43.0947 61.5837C43.6447 61.442 44.1664 61.6403 44.2652 62.0087Z" fill="#E30613"/>
<path fill-rule="evenodd" clip-rule="evenodd" d="M43.348 61.9804C43.3903 62.1363 43.2634 62.2921 43.066 62.3488C42.8685 62.3913 42.6852 62.3205 42.6429 62.1646C42.6006 62.0087 42.7275 61.8529 42.9249 61.7962C43.1224 61.7537 43.3057 61.8245 43.348 61.9804Z" fill="white"/>
<path fill-rule="evenodd" clip-rule="evenodd" d="M32.0391 63.3406C32.2365 63.0997 32.4057 63.0005 32.4057 63.0005C32.4057 63.0005 33.2659 67.2654 37.1721 67.9313C42.9398 68.9231 44.1384 63.9923 44.1384 63.9923L44.8012 63.4398C44.8012 63.4398 41.3181 64.7291 38.2862 64.6441C35.2543 64.5591 32.9557 62.5896 32.9557 62.5896C32.9557 62.5896 33.0685 62.5046 33.3364 62.3913C33.6044 62.2921 34.0133 62.2354 34.0133 62.2354C34.0133 62.2354 32.9134 62.122 32.2788 62.5329C31.6301 62.9438 31.6724 63.879 31.6724 63.879C31.6724 63.879 31.8417 63.5673 32.0391 63.3264V63.3406Z" fill="#210810"/>
<path fill-rule="evenodd" clip-rule="evenodd" d="M34.041 65.14C34.041 65.14 35.7896 65.0692 36.3114 65.7635C36.8332 66.4719 36.9601 66.7269 36.9601 66.7269C36.9601 66.7269 36.7204 66.0893 36.7486 66.0893C36.7768 66.0893 37.6793 66.0893 38.06 66.5286C38.4408 66.9678 38.5677 67.5629 38.5677 67.5629C38.5677 67.5629 36.8896 67.7046 35.705 66.982C34.4077 66.1885 34.041 65.1259 34.041 65.1259V65.14Z" fill="#E30613"/>
<path fill-rule="evenodd" clip-rule="evenodd" d="M37.7353 58.2256C37.2417 56.7662 36.3251 55.746 35.7046 55.9586C35.5918 56.0011 35.4931 56.0861 35.4085 56.1994C35.6482 56.5962 36.0149 57.1771 36.0149 57.1771L35.1687 57.1062C35.1405 57.6447 35.2393 58.3106 35.479 59.0049C35.9725 60.4643 36.8892 61.4844 37.5096 61.2719C38.1301 61.0594 38.2288 59.6992 37.7353 58.2398V58.2256Z" fill="#210810"/>
<path fill-rule="evenodd" clip-rule="evenodd" d="M44.2083 56.327C43.6301 55.0376 42.8122 54.1592 42.375 54.3575C42.3045 54.3859 42.2481 54.4567 42.2058 54.5276C42.4456 54.9101 42.8686 55.6044 42.8686 55.6044L42.1494 55.5477C42.2199 55.987 42.375 56.5112 42.6148 57.0496C43.1929 58.339 44.0109 59.2175 44.448 59.0191C44.8852 58.8208 44.7723 57.6164 44.1942 56.327H44.2083Z" fill="#210810"/>
</g>
<defs>
<clipPath id="clip0_824_1209">
<rect width="115" height="52" fill="white" transform="translate(12 44)"/>
</clipPath>
</defs>
</svg>
