<svg width="140" height="140" viewBox="0 0 140 140" fill="none" xmlns="http://www.w3.org/2000/svg">
<rect width="140" height="140" rx="30" fill="white"/>
<g clip-path="url(#clip0_3614_1144)">
<path d="M106.761 92.5371C104.926 94.7404 102.272 96.2057 99.408 96.5464H39.9276C34.7448 95.9909 30.4143 91.7838 30 86.5359V30.2641C30.3162 24.6933 35.0357 20.1513 40.6032 20H98.817C104.332 20.2503 108.893 24.7677 109.25 30.2641V86.2823C109.063 88.5786 108.234 90.7684 106.761 92.5371ZM51.4625 29.6342H41.1138L41.0834 86.858L41.2829 86.9967C44.1584 87.2571 49.3556 86.8614 50.6204 83.7467C50.6796 83.6004 50.9561 82.7321 50.9561 82.6458V81.4207C51.3408 81.9356 51.5953 82.5283 52.0112 83.0272C54.9687 86.5756 60.4829 87.3264 64.8524 87.0804C84.4751 85.9745 85.0078 50.8101 66.3506 47.9051C61.5525 47.1585 56.0585 48.3853 52.6868 52.02C52.297 52.4402 51.974 52.9779 51.5479 53.3728L51.4625 29.6334V29.6342ZM71.4843 29.6342H65.1483V46.0239C67.3897 45.9731 69.5752 46.6732 71.4843 47.7977V29.6342ZM73.3427 85.3903C73.3858 85.4486 74.4951 85.8942 74.6718 85.9627C79.5003 87.8405 86.7765 87.5682 90.9904 84.3267C100.51 77.0031 100.855 57.7448 90.8568 50.6859C87.0479 47.9972 82.4468 47.1129 77.8863 48.2441C76.5411 48.5781 75.2797 49.1065 74.0182 49.6569C75.3329 50.7679 76.4498 52.0437 77.4483 53.4472C80.1234 52.6846 82.9972 52.6719 85.4796 54.0348C93.0948 58.2157 92.8724 74.4819 86.7757 79.8591C84.1479 82.1766 80.4312 82.41 77.1981 81.3539C76.3019 82.426 75.3862 83.4719 74.3573 84.4214C74.2102 84.5566 73.2243 85.2305 73.3427 85.3903Z" fill="#9CC130"/>
<path d="M55.7711 106.174V116.269C55.7711 117.292 54.8301 118.601 53.9897 119.134C51.5445 120.684 46.081 120.326 45.8866 116.649H48.7587C48.7883 116.649 48.7976 117.021 48.9032 117.218C49.4359 118.209 51.4456 118.227 52.264 117.578C52.6606 117.263 53.0672 116.425 53.0672 115.931V114.621C52.7569 114.574 52.642 114.884 52.4314 115.041C50.4133 116.542 47.4609 116.04 46.2104 113.833C45.0935 111.861 45.2651 108.282 47.1142 106.767C48.8136 105.373 51.7474 105.427 53.0258 107.354C53.2025 107.117 53.2634 106.85 53.4874 106.635C53.5855 106.542 54.2205 106.174 54.2923 106.174H55.7711ZM50.2577 107.883C47.668 108.297 47.7061 113.28 50.1918 113.738C54.1046 114.46 54.0624 107.276 50.2577 107.883Z" fill="#E41516"/>
<path d="M33.3836 101.105V107.188L34.5098 106.329C39.8591 103.845 42.7355 110.609 40.1111 114.633C38.5605 117.01 35.0112 117.233 33.2154 115.045C33.2052 115.631 32.4823 116.397 31.9049 116.397H30.5107V101.105H33.3828H33.3836ZM35.3899 107.886C32.5999 108.25 32.5356 113.332 34.7601 114.217C38.9342 115.877 39.411 107.361 35.3899 107.886Z" fill="#E41516"/>
<path d="M58.8968 101.105V107.526L59.7136 106.611C61.949 105.071 64.9775 106.025 65.9101 108.58C67.207 112.133 65.4324 117.488 60.8364 116.441C59.8674 116.221 59.4438 115.753 58.8123 115.045C58.8562 116.154 58.0573 116.326 57.1222 116.227V101.105H58.896H58.8968ZM61.3276 107.38C58.1029 107.73 57.9025 113.923 60.6123 114.891C65.4823 116.631 66.1012 106.863 61.3276 107.38Z" fill="#1D1D1B"/>
<path d="M76.8066 115.044C76.7178 115.721 77.1406 116.305 76.2571 116.396C75.1596 116.508 73.9481 116.331 74.0182 114.96C73.9261 114.852 73.483 115.385 73.3824 115.464C71.0455 117.302 66.5222 116.901 66.8486 113.238C67.098 110.439 69.8602 110.516 71.9384 110.218C72.9047 110.079 73.9311 110.175 73.9168 108.919C73.8973 107.274 71.7845 107.077 70.5729 107.331C69.3613 107.586 69.4814 108.346 68.756 108.809C68.362 109.06 67.897 109.18 67.4303 109.131C67.3753 106.001 70.8375 105.477 73.2624 106.045C74.4866 106.331 75.5359 107.168 75.6238 108.499L75.6416 114.733C75.8817 115.166 76.3991 115.029 76.8083 115.045L76.8066 115.044ZM73.8491 111.073C72.4456 111.859 68.6055 111.173 68.6055 113.481C68.6055 115.622 71.6069 115.359 72.8633 114.438C73.1685 114.215 73.8491 113.526 73.8491 113.143V111.073Z" fill="#1D1D1B"/>
<path d="M104.263 111.665L96.6593 111.749C96.6492 112.405 96.7972 113.198 97.1294 113.771C98.2632 115.728 102.029 115.434 102.404 113.016H104.178C103.645 115.829 101.099 116.953 98.4289 116.442C94.9456 115.777 94.1001 111.691 95.2449 108.771C96.6881 105.089 102.229 104.698 103.771 108.481C103.914 108.832 104.263 109.942 104.263 110.27V111.664V111.665ZM102.488 110.398C102.465 106.011 96.2789 106.576 96.6593 110.82C96.749 110.92 97.3526 110.398 97.4617 110.398H102.488Z" fill="#1D1D1B"/>
<path d="M88.3804 101.105V110.652C88.908 110.183 89.4652 109.734 89.9868 109.259C90.7494 108.563 91.5653 107.605 92.3499 106.976C93.0787 106.391 93.8168 106.236 94.631 106.767L91.1789 110.256L95.3074 116.481H93.1531L89.9023 111.449L89.6867 111.492C89.5311 111.778 88.3796 112.6 88.3796 112.806V116.481H86.8163C86.807 116.481 86.6894 116.364 86.6894 116.354V101.232C86.6894 101.223 86.807 101.105 86.8163 101.105H88.3796H88.3804Z" fill="#1D1D1B"/>
<path d="M78.5382 112.933C78.8307 113.417 78.7698 113.876 79.1697 114.328C80.082 115.36 83.1672 115.392 83.7506 114.005C84.1217 113.122 83.6398 112.571 82.8239 112.279C81.2767 111.727 77.7578 111.619 77.3511 109.642C76.9876 107.878 78.1281 106.478 79.7819 106.065C82.0368 105.502 85.0078 106.044 85.2555 108.792C84.9959 108.786 84.7313 108.817 84.4726 108.773C83.5299 108.61 83.2568 107.753 82.4671 107.483C81.5295 107.163 79.2399 107.252 79.0226 108.517C78.8451 109.551 79.7447 109.787 80.5234 110.018C82.413 110.58 85.6165 110.563 85.6799 113.232C85.7814 117.496 77.6411 117.709 77.0138 113.781C76.9892 113.627 76.8962 112.932 77.1025 112.932H78.539L78.5382 112.933Z" fill="#1D1D1B"/>
<path d="M107.558 101.105V106.216C107.739 106.426 108.04 106.312 108.321 106.383C108.888 106.526 109.304 107.108 109.248 107.695H107.643C107.667 107.94 107.57 108.168 107.555 108.409C107.465 109.825 107.387 112.887 107.58 114.219C107.724 115.208 108.439 115.032 109.248 115.044V116.396C108.309 116.561 106.915 116.717 106.247 115.89C106.152 115.773 105.868 115.277 105.868 115.171V107.694H104.432V106.342H105.741C105.751 106.342 105.868 106.225 105.868 106.215V101.104H107.558V101.105Z" fill="#1D1D1B"/>
<path d="M44.6192 106.174H41.8317V116.396H44.6192V106.174Z" fill="#E41516"/>
<path d="M41.8317 103.302V101.105H44.5769C44.5913 101.105 44.6775 101.191 44.6835 101.229C44.5845 101.685 44.6031 102.204 44.6158 102.672C44.6192 102.805 44.7908 103.302 44.5778 103.302H41.8325H41.8317Z" fill="#E41516"/>
<path d="M51.4625 29.6343L51.5479 53.3737C51.9732 52.9788 52.297 52.4403 52.6868 52.0209C56.0585 48.3862 61.5525 47.1585 66.3506 47.9059C85.0078 50.8102 84.4751 85.9754 64.8524 87.0813C60.4829 87.3273 54.9687 86.5765 52.0112 83.028C51.5961 82.5292 51.3408 81.9374 50.9561 81.4216V82.6467C50.9561 82.7321 50.6796 83.6004 50.6204 83.7475C49.3556 86.8631 44.1584 87.258 41.2829 86.9976L41.0834 86.8589L41.1138 29.6351H51.4625V29.6343ZM59.3018 55.4265C48.7223 56.4115 47.9495 76.9431 58.4715 79.269C68.0424 81.3853 70.2288 69.8901 68.6697 62.9039C67.5791 58.017 64.5539 54.9378 59.3018 55.4265Z" fill="#E41516"/>
<path d="M73.3427 85.3902C73.2243 85.2304 74.211 84.5566 74.3573 84.4213C75.3862 83.4718 76.3019 82.4251 77.1981 81.3539C80.4312 82.4099 84.1488 82.1765 86.7757 79.8591C92.8724 74.4818 93.0948 58.2156 85.4796 54.0347C82.9972 52.6718 80.1234 52.6845 77.4483 53.4471C76.4498 52.0436 75.333 50.7678 74.0182 49.6568C75.2797 49.1064 76.5411 48.5772 77.8863 48.244C82.446 47.1128 87.0479 47.9963 90.8568 50.6858C100.855 57.7447 100.51 77.003 90.9904 84.3266C86.7765 87.569 79.5003 87.8404 74.6718 85.9626C74.4951 85.8941 73.3858 85.4477 73.3427 85.3902Z" fill="#1D1D1B"/>
<path d="M71.4843 29.6343V47.7977C69.5752 46.6732 67.3897 45.9732 65.1483 46.0239V29.6343H71.4843Z" fill="#1D1D1B"/>
<path d="M59.3018 55.4265C64.5539 54.9378 67.5791 58.0171 68.6697 62.9039C70.2288 69.8901 68.0424 81.3861 58.4715 79.2691C47.9495 76.9423 48.7223 56.4107 59.3018 55.4265Z" fill="#9CC130"/>
</g>
<defs>
<clipPath id="clip0_3614_1144">
<rect width="79.2519" height="100" fill="white" transform="translate(30 20)"/>
</clipPath>
</defs>
</svg>
