<svg width="140" height="140" viewBox="0 0 140 140" fill="none" xmlns="http://www.w3.org/2000/svg">
<rect width="140" height="140" rx="30" fill="#C9EC3A"/>
<g clip-path="url(#clip0_608_3643)">
<path d="M108.985 62.1169L114 26.1282C101.649 22.3266 89.7365 21.982 78.9934 24.3818C53.4174 30.0959 34.6106 52.0848 32.9121 78.2177C31.9368 93.2178 37.6705 106.466 53.7109 116.214C65.3054 122.187 80.5457 122.744 100.096 116.897L106.136 81.2498C100.303 85.8131 94.2649 89.4028 87.6095 90.0775C79.808 90.8693 72.3324 86.4967 69.3852 79.2347C66.3934 71.8635 69.1721 64.2034 78.8985 56.1942C89.3292 50.034 99.31 52.9903 108.986 62.1169H108.985Z" fill="#FDFDF9"/>
<path d="M106.297 60.2277L111.312 24.239C98.9606 20.4374 87.048 20.0928 76.3049 22.4926C50.7289 28.2068 31.9221 50.1968 30.2237 76.3296C29.2483 91.3298 34.982 104.578 51.0224 114.326C62.6169 120.299 77.8572 120.856 97.4072 115.009L103.448 79.3618C97.6148 83.9251 91.5765 87.5148 84.921 88.1895C77.1196 88.9812 69.6439 84.6087 66.6968 77.3467C63.7049 69.9754 66.4836 62.3153 76.2101 54.3062C86.6407 48.146 96.6216 51.1023 106.298 60.2288L106.297 60.2277Z" fill="#FF1019"/>
<path d="M42.6271 34.5454C47.0807 32.5671 47.1723 26.7504 44.0298 24.8167C43.6749 24.5981 43.2821 24.4476 42.877 24.345C39.3217 23.4406 34.8803 23.8041 29.8999 23.764L26.8232 45.783H38.3341C46.0083 45.5555 48.5527 36.5583 42.6271 34.5454ZM38.7905 39.1388C38.487 40.3911 37.034 40.7803 34.6303 40.6008L35.1057 37.146C37.8486 36.9575 39.1945 37.3166 38.7905 39.1388ZM39.132 30.8721C38.7671 32.4411 37.3588 32.653 35.7194 32.4523L36.283 29.3632C38.2649 29.1201 39.4902 29.4235 39.132 30.8721Z" fill="black"/>
<path d="M40.8038 31.9839C45.2575 30.0056 45.349 24.1889 42.2065 22.2552C41.8517 22.0366 41.4589 21.886 41.0538 21.7835C37.4984 20.8791 33.057 21.2426 28.0766 21.2025L25 43.2203H36.5108C44.1851 42.9928 46.7294 33.9957 40.8038 31.9828V31.9839ZM36.9672 36.5773C36.6637 37.8296 35.2108 38.2188 32.8071 38.0393L33.2824 34.5845C36.0254 34.396 37.3712 34.7551 36.9672 36.5773ZM37.3087 28.3105C36.9438 29.8796 35.5355 30.0915 33.8962 29.8907L34.4598 26.8017C36.4416 26.5586 37.6669 26.8619 37.3087 28.3105Z" fill="#FFF309"/>
<path d="M49.6552 30.2186H56.6064L54.3656 45.783H47.603L49.6552 30.2186Z" fill="black"/>
<path d="M53.5108 29.2885C55.8084 29.2885 57.671 27.559 57.671 25.4256C57.671 23.2921 55.8084 21.5626 53.5108 21.5626C51.2132 21.5626 49.3506 23.2921 49.3506 25.4256C49.3506 27.559 51.2132 29.2885 53.5108 29.2885Z" fill="black"/>
<path d="M47.9077 27.6559H54.8588L52.618 43.2203H45.8555L47.9077 27.6559Z" fill="#FFF309"/>
<path d="M51.7632 26.7259C54.0608 26.7259 55.9234 24.9964 55.9234 22.8629C55.9234 20.7295 54.0608 19 51.7632 19C49.4656 19 47.603 20.7295 47.603 22.8629C47.603 24.9964 49.4656 26.7259 51.7632 26.7259Z" fill="#FFF309"/>
<path d="M70.1114 30.1996L70.0356 32.7623C68.1887 28.7131 62.7106 29.1235 59.9163 33.4704C59.4186 34.2443 59.0604 35.0986 58.8082 35.984C57.2782 41.3669 59.0459 45.4217 63.1982 46.1064C65.5897 46.1766 67.3105 45.2388 68.4398 43.411L68.288 44.9299C67.9454 46.8179 66.8953 47.9085 65.2493 48.3278C63.3679 48.5408 61.4016 48.0066 59.3606 46.8279L57.1577 51.7246C60.0067 53.1108 63.0655 53.4431 66.2749 53.016C68.9665 52.8286 71.0109 51.7837 72.5732 50.0953C73.996 48.5575 74.8742 46.5937 75.151 44.5184L77.0637 30.1996H70.1114ZM69.3292 38.221C68.9241 39.5514 68.3929 39.8849 67.4142 39.964C67.123 39.9886 66.8273 39.9551 66.5594 39.838C64.6813 39.015 65.5919 35.3595 68.1552 35.7565C69.4988 35.9873 69.7131 36.9196 69.3292 38.221Z" fill="black"/>
<path d="M68.2311 27.6548L68.1552 30.2175C66.3083 26.1683 60.8302 26.5787 58.0359 30.9256C57.5382 31.6995 57.18 32.5538 56.9278 33.4392C55.3979 38.8221 57.1655 42.8769 61.3179 43.5616C63.7093 43.6318 65.4301 42.694 66.5594 40.8662L66.4076 42.3851C66.0651 44.2731 65.015 45.3637 63.369 45.783C61.4875 45.996 59.5212 45.4618 57.4802 44.2831L55.2773 49.1798C58.1263 50.566 61.1851 50.8983 64.3945 50.4712C67.0861 50.2838 69.1305 49.2389 70.6928 47.5505C72.1156 46.0127 72.9939 44.0489 73.2706 41.9736L75.1833 27.6548H68.2311ZM67.4488 35.6762C67.0437 37.0066 66.5125 37.3401 65.5339 37.4192C65.2426 37.4438 64.9469 37.4103 64.6791 37.2932C62.801 36.4702 63.7116 32.8147 66.2748 33.2117C67.6184 33.4425 67.8327 34.3748 67.4488 35.6762Z" fill="#FFF309"/>
</g>
<defs>
<clipPath id="clip0_608_3643">
<rect width="89" height="102" fill="white" transform="translate(25 19)"/>
</clipPath>
</defs>
</svg>
