<svg width="140" height="140" viewBox="0 0 140 140" fill="none" xmlns="http://www.w3.org/2000/svg">
<rect width="140" height="140" rx="30" fill="#EFEFEF"/>
<g clip-path="url(#clip0_689_37)">
<path d="M30.5 101C31.3157 101.861 31.6579 102.664 32.5 103.5C34.2012 105.189 34.8985 105.839 37 107.035C38.3151 107.783 40.6103 108.914 42 109.5C42.1926 109.581 42.8669 110.314 43 110.5C44.5606 112.685 45.2069 113.552 47.5 115C50.3671 116.812 51.6941 118.32 55.021 119.001C56.6986 119.344 58.4291 119.583 60.1001 119.408C61.502 119.261 63.2155 118.356 64 119.408C65.7465 121.751 67.1447 124.534 70.1894 124.242C72.7761 123.994 75.1089 122.85 77.0518 121.064C79.1486 119.137 80.6591 116.828 81.9431 114.361C82.1744 113.918 82.4547 113.675 82.956 113.545C87.0864 112.469 90.9504 110.856 94.2585 108.171C94.857 107.684 95.4669 107.191 95.9663 106.616C96.4704 106.035 96.7357 106.218 97.1039 106.716C97.9725 107.892 99.1044 108.72 100.584 109.08C101.907 109.403 103.097 108.965 104.249 108.468C107.031 107.269 108.995 105.15 110.807 102.879C111.16 102.436 111.438 101.938 111.876 101.559C112.17 101.957 112.684 102.074 113.029 102.433C114.024 103.464 114.175 104.658 113.839 105.942C113.261 108.161 111.633 109.677 109.937 111.105C106.746 113.791 103.105 115.833 99.3395 117.645C91.9521 121.198 84.2579 123.966 76.1361 125.482C73.0905 126.05 69.9854 126.11 66.8681 125.864C62.9077 125.552 59.0012 124.983 55.1522 124.045C49.9494 122.779 44.9515 120.979 40.1292 118.705C36.2226 116.863 32.4869 114.762 29.0467 112.191C27.0576 110.704 25.2591 109.031 23.8052 107.035C22.5137 105.26 22.78 103.629 24.5737 102.313C25.3242 101.762 29.5795 101.254 30.5 101Z" fill="#ACB0B1"/>
</g>
<path d="M38.0159 87.8057C36.9281 85.0835 37.5009 82.7049 39.6016 80.6027C38.4534 80.0446 37.454 79.3214 36.5809 78.4008C35.3966 77.1537 34.6489 75.7037 34.3485 74.034C33.8614 71.3189 34.3124 68.7842 35.9793 66.5321C36.2246 66.2011 36.1506 66.1033 35.8395 65.9391C33.5548 64.7305 31.9736 62.8723 30.9607 60.5377C29.9775 58.2712 29.8513 55.9124 30.2508 53.4845C30.5232 51.8281 31.087 50.319 32.0422 48.9444C33.2364 47.2271 34.7391 45.9055 36.7505 45.1993C36.9805 45.1186 37.2502 45.0091 36.9597 44.5784C35.862 42.949 35.3831 41.1097 35.0042 39.1842C34.6119 37.1879 34.9185 35.2624 35.4706 33.467C36.4267 30.3607 38.3731 27.844 41.2369 26.1204C43.4963 24.7611 45.9479 24.1375 48.569 24.1949C50.0158 24.2272 51.4211 24.5592 52.7695 25.085C53.0943 25.2115 53.1637 25.2312 53.2647 24.8293C53.8564 22.474 54.9767 20.3852 56.7472 18.6993C59.0076 16.5477 61.6783 15.3337 64.8461 15.0529C67.2823 14.8367 69.5318 15.2943 71.711 16.2516C73.7829 17.1623 75.4272 18.632 76.7648 20.431C76.9966 20.7432 77.2068 20.8634 77.5847 20.9227C80.4809 21.3731 83.3005 22.0819 86.0019 23.26C88.3885 24.2999 90.6119 25.5847 92.7171 27.1109C95.0767 28.822 97.0547 30.8829 98.7901 33.2023C99.8797 34.6576 100.844 36.2036 101.608 37.8321C102.698 40.1568 103.516 42.5991 103.916 45.1563C104.029 45.8767 104.228 46.5856 104.214 47.3204C104.208 47.5932 104.319 47.7672 104.489 47.9682C106.063 49.8381 107.101 51.9789 107.504 54.3799C107.928 56.911 107.585 59.3865 106.781 61.8198C105.942 64.3572 104.584 66.5896 102.862 68.6048C101.682 69.9856 100.314 71.187 98.8352 72.2458C98.0694 72.794 97.245 73.2749 96.4017 73.6975C95.9561 73.9209 95.9354 74.1264 96.2105 74.4314C97.2703 75.605 98.1957 76.8728 98.9886 78.2384C99.159 78.5318 99.4504 78.7041 99.7634 78.7678C101.566 79.133 102.937 80.0769 103.799 81.7081C104.065 82.2114 104.316 82.2653 104.79 81.8911C106.38 80.6395 108.156 79.8113 110.241 79.9845C111.954 80.1271 113.461 80.7705 114.738 81.9728C116.362 83.5017 116.884 85.4191 116.983 87.5491C117.056 89.113 116.904 90.6868 116.435 92.1251C114.75 97.2959 112.212 102.039 108.547 106.115C107.13 107.69 105.466 108.94 103.429 109.731C100.568 110.842 98.4573 109.403 97.1566 107.672C96.9898 107.45 96.9005 106.903 96.3855 107.452C93.3359 110.701 89.5079 112.67 85.3101 114.009C84.9376 114.127 84.5588 114.231 84.1763 114.311C83.4583 114.461 82.9965 114.825 82.652 115.521C81.2557 118.342 79.5167 120.915 76.9389 122.834C75.2531 124.089 73.3265 124.922 71.279 124.995C68.1879 125.107 65.8265 123.531 64.157 120.993C63.6861 120.278 63.2866 120.041 62.3873 120.234C61.1516 120.499 59.8573 120.198 58.6062 120.078C56.8537 119.911 55.1183 119.482 53.455 118.896C49.7335 117.583 46.3953 115.643 43.7588 112.65C43.3033 112.134 42.8902 111.579 42.4762 111.029C42.0911 110.518 41.4588 110.449 40.9437 110.227C37.5704 108.771 34.62 106.738 32.062 104.113C30.1543 102.155 28.7815 99.8359 27.8128 97.3443C26.9893 95.2268 26.6159 92.9308 27.5557 90.6913C28.7247 87.9044 31.4486 87.6523 33.7586 88.615C34.3846 88.8761 34.8374 89.0287 35.43 88.6195C36.2075 88.083 37.2168 88.214 38.0177 87.8075L38.0159 87.8057ZM103.272 107.584C103.997 107.716 104.497 107.249 104.976 106.863C107.279 105.009 109.149 102.79 110.703 100.271C111.922 98.2963 112.966 96.2533 113.853 94.116C114.627 92.2534 115.196 90.3602 115.141 88.3225C115.177 88.0596 115.356 87.8389 115.32 87.5482C115.082 85.6344 114.594 83.8516 112.856 82.6941C111.575 81.8409 110.189 81.5502 108.668 81.8678C106.503 82.3191 105.096 83.839 103.724 85.3715C103.344 85.7959 102.989 86.1342 102.437 86.2275C102.249 86.2589 102.072 86.2481 102.129 86.5047C102.334 87.4118 102.298 88.3512 102.459 89.2566C102.826 91.3166 102.456 93.3354 102.154 95.3426C101.94 96.7656 101.552 98.1877 101.044 99.5363C100.425 101.179 99.8012 102.835 98.764 104.301C98.4798 104.702 97.8476 105.075 98.1055 105.687C98.6287 106.93 99.4883 107.889 100.836 108.282C101.685 108.529 102.889 108.152 103.272 107.584ZM73.9732 122.332C75.125 122.15 75.9377 121.369 76.7206 120.641C78.9088 118.605 80.5549 116.168 81.7157 113.418C82.762 110.939 83.6478 108.41 84.1438 105.754C84.4541 104.092 84.7987 102.439 84.7004 100.734C84.9223 100.535 84.8294 100.27 84.842 100.032C84.9412 98.1096 84.5903 96.2371 83.9283 94.4588C83.3799 92.9846 82.5113 91.619 81.032 90.8824C77.6776 89.2117 74.3971 89.4082 71.2474 91.4647C68.647 93.1632 67.0135 95.636 65.6957 98.3546C65.4387 98.8849 65.1392 99.2294 64.5033 99.0006C64.0289 98.8301 63.7953 98.2083 64.0812 97.6745C64.6855 96.5484 65.3647 95.461 65.9636 94.3323C66.1521 93.9779 66.6987 93.7751 66.614 93.4063C66.5111 92.9604 65.9095 93.0627 65.5415 92.9039C63.6834 92.1035 61.8236 92.0174 59.9799 93.0133C59.51 93.2672 59.0852 93.0932 58.7731 92.6329C58.4321 92.1295 58.7893 91.7949 59.105 91.602C60.1964 90.9344 61.4051 90.5055 62.694 90.5836C64.2715 90.6787 65.8184 90.9945 67.202 91.829C67.5376 92.0308 67.8848 92.0237 68.1221 91.7572C68.5749 91.2511 69.1846 90.964 69.6942 90.5369C70.5845 89.7904 71.647 89.3068 72.6743 88.7694C74.306 87.9152 76.0477 88.1565 77.7696 88.1736C79.8757 88.1942 81.7049 88.9802 83.2319 90.37C85.5509 92.4813 86.1922 95.3327 86.5151 98.281C86.7226 100.172 86.4213 102.045 86.2355 103.926C86.075 105.55 85.6222 107.096 85.2136 108.658C84.9205 109.779 84.5723 110.886 84.2223 111.992C84.1745 112.143 84.106 112.243 84.2268 112.378C84.3973 112.569 84.5155 112.408 84.6742 112.346C85.4625 112.039 86.2662 111.773 87.0527 111.464C89.4817 110.511 91.734 109.229 93.6885 107.515C96.3557 105.175 98.258 102.306 99.3881 98.9243C100.229 96.4094 100.802 93.8424 100.842 91.2045C100.888 88.2149 100.297 85.3258 99.1699 82.5237C98.1163 79.9064 96.6461 77.5808 94.8214 75.4498C94.5797 75.1681 94.3019 74.9187 93.9348 75.0586C93.4739 75.2345 92.9679 75.2524 92.534 75.4292C90.8735 76.1048 89.1209 76.426 87.3883 76.8011C86.8543 76.9168 86.2716 77.0326 85.6998 76.9832C85.1387 76.9348 84.8708 76.618 84.8772 76.0537C84.8826 75.5054 85.1946 75.2569 85.6961 75.2058C87.9141 74.9788 90.0725 74.514 92.1588 73.7101C95.9074 72.2655 99.242 70.2736 101.827 67.1073C103.934 64.5268 105.352 61.6476 105.839 58.396C106.376 54.8106 105.371 51.5886 102.88 48.8852C102.557 48.5344 102.401 48.1665 102.414 47.6919C102.441 46.783 102.282 45.8893 102.108 45.0028C101.622 42.5112 100.85 40.094 99.665 37.8554C97.9107 34.5428 95.552 31.6878 92.645 29.2814C90.4874 27.495 88.1189 26.0567 85.5572 24.9504C83.4178 24.0271 81.1899 23.3775 78.8826 22.9424C76.6746 22.5251 74.4593 22.3098 72.226 22.2434C71.0363 22.2084 69.8376 22.2963 68.6497 22.404C67.7207 22.4883 66.7475 22.5072 65.877 22.7441C64.3112 23.1703 62.7057 23.4116 61.1534 23.9616C59.74 24.4623 58.3032 24.9288 56.9493 25.5533C53.2846 27.2437 50.0636 29.5846 47.2431 32.4657C45.837 33.9022 44.6094 35.4849 43.5081 37.1565C42.2345 39.0909 41.2279 41.1653 40.3728 43.3214C39.2561 46.1342 38.659 49.0637 38.2604 52.039C38.1142 53.1327 38.135 54.2498 38.0971 55.357C38.0295 57.3363 38.024 59.3273 38.2847 61.2824C38.5923 63.5865 39.2129 65.8359 40.0318 68.0251C40.9428 70.4585 42.0956 72.7967 42.7134 75.3475C43.0679 76.8109 43.2916 78.2725 43.4927 79.7575C43.6794 81.1383 43.5162 82.4958 43.4648 83.8552C43.3664 86.4276 43.3872 88.982 43.7768 91.532C43.8319 91.8891 43.8734 92.2695 43.5992 92.6571C42.2796 94.5189 41.2657 96.5359 40.6235 98.7341C40.4765 99.2384 40.058 99.4376 39.5195 99.3667C38.9711 99.2949 38.954 98.919 38.9946 98.5026C39.0893 97.5238 39.3969 96.6032 39.8812 95.7589C40.0778 95.4161 40.0733 95.2448 39.7017 95.1945C37.9618 94.9585 36.497 94.0658 35.0493 93.191C34.4558 92.8321 33.8055 92.3359 33.746 91.4907C33.6675 90.3647 33.5836 90.2417 32.5671 89.9842C32.3551 89.9304 32.1143 89.9905 31.8987 89.9421C30.8515 89.707 30.0244 90.0022 29.4598 90.8599C28.4821 92.3458 28.7057 93.9545 29.0918 95.5283C29.8269 98.5269 31.5488 100.98 33.6386 103.189C34.6218 104.228 35.807 105.035 36.9525 105.897C38.687 107.202 40.5983 108.087 42.5393 108.976C43.0742 109.221 43.6307 109.488 43.9861 110.048C44.6193 111.047 45.4428 111.886 46.3051 112.702C48.6051 114.88 51.3462 116.257 54.3119 117.272C56.1195 117.89 57.9721 118.316 59.8699 118.412C60.8359 118.462 61.8371 118.564 62.8356 118.337C62.5037 117.471 62.2592 116.634 62.0761 115.78C61.9462 115.173 62.3404 114.84 62.8067 114.765C63.2162 114.7 63.66 114.867 63.7583 115.45C63.8431 115.949 64.0235 116.435 64.1885 116.917C65.0797 119.51 66.3172 121.832 69.1142 122.849C70.8063 123.465 72.4506 123.428 73.9696 122.332L73.9732 122.332ZM38.4615 43.5089C38.6464 42.2366 39.313 41.2918 39.7901 40.2806C41.604 36.4369 44.0646 33.0381 47.2071 30.1346C48.4861 28.953 49.8084 27.8341 51.2362 26.8373C51.3498 26.7583 51.4184 26.6139 51.5077 26.4999C51.3868 26.4353 51.2714 26.3312 51.1433 26.3115C50.2151 26.167 49.2978 25.9598 48.349 25.932C46.6848 25.8835 45.1343 26.3321 43.5793 26.848C42.441 27.2258 41.6121 28.0225 40.7128 28.7215C38.8701 30.1544 37.7246 32.096 37.0842 34.2817C36.5556 36.086 36.589 37.9694 36.9011 39.8329C37.1185 41.1339 37.5857 42.3264 38.4624 43.5098L38.4615 43.5089ZM55.5215 24.2075C57.2578 23.5004 58.9264 22.7647 60.6717 22.2156C62.0049 21.7957 63.3542 21.4556 64.7252 21.217C66.0105 20.9926 67.3031 20.7908 68.6118 20.7217C70.3121 20.632 72.0042 20.2937 73.7161 20.5853C73.9037 20.6176 74.14 20.6867 74.2654 20.4767C74.4395 20.1833 74.1238 20.1089 73.9822 19.9806C72.1476 18.3171 70.0784 17.1991 67.5592 16.8456C64.6377 16.4356 61.994 17.1193 59.5758 18.6284C58.0885 19.5562 56.906 20.885 56.096 22.4731C55.8299 22.9962 55.4845 23.5157 55.5224 24.2066L55.5215 24.2075ZM31.7661 55.7518C31.8076 56.3673 31.7761 56.9981 31.9032 57.5956C32.2667 59.2977 32.9008 60.8912 34.0545 62.2388C34.7309 63.0293 35.4426 63.7812 36.4176 64.211C36.8208 64.3886 37.0517 64.3877 36.9399 63.7857C36.5674 61.7857 36.3374 59.7759 36.2986 57.7284C36.2345 54.3225 36.5601 50.9677 37.2105 47.6335C37.2493 47.4335 37.4991 47.2074 37.2366 47.0369C37.04 46.9095 36.8199 47.0593 36.6116 47.1508C35.4787 47.6488 34.5722 48.4653 33.8542 49.4101C32.4453 51.2656 31.6913 53.3831 31.7661 55.7509V55.7518ZM41.0583 79.229C41.5381 79.2317 41.733 79.1545 41.6374 78.6189C41.4065 77.3251 41.0763 76.0671 40.7119 74.802C40.021 72.4046 38.8665 70.2162 37.8806 67.9498C37.6714 67.468 37.4729 67.4913 37.1753 67.9103C36.3022 69.1377 36.0406 70.559 35.9666 71.991C35.8656 73.9398 36.515 75.6975 37.7958 77.186C38.6771 78.2106 39.8235 78.8477 41.0592 79.229H41.0583ZM41.6752 85.4971C41.733 84.2132 41.7709 83.1499 41.8331 82.0876C41.8656 81.5358 41.6193 81.4712 41.227 81.735C40.1671 82.4474 39.3518 83.315 39.4284 84.7174C39.4501 85.1122 39.4302 85.5088 39.4203 85.9045C39.3878 87.1983 40.1473 88.0516 41.0872 88.7703C41.4416 89.0421 41.7041 88.9434 41.6852 88.3934C41.65 87.3553 41.6752 86.3154 41.6752 85.4971ZM37.9429 89.8218C37.3079 89.7815 36.7018 89.8927 36.1326 90.2776C35.8332 90.4804 35.5319 90.6267 35.549 91.0313C35.5662 91.4449 35.8313 91.6818 36.1876 91.8559C37.0824 92.2937 37.9618 92.763 38.8629 93.1865C39.9985 93.7194 40.8094 93.1847 40.6262 91.96C40.4531 90.8025 39.4798 89.6424 37.9429 89.8227V89.8218ZM100.43 81.0737C100.931 81.9602 101.116 82.9256 101.503 83.8175C101.923 84.782 101.891 84.7623 102.654 84.0041C102.946 83.7134 102.89 83.4963 102.716 83.2379C102.335 82.6681 101.978 82.0742 101.529 81.56C101.288 81.2837 100.974 80.932 100.429 81.0728L100.43 81.0737Z" fill="#242730"/>
<path d="M111.812 54.1108C111.477 52.9273 111.141 51.7438 110.81 50.5604C110.666 50.0481 110.498 49.5384 110.405 49.0162C110.322 48.5542 109.988 48.4707 109.632 48.346C108.708 48.023 107.78 47.7054 106.865 47.1868C107.681 46.5318 108.659 46.346 109.548 45.9862C110.064 45.7781 110.387 45.4883 110.476 44.967C110.735 43.4399 111.377 42.0186 111.711 40.5131C111.745 40.3596 111.806 40.199 111.965 40.2269C112.116 40.2529 112.129 40.435 112.171 40.584C112.603 42.1443 113.079 43.692 113.473 45.2613C113.577 45.6722 113.779 45.8373 114.12 45.9665C114.828 46.2357 115.533 46.512 116.234 46.7992C116.406 46.87 116.66 46.9275 116.63 47.1751C116.607 47.3734 116.43 47.5412 116.239 47.5833C115.681 47.7072 115.207 48.0804 114.665 48.1773C113.689 48.3523 113.411 49.0028 113.202 49.8318C112.839 51.2674 112.403 52.6842 111.997 54.109L111.812 54.1108Z" fill="#02F5E6"/>
<path d="M73.9721 122.333C72.8879 121.805 72.2331 120.948 71.6549 119.885C71.1471 118.951 71.0722 118.023 71.0136 117.056C70.8567 114.47 70.9703 111.907 71.4393 109.34C71.8001 107.366 72.4153 105.492 73.2243 103.689C74.0695 101.804 75.1888 100.057 76.7727 98.6722C78.1708 97.4511 79.7366 96.7638 81.6813 97.0752C83.0189 97.2896 84.2086 98.7144 84.3989 99.9212C84.4476 100.23 84.5793 100.469 84.6993 100.732C84.7976 102.437 84.453 104.09 84.1428 105.753C83.6467 108.41 82.7618 110.938 81.7146 113.418C80.5538 116.168 78.9086 118.604 76.7195 120.64C75.9366 121.368 75.1239 122.149 73.9721 122.332V122.333Z" fill="#02F5E6"/>
<path d="M38.4615 43.5089C37.5848 42.3255 37.1184 41.133 36.9002 39.832C36.589 37.9685 36.5547 36.0852 37.0833 34.2808C37.7237 32.0951 38.8692 30.1535 40.7119 28.7206C41.6112 28.0217 42.4401 27.2249 43.5784 26.8472C45.1343 26.3313 46.6848 25.8826 48.348 25.9311C49.296 25.9589 50.2133 26.1662 51.1424 26.3106C51.2704 26.3304 51.3859 26.4344 51.5068 26.499C51.4175 26.613 51.3489 26.7565 51.2353 26.8364C49.8074 27.8332 48.4851 28.9521 47.2061 30.1338C44.0637 33.0372 41.6022 36.436 39.7892 40.2798C39.312 41.291 38.6464 42.2358 38.4606 43.508L38.4615 43.5089Z" fill="#02F5E6"/>
<path d="M55.5216 24.2075C55.4828 23.5166 55.8282 22.9971 56.0952 22.474C56.9052 20.8859 58.0877 19.5571 59.575 18.6293C61.9932 17.1202 64.6369 16.4365 67.5584 16.8465C70.0776 17.2 72.1477 18.318 73.9814 19.9815C74.123 20.1098 74.4387 20.1842 74.2646 20.4776C74.1401 20.6876 73.9029 20.6185 73.7153 20.5862C72.0042 20.2946 70.3112 20.6329 68.611 20.7226C67.3023 20.7917 66.0097 20.9944 64.7244 21.2179C63.3534 21.4565 62.004 21.7975 60.6709 22.2165C58.9256 22.7656 57.2579 23.5013 55.5207 24.2084L55.5216 24.2075Z" fill="#02F5E6"/>
<path d="M31.7658 55.7518C31.691 53.384 32.445 51.2656 33.8539 49.411C34.5719 48.4662 35.4784 47.6497 36.6112 47.1517C36.8196 47.0602 37.0397 46.9104 37.2363 47.0378C37.4979 47.2074 37.2489 47.4344 37.2102 47.6344C36.5607 50.9686 36.2342 54.3234 36.2983 57.7293C36.337 59.7759 36.5661 61.7866 36.9396 63.7866C37.0523 64.3895 36.8205 64.3895 36.4173 64.2119C35.4423 63.7821 34.7306 63.0302 34.0541 62.2397C32.9005 60.8921 32.2664 59.2986 31.9029 57.5965C31.7758 56.999 31.8064 56.3682 31.7658 55.7527V55.7518Z" fill="#02F5E6"/>
<path d="M103.271 107.584C103.741 106.414 104.518 105.416 105.344 104.513C106.088 103.7 106.467 102.705 107.097 101.85C108.294 100.226 109.187 98.4201 110.135 96.6553C111.137 94.7899 111.939 92.8186 112.937 90.9506C113.475 89.9457 113.941 88.8098 115.14 88.3226C115.195 90.3602 114.626 92.2534 113.852 94.1161C112.965 96.2533 111.921 98.2963 110.702 100.271C109.148 102.79 107.278 105.009 104.975 106.863C104.496 107.248 103.996 107.715 103.271 107.584Z" fill="#02F5E6"/>
<path d="M41.058 79.2281C39.8223 78.8468 38.6768 78.2097 37.7947 77.1851C36.5139 75.6966 35.8636 73.9398 35.9655 71.9901C36.0394 70.559 36.301 69.1368 37.1741 67.9094C37.4727 67.4904 37.6702 67.4671 37.8795 67.9489C38.8644 70.2153 40.0199 72.4037 40.7108 74.8011C41.0752 76.0662 41.4053 77.3233 41.6362 78.618C41.7318 79.1536 41.537 79.2308 41.0571 79.2281H41.058Z" fill="#02F5E6"/>
<path d="M41.6744 85.4963C41.6744 86.3145 41.65 87.3544 41.6843 88.3925C41.7024 88.9426 41.4408 89.0404 41.0863 88.7694C40.1474 88.0507 39.387 87.1974 39.4195 85.9036C39.4294 85.5079 39.4492 85.1104 39.4276 84.7166C39.3509 83.3151 40.1672 82.4474 41.2261 81.7341C41.6185 81.4703 41.8638 81.5349 41.8322 82.0867C41.77 83.1491 41.7321 84.2123 41.6744 85.4963Z" fill="#02F5E6"/>
<path d="M37.9419 89.8209C39.4789 89.6406 40.4521 90.8007 40.6253 91.9582C40.8084 93.1829 39.9975 93.7177 38.8619 93.1847C37.9608 92.7612 37.0814 92.2919 36.1867 91.8541C35.8304 91.68 35.5652 91.4431 35.5481 91.0295C35.5309 90.6258 35.8322 90.4786 36.1316 90.2758C36.7008 89.8909 37.3069 89.7797 37.9419 89.82V89.8209Z" fill="#02F5E6"/>
<path d="M72.4476 81.1455C72.4476 81.0459 72.4503 80.9463 72.4476 80.8476C72.4169 79.7889 72.6803 79.5215 73.7789 79.5278C74.6944 79.5332 75.5684 79.3896 76.3919 78.9571C76.8258 78.7292 77.1261 78.4197 77.0684 77.9307C77.0134 77.4641 76.5858 77.3825 76.198 77.2811C74.3138 76.7894 72.3853 76.8513 70.4641 76.8154C69.4251 76.7957 69.2059 76.5095 69.2672 75.5108C69.3042 74.9079 69.4079 74.2852 69.1473 73.6867C68.8749 73.0614 68.2318 72.9035 67.7348 73.3682C67.2188 73.8509 66.9771 74.4987 66.7318 75.1277C66.5108 75.6939 66.2663 76.1838 65.6413 76.4045C64.9504 76.6476 64.623 77.2829 64.3794 77.8724C64.0628 78.6377 63.4684 78.8719 62.7847 78.906C61.5914 78.9643 60.3927 78.915 59.1958 78.9248C58.5518 78.9302 58.191 78.4323 57.7589 78.1057C57.2286 77.7046 56.7848 77.1842 56.3248 76.6961C55.9225 76.2699 55.8738 75.4399 56.2725 75.2955C56.7307 75.1304 57.2268 75.0111 57.6507 75.5754C58.053 76.1102 58.632 76.5131 59.1281 76.9796C59.2661 77.1088 59.4186 77.1447 59.6026 77.1429C60.5262 77.1357 61.4507 77.1312 62.3743 77.1393C62.7153 77.142 62.9317 76.9814 63.0634 76.6898C63.4206 75.9029 64.0322 75.3556 64.7258 74.8702C64.8899 74.7554 65.0315 74.6037 65.11 74.3579C65.3481 73.6087 65.8063 72.9636 66.2718 72.3337C66.9988 71.3494 68.0658 71.3378 69.1013 71.4993C70.0853 71.6518 70.6157 72.4189 70.9052 73.3144C71.0225 73.6769 71.1533 74.0564 71.082 74.462C70.9738 75.0784 71.294 75.1986 71.8568 75.2085C73.3216 75.2336 74.7927 75.0757 76.2503 75.3484C78.9093 75.8446 79.3269 78.2995 78.2067 79.7449C77.5104 80.6439 76.4073 81.0046 75.3078 81.1365C74.4842 81.2352 74.2524 81.4945 74.1667 82.364C74.0423 83.6273 73.3523 84.7757 72.3448 85.5877C70.4245 87.1355 68.2408 87.3248 65.929 86.5801C65.4925 86.4392 65.0315 86.3675 64.5778 86.2849C64.254 86.2257 64.2225 86.6016 63.9744 86.7237C63.0833 87.1606 62.1876 87.541 61.2207 87.7994C60.5406 87.9816 60.3323 87.4881 60.1807 87.1445C60.022 86.7847 60.0256 86.3504 60.7255 86.197C61.7935 85.9628 62.8894 85.6129 63.7192 84.8601C64.5616 84.0956 65.3499 84.608 66.1094 84.8502C67.8051 85.3922 69.416 85.4128 70.9882 84.4877C71.9903 83.8982 72.2122 82.8951 72.4295 81.8893C72.481 81.6516 72.4368 81.394 72.4368 81.1455C72.4395 81.1455 72.4431 81.1455 72.4458 81.1455H72.4476Z" fill="#242730"/>
<path d="M82.8594 66.3958C81.7057 66.5708 80.1796 66.5609 78.6652 66.5223C76.5356 66.4676 74.4475 66.0342 72.456 65.2743C71.416 64.8777 70.3769 64.4389 69.4984 63.7095C69.0573 63.3425 68.7407 62.901 69.0736 62.3896C69.4253 61.8495 70.0423 62.011 70.4617 62.2954C73.109 64.0899 76.0774 64.665 79.2118 64.7619C82.0692 64.8508 84.8951 64.6363 87.6723 64.0002C91.5499 63.1128 95.2345 61.7194 98.3355 59.1613C99.6578 58.0712 100.771 56.7451 101.093 54.9443C101.192 54.3916 101.582 54.1359 102.173 54.2884C102.748 54.4365 103.014 54.8698 102.836 55.4486C102.418 56.8124 101.787 58.0577 100.819 59.1353C98.6755 61.5229 95.9308 62.9674 93.0147 64.1698C91.1666 64.9315 89.2435 65.4546 87.2953 65.8395C85.9567 66.1042 84.6101 66.4452 82.8594 66.3967V66.3958Z" fill="#242730"/>
<path d="M79.0332 54.6186C79.0278 56.8392 77.3041 58.4974 75.3107 58.4444C73.3859 58.3933 71.6541 56.9783 71.7001 54.3727C71.7362 52.3046 73.0368 50.6348 75.5344 50.7254C77.4845 50.7954 79.0404 52.4652 79.0332 54.6186Z" fill="#242730"/>
<path d="M93.2646 49.9467C93.2754 48.0023 94.5274 46.556 96.1672 46.731C97.4209 46.8646 98.2155 47.5887 98.7333 48.8099C99.343 50.249 99.2384 51.5339 98.3445 52.7147C97.2396 54.1718 95.4744 54.3333 94.1684 52.6492C93.5469 51.8488 93.2312 50.9588 93.2646 49.9467Z" fill="#242730"/>
<defs>
<clipPath id="clip0_689_37">
<rect width="91" height="25" fill="white" transform="translate(23 101)"/>
</clipPath>
</defs>
</svg>
