<svg width="140" height="140" viewBox="0 0 140 140" fill="none" xmlns="http://www.w3.org/2000/svg">
<g clip-path="url(#clip0_1742_786)">
<rect width="140" height="140" rx="30" fill="white"/>
<g clip-path="url(#clip1_1742_786)">
<path d="M142.375 25.8985C142.409 26.6714 142.235 27.4927 142.351 28.2028C142.54 29.3333 142.482 30.4879 142.743 31.599C142.734 31.6135 142.714 31.6328 142.714 31.6473C142.719 31.6859 142.738 31.7197 142.748 31.7536C142.671 33.5748 143 35.3767 143 37.198C142.99 58.8792 143 80.5603 142.985 102.241C142.985 103.855 142.85 105.473 142.777 107.087C142.777 107.126 142.777 107.164 142.777 107.203C142.656 109.159 142.467 111.106 142.366 113.063C142.288 114.584 141.954 116.092 141.683 117.604C141.301 119.729 140.584 121.734 139.766 123.72C138.75 126.193 137.22 128.348 135.642 130.483C133.672 133.145 131.077 135.068 128.332 136.826C126.091 138.261 123.656 139.28 121.129 140.092C121.028 140.072 120.94 140.092 120.868 140.174C120.151 140.343 119.435 140.512 118.714 140.681C118.675 140.681 118.636 140.691 118.598 140.696C117.237 140.961 115.882 141.261 114.512 141.478C113.921 141.57 113.302 141.444 112.706 141.512C110.939 141.725 109.158 141.729 107.382 141.86C106.166 141.952 104.942 141.985 103.717 141.985C96.0687 141.995 88.4154 141.99 80.767 141.995C80.4427 141.995 80.1232 141.99 79.8182 141.874C81.648 139.85 83.4778 137.826 85.0027 135.555C85.1963 135.27 85.4529 135.348 85.7046 135.396C86.179 135.488 86.5759 135.812 87.0697 135.86C87.7861 135.927 88.4203 136.217 89.0399 136.56C91.1456 137.72 93.4353 138.357 95.8024 138.599C98.4213 138.865 100.924 138.203 103.257 137.039C105.76 135.792 107.783 133.947 109.419 131.696C110.126 130.725 110.978 129.903 111.85 129.097C113.147 127.898 114.188 126.493 114.952 124.923C115.911 122.956 116.371 120.831 116.293 118.647C116.235 117.13 116.69 115.995 117.842 114.966C119.285 113.676 120.064 111.971 120.321 110.024C120.568 108.164 120.398 106.348 120.045 104.522C119.692 102.676 118.898 100.99 117.925 99.4347C116.797 97.6328 115.364 96.0386 113.495 94.8985C113.181 94.7053 113.084 94.3526 113.273 93.9661C113.365 93.7729 113.457 93.5893 113.471 93.3284C113.51 92.7149 113.529 92.0772 113.82 91.5024C114.265 90.6231 114.938 90.0386 115.858 89.628C117.61 88.855 119.328 87.9999 121.037 87.1304C122.886 86.1835 124.281 84.7681 125.118 82.8598C126.202 80.3961 126.319 77.8405 125.718 75.2367C125.2 73.0048 124.256 71.0144 122.47 69.483C121.347 68.5217 120.147 67.7342 118.806 67.0724C117.266 66.3043 115.635 66.1207 114.028 66.0627C111.617 65.9709 109.221 66.2656 106.922 67.1449C105 67.8792 103.175 68.7536 101.573 70.0579C100.454 70.9661 99.2636 71.797 98.4164 72.9806C96.2574 76.0096 94.7278 79.2898 94.4228 83.0579C94.3066 84.5024 93.658 85.2077 92.3703 85.4782C91.9395 85.57 91.7797 85.4492 91.6442 85.0386C91.3102 84.0144 91.0439 82.971 90.7148 81.9468C90.0564 79.8888 89.2819 77.8695 88.4299 75.884C87.2682 73.1738 85.9176 70.57 84.3589 68.0676C83.7344 67.0676 83.0422 66.1159 82.3984 65.1352C81.711 64.0869 80.8735 63.1642 80.1232 62.1738C79.6488 61.5507 79.0292 60.9854 78.5064 60.3671C77.2575 58.8792 75.8004 57.6038 74.3579 56.3043C71.647 53.8598 68.6216 51.8937 65.5041 50.0386C64.0035 49.1449 62.4157 48.4347 60.8037 47.7584C58.9546 46.9854 57.0473 46.3767 55.1643 45.7052C53.2086 45.0096 51.1658 44.6956 49.152 44.256C48.0629 44.0193 46.9689 43.7777 45.8603 43.6908C44.9696 43.6183 44.108 43.4154 43.2318 43.285C41.6973 43.0627 40.1531 43.2463 38.6137 43.0676C35.6124 42.7149 32.6063 43.2173 29.6002 43.1835C29.4018 43.1835 29.1984 43.1932 29 43.2222C26.6764 43.5313 24.3722 43.9178 22.0729 44.3864C19.4637 44.9178 16.9368 45.7101 14.4583 46.6231C11.7717 47.6135 9.17708 48.8695 6.72282 50.3526C3.83289 52.1014 1.12206 54.1159 -1.37093 56.4057C-1.54519 56.57 -1.69042 56.7729 -1.9615 56.7922C-1.97118 56.6521 -1.9857 56.512 -1.9857 56.3719C-1.9857 49.454 -2.00507 42.5313 -1.97118 35.6135C-1.96634 34.2028 -1.78239 32.797 -1.68074 31.3864C-1.65169 31.3526 -1.64685 31.3188 -1.67105 31.2801C-1.61297 29.9275 -1.52583 28.5748 -1.42902 27.2222C-1.29832 25.3912 -0.973985 23.6038 -0.639973 21.8067C-0.286598 19.8985 0.212 18.0241 1.00104 16.2705C2.18219 13.6521 3.56664 11.14 5.49811 8.94679C6.20486 8.14486 6.80511 7.24148 7.60868 6.53133C9.51593 4.84051 11.5539 3.31877 13.7758 2.04341C15.6589 0.966113 17.6581 0.120703 19.7106 -0.497655C21.308 -0.980747 22.9781 -1.32374 24.6675 -1.46384C24.7643 -1.4735 24.8611 -1.50249 24.9628 -1.52181C25.0112 -1.5363 25.0596 -1.55079 25.108 -1.57012C25.8632 -1.66191 26.6135 -1.75369 27.3686 -1.84548L27.4267 -1.83582L27.4848 -1.85514C27.6107 -1.85997 27.7317 -1.86964 27.8576 -1.87447L27.9108 -1.8648L27.9592 -1.89379C28.2061 -1.91794 28.4481 -1.9421 28.695 -1.96625C29.9004 -1.97592 31.1009 -1.98558 32.3062 -1.99524C32.8387 -1.98558 33.3663 -1.98558 33.8988 -1.96142C34.2667 -1.94693 107.614 -1.93244 107.982 -1.95176C108.413 -1.97592 108.848 -1.97108 109.284 -1.97592C109.889 -1.97592 110.489 -1.97592 111.094 -1.97108C114.081 -1.96625 117 -1.39621 119.919 -0.864804L119.958 -0.830988L120.006 -0.84065C120.103 -0.811664 120.2 -0.777848 120.292 -0.748862L120.321 -0.715046L120.36 -0.729539C120.485 -0.642582 120.626 -0.618428 120.776 -0.628089L120.805 -0.599104L120.839 -0.618428C120.989 -0.507317 121.168 -0.502486 121.342 -0.497655C121.386 -0.4735 121.429 -0.454176 121.478 -0.430022C121.652 -0.376882 121.826 -0.323742 122.001 -0.270602L122.025 -0.241616L122.054 -0.256109C123.39 0.309109 124.794 0.714906 126.057 1.45404C127.282 2.17384 128.55 2.82119 129.717 3.64727C131.89 5.1835 133.889 6.8695 135.55 8.99027C137.046 10.9033 138.261 12.9661 139.422 15.0676C139.931 15.9903 140.168 17.0627 140.584 18.0434C140.875 18.7294 141.02 19.4492 141.257 20.1449C141.533 20.942 141.702 21.7874 141.838 22.5941C142.007 23.6328 142.09 24.6956 142.332 25.7342C142.346 25.7874 142.361 25.8405 142.375 25.8888V25.8985ZM61.3072 36.5217C61.1765 36.4202 61.0264 36.454 60.8812 36.4589C60.6634 36.2028 60.6004 35.9081 60.6053 35.5748C60.6246 34.0531 60.6246 32.5362 60.6295 31.0144C60.6295 29.5072 59.7823 28.8888 58.3398 29.3816C58.0203 29.4879 57.6234 29.6038 57.7057 30.111C57.7299 30.2705 57.5895 30.2946 57.4685 30.3139C57.0667 30.1545 56.9941 30.3816 56.9941 30.7052C56.9747 32.5217 57.0086 34.3333 57.1054 36.1449C57.1199 36.4009 57.2071 36.57 57.4975 36.5458C57.5314 36.8212 57.5604 37.1014 57.5943 37.3767C57.6669 38.0337 58.4657 38.9081 59.1095 38.9275C60.4939 38.9709 61.8832 38.9854 63.2677 38.9565C63.9648 38.942 64.4972 38.3381 64.4827 37.7197C64.4634 37.0096 63.9648 36.5507 63.1757 36.5362C62.5513 36.5217 61.9316 36.5265 61.3072 36.5217ZM83.7973 30.4347C83.4004 29.227 82.9405 29.2801 81.6626 29.3719C80.9558 29.4251 80.7815 29.7922 80.7815 30.9178C80.7815 32.4395 80.7912 33.9661 80.7719 35.4879C80.7573 36.5072 80.4088 36.855 79.5084 36.8212C78.7242 36.7922 78.4289 36.5168 78.4096 35.6521C78.3757 34.1594 78.3757 32.6714 78.3708 31.1787C78.366 29.6038 78.0804 29.3188 76.512 29.3381C76.4539 29.3381 76.3813 29.3139 76.3329 29.3381C75.9553 29.5265 75.3454 29.5023 75.3551 30.1062C75.3889 32.285 75.1856 34.4782 75.4761 36.6473C75.6068 37.6135 76.2022 38.3381 77.1171 38.7052C78.2498 39.1594 79.4552 39.1835 80.646 39.0724C81.74 38.9709 82.7905 38.6038 83.3181 37.5555C83.657 36.884 83.8699 36.111 83.8845 35.3429C83.9184 33.8212 83.8845 32.2994 83.8796 30.7729C83.9135 30.6424 83.899 30.5265 83.7973 30.4299V30.4347ZM54.2978 24.6231C54.322 24.5941 54.3171 24.57 54.2978 24.5458C54.2978 19.1497 54.2978 13.7536 54.2929 8.35742C54.2929 7.64727 54.23 7.56998 53.5039 7.56515C51.9742 7.56032 50.4445 7.57481 48.9148 7.55549C48.5179 7.55065 48.392 7.68592 48.392 8.07239C48.3969 13.57 48.392 19.0627 48.3824 24.5603C48.3824 24.8937 48.4743 25.0144 48.8229 25.0144C50.4542 24.9999 52.0855 25.0048 53.7169 25.0144C54.0073 25.0144 54.23 24.942 54.3026 24.628L54.2978 24.6231ZM85.3899 19.0241C85.419 19.0241 85.4432 19.0289 85.4722 19.0337C85.5691 19.0337 85.661 19.0386 85.7578 19.0434C85.9418 19.1352 86.1306 19.1159 86.3194 19.0579C86.5324 19.0579 86.7454 19.0627 86.9584 19.0676C87.031 19.0676 87.0987 19.0676 87.1713 19.0676C87.302 19.0676 87.4327 19.0579 87.5586 19.0531C87.6699 19.0579 87.7813 19.0676 87.8926 19.0724C88.1637 19.5603 88.0185 20.0869 88.004 20.5941C87.9991 20.7922 87.8587 20.9613 87.5973 20.9178C87.3989 20.8888 87.2052 20.9806 87.0116 20.9999C85.8934 21.1062 84.7945 21.0531 83.8554 20.3333C82.137 19.0241 81.0478 15.5941 83.1487 13.3961C83.5795 12.9468 84.0684 12.4879 84.6929 12.3912C86.5227 12.1062 88.3428 12.0048 89.9645 13.1642C90.2743 13.3864 90.434 13.3188 90.6083 12.9903C91.2134 11.884 91.8378 10.7874 92.472 9.69558C92.6462 9.4009 92.6608 9.22215 92.3461 9.00476C91.1359 8.15935 89.795 7.6521 88.3525 7.42022C86.6582 7.14969 84.9494 7.14486 83.2455 7.32843C80.8009 7.59413 78.884 8.85017 77.4802 10.7584C76.5556 12.0144 75.9117 13.454 75.7907 15.1159C75.6939 16.4251 75.7617 17.6908 76.086 18.9323C76.6959 21.2753 78.1724 22.9854 80.22 24.2173C81.2027 24.8115 82.3112 25.169 83.4343 25.3236C84.4605 25.4637 85.5207 25.3574 86.5663 25.3526C88.822 25.3429 90.8164 24.5893 92.5978 23.2463C92.9899 22.9516 93.4256 22.6521 93.5031 22.0966C93.5127 22.0869 93.5369 22.0772 93.5369 22.0724C93.5369 22.0482 93.5224 22.0241 93.5176 21.9999C93.5176 20.1883 93.5176 18.3719 93.5224 16.5603C93.5321 16.5507 93.5515 16.541 93.5515 16.5313C93.5466 16.5072 93.5321 16.4879 93.5224 16.4637C93.4111 15.4927 93.169 15.2705 92.1041 15.2608C89.9548 15.2463 87.8055 15.2608 85.6562 15.2463C85.2835 15.2463 85.1092 15.3284 85.1189 15.7439C85.1431 16.6811 85.1285 17.6231 85.1237 18.5651C85.1237 18.7777 85.114 18.9758 85.3899 19.0193V19.0241ZM29.9826 7.68592C29.9972 13.256 30.0601 18.8308 29.9342 24.4009C29.9246 24.855 29.9972 25.0193 30.5006 25.0144C33.8407 24.9903 37.1809 25.0241 40.521 24.9758C41.5521 24.9613 42.588 24.8164 43.5707 24.3912C45.841 23.4106 46.843 21.5458 46.3057 19.14C46.0152 17.8308 45.1633 16.9709 44.0063 16.3671C43.3964 16.0482 43.4012 15.9951 43.9337 15.5941C43.9966 15.5458 44.0644 15.5023 44.1273 15.454C45.3278 14.5651 45.9136 12.8792 45.5215 11.4395C44.9599 9.36225 43.014 7.87433 40.6565 7.68109C38.1442 7.47336 35.627 7.59896 33.1146 7.56998C32.0884 7.55549 31.067 7.5893 30.0407 7.59896C29.9681 7.59413 29.9488 7.62312 29.9778 7.69075L29.9826 7.68592ZM63.1322 17.3671C63.5146 17.9565 63.9067 18.5313 64.2697 19.1304C65.3541 20.9081 66.4287 22.6956 67.5034 24.4782C67.6728 24.7536 67.8422 25.0144 68.2343 25.0096C69.9431 24.9999 71.6567 24.9999 73.3655 25.0096C73.685 25.0096 73.7818 24.8888 73.7721 24.5845C73.7576 23.8647 73.7721 23.14 73.7721 22.4202C73.7721 17.6908 73.7721 12.9565 73.7721 8.22698C73.7721 7.88399 73.8351 7.54582 73.2832 7.55549C71.6519 7.57964 70.0254 7.56998 68.3941 7.55549C68.0407 7.55549 67.8567 7.6666 67.9003 8.04341C67.8761 8.07723 67.8761 8.11587 67.9003 8.14969V15.9661C67.5469 15.855 67.6147 15.6521 67.5469 15.5265C66.1286 12.9709 64.7102 10.4106 63.2144 7.89848C63.0692 7.65693 62.8659 7.54582 62.5706 7.54582C60.9199 7.56032 59.2692 7.56515 57.6185 7.54582C57.2264 7.54582 57.0957 7.66177 57.0957 8.0579C57.1054 13.5507 57.1006 19.0434 57.0957 24.5362C57.0957 24.8647 57.1829 25.0048 57.5362 24.9999C59.1869 24.9903 60.8376 24.9903 62.4883 24.9999C62.7836 24.9999 62.953 24.9178 62.9676 24.6135L63.0014 24.5748L62.9676 24.5362C62.9676 22.6376 62.9676 20.7391 62.9627 18.8405C62.9724 18.8308 62.9918 18.8212 62.9918 18.8164C62.9918 18.7922 62.9821 18.768 62.9724 18.7439C62.9821 18.4202 62.9918 18.0965 63.0014 17.7729C63.0499 17.6328 63.016 17.4685 63.1467 17.3574L63.1322 17.3671ZM104.903 25.3622C106.994 25.4975 108.969 24.9758 110.76 23.8212C113.06 22.3381 114.226 20.1304 114.575 17.4927C114.977 14.4492 114.144 11.8067 111.825 9.67626C110.209 8.19317 108.379 7.31877 106.142 7.28012C105.281 7.26563 104.429 7.26563 103.572 7.28978C101.597 7.33809 99.8686 7.98061 98.339 9.16418C96.848 10.3188 95.8315 11.8502 95.3813 13.6569C95.0134 15.1159 95.0473 16.6328 95.2748 18.1352C95.6572 20.6569 97.0271 22.541 99.1183 23.8985C100.846 25.0193 102.788 25.4927 104.903 25.3622ZM98.0872 29.111C97.5644 29.111 97.0368 29.0724 96.5188 29.1207C95.3038 29.2318 94.3066 29.7149 94.0452 31.0193C93.8322 32.0676 93.8274 33.1304 94.752 33.9226C95.299 34.3912 95.8944 34.797 96.5818 35.0676C97.1772 35.3043 97.7629 35.5796 98.3438 35.8502C98.5568 35.9468 98.7165 36.111 98.6536 36.3719C98.5858 36.6424 98.339 36.5845 98.1502 36.5845C97.2643 36.5845 96.3785 36.5651 95.4926 36.5651C94.7423 36.5651 94.2921 36.9275 94.2098 37.5651C94.1372 38.169 94.5148 38.7294 95.207 38.8598C96.756 39.1594 98.3196 39.2415 99.8783 38.9081C101.001 38.6666 101.631 37.9468 101.761 36.8405C101.907 35.6279 101.732 34.483 100.546 33.8019C99.554 33.227 98.5423 32.6714 97.4289 32.3429C97.1675 32.2656 96.9981 32.1593 97.032 31.8308C97.0707 31.425 97.366 31.5555 97.5693 31.5507C98.5374 31.5265 99.5007 31.5265 100.469 31.5168C100.803 31.5168 101.142 31.4589 101.287 31.1255C101.611 30.3961 101.205 29.6183 100.459 29.3333C99.6799 29.0337 98.8811 29.1207 98.0872 29.111ZM38.4927 34.0289C38.4927 35.2318 38.4927 36.4347 38.4927 37.6328C38.4927 37.9613 38.5411 38.2705 38.7735 38.5217C39.3205 39.111 40.0079 38.9854 40.6323 38.7825C41.2616 38.5748 41.5279 38.0241 41.523 37.3623C41.523 36.8792 41.5327 36.4009 41.523 35.9178C41.5133 35.6424 41.6392 35.5458 41.8861 35.6086C42.8784 35.8598 43.8514 35.6956 44.8244 35.4782C45.8022 35.256 46.3008 34.4637 46.5138 33.6666C46.6591 33.1207 46.5477 32.4154 46.4993 31.7777C46.4122 30.5603 45.7103 29.5941 44.6017 29.3284C42.951 28.9323 41.281 29.1159 39.6206 29.1497C38.938 29.1642 38.5072 29.7825 38.4975 30.483C38.4879 31.6666 38.4975 32.8453 38.4975 34.0289H38.4927Z" fill="#EA6A41"/>
<path d="M73.0801 141.976C72.9397 141.986 72.7994 142 72.659 142C66.4241 142 60.194 141.995 53.9591 141.99C53.7994 141.754 53.8526 141.502 53.8914 141.242C54.0947 139.879 54.2689 138.507 54.3125 137.13C54.3658 135.565 54.1189 134.019 53.9737 132.469C53.7703 130.295 53.141 128.232 52.3617 126.222C51.1999 123.217 49.5202 120.507 47.4919 117.99C45.3668 115.353 42.8835 113.135 40.071 111.295C36.0338 108.657 31.6481 106.86 26.8751 105.947C23.0654 105.222 19.2751 104.841 15.3977 105.261C13.2435 105.493 11.1088 105.787 8.99336 106.217C5.89043 106.841 2.91337 107.86 0.0621619 109.251C-0.446117 109.502 -0.862423 109.971 -1.48688 109.981C-1.61274 108.367 -1.69987 106.749 -1.87414 105.145C-2.04357 103.585 -1.96127 102.024 -1.96611 100.464C-1.98064 90.1594 -1.96127 79.8551 -2 69.5507C-2 68.6957 -1.66115 68.1063 -1.19159 67.4976C0.0718433 65.8503 1.41273 64.2754 2.8456 62.7778C3.66852 61.913 4.56891 61.1208 5.44992 60.3092C5.9582 59.8406 6.47616 59.3768 7.01349 58.942C9.40966 57.0048 11.9607 55.2947 14.657 53.8068C16.2981 52.8986 18.0117 52.1449 19.7398 51.4155C20.9645 50.8986 22.2135 50.401 23.4769 50.029C24.842 49.6232 26.2506 49.285 27.6496 48.971C29.552 48.5507 31.4787 48.3333 33.4053 48.0628C34.0201 47.9759 34.6445 47.9179 35.2641 47.8937C36.271 47.8551 37.273 47.8551 38.2799 47.8358C38.5074 47.8744 38.735 47.8889 38.9625 47.8213C39.0593 47.8213 39.1561 47.8213 39.2481 47.8213C39.3158 47.8213 39.3788 47.8164 39.4465 47.8116C39.5434 47.8164 39.6353 47.8213 39.7273 47.8261C39.7999 47.8261 39.8677 47.8261 39.9403 47.8261C40.0274 47.8309 40.1146 47.8358 40.2017 47.8406L40.255 47.8551L40.313 47.8406C40.3953 47.8406 40.4728 47.8406 40.5551 47.8406C41.1844 47.8647 41.8185 47.9034 42.443 47.7874C42.6027 47.7971 42.7625 47.7923 42.9174 47.8116C43.9581 47.9517 45.0037 48.0821 46.0445 48.2464C47.3563 48.4589 48.6779 48.6425 49.9704 48.9517C51.3742 49.285 52.7586 49.715 54.1431 50.1159C55.7115 50.5701 57.2218 51.1449 58.7321 51.7391C60.0052 52.2416 61.2106 52.8937 62.4256 53.5266C65.5334 55.1498 68.4233 57.0918 71.0712 59.3623C73.235 61.2174 75.2101 63.2609 77.0108 65.4783C78.8455 67.744 80.4671 70.1401 81.8661 72.6908C82.4567 73.7633 83.0569 74.8164 83.5313 75.9614C83.9283 76.9131 84.5091 77.8309 84.8819 78.8116C85.6951 80.9517 86.5907 83.0628 87.0215 85.3333C87.1377 85.942 87.1425 86.0242 86.5084 86.0145C86.0243 86.0097 85.5499 86.0387 85.0803 86.1836C82.2679 87.0676 79.8281 88.5169 77.8821 90.7633C76.367 92.5121 74.8712 94.2705 73.7723 96.314C72.233 99.1788 70.9018 102.121 70.2241 105.329C69.7352 107.652 69.1978 109.961 69.0429 112.338C68.9074 114.454 68.8832 116.565 69.3043 118.667C69.8078 121.184 70.5436 123.589 72.0442 125.734C73.0414 127.159 74.1983 128.449 75.5247 129.527C77.0641 130.778 78.7535 131.845 80.5784 132.667C81.2174 132.957 81.2223 133.116 80.7866 133.643C80.5688 133.908 80.3703 134.184 80.1573 134.449C78.4437 136.614 76.701 138.754 74.5614 140.531C74.0337 140.971 73.4432 141.353 73.0801 141.966V141.976ZM33.2359 52.7826C31.9337 52.8019 30.6606 53.0483 29.3971 53.3333C28.763 53.4783 28.1289 53.7295 27.6835 54.2705C27.4899 54.5073 27.485 54.7005 27.6593 54.9662C28.0127 55.5024 28.5452 55.5459 29.0922 55.5507C30.3798 55.5652 31.6723 55.4928 32.9551 55.5797C34.2911 55.6715 35.5885 55.9469 36.7745 56.6667C37.5974 57.1643 38.2509 57.8358 38.977 58.4348C39.8338 59.1449 40.802 58.942 41.3199 57.9903C41.8137 57.087 41.2715 56.3623 40.9133 55.6618C40.2404 54.3575 39.0109 53.6908 37.6652 53.2271C36.7067 52.8986 35.7143 52.7633 34.7026 52.7633L34.6881 52.7246L34.6736 52.7633C34.5235 52.7633 34.3734 52.7633 34.2234 52.7585L34.204 52.7198L34.1846 52.7585C34.0346 52.7585 33.8845 52.7585 33.7296 52.7585C33.5602 52.657 33.3908 52.657 33.2262 52.773L33.2359 52.7826ZM19.1299 71.1884C19.1493 72.0531 19.3332 72.8792 19.6285 73.7005C21.5212 78.9855 25.7521 81.5459 30.8784 81.7826C32.6598 81.8647 34.4073 81.3913 35.9854 80.4928C37.6555 79.5362 39.0254 78.2561 40.0371 76.6039C40.618 75.6522 40.9811 74.628 41.3344 73.5749C41.7169 72.4348 41.7217 71.2657 41.9057 70.1111C41.9492 70.1063 41.9734 70.0773 41.9734 70.0338C42.0025 69.942 42.0267 69.8454 42.0557 69.7536C42.1332 69.6957 42.1235 69.628 42.0654 69.5604C42.0702 69.4638 42.0751 69.3623 42.0799 69.2657C42.138 68.9614 42.1719 68.6618 42.0412 68.3623C41.7846 67.058 41.7072 65.7295 41.2667 64.4444C40.4728 62.1353 39.1755 60.2754 37.1085 58.9179C34.8236 57.4203 32.3403 57.1401 29.7408 57.5749C27.911 57.8792 26.2361 58.6474 24.7887 59.7874C22.1989 61.8309 20.1852 64.314 19.3042 67.5701C19.1638 68.0966 18.9798 68.6474 19.1444 69.2174C19.0234 69.3865 19.0428 69.5604 19.1251 69.7391C19.1251 69.8792 19.1154 70.0193 19.1105 70.1643L19.0718 70.1981L19.1057 70.2319C19.1057 70.372 19.1057 70.5121 19.1105 70.6522C19.0331 70.8309 19.0234 71.0097 19.1299 71.1836V71.1884ZM55.4937 63.9179H55.4549C55.271 63.9179 55.0822 63.9179 54.8982 63.9179L54.874 63.8986L54.8498 63.9179C54.5788 63.9275 54.3028 63.942 54.0317 63.9517C53.9688 63.8696 53.9156 63.8937 53.8623 63.9662C53.5912 64.0435 53.325 64.1498 53.0491 64.1884C50.6577 64.5169 48.8763 65.9324 47.1918 67.4783C46.1994 68.3913 45.483 69.5362 44.8634 70.744C43.9823 72.4734 43.2853 74.2464 43.1691 76.2029C43.0916 76.2512 43.0868 76.3044 43.1497 76.3672C43.14 76.4734 43.1352 76.5797 43.1255 76.686L43.1062 76.7102L43.1255 76.7343C43.1255 76.8792 43.1255 77.0193 43.1255 77.1643V77.2029C43.1352 77.5024 43.1497 77.8068 43.1594 78.1063C43.0916 78.2077 43.0868 78.3092 43.1788 78.401C43.4014 80.5652 44.2341 82.4879 45.5459 84.2029C46.5867 85.5652 47.8888 86.6232 49.433 87.3817C50.4012 87.8599 51.4032 88.2609 52.4875 88.2947C53.4702 88.3237 54.4142 88.6135 55.4452 88.4686C57.4445 88.1884 59.2985 87.6522 60.9928 86.5266C62.1352 85.7681 63.0985 84.8551 63.873 83.744C65.3543 81.6232 65.8819 79.1836 66.0223 76.6667C66.1288 74.7778 65.8964 72.9082 65.2236 71.1015C64.4442 69.0193 63.3066 67.2705 61.4333 65.971C59.6228 64.715 57.6575 64.0821 55.4937 63.9131V63.9179ZM55.9148 94.1015L55.4985 94.1256C54.7143 94.1546 53.9349 94.1884 53.1507 94.1111C53.0878 94.1111 53.02 94.1063 52.9571 94.1015C51.4661 94.0048 49.9897 93.7971 48.5084 93.6425C47.9324 93.5845 47.3612 93.3189 46.8481 93.3189C45.8025 93.3189 44.844 92.9565 43.8468 92.8068C42.5156 92.6087 41.1795 92.314 39.8725 91.9372C38.5365 91.5507 37.1666 91.2657 35.8257 90.8889C34.2815 90.4541 32.7663 89.9372 31.2512 89.4251C28.9663 88.6522 26.7735 87.6763 24.6048 86.6329C22.5717 85.6522 20.7661 84.372 19.1251 82.8261C17.2081 81.0193 16.1044 78.8937 16.1674 76.2319C16.177 75.8889 16.1383 75.5556 16.0367 75.2222C15.8285 74.5169 14.7732 73.8696 14.0955 74.1449C12.5368 74.7826 11.041 75.5652 9.57425 76.3865C8.85781 76.7874 8.71259 77.9227 9.14826 78.7005C9.52584 79.3865 10.3972 79.7053 11.1814 79.4106C11.5735 79.2609 11.9511 79.0628 12.3044 78.8406C12.6869 78.6039 12.8224 78.6474 12.9337 79.116C13.4226 81.1884 14.4586 82.9807 15.8672 84.5701C17.7987 86.7536 20.19 88.314 22.7459 89.6474C22.9831 89.773 23.0896 89.9469 23.1719 90.1884C23.4091 90.9082 23.6657 91.628 23.9222 92.343C24.9001 95.0531 26.4104 97.4396 28.6662 99.2416C31.6287 101.604 35.1238 102.681 38.8657 102.99C40.739 103.145 42.6172 103.01 44.4277 102.527C47.4919 101.715 50.2608 100.275 52.657 98.1836C53.0636 97.8309 53.4847 97.6715 54.0221 97.6957C56.0649 97.7778 58.0593 97.4686 60.044 97C62.0529 96.5217 63.8391 95.6618 65.2817 94.1498C65.3785 94.0483 65.485 93.8696 65.6786 94.0387C66.487 94.7633 67.4987 95.285 67.9683 96.3382C68.249 96.9614 68.859 97.3092 69.3915 97.2947C70.7711 97.2657 71.5408 96.0725 71.1293 94.8889C70.8824 94.1836 70.4903 93.5507 69.9772 93.0387C68.8251 91.8841 67.5471 90.8744 66.1046 90.0821C64.9961 89.4734 64.1828 89.6377 63.4809 90.6715C62.8903 91.5411 62.1884 92.2802 61.2445 92.7971C59.5792 93.7102 57.7446 93.8841 55.9148 94.0966V94.1015ZM56.0503 58.9372C54.8547 58.9227 53.7607 59.1981 52.7925 59.9275C52.1293 60.43 51.8147 61.0725 51.9018 61.9034C51.9647 62.5073 52.7151 63.2464 53.233 63.1498C54.0656 62.9903 54.8886 62.7778 55.7115 62.5749C56.4037 62.4058 57.0959 62.3623 57.793 62.5266C59.4631 62.9131 61.0218 63.5652 62.4982 64.4348C63.1178 64.7971 63.7471 65.1594 64.4684 65.3092C64.9041 65.401 65.2913 65.2464 65.5624 64.9469C65.8335 64.6522 65.5334 64.343 65.4027 64.0676C65.1945 63.6232 64.8315 63.2995 64.4829 62.9662C63.4325 61.9759 62.2562 61.1449 61.0073 60.4444C59.4728 59.5845 57.8269 59.0048 56.0358 58.9324L56.0503 58.9372Z" fill="#FDDC75"/>
<path d="M73.0801 141.976C73.4432 141.362 74.0337 140.981 74.5614 140.541C76.701 138.763 78.4437 136.623 80.1573 134.459C80.3703 134.193 80.5688 133.913 80.7866 133.652C81.2174 133.126 81.2174 132.966 80.5784 132.676C78.7486 131.855 77.0592 130.783 75.5247 129.536C74.1983 128.459 73.0414 127.169 72.0442 125.744C70.5436 123.599 69.8078 121.193 69.3043 118.676C68.8832 116.575 68.9074 114.464 69.0429 112.348C69.1978 109.971 69.7351 107.662 70.2241 105.338C70.9018 102.13 72.233 99.1884 73.7723 96.3237C74.8712 94.2802 76.367 92.5217 77.8821 90.7729C79.8281 88.5217 82.2679 87.0725 85.0803 86.1932C85.5499 86.0483 86.0194 86.0145 86.5084 86.0242C87.1473 86.029 87.1377 85.9517 87.0215 85.343C86.5907 83.0773 85.6951 80.9614 84.8819 78.8213C84.5091 77.8406 83.9282 76.9227 83.5313 75.971C83.0569 74.8261 82.4518 73.7681 81.8661 72.7005C80.4671 70.1546 78.8454 67.7536 77.0108 65.4879C75.21 63.2705 73.2302 61.2271 71.0712 59.372C68.4185 57.0966 65.5334 55.1594 62.4256 53.5362C61.2106 52.9034 60.0052 52.2512 58.7321 51.7488C57.2266 51.1546 55.7115 50.5749 54.1431 50.1256C52.7538 49.7246 51.3742 49.2995 49.9703 48.9614C48.6779 48.6522 47.3563 48.4686 46.0445 48.256C45.0037 48.087 43.9581 47.9614 42.9174 47.8213C42.7625 47.8019 42.6027 47.8019 42.443 47.7971C41.8137 47.6763 41.1844 47.5556 40.5551 47.4348C38.6769 47.3961 36.8035 47.2174 34.9301 47.1159C33.2601 47.029 31.6045 47.1256 29.9587 47.2126C28.4677 47.2899 26.9671 47.4396 25.4761 47.7101C23.9029 47.9952 22.3538 48.3478 20.7951 48.6908C18.9653 49.087 17.2323 49.744 15.4896 50.3961C12.6772 51.4493 10.0486 52.8551 7.48787 54.4058C5.81297 55.4203 4.26392 56.5942 2.73909 57.8116C1.54826 58.7633 0.333231 59.6908 -0.717213 60.8019C-1.01734 61.1159 -1.28842 61.4638 -1.57403 61.7923C-1.65148 61.8792 -1.71925 62.0097 -1.85963 61.971C-2.02422 61.9324 -1.96613 61.7778 -1.96613 61.6715C-1.96129 60.0483 -1.94676 58.4251 -1.93708 56.8019C-1.666 56.7826 -1.52562 56.5797 -1.34651 56.4155C1.14164 54.1208 3.85246 52.1111 6.74723 50.3623C9.2015 48.8792 11.7961 47.6232 14.4828 46.6329C16.9612 45.7198 19.4881 44.9275 22.0973 44.3961C24.3966 43.9275 26.7008 43.5411 29.0244 43.2319C29.2229 43.2077 29.4262 43.1932 29.6246 43.1932C32.6308 43.2271 35.6369 42.7246 38.6381 43.0773C40.1775 43.256 41.7169 43.0773 43.2562 43.2947C44.1324 43.4203 44.994 43.628 45.8847 43.7005C46.9884 43.7874 48.0873 44.029 49.1765 44.2657C51.1902 44.7053 53.2282 45.0193 55.1887 45.715C57.0717 46.3865 58.979 46.9952 60.8282 47.7681C62.4401 48.4444 64.0279 49.1546 65.5285 50.0483C68.646 51.9034 71.6714 53.8744 74.3823 56.314C75.8248 57.6135 77.2819 58.8889 78.5308 60.3768C79.0536 61 79.6732 61.5604 80.1476 62.1836C80.8979 63.1739 81.7354 64.0966 82.4228 65.1449C83.0666 66.1256 83.7588 67.0773 84.3833 68.0773C85.942 70.5797 87.2926 73.1884 88.4543 75.8937C89.3063 77.8841 90.076 79.8986 90.7392 81.9565C91.0684 82.9807 91.3346 84.0242 91.6686 85.0483C91.8042 85.4541 91.9591 85.5749 92.3947 85.4879C93.6775 85.2222 94.331 84.5169 94.4472 83.0676C94.7522 79.2995 96.2819 76.0193 98.4408 72.9903C99.2831 71.8068 100.479 70.9758 101.597 70.0676C103.199 68.7633 105.024 67.8889 106.946 67.1546C109.245 66.2754 111.646 65.9807 114.052 66.0725C115.659 66.1353 117.291 66.3188 118.83 67.0821C120.171 67.7488 121.371 68.5362 122.495 69.4928C124.281 71.0193 125.225 73.0097 125.743 75.2464C126.343 77.8502 126.227 80.4058 125.142 82.8696C124.305 84.7778 122.911 86.1932 121.062 87.1401C119.353 88.0145 117.634 88.8647 115.882 89.6377C114.957 90.0435 114.285 90.6329 113.844 91.5121C113.554 92.087 113.534 92.7246 113.496 93.3382C113.481 93.599 113.389 93.7826 113.297 93.9758C113.108 94.3623 113.205 94.715 113.52 94.9082C115.383 96.0483 116.816 97.6425 117.949 99.4445C118.922 101 119.716 102.686 120.069 104.531C120.423 106.357 120.592 108.174 120.345 110.034C120.089 111.981 119.309 113.686 117.867 114.976C116.715 116.005 116.26 117.14 116.318 118.657C116.4 120.841 115.935 122.966 114.977 124.932C114.212 126.502 113.176 127.908 111.874 129.106C111.003 129.913 110.146 130.734 109.444 131.705C107.808 133.957 105.784 135.802 103.282 137.048C100.944 138.213 98.4457 138.874 95.8268 138.609C93.4597 138.372 91.17 137.729 89.0643 136.57C88.4447 136.227 87.8105 135.937 87.0941 135.87C86.6003 135.826 86.2034 135.502 85.729 135.406C85.4724 135.357 85.2159 135.28 85.0271 135.565C83.4974 137.836 81.6676 139.86 79.8426 141.884C79.5328 141.976 79.2182 142.005 78.8939 142.005C76.9672 141.995 75.0358 141.99 73.1092 141.986L73.0801 141.976ZM76.822 124.657C76.8075 124.729 76.8317 124.773 76.914 124.754C77.6885 125.507 78.5453 126.159 79.5135 126.894C79.3053 126.005 79.1843 125.227 78.9423 124.483C78.3565 122.657 78.7002 120.889 79.2037 119.126C79.7361 117.266 80.8156 115.768 82.2533 114.502C82.5002 114.285 82.6842 113.971 83.0133 113.879C83.4393 113.754 83.478 113.536 83.3619 113.145C82.8972 111.599 82.6987 110.048 83.0569 108.42C83.8653 104.754 85.9033 102.184 89.529 101C90.0373 100.836 90.1244 100.696 89.9937 100.184C89.5919 98.5701 89.8533 96.9759 90.4971 95.4879C91.4072 93.3865 93.1402 92.1353 95.2266 91.285C96.3399 90.8309 97.5114 90.7923 98.6635 90.5942C99.6123 90.43 100.561 90.4155 101.524 90.5942C102.236 90.7246 102.967 90.8019 103.693 90.8358C105.324 90.913 106.835 91.4638 108.321 92.0483C108.96 92.2995 108.955 92.372 109.202 91.686C109.27 91.4976 109.352 91.314 109.395 91.1208C109.962 88.4493 111.642 86.6908 114.062 85.5845C115.94 84.7246 117.809 83.8454 119.571 82.7633C120.006 82.4976 120.345 82.1353 120.636 81.715C121.565 80.372 121.73 78.8551 121.609 77.2947C121.488 75.6908 121.018 74.2126 119.847 73.0193C118.157 71.2995 116.085 70.5072 113.704 70.43C113.544 70.43 113.384 70.43 113.224 70.43H113.22C111.879 70.4783 110.567 70.6232 109.274 71.0483C106.883 71.8309 104.816 73.0773 102.977 74.7923C100.842 76.7874 99.7527 79.2899 99.1524 82.0531C98.7555 83.8696 98.5957 85.7343 97.4824 87.343C96.7611 88.3913 95.8559 89.1739 94.6554 89.5072C93.4355 89.8454 92.1624 89.9758 90.8844 90.0193C89.6016 90.058 88.3091 90.0966 87.0505 90.2995C84.0783 90.7874 81.9387 92.6135 80.1234 94.8599C78.9326 96.3333 77.9548 97.9517 77.0592 99.628C76.1782 101.28 75.5973 103.039 74.9293 104.768C74.6969 105.377 74.421 106.034 74.5081 106.734C74.4839 106.807 74.4597 106.884 74.4355 106.957C73.5303 110.319 73.3996 113.744 73.5642 117.198C73.54 117.338 73.5545 117.469 73.6465 117.585C73.69 117.816 73.569 118.077 73.7578 118.29C73.7965 118.425 73.7578 118.58 73.8788 118.686C73.9563 120.541 74.9293 122.014 75.9604 123.454C75.9942 123.502 76.0281 123.551 76.062 123.599C76.1733 123.889 76.3718 124.106 76.6042 124.304C76.6284 124.333 76.6574 124.362 76.6816 124.386C76.7058 124.44 76.73 124.498 76.7542 124.551C76.6913 124.633 76.7542 124.623 76.8075 124.623L76.8269 124.652L76.822 124.657ZM104.584 106.841L104.593 106.85C104.622 106.99 104.734 106.937 104.816 106.942C105.629 107.787 106.554 108.502 107.445 109.256C108.35 110.024 109.212 110.826 109.855 111.845C110.276 112.517 110.33 113.275 110.034 113.908C109.4 115.242 107.6 115.739 106.515 114.444C105.315 113.019 103.862 111.879 102.473 110.672C99.714 108.275 96.4755 106.638 93.2273 105.014C91.9203 104.362 90.7779 104.459 89.6016 105.193C89.5048 105.184 89.3983 105.13 89.3547 105.275C89.0788 105.536 88.7884 105.783 88.5366 106.058C87.8008 106.855 87.128 107.686 87.0021 108.826C86.8859 109.865 86.9924 110.908 86.9682 111.947C86.9634 112.169 87.1231 112.415 87.3265 112.43C88.3236 112.517 89.1175 113.092 89.984 113.478C92.8159 114.744 95.488 116.266 97.9422 118.184C99.2541 119.208 100.45 120.343 101.684 121.444C102.43 122.111 103.17 122.792 103.664 123.696C103.974 124.271 104.022 124.928 103.804 125.44C103.088 127.106 100.968 127.261 100.14 126.043C99.7091 125.411 99.1234 124.918 98.5715 124.391C95.2072 121.193 91.4121 118.657 87.1086 116.874C86.1211 116.464 85.8016 116.488 85.0658 117.256C84.969 117.357 84.8528 117.44 84.7512 117.536C83.4151 118.754 82.7423 120.295 82.6164 122.068C82.4857 123.899 83.2941 125.493 84.0396 127.077C84.635 128.353 85.6564 129.362 86.731 130.232C89.3208 132.319 92.0994 134.063 95.5025 134.556C96.6691 134.725 97.8261 134.696 98.9443 134.44C101.491 133.86 103.62 132.512 105.3 130.541C106.68 128.923 108.064 127.314 109.575 125.816C110.94 124.464 111.763 122.807 112.14 120.947C112.348 119.913 112.368 118.845 112.343 117.787C112.305 116.222 112.774 114.831 113.747 113.609C114.106 113.159 114.478 112.72 114.909 112.329C115.78 111.527 116.366 110.647 116.376 109.333C116.386 107.816 116.603 106.275 116.173 104.812C115.417 102.256 113.946 100.13 111.85 98.4493C110.785 97.5942 109.579 96.9807 108.389 96.3285C106.443 95.2609 104.327 94.8502 102.183 94.5024C102.144 94.4734 102.11 94.4734 102.071 94.4976C101.95 94.4976 101.825 94.4976 101.703 94.4976C101.665 94.4734 101.626 94.4734 101.587 94.4976C100.982 94.4976 100.372 94.4976 99.7672 94.4976C99.7285 94.4734 99.6897 94.4734 99.6559 94.4976C99.4913 94.4976 99.3267 94.4976 99.1669 94.4976C99.1282 94.4734 99.0943 94.4734 99.0556 94.4976C98.9733 94.4976 98.891 94.4976 98.8087 94.4976C98.77 94.4734 98.7313 94.4783 98.6974 94.4976C97.5259 94.6087 96.4271 94.9469 95.4299 95.5749C95.3427 95.5459 95.3185 95.5942 95.3185 95.6667C95.1152 95.8358 94.9071 96.0048 94.7038 96.1691C94.6215 96.1449 94.5973 96.1932 94.5827 96.2609C94.4811 96.314 94.394 96.372 94.3988 96.5073C94.302 96.6763 94.2052 96.8454 94.1132 97.0097C93.997 97.0483 94.0357 97.1401 94.0357 97.2222C93.9825 97.3044 93.8857 97.3865 93.8857 97.4686C93.8712 98.4058 93.8615 99.3478 93.876 100.285C93.8808 100.647 94.1277 100.826 94.4666 100.918C95.3621 101.169 96.1366 101.676 96.9596 102.077C98.2424 102.7 99.4768 103.42 100.731 104.101C100.779 104.13 100.832 104.164 100.881 104.193C101.229 104.42 101.563 104.667 101.921 104.874C102.841 105.411 103.635 106.121 104.497 106.744C104.54 106.778 104.579 106.816 104.622 106.85L104.584 106.841Z" fill="#27016E"/>
<path d="M49.6267 141.981C49.4718 141.333 49.8203 140.768 49.922 140.164C50.5561 136.483 50.4545 132.85 49.3556 129.251C48.2955 125.778 46.4802 122.758 44.0937 120.043C41.683 117.3 38.8415 115.111 35.6708 113.319C32.9793 111.797 30.1136 110.725 27.1365 109.918C25.2874 109.42 23.385 109.295 21.5019 109.024C19.2267 108.696 16.9855 109.13 14.7345 109.348C12.0285 109.609 9.39033 110.184 6.78116 110.908C4.21556 111.618 1.7613 112.599 -0.523538 113.986C-0.678442 114.077 -0.847869 114.14 -1.01245 114.213C-1.08507 114.179 -1.17704 114.164 -1.22061 114.111C-1.59819 113.667 -1.52557 112.014 -1.11411 111.585C-0.305704 111.188 0.497862 110.783 1.31111 110.391C4.47696 108.86 7.82677 107.913 11.2879 107.333C12.2899 107.164 13.3113 107.126 14.3037 106.99C15.4703 106.831 16.6369 106.72 17.8036 106.647C19.3671 106.556 20.9307 106.686 22.4943 106.831C25.4568 107.111 28.3371 107.725 31.1495 108.676C35.5933 110.179 39.5821 112.459 43.0675 115.585C45.2894 117.58 47.187 119.85 48.7312 122.406C49.5928 123.831 50.2754 125.333 50.8853 126.879C51.4033 128.188 51.8486 129.512 52.1439 130.879C52.7441 133.633 52.9184 136.425 52.6231 139.227C52.5263 140.155 52.4537 141.097 52.1584 141.995C51.3113 141.995 50.469 141.986 49.6219 141.981H49.6267Z" fill="#FDDC75"/>
<path d="M57.517 35.9517C57.5073 36.1497 57.5025 36.3478 57.4928 36.5459C57.1975 36.57 57.1152 36.401 57.1007 36.1449C57.0039 34.3333 56.97 32.5169 56.9894 30.7053C56.9894 30.3816 57.0668 30.1546 57.4637 30.314C57.5509 32.1594 57.546 34 57.5218 35.8454C57.5122 35.8551 57.488 35.8647 57.488 35.8744C57.4928 35.9034 57.5073 35.9275 57.517 35.9565V35.9517Z" fill="#E16D02"/>
<path d="M62.9824 17.7826C62.9679 17.6232 62.6532 17.3575 63.1276 17.372C62.9969 17.4782 63.0308 17.6473 62.9824 17.7826Z" fill="#FDDC75"/>
<path d="M85.7581 19.0435C85.9468 18.9807 86.1356 18.971 86.3196 19.058C86.1308 19.116 85.942 19.1353 85.7581 19.0435Z" fill="#FDDC75"/>
<path d="M61.3025 36.5218C61.1524 36.5604 60.9975 36.6039 60.8765 36.459C61.0217 36.459 61.1718 36.4251 61.3025 36.5218Z" fill="#FDDC75"/>
<path d="M87.5588 19.0531C87.675 18.9855 87.7864 18.9613 87.8929 19.0725C87.7815 19.0676 87.6702 19.058 87.5588 19.0531Z" fill="#FDDC75"/>
<path d="M86.9585 19.0676C87.0263 19 87.0989 19 87.1715 19.0676C87.0989 19.0676 87.0311 19.0676 86.9585 19.0676Z" fill="#FDDC75"/>
<path d="M62.9436 18.8503C62.9146 18.8164 62.9194 18.7826 62.9533 18.7536C62.9582 18.7778 62.9678 18.8019 62.9727 18.8261C62.9727 18.8358 62.9533 18.8454 62.9436 18.8503Z" fill="#FDDC75"/>
<path d="M54.2981 24.6232L54.269 24.5846L54.2932 24.5411C54.3175 24.5652 54.3175 24.5894 54.2932 24.6184L54.2981 24.6232Z" fill="#FDDC75"/>
<path d="M93.5179 16.57C93.4888 16.5362 93.4888 16.5072 93.5179 16.4734C93.5276 16.4976 93.5421 16.5169 93.5469 16.5411C93.5469 16.5459 93.5276 16.5604 93.5179 16.57Z" fill="#FDDC75"/>
<path d="M30.0458 7.59903C30.0458 7.6425 30.0216 7.67149 29.9829 7.69081C29.9539 7.62318 29.9732 7.5942 30.0458 7.59903Z" fill="#FDDC75"/>
<path d="M85.3901 19.029C85.4192 19.0096 85.4482 19.0096 85.4724 19.0386C85.4434 19.0386 85.4192 19.0338 85.3901 19.029Z" fill="#FDDC75"/>
<path d="M93.5032 22.1063C93.4839 22.0725 93.4839 22.0387 93.5129 22.0097C93.5226 22.0338 93.5323 22.058 93.5323 22.0821C93.5323 22.087 93.5129 22.0966 93.4984 22.1063H93.5032Z" fill="#FDDC75"/>
<path d="M62.9532 24.6232C62.9241 24.599 62.9241 24.5749 62.9532 24.5459L62.9919 24.5845L62.958 24.6232H62.9532Z" fill="#FDDC75"/>
<path d="M20.0109 133.961C19.8899 133.976 19.7641 133.986 19.643 134C19.522 133.928 19.4058 133.928 19.2848 134C17.5664 134.111 16.0173 133.464 14.4441 132.923C13.0596 132.444 11.6606 132.005 10.2907 131.502C9.32255 131.15 8.41249 130.691 8.37861 129.454C8.36408 128.966 8.52383 128.507 8.67873 128.053C9.96153 124.304 11.3266 120.589 12.5271 116.812C12.6966 116.28 12.9096 115.754 13.1806 115.266C13.6599 114.401 14.5409 114.015 15.48 114.319C18.1666 115.193 20.9162 115.918 23.4576 117.179C24.8807 117.884 25.6165 119.145 25.8198 120.667C26.1006 122.792 24.8856 124.899 23.0025 125.377C22.6007 125.478 22.6007 125.71 22.8573 125.986C25.5536 128.884 23.2688 133.261 20.1368 133.942C20.0981 133.947 20.0594 133.952 20.0206 133.957L20.0109 133.961ZM17.7794 130.338C18.0117 130.256 18.2392 130.338 18.4861 130.237C19.2994 129.894 19.7883 129.324 19.8948 128.449C20.0255 127.386 19.3139 126.812 18.52 126.396C17.2759 125.749 15.9157 125.367 14.599 124.889C14.415 124.821 14.2214 124.773 14.1585 125.019C13.868 126.184 13.321 127.266 13.0548 128.44C12.9822 128.763 13.1419 128.874 13.3936 128.966C13.9406 129.164 14.4683 129.42 15.0298 129.56C15.9544 129.797 16.8015 130.304 17.7842 130.338H17.7794ZM21.5842 121.169C21.7246 120.686 21.4051 120.362 21.0323 120.058C20.7371 119.812 20.4079 119.628 20.0497 119.483C19.0283 119.077 17.9585 118.792 16.9855 118.266C16.5982 118.058 16.5014 118.295 16.3852 118.585C16.0657 119.382 15.9834 120.256 15.5574 121.015C15.3348 121.415 15.4219 121.715 15.8576 121.865C16.8596 122.208 17.8616 122.541 18.8734 122.855C19.1541 122.942 19.4639 122.981 19.7592 122.995C20.7855 123.043 21.5842 122.256 21.5793 121.169H21.5842Z" fill="#E16D02"/>
<path d="M36.9876 132.942C35.0755 132.923 33.2747 132.353 31.5127 131.686C31.0673 131.517 30.9172 131.58 30.7575 131.971C30.2928 133.101 29.8862 134.251 29.5425 135.42C29.2569 136.377 28.826 137.179 27.7127 137.435C26.3766 137.744 25.1325 136.754 25.239 135.391C25.2632 135.072 25.2971 134.744 25.4036 134.449C26.8655 130.217 28.3226 125.986 29.8136 121.763C30.3606 120.217 31.0964 119.7 32.9843 120.271C34.9206 120.85 36.8327 121.541 38.706 122.295C40.4971 123.014 41.9009 124.184 42.1865 126.242C42.5544 128.86 41.291 132.106 38.1881 132.928C37.8153 133.029 37.3893 132.942 36.9876 132.942ZM38.0235 126.986C37.9605 126.28 37.5249 125.778 36.9343 125.391C36 124.778 34.9302 124.493 33.8701 124.193C33.5506 124.106 33.3715 124.208 33.2602 124.565C32.9213 125.647 32.5728 126.729 32.1565 127.787C32.0064 128.169 32.1178 128.275 32.4227 128.401C33.3522 128.787 34.3203 129.039 35.2933 129.266C36.9246 129.643 37.8541 128.488 38.0235 126.99V126.986Z" fill="#E16D02"/>
<path d="M53.1508 94.1063C53.935 94.1836 54.7144 94.1498 55.4938 94.1208C55.6342 94.1643 55.7745 94.1498 55.9101 94.0966C57.7399 93.8841 59.5745 93.7102 61.2397 92.7971C62.1837 92.2802 62.8856 91.5411 63.4762 90.6715C64.1781 89.6329 64.9962 89.4734 66.0999 90.0821C67.5424 90.8744 68.8155 91.8841 69.9725 93.0387C70.4856 93.5507 70.8777 94.1836 71.1246 94.8889C71.536 96.0725 70.7664 97.2657 69.3867 97.2947C68.8543 97.3044 68.2443 96.9614 67.9636 96.3382C67.494 95.2899 66.4823 94.7633 65.6739 94.0387C65.4803 93.8696 65.3786 94.0483 65.2769 94.1498C63.8392 95.6618 62.053 96.5217 60.0392 97C58.0594 97.4686 56.0601 97.7778 54.0173 97.6957C53.48 97.6763 53.0589 97.8309 52.6522 98.1836C50.2561 100.275 47.4872 101.71 44.423 102.527C42.6125 103.005 40.7343 103.145 38.8609 102.99C35.119 102.681 31.6192 101.604 28.6615 99.2416C26.4057 97.4396 24.8954 95.0531 23.9175 92.343C23.661 91.628 23.4044 90.9131 23.1672 90.1884C23.0898 89.9469 22.9784 89.773 22.7412 89.6474C20.1853 88.3092 17.794 86.7488 15.8625 84.5701C14.4538 82.9807 13.4179 81.1884 12.929 79.116C12.8177 78.6474 12.6821 78.599 12.2997 78.8406C11.9415 79.0628 11.5639 79.2609 11.1767 79.4106C10.3876 79.7102 9.52112 79.3865 9.14354 78.7005C8.71271 77.9179 8.85793 76.7826 9.56952 76.3865C11.0363 75.5652 12.5321 74.7826 14.0908 74.1449C14.7685 73.8696 15.8238 74.5169 16.0319 75.2222C16.1287 75.5507 16.1675 75.8841 16.1626 76.2319C16.0949 78.8986 17.1986 81.0193 19.1203 82.8261C20.7614 84.372 22.567 85.6474 24.6001 86.6329C26.7687 87.6812 28.9616 88.6522 31.2464 89.4251C32.7664 89.9372 34.2816 90.4589 35.8209 90.8889C37.1618 91.2657 38.5318 91.5459 39.8678 91.9372C41.1748 92.3188 42.5109 92.6087 43.8421 92.8068C44.8393 92.9565 45.7929 93.3237 46.8433 93.3189C47.3565 93.3189 47.9277 93.5845 48.5037 93.6425C49.985 93.7971 51.4663 94.0048 52.9524 94.1015C53.0153 94.1015 53.0831 94.1063 53.1508 94.1111V94.1063Z" fill="#27016E"/>
<path d="M54.8982 63.9179C55.0822 63.9179 55.2709 63.9179 55.4549 63.9179L55.4743 63.9517L55.4936 63.9227C57.6526 64.0918 59.6228 64.7246 61.4332 65.9807C63.3066 67.2802 64.4442 69.029 65.2235 71.1111C65.9012 72.9179 66.1288 74.7874 66.0223 76.6763C65.8819 79.1932 65.3542 81.6329 63.873 83.7536C63.0984 84.8599 62.1351 85.7778 60.9927 86.5362C59.2985 87.6618 57.4444 88.1932 55.4452 88.4783C54.4141 88.6232 53.475 88.3333 52.4875 88.3043C51.4032 88.2705 50.4011 87.8647 49.433 87.3913C47.8888 86.628 46.5866 85.5749 45.5459 84.2126C44.234 82.4928 43.4014 80.5749 43.1787 78.4106C43.1739 78.314 43.1642 78.2126 43.1594 78.1159C43.1497 77.8164 43.1352 77.5121 43.1255 77.2126L43.1594 77.1932L43.1255 77.1739C43.1255 77.029 43.1255 76.8889 43.1255 76.744L43.1545 76.7198L43.1255 76.6957C43.1352 76.5894 43.14 76.4831 43.1497 76.3768C43.1545 76.3237 43.1594 76.2657 43.1691 76.2126C43.2852 74.256 43.9823 72.4831 44.8633 70.7536C45.4781 69.5459 46.1994 68.401 47.1917 67.4879C48.8763 65.942 50.6625 64.5266 53.049 64.1981C53.325 64.1594 53.5912 64.0531 53.8623 63.9759C53.9204 63.9759 53.9736 63.9662 54.0317 63.9614C54.3028 63.9517 54.5787 63.9372 54.8498 63.9275L54.874 63.9565L54.8982 63.9275V63.9179ZM47.8065 70.8744C47.6661 70.9034 47.7097 71.0145 47.7 71.1063C47.3369 71.3237 47.274 71.744 47.0707 72.0676C46.1897 73.4589 45.8654 75.0097 45.7782 76.6329C45.7347 77.4493 45.8266 78.2464 45.8992 79.0483C45.9573 79.4106 45.9476 79.8019 46.088 80.1304C46.8916 82.0145 48.0098 83.6039 49.8783 84.6473C51.316 85.4493 52.8409 85.7971 54.4287 86.0048C55.2322 86.1063 56.0164 85.8502 56.7861 85.6425C59.0225 85.0387 60.8233 83.8309 62.0286 81.8164C62.3142 81.2367 62.716 80.6812 62.8709 80.0676C63.3647 78.1111 63.7519 76.1546 63.4228 74.087C63.1178 72.1739 62.4207 70.5073 61.1379 69.0918C60.1649 68.0193 58.9354 67.3092 57.5316 66.8744C56.2778 66.4879 55.0095 66.4251 53.7461 66.6184C51.9453 66.8889 50.5222 67.913 49.249 69.1449C48.8134 69.5652 48.2906 69.9227 48.0534 70.5169C47.9082 70.5894 47.8355 70.7101 47.821 70.8696L47.8113 70.8792L47.8065 70.8744Z" fill="#27016E"/>
<path d="M19.1396 69.2222C18.975 68.6522 19.159 68.1014 19.2993 67.5749C20.1755 64.3237 22.1941 61.8406 24.7839 59.7923C26.2313 58.6473 27.911 57.8841 29.736 57.5797C32.3355 57.1449 34.8236 57.4203 37.1036 58.9227C39.1706 60.2802 40.4631 62.1401 41.2618 64.4493C41.7024 65.7343 41.7798 67.0628 42.0364 68.3671C42.0073 68.6715 41.9976 68.971 42.0751 69.2705C42.0703 69.3671 42.0654 69.4686 42.0606 69.5652C42.0606 69.628 42.0557 69.6956 42.0509 69.7584C42.0218 69.8502 41.9976 69.9469 41.9686 70.0386C41.9444 70.0628 41.925 70.087 41.9008 70.1159C41.7169 71.2705 41.712 72.4396 41.3296 73.5797C40.9762 74.6328 40.6132 75.657 40.0323 76.6087C39.0206 78.2609 37.6506 79.5411 35.9806 80.4976C34.4073 81.3961 32.655 81.8696 30.8736 81.7874C25.7472 81.5459 21.5164 78.9855 19.6237 73.7053C19.3284 72.8841 19.1444 72.058 19.1251 71.1932C19.1638 71.0145 19.1638 70.8357 19.1057 70.6618C19.1057 70.5217 19.1057 70.3816 19.1057 70.2415L19.1251 70.2077L19.1057 70.1739C19.1057 70.0338 19.1154 69.8937 19.1202 69.7536C19.1251 69.5797 19.1348 69.4058 19.1396 69.2319V69.2222ZM37.762 75.314L37.7717 75.2995C37.8782 75.2609 37.883 75.1642 37.8927 75.0725C38.977 73.6763 39.0787 71.9807 39.3497 70.3333C39.6789 68.3043 39.374 66.3478 38.5946 64.4734C37.3989 61.599 34.4751 59.4928 30.8929 60.0048C29.1067 60.2609 27.5383 60.9082 26.1442 61.9952C23.7432 63.8647 22.107 66.2222 21.7391 69.2947C21.6471 70.0773 21.5648 70.9082 21.8262 71.7053C21.923 72.0048 21.8601 72.3188 21.9472 72.6328C22.4846 74.6667 23.8109 76.1111 25.4132 77.3575C26.0135 77.8261 26.667 78.256 27.364 78.5024C28.6323 78.9469 29.9248 79.2899 31.3238 79.1981C32.4856 79.1208 33.565 78.8454 34.5671 78.3043C35.8402 77.6232 37.0117 76.8019 37.6458 75.4299L37.6555 75.4203C37.7281 75.4203 37.7717 75.3865 37.7668 75.3092L37.762 75.314Z" fill="#27016E"/>
<path d="M34.7026 52.7729C35.7143 52.7729 36.7067 52.9082 37.6652 53.2367C39.0109 53.7005 40.2404 54.3623 40.9133 55.6715C41.2715 56.372 41.8137 57.0966 41.3199 58C40.802 58.9517 39.8338 59.1498 38.977 58.4444C38.2509 57.8454 37.5974 57.1739 36.7745 56.6763C35.5885 55.9565 34.2863 55.6812 32.9551 55.5894C31.6723 55.5024 30.3798 55.5749 29.0922 55.5604C28.5452 55.5556 28.0127 55.5121 27.6593 54.9759C27.485 54.7101 27.485 54.5121 27.6835 54.2802C28.1289 53.7391 28.763 53.4879 29.3971 53.343C30.6557 53.058 31.9337 52.8116 33.2359 52.7923C33.4005 52.7923 33.5699 52.7826 33.7393 52.7778C33.8894 52.7778 34.0394 52.7778 34.1895 52.7778H34.2282C34.3783 52.7778 34.5283 52.7778 34.6784 52.7826H34.7075L34.7026 52.7729Z" fill="#27016E"/>
<path d="M56.0503 58.9372C57.8366 59.0097 59.4873 59.5894 61.0218 60.4493C62.2707 61.1498 63.4519 61.9807 64.4975 62.971C64.846 63.3043 65.2091 63.628 65.4172 64.0725C65.5431 64.3478 65.848 64.6522 65.577 64.9517C65.3059 65.2464 64.9186 65.4058 64.4829 65.314C63.7617 65.1642 63.1275 64.8019 62.5128 64.4396C61.0363 63.57 59.4776 62.9179 57.8075 62.5314C57.1105 62.372 56.4182 62.4106 55.726 62.5797C54.9031 62.7826 54.0802 62.9952 53.2475 63.1546C52.7296 63.2512 51.9793 62.5121 51.9163 61.9082C51.8292 61.0773 52.1439 60.4299 52.807 59.9324C53.7704 59.2029 54.8692 58.9275 56.0649 58.942L56.0503 58.9372Z" fill="#27016E"/>
<path d="M42.0752 69.2657C41.9978 68.9662 42.0074 68.6667 42.0365 68.3623C42.1623 68.657 42.1333 68.9614 42.0752 69.2657Z" fill="#EA6A41"/>
<path d="M55.9148 94.1015C55.7793 94.1546 55.6389 94.1691 55.4985 94.1256C55.6389 94.1159 55.7793 94.1111 55.9148 94.1015Z" fill="#EA6A41"/>
<path d="M19.1106 70.6522C19.1687 70.8261 19.1687 71.0048 19.13 71.1836C19.0235 71.0097 19.0332 70.8309 19.1106 70.6522Z" fill="#EA6A41"/>
<path d="M33.7344 52.7681C33.565 52.7681 33.4004 52.7778 33.231 52.7826C33.3955 52.6667 33.565 52.6667 33.7344 52.7681Z" fill="#EA6A41"/>
<path d="M19.1396 69.2222C19.1348 69.3961 19.1251 69.5701 19.1203 69.744C19.038 69.5652 19.0186 69.3913 19.1396 69.2222Z" fill="#EA6A41"/>
<path d="M43.1595 78.1015C43.1643 78.1981 43.174 78.2995 43.1788 78.3961C43.0869 78.3044 43.0917 78.2029 43.1595 78.1015Z" fill="#EA6A41"/>
<path d="M53.1506 94.1063C53.0829 94.1063 53.0199 94.1014 52.9521 94.0966C53.0199 94.0966 53.0829 94.1015 53.1506 94.1063Z" fill="#EA6A41"/>
<path d="M54.0366 63.9517C53.9785 63.9517 53.9253 63.9614 53.8672 63.9662C53.9204 63.8937 53.9737 63.8696 54.0366 63.9517Z" fill="#EA6A41"/>
<path d="M43.1692 76.1981C43.1643 76.2512 43.1595 76.3092 43.1498 76.3623C43.0869 76.2995 43.0917 76.2464 43.1692 76.1981Z" fill="#EA6A41"/>
<path d="M42.0508 69.7536C42.0508 69.6908 42.0556 69.6232 42.0605 69.5604C42.1186 69.628 42.1282 69.6908 42.0508 69.7536Z" fill="#EA6A41"/>
<path d="M19.1066 70.1691L19.1265 70.2039L19.1066 70.2336L19.0718 70.1989L19.1066 70.1691Z" fill="#EA6A41"/>
<path d="M41.9058 70.1111C41.93 70.087 41.9493 70.0628 41.9735 70.0338C41.9735 70.0773 41.9493 70.1014 41.9058 70.1111Z" fill="#EA6A41"/>
<path d="M34.2276 52.7627H34.1895L34.2085 52.7246L34.2276 52.7627Z" fill="#EA6A41"/>
<path d="M43.1311 76.6812L43.1609 76.706L43.1311 76.7308L43.1062 76.706L43.1311 76.6812Z" fill="#EA6A41"/>
<path d="M43.1304 77.1594L43.159 77.1832L43.1304 77.2023V77.1594Z" fill="#EA6A41"/>
<path d="M34.7022 52.7724L34.6736 52.7676L34.6927 52.7343L34.7022 52.7724Z" fill="#EA6A41"/>
<path d="M55.493 63.9131L55.4691 63.9416L55.4548 63.9131H55.493Z" fill="#EA6A41"/>
<path d="M54.8996 63.9185L54.8747 63.9434L54.8499 63.9136L54.8747 63.8937L54.8996 63.9185Z" fill="#EA6A41"/>
<path d="M108.422 15.9613C108.447 17.0966 108.33 18.1691 107.595 19.1353C106.176 20.9903 102.981 20.9565 101.844 18.5845C101.094 17.029 100.982 15.4879 101.81 13.8937C102.933 11.7295 106.351 11.6618 107.527 13.3865C107.948 14.0096 108.369 14.6087 108.369 15.3913C108.345 15.4251 108.345 15.4589 108.379 15.4927C108.393 15.6232 108.403 15.7536 108.418 15.884C108.408 15.8937 108.389 15.9034 108.389 15.9082C108.398 15.9275 108.413 15.9468 108.422 15.9662V15.9613Z" fill="#EA6A41"/>
<path d="M108.423 15.9614C108.423 15.9614 108.398 15.9227 108.389 15.9034C108.389 15.9034 108.408 15.8889 108.418 15.8792C108.442 15.9034 108.442 15.9324 108.423 15.9614Z" fill="#FDDC75"/>
<path d="M108.379 15.4879C108.345 15.4589 108.34 15.4251 108.369 15.3865C108.384 15.4106 108.398 15.43 108.408 15.4541C108.408 15.4589 108.393 15.4734 108.384 15.4831L108.379 15.4879Z" fill="#FDDC75"/>
<path d="M35.845 20.686C35.8305 20.6377 35.8111 20.5894 35.7966 20.5459C35.8402 20.43 35.845 20.3189 35.7869 20.2077C35.7869 19.5604 35.7869 18.9131 35.7869 18.2657C35.8208 18.2319 35.816 18.1981 35.7773 18.1691C35.7773 18.0821 35.7676 17.9952 35.7676 17.9034C35.8063 17.8889 35.8257 17.8599 35.8305 17.8164C36.668 17.715 37.5102 17.7247 38.3429 17.8068C39.553 17.9227 40.255 18.8213 40.0613 19.9952C39.9742 20.5073 39.616 20.8116 39.0932 20.9082C39.0448 20.6039 38.7979 20.6908 38.6188 20.6908C37.6942 20.686 36.7696 20.6908 35.8499 20.6908L35.845 20.686Z" fill="#EA6A41"/>
<path d="M35.9709 14.5942C35.9225 14.5604 35.8789 14.5266 35.8305 14.4927C35.8402 14.4686 35.8305 14.4493 35.816 14.4348C35.8112 14.343 35.8015 14.2512 35.7966 14.1594C35.7966 14.0869 35.7966 14.0145 35.7966 13.942C35.7966 13.1353 35.7966 12.3285 35.8015 11.5217C35.8305 11.4976 35.8402 11.4686 35.8354 11.4348C36.6922 11.314 37.5538 11.2464 38.4058 11.4348C38.9818 11.5604 39.6499 12.5072 39.5482 13.0531C39.403 13.8502 39.1029 14.57 38.2267 14.599C37.5441 14.6232 36.8616 14.6232 36.1791 14.6377C36.121 14.5652 36.0532 14.5604 35.9757 14.599L35.9709 14.5942Z" fill="#EA6A41"/>
<path d="M35.845 20.686C36.7696 20.686 37.6942 20.6763 38.6139 20.686C38.793 20.686 39.0399 20.5942 39.0883 20.9034C38.7398 21.1353 38.3574 21.2222 37.9459 21.1932C37.8878 21.2029 37.8297 21.2077 37.7716 21.2174C37.2488 21.2899 36.726 21.256 36.2032 21.2319C36.1113 21.1304 35.9902 21.1449 35.8741 21.1498C35.7772 21 35.8256 20.8454 35.845 20.6908V20.686Z" fill="#E16D02"/>
<path d="M35.7869 20.2029C35.8449 20.314 35.8401 20.43 35.7965 20.5411C35.7046 20.43 35.7142 20.3189 35.7869 20.2029Z" fill="#FDDC75"/>
<path d="M35.874 21.1449C35.9902 21.1449 36.1112 21.1304 36.2032 21.2271C36.0725 21.2754 35.9563 21.2657 35.874 21.1449Z" fill="#EA6A41"/>
<path d="M35.7967 13.942C35.7967 14.0145 35.7967 14.0869 35.7967 14.1594C35.7289 14.0869 35.7289 14.0145 35.7967 13.942Z" fill="#FDDC75"/>
<path d="M35.9709 14.5942C36.0484 14.5556 36.1162 14.5604 36.1743 14.6329C36.0968 14.6618 36.029 14.6667 35.9709 14.5942Z" fill="#FDDC75"/>
<path d="M35.8167 14.4396C35.8167 14.4396 35.8466 14.4744 35.8316 14.4992L35.7869 14.4793L35.8167 14.4396Z" fill="#FDDC75"/>
<path d="M35.8354 11.4348C35.8402 11.4686 35.8305 11.5024 35.8015 11.5217C35.8015 11.4976 35.7966 11.4686 35.7966 11.4444C35.7966 11.4444 35.8257 11.4396 35.8402 11.4348H35.8354Z" fill="#FDDC75"/>
<path d="M35.8256 17.8116C35.8256 17.8551 35.8014 17.884 35.7627 17.8985C35.7385 17.8357 35.7676 17.8116 35.8256 17.8116Z" fill="#FDDC75"/>
<path d="M35.7724 18.1594C35.8111 18.1884 35.816 18.2222 35.7821 18.256C35.7434 18.2271 35.7385 18.1932 35.7724 18.1594Z" fill="#FDDC75"/>
<path d="M43.45 32.4493C43.45 33.3816 42.6077 33.9082 41.7121 33.5507C41.5137 33.4734 41.5137 33.3285 41.5137 33.1643C41.5137 32.6425 41.5137 32.1256 41.5234 31.6039C41.5234 31.4734 41.4943 31.343 41.6879 31.2705C42.6319 30.9372 43.4548 31.4831 43.4548 32.4444L43.45 32.4493Z" fill="#EA6A41"/>
<path d="M57.5171 35.9517C57.5074 35.9227 57.4929 35.8985 57.488 35.8696C57.488 35.8599 57.5074 35.8502 57.5219 35.8406C57.5219 35.8792 57.5219 35.913 57.5219 35.9517H57.5171Z" fill="#FDDC75"/>
<path d="M59.531 75.7874C59.4922 79 57.2849 81.2029 54.4482 81.1981C51.5921 81.1981 49.5445 78.8019 49.5154 75.971C49.4864 73.1691 51.5486 70.7536 54.545 70.7488C57.5366 70.7488 59.4922 73.1932 59.531 75.7826V75.7874ZM54.5111 74.7101C53.7366 74.7005 53.1266 75.2464 53.117 75.9517C53.1073 76.7053 53.7559 77.3623 54.5063 77.372C55.3873 77.3816 55.8956 76.9179 55.9101 76.0918C55.9246 75.1546 55.4889 74.7198 54.5111 74.7101Z" fill="#27016E"/>
<path d="M35.8111 68.8937C35.8353 71.5942 34.2815 73.372 31.682 74.0386C30.6122 74.314 29.7796 73.9662 28.8985 73.657C27.8771 73.2947 27.2333 72.4444 26.6524 71.5604C24.8565 68.8116 26.454 64.5121 29.9635 63.8309C32.655 63.3092 34.8769 64.5749 35.7918 67.401C35.937 67.8551 35.8111 68.3913 35.8111 68.8937ZM32.2145 68.9034C32.2145 67.9952 31.7449 67.4831 30.9171 67.4928C30.1329 67.5024 29.5666 68.1015 29.5666 68.9227C29.5666 69.6087 30.1523 70.2802 30.7332 70.2609C31.6965 70.2271 32.2145 69.7536 32.2145 68.9034Z" fill="#27016E"/>
</g>
</g>
<defs>
<clipPath id="clip0_1742_786">
<rect width="140" height="140" rx="30" fill="white"/>
</clipPath>
<clipPath id="clip1_1742_786">
<rect width="145" height="144" fill="white" transform="translate(-2 -2)"/>
</clipPath>
</defs>
</svg>
