<svg width="140" height="140" viewBox="0 0 140 140" fill="none" xmlns="http://www.w3.org/2000/svg">
<rect width="140" height="140" rx="30" fill="white"/>
<g clip-path="url(#clip0_700_1528)">
<path d="M84.3561 65.2894C86.8878 66.4891 89.3354 67.6471 91.7797 68.8051C94.5765 70.13 97.3831 71.4323 100.164 72.7892C102.349 73.8542 102.592 75.8655 100.839 77.5111C100.177 78.1335 99.614 78.8713 99.045 79.5866C90.273 90.567 81.5108 101.551 72.742 112.534C71.1965 114.472 70.1425 114.484 68.5291 112.592C59.3271 101.798 50.1283 91.0032 40.9167 80.2185C40.3541 79.5609 39.7106 78.9611 39.0543 78.3901C37.4473 76.9979 37.693 74.9353 39.6718 73.8991C44.6026 71.3297 49.5528 68.7987 54.4933 66.2485C55.0106 65.9823 55.5247 65.7064 56.1714 65.3664C55.8351 64.959 55.5603 64.6125 55.2725 64.2757C50.5099 58.6877 45.7537 53.0965 40.9749 47.5213C40.3832 46.8316 39.7106 46.2029 39.0284 45.5998C37.4376 44.1948 37.7027 42.1546 39.6977 41.1121C43.513 39.1136 47.3477 37.1568 51.1759 35.184C56.8277 32.2777 62.486 29.3875 68.1217 26.4491C69.2727 25.8493 70.3009 25.8653 71.4584 26.4171C80.7865 30.847 90.1275 35.2482 99.4653 39.6621C99.8824 39.8578 100.303 40.0503 100.694 40.2909C102.11 41.1666 102.369 43.0271 101.324 44.2974C98.0879 48.2174 94.8611 52.1405 91.6536 56.0861C89.4712 58.7711 87.3307 61.4945 85.1741 64.2019C84.9219 64.5195 84.6859 64.8531 84.3561 65.2958V65.2894ZM40.7906 43.5243C41.2852 43.8515 41.6118 44.0921 41.9578 44.2942C50.969 49.5582 59.9899 54.8094 68.9817 60.1055C69.6769 60.5161 70.1069 60.3205 70.663 59.9804C79.8294 54.402 88.9991 48.8333 98.1687 43.2581C98.505 43.0528 98.8186 42.809 99.1711 42.562C99.0094 42.4273 98.9544 42.3599 98.8833 42.3246C89.4065 37.8369 79.9329 33.3459 70.4399 28.8935C70.0681 28.7203 69.4473 28.7652 69.0723 28.9544C61.8555 32.637 54.6614 36.3581 47.4609 40.0727C45.2881 41.1955 43.1153 42.3182 40.7873 43.5179L40.7906 43.5243ZM99.3489 75.3074C93.8167 72.6898 88.5432 70.1813 83.2438 67.7305C82.9658 67.6022 82.2997 67.8428 82.0734 68.1187C78.8659 72.0611 75.7005 76.0388 72.5319 80.0132C71.3711 81.4696 70.1166 81.5337 68.8718 80.18C68.6455 79.933 68.4191 79.6893 68.2025 79.4358C65.0371 75.7244 61.8523 72.029 58.7321 68.2823C58.1631 67.599 57.7751 67.5028 56.9862 67.9166C51.8064 70.6336 46.5943 73.2929 41.3984 75.9778C41.2335 76.0612 41.1009 76.2088 40.9199 76.3563C41.1203 76.5135 41.2367 76.6354 41.379 76.7188C50.6133 82.1144 59.8412 87.5131 69.1014 92.8637C69.4699 93.0787 70.2298 92.976 70.6339 92.7354C76.2243 89.3897 81.7856 85.9926 87.3533 82.6052C91.2753 80.2185 95.2006 77.8351 99.3554 75.3106L99.3489 75.3074ZM70.6178 78.1784C78.3421 68.5004 85.9824 58.9251 93.626 49.3529C93.1927 49.3626 92.9146 49.5197 92.6398 49.6865C85.6785 53.9144 78.7075 58.1231 71.7688 62.3863C70.4011 63.2267 69.2145 63.2684 67.808 62.4344C61.2735 58.5594 54.697 54.7549 48.1334 50.928C47.8327 50.7515 47.5126 50.6168 47.199 50.4596L47.102 50.604C54.9072 59.7559 62.7123 68.911 70.6145 78.1784H70.6178ZM47.2087 83.1665L47.0599 83.3205C54.8878 92.4981 62.7123 101.676 70.6178 110.946C78.3357 101.275 85.9533 91.7314 93.571 82.1881C92.8791 82.31 92.3585 82.6244 91.8379 82.942C85.1288 87.0191 78.41 91.0834 71.7171 95.183C70.4011 95.9882 69.2372 96.0395 67.8662 95.2311C61.0019 91.1732 54.0988 87.1795 47.2119 83.1633L47.2087 83.1665Z" fill="black"/>
</g>
<defs>
<clipPath id="clip0_700_1528">
<rect width="64" height="88" fill="white" transform="translate(38 26)"/>
</clipPath>
</defs>
</svg>
