<svg width="140" height="140" viewBox="0 0 140 140" fill="none" xmlns="http://www.w3.org/2000/svg">
<rect width="140" height="140" rx="30" fill="white"/>
<g clip-path="url(#clip0_2712_1579)">
<path d="M38.3819 58.0615C38.3819 58.0615 39.5779 63.8578 41.8904 64.4036C44.0607 64.9146 47.3911 60.8901 47.3911 60.8901C47.3911 60.8901 45.1537 65.3813 46.5136 67.4742C47.8923 69.5956 52.9715 69.2508 52.9715 69.2508C52.9715 69.2508 48.5872 70.4847 47.908 72.8054C47.0664 75.6815 52.0144 80.4796 52.0144 80.4796C52.0144 80.4796 47.285 78.3138 44.7992 79.8325C41.8185 81.6534 42.1683 89.0016 42.1683 89.0016C42.1683 89.0016 40.4148 81.965 36.388 80.4384C32.5938 79.0004 27.2992 82.7006 27.2992 82.7006C27.2992 82.7006 33.0435 78.6081 33.0404 74.1375C33.0357 69.5656 27.1399 65.2104 27.1399 65.2104C27.1399 65.2104 32.814 67.8143 35.6713 65.897C38.4397 64.0398 38.3819 58.0615 38.3819 58.0615Z" fill="#EE7F0F"/>
<path d="M34.277 78.2252L29.6116 83.7494L35.1529 78.4562L34.277 78.2252Z" fill="#EE7F0F"/>
<path d="M39.0752 80.3419L39.4406 87.6016L39.8684 79.8974L39.0752 80.3419Z" fill="#EE7F0F"/>
<path d="M46.3354 78.6334L51.4334 83.7495L46.6259 77.7649L46.3354 78.6334Z" fill="#EE7F0F"/>
<path d="M38.196 63.7819L35.6104 57L37.5808 64.4542L38.196 63.7819Z" fill="#EE7F0F"/>
<path d="M33.2573 69.7886L26.3201 67.9298L33.4338 70.6903L33.2573 69.7886Z" fill="#EE7F0F"/>
<path d="M15 78.2252V61.9911H22.0231C23.7657 61.9911 25.1069 62.3629 26.0453 63.108C26.9852 63.8531 27.4552 64.8845 27.4552 66.2054C27.4552 67.1878 27.1679 68.0168 26.5918 68.6923C26.0156 69.3678 25.2209 69.8202 24.206 70.0512V69.7063C25.3723 69.8756 26.2779 70.3012 26.9212 70.9846C27.5645 71.668 27.8877 72.5697 27.8877 73.6897C27.8877 75.1325 27.3943 76.2493 26.4106 77.0403C25.4254 77.8313 24.0545 78.2268 22.2964 78.2268H15V78.2252ZM17.8183 68.8774H21.5235C22.5696 68.8774 23.3456 68.6812 23.8531 68.2905C24.3605 67.8997 24.615 67.3191 24.615 66.5519C24.615 65.7846 24.3605 65.2041 23.8531 64.8133C23.3456 64.4226 22.5696 64.2264 21.5235 64.2264H17.8183V68.8774ZM17.8183 75.9693H21.9544C22.9397 75.9693 23.7048 75.7811 24.2497 75.4046C24.7946 75.0281 25.0679 74.4111 25.0679 73.5505C25.0679 72.6899 24.7946 72.0508 24.2497 71.6743C23.7048 71.2978 22.9397 71.1095 21.9544 71.1095H17.8183V75.9678V75.9693Z" fill="#002D5E"/>
<path d="M29.6365 78.2252V61.2776H32.4766V78.2252H29.6365Z" fill="#002D5E"/>
<path d="M39.1813 78.4562C38.182 78.4562 37.303 78.2142 36.5457 77.7317C35.7884 77.2476 35.1967 76.5531 34.7735 75.6482C34.3488 74.7433 34.1365 73.6597 34.1365 72.402C34.1365 71.1444 34.3488 70.0655 34.7735 69.1669C35.1967 68.2684 35.7884 67.5786 36.5457 67.0945C37.303 66.6105 38.182 66.37 39.1813 66.37C40.1806 66.37 41.0035 66.612 41.7389 67.0945C42.4743 67.5786 42.9615 68.2272 43.205 69.0404H42.9552L43.205 66.5994H45.9328C45.8875 67.0756 45.8453 67.5596 45.8079 68.05C45.7704 68.542 45.7517 69.0245 45.7517 69.5007V78.2284H42.9334L42.9099 75.8333H43.1832C42.9412 76.6322 42.4478 77.2682 41.7061 77.7443C40.9629 78.2205 40.1228 78.4578 39.1829 78.4578L39.1813 78.4562ZM39.9776 76.2462C40.8708 76.2462 41.5906 75.9282 42.137 75.2907C42.682 74.6532 42.9552 73.6898 42.9552 72.4004C42.9552 71.1111 42.682 70.1525 42.137 69.5213C41.5921 68.8916 40.8723 68.5768 39.9776 68.5768C39.083 68.5768 38.3647 68.8916 37.8182 69.5213C37.2733 70.1509 37.0001 71.1096 37.0001 72.4004C37.0001 73.6913 37.2686 74.6532 37.8073 75.2907C38.3444 75.9282 39.0689 76.2462 39.9776 76.2462Z" fill="#002D5E"/>
<path d="M52.1144 78.4562C51.1291 78.4562 50.2235 78.3376 49.3991 78.0987C48.5731 77.8614 47.8799 77.5276 47.3193 77.0973L48.1141 75.1626C48.6902 75.5612 49.3257 75.8681 50.0237 76.0833C50.72 76.2984 51.4242 76.406 52.1378 76.406C52.8951 76.406 53.4603 76.2763 53.8303 76.0152C54.2019 75.7542 54.3878 75.4014 54.3878 74.9553C54.3878 74.6025 54.2706 74.3225 54.0349 74.1153C53.8007 73.9081 53.4244 73.7514 52.9091 73.6439L50.6357 73.2057C49.6661 72.9905 48.9276 72.6219 48.4201 72.0999C47.9127 71.5778 47.6582 70.8944 47.6582 70.0512C47.6582 69.3298 47.8518 68.6923 48.2374 68.1402C48.6231 67.5881 49.1774 67.1546 49.8972 66.8398C50.617 66.525 51.4617 66.3684 52.4313 66.3684C53.2792 66.3684 54.0786 66.4839 54.8296 66.7133C55.5807 66.9427 56.2115 67.2891 56.7267 67.7495L55.9085 69.6146C55.4386 69.2318 54.9014 68.9312 54.2956 68.716C53.6898 68.5009 53.098 68.3933 52.5235 68.3933C51.735 68.3933 51.1604 68.5357 50.7966 68.8189C50.4327 69.1036 50.2516 69.4675 50.2516 69.912C50.2516 70.2506 50.3609 70.5306 50.5811 70.752C50.8012 70.9751 51.1447 71.1396 51.6147 71.2472L53.8881 71.6854C54.903 71.8847 55.6728 72.2343 56.1943 72.7327C56.7173 73.231 56.9781 73.9112 56.9781 74.7702C56.9781 75.5375 56.7736 76.1972 56.3645 76.7508C55.9554 77.303 55.387 77.7253 54.6594 78.018C53.9318 78.3091 53.084 78.4562 52.1144 78.4562Z" fill="#002D5E"/>
<path d="M63.3858 78.4562C62.0227 78.4562 60.9922 78.0955 60.2943 77.3741C59.5979 76.6527 59.2481 75.5707 59.2481 74.1279V68.7619H57.0435V66.5978H59.2481V63.6268L62.0899 62.8896V66.5978H65.158V68.7619H62.0899V73.9428C62.0899 74.7417 62.2413 75.3018 62.5442 75.6245C62.8471 75.9472 63.264 76.1086 63.7949 76.1086C64.0822 76.1086 64.3289 76.0848 64.5335 76.0389C64.738 75.9931 64.9394 75.9314 65.1361 75.8554V78.1351C64.8785 78.2426 64.5943 78.3233 64.2836 78.3771C63.9729 78.4309 63.6731 78.4578 63.3858 78.4578V78.4562Z" fill="#002D5E"/>
<path d="M66.4993 78.2252V61.9911H73.5224C75.2649 61.9911 76.6062 62.3629 77.5446 63.108C78.4845 63.8531 78.9545 64.8845 78.9545 66.2054C78.9545 67.1878 78.6672 68.0168 78.091 68.6923C77.5149 69.3678 76.7201 69.8202 75.7052 70.0512V69.7063C76.8716 69.8756 77.7772 70.3012 78.4205 70.9846C79.0638 71.668 79.387 72.5697 79.387 73.6897C79.387 75.1325 78.8936 76.2493 77.9099 77.0403C76.9247 77.8313 75.5538 78.2268 73.7956 78.2268H66.5008L66.4993 78.2252ZM69.3176 68.8774H73.0228C74.0689 68.8774 74.8449 68.6812 75.3524 68.2905C75.8598 67.8997 76.1143 67.3191 76.1143 66.5519C76.1143 65.7846 75.8598 65.2041 75.3524 64.8133C74.8449 64.4226 74.0689 64.2264 73.0228 64.2264H69.3176V68.8774ZM69.3176 75.9693H73.4537C74.4389 75.9693 75.204 75.7811 75.749 75.4046C76.2939 75.0281 76.5671 74.4111 76.5671 73.5505C76.5671 72.6899 76.2939 72.0508 75.749 71.6743C75.204 71.2978 74.4389 71.1095 73.4537 71.1095H69.3176V75.9678V75.9693Z" fill="#EE6404"/>
<path d="M85.2734 78.4562C83.8651 78.4562 82.8111 78.0654 82.1147 77.2824C81.4184 76.4993 81.0686 75.3018 81.0686 73.6897V66.5978H83.9103V73.6676C83.9103 74.5282 84.0836 75.161 84.4334 75.5675C84.7816 75.9741 85.3125 76.1782 86.0245 76.1782C86.827 76.1782 87.4828 75.9013 87.9902 75.3492C88.4977 74.7971 88.7522 74.0678 88.7522 73.1614V66.5994H91.5924V78.2284H88.8193V75.857H89.1379C88.8037 76.686 88.301 77.3267 87.6264 77.7791C86.9519 78.2316 86.1681 78.4578 85.2734 78.4578V78.4562Z" fill="#EE6404"/>
<path d="M99.1372 78.4562C97.9552 78.4562 96.9216 78.211 96.0347 77.719C95.1478 77.2286 94.4624 76.5262 93.9783 75.6118C93.4927 74.699 93.2507 73.6122 93.2507 72.353C93.2507 71.0937 93.4974 70.0196 93.9893 69.1289C94.4811 68.2383 95.1666 67.5549 96.0456 67.0787C96.9247 66.6025 97.9552 66.3652 99.1372 66.3652C99.8944 66.3652 100.633 66.4839 101.353 66.7228C102.073 66.9616 102.66 67.3018 103.114 67.7479L102.251 69.7506C101.842 69.3678 101.382 69.0799 100.875 68.8869C100.368 68.6955 99.871 68.599 99.387 68.599C98.3721 68.599 97.5805 68.9217 97.0121 69.5656C96.4438 70.211 96.1596 71.1475 96.1596 72.3751C96.1596 73.6027 96.4438 74.5472 97.0121 75.2068C97.5805 75.8665 98.3721 76.1971 99.387 76.1971C99.857 76.1971 100.346 76.1054 100.853 75.9203C101.361 75.7368 101.826 75.452 102.251 75.0676L103.114 77.0482C102.644 77.4944 102.049 77.8392 101.329 78.0844C100.61 78.3296 99.8788 78.453 99.1356 78.453L99.1372 78.4562Z" fill="#EE6404"/>
<path d="M104.5 78.2252V61.2776H107.341V71.5478H107.386L112.045 66.5962H115.477L109.681 72.7437L109.705 71.5921L115.886 78.2237H112.364L107.386 73.019H107.341V78.2237H104.5V78.2252Z" fill="#EE6404"/>
<path d="M120.136 78.4562C119.151 78.4562 118.245 78.3376 117.421 78.0987C116.595 77.8614 115.902 77.5276 115.341 77.0973L116.136 75.1626C116.712 75.5612 117.348 75.8681 118.046 76.0833C118.742 76.2984 119.446 76.406 120.16 76.406C120.917 76.406 121.482 76.2763 121.852 76.0152C122.224 75.7542 122.41 75.4014 122.41 74.9553C122.41 74.6025 122.293 74.3225 122.057 74.1153C121.823 73.9081 121.446 73.7514 120.931 73.6439L118.658 73.2057C117.688 72.9905 116.95 72.6219 116.442 72.0999C115.935 71.5778 115.68 70.8944 115.68 70.0512C115.68 69.3298 115.874 68.6923 116.259 68.1402C116.645 67.5881 117.199 67.1546 117.919 66.8398C118.639 66.525 119.484 66.3684 120.453 66.3684C121.301 66.3684 122.101 66.4839 122.852 66.7133C123.603 66.9427 124.233 67.2891 124.749 67.7495L123.931 69.6146C123.461 69.2318 122.923 68.9312 122.318 68.716C121.712 68.5009 121.12 68.3933 120.545 68.3933C119.757 68.3933 119.182 68.5357 118.819 68.8189C118.455 69.1036 118.274 69.4675 118.274 69.912C118.274 70.2506 118.383 70.5306 118.603 70.752C118.823 70.9751 119.167 71.1396 119.637 71.2472L121.91 71.6854C122.925 71.8847 123.695 72.2343 124.216 72.7327C124.739 73.231 125 73.9112 125 74.7702C125 75.5375 124.796 76.1972 124.386 76.7508C123.977 77.303 123.409 77.7253 122.681 78.018C121.954 78.3091 121.106 78.4562 120.136 78.4562Z" fill="#EE6404"/>
<path d="M35.6355 69.7681C35.3232 69.5213 38.129 71.138 39.0643 70.4942C40.1416 69.7522 39.9027 67.7685 39.9808 67.384C40.0198 67.1974 40.0261 69.3536 40.8973 69.8472C41.817 70.3692 42.3729 69.7665 43.7281 68.7967C43.9748 68.6196 42.3932 70.3866 42.732 71.0985C43.1098 71.8942 44.565 71.8262 45.6424 71.6237C45.8829 71.5778 43.2269 71.861 42.0543 73.3607C40.6803 75.1199 41.4079 77.3963 41.4173 78.2079C41.4204 78.4705 41.0144 75.5359 39.6638 75.017C38.2336 74.4681 36.1273 76.6385 35.9961 76.4709C35.865 76.3032 38.4428 74.7307 38.268 73.0775C38.1274 71.7376 36.9127 70.7758 35.637 69.7665L35.6355 69.7681Z" fill="#FFFEFF"/>
</g>
<defs>
<clipPath id="clip0_2712_1579">
<rect width="110" height="32" fill="white" transform="translate(15 57)"/>
</clipPath>
</defs>
</svg>
