<svg width="140" height="140" viewBox="0 0 140 140" fill="none" xmlns="http://www.w3.org/2000/svg">
<rect width="140" height="140" rx="30" fill="#0197DB"/>
<g clip-path="url(#clip0_855_4195)">
<path d="M69.9489 123.997C59.3762 123.997 48.8067 123.997 38.234 123.997C35.3005 123.997 34.6252 123.165 35.1766 120.352C39.0766 100.414 39.7334 80.3852 36.8339 60.2579C36.4466 57.5715 37.0879 56.7214 39.7396 56.5638C58.4252 55.4571 77.1109 54.3597 95.7934 53.2592C97.6459 53.151 99.4984 53.015 101.354 52.9408C103.578 52.8512 104.532 53.9362 104.145 56.0661C100.242 77.5103 100.852 98.9019 104.848 120.26C105.366 123.026 104.619 123.994 101.819 123.994C91.1964 124 80.5711 123.994 69.9489 123.994V123.997ZM69.4873 94.5865C74.9796 94.5711 80.1901 91.9311 83.4303 87.5013C85.5894 84.5491 86.7294 81.2446 86.7635 77.5876C86.779 76.011 85.7815 74.9198 84.403 74.8951C83.0957 74.8734 82.0859 75.8843 81.9496 77.3619C81.9248 77.6185 81.9372 77.8751 81.9217 78.1316C81.5097 84.1194 76.798 89.0593 70.9278 89.6652C64.6362 90.3144 59.0045 86.577 57.3875 80.6078C57.0808 79.4794 57.0436 78.2769 56.8918 77.1084C56.74 75.9554 56.0833 75.0342 54.9743 75.028C54.1348 75.0249 53.1095 75.5164 52.5178 76.1254C52.0872 76.5675 52.0996 77.569 52.1368 78.3078C52.6231 87.4333 60.2963 94.6143 69.4873 94.5865ZM56.8918 67.9737C56.8578 66.697 55.7828 65.6398 54.5128 65.6336C53.1838 65.6274 52.0686 66.7712 52.1058 68.1004C52.1399 69.3617 53.2334 70.4374 54.488 70.4467C55.8076 70.456 56.929 69.2999 56.8918 67.9737ZM86.7449 67.9799C86.7759 66.6846 85.7846 65.612 84.4959 65.5409C83.1453 65.4667 81.9899 66.5177 81.9527 67.8531C81.9155 69.1855 83.0214 70.3045 84.3689 70.2983C85.6638 70.2922 86.7139 69.2689 86.7449 67.9799Z" fill="white"/>
<path d="M75.0878 52.678C71.1196 52.9037 67.427 53.1386 63.7345 53.2901C63.3937 53.3055 62.7928 52.8542 62.7122 52.5234C61.8573 48.9345 61.058 45.3331 60.3146 41.7194C60.2371 41.3485 60.4973 40.7426 60.804 40.4829C63.2234 38.421 65.9525 37.0207 69.1835 36.6744C70.4566 36.5384 71.5068 36.6559 71.8289 38.0717C72.9224 42.8632 73.9726 47.6609 75.0878 52.678Z" fill="white"/>
<path d="M85.7478 39.3732C84.6883 43.1785 83.5143 47.4136 82.3124 51.6425C82.2442 51.8836 81.9468 52.2113 81.73 52.2329C80.3484 52.3658 78.9606 52.4678 77.5759 52.4678C77.3529 52.4678 77.0028 51.9454 76.9285 51.6115C76.0394 47.7691 74.9738 43.9452 74.4348 40.0502C74.2086 38.4087 74.9831 36.5601 75.5716 34.9001C75.9124 33.9418 77.7215 33.8738 78.7499 34.5755C81.0051 36.1181 83.2572 37.6637 85.7478 39.3732Z" fill="white"/>
<path d="M50.7455 54.1062C46.4644 54.3566 42.4156 54.5915 38.2398 54.8358C37.549 51.7197 36.8459 48.7274 36.2418 45.7134C36.0311 44.6654 36.66 44.0503 37.6575 43.6361C41.0495 42.2357 44.4323 43.0394 47.8119 43.5928C48.1031 43.6391 48.4779 44.0719 48.5523 44.3872C49.2957 47.528 49.9834 50.6842 50.7486 54.1062H50.7455Z" fill="white"/>
<path d="M90.2638 51.7816C91.2923 48.0566 92.2247 44.5944 93.2408 41.1569C93.3337 40.8477 93.9533 40.5293 94.3498 40.4984C96.3881 40.3284 98.445 40.3315 100.48 40.1151C103.392 39.806 104.845 41.2867 104.16 44.0348C103.665 46.0256 103.188 48.0226 102.608 49.9886C102.481 50.4152 101.986 51.0211 101.62 51.052C97.9339 51.3488 94.2352 51.5435 90.2607 51.7816H90.2638Z" fill="white"/>
<path d="M52.0165 38.6467C52.4966 38.5014 53.1069 38.3963 53.6397 38.1335C54.0981 37.9079 54.6217 37.5895 54.854 37.1691C55.7833 35.4719 56.4215 33.5863 57.5274 32.0221C58.8067 30.2106 60.8853 29.9138 62.7688 30.8505C64.7234 31.8211 65.2439 33.5863 63.8623 35.2772C62.967 36.3715 61.8425 37.3391 60.6623 38.1304C58.6642 39.469 56.5485 40.6282 54.4668 41.84C54.2159 41.9884 53.8689 42.0718 53.5808 42.0471C50.9291 41.8091 48.2744 41.571 45.6289 41.2619C44.7677 41.1599 43.9127 40.9095 43.0918 40.6189C41.1681 39.9357 40.3224 38.8569 40.5021 37.4504C40.7003 35.914 42.2957 34.1489 43.9251 34.1767C45.2448 34.1983 46.7069 34.5538 47.8314 35.2215C49.3524 36.1242 50.607 37.4658 52.0134 38.6467H52.0165ZM48.8382 39.4721C48.928 39.2278 49.0209 38.9836 49.1108 38.7394C47.7168 37.9388 46.3754 36.9959 44.8916 36.4179C44.4455 36.2448 43.6029 37.0732 42.9431 37.4442C43.3582 37.88 43.7083 38.5849 44.2039 38.7054C45.7187 39.0795 47.2862 39.2309 48.8351 39.469L48.8382 39.4721ZM57.1432 37.0732C57.2981 37.2278 57.4561 37.3793 57.611 37.5338C58.943 36.5322 60.3029 35.5647 61.5916 34.5106C61.8859 34.2694 62.1926 33.5399 62.0625 33.3853C61.7744 33.036 61.1765 32.6712 60.7831 32.7423C60.179 32.8505 59.4542 33.1875 59.1134 33.6635C58.3483 34.7238 57.7907 35.9294 57.1463 37.0763L57.1432 37.0732Z" fill="white"/>
<path d="M63.3262 28.0931C62.0871 25.3604 61.9075 22.7328 62.4712 19.9506C65.1818 20.2721 67.6259 22.4948 70.4232 20.7049C73.5612 22.0403 75.4168 19.1222 78.3813 18.3123C78.6663 21.0357 78.9451 23.654 79.2549 26.6154C77.2321 25.9632 75.7451 25.4067 74.2148 25.0296C73.6882 24.8998 72.9386 25.042 72.4863 25.3511C71.4485 26.059 70.3829 26.3712 69.3297 25.6788C68.5521 25.1687 68.0317 25.4036 67.3874 25.7808C66.1049 26.5351 64.8039 27.2553 63.3262 28.0931Z" fill="white"/>
<path d="M89.0899 35.0176C90.2732 35.3112 91.2242 35.5462 92.0885 35.7595C93.7675 34.7888 95.4124 33.6265 97.2277 32.8506C99.1173 32.0407 100.83 32.7795 101.741 34.39C102.661 36.0161 102.203 37.6792 100.381 38.013C98.1911 38.4149 95.9018 38.2727 93.659 38.4334C92.8939 38.4891 92.0978 38.6344 91.3977 38.9342C90.2298 39.435 89.3594 39.2588 88.5323 38.282C88.1048 37.7781 87.5224 37.3546 86.9276 37.0578C85.2301 36.217 83.4117 35.5956 81.7853 34.6404C79.9856 33.5801 79.5735 32.1952 80.3511 30.9556C81.2556 29.512 83.3435 28.7979 84.815 29.7346C85.9456 30.4518 86.8688 31.5492 87.733 32.6033C88.3402 33.3421 88.6933 34.288 89.093 35.0145L89.0899 35.0176ZM94.8486 36.0995C94.9012 36.2788 94.957 36.4581 95.0097 36.6374C96.2209 36.6374 97.4476 36.7487 98.6402 36.5879C99.2102 36.5107 99.7121 35.9264 100.245 35.5709C99.582 35.2123 98.8323 34.455 98.2778 34.5786C97.0821 34.8445 95.9855 35.5616 94.8486 36.0964V36.0995ZM86.3886 34.8939L86.7944 34.3468C85.9085 33.3947 85.0999 32.3498 84.0932 31.543C83.771 31.2864 82.9346 31.6666 82.3337 31.7532C82.566 32.2385 82.6713 32.9217 83.0554 33.169C84.1025 33.8429 85.2672 34.3313 86.3886 34.8908V34.8939Z" fill="white"/>
<path d="M77.6651 32.1488C75.1343 31.9108 73.6845 33.2524 72.9596 35.9202C70.943 33.6945 68.6909 34.9001 66.4234 35.2216C66.4234 34.1025 66.6185 33.0453 66.3676 32.1086C66.1291 31.2183 65.4228 30.4517 64.8838 29.5676C66.507 28.6217 67.9692 27.0822 70.2553 27.9818C70.6859 28.1518 71.4046 28.124 71.7546 27.8674C73.6876 26.4454 75.4688 27.5243 77.2872 28.0745C77.9625 28.2785 78.6254 28.532 79.2729 28.7577C78.7184 29.9324 78.2041 31.0174 77.6682 32.1488H77.6651Z" fill="white"/>
<path d="M72.3496 17.3601C73.2665 16.9521 74.0255 16.612 74.8433 16.2473C75.0539 17.6724 73.44 18.9954 72.0677 18.9707C70.8286 18.9491 69.5678 19.082 68.3442 19.3015C67.1299 19.5209 65.3951 18.7574 65.042 17.6785C65.1132 17.6074 65.1876 17.4745 65.2495 17.4807C66.6931 17.626 67.957 17.8393 69.2116 16.442C70.1223 15.4281 71.4946 16.3369 72.3496 17.3601Z" fill="white"/>
</g>
<defs>
<clipPath id="clip0_855_4195">
<rect width="70" height="108" fill="white" transform="translate(35 16)"/>
</clipPath>
</defs>
</svg>
