<svg width="140" height="140" viewBox="0 0 140 140" fill="none" xmlns="http://www.w3.org/2000/svg">
<rect width="140" height="140" rx="30" fill="#13C672"/>
<g clip-path="url(#clip0_607_3631)">
<path d="M37.9807 89.6145C37.1651 89.6202 36.3496 89.6309 35.534 89.6309C29.8144 89.6325 24.094 89.6309 18.3743 89.6309C18.2512 89.6309 18.128 89.6268 18.0049 89.6243C18.0033 89.5103 18.0008 89.3954 18.0008 89.2813C18 73.959 18 58.6366 18 43.3143C18 43.2092 18.0041 43.1042 18.0065 43H35.3146C35.4834 43.0591 35.658 43.055 35.8325 43.041C35.9426 43.0484 36.0527 43.055 36.1628 43.0615C36.2354 43.1124 36.3145 43.1141 36.3969 43.0919C36.5086 43.1009 36.6195 43.1108 36.7312 43.1198C36.7851 43.1633 36.8446 43.1723 36.9099 43.1526C38.3934 43.3701 39.8157 43.7926 41.1647 44.4523C42.3049 45.0094 43.3545 45.7077 44.3104 46.5463C45.4204 47.5194 46.3623 48.6337 47.1314 49.8965C48.0375 51.3841 48.6541 52.9857 48.9787 54.6998C49.119 55.4407 49.1867 56.1898 49.2266 56.9439C49.2658 57.6815 49.2225 58.4134 49.1377 59.1429C48.9771 60.5345 48.6149 61.8744 48.0579 63.1601C47.8222 63.7025 47.5555 64.2293 47.2521 64.7363C47.2179 64.7938 47.1885 64.8537 47.1526 64.9095C47.1151 64.9694 47.1322 65.017 47.1771 65.0621C47.1967 65.0826 47.2171 65.1031 47.2366 65.1236C48.3939 66.3019 49.3237 67.641 50.0218 69.1417C50.5674 70.3142 50.9475 71.5384 51.1587 72.8168C51.3145 73.7612 51.3912 74.7106 51.3577 75.6665C51.2819 77.8129 50.7819 79.8536 49.8024 81.7678C48.4624 84.3861 46.5116 86.4112 43.9548 87.8462C42.627 88.5913 41.2104 89.091 39.7203 89.3847C39.5621 89.4159 39.4031 89.4405 39.244 89.4676C39.1788 89.4504 39.1168 89.4561 39.063 89.502C38.762 89.5332 38.4611 89.5652 38.1593 89.5964C38.0957 89.5677 38.0362 89.5734 37.9799 89.6153L37.9807 89.6145ZM35.2086 60.8192C35.7036 60.8052 36.1661 60.6625 36.5861 60.413C37.7711 59.7082 38.3975 58.6678 38.3396 57.268C38.2857 55.9691 37.652 55.014 36.5298 54.3839C36.0396 54.1082 35.5071 53.99 34.946 53.9908C33.0294 53.9933 31.1128 53.9908 29.1962 53.9908C28.8651 53.9908 28.892 53.9736 28.892 54.3035C28.892 56.3744 28.892 58.4463 28.892 60.5172C28.892 60.6124 28.9018 60.7068 28.9066 60.802C28.9417 60.8865 29.0176 60.8602 29.0787 60.8602C29.5142 60.8627 29.9498 60.861 30.3861 60.861C31.8639 60.861 33.3409 60.861 34.8187 60.8594C34.9492 60.8594 35.0846 60.8857 35.2086 60.8176V60.8192ZM37.4196 71.8322C37.316 71.8256 37.2116 71.8125 37.108 71.8125C34.4525 71.8109 31.797 71.8117 29.1415 71.8109C28.8887 71.8109 28.8911 71.815 28.8911 72.0644C28.8911 74.1822 28.8911 76.3007 28.8911 78.4185C28.8911 78.6687 28.8936 78.6687 29.1415 78.672C29.1701 78.672 29.1986 78.672 29.2272 78.672C31.7595 78.672 34.2919 78.672 36.8234 78.672C36.9278 78.672 37.0314 78.6663 37.1358 78.663C37.254 78.6843 37.3723 78.6958 37.4824 78.631C37.6178 78.6384 37.745 78.5982 37.873 78.567C39.5833 78.1485 40.7577 76.4517 40.4168 74.6072C40.2733 73.8326 39.9014 73.1778 39.3068 72.6617C38.7865 72.2096 38.1919 71.9118 37.4946 71.8519C37.4734 71.8281 37.4481 71.8207 37.418 71.833L37.4196 71.8322Z" fill="white"/>
<path d="M66.7409 89.4676C66.042 89.2551 65.3528 89.0147 64.6824 88.7226C63.2462 88.0974 61.9225 87.2859 60.7122 86.2881C58.6985 84.6274 57.1481 82.604 56.061 80.2245C55.4403 78.8657 55.0171 77.4462 54.7708 75.9701C54.5595 74.7032 54.4967 73.4281 54.5685 72.1489C54.6696 70.3364 55.0644 68.5846 55.738 66.8976C56.6988 64.4943 58.1301 62.4184 60.0304 60.674C62.1158 58.7605 64.5331 57.4576 67.2702 56.7601C68.1257 56.5419 68.9951 56.3991 69.8743 56.3203C69.9567 56.3449 70.035 56.3408 70.1084 56.2932C70.3531 56.2834 70.5977 56.2744 70.8424 56.2645C71.1841 56.29 71.525 56.29 71.8668 56.2645C72.1114 56.2744 72.3561 56.2842 72.6008 56.2932C72.6742 56.3408 72.7525 56.3458 72.834 56.3195C73.117 56.349 73.4 56.3778 73.6822 56.4073C73.7352 56.4516 73.7948 56.4598 73.86 56.4401C75.2897 56.669 76.6746 57.0539 78.0048 57.6332C79.4589 58.2666 80.8005 59.0863 82.0231 60.1004C84.0098 61.7481 85.5464 63.7477 86.6294 66.0976C87.206 67.3497 87.6155 68.656 87.874 70.0115C88.1513 71.4638 88.2312 72.9284 88.135 74.3996C88.0314 75.9881 87.6962 77.5315 87.1473 79.0265C86.4084 81.0368 85.3302 82.8428 83.9136 84.4419C82.8786 85.6104 81.7034 86.6139 80.3928 87.4573C79.0658 88.3115 77.6451 88.9564 76.1387 89.4159C76.1077 89.4061 76.0865 89.4192 76.0702 89.4446C75.6372 89.5497 75.2049 89.6555 74.7727 89.7605C74.7417 89.7482 74.7188 89.7589 74.7001 89.7843C74.6291 89.795 74.559 89.8057 74.488 89.8155C74.457 89.8049 74.4326 89.8147 74.413 89.8393C74.3241 89.8516 74.2352 89.8639 74.1463 89.8762C74.1161 89.8631 74.0925 89.8721 74.0729 89.8976C73.9832 89.9082 73.8935 89.9197 73.8046 89.9304C73.7565 89.9132 73.7149 89.923 73.6782 89.9583C73.5876 89.9673 73.4963 89.9772 73.4058 89.9862C73.3405 89.9665 73.2785 89.9722 73.2239 90.0165C73.0942 90.0264 72.9653 90.0354 72.8357 90.0453C72.7696 90.0239 72.7076 90.0264 72.6513 90.0707C72.3708 90.0814 72.0911 90.0912 71.8105 90.1019C71.4875 90.0781 71.1646 90.0773 70.8416 90.1011C70.5986 90.092 70.3547 90.083 70.1117 90.074C70.0921 90.0543 70.0717 90.0444 70.0472 90.0674C70.0089 90.0625 69.9706 90.0568 69.9322 90.0518C69.9118 90.0494 69.8915 90.0477 69.8711 90.0453C69.7422 90.0354 69.6133 90.0264 69.4845 90.0165C69.4298 89.9714 69.3687 89.9657 69.3034 89.9862C69.1958 89.9747 69.0881 89.9632 68.9805 89.9517C68.9593 89.9279 68.934 89.9197 68.9038 89.9312C68.8141 89.9205 68.7252 89.9099 68.6355 89.8992C68.6159 89.8746 68.5922 89.8648 68.5629 89.8787C68.474 89.8664 68.3843 89.8541 68.2954 89.8418C68.2766 89.8163 68.2522 89.8065 68.2212 89.8188C68.1502 89.8081 68.0793 89.7975 68.0083 89.7868C67.9895 89.7622 67.9667 89.7515 67.9365 89.7638C67.8664 89.7515 67.7971 89.7392 67.7269 89.7269C67.7074 89.7015 67.6829 89.6924 67.6519 89.7015C67.5997 89.6924 67.5475 89.6834 67.4953 89.6736C67.4774 89.649 67.4553 89.6366 67.4244 89.6481C67.3722 89.6375 67.3191 89.6276 67.2669 89.617C67.249 89.5923 67.227 89.58 67.1968 89.5915C67.1446 89.5809 67.0924 89.5694 67.0402 89.5587C67.0223 89.5333 67.0003 89.521 66.9684 89.5316C66.9171 89.521 66.8657 89.5103 66.8151 89.4988C66.7964 89.4734 66.7727 89.4627 66.7409 89.4701V89.4676ZM71.5259 78.6598C71.6449 78.686 71.7624 78.695 71.8741 78.631C71.9663 78.622 72.0584 78.6138 72.1506 78.6048C72.1979 78.622 72.2395 78.6105 72.2754 78.5761C72.3692 78.5621 72.4638 78.5555 72.5559 78.5342C73.3715 78.3455 74.1071 77.9902 74.7629 77.4643C76.3386 76.2007 77.1517 74.1297 76.6803 72.0218C76.2782 70.2207 75.2171 68.9333 73.5509 68.1612C73.0061 67.9085 72.4295 67.7551 71.8252 67.7296C71.7485 67.6763 71.6661 67.6837 71.5821 67.7034C71.4304 67.7034 71.2796 67.7034 71.1279 67.7034C71.0267 67.682 70.9264 67.6747 70.8334 67.7337C70.7201 67.7428 70.6059 67.7444 70.4942 67.7633C69.7854 67.8798 69.1207 68.1218 68.5099 68.5034C67.5581 69.0974 66.8428 69.904 66.3837 70.9329C66.0044 71.783 65.8462 72.6708 65.9286 73.6045C65.9734 74.1116 66.0648 74.6048 66.2434 75.0798C66.7637 76.4608 67.6853 77.4807 69.0033 78.1305C69.4551 78.3537 69.9282 78.5219 70.4338 78.5761C70.4697 78.6105 70.5105 78.622 70.5578 78.6048C70.6499 78.6138 70.7421 78.622 70.8343 78.631C70.946 78.695 71.0634 78.6852 71.1817 78.6589C71.2959 78.6745 71.4101 78.6745 71.5242 78.6589L71.5259 78.6598Z" fill="white"/>
<path d="M117.358 90.1035C117.079 90.092 116.799 90.0797 116.519 90.0682C116.461 90.0239 116.399 90.0223 116.332 90.0436C116.053 90.0141 115.773 89.9845 115.494 89.955C115.457 89.9189 115.413 89.9115 115.364 89.9254C115.293 89.9164 115.222 89.9082 115.152 89.9C115.133 89.8754 115.109 89.8647 115.08 89.8787C114.992 89.8647 114.904 89.8516 114.816 89.8376C114.795 89.8122 114.77 89.804 114.738 89.813C114.686 89.8048 114.634 89.7958 114.581 89.7876C114.564 89.763 114.541 89.7507 114.51 89.763C114.442 89.7498 114.373 89.7359 114.304 89.7228C114.284 89.6973 114.258 89.6883 114.226 89.6957C114.117 89.6694 114.007 89.6432 113.897 89.6169C113.88 89.5915 113.858 89.5784 113.827 89.5882C113.043 89.3535 112.287 89.0508 111.572 88.6479C109.773 87.6346 108.456 86.1781 107.618 84.2844C107.167 83.2653 106.9 82.1978 106.754 81.0934C106.67 80.4485 106.642 79.8011 106.643 79.152C106.643 76.8234 106.643 74.494 106.643 72.1653C106.643 65.1876 106.643 58.2108 106.643 51.2331C106.643 50.7711 106.59 50.8491 107.014 50.758C108.571 50.4224 110.129 50.0909 111.687 49.7586C113.523 49.3664 115.359 48.9734 117.195 48.582C117.296 48.5607 117.395 48.5237 117.504 48.5508C117.554 48.6608 117.532 48.7765 117.532 48.8889C117.534 50.8835 117.533 52.879 117.533 54.8737C117.533 55.4366 117.533 56.0003 117.533 56.5632C117.533 56.6395 117.535 56.7158 117.54 56.7921C117.542 56.8348 117.568 56.8643 117.61 56.8676C117.694 56.8741 117.78 56.8766 117.865 56.8766C119.45 56.8766 121.034 56.8766 122.618 56.8766C123.034 56.8766 122.988 56.8348 122.988 57.2385C122.988 60.6559 122.988 64.0726 122.988 67.49C122.988 67.5852 122.985 67.6804 122.979 67.7756C122.977 67.819 122.947 67.8453 122.906 67.8478C122.821 67.8527 122.736 67.8551 122.651 67.8551C121.066 67.8551 119.481 67.8551 117.898 67.8551C117.505 67.8551 117.544 67.8149 117.544 68.2039C117.544 70.9337 117.541 73.6636 117.545 76.3935C117.546 77.0909 117.591 77.7859 117.757 78.4669C117.871 78.933 118.028 79.3818 118.29 79.7863C118.787 80.5559 119.498 80.9506 120.407 80.9777C121.208 81.0015 121.997 80.9096 122.777 80.7258C122.823 80.7151 122.869 80.7028 122.916 80.6946C122.933 80.6921 122.952 80.7012 122.971 80.7045C123.012 80.775 122.997 80.853 122.997 80.9285C122.997 83.4581 122.997 85.987 122.997 88.5166C122.997 88.5453 122.995 88.5741 122.997 88.6028C123.008 88.7012 122.966 88.7644 122.878 88.8063C122.656 88.9137 122.439 89.0311 122.214 89.132C121.387 89.5004 120.526 89.7613 119.638 89.9295C119.607 89.9197 119.582 89.9287 119.561 89.9533C119.365 89.9788 119.168 90.0009 118.972 90.0296C118.664 90.0756 118.353 90.0846 118.042 90.1051C117.814 90.0772 117.586 90.0838 117.358 90.1051V90.1035Z" fill="white"/>
<path d="M102.211 43.0509C102.271 43.0485 102.331 43.0452 102.39 43.0427C102.39 43.1478 102.391 43.2528 102.391 43.3578C102.391 58.6383 102.391 73.9196 102.391 89.2002C102.391 89.2953 102.393 89.3913 102.39 89.4865C102.386 89.6137 102.371 89.626 102.235 89.6309C102.169 89.6334 102.102 89.6317 102.036 89.6317C98.6388 89.6317 95.2428 89.6317 91.8459 89.6317C91.4593 89.6317 91.5009 89.672 91.5009 89.2756C91.5009 76.5149 91.5009 63.7534 91.5009 50.9927C91.5009 49.2171 91.5001 47.4423 91.5009 45.6667C91.5009 45.3156 91.4553 45.3632 91.81 45.2868C94.2111 44.7716 96.6129 44.2579 99.0148 43.7443C100.025 43.5285 101.037 43.3143 102.047 43.0977C102.103 43.0862 102.156 43.0665 102.211 43.0501V43.0509Z" fill="white"/>
<path d="M71.9289 104.993C71.8922 104.989 71.8538 104.979 71.8179 104.983C71.473 105.02 71.1263 104.98 70.7813 104.993C70.6908 104.984 70.6003 104.975 70.5098 104.966C70.4739 104.932 70.4331 104.92 70.3858 104.938C70.3148 104.927 70.2447 104.916 70.1737 104.905C70.155 104.879 70.1313 104.868 70.1003 104.879C70.049 104.869 69.9976 104.858 69.9454 104.848C69.9274 104.823 69.903 104.811 69.872 104.819C69.8377 104.812 69.8035 104.804 69.7684 104.796C69.7521 104.772 69.7317 104.758 69.7007 104.767C69.6665 104.758 69.6314 104.749 69.5971 104.74C69.5816 104.714 69.5604 104.7 69.5294 104.71C68.7326 104.417 68.0337 103.971 67.4448 103.356C66.6741 102.55 66.1905 101.596 65.9931 100.495C65.9409 100.202 65.9108 99.9078 65.9067 99.6133C65.8912 98.2849 66.3022 97.1 67.1366 96.0703C67.8714 95.1636 68.8101 94.5622 69.9283 94.2422C69.9592 94.2528 69.9813 94.2397 69.9984 94.2151C70.0514 94.2052 70.1044 94.1946 70.1566 94.1847C70.2039 94.2011 70.2422 94.1856 70.2757 94.1527C70.3311 94.1453 70.3858 94.138 70.4413 94.1306C70.4894 94.147 70.531 94.1363 70.5668 94.1019C70.6769 94.092 70.7879 94.0813 70.898 94.0715C71.2014 94.0715 71.5056 94.0715 71.809 94.0707C72.388 94.1314 72.9532 94.252 73.4858 94.4924C75.2254 95.2785 76.3264 96.6085 76.6951 98.49C77.0776 100.445 76.5018 102.131 75.0957 103.524C74.5835 104.031 73.9768 104.404 73.3015 104.659C73.2036 104.696 73.1057 104.732 73.0079 104.769C72.9769 104.76 72.9565 104.774 72.9402 104.798C72.7346 104.845 72.5291 104.892 72.3236 104.939C72.2763 104.922 72.2347 104.934 72.1996 104.969L71.928 104.996L71.9289 104.993Z" fill="white"/>
</g>
<defs>
<clipPath id="clip0_607_3631">
<rect width="105" height="62" fill="white" transform="translate(18 43)"/>
</clipPath>
</defs>
</svg>
