<svg width="140" height="140" viewBox="0 0 140 140" fill="none" xmlns="http://www.w3.org/2000/svg">
<rect width="140" height="140" rx="30" fill="#475D7A"/>
<g clip-path="url(#clip0_2755_369)">
<path d="M34.56 69.559V69.4865C35.7419 69.2931 36.6402 68.8553 37.2551 68.1736C37.87 67.4913 38.1774 66.6383 38.1774 65.6133C38.1774 64.112 37.6734 62.9906 36.6661 62.2478C35.6587 61.512 34.342 61.26 32.2 61.26H27.16V78.9H32.2C34.1517 78.9 35.9479 78.3922 37.0113 77.5127C38.0741 76.6333 38.6058 75.3777 38.6058 73.7479C38.6058 72.5294 38.2789 71.5794 37.6243 70.8971C36.9697 70.2148 35.9479 69.765 34.531 69.559H34.56ZM28.42 62.52H31.57C33.2275 62.52 34.788 62.4898 35.602 63.0227C36.4386 63.5267 36.862 64.4087 36.862 65.5887C36.862 66.7675 36.4916 67.6331 35.7494 68.1717C35.0256 68.757 33.838 68.82 32.2 68.82H28.42V62.52ZM32.2 77.64H28.42V70.08H32.2C35.5951 70.08 37.303 71.34 37.303 73.7479C37.2967 76.38 35.413 77.64 32.2 77.64ZM46.7184 65.04C44.9487 65.04 43.557 65.648 42.5427 66.8639C41.5284 68.0791 41.0206 69.7763 41.0206 71.9536C41.0206 73.3396 41.2726 74.5366 41.7136 75.6133C42.1546 76.69 42.8268 77.5033 43.6666 78.0703C44.5064 78.6373 45.5151 78.8893 46.6276 78.9176C48.4124 78.9176 49.8129 78.3053 50.8272 77.0818C51.8415 75.8584 52.3487 74.1574 52.3487 71.9794C52.3487 69.8349 51.8478 68.1465 50.8449 66.9143C49.8621 65.67 48.454 65.04 46.69 65.045L46.7184 65.04ZM49.9805 76.2502C49.2056 77.2778 48.11 77.7912 46.695 77.7912C45.2794 77.7912 44.1839 77.2778 43.4096 76.2502C42.6353 75.2233 42.2479 73.7926 42.2479 71.9587C42.2479 70.109 42.6315 68.6782 43.3983 67.6671C44.165 66.6566 45.2561 66.1507 46.6724 66.1507C48.0873 66.1507 49.1924 66.6547 49.9484 67.6734C50.7308 68.6814 51.1454 70.1304 51.1454 71.9587C51.1416 73.797 50.785 75.246 49.966 76.2502H49.9805ZM61.5397 72.411C61.0294 72.0632 60.2155 71.6726 59.0972 71.2386C57.7578 70.7232 56.8576 70.2564 56.397 69.8387C55.9371 69.421 55.7066 68.8647 55.7066 68.1686C55.7066 67.5298 56.0033 67.0308 56.5974 66.6704C57.1902 66.3101 57.9935 66.1299 59.0052 66.1299C60.0473 66.1299 61.1472 66.3819 62.4072 66.9407L62.83 65.8357C61.6273 65.2958 60.3566 65.0249 59.0172 65.0249C57.6167 65.0249 56.5268 65.3159 55.7469 65.8968C54.9669 66.4783 54.5776 67.2683 54.5776 68.2908C54.5776 68.9208 54.7036 69.4248 54.9556 69.8929C55.2101 70.3339 55.5856 70.7119 56.0896 71.0716C56.5923 71.4496 57.4756 71.8276 58.7356 72.3316C59.8923 72.7726 60.7516 73.2136 61.2556 73.6823C61.7621 74.1233 62.0116 74.6903 62.0116 75.377C62.0116 76.106 61.6935 76.6893 61.0584 77.141C60.4227 77.5789 59.4929 77.7981 58.2675 77.7981C56.8821 77.7981 55.5654 77.4623 54.3174 76.7908V78.1049C55.2914 78.6719 56.5854 78.9239 58.2864 78.9239C59.8387 78.9239 61.037 78.6026 61.8818 77.96C62.7267 77.3174 63.07 76.38 63.07 75.1761C63.07 74.5788 62.9421 74.0591 62.6876 73.6162C62.4318 73.167 62.062 72.789 61.558 72.4312L61.5397 72.411ZM72.2466 72.4312C71.7363 72.0834 70.9223 71.6928 69.8041 71.2587C68.4641 70.7434 67.5644 70.2766 67.1045 69.8589C66.644 69.4412 66.4134 68.8849 66.4134 68.1887C66.4134 67.5499 66.7108 67.051 67.3036 66.6906C67.8971 66.3302 68.7003 66.1501 69.7121 66.1501C70.7547 66.1501 71.8541 66.4021 73.1141 66.9609L73.5362 65.8559C72.3342 65.3159 71.0628 65.045 69.7234 65.045C68.3229 65.045 67.233 65.3361 66.4537 65.927C65.6738 66.5085 65.2838 67.2985 65.2838 68.2971C65.2838 68.9271 65.4098 69.4311 65.6618 69.8992C65.9163 70.3402 66.2918 70.7182 66.7958 71.0962C67.2979 71.4742 68.1818 71.8522 69.3788 72.343C70.5355 72.784 71.3948 73.225 71.8988 73.6937C72.4047 74.1347 72.6548 74.7017 72.6548 75.3947C72.6548 76.1236 72.3367 76.707 71.701 77.1442C71.066 77.582 70.1361 77.8013 68.9101 77.8013C67.5254 77.8013 66.2087 77.4655 64.9606 76.7939V78.1081C65.9346 78.6751 67.2286 78.9271 68.9296 78.9309C70.4826 78.9309 71.6808 78.6096 72.525 77.967C73.3705 77.3244 73.7926 76.4052 73.7926 75.2101C73.7926 74.6128 73.6653 74.0931 73.4102 73.6502C73.1387 73.167 72.772 72.789 72.268 72.4312H72.2466ZM76.93 78.9H80.08V60H76.93V78.9ZM100.24 65.67H97.09L93.4385 69.765L92.05 71.5158V60H88.9V78.9H92.05V74.49L93.4625 72.961L97.72 78.9H100.87L95.343 71.1938L100.24 65.67ZM107.849 76.8223C106.667 76.8223 105.751 76.4732 105.1 75.7752C104.45 75.0778 104.06 73.8991 104.02 72.6H112.84L112.835 71.2417C112.835 69.3618 112.33 67.8845 111.324 66.8116C110.316 65.738 108.945 65.2013 107.207 65.2013C105.334 65.2013 103.863 65.8269 102.792 67.0774C101.722 68.3286 101.186 70.0472 101.186 72.2346C101.186 74.3766 101.753 76.0146 102.887 77.2746C104.041 78.4716 105.659 79.1016 107.675 79.0966C108.571 79.0966 109.369 79.0279 110.066 78.8906C110.764 78.7532 111.455 78.5195 112.137 78.1881V75.876C111.367 76.2231 110.648 76.4713 109.977 76.6207C109.35 76.758 108.619 76.821 107.863 76.8223H107.849ZM105.071 68.19C105.606 67.6173 106.318 67.3307 107.207 67.3307C108.096 67.3307 108.794 67.6457 109.286 68.1843C109.793 68.7513 110.042 69.5703 110.042 70.6961H104.069C104.216 69.639 104.524 68.757 105.091 68.2158L105.071 68.19Z" fill="white"/>
<path d="M85.12 65.67H83.86L82.6107 77.2759L84.4988 79.5218L86.3869 77.2759L85.12 65.67ZM83.5551 64.095C83.7743 64.347 84.0591 64.41 84.5001 64.4302C84.8945 64.4302 85.2013 64.3186 85.4205 64.095C85.6398 63.8713 85.7494 63.5658 85.7494 63.1777C85.7494 62.7701 85.6391 62.4564 85.4205 62.2359C85.2013 62.016 84.8945 61.9057 84.5001 61.9057C84.0931 61.9057 83.78 62.016 83.5614 62.2359C83.3415 62.4564 83.2325 62.7701 83.2325 63.1809C83.2256 63.528 83.356 63.843 83.545 64.0843L83.5551 64.095Z" fill="#AEE0FD"/>
<path d="M117.88 75.12H129.22V73.86H117.88V75.12ZM117.88 70.71V71.97H133V70.71H117.88ZM10.78 75.12H22.12V73.86H10.78V75.12ZM7 71.97H22.12V70.71H7V71.97Z" fill="#CFEDFF"/>
</g>
<defs>
<clipPath id="clip0_2755_369">
<rect width="126" height="19.53" fill="white" transform="translate(7 60)"/>
</clipPath>
</defs>
</svg>
