<svg width="140" height="140" viewBox="0 0 140 140" fill="none" xmlns="http://www.w3.org/2000/svg">
<rect width="140" height="140" rx="30" fill="white"/>
<g clip-path="url(#clip0_2778_495)">
<path d="M20.3206 63.7491C29.7951 46.6517 48.7794 40.184 73.2419 39.8365C79.8328 66.0359 72.103 87.4293 38.9676 100.297C38.7178 100.393 38.468 100.489 38.2164 100.586C19.713 90.1769 14.3634 77.808 20.3206 63.7491Z" fill="#04B44D"/>
<path d="M89.0407 30H98.9401C99.5105 58.928 92.4685 101.936 28.6972 111C65.6276 101.356 90.3734 73.9708 89.0407 30Z" fill="#C7D609"/>
<path d="M109.03 53.142C102.543 89.4347 81.6781 100.38 58.0134 105.984C74.1832 109.31 90.3623 106.689 106.556 95.9553C126.981 79.8153 123.822 65.9509 109.032 53.142H109.03Z" fill="#058EB7"/>
</g>
<defs>
<clipPath id="clip0_2778_495">
<rect width="103" height="81" fill="white" transform="translate(18 30)"/>
</clipPath>
</defs>
</svg>
