<svg width="140" height="140" viewBox="0 0 140 140" fill="none" xmlns="http://www.w3.org/2000/svg">
<rect width="140" height="140" rx="30" fill="#5814C4"/>
<g clip-path="url(#clip0_3610_776)">
<path d="M43.3159 38.3203C47.3742 35.2091 52.2988 33.52 57.3827 32.5892C59.4798 32.2053 61.6172 31.9553 63.7525 32.0064L64.6019 48.5868L68.2736 32.1276C73.5752 32.4627 78.9384 34.2464 83.5179 36.9162C85.1542 37.8703 91.3041 43.0993 91.921 43.8024C95.3984 47.7678 97.8969 52.7181 99.187 57.8322C98.4331 57.8758 97.6696 57.946 96.9232 58.063C92.3564 58.782 87.9807 60.77 84.4874 63.7791C83.7568 64.4088 79.653 69.4102 79.0106 70.6206C78.1696 72.2044 77.4805 73.9563 77.0123 75.6879C76.2637 75.6188 73.8948 75.4188 73.4584 75.3688C72.4762 75.255 71.3486 75.3114 70.3781 75.155C70.2656 75.1369 70.273 75.1008 70.2231 75.0497C70.3165 73.2085 72.0653 72.2853 73.5094 71.4875C78.8311 68.5443 81.9857 64.0642 82.6398 62.0347C83.4351 59.5659 85.3485 48.924 64.3354 51.6693C63.9542 51.7193 62.8213 51.7671 62.5866 51.9363C61.9846 52.3702 62.3806 58.0949 62.5845 60.0127C62.6238 60.3818 62.7098 60.6222 63.1419 60.5732C63.6792 60.5126 64.535 60.1393 65.1296 60.0095C67.078 59.5819 70.6393 58.8299 72.421 59.8287C73.4722 60.4179 73.4849 61.5188 72.4837 62.1677C69.7665 63.928 66.7531 63.0654 61.9994 67.9019C59.6836 70.2579 59.2791 76.3134 59.0848 79.3544C59.0338 80.1543 58.883 81.72 58.9733 82.4401C59.0933 83.3995 59.9756 83.1559 60.6223 83.2336C65.8601 83.8654 71.1299 84.2472 76.372 84.8333C76.7373 88.3849 78.1633 91.8057 80.0596 94.7903C80.3739 95.2849 80.7519 95.8231 81.1108 96.2943C81.2404 96.4645 82.5145 97.9653 82.9562 98.4834C75.8326 102.992 67.3053 104.696 58.9414 103.518C55.6615 103.056 49.4309 100.876 49.4309 100.876C49.4309 100.876 50.9068 97.3282 50.9673 97.1591C52.3933 93.1555 52.2351 88.5519 50.7836 84.5887C50.5086 83.8377 50.1433 83.1272 49.8556 82.3837C51.426 82.4177 53.007 82.5326 54.5711 82.6985C54.8715 82.6805 55.1795 82.3848 55.2432 82.0954C55.7911 75.3242 56.2423 68.5582 56.752 61.9262C56.8826 60.2254 56.9675 58.5044 57.1289 56.861C57.1905 56.2313 57.5706 52.5723 57.594 52.3543C57.7788 50.5992 57.4783 50.5929 55.8537 50.4961C52.9815 50.3237 49.9119 50.3312 47.0418 50.4993C46.3686 50.5386 45.1136 50.2163 44.9808 51.0917L44.4478 57.7779C44.4245 58.4959 46.118 57.8683 46.1425 57.9938C46.1849 58.2172 46.1552 58.6948 46.1403 58.949C45.9864 61.7571 45.6392 64.595 45.3992 67.3998C45.3928 67.47 45.4056 67.5424 45.3992 67.6126C45.1529 70.4792 44.8651 73.35 44.6559 76.2208C44.5859 76.3059 43.2618 75.2816 43.0983 75.1784C38.5973 72.3406 33.0642 71.5939 27.8943 72.8203C26.8017 65.2172 28.3275 57.4237 32.013 50.7482C32.6172 49.6547 34.7621 44.882 43.3191 38.3203H43.3159Z" fill="#FCFBFD"/>
<path d="M86.0312 65.38C92.9244 59.3969 103.791 57.929 111.565 62.7049C115.165 64.9162 120.058 69.0709 122.392 77.8993C124.483 85.8141 120.98 93.4905 114.891 98.8078C114.373 99.2609 111.319 101.53 107.013 102.926C106.701 103.027 106.383 103.126 106.047 103.119C105.448 101.78 104.689 99.5577 104.281 98.7546L104.598 103.536C101.239 104.1 97.9616 103.902 94.687 102.998C91.1034 102.007 87.6972 100.018 85.0766 97.4793C85.0405 97.4442 82.6122 95.4807 80.7084 91.2802C79.4565 88.519 78.6814 85.746 78.6007 82.8698C78.4468 77.4058 79.8961 72.6012 83.2684 68.4061C83.4287 68.2072 85.2359 66.0948 85.9261 65.4885C85.9643 65.4555 85.9951 65.414 86.0323 65.3821L86.0312 65.38ZM93.5074 69.8889C92.8586 70.2973 91.0642 72.0173 90.5927 72.8193C89.3047 75.0093 88.5434 79.5012 88.9108 82.8475C91.0546 102.398 108.614 96.2954 111.494 91.0994C111.786 90.5718 112.063 89.7081 112.118 89.1199C112.388 86.164 111.836 83.2251 110.009 80.8967C109.978 80.8574 109.935 80.8276 109.903 80.7904C107.53 77.9823 103.829 77.5898 100.332 78.4833C99.8697 78.6013 98.0508 79.4225 97.7641 79.2076C97.419 78.2557 98.1326 77.2643 98.656 76.9644C100.122 76.1241 103.195 75.8826 105.237 75.4274C105.55 75.3572 107.071 75.0498 107.129 74.8785L106.779 67.4988C106.675 67.3467 106.126 67.386 105.918 67.3946C104.671 67.4477 97.9871 67.0648 93.5063 69.8899L93.5074 69.8889Z" fill="#FCFBFD"/>
<path d="M21.3483 78.8066C27.3719 73.3553 42.5058 73.6159 47.7861 83.4452C48.0877 84.0058 48.3552 84.5908 48.5718 85.1907L41.2592 88.9731L49.3225 87.3797C50.1507 91.3748 49.6474 95.3487 47.7872 98.9673C47.2987 99.9171 46.3866 101.346 45.7156 102.153C45.6752 102.202 45.4427 102.404 45.2909 102.578C45.258 102.616 45.2187 102.648 45.1847 102.685C44.5593 103.383 42.7266 104.794 42.562 104.892C39.8927 106.49 38.0239 107.503 34.8247 107.877C21.1794 109.473 11.4979 95.186 18.1501 82.7762C19.0505 81.0966 20.9374 79.1778 21.3483 78.8055V78.8066ZM40.7283 95.4572C41.015 92.8278 39.3267 90.5494 36.8028 89.9293C38.4635 86.7011 37.1925 81.955 33.2214 81.4551C30.9916 81.1743 27.1765 82.1316 25.1049 83.0474C24.6611 83.2431 24.0697 83.4314 24.0676 84.0302C24.0665 84.3132 25.0529 87.2659 25.2334 87.6509C25.3035 87.7988 25.346 87.9477 25.5254 88.0009C25.8662 88.1019 29.3946 86.9223 30.2908 86.8617C31.171 86.8021 32.0746 86.9734 31.9175 88.0626C31.8325 88.6497 31.0425 89.0369 30.5403 89.2369C29.9531 89.4709 28.0897 89.7262 27.9357 90.3505C27.889 90.5399 28.5887 94.0617 28.7533 94.167C29.435 94.6031 34.0655 92.1683 33.8298 94.5435C33.7385 95.4668 32.1139 95.8848 31.3664 96.123C30.7835 96.3092 28.4528 96.7368 28.2617 97.1601C28.2235 97.2441 28.1916 97.3229 28.2033 97.4175C28.4772 98.1632 28.5537 101.349 29.0272 101.733C29.1918 101.866 29.5093 101.938 29.7291 101.934C31.6265 101.888 36.2549 100.433 37.8689 99.4491C39.1048 98.695 40.7432 97.2718 40.7283 95.6699C40.7283 95.5997 40.7347 95.5263 40.7283 95.4572Z" fill="#FCFBFD"/>
<path d="M101.992 84.7302C103.238 84.9259 103.853 86.7299 103.484 87.8053C103.065 89.0285 101.286 89.5497 100.361 88.7019C98.9003 87.3628 99.617 84.3569 101.992 84.7302Z" fill="#FCFBFD"/>
</g>
<defs>
<clipPath id="clip0_3610_776">
<rect width="107" height="76" fill="white" transform="translate(16 32)"/>
</clipPath>
</defs>
</svg>
