<svg width="140" height="140" viewBox="0 0 140 140" fill="none" xmlns="http://www.w3.org/2000/svg">
<rect width="140" height="140" rx="30" fill="url(#paint0_linear_1557_22026)"/>
<g clip-path="url(#clip0_1557_22026)">
<path d="M117.175 71.6342C116.452 71.0472 116.362 70.2876 116.652 69.4248C116.588 69.4041 116.525 69.3849 116.461 69.3643C115.636 70.3333 114.785 71.2802 113.993 72.2743C113.227 73.2374 112.49 74.2286 111.803 75.2492C111.506 75.6902 111.194 75.8938 110.664 75.879C110.121 75.8643 109.578 75.9248 108.879 75.9602C109.071 75.6106 109.194 75.3613 109.342 75.1268C110.568 73.1666 111.806 71.2124 113.022 69.2463C113.221 68.9248 113.336 68.5516 113.49 68.2035C113.433 68.1312 113.375 68.0604 113.318 67.9882C113.001 68.1357 112.61 68.2109 112.383 68.4425C111.59 69.2522 110.846 70.1076 110.1 70.9616C109.161 72.0383 108.296 73.1873 107.291 74.1991C106.115 75.382 104.701 76.1799 102.934 76.143C101.198 76.1076 100.407 75.1357 100.765 73.441C100.865 72.9705 101.037 72.5162 101.222 71.9041C100.407 72.6224 99.703 73.2581 98.9815 73.8746C97.57 75.0796 96.0495 76.0958 94.1032 76.1725C93.5446 76.1947 92.9605 76.1047 92.4258 75.9439C92.1345 75.8569 91.7925 75.5545 91.7073 75.2802C91.6252 75.0118 91.8418 74.6548 91.9284 74.3363C92.2241 74.441 92.6364 74.4587 92.7962 74.6666C93.6312 75.7581 94.6245 75.8097 95.4505 74.6652C96.626 73.0324 96.7171 71.0737 97.1219 69.2065C96.1436 70.115 95.2085 70.9838 94.2735 71.8525C93.1517 72.8938 92.0583 73.9675 90.8978 74.9631C90.124 75.6268 89.2263 76.1194 88.1494 76.146C86.699 76.1814 86.0358 75.3348 86.4421 73.9675C86.5317 73.6666 86.6423 73.3702 86.6617 72.9867C86.4436 73.1888 86.2464 73.4218 86.003 73.5855C84.8812 74.3377 83.7893 75.1563 82.5944 75.7773C81.9969 76.0885 81.1993 76.118 80.4928 76.115C78.9005 76.1076 78.085 75.0752 78.3703 73.5413C78.442 73.1578 78.5495 72.7802 78.6436 72.3938C78.191 72.0826 77.731 71.764 77.3247 71.4838C76.3135 72.556 75.3456 73.6666 74.2836 74.6799C73.4546 75.4705 72.4598 76.059 71.2589 76.1298C69.692 76.2212 69.0542 75.4292 69.4605 73.9336C69.4919 73.8171 69.5277 73.7035 69.5949 73.4779C68.9885 74.0236 68.4747 74.5236 67.9205 74.9749C67.1214 75.6239 66.2401 76.1135 65.1647 76.1401C63.795 76.1755 63.187 75.4056 63.5694 74.1121C63.6307 73.9041 63.7113 73.7035 63.783 73.4985C63.7322 73.4513 63.6814 73.4056 63.6322 73.3584C63.3513 73.6711 63.0929 74.0074 62.7852 74.2935C61.9309 75.0899 61.0182 75.8097 59.8322 76.0737C58.1653 76.4439 57.3139 75.6106 57.6903 73.9852C57.7232 73.8451 57.7635 73.7065 57.8352 73.4277C57.4035 73.8495 57.0779 74.1902 56.7284 74.5059C55.7814 75.3628 54.7672 76.1091 53.4064 76.1416C51.9889 76.1755 51.3541 75.4233 51.6051 74.0383C51.629 73.9026 51.6603 73.7684 51.7126 73.5177C51.0823 74.0604 50.5983 74.615 49.9934 74.9646C49.1748 75.438 48.2951 75.9277 47.3824 76.0973C46.1143 76.3318 45.5407 75.6032 45.7588 74.3422C45.7857 74.1843 45.826 74.028 45.8828 73.7669C45.2017 74.3068 44.6296 74.8097 44.0067 75.2433C43.227 75.7876 42.3771 76.1843 41.3793 76.1357C40.3233 76.084 39.7109 75.3289 40.0246 74.3392C40.2516 73.6239 40.6101 72.9498 40.8521 72.3923C39.7811 73.205 38.628 74.1622 37.3927 74.9985C35.2567 76.4454 32.9386 77.4911 30.3067 77.6548C29.5703 77.7006 28.8085 77.6711 28.0856 77.5339C26.5053 77.2345 25.866 76.4174 25.7062 74.5486C25.3985 74.9056 25.1759 75.2035 24.913 75.4631C24.3544 76.0177 23.8137 76.6017 23.1938 77.0826C22.4589 77.6519 21.5896 77.823 20.656 77.6062C19.3939 77.3127 18.8308 76.3849 19.3879 75.2345C19.9107 74.1563 20.5739 73.1386 21.2386 72.1357C22.5993 70.0855 24.0019 68.0619 25.5015 65.8599C25.1251 66.0192 24.9011 66.1121 24.677 66.2079C22.559 67.1047 20.3693 67.3717 18.1183 66.8422C16.7321 66.5162 15.6044 65.8082 15.346 64.3038C15.0771 62.733 15.7015 61.4203 17.1026 60.7138C18.2497 60.1357 19.5447 59.7492 20.8188 59.5383C21.9526 59.3495 23.1505 59.4631 24.3111 59.5531C24.8264 59.5929 25.0714 59.4454 25.3238 59.0575C27.1924 56.1917 29.0938 53.3451 30.9445 50.4675C31.2671 49.9661 31.5315 49.91 32.0692 50.115C42.5399 54.1003 53.0196 58.0619 63.4888 62.0501C64.137 62.2979 64.5612 62.3082 64.8271 61.6032C65.4186 60.0457 66.7734 60.674 68.0505 60.4897C67.8189 60.913 67.6726 61.2065 67.5023 61.4852C65.2468 65.1829 62.9824 68.8746 60.7404 72.5796C60.4252 73.1003 60.1623 73.6711 59.9876 74.2522C59.7949 74.8923 60.1369 75.1829 60.7389 74.8731C61.3453 74.5604 61.9637 74.1755 62.4148 73.6784C64.0071 71.9292 65.5724 70.1519 67.0542 68.3112C67.5381 67.7109 67.9922 67.3643 68.7629 67.4203C69.1797 67.4513 69.6009 67.4262 70.1819 67.4262C69.9205 67.8407 69.7219 68.1607 69.5187 68.4779C68.3985 70.2153 67.2603 71.941 66.1699 73.6961C65.9683 74.0206 65.9548 74.4587 65.8547 74.8436C66.2909 74.761 66.8675 74.8245 67.1393 74.5693C68.3582 73.4277 69.5411 72.2389 70.639 70.9823C71.3814 70.1327 72.0042 69.1711 72.5912 68.2065C72.9318 67.6489 73.3351 67.4041 73.9684 67.4321C74.4374 67.4528 74.9094 67.4366 75.5218 67.4366C75.3635 67.7286 75.2515 67.9543 75.123 68.1681C74.0774 69.9218 73.002 71.6593 72.0012 73.438C71.7742 73.8407 71.8056 74.3835 71.7174 74.8628C72.2238 74.7507 72.8183 74.7684 73.2216 74.5029C74.7645 73.4882 75.9057 72.0899 76.6316 70.4144C76.8751 69.854 76.7855 69.1607 76.9349 68.5486C77.0424 68.1076 77.2246 67.6489 77.4965 67.2905C77.8161 66.8702 78.3733 66.6814 78.8094 67.028C79.0051 67.1843 79.017 67.7374 78.917 68.0486C78.7093 68.6976 78.3927 69.3171 78.0805 69.9292C77.6668 70.7448 77.737 71.0472 78.5346 71.4941C78.6615 71.5649 78.8049 71.6076 78.914 71.6519C79.5906 70.8023 80.1926 69.9307 80.9125 69.1652C82.094 67.91 83.51 67.0206 85.3204 66.9808C86.7901 66.9484 87.3846 67.8702 86.6796 69.1504C85.7371 70.8643 84.109 71.6799 82.2882 72.177C81.1351 72.4911 80.796 72.8687 80.7213 74.0251C80.6795 74.677 81.0275 75.1519 81.6668 75.0368C82.4749 74.8908 83.3293 74.6652 84.0119 74.2389C86.2569 72.8363 87.9403 70.8245 89.3637 68.6725C90.251 67.3318 91.3414 67.3746 92.7559 67.4513C92.3048 68.1681 91.9 68.8009 91.5072 69.4395C90.6588 70.823 89.788 72.1961 88.9903 73.6076C88.7872 73.9675 88.8215 74.4587 88.7469 74.8894C89.2039 74.7832 89.7775 74.8127 90.0971 74.5457C91.6102 73.2802 93.0725 71.9543 94.5154 70.6091C95.3459 69.8348 96.1211 69.0015 96.8874 68.1652C97.1981 67.8274 97.4057 67.4012 97.688 67.0354C97.9091 66.7492 98.1287 66.4292 98.4259 66.2448C98.8382 65.9882 99.3998 65.9926 99.576 66.4764C99.6925 66.7979 99.5536 67.4616 99.3072 67.6091C98.7187 67.9587 98.7515 68.3953 98.7933 68.9159C98.9069 70.3761 99.0816 71.8407 98.6201 73.3407C99.5462 72.5088 100.471 71.674 101.4 70.8466C102.396 69.9602 103.361 69.0339 104.407 68.2079C105.392 67.4292 106.532 66.941 107.839 66.9764C109.073 67.0103 109.651 67.7802 109.162 68.8879C108.906 69.4734 108.466 70.025 107.987 70.4616C106.906 71.4454 105.581 72 104.147 72.3038C103.482 72.4439 102.882 73.6873 103.097 74.4631C103.247 75.0059 103.852 75.2256 104.674 74.9941C105.791 74.6799 106.659 73.9734 107.392 73.1283C108.572 71.7699 109.645 70.3156 110.871 69.0029C111.524 68.3038 112.365 67.7419 113.201 67.2537C113.75 66.9336 114.443 67.031 114.939 67.4985C115.445 67.9749 115.284 68.5855 115.106 69.1578C115.007 69.4764 114.861 69.7787 114.714 70.1401C116.328 68.941 117.224 66.5826 119.942 67.3849C123.007 62.7256 126.111 58.0088 129.306 53.1534C108.435 56.7876 87.7476 60.3908 67.0587 63.9941C67.0243 63.9351 66.9899 63.8761 66.9556 63.8171C67.3051 63.2625 67.6173 62.677 68.0251 62.1666C68.1774 61.9764 68.5434 61.9159 68.8257 61.8672C73.6667 61.0162 78.5092 60.177 83.3502 59.3348C90.3436 58.118 97.3355 56.8967 104.329 55.6814C112.348 54.2891 120.37 52.9012 128.391 51.5118C129.638 51.295 130.885 51.0752 132.132 50.8613C132.364 50.8215 132.601 50.8082 132.999 50.764C132.585 51.41 132.264 51.9248 131.929 52.4321C127.995 58.4189 124.059 64.4041 120.123 70.3894C120.029 70.5339 119.917 70.6711 119.848 70.8259C119.733 71.0855 119.7 71.5427 119.539 71.5885C118.979 71.7448 118.38 71.7846 117.791 71.8156C117.584 71.8274 117.369 71.6873 117.158 71.6165L117.172 71.6312L117.175 71.6342ZM36.737 67.4469C39.6437 69.5663 38.2964 71.9277 37.0955 74.3038C39.46 72.6666 41.6004 70.823 43.357 68.5752C44.2203 67.472 45.2002 67.1401 46.6565 67.5457C46.5236 67.761 46.4026 67.9675 46.2726 68.1681C45.0822 70.0059 43.8812 71.8377 42.7102 73.6873C42.5011 74.0162 42.4115 74.4189 42.2666 74.7876C42.3218 74.851 42.3786 74.9144 42.4339 74.9764C42.7924 74.8761 43.2046 74.854 43.4989 74.6607C44.1352 74.2419 44.8223 73.8215 45.2928 73.2448C46.6475 71.5899 47.9037 69.8569 49.2032 68.1593C49.363 67.9498 49.5348 67.6253 49.7394 67.5944C50.5251 67.472 51.3257 67.4469 52.2921 67.3717C52.0382 67.7861 51.9023 68.0147 51.7604 68.2374C50.7029 69.8967 49.6214 71.5427 48.5968 73.2212C48.298 73.7109 47.6603 74.4041 48.2025 74.8348C48.7432 75.2655 49.4198 74.618 49.8574 74.1843C50.9583 73.0929 51.9725 71.9174 53.0539 70.8053C53.9785 69.8554 54.8941 68.882 55.9158 68.0413C56.7657 67.3422 57.8456 66.9616 58.9629 67.0354C59.653 67.0811 60.3222 67.4203 61.0884 67.6548C61.78 66.5295 62.5627 65.2596 63.3648 63.9557C63.1542 63.854 63.0048 63.7684 62.8465 63.7094C52.794 59.8938 42.7386 56.084 32.6921 52.2551C32.1828 52.0604 31.9482 52.1814 31.6749 52.6062C30.3171 54.7168 28.9265 56.8068 27.5509 58.9056C27.3402 59.2271 27.1416 59.5545 26.8384 60.0369C27.9616 59.9351 28.8862 61.323 29.8676 59.9779C29.8795 59.9616 29.9139 59.9572 29.9378 59.9557C30.8579 59.9144 31.7795 59.8731 32.84 59.8259C32.3456 60.5236 31.9662 61.0575 31.5524 61.6401C32.0752 61.9041 32.5338 62.1342 33.0282 62.3835C33.3717 62.0103 33.6958 61.6445 34.0364 61.2905C35.4793 59.7861 37.1955 58.9616 39.3509 59.1475C41.1971 59.3068 42.3607 60.6194 42.0141 62.3967C41.6945 64.0398 40.876 65.4454 39.3405 66.2876C38.5234 66.736 37.6302 67.0516 36.734 67.4439L36.737 67.4469ZM28.6562 70.3835C29.5957 70.1961 30.4352 70.0133 31.2806 69.8746C31.409 69.854 31.5703 70.0324 31.7167 70.1194C31.6032 70.2699 31.5196 70.4941 31.3687 70.5545C31.1237 70.6534 30.834 70.643 30.5651 70.6858C28.232 71.0472 26.5113 72.9675 26.6457 75.059C26.6995 75.8908 27.1356 76.4661 27.9377 76.6445C28.3664 76.7404 28.8235 76.7655 29.2656 76.7463C32.6562 76.5973 35.4793 72.9779 35.542 69.8628C35.5719 68.3702 34.7803 67.6135 33.2477 67.5885C32.71 67.5796 32.1723 67.5885 31.5689 67.5885C31.7466 66.9675 31.9871 66.618 32.6189 66.6725C33.0132 66.7065 33.4135 66.6843 33.8109 66.6637C36.5533 66.5221 38.7385 64.6799 39.2613 62.0767C39.5331 60.7212 38.7833 59.9351 37.442 60.1991C35.8408 60.5133 34.8938 61.6666 33.89 62.8348C34.5174 63.2802 35.0536 63.6637 35.6391 64.0796C35.4464 64.3009 35.309 64.4572 35.1731 64.6121C34.5532 64.2168 33.9826 63.8525 33.3613 63.4557C31.7585 65.8156 30.2141 68.0899 28.6547 70.3835H28.6562ZM28.7398 61.3112C26.1393 60.3554 23.5299 59.9867 20.8457 60.2846C19.5462 60.4292 18.3125 60.8171 17.3565 61.7743C15.8344 63.2994 16.3602 65.4277 18.4245 66.0708C18.8711 66.2094 19.3491 66.2478 19.8106 66.3392C20.2811 66.4336 20.5843 66.2728 20.8472 65.8584C21.7957 64.3628 22.7756 62.8879 23.7629 61.4159C23.8869 61.2315 24.1139 60.9941 24.2946 60.9926C24.8264 60.9897 25.3581 61.0929 26.0542 61.174C24.9728 62.8304 23.9825 64.3466 22.8995 66.0059C25.7181 65.3259 27.3985 63.5914 28.7413 61.3112H28.7398ZM31.0759 62.2699C30.9968 62.3835 30.9549 62.4454 30.9131 62.5059C28.0483 66.7094 25.1804 70.9115 22.32 75.118C22.1557 75.3599 22.0153 75.6298 21.9316 75.9071C21.8823 76.0693 21.9212 76.3023 22.0153 76.4395C22.0631 76.5088 22.3439 76.4793 22.4828 76.4174C22.7039 76.3171 22.9324 76.1858 23.0922 76.0103C23.8241 75.2138 24.6143 74.4543 25.2357 73.5781C27.4403 70.4705 29.5852 67.323 31.7511 64.1888C32.011 63.8141 32.2634 63.4336 32.5562 63C32.0379 62.7448 31.6002 62.5295 31.0744 62.2699H31.0759ZM54.4371 75.115C54.9972 74.8053 55.4543 74.643 55.7933 74.3495C57.5633 72.8245 58.9779 71 60.1847 69.0206C60.5731 68.3835 60.1847 67.7551 59.4513 67.8967C58.8285 68.0177 58.1608 68.3053 57.6903 68.7168C56.1085 70.1003 54.9927 71.8289 54.1981 73.7581C54.1144 73.9602 54.0039 74.1932 54.0368 74.3894C54.0741 74.6135 54.2608 74.8112 54.4371 75.1165V75.115ZM81.625 71.7079C83.389 71.2109 84.6691 70.4012 85.4682 68.9926C85.6535 68.6652 85.5668 68.1858 85.6042 67.7758C85.1934 67.8835 84.705 67.8849 84.3883 68.115C83.1874 68.9897 82.4749 70.2566 81.6265 71.7079H81.625ZM103.988 71.3776C104.069 71.4616 104.15 71.5472 104.23 71.6312C105.724 71.2197 106.944 70.3982 107.763 69.0796C107.976 68.7345 107.926 68.2286 107.996 67.7964C107.569 67.91 106.997 67.8908 106.738 68.1607C105.767 69.1814 104.897 70.2964 103.99 71.3776H103.988ZM118.293 70.9144C118.915 70.1253 119.535 69.3407 120.153 68.556C120.222 68.584 120.29 68.6121 120.358 68.6401C120.237 68.4203 120.117 68.2006 120.002 67.9897C118.493 68.5722 117.738 70.0265 118.293 70.9159V70.9144Z" fill="white"/>
<path d="M117.16 71.618C117.563 72.0059 117.966 72.3938 118.477 72.8849C117.896 73.7758 117.204 74.8407 116.507 75.9012C113.546 80.4071 110.577 84.9085 107.636 89.4262C107.322 89.9085 107.031 90.0796 106.441 89.9646C99.1816 88.5605 91.9179 87.1784 84.6556 85.7935C77.2963 84.3894 69.9369 82.9897 62.5775 81.5855C61.3587 81.3525 60.1279 81.1681 58.93 80.8569C57.5409 80.497 56.1921 80.6416 54.8089 80.8628C45.8125 82.2964 36.8131 83.7006 27.8152 85.1195C20.8277 86.2212 13.8433 87.3318 6.85588 88.4366C6.61689 88.4749 6.37193 88.4793 6 88.5088C6.17476 88.1976 6.27782 87.9838 6.40777 87.7861C10.6812 81.2846 14.9591 74.7861 19.225 68.2802C19.4536 67.9307 19.6836 67.7596 20.1242 67.8127C20.5634 67.8658 21.013 67.8245 21.6806 67.8245C17.6358 73.9808 13.6909 79.9867 9.66101 86.1195C11.7835 85.7905 13.7417 85.4911 15.6985 85.1843C21.2161 84.3186 26.7337 83.4498 32.2514 82.5826C38.0872 81.6652 43.923 80.7463 49.7588 79.8304C52.0396 79.472 54.3115 79.0251 56.6043 78.8009C57.6335 78.7006 58.7149 79.0044 59.7575 79.2021C71.6023 81.4543 83.4457 83.7183 95.2876 85.9838C98.6992 86.6372 102.109 87.2994 105.518 87.9705C106.053 88.0752 106.402 88.0103 106.741 87.4882C110.026 82.4307 113.348 77.3953 116.661 72.3554C116.822 72.1091 117.006 71.8776 117.176 71.6357C117.173 71.6327 117.16 71.6165 117.16 71.6165V71.618Z" fill="white"/>
<path d="M93.8075 65.0767C93.1697 65.062 92.738 64.6195 92.7485 63.9941C92.7649 63.1165 93.5282 62.3555 94.3557 62.3923C94.9995 62.4204 95.3833 62.8437 95.3669 63.5074C95.3475 64.351 94.6081 65.0944 93.806 65.0767H93.8075Z" fill="white"/>
</g>
<defs>
<linearGradient id="paint0_linear_1557_22026" x1="70" y1="0" x2="70" y2="140" gradientUnits="userSpaceOnUse">
<stop stop-color="#AF0A0E"/>
<stop offset="0.505" stop-color="#E3211F"/>
<stop offset="1" stop-color="#B30D0F"/>
</linearGradient>
<clipPath id="clip0_1557_22026">
<rect width="127" height="40" fill="white" transform="translate(6 50)"/>
</clipPath>
</defs>
</svg>
