<svg width="140" height="140" viewBox="0 0 140 140" fill="none" xmlns="http://www.w3.org/2000/svg">
<rect width="140" height="140" rx="30" fill="white"/>
<g clip-path="url(#clip0_820_958)">
<path d="M69.6986 28C76.2436 28 82.7885 28 89.3334 28.0077C90.2488 28.0077 91.1718 28.0387 92.0719 28.1781C93.7425 28.4414 95.1156 29.2855 96.0004 30.7646C98.1058 34.2727 100.15 37.8117 102.225 41.343C105.078 46.1908 107.931 51.0386 110.776 55.8864C112.874 59.4719 114.964 63.0574 117.039 66.6584C118.336 68.912 118.313 71.1577 116.985 73.4035C112.294 81.3567 107.603 89.3176 102.927 97.2785C100.791 100.918 98.6321 104.542 96.603 108.244C95.1384 110.908 92.911 111.985 90.0352 111.985C83.8412 111.992 77.6471 112 71.4531 112C64.214 112 56.9749 111.977 49.7358 111.961C46.8981 111.961 44.8386 110.684 43.3816 108.174C38.5759 99.9192 33.6939 91.7028 28.8576 83.4631C26.8209 79.9937 24.8147 76.4934 22.8238 72.9931C21.5956 70.8402 21.7863 68.6951 22.9916 66.5965C24.235 64.4359 25.4707 62.2675 26.7294 60.1147C31.9165 51.2632 37.1189 42.4195 42.306 33.568C42.695 32.9097 43.0307 32.2205 43.4197 31.5545C44.7852 29.2158 46.7761 28.0155 49.507 28.031C56.2426 28.062 62.9706 28.0387 69.7063 28.0387C69.7063 28.0232 69.7063 28.0155 69.7063 28H69.6986ZM70.0495 75.5331V75.5486C76.9377 75.5486 83.8183 75.5641 90.7065 75.5331C91.5456 75.5331 92.4152 75.386 93.2085 75.1072C95.9699 74.1547 97.2362 70.8867 95.8402 68.3621C94.696 66.2867 92.8195 65.5897 90.5844 65.5897C77.0369 65.5897 63.4817 65.5898 49.9341 65.6052C49.1484 65.6052 48.3475 65.6672 47.5847 65.8221C45.7463 66.2015 44.3961 67.3012 43.8088 69.1056C43.229 70.8712 43.6333 72.5052 44.892 73.9224C46.1201 75.3008 47.7372 75.5177 49.3925 75.5254C56.2807 75.5564 63.1613 75.5331 70.0495 75.5331ZM70.0266 56.6763C73.8788 56.6763 77.731 56.6763 81.5833 56.6763C83.2386 56.6763 84.4972 55.8709 85.4126 54.5467C86.4805 52.9979 86.5263 51.2787 85.7482 49.606C84.9396 47.879 83.4827 46.911 81.5985 46.8801C78.0285 46.8181 74.4586 46.8413 70.8886 46.8491C66.8457 46.8568 62.8028 46.8646 58.7599 46.9343C56.2502 46.9807 54.4347 48.3359 53.7711 50.4965C52.8786 53.4315 55.1289 56.5989 58.2717 56.6608C62.1849 56.7305 66.1058 56.6763 70.019 56.6763H70.0266ZM69.6986 91.7725C72.0328 91.7725 74.3747 91.8654 76.7089 91.7492C79.2796 91.6176 81.301 89.3176 81.301 86.7621C81.301 84.4233 79.2567 82.0382 76.9225 81.984C72.3151 81.891 67.7001 81.891 63.0927 82.0072C60.6212 82.0691 58.6531 84.4466 58.7217 86.9402C58.7904 89.4802 60.8729 91.695 63.3444 91.7647C65.4574 91.8189 67.578 91.7802 69.691 91.7802L69.6986 91.7725Z" fill="#EEC44C"/>
</g>
<defs>
<clipPath id="clip0_820_958">
<rect width="96" height="84" fill="white" transform="translate(22 28)"/>
</clipPath>
</defs>
</svg>
