<svg width="140" height="140" viewBox="0 0 140 140" fill="none" xmlns="http://www.w3.org/2000/svg">
<rect width="140" height="140" rx="30" fill="#FBEAD9"/>
<mask id="mask0_570_442" style="mask-type:luminance" maskUnits="userSpaceOnUse" x="23" y="23" width="94" height="94">
<path d="M117 23H23V117H117V23Z" fill="white"/>
</mask>
<g mask="url(#mask0_570_442)">
<path d="M106.589 111.833C99.4699 115.851 87.2568 117 70.3623 117C53.4679 117 41.2548 115.851 34.1359 111.833C29.8631 109.427 27.7002 106.146 27.7002 103.794C27.7002 102.455 28.4128 101.689 29.9997 101.689H110.723C112.312 101.689 113.023 102.455 113.023 103.794C113.025 106.146 110.862 109.427 106.589 111.833ZM110.723 49.4938H29.9997C28.4128 49.4938 27.7002 48.6736 27.7002 47.1977C27.7002 38.4475 40.8714 23 70.3623 23C99.58 23 113.025 38.4475 113.025 47.1977C113.025 48.6736 112.312 49.4938 110.723 49.4938Z" fill="#FF8732"/>
<path d="M44.8951 85.5855C44.6483 85.2026 44.6218 84.9562 44.6218 84.8476C44.6218 84.5468 44.7864 84.3283 45.1141 84.0275C45.8811 83.316 47.7707 81.5393 48.8109 79.9269C49.6044 78.6959 49.9335 77.575 49.9335 76.6463C49.9335 74.2681 47.7707 72.4077 45.4153 72.4077C43.9092 72.4077 42.4855 73.2558 41.5274 74.8138C40.2403 76.8914 38.7063 79.2974 37.7219 80.2555C37.475 80.5019 37.3383 80.5563 37.1474 80.5563C36.8182 80.5563 36.6816 80.3376 36.6816 79.9826V77.2479C36.6816 74.5689 35.0932 72.4077 32.2177 72.4077C29.3158 72.4077 27.7539 74.5674 27.7539 77.2479V94.0906C27.7539 96.7696 29.3143 98.9308 32.2177 98.9308C35.0932 98.9308 36.6816 96.7711 36.6816 94.0906V90.2086C36.6816 89.88 36.8182 89.6349 37.1474 89.6349C37.5852 89.6349 37.6954 90.0721 37.8042 90.2908C38.4345 91.7945 40.2682 94.993 41.9667 96.8796C43.1173 98.137 44.5411 98.9308 46.0472 98.9308C48.5934 98.9308 50.7299 96.7154 50.7299 94.3371C50.7299 92.8611 50.0995 91.7667 48.8947 90.455C47.3607 88.784 45.5534 86.5965 44.8951 85.5855Z" fill="#D62300"/>
<path d="M79.0431 70.8481C83.3424 70.8481 86.0533 68.1132 86.0533 64.1227C86.0533 61.5801 84.5193 59.8298 81.4528 59.8298H80.5771C78.9609 59.8298 77.7017 60.5956 77.7017 62.318C77.7017 63.8498 79.0431 64.5877 80.0569 64.5877C80.5771 64.5877 80.9063 64.7521 80.9063 65.135C80.9063 65.6265 80.3317 65.9551 79.6735 65.9551C77.6193 65.9551 76.2235 64.5056 76.2235 61.7987C76.2235 58.7911 78.141 57.698 79.6191 57.698C81.4264 57.698 81.7276 58.6282 82.9868 58.6282C84.4386 58.6282 85.4245 57.4252 85.4245 56.1678C85.4245 55.2376 85.0131 54.5275 84.3841 54.0345C83.2337 53.1866 81.6189 52.5586 79.2091 52.5586C74.9642 52.5586 70.8296 55.3476 70.8296 61.8002C70.8281 67.9768 74.9628 70.8481 79.0431 70.8481Z" fill="#D62300"/>
<path d="M30.9034 70.6836H34.7648C38.4072 70.6836 40.6245 68.2496 40.6245 65.2156C40.6245 62.7816 39.1727 61.6608 38.8451 61.3879C38.7084 61.2778 38.5718 61.1692 38.5718 61.0592C38.5718 60.9227 38.6541 60.8685 38.7908 60.7042C39.3108 60.1026 39.831 59.146 39.831 57.7508C39.831 54.4702 37.6123 52.72 34.1623 52.72H30.9034C28.7405 52.72 27.7002 53.9787 27.7002 55.6732V67.7303C27.7002 69.4263 28.7405 70.6836 30.9034 70.6836ZM32.5196 57.4236C32.5196 57.0686 32.7386 56.7942 33.2043 56.7942H33.5599C34.7368 56.7942 35.0939 57.6143 35.0939 58.3258C35.0939 58.9818 34.7383 59.9119 33.5599 59.9119H33.2043C32.7386 59.9119 32.5196 59.6389 32.5196 59.2824V57.4236ZM32.5196 63.8218C32.5196 63.4668 32.7386 63.1924 33.2043 63.1924H33.6966C35.0116 63.1924 35.3936 64.0669 35.3936 64.8606C35.3936 65.5721 35.0101 66.583 33.6966 66.583H33.2043C32.7386 66.583 32.5196 66.3102 32.5196 65.9537V63.8218Z" fill="#D62300"/>
<path d="M102.4 70.8203C104.153 70.8203 105.111 69.5073 105.111 67.867V64.9693C105.111 64.6143 105.276 64.45 105.549 64.45C105.878 64.45 105.987 64.6407 106.041 64.9693C106.288 66.3632 106.945 68.2499 107.684 69.2079C108.616 70.4389 109.491 70.8218 110.367 70.8218C111.791 70.8218 113.024 69.7008 113.024 68.3056C113.024 67.3755 112.64 66.6917 112.148 66.0639C111.216 64.8887 110.642 64.1228 110.286 63.1662C110.204 62.9476 110.258 62.7555 110.505 62.5647C111.354 61.9089 112.34 60.4594 112.34 58.1633C112.34 54.6906 109.465 52.7217 105.987 52.7217H102.893C100.73 52.7217 99.6895 53.9789 99.6895 55.6749V67.8699C99.6895 69.5087 100.647 70.8203 102.4 70.8203ZM104.81 57.8889C104.81 57.5339 105.029 57.2595 105.495 57.2595H105.878C107.029 57.2595 107.384 58.0797 107.384 58.7912C107.384 59.4749 107.029 60.3772 105.878 60.3772H105.495C105.029 60.3772 104.81 60.1043 104.81 59.7478V57.8889Z" fill="#D62300"/>
<path d="M57.3821 72.406C54.3156 72.406 52.645 74.7021 52.645 77.5732V93.7603C52.645 96.6315 54.3156 98.9275 57.3821 98.9275C60.4487 98.9275 62.1193 96.6315 62.1193 93.7603V77.5732C62.1193 74.7035 60.4501 72.406 57.3821 72.406Z" fill="#D62300"/>
<path d="M106.069 82.9327H104.728C102.318 82.9327 100.456 84.0536 100.456 86.5141C100.456 88.7558 102.483 89.8225 103.989 89.8225C104.728 89.8225 105.248 90.041 105.248 90.6147C105.248 91.3262 104.372 91.7898 103.441 91.7898C100.346 91.7898 98.2377 89.6845 98.2377 85.7745C98.2377 81.4274 101.113 79.8415 103.33 79.8415C106.041 79.8415 106.479 81.2089 108.369 81.2089C110.56 81.2089 112.038 79.4321 112.038 77.6275C112.038 76.288 111.435 75.2493 110.477 74.5376C108.807 73.3068 106.288 72.4045 102.728 72.4045C96.3482 72.4045 90.1313 76.423 90.1313 85.7745C90.1313 94.7153 96.3467 98.8982 102.481 98.8982C108.915 98.8982 112.996 94.934 112.996 89.1372C112.997 85.4752 110.698 82.9327 106.069 82.9327Z" fill="#D62300"/>
<path d="M95.7185 70.6836C97.2524 70.6836 98.4572 69.7814 98.4572 68.1411C98.4572 66.5273 97.2524 65.6249 95.7185 65.6249H93.2543C92.7886 65.6249 92.5696 65.352 92.5696 64.9955V64.4762C92.5696 64.1212 92.7886 63.8468 93.2543 63.8468H95.144C96.459 63.8468 97.4992 63.0546 97.4992 61.6592C97.4992 60.2655 96.459 59.4718 95.144 59.4718H93.2543C92.7886 59.4718 92.5696 59.1989 92.5696 58.8424V58.4051C92.5696 58.05 92.7886 57.7758 93.2543 57.7758H95.7185C97.2524 57.7758 98.4572 56.8734 98.4572 55.2332C98.4572 53.6193 97.2524 52.717 95.7185 52.717H90.5434C88.3805 52.717 87.3403 53.9743 87.3403 55.6703V67.7273C87.3403 69.4219 88.3805 70.6807 90.5434 70.6807H95.7185V70.6836Z" fill="#D62300"/>
<path d="M48.6745 70.8202C53.1103 70.8202 55.4657 68.1676 55.4657 64.8328V55.6192C55.4657 53.9789 54.5077 52.6658 52.7548 52.6658C51.002 52.6658 50.0438 53.9789 50.0438 55.6192V64.532C50.0438 65.1878 49.6604 65.9538 48.6745 65.9538C47.6886 65.9538 47.3595 65.1878 47.3595 64.532V55.6192C47.3595 53.9789 46.3734 52.6658 44.6206 52.6658C42.8676 52.6658 41.9097 53.9789 41.9097 55.6192V64.8328C41.9111 68.1691 44.2385 70.8202 48.6745 70.8202Z" fill="#D62300"/>
<path d="M67.8988 70.8201C69.3226 70.8201 70.5554 69.6991 70.5554 68.3039C70.5554 67.3737 70.172 66.69 69.6797 66.0622C68.8862 65.0235 68.1736 64.1211 67.8181 63.1645C67.7358 62.9459 67.7902 62.7538 68.0371 62.563C68.8862 61.9072 69.8723 60.4577 69.8723 58.1616C69.8723 54.6889 66.9967 52.72 63.5188 52.72H60.4229C58.2601 52.72 57.2197 53.9772 57.2197 55.6732V67.8682C57.2197 69.5085 58.1777 70.8216 59.9307 70.8216C61.6836 70.8216 62.6416 69.5085 62.6416 67.8682V64.9707C62.6416 64.6155 62.8062 64.4512 63.0795 64.4512C63.4087 64.4512 63.5173 64.6419 63.5716 64.9707C63.8185 66.3643 64.4753 68.2511 65.2144 69.2092C66.146 70.4372 67.0217 70.8201 67.8988 70.8201ZM63.4071 60.3754H63.0237C62.5578 60.3754 62.3389 60.1026 62.3389 59.7461V57.8887C62.3389 57.5336 62.5578 57.2593 63.0237 57.2593H63.4071C64.5577 57.2593 64.9132 58.0794 64.9132 58.791C64.9132 59.4732 64.5577 60.3754 63.4071 60.3754Z" fill="#D62300"/>
<path d="M83.6421 72.406C80.8208 72.406 79.2884 74.5113 79.2884 77.1639V83.0692C79.2884 83.5606 79.1239 83.7807 78.8226 83.7807C78.6037 83.7807 78.439 83.6443 78.2481 83.2613L74.4425 75.8788C72.9908 73.0618 71.4847 72.406 69.7598 72.406C66.8842 72.406 65.2959 74.5657 65.2959 77.2724V94.171C65.2959 96.8236 66.8299 98.9291 69.6495 98.9291C72.4707 98.9291 74.0032 96.8236 74.0032 94.171V88.2659C74.0032 87.7743 74.1677 87.5542 74.4689 87.5542C74.6879 87.5542 74.8524 87.6907 75.0434 88.0736L78.849 95.4563C80.3008 98.2731 81.8612 98.9291 83.5318 98.9291C86.4073 98.9291 87.9957 96.7694 87.9957 94.0625V77.1639C87.9957 74.5113 86.4632 72.406 83.6421 72.406Z" fill="#D62300"/>
<path d="M109.95 99.5497C109.95 98.8147 110.52 98.2 111.302 98.2C112.084 98.2 112.654 98.8147 112.654 99.5497C112.654 100.339 112.084 100.908 111.302 100.908C110.52 100.91 109.95 100.33 109.95 99.5497ZM112.36 99.5497C112.36 98.8705 111.827 98.4759 111.302 98.4759C110.777 98.4759 110.244 98.8705 110.244 99.5497C110.244 100.257 110.777 100.632 111.302 100.632C111.827 100.632 112.36 100.257 112.36 99.5497ZM110.833 100.129V98.9819C110.833 98.9085 110.898 98.8353 110.971 98.8353H111.358C111.661 98.8353 111.872 99.0186 111.872 99.2666C111.872 99.4778 111.753 99.6612 111.477 99.7067L111.78 100.047C111.808 100.075 111.825 100.112 111.825 100.138C111.825 100.22 111.769 100.276 111.687 100.276C111.631 100.276 111.594 100.248 111.568 100.211L111.164 99.7346H111.118V100.129C111.118 100.203 111.054 100.267 110.971 100.267C110.898 100.266 110.833 100.203 110.833 100.129ZM111.321 99.4764C111.487 99.4764 111.578 99.3942 111.578 99.2841C111.578 99.1654 111.496 99.1008 111.349 99.1008H111.12V99.4778H111.321V99.4764Z" fill="#D62300"/>
</g>
</svg>
