<svg width="140" height="140" viewBox="0 0 140 140" fill="none" xmlns="http://www.w3.org/2000/svg">
<rect width="140" height="140" rx="30" fill="white"/>
<g clip-path="url(#clip0_2689_379)">
<path d="M83.9105 52.9888C76.2856 53.1597 69.8044 53.6132 63.3395 54.322C59.8432 54.705 56.3633 55.2147 52.8768 55.6703C49.7098 56.0848 46.5646 56.6334 43.4095 57.1204C43.3376 57.1312 43.2656 57.1409 43.1937 57.1463C43.0465 57.1572 42.8829 57.1777 42.8655 56.971C42.8492 56.7654 43.0367 56.8228 43.1391 56.8011C44.3645 56.5479 45.5954 56.3207 46.8175 56.0523C51.9589 54.9269 57.1515 54.085 62.3408 53.2225C66.8521 52.4726 71.3786 51.8071 75.9127 51.2141C81.9317 50.4263 87.9715 49.8105 94.0275 49.3809C99.7751 48.974 105.532 48.8788 111.285 49.1699C114.166 49.316 117.037 49.6828 119.811 50.5356C120.864 50.8591 121.9 51.2454 122.84 51.8558C125.03 53.2744 125.543 55.0968 124.356 57.4255C123.586 58.9362 122.506 60.2185 121.329 61.4273C119.014 63.8069 116.425 65.8673 113.732 67.8022C112.307 68.8259 110.844 69.7987 109.406 70.8073C109.157 70.9815 109.034 71.0259 108.934 70.6742C108.47 69.0575 107.522 67.7665 106.17 66.772C105.846 66.5339 106.099 66.4008 106.209 66.258C106.952 65.2938 107.555 64.2506 108.01 63.1252C109.109 60.4112 108.246 58.2447 105.94 56.6248C103.925 55.2104 101.559 54.5903 99.158 54.1391C97.2872 53.7874 95.4066 53.5039 93.5086 53.3253C89.9404 52.9877 86.3645 53.0082 83.9094 52.9888H83.9105Z" fill="#C62326"/>
<path d="M112.309 71.9955C112.021 73.5776 111.54 75.1164 111.386 76.7482C111.711 76.3954 112.037 76.0437 112.361 75.6899C113.365 74.5958 114.421 73.5548 115.643 72.6978C116.271 72.2584 116.937 71.9186 117.748 71.9446C118.51 71.9695 118.977 72.4207 118.983 73.1793C118.995 74.5731 118.471 75.8544 118.138 77.1757C117.848 78.3271 117.516 79.4687 117.207 80.6147C117.165 80.7705 117.13 80.9318 117.122 81.0919C117.108 81.3993 116.935 81.7661 117.343 81.9533C117.763 82.1459 118.027 81.8354 118.274 81.5876C118.908 80.9491 119.265 80.2587 119.304 79.2729C119.399 76.9344 120.621 75.0893 122.359 73.5721C123.432 72.635 124.645 71.9825 126.114 71.9208C126.259 71.9143 126.405 71.9089 126.548 71.9208C127.502 72.0063 128.479 72.1924 128.816 73.2031C129.188 74.3177 129.02 75.4323 128.124 76.3045C127.145 77.2568 125.89 77.6767 124.593 78.0057C123.637 78.2492 122.665 78.352 121.685 78.4017C121.362 78.418 121.273 78.5283 121.235 78.8422C121.126 79.7414 121.145 80.5855 121.815 81.3051C122.776 82.3396 124.501 82.4608 125.857 81.5702C126.485 81.1579 127.003 80.6342 127.459 80.0412C127.522 79.9589 127.574 79.7219 127.775 79.8918C127.884 79.9838 127.962 80.0715 127.898 80.2565C127.191 82.2834 124.008 84.0051 121.847 83.4705C120.607 83.1631 119.75 82.3981 119.42 81.0129C119.17 81.3365 118.97 81.5962 118.767 81.8538C118.227 82.5377 117.67 83.2032 116.783 83.4694C115.702 83.7951 114.829 83.0593 114.989 81.9566C115.216 80.3983 115.768 78.9255 116.197 77.4202C116.482 76.416 116.802 75.4215 116.957 74.3848C117.003 74.071 117.005 73.7561 116.725 73.5537C116.428 73.3384 116.105 73.4206 115.801 73.5819C114.908 74.0548 114.201 74.7657 113.476 75.441C112.643 76.2169 111.874 77.061 111.066 77.8639C110.981 77.9483 110.963 78.01 110.942 78.1193C110.638 79.6906 110.315 81.2586 110.01 82.8298C109.958 83.0982 109.869 83.2659 109.561 83.2097C109.543 83.2064 109.525 83.2097 109.506 83.2097C109.018 83.1978 108.528 83.1859 108.04 83.175C108.14 82.6773 108.227 82.1773 108.344 81.6828C108.9 79.328 109.471 76.9766 110.019 74.6197C110.095 74.2918 110.278 73.8784 109.817 73.663C109.36 73.4499 108.878 73.5981 108.445 73.7377C108.255 73.7994 108.334 74.1619 108.317 74.3892C108.126 76.7893 107.263 78.9179 105.578 80.6537C102.976 83.3363 99.7761 84.2453 96.1774 83.2779C93.5816 82.5799 92.2396 80.632 91.8482 78.0468C91.3097 74.4898 92.4576 71.4111 95.0294 69.0098C97.6339 66.5794 100.819 65.666 104.315 66.8953C106.53 67.6745 107.728 69.4362 108.182 71.699C108.245 72.016 108.283 72.3396 108.307 72.6621C108.329 72.9477 108.429 73.017 108.722 72.9467C109.745 72.6989 110.76 72.4305 111.761 72.1037C111.923 72.0507 112.079 71.9295 112.308 71.9933L112.309 71.9955ZM94.3022 76.6562C94.3022 77.7449 94.4941 78.7816 94.9302 79.7706C95.8994 81.9695 98.058 83.109 100.164 82.5182C101.773 82.0659 103.034 81.1179 103.888 79.7046C105.457 77.1075 106.117 74.3048 105.548 71.2932C105.321 70.0931 104.785 68.9914 103.835 68.1874C102.129 66.7417 99.9833 66.7103 98.2215 68.1366C95.5124 70.329 94.5465 73.3395 94.3012 76.6573L94.3022 76.6562ZM127.177 74.2745C127.228 72.7302 126.208 72.0939 125.12 72.7313C123.267 73.8167 122.35 75.6152 121.613 77.523C121.482 77.8617 121.738 77.8672 121.972 77.8553C123.389 77.7849 124.682 77.3456 125.788 76.4669C126.589 75.8317 127.169 75.033 127.177 74.2755V74.2745Z" fill="#053D58"/>
<path d="M46.0379 71.9716C47.4944 70.5162 49.2485 70.251 51.0626 70.2413C54.3855 70.224 55.4354 72.7421 55.0669 75.0947C54.4858 78.7999 51.0681 80.7023 47.6939 80.131C46.789 79.9773 45.9594 79.7771 45.3107 78.9244C45.0698 80.3203 44.8267 81.5854 44.6446 82.858C44.5759 83.3384 44.4255 83.5181 43.9065 83.4997C42.691 83.4542 41.4721 83.4607 40.2566 83.4889C39.8357 83.4986 39.7834 83.3698 39.851 83.0008C40.4909 79.4914 41.1189 75.9799 41.7469 72.4694C41.8515 71.884 41.954 71.2986 42.0379 70.7099C42.0772 70.4307 42.1829 70.3181 42.4882 70.3225C43.6503 70.3419 44.8136 70.343 45.9757 70.329C46.2854 70.3257 46.3508 70.4263 46.2843 70.7077C46.1949 71.0832 46.136 71.4652 46.0401 71.9716H46.0379ZM45.8318 75.5048C45.822 76.429 46.2298 76.9549 47.1226 77.1702C48.8081 77.576 50.3551 76.2948 50.4139 74.4443C50.4499 73.3135 49.5036 72.4738 48.3698 72.6296C46.7105 72.8579 45.8504 73.8329 45.8307 75.5048H45.8318Z" fill="#053D58"/>
<path d="M26.6269 70.5043C24.4346 69.2631 22.24 69.1386 20.0105 70.0465C18.5268 70.6504 17.454 71.7195 17.0637 73.2897C16.6952 74.7733 17.4562 75.9961 18.977 76.6194C20.2918 77.1583 21.6556 76.9733 23.0097 76.8737C23.5504 76.8337 24.0857 76.7147 24.6221 76.6248C24.8924 76.5794 25.0113 76.6054 24.9393 76.9452C24.7464 77.8607 24.6003 78.7859 24.4324 79.7068C24.3975 79.8994 24.3757 80.0736 24.089 80.0974C21.1323 80.3474 18.1757 80.5454 15.3074 79.5369C14.0504 79.0954 12.8686 78.4948 12.0215 77.4159C10.6675 75.691 10.8125 73.8167 11.5876 71.9468C12.4489 69.8723 14.1082 68.5597 16.1098 67.6388C18.0514 66.746 20.1152 66.4278 22.2378 66.3359C23.7815 66.2699 25.2751 66.4333 26.7469 66.891C27.1688 67.0219 27.2549 67.2308 27.1644 67.6431C26.9627 68.5726 26.8101 69.513 26.628 70.5043H26.6269Z" fill="#053D58"/>
<path d="M27.9602 73.1122C28.2502 72.3039 28.5206 71.5626 28.7801 70.817C28.8553 70.5995 28.9883 70.5216 29.2172 70.4978C31.9417 70.2175 34.6617 69.8669 37.4123 70.1201C38.0893 70.1829 38.7282 70.3582 39.319 70.6991C40.0506 71.1211 40.4049 71.7336 40.3057 72.5831C40.0855 74.4801 39.669 76.3446 39.3626 78.2275C39.27 78.7967 38.9996 79.3789 39.6407 79.8496C39.8293 79.9881 39.6036 80.0682 39.4586 80.0693C38.9865 80.0747 38.5145 80.0715 38.0424 80.0715C37.0623 80.0715 36.0811 80.0552 35.1021 80.0812C34.7326 80.0909 34.6421 79.9741 34.653 79.6235C34.677 78.8519 34.6508 78.8357 33.9444 79.1852C32.0768 80.1104 30.1025 80.3171 28.0649 80.0433C27.063 79.9091 26.3282 79.3302 25.8594 78.458C25.5422 77.8661 25.6926 77.2622 26.0001 76.7038C26.4601 75.8684 27.1917 75.3869 28.0965 75.1044C30.0044 74.5082 31.9853 74.44 33.9509 74.2506C34.3368 74.2138 34.7031 74.1219 35.0498 73.9628C35.3943 73.8059 35.6701 73.5927 35.6113 73.1425C35.5546 72.7064 35.257 72.5181 34.8852 72.4489C34.5134 72.3796 34.1286 72.3536 33.7492 72.3515C31.8174 72.3396 29.927 72.6523 27.9635 73.1101L27.9602 73.1122ZM35.1043 75.678C34.2812 75.8143 33.4952 75.9399 32.7113 76.074C32.2131 76.1595 31.704 76.2126 31.2516 76.4679C30.9234 76.653 30.7599 76.9343 30.7632 77.3088C30.7664 77.6864 31.051 77.8293 31.3388 77.944C32.9893 78.603 34.9343 77.444 35.1043 75.6769V75.678Z" fill="#053D58"/>
<path d="M83.0841 80.0715C81.9132 80.0715 80.7423 80.0715 79.5725 80.0715C79.4995 80.0715 79.4275 80.0736 79.3545 80.0715C78.9587 80.0596 78.4703 80.1808 78.1923 79.9946C77.9165 79.8096 78.1803 79.2858 78.0539 78.8725C77.4543 79.1105 76.9048 79.4546 76.2921 79.6603C74.7048 80.1937 73.0815 80.2121 71.4462 80.0433C70.3058 79.9254 68.8297 78.7253 69.1698 77.325C69.4009 76.3738 70.0169 75.7418 70.8782 75.3479C71.928 74.8675 73.0618 74.6889 74.2011 74.559C75.2292 74.4422 76.2594 74.3415 77.2885 74.2366C77.6701 74.1976 78.0495 74.1392 78.3995 73.9855C78.7287 73.8405 79.0994 73.6749 79.0579 73.228C79.0132 72.7594 78.7167 72.4846 78.2425 72.4261C77.1904 72.2952 76.1373 72.3244 75.0907 72.4575C73.9754 72.6004 72.8591 72.7432 71.7634 73.0062C71.6609 73.0311 71.5541 73.0332 71.3927 73.0538C71.686 72.2465 71.9618 71.4933 72.23 70.738C72.2791 70.6017 72.3499 70.5476 72.5015 70.5302C75.2608 70.2143 78.019 69.8507 80.8044 70.132C81.3604 70.1883 81.9121 70.3333 82.4321 70.553C83.4711 70.9902 83.8919 71.7314 83.7087 72.8395C83.4013 74.7051 83.0971 76.5718 82.7504 78.4309C82.6392 79.0283 82.5956 79.5629 83.0851 80.0693L83.0841 80.0715ZM75.4941 78.0976C75.8789 78.0479 76.2986 78.023 76.7042 77.9353C77.8042 77.6973 78.3515 77.088 78.5172 75.9918C78.5608 75.704 78.5172 75.6066 78.188 75.6791C77.463 75.8392 76.7282 75.9539 75.9977 76.0914C75.5355 76.1779 75.0624 76.2353 74.6666 76.5242C74.3417 76.7612 74.0921 77.0491 74.1891 77.4776C74.2796 77.878 74.6197 77.9732 74.9773 78.0219C75.1387 78.0446 75.3 78.0695 75.493 78.0976H75.4941Z" fill="#053D58"/>
<path d="M71.4549 70.2348C71.3143 70.8278 71.1671 71.3635 71.0668 71.9089C71.0145 72.1935 70.8608 72.253 70.6176 72.2498C70.0911 72.2443 69.5612 72.2757 69.0379 72.2303C68.6564 72.1967 68.5474 72.3277 68.4841 72.6848C68.0742 75.0081 67.6272 77.3239 67.2239 79.6483C67.1628 79.9979 67.0472 80.0866 66.7104 80.0823C65.3662 80.0639 64.0219 80.0541 62.6788 80.0823C62.2471 80.0909 62.2645 79.907 62.3223 79.6029C62.7366 77.4451 63.1432 75.2852 63.5553 73.1263C63.7243 72.2422 63.7265 72.2422 62.8391 72.2357C62.2147 72.2314 61.9567 71.9244 62.065 71.3148C62.1893 70.6172 62.6036 70.2702 63.3079 70.2738C63.4354 70.2738 63.5662 70.2575 63.6883 70.2846C64.0427 70.3625 64.1789 70.2121 64.2084 69.8745C64.2345 69.5704 64.3457 69.2706 64.3468 68.9687C64.3468 68.3703 64.6412 68.1582 65.2135 68.063C66.5185 67.8465 67.8137 67.5652 69.1088 67.2871C69.4566 67.2124 69.5111 67.2762 69.4381 67.6171C69.2756 68.3735 69.172 69.1429 69.0172 69.9015C68.9605 70.1775 69.0336 70.2446 69.3007 70.2391C70.006 70.2262 70.7114 70.2348 71.4549 70.2348Z" fill="#053D58"/>
<path d="M86.2064 80.078C85.5174 80.078 84.8273 80.0639 84.1383 80.0834C83.8254 80.092 83.736 80.0238 83.7971 79.6938C84.4654 76.1033 85.1195 72.5105 85.7758 68.9178C85.9088 68.1917 86.0461 67.4667 86.1541 66.7373C86.1879 66.5112 86.2478 66.4419 86.4844 66.4506C87.8624 66.4971 89.2404 66.5296 90.6195 66.5566C90.8888 66.562 90.9967 66.6021 90.9401 66.9278C90.1987 71.1622 89.4726 75.3988 88.7531 79.6364C88.6975 79.9665 88.5972 80.1126 88.2189 80.0888C87.5506 80.0477 86.8769 80.0769 86.2053 80.0769L86.2064 80.078Z" fill="#053D58"/>
<path d="M57.3739 80.0737C56.7198 80.0737 56.0646 80.0488 55.4126 80.0812C55.0027 80.1018 54.9297 79.9568 54.9973 79.5899C55.3854 77.4819 55.7582 75.3718 56.1365 73.2627C56.2924 72.3937 56.4625 71.528 56.5988 70.6569C56.6446 70.3679 56.7481 70.2651 57.049 70.2684C58.3747 70.2846 59.7015 70.29 61.0272 70.2716C61.4164 70.2662 61.4763 70.4058 61.4153 70.7467C60.8723 73.7399 60.3338 76.7352 59.8127 79.7317C59.7636 80.0152 59.6524 80.0823 59.3919 80.078C58.7203 80.0661 58.0476 80.0737 57.3761 80.0737H57.3739Z" fill="#053D58"/>
<path d="M91.1178 79.3259C91.2835 79.92 91.5179 80.4264 91.7937 80.9112C91.9223 81.1374 91.8994 81.2413 91.6618 81.37C88.2342 83.2118 84.8186 85.0753 81.3855 86.9084C78.9435 88.2124 76.4818 89.4839 74.0212 90.7543C73.8261 90.855 73.5274 91.1677 73.3737 90.8853C73.2167 90.5953 73.6637 90.5195 73.8435 90.4146C76.254 89.0143 78.5816 87.483 80.9386 85.9994C83.5267 84.3708 86.1475 82.792 88.655 81.0378C89.4541 80.4783 90.2565 79.9243 91.1167 79.3269L91.1178 79.3259Z" fill="#C62326"/>
<path d="M59.1367 69.4947C58.451 69.5022 57.7674 69.42 57.2452 68.8551C56.8299 68.406 56.8288 67.9093 57.2496 67.4797C58.1872 66.5253 60.5616 66.3197 61.6333 67.0988C62.2798 67.5695 62.2678 68.3476 61.6137 68.8064C60.8789 69.3215 60.0579 69.5347 59.1378 69.4947H59.1367Z" fill="#053D58"/>
</g>
<defs>
<clipPath id="clip0_2689_379">
<rect width="118" height="42" fill="white" transform="translate(11 49)"/>
</clipPath>
</defs>
</svg>
