<svg width="140" height="140" viewBox="0 0 140 140" fill="none" xmlns="http://www.w3.org/2000/svg">
<rect width="140" height="140" rx="30" fill="#469D3E"/>
<g clip-path="url(#clip0_746_2982)">
<path d="M40.3181 69.7182C42.8058 69.7182 45.2949 69.74 47.7812 69.7036C48.4706 69.6935 48.6448 69.9638 48.6535 70.5916C48.729 75.9511 50.3792 80.8195 53.4605 85.1617C57.1268 90.3295 62.0645 93.8085 68.1604 95.4957C73.3608 96.9359 78.58 96.7513 83.6817 94.958C88.0388 93.4263 91.798 90.9325 94.8634 87.4491C95.3249 86.9245 95.6094 86.9739 96.0883 87.3823C99.2669 90.0955 102.464 92.7854 105.656 95.4812C106.321 96.0421 106.98 96.6104 107.66 97.1495C108.033 97.446 108.026 97.6727 107.716 98.0331C103.752 102.627 99.026 106.215 93.5716 108.842C89.586 110.762 85.3929 112.019 81.0155 112.612C77.2999 113.115 73.5741 113.11 69.8455 112.683C63.6872 111.98 57.9817 109.963 52.7073 106.732C46.9074 103.18 42.1846 98.517 38.572 92.7331C35.5531 87.9011 33.5603 82.668 32.6329 77.0541C32.2758 74.8931 32.2192 72.6842 32.0102 70.4971C31.9463 69.8315 32.2555 69.6775 32.8564 69.6833C35.3441 69.7051 37.8318 69.692 40.3195 69.692C40.3195 69.6993 40.3195 69.7065 40.3195 69.7138L40.3181 69.7182Z" fill="white"/>
<path d="M53.6739 55.7017C47.102 55.9022 41.2818 50.4409 41.321 43.2823C41.3587 36.5116 46.9133 30.828 54.0426 31.0402C60.5362 31.2335 66.0588 36.3866 66.0094 43.5904C65.963 50.2709 60.4026 55.8702 53.6739 55.7002V55.7017Z" fill="white"/>
<path d="M108 42.1996C107.861 42.3507 107.749 42.5004 107.611 42.6181C104.605 45.1584 101.593 47.6929 98.5876 50.2317C97.7399 50.9481 96.8938 51.6675 96.0665 52.4072C95.6049 52.8213 95.2697 52.8489 94.8241 52.3316C91.6397 48.6375 87.6643 46.1321 83.0648 44.5945C81.1634 43.9595 81.1692 43.9813 81.6627 41.986C82.7527 37.5841 83.8297 33.1793 84.9095 28.776C85.1287 27.8852 85.1214 27.8997 86.0039 28.1366C91.3523 29.571 96.2566 31.9368 100.707 35.2342C103.254 37.122 105.596 39.2394 107.623 41.6939C107.743 41.8407 107.85 41.9991 107.998 42.1982L108 42.1996Z" fill="white"/>
</g>
<defs>
<clipPath id="clip0_746_2982">
<rect width="76" height="85" fill="white" transform="translate(32 28)"/>
</clipPath>
</defs>
</svg>
