<svg width="140" height="140" viewBox="0 0 140 140" fill="none" xmlns="http://www.w3.org/2000/svg">
<rect width="140" height="140" rx="30" fill="white"/>
<path d="M91.8795 100.386C91.5529 100.386 91.2263 100.388 90.8996 100.386C90.4262 100.384 90.2605 100.261 90.1091 99.8051C89.7073 98.5977 89.2975 97.393 88.9121 96.1801C88.8525 95.993 88.7775 95.9567 88.6111 95.9573C86.5275 95.9608 84.4439 95.9608 82.3603 95.9573C82.1845 95.9573 82.0925 95.9861 82.033 96.1931C81.6787 97.4252 81.1748 98.608 80.834 99.8456C80.7481 100.156 80.4627 100.374 80.1435 100.375C79.4564 100.377 78.7693 100.373 78.0823 100.376C77.5487 100.379 77.2558 99.9182 77.4351 99.4344C78.016 97.8617 78.6145 96.2952 79.1616 94.7095C79.4003 94.0187 79.7215 93.3533 79.9163 92.6516C80.038 92.2117 80.2531 91.8218 80.3985 91.3976C80.8191 90.1689 81.2688 88.9505 81.7341 87.7383C82.1243 86.722 82.4469 85.6804 82.8669 84.6751C83.09 84.1406 83.2679 83.5869 83.4545 83.0373C83.5594 82.729 83.8055 82.6255 84.076 82.6207C85.033 82.6042 85.9906 82.607 86.9482 82.6159C87.523 82.6214 87.6731 83.0805 87.805 83.5156C88.1086 84.5189 88.5137 85.4844 88.8539 86.4739C89.0987 87.1859 89.3841 87.8931 89.6411 88.6044C89.9833 89.5508 90.3424 90.4917 90.6737 91.4428C90.9314 92.1822 91.2276 92.9161 91.5035 93.6521C92.0973 95.2316 92.6376 96.8317 93.2253 98.414C93.3673 98.7971 93.5229 99.176 93.648 99.5653C93.7744 99.9593 93.508 100.361 93.0941 100.379C92.6897 100.397 92.2833 100.383 91.8782 100.383V100.387L91.8795 100.386ZM87.9795 93.1957C87.1598 90.6342 86.351 88.1083 85.5429 85.5824C85.5165 85.5776 85.4901 85.5728 85.4637 85.5687C84.6211 88.1035 83.7778 90.639 82.9277 93.1957H87.9795Z" fill="black"/>
<path d="M113.174 88.8039C113.981 87.8973 114.885 87.2504 116.078 87.0414C116.725 86.9283 117.341 86.9509 117.99 87.029C119.017 87.1531 119.883 87.5526 120.684 88.194C121.574 88.906 122.15 89.8276 122.513 90.8816C122.759 91.597 122.908 92.3426 122.971 93.1121C123.074 94.3771 122.902 95.5935 122.483 96.7721C121.925 98.3393 120.926 99.5351 119.395 100.203C118.131 100.754 116.801 100.867 115.496 100.424C114.596 100.118 113.796 99.5797 113.214 98.767C113.134 98.8684 113.178 98.9849 113.177 99.0904C113.174 100.674 113.176 102.258 113.174 103.841C113.174 104.472 112.959 104.687 112.334 104.688C111.828 104.689 111.321 104.693 110.814 104.687C110.268 104.681 110.051 104.451 110.051 103.903C110.051 98.5943 110.051 93.2855 110.051 87.9767C110.051 87.4429 110.274 87.201 110.791 87.1949C111.343 87.1887 111.895 87.1894 112.447 87.1949C112.916 87.1997 113.161 87.4463 113.173 87.9253C113.18 88.2084 113.174 88.4921 113.174 88.8025V88.8039ZM113.189 93.4829C113.174 94.2373 113.211 94.9863 113.497 95.7004C113.919 96.7516 114.588 97.5362 115.719 97.8309C116.111 97.933 116.497 97.9083 116.899 97.8686C117.643 97.7952 118.256 97.4917 118.738 96.9345C119.448 96.1129 119.659 95.1001 119.706 94.0503C119.743 93.2348 119.641 92.433 119.324 91.6655C119.091 91.0995 118.785 90.5602 118.279 90.2505C117.51 89.7797 116.651 89.5487 115.737 89.79C115.168 89.94 114.648 90.1943 114.243 90.6417C113.517 91.4442 113.215 92.4111 113.189 93.4829Z" fill="black"/>
<path d="M98.2926 98.8018C98.2926 100.494 98.2926 102.169 98.2926 103.843C98.2926 104.484 98.089 104.688 97.4533 104.688C96.89 104.688 96.3273 104.691 95.764 104.681C95.3772 104.675 95.1831 104.478 95.179 104.086C95.1716 103.254 95.1743 102.423 95.1743 101.591C95.1743 97.0791 95.1743 92.5673 95.1743 88.0555C95.1743 87.3915 95.3725 87.1948 96.0386 87.1941C96.5113 87.1941 96.9847 87.1921 97.4574 87.1941C98.062 87.1968 98.2899 87.4257 98.2926 88.0247C98.2933 88.2741 98.2926 88.5235 98.2926 88.8422C98.4292 88.7092 98.5462 88.6256 98.6253 88.5139C99.1298 87.7992 99.8724 87.4723 100.653 87.1831C101.925 86.7117 103.178 86.907 104.39 87.3428C105.635 87.7903 106.513 88.6914 107.156 89.8721C107.658 90.7911 107.939 91.7648 108.06 92.7797C108.14 93.4465 108.101 94.1317 108.036 94.8136C107.964 95.5557 107.808 96.2705 107.535 96.9496C106.758 98.88 105.386 100.156 103.344 100.577C102.281 100.797 101.199 100.734 100.192 100.277C99.7567 100.079 99.3679 99.7653 98.9824 99.472C98.7349 99.2836 98.5306 99.0362 98.2939 98.8018H98.2926ZM98.273 93.7459C98.3338 94.0029 98.2595 94.2702 98.3271 94.5456C98.392 94.8122 98.4191 95.0932 98.4928 95.3604C98.9046 96.8632 100.246 98.1508 102.048 97.8788C103.317 97.6869 104.249 96.7131 104.571 95.5968C104.864 94.5799 104.913 93.5486 104.708 92.5138C104.453 91.2228 103.694 89.9324 102.076 89.7502C101.05 89.635 100.133 89.8406 99.4111 90.6061C98.5915 91.4743 98.2926 92.5577 98.2743 93.7466L98.273 93.7459Z" fill="black"/>
<path d="M16.0322 91.538C15.9666 90.0634 16.2114 88.7202 16.7261 87.458C17.1237 86.4835 17.6377 85.5392 18.3965 84.782C19.3006 83.8802 20.3441 83.1593 21.5513 82.7653C22.9437 82.3109 24.3794 82.1883 25.8503 82.3904C27.7026 82.6447 29.2459 83.4731 30.5599 84.782C30.8121 85.0335 31.0346 85.3186 31.2483 85.605C31.5466 86.0059 31.4688 86.452 31.0617 86.7014C30.5863 86.9934 30.0933 87.2558 29.6212 87.5532C29.2506 87.7869 28.9869 87.6683 28.7387 87.3415C27.9535 86.3095 26.9472 85.6221 25.6941 85.3494C24.8657 85.1692 24.044 85.2541 23.2061 85.457C21.5459 85.8579 20.5781 86.9625 19.9445 88.4674C19.4413 89.6611 19.3426 90.9213 19.4136 92.1932C19.5069 93.8618 20.1054 95.3351 21.2997 96.5076C21.9144 97.1113 22.6928 97.4814 23.5375 97.6424C24.4511 97.8171 25.381 97.8028 26.2601 97.491C27.2549 97.1387 28.0942 96.5309 28.7211 95.6496C29.0511 95.1857 29.2499 95.1254 29.7571 95.3776C30.2718 95.6332 30.7675 95.9272 31.2409 96.2568C31.5317 96.4596 31.6196 96.8454 31.4228 97.1408C31.0468 97.7061 30.6059 98.2112 30.0912 98.6607C29.7274 98.9787 29.3764 99.3145 28.9558 99.542C28.2004 99.9511 27.4477 100.359 26.5848 100.537C25.8267 100.693 25.0726 100.714 24.3078 100.714C23.0627 100.714 21.8759 100.437 20.7675 99.8921C19.7477 99.3912 18.8279 98.7333 18.1084 97.8144C17.3821 96.8866 16.7917 95.8778 16.4664 94.7506C16.158 93.6816 15.9301 92.5796 16.0336 91.538H16.0322Z" fill="black"/>
<path d="M61.5866 88.8422C62.8485 87.3469 64.3749 86.7144 66.2251 86.9899C68.1755 87.2805 69.2467 88.3954 69.6971 90.2826C69.8418 90.8891 69.8783 91.5045 69.8804 92.1205C69.8898 94.5703 69.8844 97.0202 69.8844 99.4707C69.8844 100.157 69.6701 100.375 68.9972 100.375C68.5238 100.375 68.0504 100.359 67.5783 100.379C66.9704 100.405 66.7499 100.124 66.7519 99.5255C66.7607 97.2353 66.7547 94.9445 66.756 92.6543C66.756 92.1301 66.6796 91.61 66.5477 91.1125C66.2495 89.9928 65.0775 89.7036 64.1828 89.8036C63.6404 89.8646 63.1427 90.0209 62.7058 90.3738C62.1438 90.8274 61.7881 91.3962 61.6508 92.1095C61.5846 92.4542 61.5879 92.8024 61.5873 93.1505C61.5859 95.27 61.5873 97.3895 61.5866 99.5091C61.5866 100.146 61.358 100.378 60.7298 100.379C60.2226 100.379 59.716 100.383 59.2088 100.377C58.6468 100.37 58.3865 100.047 58.467 99.4769C58.4798 99.3878 58.4683 99.2946 58.4683 99.2034C58.4683 93.9385 58.4683 88.6743 58.4683 83.4094C58.4683 82.8118 58.6732 82.6042 59.2629 82.6028C59.7363 82.6022 60.209 82.6028 60.6824 82.6028C61.3776 82.6028 61.5859 82.8098 61.5859 83.4985C61.5859 85.1507 61.5859 86.8028 61.5859 88.4557V88.8422H61.5866Z" fill="black"/>
<path d="M43.8039 95.3989C43.8039 96.766 43.8039 98.1331 43.8039 99.5009C43.8039 100.138 43.5679 100.373 42.9329 100.375C42.4825 100.375 42.0321 100.376 41.5817 100.375C41.0691 100.373 40.7817 100.076 40.7614 99.5441C40.7567 99.4173 40.8378 99.2254 40.7066 99.1774C40.5849 99.1329 40.5031 99.322 40.4118 99.4139C39.6023 100.232 38.6339 100.657 37.4835 100.662C36.741 100.664 35.9971 100.685 35.2863 100.421C33.8486 99.8867 32.9004 98.9403 32.6475 97.3416C32.4 95.7744 32.847 94.5012 34.1123 93.5713C34.4139 93.3499 34.7886 93.1923 35.1612 93.0573C35.9207 92.7812 36.7159 92.7318 37.4937 92.5735C38.2389 92.4214 39.0099 92.3953 39.7308 92.1123C40.3218 91.88 40.8737 91.2969 40.5179 90.5116C40.2806 89.9873 39.8559 89.8235 39.3777 89.7283C39.0457 89.6618 38.692 89.583 38.3688 89.6084C38.0184 89.6365 37.6621 89.6186 37.3117 89.6837C36.463 89.8407 35.6454 90.0696 34.8657 90.4643C34.3443 90.7281 34.0379 90.5136 33.737 89.7975C33.6342 89.5535 33.5402 89.3062 33.4333 89.0643C33.2298 88.6051 33.3786 88.3214 33.8181 88.0837C34.4011 87.7677 35.0273 87.5807 35.6414 87.3621C36.2561 87.1428 36.9033 87.042 37.5538 86.9913C38.1693 86.9434 38.784 86.8906 39.4021 86.9838C40.428 87.138 41.4553 87.275 42.3148 87.9459C42.8822 88.3893 43.3055 88.9334 43.5341 89.6289C43.7201 90.1943 43.7891 90.7809 43.7985 91.3674C43.8202 92.7113 43.8053 94.0564 43.8053 95.4009L43.8039 95.3989ZM40.6491 93.9262C40.5592 93.9516 40.4909 93.9578 40.4361 93.9872C39.91 94.275 39.3345 94.3929 38.7563 94.5101C38.0786 94.6471 37.3875 94.7143 36.7342 94.9692C36.1513 95.1974 35.7651 95.5907 35.7022 96.226C35.6299 96.951 35.8415 97.5623 36.5246 97.9296C37.2712 98.3311 38.0441 98.251 38.8049 98.0207C39.6895 97.7521 40.2873 97.1874 40.5206 96.2383C40.708 95.4756 40.6045 94.7129 40.6491 93.9262Z" fill="black"/>
<path d="M50.7145 100.661C49.431 100.723 48.2367 100.408 47.0715 99.8592C46.5994 99.6365 46.2376 99.2966 45.8203 99.0212C45.4876 98.8012 45.3429 98.4154 45.7216 97.9885C46.0185 97.6534 46.2951 97.2998 46.5812 96.9551C46.7577 96.7427 47.2209 96.7625 47.5259 96.9989C48.0203 97.3827 48.5748 97.65 49.1584 97.8576C49.9199 98.129 50.6942 98.155 51.501 98.0961C51.921 98.0652 52.3085 98.0166 52.6872 97.8548C53.4548 97.5266 53.7341 96.8365 53.4358 96.1218C53.2587 95.6983 52.8015 95.5709 52.3768 95.4592C51.2921 95.1734 50.1749 95.05 49.0894 94.7746C48.1914 94.5471 47.3365 94.1852 46.6413 93.5582C46.1551 93.1197 45.8318 92.5385 45.7108 91.8725C45.5566 91.0234 45.5816 90.1936 45.9644 89.3945C46.4452 88.3913 47.2243 87.7492 48.3104 87.3655C49.2098 87.0482 50.1296 86.9413 51.0669 86.9242C51.756 86.9118 52.4458 87.0139 53.0916 87.2229C54.0026 87.5183 54.9128 87.8479 55.6757 88.4804C55.9901 88.7415 56.1091 89.0142 55.9015 89.3637C55.6256 89.8283 55.3023 90.2607 54.8404 90.5677C54.6159 90.7171 54.4198 90.7055 54.2061 90.5581C53.6921 90.2038 53.1572 89.8872 52.554 89.7111C51.5747 89.4247 50.5867 89.3383 49.5865 89.5926C48.8791 89.7721 48.5755 90.1682 48.6073 90.8596C48.6242 91.2317 48.8697 91.4407 49.151 91.6066C49.6622 91.9074 50.2371 92.0136 50.8099 92.1109C51.9656 92.3069 53.12 92.5173 54.2163 92.949C55.1157 93.3033 55.865 93.8488 56.2809 94.7787C56.4108 95.0686 56.4939 95.379 56.5034 95.6764C56.523 96.3219 56.5426 96.9647 56.3452 97.6102C56.0672 98.5182 55.5269 99.1918 54.7661 99.6941C53.8477 100.301 52.8238 100.608 51.7282 100.658C51.3915 100.674 51.0533 100.661 50.7152 100.661H50.7145Z" fill="black"/>
<path d="M80.7964 70.8722C74.244 71.0814 67.69 70.9684 61.1375 70.9783C60.3263 70.9798 59.512 70.976 58.7038 70.918C57.6876 70.8454 56.6562 70.7317 55.7086 70.3652C54.5439 69.9146 53.4219 69.329 52.5535 68.3921C51.7971 67.5758 51.1694 66.6641 50.768 65.6119C50.6476 65.295 50.3521 64.9422 50.4206 64.6803C50.528 64.2665 50.2393 64.0183 50.2089 63.6724C50.1365 62.8714 50.151 62.0643 50.0268 61.2664C49.9674 60.8831 50.0253 60.4822 50.0253 60.089C50.0253 54.5156 50.0207 48.9415 50.0253 43.3682C50.0253 42.4671 50.0672 41.5669 50.0839 40.6659C50.0976 39.9237 50.2127 39.1983 50.4473 38.4958C50.4991 38.3408 50.4998 38.182 50.5402 38.0262C50.8579 36.78 51.5312 35.74 52.3623 34.7894C52.811 34.2755 53.3427 33.854 53.9063 33.4684C54.5622 33.0202 55.298 32.7674 56.043 32.5208C56.385 32.4078 56.7438 32.3452 57.0851 32.262C57.4469 32.1741 57.859 32.1764 58.2505 32.1467C59.7268 32.0329 61.2068 31.9985 62.6876 32C67.7372 32.0062 72.786 32.0016 77.8356 32.0184C78.5904 32.0207 79.3476 32.0459 80.1048 32.1161C80.5085 32.1535 80.9716 32.1085 81.3456 32.1879C81.872 32.2994 82.4106 32.4025 82.9369 32.5368C83.9165 32.7873 84.7521 33.305 85.568 33.8754C86.4379 34.4832 87.0686 35.3163 87.6597 36.1661C87.9964 36.6502 88.2523 37.2252 88.4031 37.7964C88.5761 38.4523 88.6736 39.1349 88.7711 39.813C88.9981 41.3798 89.0072 42.9551 88.976 44.5288C88.9615 45.2527 89.0163 45.9735 88.995 46.6966C88.9729 47.4449 88.9904 48.1947 88.9904 48.9438V53.4764C88.9904 54.2384 88.9904 54.9997 88.9904 55.7618C88.9904 56.5108 88.9904 57.2599 88.9897 58.009C88.9882 58.771 89.0019 59.5331 88.9752 60.2944C88.9394 61.3359 88.9188 62.3766 88.7056 63.409C88.6065 63.89 88.5776 64.3925 88.4702 64.8796C88.3194 65.563 87.9948 66.1701 87.6498 66.7618C87.1706 67.5857 86.5224 68.2546 85.7995 68.8915C84.9319 69.6558 83.9432 70.1483 82.8851 70.4866C82.2232 70.6981 81.5155 70.8653 80.7964 70.8714V70.8722ZM67.1095 64.3482C67.5788 64.3482 68.0488 64.3573 68.518 64.3451C68.9392 64.3344 69.2927 64.0626 69.3376 63.7037C69.41 63.1219 69.5844 62.5637 69.7063 61.9941C69.7444 61.8162 69.8053 61.7917 69.9699 61.7757C70.7765 61.6963 71.571 61.5565 72.3541 61.3313C73.6955 60.9465 74.8511 60.2592 75.7933 59.2376C76.7752 58.1731 77.1538 56.8514 77.1881 55.4449C77.2285 53.8108 76.5566 52.4837 75.2586 51.4789C73.6879 50.2625 71.7927 49.7578 69.9851 49.0599C69.2919 48.7918 68.5827 48.5467 68 48.0649C67.5102 47.6595 67.1827 47.1494 67.3213 46.4813C67.466 45.7803 67.9413 45.3474 68.5919 45.0984C69.5882 44.7166 70.6219 44.7128 71.651 44.877C73.1273 45.1122 74.474 45.6681 75.6349 46.637C76.1331 47.0524 76.4484 47.0265 76.9146 46.5645C77.3564 46.127 77.7967 45.6871 78.2309 45.242C78.6361 44.8274 78.611 44.3295 78.1692 43.9599C77.975 43.7973 77.7731 43.6423 77.5697 43.4911C76.5985 42.7672 75.5267 42.235 74.3887 41.8334C74.2813 41.7952 74.1952 41.7815 74.2249 41.644C74.346 41.0805 74.4626 40.5162 74.5898 39.9535C74.8137 38.9608 74.5875 38.6057 73.5188 38.6149C72.7068 38.6218 71.8948 38.6126 71.0828 38.618C70.6211 38.621 70.3561 38.8302 70.2517 39.2838C70.1275 39.8221 70.0026 40.3627 69.9181 40.9079C69.8724 41.2019 69.7162 41.2767 69.4648 41.2859C68.4601 41.3225 67.4912 41.5318 66.5519 41.8891C64.3795 42.7161 62.5665 44.5754 62.7212 47.5526C62.7768 48.6246 63.131 49.5699 63.7975 50.3999C64.4876 51.2597 65.3964 51.8355 66.3706 52.315C67.9703 53.103 69.7208 53.5184 71.3151 54.3178C71.7645 54.5431 72.1675 54.8546 72.316 55.38C72.594 56.3665 72.1035 57.2927 71.1734 57.7348C69.787 58.3946 68.3435 58.3251 66.9092 57.9975C65.6028 57.699 64.4633 57.04 63.4692 56.1321C63.0121 55.7144 62.6442 55.7282 62.2047 56.1481C61.7012 56.6292 61.2023 57.1141 60.7003 57.5959C60.3567 57.9257 60.3103 58.4419 60.7353 58.813C61.2716 59.2811 61.8269 59.7217 62.4378 60.089C63.2369 60.57 64.0748 60.9625 64.9767 61.2145C65.1321 61.258 65.3499 61.2618 65.3027 61.5611C65.212 62.1315 64.9873 62.6668 64.9538 63.2601C64.9378 63.5403 64.8655 63.7816 65.0429 64.0198C65.2456 64.2917 65.5365 64.3505 65.8549 64.3467C66.2739 64.3413 66.6921 64.3451 67.1111 64.3451L67.1095 64.3482Z" fill="#00D54B"/>
</svg>
