<svg width="140" height="140" viewBox="0 0 140 140" fill="none" xmlns="http://www.w3.org/2000/svg">
<rect width="140" height="140" rx="30" fill="white"/>
<g clip-path="url(#clip0_1570_2817)">
<path d="M55.468 82.358V82.8449H53.7722V82.358H55.468ZM54.2271 81.6113H54.8314V84.5593C54.8314 84.6771 54.8489 84.7658 54.8839 84.8253C54.9188 84.8833 54.964 84.9233 55.0193 84.9449C55.0758 84.9653 55.1371 84.9753 55.2033 84.9753C55.2518 84.9753 55.294 84.972 55.3306 84.9653C55.3669 84.9584 55.3952 84.9531 55.4153 84.9489L55.5245 85.4502C55.4895 85.4638 55.4397 85.4771 55.3751 85.4907C55.3104 85.5056 55.2294 85.5138 55.1324 85.5151C54.9735 85.5178 54.8252 85.4893 54.6877 85.4298C54.5505 85.3705 54.4392 85.2784 54.3544 85.154C54.2694 85.0296 54.2271 84.8733 54.2271 84.6853V81.6113ZM56.8074 83.624V85.4745H56.2031V81.3191H56.7993V82.8653H56.8378C56.9106 82.6976 57.0217 82.5642 57.1711 82.4656C57.3208 82.3669 57.5162 82.3173 57.7573 82.3173C57.9702 82.3173 58.1562 82.3613 58.3151 82.4493C58.4754 82.5371 58.5993 82.6685 58.687 82.8429C58.776 83.016 58.8205 83.2325 58.8205 83.4922V85.4745H58.2162V83.5653C58.2162 83.3367 58.1575 83.1593 58.0402 83.0336C57.9231 82.9065 57.7599 82.8429 57.5512 82.8429C57.4084 82.8429 57.2803 82.8733 57.1671 82.9342C57.0554 82.9951 56.967 83.0845 56.9024 83.202C56.8391 83.3185 56.8074 83.4591 56.8074 83.624ZM60.9647 85.5373C60.6588 85.5373 60.3954 85.4718 60.1745 85.3407C59.9549 85.208 59.7851 85.022 59.6651 84.7827C59.5467 84.5418 59.4874 84.2598 59.4874 83.9365C59.4874 83.6173 59.5467 83.336 59.6651 83.0925C59.7851 82.8491 59.9522 82.6589 60.1665 82.5225C60.3821 82.3858 60.634 82.3173 60.9222 82.3173C61.0975 82.3173 61.2673 82.3465 61.4316 82.4047C61.596 82.4629 61.7435 82.5542 61.8743 82.6787C62.0049 82.8031 62.108 82.9647 62.1835 83.1636C62.259 83.3609 62.2966 83.6011 62.2966 83.8838V84.0989H59.8289V83.6444H61.7045C61.7045 83.4847 61.6722 83.3433 61.6075 83.2202C61.5427 83.0958 61.4519 82.9978 61.3346 82.926C61.2186 82.8545 61.0827 82.8187 60.9264 82.8187C60.7567 82.8187 60.6083 82.8605 60.4817 82.9445C60.3564 83.0269 60.2595 83.1351 60.1906 83.2691C60.1234 83.4016 60.0897 83.5456 60.0897 83.7011V84.0562C60.0897 84.2645 60.126 84.4418 60.1988 84.5878C60.2728 84.734 60.3759 84.8456 60.5081 84.9227C60.64 84.9984 60.7943 85.0362 60.9707 85.0362C61.0854 85.0362 61.1898 85.02 61.2841 84.9876C61.3784 84.9538 61.4599 84.9038 61.5285 84.8373C61.5974 84.7711 61.6498 84.6893 61.6863 84.592L62.2583 84.6953C62.2125 84.8645 62.1302 85.0127 62.0117 85.1398C61.8944 85.2656 61.747 85.3636 61.569 85.434C61.3926 85.5029 61.1912 85.5373 60.9647 85.5373ZM64.5219 85.4745V81.3191H65.1262V82.8631H65.1625C65.1975 82.7982 65.248 82.7231 65.3141 82.638C65.3801 82.5527 65.4717 82.4785 65.5888 82.4149C65.7062 82.3498 65.8611 82.3173 66.0537 82.3173C66.3045 82.3173 66.5281 82.3809 66.7248 82.5082C66.9214 82.6353 67.0757 82.8187 67.1877 83.058C67.3008 83.2973 67.3575 83.5856 67.3575 83.9222C67.3575 84.2591 67.3015 84.548 67.1897 84.7887C67.0779 85.0282 66.9243 85.2127 66.7288 85.3427C66.5334 85.4711 66.3105 85.5353 66.0599 85.5353C65.8713 85.5353 65.717 85.5036 65.597 85.44C65.4784 85.3765 65.3854 85.302 65.3181 85.2169C65.2508 85.1316 65.1988 85.0558 65.1625 84.9896H65.112V85.4745H64.5219ZM65.114 83.9162C65.114 84.1353 65.1457 84.3276 65.209 84.4925C65.2723 84.6576 65.3639 84.7867 65.4839 84.88C65.6037 84.972 65.7507 85.018 65.9244 85.018C66.105 85.018 66.2558 84.97 66.3771 84.874C66.4984 84.7765 66.59 84.6447 66.652 84.4782C66.7153 84.312 66.747 84.1245 66.747 83.9162C66.747 83.7107 66.716 83.526 66.654 83.3625C66.5934 83.1987 66.5017 83.0696 66.3791 82.9749C66.258 82.8802 66.1064 82.8327 65.9244 82.8327C65.7493 82.8327 65.601 82.878 65.4797 82.9687C65.36 83.0593 65.269 83.1858 65.207 83.3482C65.145 83.5105 65.114 83.6998 65.114 83.9162ZM69.3738 85.5373C69.0681 85.5373 68.8047 85.4718 68.5836 85.3407C68.364 85.208 68.1942 85.022 68.0744 84.7827C67.9558 84.5418 67.8965 84.2598 67.8965 83.9365C67.8965 83.6173 67.9558 83.336 68.0744 83.0925C68.1942 82.8491 68.3613 82.6589 68.5756 82.5225C68.7912 82.3858 69.0431 82.3173 69.3315 82.3173C69.5066 82.3173 69.6764 82.3465 69.8409 82.4047C70.0051 82.4629 70.1528 82.5542 70.2834 82.6787C70.4142 82.8031 70.5171 82.9647 70.5926 83.1636C70.6681 83.3609 70.7057 83.6011 70.7057 83.8838V84.0989H68.238V83.6444H70.1136C70.1136 83.4847 70.0813 83.3433 70.0166 83.2202C69.952 83.0958 69.861 82.9978 69.7437 82.926C69.6279 82.8545 69.4918 82.8187 69.3355 82.8187C69.1657 82.8187 69.0174 82.8605 68.8908 82.9445C68.7655 83.0269 68.6686 83.1351 68.5997 83.2691C68.5324 83.4016 68.4988 83.5456 68.4988 83.7011V84.0562C68.4988 84.2645 68.5351 84.4418 68.6079 84.5878C68.6821 84.734 68.785 84.8456 68.9171 84.9227C69.0491 84.9984 69.2034 85.0362 69.38 85.0362C69.4944 85.0362 69.5989 85.02 69.6932 84.9876C69.7875 84.9538 69.869 84.9038 69.9378 84.8373C70.0064 84.7711 70.0591 84.6893 70.0954 84.592L70.6674 84.6953C70.6216 84.8645 70.5395 85.0127 70.4208 85.1398C70.3035 85.2656 70.1561 85.3636 69.9781 85.434C69.8017 85.5029 69.6002 85.5373 69.3738 85.5373ZM73.7024 83.1189L73.1548 83.2162C73.132 83.146 73.0954 83.0789 73.0456 83.0153C72.9972 82.9518 72.9312 82.8998 72.8475 82.8591C72.7641 82.8187 72.6596 82.7982 72.5343 82.7982C72.3632 82.7982 72.2204 82.8369 72.1058 82.914C71.9913 82.9898 71.934 83.0878 71.934 83.2082C71.934 83.3122 71.9725 83.3962 72.0493 83.4598C72.1261 83.5233 72.2501 83.5753 72.4212 83.616L72.9144 83.7296C73.1999 83.7958 73.4129 83.898 73.553 84.036C73.6931 84.174 73.7631 84.3531 73.7631 84.5736C73.7631 84.7602 73.7093 84.9267 73.6015 85.0727C73.495 85.2176 73.346 85.3311 73.1548 85.4136C72.9649 85.4962 72.7446 85.5373 72.4938 85.5373C72.1463 85.5373 71.8627 85.4631 71.6431 85.3142C71.4233 85.164 71.2887 84.9511 71.2387 84.6751L71.8229 84.5858C71.8594 84.7387 71.934 84.8542 72.0473 84.9327C72.1604 85.0098 72.3079 85.0485 72.4898 85.0485C72.6879 85.0485 72.8462 85.0071 72.9649 84.9247C73.0833 84.8409 73.1426 84.7387 73.1426 84.6182C73.1426 84.5209 73.1063 84.4391 73.0335 84.3727C72.9622 84.3065 72.8524 84.2565 72.7041 84.2227L72.1786 84.1069C71.8888 84.0407 71.6748 83.9351 71.536 83.7905C71.3985 83.6458 71.3297 83.4624 71.3297 83.2407C71.3297 83.0567 71.3811 82.8958 71.4833 82.7578C71.5858 82.6198 71.7273 82.5122 71.9079 82.4351C72.0883 82.3567 72.2953 82.3173 72.5283 82.3173C72.8637 82.3173 73.1278 82.3905 73.3206 82.5365C73.5131 82.6813 73.6404 82.8753 73.7024 83.1189ZM75.8766 82.358V82.8449H74.181V82.358H75.8766ZM74.6356 81.6113H75.2399V84.5593C75.2399 84.6771 75.2577 84.7658 75.2926 84.8253C75.3276 84.8833 75.3728 84.9233 75.4281 84.9449C75.4845 84.9653 75.5459 84.9753 75.6118 84.9753C75.6605 84.9753 75.7028 84.972 75.7393 84.9653C75.7756 84.9584 75.804 84.9531 75.8241 84.9489L75.9332 85.4502C75.8983 85.4638 75.8485 85.4771 75.7836 85.4907C75.719 85.5056 75.6382 85.5138 75.5412 85.5151C75.3823 85.5178 75.234 85.4893 75.0965 85.4298C74.959 85.3705 74.8479 85.2784 74.7631 85.154C74.6781 85.0296 74.6356 84.8733 74.6356 84.6853V81.6113ZM80.3776 83.1189L79.83 83.2162C79.807 83.146 79.7707 83.0789 79.7206 83.0153C79.6722 82.9518 79.6062 82.8998 79.5227 82.8591C79.4391 82.8187 79.3348 82.7982 79.2093 82.7982C79.0382 82.7982 78.8954 82.8369 78.781 82.914C78.6663 82.9898 78.6092 83.0878 78.6092 83.2082C78.6092 83.3122 78.6475 83.3962 78.7243 83.4598C78.8011 83.5233 78.9251 83.5753 79.0962 83.616L79.5894 83.7296C79.8749 83.7958 80.0879 83.898 80.228 84.036C80.3681 84.174 80.4383 84.3531 80.4383 84.5736C80.4383 84.7602 80.3842 84.9267 80.2764 85.0727C80.17 85.2176 80.0212 85.3311 79.83 85.4136C79.6398 85.4962 79.4196 85.5373 79.169 85.5373C78.8213 85.5373 78.5377 85.4631 78.3181 85.3142C78.0985 85.164 77.9637 84.9511 77.9139 84.6751L78.4981 84.5858C78.5344 84.7387 78.6092 84.8542 78.7223 84.9327C78.8354 85.0098 78.9831 85.0485 79.165 85.0485C79.3629 85.0485 79.5214 85.0071 79.6398 84.9247C79.7585 84.8409 79.8178 84.7387 79.8178 84.6182C79.8178 84.5209 79.7813 84.4391 79.7087 84.3727C79.6372 84.3065 79.5274 84.2565 79.3791 84.2227L78.8538 84.1069C78.564 84.0407 78.3498 83.9351 78.211 83.7905C78.0735 83.6458 78.0049 83.4624 78.0049 83.2407C78.0049 83.0567 78.056 82.8958 78.1585 82.7578C78.2608 82.6198 78.4022 82.5122 78.5829 82.4351C78.7635 82.3567 78.9702 82.3173 79.2033 82.3173C79.5389 82.3173 79.803 82.3905 79.9955 82.5365C80.1883 82.6813 80.3156 82.8753 80.3776 83.1189ZM82.4406 85.5373C82.1347 85.5373 81.8713 85.4718 81.6504 85.3407C81.4308 85.208 81.261 85.022 81.1411 84.7827C81.0224 84.5418 80.9631 84.2598 80.9631 83.9365C80.9631 83.6173 81.0224 83.336 81.1411 83.0925C81.261 82.8491 81.4279 82.6589 81.6422 82.5225C81.8578 82.3858 82.1097 82.3173 82.3981 82.3173C82.5732 82.3173 82.743 82.3465 82.9075 82.4047C83.0717 82.4629 83.2194 82.5542 83.35 82.6787C83.4808 82.8031 83.5837 82.9647 83.6592 83.1636C83.7347 83.3609 83.7725 83.6011 83.7725 83.8838V84.0989H81.3046V83.6444H83.1802C83.1802 83.4847 83.1479 83.3433 83.0832 83.2202C83.0186 83.0958 82.9276 82.9978 82.8105 82.926C82.6945 82.8545 82.5584 82.8187 82.4021 82.8187C82.2323 82.8187 82.0843 82.8605 81.9576 82.9445C81.8321 83.0269 81.7352 83.1351 81.6666 83.2691C81.599 83.4016 81.5654 83.5456 81.5654 83.7011V84.0562C81.5654 84.2645 81.6019 84.4418 81.6745 84.5878C81.7487 84.734 81.8518 84.8456 81.9838 84.9227C82.1159 84.9984 82.2702 85.0362 82.4466 85.0362C82.5611 85.0362 82.6655 85.02 82.7598 84.9876C82.8541 84.9538 82.9358 84.9038 83.0044 84.8373C83.0733 84.7711 83.1257 84.6893 83.162 84.592L83.734 84.6953C83.6882 84.8645 83.6061 85.0127 83.4874 85.1398C83.3703 85.2656 83.2227 85.3636 83.0449 85.434C82.8683 85.5029 82.6669 85.5373 82.4406 85.5373ZM84.443 85.4745V82.358H85.027V82.8531H85.0593C85.1159 82.6853 85.2158 82.5536 85.3585 82.4573C85.5027 82.36 85.6658 82.3113 85.8475 82.3113C85.8854 82.3113 85.9299 82.3127 85.981 82.3153C86.0335 82.318 86.0746 82.3216 86.1043 82.3256V82.9058C86.08 82.8991 86.0368 82.8916 85.9748 82.8836C85.9128 82.874 85.8508 82.8693 85.7889 82.8693C85.6461 82.8693 85.5188 82.8998 85.407 82.9607C85.2966 83.0202 85.2089 83.1033 85.1443 83.2102C85.0796 83.3158 85.0473 83.436 85.0473 83.5713V85.4745H84.443ZM89.3775 82.358L88.2517 85.4745H87.6049L86.4771 82.358H87.1259L87.9121 84.7562H87.9444L88.7287 82.358H89.3775ZM89.9453 85.4745V82.358H90.5496V85.4745H89.9453ZM90.2505 81.8771C90.1454 81.8771 90.0551 81.842 89.9796 81.7716C89.9056 81.7 89.8685 81.6147 89.8685 81.516C89.8685 81.4158 89.9056 81.3307 89.9796 81.2602C90.0551 81.1887 90.1454 81.1529 90.2505 81.1529C90.3557 81.1529 90.4451 81.1887 90.5192 81.2602C90.5947 81.3307 90.6326 81.4158 90.6326 81.516C90.6326 81.6147 90.5947 81.7 90.5192 81.7716C90.4451 81.842 90.3557 81.8771 90.2505 81.8771ZM92.6701 85.5373C92.3698 85.5373 92.111 85.4691 91.8941 85.3325C91.6785 85.1945 91.5129 85.0044 91.3969 84.7622C91.2811 84.5202 91.2231 84.2429 91.2231 83.9305C91.2231 83.614 91.2825 83.3347 91.4009 83.0925C91.5195 82.8491 91.6867 82.6589 91.9023 82.5225C92.1179 82.3858 92.3718 82.3173 92.6642 82.3173C92.8999 82.3173 93.1102 82.3613 93.2948 82.4493C93.4792 82.5358 93.6282 82.6576 93.7413 82.8144C93.856 82.9713 93.9239 83.1547 93.9456 83.3645H93.3575C93.3249 83.2182 93.251 83.0924 93.135 82.9869C93.0206 82.8816 92.8669 82.8287 92.6741 82.8287C92.5059 82.8287 92.3583 82.8733 92.2316 82.9627C92.1064 83.0505 92.0087 83.1765 91.9386 83.34C91.8686 83.5025 91.8334 83.6945 91.8334 83.9162C91.8334 84.1436 91.8677 84.3396 91.9366 84.5047C92.0052 84.6698 92.1024 84.7976 92.2277 84.8882C92.3543 84.9787 92.503 85.024 92.6741 85.024C92.7888 85.024 92.8926 85.0031 92.9856 84.9611C93.0799 84.9178 93.1587 84.8565 93.222 84.7765C93.2866 84.6967 93.3318 84.6007 93.3575 84.4885H93.9456C93.9239 84.69 93.8586 84.8698 93.7495 85.0282C93.6403 85.1865 93.494 85.3109 93.311 85.4016C93.129 85.492 92.9154 85.5373 92.6701 85.5373ZM95.9296 85.5373C95.6239 85.5373 95.3605 85.4718 95.1394 85.3407C94.9198 85.208 94.75 85.022 94.63 84.7827C94.5116 84.5418 94.4523 84.2598 94.4523 83.9365C94.4523 83.6173 94.5116 83.336 94.63 83.0925C94.75 82.8491 94.9171 82.6589 95.1314 82.5225C95.347 82.3858 95.5989 82.3173 95.8873 82.3173C96.0624 82.3173 96.2322 82.3465 96.3964 82.4047C96.5609 82.4629 96.7086 82.5542 96.8392 82.6787C96.9698 82.8031 97.0729 82.9647 97.1484 83.1636C97.2239 83.3609 97.2615 83.6011 97.2615 83.8838V84.0989H94.7938V83.6444H96.6694C96.6694 83.4847 96.6371 83.3433 96.5724 83.2202C96.5078 83.0958 96.4168 82.9978 96.2995 82.926C96.1837 82.8545 96.0476 82.8187 95.8913 82.8187C95.7215 82.8187 95.5732 82.8605 95.4466 82.9445C95.3213 83.0269 95.2244 83.1351 95.1555 83.2691C95.0882 83.4016 95.0546 83.5456 95.0546 83.7011V84.0562C95.0546 84.2645 95.0909 84.4418 95.1637 84.5878C95.2379 84.734 95.3408 84.8456 95.473 84.9227C95.6049 84.9984 95.7592 85.0362 95.9358 85.0362C96.0502 85.0362 96.1547 85.02 96.249 84.9876C96.3433 84.9538 96.4248 84.9038 96.4936 84.8373C96.5622 84.7711 96.6147 84.6893 96.6512 84.592L97.2232 84.6953C97.1774 84.8645 97.095 85.0127 96.9766 85.1398C96.8593 85.2656 96.7119 85.3636 96.5339 85.434C96.3575 85.5029 96.1561 85.5373 95.9296 85.5373ZM100.916 82.358V82.8449H99.1614V82.358H100.916ZM99.6424 85.4745V81.9969C99.6424 81.802 99.6849 81.6405 99.7697 81.512C99.8547 81.382 99.9671 81.2853 100.107 81.2218C100.247 81.1569 100.4 81.1245 100.564 81.1245C100.685 81.1245 100.789 81.1345 100.875 81.1549C100.961 81.1738 101.025 81.1913 101.067 81.2076L100.926 81.6987C100.897 81.6905 100.861 81.6809 100.817 81.6702C100.772 81.658 100.718 81.652 100.655 81.652C100.508 81.652 100.403 81.6885 100.34 81.7616C100.278 81.8345 100.247 81.94 100.247 82.078V85.4745H99.6424ZM102.725 85.5373C102.433 85.5373 102.18 85.4705 101.963 85.3365C101.746 85.2027 101.577 85.0153 101.457 84.7745C101.337 84.5338 101.277 84.2525 101.277 83.9305C101.277 83.6071 101.337 83.3245 101.457 83.0825C101.577 82.8402 101.746 82.6522 101.963 82.5182C102.18 82.3845 102.433 82.3173 102.725 82.3173C103.015 82.3173 103.27 82.3845 103.486 82.5182C103.703 82.6522 103.872 82.8402 103.992 83.0825C104.112 83.3245 104.172 83.6071 104.172 83.9305C104.172 84.2525 104.112 84.5338 103.992 84.7745C103.872 85.0153 103.703 85.2027 103.486 85.3365C103.27 85.4705 103.015 85.5373 102.725 85.5373ZM102.727 85.0282C102.915 85.0282 103.071 84.978 103.195 84.878C103.319 84.7778 103.411 84.6447 103.47 84.4782C103.531 84.312 103.561 84.1287 103.561 83.9284C103.561 83.7296 103.531 83.5469 103.47 83.3807C103.411 83.2129 103.319 83.0782 103.195 82.9769C103.071 82.8753 102.915 82.8247 102.727 82.8247C102.537 82.8247 102.379 82.8753 102.254 82.9769C102.13 83.0782 102.037 83.2129 101.977 83.3807C101.917 83.5469 101.888 83.7296 101.888 83.9284C101.888 84.1287 101.917 84.312 101.977 84.4782C102.037 84.6447 102.13 84.7778 102.254 84.878C102.379 84.978 102.537 85.0282 102.727 85.0282ZM104.846 85.4745V82.358H105.43V82.8531H105.463C105.519 82.6853 105.619 82.5536 105.762 82.4573C105.906 82.36 106.069 82.3113 106.251 82.3113C106.288 82.3113 106.333 82.3127 106.384 82.3153C106.437 82.318 106.478 82.3216 106.508 82.3256V82.9058C106.483 82.8991 106.44 82.8916 106.378 82.8836C106.316 82.874 106.254 82.8693 106.192 82.8693C106.049 82.8693 105.922 82.8998 105.81 82.9607C105.7 83.0202 105.612 83.1033 105.548 83.2102C105.483 83.3158 105.45 83.436 105.45 83.5713V85.4745H104.846ZM109.838 86.7082C109.591 86.7082 109.379 86.6756 109.201 86.6107C109.025 86.5458 108.881 86.46 108.769 86.3531C108.657 86.2462 108.574 86.1291 108.518 86.002L109.038 85.7869C109.074 85.8465 109.123 85.9093 109.183 85.9756C109.245 86.0433 109.329 86.1009 109.434 86.1482C109.54 86.1956 109.677 86.2191 109.844 86.2191C110.073 86.2191 110.263 86.1631 110.412 86.0507C110.562 85.9398 110.636 85.7627 110.636 85.5191V84.9065H110.598C110.562 84.9727 110.509 85.0465 110.44 85.1276C110.373 85.2087 110.28 85.2791 110.161 85.3387C110.043 85.398 109.889 85.4278 109.699 85.4278C109.454 85.4278 109.232 85.3705 109.036 85.2553C108.84 85.1391 108.685 84.968 108.571 84.742C108.458 84.5149 108.401 84.2356 108.401 83.904C108.401 83.5727 108.457 83.2887 108.569 83.052C108.682 82.8151 108.837 82.634 109.034 82.5082C109.23 82.3809 109.454 82.3173 109.703 82.3173C109.895 82.3173 110.051 82.3498 110.17 82.4149C110.288 82.4785 110.38 82.5527 110.447 82.638C110.514 82.7231 110.566 82.7982 110.602 82.8631H110.647V82.358H111.239V85.5436C111.239 85.8113 111.177 86.0311 111.053 86.2029C110.929 86.3747 110.761 86.5018 110.549 86.5845C110.339 86.6669 110.102 86.7082 109.838 86.7082ZM109.832 84.9247C110.006 84.9247 110.153 84.884 110.273 84.8029C110.394 84.7205 110.486 84.6027 110.547 84.4498C110.611 84.2956 110.642 84.1111 110.642 83.896C110.642 83.6862 110.611 83.5016 110.549 83.342C110.487 83.1825 110.397 83.058 110.277 82.9687C110.157 82.878 110.008 82.8327 109.832 82.8327C109.65 82.8327 109.498 82.8802 109.377 82.9749C109.256 83.0682 109.164 83.1953 109.102 83.3562C109.042 83.5171 109.012 83.6971 109.012 83.896C109.012 84.1002 109.042 84.2793 109.104 84.4336C109.166 84.5878 109.258 84.7082 109.379 84.7949C109.502 84.8813 109.653 84.9247 109.832 84.9247ZM112.049 85.4745V82.358H112.633V82.8531H112.666C112.722 82.6853 112.822 82.5536 112.965 82.4573C113.109 82.36 113.272 82.3113 113.454 82.3113C113.492 82.3113 113.536 82.3127 113.587 82.3153C113.64 82.318 113.681 82.3216 113.71 82.3256V82.9058C113.686 82.8991 113.643 82.8916 113.581 82.8836C113.519 82.874 113.457 82.8693 113.395 82.8693C113.252 82.8693 113.125 82.8998 113.013 82.9607C112.903 83.0202 112.815 83.1033 112.75 83.2102C112.686 83.3158 112.653 83.436 112.653 83.5713V85.4745H112.049ZM115.43 85.5373C115.139 85.5373 114.885 85.4705 114.668 85.3365C114.451 85.2027 114.283 85.0153 114.163 84.7745C114.043 84.5338 113.983 84.2525 113.983 83.9305C113.983 83.6071 114.043 83.3245 114.163 83.0825C114.283 82.8402 114.451 82.6522 114.668 82.5182C114.885 82.3845 115.139 82.3173 115.43 82.3173C115.721 82.3173 115.975 82.3845 116.192 82.5182C116.409 82.6522 116.577 82.8402 116.697 83.0825C116.817 83.3245 116.877 83.6071 116.877 83.9305C116.877 84.2525 116.817 84.5338 116.697 84.7745C116.577 85.0153 116.409 85.2027 116.192 85.3365C115.975 85.4705 115.721 85.5373 115.43 85.5373ZM115.432 85.0282C115.621 85.0282 115.777 84.978 115.901 84.878C116.025 84.7778 116.116 84.6447 116.176 84.4782C116.236 84.312 116.267 84.1287 116.267 83.9284C116.267 83.7296 116.236 83.5469 116.176 83.3807C116.116 83.2129 116.025 83.0782 115.901 82.9769C115.777 82.8753 115.621 82.8247 115.432 82.8247C115.242 82.8247 115.084 82.8753 114.959 82.9769C114.835 83.0782 114.743 83.2129 114.682 83.3807C114.623 83.5469 114.593 83.7296 114.593 83.9284C114.593 84.1287 114.623 84.312 114.682 84.4782C114.743 84.6447 114.835 84.7778 114.959 84.878C115.084 84.978 115.242 85.0282 115.432 85.0282ZM118.13 85.4745L117.216 82.358H117.841L118.449 84.6467H118.48L119.09 82.358H119.714L120.321 84.6365H120.351L120.955 82.358H121.58L120.669 85.4745H120.052L119.421 83.2245H119.375L118.745 85.4745H118.13ZM123.603 82.358V82.8449H121.907V82.358H123.603ZM122.362 81.6113H122.966V84.5593C122.966 84.6771 122.983 84.7658 123.018 84.8253C123.054 84.8833 123.099 84.9233 123.154 84.9449C123.211 84.9653 123.272 84.9753 123.338 84.9753C123.386 84.9753 123.429 84.972 123.465 84.9653C123.501 84.9584 123.53 84.9531 123.55 84.9489L123.659 85.4502C123.624 85.4638 123.574 85.4771 123.51 85.4907C123.445 85.5056 123.364 85.5138 123.267 85.5151C123.108 85.5178 122.96 85.4893 122.823 85.4298C122.685 85.3705 122.574 85.2784 122.489 85.154C122.404 85.0296 122.362 84.8733 122.362 84.6853V81.6113ZM124.942 83.624V85.4745H124.338V81.3191H124.934V82.8653H124.972C125.045 82.6976 125.156 82.5642 125.306 82.4656C125.455 82.3669 125.651 82.3173 125.892 82.3173C126.105 82.3173 126.291 82.3613 126.45 82.4493C126.61 82.5371 126.734 82.6685 126.822 82.8429C126.911 83.016 126.955 83.2325 126.955 83.4922V85.4745H126.351V83.5653C126.351 83.3367 126.292 83.1593 126.175 83.0336C126.058 82.9065 125.895 82.8429 125.686 82.8429C125.543 82.8429 125.415 82.8733 125.302 82.9342C125.19 82.9951 125.102 83.0845 125.037 83.202C124.974 83.3185 124.942 83.4591 124.942 83.624Z" fill="#7664FA"/>
<path d="M51.9744 69.9111C51.9744 66.1778 54.7634 63.3555 58.4822 63.3555C60.5187 63.3555 62.1789 64.2 63.2635 65.5333C63.4184 65.7333 63.4184 65.9111 63.2635 66.0666L62.1124 67.1778C61.9132 67.3778 61.6476 67.3333 61.4927 67.1555C60.7622 66.4222 59.921 65.9333 58.615 65.9333C56.2687 65.9333 54.6306 67.6222 54.6306 69.9333C54.6306 72.2444 56.2687 73.9778 58.6593 73.9778C59.9432 73.9778 60.7843 73.4889 61.4927 72.7555C61.6697 72.5778 61.9354 72.5333 62.1346 72.7333L63.2856 73.8444C63.4406 74 63.4406 74.1778 63.2856 74.3778C62.2231 75.7111 60.563 76.5555 58.5486 76.5555C54.7634 76.5111 51.9744 73.6666 51.9744 69.9111Z" fill="#7664FA"/>
<path d="M64.481 69.8666C64.481 66.1778 67.0265 63.3333 70.8339 63.3333C74.5748 63.3333 76.7441 66.1778 76.7441 69.3111C76.7441 70.4222 76.5227 70.9555 75.5709 70.9555H67.1594C67.4914 72.9555 68.9745 74.2889 71.4537 74.2889C72.6711 74.2889 73.6672 73.9778 74.6633 73.3111C74.8183 73.2 74.9732 73.2444 75.0617 73.3778L75.7701 74.3555C75.925 74.5555 75.8808 74.7111 75.6594 74.9111C74.5526 75.9778 72.9589 76.4889 71.188 76.4889C67.1372 76.5111 64.481 73.6222 64.481 69.8666ZM74.3091 68.9555C74.1542 66.9111 72.8039 65.6666 70.8339 65.6666C68.8638 65.6666 67.425 66.8666 67.1372 68.9555H74.3091Z" fill="#7664FA"/>
<path d="M78.5151 75.8222V58.2667C78.5151 58.0445 78.648 57.8889 78.8693 57.8889H80.9058C81.1271 57.8889 81.2599 58.0445 81.2599 58.2667V75.8C81.2599 76.0223 81.1271 76.1778 80.9058 76.1778H78.8693C78.648 76.2 78.5151 76.0445 78.5151 75.8222Z" fill="#7664FA"/>
<path d="M83.0308 69.9111C83.0308 66.1778 85.8198 63.3555 89.5386 63.3555C91.5751 63.3555 93.2353 64.2 94.3199 65.5333C94.4748 65.7333 94.4748 65.9111 94.3199 66.0666L93.1688 67.1778C92.9696 67.3778 92.704 67.3333 92.5491 67.1555C91.8186 66.4222 90.9774 65.9333 89.6714 65.9333C87.3251 65.9333 85.687 67.6222 85.687 69.9333C85.687 72.2444 87.3251 73.9778 89.7157 73.9778C90.9996 73.9778 91.8407 73.4889 92.5491 72.7555C92.7261 72.5778 92.9918 72.5333 93.191 72.7333L94.342 73.8444C94.497 74 94.497 74.1778 94.342 74.3778C93.2795 75.7111 91.6194 76.5555 89.605 76.5555C85.842 76.5111 83.0308 73.6666 83.0308 69.9111Z" fill="#7664FA"/>
<path d="M95.0503 69.9333C95.0503 66.2222 97.7951 63.3555 101.536 63.3555C105.233 63.3555 108 66.2222 108 69.9333C108 73.6444 105.255 76.5111 101.536 76.5111C97.7951 76.5111 95.0503 73.6444 95.0503 69.9333ZM101.536 73.9555C103.683 73.9555 105.343 72.3333 105.343 69.9333C105.343 67.5333 103.683 65.9111 101.536 65.9111C99.3667 65.9111 97.7066 67.5333 97.7066 69.9333C97.7066 72.3333 99.3667 73.9555 101.536 73.9555Z" fill="#7664FA"/>
<path d="M109.549 59.3555C109.549 58.4889 110.236 57.7778 111.165 57.7778C112.051 57.7778 112.737 58.4889 112.737 59.3555C112.737 60.2444 112.051 60.9778 111.165 60.9778C110.236 60.9555 109.549 60.2444 109.549 59.3555ZM109.749 64.0444C109.749 63.8222 109.881 63.6667 110.103 63.6667H112.161C112.383 63.6667 112.515 63.8222 112.515 64.0444V75.8222C112.515 76.0444 112.383 76.2 112.161 76.2H110.103C109.881 76.2 109.749 76.0444 109.749 75.8222V64.0444Z" fill="#7664FA"/>
<path d="M115.437 75.8222V64.0444C115.437 63.8222 115.57 63.6666 115.791 63.6666H117.739C117.961 63.6666 118.094 63.7778 118.094 64.0666L118.204 65.6C118.913 64.3111 120.174 63.3555 122.122 63.3555C124.778 63.3555 126.66 65.2 126.66 68.5111V75.8444C126.66 76.0666 126.505 76.2222 126.284 76.2222H124.269C124.048 76.2222 123.915 76.0666 123.915 75.8444V69C123.915 67.0222 122.941 65.9111 121.193 65.9111C119.422 65.9111 118.204 67.0444 118.204 69V75.8222C118.204 76.0444 118.071 76.2 117.85 76.2H115.814C115.57 76.2 115.437 76.0444 115.437 75.8222Z" fill="#7664FA"/>
<path d="M46.0864 69.9778C46.0864 63.3778 42.1241 57.5334 36.1032 55.0667C35.904 54.2667 35.1736 53.6667 34.3103 53.6667C33.292 53.6667 32.4509 54.5111 32.4509 55.5334C32.4509 56.5556 33.292 57.4 34.3103 57.4C34.598 57.4 34.8637 57.3334 35.1071 57.2C40.309 59.2889 43.74 64.3111 43.74 69.9778C43.74 77.2 38.1397 83.1111 31.0563 83.7111V81C34.6202 80.6 37.7634 78.4889 39.5121 75.3334C40.4418 75.2445 41.1723 74.4445 41.1723 73.4889C41.1723 72.4667 40.3311 71.6222 39.3129 71.6222C38.2947 71.6222 37.4535 72.4667 37.4535 73.4889C37.4535 73.6667 37.4978 73.8445 37.5421 74C36.059 76.8889 33.1149 78.7111 29.8389 78.7111C25.0355 78.7111 21.1396 74.8 21.1396 69.9778C21.1396 65.1556 25.0355 61.2445 29.8389 61.2445C33.1371 61.2445 36.0811 63.1111 37.5642 66.0222C37.4978 66.2222 37.4535 66.4222 37.4535 66.6222C37.4535 67.6445 38.2947 68.4889 39.3129 68.4889C40.3311 68.4889 41.1723 67.6445 41.1723 66.6222C41.1723 65.6889 40.4861 64.9111 39.6007 64.7778C37.8962 61.5334 34.6866 59.3556 31.0785 58.9556V55.1334V55.1111C31.0785 55.0889 31.1006 55.0667 31.1006 55.0222C31.1006 54.3778 30.5694 53.8445 29.9274 53.8445C21.0068 53.8445 13.7463 61.0889 13.7463 69.9778C13.7463 76.5556 17.7086 82.4 23.7295 84.8889C23.9287 85.6889 24.6592 86.2889 25.5225 86.2889C26.5407 86.2889 27.3818 85.4445 27.3818 84.4222C27.3818 83.4 26.5407 82.5556 25.5225 82.5556C25.2347 82.5556 24.9691 82.6222 24.7256 82.7556C19.5237 80.6667 16.0927 75.6445 16.0927 69.9778C16.0927 62.7778 21.6709 56.8445 28.7542 56.2445V58.9334C23.1761 59.4889 18.8154 64.2222 18.8154 69.9778C18.8154 75.7334 23.1761 80.4445 28.7542 81.0222V84.9778C28.7542 85.6222 29.2855 86.1556 29.9274 86.1556C29.9938 86.1556 30.0381 86.1334 30.0824 86.1334C38.9145 86.0445 46.0864 78.8445 46.0864 69.9778Z" fill="#7664FA"/>
</g>
<defs>
<clipPath id="clip0_1570_2817">
<rect width="113" height="46" fill="white" transform="translate(14 47)"/>
</clipPath>
</defs>
</svg>
