<svg width="140" height="140" viewBox="0 0 140 140" fill="none" xmlns="http://www.w3.org/2000/svg">
<g clip-path="url(#clip0_2716_1677)">
<rect width="140" height="140" rx="30" fill="white"/>
<g clip-path="url(#clip1_2716_1677)">
<path d="M66.0559 25.0198V54.5854C65.9264 54.5854 65.6393 54.3034 65.4929 54.3034L63.2436 50.6426V50.3606C62.6693 48.863 61.4475 47.4838 60.7128 46.1357C60.2567 45.3009 59.7697 44.4322 59.308 43.6002C58.9026 42.8725 58.593 42.0744 58.182 41.3467C57.4838 40.1058 56.6027 38.8733 55.9327 37.6859C55.4597 36.8483 55.0065 35.9937 54.5279 35.1504C54.0493 34.3072 51.0822 29.1854 51.1385 28.8301C52.3124 28.2716 53.5848 27.6906 54.8094 27.2648C57.6246 26.2889 61.1266 25.2877 64.0881 25.0113C64.7328 24.9521 65.4084 25.0423 66.0559 25.0113V25.0198Z" fill="#108644"/>
<path d="M75.8976 25.0197C78.5579 25.2679 81.7897 26.1563 84.3346 26.9911C85.5901 27.4029 87.0681 28.0967 88.2701 28.6805C88.4982 28.7905 88.9964 28.4013 88.8332 29.2446C88.4616 29.3941 88.4475 29.8256 88.2701 30.0907C87.4594 31.295 86.9864 32.5782 86.3024 33.7515C84.7794 36.3603 83.2958 39.0397 81.8038 41.6344C80.1288 44.545 78.4087 47.4499 76.7421 50.3633C76.4803 50.8202 75.9764 51.421 75.6161 52.0527C75.2051 52.7776 74.6505 53.4657 74.49 54.3062C74.3436 54.3062 74.0565 54.5882 73.927 54.5882V25.0197C74.5773 25.0508 75.2501 24.9605 75.8948 25.0197H75.8976Z" fill="#8CC642"/>
<path d="M75.6161 87.8119C75.8047 88.1277 76.0327 88.4041 76.1791 88.658C76.9758 90.0286 77.643 91.515 78.4284 92.8828C78.8141 93.5541 79.5348 94.3297 79.8332 94.8543C80.3455 95.7427 80.7227 96.7749 81.2379 97.669C81.8432 98.7153 82.6455 99.7842 83.2057 100.766C83.476 101.237 83.6983 101.843 84.0502 102.455C84.5907 103.403 85.1988 104.328 85.7365 105.27C86.246 106.158 88.6671 110.036 88.7881 110.564C88.8838 110.984 88.5488 111.147 88.5488 111.181C85.8153 112.408 76.4663 115.756 73.927 114.842V85.2764C74.7941 85.8461 75.1206 86.977 75.6133 87.8119H75.6161Z" fill="#108644"/>
<path d="M66.056 114.845C65.7914 115.099 63.7955 114.91 63.2437 114.845C61.8361 114.681 60.4314 114.21 59.0266 113.999C58.7761 113.962 58.4918 113.77 57.9006 113.717L55.0882 112.871L51.1527 111.178C51.0992 111.108 51.5975 109.732 51.7157 109.492C52.3491 108.206 53.4864 106.593 54.2465 105.267C54.4914 104.838 54.6378 104.438 54.8095 104.142C55.3163 103.259 55.9581 102.266 56.4958 101.327C57.3516 99.835 58.1708 98.3035 59.0266 96.8229C59.0942 96.7072 59.2575 96.6311 59.3081 96.5408C60.0626 95.2322 60.8058 93.9066 61.5574 92.598C62.9763 90.133 64.305 87.5044 66.0532 85.2764V114.842L66.056 114.845Z" fill="#8CC642"/>
<path d="M44.402 33.7487C44.9904 34.812 45.5619 35.9232 46.3698 36.8454C46.5359 37.229 46.7639 37.59 46.9328 37.9708C47.5409 39.3555 48.5431 40.4752 49.1821 41.6316C49.5537 42.3028 49.8747 43.1122 50.3082 43.885C50.7417 44.6578 51.0289 45.5208 51.7129 46.1385C53.2697 50.0672 56.6789 53.9706 58.2469 57.7639C58.4214 58.187 58.6269 58.2152 58.1821 58.5282C57.3883 57.6455 55.9835 57.3437 55.0883 56.8389C52.1803 55.1946 49.2666 53.4488 46.3698 51.7707C45.7111 51.3871 44.8975 50.8174 44.1205 50.3633C43.4674 49.9826 42.803 49.616 42.1527 49.238C40.8465 48.4765 39.5206 47.7432 38.2172 46.9846C37.747 46.711 37.2825 46.4177 36.8124 46.1385C35.8722 45.5885 34.9544 44.9849 34.0001 44.4491C33.7383 44.3024 33.4624 44.1868 33.1584 44.1642C32.8543 43.7299 35.7398 40.3624 36.2438 39.7955C38.5043 37.2516 41.2491 34.9107 43.9854 32.9054C44.1261 32.8434 44.2866 33.5344 44.4048 33.7487H44.402Z" fill="#8CC642"/>
<path d="M101.206 37.1303C101.389 37.3052 101.586 37.5111 101.769 37.6944C102.977 38.8987 104.094 40.2891 105.144 41.6372C105.347 41.8967 105.614 42.0772 105.707 42.2013C105.944 42.5172 107.002 43.9386 106.831 44.1671C104.93 44.8919 103.143 46.0031 101.383 47.0325C101.133 47.1792 101.006 47.5035 100.924 47.5487C98.174 49.1534 95.2744 50.7244 92.4874 52.3348C89.6948 53.948 86.8853 55.5838 84.0504 57.1209C83.2031 57.5806 82.4064 58.1391 81.5224 58.5283C81.3141 58.2998 83.1946 55.1128 83.4874 54.5854C83.7802 54.058 84.0504 53.3981 84.3319 52.896C84.7373 52.174 85.5481 51.1897 86.0182 50.3606C86.8008 48.987 87.4793 47.5148 88.2675 46.1357C88.4083 45.8875 88.6419 45.6139 88.8305 45.2896C89.5202 44.0909 90.1142 42.8077 90.7983 41.6288C92.2988 39.0453 93.8021 36.3745 95.2969 33.7459C95.387 33.588 95.9444 32.9111 95.9979 32.9083C97.6926 34.2931 99.6209 35.6186 101.203 37.1247L101.206 37.1303Z" fill="#8CC642"/>
<path d="M57.3374 84.1539C55.8285 86.884 54.1197 89.6028 52.5573 92.3188C50.8851 95.2265 49.1791 98.14 47.4957 101.048C47.0284 101.854 44.4075 106.643 44.1288 106.829C43.8135 107.041 42.4678 106.082 42.1525 105.834C42.054 105.755 41.9752 105.636 41.871 105.552C40.4466 104.398 38.9433 102.92 37.6539 101.609C37.4681 101.42 37.2739 101.234 37.0909 101.045C35.9958 99.9196 35.0894 98.4192 33.9971 97.3841C33.8394 97.2346 33.8056 96.9047 33.4341 96.82C32.7781 95.5819 33.1976 95.8357 33.9971 95.4127C36.7981 93.9236 39.4219 92.2201 42.1525 90.6266C43.3236 89.9412 44.6214 89.3461 45.8094 88.6551C46.1331 88.4662 46.4034 88.2377 46.6539 88.0911C47.9602 87.3352 49.2833 86.5907 50.5895 85.8376C51.3721 85.3892 52.1378 84.8251 52.8388 84.4303C53.5398 84.0354 54.3618 83.7083 55.0881 83.305C56.2564 82.6535 57.3712 81.8807 58.607 81.3392C58.1425 82.1881 57.7906 83.3303 57.3374 84.1482V84.1539Z" fill="#8CC642"/>
<path d="M84.0532 82.7438C86.8739 84.2498 89.7144 85.9279 92.4901 87.5299C93.0138 87.8317 93.5543 88.297 94.1764 88.6552C95.1167 89.1995 96.0513 89.7974 96.9887 90.3446C99.7588 91.9663 102.703 93.447 105.426 95.1307C105.854 95.3958 106.388 95.5199 106.707 95.9712C106.853 96.1996 106.653 96.3519 106.549 96.5381C106.369 96.8652 105.668 97.9144 105.423 98.2274C104.868 98.9382 103.565 100.331 102.892 101.042C102.346 101.62 101.499 102.472 100.924 103.014C100.105 103.784 99.0072 104.274 98.3935 105.267C97.5715 105.417 97.3462 106.147 96.9887 106.392C95.5164 107.405 95.4742 106.229 94.7394 104.985C94.0807 103.871 93.4248 102.726 92.7716 101.606C92.6675 101.426 92.5943 101.223 92.4901 101.042C91.6681 99.6263 90.7757 98.2274 89.9593 96.8173C89.4836 95.9965 89.0331 95.1166 88.5546 94.2818C88.1802 93.6275 87.8057 92.9647 87.4285 92.3104C85.8689 89.5972 84.1461 86.8671 82.6484 84.1455C82.502 83.8804 81.4266 81.7115 81.5252 81.6128C82.3894 81.7933 83.2762 82.3207 84.0532 82.7381V82.7438Z" fill="#8CC642"/>
<path d="M33.7185 53.4601C34.1801 53.728 34.791 54.2272 35.4047 54.5854C36.4041 55.1692 37.3415 55.9928 38.4986 56.2748C39.3262 57.1322 40.5452 57.6229 41.5924 58.2462C42.1273 58.5649 42.7438 58.7736 43.2787 59.0923C44.3372 59.7185 45.4013 60.2205 46.3725 60.7817C46.9327 61.1061 47.7294 61.8281 48.4332 62.237C50.4291 63.3962 52.456 64.5497 54.528 65.5678C54.4435 65.6722 54.3506 65.7653 54.2464 65.8499C53.3006 65.6553 51.4229 65.8696 50.3109 65.8499C49.0018 65.8245 47.6815 65.8583 46.3753 65.8499C44.8805 65.8414 43.3716 65.8555 41.8767 65.8499C40.6606 65.8442 39.436 65.8499 38.2199 65.8499H25.2815C25.2984 65.1448 25.183 64.1831 25.2815 63.3144C25.5714 60.7704 26.6468 56.7261 27.5308 54.3034C27.9671 53.1104 28.761 51.971 29.217 50.9246C30.4163 52.1374 32.3503 52.6676 33.7156 53.4601H33.7185Z" fill="#108644"/>
<path d="M112.452 54.3062C113.28 56.5568 114.389 60.683 114.702 63.0352C114.823 63.949 114.693 64.9389 114.98 65.8499C114.609 65.8696 114.229 65.8301 113.857 65.8499C112.382 65.9317 110.842 65.8442 109.358 65.8499C108.142 65.8555 106.918 65.8442 105.702 65.8499C104.111 65.8555 102.512 65.8471 100.921 65.8499C99.7053 65.8499 98.4807 65.8499 97.2646 65.8499H92.766C91.3641 65.8499 89.9509 65.8414 88.5489 65.8499C87.6227 65.8555 86.2884 65.7117 85.4551 65.8499V65.5678C87.4341 64.0815 90.8067 62.6347 93.0475 61.343C94.2862 60.6294 95.4742 59.7974 96.7044 59.0895C96.8142 59.0275 96.8902 58.8611 96.9859 58.8075C98.4385 57.9698 100.007 57.1209 101.484 56.272C102.312 55.7982 103.179 55.3413 104.015 54.8646C104.378 54.6587 104.778 54.5093 105.141 54.3006C106.49 53.5306 108.489 52.0415 109.64 51.4859C109.972 51.3251 110.715 51.1192 111.048 51.3251C111.188 51.4125 112.312 53.9226 112.449 54.3006L112.452 54.3062Z" fill="#108644"/>
<path d="M25 74.0148H54.5252L52.2759 75.7042C51.5017 75.7803 50.9105 76.5249 50.3081 76.8295C47.2283 78.3835 44.2921 80.1744 41.3109 81.8976C40.2975 82.4843 38.9631 82.975 38.2171 83.8691C38.127 83.8662 38.0256 83.8578 37.9356 83.8691C37.1361 83.9649 34.5912 85.8884 33.7185 86.4045C32.7191 86.994 31.6888 87.3804 30.6246 88.0939C30.2502 88.3449 29.6731 88.3844 29.4986 88.94C28.6597 89.0105 28.8483 88.4465 28.6541 88.0939C28.0657 87.0278 27.3338 85.3018 26.9678 84.1511C26.1992 81.7341 25.5321 78.5189 25.2815 75.9862C25.214 75.3065 25.0084 74.7255 25 74.0148Z" fill="#108644"/>
<path d="M114.983 74.0148C115.07 74.4237 114.747 74.9991 114.702 75.4221C114.552 76.8182 114.426 78.9109 114.139 80.2082C114.085 80.4452 113.716 81.0967 113.576 81.6156C113.274 82.7353 112.739 83.8042 112.731 84.9944C112.007 85.9279 111.647 87.2506 111.326 88.3731C110.865 88.5085 111.47 89.3546 109.64 88.3731C109.544 88.3224 109.465 88.1503 109.358 88.0911C108.162 87.4311 106.878 86.7966 105.702 86.1197C102.861 84.4839 99.8742 82.7268 96.9831 81.0515C96.147 80.5664 95.2743 80.1208 94.4523 79.6442C93.9906 79.3762 93.3825 78.877 92.766 78.5189C91.2824 77.6558 89.7425 76.8492 88.2674 75.9834C88.1914 75.9382 88.1154 75.7775 87.9859 75.7013C87.1582 75.2134 86.0575 74.7734 85.4551 74.0148H114.98H114.983Z" fill="#108644"/>
</g>
</g>
<defs>
<clipPath id="clip0_2716_1677">
<rect width="140" height="140" rx="30" fill="white"/>
</clipPath>
<clipPath id="clip1_2716_1677">
<rect width="90" height="90" fill="white" transform="translate(25 25)"/>
</clipPath>
</defs>
</svg>
