<svg width="140" height="140" viewBox="0 0 140 140" fill="none" xmlns="http://www.w3.org/2000/svg">
<rect width="140" height="140" rx="30" fill="white"/>
<g clip-path="url(#clip0_2716_1868)">
<path d="M86.9676 89.683L86.8415 117.937L50.4786 118C49.7042 117.961 49.1101 117.433 48.5766 116.937C45.3778 113.971 42.2977 110.415 39.2112 107.307C33.6916 101.751 28.7621 96.9508 23.3598 91.257C23.1454 91.0318 22.082 89.9866 22 89.683H86.9676Z" fill="#0C5BB7"/>
<path d="M54.0324 49.1028L54.1585 20.8491L90.5214 20.7858C91.2958 20.825 91.8899 21.3525 92.4234 21.8484C95.6222 24.8148 98.7023 28.3708 101.789 31.4789C107.308 37.0347 112.238 41.8351 117.64 47.5288C117.855 47.754 118.918 48.7992 119 49.1028H54.0324Z" fill="#0C5BB7"/>
<path d="M119 89.3668C118.984 89.4591 117.92 90.5825 117.746 90.7608C110.747 97.9713 103.337 105.005 96.1826 112.111C94.6589 113.624 93.115 115.535 91.5346 116.922C91.4324 117.012 90.8585 117.459 90.7715 117.36V52.0215H118.81L118.999 52.2113V89.3681L119 89.3668Z" fill="#0C5BB7"/>
<path d="M50.1945 21.6894L50.1403 86.7837L22.1741 86.8836L21.9988 86.7179L22.1501 49.4865C23.0633 48.415 24.0459 47.3853 25.0361 46.3784C32.7516 38.5341 40.8014 31.02 48.498 23.2137C48.7036 23.005 49.8779 21.3668 50.1945 21.6894Z" fill="#0C5BB7"/>
</g>
<defs>
<clipPath id="clip0_2716_1868">
<rect width="97" height="97" fill="white" transform="translate(22 21)"/>
</clipPath>
</defs>
</svg>
