<svg width="140" height="140" viewBox="0 0 140 140" fill="none" xmlns="http://www.w3.org/2000/svg">
<rect width="140" height="140" rx="30" fill="#39D67A"/>
<path d="M38.5516 59.1445C35.5921 76.4352 40.01 88.5332 51.9884 95.9356C56.4361 98.6849 61.4637 100.355 66.6448 101.09C71.2034 101.736 80.5891 101.519 80.5891 101.519H114C113.186 94.6565 110.606 89.0303 103.083 86.8802C101.028 86.2937 98.8788 86.0685 96.7423 86.0983C76.1798 86.3787 64.6321 89.3405 57.0246 80.2979C55.2421 78.1774 53.9799 75.6703 53.2165 73.006C52.159 69.326 52.1846 65.3019 54.9649 59.1445H38.5601H38.5516Z" fill="white"/>
<path d="M100.401 81.4096C103.319 64.119 98.9624 52.021 87.1503 44.6186C82.7644 41.8693 77.8066 40.1993 72.6974 39.4641C68.2064 38.8182 58.9468 39.0349 58.9468 39.0349H26C26.8032 45.8977 29.3472 51.5238 36.765 53.674C38.7919 54.2604 40.9112 54.4856 43.018 54.4559C63.2949 54.1754 74.6822 51.2136 82.1841 60.2563C83.9418 62.3767 85.1865 64.8838 85.9393 67.5482C86.9821 71.2282 86.9569 75.2523 84.2152 81.4096H100.392H100.401Z" fill="white"/>
</svg>
