<svg width="140" height="140" viewBox="0 0 140 140" fill="none" xmlns="http://www.w3.org/2000/svg">
<rect width="140" height="140" rx="30" fill="white"/>
<g clip-path="url(#clip0_830_305)">
<path d="M14 66.8153C14.1425 66.4309 14.048 66.0227 14.1265 65.6285C14.1884 65.318 14.1398 64.9673 14.1937 64.6787C14.2656 64.2924 14.3861 63.8948 14.4646 63.5018C14.6737 62.4563 14.9313 61.422 15.2235 60.3997C15.4937 59.4539 15.8152 58.5127 16.2166 57.6152C17.8067 54.0613 19.8509 50.8059 22.7477 48.1357C24.2819 46.7217 25.9467 45.4933 27.867 44.6347C29.4152 43.9412 31.02 43.8818 32.6741 44.1433C33.357 44.2516 34.0353 44.3645 34.695 44.562C36.4735 45.095 37.9405 46.1451 39.317 47.3432C39.8955 47.8465 40.3967 48.4052 40.7155 49.1112C40.8866 49.4903 40.8753 49.8337 40.7382 50.2452C40.5691 50.7538 40.3468 51.2656 40.3381 51.821C40.3368 51.9003 40.3042 51.9637 40.2702 52.035C40.1923 52.2008 40.0872 52.3771 40.0838 52.5508C40.0732 53.1525 39.787 53.706 39.7923 54.3037C39.7976 54.832 39.6359 55.3347 39.5993 55.8597C39.528 56.892 39.5141 57.9236 39.558 58.9526C39.5939 59.7808 39.6838 60.607 39.6785 61.4385C39.6758 61.8249 39.564 62.1736 39.371 62.4999C39.3304 62.5686 39.2904 62.7073 39.1513 62.6089C38.72 62.3037 38.1768 62.2212 37.7488 61.9022C37.44 61.6717 37.1391 61.4518 36.9155 61.1215C36.2059 60.0747 35.7287 58.942 35.5563 57.6905C35.3306 56.0539 35.4511 54.4061 35.4138 52.7635C35.3885 51.6302 35.5296 50.5153 35.7646 49.4144C35.8685 48.9276 36.0435 48.4422 36.3071 48.0069C36.4296 47.8042 36.365 47.7348 36.18 47.6477C35.8378 47.4865 35.4717 47.4396 35.107 47.4066C34.1731 47.3234 33.2898 47.5242 32.4372 47.9032C31.2131 48.4475 30.1474 49.2248 29.1823 50.131C26.7794 52.3871 24.8544 55.0024 23.3527 57.9256C22.5447 59.4981 21.8677 61.1235 21.3572 62.8162C20.9918 64.0269 20.6982 65.2553 20.4652 66.4956C20.3208 67.2631 20.2702 68.049 20.1877 68.8277C20.1557 69.1262 20.3667 69.395 20.1983 69.7411C20.0665 70.0119 20.1517 70.389 20.1517 70.7192C20.1517 71.06 20.1657 71.4015 20.1717 71.7423C20.1777 72.0725 20.1524 72.4053 20.1903 72.7316C20.3328 73.9389 20.428 75.1515 20.8054 76.3245C21.0996 77.2392 21.4537 78.1143 22.0707 78.8613C22.7497 79.6829 23.6369 80.1141 24.7086 80.0791C25.4647 80.054 26.175 79.7872 26.8399 79.4431C27.1574 79.2787 27.4949 79.1578 27.8004 78.9696C28.7855 78.3639 29.7687 77.7497 30.5947 76.938C31.3129 76.232 32.0617 75.5504 32.6022 74.6806C33.3484 73.4799 33.574 72.2548 32.8705 70.9596C32.7087 70.6618 32.5949 70.3388 32.3713 70.0733C32.2874 69.9736 32.2162 69.7959 32.3107 69.7133C32.4072 69.6295 32.6109 69.5786 32.7294 69.6209C33.785 69.9967 34.8381 70.3863 35.6887 71.1525C36.3836 71.7786 37.0033 72.4608 37.2975 73.3729C37.5099 74.032 37.5691 74.7077 37.4054 75.38C37.2044 76.2056 36.9468 77.0113 36.4569 77.7292C35.971 78.4425 35.4305 79.105 34.8274 79.7245C33.8836 80.6953 32.8565 81.5572 31.6704 82.219C30.7545 82.7302 29.8099 83.1654 28.7809 83.4389C28.1931 83.5947 27.5934 83.8034 27.0097 83.8206C25.8921 83.8523 24.7552 83.9897 23.6483 83.6832C23.5211 83.6482 23.3754 83.6099 23.2675 83.6145C22.9001 83.6284 22.6119 83.4375 22.2964 83.3213C21.3259 82.9627 20.4366 82.4587 19.5953 81.859C18.5762 81.1326 17.7595 80.2211 17.0333 79.2186C16.2292 78.1083 15.6208 76.8964 15.1476 75.6165C14.8121 74.7077 14.5538 73.7791 14.3741 72.8241C14.2164 71.984 14.1378 71.1393 14.0639 70.2919C14.0566 70.2093 14.0932 70.1123 13.998 70.0522V66.8166L14 66.8153ZM25.2657 51.5655C22.0055 54.8684 20.0685 58.8469 19.1307 63.4126C19.3144 63.2812 19.3284 63.1306 19.3736 63.0058C19.4994 62.6597 19.6059 62.3077 19.7331 61.9616C20.2176 60.6407 20.7501 59.3403 21.3798 58.0815C22.4295 55.9826 23.7135 54.0243 25.0574 52.1031C25.1699 51.9426 25.2877 51.7854 25.2651 51.5661L25.2657 51.5655ZM21.4178 51.722C19.9986 53.3097 18.8784 55.0804 18.1988 57.1113C19.4189 55.4047 20.4619 53.593 21.4178 51.722ZM19.5181 58.0544C20.3994 56.4719 21.2374 54.9674 22.1207 53.3817C21.3598 53.8823 19.3849 57.3979 19.5181 58.0544ZM34.3861 77.9518C34.9878 77.8171 35.8764 76.2829 35.8471 75.3728C35.3439 76.2604 34.8654 77.1051 34.3861 77.9518ZM17.9252 57.6746C17.7834 57.9382 17.7129 58.1416 17.6956 58.3925C17.9212 58.1422 17.9252 58.129 17.9252 57.6746ZM33.3883 75.6019C33.7418 75.3384 33.795 75.2413 33.7797 74.9369C33.628 75.129 33.5002 75.308 33.3883 75.6019ZM34.6464 75.7842C34.4134 75.81 34.3655 75.9566 34.3828 76.1435C34.4706 76.024 34.5585 75.9038 34.6464 75.7842ZM33.3857 75.6449C33.393 75.6376 33.4063 75.631 33.407 75.6237C33.407 75.6165 33.395 75.6079 33.3883 75.5999C33.381 75.6072 33.3684 75.6145 33.3677 75.6224C33.3677 75.6303 33.3797 75.6383 33.3857 75.6449Z" fill="#4B76C3"/>
<path d="M81.98 96C81.6159 95.8171 81.2166 95.7305 80.8345 95.5985C79.7169 95.2127 79.2084 94.545 79.1858 93.3635C79.1698 92.5056 79.1458 91.645 79.2037 90.7904C79.231 90.3868 79.2969 89.9681 79.3349 89.5672C79.3868 89.0223 79.446 88.4775 79.5186 87.9352C79.6331 87.0799 79.7655 86.2266 79.884 85.372C80.071 84.0254 80.3246 82.6893 80.4618 81.3347C80.5024 80.9358 80.6328 80.5382 80.6448 80.136C80.6694 79.319 80.9097 78.5357 80.9796 77.7299C81.0302 77.1474 81.2692 76.5774 81.1194 75.9797C81.385 75.6389 81.3757 75.2202 81.4036 74.8299C81.4529 74.1344 81.6825 73.4661 81.6399 72.7508C81.6219 72.4509 81.7551 72.1088 81.803 71.7839C81.8875 71.2093 81.9987 70.6393 82.0599 70.0594C82.1172 69.5172 82.2816 68.9869 82.3468 68.4446C82.3761 68.2003 82.5651 67.9533 82.3907 67.6917C82.3728 67.6647 82.3827 67.5887 82.4067 67.5689C82.6923 67.3397 82.5165 67.0207 82.5764 66.7493C82.6397 66.464 82.5884 66.1667 82.637 65.8913C82.6696 65.7091 82.7475 65.5241 82.7575 65.328C82.7901 64.6873 82.5938 64.1167 82.2297 63.5949C82.1185 63.4351 82.028 63.2713 81.9727 63.0772C81.8862 62.7766 82.0679 62.6498 82.2829 62.603C82.844 62.4788 83.4058 62.4524 83.9163 62.7971C83.9343 62.8097 83.953 62.8249 83.9736 62.8295C84.6845 63.0012 85.0785 63.5949 85.5911 64.0295C85.7328 64.1497 85.9292 64.2554 86.0064 64.3901C86.1881 64.7071 86.4451 64.9726 86.5808 65.326C86.8105 65.9244 86.7679 66.567 86.9416 67.1726C86.9835 67.3186 86.8471 67.4969 87.0182 67.6468C87.1553 67.767 87.2338 67.767 87.3203 67.6045C87.8309 66.6443 88.5178 65.8022 89.1695 64.939C89.9655 63.8849 90.9646 63.0402 92.0416 62.278C92.3578 62.0548 92.6913 61.8705 93.0307 61.6902C93.2131 61.5931 93.4121 61.504 93.4834 61.2933C93.5506 61.0951 93.6571 61.323 93.7503 61.2497C94.0205 61.0364 94.3626 60.9313 94.6708 60.8125C95.0682 60.6592 95.4889 60.475 95.9535 60.5318C96.1984 60.5615 96.4514 60.5225 96.7003 60.5318C97.3253 60.5569 97.8412 60.8712 98.3464 61.1863C99.0253 61.6103 99.5558 62.1704 99.9233 62.8955C100.244 63.5289 100.275 64.1544 100.156 64.8412C100.037 65.5294 99.7935 66.1753 99.5858 66.8312C99.4687 67.201 99.1964 67.5312 99.052 67.9051C98.8696 68.3766 98.5747 68.7828 98.3204 69.2121C97.4844 70.6235 96.4847 71.916 95.3771 73.1253C93.7796 74.8689 92.0157 76.4163 89.9169 77.549C89.4111 77.8217 88.8839 78.0536 88.3414 78.2583C87.8209 78.4544 87.2764 78.5225 86.7486 78.6665C86.5722 78.7147 86.3732 78.7074 86.1875 78.6916C85.7375 78.6519 85.5731 78.7946 85.5005 79.2602C85.4033 79.883 85.2423 80.4985 85.1824 81.124C85.1198 81.7712 84.8289 82.3749 84.8076 83.0122C84.7737 84.0465 84.3124 85.0022 84.3104 86.0318C84.3097 86.477 84.0628 86.8904 84.1713 87.3474C84.2072 87.4987 84.0355 87.5971 84.0322 87.7681C84.0248 88.1254 84.0202 88.4933 83.9543 88.8367C83.903 89.1042 83.8864 89.3757 83.8351 89.6425C83.7699 89.9826 83.6707 90.3294 83.8245 90.6715C83.8771 90.7884 83.8125 90.8947 83.7499 90.9343C83.5968 91.0321 83.6035 91.2031 83.6568 91.2791C83.8445 91.5466 83.6834 91.7658 83.6228 92.0096C83.515 92.4408 83.5849 92.8833 83.5815 93.3206C83.5789 93.6145 83.6494 93.9328 83.6554 94.2036C83.6634 94.5847 83.8012 94.942 83.7799 95.3184C83.7692 95.5047 83.6388 95.5786 83.5116 95.6625C83.2481 95.8362 82.9232 95.8573 82.647 95.9993H81.982L81.98 96ZM95.8809 71.3031C95.9382 71.2753 95.9735 71.2377 95.9442 71.1697C96.048 71.2 96.0766 71.1069 96.1186 71.0534C97.0098 69.9155 97.8791 68.7617 98.4549 67.4249C98.6845 66.8913 98.8742 66.3404 99.0819 65.7976C98.8882 65.9045 98.821 66.0756 98.7491 66.2401C98.2166 67.4559 97.5949 68.6243 96.8707 69.7385C96.5612 70.2153 96.2191 70.671 95.9495 71.173C95.8849 71.1974 95.8709 71.2456 95.8849 71.3077C95.8457 71.2998 95.8217 71.3037 95.8477 71.3506C95.8583 71.3348 95.8696 71.3183 95.8803 71.3024L95.8809 71.3031ZM95.6772 69.3845C95.7438 69.3964 95.7698 69.3488 95.7931 69.3019C95.7964 69.2946 95.7764 69.2768 95.7678 69.2636C95.7392 69.3052 95.7105 69.3468 95.6826 69.3884C95.6646 69.4122 95.598 69.4228 95.6626 69.467L95.6779 69.3845H95.6772ZM90.0993 66.6865C89.9595 66.6621 89.9442 66.7909 89.895 66.8622C88.7548 68.5219 87.8182 70.2886 87.0807 72.1597C86.8185 72.8248 86.5935 73.5011 86.4324 74.1998C86.666 73.9304 86.7805 73.6014 86.9003 73.2798C87.532 71.5851 88.2662 69.9386 89.1415 68.3522C89.451 67.7908 89.8464 67.2776 90.0933 66.6812C90.1073 66.6694 90.1639 66.672 90.108 66.637C90.1053 66.6535 90.1027 66.67 90.0993 66.6859V66.6865ZM97.8785 62.813C97.8785 62.6584 97.8785 62.5072 97.8252 62.3566C97.6728 61.9214 97.5304 61.8362 97.0897 61.9544C96.6424 62.0746 96.2031 62.2199 95.7891 62.4319C93.7722 63.4622 92.1867 64.97 90.8981 66.8008C89.7119 68.4869 88.8679 70.35 88.0938 72.2462C87.562 73.548 87.0235 74.8464 86.5416 76.168C86.5063 76.2644 86.459 76.3694 86.5389 76.4434C86.6181 76.5173 86.7206 76.4718 86.8138 76.4229C87.092 76.2776 87.3816 76.1521 87.6538 75.9962C89.1368 75.1482 90.4741 74.106 91.7035 72.9298C92.2653 72.3922 92.8137 71.8374 93.3296 71.2568C94.8319 69.5674 96.1219 67.7327 97.0624 65.6734C97.4778 64.7633 97.8305 63.8287 97.8778 62.813H97.8785ZM82.237 93.662C82.3641 93.3245 82.2609 92.9672 82.3242 92.6343C82.4526 91.9587 82.4666 91.2725 82.5724 90.5949C82.665 90.0051 82.7235 89.4067 82.7994 88.8136C82.862 88.3262 82.9465 87.8282 83.0031 87.3454C83.0876 86.6196 83.1582 85.8885 83.2461 85.1607C83.3506 84.2955 83.4883 83.4356 83.5869 82.5691C83.682 81.7309 83.8784 80.9041 83.9796 80.0666C84.0907 79.1512 84.3184 78.257 84.4349 77.3449C84.4602 77.1461 84.4928 76.9229 84.3903 76.7227C84.3157 76.7492 84.3157 76.7941 84.3051 76.8357C84.0428 77.8594 83.949 78.9115 83.7799 79.9504C83.6434 80.7858 83.5782 81.6339 83.4185 82.4647C83.2401 83.3959 83.1156 84.3351 82.9385 85.267C82.7914 86.0411 82.673 86.8283 82.5871 87.6169C82.5245 88.1968 82.3788 88.7674 82.3195 89.3473C82.2376 90.1477 82.2064 90.9535 82.1458 91.7559C82.0979 92.3939 82.1484 93.0273 82.2356 93.662H82.237ZM95.9368 69.1381C95.9242 69.0985 95.9182 69.08 95.9122 69.0615C95.8889 69.0826 95.8616 69.1005 95.843 69.1249C95.8237 69.1507 95.825 69.187 95.8663 69.1837C95.8936 69.181 95.9182 69.1507 95.9368 69.1381ZM95.9695 68.9671L95.9854 68.9789L95.9868 68.9572L95.9688 68.9671H95.9695Z" fill="#4B76C3"/>
<path d="M57.2385 66.1364C57.2724 67.4804 56.9329 68.7702 56.6201 70.0575C56.2946 71.3962 56.0723 72.7541 55.7827 74.0994C55.4632 75.5828 55.1437 77.0662 54.8535 78.5555C54.6898 79.3976 54.574 80.2496 54.4595 81.0996C54.3836 81.6636 54.325 82.2309 54.2718 82.7969C54.2145 83.4072 54.148 84.0181 54.1134 84.6317C54.0741 85.3198 54.1114 86.0074 54.108 86.6956C54.108 86.8204 54.1353 86.9333 54.2298 87.0159C54.2751 87.0548 54.321 87.0799 54.2784 87.1427C54.0841 87.4273 54.2784 87.6519 54.3929 87.889C54.5946 88.3044 54.4089 88.5891 53.9469 88.6069C52.3621 88.6683 50.7879 87.6275 50.2501 86.0113C50.2075 85.8832 50.2727 85.7835 50.2541 85.6666C50.1755 85.1825 50.2447 84.6951 50.2394 84.2096C50.2334 83.7143 50.2561 83.2183 50.2341 82.7243C50.1942 81.8095 50.2867 80.906 50.3659 79.9966C50.4391 79.1618 50.6062 78.3408 50.6667 77.5034C50.7306 76.621 50.9463 75.7499 51.0521 74.8689C51.16 73.972 51.3257 73.0837 51.4688 72.194C51.6406 71.1287 51.8848 70.0713 52.1344 69.0173C52.2982 68.3244 52.4779 67.6362 52.649 66.9467C52.7588 66.5029 52.8693 66.0664 53.0457 65.645C53.0763 65.5717 53.1422 65.4759 53.041 65.4059C52.9359 65.3333 52.8806 65.4429 52.8207 65.4931C52.0073 66.1707 51.1121 66.7625 50.4158 67.5636C49.8707 68.191 49.3635 68.8541 48.9015 69.5522C48.4303 70.2642 48.0023 70.9986 47.5723 71.7337C46.9739 72.7561 46.4494 73.8174 45.9741 74.8986C45.4815 76.0194 45.0076 77.1514 44.6635 78.3296C44.3906 79.2642 44.1057 80.1967 43.8847 81.1431C43.7962 81.5222 43.7542 81.9192 43.6651 82.3029C43.5665 82.7262 43.5439 82.7229 43.0939 82.6714C42.5288 82.6067 41.981 82.4522 41.4791 82.219C40.7463 81.8776 40.1745 81.3261 39.8204 80.5831C39.6008 80.1214 39.4011 79.6459 39.3511 79.1374C39.2819 78.4327 39.2373 77.7227 39.2313 77.0147C39.2227 75.9923 39.2134 74.9659 39.2879 73.9475C39.3625 72.9331 39.4483 71.918 39.5974 70.9075C39.7359 69.965 39.8557 69.0179 40.0181 68.0794C40.2071 66.9844 40.4687 65.9019 40.6684 64.8082C40.9014 63.5289 41.2389 62.2734 41.5031 61.0007C41.7281 59.9169 41.9977 58.839 42.2506 57.7599C42.5448 56.503 42.8463 55.2468 43.2098 54.0058C43.496 53.0297 43.7895 52.0569 44.1583 51.1071C44.4279 50.4123 44.6302 49.6878 44.9391 49.0115C45.3937 48.0155 45.8084 47.0037 46.2244 45.9932C46.4068 45.5514 46.5645 45.1063 46.8414 44.7093C46.9479 44.5568 47.0291 44.5237 47.1849 44.6281C47.4851 44.8289 47.8185 44.9094 48.184 44.9048C48.4169 44.9022 48.618 44.9616 48.7924 45.1835C48.9694 45.4087 49.2503 45.558 49.4992 45.7211C50.1862 46.1729 50.2494 46.8426 50.1542 47.5598C50.1336 47.7157 50.1023 47.8544 50.1822 47.9997C50.2048 48.0406 50.2321 48.0796 50.2095 48.1457C49.8261 49.273 49.6783 50.4579 49.3268 51.5965C48.9667 52.7629 48.5953 53.9259 48.2539 55.0976C47.9517 56.1332 47.6881 57.18 47.3979 58.2195C47.133 59.1673 46.8727 60.1163 46.6091 61.0648C46.2404 62.3883 45.9548 63.7336 45.6067 65.0631C45.2965 66.246 44.9324 67.4143 44.6269 68.5979C44.5031 69.078 44.4678 69.5819 44.4026 70.076C44.3932 70.1486 44.344 70.2681 44.4638 70.3005C44.5577 70.3256 44.5716 70.2219 44.6162 70.1618C45.3158 69.2154 45.9788 68.2419 46.7515 67.3503C47.304 66.7129 47.8538 66.0789 48.5068 65.5327C49.5332 64.6748 50.5955 63.869 51.7191 63.1406C52.1924 62.8334 52.6756 62.5858 53.26 62.6604C53.5695 62.7 53.885 62.566 54.1946 62.7819C54.4588 62.9662 54.7956 63.0435 55.0885 63.1914C55.7761 63.5388 56.3731 64.0203 56.893 64.5718C57.1659 64.8617 57.1859 65.3101 57.2358 65.7097C57.2538 65.8504 57.2385 65.9957 57.2385 66.1383V66.1364ZM55.5724 68.2023C55.7827 68.0305 55.6796 67.7822 55.7055 67.5662C55.6609 67.7782 55.617 67.9902 55.5724 68.2023ZM47.1902 70.4471C46.9007 70.675 46.7123 70.9841 46.5179 71.2852C45.9175 72.2158 45.427 73.2045 44.985 74.2157C44.7161 74.8299 44.4758 75.4567 44.2322 76.0814C44.0485 76.553 43.908 77.0424 43.6997 77.5027C43.5086 77.9248 43.4714 78.3514 43.4654 78.8738C43.6371 78.6915 43.6817 78.5357 43.7356 78.3858C44.1117 77.3436 44.4811 76.2994 44.8652 75.2605C45.3458 73.9607 45.9934 72.7389 46.6577 71.5243C46.8494 71.1736 47.103 70.848 47.1862 70.4432C47.1929 70.4385 47.1995 70.4339 47.2068 70.4293C47.2015 70.4352 47.1955 70.4412 47.1902 70.4471ZM48.2219 49.777C48.0063 50.1052 47.9763 50.4876 47.8478 50.8377C47.3712 52.1387 46.9512 53.4583 46.5539 54.7852C45.9195 56.9032 45.3105 59.0279 44.8166 61.1843C44.6016 62.1215 44.3653 63.056 44.1543 63.9925C43.9193 65.0321 43.671 66.0723 43.4927 67.1251C43.3342 68.0609 43.1073 68.9822 42.9142 69.9102C42.7392 70.7516 42.6759 71.6023 42.5415 72.4457C42.5315 72.5064 42.4982 72.6101 42.6433 72.6108C42.9182 71.5382 43.1299 70.4504 43.3282 69.36C43.4181 68.8687 43.5439 68.3786 43.6244 67.8932C43.7017 67.4295 43.7656 66.9606 43.8681 66.4989C44.3906 64.1444 44.9803 61.8058 45.6167 59.479C45.7864 58.8582 45.9621 58.2374 46.1525 57.6218C46.2743 57.2275 46.3868 56.8015 46.4647 56.3782C46.6517 55.3578 46.9872 54.3638 47.2714 53.3612C47.499 52.5568 47.7487 51.7577 47.969 50.9513C48.0748 50.5642 48.2186 50.1838 48.2226 49.7763L48.2219 49.777ZM54.2638 74.4455C54.8056 72.4391 55.2016 70.4075 55.5345 68.3627C54.9827 70.3652 54.564 72.3955 54.2638 74.4455ZM45.3957 55.3122C45.1161 55.8432 44.2628 59.0708 44.3533 59.3245C44.8033 57.9752 45.0615 56.6338 45.3957 55.3122ZM43.6185 57.4197C43.3575 57.7836 43.0766 58.882 43.1558 59.2049C43.3103 58.6099 43.464 58.0148 43.6185 57.4197ZM48.4196 49.3365C48.5507 49.0855 48.7078 48.8418 48.5953 48.5386C48.4735 48.7903 48.395 49.0518 48.4196 49.3365ZM43.5978 62.4259L43.5 62.3936C43.4474 62.6036 43.3948 62.8136 43.3422 63.0237C43.5359 62.8572 43.5193 62.6267 43.5978 62.4259ZM43.6338 57.1668C43.6251 57.1866 43.6118 57.2038 43.6111 57.2209C43.6111 57.2388 43.6225 57.2566 43.6291 57.2744C43.6371 57.2572 43.6504 57.2401 43.6517 57.2229C43.6524 57.2051 43.6411 57.1866 43.6338 57.1668ZM48.2885 49.6759L48.2778 49.6918L48.2911 49.6944L48.2885 49.6753V49.6759Z" fill="#4B76C3"/>
<path d="M67.9264 72.7402C68.214 72.3777 68.4975 72.0124 68.7897 71.6538C69.2151 71.1327 69.5432 70.5462 69.9412 70.0073C70.0391 69.8752 69.9918 69.7642 69.9486 69.6374C69.6564 68.7848 69.4187 67.9189 69.4107 67.0108C69.4028 66.1483 69.6863 65.3478 69.9872 64.5546C70.4478 63.34 71.1068 62.2536 72.0819 61.3706C72.3255 61.15 72.6064 60.9763 72.856 60.761C73.0238 60.6163 73.32 60.5833 73.5636 60.5675C74.0615 60.5351 74.562 60.5575 75.0612 60.5384C75.2456 60.5311 75.3235 60.7379 75.4639 60.7286C75.8733 60.7009 76.1382 61.0397 76.4697 61.109C77.0275 61.2259 77.2837 61.6902 77.7058 61.9511C78.0066 62.1373 78.2442 62.4279 78.4998 62.6822C78.7242 62.9061 78.5964 63.3902 78.2968 63.4952C78.2269 63.5197 78.203 63.4543 78.157 63.4404C77.7064 63.3044 77.2824 63.1683 76.7725 63.1941C76.1961 63.2225 75.8853 63.5666 75.6224 63.8988C75.0426 64.6306 74.4961 65.4224 74.2365 66.322C74.1134 66.748 73.8099 67.1297 73.8305 67.5735C73.8518 68.0457 73.6301 68.4982 73.7653 68.9928C74.0927 68.8561 74.2771 68.555 74.5407 68.3522C75.0692 67.946 75.5724 67.5081 76.0976 67.098C76.489 66.7922 77.0055 66.7539 77.4282 66.534C77.7836 66.349 78.1457 66.5696 78.5005 66.3893C78.6163 66.3306 78.9185 66.6185 79.1721 66.6997C79.6181 66.8424 79.9955 67.1416 80.4368 67.3126C80.6092 67.3794 80.4062 67.4712 80.3529 67.5114C79.877 67.8701 79.3971 68.2228 78.9112 68.5675C77.9048 69.2815 77.0215 70.1169 76.3053 71.1228C75.9798 71.5798 75.6503 72.0355 75.2955 72.4701C75.1105 72.6967 75.1271 72.875 75.2563 73.116C75.9545 74.4138 76.6328 75.7222 77.1733 77.0953C77.6425 78.2874 77.9833 79.5145 78.1085 80.7885C78.1923 81.6458 78.2828 82.5169 78.0585 83.3662C77.779 84.4256 77.2658 85.3417 76.4763 86.1448C75.7002 86.9347 74.781 87.4624 73.7965 87.889C73.1655 88.1624 72.4793 88.2932 71.7684 88.2906C70.7041 88.2866 69.6617 88.1836 68.7152 87.6737C67.7427 87.15 66.9652 86.434 66.7103 85.2994C66.6491 85.0279 66.7103 84.7512 66.681 84.4791C66.5785 83.5426 66.8754 82.6648 67.107 81.7858C67.3813 80.7462 67.7926 79.749 68.2153 78.7603C68.9475 77.0497 69.7163 75.3569 70.6302 73.7322C70.8126 73.408 70.965 73.0672 71.1374 72.7383C71.194 72.6299 71.1846 72.5296 71.14 72.4278C70.9783 72.0587 70.8139 71.6908 70.6315 71.28C70.2721 71.8625 69.9539 72.412 69.6038 72.9404C67.36 76.3258 65.3851 79.8883 62.8377 83.0743C62.3904 83.6337 61.9531 84.2004 61.5051 84.7591C61.2063 85.1316 60.8049 85.4037 60.5513 85.8126C60.4262 86.0147 60.1612 86.0549 59.9729 86.0728C58.6929 86.1936 57.522 85.9651 56.8424 84.5465C56.6361 84.1159 56.698 83.709 56.6967 83.2797C56.6947 82.7302 56.7632 82.1854 56.7659 81.6385C56.7672 81.3512 56.8631 81.0831 56.8491 80.7958C56.8191 80.1901 57.1107 79.6221 57.0621 79.0013C57.0468 78.8091 57.2012 78.57 57.2585 78.3409C57.7104 76.524 58.1783 74.711 58.6476 72.8987C58.8353 72.1742 59.0736 71.4603 59.1761 70.7173C59.2407 70.2497 59.3092 69.7814 59.3532 69.3105C59.3831 68.9928 59.4577 68.6586 59.5162 68.3317C59.5828 67.9639 59.5655 67.6217 59.461 67.2724C59.274 66.6436 59.6926 66.4323 60.2078 66.5254C60.9906 66.6667 61.7468 66.8596 62.4277 67.2618C63.3536 67.8093 64.0565 68.5378 64.2928 69.6394C64.4385 70.317 64.3993 70.9834 64.3753 71.6677C64.342 72.6154 64.0924 73.5202 63.8408 74.4006C63.5732 75.3398 63.2331 76.269 62.9356 77.2056C62.5681 78.364 62.226 79.5303 61.8726 80.6934C61.8446 80.7852 61.7807 80.8724 61.8553 80.9952C62.1335 80.7509 62.3272 80.4444 62.5442 80.1611C63.6651 78.6962 64.6688 77.1514 65.6939 75.6205C65.9502 75.2381 66.2351 74.8748 66.5073 74.5023C66.5326 74.5248 66.5585 74.5472 66.5838 74.569C65.3644 76.4956 64.1277 78.4109 62.8078 80.2714C62.4217 80.8162 61.9937 81.3327 61.6383 81.9588C61.9458 81.8532 62.0929 81.6504 62.2373 81.443C64.1357 78.7226 66.034 76.0022 67.9351 73.2838C68.0063 73.1814 68.0469 73.0315 68.2293 73.0031C68.1953 73.2963 67.9364 73.4733 67.947 73.7507C67.8911 73.7395 67.8858 73.7785 67.8798 73.8168L67.8698 73.8234L67.8752 73.8115C67.9211 73.8135 67.9404 73.7884 67.943 73.7461C68.7777 72.9839 69.1798 71.9589 69.645 70.9643C69.2277 71.6994 68.608 72.2495 68.0003 72.8102C67.9757 72.7871 67.951 72.7634 67.9257 72.7402H67.9264ZM70.0065 70.4458C70.069 70.426 70.0864 70.3791 70.0797 70.3197C70.099 70.3005 70.119 70.2814 70.1383 70.2629C70.1263 70.2517 70.1143 70.2398 70.1023 70.2285C70.0923 70.2569 70.0817 70.2853 70.0717 70.3137C70.0065 70.3382 69.9865 70.3837 70.0085 70.4491C69.9512 70.4359 69.9426 70.4716 69.9419 70.5152C69.8727 70.5357 69.858 70.5832 69.8747 70.6466C69.8188 70.6327 69.8101 70.6691 69.8061 70.71C69.7302 70.7549 69.6717 70.8084 69.6996 70.9332C69.7828 70.8718 69.8274 70.813 69.8148 70.7199C69.8667 70.7199 69.8747 70.6862 69.8734 70.6453C69.9419 70.6235 69.9526 70.574 69.9386 70.5119C69.9925 70.5218 70.0038 70.4888 70.0058 70.4465L70.0065 70.4458ZM74.2671 83.7856C74.4395 83.6397 74.5427 83.4653 74.5074 83.1404C74.4069 83.4092 74.2851 83.5769 74.2711 83.7883L74.2538 83.7949L74.2671 83.7856ZM72.3994 64.5018C72.6816 64.2752 72.8161 63.9747 72.848 63.6234C72.679 63.9074 72.4633 64.1696 72.4047 64.5077C72.3887 64.513 72.3734 64.5176 72.3575 64.5229C72.3654 64.5328 72.3728 64.5427 72.3808 64.552C72.3868 64.5354 72.3927 64.5189 72.3987 64.5018H72.3994ZM69.4068 72.2938C69.8574 72.2158 69.6896 71.8394 69.7615 71.5785C69.6404 71.8169 69.43 72.0137 69.4121 72.3004C69.3994 72.307 69.3861 72.3129 69.3735 72.3195C69.3801 72.3195 69.3901 72.3235 69.3928 72.3209C69.3994 72.3136 69.4028 72.3037 69.4074 72.2944L69.4068 72.2938ZM71.4023 64.1062C71.6705 63.8142 71.8562 63.4761 71.9687 63.0976C71.7331 63.4094 71.4742 63.7079 71.4063 64.1108C71.3723 64.1095 71.3437 64.1114 71.375 64.155C71.3837 64.1385 71.393 64.122 71.4016 64.1055L71.4023 64.1062ZM70.1975 84.9579C70.133 85.2829 70.2827 85.5622 70.3666 85.8542C70.4125 86.0147 70.4877 86.0312 70.6575 85.9836C71.1274 85.8522 71.5088 85.5761 71.8709 85.2816C72.7216 84.5887 73.2334 83.6747 73.5569 82.6411C73.8831 81.5989 73.8578 80.5415 73.69 79.4861C73.5569 78.65 73.3592 77.8244 73.1835 76.9955C73.1675 76.9196 73.1802 76.8007 73.0697 76.7822C72.9379 76.7604 72.9133 76.8839 72.876 76.9698C72.472 77.9076 72.046 78.8375 71.6759 79.7886C71.2831 80.7971 70.9151 81.8122 70.6242 82.8617C70.4305 83.5598 70.318 84.2579 70.1982 84.9579H70.1975ZM69.1551 84.6403C69.8241 81.3552 71.152 78.3878 72.4493 75.4065C72.1658 75.6165 72.022 75.9137 71.8749 76.2043C71.2485 77.4427 70.748 78.7345 70.2774 80.0369C69.8467 81.229 69.3755 82.4119 69.1744 83.6707C69.1285 83.96 68.9721 84.2592 69.1551 84.6396V84.6403ZM59.5309 83.6502C60.3895 80.63 61.2482 77.6097 62.1069 74.5895C61.9318 74.7038 61.8839 74.8722 61.822 75.0327C61.5784 75.6594 61.4266 76.3126 61.2569 76.9605C60.7071 79.0608 59.9176 81.0943 59.475 83.2256C59.4437 83.3768 59.4184 83.5063 59.5309 83.6509V83.6502ZM72.7249 66.2004C72.9352 66.003 73.0504 65.8299 73.1496 65.6496C73.4398 65.1232 73.7346 64.5989 73.9956 64.0586C74.0568 63.9318 74.2851 63.7654 74.1427 63.6656C74.0002 63.5659 73.8784 63.8407 73.7173 63.9008C73.6987 63.9074 73.6841 63.9298 73.6721 63.9483C73.2221 64.6127 72.8753 65.3207 72.7256 66.2011L72.7249 66.2004ZM76.7266 82.5301C76.4198 83.2791 76.069 83.9877 75.9785 84.8358C76.5902 84.31 77.0102 83.0056 76.7266 82.5301ZM68.5015 80.5124C68.9162 79.7397 69.2144 78.9254 69.45 78.0886C69.0699 78.8732 68.7524 79.6816 68.5015 80.5124ZM70.2528 76.2571C70.0358 76.6039 69.8933 76.9572 69.7669 77.3178C70.0278 77.0173 70.1656 76.662 70.2528 76.2571ZM67.7886 74.717C68.1314 74.6489 68.1654 74.3663 68.2319 74.1061C68.0842 74.3095 67.9364 74.5136 67.7886 74.717ZM75.5611 83.0472C75.4613 83.2962 75.3721 83.5175 75.2722 83.7665C75.5911 83.6126 75.627 83.5188 75.5611 83.0472ZM68.7864 73.2845C69.0766 73.1801 69.0626 72.9199 69.223 72.7937C69.237 72.7825 69.2104 72.6887 69.1784 72.6603C69.1378 72.6247 69.1039 72.6795 69.0813 72.7118C68.9694 72.877 68.8456 73.0368 68.7864 73.2845ZM64.3893 79.4544C64.5617 79.2351 64.6802 79.0845 64.8439 78.8752C64.5064 78.9531 64.3906 79.1077 64.3893 79.4544Z" fill="#4B76C3"/>
<path d="M113.069 78.395C112.736 78.9042 112.307 79.3355 111.919 79.8005C111.558 80.2331 111.221 80.6822 110.974 81.2006C112.074 80.1934 112.951 78.9835 113.966 77.8924C112.97 79.4048 111.7 80.7218 110.833 82.3293C111.321 81.9568 111.668 81.4371 112.13 81.0197C112.229 81.1808 112.074 81.2627 112.078 81.3763C112.07 81.4106 112.062 81.445 112.054 81.4787L112.034 81.484L112.05 81.4754C112.073 81.4549 112.096 81.4338 112.119 81.4133C112.629 81.3274 112.741 80.9325 112.864 80.5157C112.971 80.1518 113.095 79.7754 113.529 79.6367C113.642 79.6003 113.751 79.5277 113.796 79.4042C114.015 78.8071 114.506 78.3739 114.771 77.8C114.907 77.5054 115.125 77.2531 115.195 76.9202C115.289 76.4771 115.705 76.24 115.929 75.8728C116.083 75.6198 116.149 75.3285 116.332 75.098C116.433 74.9686 116.513 74.8121 116.692 74.7606C116.719 74.9191 116.595 75.0208 116.536 75.1436C115.924 76.4282 115.233 77.6712 114.5 78.8923C113.83 80.0092 113.069 81.0632 112.284 82.0975C111.74 82.8148 111.064 83.427 110.408 84.0491C110.297 84.1548 110.175 84.1793 109.995 84.1317C109.623 84.034 109.299 83.8378 108.948 83.7031C108.278 83.4455 108.021 82.9 108.001 82.2171C107.983 81.6332 108.068 81.0507 108.052 80.4702C108.027 79.5581 108.294 78.6902 108.396 77.7986C108.508 76.8198 108.788 75.8714 108.947 74.8993C109.009 74.5162 109.057 74.1054 109.221 73.7329C109.269 73.6246 109.275 73.5011 109.23 73.3346C108.969 73.5737 108.727 73.7904 108.49 74.0116C107.464 74.9693 106.564 76.0471 105.569 77.0345C104.876 77.722 104.116 78.3039 103.154 78.5938C102.746 78.7167 102.317 78.747 101.926 78.7259C101.625 78.7101 101.292 78.4881 100.969 78.3699C100.757 78.2927 100.576 78.1275 100.329 78.1454C100.309 78.1467 100.274 78.1447 100.267 78.1322C99.9633 77.5906 99.283 77.372 99.0727 76.7439C99.0095 76.5543 98.9569 76.3456 98.7918 76.197C98.6813 76.098 98.8384 76.0029 98.8131 75.8939C98.6627 75.2473 98.9895 74.6787 99.1226 74.0776C99.327 73.1537 99.7729 72.3208 100.108 71.4457C100.253 71.066 100.529 70.7543 100.667 70.3897C100.862 69.8726 101.224 69.4618 101.452 68.9704C101.526 68.8099 101.719 68.7069 101.813 68.5503C102.537 67.3364 103.524 66.3438 104.506 65.3432C104.913 64.9278 105.444 64.719 105.903 64.3921C106.456 63.9985 107.075 63.7185 107.732 63.5117C108.441 63.2885 109.146 63.1802 109.884 63.2978C109.996 63.3156 110.117 63.2575 110.235 63.2515C110.376 63.2449 110.478 63.3083 110.606 63.3882C110.862 63.55 111.181 63.6181 111.48 63.7066C111.578 63.7356 111.642 63.7588 111.71 63.8512C111.905 64.1167 112.168 64.3056 112.504 64.3743C112.567 64.3875 112.681 64.3895 112.686 64.4146C112.764 64.7851 113.141 64.974 113.243 65.3234C113.328 65.6113 113.209 65.7269 112.92 65.6721C112.514 65.5948 112.12 65.4832 111.726 65.359C111.439 65.2685 111.17 65.2844 111.008 65.5968C110.989 65.6325 110.967 65.6509 110.91 65.6529C110.197 65.6767 109.707 66.1205 109.203 66.5459C108.948 66.7612 108.719 67.0022 108.416 67.1733C108.071 67.3688 107.728 67.6098 107.629 68.0451C107.623 68.0755 107.608 68.1105 107.585 68.1303C107.186 68.4731 106.94 68.9486 106.584 69.3138C106.313 69.5905 106.099 69.8871 105.913 70.2054C105.282 71.2872 104.639 72.3631 104.128 73.509C103.967 73.8696 103.789 74.2236 103.623 74.5822C103.592 74.6476 103.527 74.7236 103.598 74.7942C103.693 74.8887 103.758 74.785 103.825 74.7401C104.552 74.2487 105.2 73.6602 105.859 73.0843C106.544 72.4853 107.255 71.9153 107.941 71.3176C108.531 70.8038 109.131 70.3005 109.714 69.7774C110 69.5219 110.27 69.2504 110.555 68.9955C110.753 68.8178 110.914 68.6104 111.033 68.3733C111.236 67.9671 111.505 67.633 111.89 67.3642C112.042 67.2578 112.185 67.1205 112.361 67.0504C112.515 66.989 112.695 66.915 112.813 67.137C112.859 67.2248 112.962 67.2241 113.051 67.2208C113.372 67.2083 113.509 67.5405 113.8 67.6131C113.904 67.6389 113.82 67.9183 113.768 68.0563C113.517 68.7346 113.215 69.395 112.981 70.0786C112.803 70.5997 112.584 71.1076 112.476 71.6558C112.609 71.3599 112.744 71.0647 112.875 70.7675C113.246 69.9247 113.611 69.0787 113.993 68.2406C114.05 68.1144 114.063 67.878 114.306 67.9447C114.516 68.0022 114.694 68.129 114.712 68.3634C114.726 68.5266 114.724 68.7095 114.661 68.8561C114.479 69.2848 114.425 69.7504 114.272 70.1757C114.162 70.4835 113.973 70.7833 113.854 71.1056C113.426 72.2634 112.998 73.4205 112.621 74.5968C112.451 75.1264 112.273 75.6568 112.08 76.1805C112.022 76.3397 111.928 76.4995 112.023 76.6818C112.065 76.7617 112.014 76.8251 111.96 76.8865C111.734 77.1454 111.685 77.4479 111.678 77.7861C111.674 78.0205 111.441 78.2041 111.418 78.463C111.407 78.5918 111.345 78.714 111.418 78.8408C111.462 78.9161 111.465 79.0079 111.399 79.0509C111.108 79.2404 111.24 79.5726 111.128 79.8216C111.111 79.8606 111.177 79.9365 111.204 79.9946C111.241 79.9755 111.293 79.9656 111.314 79.9352C111.524 79.6202 111.895 79.5 112.161 79.243C112.46 78.9538 112.653 78.5674 113.019 78.3468C113.035 78.3633 113.052 78.3798 113.069 78.3963V78.395ZM103.866 69.2603C103.805 69.2861 103.785 69.331 103.802 69.3937C103.584 69.5053 103.523 69.7206 103.423 69.9102C103.589 69.7642 103.733 69.6031 103.796 69.3891C103.866 69.3673 103.871 69.3151 103.861 69.255C103.877 69.2511 103.892 69.2478 103.907 69.2438C103.901 69.2339 103.895 69.2233 103.889 69.2134C103.881 69.2293 103.874 69.2445 103.866 69.2603ZM103.689 67.6997C103.54 67.8436 103.409 68.0008 103.318 68.1884C102.746 68.9248 102.257 69.7147 101.793 70.5211C101.529 70.9801 101.275 71.4431 101.095 71.9437C101.834 70.6961 102.6 69.4664 103.373 68.2412C103.518 68.0946 103.654 67.9401 103.745 67.7525C103.795 67.6964 103.909 67.6257 103.814 67.5643C103.725 67.5062 103.738 67.6567 103.689 67.7003L103.689 67.6997ZM106.119 67.771C104.871 68.3826 101.899 73.8115 101.896 75.5287C103.018 72.7178 104.332 70.1182 106.119 67.771ZM103.413 70.0198C103.39 70 103.367 69.9802 103.343 69.9604C103.087 70.29 102.871 70.644 102.663 71.0032C102.686 71.0178 102.71 71.0323 102.733 71.0468C102.96 70.7047 103.186 70.3626 103.413 70.0205V70.0198ZM111.697 73.972C111.538 74.2659 111.437 74.5083 111.384 74.8477C111.588 74.5677 111.638 74.3121 111.697 73.972ZM102.664 71.1413C102.581 71.1505 102.506 71.1849 102.582 71.278C102.61 71.2304 102.638 71.1855 102.664 71.1413ZM101.04 72.0375C101.032 72.0454 101.019 72.0527 101.018 72.0606C101.018 72.0686 101.03 72.0778 101.037 72.0857C101.045 72.0778 101.058 72.0705 101.058 72.0626C101.058 72.0547 101.046 72.0454 101.04 72.0369V72.0375Z" fill="#4B76C3"/>
<path d="M61.4288 61.749C61.4035 61.3659 61.5639 61.0443 61.5666 60.7074C61.5719 59.9988 61.9953 59.4288 62.1856 58.7829C62.2742 58.483 62.5451 58.2928 62.7501 58.065C62.8386 57.9666 62.9118 58.0412 62.9844 58.0385C63.2074 58.03 63.5255 58.3034 63.5548 58.5055C63.5848 58.7102 63.7112 58.6376 63.7825 58.5623C64.0594 58.2723 64.2584 58.5709 64.486 58.6415C64.532 58.6561 64.5513 58.7109 64.5313 58.7518C64.3569 59.1098 64.6358 59.1012 64.8455 59.1217C65.0445 59.1408 65.113 59.2287 65.0851 59.4182C65.0598 59.5926 65.0878 59.6983 65.3227 59.6923C65.6156 59.6851 65.81 59.9618 65.8725 60.1527C65.973 60.4604 66.0742 60.8105 65.9191 61.1605C65.8432 61.3316 65.8912 61.531 65.8446 61.7298C65.549 62.9919 65.129 64.2514 65.4685 65.5809C65.5297 65.8207 65.5364 66.0769 65.5464 66.3266C65.561 66.6786 65.3161 66.8939 64.9693 66.8074C64.6211 66.7202 64.305 66.5386 63.9262 66.5201C63.7725 66.5128 63.6414 66.3087 63.5076 66.1826C63.2167 65.9078 62.9984 65.5723 62.7235 65.2916C62.2948 64.8544 62.157 64.2864 61.9161 63.7653C61.6631 63.2178 61.5433 62.6287 61.4308 62.0402C61.4102 61.9339 61.4282 61.821 61.4282 61.7496L61.4288 61.749Z" fill="#4B76C3"/>
<path d="M110.628 57.2929C110.47 57.1463 110.241 57.0353 110.222 56.8953C110.178 56.5862 110.01 56.3405 109.912 56.0625C109.858 55.9099 109.788 55.7825 109.884 55.6048C109.94 55.4991 109.777 55.4476 109.687 55.4542C109.503 55.4681 109.451 55.3961 109.48 55.2297C109.525 54.9708 109.389 54.7898 109.21 54.6286C109.015 54.453 108.936 54.2423 108.909 53.9728C108.86 53.4669 108.702 52.9828 108.543 52.4954C108.469 52.2715 108.359 52.0133 108.382 51.7445C108.433 51.1289 108.395 50.5061 108.292 49.9071C108.233 49.5669 108.154 49.2096 108.044 48.8721C107.899 48.425 107.992 48.0453 108.282 47.6814C108.495 47.4152 108.666 47.0539 108.483 46.7666C108.346 46.5507 108.308 46.3651 108.325 46.1524C108.355 45.7984 108.38 45.4761 108.733 45.2014C109.046 44.9583 109.337 44.6955 109.701 44.529C109.98 44.4015 110.204 44.4874 110.286 44.7787C110.472 45.4385 110.533 46.0982 110.344 46.7792C110.273 47.0334 110.21 47.3406 110.407 47.5981C110.462 47.6701 110.456 47.7362 110.408 47.8082C110.317 47.9422 110.311 48.0684 110.452 48.176C110.5 48.213 110.518 48.2619 110.511 48.3207C110.379 49.4428 110.446 50.5695 110.465 51.6929C110.47 52.0106 110.571 52.3534 110.608 52.6724C110.639 52.9471 110.795 53.2424 110.66 53.5435C110.62 53.632 110.634 53.7727 110.677 53.8638C110.783 54.0838 110.862 54.2535 110.601 54.4497C110.451 54.5619 110.709 54.5223 110.715 54.5758C110.738 54.7607 110.77 54.9529 110.742 55.1332C110.716 55.2997 110.711 55.4278 110.858 55.5348C110.886 55.5559 110.916 55.622 110.904 55.6431C110.641 56.083 110.902 56.4984 110.961 56.9224C110.969 56.9818 110.981 57.0406 110.93 57.0677C110.804 57.1351 110.866 57.0076 110.84 56.9713C110.776 56.8828 110.758 56.9277 110.711 56.9944C110.647 57.0829 110.66 57.1813 110.628 57.2936V57.2929Z" fill="#E14B5A"/>
<path d="M122.633 62.5666C122.85 62.556 123.019 62.5395 123.188 62.5408C123.359 62.5422 123.532 62.5072 123.639 62.3922C123.975 62.0316 124.432 62.0369 124.861 61.9312C125.242 61.8375 125.665 61.8579 125.99 61.5647C126.042 61.5171 126.179 61.5092 126.293 61.5244C126.472 61.5495 126.663 61.5832 126.828 61.4392C126.904 61.3725 127.016 61.3923 127.115 61.4161C127.178 61.4313 127.246 61.4749 127.302 61.4623C127.86 61.3388 128.451 61.4848 128.992 61.2761C129.442 61.103 129.91 61.0806 130.376 61.0238C130.444 61.0152 130.519 60.9875 130.583 61.0733C130.776 61.3316 131.106 61.3679 131.37 61.5053C131.514 61.5805 131.767 61.6334 131.865 61.3685C131.89 61.3018 131.904 61.3018 131.973 61.3131C132.349 61.3732 132.727 61.4207 133.105 61.4716C133.293 61.4967 133.242 61.7001 133.352 61.7919C133.559 61.9662 133.742 62.1631 133.869 62.4107C133.95 62.5712 134.009 62.7251 133.999 62.9087C133.985 63.1445 133.78 63.3241 133.535 63.3149C133.437 63.3116 133.264 63.2277 133.295 63.4509C133.303 63.511 133.263 63.5051 133.247 63.4945C132.825 63.2191 132.343 63.4483 131.89 63.334C131.493 63.2343 131.031 63.2409 130.635 63.342C130.374 63.4087 130.072 63.3017 129.846 63.5051C129.488 63.2825 129.094 63.447 128.718 63.4087C128.313 63.3671 127.899 63.3948 127.49 63.4067C127.32 63.4113 127.132 63.3737 127 63.5441C126.976 63.5758 126.894 63.587 126.846 63.5758C126.229 63.4291 125.649 63.6887 125.055 63.7131C124.726 63.7264 124.32 63.9872 124.008 63.6015C123.95 63.5295 123.832 63.548 123.93 63.6913C123.932 63.694 123.92 63.7131 123.914 63.7138C123.557 63.7422 123.195 63.9258 122.873 63.8981C122.449 63.8611 122.04 63.9146 121.639 63.9648C121.378 63.9978 121.283 63.8472 121.125 63.7574C121.045 63.7112 121.129 63.6431 121.172 63.6002C121.501 63.2753 121.857 63.0329 122.357 63.0183C122.516 63.0137 122.658 62.8176 122.878 62.9246C122.944 62.9563 122.959 62.7845 122.966 62.7066C122.975 62.6056 122.887 62.6366 122.823 62.6439C122.776 62.6492 122.723 62.6967 122.632 62.5659L122.633 62.5666Z" fill="#E14B5A"/>
<path d="M116.847 59.3508C116.849 59.261 116.984 59.2313 116.941 59.1118C116.793 59.0629 116.721 59.2108 116.609 59.2557C116.52 58.8047 116.53 58.7703 116.834 58.4592C116.857 58.4361 116.897 58.3939 116.891 58.3833C116.745 58.1455 117.009 57.8833 117.055 57.8529C117.35 57.6575 117.378 57.4719 117.167 57.2143C117.166 57.2123 117.178 57.1945 117.187 57.1892C117.718 56.8973 117.482 56.2315 117.873 55.8386C118.228 55.4813 118.471 55.0117 118.756 54.587C118.876 54.4067 119.009 54.2383 119.075 54.019C119.16 53.7357 119.445 53.6029 119.659 53.4365C120.046 53.136 120.327 52.7424 120.675 52.4108C120.773 52.3184 120.723 52.1942 120.781 52.0978C121.121 51.5344 121.593 51.1784 122.258 51.0437C122.572 50.9803 123.004 50.9354 122.92 50.4143C123.257 50.1375 123.57 49.8245 124.043 49.7789C124.493 49.736 124.924 49.8681 125.365 49.9077C125.64 49.9321 125.785 50.2776 125.638 50.5087C125.335 50.9895 125.003 51.4327 124.479 51.7286C124.029 51.9835 123.625 52.3243 123.291 52.7331C122.995 53.0957 122.638 53.4127 122.354 53.7773C121.981 54.2555 121.406 54.4721 121.026 54.9311C120.651 55.3855 120.219 55.7937 119.84 56.2454C119.404 56.7652 118.907 57.2255 118.444 57.7182C118.003 58.1878 117.49 58.5946 117.197 59.1884C117.127 59.3291 117.017 59.4076 116.848 59.3515L116.847 59.3508Z" fill="#E14B5A"/>
<path d="M120.552 68.934C120.809 68.9089 121.065 68.7986 121.286 69.0727C121.406 69.2207 121.646 69.0741 121.832 69.1797C121.981 69.2649 122.176 69.3706 122.37 69.1626C122.461 69.0655 122.559 69.2913 122.726 69.2808C123.23 69.2484 123.7 69.3977 124.165 69.6044C124.585 69.7913 125.032 69.9168 125.454 70.1077C125.816 70.2721 126.149 70.4914 126.48 70.6981C126.894 70.9563 127.353 71.06 127.792 71.2265C127.947 71.2852 128.024 71.3559 128.078 71.4953C128.146 71.6683 128.206 71.8506 128.31 72.0012C128.445 72.196 128.514 72.4516 128.904 72.3644C129.062 72.3288 129.376 72.6273 129.484 72.8822C129.678 73.3392 129.673 73.8121 129.459 74.2692C129.356 74.4904 129.172 74.4944 128.955 74.4548C128.475 74.3669 128.124 74.0783 127.834 73.7269C127.633 73.4832 127.396 73.2844 127.125 73.1708C126.655 72.9727 126.263 72.6279 125.767 72.4859C125.737 72.4774 125.703 72.4595 125.684 72.4357C125.232 71.8526 124.565 71.5877 123.94 71.2522C123.235 70.8731 122.548 70.4603 121.849 70.0687C121.467 69.8554 121.077 69.6579 120.693 69.4492C120.608 69.403 120.466 69.403 120.493 69.218C120.574 69.2141 120.622 69.3382 120.739 69.2814C120.665 69.1711 120.494 69.0985 120.557 68.9301L120.551 68.9347L120.552 68.934Z" fill="#E14B5A"/>
<path d="M121.404 58.4843C121.513 58.4969 121.631 58.487 121.729 58.5259C122.018 58.6395 122.205 58.4923 122.366 58.2948C122.564 58.0517 122.917 57.9639 123.194 58.092C123.368 58.1726 123.505 58.2928 123.645 58.4183C124.374 59.0682 124.135 59.2855 123.513 59.7333C123.359 59.8449 123.186 59.9578 122.971 59.9453C122.866 59.9387 122.776 59.9704 122.736 60.0846C122.72 60.1322 122.695 60.2042 122.626 60.1738C122.304 60.0298 122.107 60.2768 121.883 60.4115C121.484 60.6513 121.108 60.9168 120.661 61.0839C119.911 61.3646 119.269 61.8487 118.594 62.2694C118.518 62.6723 118.002 62.5342 117.836 62.877C117.79 62.9714 117.493 63.1095 117.315 63.1405C116.938 63.2066 116.681 63.4113 116.421 63.6544C116.352 63.7191 116.227 63.5315 116.086 63.6114C116.059 63.6273 116.081 63.4853 116.096 63.4159C116.207 62.9074 116.49 62.5336 116.972 62.3189C117.053 62.2826 117.062 62.1915 117.035 62.1571C116.836 61.8989 117.087 61.8784 117.218 61.7859C117.33 61.7073 117.348 61.5719 117.404 61.4584C117.588 61.0878 117.863 60.8012 118.241 60.5958C118.486 60.4624 118.705 60.2636 118.901 60.0608C119.115 59.8396 119.364 59.6864 119.636 59.5549C120.038 59.3601 120.428 59.1468 120.711 58.7842C120.884 58.5623 121.111 58.448 121.404 58.485V58.4843Z" fill="#E14B5A"/>
<path d="M105.929 54.7112C105.966 54.7033 106.044 54.7508 106.124 54.8195C106.465 55.1088 106.811 55.3584 106.896 55.8709C106.943 56.1503 107.215 56.4132 107.433 56.6397C107.826 57.0492 108.106 57.532 108.42 57.995C108.551 58.1885 108.646 58.4249 108.921 58.481C109 58.4969 109.032 58.5689 109.039 58.6567C109.058 58.8833 109.226 59.0147 109.413 59.0689C109.574 59.1157 109.618 59.2029 109.678 59.3357C109.96 59.9545 110.404 60.4604 110.868 60.9511C110.941 61.0291 111.119 61.0912 111.021 61.2318C110.945 61.3401 110.807 61.325 110.663 61.2873C110.207 61.1697 109.826 60.9452 109.514 60.5978C109.495 60.576 109.463 60.543 109.445 60.5469C109.173 60.6037 109.026 60.3686 108.821 60.2953C107.955 59.9842 107.367 59.3172 106.689 58.7624C106.338 58.4751 106.07 58.1277 105.848 57.7387C105.817 57.6832 105.764 57.6548 105.694 57.631C105.232 57.4712 105.063 57.0769 105.235 56.6239C105.313 56.4185 105.282 56.2216 105.047 56.1318C104.721 56.0063 104.56 55.6887 104.741 55.3981C104.991 54.9945 105.39 54.7937 105.93 54.7132L105.929 54.7112Z" fill="#E14B5A"/>
<path d="M121.693 73.651C121.698 73.7375 121.618 73.8848 121.589 74.04C121.553 74.2282 121.64 74.318 121.748 74.3874C122.114 74.6225 122.203 74.9541 121.946 75.2935C121.758 75.5405 121.522 75.7327 121.229 75.8642C120.949 75.9903 120.758 75.8932 120.613 75.6733C120.441 75.4131 120.248 75.1766 120.189 74.8372C120.108 74.3656 119.771 74.0017 119.476 73.6358C119.364 73.4964 119.266 73.3525 119.206 73.1906C118.999 72.6253 118.687 72.1174 118.302 71.6637C117.892 71.1802 117.623 70.6056 117.228 70.1162C116.989 69.8197 116.776 69.5086 116.591 69.1784C116.573 69.146 116.485 69.1157 116.635 69.0635C116.975 68.9439 117.1 69.113 117.357 69.2755C117.61 69.4366 117.765 69.926 118.232 69.7385C118.292 69.7147 118.422 69.827 118.503 69.8957C119.41 70.6598 120.276 71.4642 120.879 72.4998C121.007 72.7204 121.189 72.8657 121.371 73.0222C121.543 73.1702 121.682 73.3353 121.692 73.6523L121.693 73.651Z" fill="#E14B5A"/>
<path d="M115.439 53.5177C115.455 53.7628 115.374 53.9893 115.21 54.2191C115.057 54.4331 114.86 54.6669 115.024 54.9938C115.101 55.1471 114.867 55.2468 114.834 55.4212C114.737 55.939 114.589 56.4396 114.358 56.9277C114.215 57.2301 114.104 57.6178 114.251 57.9837C114.288 58.0768 114.236 58.1105 114.205 58.1759C114.075 58.4606 113.862 58.7333 113.998 59.0748C114.025 59.1421 113.997 59.189 113.971 59.2201C113.753 59.479 113.769 59.8059 113.715 60.1077C113.675 60.3316 113.514 60.2966 113.431 60.2332C113.317 60.146 113.176 59.9776 113.192 59.864C113.233 59.5774 113.038 59.3218 113.126 59.0418C113.134 59.0153 113.142 58.9645 113.136 58.9625C112.666 58.7914 113.14 58.1904 112.692 57.989C112.642 57.9665 112.707 57.7037 112.709 57.5524C112.713 57.2447 112.709 56.9369 112.71 56.6285C112.711 56.3682 112.756 56.1212 112.818 55.8643C112.93 55.4073 112.952 54.9258 112.981 54.4523C113 54.1353 113.127 53.9279 113.428 53.8209C113.62 53.7529 113.8 53.7027 113.647 53.4127C113.541 53.21 113.888 52.8355 114.166 52.8196C114.362 52.8084 114.555 52.7972 114.752 52.7595C115.128 52.6869 115.439 53.0349 115.438 53.5177H115.439Z" fill="#E14B5A"/>
<path d="M124.749 68.4664C124.598 68.4843 124.452 68.44 124.299 68.3198C123.928 68.0259 123.468 67.9466 123.012 67.872C122.797 67.837 122.602 67.728 122.413 67.6435C121.756 67.3503 121.056 67.2631 120.363 67.1422C120.126 67.1006 119.917 66.9877 119.68 66.9375C119.433 66.8853 119.198 66.7459 118.93 66.7479C118.668 66.7499 118.894 66.4732 118.734 66.421C118.902 66.3457 119.018 66.1548 119.222 66.1727C119.445 66.1918 119.658 66.0122 119.885 66.1476C119.898 66.1555 119.975 66.1027 119.979 66.0716C120.017 65.8088 120.242 65.9369 120.355 65.8735C120.852 65.5954 121.386 65.8708 121.882 65.7064C122.03 65.6575 122.23 65.6588 122.372 65.7183C122.8 65.8979 123.279 65.8299 123.701 66.0181C123.72 66.0267 123.749 66.0287 123.767 66.0208C124.256 65.8127 124.348 66.1773 124.48 66.4989C124.552 66.6766 124.649 66.7783 124.881 66.6799C125.154 66.5643 125.483 66.9223 125.44 67.2803C125.421 67.4341 125.426 67.5702 125.469 67.7241C125.561 68.0596 125.166 68.4664 124.749 68.4658V68.4664Z" fill="#E14B5A"/>
<path d="M110.233 57.3015C110.356 57.3352 110.488 57.3695 110.499 57.5128C110.509 57.6489 110.519 57.7731 110.636 57.8629C110.726 57.9322 110.662 58.0148 110.623 58.059C110.572 58.1165 110.45 58.1198 110.413 58.0689C110.269 57.8702 110.099 57.6786 110.107 57.4059C110.111 57.3107 110.165 57.3028 110.234 57.3008L110.233 57.3015Z" fill="#E14B5A"/>
<path d="M116.14 58.9672C116.224 58.9632 116.258 59.0259 116.28 59.0847C116.31 59.166 116.337 59.3046 116.255 59.3192C116.045 59.3555 116.035 59.4889 116.019 59.6461C116.015 59.695 115.964 59.7478 115.903 59.7399C115.866 59.7346 115.821 59.7036 115.8 59.6712C115.702 59.5266 115.967 58.9857 116.14 58.9672Z" fill="#E14B5A"/>
<path d="M120.83 63.4477C120.742 63.484 120.626 63.5032 120.551 63.5685C120.444 63.6623 120.397 63.595 120.348 63.5256C120.274 63.4206 120.403 63.4378 120.437 63.4087C120.54 63.3202 120.663 63.2628 120.789 63.2053C120.881 63.163 120.957 63.0983 121.054 63.163C121.149 63.2271 121.096 63.3235 121.074 63.3995C121.036 63.5256 120.948 63.5309 120.831 63.4477H120.83Z" fill="#E14B5A"/>
<path d="M115.943 63.0395C116.141 63.3995 115.642 63.3744 115.624 63.6174C115.59 63.5996 115.548 63.589 115.521 63.5626C115.478 63.5197 115.405 63.4701 115.469 63.4014C115.607 63.2535 115.682 63.0184 115.942 63.0389L115.943 63.0395Z" fill="#E14B5A"/>
<path d="M116.571 68.5318C116.804 68.3073 116.971 68.4308 117.126 68.6018C117.2 68.6831 117.178 68.7755 117.093 68.8271C117.011 68.8766 116.848 68.9037 116.851 68.7954C116.856 68.584 116.67 68.6144 116.571 68.5318H116.571Z" fill="#E14B5A"/>
<path d="M120.558 68.9301C120.425 68.7808 120.136 68.829 120.09 68.5563C120.321 68.4975 120.575 68.5067 120.733 68.6547C120.866 68.7795 120.555 68.7973 120.552 68.9347L120.558 68.9301Z" fill="#E14B5A"/>
<path d="M110.991 61.7298C110.79 61.8183 110.634 61.7919 110.498 61.6612C110.435 61.6004 110.286 61.5337 110.386 61.4392C110.457 61.3725 110.665 61.3514 110.697 61.4815C110.739 61.6466 110.897 61.6195 110.992 61.7298H110.991Z" fill="#E14B5A"/>
<path d="M119.529 64.4482C119.438 64.406 119.377 64.4582 119.315 64.4991C119.223 64.5599 119.146 64.5493 119.118 64.439C119.09 64.328 119.168 64.2858 119.265 64.2746C119.351 64.2646 119.437 64.2508 119.523 64.2528C119.609 64.2547 119.71 64.264 119.683 64.3941C119.662 64.4998 119.599 64.505 119.529 64.4476V64.4482Z" fill="#E14B5A"/>
<path d="M114.604 76.9995C114.45 77.3218 114.268 77.6236 113.988 77.8567C114.138 77.5324 114.261 77.1916 114.604 76.9995Z" fill="#4B76C3"/>
<path d="M113.065 60.0411C113.351 60.1454 113.119 60.4004 113.233 60.5589C113.254 60.5873 113.178 60.6249 113.141 60.6058C113.036 60.5516 112.934 60.4677 112.957 60.3462C112.976 60.2471 112.96 60.125 113.065 60.0417V60.0411Z" fill="#E14B5A"/>
<path d="M118.874 66.0274C118.808 66.1674 118.43 66.283 118.336 66.1971C118.316 66.1793 118.307 66.1403 118.307 66.1113C118.307 66.0393 118.362 66.0274 118.419 66.0274C118.569 66.0261 118.719 66.0274 118.874 66.0274Z" fill="#E14B5A"/>
<path d="M111.938 61.9471C112.146 62.0118 112.262 62.097 112.246 62.2806C112.235 62.4127 112.13 62.3922 112.062 62.241C112.024 62.1564 111.99 62.0699 111.939 61.9471H111.938Z" fill="#E14B5A"/>
<path d="M115.515 61.284C115.602 60.8943 115.699 60.792 115.952 60.7689C115.9 61.0013 115.641 61.0245 115.515 61.284Z" fill="#E14B5A"/>
<path d="M109.544 55.5552C109.574 55.6186 109.603 55.6649 109.617 55.7151C109.639 55.7923 109.717 55.861 109.673 55.9469C109.664 55.9627 109.589 55.9581 109.552 55.9436C109.438 55.9007 109.494 55.793 109.48 55.7157C109.472 55.6721 109.517 55.6193 109.544 55.5552Z" fill="#E14B5A"/>
<path d="M111.309 59.2928C111.211 59.1561 111.263 58.9995 111.245 58.8516C111.238 58.7869 111.195 58.7136 111.301 58.7136C111.385 58.7136 111.4 58.7974 111.391 58.8602C111.369 59.0068 111.334 59.1521 111.304 59.2981L111.309 59.2928Z" fill="#E14B5A"/>
<path d="M67.5376 73.2125C67.6354 73.0289 67.7779 72.8822 67.927 72.7402C67.9516 72.7634 67.9762 72.7871 68.0015 72.8102C67.8651 72.9615 67.7293 73.1127 67.5928 73.264C67.5742 73.2468 67.5562 73.2296 67.5376 73.2125Z" fill="#4B76C3"/>
<path d="M115.719 68.2254C115.574 68.1824 115.547 68.0946 115.583 67.9691C115.758 67.9975 115.682 68.1428 115.719 68.2254Z" fill="#E14B5A"/>
<path d="M113.673 61.356C113.745 61.5053 113.656 61.5839 113.606 61.6843C113.528 61.5555 113.594 61.465 113.673 61.356Z" fill="#E14B5A"/>
<path d="M66.709 74.2401C66.7755 74.1536 66.8428 74.067 66.9093 73.9805C66.924 73.9937 66.9393 74.0063 66.9546 74.0182C66.9187 74.1285 66.8508 74.2156 66.7602 74.287C66.7429 74.2711 66.7256 74.2559 66.709 74.2401Z" fill="#4B76C3"/>
<path d="M117.72 66.6489C117.694 66.707 117.662 66.7387 117.612 66.7176C117.565 66.6978 117.498 66.6852 117.503 66.6152C117.507 66.5591 117.553 66.5445 117.599 66.567C117.643 66.5888 117.682 66.6225 117.72 66.6489Z" fill="#E14B5A"/>
<path d="M67.2734 73.5433C67.2954 73.4436 67.37 73.3815 67.4412 73.3174C67.4585 73.3326 67.4758 73.3478 67.4931 73.363C67.4339 73.4376 67.3739 73.5123 67.3147 73.5869C67.3014 73.5724 67.2874 73.5572 67.2734 73.5427V73.5433Z" fill="#4B76C3"/>
<path d="M67.0068 73.8742C67.0162 73.8042 67.0621 73.7613 67.1167 73.7243C67.13 73.7349 67.1433 73.7454 67.1559 73.756C67.1207 73.8082 67.0847 73.8604 67.0494 73.9125C67.0355 73.9 67.0215 73.8868 67.0068 73.8742Z" fill="#4B76C3"/>
<path d="M66.5991 74.3947C66.6357 74.3432 66.6723 74.2916 66.709 74.2408C66.7256 74.2566 66.7429 74.2718 66.7602 74.2877C66.7276 74.3425 66.695 74.3967 66.6617 74.4515C66.6411 74.4323 66.6198 74.4138 66.5991 74.3947Z" fill="#4B76C3"/>
<path d="M112.218 80.9186C112.239 80.8889 112.249 80.8209 112.297 80.8578C112.332 80.8849 112.3 80.9345 112.257 80.9576C112.244 80.9444 112.231 80.9312 112.218 80.9186Z" fill="#4B76C3"/>
<path d="M67.4409 73.3181C67.4729 73.2831 67.5055 73.2475 67.5374 73.2125C67.5561 73.2296 67.574 73.2468 67.5927 73.264C67.5594 73.297 67.5261 73.3307 67.4935 73.3637C67.4762 73.3485 67.4589 73.3333 67.4416 73.3181H67.4409Z" fill="#4B76C3"/>
<path d="M67.1167 73.7243L67.2112 73.614C67.2259 73.6266 67.2405 73.6391 67.2552 73.6517C67.2225 73.686 67.1893 73.721 67.1566 73.7553C67.1433 73.7448 67.1307 73.7342 67.1174 73.7236L67.1167 73.7243Z" fill="#4B76C3"/>
<path d="M66.9089 73.9805C66.9415 73.9449 66.9741 73.9099 67.0067 73.8742C67.0207 73.8868 67.0347 73.9 67.0486 73.9125C67.0167 73.9475 66.9854 73.9825 66.9535 74.0182C66.9382 74.0063 66.9228 73.9937 66.9082 73.9805H66.9089Z" fill="#4B76C3"/>
<path d="M66.5068 74.5023C66.5375 74.466 66.5681 74.4303 66.5987 74.394C66.6193 74.4131 66.6406 74.4316 66.6613 74.4508C66.6353 74.4904 66.6093 74.53 66.5834 74.569C66.5581 74.5465 66.5321 74.5241 66.5068 74.5023Z" fill="#4B76C3"/>
<path d="M116.739 74.6265L116.745 74.6535L116.725 74.6502L116.739 74.6265Z" fill="#4B76C3"/>
<path d="M67.2114 73.6147C67.2321 73.5909 67.2527 73.5678 67.2733 73.544C67.2873 73.5585 67.3006 73.5731 67.3146 73.5876C67.2946 73.6094 67.2753 73.6305 67.2554 73.6523C67.2407 73.6398 67.2261 73.6272 67.2114 73.6147Z" fill="#4B76C3"/>
<path d="M111.304 59.2974C111.318 59.3007 111.331 59.304 111.344 59.3073C111.339 59.3073 111.334 59.3086 111.331 59.3073C111.323 59.3034 111.316 59.2974 111.309 59.2928L111.304 59.2981V59.2974Z" fill="#E14B5A"/>
<path d="M113.019 78.3455L113.095 78.3237C113.086 78.3474 113.078 78.3712 113.069 78.395C113.052 78.3785 113.036 78.362 113.019 78.3455Z" fill="#4B76C3"/>
<path d="M112.257 80.9575C112.237 80.9774 112.202 81.017 112.199 81.0143C112.144 80.9721 112.191 80.947 112.218 80.9186C112.231 80.9311 112.244 80.9443 112.257 80.9575H112.257Z" fill="#4B76C3"/>
<path d="M68.2988 72.7917C68.3261 72.764 68.3527 72.7369 68.38 72.7092C68.426 72.7613 68.406 72.8023 68.3587 72.8393C68.3388 72.8234 68.3188 72.8076 68.2988 72.7917Z" fill="#4B76C3"/>
<path d="M68.3595 72.8393C68.3375 72.8591 68.3036 72.9001 68.2956 72.8954C68.2377 72.8631 68.2776 72.8268 68.2996 72.7917C68.3196 72.8076 68.3395 72.8234 68.3595 72.8393Z" fill="#4B76C3"/>
</g>
<defs>
<clipPath id="clip0_830_305">
<rect width="120" height="52" fill="white" transform="translate(14 44)"/>
</clipPath>
</defs>
</svg>
