<svg width="140" height="140" viewBox="0 0 140 140" fill="none" xmlns="http://www.w3.org/2000/svg">
<rect width="140" height="140" rx="30" fill="url(#paint0_linear_748_3070)"/>
<g clip-path="url(#clip0_748_3070)">
<path d="M29.8532 80C29.5912 80 29.3686 79.8084 29.3384 79.556L28.0399 68.6937L26.8875 74.3953C26.8388 74.632 26.6324 74.7987 26.3843 74.801H26.3797C26.1339 74.801 25.9252 74.6387 25.8742 74.4043L23.8592 65.2593L22.3057 72.4234C22.2547 72.6556 22.0437 72.8223 21.8002 72.8223H14.4637C14.2087 72.8223 14 72.6195 14 72.3716C14 72.1237 14.2087 71.9209 14.4637 71.9209H21.4686L23.3514 63.2356C23.4025 63.0012 23.6088 62.8367 23.8569 62.8367C24.1027 62.8367 24.3114 63.0012 24.3624 63.2333L26.3635 72.3153L27.6388 66.0142C27.6875 65.7686 27.9147 65.6018 28.1674 65.6086C28.4248 65.6176 28.6312 65.8046 28.6613 66.0525L29.8393 75.9075L31.4345 61.4485C31.4624 61.1938 31.6826 61 31.9493 61C32.2136 61 32.4362 61.1938 32.4641 61.4485L33.5005 70.7265L35.1909 65.1286C35.2581 64.9032 35.4715 64.7567 35.7149 64.768C35.9561 64.7815 36.1532 64.9505 36.1972 65.1804L37.4679 71.9592H41.7784C42.0335 71.9592 42.2422 72.162 42.2422 72.4099C42.2422 72.6578 42.0335 72.8606 41.7784 72.8606H37.127C36.8766 72.8606 36.6633 72.6871 36.6169 72.4482L35.5943 66.9968L33.8136 72.9012C33.744 73.1311 33.5144 73.2843 33.271 73.2595C33.0252 73.2392 32.8281 73.0499 32.8026 72.8133L31.9539 65.2165L30.3726 79.5515C30.3447 79.8062 30.1245 80 29.8601 80H29.8578H29.8532Z" fill="white"/>
<path d="M47.5288 66.2306H45.6506C45.5973 65.9308 45.4976 65.6649 45.3538 65.4328C45.21 65.2007 45.0315 65.0024 44.8158 64.8401C44.6025 64.6779 44.3567 64.5539 44.0854 64.4705C43.8118 64.3871 43.5197 64.3466 43.2043 64.3466C42.6455 64.3466 42.1493 64.4818 41.718 64.7545C41.2867 65.0272 40.9482 65.4238 40.7024 65.9466C40.459 66.4695 40.3361 67.1072 40.3361 67.8577C40.3361 68.6081 40.459 69.2662 40.7047 69.789C40.9505 70.3118 41.2891 70.7062 41.7203 70.9699C42.1516 71.2358 42.6432 71.3688 43.1997 71.3688C43.5081 71.3688 43.7956 71.3282 44.0669 71.2493C44.3359 71.1704 44.5793 71.051 44.795 70.8955C45.0106 70.74 45.1938 70.5462 45.3422 70.3186C45.4906 70.091 45.5949 69.8296 45.6506 69.5366L47.5288 69.5456C47.4592 70.0211 47.3062 70.4673 47.0743 70.8842C46.8424 71.3011 46.5387 71.6685 46.163 71.984C45.7874 72.3017 45.3492 72.5496 44.846 72.7254C44.3428 72.9034 43.7863 72.9913 43.1742 72.9913C42.2699 72.9913 41.463 72.7885 40.7534 72.3806C40.0439 71.9727 39.4851 71.3868 39.077 70.6183C38.6689 69.8498 38.4648 68.9304 38.4648 67.8554C38.4648 66.7804 38.6712 65.8565 39.0816 65.0903C39.492 64.324 40.0555 63.7381 40.765 63.3302C41.4746 62.9223 42.2792 62.7195 43.1765 62.7195C43.7492 62.7195 44.2825 62.7984 44.7741 62.9539C45.2657 63.1094 45.7039 63.3392 46.0912 63.6389C46.4761 63.9409 46.7937 64.3083 47.0418 64.7432C47.2923 65.1781 47.4546 65.6739 47.5311 66.2306H47.5288Z" fill="white"/>
<path d="M51.1064 62.8592V72.8561H49.2422V62.8592H51.1064Z" fill="white"/>
<path d="M52.6787 64.3759V62.857H60.887V64.3759H57.708V72.8561H55.86V64.3759H52.681H52.6787Z" fill="white"/>
<path d="M62.5378 72.8561H60.5483L64.1702 62.8592H66.4704L70.0969 72.8561H68.1074L65.3597 64.9077H65.2786L62.5355 72.8561H62.5378ZM62.6027 68.9371H68.0286V70.3929H62.6027V68.9371Z" fill="white"/>
<path d="M74.9642 72.8561V62.8592H78.8226C79.6133 62.8592 80.2764 63.0034 80.8144 63.2896C81.3523 63.5758 81.7581 63.968 82.034 64.4683C82.31 64.9686 82.4491 65.5342 82.4491 66.1697C82.4491 66.8052 82.31 67.3799 82.0317 67.8779C81.7535 68.376 81.3431 68.7681 80.8005 69.0521C80.2579 69.336 79.5901 69.4802 78.7971 69.4802H76.2395V67.9906H78.5444C79.0058 67.9906 79.3837 67.9117 79.6805 67.7562C79.975 67.6007 80.193 67.3844 80.3367 67.1117C80.4805 66.839 80.5501 66.5235 80.5501 66.1697C80.5501 65.8159 80.4782 65.5027 80.3367 65.2322C80.1953 64.9618 79.975 64.7522 79.6782 64.599C79.3814 64.448 79.0011 64.3713 78.5351 64.3713H76.8262V72.8561H74.9619H74.9642Z" fill="white"/>
<path d="M84.0649 72.8561V62.8592H87.9233C88.714 62.8592 89.3772 62.9922 89.9151 63.2603C90.453 63.5263 90.8588 63.9003 91.1348 64.3804C91.4107 64.8604 91.5498 65.4193 91.5498 66.057C91.5498 66.6948 91.4107 67.2537 91.1301 67.7247C90.8496 68.1957 90.4391 68.5585 89.8965 68.8132C89.354 69.0678 88.6885 69.1963 87.8978 69.1963H85.1501V67.6931H87.6474C88.1088 67.6931 88.4868 67.63 88.7836 67.5061C89.078 67.3799 89.296 67.1973 89.4398 66.954C89.5812 66.7106 89.6531 66.4131 89.6531 66.057C89.6531 65.701 89.5812 65.399 89.4374 65.1466C89.2937 64.8942 89.0734 64.7026 88.7789 64.5697C88.4844 64.439 88.1042 64.3713 87.6381 64.3713H85.9292V72.8561H84.0649ZM89.3795 68.3264L91.9254 72.8561H89.8455L87.3436 68.3264H89.3771H89.3795Z" fill="white"/>
<path d="M93.2679 72.8561V62.8592H99.9575V64.3781H95.1299V67.0914H99.6097V68.6103H95.1299V71.3394H99.9969V72.8584H93.2656L93.2679 72.8561Z" fill="white"/>
<path d="M103.236 62.8592L105.914 70.7287H106.021L108.692 62.8592H110.742L107.115 72.8561H104.815L101.193 62.8592H103.238H103.236Z" fill="white"/>
<path d="M113.96 62.8592V72.8561H112.096V62.8592H113.96Z" fill="white"/>
<path d="M117.306 72.8561H115.317L118.939 62.8592H121.239L124.865 72.8561H122.876L120.128 64.9077H120.047L117.304 72.8561H117.306ZM117.371 68.9371H122.797V70.3929H117.371V68.9371Z" fill="white"/>
<path d="M81.9873 79.2135V75.7723H82.6296V78.6907H84.1901V79.2135H81.9896H81.9873Z" fill="white"/>
<path d="M85.4818 79.2653C85.3126 79.2653 85.1618 79.236 85.0274 79.1774C84.8929 79.1188 84.7862 79.031 84.7097 78.916C84.6332 78.8011 84.5938 78.6591 84.5938 78.4901C84.5938 78.3436 84.6216 78.2242 84.6772 78.1295C84.7329 78.0349 84.8071 77.9582 84.9045 77.9019C84.9995 77.8456 85.1085 77.8005 85.2291 77.7712C85.3497 77.7419 85.4749 77.7194 85.6024 77.7058C85.7577 77.6901 85.8853 77.6766 85.9803 77.663C86.0754 77.6495 86.1473 77.6292 86.1914 77.6022C86.2354 77.5751 86.2586 77.5323 86.2586 77.4737V77.4647C86.2586 77.3385 86.2192 77.2394 86.1427 77.1695C86.0661 77.0996 85.9548 77.0658 85.8088 77.0658C85.6557 77.0658 85.5352 77.0974 85.4447 77.1627C85.3543 77.2281 85.294 77.3047 85.2639 77.3926L84.6795 77.3115C84.7259 77.1537 84.8024 77.023 84.9068 76.9171C85.0134 76.8112 85.1433 76.7323 85.2963 76.6782C85.4494 76.6241 85.6186 76.5993 85.8041 76.5993C85.9317 76.5993 86.0592 76.6129 86.1867 76.6422C86.3142 76.6715 86.4302 76.7188 86.5345 76.7864C86.6389 76.854 86.7247 76.9441 86.7873 77.0568C86.8522 77.1717 86.8823 77.3137 86.8823 77.485V79.2135H86.2818V78.8597H86.2609C86.2238 78.9318 86.1705 78.9994 86.1009 79.0603C86.0314 79.1234 85.9456 79.1729 85.8435 79.209C85.7415 79.245 85.6186 79.2653 85.4818 79.2653ZM85.6441 78.8191C85.7693 78.8191 85.8783 78.7943 85.9711 78.747C86.0638 78.6974 86.1357 78.6343 86.1844 78.5532C86.2354 78.4721 86.2586 78.3842 86.2586 78.2895V77.9853C86.24 78.0011 86.2053 78.0146 86.1589 78.0281C86.1125 78.0416 86.0592 78.0529 86.0035 78.0642C85.9456 78.0732 85.8876 78.0822 85.832 78.0912C85.7763 78.098 85.7253 78.1047 85.6859 78.1115C85.5931 78.1228 85.5096 78.143 85.4354 78.1723C85.3612 78.1994 85.3033 78.2399 85.2615 78.2895C85.2198 78.3391 85.1966 78.4045 85.1966 78.4811C85.1966 78.5938 85.2384 78.6771 85.3218 78.7357C85.4053 78.7943 85.5143 78.8214 85.6441 78.8214V78.8191Z" fill="white"/>
<path d="M90.8216 77.316L90.2512 77.3768C90.2349 77.3205 90.2071 77.2687 90.1677 77.2191C90.1283 77.1695 90.0749 77.1289 90.0077 77.0996C89.9404 77.0703 89.8593 77.0546 89.7619 77.0546C89.6321 77.0546 89.5231 77.0816 89.435 77.138C89.3469 77.192 89.3028 77.2642 89.3051 77.352C89.3051 77.4264 89.3329 77.4873 89.3909 77.5346C89.4489 77.5819 89.5463 77.6202 89.6808 77.6495L90.1329 77.7442C90.3833 77.796 90.5711 77.8794 90.694 77.9943C90.8169 78.1092 90.8795 78.258 90.8795 78.4428C90.8795 78.605 90.8285 78.7493 90.7335 78.8732C90.6384 78.9972 90.5039 79.0941 90.3323 79.1639C90.1607 79.2338 89.966 79.2676 89.7434 79.2676C89.4187 79.2676 89.1567 79.2022 88.9573 79.0693C88.7602 78.9363 88.642 78.7515 88.6025 78.5149L89.2124 78.4586C89.2402 78.5757 89.2982 78.6636 89.3886 78.7222C89.479 78.7808 89.595 78.8124 89.7387 78.8124C89.8825 78.8124 90.0077 78.7831 90.0981 78.7222C90.1886 78.6636 90.2349 78.5893 90.2349 78.5014C90.2349 78.427 90.2048 78.3662 90.1468 78.3188C90.0888 78.2715 89.9984 78.2332 89.8755 78.2084L89.4234 78.116C89.1683 78.0642 88.9805 77.9763 88.8576 77.8546C88.7347 77.7329 88.6744 77.5774 88.6767 77.3881C88.6767 77.2281 88.7208 77.0906 88.8112 76.9734C88.9017 76.8563 89.0269 76.7661 89.1892 76.7008C89.3515 76.6354 89.5393 76.6039 89.7503 76.6039C90.061 76.6039 90.3068 76.6692 90.4853 76.7977C90.6639 76.9261 90.7752 77.0996 90.8192 77.3205L90.8216 77.316Z" fill="white"/>
<path d="M92.1596 79.2653C91.9903 79.2653 91.8396 79.236 91.7051 79.1774C91.5706 79.1188 91.4639 79.031 91.3874 78.916C91.3109 78.8011 91.2715 78.6591 91.2715 78.4901C91.2715 78.3436 91.2993 78.2242 91.355 78.1295C91.4106 78.0349 91.4848 77.9582 91.5822 77.9019C91.6773 77.8456 91.7862 77.8005 91.9068 77.7712C92.0274 77.7419 92.1526 77.7194 92.2801 77.7058C92.4355 77.6901 92.563 77.6766 92.6581 77.663C92.7532 77.6495 92.825 77.6292 92.8691 77.6022C92.9131 77.5751 92.9363 77.5323 92.9363 77.4737V77.4647C92.9363 77.3385 92.8969 77.2394 92.8204 77.1695C92.7439 77.0996 92.6326 77.0658 92.4865 77.0658C92.3335 77.0658 92.2129 77.0974 92.1225 77.1627C92.032 77.2281 91.9717 77.3047 91.9416 77.3926L91.3573 77.3115C91.4037 77.1537 91.4802 77.023 91.5845 76.9171C91.6912 76.8112 91.821 76.7323 91.9741 76.6782C92.1271 76.6241 92.2964 76.5993 92.4819 76.5993C92.6094 76.5993 92.7369 76.6129 92.8645 76.6422C92.992 76.6715 93.1079 76.7188 93.2123 76.7864C93.3166 76.854 93.4024 76.9441 93.465 77.0568C93.5299 77.1717 93.5601 77.3137 93.5601 77.485V79.2135H92.9595V78.8597H92.9387C92.9016 78.9318 92.8482 78.9994 92.7787 79.0603C92.7091 79.1234 92.6233 79.1729 92.5213 79.209C92.4193 79.245 92.2964 79.2653 92.1596 79.2653ZM92.3219 78.8191C92.4471 78.8191 92.5561 78.7943 92.6488 78.747C92.7416 78.6974 92.8134 78.6343 92.8621 78.5532C92.9131 78.4721 92.9363 78.3842 92.9363 78.2895V77.9853C92.9178 78.0011 92.883 78.0146 92.8366 78.0281C92.7903 78.0416 92.7369 78.0529 92.6813 78.0642C92.6233 78.0732 92.5653 78.0822 92.5097 78.0912C92.454 78.098 92.403 78.1047 92.3636 78.1115C92.2709 78.1228 92.1874 78.143 92.1132 78.1723C92.039 78.1994 91.981 78.2399 91.9393 78.2895C91.8975 78.3391 91.8744 78.4045 91.8744 78.4811C91.8744 78.5938 91.9161 78.6771 91.9996 78.7357C92.083 78.7943 92.192 78.8214 92.3219 78.8214V78.8191Z" fill="white"/>
<path d="M94.8189 75.7723V79.2135H94.1929V75.7723H94.8189Z" fill="white"/>
<path d="M97.1565 78.1295V76.6331H97.7826V79.2135H97.1751V78.7538H97.1473C97.087 78.898 96.9896 79.0174 96.8528 79.1076C96.716 79.2 96.549 79.2451 96.3496 79.2451C96.1757 79.2451 96.0227 79.2067 95.8882 79.1324C95.756 79.0558 95.6517 78.9453 95.5752 78.8011C95.4987 78.6569 95.4639 78.4811 95.4639 78.2738V76.6309H96.0899V78.1814C96.0899 78.3459 96.1363 78.4743 96.2291 78.5712C96.3218 78.6681 96.4424 78.7155 96.5931 78.7155C96.6858 78.7155 96.774 78.6929 96.8621 78.6501C96.9479 78.6073 97.0197 78.5419 97.0754 78.454C97.131 78.3662 97.1589 78.258 97.1589 78.1273L97.1565 78.1295Z" fill="white"/>
<path d="M99.4102 79.2586C99.2016 79.2586 99.0137 79.2067 98.8491 79.1031C98.6845 78.9994 98.5546 78.8484 98.4572 78.6501C98.3622 78.4518 98.3135 78.2107 98.3135 77.9267C98.3135 77.6428 98.3622 77.3971 98.4596 77.1988C98.5569 77.0005 98.6891 76.8517 98.8537 76.7503C99.0207 76.6489 99.2039 76.5993 99.4079 76.5993C99.5633 76.5993 99.6908 76.6241 99.7928 76.676C99.8925 76.7278 99.9737 76.7886 100.032 76.8585C100.09 76.9306 100.136 76.996 100.168 77.0591H100.194V75.7723H100.822V79.2135H100.208V78.8079H100.171C100.138 78.871 100.092 78.9363 100.032 79.0062C99.9714 79.076 99.8902 79.1369 99.7905 79.1842C99.6908 79.2315 99.5633 79.2586 99.4126 79.2586H99.4102ZM99.5841 78.7605C99.7163 78.7605 99.8299 78.7245 99.9227 78.6546C100.015 78.5848 100.087 78.4879 100.136 78.3616C100.185 78.2354 100.208 78.089 100.208 77.9222C100.208 77.7554 100.185 77.6112 100.136 77.4873C100.087 77.3633 100.018 77.2687 99.925 77.1988C99.8322 77.1289 99.7186 77.0974 99.5841 77.0974C99.4497 77.0974 99.3291 77.1334 99.234 77.2033C99.1413 77.2732 99.0694 77.3723 99.023 77.4963C98.9766 77.6202 98.9511 77.7622 98.9511 77.9222C98.9511 78.0822 98.9743 78.2264 99.023 78.3526C99.0717 78.4788 99.1413 78.578 99.2363 78.6501C99.3291 78.7222 99.445 78.7583 99.5841 78.7583V78.7605Z" fill="white"/>
<path d="M103.689 79.2586C103.48 79.2586 103.292 79.2067 103.127 79.1031C102.963 78.9994 102.833 78.8484 102.736 78.6501C102.64 78.4518 102.592 78.2107 102.592 77.9267C102.592 77.6428 102.64 77.3971 102.738 77.1988C102.835 77.0005 102.967 76.8517 103.132 76.7503C103.299 76.6489 103.482 76.5993 103.686 76.5993C103.842 76.5993 103.969 76.6241 104.071 76.676C104.171 76.7278 104.252 76.7886 104.31 76.8585C104.368 76.9306 104.414 76.996 104.447 77.0591H104.472V75.7723H105.101V79.2135H104.486V78.8079H104.449C104.417 78.871 104.37 78.9363 104.31 79.0062C104.25 79.076 104.169 79.1369 104.069 79.1842C103.969 79.2315 103.842 79.2586 103.691 79.2586H103.689ZM103.862 78.7605C103.995 78.7605 104.108 78.7245 104.201 78.6546C104.294 78.5848 104.366 78.4879 104.414 78.3616C104.463 78.2354 104.486 78.089 104.486 77.9222C104.486 77.7554 104.463 77.6112 104.414 77.4873C104.366 77.3633 104.296 77.2687 104.203 77.1988C104.111 77.1289 103.997 77.0974 103.862 77.0974C103.728 77.0974 103.607 77.1334 103.512 77.2033C103.42 77.2732 103.348 77.3723 103.301 77.4963C103.255 77.6202 103.229 77.7622 103.229 77.9222C103.229 78.0822 103.253 78.2264 103.301 78.3526C103.35 78.4788 103.42 78.578 103.515 78.6501C103.607 78.7222 103.723 78.7583 103.862 78.7583V78.7605Z" fill="white"/>
<path d="M106.948 79.2653C106.682 79.2653 106.452 79.2112 106.26 79.1031C106.067 78.9949 105.919 78.8417 105.815 78.6433C105.71 78.445 105.659 78.2106 105.659 77.9402C105.659 77.6698 105.71 77.4422 105.815 77.2394C105.919 77.0388 106.065 76.881 106.253 76.7684C106.441 76.6557 106.661 76.5993 106.916 76.5993C107.081 76.5993 107.234 76.6241 107.38 76.676C107.526 76.7278 107.656 76.8067 107.767 76.9126C107.878 77.0185 107.969 77.1537 108.031 77.3182C108.096 77.4827 108.129 77.6766 108.129 77.9042V78.0912H105.951V77.6811H107.528C107.528 77.5639 107.5 77.4602 107.449 77.3701C107.398 77.2777 107.329 77.2078 107.238 77.1537C107.148 77.1019 107.043 77.0748 106.923 77.0748C106.795 77.0748 106.682 77.1041 106.587 77.165C106.489 77.2258 106.415 77.3025 106.362 77.3994C106.308 77.4963 106.281 77.6022 106.281 77.7171V78.0754C106.281 78.2264 106.308 78.3549 106.366 78.4608C106.422 78.569 106.501 78.6501 106.603 78.7064C106.705 78.7628 106.823 78.7921 106.96 78.7921C107.05 78.7921 107.134 78.7786 107.208 78.7538C107.282 78.729 107.345 78.6907 107.401 78.6411C107.454 78.5915 107.496 78.5307 107.523 78.4585L108.108 78.5216C108.071 78.6726 108.001 78.8033 107.897 78.9138C107.792 79.0242 107.663 79.1121 107.503 79.1729C107.343 79.2338 107.159 79.2653 106.953 79.2653H106.948Z" fill="white"/>
<path d="M109.283 75.7723V79.2135H108.657V75.7723H109.283Z" fill="white"/>
<path d="M112.481 76.6331V77.1041H110.911V76.6331H112.481ZM111.303 79.2135V76.3875C111.303 76.214 111.34 76.0697 111.414 75.9548C111.488 75.8399 111.588 75.752 111.713 75.6957C111.839 75.6393 111.978 75.61 112.131 75.61C112.24 75.61 112.335 75.619 112.421 75.6348C112.504 75.6506 112.567 75.6664 112.608 75.6799L112.483 76.1509C112.458 76.1441 112.423 76.1351 112.384 76.1261C112.344 76.1171 112.298 76.1126 112.249 76.1126C112.133 76.1126 112.05 76.1396 112.003 76.1937C111.955 76.2478 111.931 76.3267 111.931 76.4258V79.2112H111.303V79.2135Z" fill="white"/>
<path d="M114.665 78.1295V76.6331H115.291V79.2135H114.684V78.7538H114.656C114.596 78.898 114.498 79.0174 114.362 79.1076C114.225 79.2 114.058 79.2451 113.858 79.2451C113.685 79.2451 113.531 79.2067 113.397 79.1324C113.265 79.0558 113.16 78.9453 113.084 78.8011C113.007 78.6569 112.973 78.4811 112.973 78.2738V76.6309H113.599V78.1814C113.599 78.3459 113.645 78.4743 113.738 78.5712C113.831 78.6681 113.951 78.7155 114.102 78.7155C114.195 78.7155 114.283 78.6929 114.371 78.6501C114.457 78.6073 114.529 78.5419 114.584 78.454C114.64 78.3662 114.668 78.258 114.668 78.1273L114.665 78.1295Z" fill="white"/>
<path d="M117.262 76.6332V77.1042H115.736V76.6332H117.262ZM116.112 76.0157H116.738V78.4383C116.738 78.5194 116.752 78.5825 116.777 78.6253C116.803 78.6681 116.838 78.6974 116.879 78.7132C116.921 78.729 116.97 78.7358 117.021 78.7358C117.06 78.7358 117.095 78.7335 117.13 78.7267C117.162 78.7222 117.188 78.7155 117.204 78.711L117.311 79.1865C117.278 79.1977 117.23 79.209 117.167 79.2225C117.104 79.236 117.03 79.2428 116.942 79.2451C116.784 79.2496 116.643 79.227 116.518 79.1752C116.393 79.1234 116.293 79.0445 116.219 78.9363C116.144 78.8281 116.11 78.6952 116.11 78.5329V76.0089L116.112 76.0157Z" fill="white"/>
<path d="M119.479 78.1295V76.6331H120.105V79.2135H119.497V78.7538H119.47C119.409 78.898 119.312 79.0174 119.175 79.1076C119.038 79.2 118.871 79.2451 118.672 79.2451C118.498 79.2451 118.345 79.2067 118.21 79.1324C118.078 79.0558 117.974 78.9453 117.897 78.8011C117.821 78.6569 117.786 78.4811 117.786 78.2738V76.6309H118.412V78.1814C118.412 78.3459 118.459 78.4743 118.551 78.5712C118.644 78.6681 118.765 78.7155 118.915 78.7155C119.008 78.7155 119.096 78.6929 119.184 78.6501C119.27 78.6073 119.342 78.5419 119.398 78.454C119.453 78.3662 119.481 78.258 119.481 78.1273L119.479 78.1295Z" fill="white"/>
<path d="M120.747 79.2135V76.6331H121.355V77.0636H121.382C121.431 76.9148 121.515 76.7999 121.633 76.7188C121.751 76.6376 121.886 76.5971 122.039 76.5971C122.073 76.5971 122.113 76.5971 122.155 76.6016C122.199 76.6038 122.233 76.6083 122.264 76.6151V77.174C122.238 77.165 122.196 77.156 122.138 77.1492C122.08 77.1424 122.027 77.1379 121.974 77.1379C121.86 77.1379 121.758 77.1627 121.668 77.2101C121.577 77.2574 121.505 77.3227 121.454 77.4084C121.403 77.4918 121.375 77.5887 121.375 77.6991V79.2157H120.749L120.747 79.2135Z" fill="white"/>
<path d="M123.727 79.2653C123.467 79.2653 123.242 79.209 123.052 79.0986C122.862 78.9881 122.713 78.8326 122.609 78.6321C122.505 78.4315 122.454 78.1994 122.454 77.9335C122.454 77.6675 122.505 77.4332 122.609 77.2326C122.713 77.032 122.859 76.8765 123.052 76.7661C123.244 76.6557 123.467 76.5993 123.727 76.5993C123.986 76.5993 124.211 76.6557 124.401 76.7661C124.591 76.8765 124.74 77.032 124.844 77.2326C124.949 77.4332 125 77.6675 125 77.9335C125 78.1994 124.946 78.4338 124.844 78.6321C124.74 78.8304 124.594 78.9859 124.401 79.0986C124.209 79.2112 123.986 79.2653 123.727 79.2653ZM123.731 78.7786C123.873 78.7786 123.989 78.7402 124.084 78.6659C124.179 78.5893 124.248 78.4878 124.295 78.3616C124.341 78.2332 124.364 78.0912 124.364 77.9357C124.364 77.7802 124.341 77.6337 124.295 77.5053C124.248 77.3768 124.176 77.2754 124.084 77.1988C123.989 77.1222 123.87 77.0839 123.731 77.0839C123.592 77.0839 123.467 77.1222 123.372 77.1988C123.277 77.2754 123.205 77.3768 123.159 77.5053C123.112 77.6337 123.089 77.7757 123.089 77.9357C123.089 78.0957 123.112 78.2354 123.159 78.3616C123.205 78.4901 123.277 78.5915 123.372 78.6659C123.467 78.7402 123.587 78.7786 123.731 78.7786Z" fill="white"/>
</g>
<defs>
<linearGradient id="paint0_linear_748_3070" x1="131" y1="6.99999" x2="8.5" y2="130" gradientUnits="userSpaceOnUse">
<stop stop-color="#BAE6E6"/>
<stop offset="1" stop-color="#3DD6E8"/>
</linearGradient>
<clipPath id="clip0_748_3070">
<rect width="111" height="19" fill="white" transform="translate(14 61)"/>
</clipPath>
</defs>
</svg>
