<svg width="140" height="140" viewBox="0 0 140 140" fill="none" xmlns="http://www.w3.org/2000/svg">
<rect width="140" height="140" rx="30" fill="white"/>
<g clip-path="url(#clip0_3599_869)">
<path d="M103.515 53.835C103.325 48.345 98.815 43.995 93.32 44H89.675C89.935 42.755 90.075 41.47 90.075 40.155C90.075 29.575 81.175 21 70.2 21C59.225 21 50.325 29.575 50.325 40.155C50.325 41.47 50.465 42.755 50.725 44H47.195C41.725 44.01 37.24 48.415 37.035 53.885L35.005 108.46C34.79 114.23 39.41 119.02 45.185 119.02H95.215C100.98 119.02 105.595 114.245 105.395 108.49L103.515 53.835ZM74.755 64.165V85.68H65.645V64.165H61.64V85.68H51.885V65.135C51.85 64.805 51.835 64.47 51.835 64.13C51.835 60.18 54.16 56.745 57.59 54.965C59.18 54.14 61.005 53.67 62.945 53.67C63.15 53.67 63.355 53.675 63.56 53.69C64.99 53.76 66.35 54.09 67.59 54.625C67.68 54.665 67.765 54.705 67.85 54.75C68.535 55.105 69.225 55.525 69.93 56C70.025 56.065 70.11 56.14 70.2 56.21C70.29 56.14 70.375 56.065 70.47 56C71.175 55.525 71.865 55.105 72.55 54.75C72.635 54.705 72.72 54.665 72.81 54.625C74.05 54.09 75.41 53.76 76.84 53.69C77.045 53.675 77.25 53.67 77.455 53.67C79.395 53.67 81.22 54.14 82.81 54.965C86.24 56.745 88.565 60.18 88.565 64.13C88.565 64.47 88.55 64.805 88.515 65.135V85.68H78.76V64.165H74.755ZM56.425 40.315C56.425 32.705 62.59 26.535 70.2 26.535C77.81 26.535 83.975 32.705 83.975 40.315C83.975 41.59 83.8 42.83 83.47 44H56.93C56.6 42.83 56.425 41.59 56.425 40.315ZM88.895 91.35C88.895 101.675 80.525 110.045 70.2 110.045C59.875 110.045 51.505 101.675 51.505 91.35V91.115H61.39C61.375 91.305 61.37 91.495 61.37 91.685C61.37 96.56 65.325 100.515 70.2 100.515C75.075 100.515 79.03 96.56 79.03 91.685C79.03 91.495 79.025 91.305 79.01 91.115H88.895V91.35Z" fill="#E60047"/>
</g>
<defs>
<clipPath id="clip0_3599_869">
<rect width="70.405" height="98.02" fill="white" transform="translate(35 21)"/>
</clipPath>
</defs>
</svg>
