<svg width="140" height="140" viewBox="0 0 140 140" fill="none" xmlns="http://www.w3.org/2000/svg">
<rect width="140" height="140" rx="30" fill="#23408E"/>
<g clip-path="url(#clip0_846_3754)">
<path d="M126.95 69.424C126.954 69.456 126.958 69.487 126.96 69.519C126.96 69.486 126.957 69.454 126.95 69.424ZM126.641 67.7396C126.706 67.9966 126.764 68.2536 126.812 68.5096H126.82C126.808 68.4233 126.804 68.3505 126.785 68.2827C126.735 68.1023 126.693 67.919 126.641 67.7396Z" fill="white"/>
<path d="M126.961 69.5268C126.961 69.5268 126.961 69.5219 126.96 69.519C126.958 69.487 126.954 69.456 126.95 69.424C126.919 69.1195 126.872 68.815 126.813 68.5096C126.764 68.2536 126.706 67.9966 126.641 67.7396C126.592 67.5719 126.536 67.408 126.455 67.2499C126.295 66.9348 126.171 66.5993 125.994 66.2938C125.419 65.2989 124.638 64.5212 123.571 64.0461C123.042 63.8104 122.492 63.6524 121.918 63.6107C121.272 63.5641 120.631 63.6223 119.997 63.7852C118.856 64.079 117.947 64.7006 117.252 65.6451C117.199 65.7169 117.163 65.8148 117.024 65.8468C116.975 65.1922 116.926 64.5552 116.876 63.8948C115.916 63.8793 114.984 63.8696 114.033 63.8987C114.033 64.017 114.03 64.1033 114.033 64.1896C114.063 65.0992 114.119 66.0087 114.121 66.9183C114.13 71.824 114.125 76.7307 114.125 81.6364C114.125 81.6926 114.128 81.7489 114.125 81.8051C114.119 81.9292 114.182 81.9816 114.299 81.9825C114.331 81.9825 114.364 81.9874 114.396 81.9874C115.333 81.9922 116.269 81.9971 117.206 82C117.252 82 117.299 81.9825 117.362 81.969C117.368 81.8865 117.381 81.808 117.381 81.7295C117.379 80.0945 117.376 78.4587 117.374 76.8238C117.374 76.4126 117.374 76.0015 117.377 75.5913C117.378 75.5166 117.355 75.4313 117.444 75.3624C117.486 75.409 117.526 75.4468 117.558 75.4895C117.852 75.8832 118.219 76.1905 118.646 76.433C119.738 77.0526 120.912 77.1438 122.12 76.9489C122.482 76.8897 122.83 76.7413 123.181 76.6221C123.691 76.4485 124.142 76.1644 124.56 75.8318C125.191 75.3275 125.694 74.7127 126.067 73.9952C126.279 73.5869 126.449 73.1641 126.592 72.7258C126.624 72.6289 126.654 72.5329 126.684 72.4359C126.685 72.4339 126.685 72.433 126.685 72.431C126.991 71.471 127.053 70.5013 126.961 69.5268ZM123.22 72.5726C123.022 73.0458 122.747 73.4696 122.358 73.8129C121.903 74.2133 121.373 74.4519 120.77 74.5188C119.996 74.6051 119.278 74.4558 118.638 73.9903C118.053 73.5656 117.682 73.0002 117.496 72.305C117.414 71.9995 117.373 71.6902 117.374 71.375C117.375 71.0521 117.374 70.7302 117.374 70.4082H117.394C117.394 69.9573 117.346 69.5006 117.403 69.0575C117.521 68.1527 117.883 67.3576 118.626 66.7758C119.065 66.4325 119.564 66.2444 120.114 66.192C120.833 66.1222 121.518 66.224 122.118 66.6613C122.542 66.9697 122.873 67.3585 123.11 67.8289C123.472 68.5484 123.615 69.3173 123.637 70.1154C123.659 70.961 123.549 71.7872 123.22 72.5726Z" fill="white"/>
<path d="M78.2478 76.7316H75.3252C75.2563 76.2555 75.1894 75.791 75.1147 75.2751C75.0138 75.3682 74.9517 75.4157 74.9012 75.4739C74.4102 76.0422 73.8009 76.432 73.1042 76.7035C72.0921 77.0972 71.0549 77.1534 70.0147 76.8877C68.8445 76.5891 67.9858 75.8754 67.4957 74.768C67.2182 74.1425 67.0999 73.4754 67.194 72.7859C67.2231 72.5706 67.2532 72.3554 67.2988 72.143C67.5511 70.9658 68.2594 70.128 69.2724 69.519C70.0292 69.0642 70.8589 68.814 71.7147 68.6279C72.3958 68.4795 73.0857 68.4184 73.7805 68.3913C74.0541 68.3806 74.3287 68.3709 74.6023 68.3593C74.6654 68.3563 74.7275 68.3457 74.8032 68.3369C74.8517 67.9791 74.8168 67.6388 74.7033 67.3091C74.4393 66.5382 73.8591 66.1319 73.0916 65.9719C72.5501 65.8584 72.0029 65.8923 71.4537 65.9466C70.9675 65.9951 70.4969 66.0989 70.038 66.2521C69.7411 66.351 69.4548 66.4839 69.1666 66.607C69.0347 66.6633 68.9076 66.7321 68.762 66.8039C68.728 66.735 68.6931 66.6826 68.6757 66.6245C68.5 66.064 68.3254 65.5025 68.1546 64.9401C68.0896 64.7239 68.1022 64.7074 68.306 64.6056C69.0162 64.2506 69.7546 63.9772 70.5367 63.8259C71.4673 63.6456 72.4065 63.536 73.3526 63.6126C74.4102 63.6979 75.4242 63.9413 76.2926 64.6046C76.6691 64.8926 76.9835 65.2329 77.2377 65.6296C77.5279 66.0814 77.7103 66.5779 77.8549 67.0928C78.0373 67.7445 78.079 68.4106 78.0809 69.0788C78.0877 70.6972 78.0732 72.3166 78.0809 73.936C78.0848 74.7893 78.0887 75.6436 78.2333 76.4892C78.2449 76.56 78.242 76.6327 78.2478 76.7316ZM74.8993 71.6009C74.8993 71.6009 74.9002 71.6009 74.9012 71.6009C74.9012 71.3275 74.9012 71.0531 74.9012 70.7796C74.9012 70.4771 74.8867 70.4519 74.5926 70.4654C74.1094 70.4877 73.6243 70.5062 73.1449 70.5624C72.6074 70.6254 72.0786 70.7515 71.5924 71.0007C71.1053 71.2509 70.7026 71.5913 70.5202 72.1275C70.3378 72.6647 70.3475 73.2068 70.56 73.7343C70.6192 73.8807 70.7104 74.0203 70.8113 74.1425C71.1635 74.5634 71.6516 74.7059 72.1707 74.7253C72.8373 74.7505 73.4545 74.5614 73.9707 74.1338C74.5548 73.6489 74.9148 73.04 74.8993 72.2526C74.8954 72.0354 74.8993 71.8182 74.8993 71.6V71.6009Z" fill="white"/>
<path d="M65.8339 71.2364C65.5943 71.2364 65.3692 71.2364 65.144 71.2364C62.5999 71.2354 60.0557 71.2344 57.5115 71.2325C57.4708 71.2325 57.431 71.2296 57.3902 71.2325C57.2398 71.2422 57.201 71.2752 57.2146 71.4274C57.3019 72.4349 57.7017 73.2718 58.5634 73.8517C59.3348 74.3704 60.1983 74.5595 61.1133 74.5634C62.0604 74.5673 63.0026 74.5246 63.9176 74.2444C64.1252 74.1804 64.3367 74.1261 64.5473 74.0698C64.6084 74.0534 64.6725 74.0475 64.7491 74.0349C64.7734 74.1028 64.8015 74.16 64.8141 74.2201C64.9306 74.7632 65.0441 75.3072 65.1586 75.8502C65.1722 75.9132 65.1887 75.9763 65.1964 76.0393C65.2207 76.2187 65.21 76.2429 65.0334 76.306C64.1951 76.6027 63.3422 76.8296 62.4553 76.9401C61.7062 77.0332 60.9571 77.0536 60.2071 77.0245C59.1029 76.9828 58.0471 76.7229 57.0778 76.1847C56.0085 75.5903 55.2264 74.7215 54.7093 73.6131C54.3095 72.7588 54.1465 71.8551 54.1009 70.9212C54.0485 69.8381 54.1804 68.7811 54.5472 67.76C54.9693 66.5818 55.6398 65.5763 56.6441 64.8044C57.43 64.1993 58.3159 63.8483 59.2901 63.6883C60.3051 63.5215 61.3026 63.5797 62.2835 63.8774C63.2151 64.1595 63.9758 64.6958 64.5822 65.4541C65.1683 66.1872 65.5176 67.0289 65.734 67.9317C65.9814 68.9634 65.9834 70.0068 65.8766 71.0541C65.8718 71.1006 65.8563 71.1472 65.8349 71.2374L65.8339 71.2364ZM62.8308 68.9401C62.8463 68.8839 62.857 68.8606 62.858 68.8374C62.8735 68.1363 62.7318 67.4711 62.3379 66.8834C61.9837 66.354 61.4947 66.0058 60.8572 65.8778C60.4797 65.8022 60.1062 65.8148 59.7268 65.8623C58.9913 65.9544 58.4295 66.3278 57.9889 66.8989C57.5921 67.4129 57.3573 67.9995 57.2573 68.6405C57.2428 68.7326 57.2282 68.8247 57.2107 68.9411H62.8318L62.8308 68.9401Z" fill="white"/>
<path d="M89.167 66.2957V63.9006C89.7657 63.8424 90.3614 63.9219 90.9766 63.8608C91.0135 63.0763 90.9795 62.2986 91.0038 61.5132C92.0517 61.2087 93.0861 60.9081 94.1505 60.5997C94.2 60.8402 94.1719 61.0545 94.1758 61.2669C94.1806 61.4841 94.1767 61.7023 94.1767 61.9195C94.1767 62.1289 94.1767 62.3384 94.1767 62.5479C94.1767 62.7651 94.1767 62.9832 94.1767 63.2005C94.1767 63.4167 94.1767 63.6329 94.1767 63.8822H97.2711V66.3016C96.2425 66.3074 95.2305 66.3142 94.1922 66.32C94.1835 66.4218 94.1699 66.5071 94.1699 66.5925C94.1699 68.3641 94.1728 70.1367 94.1748 71.9083C94.1748 72.368 94.2 72.8218 94.3281 73.2708C94.5406 74.0136 94.9879 74.3229 95.7283 74.3849C96.1494 74.4208 96.5666 74.3704 96.9751 74.2579C97.012 74.2472 97.0518 74.2453 97.1061 74.2376C97.1168 74.2851 97.1313 74.3209 97.1323 74.3578C97.1488 75.0337 97.1634 75.7105 97.1779 76.3864C97.1789 76.4426 97.1769 76.4989 97.176 76.5551C97.174 76.655 97.1342 76.7209 97.0304 76.7491C96.8674 76.7927 96.7083 76.8596 96.5433 76.8906C95.738 77.0409 94.9258 77.103 94.1107 76.9866C92.6359 76.7752 91.5869 75.9132 91.2357 74.4354C91.0688 73.7343 90.9931 73.0264 90.995 72.3059C91.0009 70.4053 90.996 68.5047 90.995 66.6031C90.995 66.5711 90.997 66.5382 90.995 66.5062C90.9853 66.3423 90.9621 66.3132 90.7903 66.3083C90.5807 66.3025 90.3702 66.3074 90.1606 66.3083C89.918 66.3093 89.6764 66.3122 89.4338 66.3122C89.3552 66.3122 89.2756 66.3035 89.1641 66.2967L89.167 66.2957Z" fill="white"/>
<path d="M46.2615 74.0019C46.2721 74.032 46.2915 74.0669 46.2983 74.1038C46.4206 74.7602 46.5409 75.4177 46.6612 76.0742C46.7127 76.3535 46.7185 76.3816 46.4458 76.465C45.9228 76.6259 45.3959 76.7888 44.8594 76.8936C44.1374 77.0342 43.4019 77.0613 42.6655 77.0313C41.5263 76.9857 40.4425 76.7258 39.4489 76.1595C38.3437 75.5292 37.5286 74.6313 37.0163 73.4608C36.4438 72.1537 36.3041 70.7903 36.4884 69.393C36.6456 68.2002 37.0629 67.0977 37.8158 66.1435C38.2175 65.6354 38.6852 65.1961 39.2257 64.8305C39.7856 64.4514 40.3843 64.1518 41.0285 63.9656C42.2744 63.6048 43.5446 63.4817 44.8351 63.6941C45.4328 63.792 46.0296 63.8919 46.5885 64.1411C46.6244 64.1576 46.6603 64.175 46.7185 64.2022C46.5875 65.0109 46.3342 65.7905 46.1751 66.6022C46.1188 66.5954 46.0849 66.5983 46.0596 66.5867C45.5366 66.3278 44.9719 66.2502 44.4023 66.1678C43.6756 66.063 42.9643 66.1338 42.2783 66.3588C41.339 66.6652 40.6491 67.2819 40.2077 68.1721C39.7691 69.0555 39.7011 69.9893 39.7953 70.9513C39.8467 71.4798 39.9864 71.9772 40.2241 72.4514C40.5085 73.0206 40.916 73.4802 41.4477 73.8245C42.256 74.3491 43.1526 74.5227 44.1054 74.4635C44.7963 74.4208 45.4619 74.2705 46.1062 74.0223C46.1363 74.0107 46.1673 74.001 46.1984 73.9942C46.2129 73.9913 46.2294 73.9971 46.2595 74.001L46.2615 74.0019Z" fill="white"/>
<path d="M51.8529 76.7336H48.6013C48.5936 76.6618 48.581 76.5939 48.58 76.5251C48.5742 75.9287 48.5684 75.3333 48.5684 74.737C48.5684 69.6868 48.5684 64.6356 48.5684 59.5855C48.5684 59.1743 48.5752 58.7641 48.5781 58.353C48.5781 58.2492 48.5781 58.1464 48.5781 58.0514C48.7838 57.9942 51.5851 57.9825 51.8529 58.033V76.7345V76.7336Z" fill="white"/>
<path d="M83.8509 66.3326C83.9111 66.2133 83.977 66.0979 84.0285 65.9757C84.2914 65.3542 84.6844 64.8296 85.2123 64.4107C85.9487 63.825 86.7832 63.534 87.7322 63.6077C87.7564 63.6097 87.7807 63.6107 87.8049 63.6136C88.1407 63.6523 88.1436 63.6553 88.1436 64.0014C88.1436 64.7995 88.1436 65.5966 88.1416 66.3947C88.1416 66.4887 88.1319 66.5828 88.1261 66.6759C87.7807 66.6662 87.4595 66.6507 87.1383 66.6507C86.2854 66.6507 85.5558 66.9493 84.9988 67.599C84.8028 67.8279 84.6378 68.0984 84.5195 68.3757C84.3137 68.8596 84.1973 69.3707 84.1963 69.903C84.1963 71.5951 84.1944 73.2863 84.1915 74.9784C84.1915 75.5185 84.1866 76.0577 84.1828 76.5978C84.1828 76.6376 84.176 76.6763 84.1692 76.7442C83.097 76.751 82.0287 76.7617 80.9438 76.7374C80.8992 72.4456 80.9953 68.1876 80.8662 63.8996C81.7948 63.8783 82.7088 63.8696 83.6539 63.9006C83.6763 64.3253 83.7015 64.7248 83.717 65.1243C83.7316 65.5229 83.717 65.9234 83.7665 66.32C83.7946 66.3248 83.8228 66.3297 83.8509 66.3345V66.3326Z" fill="white"/>
<path d="M99.013 63.8968H101.816C101.826 64.0024 101.839 64.0888 101.842 64.176C101.866 64.7801 101.885 65.3833 101.91 65.9874C101.915 66.097 101.939 66.2056 102 66.3258C102.031 66.2764 102.068 66.2298 102.091 66.1775C102.316 65.6655 102.587 65.1826 102.976 64.7734C103.555 64.1644 104.252 63.7591 105.087 63.634C105.395 63.5874 105.716 63.6078 106.029 63.6252C106.304 63.6408 106.322 63.6786 106.323 63.954C106.325 64.7191 106.325 65.4851 106.326 66.2502C106.326 66.4005 106.326 66.5498 106.326 66.7215C106.211 66.7069 106.124 66.6953 106.038 66.6856C105.546 66.6313 105.054 66.609 104.57 66.7341C103.544 66.9988 102.901 67.6669 102.574 68.6551C102.391 69.2117 102.338 69.7867 102.339 70.3704C102.342 72.4088 102.339 74.4471 102.337 76.4854C102.337 76.5571 102.337 76.6289 102.337 76.6938C102.143 76.7559 99.4429 76.7724 99.1129 76.7161C99.1081 76.6444 99.0994 76.5668 99.0994 76.4892C99.1003 73.4434 99.111 70.3986 99.1003 67.3528C99.0965 66.2987 99.0421 65.2437 99.0111 64.1896C99.0081 64.1023 99.0111 64.016 99.0111 63.8987L99.013 63.8968Z" fill="white"/>
<path d="M111.156 76.7316H107.961C107.961 76.7316 107.952 76.7239 107.946 76.7181C107.94 76.7122 107.933 76.7064 107.932 76.6996C107.926 76.6676 107.918 76.6366 107.918 76.6046C107.918 72.4087 107.918 68.2129 107.918 64.017C107.918 63.9859 107.927 63.9549 107.931 63.9268C108.171 63.8657 110.898 63.8686 111.155 63.9316V76.7316H111.156Z" fill="white"/>
<path d="M109.528 58.5265C109.824 58.5139 110.121 58.5799 110.402 58.7147C111.008 59.0036 111.301 59.5079 111.347 60.1556C111.433 61.3445 110.503 62.0912 109.37 62.0281C108.285 61.968 107.465 60.9547 107.781 59.7804C107.991 58.9998 108.758 58.5004 109.529 58.5265H109.528Z" fill="white"/>
<path d="M29.5239 58H13.5185C12.6799 58 12 58.6794 12 59.5176V75.7416C12 76.5797 12.6799 77.2591 13.5185 77.2591H29.5239C30.3626 77.2591 31.0425 76.5797 31.0425 75.7416V59.5176C31.0425 58.6794 30.3626 58 29.5239 58Z" fill="#E4631F"/>
<path d="M16.2649 65.6946L14.6735 68.0635C14.6153 68.1508 14.627 68.2662 14.7026 68.3389L18.2686 71.7978C18.3996 71.9249 18.5752 71.9966 18.7586 71.9966H18.841C18.975 71.9966 19.1069 71.9578 19.2204 71.8861L28.3075 66.0766C28.4093 66.0117 28.4375 65.8759 28.3715 65.776L26.7821 63.3605C26.7142 63.2568 26.5725 63.2315 26.4726 63.3052L18.9633 68.8422C18.8634 68.9159 18.7217 68.8907 18.6538 68.7869L16.6258 65.6965C16.5414 65.5675 16.3512 65.5666 16.2649 65.6946Z" fill="white"/>
</g>
<defs>
<clipPath id="clip0_846_3754">
<rect width="115" height="24" fill="white" transform="translate(12 58)"/>
</clipPath>
</defs>
</svg>
