<svg width="140" height="140" viewBox="0 0 140 140" fill="none" xmlns="http://www.w3.org/2000/svg">
<rect width="140" height="140" rx="30" fill="white"/>
<g clip-path="url(#clip0_855_4241)">
<path d="M100.644 107.106C106.315 112.887 111.491 116.421 115.131 112.97C113.798 114.576 112.191 115.757 109.699 115.569C109.305 115.539 108.908 115.532 108.514 115.522C105.712 115.465 102.53 112.461 99.2227 108.517" fill="url(#paint0_linear_855_4241)"/>
<path d="M70.2338 98.9576C74.935 98.6525 79.6361 97.2844 84.3339 94.8467C79.5688 90.8297 77.1677 86.6986 79.2455 81.2196C79.4442 82.6246 79.7068 83.9558 80.0705 85.1931C80.808 87.6911 82.2965 89.9042 84.3103 91.564L89.2607 95.6448C82.7983 99.5612 76.4807 100.024 70.2305 98.9543L70.2338 98.9576Z" fill="url(#paint1_linear_855_4241)"/>
<path d="M95.3841 81.5965L99.3377 85.2917C103.322 78.686 105.275 72.7148 103.5 64.0001C101.813 57.1764 97.1203 49.4702 92.5 45.5001C86.7044 40.8895 79.4826 39.1714 73 39.5C83.3351 42.3837 91.7472 48.0954 94.8083 56.6962C98.8898 67.8822 97.7381 75.1853 95.3808 81.5965H95.3841Z" fill="url(#paint2_linear_855_4241)"/>
<path d="M88.523 95.9531C79.4642 90.1623 76.5984 84.3681 79.9256 78.5739C84.9029 72.7395 91.3585 75.5963 98.9289 84.9951C104 72 104.842 60.6045 93.8573 47.4971L103.408 34.7418C111.109 42.6284 116.329 51.9903 117.767 63.5921C118.427 68.9102 117.939 74.7356 116.939 80C115.501 87.5747 113.756 93.4115 110.534 96.5534L116.939 102.931C123.085 109.567 112.968 120.213 106.604 113.624L101.074 107.77" fill="url(#paint3_linear_855_4241)"/>
<path d="M106.334 100.363C105.933 101.62 105.223 102.753 104.33 103.726C95.0594 113.839 83.0608 119.63 66.1319 117.594C63.2459 117.252 60.3969 116.518 57.585 115.388H57.5816C54.5946 114.194 51.648 112.561 48.7417 110.509C38.2517 103.105 30.6275 92.2547 27.691 79.7912C24.6096 66.724 27.1084 54.3946 34.9212 42.7693C41.1849 33.2028 49.0044 26.909 58.4067 23.9549C58.4168 23.9515 58.4303 23.9482 58.4404 23.9448C65.381 21.7687 73.187 21.4132 81.8686 22.9087C91.4528 25.0245 99.0164 29.2763 104.394 35.835C110.069 42.4273 100.956 54.3275 92.6146 46.3638C82.3973 37.2903 67.6642 37.8 58.2417 45.0528C57.6995 45.4686 57.1775 45.9045 56.6758 46.3638C47.3375 54.0559 43.2492 68.9606 49.2031 82.2155C51.1496 86.5444 54.1231 90.2831 57.7938 93.15C60.9256 95.6011 64.5626 97.4185 68.4993 98.4278C72.7358 99.5142 76.9823 99.578 81.2355 98.5452C84.6671 97.7103 87.873 96.1443 90.7287 94.0755L93.5272 92.0468C95.2144 90.8263 97.2585 90.1456 99.343 90.2395C104.664 90.4776 107.977 95.2021 106.334 100.363Z" fill="url(#paint4_linear_855_4241)"/>
<path d="M106.334 100.363C105.933 101.62 105.223 102.753 104.33 103.726C95.0594 113.839 83.0608 119.63 66.1319 117.594C63.2459 117.252 60.3969 116.518 57.585 115.388H57.5816C54.5946 114.194 51.648 112.561 48.7417 110.509C38.2517 103.105 30.6275 92.2547 27.691 79.7912C24.6096 66.724 27.1084 54.3946 34.9212 42.7693C41.1849 33.2028 49.0044 26.909 58.4067 23.9549C58.4168 23.9515 58.4303 23.9482 58.4404 23.9448C65.381 21.7687 73.187 21.4132 81.8686 22.9087C91.4528 25.0245 99.0164 29.2763 104.394 35.835C110.069 42.4273 100.956 54.3275 92.6146 46.3638C82.3973 37.2903 67.6642 37.8 58.2417 45.0528C57.6995 45.4686 57.1775 45.9045 56.6758 46.3638C47.3375 54.0559 43.2492 68.9606 49.2031 82.2155C51.1496 86.5444 54.1231 90.2831 57.7938 93.15C60.9256 95.6011 64.5626 97.4185 68.4993 98.4278C72.7358 99.5142 76.9823 99.578 81.2355 98.5452C84.6671 97.7103 87.873 96.1443 90.7287 94.0755L93.5272 92.0468C95.2144 90.8263 97.2585 90.1456 99.343 90.2395C104.664 90.4776 107.977 95.2021 106.334 100.363Z" fill="url(#paint5_radial_855_4241)" fill-opacity="0.07"/>
<path d="M48.7417 110.509C51.648 112.561 54.5946 114.194 57.5816 115.388C38.7737 111.817 28.8999 100.161 23.3704 84.5761C20.0095 74.3658 20.7639 66.1909 22.3298 58.415C23.4344 52.9293 25.5155 47.6716 28.6743 43.0476C35.6418 32.8474 46.1521 27.2644 58.4067 23.9549C49.0044 26.909 41.1849 33.2028 34.9212 42.7693C27.1084 54.3946 24.6096 66.724 27.691 79.7912C30.6275 92.2547 38.2517 103.105 48.7417 110.509Z" fill="url(#paint6_linear_855_4241)"/>
<path d="M71.2711 78.4499C75.8817 78.4499 79.6193 74.7283 79.6193 70.1375C79.6193 65.5467 75.8817 61.8251 71.2711 61.8251C66.6605 61.8251 62.5 65.5467 62.5 70.1375C62.5 74.7283 66.6605 78.4499 71.2711 78.4499Z" fill="url(#paint7_linear_855_4241)"/>
<path d="M72.4732 78.4499C77.0838 78.4499 80.8215 74.7283 80.8215 70.1375C80.8215 65.5467 77.0838 61.8251 72.4732 61.8251C67.8626 61.8251 64.125 65.5467 64.125 70.1375C64.125 74.7283 67.8626 78.4499 72.4732 78.4499Z" fill="#EB1C24"/>
</g>
<defs>
<linearGradient id="paint0_linear_855_4241" x1="107.177" y1="107.106" x2="107.177" y2="115.589" gradientUnits="userSpaceOnUse">
<stop stop-color="#527622"/>
<stop offset="0.4" stop-color="#3E6012"/>
<stop offset="0.745" stop-color="#253411"/>
<stop offset="1" stop-color="#3C541A"/>
</linearGradient>
<linearGradient id="paint1_linear_855_4241" x1="79.7456" y1="81.2196" x2="79.7456" y2="99.4515" gradientUnits="userSpaceOnUse">
<stop stop-color="#527622"/>
<stop offset="0.4" stop-color="#3E6012"/>
<stop offset="0.745" stop-color="#253411"/>
<stop offset="1" stop-color="#3C541A"/>
</linearGradient>
<linearGradient id="paint2_linear_855_4241" x1="88.5793" y1="39.4609" x2="88.5793" y2="85.2917" gradientUnits="userSpaceOnUse">
<stop stop-color="#527622"/>
<stop offset="0.4" stop-color="#3E6012"/>
<stop offset="0.745" stop-color="#253411"/>
<stop offset="1" stop-color="#3C541A"/>
</linearGradient>
<linearGradient id="paint3_linear_855_4241" x1="98.7159" y1="34.7418" x2="98.7159" y2="115.697" gradientUnits="userSpaceOnUse">
<stop stop-color="#8DC73F"/>
<stop offset="0.16" stop-color="#8DC73F"/>
<stop offset="0.53" stop-color="#8DC73F"/>
<stop offset="0.795" stop-color="#6FA626"/>
<stop offset="1" stop-color="#3B5E0A"/>
</linearGradient>
<linearGradient id="paint4_linear_855_4241" x1="66.5832" y1="22.0005" x2="66.5832" y2="117.999" gradientUnits="userSpaceOnUse">
<stop stop-color="#F7913E"/>
<stop offset="0.29" stop-color="#F5903A"/>
<stop offset="0.605" stop-color="#EF8022"/>
<stop offset="0.825" stop-color="#F58323"/>
<stop offset="1" stop-color="#C46617"/>
</linearGradient>
<radialGradient id="paint5_radial_855_4241" cx="0" cy="0" r="1" gradientUnits="userSpaceOnUse" gradientTransform="translate(66.5832 69.9999) rotate(90) scale(47.9994 40.174)">
<stop stop-color="#EF7E00" stop-opacity="0"/>
<stop offset="1" stop-color="#FF8600"/>
</radialGradient>
<linearGradient id="paint6_linear_855_4241" x1="39.7038" y1="23.9549" x2="39.7038" y2="115.388" gradientUnits="userSpaceOnUse">
<stop stop-color="#ECBF97"/>
<stop offset="0.295" stop-color="#BA8456"/>
<stop offset="0.59" stop-color="#834C1C"/>
<stop offset="1" stop-color="#66360E"/>
</linearGradient>
<linearGradient id="paint7_linear_855_4241" x1="71.2711" y1="61.8251" x2="71.2711" y2="78.4499" gradientUnits="userSpaceOnUse">
<stop stop-color="#D34248"/>
<stop offset="0.185" stop-color="#C11A20"/>
<stop offset="0.685" stop-color="#440E0E"/>
<stop offset="1" stop-color="#A55153"/>
</linearGradient>
<clipPath id="clip0_855_4241">
<rect width="98" height="96" fill="white" transform="translate(21 22)"/>
</clipPath>
</defs>
</svg>
