<svg width="140" height="140" viewBox="0 0 140 140" fill="none" xmlns="http://www.w3.org/2000/svg">
<rect width="140" height="140" rx="30" fill="black"/>
<g clip-path="url(#clip0_3569_344)">
<path d="M123.997 83.4726C123.997 83.4726 124 83.4641 123.997 83.4612C123.997 82.8302 123.969 82.2048 123.915 81.5852C123.779 79.9791 123.479 78.4186 123.031 76.9206C121.213 70.8006 116.951 65.7068 111.351 62.7193C111.349 62.7193 111.346 62.7193 111.343 62.7193C109.318 61.642 107.12 60.8376 104.801 60.3657C103.195 60.0331 101.532 59.8598 99.8301 59.8598C97.0178 59.8598 94.3159 60.3316 91.8065 61.1986C91.798 61.2014 91.7896 61.2043 91.7811 61.2099C91.5233 61.3066 91.2656 61.4118 91.0079 61.5226C89.7192 62.0798 87.6999 63.4982 86.0572 64.0894C85.5276 64.2799 85.0376 64.385 84.6213 64.3453C83.2845 64.223 82.3187 62.4692 82.8597 61.2952C83.2194 60.5192 86.8389 57.7165 87.8132 56.6164C99.697 43.1827 92.5486 20.343 74.584 17.3953C73.2132 17.1707 71.8595 17.0428 70.5397 17.0059C70.5397 17.0059 70.5142 17.0059 70.5 17.0059C70.4858 17.0059 70.4745 17.0059 70.4604 17.0059C69.1406 17.0457 67.7868 17.1736 66.416 17.3981C48.4514 20.3458 41.303 43.1855 53.1868 56.6193C54.1611 57.7193 57.7807 60.5221 58.1403 61.2981C58.6813 62.472 57.7155 64.2259 56.3787 64.3481C55.9624 64.3879 55.4724 64.2827 54.9428 64.0923C53.3001 63.501 51.2808 62.0826 49.9921 61.5255C49.7344 61.4146 49.4767 61.3094 49.219 61.2128C49.2105 61.2071 49.202 61.2043 49.1935 61.2014C46.6841 60.3345 43.9822 59.8626 41.1699 59.8626C39.4677 59.8626 37.8052 60.036 36.1994 60.3657C33.8798 60.8404 31.6821 61.6449 29.657 62.7222C29.6542 62.7222 29.6514 62.7222 29.6485 62.7222C24.0493 65.7097 19.7869 70.8035 17.9686 76.9234C17.5211 78.4214 17.2209 79.982 17.085 81.588C17.0312 82.2077 17.0028 82.833 17.0028 83.4641C17 83.4669 17 83.4726 17.0028 83.4754C17 83.5124 17 83.5465 17 83.5835C17 86.0394 17.3795 88.4072 18.0876 90.6358C18.0876 90.6443 18.0904 90.65 18.0932 90.6557C23.3243 108.697 46.0582 112.674 57.8458 100.755C57.8656 100.735 57.8883 100.715 57.9081 100.695C60.9867 97.5573 63.3119 93.3248 64.3683 87.9666C64.6345 86.6164 64.5864 84.4248 64.9121 83.4044C65.0112 83.0917 65.1557 82.8728 65.3228 82.7335C66.0251 82.1366 67.1524 82.9126 67.2345 84.1633C67.3846 86.3947 66.9598 90.7949 66.7587 93.2026C65.9402 103.092 63.0174 112.216 59.5309 121.412C59.4488 121.631 59.2449 121.963 59.5564 122.003L68.3022 121.42C69.0244 121.406 69.741 121.403 70.4604 121.409C70.4604 121.409 70.4858 121.409 70.5 121.409C70.5142 121.409 70.5255 121.409 70.5397 121.409C71.259 121.403 71.9756 121.409 72.6978 121.42L81.4436 122.003C81.7551 121.963 81.5512 121.631 81.4691 121.412C77.9826 112.216 75.0598 103.092 74.2413 93.2026C74.0402 90.7949 73.6154 86.3947 73.7655 84.1633C73.8476 82.9126 74.9749 82.1366 75.6772 82.7335C75.8443 82.8728 75.9888 83.0917 76.0879 83.4044C76.4136 84.4248 76.3655 86.6164 76.6317 87.9666C77.6881 93.3248 80.0133 97.5573 83.0919 100.695C83.1117 100.715 83.1344 100.735 83.1542 100.755C94.9418 112.674 117.676 108.697 122.907 90.6557C122.91 90.65 122.912 90.6443 122.912 90.6358C123.62 88.4072 124 86.0394 124 83.5835C124 83.5465 124 83.5124 123.997 83.4754V83.4726Z" fill="#222222"/>
</g>
<g clip-path="url(#clip1_3569_344)">
<path d="M41.2731 65.9465L41.2137 75.0963C41.2102 75.6821 41.2381 76.2678 41.3185 76.8503C41.6224 79.0327 42.4817 80.5038 44.6544 80.9607C47.1397 81.2988 49.5465 81.3289 51.2266 78.5457V80.9005H56.0768V65.9465H51.2266V74.6628C51.2266 75.7155 50.7114 76.7264 49.8015 77.3155C49.0347 77.8126 48.2558 77.8645 47.4628 77.3942C46.5075 76.8268 45.9608 75.7942 45.9608 74.7164V65.9448H41.2696L41.2731 65.9465Z" fill="white"/>
<path d="M104.109 58L98.5689 63.1715C95.081 63.7824 90.8264 62.3397 87.77 64.395C83.6464 67.1682 83.8891 73.3607 88.3306 75.6234C90.402 76.6778 97.652 77.6218 97.2695 74.0753C97.1716 73.1649 96.1237 71.9632 95.1771 71.9632H89.5165C90.3461 71.2469 93.1598 67.7054 93.972 67.6787C95.9997 67.6151 98.0222 67.6151 100.085 67.6301V71.8427C100.162 75.1715 102.593 76.7046 102.839 78.1155C103.07 79.431 103.098 81.4226 101.416 81.7841C99.8264 82.1255 93.7868 81.9682 91.8971 81.8444C82.7137 81.2435 76.4715 73.1715 80.4118 64.8167C81.6937 62.1004 86.4409 58.0017 89.644 58.0017H104.111L104.109 58Z" fill="white"/>
<path d="M107.38 67.63C105.965 70.6844 107.825 74.589 110.981 75.861C113.06 76.6978 119.759 77.5095 119.405 74.0668C119.352 73.5513 119.134 73.0727 118.567 72.6342C117.999 72.1957 117.244 71.9631 116.495 71.9631H111.657C112.487 71.2467 115.334 67.8995 116.113 67.6785C116.892 67.4576 122.033 67.5229 123.118 67.6183C124.54 67.7421 124.842 68.0585 124.992 69.4359C125.368 72.8785 124.76 76.9488 124.94 80.4585C124.664 81.3405 124.042 81.7354 123.113 81.8392C119.945 82.1907 112.115 81.9999 109.224 80.9137C103.752 78.8585 100.523 73.138 101.595 67.63H107.382H107.38Z" fill="white"/>
<path d="M64.8586 58.9624V68.1105L65.0787 67.8946C66.2402 66.7565 67.7422 65.9699 69.3839 65.7289C74.4035 64.9942 76.461 69.5365 75.9405 74.9808C75.4864 79.7306 69.5411 83.2955 65.4822 79.9114C65.173 79.6536 64.6001 78.9072 64.6001 78.9072C64.6001 78.9072 64.5792 79.8695 64.4831 80.8687H60.0801V58.9624H64.8604H64.8586ZM67.5693 69.1214C63.4597 69.6603 63.5749 77.7022 67.7544 77.6955C72.4264 77.6888 72.388 68.4888 67.5693 69.1214Z" fill="white"/>
<path d="M29.8854 60.4069V64.981C25.8352 62.735 19.9563 63.3408 18.484 68.1542C16.2134 75.5701 23.5227 79.2806 29.8854 75.8145V80.1475C21.2837 83.0212 12.5597 79.8981 13.0173 70.1458C13.4242 61.4479 21.8985 58.0655 29.8854 60.4069Z" fill="white"/>
<path d="M37.937 58.9624H33.1567V80.8704H37.937V58.9624Z" fill="white"/>
<path d="M126 58L120.603 63.046C116.256 62.8787 111.851 62.9372 107.497 63.046C106.959 63.0594 104.936 63.0494 104.164 63.046C104.044 63.046 103.978 62.9121 104.054 62.8234C104.577 62.2243 106.007 60.6226 106.255 60.4134C107.804 59.1063 110.726 58 112.036 58H126Z" fill="#FF0000"/>
</g>
<defs>
<clipPath id="clip0_3569_344">
<rect width="107" height="105" fill="white" transform="translate(17 17)"/>
</clipPath>
<clipPath id="clip1_3569_344">
<rect width="113" height="24" fill="white" transform="translate(13 58)"/>
</clipPath>
</defs>
</svg>
