<svg width="140" height="140" viewBox="0 0 140 140" fill="none" xmlns="http://www.w3.org/2000/svg">
<rect width="140" height="140" rx="30" fill="white"/>
<g clip-path="url(#clip0_820_935)">
<path d="M43.265 61.4632C44.6769 66.1196 46.386 70.4871 48.2437 74.7001C51.4391 82.2459 53.5941 86.2371 56.5732 91.1892C60.2144 97.1022 64.2339 103.835 70.8475 108.196C75.6776 111.374 81.5549 113 87.2024 113C95.1604 113 101.997 109.526 106.388 105.454C110.698 101.463 116.278 93.7694 116.278 78.7586C116.278 73.5847 118.582 69.1433 120.291 65.5955C120.291 65.5216 120.365 65.3738 120.514 65.0781C121.182 63.5999 122 61.6782 122 59.7565C122 58.3521 121.628 56.7261 120.662 55.3217C119.176 52.8087 116.501 51.9218 114.042 51.9218C108.32 51.9218 104.375 55.913 102.368 59.9849L101.7 61.3153C100.882 60.1327 100.065 58.8762 99.396 57.7676C97.3154 54.1459 96.1264 51.7068 95.0861 48.5957C94.2686 46.1567 93.5999 43.348 93.154 41.05C91.8907 33.7999 89.81 31.4347 86.385 30.5478C83.8585 29.8826 80.8861 30.4 78.7244 31.8043C77.2449 28.4782 74.7184 27 71.3677 27C66.6118 27 62.2951 30.1043 62.2951 35.3588C62.2951 36.024 62.3694 36.6892 62.4437 37.5022C61.8492 37.3544 61.1804 37.2805 60.5117 37.2805C55.3843 37.2805 51.5877 40.8283 51.5877 45.6393C51.5877 46.7479 51.7363 48.0045 52.1079 49.4827C51.662 49.4088 51.2161 49.4088 50.7703 49.4088C48.2437 49.5566 45.9401 50.5175 44.2986 52.5131C42.6705 54.4348 42.0017 57.3913 43.265 61.4632Z" fill="#1F1F1A"/>
<path d="M47.5008 60.1328C46.832 57.9893 46.9063 56.3633 47.7237 55.3285C48.5411 54.3676 49.6557 53.9242 50.9933 53.8502C53.2969 53.7763 54.1886 55.4024 55.5262 59.6154C56.3436 62.2762 57.9785 66.1264 58.9445 68.2698C60.2078 70.8567 61.9912 74.3306 62.8086 75.5199C63.4774 76.5547 64.0719 76.8503 64.7407 76.8503C65.9296 76.8503 66.8213 76.1851 66.8213 75.0025C66.8213 74.3373 66.1526 73.2286 65.781 72.5634C65.1122 71.3069 63.7003 68.7939 62.7343 66.6505C61.694 64.2853 60.505 61.3288 59.539 58.6612C58.9445 57.1091 58.2757 54.8917 57.6069 52.6744C56.5666 49.2744 56.0464 47.2049 56.0464 45.646C56.0464 43.2808 57.8298 41.7287 60.505 41.7287C62.4371 41.7287 63.7003 42.6895 64.5177 46.1634C65.1865 49.3416 66.3755 54.5222 68.0846 58.5873C69.1993 61.2482 70.8341 64.8027 71.8001 66.5765C72.3946 67.6113 73.0634 68.4983 73.0634 68.8678C73.0634 69.3852 72.0974 70.1982 71.2799 71.3069C70.7598 71.9721 70.5368 72.4156 70.5368 72.933C70.5368 73.3765 70.8341 73.8199 71.2799 74.4112C71.7258 75.0025 72.1717 75.5938 72.6918 75.5938C73.0634 75.5938 73.2863 75.446 73.5092 75.1503C75.8129 72.2678 78.3394 70.2722 81.2442 68.6394C84.6625 66.7177 88.1618 65.7568 90.9113 65.1655C92.2489 64.8699 92.6204 64.5742 92.6204 63.8351C92.6204 62.9481 91.9516 62.4308 91.0599 62.3568C90.3911 62.2829 89.7966 62.3568 88.7563 62.4308C88.0132 62.5047 87.6417 62.1351 87.1958 61.1743C85.8582 58.3656 83.2574 53.6285 81.6968 47.5677C81.0281 44.9808 80.4336 42.2461 80.062 38.6916C79.8391 37.0655 80.1363 36.4742 80.9537 35.7351C81.9941 34.8481 83.8518 34.4786 85.2637 34.8481C86.9729 35.2916 87.8646 36.622 88.7563 41.8026C89.2022 44.2417 89.9453 47.346 90.837 50.0135C91.9516 53.4135 93.3635 56.2289 95.5185 59.9984C96.7075 62.0679 98.1937 64.2114 99.7542 66.2876C99.4569 67.1746 98.9368 67.7659 97.2276 69.1702C95.5185 70.5745 93.8094 72.0528 92.2489 74.7875C91.1342 76.7831 90.614 79.0005 90.614 80.4787C90.614 81.957 90.9113 82.1787 91.803 82.1787C93.3635 82.1787 94.6268 81.8831 94.7011 81.2179C95.0726 78.557 95.5185 76.857 97.0047 74.8547C97.8964 73.746 99.4569 72.3417 100.72 71.233C103.098 69.3113 103.916 68.2026 104.733 65.4679C105.104 64.2114 105.55 63.0288 106.145 61.9201C107.557 59.3332 110.083 56.3767 114.028 56.3767C115.292 56.3767 116.332 56.7463 117.001 57.781C117.372 58.3723 117.521 59.1853 117.521 59.7766C117.521 61.1071 116.555 62.9549 116.109 63.8418C114.474 67.3157 111.799 72.6441 111.799 78.7788C111.799 92.1635 107.043 98.8224 103.321 102.222C99.6799 105.622 93.9512 108.585 87.189 108.585C82.3589 108.585 77.3734 107.181 73.2863 104.52C67.5644 100.751 63.9908 94.8311 60.3496 88.9181C57.4515 84.1139 55.4452 80.3376 52.3174 73.0203C50.5542 68.7805 48.9126 64.6414 47.5008 60.1328Z" fill="#FFE450"/>
<path d="M66.6118 35.3588C66.6118 32.5501 69.2127 31.4415 71.3677 31.4415C73.6713 31.4415 74.4887 32.5501 75.0832 34.9153C75.6033 36.837 75.8263 38.6109 76.0492 40.6805C76.3464 42.75 77.3868 47.4871 77.684 48.6697C78.7987 52.7348 81.028 57.5459 83.7031 63.311C82.1426 63.8284 80.0619 64.7153 78.65 65.4544C76.8666 66.4153 76.495 66.4153 75.7519 65.011C74.1914 62.1284 73.0768 59.9849 72.1108 57.4652C71.2933 55.3957 70.4759 53.0305 69.8071 50.289C68.6925 45.6326 68.5439 44.3022 67.6522 42.152C67.132 39.9413 66.6118 37.2066 66.6118 35.3588Z" fill="#FFE450"/>
<path d="M39.9957 84.8664C38.4216 85.834 30.0787 90.1814 28.1939 90.8735C26.8495 91.3707 25.3904 91.2497 24.5324 88.7233C23.4786 85.5988 24.958 84.8597 27.0657 84.0467C28.9302 83.3277 36.6652 80.5459 38.4622 80.0621C39.7254 79.7262 40.6036 80.1495 41.2116 81.6613C41.8804 83.321 41.4211 83.9862 39.9957 84.8664Z" fill="#1F1F1A"/>
<path d="M33.1184 67.2552C30.8756 67.3156 21.5598 66.9192 19.4318 66.7109C17.5808 66.5295 16.831 65.7165 17.0336 63.0489C17.2498 60.1865 18.3712 60.0118 20.1884 60.1865C22.2961 60.3881 32.0578 61.9671 33.6115 62.4442C35.2193 62.9414 35.4422 63.6671 35.2463 65.0647C34.9964 66.8789 34.1722 67.2216 33.1184 67.2552Z" fill="#1F1F1A"/>
<path d="M34.2736 48.495C31.7065 47.6887 24.0864 43.0994 22.1003 41.9168C20.3033 40.8417 20.0736 39.8741 21.3234 37.5157C22.4313 35.4327 23.6608 35.0699 25.4847 36.0106C27.5992 37.1058 35.064 42.8844 36.4894 44.0267C37.8675 45.1286 37.6783 45.6998 36.9555 47.1175C36.2327 48.5353 35.5571 48.8981 34.2736 48.495Z" fill="#1F1F1A"/>
</g>
<defs>
<clipPath id="clip0_820_935">
<rect width="105" height="86" fill="white" transform="translate(17 27)"/>
</clipPath>
</defs>
</svg>
