<svg width="140" height="140" viewBox="0 0 140 140" fill="none" xmlns="http://www.w3.org/2000/svg">
<rect width="140" height="140" rx="30" fill="#E61A27"/>
<path d="M57.1305 83.8254C52.8543 81.0708 47.051 80.5874 37.6919 83.184C27.7144 85.5287 24.3877 87.0317 20.0189 84.0144C18.3405 82.5323 17.7388 80.1458 18.1881 76.7083C19.2303 71.1045 22.0467 65.7117 27.0494 59.7299C29.8417 56.6181 32.432 53.9477 35.8522 52.8753C38.4735 52.2026 38.2284 54.2627 37.9112 54.5573C37.5765 54.5573 37.0143 54.61 36.5797 54.8936C36.2271 55.1671 35.259 56.0503 35.207 57.2382C35.132 59.0569 37.014 58.6783 37.8258 57.6798C38.7007 56.5546 39.9939 54.3999 38.9767 52.3916C38.5503 51.6768 37.8137 51.1828 36.8991 51.0146C33.7672 50.8356 30.8506 52.3286 28.1586 53.9791C22.2715 58.0687 17.5622 63.7354 14.8975 69.9382C13.3613 73.6807 11.9719 79.0417 14.0544 83.4051C15.6656 86.4327 19.0102 88.0408 23.0007 87.7045C25.7994 87.4105 29.1836 86.5059 31.4598 85.9598C33.736 85.4126 45.3872 81.4076 49.2155 88.3782C49.2155 88.3782 50.4885 85.907 53.6699 85.8543C56.2855 85.613 60.0589 86.6115 62.8066 88.6296C61.8911 87.2529 59.2957 85.2238 57.1305 83.8254Z" fill="white"/>
<path d="M38.8796 60.4342C36.7005 59.0044 32.3206 61.7378 28.8125 66.4264C25.6045 70.632 24.2193 75.52 25.7269 77.7803C27.9693 80.44 32.1324 76.5714 33.9027 74.5007L34.1311 74.2586C35.3351 72.9655 36.2651 71.4095 37.1655 69.9164C37.1655 69.9164 37.9929 68.5497 38.0324 68.4865C38.5438 68.3922 39.1598 68.245 39.8539 68.0452C39.844 68.0765 37.1982 72.5236 37.4681 74.7309C37.5522 75.4044 37.4881 77.8644 39.8898 78.6106C43.0909 79.1472 45.647 76.6658 47.902 74.458C47.902 74.458 48.2863 74.0904 48.5036 73.8805C48.4486 74.1006 48.3769 74.3944 48.3769 74.3944C47.4397 77.6535 48.703 78.3374 49.4932 78.5897C51.8814 79.2841 54.7344 75.8145 54.7438 75.8145C54.6696 76.9074 54.4534 77.8114 55.6055 78.5369C56.6928 78.9262 57.7933 78.3327 58.6299 77.7755C61.643 75.652 64.0704 72.3283 66.0309 69.4554H64.7803C64.7655 69.4554 61.6944 73.9068 59.7001 74.8743C59.697 74.8743 59.334 75.0606 59.1249 74.9132C58.8659 74.6924 58.9681 74.2332 59.128 73.908C59.138 73.8869 66.8282 60.5491 66.8282 60.5491H63.1973C63.1973 60.5491 62.8007 61.1908 62.7683 61.2329C62.7439 61.2119 62.6857 61.1016 62.6455 61.0487C60.396 57.937 55.3017 62.7234 51.4664 68.274C49.9898 70.4084 48.1099 72.8115 46.1605 74.5461C46.1605 74.5461 43.2726 77.1932 42.0388 75.2913C41.5877 74.4922 41.7265 73.3239 41.9809 72.5567C43.4175 68.4669 45.8931 64.7555 48.7102 62.5161C49.5053 61.8963 50.3698 61.717 50.7986 61.9799C51.2074 62.2221 51.2733 62.8208 51.0148 63.2309C50.3587 63.2099 49.8329 63.4093 49.4057 63.8509C48.5639 64.7341 48.2715 65.5858 48.5391 66.3849C49.8393 68.2351 52.4323 64.5765 52.3069 62.3477C52.2621 61.5486 51.8359 60.7919 51.1995 60.4236C50.2513 59.8561 48.8047 60.0031 47.8685 60.4554C46.6152 60.9283 44.6315 62.5787 43.4736 63.8615C42.0158 65.4703 39.5156 67.2573 38.7338 67.0572C38.9894 66.3737 41.1012 62.053 38.8796 60.4342ZM56.385 66.826C57.0913 65.8485 59.1471 63.2306 59.6483 62.7892C61.3338 61.3063 62.0076 61.9587 62.0659 62.421C60.4928 65.2384 58.6361 68.4661 56.8905 71.3678C56.8941 71.3575 56.3442 72.1982 56.3442 72.1982C55.5732 73.3753 54.7969 74.3847 53.5306 75.0889C53.3501 75.1419 53.0524 75.163 52.8543 75.0152C52.6159 74.8575 52.5218 74.5946 52.5486 74.3213C52.6246 73.4174 53.5449 70.653 56.385 66.826ZM36.6324 68.5185C36.6324 68.5185 36.6006 68.6135 36.5851 68.6445C36.5811 68.6445 35.002 71.2198 35.002 71.2198C34.049 72.4922 32.8591 74.0905 31.3718 74.8576C30.9309 75.0047 30.3214 75.0997 30.0108 74.711C29.3525 73.9223 29.6918 72.8289 29.9675 71.946L30.0651 71.6305C30.8555 69.4861 32.1094 67.5934 33.3302 65.8377C33.3454 65.8274 33.3796 65.8169 33.3919 65.8169C33.3949 65.8274 33.3998 65.8274 33.4018 65.8485C34.1678 67.32 35.604 68.0031 36.6781 68.319C36.6845 68.319 36.6916 68.3295 36.6916 68.3506C36.6917 68.3819 36.6742 68.4243 36.6324 68.5185ZM38.1283 65.4806C38.1213 65.5016 37.425 67.0995 37.425 67.0995C37.3243 67.1836 37.1652 67.1416 36.9827 67.0995L36.6702 67.0467C35.6886 66.742 34.9482 66.0901 34.72 65.3122C34.4052 63.7983 35.6985 62.6103 36.2682 62.1795C36.815 61.8007 37.6649 61.6011 38.1585 61.9902C38.4629 62.3477 38.5783 62.8102 38.5783 63.3151C38.5784 63.9981 38.3675 64.7655 38.1283 65.4806ZM84.0302 70.3582C83.68 69.6015 82.849 69.1178 81.9633 69.1703C79.087 69.4333 76.2736 71.7986 74.7963 75.1941C74.0212 76.9394 73.5981 78.3795 73.3207 80.6713C74.2152 79.6413 76.0396 77.9488 78.1099 77.0236C78.1099 77.0236 78.3916 74.8265 79.8281 72.871C80.3716 72.0612 81.4593 70.7577 82.6808 71.1045C83.7481 71.462 83.3729 74.4163 81.9545 77.2753C80.905 79.3782 79.299 81.4813 77.674 82.9318C76.2374 84.1512 74.1118 85.6231 72.2521 84.4878C71.0808 83.7942 70.4833 82.3429 70.6095 80.4718C71.1691 75.1629 73.5859 70.6422 77.0443 65.4909C80.6102 60.7075 84.5411 55.798 89.8364 53.1799C90.9165 52.6333 91.9168 52.5071 92.7814 52.8436C92.7814 52.8436 87.8105 55.5769 85.441 60.6339C84.8383 61.9167 83.9999 63.6508 84.8442 65.1858C85.2853 65.9847 86.0685 66.0479 86.6993 66.0058C89.6037 65.3328 91.4802 62.6205 93.0134 60.1397C93.9023 58.2579 94.6924 56.3866 94.6924 54.3049C94.6924 54.0527 94.6793 53.7164 94.658 53.4639C96.0456 52.7282 98.8911 54.0316 98.8911 54.0316C101.115 54.7678 105.849 58.3949 107.446 59.0885C108.225 58.1845 109.506 56.8179 110.227 56.1345L109.183 55.4931C107.512 54.4733 105.746 53.5059 104.008 52.5494C100.061 50.3945 96.8478 51.1512 95.2127 51.7401C94.57 51.9712 93.9827 52.171 93.9827 52.171C92.7692 50.8464 90.7788 50.9723 89.3123 51.3299C84.0383 52.8437 79.1417 56.5337 73.892 62.9363C70.0324 67.9511 67.6384 72.2826 66.3623 76.5612C65.3787 79.4417 65.0798 83.6783 67.4805 86.191C69.5216 88.3247 72.2281 87.8624 74.1392 87.0953C78.2802 85.0558 82.0021 80.6611 83.8566 75.6042C84.3042 74.101 84.8008 71.9775 84.0302 70.3582ZM93.5524 54.5154C93.0042 60.8022 88.1174 64.4926 86.9081 64.7865C86.1754 64.9334 84.925 64.6078 86.0413 61.9694C87.685 58.4156 90.4915 55.3987 93.5024 53.8531C93.5758 54.116 93.5738 54.2838 93.5524 54.5154ZM122.541 55.3141C119.912 56.8072 117.187 57.7741 113.888 57.4378C112.974 58.4683 112.084 59.5301 111.264 60.6232C115.894 61.8007 120.802 59.183 123.539 56.6917C126.435 54.1789 127.92 51.0148 127.92 51.0148C127.92 51.0148 125.749 53.4956 122.541 55.3141ZM72.8628 60.5494H69.4146L67.4696 63.7097H70.917L72.8628 60.5494Z" fill="white"/>
<path d="M113.875 84.1181C113.504 84.3703 112.983 84.1764 113.178 83.5983C113.663 82.1265 115.592 79.1271 115.592 79.1271L120.964 69.5994H117.284C117.109 69.8867 116.735 70.5463 116.735 70.5463C116.565 70.2627 116.056 69.6323 115.846 69.4959C114.947 68.9278 113.629 69.1964 112.719 69.7114C108.763 72.0246 105.876 76.5948 103.6 80.1589C103.6 80.1589 101.204 84.1208 99.8737 84.4154C98.8352 84.4996 98.9424 83.1007 98.9874 82.7748C99.3889 80.4195 100.321 78.1804 101.261 76.1514C103.171 74.8268 105.352 73.0922 107.334 71.1894C111.634 67.0784 115.26 62.4212 115.79 61.3804C115.79 61.3804 115.216 61.4962 114.539 61.517C111.23 66.1322 104.46 72.8398 102.407 73.8383C103.316 71.6511 109.191 61.2121 114.191 56.2185L114.977 55.4613C116.194 54.2733 117.454 53.0539 118.437 52.8541C118.54 52.8436 118.674 52.8541 118.789 53.0963C118.833 54.0212 118.489 54.7047 118.094 55.4826L117.54 56.6181C117.54 56.6181 118.324 56.4709 118.839 56.3023C119.437 55.1779 120.099 53.9159 119.855 52.4129C119.774 51.9293 119.423 51.5614 118.966 51.4772C117.474 51.1933 115.849 52.2969 114.541 53.1908L114.488 53.2221C107.765 58.4892 102.088 66.0796 97.1251 76.4456C96.7654 76.7185 95.3756 77.0447 95.1394 76.8869C95.6295 75.8779 96.2467 74.5214 96.5554 73.0495C96.6088 72.6288 96.6585 72.1981 96.6585 71.7777C96.6585 70.8728 96.4413 70.0215 95.6308 69.4332C94.6804 68.96 93.5058 69.1809 92.7137 69.538C89.166 71.0099 86.5144 74.6476 84.6008 77.6435C83.5717 79.5468 82.5456 81.5854 82.2615 83.9197C82.0614 85.7486 82.4688 86.9263 83.5088 87.5151C84.5781 88.0614 85.9241 87.4935 86.4529 87.2205C90.0472 85.328 92.5586 81.5331 94.5381 78.0636C94.6168 78.0533 95.6976 78.022 96.5153 77.8114C96.5261 77.8114 96.5307 77.8114 96.5488 77.8223C96.5019 77.9795 96.0795 79.2414 96.0795 79.2414C94.8248 82.9206 94.2446 85.423 95.4297 86.9052C97.1232 88.9973 99.927 86.8319 102.208 83.9718C101.718 87.3989 103.494 87.9354 104.848 87.6728C106.404 87.2525 108.137 85.591 108.941 84.7398C108.683 85.7383 108.753 87.5259 110.168 87.7043C111.137 87.8836 111.863 87.3561 112.703 86.9039C115.715 85.2637 119.321 79.7982 120.257 78.2181H119.03C117.699 80.2296 116.005 82.8664 113.875 84.1181ZM86.8375 83.752C86.6464 83.468 86.583 83.1578 86.5767 82.8222C86.5401 80.7607 88.758 77.0692 90.3234 75.0581H90.3267C90.9826 76.4946 92.4682 77.4179 93.365 77.8071C92.2513 80.2884 88.4312 85.6022 86.8375 83.752ZM93.9938 76.6978C93.8878 76.7719 92.0145 76.1407 91.6523 74.4062C91.3452 72.9128 92.3736 71.7459 93.3685 71.1578C93.7956 70.8211 94.4388 70.7059 94.9107 70.8734C95.3487 71.1683 95.4674 71.6944 95.4674 72.261C95.4674 72.6087 95.4213 72.9658 95.3806 73.2916L95.3717 73.3654C95.0579 74.531 94.5948 75.6511 93.9938 76.6978ZM109.019 83.0898C109.018 83.0898 108.664 83.4051 108.664 83.4051C108.158 83.857 107.638 84.3406 107.01 84.0987C106.837 84.0357 106.715 83.8046 106.686 83.6253C106.657 82.3322 107.239 81.134 107.804 79.9671L107.949 79.6622C109.574 76.9499 111.462 73.754 114.235 71.536C114.702 71.1989 115.209 70.9156 115.744 71.1366C115.867 71.2521 116.011 71.4519 116.011 71.6514C116.011 71.7147 115.954 71.8828 115.922 71.9353C115.148 73.1869 114.41 74.5007 113.693 75.7622C112.291 78.2538 110.837 80.829 109.019 83.0898Z" fill="white"/>
</svg>
