<svg width="140" height="140" viewBox="0 0 140 140" fill="none" xmlns="http://www.w3.org/2000/svg">
<rect width="140" height="140" rx="30" fill="white"/>
<path d="M65.6202 26V72.1556L50.4897 56.8594V32.1153L65.6202 26Z" fill="#159F83"/>
<path d="M65.5757 118.744L50.4897 101.482V87.9979L65.608 72.5116L65.5757 118.744Z" fill="#0F6A58"/>
<path d="M50.4897 56.8594L65.6121 72.1556V72.4226L50.4897 72.4307V56.8594Z" fill="#158D75"/>
<path d="M50.4897 72.4307L65.5069 72.4104H65.6444V72.4913L65.5878 72.552L50.4897 87.9979V72.4307Z" fill="#127C66"/>
<path d="M65.6123 72.4347L65.6204 26L97.8104 39.9413L65.6123 72.4347Z" fill="#18AE90"/>
<path d="M97.8104 39.9413L90.0086 72.4833L65.6123 72.4226L97.8104 39.9413Z" fill="#1DBB9B"/>
<path d="M65.5757 118.74L65.6 72.5641L72.3866 79.1L65.5757 118.74Z" fill="#24D8B3"/>
<path d="M72.387 79.1L65.6003 72.5641V72.4024L90.0048 72.4833L72.387 79.1Z" fill="#21C6A4"/>
</svg>
