<svg width="140" height="140" viewBox="0 0 140 140" fill="none" xmlns="http://www.w3.org/2000/svg">
<rect width="140" height="140" rx="30" fill="url(#paint0_linear_645_12882)"/>
<g clip-path="url(#clip0_645_12882)">
<path d="M70.0653 18.9997C98.1111 18.8443 121.002 42.154 121 69.9669C120.998 97.9446 98.0307 120.992 69.9793 121C42.0776 121.007 18.5526 97.8978 19.0055 69.0854C19.4321 42.0137 41.868 18.8106 70.0653 18.9997ZM74.575 28.5321C74.5581 28.8334 74.5282 29.1347 74.5282 29.4379C74.5095 42.0268 74.4982 54.6156 74.4627 67.2044C74.4608 67.8875 74.6741 68.3592 75.1513 68.8364C83.7065 77.3787 92.2467 85.936 100.781 94.4988C101.41 95.1314 101.964 95.8389 102.568 96.5277C112.321 84.9028 115.362 66.9648 107.656 51.4C100.01 35.9551 84.7637 28.9738 74.575 28.5321ZM37.1488 96.4828C37.5024 96.1665 37.6914 96.013 37.8636 95.8408C46.8903 86.8007 55.9208 77.7662 64.9232 68.7017C65.2657 68.3573 65.4977 67.734 65.4977 67.2418C65.5127 54.5912 65.4902 41.9407 65.4715 29.2901C65.4715 29.0168 65.4472 28.7417 65.4228 28.2682C49.8188 30.5928 38.1985 38.4669 31.7709 52.8487C24.8998 68.2244 27.2182 82.829 37.1469 96.4847L37.1488 96.4828ZM43.7018 102.861C50.0864 107.926 57.3149 110.94 65.4752 111.845V80.9873C58.1738 88.3242 50.9733 95.5563 43.7018 102.861ZM74.4908 80.9442V111.804C83.2518 111.1 92.0484 106.642 96.2212 102.796C89.0264 95.5619 81.8297 88.3242 74.4908 80.9442Z" fill="white"/>
</g>
<defs>
<linearGradient id="paint0_linear_645_12882" x1="70" y1="0" x2="70" y2="140" gradientUnits="userSpaceOnUse">
<stop stop-color="#976797"/>
<stop offset="1" stop-color="#562055"/>
</linearGradient>
<clipPath id="clip0_645_12882">
<rect width="102" height="102" fill="white" transform="translate(19 19)"/>
</clipPath>
</defs>
</svg>
