<svg width="140" height="140" viewBox="0 0 140 140" fill="none" xmlns="http://www.w3.org/2000/svg">
<rect width="140" height="140" rx="30" fill="#3DDA93"/>
<g clip-path="url(#clip0_2707_1455)">
<path d="M83.6793 27V78.9265C84.0925 78.8224 84.5248 78.4061 84.8665 78.1365C94.2143 70.764 101.979 60.5313 106.903 49.7657C107.184 49.1492 108.578 45.4598 108.775 45.3195C109.172 45.0388 116.915 48.2174 117.999 48.4839C114.451 58.2136 108.644 66.9184 101.939 74.7656L117.924 101.746C114.903 103.425 110.604 103.081 107.68 101.339C105.908 100.283 104.732 98.6965 103.629 97.011C100.423 92.1107 97.8361 86.7846 94.5591 81.9206C91.101 84.9983 87.5793 88.0554 83.6761 90.5718V101.744H73.6672V27H83.6761H83.6793Z" fill="white"/>
<path d="M64.6768 89.3121V98.9897C60.912 100.858 56.5289 101.998 52.3445 102.51C31.3255 105.084 20.0515 90.5498 22.278 70.6851C23.7608 57.4505 33.5345 48.3814 46.965 47.7712C52.8562 47.5048 68.0635 48.7708 64.0713 58.1048C63.8918 58.5258 62.8651 60.4099 62.4042 60.3374C62.2628 60.3153 60.6132 59.2684 60.1777 59.0713C46.7314 52.9869 33.3819 57.5561 32.4188 73.3324C31.3747 90.4268 43.2144 97.7836 58.997 91.9451C60.9644 91.2167 62.7936 90.2108 64.6768 89.3105V89.3121Z" fill="white"/>
</g>
<defs>
<clipPath id="clip0_2707_1455">
<rect width="96" height="75.84" fill="white" transform="translate(22 27)"/>
</clipPath>
</defs>
</svg>
