<svg width="140" height="140" viewBox="0 0 140 140" fill="none" xmlns="http://www.w3.org/2000/svg">
<rect width="140" height="140" rx="30" fill="url(#paint0_radial_836_1102)"/>
<g clip-path="url(#clip0_836_1102)">
<path d="M116.947 69.6065C116.947 77.8283 116.923 86.0501 116.975 94.2719C116.981 95.4389 116.662 96.1058 115.602 96.7017C100.97 104.951 86.3564 113.241 71.7677 121.568C70.7294 122.161 70.001 122.13 68.9844 121.549C54.4979 113.25 39.9928 104.985 25.4691 96.7511C24.4494 96.1737 24.0341 95.5532 24.0372 94.3491C24.0682 77.8036 24.0527 61.2581 24 44.7096C23.9969 43.5209 24.3719 42.8756 25.4071 42.289C39.9246 34.0518 54.4235 25.7775 68.9038 17.4754C69.9576 16.8703 70.748 16.8271 71.8328 17.4477C86.4587 25.8115 101.106 34.1352 115.77 42.428C116.718 42.9652 117 43.5919 116.997 44.6324C116.96 52.9561 116.975 61.2828 116.975 69.6065H116.944H116.947ZM112.571 69.5231H112.549C112.549 61.9682 112.528 54.4164 112.574 46.8615C112.58 45.7994 112.252 45.2128 111.319 44.6849C98.038 37.1855 84.7789 29.6553 71.529 22.1035C70.7263 21.6465 70.1374 21.591 69.3006 22.0726C56.0104 29.6615 42.7048 37.2164 29.3867 44.7466C28.5158 45.2406 28.1749 45.7716 28.1749 46.7936C28.1997 61.8509 28.1904 76.9052 28.147 91.9625C28.147 93.0153 28.4507 93.6081 29.3867 94.1391C42.6583 101.654 55.9174 109.196 69.1518 116.776C70.1002 117.319 70.7604 117.261 71.6716 116.742C84.8656 109.193 98.0752 101.669 111.306 94.1854C112.308 93.6204 112.605 92.9813 112.599 91.876C112.549 84.4261 112.574 76.9731 112.574 69.5231H112.571Z" fill="white"/>
<path d="M92.8773 58.7388H48.1719C48.8196 55.6791 49.4333 52.7368 50.0625 49.8007C50.6948 46.8399 51.358 43.8852 51.9593 40.9182C52.1577 39.9395 52.4893 39.4486 53.6578 39.4517C64.8589 39.5072 76.0601 39.4825 87.2582 39.5381C87.7572 39.5381 88.6033 40.0198 88.6963 40.418C90.1344 46.4539 91.4733 52.5145 92.8773 58.7419V58.7388Z" fill="white"/>
<path d="M36.1094 73.58C40.1417 70.6593 44.0438 67.8158 47.9862 65.0217C48.2528 64.8334 48.8943 64.9075 49.2136 65.102C52.3873 67.0193 55.5487 68.952 58.6512 70.9774C59.0851 71.2614 59.3826 72.0549 59.395 72.6199C59.4663 75.698 59.4694 78.7823 59.4012 81.8605C59.3764 82.9751 59.6678 83.7716 60.5294 84.5311C62.6556 86.399 64.6919 88.3657 66.7499 90.3077C67.9958 91.484 67.9679 94.3707 66.7034 95.5347C64.7353 97.347 62.8013 99.2025 60.7402 100.907C60.0614 101.469 59.0696 101.747 58.1739 101.938C54.2625 102.768 52.0588 101.104 50.1682 97.5631C46.1576 90.0483 41.5705 82.8392 37.2221 75.5066C36.8811 74.9354 36.5526 74.355 36.1001 73.58H36.1094Z" fill="white"/>
<path d="M105.994 73.7838C105.808 74.1389 105.638 74.5063 105.433 74.8551C100.326 83.4721 95.1991 92.0768 90.1255 100.715C89.5893 101.629 88.9694 101.861 87.9466 101.994C84.2335 102.484 81.2209 101.453 78.822 98.5387C78.0782 97.6372 77.1081 96.9086 76.1813 96.1738C75.205 95.4019 74.6471 94.5745 74.6347 93.216C74.6192 91.7557 74.985 90.7245 76.1287 89.7643C78.1339 88.0755 80.0525 86.2724 81.8904 84.4045C82.4235 83.8642 82.8171 82.9473 82.8419 82.1878C82.9442 79.0077 82.8357 75.8215 82.9256 72.6415C82.9411 72.0579 83.3595 71.2706 83.843 70.9496C86.7967 68.9798 89.8062 67.0934 92.8467 65.2533C93.2558 65.0063 94.0958 64.9538 94.4522 65.2039C98.2303 67.8837 101.953 70.6408 105.684 73.3824C105.802 73.4689 105.87 73.614 106 73.7807L105.994 73.7838Z" fill="white"/>
<path d="M80.4117 82.6879H61.8557C62.0758 80.4928 62.1378 78.3007 62.5407 76.1704C63.1544 72.9317 62.863 69.9153 61.335 66.9514C60.4269 65.1884 59.8442 63.2557 59.0415 61.2119H83.0586C82.9687 61.604 82.9036 61.9775 82.7921 62.3388C82.6681 62.7309 82.5503 63.1353 82.3457 63.4842C79.11 69.1002 79.1751 75.0929 80.2754 81.2091C80.3559 81.6475 80.359 82.1013 80.4086 82.6848L80.4117 82.6879Z" fill="white"/>
</g>
<defs>
<radialGradient id="paint0_radial_836_1102" cx="0" cy="0" r="1" gradientUnits="userSpaceOnUse" gradientTransform="translate(17 18.5) rotate(48.9973) scale(147.082)">
<stop stop-color="#1A62AA"/>
<stop offset="1" stop-color="#051F58"/>
</radialGradient>
<clipPath id="clip0_836_1102">
<rect width="93" height="105" fill="white" transform="translate(24 17)"/>
</clipPath>
</defs>
</svg>
