<svg width="140" height="140" viewBox="0 0 140 140" fill="none" xmlns="http://www.w3.org/2000/svg">
<rect width="140" height="140" rx="30" fill="#F7F7F7"/>
<rect x="28.7783" y="76.9375" width="31.6023" height="45.0625" fill="#FF8300"/>
<path d="M83.79 122L83.79 99.1762C83.79 91.7423 89.8164 85.7159 97.2503 85.7159V85.7159C104.684 85.7159 110.71 91.7423 110.71 99.1761L110.71 122L83.79 122Z" fill="#FDCF30"/>
<path d="M83.79 64.0625L83.79 41.2387C83.79 33.8048 89.8164 27.7784 97.2503 27.7784V27.7784C104.684 27.7784 110.71 33.8048 110.71 41.2386L110.71 64.0625L83.79 64.0625Z" fill="#0CA346"/>
<path d="M25.2671 57.0398L25.2671 28.8523C25.2671 26.6432 27.0579 24.8523 29.2671 24.8523L42.2103 24.8523C51.5991 24.8523 59.2103 32.4635 59.2103 41.8523L59.2103 46.0398C59.2103 52.1149 54.2854 57.0398 48.2103 57.0398L25.2671 57.0398Z" fill="#EF0000"/>
<path d="M97.2495 76.9375C109.531 76.9375 119.489 86.8939 119.489 99.1758V122H110.71V115.646H83.7896V122H75.0112V99.1758C75.0114 86.894 84.9678 76.9377 97.2495 76.9375ZM97.2505 85.7158C89.8168 85.7159 83.7898 91.7421 83.7896 99.1758V106.979H110.71V99.1758C110.71 91.7422 104.684 85.716 97.2505 85.7158Z" fill="black"/>
<path d="M43.7021 19C56.1456 19.0002 66.2334 29.0877 66.2334 41.5312C66.2334 53.9748 56.1456 64.0623 43.7021 64.0625H20V19H43.7021ZM28.7783 27.7783V54.6992H43.9941C51.428 54.6992 57.4541 48.6722 57.4541 41.2383C57.4539 33.8046 51.4279 27.7783 43.9941 27.7783H28.7783Z" fill="black"/>
<path d="M97.2495 19C109.531 19 119.489 28.9564 119.489 41.2383V64.0625H110.71V57.708H83.7896V64.0625H75.0112V41.2383C75.0114 28.9565 84.9678 19.0002 97.2495 19ZM97.2505 27.7783C89.8168 27.7784 83.7898 33.8046 83.7896 41.2383V49.042H110.71V41.2383C110.71 33.8047 104.684 27.7785 97.2505 27.7783Z" fill="black"/>
<rect x="28.7783" y="76.9375" width="45.0625" height="8.77841" transform="rotate(90 28.7783 76.9375)" fill="black"/>
<rect x="66.2329" y="76.9375" width="45.0625" height="8.77841" transform="rotate(90 66.2329 76.9375)" fill="black"/>
<rect x="64.77" y="103.323" width="44.4773" height="8.89391" transform="rotate(-180 64.77 103.323)" fill="black"/>
</svg>
