<svg width="140" height="140" viewBox="0 0 140 140" fill="none" xmlns="http://www.w3.org/2000/svg">
<rect width="140" height="140" rx="30" fill="url(#paint0_linear_749_3180)"/>
<g clip-path="url(#clip0_749_3180)">
<path d="M70.5005 120.001C98.3911 120.001 121.001 97.3911 121.001 69.5005C121.001 41.6098 98.3911 19 70.5005 19C42.6098 19 20 41.6098 20 69.5005C20 97.3911 42.6098 120.001 70.5005 120.001Z" fill="white"/>
<path d="M99.6633 55.2968C99.6642 64.7096 99.6605 74.1224 99.6577 83.5352C99.6577 83.6893 99.6577 83.8443 99.6484 83.9984C99.5955 84.9118 99.3078 85.0891 98.4677 84.6742C97.777 84.3326 97.1189 83.925 96.431 83.5779C95.1036 82.9086 93.7093 82.4212 92.2565 82.101C91.9855 82.1548 91.733 82.1242 91.5167 81.9348L91.5009 81.932C91.1194 81.9636 90.7416 81.9775 90.4046 81.7473L90.3888 81.7454C90.2366 81.7529 90.0815 81.7844 89.933 81.764C88.1043 81.5096 86.2765 81.6136 84.4478 81.7621C84.2668 81.7761 84.083 81.7519 83.9001 81.7454C83.8388 81.751 83.7766 81.7575 83.7145 81.764C83.3701 81.9905 82.9876 81.9682 82.6024 81.932C79.4917 82.4537 76.511 83.4423 73.5349 84.4532C69.6575 85.7686 65.8162 87.1963 61.8729 88.3149C60.5705 88.6853 59.2477 88.9471 57.9156 89.1726C57.3874 89.4502 56.8212 89.3861 56.2586 89.3564L56.2438 89.3583C55.9096 89.5792 55.5271 89.5012 55.1679 89.5105C54.1254 89.5384 53.082 89.5412 52.0386 89.5356C51.7072 89.5347 51.3573 89.5783 51.0612 89.3592L51.0454 89.3574C50.6007 89.401 50.1626 89.401 49.756 89.1745C47.1197 88.5841 44.617 87.6716 42.3687 86.139C41.7328 85.7046 41.4265 85.1049 41.4144 84.3372C41.3931 82.9476 41.3346 81.5579 41.3365 80.1692C41.3476 72.3531 41.3717 64.5378 41.394 56.7217C41.394 56.2279 41.3875 55.7303 41.4451 55.2411C41.5082 54.7101 41.8053 54.543 42.2917 54.7547C42.6574 54.9134 43.0018 55.1278 43.3425 55.3386C44.8472 56.2659 46.4495 56.9696 48.1111 57.5739C49.1888 57.9656 50.5636 58.2357 51.4028 58.2394C51.736 58.2413 51.9885 58.336 52.7311 58.3675C52.8518 58.3722 52.9725 58.3722 53.0922 58.375C53.1572 58.2924 53.2204 58.2951 53.2825 58.3787H54.208C54.2702 58.2951 54.3334 58.2924 54.3974 58.375C54.5181 58.3722 54.6388 58.3694 54.7585 58.3675C55.1233 58.1457 55.5151 58.194 55.9077 58.2534C56.2039 58.2274 56.5 58.2014 56.797 58.1754C57.0514 58.0083 57.3057 57.8783 57.5684 58.1605C59.6812 57.5646 61.8348 57.1264 63.9123 56.3884C67.23 55.2105 70.4938 53.8914 73.806 52.6995C76.9398 51.5716 80.0654 50.4214 83.3515 49.7744C85.2554 49.3985 87.1649 49.4644 89.0799 49.5015C89.5301 49.4579 89.9822 49.3948 90.3972 49.6556C91.6485 49.9749 92.9239 50.2246 94.1289 50.6962C95.4572 51.217 96.7243 51.8668 97.9209 52.6558C98.6904 53.1627 99.2001 53.8617 99.589 54.6646C99.6763 54.8456 99.6633 55.0851 99.6633 55.2968Z" fill="url(#paint1_linear_749_3180)"/>
<path d="M99.0784 85.3917C93.0204 80.9648 86.1956 80.0912 78.6069 82.7703C70.4408 86.2365 62.7054 88.6547 55.6913 89.3509C52.5491 89.479 49.0764 89.3926 46.2405 88.0568C43.93 87.1044 42.1774 86.7517 41.4533 84.7559L40.3682 89.5328L56.0766 92.2453L65.1951 91.8145L78.955 86.9754L87.0682 83.7617L90.8036 84.1135L99.0784 85.3908V85.3917Z" fill="white"/>
<path d="M42.0747 54.5997C48.2162 58.9106 55.0558 59.6542 62.5925 56.8303C70.6909 53.21 78.3789 50.6442 85.3791 49.8144C88.5186 49.6259 91.9922 49.6473 94.8532 50.9283C97.1813 51.8362 98.9404 52.1564 99.7025 54.1374L100.697 49.34L84.9391 46.9274L75.8299 47.5317L62.1646 52.6317L54.1136 55.9986L50.3717 55.7173L42.0747 54.5978V54.5997Z" fill="white"/>
</g>
<defs>
<linearGradient id="paint0_linear_749_3180" x1="132" y1="7.00001" x2="18" y2="137.5" gradientUnits="userSpaceOnUse">
<stop stop-color="#81B0F9"/>
<stop offset="1" stop-color="#1861D2"/>
</linearGradient>
<linearGradient id="paint1_linear_749_3180" x1="96.331" y1="51.4655" x2="67.2676" y2="99.8862" gradientUnits="userSpaceOnUse">
<stop stop-color="#81B0F9"/>
<stop offset="1" stop-color="#1861D2"/>
</linearGradient>
<clipPath id="clip0_749_3180">
<rect width="101" height="101" fill="white" transform="translate(20 19)"/>
</clipPath>
</defs>
</svg>
