<svg width="140" height="140" viewBox="0 0 140 140" fill="none" xmlns="http://www.w3.org/2000/svg">
<rect width="140" height="140" rx="30" fill="white"/>
<path fill-rule="evenodd" clip-rule="evenodd" d="M117.493 58.1772C118.57 62.1393 115.287 66.5817 115.269 70.4921C115.25 74.5393 118.453 79.0152 117.371 82.8283C116.272 86.6962 111.138 88.967 109.06 92.4083C106.98 95.8495 107.456 101.289 104.511 104.114C101.605 106.898 95.9998 106.399 92.364 108.403C88.8498 110.339 86.4593 115.285 82.3604 116.325C78.2625 117.365 73.6671 114.192 69.623 114.174C65.4369 114.156 60.807 117.253 56.8632 116.206C52.8626 115.144 50.5127 110.18 46.9539 108.17C43.3951 106.159 37.7681 106.62 34.8467 103.772C31.9668 100.964 32.4826 95.5445 30.4114 92.0283C28.408 88.6296 23.2928 86.3192 22.2166 82.3571C21.1405 78.394 24.4226 73.9526 24.4409 70.0422C24.4601 65.995 21.257 61.5201 22.3392 57.706C23.4367 53.8371 28.5722 51.5673 30.6515 48.126C32.7299 44.6848 32.2546 39.2453 35.2003 36.4201C38.1045 33.6355 43.7102 34.1351 47.3471 32.1317C50.8623 30.1953 53.2517 25.2502 57.3506 24.2096C61.4485 23.1689 66.0429 26.3416 70.0881 26.3598C74.2741 26.3781 78.903 23.2814 82.8478 24.3281C86.8495 25.3901 89.1973 30.3533 92.7571 32.3638C96.3159 34.3742 101.943 33.9142 104.864 36.7616C107.744 39.5695 107.228 44.9898 109.301 48.505C111.303 51.9037 116.418 54.2141 117.494 58.1762L117.493 58.1772Z" fill="#55A447"/>
<path fill-rule="evenodd" clip-rule="evenodd" d="M89.5634 38.4295L77.9223 50.5437C75.0212 49.2862 71.8262 48.587 68.468 48.587C55.2472 48.587 44.5303 59.383 44.5303 72.7001C44.5303 86.0172 55.2482 96.8121 68.468 96.8121C80.5955 96.8121 90.6102 87.7256 92.1839 75.9437L92.4058 73.9546V39.5563C92.4058 38.0555 90.5798 37.331 89.5634 38.4295Z" fill="white"/>
<path fill-rule="evenodd" clip-rule="evenodd" d="M68.4695 60.4336C61.4705 60.4336 55.7969 66.0859 55.7969 73.0576C55.7969 80.0293 61.4705 85.6816 68.4695 85.6816C75.4685 85.6816 81.1431 80.0293 81.1431 73.0576C81.1431 66.0859 75.4685 60.4336 68.4695 60.4336Z" fill="#55A447"/>
<path fill-rule="evenodd" clip-rule="evenodd" d="M67.061 84.0118L55.7959 85.6757L57.0494 74.4541L64.1376 77.3664L67.061 84.0108V84.0118Z" fill="#55A447"/>
</svg>
