<svg width="140" height="140" viewBox="0 0 140 140" fill="none" xmlns="http://www.w3.org/2000/svg">
<rect width="140" height="140" rx="30" fill="#01CDBD"/>
<g clip-path="url(#clip0_746_2974)">
<path d="M88.298 24L84.0186 63.3888L76.5584 30.2078L54.4004 34.874L61.3389 68.9678L29 76.1018L34.7121 103.634L91.8628 116L105.043 85.852L111 26.0429L88.298 24ZM67.6834 83.9429C65.4513 83.9429 63.6407 82.1219 63.6407 79.8768C63.6407 77.6318 65.4513 75.8108 67.6834 75.8108C69.9156 75.8108 71.7261 77.6309 71.7261 79.8768C71.7261 82.1228 69.9165 83.9429 67.6834 83.9429ZM83.8891 86.1188C81.656 86.1188 79.8464 84.2987 79.8464 82.0527C79.8464 79.8068 81.656 77.9866 83.8891 77.9866C86.1221 77.9866 87.9318 79.8077 87.9318 82.0527C87.9318 84.2978 86.1212 86.1188 83.8891 86.1188Z" fill="white"/>
</g>
<defs>
<clipPath id="clip0_746_2974">
<rect width="82" height="92" fill="white" transform="translate(29 24)"/>
</clipPath>
</defs>
</svg>
