<svg width="140" height="140" viewBox="0 0 140 140" fill="none" xmlns="http://www.w3.org/2000/svg">
<rect width="140" height="140" rx="30" fill="#A6D827"/>
<g clip-path="url(#clip0_602_3281)">
<path d="M38.6736 110.837C39.356 109.453 40.0511 108.076 40.7178 106.686C40.8468 106.416 40.9474 106.103 40.9474 105.808C40.9474 104.672 41.5576 104.029 42.5766 103.782C44.6429 103.281 45.448 101.765 46.0078 99.8868C47.4891 94.8993 48.4326 89.858 47.8759 84.6267C47.7093 83.0529 48.3571 82.2327 49.8888 81.7894C51.6437 81.2795 53.3231 80.5005 55.034 79.8387C54.9586 79.5949 54.8831 79.351 54.8107 79.104C52.5683 79.6424 50.3133 80.1269 48.093 80.738C46.6211 81.1434 45.2152 82.0142 43.6396 81.0009C47.6149 75.6271 47.7439 75.3072 46.7343 73.5687C43.6773 74.8671 40.6329 76.1591 37.5822 77.4542C37.1262 76.1876 36.7677 75.1932 36.2928 73.8759C34.3712 75.9247 35.1511 77.945 35.4971 80.0635C35.0316 79.8894 34.7328 79.8419 34.5095 79.6835C30.6034 76.8905 29.9964 71.7574 32.5187 67.7104C36.1292 61.9218 41.7494 60.4113 47.8068 59.8349C50.6876 59.5594 53.059 58.3973 55.5561 57.1686C58.7798 55.5821 62.1638 54.3186 65.5196 53.0235C66.4222 52.6751 67.4758 52.5706 68.4571 52.596C72.6399 52.71 76.8386 52.7131 80.9932 53.1438C84.8207 53.5428 88.0758 55.6138 91.2019 57.764C94.2306 59.8476 96.8662 58.9008 97.8317 55.2908C98.967 51.0475 97.2844 47.4945 95.2182 43.9542C93.9067 41.7058 92.677 39.3372 91.8938 36.8672C91.0164 34.0964 91.6454 31.3319 93.3343 28.9031C94.954 26.5692 96.5579 26.4901 98.8758 28.1114C100.156 29.0044 101.82 29.3464 103.317 29.9196C103.876 30.1349 104.449 30.3091 105.462 30.6511C103.76 31.7404 102.361 32.2407 100.801 32.3389C98.1996 32.5067 96.4101 34.5429 97.1586 37.035C97.8411 39.3087 98.9293 41.5317 100.219 43.5235C102.055 46.3577 103.644 49.1792 103.615 52.6815C103.587 56.2471 102.279 59.3568 100.332 62.2384C99.508 63.4544 98.4418 64.5216 97.7405 65.7978C97.08 66.9979 96.1963 68.4704 96.3755 69.6769C97.4857 77.2104 89.7301 83.8129 81.987 82.429C79.9301 82.0617 77.8355 81.9224 75.7567 81.6627C72.0424 81.2004 68.369 81.1275 64.7208 82.277C62.9847 82.8249 61.1417 83.0339 59.3396 83.3537C56.9368 83.778 55.0435 84.9339 53.8075 87.0935C52.4488 89.4685 51.194 91.834 50.8889 94.6745C50.5304 98.0185 49.8573 101.331 49.2566 104.643C49.1623 105.169 48.8572 105.846 48.4421 106.093C45.6241 107.772 42.7527 109.358 39.8907 110.954C39.6422 111.094 39.3246 111.1 39.0384 111.166C38.9189 111.056 38.7962 110.945 38.6767 110.834L38.6736 110.837Z" fill="black"/>
<path d="M109 113C106.629 112.709 104.443 112.43 102.257 112.177C101.968 112.142 101.663 112.218 101.364 112.246C99.9675 112.389 99.0114 111.873 98.351 110.555C97.832 109.517 97.1873 108.465 96.3602 107.674C91.7558 103.266 86.4659 99.8141 80.9338 96.714C80.3425 96.3815 79.7701 96.0078 79.2197 95.6088C76.471 93.6265 76.4584 93.6075 77.4019 90.3743C77.8988 88.6738 77.7007 87.0652 77.0213 85.4502C76.8201 84.972 76.8987 84.3703 76.8515 83.8257C77.3358 83.8035 77.8296 83.7212 78.3077 83.7687C79.2921 83.8732 80.267 84.117 81.2546 84.174C82.371 84.2373 82.6981 84.7852 82.5314 85.8112C82.4308 86.435 82.4088 87.0715 82.283 87.689C81.5502 91.3085 83.1919 93.7278 86.0822 95.6088C89.721 97.9743 93.3535 100.352 96.8948 102.86C98.329 103.877 99.6436 105.144 100.769 106.502C102.351 108.412 104.157 109.719 106.657 110.02C108.038 110.185 108.975 110.913 108.997 112.997L109 113Z" fill="black"/>
</g>
<defs>
<clipPath id="clip0_602_3281">
<rect width="78" height="86" fill="white" transform="translate(31 27)"/>
</clipPath>
</defs>
</svg>
