<svg width="140" height="140" viewBox="0 0 140 140" fill="none" xmlns="http://www.w3.org/2000/svg">
<rect width="140" height="140" rx="30" fill="white"/>
<g clip-path="url(#clip0_2755_340)">
<path d="M126 69.0108V71.8324C125.365 73.875 124.586 75.466 122.722 76.601C121.898 77.1026 119.845 77.9459 118.925 77.9459H111.695V85H104.93C104.913 85 104.697 84.7821 104.697 84.7649V63.054H118.614C119.129 63.054 120.825 63.5133 121.378 63.7171C123.877 64.6326 125.344 66.4416 126.002 69.0108H126ZM111.694 73.4H115.97C116.086 73.4 117.116 73.0912 117.294 73.0097C119.12 72.182 119.163 69.2052 117.402 68.1925C117.233 68.0953 116.399 67.7552 116.281 67.7552H111.694V73.3984V73.4Z" fill="#FE2402"/>
<path d="M14.0394 69.6378C14.4859 66.0951 17.807 62.8973 21.4252 62.8973H28.3443V56H35.3412V77.7892H21.4252C17.9579 77.7892 14.4796 74.8657 14.0394 71.3622C13.9881 70.9577 13.9881 70.0423 14.0394 69.6378ZM28.3443 67.4432H24.3792C24.0603 67.4432 22.9107 67.7959 22.5981 67.9997C21.1032 68.9732 21.0503 71.7352 22.6354 72.6491C22.805 72.7463 23.6387 73.0865 23.757 73.0865H28.3443V67.4432Z" fill="#FE2402"/>
<path d="M66.1313 77.9459V84.7649C66.1313 84.7821 65.9151 85 65.898 85H59.1329V63.054H72.8949C79.1202 63.054 82.7742 70.1567 78.806 75.1259C77.7762 76.4144 74.998 77.9459 73.3615 77.9459H66.1313ZM66.1313 73.4H70.252C70.7031 73.4 71.9087 72.936 72.2758 72.6178C73.1749 71.8356 73.234 69.8087 72.5744 68.865C72.2042 68.3336 71.1822 67.7567 70.5647 67.7567H66.1329V73.4H66.1313Z" fill="#FE2402"/>
<path d="M91.1369 62.3173C96.7851 61.858 102.883 64.3285 102.525 70.9765C101.973 81.241 83.4525 81.2472 82.4787 71.4217C81.9233 65.8161 86.0145 62.7343 91.1369 62.3173ZM91.5942 66.5403C88.6107 67.0529 88.3385 72.9047 91.084 74.0333C96.6249 76.3078 97.6982 65.4932 91.5942 66.5403Z" fill="#FE2402"/>
<path d="M56.8011 71.8324H44.0502C44.3971 74.1446 47.3029 74.6243 49.2131 74.1368C50.2258 73.8781 50.7407 73.3201 51.5884 72.9156L56.3313 74.7309C52.3444 80.6719 38.4782 79.8568 37.6756 71.7525C36.9631 64.5542 42.7638 61.5899 49.1011 62.2718C52.6991 62.659 56.8011 65.385 56.8011 69.4027V71.8324ZM44.0502 68.5405H50.5042C50.8822 68.5405 50.5711 67.6408 50.4996 67.4479C49.4418 64.6263 43.9336 65.2236 44.0518 68.5405H44.0502Z" fill="#FE2402"/>
</g>
<defs>
<clipPath id="clip0_2755_340">
<rect width="112" height="29" fill="white" transform="translate(14 56)"/>
</clipPath>
</defs>
</svg>
