<svg width="140" height="140" viewBox="0 0 140 140" fill="none" xmlns="http://www.w3.org/2000/svg">
<rect width="140" height="140" rx="30" fill="white"/>
<g clip-path="url(#clip0_1531_7604)">
<path d="M53.8847 68.7319C54.1369 67.6539 54.3851 66.6412 54.6092 65.6232C54.8975 64.3155 55.1884 63.0075 55.4346 61.6915C55.5575 61.034 55.8561 60.6685 56.5546 60.5664C57.8402 60.3785 59.1165 60.1264 60.5555 59.8732C60.0388 62.2595 59.5575 64.4603 59.0861 66.6634C57.901 72.2036 56.6975 77.7402 55.5598 83.29C55.3564 84.2819 55.0591 84.8201 53.9181 84.6862C53.0075 84.5795 52.0743 84.6646 51.0979 84.6646C51.159 84.0569 51.2051 83.5956 51.2509 83.1419C50.2311 83.6927 49.3336 84.3873 48.3171 84.6875C45.1786 85.6154 42.1473 84.211 40.6746 81.3033C38.5349 77.0791 40.2117 70.7495 44.1685 68.1122C47.1611 66.1176 50.4559 66.2952 53.885 68.7316L53.8847 68.7319ZM52.5673 74.9283C52.5716 72.8402 51.8562 71.5614 50.4125 71.0845C48.6645 70.5072 46.8541 71.1405 45.698 72.7898C44.8025 74.0677 44.401 75.5182 44.4024 77.0678C44.404 78.9412 45.2805 80.278 46.7963 80.788C48.3115 81.2977 50.0227 80.737 51.1393 79.3498C52.1798 78.0573 52.566 76.5525 52.5673 74.9287V74.9283Z" fill="#004695"/>
<path d="M62.8295 84.6222H57.7419C57.8936 83.8004 58.0148 83.0454 58.1732 82.2985C59.6963 75.1056 61.2392 67.9167 62.737 60.7185C62.9354 59.7651 63.2604 59.214 64.351 59.1186C65.6473 59.0053 66.9243 58.6758 68.4084 58.4034C67.6705 61.9165 66.9644 65.2792 66.2583 68.6418C66.3231 68.7061 66.3879 68.7701 66.4527 68.8343C67.6488 67.696 69.0444 67.2291 70.6634 67.1558C74.6523 66.9752 76.7176 70.0081 76.082 73.5719C75.4607 77.0549 74.6393 80.503 73.8647 83.9574C73.8043 84.2272 73.4315 84.6126 73.1863 84.6262C71.9481 84.6948 70.7042 84.6577 69.2542 84.6577C69.4639 83.514 69.6279 82.487 69.8434 81.471C70.3073 79.2855 70.8037 77.1069 71.2753 74.923C71.6541 73.1693 71.1735 71.8918 69.9623 71.3788C68.5514 70.7809 66.8118 71.2224 65.9637 72.6556C65.3658 73.6657 65.018 74.8571 64.7388 76.0103C64.0517 78.8464 63.4688 81.7069 62.8295 84.6229V84.6222Z" fill="#004695"/>
<path d="M29.3613 84.4247C30.163 83.5469 30.9649 82.6687 31.7666 81.7908C31.6758 81.6891 31.5849 81.587 31.494 81.4853C29.7314 83.4398 27.6043 84.7455 24.9491 84.7044C22.32 84.664 20.2273 83.3503 18.5398 81.356C18.4523 81.4425 18.3651 81.529 18.2776 81.6158C18.9928 82.4781 19.7079 83.3407 20.381 84.152C17.672 83.7802 15.5226 80.8235 16.0914 77.8443C16.8857 73.6836 19.2831 70.5112 22.8064 68.2057C24.2036 67.2914 25.7936 67.2692 27.2295 68.1954C30.9462 70.5924 33.3489 73.9169 34.0607 78.3029C34.3152 79.872 33.7938 81.3607 32.6154 82.4284C31.6771 83.2784 30.5087 83.8779 29.4421 84.5888C29.4151 84.5341 29.3877 84.4794 29.3606 84.4247H29.3613Z" fill="#004695"/>
<path d="M91.0657 69.0524C92.338 67.7172 94.1979 68.1868 95.9976 67.5847C95.7394 68.9265 95.532 70.0539 95.3045 71.177C94.4528 75.3846 93.5796 79.5884 92.7536 83.8007C92.6206 84.479 92.3374 84.7094 91.6556 84.6779C90.5904 84.6285 89.5215 84.665 88.3541 84.665C88.4216 84.0777 88.477 83.5962 88.5308 83.1303C87.5755 83.6751 86.7231 84.3634 85.7477 84.6805C82.5721 85.7141 79.3638 84.1742 78.0197 80.9955C76.4441 77.2689 77.3924 71.0209 81.9391 68.318C84.0776 67.0468 86.3934 66.7999 88.7369 67.6307C89.5823 67.9303 90.3035 68.5752 91.0654 69.0524H91.0657ZM89.8348 75.446C89.8502 73.1289 89.0796 71.8341 87.5875 71.3751C85.9127 70.8602 84.144 71.5395 83.0745 73.1156C82.172 74.4458 81.7791 75.9295 81.8677 77.5145C81.9542 79.0581 82.5461 80.333 84.14 80.8874C85.5817 81.3888 87.2528 80.8443 88.3391 79.5605C89.417 78.2867 89.7761 76.7699 89.8345 75.446H89.8348Z" fill="#004695"/>
<path d="M103.092 66.1249C102.898 67.1253 102.739 67.9422 102.58 68.7591C102.645 68.8015 102.71 68.8439 102.776 68.8864C103.029 68.6865 103.279 68.4827 103.536 68.2872C106.694 65.882 111.438 67.1522 112.378 70.7455C112.664 71.8351 112.631 73.0864 112.426 74.2069C111.852 77.3471 111.093 80.4533 110.453 83.5823C110.287 84.3949 109.958 84.7521 109.073 84.6848C108.012 84.604 106.94 84.6656 105.663 84.6656C105.961 83.2058 106.224 81.8803 106.502 80.5577C106.92 78.5753 107.364 76.5989 107.764 74.6132C108.062 73.1361 107.623 72.0024 106.61 71.4663C105.466 70.8608 103.983 71.0888 102.944 72.0114C101.534 73.2634 101.412 75.0363 101.028 76.693C100.477 79.0677 99.9606 81.4508 99.4722 83.8388C99.3436 84.4681 99.063 84.6971 98.4251 84.6762C97.2576 84.6384 96.0882 84.6653 94.7815 84.6653C95.0083 83.5197 95.195 82.5188 95.4055 81.523C96.3564 77.0204 97.3284 72.5217 98.2547 68.0141C98.3993 67.3106 98.6679 66.9471 99.4204 66.8403C100.601 66.6727 101.765 66.39 103.093 66.1245L103.092 66.1249Z" fill="#004695"/>
<path d="M112.595 84.6613C112.702 84.0681 112.773 83.6095 112.869 83.1561C114.609 74.9558 116.348 66.7552 118.108 58.5592C118.179 58.2288 118.399 57.7281 118.64 57.6691C120.031 57.3294 121.449 57.0991 123.012 56.8025C122.373 59.7933 121.781 62.5727 121.187 65.3517C119.88 71.4663 118.553 77.5771 117.287 83.6999C117.122 84.494 116.791 84.7061 116.045 84.6736C114.946 84.6259 113.844 84.6613 112.595 84.6613Z" fill="#004695"/>
<path d="M27.9843 62.7781C28.1977 62.4729 28.4112 62.1677 28.6163 61.8744C28.7044 61.8575 28.7786 61.8188 28.836 61.8357C30.7954 62.4083 30.8653 62.633 29.5793 64.2144C29.4924 64.3214 29.3879 64.4156 29.3104 64.5286C28.5648 65.6149 27.8046 66.1759 26.2747 65.6364C25.2787 65.2851 23.9656 65.6036 22.855 65.87C22.2213 66.0221 21.925 65.9612 21.576 65.4873C21.0656 64.7947 20.5024 64.1405 19.9767 63.4585C19.502 62.8424 19.4783 62.4159 20.3692 62.0932C21.3378 61.7425 22.1027 61.6521 22.4391 63.1324C22.5012 63.0091 22.5637 62.8855 22.6258 62.7622C22.6015 62.6052 22.5868 62.4458 22.551 62.2913C22.2367 60.9356 22.5263 60.4054 23.9533 60.2178C24.8545 60.0992 25.8141 60.1442 26.709 60.3146C27.9739 60.5552 28.1536 60.9581 27.869 62.1995C27.8266 62.3844 27.7992 62.573 27.7652 62.7596L27.9839 62.7788L27.9843 62.7781Z" fill="#004695"/>
<path d="M121.44 54.5026C120.242 54.505 119.382 53.6944 119.356 52.5385C119.325 51.1065 120.453 49.9818 121.903 50C123.18 50.0162 124.014 50.8325 124 52.0523C123.984 53.3964 122.831 54.4996 121.44 54.5026Z" fill="#004695"/>
<path d="M28.0901 67.7017C26.9711 67.4346 25.955 67.0094 24.9358 67.0021C23.9732 66.9948 23.0072 67.4269 21.9807 67.6811C22.3435 66.5753 23.568 66.0149 25.2715 66.0699C26.8014 66.1193 27.8158 66.6783 28.0897 67.702L28.0901 67.7017Z" fill="#004695"/>
<path d="M68.3466 50.5793C68.7144 50.9282 69.0875 51.2818 69.4606 51.6358C68.9014 51.9068 68.3422 52.1779 67.6375 52.5193C67.907 51.7819 68.0891 51.2838 68.3466 50.5789V50.5793Z" fill="#004695"/>
<path d="M27.2982 58.7378C30.0649 59.1295 32.7715 59.5325 35.4842 59.8891C36.9218 60.078 38.3732 60.0959 39.8235 60.1459C43.2853 60.2655 46.7185 59.9726 50.1239 59.4486C51.615 59.219 53.0746 58.6904 54.5013 58.1691C56.298 57.513 58.0754 56.7879 59.8076 55.979C62.0646 54.9251 64.3009 53.8193 66.4073 52.4798C67.0099 52.0967 66.9698 51.7786 66.3281 51.4601C66.09 51.3418 65.6731 51.2785 65.7977 50.8354C65.9033 50.4596 66.2209 50.4709 66.5406 50.4328C67.4104 50.3291 68.2778 50.2028 69.141 50.054C69.8337 49.9347 70.3665 50.1538 70.1183 50.8782C69.7299 52.0135 69.9523 53.3142 69.1794 54.3376C69.0828 54.3097 68.983 54.3097 68.9653 54.272C68.2942 52.8291 68.3664 52.9374 66.9658 53.8402C65.0715 55.061 63.1449 56.2215 61.0499 57.1488C59.5778 57.8006 58.0506 58.3415 56.5736 58.9728C55.0511 59.6233 53.3893 60.0432 51.7252 60.349C47.7162 61.0861 43.6862 61.4002 39.6144 61.0579C38.2429 60.9426 36.8326 61.0078 35.5065 60.7046C33.9854 60.3567 32.4155 60.3583 30.915 59.8917C29.7269 59.5219 28.4302 59.4964 27.2979 58.7385L27.2982 58.7378Z" fill="#F79A0E"/>
</g>
<defs>
<clipPath id="clip0_1531_7604">
<rect width="108" height="35" fill="white" transform="translate(16 50)"/>
</clipPath>
</defs>
</svg>
