<svg width="140" height="140" viewBox="0 0 140 140" fill="none" xmlns="http://www.w3.org/2000/svg">
<rect width="140" height="140" rx="30" fill="#F87936"/>
<g clip-path="url(#clip0_746_3011)">
<path d="M83.1172 39.9509C86.0196 39.9587 88.9219 39.983 91.8233 39.9626C92.4174 39.9587 92.5879 40.1034 92.6267 40.7286C92.7934 43.3987 92.7139 46.0697 92.6916 48.7387C92.6732 51.0058 92.2478 53.2593 91.4609 55.3488C90.6507 57.5003 89.6468 59.5975 88.2416 61.4947C85.9178 64.6298 83.122 67.1746 79.6973 69.0203C77.4219 70.2476 75.0409 71.1903 72.5039 71.7671C69.8981 72.3593 67.2729 72.4972 64.6467 72.1913C63.2212 72.0253 61.7995 71.7302 60.3866 71.3573C58.8933 70.9631 57.5027 70.3777 56.0966 69.8029C55.3339 69.4912 54.5955 69.0941 53.9006 68.6485C51.5109 67.1183 49.2714 65.3842 47.4602 63.1831C46.0715 61.4947 44.8825 59.6655 43.9735 57.6508C43.1255 55.7701 42.4385 53.8526 42.1322 51.8117C41.9326 50.4835 41.8444 49.1417 41.8425 47.7979C41.8376 43.052 41.8425 38.3062 41.8425 33.5603C41.8425 32.6098 42.0247 31.734 42.9744 31.2757C43.5209 31.0107 44.1314 31.0136 44.7352 31.0136C54.5334 31.0165 64.3327 31.0155 74.131 31.0146C76.8705 31.0146 79.6111 31.0301 82.3506 30.999C82.9689 30.9922 83.1414 31.1854 83.1346 31.7942C83.1065 34.5157 83.1249 37.2382 83.1269 39.9597C82.8265 39.9723 82.526 39.9946 82.2256 39.9946C72.4312 39.9966 62.6368 39.9966 52.8424 39.9985C52.0206 39.9985 51.3801 40.5461 51.3975 41.3393C51.4557 44.0055 51.1882 46.6794 51.5332 49.3378C51.853 51.8107 52.7213 54.0807 54.1759 56.1148C55.4318 57.8712 56.8989 59.3946 58.7034 60.6189C60.6909 61.9675 62.8675 62.8268 65.2078 63.0967C68.4871 63.4744 71.6414 62.9093 74.5942 61.3161C76.5982 60.2354 78.3445 58.8344 79.707 57.0479C82.0793 53.938 83.185 50.3718 83.1085 46.4367C83.0668 44.2754 83.1123 42.1132 83.1191 39.9509H83.1172Z" fill="white"/>
<path d="M34.0156 95.7993C34.0156 91.3583 34.0291 86.9173 34.0001 82.4763C33.9962 81.8481 34.1784 81.7064 34.7811 81.7122C37.9141 81.7442 41.0491 81.6627 44.1792 81.7501C46.7899 81.8239 49.2814 82.4773 51.4879 83.9482C54.1568 85.727 55.7548 88.2815 56.5862 91.334C57.6435 95.2148 57.3663 99.0499 55.7548 102.704C54.4833 105.585 52.3087 107.695 49.3608 108.909C47.6572 109.61 45.8877 109.993 44.0232 109.972C40.9134 109.935 37.8037 109.95 34.6939 109.977C34.1289 109.982 34.001 109.803 34.003 109.263C34.0233 104.775 34.0146 100.288 34.0146 95.8003L34.0156 95.7993ZM37.8134 95.8731C37.8134 99.2228 37.8192 102.573 37.8056 105.923C37.8037 106.366 37.8647 106.619 38.3996 106.593C40.7312 106.477 43.0706 106.752 45.4022 106.408C47.7066 106.067 49.731 105.192 51.1788 103.326C52.6857 101.383 53.2991 99.0965 53.3544 96.6586C53.3805 95.5032 53.2952 94.3555 53.1848 93.2001C53.0026 91.2894 52.2874 89.5805 51.1148 88.1737C49.5517 86.2979 47.3422 85.4415 44.9351 85.2075C42.8099 85.0007 40.6721 85.1328 38.5402 85.0813C37.9529 85.0667 37.7969 85.2483 37.8017 85.824C37.8269 89.1737 37.8143 92.5234 37.8134 95.8741V95.8731Z" fill="white"/>
<path d="M72.6308 95.8401C72.6308 91.4195 72.6492 86.9979 72.6124 82.5773C72.6066 81.8442 72.8256 81.6996 73.5117 81.7093C76.4373 81.7491 79.3639 81.7064 82.2905 81.7355C84.8683 81.7607 87.3336 82.3064 89.577 83.6181C91.9309 84.9949 93.5192 87.0125 94.5948 89.532C95.7868 92.3244 95.97 95.2566 95.6095 98.1363C94.9418 103.471 92.2865 107.488 86.9721 109.297C85.6251 109.755 84.2171 109.981 82.7722 109.969C79.614 109.943 76.4548 109.948 73.2966 109.979C72.6987 109.984 72.625 109.746 72.627 109.243C72.6415 104.775 72.6357 100.307 72.6357 95.8401H72.6318H72.6308ZM76.4383 95.7653H76.4286C76.4286 97.1605 76.4286 98.5558 76.4286 99.95C76.4286 101.949 76.4257 103.949 76.4286 105.948C76.4286 106.236 76.3385 106.594 76.8308 106.58C79.3048 106.515 81.7934 106.79 84.251 106.4C86.2308 106.085 88.0507 105.301 89.4113 103.775C90.7108 102.319 91.4434 100.563 91.771 98.6237C92.2148 95.9983 92.0297 93.4244 91.2428 90.8952C90.83 89.5679 90.0683 88.4824 89.0343 87.5183C87.507 86.0949 85.6542 85.4891 83.6976 85.225C81.5162 84.9308 79.3 85.124 77.0992 85.0832C76.606 85.0735 76.4199 85.1726 76.4247 85.7221C76.4519 89.0689 76.4383 92.4166 76.4383 95.7643V95.7653Z" fill="white"/>
<path d="M62.2524 100.066C62.2524 96.9741 62.267 93.8817 62.2389 90.7903C62.234 90.232 62.3891 90.0612 62.9385 90.0893C63.7952 90.132 64.6557 90.1175 65.5134 90.0942C65.9184 90.0835 66.0832 90.1825 66.0822 90.6321C66.0706 96.8858 66.0716 103.139 66.0871 109.392C66.088 109.858 65.9349 110.001 65.4872 109.988C64.6296 109.963 63.7681 109.942 62.9124 109.997C62.3154 110.035 62.2398 109.783 62.2428 109.272C62.2631 106.204 62.2524 103.135 62.2515 100.067L62.2524 100.066Z" fill="white"/>
<path d="M104.543 100.039C104.543 103.106 104.528 106.174 104.555 109.241C104.56 109.826 104.389 110.009 103.811 109.975C103.002 109.928 102.187 109.936 101.377 109.972C100.774 109.999 100.527 109.783 100.575 109.168C100.85 105.67 100.667 102.166 100.704 98.6635C100.732 96.0149 100.722 93.3652 100.697 90.7165C100.693 90.2204 100.844 90.0709 101.327 90.0903C102.184 90.1233 103.044 90.132 103.9 90.0883C104.442 90.0602 104.554 90.2612 104.551 90.767C104.53 93.8575 104.541 96.9479 104.541 100.038H104.543V100.039Z" fill="white"/>
<path d="M102.502 85.8949C101.239 85.8969 100.113 84.7551 100.118 83.4764C100.123 82.1035 101.145 81.1374 102.594 81.1345C103.962 81.1326 104.98 82.1074 104.999 83.4191C105.021 84.9842 103.88 85.9678 102.501 85.8949H102.502Z" fill="white"/>
<path d="M64.0429 81.1374C65.5586 81.1151 66.485 82.0151 66.5567 83.4472C66.6158 84.6298 65.5275 85.8707 64.2358 85.9241C62.8161 85.9823 61.69 84.8512 61.6968 83.3055C61.7017 82.1831 62.7667 80.9976 64.0429 81.1374Z" fill="white"/>
</g>
<defs>
<clipPath id="clip0_746_3011">
<rect width="71" height="79" fill="white" transform="translate(34 31)"/>
</clipPath>
</defs>
</svg>
