<svg width="140" height="140" viewBox="0 0 140 140" fill="none" xmlns="http://www.w3.org/2000/svg">
<g clip-path="url(#clip0_653_17434)">
<rect width="140" height="140" rx="30" fill="#8A99F8"/>
<g clip-path="url(#clip1_653_17434)">
<path d="M116 88.9112V91.0831C115.913 91.2659 115.795 91.4285 115.681 91.5938C114.697 93.0112 113.534 94.2676 112.258 95.4174C109.371 98.0205 106.07 99.9144 102.413 101.18C99.3972 102.223 96.2915 102.799 93.1077 102.952C93.0496 102.955 92.9906 102.952 92.9455 103H92.1302C92.1242 102.868 92.0158 102.801 91.9446 102.715C90.3671 100.798 88.8016 98.873 87.2656 96.9231C87.0497 96.6495 87.0514 96.6503 87.3957 96.5472C89.2855 95.9814 91.1121 95.2592 92.8614 94.3367C95.4866 92.9526 97.8405 91.2108 99.8343 88.9916C100.263 88.5142 100.681 88.0254 101.019 87.4755C101.04 87.4466 101.059 87.4186 101.033 87.3828C101.055 87.3924 101.063 87.3889 101.055 87.3714C101.05 87.3766 101.044 87.3828 101.039 87.388C101.005 87.3863 100.981 87.4011 100.965 87.4309C100.833 87.4728 100.727 87.5603 100.613 87.6346C98.8569 88.773 97.0339 89.7882 95.1415 90.6792C94.0773 91.1802 92.9828 91.6043 91.8952 92.0476C90.8432 92.476 89.7868 92.8914 88.714 93.2638C86.1069 94.1697 83.4444 94.8509 80.7272 95.3361C78.2632 95.7759 75.7854 96.0759 73.2876 96.1738C71.7187 96.2359 70.1471 96.2341 68.5765 96.1511C67.6476 96.1021 66.7205 96.047 65.796 95.9534C64.4213 95.8153 63.0501 95.65 61.6885 95.4061C61.2557 95.3283 60.8212 95.2583 60.3867 95.1945C60.13 95.1569 59.888 95.0677 59.6365 95.0109C59.1187 94.8928 58.6001 94.7792 58.0832 94.6576C57.5489 94.5317 57.0138 94.4128 56.4856 94.2659C55.771 94.0683 55.0668 93.8313 54.3504 93.6416C53.8777 93.5165 53.4224 93.3417 52.9506 93.2166C52.249 93.0313 51.5898 92.7104 50.9003 92.4822C50.4008 92.316 49.9003 92.1586 49.4259 91.9217C49.0912 91.7547 48.72 91.6803 48.3826 91.5072C48.0244 91.3227 47.6445 91.1802 47.2707 91.0298C46.7989 90.8392 46.3436 90.6119 45.8753 90.4116C45.4191 90.2166 44.9906 89.9578 44.5423 89.7436C44.2977 89.6273 44.0852 89.4603 43.8441 89.3388C43.4365 89.1324 43.0141 88.9409 42.642 88.6795C42.0783 88.2843 41.4807 87.9494 40.904 87.5769C40.8173 87.5209 40.7062 87.3793 40.6082 87.4938C40.5319 87.5821 40.6655 87.6827 40.7245 87.7649C41.3506 88.6384 42.074 89.4236 42.8467 90.1659C43.8311 91.112 44.8874 91.9636 46.0123 92.7331C47.6064 93.8243 49.3002 94.7223 51.0799 95.4594C51.9471 95.8188 52.8222 96.1546 53.7251 96.4134C53.7979 96.4344 53.8795 96.4422 53.9263 96.5157C53.9263 96.5699 53.889 96.6031 53.8586 96.6407C53.4467 97.1583 53.0356 97.676 52.6236 98.1927C51.7199 99.3259 50.8153 100.458 49.9116 101.591C49.5664 102.023 49.2213 102.457 48.8761 102.891C48.831 102.914 48.8102 102.951 48.8162 103.002H48.001C47.9568 102.954 47.8969 102.955 47.8388 102.954C46.9672 102.921 46.1016 102.83 45.2369 102.722C43.6966 102.531 42.1772 102.237 40.6768 101.833C37.2909 100.921 34.1452 99.4868 31.2745 97.4521C29.337 96.0785 27.6042 94.4801 26.1098 92.6229C25.7247 92.1446 25.383 91.634 25.0257 91.1356C25.0179 91.0779 25.0023 91.0202 25.0023 90.9625C25.0058 90.2612 24.9823 89.56 25.0188 88.8587C25.0743 88.7687 25.0526 88.6681 25.0517 88.5728C25.0439 87.9179 25.0864 87.2639 25.1211 86.6107C25.1679 85.7337 25.2269 84.8576 25.2928 83.9814C25.3483 83.2417 25.4099 82.5029 25.4914 81.7657C25.6068 80.7182 25.7464 79.6742 25.8704 78.6276C25.9632 77.8433 26.1081 77.0668 26.1957 76.2808C26.246 75.8287 26.3353 75.374 26.4446 74.9263C26.5513 74.4874 26.5712 74.0301 26.6866 73.5885C26.7742 73.2519 26.8288 72.9039 26.8696 72.5585C26.899 72.3076 26.9892 72.075 27.0395 71.8319C27.4437 69.8707 27.9042 67.9234 28.4159 65.9875C29.579 61.592 31.0013 57.284 32.6838 53.0625C33.454 51.1318 34.2892 49.2309 35.1617 47.3458C35.46 46.7022 35.7723 46.0639 36.1252 45.4475C36.1998 45.3163 36.2883 45.2114 36.4071 45.1213C38.3923 43.6165 40.5241 42.3469 42.7071 41.1621C42.9603 41.0249 43.2326 40.9304 43.4902 40.8063C43.9924 40.5641 44.4989 40.335 45.0089 40.1103C46.5457 39.4344 48.1241 38.8686 49.7295 38.3886C50.6653 38.1088 51.615 37.8727 52.5733 37.6777C53.7511 37.4381 54.9332 37.2309 56.1301 37.1242C56.6019 37.0823 57.0745 37.0455 57.5463 37.0071C57.7397 37.0149 57.934 36.9852 58.1274 37.0202C58.3538 37.328 58.6383 37.5912 58.8412 37.9191C58.7311 38.01 58.6218 38.0292 58.522 38.0581C57.2471 38.4279 55.9887 38.8468 54.7372 39.291C52.9358 39.9293 51.1631 40.6366 49.4251 41.4323C46.1944 42.91 43.0982 44.6247 40.2327 46.7442C39.7574 47.0957 39.2761 47.4428 38.8529 47.8616C38.7557 47.9019 38.6759 47.9604 38.6265 48.089C38.7384 48.0759 38.8086 48.0348 38.8745 47.9823C38.963 47.9421 39.0532 47.9062 39.1382 47.8608C40.2015 47.2915 41.2873 46.7669 42.3732 46.2414C42.8328 46.0193 43.3064 45.827 43.7782 45.6311C44.498 45.3321 45.2031 44.9998 45.9394 44.741C46.8137 44.4332 47.6766 44.0948 48.5474 43.7765C49.2421 43.5221 49.9559 43.3262 50.6618 43.1041C51.5942 42.8103 52.5352 42.5506 53.4814 42.3102C54.6782 42.005 55.8837 41.7383 57.0988 41.5163C57.9644 41.3589 58.8334 41.2155 59.7085 41.1245C60.6131 41.0301 61.515 40.9112 62.4188 40.8063C64.0354 40.6191 65.6537 40.4679 67.2764 40.3804C68.331 40.3236 69.3874 40.293 70.4446 40.3009C71.6658 40.3096 72.8852 40.3288 74.1046 40.4067C74.6935 40.4443 75.2823 40.4819 75.8712 40.5256C77.2433 40.627 78.6067 40.7958 79.9666 40.9995C81.7688 41.2697 83.5554 41.6203 85.3273 42.0461C87.7721 42.6328 90.1736 43.3647 92.5301 44.2443C95.1519 45.2228 97.7008 46.3656 100.174 47.6815C100.431 47.8179 100.676 47.9788 100.952 48.0776C100.973 48.0977 100.995 48.1152 101.017 48.082C101.019 48.0794 100.994 48.0601 100.982 48.0488C100.966 47.9989 100.927 47.9709 100.89 47.9386C99.9844 47.1525 99.02 46.4469 98.0295 45.7762C95.7303 44.2207 93.3072 42.8864 90.7981 41.7077C88.6438 40.6952 86.44 39.806 84.1911 39.0313C83.4756 38.7847 82.7531 38.5591 82.035 38.3213C81.8494 38.2601 81.8434 38.2347 81.9683 38.0887C82.2336 37.7783 82.5068 37.4731 82.7688 37.1592C82.8737 37.0333 82.9943 36.9922 83.1504 37.0018C83.6621 37.0351 84.1764 37.0447 84.6872 37.0928C85.9682 37.2152 87.2379 37.4198 88.4972 37.6865C90.1841 38.0432 91.838 38.5215 93.4624 39.0995C95.321 39.7605 97.1189 40.5597 98.8665 41.4804C100.873 42.5375 102.781 43.752 104.603 45.1047C104.74 45.2061 104.84 45.3251 104.918 45.4772C105.731 47.0563 106.482 48.6634 107.189 50.2933C109.082 54.6608 110.668 59.1385 111.987 63.715C112.916 66.9415 113.692 70.2056 114.318 73.5063C114.487 74.3973 114.632 75.2918 114.782 76.1863C114.975 77.3405 115.141 78.4991 115.289 79.6594C115.439 80.8302 115.56 82.0045 115.663 83.1805C115.784 84.5515 115.878 85.9234 115.936 87.298C115.945 87.5227 115.918 87.7474 115.954 87.9712C115.966 88.2843 115.904 88.6008 115.995 88.9112H116ZM40.4226 87.3347L40.4278 87.3321C40.4374 87.3478 40.4443 87.367 40.4573 87.3784C40.486 87.402 40.5137 87.4702 40.5545 87.402C40.5762 87.3662 40.5328 87.3356 40.4981 87.3268C40.4747 87.3207 40.4469 87.3321 40.4218 87.3355L40.4226 87.3347ZM47.9914 75.0129C47.9984 75.3574 48.0105 75.6984 48.0496 76.0403C48.2967 78.221 49.1588 80.1088 50.752 81.611C52.6991 83.4463 55.0017 84.1484 57.6218 83.5556C59.7571 83.0729 61.3607 81.799 62.5142 79.947C63.6373 78.1432 64.0388 76.1601 63.8524 74.0511C63.6807 72.11 62.966 70.3936 61.6694 68.9438C60.2557 67.3629 58.4943 66.4501 56.3772 66.3268C54.2472 66.2026 52.3808 66.9022 50.8197 68.3615C48.9056 70.1505 48.0452 72.4125 47.9914 75.0129ZM92.3445 75.089C92.3219 74.6186 92.315 74.1989 92.2577 73.7809C91.9759 71.7261 91.1493 69.9363 89.6576 68.497C87.9074 66.8086 85.8129 66.0715 83.3993 66.3836C81.4696 66.6328 79.8729 67.5536 78.6153 69.0374C76.8729 71.0922 76.2199 73.495 76.5156 76.1618C76.7324 78.1178 77.5121 79.8299 78.8512 81.2656C80.1999 82.711 81.8503 83.5836 83.8242 83.7305C86.0887 83.8992 88.0497 83.149 89.6715 81.5568C91.4841 79.7774 92.2968 77.5643 92.3445 75.089ZM38.5311 48.1379L38.5484 48.1502L38.551 48.1318L38.5311 48.1379Z" fill="#F7F7F7"/>
</g>
<path d="M150 0L3.5 146.5L-24 169H150V0Z" fill="#201717" fill-opacity="0.04"/>
</g>
<defs>
<clipPath id="clip0_653_17434">
<rect width="140" height="140" rx="30" fill="white"/>
</clipPath>
<clipPath id="clip1_653_17434">
<rect width="91" height="66" fill="white" transform="translate(25 37)"/>
</clipPath>
</defs>
</svg>
