<svg width="140" height="140" viewBox="0 0 140 140" fill="none" xmlns="http://www.w3.org/2000/svg">
<rect width="140" height="140" rx="30" fill="url(#paint0_radial_834_981)"/>
<g clip-path="url(#clip0_834_981)">
<path d="M94.5267 59.7547C94.5608 60.3359 94.4714 60.8891 94.1926 61.4036C93.7435 62.2302 93.2943 63.0568 92.8388 63.8792C92.4259 64.6261 92.1556 65.4204 92.0619 66.2729C92.0364 66.5032 91.9981 66.7379 92.1322 67.0048C92.7409 66.0899 93.339 65.2116 93.9967 64.3764C94.7672 63.397 95.5846 62.4584 96.5488 61.6662C97.0724 61.2357 97.6322 60.8611 98.2941 60.676C99.1988 60.422 99.965 60.7148 100.455 61.5242C100.887 62.2324 101.01 63.0202 101.038 63.8361C101.131 66.7917 99.0796 70.04 96.3764 71.1982C95.5739 71.5447 94.7353 71.6631 93.8775 71.5254C93.6094 71.4823 93.5242 71.5555 93.4327 71.7794C92.2556 74.6661 91.4511 77.6539 91.0424 80.7494C90.9402 81.533 90.5529 81.7246 89.9186 81.2682C88.9075 80.5385 88.3669 79.5181 88.3158 78.2653C88.2498 76.6164 88.6819 75.0514 89.1736 73.5015C89.5674 72.2594 90.0527 71.0539 90.5954 69.8721C90.6699 69.715 90.7551 69.5729 90.6444 69.3684C89.8675 67.9175 89.9228 66.3977 90.3932 64.8844C91.0275 62.8351 92.2088 61.1367 93.7754 59.7009C93.8563 59.6255 93.9499 59.5652 94.0457 59.5114C94.316 59.3672 94.4969 59.4124 94.5182 59.759M27.9755 47.1574C32.9369 47.2952 37.5089 48.8601 41.8659 51.1419C44.7883 52.6725 47.4234 54.6142 49.6604 57.0768C50.829 58.3641 51.8038 59.7827 52.5083 61.3842C53.6854 64.0578 53.3512 66.57 51.7421 68.9551C50.4331 70.8968 48.5387 71.986 46.3975 72.7093C43.0132 73.8524 39.5821 73.9234 36.1233 73.0968C35.804 73.0193 35.738 73.086 35.7146 73.4046C35.6444 74.3733 35.3932 74.6575 34.627 74.7306C33.6947 74.8189 33.1434 74.4766 32.9242 73.607C32.8092 73.1528 32.7539 72.677 32.7177 72.2099C32.6964 71.9064 32.5751 71.7492 32.3048 71.6222C30.0443 70.5502 28.0329 69.1208 26.3195 67.2739C25.9704 66.8972 25.666 66.4882 25.4085 66.0426C24.7338 64.8758 24.9317 63.8318 25.9811 62.9923C26.6664 62.4455 27.4348 62.0429 28.2479 61.7416C29.5739 61.2486 30.9191 60.8052 32.3303 60.6265C32.6666 60.5834 32.7901 60.4478 32.7901 60.0991C32.788 58.5104 32.9561 56.9369 33.2839 55.3827C33.3265 55.1803 33.3839 54.978 33.4563 54.7864C33.6117 54.3709 33.865 54.3042 34.2183 54.5754C34.5801 54.8553 34.7887 55.2427 34.9526 55.6603C35.4656 56.9476 35.5252 58.3103 35.5848 59.6729C35.6103 60.2433 35.6039 60.2476 36.1488 60.2283C38.454 60.1551 40.691 60.5318 42.8621 61.2981C43.7198 61.5995 44.4669 62.0838 45.0225 62.8287C45.7525 63.8038 45.7504 64.8608 44.9927 65.7627C44.0817 66.8498 43.0898 66.8799 42.0256 66.4946C41.9106 66.4516 41.7936 66.3934 41.7829 66.2406C41.7723 66.0878 41.8851 66.0232 41.9915 65.9586C42.298 65.7756 42.6322 65.6443 42.8961 65.3882C43.3516 64.9469 43.3048 64.5572 42.7301 64.2925C41.9638 63.9416 41.1444 63.7608 40.3249 63.5864C38.8988 63.2829 37.46 63.0805 35.9998 63.031C35.704 63.0202 35.6018 63.0698 35.6103 63.4034C35.6763 65.724 35.721 68.0445 35.7678 70.3672C35.7721 70.5481 35.7487 70.6987 36.0147 70.7418C39.4331 71.3015 42.8046 71.267 46.0505 69.8743C47.3468 69.3189 48.5047 68.5439 49.2454 67.2846C50.2692 65.5475 50.2351 63.7564 49.4284 61.9439C48.3152 59.4404 46.5209 57.5138 44.3839 55.8907C40.1653 52.6918 35.406 50.7566 30.2295 49.8525C27.835 49.4349 25.4255 49.295 23.0054 49.6028C22.3988 49.6803 21.7986 49.7965 21.1515 50.1044C21.4751 50.2357 21.7049 50.2572 21.9327 50.2766C22.1541 50.2959 22.369 50.339 22.5585 50.466C22.7138 50.5693 22.833 50.7093 22.8054 50.9138C22.7798 51.1075 22.6244 51.1979 22.4627 51.2323C21.7475 51.3873 21.0409 51.3507 20.3683 51.0365C19.9638 50.8492 19.9404 50.4768 20.0511 50.1065C20.3895 48.9893 21.1196 48.2552 22.2371 47.9302C24.1101 47.3877 26.0236 47.1014 27.9712 47.1552M88.1562 59.802C88.8862 59.7805 89.4248 60.097 89.8441 60.6631C90.025 60.9063 90.1846 61.169 90.3208 61.438C90.5933 61.9741 90.4549 62.2539 89.8845 62.3594C88.8969 62.5402 87.8986 62.6306 86.9004 62.7038C86.3789 62.7426 85.8574 62.7748 85.3381 62.8007C85.1508 62.8093 85.038 62.8588 84.9869 63.0654C84.9166 63.3604 84.8145 63.6488 84.7102 63.9351C84.6165 64.1934 84.6655 64.2709 84.9549 64.2473C85.8319 64.1762 86.7131 64.1698 87.59 64.2386C88.0625 64.2752 88.2094 64.4173 88.203 64.8866C88.186 66.1308 88.1881 66.1846 87.0472 66.2428C86.0873 66.2923 85.1273 66.3504 84.1653 66.3741C83.863 66.3827 83.7396 66.4839 83.6715 66.7766C83.5544 67.276 83.4012 67.7668 83.2436 68.2512C83.133 68.5891 83.2458 68.6494 83.5544 68.5827C84.857 68.305 86.1661 68.0704 87.4878 67.9046C87.9135 67.8508 88.2392 67.9799 88.5159 68.2921C88.9693 68.8066 88.9629 69.3189 88.4627 69.786C87.4815 70.7052 86.3172 71.3165 85.0763 71.7923C84.6399 71.9602 84.1802 72.042 83.7268 72.1561C81.9602 72.5974 80.2744 70.8279 80.5085 68.9895C80.6001 68.2684 80.7384 67.5645 80.996 66.8886C81.113 66.585 81.1535 66.3224 81.0236 66.0167C80.9428 65.8316 80.9044 65.6185 80.8853 65.414C80.8193 64.7596 80.9683 64.5508 81.6196 64.469C81.8942 64.4345 82.024 64.3204 82.1283 64.0815C82.3263 63.6251 82.5519 63.1817 82.7647 62.7296C82.7754 62.706 82.7711 62.6758 82.7796 62.6177C82.0325 62.5617 81.4131 62.2733 81.0087 61.593C80.6661 61.014 80.7384 60.7729 81.3812 60.6157C82.7435 60.2799 84.1312 60.0926 85.5254 59.9506C86.4002 59.8602 87.2792 59.83 88.1562 59.802ZM111.701 57.0144C112.025 58.8742 112.291 60.7427 112.389 62.6306C112.408 62.9707 112.495 63.0719 112.838 63.0676C114.637 63.0504 116.439 63.0654 118.238 63.0525C118.545 63.0525 118.8 63.1236 118.996 63.3668V65.0351C118.806 65.2891 118.555 65.3623 118.244 65.358C116.459 65.3473 114.673 65.3623 112.885 65.3451C112.57 65.343 112.502 65.4312 112.506 65.739C112.534 67.5064 112.463 69.2672 112.304 71.0281C112.242 71.6825 112.134 71.7923 111.493 71.7923C111.206 71.7923 110.916 71.7966 110.627 71.7923C110.154 71.7858 109.982 71.5899 110.035 71.1164C110.237 69.3318 110.278 67.5408 110.284 65.7498C110.284 65.4118 110.182 65.3451 109.869 65.3473C108.123 65.3623 106.38 65.3537 104.635 65.3537C103.996 65.3537 103.862 65.2159 103.858 64.5723C103.858 64.2946 103.854 64.0169 103.858 63.7392C103.867 63.214 104.005 63.0698 104.526 63.0676C106.257 63.0654 107.989 63.0547 109.72 63.0762C110.097 63.0805 110.203 62.9901 110.171 62.6026C110.02 60.803 109.809 59.012 109.467 57.2404C109.349 56.629 109.467 56.474 110.073 56.4697C110.388 56.4697 110.705 56.4827 111.02 56.4676C111.414 56.4482 111.629 56.6032 111.701 57.0144ZM55.7905 60.2369C56.2587 60.4629 56.4439 60.887 56.5546 61.3606C56.8228 62.5294 56.8824 63.7263 56.959 64.9167C57.0143 65.7885 57.0463 66.6647 57.0888 67.5408C57.1144 68.5267 57.1825 69.5105 57.1335 70.5007C57.0952 71.2434 56.8207 71.6351 56.297 71.7083C55.4052 71.831 54.7986 71.5189 54.5666 70.8064C54.4027 70.3005 54.375 69.7666 54.358 69.2414C54.2643 66.697 54.2792 64.1547 54.7347 61.6361C54.8092 61.2271 54.9008 60.8202 55.1008 60.45C55.2605 60.1551 55.4925 60.0905 55.7947 60.2369H55.7905ZM65.0898 59.6944C66.3584 59.703 67.6163 59.802 68.8061 60.3015C69.0892 60.4198 69.5022 60.4758 69.5 60.9106C69.5 61.3519 69.2276 61.6619 68.8551 61.8578C68.3166 62.1398 67.7142 62.1484 67.1289 62.1958C65.5794 62.3142 64.0234 62.2883 62.476 62.4498C61.7374 62.5273 61.0053 62.6285 60.2943 62.8588C60.1496 62.904 59.9559 62.9384 59.9495 63.1063C59.9431 63.3173 60.1602 63.3367 60.3114 63.3668C61.3501 63.5842 62.4079 63.6467 63.4573 63.7823C64.613 63.9351 65.7667 64.0643 66.9097 64.3441C69.6235 65.0114 69.732 68.5698 68.3379 69.9367C67.5567 70.7009 66.6308 71.1314 65.5815 71.3209C63.4041 71.7148 61.4054 71.2886 59.6132 69.9625C59.1194 69.5987 58.7022 69.151 58.4809 68.5612C58.1531 67.6807 58.5107 66.7895 59.3727 66.3009C60.0134 65.9371 60.7243 65.8144 61.4395 65.8251C62.8911 65.8467 64.3065 66.0921 65.639 66.7185C65.8497 66.8175 66.1008 66.9122 66.0966 67.1964C66.0923 67.4612 65.8773 67.6011 65.6645 67.7087C64.679 68.2017 63.6744 68.4019 62.6123 67.9369C62.0099 67.6743 61.4182 67.3751 60.7647 67.2459C60.4455 67.1835 60.1347 67.2028 59.8346 67.3277C59.577 67.4353 59.3897 67.6269 59.3684 67.9154C59.3472 68.1823 59.5345 68.348 59.7409 68.4751C60.1837 68.7441 60.6775 68.8927 61.1819 68.9228C62.9464 69.0283 64.6662 68.8367 66.2732 68.0208C66.4073 67.952 66.5372 67.8723 66.6628 67.7862C66.9565 67.586 67.3098 67.4073 67.2673 66.9703C67.2247 66.5527 66.8714 66.3827 66.5499 66.2385C65.5559 65.7972 64.4896 65.6658 63.4275 65.5388C62.078 65.3774 60.7137 65.3494 59.3684 65.1212C57.9828 64.8887 57.489 64.0406 57.9253 62.6866C58.1616 61.9439 58.6575 61.4273 59.2897 61.0247C60.3582 60.3445 61.5608 60.0668 62.7868 59.8709C63.5467 59.7504 64.3129 59.6815 65.0856 59.6944M76.6517 58.2564C77.0434 58.4954 77.3797 58.8032 77.684 59.1433C78.776 60.3639 79.3719 61.8255 79.672 63.4185C80.036 65.3559 80.0296 67.2803 79.4102 69.1768C79.3102 69.4868 79.1506 69.7559 78.9462 70.0034C78.1906 70.9162 77.1094 70.9657 76.3027 70.1046C75.4938 69.2414 74.9255 68.206 74.3594 67.1727C73.9549 66.4343 73.5697 65.6831 73.1674 64.9426C73.1121 64.8392 73.061 64.6713 72.9205 64.7015C72.7758 64.7294 72.8034 64.8995 72.7885 65.0179C72.6608 65.9263 72.6523 66.8455 72.631 67.7604C72.6097 68.6602 72.597 69.5664 72.3926 70.4533C72.2543 71.0539 71.9435 71.3424 71.4369 71.3747C70.9453 71.407 70.5004 71.1034 70.3046 70.5782C70.0172 69.8054 70.0619 68.9938 70.0449 68.1887C70.0875 66.2234 70.3365 64.2882 70.8963 62.4003C71.0219 61.9741 71.1794 61.5586 71.4263 61.1862C71.8967 60.4844 72.4331 60.422 73.0248 61.0269C74.0231 62.0516 74.7829 63.2613 75.53 64.4754C76.0174 65.2633 76.5049 66.0512 77.0008 66.8326C77.0859 66.9682 77.1711 67.1619 77.369 67.1124C77.5904 67.0565 77.5138 66.8304 77.5074 66.6862C77.4669 65.4291 77.1626 64.215 76.8816 63.0009C76.6113 61.8277 76.2835 60.6674 75.9791 59.5007C75.9004 59.2058 75.828 58.9087 75.8855 58.5987C75.977 58.1165 76.2303 57.9981 76.6517 58.2543V58.2564ZM32.3857 63.1623C31.4832 63.2355 30.5807 63.3022 29.6889 63.4615C28.5842 63.6596 27.4689 63.8275 26.4387 64.314C25.7256 64.6519 25.6597 65.0244 26.1684 65.6422C26.2727 65.7692 26.3919 65.8876 26.5047 66.0081C27.5412 67.1017 28.7821 67.9111 30.0784 68.6494C30.8893 69.1144 31.7386 69.4868 32.6177 69.7753C32.6368 69.7451 32.6475 69.7322 32.6475 69.7193C32.6475 67.5968 32.6411 65.4764 32.6475 63.3539C32.6475 63.1429 32.5474 63.1516 32.3878 63.1645M98.4857 63.3625L96.6254 65.6357C95.9549 66.5635 95.3441 67.5257 94.797 68.5934C95.4292 68.5267 95.9762 68.3631 96.4956 68.1156C98.2899 67.2631 99.3818 65.8725 99.5776 63.8426C99.6095 63.511 99.6755 63.0741 99.2945 62.9191C98.9348 62.7748 98.7028 63.1279 98.4836 63.3647L98.4857 63.3625ZM58.3574 49.3509C59.2088 49.338 59.9389 49.6545 60.5072 50.311C60.6243 50.4445 60.7605 50.4961 60.9286 50.5349C62.4462 50.8729 63.1635 52.1817 62.6591 53.6648C62.5143 54.0889 62.31 54.485 62.0184 54.8187C60.6328 56.4009 58.9981 57.5848 56.9186 58.0627C56.0927 58.2521 55.2818 58.2026 54.4836 57.9529C54.2665 57.8862 54.1537 57.9185 54.077 58.123L54.0579 58.1617C53.8833 58.476 53.7237 58.8613 53.2916 58.8054C52.883 58.7537 52.7063 58.3834 52.5637 58.0304C52.502 57.8776 52.4296 57.7032 52.4487 57.5482C52.519 56.9498 52.2614 56.4891 51.9507 56.0134C51.6846 55.6044 51.6016 55.1136 51.591 54.6228C51.5931 53.9468 51.7825 53.3183 52.1571 52.7779C53.662 50.6102 55.6947 49.3854 58.3532 49.3466M59.9964 52.0073C59.577 52.0913 59.1833 52.2398 58.8172 52.4723C57.9168 53.0427 57.125 53.7423 56.3928 54.5194C56.0225 54.9134 55.7138 55.3547 55.3924 55.7873C55.2732 55.9509 55.2945 56.0327 55.5074 56.0327H56.2481C57.7551 56.0478 59.096 55.557 60.2709 54.6077C60.6817 54.2762 61.0436 53.8952 61.2075 53.3699C61.4799 52.5003 60.8775 51.8265 59.9964 52.0073ZM56.2736 51.8006C55.12 51.7662 53.3938 53.1095 53.1554 54.1879C53.0745 54.556 53.1086 54.739 53.3406 55.077C54.1303 53.8198 55.1434 52.7758 56.2736 51.8006Z" fill="white"/>
<mask id="mask0_834_981" style="mask-type:luminance" maskUnits="userSpaceOnUse" x="37" y="27" width="74" height="28">
<path d="M71.8966 27.0129C70.7642 27.0129 69.6382 27.0754 68.5399 27.2261C66.0581 27.5683 63.5976 27.9063 61.1669 28.5715C58.7 29.2474 56.2926 30.1493 53.9875 31.2666C49.1963 33.5893 44.9308 36.7838 41.3401 40.749C39.8884 42.3506 38.6028 44.0662 37.3875 45.8551C37.1214 46.2468 37.2385 46.5719 37.6748 46.7269C37.9473 46.8238 38.2197 46.9163 38.4943 47.0067C38.9945 47.1725 39.1477 47.1122 39.4606 46.6666C40.163 45.6699 40.8356 44.613 41.6466 43.711C42.5299 42.7337 43.4111 41.7521 44.2944 40.7727C45.3161 39.8018 46.376 38.874 47.4701 37.9893C51.5823 34.6613 56.4182 32.147 61.4883 30.7155C66.8329 29.2086 72.4904 28.8664 77.9776 29.6908C81.479 30.2182 84.8995 31.2321 88.1369 32.6787C91.8192 34.3255 95.2588 36.5298 98.2919 39.2098C102.098 42.5701 105.163 46.6386 107.455 51.1915C107.721 51.7189 107.976 52.2506 108.217 52.7909C108.821 54.1298 108.572 54.1169 109.788 54.1062C109.926 54.104 110.084 54.1019 110.265 54.104C110.69 54.104 111.016 53.9103 110.852 53.4388C110.018 51.0257 108.683 48.6987 107.319 46.559C105.925 44.374 104.328 42.3183 102.566 40.4239L102.459 40.312C99.6669 37.337 96.4827 34.7173 92.9409 32.7024C91.5403 31.8478 90.0738 31.1245 88.5604 30.5002C87.3749 29.919 86.1276 29.4971 84.8782 29.0859C82.2538 28.2249 79.5399 27.6372 76.7985 27.3272C75.2149 27.1486 73.5695 27.0172 71.9349 27.0172H71.8923L71.8966 27.0129Z" fill="white"/>
</mask>
<g mask="url(#mask0_834_981)">
<path d="M111.02 27.0065H37.1191V54.1363H111.02V27.0065Z" fill="url(#paint1_radial_834_981)"/>
</g>
<path d="M97.1279 88.598C99.5181 88.598 101.525 89.4956 102.796 91.3749H102.856V89.0457H105.925V105.585H102.856V103.016H102.796C101.644 104.986 99.5777 106.002 97.2471 106.002C92.4665 106.002 88.5714 102.36 88.5714 97.5853C88.5714 92.3027 92.3196 88.598 97.13 88.598M48.326 88.598C52.8426 88.598 57.0911 92.1821 57.0315 97.4346C56.9719 101.94 53.1683 106.164 47.7811 105.998C43.2134 105.856 39.3289 101.886 39.3821 97.2645C39.4396 92.2769 43.3432 88.6001 48.3239 88.6001M73.059 88.6001C75.7749 88.6001 77.9885 90.5138 78.0779 93.4371H75.0087C74.8618 92.2446 74.1828 91.4373 72.9142 91.4373C71.7329 91.4373 70.9943 92.2446 70.9943 93.2003C70.9943 94.6017 72.4119 95.0215 74.0359 95.5295C76.339 96.2442 78.4632 97.6477 78.4632 100.724C78.4632 103.8 76.1602 106.006 72.9738 106.006C70.0238 106.006 67.1886 103.976 67.1886 100.156H70.2579C70.4048 102.155 71.4094 103.169 73.0313 103.169C74.4489 103.169 75.3939 102.244 75.3939 100.9C75.3939 99.7659 74.5383 99.0211 72.6184 98.3947C68.6041 97.1096 67.9251 95.3487 67.9251 93.4673C67.9251 90.5418 70.375 88.6023 73.0611 88.6023L73.059 88.6001ZM22.0371 83.4962C23.7335 83.4962 25.1064 84.8868 25.1064 86.6003V90.8088H25.166C26.1408 89.3471 27.7053 88.6001 29.7401 88.6001C33.6373 88.6001 36.5576 91.108 36.5576 95.6458V105.585H33.4883V96.5994C33.4883 93.0475 32.1304 91.4373 29.4166 91.4373C26.7027 91.4373 25.1064 93.407 25.1064 96.6317V105.585H22.0371V83.4962ZM63.5851 83.4962V89.0479H66.2712V91.8851H63.5851V105.587C61.8887 105.587 60.5158 104.196 60.5158 102.483V91.8851H59.2472V89.0479H60.5158V83.4962H63.5851ZM84.9082 83.4962V89.0479H87.5923V91.8851H84.9082V105.587C83.2118 105.587 81.839 104.196 81.839 102.483V91.8851H80.5704V89.0479H81.839V83.4962H84.9082ZM116.963 88.6023V91.7968C114.307 91.8851 112.949 93.5275 112.949 96.3023V102.483C112.949 104.198 111.574 105.587 109.88 105.587V89.0479H112.742V90.5418H112.802C113.541 89.4375 114.811 88.7207 116.963 88.6023ZM97.2173 91.4373C93.9756 91.4373 91.3597 94.3972 91.6619 97.8953C91.9088 100.778 94.2416 103.109 97.1002 103.167C100.344 103.234 102.913 100.522 102.913 97.3463C102.913 94.1712 100.61 91.4395 97.2173 91.4395M48.177 91.4395C44.6565 91.4395 41.6809 94.8923 42.6302 98.7413C43.2751 101.352 45.6271 103.242 48.2856 103.169C51.4251 103.083 53.9622 100.545 53.9622 97.2602C53.9622 93.9753 51.3931 91.4395 48.177 91.4395Z" fill="white"/>
</g>
<defs>
<radialGradient id="paint0_radial_834_981" cx="0" cy="0" r="1" gradientUnits="userSpaceOnUse" gradientTransform="translate(70 140) rotate(-90) scale(140 116.178)">
<stop stop-color="#1950AA"/>
<stop offset="1" stop-color="#060628"/>
</radialGradient>
<radialGradient id="paint1_radial_834_981" cx="0" cy="0" r="1" gradientUnits="userSpaceOnUse" gradientTransform="translate(110.014 53.0995) scale(70.2485 71.046)">
<stop stop-color="white"/>
<stop offset="0.0839996" stop-color="#09F5F6"/>
<stop offset="0.244" stop-color="#03C2D9"/>
<stop offset="0.464" stop-color="#0E67AA"/>
<stop offset="0.734" stop-color="#11257C"/>
<stop offset="1" stop-color="#0A134D"/>
</radialGradient>
<clipPath id="clip0_834_981">
<rect width="99" height="79" fill="white" transform="translate(20 27)"/>
</clipPath>
</defs>
</svg>
