<svg width="140" height="140" viewBox="0 0 140 140" fill="none" xmlns="http://www.w3.org/2000/svg">
<rect width="140" height="140" rx="30" fill="white"/>
<g clip-path="url(#clip0_3517_8)">
<path d="M88.912 65.3217V112.046C88.912 112.78 88.3158 113.376 87.582 113.376H28.3268C27.5929 113.376 27 112.78 27 112.046V52.4931C27 51.7593 27.5929 51.1631 28.3268 51.1631H74.8615L88.912 65.3217Z" fill="#4C00FF"/>
<path d="M52.4179 27H86.3501C101.059 27 113 38.9408 113 53.6498V62.5603C113 77.2693 101.059 89.2101 86.3501 89.2101H52.4179C51.6841 89.2101 51.0879 88.6139 51.0879 87.8801V28.33C51.0879 27.5962 51.6841 27 52.4179 27Z" fill="#FF5353"/>
<path d="M51.0879 51.1631V87.8831C51.0879 88.6169 51.6841 89.2131 52.4179 89.2131H86.3501C87.215 89.2131 88.0667 89.1673 88.9119 89.0887V66.7107C88.9119 65.8229 88.5614 64.9712 87.9357 64.3422L75.8475 52.1622C75.2152 51.5267 74.3569 51.1664 73.4593 51.1664H51.0879V51.1631Z" fill="black"/>
</g>
<defs>
<clipPath id="clip0_3517_8">
<rect width="86" height="86.3767" fill="white" transform="translate(27 27)"/>
</clipPath>
</defs>
</svg>
