<svg width="140" height="140" viewBox="0 0 140 140" fill="none" xmlns="http://www.w3.org/2000/svg">
<rect width="140" height="140" rx="30" fill="#BF1E2E"/>
<g clip-path="url(#clip0_1643_18990)">
<path d="M114.998 47.4556C114.994 57.6163 108.344 66.1235 98.6439 68.5465C96.2755 69.138 93.8732 69.3775 91.4412 69.2482C86.202 68.9684 81.5033 67.2618 77.5511 63.7513C73.7748 60.3976 71.5167 56.1853 70.7407 51.1972C70.0473 46.7433 70.5859 42.4399 72.5493 38.3718C75.3078 32.6607 79.8007 28.9297 85.8373 27.0536C88.6806 26.1696 91.6003 25.8898 94.5729 26.1081C98.8432 26.4219 102.77 27.7086 106.241 30.2334C110.821 33.5659 113.596 38.0538 114.642 43.6164C114.89 44.9371 114.966 46.2705 115 47.4556H114.998ZM93.0696 60.7516C93.3983 60.7219 94.028 60.6965 94.6472 60.6075C98.4128 60.0626 101.33 58.1759 103.321 54.9452C105.232 51.848 105.713 48.4604 105.03 44.918C103.779 38.4311 98.0545 33.6529 90.6843 34.7276C86.7702 35.2979 83.7975 37.3754 81.8638 40.8351C80.0721 44.0425 79.7287 47.4746 80.5598 51.0234C81.9147 56.8086 86.8699 60.7389 93.0696 60.7537V60.7516Z" fill="white"/>
<path d="M26.0043 93.3558C26.0043 86.8476 26.0043 80.3417 26.0043 73.8335C26.0043 73.647 26.0001 73.4604 26.0043 73.2739C26.034 72.3984 26.6489 71.7815 27.5288 71.7709C28.5805 71.7582 29.6301 71.7666 30.6817 71.7666C31.8861 71.7666 33.0904 71.8069 34.2926 71.7539C35.2786 71.7094 36.0843 72.339 36.08 73.541C36.0567 78.6584 36.0694 83.7759 36.0716 88.8955C36.0716 89.099 36.0652 89.3046 36.0991 89.5039C36.1649 89.8897 36.432 90.0042 36.767 89.7901C36.9218 89.6904 37.0575 89.5569 37.1868 89.4255C42.5364 83.9434 47.8859 78.4613 53.2355 72.9771C54.02 72.1737 54.9741 71.7666 56.1 71.7666C59.0154 71.7666 61.9309 71.7666 64.8463 71.7688C65.0477 71.7688 65.2597 71.7709 65.4485 71.8281C65.7856 71.9299 65.8895 72.1991 65.722 72.5065C65.635 72.6655 65.5078 72.8117 65.3764 72.9411C62.4185 75.8793 59.4565 78.8132 56.4965 81.7493C54.0772 84.149 51.658 86.5466 49.2429 88.9485C48.452 89.735 48.4096 90.5405 49.1051 91.4372C52.7117 96.0798 56.3226 100.722 59.9314 105.365C62.0432 108.081 64.1551 110.796 66.2648 113.514C66.4089 113.7 66.5553 113.893 66.6507 114.108C66.816 114.476 66.6697 114.79 66.286 114.909C66.0951 114.968 65.8874 114.992 65.6859 114.992C62.7875 114.996 59.889 115.008 56.9905 114.987C55.8795 114.979 54.9678 114.515 54.2808 113.618C50.3179 108.435 46.3508 103.256 42.3858 98.0768C42.3244 97.9962 42.265 97.9136 42.2014 97.8351C41.614 97.108 40.8677 97.055 40.1892 97.7122C39.1799 98.6916 38.1707 99.671 37.1826 100.672C36.4511 101.414 36.0716 102.317 36.0716 103.37C36.0716 106.539 36.0716 109.709 36.0716 112.878C36.0716 113.031 36.0737 113.183 36.0716 113.336C36.0461 114.366 35.4482 114.977 34.4177 114.992C33.383 115.006 32.3504 114.996 31.3157 114.996C30.1283 114.996 28.9431 115.008 27.7557 114.987C27.4419 114.981 27.1069 114.924 26.8249 114.794C26.3097 114.559 26.0425 114.112 26.0107 113.539C26.0022 113.37 26.0064 113.2 26.0064 113.031C26.0064 106.472 26.0064 99.9147 26.0064 93.3558H26.0043Z" fill="white"/>
<path d="M114.996 83.9625C114.996 86.7586 114.985 89.5548 114.998 92.3509C115.015 95.9654 114.328 99.4293 112.708 102.671C109.595 108.899 104.625 112.814 97.8467 114.417C95.4359 114.987 92.987 115.123 90.5253 114.9C79.9259 113.942 72.7338 106.448 70.9358 97.4981C70.6219 95.9315 70.4544 94.3521 70.4566 92.7558C70.4608 86.3664 70.4629 79.9792 70.4693 73.5898C70.4693 73.3714 70.4693 73.1467 70.5138 72.9347C70.6644 72.2288 71.2305 71.7773 71.9768 71.7709C73.3656 71.7624 74.7566 71.7688 76.1475 71.7688C76.9956 71.7688 77.8437 71.7942 78.6897 71.7624C79.5018 71.7306 80.263 72.4069 80.2566 73.3311C80.2291 77.3632 80.2248 81.3974 80.2142 85.4294C80.2057 88.039 80.0997 90.6529 80.2142 93.2561C80.422 98.0238 82.3875 101.884 86.5158 104.46C88.8693 105.929 91.4879 106.429 94.2231 106.075C99.5811 105.384 102.916 102.253 104.623 97.2437C105.147 95.7046 105.302 94.1041 105.31 92.4866C105.331 88.5733 105.346 84.6578 105.37 80.7444C105.384 78.2875 105.433 75.8305 105.42 73.3757C105.416 72.3602 106.197 71.7412 107.036 71.7561C109.137 71.7963 111.241 71.7963 113.342 71.7561C114.182 71.7391 114.996 72.2987 114.987 73.3926C114.96 76.9159 114.977 80.4413 114.977 83.9667C114.983 83.9667 114.992 83.9667 114.998 83.9667L114.996 83.9625Z" fill="white"/>
<path d="M37.5238 69.2695C34.2522 69.2695 30.9806 69.2695 27.7089 69.2673C27.4905 69.2673 27.2637 69.2673 27.0559 69.208C26.4325 69.0341 26.0275 68.4936 26.0106 67.8025C25.9936 67.0393 26.0042 66.2783 26.0042 65.5151C26.0042 64.1584 26.0021 62.8037 26.0042 61.447C26.0063 60.2938 26.5597 59.732 27.7216 59.7341C31.5361 59.7447 35.3484 59.7702 39.1628 59.7829C41.9256 59.7914 44.6884 59.7829 47.4511 59.7829C52.1752 59.2911 55.9324 57.2326 58.1587 52.9101C60.7879 47.8075 59.5008 40.426 52.9936 37.0193C50.9581 35.953 48.7784 35.4527 46.4927 35.4358C42.3581 35.4018 38.2214 35.3997 34.0868 35.3743C31.8838 35.3616 29.6808 35.3319 27.4778 35.3043C26.6233 35.2937 26.019 34.732 26.0127 33.8819C25.9957 31.7471 25.9978 29.6124 26.0127 27.4776C26.0169 26.7272 26.4982 26.2036 27.2361 26.0764C27.4524 26.0382 27.675 26.034 27.8934 26.034C34.1822 26.0319 40.4711 25.9513 46.7599 26.0509C56.8208 26.2121 65.3063 32.9364 67.4329 42.688C68.6309 48.1828 68.033 53.491 65.2744 58.4389C62.2636 63.8383 57.6329 67.1644 51.6578 68.6483C49.8746 69.0914 48.0575 69.2716 46.2192 69.2631C43.3208 69.2504 40.4223 69.2589 37.5238 69.2589C37.5238 69.2631 37.5238 69.2673 37.5238 69.2716V69.2695Z" fill="white"/>
</g>
<defs>
<clipPath id="clip0_1643_18990">
<rect width="89" height="89" fill="white" transform="translate(26 26)"/>
</clipPath>
</defs>
</svg>
