<svg width="140" height="140" viewBox="0 0 140 140" fill="none" xmlns="http://www.w3.org/2000/svg">
<rect width="140" height="140" rx="30" fill="#FE3009"/>
<g clip-path="url(#clip0_669_18848)">
<path d="M58.3772 41.0056C70.09 41.0056 81.8014 40.9892 93.5142 41.0137C97.9988 41.0233 102.228 42.1051 106.146 44.3244C111.849 47.5535 115.609 52.4004 117.908 58.4747C119.484 62.6372 120.239 66.9399 119.93 71.3814C119.448 78.3225 116.798 84.3465 111.966 89.3594C107.605 93.8839 102.293 96.6462 96.1001 97.6668C94.8791 97.8681 93.6296 97.9743 92.3923 97.9824C86.8986 98.0151 81.4034 97.9961 75.9097 97.9974C73.9811 97.9974 72.3078 97.313 70.9633 95.9645C65.7547 90.7406 60.5761 85.4854 55.3906 80.237C54.611 79.4478 54.4304 78.4245 54.8854 77.423C55.3566 76.3848 56.1892 75.9208 57.3192 75.9208C68.7603 75.9249 80.2015 75.9289 91.6426 75.9208C96.2047 75.9167 99.2959 71.2181 97.5221 67.0147C96.5361 64.6784 94.1973 63.1584 91.5638 63.1584C75.1029 63.157 58.642 63.1475 42.1825 63.1679C39.6441 63.1707 37.5566 62.3352 35.7638 60.5009C30.8283 55.4512 25.8329 50.46 20.8444 45.4634C20.0064 44.6238 19.7973 43.6835 20.1925 42.6153C20.6027 41.5063 21.4923 41.0478 22.6304 41.0069C22.8559 40.9988 23.0827 41.0056 23.3081 41.0056C34.9978 41.0056 46.6875 41.0056 58.3772 41.0056Z" fill="white"/>
</g>
<defs>
<clipPath id="clip0_669_18848">
<rect width="100" height="57" fill="white" transform="translate(20 41)"/>
</clipPath>
</defs>
</svg>
