<svg width="140" height="140" viewBox="0 0 140 140" fill="none" xmlns="http://www.w3.org/2000/svg">
<rect width="140" height="140" rx="30" fill="white"/>
<g clip-path="url(#clip0_3583_458)">
<path d="M76.5022 57.584C81.0665 61.7396 79.543 69.078 74.5112 72.1054C67.2409 76.4799 54.8871 73.2109 56.6471 63.0367C57.0719 60.5797 59.2922 58.2834 61.8108 58.0182C61.5743 56.9818 60.4974 56.3677 60.2045 55.3577C58.5609 49.6824 65.772 46.9865 69.7787 49.5271C72.9558 51.5418 70.6609 57.1126 67.3046 54.3849C67.0954 53.6873 69.242 52.8852 68.0477 51.034C66.6243 48.8286 62.4875 50.3773 62.4711 53.5356C62.4648 54.7627 63.3334 56.7447 64.5977 57.098C65.4636 57.3406 66.5851 56.6539 66.6534 57.9074C66.737 59.4333 65.4218 58.7421 64.3503 58.9111C59.8452 59.6214 59.3276 65.3502 61.7198 68.4948C65.6328 73.6387 75.7255 71.6404 77.2763 65.2412C77.9075 62.6361 77.1299 58.8593 73.96 58.4741C72.1408 58.2534 69.2584 60.0919 71.0275 61.6179C72.411 62.8105 74.4302 59.8848 74.5494 62.4962C74.6913 65.6318 69.6913 66.0869 69.1047 62.0066C68.6681 58.971 69.9897 56.6439 72.8767 55.6047C75.1934 54.7709 81.6786 54.6492 82.9748 53.4293C84.1208 52.3511 83.6388 50.8451 81.8724 51.0022C81.0547 51.0749 80.1314 52.4329 79.6721 51.0304C78.597 47.7495 84.3128 46.4987 85.0013 50.5245C85.7981 55.1833 80.4798 57.8356 76.5031 57.5822L76.5022 57.584Z" fill="#626262"/>
<path d="M33.4886 53.9178C42.3052 53.4745 42.8709 67.7898 34.0762 68.0914C25.196 68.3957 24.7012 54.3592 33.4886 53.9178ZM33.2567 56.3249C27.51 57.0352 28.496 66.648 34.7193 65.657C39.7201 64.8613 39.0889 55.6037 33.2567 56.3249Z" fill="#626262"/>
<path d="M14.8257 54.3476C16.2255 53.9479 19.248 54.3957 20.5887 55.0679C25.7242 57.643 25.4395 65.2975 20.1485 67.5284C18.9479 68.0343 14.4818 68.7419 14.058 67.2659L13.9998 55.493C13.9788 55.0407 14.4027 54.4684 14.8248 54.3476H14.8257ZM16.2046 65.8906C21.0644 66.6128 24.3244 60.5633 20.1321 57.4913C19.5091 57.0344 16.2046 55.8609 16.2046 56.8164V65.8906Z" fill="#626262"/>
<path d="M91.1927 60.6423L97.4296 54.5084C98.2828 53.9933 99.3961 54.3948 99.2997 55.4893C99.186 56.7728 95.4977 59.1844 94.9119 60.5333C94.9165 61.3145 99.2561 65.5336 99.3106 66.8653C99.0687 67.7046 98.2001 68.1923 97.4251 67.6537L93.0628 62.1783C92.9091 62.2364 91.2927 63.8887 91.2373 64.0767C90.8816 65.2702 91.9867 68.1642 89.7783 67.8644C89.1034 67.7727 88.8423 67.0179 88.7759 66.442C88.5467 64.4546 88.4867 57.3887 88.7941 55.5166C89.0888 53.7217 91.1936 54.1359 91.1936 55.067V60.6432L91.1927 60.6423Z" fill="#626262"/>
<path d="M105.007 56.4881V59.7681H109.502C110.681 59.7681 110.794 62.1734 109.721 62.1734H105.007V65.4533H109.94C111.118 65.4533 111.916 67.4072 110.556 67.8168C109.841 68.0321 105.025 67.9522 104.011 67.8677C102.785 67.7659 102.687 67.6588 102.586 66.4471C102.365 63.8156 102.294 58.0605 102.59 55.4999C102.661 54.8822 102.899 54.2182 103.586 54.0883C104.493 53.9167 109.181 53.9457 110.146 54.0974C112.007 54.3899 111.267 56.489 110.379 56.489H105.007V56.4881Z" fill="#626262"/>
<path d="M115.251 54.3403C115.451 54.2822 115.64 54.264 115.847 54.294C116.851 54.4366 118.793 58.3823 119.807 59.1081C120.14 59.1081 122.532 54.9598 123.303 54.5092C124.655 53.719 125.329 55.0615 124.84 56.2614C124.33 57.5122 121.478 60.0982 121.11 61.2863C120.673 62.6933 121.693 67.3748 120.2 67.8226C117.512 68.631 119.063 62.5988 118.481 61.3081L114.525 55.8418C114.218 55.294 114.702 54.5002 115.251 54.3412V54.3403Z" fill="#626262"/>
<path d="M42.8454 56.7065C41.834 56.4277 41.5793 54.473 43.4894 54.2877C44.8647 54.1541 50.8579 54.0942 51.9639 54.3976C53.1554 54.7236 52.405 56.7065 51.8347 56.7065H48.4366V67.5302C48.4366 68.2359 46.2436 68.1442 46.2436 67.3113V56.7065C45.3194 56.5448 43.6495 56.9282 42.8454 56.7065Z" fill="#626262"/>
<path d="M33.2569 56.3247C39.09 55.6035 39.7203 64.8612 34.7194 65.6568C28.4961 66.6478 27.5102 57.035 33.2569 56.3247Z" fill="#FDFDFD"/>
<path d="M16.2046 65.8903V56.8161C16.2046 55.8606 19.5091 57.0341 20.1321 57.491C24.3235 60.563 21.0644 66.6125 16.2046 65.8903Z" fill="#FDFDFD"/>
</g>
<path d="M46.8864 86.6364C46.8523 86.3485 46.714 86.125 46.4716 85.9659C46.2292 85.8068 45.9318 85.7273 45.5795 85.7273C45.322 85.7273 45.0966 85.7689 44.9034 85.8523C44.7121 85.9356 44.5625 86.0502 44.4545 86.196C44.3485 86.3419 44.2955 86.5076 44.2955 86.6932C44.2955 86.8485 44.3324 86.982 44.4062 87.0938C44.482 87.2036 44.5786 87.2955 44.696 87.3693C44.8134 87.4413 44.9366 87.5009 45.0653 87.5483C45.1941 87.5937 45.3125 87.6307 45.4205 87.6591L46.0114 87.8182C46.1629 87.858 46.3314 87.9129 46.517 87.983C46.7045 88.053 46.8835 88.1487 47.054 88.2699C47.2263 88.3892 47.3684 88.5426 47.4801 88.7301C47.5919 88.9176 47.6477 89.1477 47.6477 89.4205C47.6477 89.7348 47.5653 90.0189 47.4006 90.2727C47.2377 90.5265 46.9991 90.7282 46.6847 90.8778C46.3722 91.0275 45.9924 91.1023 45.5455 91.1023C45.1288 91.1023 44.768 91.035 44.4631 90.9006C44.16 90.7661 43.9214 90.5786 43.7472 90.3381C43.5748 90.0975 43.4773 89.8182 43.4545 89.5H44.1818C44.2008 89.7197 44.2746 89.9015 44.4034 90.0455C44.5341 90.1875 44.6989 90.2936 44.8977 90.3636C45.0985 90.4318 45.3144 90.4659 45.5455 90.4659C45.8144 90.4659 46.0559 90.4223 46.2699 90.3352C46.4839 90.2462 46.6534 90.1231 46.7784 89.9659C46.9034 89.8068 46.9659 89.6212 46.9659 89.4091C46.9659 89.2159 46.9119 89.0587 46.804 88.9375C46.696 88.8163 46.554 88.7178 46.3778 88.642C46.2017 88.5663 46.0114 88.5 45.8068 88.4432L45.0909 88.2386C44.6364 88.108 44.2765 87.9214 44.0114 87.679C43.7462 87.4366 43.6136 87.1193 43.6136 86.7273C43.6136 86.4015 43.7017 86.1174 43.8778 85.875C44.0559 85.6307 44.2945 85.4413 44.5938 85.3068C44.8949 85.1705 45.2311 85.1023 45.6023 85.1023C45.9773 85.1023 46.3106 85.1695 46.6023 85.304C46.8939 85.4366 47.125 85.6184 47.2955 85.8494C47.4678 86.0805 47.5587 86.3428 47.5682 86.6364H46.8864ZM50.8061 91V85.1818H51.5107V88.0682H51.5788L54.1925 85.1818H55.1129L52.6697 87.8068L55.1129 91H54.2607L52.2379 88.2955L51.5107 89.1136V91H50.8061ZM58.7294 85.1818V91H58.0249V85.1818H58.7294ZM66.7557 85.1818V91H66.0739L62.9034 86.4318H62.8466V91H62.142V85.1818H62.8239L66.0057 89.7614H66.0625V85.1818H66.7557ZM74.8473 87H74.1428C74.1011 86.7973 74.0282 86.6193 73.924 86.4659C73.8217 86.3125 73.6967 86.1837 73.549 86.0795C73.4032 85.9735 73.2412 85.8939 73.0632 85.8409C72.8852 85.7879 72.6996 85.7614 72.5064 85.7614C72.1541 85.7614 71.835 85.8504 71.549 86.0284C71.2649 86.2064 71.0386 86.4688 70.87 86.8153C70.7034 87.1619 70.62 87.5871 70.62 88.0909C70.62 88.5947 70.7034 89.0199 70.87 89.3665C71.0386 89.7131 71.2649 89.9754 71.549 90.1534C71.835 90.3314 72.1541 90.4205 72.5064 90.4205C72.6996 90.4205 72.8852 90.3939 73.0632 90.3409C73.2412 90.2879 73.4032 90.2093 73.549 90.1051C73.6967 89.9991 73.8217 89.8693 73.924 89.7159C74.0282 89.5606 74.1011 89.3826 74.1428 89.1818H74.8473C74.7943 89.4792 74.6977 89.7453 74.5575 89.9801C74.4174 90.215 74.2431 90.4148 74.0348 90.5795C73.8265 90.7424 73.5926 90.8665 73.3331 90.9517C73.0755 91.0369 72.8 91.0795 72.5064 91.0795C72.0102 91.0795 71.5689 90.9583 71.1825 90.7159C70.7962 90.4735 70.4922 90.1288 70.2706 89.6818C70.049 89.2348 69.9382 88.7045 69.9382 88.0909C69.9382 87.4773 70.049 86.947 70.2706 86.5C70.4922 86.053 70.7962 85.7083 71.1825 85.4659C71.5689 85.2235 72.0102 85.1023 72.5064 85.1023C72.8 85.1023 73.0755 85.1449 73.3331 85.2301C73.5926 85.3153 73.8265 85.4403 74.0348 85.6051C74.2431 85.768 74.4174 85.9669 74.5575 86.2017C74.6977 86.4347 74.7943 86.7008 74.8473 87ZM78.2244 91H77.4858L79.6222 85.1818H80.3494L82.4858 91H81.7472L80.0085 86.1023H79.9631L78.2244 91ZM78.4972 88.7273H81.4744V89.3523H78.4972V88.7273ZM85.392 91V85.1818H87.358C87.8125 85.1818 88.1856 85.2595 88.4773 85.4148C88.7689 85.5682 88.9848 85.7794 89.125 86.0483C89.2652 86.3172 89.3352 86.6231 89.3352 86.9659C89.3352 87.3087 89.2652 87.6127 89.125 87.8778C88.9848 88.143 88.7699 88.3513 88.4801 88.5028C88.1903 88.6525 87.8201 88.7273 87.3693 88.7273H85.7784V88.0909H87.3466C87.6572 88.0909 87.9072 88.0455 88.0966 87.9545C88.2879 87.8636 88.4261 87.7348 88.5114 87.5682C88.5985 87.3996 88.642 87.1989 88.642 86.9659C88.642 86.733 88.5985 86.5294 88.5114 86.3551C88.4242 86.1809 88.285 86.0464 88.0938 85.9517C87.9025 85.8551 87.6496 85.8068 87.3352 85.8068H86.0966V91H85.392ZM88.1307 88.3864L89.5625 91H88.7443L87.3352 88.3864H88.1307ZM92.5092 91V85.1818H96.0206V85.8068H93.2138V87.7727H95.8388V88.3977H93.2138V90.375H96.0661V91H92.5092Z" fill="#626262"/>
<defs>
<clipPath id="clip0_3583_458">
<rect width="111" height="26" fill="white" transform="translate(14 48)"/>
</clipPath>
</defs>
</svg>
