<svg width="140" height="140" viewBox="0 0 140 140" fill="none" xmlns="http://www.w3.org/2000/svg">
<rect width="140" height="140" rx="30" fill="white"/>
<g clip-path="url(#clip0_683_141)">
<path d="M75.0437 100.129C75.2141 100.053 75.4055 100.006 75.5508 99.8966C78.7471 97.478 81.956 95.0764 85.1243 92.6212C88.0357 90.3646 90.933 88.0841 93.7801 85.7458C97.4374 82.7413 101.194 79.8354 104.35 76.2688C105.893 74.5264 107.387 72.7164 108.703 70.7964C110.224 68.5765 111.069 65.996 111.593 63.376C112.04 61.1335 112.275 58.8248 112.361 56.5359C112.494 53.044 112.442 49.5422 112.4 46.0461C112.396 45.6827 112.001 45.1953 111.656 44.9868C110.561 44.3262 109.407 43.7613 108.265 43.1782C107.837 42.9584 107.679 42.6415 107.683 42.1612C107.702 39.9539 107.694 37.7481 107.702 35.5408C107.705 34.6858 107.936 34.5731 108.721 34.8816C112.004 36.1761 115.084 37.8734 118.043 39.7778C120.326 41.247 119.919 40.561 119.941 43.1247C119.978 47.1631 120.06 51.2043 119.929 55.2385C119.842 57.9008 119.62 60.594 119.091 63.1971C118.279 67.1905 116.494 70.8063 114.021 74.0489C111.931 76.7886 109.658 79.3551 106.905 81.4496C104.255 83.4653 101.648 85.543 98.9433 87.4826C94.7789 90.4703 90.5614 93.3832 86.3397 96.2892C82.8277 98.7063 79.271 101.059 75.7464 103.457C72.8169 105.451 69.9084 107.475 66.9845 109.478C65.5638 110.451 64.1319 111.409 62.7014 112.368C62.6064 112.432 62.4807 112.45 62.3689 112.489C62.4192 112.577 62.4709 112.665 62.5212 112.753C62.7461 112.722 62.9961 112.746 63.1917 112.653C66.6437 111.03 70.0872 109.388 73.5392 107.762C74.9487 107.099 76.3639 106.444 77.7972 105.835C78.0458 105.73 78.4957 105.766 78.694 105.93C81.1192 107.935 83.5416 109.947 85.9067 112.022C87.0689 113.042 87.7758 114.339 87.6683 115.986C87.6208 116.71 87.6515 117.441 87.6724 118.169C87.6906 118.772 87.428 119 86.8329 118.998C79.0796 118.986 71.3263 118.987 63.5731 118.984C60.4299 118.984 57.2867 118.986 54.1435 118.982C53.2885 118.982 53.2187 118.897 53.2228 118.069C53.227 117.342 53.2592 116.611 53.2019 115.888C53.0706 114.25 53.8319 112.978 54.9635 111.998C57.9782 109.385 61.0641 106.855 64.1375 104.311C65.005 103.593 65.0329 103.514 64.1151 102.879C61.2806 100.916 58.4322 98.9725 55.6075 96.9963C51.8845 94.3904 48.1518 91.7971 44.4735 89.1293C40.9839 86.598 37.5445 83.9978 34.1121 81.3862C30.7971 78.8635 27.9961 75.8308 25.7232 72.3276C24.0594 69.764 22.865 66.9834 22.1428 63.9887C21.3563 60.7278 21.1006 57.412 21.0447 54.0807C20.9763 49.9746 21 45.8658 21.0266 41.7583C21.0294 41.4259 21.2683 40.9568 21.5421 40.785C23.7479 39.3961 25.9593 38.0101 28.228 36.7325C29.5607 35.9817 30.9996 35.4182 32.4008 34.7942C32.9373 34.5562 33.2041 34.7449 33.2055 35.3168C33.2125 37.6635 33.2278 40.0103 33.1915 42.3556C33.1873 42.6331 32.9484 43.0218 32.7054 43.1599C31.5556 43.8177 30.3486 44.3755 29.2045 45.0432C28.8986 45.2206 28.5465 45.6587 28.5451 45.9771C28.5409 49.707 28.5382 53.4398 28.6653 57.1669C28.7393 59.3418 28.9223 61.5307 29.2786 63.6746C29.639 65.8438 30.3584 67.9497 31.5193 69.8358C32.6062 71.6008 33.7699 73.3221 34.9894 74.9969C37.6493 78.6522 41.1962 81.3891 44.6593 84.1837C48.9397 87.6376 53.3011 90.99 57.6666 94.3354C60.1239 96.2187 62.6567 98.0006 65.1573 99.8247C65.3067 99.9346 65.4786 100.012 65.6406 100.105C65.7021 100.04 65.765 99.9754 65.8264 99.9107C65.6588 99.705 65.5163 99.4712 65.3221 99.2979C61.4147 95.8243 57.4822 92.3817 53.5986 88.8814C51.3635 86.8657 49.1143 84.8514 47.0412 82.6737C44.0684 79.5508 41.5189 76.0857 39.647 72.1614C38.4497 69.6513 37.4691 67.0623 36.8851 64.3211C36.2774 61.4631 36.0134 58.5769 36.0106 55.6654C36.0036 46.9081 36.019 38.1495 36.026 29.3923C36.026 29.2979 36.0274 29.2049 36.0218 29.1106C35.8989 27.1301 35.9799 27.4696 37.7988 26.6596C39.2125 26.03 40.6989 25.5482 42.1839 25.0989C44.2053 24.4876 46.2309 23.8312 48.2999 23.4452C52.1611 22.7268 56.0378 22.0211 59.9381 21.6169C66.2399 20.9633 72.5711 20.7139 78.8952 21.4422C81.6878 21.7634 84.4999 22.0028 87.2603 22.5155C90.3379 23.0874 93.3819 23.8692 96.4134 24.6693C98.6821 25.2679 100.906 26.0342 103.147 26.7413C103.588 26.8808 104.059 27.0174 104.421 27.2878C104.668 27.4724 104.879 27.8837 104.883 28.1964C104.92 31.1544 104.914 34.1125 104.91 37.0719C104.9 43.6698 104.892 50.2676 104.867 56.8641C104.855 59.6925 104.475 62.49 103.798 65.2226C102.672 69.7682 100.694 73.9249 97.9738 77.7422C95.6939 80.9425 93.0941 83.8302 90.1703 86.4262C87.3428 88.9363 84.4943 91.4211 81.6473 93.9072C79.5923 95.7018 77.522 97.478 75.4642 99.2683C75.2505 99.4543 75.08 99.6895 74.8887 99.9022C74.9417 99.9769 74.9948 100.053 75.0479 100.128L75.0437 100.129ZM52.8205 31.2375C53.0175 31.5559 53.079 31.7066 53.1823 31.8179C53.7369 32.4179 54.3293 32.9856 54.8587 33.6068C55.6676 34.559 56.6161 35.3239 56.6077 36.8649C56.5421 49.8929 56.5742 62.9224 56.5477 75.9519C56.5477 76.397 56.3451 76.9295 56.0601 77.2703C55.1325 78.3803 54.1197 79.4184 53.1474 80.4918C53.0273 80.6242 52.956 80.8017 52.7968 81.0665C54.0904 81.0665 55.2233 81.0595 56.3577 81.0665C61.5014 81.1017 66.6465 81.2102 71.7887 81.1524C75.0828 81.1158 78.3853 80.9989 81.4824 79.5368C83.7791 78.4521 85.7418 76.9816 87.1025 74.8461C88.4701 72.6995 89.1058 70.2894 89.0988 67.706C89.0764 59.6545 89.1267 51.6016 89.0638 43.55C89.0443 41.0526 88.2648 38.7496 86.763 36.686C84.268 33.2561 80.8412 31.5996 76.7536 31.4009C72.4789 31.1925 68.1915 31.2249 63.9098 31.1699C60.7456 31.1305 57.5814 31.1136 54.4159 31.1037C53.9297 31.1023 53.445 31.184 52.8205 31.239V31.2375Z" fill="#D90001"/>
<path d="M67.8199 55.45C67.8199 50.2875 67.8255 45.1264 67.8115 39.9653C67.8115 39.4779 68.0043 39.2427 68.4485 39.2455C70.3317 39.2582 72.2497 39.0765 74.0882 39.3807C75.8651 39.6751 77.2915 41.1077 77.4074 43.1389C77.5024 44.7996 77.487 46.4688 77.4898 48.1351C77.4968 54.2822 77.508 60.4307 77.4689 66.5778C77.4633 67.4244 77.2901 68.3048 77.0148 69.1077C76.4616 70.7247 75.1429 71.5037 73.5531 71.6389C71.8907 71.7798 70.2074 71.6854 68.5338 71.6981C67.9037 71.7023 67.8576 71.2994 67.8576 70.7994C67.866 65.6848 67.8632 60.5688 67.8632 55.4542C67.8492 55.4542 67.8339 55.4542 67.8199 55.4542V55.45Z" fill="#D90001"/>
</g>
<defs>
<clipPath id="clip0_683_141">
<rect width="99" height="98" fill="white" transform="translate(21 21)"/>
</clipPath>
</defs>
</svg>
