<svg width="140" height="140" viewBox="0 0 140 140" fill="none" xmlns="http://www.w3.org/2000/svg">
<g clip-path="url(#clip0_2716_1698)">
<rect width="140" height="140" rx="30" fill="white"/>
<g clip-path="url(#clip1_2716_1698)">
<path d="M85.9984 29.784L82.0778 31.3646C78.3367 33.0905 75.1234 35.6998 72.4008 38.778L76.2549 42.9726C76.1821 43.1445 74.6529 43.082 75.0197 43.515C77.7423 45.3239 80.1105 47.6642 82.2356 50.1484L79.0378 57.7213C78.8258 57.7041 78.7917 57.4931 78.7221 57.3399C78.2546 56.3049 78.024 54.9604 77.4699 53.9208L75.9468 51.1677L78.4203 69.7405C76.7471 69.8687 75.0599 70.5659 73.4007 70.6848C70.8963 70.863 66.4277 70.9114 63.9605 70.6769C62.4653 70.5347 60.7859 69.8187 59.2412 69.7405L61.8694 50.855C60.7116 51.6164 59.9253 52.8327 58.7088 53.5003C56.1223 52.5919 53.5638 51.5476 51.1987 50.1515C55.5187 48.7977 59.5972 46.5245 62.7981 43.2821C62.6402 43.1164 61.3865 43.2305 61.5629 42.8162L65.27 38.9125C61.4205 36.3955 57.8265 33.4642 54.8346 29.9435C55.497 27.231 56.9195 24.825 58.006 22.2908C58.1933 22.147 59.0926 24.9251 59.2149 25.2049C61.097 29.5464 63.8878 33.3422 67.5375 36.3267C67.8703 36.3845 68.4987 35.3042 68.7742 35.2558C69.1194 35.1948 69.8329 36.4392 70.0698 36.2626C72.3807 32.6512 75.1575 29.3416 78.3738 26.526C81.0407 27.2732 83.5343 28.5458 85.9968 29.7824L85.9984 29.784Z" fill="#245F99"/>
<path d="M13.0032 105.953C13.0078 104.655 13.0001 103.348 13.0032 102.051H108.193C108.29 102.051 109.454 101.274 109.891 101.111C112.095 100.284 115.334 100.017 115.85 102.987C116.576 102.271 117.548 101.713 118.592 102.168C118.967 102.33 119.1 102.835 119.182 102.842C119.712 102.873 120.213 102.004 121.451 102.562C123.024 103.27 121.704 104.463 121.106 105.327C121.56 105.315 121.999 105.301 122.433 105.473C122.73 105.592 123.129 106.084 123.193 106.084C123.324 106.084 124.248 105.246 125.186 105.335C126.124 105.424 126.966 106.178 126.991 107.128C127.003 107.602 126.748 107.896 126.725 108.235C126.692 108.69 126.918 109.123 126.794 109.741C126.536 111.023 124.154 112.266 122.922 112.003C122.535 111.92 122.077 111.429 121.832 111.443C121.204 111.479 120.167 112.477 119.253 111.881C119.04 113.644 117.763 117.082 115.495 116.532C115.2 116.46 114.912 116.079 114.714 116.113C114.605 116.132 114.042 116.698 113.721 116.835C112.05 117.548 111.185 115.866 111.364 114.381C109.293 115.219 106.406 115.636 104.56 114.068C103.687 113.959 103.339 113.063 103.093 112.3C102.873 111.617 102.531 110.091 103.167 109.697L102.908 109.314C103.185 108.209 103.566 107.141 104.051 106.109L13.1982 106.264L13.0032 105.953Z" fill="#F5E200"/>
<path d="M103.165 109.7C103.003 111.234 103.343 113.041 104.557 114.071H13.0015C12.9999 112.617 13.0061 111.156 13.0015 109.7L13.1501 109.387H102.97L103.164 109.7H103.165Z" fill="#245F99"/>
<path d="M13.0032 105.953L104.557 105.798C104.044 107.056 103.312 108.315 103.165 109.7H13.0032C13.0001 108.454 12.9985 107.2 13.0032 105.954V105.953Z" fill="#D9262E"/>
<path d="M79.1941 98.1484V81.1343H85.3033C87.834 81.1343 89.9716 83.7185 89.8725 86.2136C89.8416 87.0031 89.0909 88.7041 89.1172 88.8385C89.1342 88.9261 90.0056 89.8563 90.2022 90.2393C91.5209 92.8079 90.6433 96.1488 88.091 97.5277C88.0585 97.5449 88.0105 97.5684 87.9517 97.5934C87.1112 97.9639 86.2011 98.1484 85.2848 98.1484H79.1956H79.1941Z" fill="#245F99"/>
<path d="M19.1124 81.1358C25.1985 81.6549 29.0448 87.9974 26.2324 93.6303C25.3068 95.4828 22.1477 98.1499 20.0396 98.1499H13.0032V81.1358C14.9101 81.1499 17.2256 80.9764 19.1124 81.1358Z" fill="#245F99"/>
<path d="M67.5963 80.5105V90.033H70.9984V84.8817H74.2457V98.1484H70.9984V92.9987H67.5963V98.1484H64.5022V80.5105H67.5963Z" fill="#245F99"/>
<path d="M110.407 84.6065C119.747 84.4158 119.391 99.113 109.895 98.3032C101.534 97.5887 101.997 84.7785 110.407 84.6065Z" fill="#245F99"/>
<path d="M103.32 98.1484H99.7632L96.8409 92.9033C96.536 92.3061 96.7094 91.6104 96.6707 90.9663C97.9306 91.021 99.0466 91.0711 99.1982 89.5405C99.3995 87.5144 97.7154 87.6113 96.2063 87.6895V98.1468H92.959V84.9567C92.959 84.9395 93.1741 84.7222 93.1912 84.7222H98.4491C101.61 84.7222 103.529 88.9418 101.619 91.5119C101.35 91.8746 100.387 92.5 100.379 92.7548C100.361 93.3692 103.153 97.1338 103.32 98.1468V98.1484Z" fill="#245F99"/>
<path d="M32.4885 84.8817V92.5281C32.4885 93.3864 32.7873 94.2228 33.3476 94.8685C33.442 94.9779 33.5256 95.0608 33.5828 95.092C34.1973 95.4375 35.2777 95.4813 35.8829 95.0983C35.9433 95.0592 36.0269 94.9763 36.1197 94.8685C36.6769 94.2228 36.9726 93.3895 36.9726 92.5328V84.8801H40.2199V92.4155C40.2199 93.4536 40.0388 94.4854 39.6751 95.4563C39.6317 95.5704 39.5977 95.6564 39.5745 95.7017C37.7604 99.2037 31.5521 99.1599 29.8309 95.6017C29.8062 95.5501 29.7706 95.4547 29.7303 95.3359C29.4022 94.3682 29.2412 93.352 29.2412 92.3296V84.8833H32.4885V84.8817Z" fill="#245F99"/>
<path d="M104.481 114.382C104.665 114.423 105.105 114.85 105.444 114.972C107.436 115.691 109.089 115.592 111.053 114.851C111.299 115.921 110.664 116.008 109.737 116.097C108.433 116.224 107.219 116.111 105.998 115.66C105.725 115.56 105.298 115.161 105.253 115.161H13.3127V114.381H104.481V114.382Z" fill="#E1E1E1"/>
<path d="M57.1965 84.766C59.0617 84.4955 61.4159 84.8332 62.7888 86.2277C62.8151 86.3794 61.0212 88.6259 60.868 88.6244C60.7318 88.6244 59.608 87.53 58.41 87.5519C53.7712 87.6379 53.7124 95.6939 58.7103 95.3453C59.543 95.2874 60.7534 94.4307 60.8711 94.4401C61.0057 94.451 62.9188 96.7148 62.9188 96.7148C62.9188 96.7148 61.5119 97.6559 61.0258 97.8404C55.4011 99.9681 50.2066 94.7152 52.1646 89.0527C52.8673 87.0188 55.0636 85.0755 57.1965 84.766Z" fill="#245F99"/>
<path d="M126.519 87.2205C125.396 87.6363 124.765 87.96 123.606 88.2945C123.551 88.3101 123.505 87.9412 123.265 87.7739C122.476 87.2189 121.434 88.1397 121.897 88.9918C122.542 90.1815 125.223 90.2784 126.333 92.1717C128.65 96.1238 123.909 100.054 120.281 97.6559C119.815 97.348 119.009 96.0379 118.696 95.178C118.651 95.0529 121.032 94.215 121.162 94.2353C121.31 94.2572 121.708 95.597 123.004 95.3109C123.725 95.1499 123.911 94.2384 123.654 93.6272C123.293 92.7704 120.177 92.4015 119.091 90.4301C116.362 85.4836 124.669 82.0332 126.519 87.222V87.2205Z" fill="#245F99"/>
<path d="M51.047 84.8817V87.691H48.264V98.1484H45.1715V87.691H42.387V84.8817H51.047Z" fill="#245F99"/>
<path d="M79.5053 70.6769C77.9684 70.8332 76.2998 71.4789 74.786 71.6118C72.003 71.8541 67.2311 71.8197 64.4203 71.6212C63.8723 71.5821 59.6143 70.8317 59.5462 70.5894C59.509 70.458 59.5818 70.2188 59.557 70.0531C60.9532 70.3064 62.5722 70.8661 63.9652 70.9865C66.499 71.2069 71.1765 71.2085 73.7118 70.9943C75.3262 70.8583 77.0737 70.1 78.7314 70.0516L76.4886 52.7248L77.2997 54.5602L79.5038 70.6754L79.5053 70.6769Z" fill="#E1E1E1"/>
<path d="M13.1578 99.2412C13.1671 99.0411 13.1068 98.7815 13.226 98.6065C13.4473 98.2797 18.6805 98.5377 19.5813 98.4657C24.8516 98.0452 28.6144 92.1466 26.9691 87.097L25.6875 84.4127C29.7675 88.5681 28.2847 95.7924 23.1614 98.3313C22.6615 98.5799 20.818 99.2396 20.3506 99.2396H13.1578V99.2412Z" fill="#E1E1E1"/>
<path d="M89.7115 83.3199C90.8832 84.777 91.1789 86.3434 90.7192 88.1616C90.6418 88.4665 90.2115 89.245 90.2177 89.331C90.2239 89.4076 90.9637 90.3081 91.1061 90.5739C92.6245 93.4302 91.7051 97.2229 88.7333 98.644C88.7008 98.6596 88.642 98.6831 88.5662 98.7112C87.6173 99.0645 86.6113 99.2396 85.6005 99.2396H79.5037V98.4595H85.291C86.3172 98.4595 87.3341 98.2375 88.2597 97.7904C88.3278 97.7576 88.3835 97.7279 88.4222 97.706C90.648 96.4037 91.6448 93.5631 90.9049 91.0898C90.7223 90.4785 89.5614 88.8464 89.5583 88.7088C89.5521 88.4634 90.0644 87.4534 90.1341 86.9469C90.2904 85.7994 90.1449 84.3251 89.5552 83.3199C89.6032 83.2433 89.6543 83.2464 89.71 83.3199H89.7115Z" fill="#E1E1E1"/>
<path d="M120.179 112.977C119.968 114.845 118.465 117.986 116.243 117.653C115.955 117.609 115.704 117.357 115.459 117.356C115.134 117.354 114.723 117.805 114.311 117.905C113.46 118.111 112.582 118.03 112.135 117.193C112.546 117.217 112.808 117.379 113.252 117.318C113.817 117.24 114.45 116.643 114.713 116.598C114.922 116.562 115.19 116.84 115.467 116.871C117.548 117.107 118.544 115.378 119.214 113.644C119.335 113.332 119.399 112.522 119.547 112.419C119.735 112.289 120.323 112.372 120.651 112.284C122.42 111.815 121.479 112.109 122.892 112.342C124.305 112.575 126.658 111.359 127.098 109.896C127.18 109.623 127.32 107.289 127.3 106.97C127.279 106.62 127.133 106.401 126.98 106.111C127.375 105.79 127.966 107.325 127.994 107.661C128.031 108.126 127.797 108.432 127.782 108.839C127.769 109.145 127.941 109.5 127.913 109.93C127.797 111.718 125.24 113.424 123.569 113.064C123.206 112.986 122.631 112.569 122.418 112.567C121.937 112.567 120.878 113.44 120.176 112.977H120.179Z" fill="#E1E1E1"/>
<path d="M40.5311 85.038C40.9026 85.013 41.2695 84.9848 41.3051 85.4288C40.9537 88.6384 42.1037 93.9476 40.4398 96.732C38.6428 99.7383 33.5721 100.357 31.252 97.684C31.7875 97.8607 32.2518 98.2203 32.8029 98.3813C35.6555 99.2099 38.909 98.1749 40.0947 95.2921C40.1798 95.0857 40.5311 94.1305 40.5311 94.0148V85.0396V85.038Z" fill="#E1E1E1"/>
<path d="M87.5461 30.7173C82.3872 32.0446 77.2206 35.1276 73.7798 39.2298C73.69 39.3377 73.6234 39.4721 73.625 39.6175L72.865 38.8937C75.4963 35.6638 78.9557 33.0921 82.7571 31.4286C83.5481 31.0831 86.2397 29.9419 86.9177 30.1764C87.0322 30.2155 87.6111 30.636 87.5461 30.7204V30.7173Z" fill="#E1E1E1"/>
<path d="M51.9757 88.7838H49.3459V99.2412H45.5569C45.2659 99.2412 45.2659 98.4611 45.5569 98.4611H48.572V88.2366C48.572 88.2194 48.7872 88.0021 48.8042 88.0021H51.3566V85.0364C51.646 85.0286 52.002 84.9661 52.1072 85.2928C52.2032 85.593 52.1475 88.7823 51.9741 88.7823L51.9757 88.7838Z" fill="#E2E2E2"/>
<path d="M107.032 97.9936C106.827 97.7747 106.913 97.6934 107.187 97.8373C113.56 101.338 120.598 93.5771 116.466 87.5347V87.3784C116.6 87.5284 116.817 87.6066 116.994 87.8583C121.615 94.4401 113.889 102.662 107.032 97.992V97.9936Z" fill="#E1E1E1"/>
<path d="M75.1729 85.038V99.2427H71.3064V98.4626H74.5537V85.0396C74.5537 85.0083 75.0614 85.0599 75.1729 85.0396V85.038Z" fill="#E1E1E1"/>
<path d="M103.939 98.461L100.693 92.761C102.905 91.3399 103.094 89.084 102.148 86.7655C102.049 86.5232 101.987 86.2668 102.317 86.5951C104.079 88.3507 103.682 92.1857 101.455 93.3957L104.713 99.2412H100.228C100.186 99.2412 99.9443 98.5814 99.918 98.461H103.939Z" fill="#E2E2E2"/>
<path d="M119.868 97.8389C120.474 98.0546 121.03 98.4783 121.683 98.5799C125.83 99.2302 128.455 95.708 126.673 91.9059C128.172 93.0471 128.246 95.5235 127.418 97.1072C126.011 99.7993 121.764 100.176 119.868 97.8389Z" fill="#E1E1E1"/>
<path d="M79.5022 59.4379C79.1802 59.255 79.0208 58.3279 79.1029 58.0324C80.6151 55.4935 81.7326 52.7201 82.6737 49.9186C82.8377 50.1124 83.2201 50.4783 83.2835 50.694C83.3671 50.9817 81.9508 54.443 81.697 55.0183C81.0345 56.5191 80.1786 57.9433 79.5022 59.4379Z" fill="#E1E1E1"/>
<path d="M70.6888 93.3098C70.7105 93.3316 70.7105 93.9101 70.6888 93.9335C70.6192 94.007 68.9893 93.8819 68.6782 93.9335V99.2412H64.8891C64.5982 99.2412 64.5982 98.461 64.8891 98.461H67.9043V93.3098C68.3021 93.3848 70.5913 93.2081 70.6888 93.3098Z" fill="#E2E2E2"/>
<path d="M54.2959 97.3699C54.8655 97.5793 55.3391 97.9327 55.9165 98.1515C57.6578 98.8128 59.574 98.8285 61.2951 98.1109C61.9359 97.8436 63.0442 97.262 63.2686 96.5866C64.4821 97.3558 63.9636 97.6685 63.007 98.2766C60.2813 100.007 56.5588 99.7071 54.2959 97.3699Z" fill="#E2E2E2"/>
<path d="M68.6783 80.6668V89.7203C68.1087 89.7547 67.9663 89.7562 67.8982 89.1809C67.601 86.692 68.1334 83.6122 67.9059 81.0561C67.9399 80.6121 68.3083 80.6418 68.6798 80.6653L68.6783 80.6668Z" fill="#E3E3E3"/>
<path d="M60.7905 89.0965C60.433 89.1419 59.7241 88.5447 58.7443 88.6682C56.6671 88.9292 55.7415 90.9616 56.0108 92.908C56.0805 93.4083 56.4566 93.7882 56.3839 94.2478C53.7139 91.8277 56.0526 86.7483 59.6126 88.1804C60.2937 88.454 60.3509 88.7026 60.7905 89.0981V89.0965Z" fill="#E1E1E1"/>
<path d="M61.4082 51.7915C61.3029 52.1995 61.3277 52.8358 61.1729 53.1907C61.0986 53.3611 59.6359 54.5852 59.4842 54.593C59.0648 54.6149 56.1502 53.3798 55.5388 53.1125C54.3377 52.5857 52.4571 51.7555 51.4061 51.0411C51.2901 50.9613 50.8598 50.7253 51.0501 50.5439C51.1956 50.4048 54.2247 52.0932 54.6566 52.2871C55.4196 52.6294 57.9116 53.7691 58.5695 53.816C59.444 53.8801 61.1729 51.5366 61.4097 51.7915H61.4082Z" fill="#E2E2E2"/>
<path d="M97.135 99.2412H93.2686V98.4611H96.5159V93.1534C96.7094 93.1753 97.135 93.9586 97.135 94.0117V99.2412Z" fill="#E2E2E2"/>
<path d="M32.7981 85.038H33.4157C33.4497 88.2023 33.3383 91.4478 33.4946 94.5589C33.2686 94.3854 32.7981 93.7991 32.7981 93.5459V85.0396V85.038Z" fill="#E1E1E1"/>
<path d="M127.593 88.1507C126.916 88.1319 124.672 89.5765 124.273 89.5421C124.132 89.5296 123.925 88.9683 123.739 88.8605L126.985 87.3753L126.522 86.1293C126.929 86.2794 127.848 87.8537 127.594 88.1507H127.593Z" fill="#E2E2E2"/>
<path d="M60.7905 89.0965C61.2208 89.0418 62.8476 86.5435 63.2624 86.3575C63.4636 86.2668 64.2251 86.6702 63.8924 87.1501C63.2949 88.0115 62.2935 88.7463 61.7192 89.6562C61.3895 89.8375 61.0026 89.2872 60.7905 89.0965Z" fill="#E1E1E1"/>
<path d="M61.7191 28.846C61.8398 29.0914 61.8089 29.1493 61.5643 29.0023C60.5536 27.3623 59.0955 24.6343 58.6931 22.7676C58.5786 22.2361 58.7937 21.667 59.0615 22.2408C59.4438 23.06 59.71 24.456 60.097 25.4113C60.5722 26.5853 61.2052 27.6938 61.7191 28.8475V28.846Z" fill="#E3E3E3"/>
<path d="M96.5159 88.0037C97.4229 87.9818 98.3423 87.8396 98.8361 88.7823H97.1334C97.0855 89.0793 97.2 90.5927 97.1334 90.6583C97.1118 90.6802 96.5159 90.688 96.5159 90.6583V88.0053V88.0037Z" fill="#E1E1E1"/>
<path d="M44.8619 88.7839H42.6965V88.0022C43.506 88.1382 45.0724 87.5191 44.8619 88.7839Z" fill="#E4E4E4"/>
<path d="M122.942 105.154C122.719 105.295 122.165 104.982 121.88 105.016C121.861 104.607 122.313 104.464 122.429 104.089C122.546 103.714 122.498 103.356 122.499 102.989C123.268 103.182 123.456 104.83 122.942 105.154Z" fill="#E2E2E2"/>
<path d="M123.425 93.9336C122.18 93.6131 120.871 93.0675 120.022 92.0638L122.861 93.3332L123.425 93.9336Z" fill="#E4E4E4"/>
<path d="M123.425 88.6244C123.38 88.6853 122.696 88.8026 122.73 89.4076C121.939 88.9652 121.964 87.6582 123.015 88.024C123.186 88.0834 123.454 88.5837 123.425 88.6244Z" fill="#E2E2E2"/>
<path d="M77.493 43.9856C76.8104 44.142 76.004 44.2186 75.7935 43.3634C76.5612 43.3165 77.2825 42.9491 77.493 43.9856Z" fill="#E4E4E4"/>
<path d="M60.9453 36.3376C62.261 37.1615 63.4497 38.1637 64.8102 38.9125C64.5641 39.2361 64.5719 39.1142 64.301 38.9625C63.2562 38.3763 61.8121 37.1866 60.9453 36.3392V36.3376Z" fill="#E7E7E7"/>
<path d="M61.7192 28.8459L63.8831 32.1243C62.9497 31.2301 62.2409 30.0998 61.5645 29.0023L61.7192 28.8459Z" fill="#E8E8E8"/>
<path d="M107.186 97.8373L107.032 97.9936C106.603 97.7013 106.075 97.3495 105.795 96.9024C106.318 96.9993 106.75 97.5981 107.186 97.8373Z" fill="#ECECEC"/>
<path d="M62.0273 43.3634C62.1279 43.651 61.5552 44.1279 61.4097 43.9856C61.3091 43.6979 61.8818 43.2211 62.0273 43.3634Z" fill="#E9E9E9"/>
<path d="M74.5537 40.7088C74.5103 40.7588 73.6095 39.9709 73.7829 39.7723C73.9763 39.8474 74.7147 40.5243 74.5537 40.7088Z" fill="#F3F3F3"/>
<path d="M60.0182 35.556C59.8356 35.7186 59.1654 34.9744 59.0911 34.779C59.2876 34.6039 60.0693 35.5122 60.0182 35.556Z" fill="#EEEEEE"/>
<path d="M62.49 95.6517C62.4466 95.7017 61.5458 94.9138 61.7191 94.7152C61.9126 94.7903 62.6509 95.4672 62.49 95.6517Z" fill="#EFEFEF"/>
<path d="M81.6675 48.9806C81.6241 49.0306 80.7233 48.2427 80.8966 48.0441C81.0901 48.1192 81.8284 48.7961 81.6675 48.9806Z" fill="#F3F3F3"/>
<path d="M60.9453 36.3376C60.6946 36.1813 60.2875 36.1453 60.1714 35.7154C60.5939 35.6607 60.7302 36.1281 60.9453 36.3376Z" fill="#EBEBEB"/>
<path d="M64.6554 33.0592C64.3722 32.8935 63.9991 32.6074 64.0394 32.2791C64.3226 32.4448 64.6957 32.7309 64.6554 33.0592Z" fill="#EDEDED"/>
<path d="M116.466 87.3784V87.5347C116.378 87.4065 115.794 86.7999 115.847 86.7562C116.334 86.6389 116.351 87.2517 116.466 87.3784Z" fill="#EFEFEF"/>
<path d="M89.7115 83.3199H89.5567C89.4716 83.1745 88.9639 83.0604 89.0939 82.6961C89.3865 82.7962 89.5351 83.101 89.7115 83.3199Z" fill="#EDEDED"/>
<path d="M116.004 102.363L115.85 101.739C116.216 101.929 116.492 102.196 116.004 102.363Z" fill="#E6E6E6"/>
<path d="M122.186 94.8716L121.724 94.4041C122.005 94.351 122.238 94.5761 122.186 94.8716Z" fill="#E6E6E6"/>
<path d="M112.488 106.065C111.455 105.019 113.333 103.714 113.342 102.723C113.35 101.897 112.209 102.418 111.821 102.591C109.175 103.77 105.888 108.17 106.255 111.185C106.606 114.067 111.68 113.218 112.833 110.949C112.935 110.749 113.602 108.995 113.526 108.918C113.093 108.484 112.516 110.271 112.29 110.557C111.601 111.428 110.137 111.892 109.435 110.785C108.496 109.303 110.229 105.992 112.184 106.606C112.856 106.817 112.726 108.678 113.967 108.112C114.619 106.899 116.224 102.996 117.639 102.832C118.277 102.759 118.433 103.053 118.292 103.656L115.384 107.826C115.921 107.632 116.644 107.779 117.077 107.429C117.877 106.781 118.832 104.16 119.718 103.537C120.196 103.201 120.71 103.301 121.261 103.301C121.575 103.608 119.337 106.022 119.032 106.436C118.78 106.78 118.566 107.163 118.323 107.513C119.425 107.716 119.755 107.025 120.436 106.603C122.677 105.21 123.524 107.515 121.623 108.739C121.123 109.061 119.826 109.165 120.591 109.688C120.878 109.885 121.261 109.736 121.553 109.605C122.409 109.222 122.662 107.705 123.528 106.917C124.813 105.751 126.776 106.076 125.83 107.993C125.307 109.053 123.813 109.137 123.734 109.234C123.386 109.661 124.169 109.919 124.663 109.791C125.102 109.675 126.217 108.385 126.023 109.28C125.711 110.727 122.846 112.219 122.104 110.169C119.979 111.922 118.185 111.256 118.937 108.296L117.857 108.453C118.479 110.327 118.698 111.593 117.975 113.487C117.608 114.448 116.368 116.724 115.314 115.311L114.921 113.917C114.878 114.804 113.108 117.014 112.409 115.747C111.895 114.819 112.37 113.807 112.29 112.824C112.2 112.721 111.092 113.524 110.85 113.634C107.979 114.945 103.989 114.412 103.927 110.562C103.863 106.62 108.115 101.708 112.051 101.424C114.794 101.225 115.843 102.853 114.48 105.279C114.037 106.067 113.387 106.978 112.486 106.068L112.488 106.065Z" fill="#D9262E"/>
<path d="M85.9224 90.9694C87.2767 91.243 87.9082 93.3223 86.8758 94.351C86.8588 94.3682 86.817 94.3979 86.7582 94.437C86.1654 94.8262 85.472 95.0279 84.7646 95.0279H82.5977V90.9694C83.8638 90.91 85.0123 90.7849 85.9224 90.9694Z" fill="#FDFEFE"/>
<path d="M82.5977 87.691V84.4127H85.3048C85.7815 84.4127 86.478 85.5039 86.478 86.0511C86.478 86.5982 85.78 87.6895 85.3048 87.6895H82.5977V87.691Z" fill="#FDFDFD"/>
<path d="M16.5601 95.0279V84.4142H18.3168C19.3508 84.4142 20.3754 84.6394 21.3103 85.0865C21.4249 85.1412 21.5131 85.1881 21.5611 85.2209C24.5809 87.283 24.423 92.5609 21.2051 94.3322C21.1602 94.3572 21.0936 94.3885 21.0085 94.4245C20.0721 94.8294 19.0629 95.0295 18.0444 95.0295H16.5601V95.0279Z" fill="#FEFEFE"/>
<path d="M110.25 87.5754C114.909 87.1627 115.531 94.7184 111.118 95.3265C106.074 96.0207 105.454 88.0022 110.25 87.5754Z" fill="#FEFEFE"/>
<path d="M116.62 108.609L115.385 111.417C115.443 110.496 115.189 109.573 114.765 108.765L116.62 108.609Z" fill="#F4DD01"/>
<path d="M113.22 114.07C113.116 113.954 113.65 111.775 113.762 111.418C113.873 111.062 113.94 110.501 114.3 110.325C114.283 111.47 114.483 113.568 113.22 114.071V114.07Z" fill="#F4DB02"/>
<path d="M117.238 110.169C117.28 111.207 117.272 112.275 116.78 113.218C116.455 113.843 116.15 113.988 116.226 113.129C116.283 112.466 116.641 111.145 116.891 110.511C116.986 110.274 116.802 110.089 117.24 110.169H117.238Z" fill="#F4DE01"/>
<path d="M111.825 109.076C112.242 109.419 110.022 111.254 110.59 108.764C111.042 108.865 111.294 109.214 111.825 109.076Z" fill="#F4DB02"/>
<path d="M121.414 107.515C121.477 108.03 121.002 108.507 120.487 108.449C120.434 108.407 121.055 107.372 121.414 107.515Z" fill="#F3D603"/>
<path d="M124.816 107.515C124.879 108.03 124.404 108.507 123.889 108.449C123.836 108.407 124.457 107.372 124.816 107.515Z" fill="#F4D802"/>
<path d="M111.98 108.295C111.627 108.354 111.335 108.157 111.208 107.829C111.655 107.644 111.965 107.799 111.98 108.295Z" fill="#F2CB06"/>
<path d="M85.7677 91.2805C86.1128 91.3431 86.5431 91.7105 86.7722 91.9841C86.6592 92.2451 86.3218 91.9059 86.232 91.9059H83.6797V94.7153C83.4769 94.7668 82.9058 94.6856 82.9058 94.4808V91.2805C83.771 91.3884 84.9473 91.1336 85.7661 91.2805H85.7677Z" fill="#E3E3E3"/>
<path d="M85.1485 84.7253C85.3698 84.7738 85.8914 85.2569 85.9998 85.5039L83.6796 85.3491V87.3799H82.9072V84.7269C83.5651 84.8223 84.5448 84.5956 85.15 84.7269L85.1485 84.7253Z" fill="#E2E2E2"/>
<path d="M19.5751 84.7253C20.3397 84.8285 21.5392 85.4367 21.9726 86.1292C21.4495 85.9432 21.0223 85.6852 20.4604 85.5492C19.4884 85.3147 18.4807 85.3382 17.487 85.3491V94.7137C17.487 94.7449 16.8679 94.7449 16.8679 94.7137V84.7238C17.7208 84.8051 18.747 84.6112 19.5751 84.7238V84.7253Z" fill="#E1E1E1"/>
<path d="M112.909 89.0949C112.478 89.0558 112.153 88.7416 111.712 88.6665C109.404 88.271 107.758 90.3894 107.977 92.5906C108.031 93.1346 108.374 93.5849 108.347 94.0899C105.187 90.8693 109.568 85.4788 112.909 89.0949Z" fill="#E1E1E1"/>
</g>
</g>
<defs>
<clipPath id="clip0_2716_1698">
<rect width="140" height="140" rx="30" fill="white"/>
</clipPath>
<clipPath id="clip1_2716_1698">
<rect width="115" height="96" fill="white" transform="translate(13 22)"/>
</clipPath>
</defs>
</svg>
