<svg width="140" height="140" viewBox="0 0 140 140" fill="none" xmlns="http://www.w3.org/2000/svg">
<rect width="140" height="140" rx="30" fill="white"/>
<g clip-path="url(#clip0_608_4237)">
<path d="M71.4608 73.2278C72.0093 66.4954 69.8177 61.2658 63.5291 58.6157C57.5525 56.0975 51.8572 56.9267 46.7388 61.499V47H40.8567V68.2056C40.8166 68.2056 40.774 68.2056 40.7314 68.2032V72.8486H40.8307V84.0733H46.4267C46.526 83.0156 46.6182 82.0262 46.727 80.8719C50.6042 84.9025 55.3065 85.6092 60.3351 84.7988C65.5646 83.9555 69.1487 80.9685 70.9643 75.9156C70.9147 77.7554 71.2811 79.329 72.0613 80.6246V72.4717C71.858 72.7096 71.657 72.9617 71.4608 73.2278ZM64.7891 74.4151C63.7111 78.7731 60.4746 81.084 55.8621 81.0675C51.5522 81.0533 48.6419 78.938 47.4102 74.7896C46.1903 70.6814 46.6135 66.7757 49.7885 63.6874C52.5499 61.002 56.0701 60.7264 59.5998 61.876C63.2241 63.0538 64.6591 66.069 65.087 69.5436C65.2809 71.136 65.1745 72.8557 64.7891 74.4151Z" fill="#1976D2"/>
<path d="M40.7318 68.2009C40.701 68.2032 40.6727 68.2009 40.6419 68.2009C40.5994 67.9795 40.5639 67.7557 40.5143 67.5342C40.4552 67.268 40.3866 67.0019 40.3133 66.738C39.2518 62.9313 37.0319 60.0739 33.3059 58.5639C29.7408 57.1152 26.0291 57.0422 22.2771 57.6711C19.329 58.1658 16.6221 59.2306 14.6338 61.5085C10.7731 65.9324 10.2246 71.0701 11.8796 76.4975C12.9718 80.0781 15.4423 82.5185 18.9437 83.8943C22.1755 85.1639 25.542 85.2723 28.9393 84.9095C31.8733 84.5986 34.663 83.8471 36.9869 81.9014C38.5851 80.5634 39.6655 78.9215 40.0462 76.7024C38.0697 76.7024 36.2635 76.6671 34.4597 76.7378C34.1499 76.7496 33.8426 77.1924 33.5565 77.461C32.547 78.415 31.6818 79.607 30.5115 80.2877C28.6225 81.3878 26.4451 81.3666 24.3032 81.051C20.2723 80.4597 17.1611 76.8909 17.1965 72.8486H40.7318V68.2009ZM17.3833 68.6225C17.5394 64.3565 21.0667 61.3459 25.9156 61.2611C31.0387 61.1693 34.2445 63.8406 34.6062 68.6225H17.3833Z" fill="#F44336"/>
<path d="M98.6489 63.8288C98.6985 63.8971 98.7529 63.9654 98.8026 64.0314L95.8497 58.2906C96.3178 59.24 96.6866 59.9938 97.02 60.6722C95.7528 59.9443 94.5494 59.0421 93.1971 58.5168C89.5634 57.1105 85.7619 56.9173 81.9248 57.4426C79.7971 57.7347 77.7781 58.3872 76.0333 59.6758C74.2153 61.0161 73.1562 62.8088 72.8795 65.155H78.9767C80.2439 62.6557 81.2534 61.6404 83.5443 61.4025C85.3529 61.2164 87.2607 61.2517 89.0362 61.6121C91.8945 62.1916 93.495 64.9878 92.8402 67.8852C90.2774 67.8852 87.6745 67.7509 85.0928 67.9135C80.0761 68.2244 74.9718 68.3799 71.4611 73.2278C71.0591 73.7814 70.9646 75.9156 70.9646 75.9156C70.8676 80.2736 73.019 82.5727 75.9199 83.7977C79.9531 85.5032 84.159 85.6186 88.2466 84.1392C90.1308 83.4584 91.7645 82.0898 93.4667 81.0604C93.54 81.8637 93.6369 82.9378 93.7385 84.0615H99.2045C98.7151 77.2866 99.6702 70.5518 98.6489 63.8288ZM85.0455 81.2606C83.1329 81.402 81.27 81.2488 79.5725 80.276C77.9365 79.3384 77.0547 77.918 77.2249 76.0122C77.3856 74.2125 78.6386 73.2443 80.2297 72.7968C81.7664 72.3657 83.3575 71.9888 84.9415 71.9016C87.5988 71.7579 90.2703 71.8639 93.0104 71.8639C93.7504 76.8461 90.2774 80.8743 85.0455 81.2606Z" fill="#FFC107"/>
<path d="M123.936 58.2317C123.08 58.1893 122.695 58.538 122.338 59.2517C119.34 65.2398 116.305 71.2114 113.278 77.1877C113.118 77.508 112.928 77.8166 112.694 78.2383C112.484 77.8308 112.356 77.5881 112.233 77.3431C109.184 71.2938 106.136 65.2398 103.07 59.1975C102.89 58.8442 102.562 58.3118 102.287 58.3024C100.183 58.2294 98.0745 58.2623 95.8403 58.2623L98.5497 63.8005C98.6608 63.956 98.7908 64.0973 98.8783 64.2598C102.285 70.6578 105.699 77.051 109.065 83.4678C109.25 83.8235 109.184 84.4549 108.992 84.8341C107.857 87.0743 106.647 89.2745 105.47 91.4912C105.053 92.2709 104.654 93.0577 104.179 93.9717C106.141 93.9717 107.912 93.9199 109.675 93.9953C110.56 94.0329 110.985 93.7149 111.375 92.947C117.075 81.7364 122.808 70.54 128.532 59.3412C128.686 59.0397 128.801 58.717 129 58.2529C127.215 58.2529 125.572 58.3095 123.936 58.2317Z" fill="#8BC34A"/>
</g>
<defs>
<clipPath id="clip0_608_4237">
<rect width="118" height="47" fill="white" transform="translate(11 47)"/>
</clipPath>
</defs>
</svg>
