<svg width="140" height="140" viewBox="0 0 140 140" fill="none" xmlns="http://www.w3.org/2000/svg">
<rect width="140" height="140" rx="30" fill="white"/>
<g clip-path="url(#clip0_2691_5143)">
<path d="M20 62.9872V78.8673H47.9483L27.163 100.794L38.4701 111.587L59.1056 91.4213V121H75.0119V74.6636L64.7592 63.0185L20 62.9872Z" fill="#F52400"/>
<path d="M95.8536 114.57C95.4692 114.57 95.0876 114.428 94.7879 114.144L80.0887 100.226C79.7778 99.9308 79.5997 99.5189 79.5997 99.0901V70.9315L67.3286 58.6785H41.2969C40.8842 58.6785 40.4884 58.5138 40.1972 58.2212L24.3362 42.2844C24.0451 41.9919 23.8811 41.5942 23.8811 41.1795C23.8811 40.7649 24.0451 40.3672 24.3362 40.0747L35.6744 28.6823C36.2482 28.1057 37.1641 28.0688 37.7832 28.5971L58.1162 46.0023V19.5622C58.1162 18.6987 58.8116 18 59.6709 18H76.3093C77.1686 18 77.864 18.6987 77.864 19.5622V46.684L96.2154 29.7701C96.8458 29.1907 97.8239 29.2276 98.4062 29.8582L109.148 41.5033C109.702 42.1026 109.699 43.0314 109.148 43.6307L92.6396 61.4535H118.445C119.305 61.4535 120 62.1522 120 63.0156V79.9522C120 80.8157 119.305 81.5144 118.445 81.5144H92.3456L109.148 99.7291C109.716 100.345 109.699 101.303 109.106 101.896L96.9504 114.109C96.6479 114.413 96.2494 114.567 95.8508 114.567L95.8536 114.57ZM82.7091 98.4169L95.8225 110.832L105.852 100.754L87.6475 81.0202C87.2263 80.5657 87.1161 79.9011 87.362 79.3331C87.6079 78.765 88.1676 78.3958 88.7867 78.3958H116.893V64.5835H89.0694C88.4503 64.5835 87.8906 64.2142 87.6447 63.6462C87.3987 63.0753 87.5118 62.4135 87.933 61.9591L105.889 42.5713L97.1794 33.1302L77.3637 51.3932C76.9086 51.8136 76.2528 51.9215 75.6874 51.6715C75.1221 51.4216 74.7574 50.8621 74.7574 50.2429V21.1243H61.2285V49.3851C61.2285 49.9958 60.8751 50.5468 60.3267 50.8024C59.7755 51.058 59.1282 50.9672 58.6674 50.5724L36.8588 31.9117L27.6351 41.1795L41.9414 55.5542H67.9703C68.3802 55.5542 68.7759 55.7161 69.0671 56.0087L82.2512 69.1762C82.5452 69.4688 82.7091 69.8692 82.7091 70.2839V98.4198V98.4169Z" fill="#F52400"/>
</g>
<defs>
<clipPath id="clip0_2691_5143">
<rect width="100" height="103" fill="white" transform="translate(20 18)"/>
</clipPath>
</defs>
</svg>
