<svg width="140" height="140" viewBox="0 0 140 140" fill="none" xmlns="http://www.w3.org/2000/svg">
<rect width="140" height="140" rx="30" fill="white"/>
<g clip-path="url(#clip0_2385_40)">
<path d="M32.4097 83.2231C27.28 83.2231 22.1503 83.2231 17.0206 83.2231C16.5769 83.2231 15.9477 83.4189 16.0521 82.6253C16.1305 82.0456 15.6031 81.2082 16.77 81.0227C17.7934 80.8604 18.7958 80.5563 19.7956 80.2729C20.7981 79.9895 21.2366 79.3016 21.2732 78.2632C21.6047 68.9568 21.5551 59.6504 21.2836 50.3415C21.2471 49.097 20.6597 48.4297 19.5189 48.1463C18.7619 47.9582 17.9918 47.716 17.2243 47.7005C15.8798 47.6748 15.9947 46.8245 16.0391 45.9536C16.0913 44.8741 16.9293 45.343 17.4044 45.361C25.2725 45.6419 33.1406 45.5517 41.0113 45.4641C43.0058 45.4409 45.0002 45.2065 46.9894 45.0209C47.7856 44.9462 48.1459 45.0493 48.0884 45.9974C47.9083 48.9501 47.8431 51.9106 47.7177 54.8684C47.6995 55.291 47.9083 55.9274 47.1069 55.8578C46.4543 55.8011 45.6032 56.2469 45.3291 55.1364C44.9924 53.7657 44.6243 52.395 44.1544 51.0629C43.319 48.6873 42.3584 48.0638 39.7974 48.0638C36.1453 48.0638 32.4932 48.087 28.8411 48.0484C27.8778 48.0381 27.4627 48.2468 27.4784 49.3315C27.5436 53.5338 27.5306 57.7387 27.4862 61.9435C27.4784 62.799 27.7342 63.0463 28.5826 63.0077C31.1357 62.8943 33.7019 63.0154 36.2367 62.5361C37.213 62.3532 37.7743 61.825 37.9962 60.8872C38.2546 59.8025 38.5209 58.7229 38.8028 57.6459C39.1109 56.4813 40.0741 57.0456 40.7555 56.9992C41.5752 56.9425 41.2933 57.633 41.2541 58.0298C40.873 61.8379 40.9617 65.6537 41.0661 69.4696C41.0792 69.9437 41.4081 70.7011 40.4031 70.6419C39.6565 70.5981 38.748 70.9974 38.5496 69.7066C37.9596 65.8856 37.1373 65.445 33.1772 65.3085C31.6134 65.2544 30.0471 65.2853 28.486 65.2286C27.7943 65.2028 27.4862 65.3523 27.494 66.1304C27.5332 69.82 27.4888 73.5096 27.5254 77.1991C27.5463 79.2449 28.4573 80.2188 30.5327 80.3116C34.1796 80.4765 37.8343 80.5074 41.4812 80.2704C43.6558 80.1286 45.055 78.8404 45.9687 76.9982C46.6553 75.6146 47.3288 74.2181 47.8927 72.783C48.3312 71.6648 49.1979 71.9997 49.955 72.0564C50.3753 72.0873 50.1742 72.5408 50.1403 72.8062C49.7435 76.0397 49.3232 79.2707 48.9421 82.5042C48.882 83.0066 48.8063 83.2875 48.1929 83.2488C42.9379 82.901 37.6751 83.1689 32.4175 83.2205L32.4097 83.2231Z" fill="#EC6724"/>
<path d="M109.271 77.8533C110.723 74.4729 112.19 71.1003 113.62 67.7121C114.27 66.1739 114.9 64.6203 115.448 63.0435C116.017 61.4048 115.594 60.704 113.942 60.1217C113.43 59.9413 112.756 60.0289 112.438 59.4827C111.931 58.617 112.519 57.7693 113.563 57.8131C116.257 57.9213 118.951 57.9291 121.645 57.8337C122.068 57.8183 122.736 57.4704 122.869 58.1172C122.997 58.7355 123.206 59.5007 122.496 60.0109C122.217 60.2119 121.945 60.4644 121.629 60.5648C120.074 61.057 119.33 62.2164 118.727 63.6258C115.926 70.1701 113.096 76.7016 110.214 83.2125C108.64 86.7707 106.671 90.0918 103.565 92.6091C100.364 95.2036 95.3546 95.7498 91.7834 93.9334C91.1099 93.5907 90.8567 93.2764 91.0603 92.4545C91.4806 90.7514 91.7912 89.0148 92.0001 87.2757C92.1306 86.1806 92.7493 86.0415 93.6447 85.9719C94.6576 85.8946 94.467 86.629 94.5819 87.1597C94.7777 88.0821 94.9291 89.0122 95.1301 89.9346C95.3833 91.0966 96.0803 91.6738 97.3386 91.6661C99.722 91.6506 101.555 90.5169 103.225 89.0045C103.385 88.8602 103.523 88.6927 103.669 88.5356C105.615 86.428 106.056 84.0567 104.993 81.4218C102.541 75.3386 100.108 69.2452 97.396 63.2676C96.7538 61.8505 96.1534 60.4412 94.3234 60.0856C93.3915 59.9053 93.8327 59.037 93.7909 58.4624C93.7387 57.7384 94.3443 57.9316 94.7229 57.9651C98.4637 58.3078 102.192 57.978 105.925 57.826C106.274 57.8105 106.828 57.5967 106.781 58.2357C106.742 58.7587 107.199 59.4698 106.34 59.7739C106.259 59.8022 106.175 59.8331 106.094 59.8563C102.703 60.8818 102.672 60.8921 103.883 64.2338C105.533 68.784 107.232 73.3186 108.914 77.8585C109.036 77.8585 109.156 77.8585 109.279 77.8559L109.271 77.8533Z" fill="#EC6824"/>
<path d="M82.0018 83.8488C79.3834 83.8024 76.9687 83.3 74.5905 82.5992C73.9588 82.4137 73.6873 82.138 73.8047 81.4114C74.0841 79.7109 73.9457 77.9924 73.8439 76.279C73.8178 75.8539 73.3453 75.1479 74.1859 75.0268C74.9038 74.9237 75.7365 74.7228 76.0733 75.8229C76.3839 76.8407 76.8747 77.8094 77.3107 78.7885C78.6368 81.767 83.2026 82.795 85.727 80.69C87.3742 79.3167 87.3351 76.6088 85.6434 74.9675C84.6332 73.9859 83.3749 73.4087 82.114 72.829C80.7774 72.2158 79.4173 71.6412 78.133 70.9378C74.8098 69.1137 73.4288 66.4212 74.0084 63.0846C74.5174 60.1654 76.9347 58.0552 80.4824 57.4111C83.6281 56.8417 86.7059 57.3158 89.7785 57.9573C90.6008 58.13 90.8619 58.4907 90.7026 59.377C90.4572 60.7632 90.3789 62.1854 90.3189 63.5973C90.2902 64.293 90.1779 64.6924 89.353 64.7851C88.5516 64.8753 88.1313 64.6821 87.9799 63.8859C87.9094 63.5123 87.7136 63.1645 87.5831 62.8012C86.5075 59.797 84.5235 58.7303 81.3648 59.5007C79.9891 59.8356 78.8404 60.5158 78.5011 61.9922C78.146 63.5329 78.7464 64.7722 79.9577 65.7307C81.5345 66.9777 83.4402 67.6322 85.231 68.4876C86.4814 69.0853 87.7371 69.6754 88.8518 70.5076C93.3079 73.8416 92.6214 80.3164 87.5465 82.6481C85.7557 83.4701 83.8735 83.957 81.9965 83.8436L82.0018 83.8488Z" fill="#EC6824"/>
<path d="M55.6747 70.0463C55.6747 67.4723 55.6303 64.8984 55.6982 62.3244C55.7243 61.3866 55.4084 61.1393 54.5234 61.2191C53.7481 61.2913 52.9571 61.2629 52.1766 61.2217C51.6962 61.1959 50.9731 61.5386 50.9992 60.5389C51.0175 59.8252 50.9601 59.3202 51.9729 59.1244C56.0375 58.3334 57.7683 55.3601 58.6141 51.7298C58.8673 50.6399 59.2276 50.0834 60.4702 50.2406C61.1463 50.3282 61.3578 50.524 61.3499 51.1733C61.3212 53.2319 61.3682 55.2931 61.3238 57.3492C61.3056 58.1453 61.5301 58.3669 62.3628 58.2948C64.3546 58.1221 66.3569 58.1015 68.3513 57.9495C69.1554 57.8877 69.2911 58.1634 69.2337 58.8822C69.0144 61.6288 69.0353 61.6339 66.2838 61.4407C64.8976 61.3454 63.5062 61.2732 62.1253 61.1109C61.4048 61.0259 61.128 61.1624 61.1359 61.9431C61.175 66.7483 61.115 71.5536 61.1985 76.3562C61.2481 79.1981 62.4959 80.6641 64.7332 80.7646C66.135 80.829 67.3515 80.3112 68.4427 79.4326C68.6907 79.2316 68.8526 78.4741 69.3903 79.0332C69.8028 79.4635 70.445 79.8654 69.9046 80.6616C69.1554 81.7643 68.1843 82.6017 66.9678 83.1221C64.6157 84.1321 62.1775 84.3666 59.7419 83.4932C57.0687 82.5347 55.8 80.4812 55.706 77.7552C55.6198 75.1839 55.6877 72.6074 55.6877 70.0334C55.6851 70.0334 55.6799 70.0334 55.6773 70.0334L55.6747 70.0463Z" fill="#EC6824"/>
</g>
<defs>
<clipPath id="clip0_2385_40">
<rect width="107" height="50" fill="white" transform="translate(16 45)"/>
</clipPath>
</defs>
</svg>
