<svg width="140" height="140" viewBox="0 0 140 140" fill="none" xmlns="http://www.w3.org/2000/svg">
<rect width="140" height="140" rx="30" fill="#243561"/>
<g clip-path="url(#clip0_3597_826)">
<path d="M27.905 69.98V71.7675H19V60.2825H27.67V62.07H21.205V65.055H26.94V66.81H21.205V69.9775H27.905V69.98Z" fill="white"/>
<path d="M30.8575 70.595C29.9425 69.705 29.4825 68.4275 29.4825 66.765V60.2825H31.6875V66.68C31.6875 68.9325 32.695 70.06 34.7075 70.06C36.72 70.06 37.71 68.9325 37.71 66.68V60.2825H39.8825V66.7625C39.8825 68.425 39.4275 69.7025 38.5175 70.5925C37.6075 71.485 36.3325 71.93 34.6925 71.93C33.0525 71.93 31.775 71.485 30.8575 70.5925V70.595Z" fill="white"/>
<path d="M49.96 71.7675L47.535 68.405C47.4325 68.415 47.28 68.4225 47.0775 68.4225H44.3975V71.77H42.1925V60.2825H47.0775C48.1075 60.2825 49.0025 60.4475 49.7675 60.775C50.5325 61.1025 51.115 61.5725 51.5225 62.185C51.93 62.7975 52.1325 63.525 52.1325 64.3675C52.1325 65.21 51.915 65.975 51.48 66.6C51.045 67.2225 50.42 67.6875 49.605 67.995L52.335 71.7675H49.96ZM49.1625 62.6775C48.665 62.285 47.935 62.0875 46.975 62.0875H44.3975V66.665H46.975C47.935 66.665 48.665 66.465 49.1625 66.065C49.66 65.665 49.91 65.1 49.91 64.3675C49.91 63.635 49.66 63.0725 49.1625 62.6775Z" fill="white"/>
<path d="M56.0825 71.1675C55.11 70.66 54.3475 69.9525 53.7925 69.05C53.2375 68.1475 52.9625 67.1375 52.9625 66.0225C52.9625 64.9075 53.24 63.8975 53.7925 62.995C54.3475 62.0925 55.11 61.3875 56.0825 60.8775C57.055 60.37 58.1475 60.115 59.3575 60.115C60.5675 60.115 61.66 60.37 62.6325 60.8775C63.605 61.385 64.3675 62.09 64.9225 62.985C65.4775 63.8825 65.7525 64.8925 65.7525 66.02C65.7525 67.1475 65.475 68.1575 64.9225 69.055C64.3675 69.9525 63.605 70.655 62.6325 71.1625C61.66 71.67 60.5675 71.925 59.3575 71.925C58.1475 71.925 57.055 71.67 56.0825 71.1625V71.1675ZM61.495 69.545C62.1275 69.2 62.625 68.72 62.9875 68.1C63.35 67.4825 63.53 66.79 63.53 66.025C63.53 65.26 63.35 64.5675 62.9875 63.95C62.625 63.3325 62.1275 62.85 61.495 62.5075C60.8625 62.1625 60.15 61.99 59.3575 61.99C58.565 61.99 57.8525 62.1625 57.22 62.5075C56.5875 62.8525 56.09 63.3325 55.7275 63.95C55.365 64.5675 55.185 65.26 55.185 66.025C55.185 66.79 55.365 67.4825 55.7275 68.1C56.09 68.7175 56.5875 69.2 57.22 69.545C57.8525 69.89 58.565 70.0625 59.3575 70.0625C60.15 70.0625 60.8625 69.89 61.495 69.545Z" fill="white"/>
<path d="M77.29 66.8375C77.675 67.325 77.8675 67.9275 77.8675 68.65C77.8675 69.645 77.4725 70.4125 76.68 70.955C75.8875 71.4975 74.735 71.7675 73.22 71.7675H67.3175V60.2825H72.8825C74.285 60.2825 75.365 60.5475 76.1225 61.0775C76.88 61.6075 77.26 62.3375 77.26 63.2675C77.26 63.835 77.125 64.34 76.8525 64.7775C76.58 65.215 76.2075 65.555 75.7325 65.795C76.3875 66.0025 76.9075 66.35 77.2925 66.8375H77.29ZM69.52 61.9575V65.125H72.6425C73.4125 65.125 74.0025 64.99 74.415 64.7225C74.8275 64.455 75.035 64.0625 75.035 63.55C75.035 63.0375 74.8275 62.6275 74.415 62.36C74.0025 62.0925 73.41 61.9575 72.6425 61.9575H69.52ZM75.6425 68.4375C75.6425 67.3325 74.7875 66.78 73.08 66.78H69.5175V70.095H73.08C74.7875 70.095 75.6425 69.5425 75.6425 68.4375Z" fill="white"/>
<path d="M88.35 69.98V71.7675H79.445V60.2825H88.115V62.07H81.6525V65.055H87.3875V66.81H81.6525V69.9775H88.3525L88.35 69.98Z" fill="white"/>
<path d="M93.6875 62.0875H89.7525V60.2825H99.83V62.0875H95.895V71.7675H93.69V62.0875H93.6875Z" fill="white"/>
<path d="M113.072 64.035L117.455 59L108.037 59.6525L106.422 64.2275L113.072 64.035Z" fill="#477D64"/>
<path d="M113.65 66.035L104.925 66.0525L103.195 71.4925L113.688 70.1475L111.305 68.57L113.65 66.035Z" fill="#D65857"/>
<path d="M120.03 62.3451L119.993 65.7651L110.113 66.9951L114.033 62.3051L120.03 62.3451Z" fill="#FCD732"/>
</g>
<path d="M23.63 77.048H25.4C25.844 77.048 26.238 77.136 26.582 77.312C26.926 77.488 27.192 77.736 27.38 78.056C27.572 78.372 27.668 78.736 27.668 79.148C27.668 79.56 27.572 79.926 27.38 80.246C27.192 80.562 26.926 80.808 26.582 80.984C26.238 81.16 25.844 81.248 25.4 81.248H23.63V77.048ZM25.364 80.726C25.704 80.726 26.002 80.66 26.258 80.528C26.518 80.396 26.718 80.212 26.858 79.976C26.998 79.736 27.068 79.46 27.068 79.148C27.068 78.836 26.998 78.562 26.858 78.326C26.718 78.086 26.518 77.9 26.258 77.768C26.002 77.636 25.704 77.57 25.364 77.57H24.23V80.726H25.364Z" fill="#C46464"/>
<path d="M28.587 77.048H29.187V81.248H28.587V77.048Z" fill="#C46464"/>
<path d="M33.2525 81.248L32.3465 79.958C32.2345 79.966 32.1465 79.97 32.0825 79.97H31.0445V81.248H30.4445V77.048H32.0825C32.6265 77.048 33.0545 77.178 33.3665 77.438C33.6785 77.698 33.8345 78.056 33.8345 78.512C33.8345 78.836 33.7545 79.112 33.5945 79.34C33.4345 79.568 33.2065 79.734 32.9105 79.838L33.9065 81.248H33.2525ZM32.0645 79.46C32.4445 79.46 32.7345 79.378 32.9345 79.214C33.1345 79.05 33.2345 78.816 33.2345 78.512C33.2345 78.208 33.1345 77.976 32.9345 77.816C32.7345 77.652 32.4445 77.57 32.0645 77.57H31.0445V79.46H32.0645Z" fill="#C46464"/>
<path d="M37.8518 80.726V81.248H34.8038V77.048H37.7678V77.57H35.4038V78.86H37.5098V79.37H35.4038V80.726H37.8518Z" fill="#C46464"/>
<path d="M39.6574 77.57H38.2174V77.048H41.6914V77.57H40.2514V81.248H39.6574V77.57Z" fill="#C46464"/>
<path d="M43.6549 77.57H42.2149V77.048H45.6889V77.57H44.2489V81.248H43.6549V77.57Z" fill="#C46464"/>
<path d="M48.8075 80.198H46.5755L46.1135 81.248H45.4955L47.3975 77.048H47.9915L49.8995 81.248H49.2695L48.8075 80.198ZM48.5975 79.718L47.6915 77.66L46.7855 79.718H48.5975Z" fill="#C46464"/>
<path d="M54.9438 81.296C54.6278 81.296 54.3218 81.248 54.0258 81.152C53.7338 81.052 53.5038 80.924 53.3358 80.768L53.5578 80.3C53.7178 80.444 53.9219 80.562 54.1698 80.654C54.4219 80.742 54.6798 80.786 54.9438 80.786C55.2918 80.786 55.5518 80.728 55.7239 80.612C55.8959 80.492 55.9818 80.334 55.9818 80.138C55.9818 79.994 55.9338 79.878 55.8378 79.79C55.7458 79.698 55.6298 79.628 55.4898 79.58C55.3538 79.532 55.1598 79.478 54.9078 79.418C54.5918 79.342 54.3358 79.266 54.1398 79.19C53.9478 79.114 53.7818 78.998 53.6418 78.842C53.5058 78.682 53.4378 78.468 53.4378 78.2C53.4378 77.976 53.4958 77.774 53.6118 77.594C53.7318 77.414 53.9118 77.27 54.1518 77.162C54.3918 77.054 54.6898 77 55.0458 77C55.2938 77 55.5379 77.032 55.7779 77.096C56.0179 77.16 56.2239 77.252 56.3959 77.372L56.1978 77.852C56.0219 77.74 55.8339 77.656 55.6339 77.6C55.4338 77.54 55.2378 77.51 55.0458 77.51C54.7058 77.51 54.4499 77.572 54.2778 77.696C54.1098 77.82 54.0258 77.98 54.0258 78.176C54.0258 78.32 54.0738 78.438 54.1698 78.53C54.2659 78.618 54.3839 78.688 54.5238 78.74C54.6678 78.788 54.8618 78.84 55.1058 78.896C55.4218 78.972 55.6758 79.048 55.8679 79.124C56.0599 79.2 56.2238 79.316 56.3598 79.472C56.4998 79.628 56.5699 79.838 56.5699 80.102C56.5699 80.322 56.5098 80.524 56.3899 80.708C56.2699 80.888 56.0878 81.032 55.8438 81.14C55.5998 81.244 55.2999 81.296 54.9438 81.296Z" fill="#C46464"/>
<path d="M59.0844 77.048C59.6284 77.048 60.0564 77.178 60.3684 77.438C60.6804 77.698 60.8364 78.056 60.8364 78.512C60.8364 78.968 60.6804 79.326 60.3684 79.586C60.0564 79.846 59.6284 79.976 59.0844 79.976H58.0464V81.248H57.4464V77.048H59.0844ZM59.0664 79.454C59.4464 79.454 59.7364 79.374 59.9364 79.214C60.1364 79.05 60.2364 78.816 60.2364 78.512C60.2364 78.208 60.1364 77.976 59.9364 77.816C59.7364 77.652 59.4464 77.57 59.0664 77.57H58.0464V79.454H59.0664Z" fill="#C46464"/>
<path d="M63.6725 81.296C63.2485 81.296 62.8665 81.204 62.5265 81.02C62.1865 80.832 61.9185 80.574 61.7225 80.246C61.5305 79.918 61.4345 79.552 61.4345 79.148C61.4345 78.744 61.5305 78.378 61.7225 78.05C61.9185 77.722 62.1865 77.466 62.5265 77.282C62.8665 77.094 63.2485 77 63.6725 77C64.0925 77 64.4725 77.094 64.8125 77.282C65.1525 77.466 65.4185 77.722 65.6105 78.05C65.8025 78.374 65.8985 78.74 65.8985 79.148C65.8985 79.556 65.8025 79.924 65.6105 80.252C65.4185 80.576 65.1525 80.832 64.8125 81.02C64.4725 81.204 64.0925 81.296 63.6725 81.296ZM63.6725 80.762C63.9805 80.762 64.2565 80.692 64.5005 80.552C64.7485 80.412 64.9425 80.22 65.0825 79.976C65.2265 79.728 65.2985 79.452 65.2985 79.148C65.2985 78.844 65.2265 78.57 65.0825 78.326C64.9425 78.078 64.7485 77.884 64.5005 77.744C64.2565 77.604 63.9805 77.534 63.6725 77.534C63.3645 77.534 63.0845 77.604 62.8325 77.744C62.5845 77.884 62.3885 78.078 62.2445 78.326C62.1045 78.57 62.0345 78.844 62.0345 79.148C62.0345 79.452 62.1045 79.728 62.2445 79.976C62.3885 80.22 62.5845 80.412 62.8325 80.552C63.0845 80.692 63.3645 80.762 63.6725 80.762Z" fill="#C46464"/>
<path d="M69.6236 81.248L68.7176 79.958C68.6056 79.966 68.5176 79.97 68.4536 79.97H67.4156V81.248H66.8156V77.048H68.4536C68.9976 77.048 69.4256 77.178 69.7376 77.438C70.0496 77.698 70.2056 78.056 70.2056 78.512C70.2056 78.836 70.1256 79.112 69.9656 79.34C69.8056 79.568 69.5776 79.734 69.2816 79.838L70.2776 81.248H69.6236ZM68.4356 79.46C68.8156 79.46 69.1056 79.378 69.3056 79.214C69.5056 79.05 69.6056 78.816 69.6056 78.512C69.6056 78.208 69.5056 77.976 69.3056 77.816C69.1056 77.652 68.8156 77.57 68.4356 77.57H67.4156V79.46H68.4356Z" fill="#C46464"/>
<path d="M71.9503 77.57H70.5103V77.048H73.9843V77.57H72.5443V81.248H71.9503V77.57Z" fill="#C46464"/>
<circle cx="20" cy="79" r="1" fill="#C46464"/>
<defs>
<clipPath id="clip0_3597_826">
<rect width="101.03" height="12.9325" fill="white" transform="translate(19 59)"/>
</clipPath>
</defs>
</svg>
