<svg width="140" height="140" viewBox="0 0 140 140" fill="none" xmlns="http://www.w3.org/2000/svg">
<g clip-path="url(#clip0_3450_530)">
<rect width="140" height="140" rx="30" fill="#EE7311"/>
<g clip-path="url(#clip1_3450_530)">
<path d="M140 0.00230743V140H0.0023219L0 0L140 0.00230743ZM69.1264 75.2177C69.0753 73.3856 69.8415 71.6181 69.5861 69.7595C67.8261 56.9347 58.8531 46.3563 45.2758 45.2245C15.0436 42.7025 5.63757 84.1867 33.2589 94.5574C46.0514 99.3604 60.8918 94.3025 66.5003 81.7396H55.7813C55.5955 81.7396 53.767 83.8348 53.0856 84.2778C42.9656 90.8482 30.0744 86.6383 26.6879 75.2177H69.1241H69.1264ZM117.169 45.3214C116.581 45.063 116.138 45.2314 115.694 45.6318L96.9067 64.3404L78.0378 45.2441C77.4539 45.0676 77.188 45.348 76.7596 45.6318C76.3185 45.9248 71.6758 50.5466 71.5052 50.8743C71.2405 51.3831 71.2962 51.5965 71.7234 51.9703L90.554 70.6524L71.5133 89.5791C71.064 90.5933 74.7245 94.0567 75.6056 94.7455C76.4868 95.4342 77.4771 96.671 78.5626 95.6858L96.9659 77.4224L116.232 96.0388C116.652 96.2199 116.898 96.0826 117.252 95.8646C117.673 95.6073 122.41 90.5356 122.427 90.1491C116.771 83.4206 109.754 77.5874 103.764 71.0205L122.489 51.8619C122.609 51.3819 122.561 50.9931 122.366 50.5397C122.221 50.2017 117.505 45.4691 117.168 45.3203L117.169 45.3214Z" fill="#FDDE02"/>
<path d="M69.1266 75.2176H26.6892C30.0757 86.6382 42.9669 90.8481 53.0869 84.2777C53.7695 83.8347 55.5969 81.7395 55.7826 81.7395H66.5017C60.8931 94.3023 46.0527 99.3602 33.2602 94.5573C5.63776 84.1866 15.0449 42.7035 45.2772 45.2244C58.8533 46.3562 67.8263 56.9346 69.5875 69.7593C69.8429 71.618 69.6397 73.5943 69.1277 75.2176H69.1266ZM26.6892 66.522H59.5011C58.3007 59.4324 50.5073 54.1126 43.552 53.8934C36.0628 53.6569 27.9883 58.9848 26.6892 66.522Z" fill="#091023"/>
<path d="M117.169 45.3214C117.507 45.4702 122.222 50.2027 122.367 50.5408C122.562 50.9942 122.61 51.3841 122.49 51.8629L103.766 71.0216C109.755 77.5885 116.772 83.4217 122.428 90.1502C122.412 90.5367 117.673 95.6084 117.253 95.8657C116.899 96.0826 116.653 96.221 116.233 96.0399L96.967 77.4235L78.5637 95.6868C77.4782 96.6733 76.5146 95.4573 75.6067 94.7466C74.6989 94.0359 71.0651 90.5932 71.5144 89.5802L90.5551 70.6535L71.7245 51.9714C71.2973 51.5976 71.2416 51.3841 71.5063 50.8754C71.6769 50.5465 76.3196 45.9248 76.7607 45.6329C77.188 45.3491 77.455 45.0699 78.0389 45.2452L96.9078 64.3415L115.695 45.6329C116.138 45.2325 116.581 45.0652 117.17 45.3225L117.169 45.3214Z" fill="#091023"/>
<path d="M26.689 66.5221C27.9881 58.9849 36.0625 53.657 43.5518 53.8936C50.5058 54.1128 58.3004 59.4326 59.5009 66.5221H26.689Z" fill="#FDDE02"/>
</g>
</g>
<defs>
<clipPath id="clip0_3450_530">
<rect width="140" height="140" rx="30" fill="white"/>
</clipPath>
<clipPath id="clip1_3450_530">
<rect width="140" height="140" fill="white"/>
</clipPath>
</defs>
</svg>
