<svg width="140" height="140" viewBox="0 0 140 140" fill="none" xmlns="http://www.w3.org/2000/svg">
<rect width="140" height="140" rx="30" fill="white"/>
<g clip-path="url(#clip0_2643_339)">
<path d="M79.2811 73.7951C79.5294 72.6161 79.7845 71.4388 80.0236 70.2581C80.2492 69.1442 80.4619 68.028 80.6728 66.911C80.9619 65.3792 81.2298 63.8432 81.5329 62.3146C81.8087 60.9245 82.1252 59.5431 82.4116 58.1551C82.5241 57.61 82.6108 57.059 82.6945 56.5083C82.8207 55.6779 83.0745 55.445 83.9076 55.4409C85.0647 55.4353 86.2222 55.4471 87.3793 55.4287C87.9548 55.4194 88.2532 55.6682 88.3584 56.2425C88.6098 57.6131 88.8856 58.9793 89.1606 60.3457C89.6994 63.0222 90.2533 65.6959 90.7831 68.3742C91.062 69.7847 91.2979 71.2035 91.5658 72.6164C91.632 72.9654 91.7465 73.3047 91.8823 73.811C92.015 73.5144 92.1323 73.3439 92.1687 73.1571C92.6691 70.589 93.1633 68.0203 93.6482 65.4492C94.1036 63.0347 94.5461 60.6174 94.995 58.2016C95.126 57.4967 95.2553 56.7918 95.3945 56.0886C95.4741 55.6855 95.7293 55.4471 96.1363 55.4436C97.2935 55.4336 98.451 55.428 99.6077 55.4544C100.077 55.4651 100.301 55.8158 100.215 56.2411C99.9243 57.6862 99.5858 59.1213 99.2679 60.561C98.8018 62.6708 98.3405 64.7821 97.871 66.8912C97.5925 68.1423 97.2918 69.3886 97.0198 70.6414C96.7324 71.9649 96.4851 73.2978 96.1871 74.6189C95.9031 75.8765 95.5742 77.1241 95.2697 78.3773C95.1898 78.7065 95.0972 79.0372 95.0629 79.3726C95.0094 79.898 94.7285 80.1025 94.2316 80.1014C92.6156 80.0987 90.9992 80.1094 89.3832 80.1049C88.8749 80.1035 88.6325 79.8679 88.5454 79.3151C88.3156 77.855 88.0066 76.4078 87.7243 74.9564C87.45 73.5449 87.1646 72.1354 86.8933 70.7232C86.6066 69.2326 86.3316 67.74 86.0493 66.2484C85.9499 65.7219 85.8456 65.1966 85.5884 64.6008C85.4941 64.7491 85.3442 64.8867 85.3133 65.0475C84.9316 67.0461 84.5777 69.0503 84.1953 71.0489C83.7107 73.5816 83.2069 76.1104 82.7096 78.6407C82.6523 78.9321 82.6527 79.2662 82.5028 79.4998C82.3426 79.7497 82.0408 80.0657 81.7925 80.0734C80.1182 80.1254 78.4415 80.1021 76.7655 80.1056C76.2445 80.1066 76.1063 79.7227 76.0141 79.3231C75.7627 78.2349 75.5285 77.1429 75.2908 76.0512C74.8028 73.81 74.3305 71.565 73.827 69.3276C73.2852 66.9186 72.6977 64.5201 72.1634 62.1094C71.7354 60.1784 71.3543 58.2362 70.9579 56.2979C70.854 55.7892 71.0652 55.4592 71.568 55.4471C72.7045 55.4197 73.8428 55.4166 74.9794 55.4464C75.7486 55.4665 75.7792 56.1718 75.8759 56.6743C76.3416 59.0888 76.737 61.5171 77.1808 63.9361C77.6603 66.5481 78.1627 69.156 78.6617 71.7646C78.7913 72.4418 78.9467 73.1141 79.0904 73.7888C79.1542 73.7909 79.218 73.7933 79.2818 73.7954L79.2811 73.7951Z" fill="black"/>
<path d="M38.6446 68.3565C38.4059 67.4703 38.5328 66.5263 37.8153 65.828C37.1308 65.1619 36.2391 64.9955 35.3885 65.0163C34.0075 65.0503 32.6267 65.2527 31.2549 65.4478C30.7665 65.5171 30.5505 65.4118 30.4613 64.9293C30.298 64.0453 30.1032 63.1667 29.9249 62.2854C29.8395 61.863 30.0144 61.5473 30.4092 61.4461C33.4491 60.667 36.5079 60.2463 39.5551 61.3563C41.6125 62.1059 42.8914 63.6481 43.4038 65.7677C43.6603 66.8285 43.7941 67.9413 43.8153 69.034C43.8705 71.8938 43.8366 74.7557 43.8314 77.6166C43.8287 79.0801 43.5533 79.4111 42.1239 79.7043C39.7849 80.1839 37.4387 80.622 35.0353 80.4418C33.2944 80.3111 31.5865 79.9992 30.2449 78.7543C29.5322 78.0931 29.1251 77.2014 28.9684 76.23C28.7084 74.6206 28.728 73.0222 29.3799 71.4953C30.1156 69.7722 31.4898 68.8399 33.279 68.6403C34.8775 68.4618 36.497 68.475 38.1068 68.4022C38.2625 68.3953 38.4179 68.3762 38.6449 68.3568L38.6446 68.3565ZM38.8785 73.925H38.874C38.874 73.5223 38.9032 73.1161 38.8586 72.7183C38.8428 72.5762 38.6404 72.3347 38.5372 72.3419C37.3139 72.4265 36.0803 72.4754 34.8765 72.6888C34.0891 72.8285 33.6576 73.6887 33.7211 74.5675C33.7818 75.4055 34.2973 76.1756 34.9461 76.2127C35.8872 76.2667 36.8396 76.2771 37.7769 76.1905C38.6072 76.1136 38.8822 75.6911 38.8788 74.8316C38.8778 74.5294 38.8788 74.2272 38.8788 73.9254L38.8785 73.925Z" fill="black"/>
<path d="M17.8984 59.983C17.8984 62.0884 17.8912 64.0797 17.9159 66.0711C17.9173 66.1941 18.1701 66.4194 18.3069 66.42C20.5413 66.4336 22.776 66.4193 25.0107 66.41C26.0557 66.4058 26.2676 66.6169 26.2714 67.6781C26.2741 68.4842 26.2813 69.2903 26.2738 70.096C26.2679 70.7046 26.0268 70.9434 25.4445 70.9437C23.1302 70.9454 20.8153 70.97 18.5017 70.9291C17.9478 70.9194 17.8878 71.1218 17.8906 71.5814C17.9056 74.0596 17.8988 76.5382 17.896 79.0165C17.895 79.9848 17.775 80.1061 16.8387 80.1078C15.9007 80.1095 14.9627 80.1109 14.0251 80.1075C13.1718 80.1047 13 79.9324 13 79.0903C13 71.5141 13.0003 63.9376 13.0014 56.3615C13.0014 55.7338 13.2771 55.4427 13.8975 55.442C18.3275 55.4389 22.7578 55.4389 27.1878 55.442C27.8438 55.4424 28.0503 55.6299 28.0633 56.2911C28.0818 57.2175 28.077 58.1449 28.0547 59.0712C28.0386 59.7415 27.7601 59.9827 27.0701 59.983C24.2764 59.9844 21.4827 59.983 18.689 59.983C18.454 59.983 18.2191 59.983 17.8984 59.983Z" fill="black"/>
<path d="M110.818 71.0851C110.818 68.3851 110.834 65.6847 110.804 62.985C110.798 62.4377 111.007 62.147 111.477 62.0122C112.464 61.7294 113.443 61.3728 114.451 61.2199C116.097 60.9701 117.764 60.7351 119.424 60.7237C121.095 60.7122 122.747 61.073 124.119 62.1688C125.393 63.1867 126.117 64.584 126.382 66.1525C126.681 67.9245 126.885 69.7259 126.952 71.5214C127.045 74.0364 126.975 76.558 126.972 79.0768C126.971 79.8271 126.711 80.1013 125.975 80.1071C124.937 80.1158 123.899 80.1165 122.862 80.1047C122.171 80.0967 122.074 79.9876 122.074 79.2854C122.072 75.6382 122.08 71.991 122.067 68.3438C122.063 67.3055 121.835 66.3054 120.932 65.6809C119.98 65.022 118.874 64.8789 117.742 65.0324C117.236 65.1011 116.744 65.2892 116.237 65.3291C115.69 65.3721 115.605 65.6545 115.606 66.1255C115.616 70.3168 115.61 74.5081 115.61 78.6991C115.61 79.6364 115.148 80.1059 114.223 80.1075C113.345 80.1085 112.467 80.1019 111.589 80.1099C111.042 80.1151 110.807 79.8798 110.81 79.3055C110.827 76.5653 110.818 73.8247 110.818 71.0844L110.818 71.0851Z" fill="black"/>
<path d="M51.8072 80.5849C49.2601 80.4636 46.8823 79.8969 44.7197 78.5225C44.3184 78.2674 44.1871 78.0162 44.4244 77.5389C44.7334 76.9176 44.9388 76.2445 45.2039 75.5999C45.4097 75.0995 45.7146 74.9734 46.2808 75.1446C47.8121 75.6072 49.3544 76.0713 50.9251 76.345C51.8017 76.4979 52.751 76.3277 53.6516 76.1936C54.0855 76.1291 54.5035 75.8242 54.5797 75.2887C54.6633 74.7023 54.6798 74.152 54.1479 73.7049C53.286 72.9806 52.2157 72.8053 51.2094 72.4438C49.8174 71.9441 48.3818 71.5071 47.083 70.8164C45.0691 69.7455 44.2697 67.8242 44.6007 65.5369C44.9549 63.0887 46.7956 61.5937 49.2433 61.0101C51.6728 60.4306 54.0666 60.7949 56.4645 61.1868C56.7718 61.2371 57.075 61.3393 57.3672 61.4519C57.6817 61.5736 57.9495 61.7538 57.798 62.1742C57.4999 63.0018 57.1535 63.8162 56.921 64.6621C56.7475 65.2939 56.3795 65.3414 55.8932 65.1861C54.5591 64.7602 53.1845 64.7793 51.8185 64.8423C51.2458 64.8687 50.6552 65.0527 50.124 65.2846C49.6452 65.4935 49.4398 65.9458 49.4579 66.5197C49.4802 67.2239 49.9391 67.6076 50.4515 67.8252C51.3957 68.2262 52.405 68.4663 53.3673 68.8274C54.6805 69.3203 56.0962 69.6755 57.2489 70.4303C58.9318 71.5324 59.7538 73.2742 59.5199 75.3501C59.2175 78.0328 57.6152 79.4357 55.0793 80.0633C54.0107 80.3277 52.8995 80.4171 51.8079 80.5859L51.8072 80.5849Z" fill="black"/>
<path d="M61.8483 61.015C61.9491 59.7955 62.0026 58.6941 62.1449 57.6049C62.2211 57.0216 62.3943 56.4328 62.6357 55.8981C62.7362 55.6752 63.1217 55.4756 63.3902 55.4579C64.2442 55.4014 65.1046 55.4226 65.9617 55.4392C66.579 55.451 66.8139 55.7376 66.8126 56.3808C66.8091 57.9053 66.8115 59.4299 66.8115 61.0188C67.7773 61.0188 68.6673 61.0154 69.5572 61.0199C70.3083 61.0237 70.5655 61.2819 70.5679 62.0221C70.5707 62.7873 70.5717 63.5529 70.571 64.3181C70.5703 65.0937 70.344 65.3318 69.5884 65.346C69.1299 65.3547 68.671 65.355 68.2122 65.3567C67.7776 65.3585 67.3435 65.3571 66.8496 65.3571C66.8496 65.6434 66.8496 65.8974 66.8496 66.1511C66.8503 68.6484 66.899 71.1471 66.8362 73.643C66.7892 75.5179 68.016 76.2866 69.6028 76.1518C69.929 76.124 70.3004 76.1019 70.5792 76.2332C70.7679 76.3219 70.9198 76.6785 70.9328 76.9239C70.9767 77.7473 70.9424 78.5746 70.9551 79.4001C70.962 79.8537 70.7418 80.1639 70.3347 80.2377C68.2022 80.6252 66.0961 80.6751 64.2082 79.3658C62.9955 78.5247 62.3384 77.2667 62.1542 75.843C61.9697 74.4148 61.9673 72.9593 61.9436 71.5148C61.9127 69.6222 61.9302 67.7286 61.9484 65.8353C61.9518 65.468 61.8572 65.3235 61.4775 65.3505C61.041 65.3817 60.6006 65.3633 60.1616 65.3585C59.5861 65.3522 59.2583 65.0649 59.2418 64.4858C59.2171 63.6205 59.2202 62.7537 59.2373 61.888C59.2483 61.3214 59.5683 61.0299 60.1578 61.0175C60.7302 61.0053 61.3033 61.0147 61.8483 61.0147V61.015Z" fill="black"/>
<path d="M103.938 70.5532C103.938 67.7537 103.936 64.9545 103.939 62.155C103.939 61.1603 104.09 61.012 105.08 61.0127C106.017 61.013 106.955 61.0283 107.892 61.0186C108.452 61.013 108.75 61.2588 108.763 61.832C108.768 62.0735 108.77 62.3151 108.77 62.557C108.77 68.0552 108.77 73.5533 108.769 79.0512C108.769 79.9699 108.637 80.1054 107.737 80.1092C106.819 80.1127 105.902 80.111 104.984 80.1092C104.064 80.1075 103.939 79.989 103.938 79.0716C103.935 76.2319 103.937 73.3922 103.937 70.5528L103.938 70.5532Z" fill="black"/>
<path d="M103.066 56.5257C102.953 54.5936 104.273 53.0552 106.262 53.022C108.43 52.9856 109.648 54.3129 109.79 56.3656C109.91 58.0963 108.427 59.8198 106.579 59.8173C104.534 59.8146 103.114 58.5267 103.066 56.5257Z" fill="#E86406"/>
<rect x="13" y="83.3403" width="55.7872" height="3.6383" rx="1.81915" fill="#59D939"/>
<circle cx="73.0319" cy="85.1595" r="1.81915" fill="#F41C15"/>
</g>
<defs>
<clipPath id="clip0_2643_339">
<rect width="114" height="33.9575" fill="white" transform="translate(13 53.0212)"/>
</clipPath>
</defs>
</svg>
