<svg width="140" height="140" viewBox="0 0 140 140" fill="none" xmlns="http://www.w3.org/2000/svg">
<rect width="140" height="140" rx="30" fill="#13222F"/>
<g clip-path="url(#clip0_2662_2956)">
<path d="M101.638 81.9948V59.1009C101.897 59.0853 102.12 59.0621 102.344 59.0608C107.12 59.0582 111.903 58.8952 116.671 59.1073C121.081 59.3027 124.756 61.3037 126.867 65.6409C129.476 71.0038 127.421 77.3899 122.35 80.2744C120.315 81.4321 118.159 82.0077 115.851 81.9987C111.409 81.9819 106.966 81.9935 102.525 81.9935C102.248 81.9935 101.971 81.9935 101.638 81.9935V81.9948ZM107.783 70.4049C107.783 70.4049 107.781 70.4049 107.779 70.4049C107.779 71.5846 107.779 72.7656 107.779 73.9453C107.779 73.9996 107.779 74.0552 107.781 74.1095C107.848 76.0201 108.63 76.8634 110.402 76.8854C112.046 76.9048 113.69 76.866 115.332 76.8984C116.615 76.9229 117.748 76.5168 118.788 75.7355C120.976 74.0927 122.067 71.3052 121.425 68.9588C120.723 66.3911 118.301 64.2348 115.917 64.1572C114.018 64.0951 112.116 64.1132 110.217 64.1533C108.622 64.1857 107.827 65.0679 107.787 66.7831C107.759 67.9899 107.782 69.1981 107.782 70.4062L107.783 70.4049Z" fill="white"/>
<path d="M76.4399 68.1439V72.8367H63.3395V76.8466H77.0454V81.9457H57.158V59.0996H77.0381V64.1547C76.7475 64.1547 76.4726 64.1547 76.199 64.1547C72.7589 64.1547 69.32 64.1495 65.8799 64.1611C65.4234 64.1624 64.9463 64.1818 64.5141 64.3189C63.6011 64.6061 63.1736 65.4417 63.3068 66.5102C63.4328 67.5178 63.9667 68.0533 64.9451 68.1361C65.1752 68.1555 65.4065 68.1452 65.6377 68.1452C68.9495 68.1452 72.26 68.1452 75.5717 68.1452C75.8466 68.1452 76.1215 68.1452 76.4399 68.1452V68.1439Z" fill="white"/>
<path d="M41.2508 72.8756V76.8804H54.3101V81.938H35.0996V59.1243H54.3125V64.1547C53.994 64.1547 53.7192 64.1547 53.4455 64.1547C50.2113 64.1547 46.9758 64.1496 43.7416 64.1612C43.3105 64.1625 42.8601 64.1845 42.4508 64.3151C41.5366 64.6049 41.1079 65.4224 41.2278 66.4999C41.3368 67.4817 41.9011 68.0495 42.8661 68.1349C43.0962 68.1556 43.3275 68.144 43.5588 68.144C46.6392 68.144 49.7209 68.144 52.8013 68.144C53.0774 68.144 53.3535 68.144 53.6865 68.144V72.8743H41.2508V72.8756Z" fill="white"/>
<path d="M19.1754 81.9754H13C13 81.6663 13 81.3791 13 81.0932C13 74.2893 13 67.4855 13 60.6803C13 59.3971 13.3112 59.0608 14.4845 59.0608C20.132 59.0608 25.7783 59.0608 31.4258 59.0608H32.2468V64.1559C31.9114 64.1559 31.6111 64.1559 31.3096 64.1559C27.9724 64.1559 24.6353 64.1417 21.2993 64.1663C19.7881 64.1779 19.0253 65.0627 19.1851 66.5127C19.3038 67.5889 19.9456 68.14 21.1395 68.1426C24.3483 68.1503 27.5571 68.1451 30.7647 68.1451C31.0408 68.1451 31.3168 68.1451 31.6438 68.1451V72.8781H19.1754V81.9767V81.9754Z" fill="white"/>
<path d="M79.8921 59.0996H86.2407V60.0982C86.2407 64.2698 86.2358 68.4401 86.2455 72.6117C86.2467 73.2688 86.2806 73.9285 86.3509 74.5817C86.4998 75.9735 87.1743 76.6875 88.476 76.8609C88.8562 76.9113 89.2436 76.9217 89.6287 76.923C92.427 76.9281 95.2253 76.9255 98.0237 76.9255H98.9803V81.9884H79.8921V59.0996Z" fill="white"/>
</g>
<defs>
<clipPath id="clip0_2662_2956">
<rect width="115" height="23" fill="white" transform="translate(13 59)"/>
</clipPath>
</defs>
</svg>
