<svg width="140" height="140" viewBox="0 0 140 140" fill="none" xmlns="http://www.w3.org/2000/svg">
<rect width="140" height="140" rx="30" fill="#1ABA70"/>
<g clip-path="url(#clip0_684_173)">
<path d="M27.5051 59.3705C26.8688 59.3705 26.2549 59.3364 25.6462 59.3801C25.0237 59.4246 24.3859 59.4713 23.7924 59.6484C22.9335 59.9049 22.5139 60.5757 22.4942 61.4895C22.487 61.8349 22.4768 62.1818 22.5015 62.5257C22.5081 62.6139 22.631 62.7451 22.719 62.7636C22.8928 62.8007 23.0797 62.7718 23.2615 62.7718C28.3495 62.7718 33.4367 62.7718 38.5247 62.7718C38.668 62.7718 38.812 62.7718 38.9974 62.7718C39.009 62.9838 39.0265 63.1624 39.0265 63.3418C39.028 68.6606 39.028 73.9793 39.028 79.2989C39.028 79.4345 39.0352 79.5709 39.0287 79.7058C39.0178 79.9474 39.1312 80.0282 39.3596 80.0245C40.0258 80.0156 40.6919 80.0215 41.3581 80.0223C41.5014 80.0223 41.6447 80.0223 41.8156 80.0223C41.8287 80.1623 41.8476 80.2691 41.8476 80.3751C41.8498 81.9427 41.8432 83.5096 41.8541 85.0772C41.8563 85.3633 41.7792 85.4611 41.4868 85.4611C37.38 85.4522 33.2738 85.4552 29.1669 85.4559C28.964 85.4559 28.7902 85.4715 28.7924 85.1609C28.8055 83.5073 28.8004 81.8537 28.8033 80.2001C28.8033 80.1638 28.8149 80.1282 28.8338 80.023C29.0709 80.023 29.3189 80.023 29.5669 80.023C30.124 80.023 30.6818 80.0089 31.2382 80.0282C31.5422 80.0386 31.6353 79.9244 31.6331 79.6228C31.6229 78.0433 31.6287 76.4638 31.6287 74.8836C31.6287 72.8105 31.6215 70.7366 31.6353 68.6635C31.6375 68.3107 31.5371 68.198 31.1844 68.1995C28.4266 68.2129 25.668 68.2129 22.9095 68.2018C22.575 68.2003 22.4826 68.307 22.4841 68.6428C22.495 72.2835 22.4964 75.9242 22.4819 79.5642C22.4804 79.9555 22.6106 80.0378 22.9626 80.0289C23.8804 80.0067 24.7997 80.0215 25.7509 80.0215C25.7597 80.1749 25.7728 80.2935 25.7728 80.4129C25.7742 81.9679 25.7662 83.5229 25.7793 85.0779C25.7815 85.3699 25.7008 85.4604 25.412 85.4596C21.1604 85.4515 16.9081 85.4537 12.6565 85.4559C12.4201 85.4559 12.231 85.4522 12.2332 85.115C12.2441 83.5229 12.2368 81.9308 12.239 80.3387C12.239 80.2439 12.263 80.149 12.2805 80.0223C13.0754 80.0223 13.8492 80.0067 14.6223 80.0297C14.9496 80.0393 15.0681 79.9489 15.0674 79.6005C15.0572 75.9353 15.0586 72.2701 15.0659 68.605C15.0659 68.3033 14.9801 68.1958 14.6725 68.2032C13.8863 68.2225 13.1001 68.201 12.3132 68.2114C12.0776 68.2144 11.9961 68.1365 11.9976 67.8934C12.0056 66.3139 12.0049 64.7345 11.9983 63.1543C11.9969 62.88 12.0681 62.7592 12.3699 62.7681C13.0841 62.7896 13.799 62.7718 14.5139 62.7725C15.0579 62.7725 15.0674 62.7748 15.0579 62.2018C15.0405 61.136 15.119 60.0828 15.407 59.054C16.1263 56.4947 17.847 54.9515 20.2477 54.1058C21.423 53.6915 22.6404 53.4639 23.8797 53.4424C24.9648 53.4239 26.0513 53.5003 27.1378 53.5284C27.4237 53.5358 27.5277 53.647 27.5248 53.9561C27.5102 55.6712 27.5182 57.3871 27.5168 59.1022C27.5168 59.2111 27.5073 59.3193 27.5051 59.3705Z" fill="white"/>
<path d="M74.9106 75.4803C74.9586 76.1341 75.1797 76.6914 75.4772 77.2081C76.4932 78.9721 78.0822 79.7088 80.0255 79.7437C81.9426 79.7778 83.6851 79.1366 85.352 78.2368C85.6727 78.0641 85.9804 77.867 86.2946 77.6824C86.3135 77.6713 86.3411 77.6735 86.4109 77.6624C86.6851 78.1886 86.9687 78.7282 87.248 79.27C87.8044 80.3507 88.3484 81.438 88.9207 82.509C89.0655 82.7796 89.0095 82.9115 88.7847 83.0738C87.3062 84.1404 85.6887 84.9023 83.9411 85.3774C81.1368 86.1401 78.3157 86.2587 75.5143 85.4212C71.9856 84.3665 69.4539 82.1029 68.1318 78.5963C66.699 74.7962 66.9929 71.0614 69.0016 67.5333C70.395 65.0851 72.5237 63.5264 75.1841 62.7608C77.7143 62.0329 80.2633 62.0137 82.7666 62.8838C85.5382 63.8474 87.4036 65.7922 88.4407 68.5717C89.2422 70.7197 89.3549 72.9403 89.0793 75.1957C89.0676 75.2921 88.9207 75.3929 88.8145 75.4485C88.7375 75.4885 88.6247 75.4574 88.528 75.4574C84.1549 75.4574 79.7819 75.4574 75.4088 75.4574C75.2554 75.4574 75.1019 75.4707 74.9121 75.4803H74.9106ZM78.3186 71.3571C79.2386 71.3571 80.1579 71.3571 81.0779 71.3571C81.3945 71.3571 81.5394 71.2024 81.5128 70.8931C81.5084 70.8442 81.5084 70.7945 81.5011 70.7456C81.1273 68.2322 78.9426 67.1746 76.843 68.4086C75.8808 68.9742 75.4372 69.9273 75.1244 70.9658C75.0321 71.2726 75.1121 71.3645 75.4139 71.3608C76.3819 71.3512 77.3499 71.3571 78.3186 71.3571Z" fill="white"/>
<path d="M41.0826 68.2047C41.0739 68.0306 41.063 67.9209 41.063 67.8112C41.0623 66.2688 41.0674 64.7263 41.0572 63.1839C41.055 62.8971 41.1125 62.7674 41.4332 62.7681C45.1153 62.7785 48.7975 62.7777 52.4797 62.7718C52.7451 62.7718 52.844 62.8533 52.8426 63.1306C52.8338 64.71 52.8331 66.2895 52.8426 67.869C52.844 68.1558 52.7313 68.2225 52.4731 68.2144C51.9575 68.1973 51.4411 68.2092 50.8811 68.2092C51.8688 72.0478 53.4287 75.6433 54.1691 79.5235C54.2127 79.4367 54.2891 79.353 54.2957 79.264C54.4266 77.5348 55.0615 75.9391 55.5582 74.307C56.1451 72.3784 56.7524 70.4565 57.3494 68.5309C57.3742 68.4516 57.3771 68.3656 57.4011 68.2122C56.908 68.2122 56.4425 68.2122 55.9771 68.2122C55.6295 68.2122 55.4554 68.0409 55.4549 67.6985C55.4549 66.1932 55.4629 64.6878 55.4484 63.1824C55.4455 62.8548 55.5473 62.7644 55.8644 62.7659C59.4978 62.7763 63.132 62.777 66.7661 62.7659C67.1239 62.7644 67.2461 62.8578 67.241 63.241C67.2199 64.7463 67.2221 66.2517 67.2396 67.7571C67.2432 68.1054 67.1574 68.2418 66.7981 68.2225C66.2796 68.1944 65.7559 68.244 65.2389 68.2055C64.8563 68.1766 64.681 68.3137 64.556 68.6769C64.052 70.1415 63.5218 71.5964 62.9989 73.0543C61.5625 77.0575 60.1225 81.0585 58.6942 85.0646C58.5851 85.3707 58.4309 85.4648 58.1138 85.4633C55.4731 85.4493 52.8324 85.4493 50.1924 85.4633C49.8622 85.4648 49.7066 85.3729 49.591 85.0483C47.8702 80.2194 46.1364 75.3958 44.4048 70.5714C44.1641 69.9006 43.9124 69.2343 43.6848 68.5583C43.5961 68.2944 43.4543 68.1951 43.1801 68.2018C42.4935 68.2181 41.807 68.207 41.0826 68.207V68.2047Z" fill="white"/>
<path d="M101.2 67.9876C101.266 67.826 101.335 67.6652 101.399 67.5021C102.213 65.429 103.587 63.8859 105.591 62.9616C106.577 62.5073 107.62 62.3146 108.708 62.3998C108.985 62.4213 109.109 62.5117 109.108 62.8245C109.096 65.0458 109.102 67.2679 109.1 69.4893C109.1 69.596 109.081 69.7035 109.074 69.7702C108.463 69.7702 107.886 69.7546 107.309 69.7724C104.133 69.8702 102.126 71.6291 101.604 74.8251C101.474 75.6226 101.476 76.4446 101.451 77.2562C101.426 78.0456 101.456 78.8364 101.439 79.6258C101.433 79.9349 101.54 80.0327 101.839 80.026C102.602 80.009 103.366 80.029 104.129 80.0164C104.393 80.0119 104.493 80.0979 104.491 80.3751C104.481 81.9546 104.482 83.5348 104.491 85.1143C104.492 85.3737 104.399 85.4567 104.15 85.456C99.8741 85.4508 95.5971 85.4508 91.3207 85.4552C91.0916 85.4552 90.9964 85.3826 90.9971 85.1365C91.0044 83.5319 91.0044 81.9279 90.9971 80.3232C90.9956 80.069 91.1055 80.0142 91.328 80.0164C92.0909 80.0253 92.8545 80.009 93.6174 80.0245C93.904 80.0305 94.0233 79.9601 94.0218 79.6376C94.0116 76.1941 94.0174 72.7505 94.0145 69.3069C94.0138 68.5354 93.6909 68.2144 92.9258 68.2048C92.3934 68.1981 91.8611 68.1952 91.3287 68.2048C91.1055 68.2085 90.9971 68.1455 90.9978 67.8942C91.0044 66.2896 91.0073 64.6849 90.9971 63.0809C90.9949 62.7548 91.1869 62.7689 91.4015 62.7689C93.4247 62.7689 95.448 62.7652 97.4712 62.7719C97.9301 62.7734 98.3934 62.7778 98.8472 62.8386C100.344 63.0387 101.126 63.9429 101.14 65.4809C101.145 66.1954 101.11 66.9099 101.095 67.6244C101.093 67.7334 101.095 67.8416 101.095 67.9506C101.131 67.9617 101.166 67.9735 101.201 67.9847L101.2 67.9876Z" fill="white"/>
<path d="M121.022 68.0898C121.12 67.869 121.18 67.7474 121.229 67.6214C122.16 65.217 123.771 63.5167 126.201 62.6851C126.988 62.4153 127.808 62.336 128.639 62.4056C128.846 62.4227 129.002 62.4531 129 62.7414C128.99 65.0361 128.994 67.3316 128.994 69.6263C128.994 69.6856 128.982 69.7449 128.973 69.8324C128.549 69.8079 128.144 69.7731 127.738 69.7634C126.574 69.736 125.446 69.8909 124.391 70.4357C123.037 71.1339 122.201 72.2642 121.738 73.7066C121.435 74.6523 121.33 75.6314 121.318 76.6209C121.306 77.6082 121.324 78.5955 121.311 79.582C121.306 79.9074 121.391 80.0415 121.742 80.0311C122.589 80.0052 123.436 80.023 124.324 80.023C124.334 80.1646 124.349 80.2824 124.35 80.3995C124.351 81.9545 124.343 83.5088 124.357 85.0638C124.36 85.3773 124.255 85.4611 123.96 85.4604C119.721 85.4529 115.482 85.4559 111.243 85.4537C111.07 85.4537 110.866 85.5056 110.867 85.2017C110.872 83.4999 110.87 81.7974 110.87 80.0482C111.029 80.0386 111.168 80.0237 111.306 80.023C112.058 80.0208 112.808 80.0126 113.559 80.0267C113.826 80.0319 113.918 79.9415 113.917 79.6672C113.911 76.1999 113.916 72.7326 113.911 69.2654C113.909 68.5642 113.569 68.2299 112.874 68.2166C112.306 68.2062 111.737 68.2003 111.169 68.2092C110.957 68.2121 110.866 68.1588 110.867 67.9223C110.875 66.3058 110.875 64.6893 110.869 63.0735C110.868 62.8444 110.954 62.7718 111.168 62.7725C113.506 62.7777 115.843 62.7614 118.181 62.7881C118.948 62.797 119.7 62.946 120.295 63.5256C120.781 63.9992 120.984 64.6003 120.997 65.257C121.013 66.119 120.976 66.9818 120.963 67.8445C120.963 67.8867 120.983 67.929 121.025 68.0906L121.022 68.0898Z" fill="white"/>
<path d="M38.8813 56.6362C38.8849 58.6537 37.3249 60.2354 35.3308 60.2369C33.325 60.2384 31.7832 58.6612 31.7759 56.6021C31.7701 54.6306 33.3584 53.0118 35.3097 52.9999C37.2908 52.9881 38.8784 54.6039 38.8813 56.6362Z" fill="white"/>
</g>
<defs>
<clipPath id="clip0_684_173">
<rect width="117" height="33" fill="white" transform="translate(12 53)"/>
</clipPath>
</defs>
</svg>
