<svg width="140" height="140" viewBox="0 0 140 140" fill="none" xmlns="http://www.w3.org/2000/svg">
<rect width="140" height="140" rx="30" fill="#DD1A76"/>
<g clip-path="url(#clip0_836_1032)">
<path d="M18.0002 82.9196C18.2198 82.3247 18.4037 81.7978 18.6072 81.2766C21.5836 73.6622 24.5623 66.0478 27.5399 58.4334C28.094 57.0159 28.0929 57.0114 29.6069 57.0114C35.6759 57.0114 41.7448 57.0148 47.8126 57.017C48 57.017 48.1874 57.017 48.4909 57.017C48.3426 57.4283 48.2311 57.7535 48.1069 58.0731C47.4275 59.8294 46.732 61.58 46.0744 63.3442C45.9088 63.7873 45.5904 63.7544 45.2489 63.7544C41.7069 63.7544 38.166 63.7487 34.624 63.7567C33.5778 63.7589 33.7571 63.581 33.3536 64.6439C32.9616 65.6773 32.5707 66.7106 32.1453 67.8335H42.4748C42.1368 68.7344 41.8402 69.5423 41.531 70.3445C41.1114 71.4345 40.6619 72.5144 40.2675 73.6123C40.125 74.0112 39.8996 74.1086 39.5053 74.1064C36.4611 74.095 33.4168 74.112 30.3737 74.0882C29.8782 74.0848 29.6357 74.2219 29.4529 74.6888C28.4354 77.304 27.3755 79.9033 26.3477 82.5139C26.2178 82.8425 26.0557 82.9955 25.6867 82.9944C23.2747 82.9819 20.8628 82.9864 18.4508 82.9808C18.3393 82.9808 18.2267 82.9502 17.999 82.9173L18.0002 82.9196Z" fill="white"/>
<path d="M100.864 57.0895C99.2747 61.1981 97.7078 65.2501 96.0753 69.4686C96.3236 69.3009 96.442 69.2374 96.5397 69.1525C98.4067 67.5367 100.27 65.9163 102.143 64.3074C102.273 64.1952 102.472 64.1 102.639 64.0989C105.356 64.0875 108.075 64.0909 110.793 64.0943C110.865 64.0943 110.938 64.1193 111.144 64.1567C110.325 64.7946 109.59 65.3759 108.847 65.9435C106.473 67.7531 104.101 69.5638 101.714 71.3575C101.359 71.6249 101.267 71.8764 101.38 72.3115C102.273 75.7482 103.139 79.1906 104.012 82.6318C104.031 82.702 104.041 82.7734 104.069 82.906C103.904 82.9298 103.765 82.9672 103.626 82.9672C101.272 82.9762 98.9172 82.9774 96.5627 82.9921C96.1845 82.9944 96.0304 82.8471 95.9592 82.4811C95.5947 80.582 95.205 78.6875 94.8233 76.7918C94.7934 76.6456 94.7509 76.5029 94.69 76.2672C93.868 76.9776 92.8609 77.3436 92.5056 78.4971C92.0814 79.8772 91.4802 81.2075 90.9203 82.5445C90.841 82.7349 90.5616 82.9683 90.3708 82.9717C88.1704 83.0023 85.9688 82.9921 83.7672 82.9898C83.6776 82.9898 83.5867 82.9513 83.4062 82.9094C83.6212 82.3394 83.8178 81.8012 84.0259 81.2664C86.2539 75.542 88.4819 69.8187 90.7122 64.0955C91.5675 61.9018 92.4344 59.7127 93.2828 57.5156C93.4047 57.2006 93.5507 57.0057 93.9289 57.008C96.1305 57.0204 98.332 57.0182 100.532 57.0227C100.606 57.0227 100.68 57.051 100.86 57.0884L100.864 57.0895Z" fill="white"/>
<path d="M75.1947 64.1192C74.8947 64.8671 74.6199 65.5514 74.2808 66.3956C75.6063 65.1934 76.9548 64.3515 78.5264 63.9164C80.183 63.4575 81.8523 63.4666 83.4848 64.0172C85.507 64.6994 86.5658 66.3945 86.0795 68.4465C85.6829 70.1201 85.0954 71.7597 84.4804 73.3721C83.3273 76.3974 82.0834 79.3899 80.9016 82.4062C80.7303 82.8447 80.5118 83.0034 80.0301 82.9977C78.0206 82.9739 76.011 82.9932 74.0014 82.9932C73.7991 82.9932 73.5979 82.9626 73.2978 82.9388C73.6554 82.0131 73.9773 81.1576 74.3153 80.3077C75.3867 77.6132 76.472 74.9244 77.5297 72.2242C77.6987 71.7925 77.8148 71.32 77.8435 70.8589C77.8952 70.0612 77.3906 69.5467 76.5778 69.4674C75.0729 69.3201 73.806 69.8153 73.0518 71.0968C72.3586 72.2752 71.8286 73.5568 71.3136 74.8258C70.28 77.373 69.312 79.9474 68.2889 82.5003C68.2061 82.7065 67.9049 82.9615 67.7014 82.9649C65.5389 83 63.3765 82.9898 61.214 82.9875C61.0841 82.9875 60.9542 82.9547 60.7656 82.9286C60.8197 82.7258 60.8496 82.5456 60.9151 82.379C63.2236 76.4643 65.5401 70.5529 67.8382 64.6348C68.0015 64.2155 68.2141 64.0705 68.6728 64.0773C70.6249 64.1045 72.577 64.0886 74.5291 64.0909C74.7165 64.0909 74.9039 64.1068 75.1936 64.1192H75.1947Z" fill="white"/>
<path d="M57.9384 57.0759C57.436 58.3778 56.9681 59.605 56.491 60.8287C54.1848 66.7423 51.8775 72.6548 49.5702 78.5684C49.0494 79.9021 48.5412 81.2414 47.9975 82.566C47.925 82.7439 47.6687 82.9671 47.4974 82.9683C45.2211 82.9807 42.9436 82.9581 40.6674 82.9411C40.634 82.9411 40.6007 82.9127 40.4995 82.8663C40.88 81.8771 41.2606 80.8834 41.6469 79.8908C43.461 75.2224 45.274 70.5529 47.0927 65.8857C48.1722 63.1142 49.269 60.3494 50.3381 57.5733C50.4968 57.1609 50.6991 56.9943 51.1659 57.0011C53.1559 57.0283 55.1459 57.0124 57.1371 57.0181C57.3774 57.0181 57.6176 57.0532 57.9407 57.0782L57.9384 57.0759Z" fill="white"/>
<path d="M65.3283 64.1555C64.9523 65.1322 64.5936 66.0761 64.2269 67.0177C62.2104 72.1959 60.1951 77.373 58.1672 82.5468C58.1039 82.7077 57.9119 82.9354 57.7774 82.9365C55.4299 82.9603 53.0811 82.9535 50.6221 82.9535C50.8554 82.3337 51.0578 81.7785 51.2728 81.2278C53.441 75.6666 55.6127 70.1065 57.7774 64.5441C57.8786 64.2835 57.9591 64.0807 58.3155 64.083C60.5354 64.0966 62.7542 64.0898 64.9742 64.0932C65.065 64.0932 65.1547 64.1238 65.3271 64.1555H65.3283Z" fill="white"/>
<path d="M113.669 62.0468C114.195 60.7007 114.682 59.418 115.194 58.1456C115.651 57.0091 115.663 57.0113 116.942 57.0091C118.701 57.0068 120.462 57.0079 122.22 57.0125C122.441 57.0125 122.661 57.0453 123 57.0714C122.729 57.7773 122.492 58.4016 122.249 59.0248C121.901 59.92 121.565 60.8197 121.186 61.7012C121.11 61.8768 120.859 62.0955 120.687 62.0967C118.45 62.1205 116.212 62.1091 113.975 62.1046C113.902 62.1046 113.828 62.0774 113.671 62.0457L113.669 62.0468Z" fill="white"/>
</g>
<defs>
<clipPath id="clip0_836_1032">
<rect width="105" height="26" fill="white" transform="translate(18 57)"/>
</clipPath>
</defs>
</svg>
