<svg width="140" height="140" viewBox="0 0 140 140" fill="none" xmlns="http://www.w3.org/2000/svg">
<rect width="140" height="140" rx="30" fill="#0D053A"/>
<g clip-path="url(#clip0_2764_36)">
<path d="M17 109.964V93.7141H33.0148V96.9569H20.2612V100.061H26.778V103.304H20.2612V109.964H17Z" fill="url(#paint0_linear_2764_36)"/>
<path d="M34.5733 109.964V93.7141H37.7624L42.6403 98.5893L47.5294 93.7002H50.8682V109.964H47.4683V98.6503L42.693 103.426L37.9094 98.6448V109.964H34.5733Z" fill="url(#paint1_linear_2764_36)"/>
<path d="M66.3949 104.498C66.3949 105.552 65.5408 106.408 64.4842 106.408H58.8825C57.8287 106.408 56.9718 105.554 56.9718 104.498V98.8997C56.9718 97.8465 57.826 96.9901 58.8825 96.9901H64.4842C65.538 96.9901 66.3949 97.8438 66.3949 98.8997V99.3543H69.7171C69.7033 96.2584 68.5607 94.1963 65.4964 93.8942C62.8786 93.6919 60.4105 93.6115 58.3667 93.8942C55.8127 94.1797 54.1599 95.6459 53.6469 98.6115C53.4555 100.809 53.4056 102.902 53.5803 104.828C53.6829 105.967 54.049 107.076 54.7145 108.004C55.6241 109.268 56.7777 109.859 58.1698 109.795C60.5048 110.089 63.0145 110.055 65.649 109.795C68.167 109.027 69.3649 106.993 69.7227 104.152H66.4643" fill="url(#paint2_linear_2764_36)"/>
<path d="M88.5689 99.2157C88.5605 99.1353 88.555 99.0577 88.5439 98.9773C88.4829 98.4535 88.3637 97.8992 88.1779 97.3172C87.4873 95.1553 85.4463 93.7141 83.1779 93.7141H72.6899V109.936H76.0066V104.992H82.9061C86.1923 104.992 88.8434 102.489 88.5689 99.2185V99.2157ZM83.3582 101.452H76.2368V97.2146H83.0282C83.3498 97.2146 83.6715 97.2562 83.9766 97.3587C86.4086 98.1847 85.6959 101.452 83.3582 101.452Z" fill="url(#paint3_linear_2764_36)"/>
<path d="M99.6891 93.7363H96.2255L89.8972 109.936H93.297L94.5006 107.253H101.422L102.593 109.936H106.053L99.6919 93.7363H99.6891ZM96.0092 103.828L97.9226 98.5089L99.9415 103.828H96.0092Z" fill="url(#paint4_linear_2764_36)"/>
<path d="M106.988 93.7141H111.026L115.008 98.9219L115.36 98.8415L119.148 93.7141H123L116.772 102.09L116.625 109.933L113.352 109.97L113.366 101.893L106.988 93.7141Z" fill="url(#paint5_linear_2764_36)"/>
<mask id="mask0_2764_36" style="mask-type:luminance" maskUnits="userSpaceOnUse" x="55" y="41" width="31" height="30">
<path d="M70.3663 70.8262C78.5096 70.8262 85.111 64.2284 85.111 56.0896C85.111 47.9508 78.5096 41.353 70.3663 41.353C62.223 41.353 55.6216 47.9508 55.6216 56.0896C55.6216 64.2284 62.223 70.8262 70.3663 70.8262Z" fill="white"/>
</mask>
<g mask="url(#mask0_2764_36)">
<path d="M56.4896 41.353H55.6216V70.8262H56.4896V41.353Z" fill="#FAD02E"/>
<path d="M57.3576 41.353H56.4896V70.8262H57.3576V41.353Z" fill="#FAD12D"/>
<path d="M58.2228 41.353H57.3548V70.8262H58.2228V41.353Z" fill="#FAD22D"/>
<path d="M59.0908 41.353H58.2228V70.8262H59.0908V41.353Z" fill="#FAD32C"/>
<path d="M59.9588 41.353H59.0908V70.8262H59.9588V41.353Z" fill="#FAD42C"/>
<path d="M60.8268 41.353H59.9588V70.8262H60.8268V41.353Z" fill="#FAD52B"/>
<path d="M61.692 41.353H60.824V70.8262H61.692V41.353Z" fill="#FAD62B"/>
<path d="M62.56 41.353H61.692V70.8262H62.56V41.353Z" fill="#FAD72A"/>
<path d="M63.428 41.353H62.56V70.8262H63.428V41.353Z" fill="#FAD829"/>
<path d="M64.2959 41.353H63.4279V70.8262H64.2959V41.353Z" fill="#FAD929"/>
<path d="M65.1612 41.353H64.2932V70.8262H65.1612V41.353Z" fill="#FADA28"/>
<path d="M66.0291 41.353H65.1612V70.8262H66.0291V41.353Z" fill="#FADB28"/>
<path d="M66.8971 41.353H66.0291V70.8262H66.8971V41.353Z" fill="#FADC27"/>
<path d="M67.7651 41.353H66.8971V70.8262H67.7651V41.353Z" fill="#FADD27"/>
<path d="M68.6303 41.353H67.7623V70.8262H68.6303V41.353Z" fill="#FADE26"/>
<path d="M69.4983 41.353H68.6303V70.8262H69.4983V41.353Z" fill="#FADF25"/>
<path d="M70.3663 41.353H69.4983V70.8262H70.3663V41.353Z" fill="#FAE025"/>
<path d="M71.2343 41.353H70.3663V70.8262H71.2343V41.353Z" fill="#FAE224"/>
<path d="M72.0995 41.353H71.2315V70.8262H72.0995V41.353Z" fill="#FAE324"/>
<path d="M72.9675 41.353H72.0995V70.8262H72.9675V41.353Z" fill="#FAE423"/>
<path d="M73.8355 41.353H72.9675V70.8262H73.8355V41.353Z" fill="#FAE522"/>
<path d="M74.7035 41.353H73.8355V70.8262H74.7035V41.353Z" fill="#FAE622"/>
<path d="M75.5687 41.353H74.7007V70.8262H75.5687V41.353Z" fill="#FAE721"/>
<path d="M76.4367 41.353H75.5687V70.8262H76.4367V41.353Z" fill="#FAE821"/>
<path d="M77.3047 41.353H76.4367V70.8262H77.3047V41.353Z" fill="#FAE920"/>
<path d="M78.1727 41.353H77.3047V70.8262H78.1727V41.353Z" fill="#FAEA20"/>
<path d="M79.0407 41.353H78.1727V70.8262H79.0407V41.353Z" fill="#FAEB1F"/>
<path d="M79.9059 41.353H79.0379V70.8262H79.9059V41.353Z" fill="#FAEC1E"/>
<path d="M80.7739 41.353H79.9059V70.8262H80.7739V41.353Z" fill="#FAED1E"/>
<path d="M81.6419 41.353H80.7739V70.8262H81.6419V41.353Z" fill="#FAEE1D"/>
<path d="M82.5098 41.353H81.6418V70.8262H82.5098V41.353Z" fill="#FAEF1D"/>
<path d="M83.3751 41.353H82.5071V70.8262H83.3751V41.353Z" fill="#FAF01C"/>
<path d="M84.243 41.353H83.375V70.8262H84.243V41.353Z" fill="#FAF11C"/>
<path d="M85.111 41.353H84.243V70.8262H85.111V41.353Z" fill="#FAF21B"/>
</g>
<mask id="mask1_2764_36" style="mask-type:luminance" maskUnits="userSpaceOnUse" x="60" y="45" width="21" height="22">
<path d="M70.3275 66.2725C75.9544 66.2725 80.516 61.7134 80.516 56.0896C80.516 50.4658 75.9544 45.9068 70.3275 45.9068C64.7006 45.9068 60.139 50.4658 60.139 56.0896C60.139 61.7134 64.7006 66.2725 70.3275 66.2725Z" fill="white"/>
</mask>
<g mask="url(#mask1_2764_36)">
<path d="M60.1418 61.5608L68.3336 66.2725H60.1418V61.5608Z" fill="#FAD02E"/>
<path d="M60.1418 60.9205L69.4456 66.2725H68.3336L60.1418 61.5608V60.9205Z" fill="#FAD02E"/>
<path d="M60.1418 60.2803L70.5604 66.2725H69.4456L60.1418 60.9205V60.2803Z" fill="#FAD12D"/>
<path d="M60.1418 59.64L71.6725 66.2725H70.5604L60.1418 60.2803V59.64Z" fill="#FAD22D"/>
<path d="M60.1418 58.9998L72.7873 66.2725H71.6725L60.1418 59.64V58.9998Z" fill="#FAD32C"/>
<path d="M60.1418 58.3596L73.8993 66.2725H72.7873L60.1418 58.9998V58.3596Z" fill="#FAD42C"/>
<path d="M60.1418 57.7193L75.0141 66.2725H73.8993L60.1418 58.3596V57.7193Z" fill="#FAD52B"/>
<path d="M60.1418 57.0791L76.1289 66.2725H75.0141L60.1418 57.7193V57.0791Z" fill="#FAD62B"/>
<path d="M60.1418 56.4388L77.2409 66.2725H76.1289L60.1418 57.0791V56.4388Z" fill="#FAD72A"/>
<path d="M60.1418 55.7986L78.3557 66.2725H77.2409L60.1418 56.4388V55.7986Z" fill="#FAD829"/>
<path d="M60.1418 55.1584L78.7661 65.8678L78.5332 66.2725H78.3557L60.1418 55.7986V55.1584Z" fill="#FAD929"/>
<path d="M60.1418 54.5181L79.0407 65.3856L78.7661 65.8678L60.1418 55.1584V54.5181Z" fill="#FADA28"/>
<path d="M60.1418 53.8779L79.318 64.9033L79.0407 65.3856L60.1418 54.5181V53.8779Z" fill="#FADB28"/>
<path d="M60.1418 53.2376L79.5953 64.4238L79.318 64.9033L60.1418 53.8779V53.2376Z" fill="#FADC27"/>
<path d="M60.1418 52.5974L79.8726 63.9416L79.5953 64.4238L60.1418 53.2376V52.5974Z" fill="#FADD27"/>
<path d="M60.1418 51.9572L80.1499 63.4621L79.8726 63.9416L60.1418 52.5974V51.9572Z" fill="#FADE26"/>
<path d="M60.1418 51.3169L80.4272 62.9798L80.1499 63.4621L60.1418 51.9572V51.3169Z" fill="#FADF25"/>
<path d="M60.1418 50.6767L80.516 62.3922V62.8246L80.4272 62.9798L60.1418 51.3169V50.6767Z" fill="#FAE025"/>
<path d="M60.1418 50.0364L80.516 61.752V62.3922L60.1418 50.6767V50.0364Z" fill="#FAE224"/>
<path d="M60.1418 49.3962L80.516 61.1118V61.752L60.1418 50.0365V49.3962Z" fill="#FAE324"/>
<path d="M60.1418 49.3546L60.3997 48.9056L80.516 60.4715V61.1117L60.1418 49.3962V49.3546Z" fill="#FAE423"/>
<path d="M60.3997 48.9056L60.677 48.4234L80.516 59.8313V60.4715L60.3997 48.9056Z" fill="#FAE522"/>
<path d="M60.677 48.4234L60.9543 47.9439L80.516 59.191V59.8313L60.677 48.4234Z" fill="#FAE622"/>
<path d="M60.9543 47.9439L61.2316 47.4616L80.516 58.5508V59.191L60.9543 47.9439Z" fill="#FAE721"/>
<path d="M61.2316 47.4616L61.509 46.9794L80.516 57.9106V58.5508L61.2316 47.4616Z" fill="#FAE821"/>
<path d="M61.509 46.9794L61.7863 46.4999L80.516 57.2703V57.9106L61.509 46.9794Z" fill="#FAE920"/>
<path d="M61.7863 46.4999L62.0608 46.0176L80.516 56.6301V57.2703L61.7863 46.4999Z" fill="#FAEA20"/>
<path d="M62.0608 46.0176L62.1246 45.9095H62.9843L80.516 55.9898V56.6301L62.0608 46.0176Z" fill="#FAEB1F"/>
<path d="M64.0963 45.9095L80.516 55.3496V55.9898L62.9843 45.9095H64.0963Z" fill="#FAEC1E"/>
<path d="M65.2111 45.9095L80.516 54.7094V55.3496L64.0963 45.9095H65.2111Z" fill="#FAED1E"/>
<path d="M66.3259 45.9095L80.516 54.0664V54.7094L65.2111 45.9095H66.3259Z" fill="#FAEE1D"/>
<path d="M67.4379 45.9095L80.516 53.4261V54.0664L66.3259 45.9095H67.4379Z" fill="#FAEF1D"/>
<path d="M68.5527 45.9095L80.516 52.7859V53.4261L67.4379 45.9095H68.5527Z" fill="#FAF01C"/>
<path d="M69.6647 45.9095L80.516 52.1456V52.7859L68.5527 45.9095H69.6647Z" fill="#FAF11C"/>
<path d="M70.7795 45.9095L80.516 51.5054V52.1456L69.6647 45.9095H70.7795Z" fill="#FAF21B"/>
<path d="M80.516 51.5054L70.7795 45.9095H80.516V51.5054Z" fill="#FAF21B"/>
</g>
<mask id="mask2_2764_36" style="mask-type:luminance" maskUnits="userSpaceOnUse" x="60" y="45" width="21" height="22">
<path d="M70.3275 66.2725C64.7091 66.2725 60.1418 61.7049 60.1418 56.0924C60.1418 50.4799 64.7119 45.9123 70.3275 45.9123C75.9431 45.9123 80.516 50.4799 80.516 56.0924C80.516 61.7049 75.9458 66.2725 70.3275 66.2725ZM70.3275 46.4694C65.0197 46.4694 60.702 50.7848 60.702 56.0896C60.702 61.3944 65.0197 65.7098 70.3275 65.7098C75.6353 65.7098 79.953 61.3944 79.953 56.0896C79.953 50.7848 75.6353 46.4694 70.3275 46.4694Z" fill="white"/>
</mask>
<g mask="url(#mask2_2764_36)">
<path d="M79.953 48.3541L78.4611 46.4694H79.953V48.3541Z" fill="#FAD02E"/>
<path d="M79.953 49.5625L77.5016 46.4694H78.4611L79.953 48.3541V49.5625Z" fill="#FAD02E"/>
<path d="M79.953 50.7737L76.5393 46.4694H77.5016L79.953 49.5625V50.7737Z" fill="#FAD12D"/>
<path d="M79.953 51.9849L75.5798 46.4694H76.5393L79.953 50.7737V51.9849Z" fill="#FAD22D"/>
<path d="M79.953 53.196L74.6203 46.4694H75.5798L79.953 51.9849V53.196Z" fill="#FAD32C"/>
<path d="M79.953 54.4045L73.6608 46.4694H74.6203L79.953 53.196V54.4045Z" fill="#FAD42C"/>
<path d="M79.953 55.6157L72.7013 46.4694H73.6608L79.953 54.4045V55.6157Z" fill="#FAD52B"/>
<path d="M79.953 56.8268L71.7418 46.4694H72.7013L79.953 55.6157V56.8268Z" fill="#FAD62B"/>
<path d="M79.953 58.0353L70.7823 46.4694H71.7418L79.953 56.8268V58.0353Z" fill="#FAD72A"/>
<path d="M79.953 59.2464L69.82 46.4694H70.7823L79.953 58.0353V59.2464Z" fill="#FAD829"/>
<path d="M79.953 60.4576L68.8605 46.4694H69.82L79.953 59.2464V60.4576Z" fill="#FAD929"/>
<path d="M79.953 61.6661L67.901 46.4694H68.8605L79.953 60.4576V61.6661Z" fill="#FADA28"/>
<path d="M79.953 62.8772L66.9415 46.4694H67.901L79.953 61.6661V62.8772Z" fill="#FADB28"/>
<path d="M79.953 62.9964L79.4234 63.4177L65.982 46.4694H66.9415L79.953 62.8772V62.9964Z" fill="#FADC27"/>
<path d="M79.4234 63.4177L78.8327 63.8833L65.0225 46.4694H65.982L79.4234 63.4177Z" fill="#FADD27"/>
<path d="M78.8327 63.8833L78.2448 64.3517L64.088 46.5026L64.1296 46.4694H65.0225L78.8327 63.8833Z" fill="#FADE26"/>
<path d="M64.0855 46.5054L63.4966 46.9719L77.6522 64.8221L78.2412 64.3556L64.0855 46.5054Z" fill="#FADF25"/>
<path d="M63.4999 46.9714L62.9109 47.4379L77.0666 65.2881L77.6556 64.8215L63.4999 46.9714Z" fill="#FAE025"/>
<path d="M77.0634 65.2858L76.5282 65.7098H76.4422L62.3187 47.9023L62.9094 47.4367L77.0634 65.2858Z" fill="#FAE224"/>
<path d="M75.4827 65.7098L61.728 48.3707L62.3187 47.9023L76.4422 65.7098H75.4827Z" fill="#FAE324"/>
<path d="M74.5205 65.7098L61.1401 48.8363L61.728 48.3707L75.4827 65.7098H74.5205Z" fill="#FAE423"/>
<path d="M73.561 65.7098L60.702 49.496V49.1828L61.1401 48.8363L74.5205 65.7098H73.561Z" fill="#FAE522"/>
<path d="M72.6015 65.7098L60.702 50.7072V49.496L73.561 65.7098H72.6015Z" fill="#FAE622"/>
<path d="M71.642 65.7098L60.702 51.9183V50.7072L72.6015 65.7098H71.642Z" fill="#FAE721"/>
<path d="M70.6824 65.7098L60.702 53.1295V51.9184L71.6419 65.7098H70.6824Z" fill="#FAE821"/>
<path d="M69.7229 65.7098L60.702 54.3379V53.1295L70.6824 65.7098H69.7229Z" fill="#FAE920"/>
<path d="M68.7607 65.7098L60.702 55.5491V54.338L69.7229 65.7098H68.7607Z" fill="#FAEA20"/>
<path d="M67.8012 65.7098L60.702 56.7603V55.5491L68.7607 65.7098H67.8012Z" fill="#FAEB1F"/>
<path d="M66.8417 65.7098L60.702 57.9687V56.7603L67.8012 65.7098H66.8417Z" fill="#FAEC1E"/>
<path d="M65.8822 65.7098L60.702 59.1799V57.9688L66.8417 65.7098H65.8822Z" fill="#FAED1E"/>
<path d="M64.9227 65.7098L60.702 60.3911V59.1799L65.8822 65.7098H64.9227Z" fill="#FAEE1D"/>
<path d="M63.9632 65.7098L60.702 61.5995V60.3911L64.9227 65.7098H63.9632Z" fill="#FAEF1D"/>
<path d="M63.0037 65.7098L60.702 62.8107V61.5995L63.9632 65.7098H63.0037Z" fill="#FAF01C"/>
<path d="M62.0414 65.7098L60.702 64.0219V62.8107L63.0037 65.7098H62.0414Z" fill="#FAF11C"/>
<path d="M61.0819 65.7098L60.702 65.2331V64.0219L62.0414 65.7098H61.0819Z" fill="#FAF21B"/>
<path d="M60.702 65.2331L61.0819 65.7098H60.702V65.2331Z" fill="#FAF21B"/>
<path d="M80.516 49.0608L78.0146 45.9095H80.516V49.0608Z" fill="#FAD02E"/>
<path d="M80.516 50.272L77.0551 45.9095H78.0146L80.516 49.0608V50.272Z" fill="#FAD02E"/>
<path d="M80.516 51.4832L76.0956 45.9095H77.0551L80.516 50.272V51.4832Z" fill="#FAD12D"/>
<path d="M80.516 52.6916L75.1361 45.9095H76.0956L80.516 51.4832V52.6916Z" fill="#FAD22D"/>
<path d="M80.516 53.9028L74.1766 45.9095H75.1361L80.516 52.6916V53.9028Z" fill="#FAD32C"/>
<path d="M80.516 55.114L73.2171 45.9095H74.1766L80.516 53.9028V55.114Z" fill="#FAD42C"/>
<path d="M80.516 56.3224L72.2548 45.9095H73.2171L80.516 55.114V56.3224Z" fill="#FAD52B"/>
<path d="M80.516 57.5336L71.2953 45.9095H72.2548L80.516 56.3224V57.5336Z" fill="#FAD62B"/>
<path d="M80.516 58.7448L70.3358 45.9095H71.2953L80.516 57.5336V58.7448Z" fill="#FAD72A"/>
<path d="M80.516 59.9532L69.3763 45.9095H70.3358L80.516 58.7448V59.9532Z" fill="#FAD829"/>
<path d="M80.516 61.1644L68.4168 45.9095H69.3763L80.516 59.9532V61.1644Z" fill="#FAD929"/>
<path d="M80.516 62.3756L67.4573 45.9095H68.4168L80.516 61.1644V62.3756Z" fill="#FADA28"/>
<path d="M80.516 63.3567L80.405 63.4454L66.495 45.9095H67.4573L80.516 62.3756V63.3567Z" fill="#FADB28"/>
<path d="M80.405 63.4454L79.8144 63.9138L65.5355 45.9095H66.495L80.405 63.4454Z" fill="#FADC27"/>
<path d="M79.8144 63.9138L79.2265 64.3795L64.576 45.9095H65.5355L79.8144 63.9138Z" fill="#FADD27"/>
<path d="M79.2265 64.3795L78.6358 64.8479L63.6942 46.0065L63.819 45.9095H64.576L79.2265 64.3795Z" fill="#FADE26"/>
<path d="M63.6928 46.0101L63.1038 46.4767L78.045 65.3173L78.6339 64.8508L63.6928 46.0101Z" fill="#FADF25"/>
<path d="M63.1072 46.4761L62.5182 46.9427L77.4594 65.7833L78.0483 65.3168L63.1072 46.4761Z" fill="#FAE025"/>
<path d="M62.5149 46.9444L61.9259 47.411L76.8671 66.2516L77.4561 65.7851L62.5149 46.9444Z" fill="#FAE224"/>
<path d="M76.8693 66.2475L76.8388 66.2725H75.9264L61.337 47.8746L61.9249 47.409L76.8693 66.2475Z" fill="#FAE324"/>
<path d="M74.9669 66.2725L60.7463 48.343L61.337 47.8746L75.9264 66.2725H74.9669Z" fill="#FAE423"/>
<path d="M74.0074 66.2725L60.1584 48.8086L60.7463 48.343L74.9669 66.2725H74.0074Z" fill="#FAE522"/>
<path d="M73.0479 66.2725L60.1418 50.0004V48.8225L60.1584 48.8086L74.0074 66.2725H73.0479Z" fill="#FAE622"/>
<path d="M72.0857 66.2725L60.1418 51.2088V50.0004L73.0479 66.2725H72.0857Z" fill="#FAE721"/>
<path d="M71.1262 66.2725L60.1418 52.42V51.2088L72.0857 66.2725H71.1262Z" fill="#FAE821"/>
<path d="M70.1667 66.2725L60.1418 53.6312V52.42L71.1262 66.2725H70.1667Z" fill="#FAE920"/>
<path d="M69.2072 66.2725L60.1418 54.8396V53.6312L70.1667 66.2725H69.2072Z" fill="#FAEA20"/>
<path d="M68.2476 66.2725L60.1418 56.0508V54.8396L69.2072 66.2725H68.2476Z" fill="#FAEB1F"/>
<path d="M67.2881 66.2725L60.1418 57.262V56.0508L68.2476 66.2725H67.2881Z" fill="#FAEC1E"/>
<path d="M66.3286 66.2725L60.1418 58.4732V57.262L67.2881 66.2725H66.3286Z" fill="#FAED1E"/>
<path d="M65.3664 66.2725L60.1418 59.6816V58.4732L66.3286 66.2725H65.3664Z" fill="#FAEE1D"/>
<path d="M64.4069 66.2725L60.1418 60.8928V59.6816L65.3664 66.2725H64.4069Z" fill="#FAEF1D"/>
<path d="M63.4474 66.2725L60.1418 62.104V60.8928L64.4069 66.2725H63.4474Z" fill="#FAF01C"/>
<path d="M62.4879 66.2725L60.1418 63.3124V62.104L63.4474 66.2725H62.4879Z" fill="#FAF11C"/>
<path d="M61.5284 66.2725L60.1418 64.5236V63.3124L62.4879 66.2725H61.5284Z" fill="#FAF21B"/>
<path d="M60.1418 64.5236L61.5284 66.2725H60.1418V64.5236Z" fill="#FAF21B"/>
</g>
<path d="M68.145 83.0905C66.6559 82.9686 65.1723 82.7247 63.7302 82.3616L64.0685 81.0174C65.4357 81.3611 66.8472 81.5939 68.2587 81.7075L68.1478 83.0878L68.145 83.0905ZM72.6181 83.0878L72.5044 81.7075C73.9159 81.5911 75.3247 81.3583 76.6918 81.0118L77.0329 82.3561C75.5909 82.7191 74.1045 82.9686 72.6181 83.0905V83.0878ZM59.4929 80.9121C58.1285 80.3134 56.8057 79.5983 55.555 78.7807L56.3149 77.6194C57.499 78.3927 58.758 79.0745 60.0503 79.6399L59.4929 80.9093V80.9121ZM81.2675 80.901L80.7101 79.6316C82.0024 79.0634 83.2558 78.3844 84.4399 77.6083L85.1998 78.7668C83.9519 79.5845 82.6291 80.3023 81.2675 80.901ZM52.0221 76.034C50.9239 75.0252 49.9034 73.9193 48.9883 72.7469L50.0809 71.8933C50.9517 73.0075 51.9195 74.0551 52.9594 75.0141L52.0221 76.034ZM88.7272 76.0174L87.7871 74.9975C88.827 74.0413 89.7948 72.9908 90.6656 71.8739L91.7582 72.7247C90.8431 73.8999 89.8226 75.0058 88.7272 76.0146V76.0174ZM46.5341 69.008C45.8214 67.6998 45.2168 66.3224 44.7315 64.9172L46.0432 64.4654C46.5036 65.7985 47.0776 67.1067 47.7542 68.3456L46.5368 69.008H46.5341ZM94.2097 68.9831L92.9895 68.3235C93.6634 67.079 94.2374 65.7708 94.6977 64.4377L96.0094 64.8867C95.5269 66.2946 94.9196 67.6721 94.2097 68.9859V68.9831ZM43.6306 60.5796C43.3866 59.1162 43.2618 57.6168 43.259 56.1229H44.6456C44.6456 57.5392 44.7648 58.9638 44.9978 60.3523L43.6306 60.5796ZM97.1048 60.5463L95.7377 60.3191C95.9678 58.9305 96.0843 57.5059 96.0843 56.0896V56.0259H97.4709V56.0896C97.4709 57.5835 97.3488 59.0829 97.1048 60.5463ZM44.9894 51.8906L43.6223 51.6661C43.8635 50.1944 44.2296 48.7366 44.7121 47.3286L46.0238 47.7776C45.5662 49.1135 45.2196 50.4965 44.9894 51.8934V51.8906ZM95.7266 51.7992C95.4936 50.4051 95.1387 49.022 94.6783 47.6889L95.9872 47.2371C96.4753 48.6451 96.8469 50.103 97.0937 51.5719L95.7266 51.8019V51.7992ZM47.7265 43.8835L46.5063 43.2238C47.2135 41.9156 48.0371 40.6546 48.9522 39.4766L50.0476 40.3275C49.1796 41.4445 48.3976 42.6418 47.7265 43.8835ZM92.9645 43.8087C92.2879 42.5697 91.5031 41.3752 90.6323 40.2638L91.7249 39.4101C92.6429 40.5853 93.472 41.8408 94.1819 43.1462L92.9645 43.8087ZM52.9206 37.2039L51.9805 36.1868C53.0759 35.1779 54.26 34.2494 55.5051 33.4318L56.2677 34.5903C55.0864 35.3664 53.9605 36.245 52.9206 37.2039ZM87.7483 37.1457C86.7056 36.1895 85.5769 35.3137 84.3928 34.5432L85.1499 33.3819C86.3978 34.194 87.5874 35.1169 88.6856 36.1258L87.7483 37.1457ZM59.9948 32.5615L59.4347 31.2949C60.799 30.6934 62.2216 30.2029 63.6664 29.8342L64.0075 31.1785C62.6376 31.5277 61.2871 31.9933 59.9948 32.5615ZM80.6546 32.5255C79.3568 31.9601 78.0035 31.4972 76.6336 31.1535L76.9691 29.8093C78.4139 30.1724 79.8393 30.6574 81.2092 31.2533L80.6546 32.5227V32.5255ZM68.195 30.4745L68.0785 29.0942C69.5538 28.9723 71.0735 28.9667 72.5515 29.0859L72.4406 30.4662C71.0346 30.3525 69.5926 30.3553 68.1922 30.4745H68.195Z" fill="url(#paint6_linear_2764_36)"/>
<mask id="mask3_2764_36" style="mask-type:luminance" maskUnits="userSpaceOnUse" x="82" y="29" width="13" height="13">
<path d="M88.3611 41.353C91.6754 41.353 94.3622 38.6677 94.3622 35.3553C94.3622 32.0428 91.6754 29.3575 88.3611 29.3575C85.0469 29.3575 82.3601 32.0428 82.3601 35.3553C82.3601 38.6677 85.0469 41.353 88.3611 41.353Z" fill="white"/>
</mask>
<g mask="url(#mask3_2764_36)">
<path d="M82.7095 29.3548H82.3573V41.353H82.7095V29.3548Z" fill="#FAD02E"/>
<path d="M83.0645 29.3548H82.7123V41.353H83.0645V29.3548Z" fill="#FAD12D"/>
<path d="M83.4167 29.3548H83.0645V41.353H83.4167V29.3548Z" fill="#FAD22D"/>
<path d="M83.7688 29.3548H83.4167V41.353H83.7688V29.3548Z" fill="#FAD32C"/>
<path d="M84.1238 29.3548H83.7716V41.353H84.1238V29.3548Z" fill="#FAD42C"/>
<path d="M84.476 29.3548H84.1238V41.353H84.476V29.3548Z" fill="#FAD52B"/>
<path d="M84.8282 29.3548H84.476V41.353H84.8282V29.3548Z" fill="#FAD62B"/>
<path d="M85.1831 29.3548H84.8309V41.353H85.1831V29.3548Z" fill="#FAD72A"/>
<path d="M85.5353 29.3548H85.1831V41.353H85.5353V29.3548Z" fill="#FAD829"/>
<path d="M85.8875 29.3548H85.5353V41.353H85.8875V29.3548Z" fill="#FAD929"/>
<path d="M86.2425 29.3548H85.8903V41.353H86.2425V29.3548Z" fill="#FADA28"/>
<path d="M86.5947 29.3548H86.2425V41.353H86.5947V29.3548Z" fill="#FADB28"/>
<path d="M86.9468 29.3548H86.5947V41.353H86.9468V29.3548Z" fill="#FADC27"/>
<path d="M87.299 29.3548H86.9468V41.353H87.299V29.3548Z" fill="#FADD27"/>
<path d="M87.654 29.3548H87.3018V41.353H87.654V29.3548Z" fill="#FADE26"/>
<path d="M88.0062 29.3548H87.654V41.353H88.0062V29.3548Z" fill="#FADF25"/>
<path d="M88.3584 29.3548H88.0062V41.353H88.3584V29.3548Z" fill="#FAE025"/>
<path d="M88.7133 29.3548H88.3611V41.353H88.7133V29.3548Z" fill="#FAE224"/>
<path d="M89.0655 29.3548H88.7133V41.353H89.0655V29.3548Z" fill="#FAE324"/>
<path d="M89.4177 29.3548H89.0655V41.353H89.4177V29.3548Z" fill="#FAE423"/>
<path d="M89.7727 29.3548H89.4205V41.353H89.7727V29.3548Z" fill="#FAE522"/>
<path d="M90.1248 29.3548H89.7727V41.353H90.1248V29.3548Z" fill="#FAE622"/>
<path d="M90.477 29.3548H90.1248V41.353H90.477V29.3548Z" fill="#FAE721"/>
<path d="M90.832 29.3548H90.4798V41.353H90.832V29.3548Z" fill="#FAE821"/>
<path d="M91.1842 29.3548H90.832V41.353H91.1842V29.3548Z" fill="#FAE920"/>
<path d="M91.5364 29.3548H91.1842V41.353H91.5364V29.3548Z" fill="#FAEA20"/>
<path d="M91.8913 29.3548H91.5391V41.353H91.8913V29.3548Z" fill="#FAEB1F"/>
<path d="M92.2435 29.3548H91.8913V41.353H92.2435V29.3548Z" fill="#FAEC1E"/>
<path d="M92.5957 29.3548H92.2435V41.353H92.5957V29.3548Z" fill="#FAED1E"/>
<path d="M92.9507 29.3548H92.5985V41.353H92.9507V29.3548Z" fill="#FAEE1D"/>
<path d="M93.3028 29.3548H92.9507V41.353H93.3028V29.3548Z" fill="#FAEF1D"/>
<path d="M93.655 29.3548H93.3028V41.353H93.655V29.3548Z" fill="#FAF01C"/>
<path d="M94.0072 29.3548H93.655V41.353H94.0072V29.3548Z" fill="#FAF11C"/>
<path d="M94.3622 29.3548H94.01V41.353H94.3622V29.3548Z" fill="#FAF21B"/>
</g>
<mask id="mask4_2764_36" style="mask-type:luminance" maskUnits="userSpaceOnUse" x="84" y="31" width="9" height="9">
<path d="M88.3445 39.4988C90.6342 39.4988 92.4903 37.6437 92.4903 35.3553C92.4903 33.0669 90.6342 31.2117 88.3445 31.2117C86.0548 31.2117 84.1987 33.0669 84.1987 35.3553C84.1987 37.6437 86.0548 39.4988 88.3445 39.4988Z" fill="white"/>
</mask>
<g mask="url(#mask4_2764_36)">
<path d="M84.1987 37.5836L87.532 39.4988H84.1987V37.5836Z" fill="#FAD02E"/>
<path d="M84.1987 37.3231L87.9868 39.4988H87.532L84.1987 37.5836V37.3231Z" fill="#FAD02E"/>
<path d="M84.1987 37.0598L88.4388 39.4988H87.9868L84.1987 37.3231V37.0598Z" fill="#FAD12D"/>
<path d="M84.1987 36.7993L88.8936 39.4988H88.4388L84.1987 37.0598V36.7993Z" fill="#FAD22D"/>
<path d="M84.1987 36.5387L89.3456 39.4988H88.8936L84.1987 36.7993V36.5387Z" fill="#FAD32C"/>
<path d="M84.1987 36.2782L89.8004 39.4988H89.3456L84.1987 36.5387V36.2782Z" fill="#FAD42C"/>
<path d="M84.1987 36.0177L90.2524 39.4988H89.8004L84.1987 36.2782V36.0177Z" fill="#FAD52B"/>
<path d="M84.1987 35.7571L90.7072 39.4988H90.2524L84.1987 36.0177V35.7571Z" fill="#FAD62B"/>
<path d="M84.1987 35.4966L91.1592 39.4988H90.7072L84.1987 35.7571V35.4966Z" fill="#FAD72A"/>
<path d="M84.1987 35.2361L91.614 39.4988H91.1592L84.1987 35.4966V35.2361Z" fill="#FAD829"/>
<path d="M84.1987 34.9756L92.0633 39.4988H91.614L84.1987 35.2361V34.9756Z" fill="#FAD929"/>
<path d="M84.1987 34.715L92.177 39.302L92.0633 39.4988L84.1987 34.9756V34.715Z" fill="#FADA28"/>
<path d="M84.1987 34.4545L92.2907 39.108L92.177 39.302L84.1987 34.715V34.4545Z" fill="#FADB28"/>
<path d="M84.1987 34.194L92.4016 38.9112L92.2907 39.108L84.1987 34.4545V34.194Z" fill="#FADC27"/>
<path d="M84.1987 33.9334L92.4931 38.7034V38.756L92.4016 38.9112L84.1987 34.194V33.9334Z" fill="#FADD27"/>
<path d="M84.1987 33.6729L92.4931 38.4401V38.7034L84.1987 33.9334V33.6729Z" fill="#FADE26"/>
<path d="M84.1987 33.4124L92.4931 38.1795V38.4401L84.1987 33.6729V33.4124Z" fill="#FADF25"/>
<path d="M84.1987 33.1518L92.4931 37.919V38.1795L84.1987 33.4124V33.1518Z" fill="#FAE025"/>
<path d="M84.1987 32.8913L92.4931 37.6585V37.919L84.1987 33.1518V32.8913Z" fill="#FAE224"/>
<path d="M84.1987 32.6308L92.4931 37.3979V37.6585L84.1987 32.8913V32.6308Z" fill="#FAE324"/>
<path d="M84.1987 32.3703L92.4931 37.1374V37.3979L84.1987 32.6308V32.3703Z" fill="#FAE423"/>
<path d="M84.1987 32.1097L92.4931 36.8769V37.1374L84.1987 32.3703V32.1097Z" fill="#FAE522"/>
<path d="M84.1987 31.9545L84.243 31.8741L92.4931 36.6163V36.8769L84.1987 32.1097V31.9545Z" fill="#FAE622"/>
<path d="M84.243 31.8741L84.3567 31.6774L92.4931 36.3558V36.6163L84.243 31.8741Z" fill="#FAE721"/>
<path d="M84.3567 31.6773L84.4704 31.4833L92.4931 36.0953V36.3558L84.3567 31.6773Z" fill="#FAE821"/>
<path d="M84.4704 31.4833L84.5814 31.2866L92.4931 35.8348V36.0953L84.4704 31.4833Z" fill="#FAE920"/>
<path d="M84.5814 31.2866L84.6257 31.209H84.903L92.4931 35.5742V35.8348L84.5814 31.2866Z" fill="#FAEA20"/>
<path d="M85.3551 31.209L92.4931 35.3137V35.5742L84.903 31.209H85.3551Z" fill="#FAEB1F"/>
<path d="M85.8098 31.209L92.4931 35.0532V35.3137L85.3551 31.209H85.8098Z" fill="#FAEC1E"/>
<path d="M86.2619 31.209L92.4931 34.7926V35.0532L85.8099 31.209H86.2619Z" fill="#FAED1E"/>
<path d="M86.7167 31.209L92.4931 34.5321V34.7926L86.2619 31.209H86.7167Z" fill="#FAEE1D"/>
<path d="M87.1687 31.209L92.4931 34.2716V34.5321L86.7167 31.209H87.1687Z" fill="#FAEF1D"/>
<path d="M87.6235 31.209L92.4931 34.011V34.2716L87.1687 31.209H87.6235Z" fill="#FAF01C"/>
<path d="M88.0755 31.209L92.4931 33.7505V34.011L87.6235 31.209H88.0755Z" fill="#FAF11C"/>
<path d="M88.5275 31.209L92.4931 33.49V33.7505L88.0755 31.209H88.5275Z" fill="#FAF21B"/>
<path d="M92.4931 33.49L88.5275 31.209H92.4931V33.49Z" fill="#FAF21B"/>
</g>
<mask id="mask5_2764_36" style="mask-type:luminance" maskUnits="userSpaceOnUse" x="84" y="31" width="9" height="9">
<path d="M88.3445 39.4988C86.0567 39.4988 84.1987 37.6391 84.1987 35.3553C84.1987 33.0715 86.0594 31.2117 88.3445 31.2117C90.6295 31.2117 92.4903 33.0715 92.4903 35.3553C92.4903 37.6391 90.6295 39.4988 88.3445 39.4988ZM88.3445 31.439C86.1842 31.439 84.4261 33.1962 84.4261 35.3553C84.4261 37.5143 86.1842 39.2715 88.3445 39.2715C90.5048 39.2715 92.2629 37.5143 92.2629 35.3553C92.2629 33.1962 90.5048 31.439 88.3445 31.439Z" fill="white"/>
</mask>
<g mask="url(#mask5_2764_36)">
<path d="M92.2629 32.2067L91.6556 31.439H92.2629V32.2067Z" fill="#FAD02E"/>
<path d="M92.2629 32.6973L91.2646 31.439H91.6556L92.2629 32.2067V32.6973Z" fill="#FAD02E"/>
<path d="M92.2629 33.1906L90.8736 31.439H91.2646L92.2629 32.6973V33.1906Z" fill="#FAD12D"/>
<path d="M92.2629 33.684L90.4826 31.439H90.8736L92.2629 33.1906V33.684Z" fill="#FAD22D"/>
<path d="M92.2629 34.1773L90.0916 31.439H90.4826L92.2629 33.684V34.1773Z" fill="#FAD32C"/>
<path d="M92.2629 34.6679L89.7005 31.439H90.0916L92.2629 34.1773V34.6679Z" fill="#FAD42C"/>
<path d="M92.2629 35.1613L89.3123 31.439H89.7006L92.2629 34.6679V35.1613Z" fill="#FAD52B"/>
<path d="M92.2629 35.6546L88.9213 31.439H89.3123L92.2629 35.1613V35.6546Z" fill="#FAD62B"/>
<path d="M92.2629 36.1479L88.5303 31.439H88.9213L92.2629 35.6546V36.1479Z" fill="#FAD72A"/>
<path d="M92.2629 36.6385L88.1393 31.439H88.5303L92.2629 36.1479V36.6385Z" fill="#FAD829"/>
<path d="M92.2629 37.1319L87.7483 31.439H88.1393L92.2629 36.6385V37.1319Z" fill="#FAD929"/>
<path d="M92.2629 37.6252L87.3573 31.439H87.7483L92.2629 37.1319V37.6252Z" fill="#FADA28"/>
<path d="M92.2629 38.1186L86.9662 31.439H87.3573L92.2629 37.6252V38.1186Z" fill="#FADB28"/>
<path d="M92.2629 38.587L92.2518 38.5953L86.5752 31.439H86.9662L92.2629 38.1186V38.587Z" fill="#FADC27"/>
<path d="M92.2518 38.5953L92.0106 38.7865L86.1842 31.439H86.5752L92.2518 38.5953Z" fill="#FADD27"/>
<path d="M92.0106 38.7865L91.7721 38.975L85.7932 31.439H86.1842L92.0106 38.7865Z" fill="#FADE26"/>
<path d="M91.7721 38.975L91.5308 39.1662L85.4022 31.439H85.7932L91.7721 38.975Z" fill="#FADF25"/>
<path d="M91.5308 39.1662L91.3977 39.2715H91.2258L85.1194 31.5748L85.2913 31.439H85.4022L91.5308 39.1662Z" fill="#FAE025"/>
<path d="M90.8348 39.2715L84.8809 31.766L85.1193 31.5748L91.2258 39.2715H90.8348Z" fill="#FAE224"/>
<path d="M90.4438 39.2715L84.6396 31.9545L84.8809 31.7661L90.8348 39.2715H90.4438Z" fill="#FAE324"/>
<path d="M90.0527 39.2715L84.4261 32.179V32.1236L84.6396 31.9545L90.4438 39.2715H90.0527Z" fill="#FAE423"/>
<path d="M89.6617 39.2715L84.4261 32.6724V32.179L90.0527 39.2715H89.6617Z" fill="#FAE522"/>
<path d="M89.2707 39.2715L84.4261 33.1629V32.6724L89.6617 39.2715H89.2707Z" fill="#FAE622"/>
<path d="M88.8797 39.2715L84.4261 33.6563V33.1629L89.2707 39.2715H88.8797Z" fill="#FAE721"/>
<path d="M88.4887 39.2715L84.4261 34.1496V33.6563L88.8797 39.2715H88.4887Z" fill="#FAE821"/>
<path d="M88.0977 39.2715L84.4261 34.643V34.1496L88.4887 39.2715H88.0977Z" fill="#FAE920"/>
<path d="M87.7067 39.2715L84.4261 35.1335V34.643L88.0977 39.2715H87.7067Z" fill="#FAEA20"/>
<path d="M87.3157 39.2715L84.4261 35.6269V35.1335L87.7067 39.2715H87.3157Z" fill="#FAEB1F"/>
<path d="M86.9274 39.2715L84.4261 36.1202V35.6269L87.3157 39.2715H86.9274Z" fill="#FAEC1E"/>
<path d="M86.5364 39.2715L84.4261 36.6136V36.1202L86.9274 39.2715H86.5364Z" fill="#FAED1E"/>
<path d="M86.1454 39.2715L84.4261 37.1041V36.6136L86.5364 39.2715H86.1454Z" fill="#FAEE1D"/>
<path d="M85.7544 39.2715L84.4261 37.5975V37.1041L86.1454 39.2715H85.7544Z" fill="#FAEF1D"/>
<path d="M85.3634 39.2715L84.4261 38.0908V37.5975L85.7544 39.2715H85.3634Z" fill="#FAF01C"/>
<path d="M84.9724 39.2715L84.4261 38.5842V38.0908L85.3634 39.2715H84.9724Z" fill="#FAF11C"/>
<path d="M84.5814 39.2715L84.4261 39.0775V38.5842L84.9724 39.2715H84.5814Z" fill="#FAF21B"/>
<path d="M84.4261 39.0775L84.5814 39.2715H84.4261V39.0775Z" fill="#FAF21B"/>
<path d="M92.4931 32.495L91.4754 31.209H92.4931V32.495Z" fill="#FAD02E"/>
<path d="M92.4931 32.9855L91.0843 31.209H91.4753L92.4931 32.495V32.9855Z" fill="#FAD02E"/>
<path d="M92.4931 33.4789L90.6933 31.209H91.0843L92.4931 32.9855V33.4789Z" fill="#FAD12D"/>
<path d="M92.4931 33.9722L90.3023 31.209H90.6933L92.4931 33.4789V33.9722Z" fill="#FAD22D"/>
<path d="M92.4931 34.4656L89.9113 31.209H90.3023L92.4931 33.9722V34.4656Z" fill="#FAD32C"/>
<path d="M92.4931 34.9562L89.5203 31.209H89.9113L92.4931 34.4656V34.9562Z" fill="#FAD42C"/>
<path d="M92.4931 35.4495L89.1293 31.209H89.5203L92.4931 34.9562V35.4495Z" fill="#FAD52B"/>
<path d="M92.4931 35.9428L88.7383 31.209H89.1293L92.4931 35.4495V35.9428Z" fill="#FAD62B"/>
<path d="M92.4931 36.4362L88.3473 31.209H88.7383L92.4931 35.9428V36.4362Z" fill="#FAD72A"/>
<path d="M92.4931 36.9268L87.9563 31.209H88.3473L92.4931 36.4362V36.9268Z" fill="#FAD829"/>
<path d="M92.4931 37.4201L87.568 31.209H87.9563L92.4931 36.9268V37.4201Z" fill="#FAD929"/>
<path d="M92.4931 37.9135L87.177 31.209H87.568L92.4931 37.4201V37.9135Z" fill="#FADA28"/>
<path d="M92.4931 38.4068L86.786 31.209H87.177L92.4931 37.9135V38.4068Z" fill="#FADB28"/>
<path d="M92.4931 38.7338L92.4127 38.7976L86.395 31.209H86.786L92.4931 38.4068V38.7338Z" fill="#FADC27"/>
<path d="M92.4127 38.7976L92.1714 38.9861L86.004 31.209H86.395L92.4127 38.7976Z" fill="#FADD27"/>
<path d="M92.1714 38.9861L91.9329 39.1773L85.613 31.209H86.004L92.1714 38.9861Z" fill="#FADE26"/>
<path d="M91.9329 39.1773L91.6917 39.3685L85.222 31.209H85.613L91.9329 39.1773Z" fill="#FADF25"/>
<path d="M91.6916 39.3685L91.5253 39.4988H91.406L84.9613 31.3725L85.1665 31.209H85.2219L91.6916 39.3685Z" fill="#FAE025"/>
<path d="M91.015 39.4988L84.72 31.5637L84.9613 31.3725L91.406 39.4988H91.015Z" fill="#FAE224"/>
<path d="M90.624 39.4988L84.4815 31.7522L84.72 31.5637L91.015 39.4988H90.624Z" fill="#FAE324"/>
<path d="M90.233 39.4988L84.2403 31.9434L84.4815 31.7522L90.624 39.4988H90.233Z" fill="#FAE423"/>
<path d="M89.842 39.4988L84.1987 32.3841V31.9767L84.2403 31.9434L90.233 39.4988H89.842Z" fill="#FAE522"/>
<path d="M89.451 39.4988L84.1987 32.8747V32.3841L89.842 39.4988H89.451Z" fill="#FAE622"/>
<path d="M89.06 39.4988L84.1987 33.368V32.8747L89.451 39.4988H89.06Z" fill="#FAE721"/>
<path d="M88.6717 39.4988L84.1987 33.8614V33.368L89.06 39.4988H88.6717Z" fill="#FAE821"/>
<path d="M88.2807 39.4988L84.1987 34.3547V33.8614L88.6717 39.4988H88.2807Z" fill="#FAE920"/>
<path d="M87.8897 39.4988L84.1987 34.8453V34.3547L88.2807 39.4988H87.8897Z" fill="#FAEA20"/>
<path d="M87.4987 39.4988L84.1987 35.3386V34.8453L87.8897 39.4988H87.4987Z" fill="#FAEB1F"/>
<path d="M87.1077 39.4988L84.1987 35.832V35.3386L87.4987 39.4988H87.1077Z" fill="#FAEC1E"/>
<path d="M86.7167 39.4988L84.1987 36.3253V35.832L87.1077 39.4988H86.7167Z" fill="#FAED1E"/>
<path d="M86.3257 39.4988L84.1987 36.8159V36.3253L86.7167 39.4988H86.3257Z" fill="#FAEE1D"/>
<path d="M85.9346 39.4988L84.1987 37.3092V36.8159L86.3257 39.4988H85.9346Z" fill="#FAEF1D"/>
<path d="M85.5436 39.4988L84.1987 37.8026V37.3092L85.9346 39.4988H85.5436Z" fill="#FAF01C"/>
<path d="M85.1526 39.4988L84.1987 38.2959V37.8026L85.5436 39.4988H85.1526Z" fill="#FAF11C"/>
<path d="M84.7616 39.4988L84.1987 38.7893V38.2959L85.1526 39.4988H84.7616Z" fill="#FAF21B"/>
<path d="M84.1987 38.7893L84.7616 39.4988H84.1987V38.7893Z" fill="#FAF21B"/>
</g>
<mask id="mask6_2764_36" style="mask-type:luminance" maskUnits="userSpaceOnUse" x="79" y="74" width="9" height="9">
<path d="M83.3501 82.5861C85.5142 82.5861 87.2685 80.8327 87.2685 78.6698C87.2685 76.5069 85.5142 74.7536 83.3501 74.7536C81.186 74.7536 79.4317 76.5069 79.4317 78.6698C79.4317 80.8327 81.186 82.5861 83.3501 82.5861Z" fill="white"/>
</mask>
<g mask="url(#mask6_2764_36)">
<path d="M79.6618 74.7536H79.4317V82.5861H79.6618V74.7536Z" fill="#FAD02E"/>
<path d="M79.8948 74.7536H79.6646V82.5861H79.8948V74.7536Z" fill="#FAD12D"/>
<path d="M80.1249 74.7536H79.8948V82.5861H80.1249V74.7536Z" fill="#FAD22D"/>
<path d="M80.3551 74.7536H80.125V82.5861H80.3551V74.7536Z" fill="#FAD32C"/>
<path d="M80.5853 74.7536H80.3551V82.5861H80.5853V74.7536Z" fill="#FAD42C"/>
<path d="M80.8155 74.7536H80.5853V82.5861H80.8155V74.7536Z" fill="#FAD52B"/>
<path d="M81.0456 74.7536H80.8155V82.5861H81.0456V74.7536Z" fill="#FAD62B"/>
<path d="M81.2758 74.7536H81.0456V82.5861H81.2758V74.7536Z" fill="#FAD72A"/>
<path d="M81.506 74.7536H81.2758V82.5861H81.506V74.7536Z" fill="#FAD829"/>
<path d="M81.7361 74.7536H81.506V82.5861H81.7361V74.7536Z" fill="#FAD929"/>
<path d="M81.9691 74.7536H81.7389V82.5861H81.9691V74.7536Z" fill="#FADA28"/>
<path d="M82.1993 74.7536H81.9691V82.5861H82.1993V74.7536Z" fill="#FADB28"/>
<path d="M82.4294 74.7536H82.1992V82.5861H82.4294V74.7536Z" fill="#FADC27"/>
<path d="M82.6596 74.7536H82.4294V82.5861H82.6596V74.7536Z" fill="#FADD27"/>
<path d="M82.8898 74.7536H82.6596V82.5861H82.8898V74.7536Z" fill="#FADE26"/>
<path d="M83.1199 74.7536H82.8898V82.5861H83.1199V74.7536Z" fill="#FADF25"/>
<path d="M83.3501 74.7536H83.1199V82.5861H83.3501V74.7536Z" fill="#FAE025"/>
<path d="M83.5803 74.7536H83.3501V82.5861H83.5803V74.7536Z" fill="#FAE224"/>
<path d="M83.8104 74.7536H83.5803V82.5861H83.8104V74.7536Z" fill="#FAE324"/>
<path d="M84.0434 74.7536H83.8132V82.5861H84.0434V74.7536Z" fill="#FAE423"/>
<path d="M84.2736 74.7536H84.0434V82.5861H84.2736V74.7536Z" fill="#FAE522"/>
<path d="M84.5037 74.7536H84.2735V82.5861H84.5037V74.7536Z" fill="#FAE622"/>
<path d="M84.7339 74.7536H84.5037V82.5861H84.7339V74.7536Z" fill="#FAE721"/>
<path d="M84.9641 74.7536H84.7339V82.5861H84.9641V74.7536Z" fill="#FAE821"/>
<path d="M85.1942 74.7536H84.9641V82.5861H85.1942V74.7536Z" fill="#FAE920"/>
<path d="M85.4244 74.7536H85.1942V82.5861H85.4244V74.7536Z" fill="#FAEA20"/>
<path d="M85.6546 74.7536H85.4244V82.5861H85.6546V74.7536Z" fill="#FAEB1F"/>
<path d="M85.8847 74.7536H85.6546V82.5861H85.8847V74.7536Z" fill="#FAEC1E"/>
<path d="M86.1177 74.7536H85.8875V82.5861H86.1177V74.7536Z" fill="#FAED1E"/>
<path d="M86.3478 74.7536H86.1177V82.5861H86.3478V74.7536Z" fill="#FAEE1D"/>
<path d="M86.578 74.7536H86.3479V82.5861H86.578V74.7536Z" fill="#FAEF1D"/>
<path d="M86.8082 74.7536H86.578V82.5861H86.8082V74.7536Z" fill="#FAF01C"/>
<path d="M87.0384 74.7536H86.8082V82.5861H87.0384V74.7536Z" fill="#FAF11C"/>
<path d="M87.2685 74.7536H87.0384V82.5861H87.2685V74.7536Z" fill="#FAF21B"/>
</g>
<mask id="mask7_2764_36" style="mask-type:luminance" maskUnits="userSpaceOnUse" x="80" y="75" width="7" height="7">
<path d="M83.3418 81.3749C84.8366 81.3749 86.0484 80.1638 86.0484 78.6698C86.0484 77.1759 84.8366 75.9648 83.3418 75.9648C81.847 75.9648 80.6352 77.1759 80.6352 78.6698C80.6352 80.1638 81.847 81.3749 83.3418 81.3749Z" fill="white"/>
</mask>
<g mask="url(#mask7_2764_36)">
<path d="M80.6352 80.1249L82.8121 81.3749H80.6352V80.1249Z" fill="#FAD02E"/>
<path d="M80.6352 79.9531L83.1061 81.3749H82.8121L80.6352 80.1249V79.9531Z" fill="#FAD02E"/>
<path d="M80.6352 79.784L83.4028 81.3749H83.1061L80.6352 79.9531V79.784Z" fill="#FAD12D"/>
<path d="M80.6352 79.6122L83.6995 81.3749H83.4028L80.6352 79.784V79.6122Z" fill="#FAD22D"/>
<path d="M80.6352 79.4431L83.9935 81.3749H83.6995L80.6352 79.6122V79.4431Z" fill="#FAD32C"/>
<path d="M80.6352 79.274L84.2902 81.3749H83.9935L80.6352 79.4431V79.274Z" fill="#FAD42C"/>
<path d="M80.6352 79.1022L84.5869 81.3749H84.2902L80.6352 79.274V79.1022Z" fill="#FAD52B"/>
<path d="M80.6352 78.9331L84.8836 81.3749H84.5869L80.6352 79.1022V78.9331Z" fill="#FAD62B"/>
<path d="M80.6352 78.7613L85.1776 81.3749H84.8836L80.6352 78.9331V78.7613Z" fill="#FAD72A"/>
<path d="M80.6352 78.5922L85.4743 81.3749H85.1776L80.6352 78.7613V78.5922Z" fill="#FAD829"/>
<path d="M80.6352 78.4232L85.771 81.3749H85.4743L80.6352 78.5922V78.4232Z" fill="#FAD929"/>
<path d="M80.6352 78.2513L86.0095 81.3417L85.9901 81.3749H85.771L80.6352 78.4232V78.2513Z" fill="#FADA28"/>
<path d="M80.6352 78.0823L86.0484 81.1948V81.2751L86.0095 81.3417L80.6352 78.2513V78.0823Z" fill="#FADB28"/>
<path d="M80.6352 77.9104L86.0484 81.0257V81.1948L80.6352 78.0823V77.9104Z" fill="#FADC27"/>
<path d="M80.6352 77.7413L86.0484 80.8539V81.0257L80.6352 77.9104V77.7413Z" fill="#FADD27"/>
<path d="M80.6352 77.5723L86.0484 80.6848V80.8539L80.6352 77.7413V77.5723Z" fill="#FADE26"/>
<path d="M80.6352 77.4004L86.0484 80.5157V80.6848L80.6352 77.5723V77.4004Z" fill="#FADF25"/>
<path d="M80.6352 77.2314L86.0484 80.3439V80.5157L80.6352 77.4004V77.2314Z" fill="#FAE025"/>
<path d="M80.6352 77.0623L86.0484 80.1748V80.3439L80.6352 77.2314V77.0623Z" fill="#FAE224"/>
<path d="M80.6352 76.8905L86.0484 80.003V80.1748L80.6352 77.0623V76.8905Z" fill="#FAE324"/>
<path d="M80.6352 76.7214L86.0484 79.8339V80.003L80.6352 76.8905V76.7214Z" fill="#FAE423"/>
<path d="M80.6352 76.5496L86.0484 79.6648V79.8339L80.6352 76.7214V76.5496Z" fill="#FAE522"/>
<path d="M80.6352 76.3805L86.0484 79.493V79.6648L80.6352 76.5496V76.3805Z" fill="#FAE622"/>
<path d="M80.6352 76.2114L86.0484 79.3239V79.493L80.6352 76.3805V76.2114Z" fill="#FAE721"/>
<path d="M80.6352 76.0645L80.6435 76.0451L86.0484 79.1521V79.3239L80.6352 76.2114V76.0645Z" fill="#FAE821"/>
<path d="M80.6435 76.0451L80.6907 75.9648H80.7988L86.0483 78.983V79.1521L80.6435 76.0451Z" fill="#FAE920"/>
<path d="M81.0928 75.9648L86.0484 78.814V78.983L80.7988 75.9648H81.0928Z" fill="#FAEA20"/>
<path d="M81.3895 75.9648L86.0483 78.6421V78.814L81.0928 75.9648H81.3895Z" fill="#FAEB1F"/>
<path d="M81.6862 75.9648L86.0483 78.4731V78.6421L81.3895 75.9648H81.6862Z" fill="#FAEC1E"/>
<path d="M81.9802 75.9648L86.0483 78.3012V78.4731L81.6862 75.9648H81.9802Z" fill="#FAED1E"/>
<path d="M82.2769 75.9648L86.0484 78.1321V78.3012L81.9802 75.9648H82.2769Z" fill="#FAEE1D"/>
<path d="M82.5736 75.9648L86.0484 77.9631V78.1321L82.2769 75.9648H82.5736Z" fill="#FAEF1D"/>
<path d="M82.8704 75.9648L86.0484 77.7912V77.9631L82.5736 75.9648H82.8704Z" fill="#FAF01C"/>
<path d="M83.1643 75.9648L86.0483 77.6222V77.7912L82.8703 75.9648H83.1643Z" fill="#FAF11C"/>
<path d="M83.461 75.9648L86.0484 77.4503V77.6222L83.1643 75.9648H83.461Z" fill="#FAF21B"/>
<path d="M86.0484 77.4503L83.461 75.9648H86.0484V77.4503Z" fill="#FAF21B"/>
</g>
<mask id="mask8_2764_36" style="mask-type:luminance" maskUnits="userSpaceOnUse" x="80" y="75" width="7" height="7">
<path d="M83.3418 81.3749C81.8498 81.3749 80.6352 80.161 80.6352 78.6698C80.6352 77.1787 81.8498 75.9648 83.3418 75.9648C84.8337 75.9648 86.0484 77.1787 86.0484 78.6698C86.0484 80.161 84.8337 81.3749 83.3418 81.3749ZM83.3418 76.1144C81.9303 76.1144 80.785 77.2619 80.785 78.6698C80.785 80.0778 81.933 81.2252 83.3418 81.2252C84.7505 81.2252 85.8986 80.0778 85.8986 78.6698C85.8986 77.2619 84.7505 76.1144 83.3418 76.1144Z" fill="white"/>
</mask>
<g mask="url(#mask8_2764_36)">
<path d="M85.8986 76.6133L85.502 76.1144H85.8986V76.6133Z" fill="#FAD02E"/>
<path d="M85.8986 76.9348L85.2469 76.1144H85.502L85.8986 76.6133V76.9348Z" fill="#FAD02E"/>
<path d="M85.8986 77.2563L84.9918 76.1144H85.2469L85.8986 76.9348V77.2563Z" fill="#FAD12D"/>
<path d="M85.8986 77.5778L84.7367 76.1144H84.9918L85.8986 77.2563V77.5778Z" fill="#FAD22D"/>
<path d="M85.8986 77.8993L84.4815 76.1144H84.7367L85.8986 77.5778V77.8993Z" fill="#FAD32C"/>
<path d="M85.8986 78.2208L84.2264 76.1144H84.4815L85.8986 77.8993V78.2208Z" fill="#FAD42C"/>
<path d="M85.8986 78.5423L83.9713 76.1144H84.2264L85.8986 78.2208V78.5423Z" fill="#FAD52B"/>
<path d="M85.8986 78.8639L83.7162 76.1144H83.9713L85.8986 78.5423V78.8639Z" fill="#FAD62B"/>
<path d="M85.8986 79.1881L83.461 76.1144H83.7162L85.8986 78.8639V79.1881Z" fill="#FAD72A"/>
<path d="M85.8986 79.5096L83.2059 76.1144H83.461L85.8986 79.1881V79.5096Z" fill="#FAD829"/>
<path d="M85.8986 79.8311L82.9508 76.1144H83.2059L85.8986 79.5096V79.8311Z" fill="#FAD929"/>
<path d="M85.8986 80.1526L82.6956 76.1144H82.9508L85.8986 79.8311V80.1526Z" fill="#FADA28"/>
<path d="M85.8986 80.4742L82.4405 76.1144H82.6956L85.8986 80.1526V80.4742Z" fill="#FADB28"/>
<path d="M85.8986 80.7957L82.1854 76.1144H82.4405L85.8986 80.4742V80.7957Z" fill="#FADC27"/>
<path d="M85.8986 81.0257L85.8542 81.059L81.9303 76.1144H82.1854L85.8986 80.7957V81.0257Z" fill="#FADD27"/>
<path d="M85.8542 81.059L85.6989 81.1837L81.6751 76.1144H81.9303L85.8542 81.059Z" fill="#FADE26"/>
<path d="M85.6989 81.1837L85.6435 81.2253H85.4771L81.42 76.1144H81.6751L85.6989 81.1837Z" fill="#FADF25"/>
<path d="M85.222 81.2253L81.1649 76.1144H81.42L85.4771 81.2253H85.222Z" fill="#FAE025"/>
<path d="M84.9668 81.2253L80.9597 76.1754L81.0373 76.1144H81.1649L85.222 81.2253H84.9668Z" fill="#FAE224"/>
<path d="M84.7117 81.2253L80.8044 76.3001L80.9597 76.1754L84.9668 81.2253H84.7117Z" fill="#FAE324"/>
<path d="M84.4566 81.2253L80.7822 76.5967V76.314L80.8044 76.3001L84.7117 81.2253H84.4566Z" fill="#FAE423"/>
<path d="M84.2014 81.2253L80.7822 76.9182V76.5967L84.4566 81.2253H84.2014Z" fill="#FAE522"/>
<path d="M83.9463 81.2252L80.7822 77.2397V76.9182L84.2014 81.2252H83.9463Z" fill="#FAE622"/>
<path d="M83.6912 81.2252L80.7822 77.5612V77.2397L83.9463 81.2252H83.6912Z" fill="#FAE721"/>
<path d="M83.4361 81.2253L80.7822 77.8827V77.5612L83.6912 81.2253H83.4361Z" fill="#FAE821"/>
<path d="M83.1809 81.2253L80.7822 78.2042V77.8827L83.4361 81.2253H83.1809Z" fill="#FAE920"/>
<path d="M82.9258 81.2253L80.7822 78.5257V78.2042L83.1809 81.2253H82.9258Z" fill="#FAEA20"/>
<path d="M82.6707 81.2252L80.7822 78.8472V78.5257L82.9258 81.2252H82.6707Z" fill="#FAEB1F"/>
<path d="M82.4156 81.2252L80.7822 79.1687V78.8472L82.6707 81.2252H82.4156Z" fill="#FAEC1E"/>
<path d="M82.1604 81.2252L80.7822 79.4902V79.1687L82.4156 81.2252H82.1604Z" fill="#FAED1E"/>
<path d="M81.9053 81.2253L80.7822 79.8117V79.4902L82.1604 81.2253H81.9053Z" fill="#FAEE1D"/>
<path d="M81.6502 81.2253L80.7822 80.1332V79.8117L81.9053 81.2253H81.6502Z" fill="#FAEF1D"/>
<path d="M81.395 81.2252L80.7822 80.4547V80.1332L81.6502 81.2252H81.395Z" fill="#FAF01C"/>
<path d="M81.1399 81.2252L80.7822 80.7762V80.4547L81.395 81.2252H81.1399Z" fill="#FAF11C"/>
<path d="M80.8848 81.2252L80.7822 81.0978V80.7762L81.1399 81.2252H80.8848Z" fill="#FAF21B"/>
<path d="M80.7822 81.0978L80.8848 81.2253H80.7822V81.0978Z" fill="#FAF21B"/>
<path d="M86.0483 76.8018L85.3828 75.9648H86.0483V76.8018Z" fill="#FAD02E"/>
<path d="M86.0483 77.1233L85.1277 75.9648H85.3828L86.0483 76.8018V77.1233Z" fill="#FAD02E"/>
<path d="M86.0483 77.4448L84.8725 75.9648H85.1277L86.0483 77.1233V77.4448Z" fill="#FAD12D"/>
<path d="M86.0484 77.7663L84.6174 75.9648H84.8725L86.0484 77.4448V77.7663Z" fill="#FAD22D"/>
<path d="M86.0484 78.0878L84.3623 75.9648H84.6174L86.0484 77.7663V78.0878Z" fill="#FAD32C"/>
<path d="M86.0484 78.4093L84.1072 75.9648H84.3623L86.0484 78.0878V78.4093Z" fill="#FAD42C"/>
<path d="M86.0484 78.7308L83.852 75.9648H84.1072L86.0484 78.4093V78.7308Z" fill="#FAD52B"/>
<path d="M86.0484 79.0523L83.5997 75.9648H83.852L86.0484 78.7308V79.0523Z" fill="#FAD62B"/>
<path d="M86.0484 79.3738L83.3446 75.9648H83.5997L86.0484 79.0523V79.3738Z" fill="#FAD72A"/>
<path d="M86.0484 79.6953L83.0894 75.9648H83.3446L86.0484 79.3738V79.6953Z" fill="#FAD829"/>
<path d="M86.0484 80.0196L82.8343 75.9648H83.0894L86.0484 79.6953V80.0196Z" fill="#FAD929"/>
<path d="M86.0484 80.3411L82.5792 75.9648H82.8343L86.0484 80.0196V80.3411Z" fill="#FADA28"/>
<path d="M86.0484 80.6626L82.3241 75.9648H82.5792L86.0484 80.3411V80.6626Z" fill="#FADB28"/>
<path d="M86.0484 80.9841L82.0689 75.9648H82.3241L86.0484 80.6626V80.9841Z" fill="#FADC27"/>
<path d="M86.0483 81.1199L85.9596 81.192L81.8138 75.9648H82.0689L86.0483 80.9841V81.1199Z" fill="#FADD27"/>
<path d="M85.9596 81.192L85.8015 81.3167L81.5587 75.9648H81.8138L85.9596 81.192Z" fill="#FADE26"/>
<path d="M85.8015 81.3167L85.7267 81.3749H85.5936L81.3035 75.9648H81.5587L85.8015 81.3167Z" fill="#FADF25"/>
<path d="M85.3384 81.3749L81.0484 75.9648H81.3035L85.5936 81.3749H85.3384Z" fill="#FAE025"/>
<path d="M85.0833 81.3749L80.8543 76.0424L80.9569 75.9648H81.0484L85.3384 81.3749H85.0833Z" fill="#FAE224"/>
<path d="M84.8282 81.3749L80.699 76.1671L80.8543 76.0424L85.0833 81.3749H84.8282Z" fill="#FAE324"/>
<path d="M84.5731 81.3749L80.6352 76.4082V76.2197L80.699 76.1671L84.8282 81.3749H84.5731Z" fill="#FAE423"/>
<path d="M84.3179 81.3749L80.6352 76.7297V76.4082L84.5731 81.3749H84.3179Z" fill="#FAE522"/>
<path d="M84.0628 81.3749L80.6352 77.0512V76.7297L84.3179 81.3749H84.0628Z" fill="#FAE622"/>
<path d="M83.8077 81.3749L80.6352 77.3727V77.0512L84.0628 81.3749H83.8077Z" fill="#FAE721"/>
<path d="M83.5525 81.3749L80.6352 77.6942V77.3727L83.8077 81.3749H83.5525Z" fill="#FAE821"/>
<path d="M83.2974 81.3749L80.6352 78.0157V77.6942L83.5525 81.3749H83.2974Z" fill="#FAE920"/>
<path d="M83.0423 81.3749L80.6352 78.3372V78.0157L83.2974 81.3749H83.0423Z" fill="#FAEA20"/>
<path d="M82.7872 81.3749L80.6352 78.6587V78.3372L83.0423 81.3749H82.7872Z" fill="#FAEB1F"/>
<path d="M82.532 81.3749L80.6352 78.9803V78.6588L82.7872 81.3749H82.532Z" fill="#FAEC1E"/>
<path d="M82.2769 81.3749L80.6352 79.3018V78.9803L82.532 81.3749H82.2769Z" fill="#FAED1E"/>
<path d="M82.0218 81.3749L80.6352 79.6233V79.3018L82.2769 81.3749H82.0218Z" fill="#FAEE1D"/>
<path d="M81.7666 81.3749L80.6352 79.9448V79.6233L82.0218 81.3749H81.7666Z" fill="#FAEF1D"/>
<path d="M81.5115 81.3749L80.6352 80.2663V79.9448L81.7666 81.3749H81.5115Z" fill="#FAF01C"/>
<path d="M81.2564 81.3749L80.6352 80.5878V80.2663L81.5115 81.3749H81.2564Z" fill="#FAF11C"/>
<path d="M81.0013 81.3749L80.6352 80.9121V80.5878L81.2564 81.3749H81.0013Z" fill="#FAF21B"/>
<path d="M80.6352 80.9121L81.0013 81.3749H80.6352V80.9121Z" fill="#FAF21B"/>
</g>
<mask id="mask9_2764_36" style="mask-type:luminance" maskUnits="userSpaceOnUse" x="42" y="62" width="8" height="9">
<path d="M45.9184 70.197C48.0825 70.197 49.8369 68.4437 49.8369 66.2808C49.8369 64.1179 48.0825 62.3645 45.9184 62.3645C43.7543 62.3645 42 64.1179 42 66.2808C42 68.4437 43.7543 70.197 45.9184 70.197Z" fill="white"/>
</mask>
<g mask="url(#mask9_2764_36)">
<path d="M42.2302 62.3645H42V70.197H42.2302V62.3645Z" fill="#FAD02E"/>
<path d="M42.4603 62.3645H42.2302V70.197H42.4603V62.3645Z" fill="#FAD12D"/>
<path d="M42.6905 62.3645H42.4603V70.197H42.6905V62.3645Z" fill="#FAD22D"/>
<path d="M42.9207 62.3645H42.6905V70.197H42.9207V62.3645Z" fill="#FAD32C"/>
<path d="M43.1509 62.3645H42.9207V70.197H43.1509V62.3645Z" fill="#FAD42C"/>
<path d="M43.381 62.3645H43.1508V70.197H43.381V62.3645Z" fill="#FAD52B"/>
<path d="M43.6112 62.3645H43.381V70.197H43.6112V62.3645Z" fill="#FAD62B"/>
<path d="M43.8414 62.3645H43.6112V70.197H43.8414V62.3645Z" fill="#FAD72A"/>
<path d="M44.0715 62.3645H43.8414V70.197H44.0715V62.3645Z" fill="#FAD829"/>
<path d="M44.3045 62.3645H44.0743V70.197H44.3045V62.3645Z" fill="#FAD929"/>
<path d="M44.5346 62.3645H44.3045V70.197H44.5346V62.3645Z" fill="#FADA28"/>
<path d="M44.7648 62.3645H44.5346V70.197H44.7648V62.3645Z" fill="#FADB28"/>
<path d="M44.995 62.3645H44.7648V70.197H44.995V62.3645Z" fill="#FADC27"/>
<path d="M45.2251 62.3645H44.995V70.197H45.2251V62.3645Z" fill="#FADD27"/>
<path d="M45.4553 62.3645H45.2251V70.197H45.4553V62.3645Z" fill="#FADE26"/>
<path d="M45.6855 62.3645H45.4553V70.197H45.6855V62.3645Z" fill="#FADF25"/>
<path d="M45.9157 62.3645H45.6855V70.197H45.9157V62.3645Z" fill="#FAE025"/>
<path d="M46.1486 62.3645H45.9184V70.197H46.1486V62.3645Z" fill="#FAE224"/>
<path d="M46.3788 62.3645H46.1486V70.197H46.3788V62.3645Z" fill="#FAE324"/>
<path d="M46.6089 62.3645H46.3788V70.197H46.6089V62.3645Z" fill="#FAE423"/>
<path d="M46.8391 62.3645H46.6089V70.197H46.8391V62.3645Z" fill="#FAE522"/>
<path d="M47.0693 62.3645H46.8391V70.197H47.0693V62.3645Z" fill="#FAE622"/>
<path d="M47.2994 62.3645H47.0693V70.197H47.2994V62.3645Z" fill="#FAE721"/>
<path d="M47.5296 62.3645H47.2994V70.197H47.5296V62.3645Z" fill="#FAE821"/>
<path d="M47.7598 62.3645H47.5296V70.197H47.7598V62.3645Z" fill="#FAE920"/>
<path d="M47.99 62.3645H47.7598V70.197H47.99V62.3645Z" fill="#FAEA20"/>
<path d="M48.2229 62.3645H47.9927V70.197H48.2229V62.3645Z" fill="#FAEB1F"/>
<path d="M48.4531 62.3645H48.2229V70.197H48.4531V62.3645Z" fill="#FAEC1E"/>
<path d="M48.6832 62.3645H48.4531V70.197H48.6832V62.3645Z" fill="#FAED1E"/>
<path d="M48.9134 62.3645H48.6832V70.197H48.9134V62.3645Z" fill="#FAEE1D"/>
<path d="M49.1436 62.3645H48.9134V70.197H49.1436V62.3645Z" fill="#FAEF1D"/>
<path d="M49.3737 62.3645H49.1436V70.197H49.3737V62.3645Z" fill="#FAF01C"/>
<path d="M49.6039 62.3645H49.3737V70.197H49.6039V62.3645Z" fill="#FAF11C"/>
<path d="M49.8341 62.3645H49.6039V70.197H49.8341V62.3645Z" fill="#FAF21B"/>
</g>
<mask id="mask10_2764_36" style="mask-type:luminance" maskUnits="userSpaceOnUse" x="43" y="63" width="6" height="6">
<path d="M45.9073 68.9859C47.4021 68.9859 48.6139 67.7748 48.6139 66.2808C48.6139 64.7868 47.4021 63.5757 45.9073 63.5757C44.4125 63.5757 43.2008 64.7868 43.2008 66.2808C43.2008 67.7748 44.4125 68.9859 45.9073 68.9859Z" fill="white"/>
</mask>
<g mask="url(#mask10_2764_36)">
<path d="M43.2008 67.7359L45.3777 68.9859H43.2008V67.7359Z" fill="#FAD02E"/>
<path d="M43.2008 67.564L45.6716 68.9859H45.3777L43.2008 67.7359V67.564Z" fill="#FAD02E"/>
<path d="M43.2008 67.395L45.9683 68.9859H45.6716L43.2008 67.564V67.395Z" fill="#FAD12D"/>
<path d="M43.2008 67.2259L46.2651 68.9859H45.9683L43.2008 67.395V67.2259Z" fill="#FAD22D"/>
<path d="M43.2008 67.0541L46.5618 68.9859H46.2651L43.2008 67.2259V67.0541Z" fill="#FAD32C"/>
<path d="M43.2008 66.885L46.8557 68.9859H46.5618L43.2008 67.0541V66.885Z" fill="#FAD42C"/>
<path d="M43.2008 66.7132L47.1525 68.9859H46.8557L43.2008 66.885V66.7132Z" fill="#FAD52B"/>
<path d="M43.2008 66.5441L47.4492 68.9859H47.1525L43.2008 66.7132V66.5441Z" fill="#FAD62B"/>
<path d="M43.2008 66.375L47.7431 68.9859H47.4492L43.2008 66.5441V66.375Z" fill="#FAD72A"/>
<path d="M43.2008 66.2032L48.0399 68.9859H47.7431L43.2008 66.375V66.2032Z" fill="#FAD829"/>
<path d="M43.2008 66.0341L48.3366 68.9859H48.0399L43.2008 66.2032V66.0341Z" fill="#FAD929"/>
<path d="M43.2008 65.865L48.5751 68.9554L48.5584 68.9859H48.3366L43.2008 66.0341V65.865Z" fill="#FADA28"/>
<path d="M43.2008 65.6932L48.6139 68.8057V68.8861L48.5751 68.9554L43.2008 65.865V65.6932Z" fill="#FADB28"/>
<path d="M43.2008 65.5241L48.6139 68.6366V68.8057L43.2008 65.6932V65.5241Z" fill="#FADC27"/>
<path d="M43.2008 65.3523L48.6139 68.4676V68.6366L43.2008 65.5241V65.3523Z" fill="#FADD27"/>
<path d="M43.2008 65.1832L48.6139 68.2957V68.4676L43.2008 65.3523V65.1832Z" fill="#FADE26"/>
<path d="M43.2008 65.0142L48.6139 68.1267V68.2957L43.2008 65.1832V65.0142Z" fill="#FADF25"/>
<path d="M43.2008 64.8423L48.6139 67.9548V68.1267L43.2008 65.0142V64.8423Z" fill="#FAE025"/>
<path d="M43.2008 64.6732L48.6139 67.7858V67.9548L43.2008 64.8423V64.6732Z" fill="#FAE224"/>
<path d="M43.2008 64.5014L48.6139 67.6167V67.7858L43.2008 64.6733V64.5014Z" fill="#FAE324"/>
<path d="M43.2008 64.3324L48.6139 67.4449V67.6167L43.2008 64.5014V64.3324Z" fill="#FAE423"/>
<path d="M43.2008 64.1633L48.6139 67.2758V67.4449L43.2008 64.3324V64.1633Z" fill="#FAE522"/>
<path d="M43.2008 63.9914L48.6139 67.1039V67.2758L43.2008 64.1633V63.9914Z" fill="#FAE622"/>
<path d="M43.2008 63.8224L48.6139 66.9349V67.1039L43.2008 63.9914V63.8224Z" fill="#FAE721"/>
<path d="M43.2008 63.6755L43.2091 63.6588L48.6139 66.7658V66.9349L43.2008 63.8224V63.6755Z" fill="#FAE821"/>
<path d="M43.2091 63.6588L43.2562 63.5757H43.3644L48.6139 66.594V66.7658L43.2091 63.6588Z" fill="#FAE920"/>
<path d="M43.6583 63.5757L48.6139 66.4249V66.594L43.3644 63.5757H43.6583Z" fill="#FAEA20"/>
<path d="M43.9551 63.5757L48.6139 66.2531V66.4249L43.6583 63.5757H43.9551Z" fill="#FAEB1F"/>
<path d="M44.2518 63.5757L48.6139 66.084V66.2531L43.955 63.5757H44.2518Z" fill="#FAEC1E"/>
<path d="M44.5485 63.5757L48.6139 65.9149V66.084L44.2518 63.5757H44.5485Z" fill="#FAED1E"/>
<path d="M44.8424 63.5757L48.6139 65.7431V65.9149L44.5485 63.5757H44.8424Z" fill="#FAEE1D"/>
<path d="M45.1392 63.5757L48.6139 65.574V65.7431L44.8425 63.5757H45.1392Z" fill="#FAEF1D"/>
<path d="M45.4359 63.5757L48.6139 65.4022V65.574L45.1392 63.5757H45.4359Z" fill="#FAF01C"/>
<path d="M45.7298 63.5757L48.6139 65.2331V65.4022L45.4359 63.5757H45.7298Z" fill="#FAF11C"/>
<path d="M46.0266 63.5757L48.6139 65.064V65.2331L45.7298 63.5757H46.0266Z" fill="#FAF21B"/>
<path d="M48.6139 65.064L46.0266 63.5757H48.6139V65.064Z" fill="#FAF21B"/>
</g>
<mask id="mask11_2764_36" style="mask-type:luminance" maskUnits="userSpaceOnUse" x="43" y="63" width="6" height="6">
<path d="M45.9073 68.9859C44.4154 68.9859 43.2008 67.7719 43.2008 66.2808C43.2008 64.7897 44.4154 63.5757 45.9073 63.5757C47.3993 63.5757 48.6139 64.7897 48.6139 66.2808C48.6139 67.7719 47.3993 68.9859 45.9073 68.9859ZM45.9073 63.7254C44.4958 63.7254 43.3505 64.8728 43.3505 66.2808C43.3505 67.6888 44.4986 68.8362 45.9073 68.8362C47.3161 68.8362 48.4642 67.6888 48.4642 66.2808C48.4642 64.8728 47.3161 63.7254 45.9073 63.7254Z" fill="white"/>
</mask>
<g mask="url(#mask11_2764_36)">
<path d="M48.4642 64.2243L48.0676 63.7254H48.4642V64.2243Z" fill="#FAD02E"/>
<path d="M48.4642 64.5458L47.8125 63.7254H48.0676L48.4642 64.2243V64.5458Z" fill="#FAD02E"/>
<path d="M48.4642 64.8673L47.5573 63.7254H47.8125L48.4642 64.5458V64.8673Z" fill="#FAD12D"/>
<path d="M48.4642 65.1915L47.3022 63.7254H47.5573L48.4642 64.8673V65.1915Z" fill="#FAD22D"/>
<path d="M48.4642 65.5131L47.0471 63.7254H47.3022L48.4642 65.1915V65.5131Z" fill="#FAD32C"/>
<path d="M48.4642 65.8346L46.792 63.7254H47.0471L48.4642 65.5131V65.8346Z" fill="#FAD42C"/>
<path d="M48.4642 66.1561L46.5368 63.7254H46.792L48.4642 65.8346V66.1561Z" fill="#FAD52B"/>
<path d="M48.4642 66.4776L46.2817 63.7254H46.5368L48.4642 66.1561V66.4776Z" fill="#FAD62B"/>
<path d="M48.4642 66.7991L46.0266 63.7254H46.2817L48.4642 66.4776V66.7991Z" fill="#FAD72A"/>
<path d="M48.4642 67.1206L45.7715 63.7254H46.0266L48.4642 66.7991V67.1206Z" fill="#FAD829"/>
<path d="M48.4642 67.4421L45.5163 63.7254H45.7715L48.4642 67.1206V67.4421Z" fill="#FAD929"/>
<path d="M48.4642 67.7636L45.2612 63.7254H45.5163L48.4642 67.4421V67.7636Z" fill="#FADA28"/>
<path d="M48.4641 68.0851L45.0061 63.7254H45.2612L48.4641 67.7636V68.0851Z" fill="#FADB28"/>
<path d="M48.4641 68.4066L44.7509 63.7254H45.0061L48.4641 68.0851V68.4066Z" fill="#FADC27"/>
<path d="M48.4641 68.6366L48.4198 68.6727L44.4958 63.7254H44.7509L48.4641 68.4066V68.6366Z" fill="#FADD27"/>
<path d="M48.4198 68.6727L48.2645 68.7946L44.2407 63.7254H44.4958L48.4198 68.6727Z" fill="#FADE26"/>
<path d="M48.2645 68.7946L48.2118 68.839H48.0426L43.9855 63.7254H44.2407L48.2645 68.7946Z" fill="#FADF25"/>
<path d="M47.7875 68.839L43.7304 63.7254H43.9856L48.0426 68.839H47.7875Z" fill="#FAE025"/>
<path d="M47.5324 68.839L43.5252 63.7863L43.6029 63.7254H43.7304L47.7875 68.839H47.5324Z" fill="#FAE224"/>
<path d="M47.2773 68.839L43.3699 63.9111L43.5252 63.7863L47.5324 68.839H47.2773Z" fill="#FAE324"/>
<path d="M47.0221 68.839L43.3505 64.2076V63.9277L43.3699 63.9111L47.2773 68.839H47.0221Z" fill="#FAE423"/>
<path d="M46.767 68.839L43.3505 64.5291V64.2076L47.0221 68.839H46.767Z" fill="#FAE522"/>
<path d="M46.5119 68.839L43.3505 64.8506V64.5291L46.767 68.839H46.5119Z" fill="#FAE622"/>
<path d="M46.2567 68.839L43.3505 65.1721V64.8506L46.5119 68.839H46.2567Z" fill="#FAE721"/>
<path d="M46.0016 68.839L43.3505 65.4936V65.1721L46.2567 68.839H46.0016Z" fill="#FAE821"/>
<path d="M45.7465 68.839L43.3505 65.8152V65.4937L46.0016 68.839H45.7465Z" fill="#FAE920"/>
<path d="M45.4914 68.839L43.3505 66.1367V65.8152L45.7465 68.839H45.4914Z" fill="#FAEA20"/>
<path d="M45.2362 68.839L43.3505 66.4582V66.1367L45.4914 68.839H45.2362Z" fill="#FAEB1F"/>
<path d="M44.9811 68.839L43.3505 66.7797V66.4582L45.2362 68.839H44.9811Z" fill="#FAEC1E"/>
<path d="M44.726 68.839L43.3505 67.1012V66.7797L44.9811 68.839H44.726Z" fill="#FAED1E"/>
<path d="M44.4709 68.839L43.3505 67.4227V67.1012L44.726 68.839H44.4709Z" fill="#FAEE1D"/>
<path d="M44.2157 68.839L43.3505 67.747V67.4227L44.4709 68.839H44.2157Z" fill="#FAEF1D"/>
<path d="M43.9606 68.839L43.3505 68.0685V67.747L44.2157 68.839H43.9606Z" fill="#FAF01C"/>
<path d="M43.7055 68.839L43.3505 68.39V68.0685L43.9606 68.839H43.7055Z" fill="#FAF11C"/>
<path d="M43.4503 68.839L43.3505 68.7115V68.39L43.7055 68.839H43.4503Z" fill="#FAF21B"/>
<path d="M43.3505 68.7115L43.4503 68.839H43.3505V68.7115Z" fill="#FAF21B"/>
<path d="M48.6139 64.4127L47.9511 63.5757H48.6139V64.4127Z" fill="#FAD02E"/>
<path d="M48.6139 64.7342L47.696 63.5757H47.9511L48.6139 64.4127V64.7342Z" fill="#FAD02E"/>
<path d="M48.6139 65.0557L47.4409 63.5757H47.696L48.6139 64.7342V65.0557Z" fill="#FAD12D"/>
<path d="M48.6139 65.3772L47.1857 63.5757H47.4409L48.6139 65.0557V65.3772Z" fill="#FAD22D"/>
<path d="M48.6139 65.6987L46.9306 63.5757H47.1857L48.6139 65.3772V65.6987Z" fill="#FAD32C"/>
<path d="M48.6139 66.023L46.6755 63.5757H46.9306L48.6139 65.6987V66.023Z" fill="#FAD42C"/>
<path d="M48.6139 66.3445L46.4204 63.5757H46.6755L48.6139 66.023V66.3445Z" fill="#FAD52B"/>
<path d="M48.6139 66.666L46.1652 63.5757H46.4204L48.6139 66.3445V66.666Z" fill="#FAD62B"/>
<path d="M48.6139 66.9875L45.9101 63.5757H46.1652L48.6139 66.666V66.9875Z" fill="#FAD72A"/>
<path d="M48.6139 67.309L45.655 63.5757H45.9101L48.6139 66.9875V67.309Z" fill="#FAD829"/>
<path d="M48.6139 67.6306L45.3999 63.5757H45.655L48.6139 67.309V67.6306Z" fill="#FAD929"/>
<path d="M48.6139 67.9521L45.1447 63.5757H45.3998L48.6139 67.6306V67.9521Z" fill="#FADA28"/>
<path d="M48.6139 68.2736L44.8896 63.5757H45.1447L48.6139 67.9521V68.2736Z" fill="#FADB28"/>
<path d="M48.6139 68.5951L44.6345 63.5757H44.8896L48.6139 68.2736V68.5951Z" fill="#FADC27"/>
<path d="M48.6139 68.7309L48.5252 68.8029L44.3793 63.5757H44.6345L48.6139 68.5951V68.7309Z" fill="#FADD27"/>
<path d="M48.5252 68.8029L48.3671 68.9277L44.1242 63.5757H44.3793L48.5252 68.8029Z" fill="#FADE26"/>
<path d="M48.3671 68.9277L48.2922 68.9859H48.1591L43.8691 63.5757H44.1242L48.3671 68.9277Z" fill="#FADF25"/>
<path d="M47.904 68.9859L43.614 63.5757H43.8691L48.1591 68.9859H47.904Z" fill="#FAE025"/>
<path d="M47.6489 68.9859L43.4226 63.6561L43.5224 63.5757H43.614L47.904 68.9859H47.6489Z" fill="#FAE224"/>
<path d="M47.3937 68.9859L43.2645 63.778L43.4226 63.6561L47.6489 68.9859H47.3937Z" fill="#FAE324"/>
<path d="M47.1386 68.9859L43.2008 64.0192V63.8307L43.2645 63.778L47.3937 68.9859H47.1386Z" fill="#FAE423"/>
<path d="M46.8835 68.9859L43.2008 64.3407V64.0191L47.1386 68.9859H46.8835Z" fill="#FAE522"/>
<path d="M46.6283 68.9859L43.2008 64.6622V64.3407L46.8835 68.9859H46.6283Z" fill="#FAE622"/>
<path d="M46.3732 68.9859L43.2008 64.9837V64.6622L46.6283 68.9859H46.3732Z" fill="#FAE721"/>
<path d="M46.1181 68.9859L43.2008 65.3052V64.9837L46.3732 68.9859H46.1181Z" fill="#FAE821"/>
<path d="M45.863 68.9859L43.2008 65.6267V65.3052L46.1181 68.9859H45.863Z" fill="#FAE920"/>
<path d="M45.6106 68.9859L43.2008 65.9482V65.6267L45.863 68.9859H45.6106Z" fill="#FAEA20"/>
<path d="M45.3555 68.9859L43.2008 66.2697V65.9482L45.6106 68.9859H45.3555Z" fill="#FAEB1F"/>
<path d="M45.1004 68.9859L43.2008 66.5912V66.2697L45.3555 68.9859H45.1004Z" fill="#FAEC1E"/>
<path d="M44.8452 68.9859L43.2008 66.9155V66.5912L45.1004 68.9859H44.8452Z" fill="#FAED1E"/>
<path d="M44.5901 68.9859L43.2008 67.237V66.9155L44.8452 68.9859H44.5901Z" fill="#FAEE1D"/>
<path d="M44.335 68.9859L43.2008 67.5585V67.237L44.5901 68.9859H44.335Z" fill="#FAEF1D"/>
<path d="M44.0798 68.9859L43.2008 67.88V67.5585L44.335 68.9859H44.0798Z" fill="#FAF01C"/>
<path d="M43.8247 68.9859L43.2008 68.2015V67.88L44.0798 68.9859H43.8247Z" fill="#FAF11C"/>
<path d="M43.5696 68.9859L43.2008 68.523V68.2015L43.8247 68.9859H43.5696Z" fill="#FAF21B"/>
<path d="M43.2008 68.523L43.5696 68.9859H43.2008V68.523Z" fill="#FAF21B"/>
</g>
</g>
<defs>
<linearGradient id="paint0_linear_2764_36" x1="14.1659" y1="102.256" x2="122.913" y2="92.0566" gradientUnits="userSpaceOnUse">
<stop stop-color="#FAD02E"/>
<stop offset="1" stop-color="#FAF21B"/>
</linearGradient>
<linearGradient id="paint1_linear_2764_36" x1="14.3766" y1="104.496" x2="123.124" y2="94.2933" gradientUnits="userSpaceOnUse">
<stop stop-color="#FAD02E"/>
<stop offset="1" stop-color="#FAF21B"/>
</linearGradient>
<linearGradient id="paint2_linear_2764_36" x1="14.543" y1="106.283" x2="123.29" y2="96.0838" gradientUnits="userSpaceOnUse">
<stop stop-color="#FAD02E"/>
<stop offset="1" stop-color="#FAF21B"/>
</linearGradient>
<linearGradient id="paint3_linear_2764_36" x1="14.6512" y1="107.417" x2="123.398" y2="97.2173" gradientUnits="userSpaceOnUse">
<stop stop-color="#FAD02E"/>
<stop offset="1" stop-color="#FAF21B"/>
</linearGradient>
<linearGradient id="paint4_linear_2764_36" x1="14.8841" y1="109.917" x2="123.631" y2="99.7145" gradientUnits="userSpaceOnUse">
<stop stop-color="#FAD02E"/>
<stop offset="1" stop-color="#FAF21B"/>
</linearGradient>
<linearGradient id="paint5_linear_2764_36" x1="14.9756" y1="110.895" x2="123.723" y2="100.696" gradientUnits="userSpaceOnUse">
<stop stop-color="#FAD02E"/>
<stop offset="1" stop-color="#FAF21B"/>
</linearGradient>
<linearGradient id="paint6_linear_2764_36" x1="43.2618" y1="56.0453" x2="97.4709" y2="56.0453" gradientUnits="userSpaceOnUse">
<stop stop-color="#FAD02E"/>
<stop offset="1" stop-color="#FAF21B"/>
</linearGradient>
<clipPath id="clip0_2764_36">
<rect width="106" height="81" fill="white" transform="translate(17 29)"/>
</clipPath>
</defs>
</svg>
