<svg width="140" height="140" viewBox="0 0 140 140" fill="none" xmlns="http://www.w3.org/2000/svg">
<rect width="140" height="140" rx="30" fill="#D00F62"/>
<path fill-rule="evenodd" clip-rule="evenodd" d="M69.98 115.91C45.77 115.9 26.03 96.18 26.01 71.97H26C25.98 47.86 45.77 28.01 69.84 28C94.25 27.99 114.04 47.67 114.04 71.95C114.04 96.21 94.28 115.92 69.98 115.91ZM106.07 66.3001C105.85 71.8101 103.87 76.2501 99.5797 79.5301C98.1997 80.5901 96.6597 81.3501 94.8297 81.1701C92.9297 80.9801 91.5297 80.0701 90.6797 78.3401C90.6382 78.2548 90.5943 78.1691 90.55 78.0828L90.55 78.0826C90.3919 77.7741 90.23 77.4582 90.1597 77.1301C88.8697 71.4801 85.4197 67.0901 81.7897 62.8101C81.7448 62.7574 81.7 62.7043 81.655 62.651L81.573 62.5536L81.5729 62.5536L81.5722 62.5527C81.4139 62.3648 81.2542 62.1751 81.0897 61.9901C79.0497 59.8101 78.1497 57.3401 79.2497 54.4201C80.3997 51.3801 82.5597 49.4301 85.8197 48.9801C97.1897 47.3801 104.65 56.0301 105.83 63.8601C105.92 64.463 105.971 65.066 106.018 65.6091C106.039 65.8496 106.058 66.0783 106.08 66.2901L106.07 66.3001ZM88.0997 56.7101C86.6997 56.7401 85.6197 57.8401 85.6197 59.2301C85.6197 60.6501 86.7997 61.8101 88.2197 61.7801C89.5797 61.7501 90.7197 60.5901 90.7197 59.2401C90.7197 57.8301 89.5297 56.6901 88.0997 56.7201V56.7101ZM59.8099 52.71C57.9099 49.7 54.9999 48.83 51.6899 48.76L51.6999 48.75C41.4099 48.81 35.5699 56.41 34.2799 62.8C32.9499 69.4 34.7699 75.1 40.1199 79.37C44.4599 82.84 48.5599 81.46 50.0399 76.11C50.8299 73.25 52.0799 70.65 53.8299 68.3C55.2607 66.3647 56.7873 64.4978 58.3135 62.6314L58.3135 62.6313L58.3137 62.6311L58.316 62.6282C58.6343 62.239 58.9525 61.8498 59.2699 61.46C61.4799 58.76 61.6699 55.67 59.8099 52.71ZM49.9499 59.23C49.9499 57.86 51.0599 56.74 52.4399 56.71C53.8699 56.68 55.0399 57.82 55.0399 59.24C55.0399 60.6 53.9099 61.75 52.5499 61.78C51.1499 61.81 49.9499 60.64 49.9499 59.23ZM58.45 84.24H81.45C81.91 89.4 76.38 94.22 70.04 94.27C63.65 94.33 58.08 89.58 58.45 84.24ZM72.0197 73.0273C71.364 72.9284 70.7096 72.8298 70.0599 72.72V72.71C69.348 72.8227 68.6424 72.9188 67.9434 73.0141C66.4721 73.2145 65.0299 73.411 63.6199 73.75C61.4899 74.26 61.0699 75.66 62.6299 77.22C63.7599 78.35 65.1699 79.28 66.6099 79.99C70.1199 81.71 75.2799 80.21 77.5199 76.97C78.6099 75.4 78.3299 74.3 76.4799 73.84C75.0135 73.4786 73.5134 73.2524 72.0197 73.0273Z" fill="white"/>
<circle cx="39" cy="38" r="10.5" stroke="white" stroke-width="5"/>
<circle cx="101" cy="38" r="10.5" stroke="white" stroke-width="5"/>
</svg>
