<svg width="140" height="140" viewBox="0 0 140 140" fill="none" xmlns="http://www.w3.org/2000/svg">
<rect width="140" height="140" rx="30" fill="white"/>
<path d="M125.118 16.7818C125.098 27.3661 125.121 37.949 125.086 48.5333C125.081 50.4467 124.974 52.3731 124.291 54.2078C123.525 56.2673 122.591 58.1808 121.068 59.8384C118.676 62.4419 115.747 63.8967 112.379 64.5685C111.812 64.6809 111.218 64.7313 110.621 64.73C94.6873 64.7184 78.7532 64.721 62.8179 64.721C46.8826 64.721 30.7803 64.7171 14.7609 64.7352C14.1466 64.7365 13.9988 64.5866 14.0001 63.9652C14.0205 53.3163 14.0294 42.6688 14.0001 32.0199C13.9963 30.268 14.1148 28.5547 14.6385 26.8803C15.2782 24.8311 16.2824 22.9952 17.6217 21.3194C18.8935 19.7277 20.4927 18.5558 22.2373 17.6294C23.8391 16.7806 25.5887 16.1927 27.4314 16.1643C47.0075 15.8529 66.5848 16.0906 86.1621 16.0338C98.8926 15.9963 111.623 16.0312 124.353 16.0118C124.966 16.0105 125.119 16.1578 125.118 16.7818Z" fill="#79B928"/>
<path d="M87.2075 40.1742C87.2075 39.6174 87.2368 39.0579 87.1999 38.5037C87.1553 37.8383 86.9501 37.2478 86.4786 36.7207C85.5382 35.6677 84.3263 35.4196 83.0774 35.6431C81.6948 35.8912 80.4281 36.7297 80.4294 38.5851C80.4294 39.7556 80.4817 40.9275 80.395 42.1006C80.3759 42.3681 80.4511 42.7118 80.6065 43.0128C81.2756 44.3035 82.2733 44.9676 83.7426 45.0154C84.9227 45.0529 86.2887 44.2932 86.8341 43.2208C87.3349 42.2363 87.1884 41.2014 87.2075 40.173V40.1742Z" fill="white"/>
<path d="M40.2204 40.2737C40.2026 41.1601 40.2663 42.0451 39.991 42.9172C39.6457 44.0154 38.2554 44.9767 37.185 45.0154C34.8504 45.0981 34.5956 44.5077 33.8004 42.8126C33.6679 42.5309 33.6182 41.934 33.5978 41.6174C33.543 40.7208 33.5761 39.8189 33.5787 38.9184C33.585 37.2491 34.3929 36.107 35.9909 35.7026C37.6093 35.293 39.3054 35.9119 39.9821 37.5553C40.3376 38.4171 40.2089 39.3603 40.2191 40.2737H40.2204Z" fill="#79B928"/>
<path d="M44.8339 40.12C44.918 39.4378 44.6058 38.4713 45.0493 37.5837C45.7871 36.1044 46.7238 35.4467 48.5218 35.6147C49.7961 35.7335 50.98 36.4945 51.3801 37.9765C51.4349 38.1793 51.454 38.4003 51.4476 38.6109C51.412 39.9946 51.6299 41.3887 51.3087 42.7634C51.0679 43.7945 49.7834 44.9146 48.7321 45.0116C47.2832 45.1446 46.0891 44.6963 45.2303 43.4598C44.9716 43.0877 44.8148 42.6975 44.8288 42.2324C44.8467 41.611 44.8339 40.9882 44.8339 40.1213V40.12Z" fill="#79B928"/>
<path d="M87.2075 40.1742C87.1884 41.2014 87.3349 42.2376 86.8341 43.2221C86.2887 44.2945 84.9214 45.0542 83.7426 45.0167C82.2733 44.9689 81.2756 44.3035 80.6065 43.0141C80.4511 42.7143 80.3759 42.3707 80.395 42.1019C80.4804 40.9288 80.4294 39.7569 80.4294 38.5863C80.4294 36.731 81.6948 35.8925 83.0774 35.6444C84.3263 35.4196 85.5382 35.6677 86.4786 36.7219C86.9501 37.2491 87.1553 37.8395 87.1999 38.5049C87.2368 39.0592 87.2075 39.6187 87.2075 40.1755V40.1742Z" fill="#79B928"/>
<path d="M98.4144 40.2273C98.4144 39.713 98.4692 39.1911 98.4042 38.6846C98.2232 37.2944 99.8837 35.6238 101.452 35.5902C103.166 35.554 104.392 36.2207 105.191 37.7569C105.315 37.9947 105.2 38.1678 105.206 38.3655C105.24 39.3719 105.251 40.3797 105.237 41.3875C105.228 42.049 105.073 42.6976 104.801 43.2945C104.172 44.6809 102.356 45.2868 100.908 44.854C99.9321 44.562 99.2108 44.1046 98.71 43.2364C98.5151 42.8992 98.4169 42.5464 98.4182 42.1588C98.4208 41.5154 98.4182 40.872 98.4182 40.2286C98.4182 40.2286 98.4157 40.2286 98.4144 40.2286V40.2273Z" fill="#79B928"/>
<path d="M62.412 40.399C62.412 39.9055 62.4247 39.4106 62.4094 38.9184C62.3381 36.5953 64.3502 35.2723 66.5267 35.6483C67.6392 35.8408 68.4688 36.4183 68.9696 37.4584C69.1684 37.8718 69.2194 38.3241 69.227 38.7595C69.2512 40.0192 69.3302 41.2867 69.1136 42.5348C68.883 43.8655 67.9374 44.527 66.7536 44.8836C65.0715 45.3914 62.7548 44.5774 62.4196 42.3875C62.3202 41.7389 62.4043 41.0631 62.4043 40.399C62.4069 40.399 62.4081 40.399 62.4107 40.399H62.412Z" fill="#79B928"/>
<path d="M56.0153 40.4236C56.0153 41.1484 56.0319 41.8732 55.9783 42.5968C55.8649 44.1369 55.3335 45.5038 54.3434 46.6809C53.7126 47.4315 52.9875 48.0711 52.1388 48.5595C51.5424 48.9031 50.9117 49.1538 50.2477 49.3269C49.2678 49.5814 48.2725 49.6267 47.2709 49.5517C46.6248 49.5039 45.9877 49.3812 45.3671 49.1835C45.1938 49.1279 45.0205 49.0737 44.8459 49.0233C44.7682 49.0013 44.7108 49.0453 44.7045 49.1254C44.6981 49.2055 44.6968 49.2856 44.6968 49.367C44.6968 49.7933 44.6853 50.2184 44.6968 50.6435C44.7108 51.1241 44.5184 51.513 44.2202 51.8619C44.0635 52.044 43.9042 52.2236 43.7003 52.3554C43.002 52.8063 42.2616 52.8335 41.5148 52.5324C40.6241 52.1732 40.2482 51.4226 40.1577 50.5065C40.1195 50.1189 40.1449 49.7249 40.1411 49.3334C40.1411 49.2416 40.1437 49.1486 40.1373 49.0569C40.1284 48.938 40.0698 48.8954 39.9525 48.929C39.6034 49.0297 39.2567 49.1409 38.9063 49.2365C38.2335 49.4212 37.5504 49.5065 36.8521 49.5C36.0646 49.4936 35.2911 49.4096 34.5239 49.2248C33.7734 49.044 33.0929 48.7067 32.4366 48.3127C31.7561 47.9057 31.1738 47.376 30.6411 46.7894C30.0358 46.1214 29.5694 45.3617 29.2597 44.5103C29.066 43.9805 28.9424 43.4301 28.8978 42.8642C28.8736 42.5658 28.843 42.2673 28.8418 41.9701C28.8367 40.819 28.8354 39.6691 28.8456 38.5179C28.8545 37.4804 29.075 36.4855 29.5044 35.5436C29.7567 34.9881 30.0766 34.4738 30.4818 34.0165C30.9839 33.4506 31.514 32.9157 32.1422 32.4893C33.1872 31.7787 34.3264 31.3252 35.5842 31.1831C36.1385 31.121 36.6903 31.0642 37.2484 31.0991C38.0003 31.1469 38.7317 31.2968 39.4441 31.5487C39.7448 31.6547 40.0468 31.7567 40.331 31.9014C40.4839 31.9789 40.5833 31.9389 40.6878 31.8226C40.9975 31.4815 41.3887 31.2774 41.8283 31.1727C42.6872 30.9673 43.4467 31.1663 44.0928 31.7826C44.117 31.8058 44.1399 31.8317 44.1629 31.8575C44.2508 31.9518 44.3502 31.9751 44.47 31.9195C44.6038 31.8575 44.7427 31.8045 44.8778 31.7438C45.3263 31.5448 45.7902 31.3962 46.268 31.2903C47.4391 31.0306 48.6077 31.028 49.7826 31.2851C50.3968 31.4195 50.9932 31.5939 51.5565 31.8769C52.2115 32.2051 52.818 32.6043 53.3673 33.094C53.812 33.4893 54.2262 33.9131 54.5893 34.3886C55.2558 35.2607 55.684 36.24 55.8751 37.324C55.9771 37.9029 56.0127 38.4882 56.0153 39.076C56.0178 39.5244 56.0153 39.974 56.0153 40.4223V40.4236ZM44.6955 40.306H44.6968C44.6968 40.8693 44.6828 41.4327 44.6994 41.996C44.7261 42.8771 45.0511 43.6239 45.7252 44.2015C46.2782 44.6743 46.9179 44.9728 47.6328 45.0426C48.5695 45.1343 49.4398 44.9095 50.1866 44.3061C50.7027 43.8888 51.0862 43.372 51.2595 42.7118C51.3398 42.4081 51.3742 42.1019 51.3755 41.7906C51.3781 40.8254 51.3755 39.859 51.3755 38.8938C51.3755 38.7556 51.3717 38.6174 51.3615 38.4804C51.322 37.9545 51.1754 37.4636 50.8709 37.0308C50.5357 36.554 50.1025 36.1884 49.5889 35.9222C49.1378 35.6883 48.6587 35.5604 48.1489 35.5617C48.024 35.5617 47.8992 35.5617 47.7743 35.563C47.0415 35.5798 46.3993 35.8369 45.845 36.3176C45.088 36.9739 44.6815 37.8008 44.693 38.8228C44.6981 39.3176 44.693 39.8112 44.693 40.306H44.6955ZM40.0698 40.306C40.0698 39.8577 40.0659 39.4081 40.071 38.9597C40.0749 38.6354 40.0392 38.3189 39.9793 38.0011C39.8952 37.545 39.6926 37.147 39.3944 36.8111C38.7215 36.0527 37.8971 35.5953 36.8649 35.5695C35.4019 35.5333 34.3328 36.1716 33.6498 37.4752C33.4892 37.7814 33.3872 38.1096 33.3809 38.4649C33.3567 39.6729 33.3694 40.881 33.3936 42.0877C33.3974 42.3074 33.4255 42.5244 33.4879 42.735C33.8052 43.8152 34.5494 44.4973 35.5574 44.8604C36.5947 45.2351 37.6193 45.1188 38.5673 44.5283C39.1319 44.1769 39.5575 43.6937 39.82 43.0684C39.9959 42.6485 40.0634 42.2079 40.0672 41.7557C40.071 41.2725 40.0672 40.7892 40.0672 40.306H40.0698Z" fill="#FFFFFE"/>
<path d="M75.535 41.8862C75.535 39.1368 75.535 36.3874 75.535 33.6379C75.535 33.2801 75.5592 32.9286 75.6917 32.5875C75.8472 32.1883 76.0995 31.864 76.4359 31.6224C77.1317 31.1224 77.9039 30.9596 78.7322 31.2102C79.126 31.3291 79.4955 31.5139 79.7721 31.8395C79.8817 31.9687 79.9823 31.9712 80.1302 31.9092C80.5583 31.727 80.9878 31.5423 81.4401 31.4221C82.8355 31.0513 84.2386 30.988 85.6569 31.2723C86.5107 31.4441 87.3224 31.7245 88.0806 32.1586C88.6349 32.4764 89.1612 32.8369 89.6213 33.2878C89.7678 33.4312 89.9207 33.5695 90.0686 33.7116C90.7478 34.3718 91.2995 35.1264 91.6704 36.0036C92.0093 36.8047 92.1941 37.6471 92.2056 38.5179C92.2221 39.7479 92.2374 40.9805 92.2107 42.2105C92.1788 43.6782 91.729 45.0116 90.8344 46.177C90.1093 47.1228 89.2441 47.9044 88.2106 48.4975C87.0293 49.1771 85.7575 49.5027 84.4093 49.5673C83.4268 49.6151 82.4583 49.535 81.5039 49.2856C81.2617 49.2223 81.0247 49.1409 80.7864 49.0698C80.71 49.0466 80.6348 49.0233 80.557 49.0091C80.4921 48.9975 80.4449 49.0363 80.4373 49.0996C80.4271 49.1784 80.4258 49.2598 80.4258 49.3399C80.4232 49.6732 80.422 50.0066 80.4207 50.3412C80.4181 51.3748 79.9046 52.079 79.0202 52.5247C78.6252 52.7237 78.1894 52.7534 77.7536 52.7043C77.4362 52.6694 77.1291 52.5867 76.8399 52.442C76.009 52.0247 75.5859 51.3361 75.5477 50.4084C75.5248 49.8567 75.5388 49.3037 75.5388 48.752C75.5388 46.4625 75.5388 44.1731 75.5388 41.8849H75.5337L75.535 41.8862ZM80.4271 40.3022C80.4271 40.3022 80.4143 40.3022 80.408 40.3022C80.4181 40.934 80.4207 41.5658 80.4385 42.1976C80.4538 42.7428 80.6463 43.2402 80.9648 43.6666C81.3611 44.1976 81.876 44.5969 82.4966 44.8294C83.4574 45.1886 84.4195 45.1395 85.3523 44.7416C86.1118 44.4173 86.6699 43.8617 87.0013 43.0839C87.1465 42.7415 87.2472 42.394 87.2472 42.018C87.2447 40.8112 87.2498 39.6045 87.2383 38.3978C87.2345 38.014 87.1236 37.6432 86.9388 37.3112C86.5833 36.6729 86.0685 36.1949 85.4096 35.8886C84.5597 35.4946 83.6791 35.4584 82.7846 35.7116C81.6759 36.0256 80.9368 36.7414 80.543 37.8344C80.4678 38.0424 80.4271 38.253 80.4271 38.4753C80.4283 39.0838 80.4271 39.6936 80.4271 40.3022Z" fill="#FFFFFE"/>
<path d="M110.281 40.3668C110.281 42.5063 110.281 44.6459 110.281 46.7855C110.281 46.9586 110.279 47.1305 110.272 47.3036C110.244 47.9768 109.96 48.5272 109.442 48.9367C108.639 49.5737 107.75 49.6667 106.809 49.292C106.523 49.1783 106.255 49.0246 106.05 48.7804C105.956 48.668 105.841 48.6512 105.711 48.699C105.636 48.7261 105.563 48.7571 105.489 48.7881C103.901 49.4742 102.251 49.6344 100.549 49.4031C99.4159 49.2494 98.3709 48.8605 97.3859 48.2855C96.5499 47.7972 95.8452 47.1537 95.217 46.4173C94.6601 45.7648 94.2459 45.0284 93.9694 44.217C93.7579 43.5955 93.6305 42.9508 93.6215 42.2893C93.6024 40.9094 93.5769 39.5282 93.6317 38.1496C93.6585 37.4804 93.8127 36.8305 94.0421 36.2013C94.3097 35.4713 94.6996 34.8072 95.194 34.2193C95.7764 33.5255 96.4441 32.9183 97.21 32.4299C97.693 32.1224 98.1976 31.8601 98.7277 31.6559C99.2476 31.4557 99.7867 31.311 100.34 31.2309C101.048 31.1288 101.761 31.059 102.478 31.1017C103.207 31.1443 103.919 31.2787 104.614 31.5074C104.971 31.6249 105.324 31.7503 105.661 31.9156C105.798 31.9815 105.894 31.9622 105.996 31.8614C106.077 31.7813 106.163 31.705 106.253 31.634C106.905 31.1133 107.644 30.9763 108.437 31.1779C108.893 31.2929 109.302 31.5216 109.631 31.8756C110.018 32.2942 110.241 32.7865 110.265 33.3614C110.281 33.718 110.282 34.0746 110.282 34.4312C110.283 36.4093 110.282 38.3887 110.282 40.3668H110.278H110.281ZM98.4869 40.3202C98.4869 40.3202 98.4907 40.3202 98.492 40.3202C98.492 40.9068 98.492 41.4934 98.492 42.08C98.492 42.3358 98.5442 42.5813 98.6194 42.8242C98.8641 43.6123 99.3751 44.173 100.066 44.5826C100.628 44.916 101.233 45.0723 101.888 45.0581C102.535 45.0452 103.152 44.9263 103.717 44.5942C104.41 44.186 104.901 43.602 105.163 42.8306C105.287 42.4689 105.33 42.0929 105.33 41.7105C105.329 40.8138 105.327 39.9158 105.325 39.0192C105.325 38.8577 105.324 38.6975 105.315 38.536C105.271 37.7427 104.977 37.0669 104.393 36.5256C104.089 36.2426 103.746 36.023 103.373 35.8486C102.876 35.6173 102.352 35.563 101.81 35.5682C101.095 35.5746 100.44 35.7633 99.8542 36.1729C98.9966 36.7723 98.5098 37.5902 98.4882 38.6613C98.4767 39.213 98.4856 39.766 98.4856 40.3177L98.4869 40.3202Z" fill="#FFFFFE"/>
<path d="M57.3974 40.3228C57.3974 39.7931 57.3885 39.2646 57.4 38.7362C57.4114 38.1613 57.4548 37.5876 57.5911 37.0256C57.7466 36.386 57.9798 35.7814 58.3124 35.2103C58.8642 34.2632 59.5918 33.4816 60.4481 32.8252C60.9821 32.4156 61.5606 32.0771 62.1799 31.8045C63.4351 31.2528 64.7515 31.0784 66.1036 31.1055C67.1358 31.1262 68.1336 31.3381 69.0957 31.7037C69.9189 32.0164 70.6656 32.4738 71.3512 33.0332C72.1375 33.6754 72.8001 34.4247 73.3022 35.3136C73.5914 35.8253 73.7864 36.3757 73.9393 36.9442C74.1203 37.6173 74.1522 38.3047 74.1572 38.9959C74.1649 39.8809 74.1636 40.7673 74.1611 41.6523C74.1611 42.1123 74.1305 42.5722 74.0655 43.0283C73.9852 43.589 73.8145 44.1239 73.6042 44.6472C73.148 45.7868 72.363 46.6679 71.4735 47.4716C70.788 48.0917 70.0004 48.5439 69.1581 48.9005C68.6433 49.1176 68.1017 49.2481 67.555 49.3566C66.6095 49.5427 65.6537 49.5427 64.7044 49.4535C63.351 49.3256 62.0831 48.8967 60.9388 48.1434C60.3284 47.7416 59.7677 47.2739 59.2694 46.7312C58.5074 45.9005 57.9479 44.9495 57.6408 43.8565C57.5478 43.5257 57.4815 43.1859 57.4522 42.841C57.4114 42.3707 57.3847 41.9004 57.3898 41.4288C57.3936 41.0606 57.3898 40.6923 57.3898 40.3241H57.3949L57.3974 40.3228ZM62.3596 40.2763C62.3596 40.2763 62.3507 40.2763 62.3469 40.2763C62.3469 40.806 62.3456 41.3345 62.3469 41.8642C62.3482 42.235 62.4055 42.5981 62.5291 42.9469C62.877 43.934 63.6148 44.5193 64.5451 44.8643C65.3504 45.1627 66.1762 45.1188 66.9879 44.8565C67.3804 44.7299 67.7474 44.54 68.0609 44.2699C68.7809 43.6472 69.1657 42.8552 69.19 41.8913C69.1951 41.7079 69.1912 41.5231 69.1912 41.3396C69.1912 40.4533 69.1912 39.5683 69.1912 38.6819C69.1912 38.2982 69.1199 37.9261 68.9835 37.5695C68.6879 36.7969 68.1081 36.2995 67.4072 35.9248C66.9777 35.6948 66.5152 35.6043 66.0322 35.5733C65.2727 35.5255 64.5578 35.6625 63.9054 36.0591C62.942 36.6457 62.3966 37.501 62.3622 38.6561C62.3469 39.1962 62.3596 39.7375 62.3596 40.2776V40.2763Z" fill="#FFFFFE"/>
<path d="M45.796 92.9308C45.796 87.3053 45.8036 81.6812 45.7832 76.0557C45.7807 75.5182 45.9183 75.389 46.4446 75.389C57.1603 75.4058 67.8761 75.3852 78.5905 75.4097C82.4594 75.4188 85.9548 76.6488 88.8144 79.2922C91.3554 81.6411 93.0362 84.5546 93.5383 88.0819C93.7179 89.3493 93.7919 90.6168 93.7906 91.8933C93.7855 97.626 93.8568 103.36 93.7587 109.09C93.695 112.796 92.4283 116.092 89.9562 118.912C88.2078 120.907 86.1001 122.326 83.6789 123.258C82.3268 123.779 80.8945 124.088 79.4176 124.088C72.8816 124.085 66.3469 124.111 59.8122 124.083C58.1823 124.075 56.6302 123.598 55.124 122.959C51.7356 121.519 49.2213 119.11 47.4857 115.877C46.6332 114.289 46.1197 112.568 45.8903 110.749C45.7692 109.783 45.8036 108.832 45.8011 107.874C45.7871 102.894 45.7947 97.9128 45.7947 92.9308H45.796ZM65.33 97.5743C65.2981 97.5562 65.265 97.5382 65.2331 97.5214C65.2446 97.4438 65.2331 97.3534 65.2701 97.2927C65.8181 96.3715 66.3762 95.4554 66.9254 94.5342C67.6989 93.237 68.4763 91.9411 69.2345 90.6336C69.5174 90.1452 69.2829 89.6439 68.6572 89.3002C67.9704 88.923 67.4555 88.9733 67.1739 89.4488C66.1545 91.1698 65.1095 92.8778 64.1321 94.6234C63.8696 95.0936 63.5842 95.2216 63.0936 95.2099C61.8218 95.1802 60.5488 95.1996 59.2757 95.1996C57.8803 95.1996 57.651 95.449 57.7542 96.8598C57.7631 96.9826 57.8357 97.1015 57.8395 97.2229C57.8587 97.9942 58.2792 98.325 59.003 98.3327C59.1725 98.334 59.3343 98.3793 59.263 98.5782C59.0323 99.2242 59.3356 99.8121 59.4261 100.422C59.7549 102.666 60.0505 104.916 60.4481 107.148C60.6163 108.097 61.1693 108.869 62.4449 108.874C67.3014 108.89 72.159 108.892 77.0155 108.889C78.1789 108.889 78.8696 108.345 79.127 107.221C79.3003 106.465 79.4188 105.695 79.5322 104.927C79.8355 102.873 80.1184 100.815 80.4243 98.7604C80.4536 98.5679 80.53 98.3857 80.8015 98.3237C81.7712 98.1028 81.8056 98.0407 81.8056 97.0562C81.8056 96.8637 81.8056 96.6699 81.8056 96.4774C81.8056 95.5665 81.4603 95.2048 80.567 95.2022C79.2098 95.197 77.8502 95.1544 76.4956 95.2203C75.7998 95.2539 75.4774 94.967 75.1588 94.3934C74.2566 92.768 73.297 91.175 72.34 89.5819C71.959 88.9488 71.2759 88.8596 70.6757 89.3144C69.9787 89.8429 69.9265 90.3196 70.4935 90.9631C70.5636 91.0419 70.6617 91.1065 70.7038 91.1982C71.4798 92.8895 72.5541 94.4063 73.4499 96.0265C73.7392 96.5498 74.1368 97.0239 74.2591 97.6389C73.7022 97.0511 73.2002 96.4322 72.7198 95.7952C72.4241 95.4024 72.1157 95.1608 71.5678 95.1828C70.3189 95.2345 69.065 95.2138 67.8149 95.1906C67.3906 95.1828 67.1242 95.3288 66.8706 95.6751C66.3889 96.3314 65.8474 96.9425 65.3313 97.573L65.33 97.5743Z" fill="#E72F2A"/>
<path d="M65.3311 97.5731C65.8472 96.9426 66.3888 96.3315 66.8705 95.6751C67.124 95.3288 67.3904 95.1828 67.8147 95.1906C69.0661 95.2139 70.3188 95.2345 71.5676 95.1828C72.1168 95.1596 72.4239 95.4025 72.7196 95.7953C73.2 96.4322 73.7033 97.0511 74.2589 97.639C74.1366 97.024 73.7403 96.5498 73.4498 96.0265C72.5539 94.4063 71.4784 92.8895 70.7036 91.1983C70.6615 91.1065 70.5634 91.0419 70.4933 90.9631C69.925 90.321 69.9785 89.8429 70.6756 89.3145C71.2758 88.8597 71.9601 88.9488 72.3398 89.5819C73.2968 91.175 74.2564 92.7681 75.1586 94.3934C75.4759 94.9671 75.7983 95.2539 76.4954 95.2203C77.85 95.1544 79.2097 95.1971 80.5668 95.2022C81.4601 95.2061 81.8042 95.5666 81.8055 96.4775C81.8055 96.67 81.8055 96.8638 81.8055 97.0563C81.8055 98.0395 81.7711 98.1028 80.8013 98.3237C80.5299 98.3858 80.4534 98.5679 80.4241 98.7605C80.1183 100.815 79.8354 102.873 79.5321 104.927C79.4187 105.695 79.3002 106.465 79.1268 107.221C78.8694 108.345 78.1787 108.889 77.0153 108.889C72.1589 108.892 67.3012 108.889 62.4448 108.874C61.1692 108.871 60.6174 108.097 60.4479 107.148C60.0503 104.917 59.7547 102.666 59.4259 100.422C59.3367 99.8122 59.0321 99.2243 59.2628 98.5783C59.3341 98.3793 59.171 98.3341 59.0028 98.3328C58.279 98.3263 57.8585 97.9943 57.8394 97.2229C57.8368 97.1015 57.7629 96.9826 57.754 96.8599C57.6508 95.449 57.8802 95.1996 59.2755 95.1996C60.5486 95.1996 61.8216 95.1803 63.0934 95.21C63.5853 95.2216 63.8694 95.0937 64.132 94.6234C65.1081 92.8766 66.1543 91.1698 67.1737 89.4489C67.4554 88.9734 67.9702 88.923 68.6571 89.3003C69.2827 89.644 69.5172 90.144 69.2343 90.6336C68.4761 91.9412 67.6988 93.2358 66.9253 94.5343C66.376 95.4555 65.8179 96.3715 65.2699 97.2927C65.233 97.3547 65.2444 97.4452 65.233 97.5214C65.2648 97.5395 65.298 97.5576 65.3298 97.5744L65.3311 97.5731ZM75.5817 106.577C76.0239 106.581 76.4699 106.506 76.5833 106.01C76.7247 105.398 76.7617 104.762 76.8535 104.137C77.0472 102.826 77.2319 101.514 77.4537 100.208C77.5531 99.6248 77.3479 99.2127 76.8101 99.1067C76.1296 98.9723 75.3268 99.3328 75.3383 99.8393C75.3587 100.824 75.0745 101.767 75.0554 102.749C75.0363 103.675 74.8668 104.599 74.7789 105.527C74.6973 106.391 74.7712 106.576 75.5804 106.577H75.5817ZM63.1902 99.1041C62.5046 98.9659 62.0969 99.5202 62.2128 100.072C62.6219 102.005 62.9303 103.956 63.2399 105.907C63.3368 106.519 63.8287 106.634 64.3473 106.568C64.7513 106.516 65.1935 106.37 65.1285 105.858C65.0788 105.461 65.052 105.06 64.9972 104.665C64.7959 103.184 64.5639 101.708 64.3804 100.226C64.2785 99.3961 64.0122 99.108 63.189 99.1054L63.1902 99.1041ZM73.0305 100.896C73.0305 100.466 73.0037 100.162 73.0369 99.8651C73.0968 99.3238 72.8037 99.1416 72.3462 99.108C72.1347 99.0925 71.9142 99.0692 71.7116 99.1145C71.3879 99.1868 71.0145 99.285 71.0133 99.7127C71.0056 101.799 70.84 103.886 70.9623 105.974C70.9929 106.505 71.407 106.586 71.8377 106.575C72.2825 106.563 72.7298 106.453 72.7655 105.934C72.884 104.213 72.9502 102.489 73.0305 100.896ZM68.7106 101.673C68.7921 101.169 68.6392 100.479 68.5742 99.7837C68.5296 99.307 68.1359 99.077 67.4235 99.1054C66.9482 99.1235 66.608 99.2708 66.6526 99.8509C66.7074 100.547 66.6895 101.244 66.7749 101.945C66.9329 103.224 66.9571 104.52 67.0489 105.808C67.0871 106.332 67.4592 106.593 68.0709 106.58C68.6023 106.568 68.824 106.355 68.8456 105.77C68.8941 104.465 68.6609 103.177 68.7093 101.674L68.7106 101.673ZM64.7513 96.7966C64.7895 96.4245 64.6264 96.2565 64.2785 96.2694C63.9625 96.2824 63.7051 96.4477 63.7624 96.7656C63.8095 97.0279 63.9421 97.4168 64.2747 97.3909C64.5257 97.3715 64.857 97.1919 64.7513 96.7953V96.7966ZM75.7002 96.7488C75.7359 96.4064 75.5766 96.2384 75.2249 96.272C74.8948 96.3043 74.6706 96.4723 74.6922 96.8276C74.7164 97.2178 75.0465 97.2759 75.3332 97.2901C75.6773 97.3082 75.7257 97.0421 75.7002 96.7488Z" fill="white"/>
<path d="M75.5806 106.577C74.7714 106.577 74.6975 106.391 74.7791 105.527C74.867 104.599 75.0365 103.675 75.0556 102.749C75.076 101.768 75.3589 100.824 75.3385 99.8393C75.3283 99.3328 76.1311 98.9723 76.8104 99.1067C77.3468 99.2126 77.552 99.6261 77.4539 100.207C77.2322 101.514 77.0474 102.825 76.8537 104.137C76.7607 104.761 76.725 105.398 76.5835 106.01C76.4688 106.506 76.0228 106.581 75.5819 106.577H75.5806Z" fill="#E72F2A"/>
<path d="M63.1889 99.1041C64.0121 99.1067 64.2785 99.3948 64.3804 100.224C64.5639 101.708 64.7946 103.184 64.9972 104.664C65.0507 105.06 65.0787 105.46 65.1284 105.856C65.1922 106.369 64.7513 106.515 64.3473 106.567C63.8287 106.633 63.3368 106.516 63.2399 105.905C62.9303 103.954 62.6219 102.003 62.2128 100.071C62.0956 99.5202 62.5046 98.9646 63.1902 99.1028L63.1889 99.1041Z" fill="#E72F2A"/>
<path d="M73.0296 100.896C72.9493 102.489 72.8831 104.214 72.7646 105.934C72.7289 106.452 72.2803 106.563 71.8368 106.575C71.4061 106.586 70.992 106.505 70.9614 105.974C70.8391 103.887 71.0047 101.801 71.0124 99.7127C71.0136 99.285 71.3857 99.1868 71.7107 99.1145C71.9133 99.0693 72.1338 99.0912 72.3453 99.108C72.8028 99.1416 73.0959 99.3251 73.036 99.8651C73.0029 100.162 73.0296 100.466 73.0296 100.896Z" fill="#E72F2A"/>
<path d="M68.7093 101.673C68.6609 103.174 68.8928 104.463 68.8457 105.768C68.824 106.354 68.6036 106.568 68.0709 106.578C67.4605 106.591 67.0871 106.33 67.0489 105.807C66.9559 104.519 66.9329 103.223 66.7749 101.944C66.6883 101.242 66.7061 100.546 66.6526 99.8495C66.6067 99.2694 66.9469 99.1234 67.4235 99.104C68.1359 99.0756 68.5296 99.3056 68.5742 99.7823C68.6392 100.477 68.7922 101.167 68.7106 101.671L68.7093 101.673Z" fill="#E72F2A"/>
<path d="M64.7498 96.7966C64.8543 97.1932 64.523 97.3728 64.2732 97.3922C63.9407 97.418 63.8081 97.0278 63.761 96.7668C63.7036 96.449 63.961 96.2836 64.2771 96.2707C64.625 96.2578 64.7881 96.4258 64.7498 96.7979V96.7966Z" fill="#E72F2A"/>
<path d="M75.6989 96.7475C75.7231 97.0421 75.6759 97.307 75.3319 97.2889C75.0452 97.2747 74.7151 97.2165 74.6909 96.8263C74.6692 96.4723 74.8935 96.3031 75.2236 96.2708C75.5753 96.2359 75.7346 96.4038 75.6989 96.7475Z" fill="#E72F2A"/>
</svg>
