<svg width="140" height="140" viewBox="0 0 140 140" fill="none" xmlns="http://www.w3.org/2000/svg">
<rect width="140" height="140" rx="30" fill="white"/>
<g clip-path="url(#clip0_819_834)">
<path d="M53.6511 56.2506C53.6613 48.591 58.968 42.4675 65.1839 40.6322C66.5105 40.2409 67.8503 40.0701 69.231 40.0161C74.0823 39.8233 78.2593 41.3652 81.6847 44.8022C84.0841 47.2084 85.5012 50.1241 86.0923 53.4939C86.4616 55.5979 86.4411 57.6624 86.0179 59.7211C85.437 62.5434 84.2578 65.1278 82.2408 67.2069C78.6723 70.8848 75.012 74.4737 71.3896 78.099C71.3575 78.1311 71.2976 78.1399 71.2699 78.1749C70.8948 78.6421 70.5066 79.3649 69.9855 79.3298C69.5404 79.3006 69.1274 78.6188 68.7173 78.21C65.4159 74.9146 62.1336 71.6017 58.8162 68.3238C57.3333 66.8594 56.0578 65.2343 55.1704 63.3684C54.0641 61.041 53.5081 58.5575 53.6496 56.2535L53.6511 56.2506ZM83.6404 56.4126C83.6477 55.7089 83.5251 55.0212 83.458 54.3291C83.2989 52.6617 82.7574 51.1374 81.9649 49.7007C80.2719 46.6316 77.7281 44.5408 74.4151 43.4151C71.4056 42.3916 68.3743 42.3843 65.3721 43.4472C62.4065 44.497 60.0888 46.4141 58.4017 49.0349C56.7437 51.6119 56.0928 54.443 56.3599 57.5412C56.5263 59.4583 57.1305 61.1651 57.9989 62.8311C58.8673 64.4941 60.1589 65.8038 61.471 67.1076C64.1301 69.7518 66.7703 72.4135 69.4003 75.0869C69.7914 75.484 70.06 75.5614 70.454 75.1059C70.7664 74.7452 71.1852 74.478 71.5253 74.1378C74.31 71.3593 77.1063 68.5925 79.8589 65.7833C82.4013 63.1903 83.5426 60.0058 83.6375 56.4141L83.6404 56.4126Z" fill="#1FDBCF"/>
<path d="M91.9812 88.007C92.006 87.8289 92.0177 87.7851 92.0177 87.7398C92.04 86.7148 92.5552 86.2023 93.5633 86.2023C94.6734 86.2023 95.2285 86.7455 95.2285 87.8318C95.23 90.5256 95.2271 93.218 95.2431 95.9118C95.2475 96.7908 95.5759 97.1353 96.4311 97.1529C96.8047 97.1602 96.8763 97.2959 96.8617 97.6201C96.8412 98.08 96.8252 98.5443 96.866 99.0028C96.904 99.4452 96.7726 99.6583 96.31 99.727C94.4258 100.004 93.0612 99.6247 92.384 97.9179C92.1023 97.9719 91.9389 98.2026 91.7768 98.391C90.9873 99.3079 89.9087 99.5707 88.7951 99.8058C87.4583 100.089 86.1666 99.8408 84.9859 99.3021C83.849 98.7823 82.9456 97.8916 82.2333 96.8258C81.1942 95.2694 80.8702 93.5392 81.1095 91.7389C81.4248 89.3692 83.4126 86.5732 86.3564 86.0593C88.1311 85.7497 89.7307 85.9614 91.2062 87.001C91.5273 87.2273 91.7404 87.5471 91.9797 88.0055L91.9812 88.007ZM88.0348 88.8553C85.6806 88.6728 84.1861 90.8308 84.1803 92.8281C84.173 95.2562 86.1053 97.1777 88.3398 97.0098C90.5334 96.8448 92.3285 95.3949 92.2891 92.8325C92.2526 90.5081 90.7873 88.6976 88.0348 88.8553Z" fill="#303AB2"/>
<path d="M121.09 87.8143C121.172 87.3018 121.229 86.7937 121.102 86.2038C122.054 86.2038 122.997 86.2155 123.939 86.1994C124.449 86.1907 124.3 86.5499 124.3 86.8024C124.307 89.5693 124.301 92.3361 124.307 95.1015C124.307 95.4636 124.338 95.8286 124.376 96.1892C124.443 96.8389 124.786 97.2171 125.469 97.1587C125.878 97.1237 126.041 97.2434 125.996 97.6697C125.961 98.0055 125.988 98.3487 125.988 98.6888C125.988 99.6379 125.889 99.7824 124.932 99.7927C123.566 99.8073 122.744 100.104 121.4 97.9296C119.057 100.726 114.14 100.52 111.724 97.3733C109.282 94.1948 109.565 89.8569 112.917 87.1791C115.483 85.1292 119.603 85.5979 121.092 87.8128L121.09 87.8143ZM117.216 88.8553C114.899 88.5954 113.217 90.8468 113.294 92.9508C113.376 95.1803 115.139 97.0755 117.315 97.0127C119.307 96.9558 121.46 95.4869 121.368 92.6383C121.302 90.6322 119.638 88.6596 117.217 88.8553H117.216Z" fill="#303AB2"/>
<path d="M66.373 92.9114C66.6007 96.8229 63.1403 99.7314 59.6799 99.9314C54.7293 100.218 51.8045 96.3674 51.8337 92.8267C51.8658 89.0451 54.8008 85.8096 59.1457 85.8009C63.0819 85.7921 66.573 88.7312 66.373 92.9114ZM59.1617 88.7166C56.6529 88.4713 54.9614 90.9023 54.9555 92.8355C54.9497 94.6781 56.5186 97.1543 59.0304 97.0989C61.6034 97.0419 63.2745 95.3336 63.3066 92.7844C63.3358 90.4775 61.4867 88.5662 59.1617 88.7166Z" fill="#303AB2"/>
<path d="M27.7129 92.8354C27.4342 89.0028 31.0814 85.7235 34.8746 85.7819C39.0283 85.8461 42.2552 88.8203 42.188 92.888C42.118 97.0974 38.964 99.6145 35.4744 99.9416C30.9953 100.362 27.3641 96.3542 27.7115 92.834L27.7129 92.8354ZM34.9213 88.7181C32.3672 88.5137 30.7443 90.8717 30.772 92.8311C30.8085 95.3803 32.716 97.1733 34.8921 97.131C37.2141 97.0857 39.0793 95.4767 39.1071 92.8471C39.1319 90.5461 37.3469 88.5502 34.9213 88.7181Z" fill="#303AB2"/>
<path d="M103.844 85.7848C105.302 85.8855 106.682 86.1761 107.771 87.2755C108.059 87.5661 108.159 87.7734 107.806 88.0961C107.38 88.4859 107.078 89.0699 106.593 89.3225C106.049 89.6058 105.722 88.8349 105.191 88.7064C104.446 88.5253 103.699 88.518 102.971 88.6129C102.508 88.6728 102.224 89.1459 102.111 89.597C102.006 90.0204 102.329 90.2818 102.637 90.5285C103.453 91.1856 104.479 91.298 105.42 91.6309C106.408 91.9798 107.371 92.3814 108.126 93.1406C109.629 94.6532 109.423 97.7851 107.215 99.032C104.894 100.342 101.573 100.196 99.4346 98.6509C99.3762 98.6086 99.3207 98.5604 99.2638 98.5151C98.8391 98.1822 98.3458 97.7792 98.2568 97.312C98.1677 96.8462 98.8683 96.6579 99.1981 96.3235C99.4652 96.052 99.7557 95.6943 100.088 95.6227C100.443 95.5453 100.577 96.0812 100.868 96.2797C102.237 97.2171 103.69 97.5062 105.27 96.8594C105.875 96.6112 106.085 96.1629 106.023 95.5278C105.967 94.9628 105.613 94.7335 105.135 94.5335C103.69 93.9276 102.146 93.5786 100.79 92.7332C98.6946 91.4265 98.6333 88.429 100.44 86.9163C101.237 86.2505 102.713 85.7395 103.844 85.7833V85.7848Z" fill="#303AB2"/>
<path d="M74.46 99.8482C71.2054 100.152 67.7041 96.325 67.78 93.0442C67.8486 90.1197 69.0527 88.0012 71.4973 86.6024C72.9305 85.7833 74.5461 85.5994 76.2231 85.8987C77.611 86.1469 78.8355 86.6521 79.9068 87.5617C80.2819 87.88 80.476 88.1486 79.955 88.4903C79.8951 88.5283 79.8572 88.5969 79.8046 88.648C79.4077 89.0378 79.0705 89.5547 78.5962 89.7854C78.0212 90.0643 77.684 89.3415 77.1936 89.1371C75.7998 88.5589 74.371 88.4275 73.0473 89.0729C71.8855 89.6394 71.0843 90.7008 70.9091 92.0383C70.7428 93.3158 70.8683 94.5875 71.8023 95.6023C72.5043 96.3659 73.3144 96.9747 74.4163 97.0288C75.7765 97.0945 77.0535 96.909 78.0839 95.8914C78.3218 95.6578 78.5787 95.668 78.8224 95.9658C79.0968 96.3031 79.4237 96.5995 79.7244 96.9149C80.3724 97.5938 80.4001 97.6259 79.6718 98.2538C78.1759 99.5415 76.4157 100.029 74.4615 99.8409V99.8482H74.46Z" fill="#303AB2"/>
<path d="M44.8197 92.7493C44.8197 91.7287 44.7861 90.7067 44.8328 89.689C44.8591 89.1196 44.6548 88.9444 44.1279 89.0203C43.9615 89.0437 43.7864 89.0101 43.6185 89.0276C43.277 89.0612 43.1325 88.9342 43.1602 88.5764C43.1865 88.2392 43.1603 87.896 43.1661 87.5573C43.1719 87.147 43.0479 86.6506 43.2361 86.3513C43.4273 86.0461 43.9557 86.2578 44.3351 86.2389C44.7817 86.2184 44.8241 85.9469 44.8226 85.5964C44.8153 84.2853 44.8386 82.9727 44.8095 81.6616C44.7992 81.1914 44.9204 81.006 45.4166 81.0352C46.0704 81.0746 46.7287 81.0702 47.384 81.0381C47.851 81.0147 48.0174 81.152 48.0028 81.6484C47.9663 82.9347 48.0247 84.224 47.9736 85.5103C47.9503 86.1162 48.1619 86.2286 48.7136 86.2213C49.4287 86.2111 50.4357 85.8826 50.7889 86.36C51.1523 86.8506 50.8765 87.8011 50.9159 88.5487C50.9378 88.9488 50.7773 89.0451 50.4095 89.032C49.7542 89.0086 49.0974 89.0378 48.4421 89.0203C48.0933 89.0101 47.9824 89.14 47.9853 89.4861C48.0028 91.5754 47.9897 93.6648 48.0159 95.7527C48.0261 96.49 48.6333 97.0229 49.3659 97.0244C50.2922 97.0263 50.7554 97.497 50.7554 98.4363C50.7554 99.9445 50.7554 99.9372 49.1748 99.9474C47.6306 99.9577 46.3127 99.5445 45.4341 98.1516C45.0036 97.4697 44.9072 96.7119 44.8664 95.9585C44.808 94.8927 44.8518 93.8225 44.8518 92.7537H44.8211L44.8197 92.7493Z" fill="#303AB2"/>
<path d="M24.3125 99.7182C23.9359 100.121 23.4514 99.8963 23.0252 99.9022C22.4298 99.9095 21.6373 100.188 21.2885 99.7795C20.9951 99.4364 21.1805 98.6714 21.179 98.0932C21.1732 95.4227 21.1644 92.7537 21.1878 90.0832C21.1921 89.5854 21.0725 89.4189 20.5485 89.4233C19 89.4364 19 89.4131 19 87.8946C19 86.5616 19 86.528 20.385 86.5732C21.0112 86.5937 21.2593 86.4491 21.1878 85.7833C21.0841 84.8066 21.2768 83.8487 21.7467 82.9931C22.4298 81.7492 23.5696 81.2075 24.9561 81.1345C25.0773 81.1286 25.1984 81.1374 25.3195 81.1374C27.5263 81.1374 27.57 81.1958 27.3117 83.4166C27.2752 83.729 27.1453 83.767 26.8972 83.7553C26.582 83.7407 26.2667 83.7334 25.9515 83.7378C24.7387 83.7568 23.79 85.2344 24.257 86.3615C24.3621 86.6156 24.5679 86.5499 24.746 86.5528C25.2801 86.563 25.8143 86.5747 26.3485 86.5528C26.7133 86.5382 26.8826 86.6404 26.8637 87.0405C26.8359 87.6697 26.8403 88.3034 26.8607 88.9327C26.8724 89.2948 26.779 89.4992 26.3762 89.4364C26.3295 89.4291 26.2784 89.432 26.2302 89.4364C25.6114 89.4875 24.7985 89.159 24.422 89.5824C24.0556 89.9927 24.3198 90.7899 24.3183 91.4163C24.3081 94.1831 24.3154 96.9499 24.3183 99.7168H24.3154L24.3125 99.7182Z" fill="#303AB2"/>
<path d="M69.9752 52.2762C74.0296 52.1872 77.3456 55.446 77.3383 59.508C77.331 63.6137 73.745 66.7849 69.8395 66.6871C65.966 66.5907 62.5757 63.6516 62.5684 59.3065C62.5625 55.5512 65.8785 52.1171 69.9752 52.2762ZM65.7734 59.3634C65.6245 61.6805 67.6371 63.8925 69.9796 63.7655C72.3848 63.6341 74.1741 62.2806 74.2004 59.4262C74.2252 56.8652 72.5658 55.2869 70.3722 55.2139C67.605 55.1205 65.788 56.8185 65.7719 59.3634H65.7734Z" fill="#1FDBCF"/>
<path d="M70.0409 50.2628C68.7084 50.2628 67.3759 50.2468 66.0449 50.2716C65.6012 50.2803 65.4596 50.1446 65.4626 49.6963C65.464 49.0729 65.5691 48.4436 65.3808 47.8216C65.2845 47.5047 65.5384 47.4697 65.7705 47.4697C68.4589 47.4697 71.1487 47.4653 73.837 47.4814C74.3172 47.4843 74.5828 47.6887 74.5872 48.2698C74.6003 50.2614 74.6251 50.2614 72.6578 50.2614C71.7865 50.2614 70.9137 50.2614 70.0424 50.2614L70.0409 50.2628Z" fill="#1FDBCF"/>
</g>
<defs>
<clipPath id="clip0_819_834">
<rect width="107" height="60" fill="white" transform="translate(19 40)"/>
</clipPath>
</defs>
</svg>
