<svg width="140" height="140" viewBox="0 0 140 140" fill="none" xmlns="http://www.w3.org/2000/svg">
<rect width="140" height="140" rx="30" fill="#F16122"/>
<g clip-path="url(#clip0_2643_317)">
<path d="M34 66.9798C57.9726 54.9999 81.9451 43.0208 106 31C105.921 31.6198 105.857 32.1692 105.781 32.7176C105.368 35.7133 104.734 38.6697 104.203 41.6445C103.961 42.9965 103.693 44.345 103.493 45.7031C103.278 47.1709 102.478 48.1415 101.176 48.7727C94.6542 51.9346 88.191 55.2167 81.7104 58.4622C80.3315 59.1525 78.9508 59.8377 77.5944 60.5707C77.3259 60.7161 77.2844 60.8205 77.4463 61.0861C78.7828 63.2677 80.1124 65.4537 81.4254 67.6502C81.6039 67.9488 81.752 67.914 82.0084 67.7869C87.4262 65.089 92.8466 62.398 98.267 59.7062C99.1184 59.2831 99.9707 58.8618 100.825 58.4439C100.91 58.4021 100.988 58.3203 101.139 58.3751C100.946 59.4024 100.748 60.4358 100.558 61.47C99.8217 65.4955 99.0786 69.5202 98.3596 73.5483C98.1691 74.6174 97.6321 75.3513 96.6481 75.8266C94.1579 77.0306 91.666 78.2328 89.2624 79.611C88.9445 79.7929 88.877 79.9165 89.0727 80.263C90.695 83.1333 92.384 85.9644 94.1562 88.7415C95.018 90.0926 95.1038 91.4385 94.8093 92.9647C93.7846 98.2743 92.8388 103.599 91.8626 108.917C91.8132 109.187 91.7362 109.454 91.711 109.727C91.6816 110.044 91.511 110.028 91.2935 109.95C90.9341 109.823 90.6907 109.563 90.5097 109.238C88.7748 106.132 86.8588 103.136 85.0209 100.092C81.1786 93.7325 77.2974 87.3947 73.598 80.9499C72.1082 78.3556 69.9316 76.8774 67.0793 76.167C60.28 74.4737 53.5301 72.5863 46.7749 70.7224C43.1544 69.7239 39.5313 68.7323 35.9133 67.7251C35.2672 67.5448 34.6384 67.3037 34.0017 67.0904V66.9764L34 66.9798Z" fill="white"/>
</g>
<defs>
<clipPath id="clip0_2643_317">
<rect width="72" height="79" fill="white" transform="translate(34 31)"/>
</clipPath>
</defs>
</svg>
