<svg width="140" height="140" viewBox="0 0 140 140" fill="none" xmlns="http://www.w3.org/2000/svg">
<rect width="140" height="140" rx="30" fill="white"/>
<g clip-path="url(#clip0_2711_1472)">
<path d="M108.317 84.9995L68.8285 108.105V85.9867H47.1401V93.6412H60.3583V113.061L57.6378 114.653C48.0022 120.291 36.3286 115.202 32.9551 105.432C32.822 105.049 32.7026 104.658 32.5969 104.259L32.5948 104.252C32.4226 103.606 32.2853 102.942 32.187 102.263C32.1807 102.221 32.1743 102.179 32.169 102.137C32.0898 101.559 32.037 100.97 32.0137 100.371V100.358C32.0042 100.124 32 99.8888 32 99.6522V66.1582C32.1796 66.0821 32.3592 66.0083 32.5399 65.9354C40.7713 62.5895 50.6425 61.4063 63.9389 64.7362L65.3409 57.0817C51.7645 52.4091 41.158 53.376 32.6297 57.7017C32.4184 57.8087 32.2081 57.918 32 58.0293V40.3465C32 27.0129 46.2431 18.6795 57.6378 25.3458L108.317 54.9992C119.712 61.6654 119.712 78.3332 108.317 84.9995Z" fill="url(#paint0_linear_2711_1472)"/>
<path opacity="0.16" d="M103.873 86.702C107.144 72.3791 95.9085 76.4864 91.8715 69.2301C91.1214 67.8821 90.7632 66.3446 90.7875 64.7974C90.8647 59.9021 92.5625 58.2007 96.4738 56.8731C100.949 55.3537 110.911 56.7756 113.929 65.9206C116.326 73.1864 113.178 82.4727 103.89 86.9943C103.878 86.9997 103.869 86.7149 103.873 86.7031V86.702Z" fill="black"/>
<path opacity="0.16" d="M74.2613 62.52C73.189 69.652 65.3801 75.3857 54.1017 80.4009C42.0002 86.1474 34.3414 94.818 32.9552 105.432L32.5971 104.26L32.5949 104.252C32.3562 103.541 32.2273 102.838 32.1692 102.137C32.1597 102.034 32.1533 101.929 32.147 101.824L32.54 65.9356C40.7714 62.5896 50.6426 61.4065 63.939 64.7364L65.3411 57.0819C51.7646 52.4093 41.1581 53.3761 32.6298 57.7018L32.7355 48.0975C36.409 57.7425 43.2215 52.7444 50.2781 47.2088C50.9427 46.6874 51.7773 46.2355 52.7049 45.8437C59.2195 43.0984 66.5476 45.0513 70.8456 50.195C71.9613 51.5313 72.8731 53.0827 73.5133 54.8227C74.3628 57.1343 74.7473 59.7233 74.2613 62.52Z" fill="black"/>
<path d="M72.8877 60.5927C71.8154 67.7247 64.0065 73.4584 52.727 78.4736C40.6266 84.2201 33.5732 91.6498 32.187 102.263L32.1469 101.824L32.0137 100.371V100.358L32 95.938V66.1583C32.1796 66.0823 32.3592 66.0084 32.5399 65.9356C40.7713 62.5896 50.6425 61.4065 63.9389 64.7364L65.3409 57.0819C51.7645 52.4093 41.158 53.3761 32.6297 57.7018C32.4184 57.8089 32.2081 57.9181 32 58.0294V43.4613C35.6736 53.1063 41.8479 50.8171 48.9045 45.2815C49.569 44.7601 50.4037 44.3082 51.3313 43.9164C58.6056 40.8509 66.894 43.6433 70.8455 50.195C71.3515 51.0345 71.7868 51.936 72.1397 52.8954C72.9892 55.207 73.3737 57.796 72.8877 60.5927Z" fill="url(#paint1_linear_2711_1472)"/>
<path d="M106.173 85.9525C109.444 71.6296 98.2086 75.7369 94.1716 68.4806C93.4214 67.1326 93.0633 65.5951 93.0876 64.0479C93.1647 59.1526 94.8626 57.4512 98.7738 56.1235C103.249 54.6042 113.211 56.0261 116.229 65.1711C118.626 72.4369 115.478 81.7232 106.19 86.2448C106.178 86.2502 106.17 85.9654 106.173 85.9536V85.9525Z" fill="url(#paint2_linear_2711_1472)"/>
</g>
<defs>
<linearGradient id="paint0_linear_2711_1472" x1="73.753" y1="27.2495" x2="74.7296" y2="107.874" gradientUnits="userSpaceOnUse">
<stop stop-color="#FFAD15"/>
<stop offset="0.15" stop-color="#FDA117"/>
<stop offset="0.43" stop-color="#F9811F"/>
<stop offset="0.79" stop-color="#F34F2C"/>
<stop offset="1" stop-color="#EF2F34"/>
</linearGradient>
<linearGradient id="paint1_linear_2711_1472" x1="27.1452" y1="92.1905" x2="54.6269" y2="50.7546" gradientUnits="userSpaceOnUse">
<stop stop-color="#FFAD15"/>
<stop offset="0.15" stop-color="#FDA117"/>
<stop offset="0.43" stop-color="#F9811F"/>
<stop offset="0.79" stop-color="#F34F2C"/>
<stop offset="1" stop-color="#EF2F34"/>
</linearGradient>
<linearGradient id="paint2_linear_2711_1472" x1="112.073" y1="75.6298" x2="98.9762" y2="62.2759" gradientUnits="userSpaceOnUse">
<stop stop-color="#FFAD15"/>
<stop offset="0.15" stop-color="#FDA117"/>
<stop offset="0.43" stop-color="#F9811F"/>
<stop offset="0.79" stop-color="#F34F2C"/>
<stop offset="1" stop-color="#EF2F34"/>
</linearGradient>
<clipPath id="clip0_2711_1472">
<rect width="85" height="94" fill="white" transform="translate(32 23)"/>
</clipPath>
</defs>
</svg>
