<svg width="140" height="140" viewBox="0 0 140 140" fill="none" xmlns="http://www.w3.org/2000/svg">
<rect width="140" height="140" rx="30" fill="#5A3CB6"/>
<g clip-path="url(#clip0_700_1532)">
<path d="M37.7362 77.4535C37.2488 77.7345 36.8143 78.0291 36.3449 78.2487C34.1026 79.3001 31.7726 79.5062 29.3738 78.8764C26.1631 78.0343 24.1376 75.9212 22.9165 72.9713C22.2156 71.2746 21.9566 69.4904 22.0052 67.6709C22.0676 65.3361 22.6945 63.1408 24.0678 61.2287C25.7223 58.9241 28.0449 57.6167 30.8697 57.1608C32.7431 56.8589 34.6069 56.9005 36.4485 57.3398C38.583 57.8488 40.34 58.9491 41.6404 60.7155C43.002 62.5652 43.6691 64.6668 43.871 66.9111C43.9947 68.2799 44.0381 69.6591 44.0444 71.0331C44.0603 74.0747 44.0772 77.1173 44.0021 80.1567C43.9493 82.275 43.4989 84.3319 42.4512 86.2159C41.356 88.1874 39.7195 89.5583 37.5649 90.2932C35.4199 91.0239 33.2188 91.1717 30.9755 90.8147C28.9139 90.4858 27.0057 89.7602 25.2709 88.635C24.607 88.2051 24.0488 87.616 23.4599 87.0799C23.3658 86.9945 23.2992 86.7843 23.3373 86.6687C23.6121 85.8308 24.0022 85.0397 24.719 84.488C25.736 83.7052 26.8376 83.7385 27.9466 84.3131C29.1391 84.9304 30.3369 85.5414 31.6869 85.7496C32.7653 85.9161 33.851 85.9422 34.8976 85.5882C36.2466 85.1313 37.1093 84.1757 37.4275 82.8267C37.6347 81.9502 37.7066 81.0353 37.77 80.1338C37.825 79.3448 37.7837 78.5485 37.7806 77.7564C37.7806 77.6606 37.751 77.5648 37.733 77.4545L37.7362 77.4535ZM37.9212 67.9405C37.807 67.1317 37.7457 66.3115 37.5639 65.5183C37.3535 64.5961 36.9433 63.7446 36.1863 63.1148C33.7051 61.0517 29.6138 62.3123 28.693 65.3924C28.3367 66.5832 28.2035 67.7875 28.2902 69.0106C28.3801 70.2732 28.712 71.4713 29.6297 72.4279C30.7693 73.6156 32.2251 73.9237 33.7981 73.7738C35.4579 73.6156 36.6388 72.7641 37.2911 71.2309C37.7383 70.1795 37.863 69.0772 37.9212 67.9395V67.9405Z" fill="#F5CA0F"/>
<path d="M53.4091 71.1986C53.3604 72.0928 53.5359 72.9734 53.981 73.7884C54.7813 75.254 56.1165 75.9109 57.7287 76.1357C59.6105 76.398 61.3655 75.9785 63.0675 75.2207C63.4259 75.0615 63.8055 74.9366 64.1882 74.847C65.6429 74.5087 66.5668 74.8918 67.3291 76.1523C67.5363 76.4959 67.6727 76.8789 67.8513 77.2401C67.975 77.4889 67.9063 77.671 67.7128 77.8595C66.848 78.7026 65.8162 79.299 64.7294 79.8039C62.5537 80.8136 60.2755 81.4027 57.8535 81.3122C54.8278 81.1987 52.1774 80.1911 50.1022 77.9656C48.9266 76.7051 48.1644 75.2009 47.7087 73.5438C47.1315 71.4422 47.0839 69.3177 47.3704 67.1744C47.622 65.2966 48.2077 63.5291 49.2628 61.9417C51.2915 58.8887 54.1924 57.2795 57.8725 57.0057C59.9626 56.8506 61.9924 57.1462 63.8879 58.0216C66.6757 59.3093 68.2784 61.4504 68.4729 64.5388C68.5596 65.9118 68.3175 67.2098 67.5817 68.3819C66.8618 69.529 65.775 70.2555 64.5138 70.7208C62.0495 71.6316 59.4784 71.6608 56.8999 71.5213C55.7581 71.4599 54.6217 71.3121 53.4122 71.1976L53.4091 71.1986ZM58.418 67.6657C58.4223 67.6283 58.4265 67.5898 58.4297 67.5523C58.8515 67.5523 59.2765 67.5846 59.6951 67.5429C60.1127 67.5023 60.5271 67.4066 60.9341 67.3025C62.3973 66.9298 63.2155 65.6297 62.8138 64.3306C62.5252 63.4001 61.8539 62.813 60.9669 62.4872C59.5968 61.9834 58.2066 62.0188 56.8185 62.4622C55.0826 63.016 53.6448 64.8938 53.5772 66.6873C53.5655 66.9808 53.6522 67.1193 53.9525 67.1526C55.442 67.3191 56.9295 67.494 58.418 67.6657Z" fill="#F5CA0F"/>
<path d="M78.773 49.024C78.7296 50.0618 78.662 51.0715 78.6514 52.0812C78.6366 53.5228 78.6651 54.9656 78.6704 56.4072C78.6736 57.1567 78.6704 57.1577 79.4527 57.1577C81.3409 57.1577 83.229 57.1671 85.1161 57.1463C85.5263 57.1421 85.6341 57.2639 85.6077 57.6574C85.4438 60.0733 83.8707 62.0709 80.8451 62.1167C80.2509 62.126 79.6568 62.1177 79.0626 62.1198C78.9358 62.1198 78.8079 62.1312 78.6144 62.1396C78.6144 64.084 78.625 65.991 78.6112 67.899C78.5985 69.629 78.5964 71.3538 79.0013 73.0546C79.4379 74.8918 81.2796 76.4053 83.1899 76.4543C84.246 76.4813 85.2937 76.4282 86.3245 76.1701C86.4069 76.1493 86.6004 76.2627 86.6205 76.3439C87.1438 78.4778 86.2959 80.2952 84.1223 81.1426C82.4298 81.8025 80.6833 81.689 78.9453 81.2706C77.5699 80.9396 76.3626 80.29 75.3551 79.321C74.2207 78.2301 73.4807 76.8904 73.0229 75.4009C72.5652 73.9113 72.3727 72.3853 72.378 70.8291C72.3928 65.6298 72.3833 60.4304 72.415 55.231C72.4203 54.3535 72.5091 53.4625 72.6846 52.6027C72.9965 51.0777 74.0315 50.1149 75.4545 49.5413C76.4176 49.1531 77.4409 49.0448 78.4717 48.999C78.5721 48.9948 78.6746 49.0136 78.7751 49.0219L78.773 49.024Z" fill="#F5CA0F"/>
<path d="M109.413 81.4079C108.123 81.4204 106.882 81.4464 105.693 81.0321C104.164 80.4992 103.328 79.3989 103.121 77.8344C103.035 77.1787 102.964 76.5166 102.962 75.8567C102.951 73.1409 102.914 70.4231 102.994 67.7084C103.072 65.0811 103.845 62.6631 105.729 60.7082C106.94 59.4518 108.45 58.7128 110.159 58.2975C112.212 57.7989 114.294 57.854 116.376 57.8623C116.489 57.8623 116.676 57.9623 116.705 58.0539C116.962 58.8689 117.106 59.7079 116.908 60.551C116.624 61.7606 115.707 62.3383 114.573 62.6152C113.807 62.8015 113.015 62.8796 112.244 63.044C110.433 63.4302 109.57 64.6804 109.359 66.3261C109.273 66.9922 109.266 67.672 109.265 68.3454C109.261 71.8804 109.263 75.4153 109.283 78.9503C109.287 79.7529 109.366 80.5554 109.413 81.41V81.4079Z" fill="#F5CA0F"/>
<path d="M96.8076 57.8197C96.7579 58.9991 96.6786 60.0608 96.6754 61.1225C96.6627 65.5943 96.667 70.0661 96.6775 74.5389C96.6807 75.6746 97.2315 76.5833 98.184 76.8112C98.7761 76.9528 99.4326 76.8331 100.061 76.8217C100.172 76.8196 100.283 76.7748 100.438 76.7405C100.588 77.7168 100.745 78.6495 100.378 79.5738C99.9115 80.747 98.9294 81.2955 97.7643 81.5516C95.9914 81.9419 94.3063 81.7285 92.7913 80.6658C91.8018 79.9715 91.1114 79.0388 90.7805 77.9032C90.5575 77.1391 90.3947 76.3272 90.3894 75.5361C90.364 71.4412 90.3894 67.3472 90.4158 63.2523C90.4232 62.0833 90.623 60.9445 91.3324 59.9619C92.1655 58.8086 93.396 58.3006 94.7439 58.0414C95.4089 57.9134 96.0961 57.8936 96.8076 57.8207V57.8197Z" fill="#F5CA0F"/>
<path d="M90.3728 52.5995C90.3337 50.7311 91.9332 49.0136 93.8837 49.0042C95.6376 48.9959 97.0838 50.4479 97.0828 52.1634C97.0806 54.2369 95.5149 55.8232 93.483 55.8097C91.7186 55.7983 90.3685 54.4034 90.3738 52.6006L90.3728 52.5995Z" fill="#F5CA0F"/>
</g>
<defs>
<clipPath id="clip0_700_1532">
<rect width="95" height="42" fill="white" transform="translate(22 49)"/>
</clipPath>
</defs>
</svg>
