<svg width="140" height="140" viewBox="0 0 140 140" fill="none" xmlns="http://www.w3.org/2000/svg">
<rect width="140" height="140" rx="30" fill="white"/>
<path d="M16.0459 73.5274C16.0459 73.0267 16.0631 72.5202 16.0631 72.0195C16.0631 71.3733 16.2236 70.7678 16.493 70.1798C16.7395 69.6616 17.0147 69.161 17.3415 68.6894C17.8631 67.9384 18.5281 67.3329 19.2906 66.8497C19.7606 66.5527 20.3167 66.4072 20.8728 66.2849C21.5034 66.1452 22.1282 66.0637 22.7703 66.087C23.2805 66.1045 23.7677 66.2267 24.2435 66.4072C24.4614 66.4887 24.685 66.5469 24.8971 66.6401C25.2811 66.8089 25.5907 67.0884 25.9003 67.3678C25.9691 67.4318 26.0321 67.5017 26.1009 67.5716C26.3474 67.7986 26.4162 67.7986 26.7315 67.6647C27.3105 67.4202 27.901 67.2048 28.4799 66.9603C28.9156 66.774 29.3857 66.7099 29.7985 66.4538C29.9934 66.3315 30.1424 66.4305 30.1309 66.675C30.1137 67.3329 30.1596 67.9966 30.1653 68.6545C30.1653 71.4839 30.1768 74.3192 30.1653 77.1486C30.1596 78.3247 30.1195 79.5007 29.8959 80.6592C29.8042 81.1541 29.5749 81.5908 29.3685 82.0332C29.0131 82.7901 28.4799 83.4188 27.792 83.8729C27.2761 84.2164 26.7544 84.5483 26.1525 84.7579C25.0518 85.1421 23.9225 85.276 22.7703 85.2586C21.9906 85.2469 21.2282 85.1072 20.4715 84.9092C19.732 84.7171 19.0842 84.3503 18.4937 83.8846C17.9434 83.4479 17.5478 82.8541 17.0778 82.336C16.9459 82.1904 16.9631 82.0798 17.1122 81.9342C17.3243 81.7247 17.5937 81.5966 17.8402 81.4394C18.5625 80.9853 19.3422 80.636 20.0358 80.1295C20.1963 80.013 20.4428 80.0712 20.5517 80.2692C20.8785 80.8514 21.4002 81.2007 21.9792 81.4568C22.4206 81.6548 22.9136 81.6664 23.3894 81.6257C23.6932 81.6024 23.997 81.5733 24.3009 81.5209C24.5818 81.4743 24.8111 81.3346 25.0174 81.1774C25.757 80.6185 26.1754 79.8849 26.1984 78.936C26.2041 78.6623 26.2385 78.3887 26.2614 78.0918C26.0493 78.0452 25.8831 78.1267 25.757 78.2606C25.3499 78.6973 24.8225 78.9127 24.2837 79.1223C23.269 79.5182 22.2199 79.4716 21.1709 79.3086C20.7925 79.2503 20.4084 79.2096 20.053 79.0524C19.4167 78.7729 18.8262 78.4178 18.3103 77.9462C17.8861 77.5562 17.5306 77.1021 17.1523 76.6654C16.9173 76.3918 16.8485 76.025 16.6708 75.7223C16.4701 75.3846 16.3268 75.012 16.2465 74.6277C16.172 74.2784 16.0344 73.9349 16.0516 73.5623C16.0631 73.5507 16.0574 73.5332 16.0516 73.5216L16.0459 73.5274ZM23.2805 75.6932C24.1174 75.7514 24.9601 75.2914 25.5735 74.3949C26.0665 73.6729 26.2098 72.8579 26.0264 72.0021C25.906 71.4432 25.6652 70.9483 25.2009 70.5757C24.8455 70.2904 24.4385 70.1216 24.0142 69.9877C23.7505 69.9003 23.4754 69.8479 23.2059 69.7955C22.776 69.7082 22.3632 69.8305 21.939 69.9527C21.3944 70.1099 20.9645 70.3894 20.5804 70.7911C20.0874 71.3151 19.8237 71.9205 19.8868 72.6541C19.8982 72.788 19.8982 72.9161 19.9211 73.05C19.9842 73.4284 19.9899 73.8243 20.225 74.1562C20.9129 75.1168 21.8186 75.6699 23.2805 75.699V75.6932Z" fill="#221E1F"/>
<path d="M31.9424 72.1592C32.0456 71.9846 31.994 71.7866 32.0226 71.5945C32.1086 71.1055 32.2347 70.6397 32.4297 70.1798C32.6475 69.6558 32.9055 69.161 33.238 68.701C33.9775 67.688 34.8947 66.8788 36.0584 66.4014C36.6775 66.151 37.3253 65.9764 38.0018 65.9473C38.512 65.924 39.0222 65.889 39.5324 65.9356C40.0082 65.9822 40.4725 66.0812 40.9369 66.2151C41.5273 66.3839 42.0719 66.6168 42.5707 66.9603C43.7229 67.7579 44.5713 68.8175 45.093 70.1158C45.5917 71.3558 45.7179 72.6483 45.523 73.9757C45.523 73.9873 45.523 73.999 45.523 74.0106C45.4618 74.3483 45.2612 74.5191 44.921 74.5229C42.307 74.5753 39.6986 74.5637 37.0845 74.5637C36.9068 74.5637 36.7291 74.5753 36.5514 74.587C36.431 74.5928 36.3909 74.6452 36.4425 74.7733C36.5399 75.0411 36.6661 75.2798 36.9126 75.4545C37.2795 75.7106 37.6635 75.926 38.0763 76.089C38.6495 76.3219 39.2515 76.2637 39.8477 76.2055C40.4496 76.1473 40.9598 75.8678 41.4069 75.4661C41.5904 75.3031 41.9057 75.2856 42.135 75.4661C42.8286 75.9959 43.614 76.3801 44.3535 76.8342C44.3936 76.8575 44.4223 76.8983 44.4567 76.9274C44.8064 77.1836 44.8293 77.2476 44.5885 77.6027C44.3592 77.9404 44.0497 78.2082 43.7458 78.476C43.356 78.8195 42.9203 79.1223 42.4388 79.2969C41.7165 79.5647 40.9827 79.8267 40.1974 79.8384C39.3203 79.85 38.4374 79.8908 37.5661 79.7685C37.2451 79.7219 36.9298 79.6404 36.6145 79.5705C36.282 79.4949 35.9896 79.3086 35.6629 79.2329C35.5482 79.2096 35.4221 79.1514 35.3361 79.0408C35.3017 78.9942 35.2501 78.9592 35.1985 78.936C34.4246 78.6041 33.8341 78.0394 33.3239 77.3815C32.8137 76.7236 32.4526 75.9726 32.2233 75.175C31.971 74.3075 31.9309 73.411 31.971 72.5086C31.971 72.4038 32.0054 72.2932 31.971 72.1884C31.9825 72.1767 31.9825 72.1592 31.971 72.1476L31.9424 72.1592ZM41.5159 71.4664C41.556 71.4781 41.6076 71.4897 41.6248 71.4373C41.642 71.3849 41.6076 71.3616 41.556 71.3675C41.4184 71.1753 41.3668 70.9425 41.2292 70.7445C40.9541 70.3486 40.6674 69.9527 40.1974 69.813C39.7273 69.6733 39.2687 69.4986 38.7585 69.4986C38.2368 69.4986 37.7725 69.6325 37.3253 69.8654C36.7291 70.174 36.3622 70.6805 36.1673 71.3209C36.0871 71.3849 36.0928 71.4373 36.1903 71.4723C36.4024 71.4897 36.6145 71.513 36.8266 71.513C38.1967 71.513 39.5668 71.513 40.9311 71.513C41.1318 71.513 41.3324 71.5479 41.5216 71.4606L41.5159 71.4664Z" fill="#221E1F"/>
<path d="M67.1809 66.0753C67.7427 66.0753 68.1554 66.087 68.5739 66.2325C69.0153 66.3839 69.4796 66.4596 69.9096 66.6692C70.3911 66.9079 70.8669 67.1466 71.2338 67.5541C71.5205 67.8743 71.8644 68.1305 72.1166 68.4856C72.3173 68.7709 72.3058 68.8116 72.0307 69.0096C71.4574 69.4229 70.8325 69.7431 70.1962 70.0459C69.9153 70.1798 69.6803 70.3777 69.4051 70.5233C69.0726 70.6979 69.044 70.7096 68.8089 70.4476C68.6255 70.2496 68.4134 70.0808 68.2357 69.8654C68.0637 69.6558 67.7771 69.6442 67.542 69.5685C67.2095 69.4637 66.8713 69.4986 66.5617 69.6849C66.384 69.7955 66.2407 69.912 66.2407 70.1507C66.2407 70.401 66.3324 70.5873 66.556 70.7038C66.9401 70.9017 67.3414 71.0472 67.7599 71.1462C68.2701 71.2685 68.7745 71.4315 69.2733 71.6003C69.4395 71.6527 69.6 71.6993 69.7663 71.7692C70.4255 72.0661 71.0618 72.3921 71.5835 72.8986C71.8759 73.1839 72.0822 73.5332 72.2313 73.9058C72.4721 74.4938 72.6899 75.1051 72.6154 75.7572C72.495 76.8342 72.1854 77.8531 71.3255 78.5808C70.7236 79.0873 70.0357 79.4483 69.2618 79.6346C68.614 79.7918 67.9605 79.8907 67.3012 79.9082C66.5445 79.9257 65.7706 79.8966 65.0483 79.6753C64.1254 79.3959 63.254 78.9592 62.6062 78.1966C62.3311 77.8705 62.1018 77.5038 61.8553 77.1603C61.7693 77.038 61.7521 76.9507 61.8839 76.8226C61.9871 76.7236 62.1018 76.6363 62.2107 76.5664C63.0132 76.0657 63.8273 75.5825 64.6356 75.0877C64.6757 75.0644 64.7216 75.0411 64.7617 75.0236C65.0311 74.9072 65.0655 74.9246 65.1974 75.1866C65.4267 75.6582 65.7248 76.0483 66.235 76.252C66.384 76.3103 66.5388 76.3627 66.6936 76.3743C67.0261 76.3976 67.3586 76.3918 67.6911 76.3859C67.9146 76.3859 68.121 76.3161 68.3102 76.1996C68.7 75.9668 68.7229 75.5243 68.3618 75.1808C68.0866 74.913 67.7255 74.8431 67.3872 74.7325C66.8713 74.5579 66.3439 74.4181 65.8222 74.2726C65.3464 74.1387 64.8878 73.9116 64.4292 73.7079C63.9763 73.5041 63.6094 73.2072 63.254 72.8753C62.8069 72.4562 62.5317 71.9438 62.3712 71.35C62.2279 70.7969 62.2049 70.2322 62.2852 69.6966C62.4285 68.7127 62.9273 67.8918 63.6782 67.2455C64.1884 66.8031 64.7846 66.5294 65.4381 66.3548C66.0573 66.1859 66.6764 66.0462 67.1866 66.0753H67.1809Z" fill="#221E1F"/>
<path d="M51.5766 79.5764C51.4792 79.5414 51.376 79.5065 51.2728 79.5356C51.2556 79.4599 51.2327 79.3959 51.1524 79.4949C50.774 79.4599 50.4301 79.3086 50.1033 79.1281C49.381 78.7438 48.888 78.1384 48.5613 77.399C48.4294 77.0962 48.3721 76.7644 48.2918 76.4384C48.1772 75.9435 48.1714 75.4254 48.137 74.9247C48.1084 74.5113 48.137 74.0747 48.137 73.6497C48.1542 72.6658 48.1542 71.6819 48.1542 70.698C48.1542 70.2206 48.137 70.2089 47.6784 70.2089C47.1453 70.2089 46.6122 70.2089 46.079 70.2089C46.0045 69.7839 46.0274 69.3764 46.0217 68.9747C46.0102 68.2411 45.9988 67.5134 45.9988 66.7798C45.9988 66.3024 46.016 66.2849 46.4746 66.314C46.9275 66.3432 47.3746 66.314 47.8275 66.3082C47.9823 66.3082 48.0568 66.2675 48.0855 66.0986C48.1026 65.9706 48.137 65.8425 48.137 65.7144C48.137 65.237 48.137 64.7538 48.137 64.2764C48.137 64.0959 48.16 63.9853 48.3835 63.9212C48.7906 63.8106 49.1976 63.6767 49.5989 63.5428C50.218 63.3332 50.8486 63.1586 51.4734 62.9548C51.5652 62.9257 51.6569 62.9024 51.7486 62.8849C52.041 62.8151 52.0582 62.8267 52.1098 63.1411C52.1269 63.2575 52.1327 63.3798 52.1327 63.5021C52.1327 64.1599 52.1327 64.8236 52.1327 65.4815C52.1327 65.6504 52.1327 65.8192 52.1499 65.9822C52.1728 66.2733 52.2015 66.3024 52.4996 66.314C53.0327 66.3257 53.5716 66.3199 54.1047 66.3257C54.162 66.3257 54.2251 66.3257 54.2824 66.3257C54.655 66.3373 54.7066 66.3956 54.7066 66.7565C54.7066 67.8219 54.6264 68.8932 54.6493 69.9586C54.655 70.2089 54.6493 70.2147 54.3856 70.2147C53.7206 70.2147 53.0556 70.2147 52.3906 70.2147C52.0983 70.2147 52.0983 70.2147 52.0868 70.5058C52.0295 71.9089 52.1269 73.312 52.1613 74.7151C52.1785 75.3555 52.4938 75.7921 52.9926 75.8678C53.3423 75.9202 53.692 75.9901 54.0531 75.9726C54.2423 75.9668 54.4315 75.9784 54.6206 75.9726C54.7926 75.961 54.8442 76.0308 54.8442 76.1997C54.8385 77.1719 54.8442 78.1442 54.8442 79.1164C54.8442 79.4075 54.6952 79.5123 54.4143 79.5589C53.692 79.6812 52.9754 79.6637 52.2473 79.6404C52.1957 79.6404 52.1556 79.6521 52.1155 79.687C52.1212 79.6521 52.1155 79.6171 52.0754 79.6113C52.0352 79.6055 52.018 79.6346 52.018 79.6695C51.9206 79.5997 51.8231 79.5589 51.7027 79.6055C51.6798 79.524 51.6454 79.4774 51.5823 79.5764H51.5766Z" fill="#221E1F"/>
<path d="M59.0633 60.2592C60.3016 60.2068 61.1672 60.9928 61.494 62C61.6373 62.4483 61.7405 62.8558 61.5742 63.3099C61.2245 64.2764 60.5882 64.9284 59.5735 65.1205C58.748 65.2777 58.0315 65.0274 57.4869 64.3695C57.1257 63.927 56.799 63.4497 56.7588 62.8442C56.6958 62.0058 56.9595 61.3072 57.6187 60.7832C58.0601 60.4339 58.5417 60.1952 59.0691 60.2592H59.0633Z" fill="#009A50"/>
<circle cx="99.5" cy="70.5" r="25.5" fill="#009A50"/>
<g clip-path="url(#clip0_1742_855)">
<path d="M117.989 77.8834C117.984 78.1403 117.978 78.3972 117.972 78.6488C117.365 78.7536 116.753 78.8165 116.14 78.8323C115.891 78.7798 115.638 78.7903 115.384 78.7798C115.323 78.7379 115.257 78.7274 115.185 78.7431C115.091 78.7064 114.992 78.7117 114.892 78.7327C114.876 78.7169 114.854 78.7169 114.837 78.7327C114.699 78.7012 114.567 78.6488 114.418 78.6645C114.213 78.5597 113.976 78.5492 113.755 78.4706C113.181 78.2556 112.712 77.9044 112.287 77.4903C112.171 77.2963 112.05 77.1024 111.934 76.9137C111.74 76.4262 111.68 75.9072 111.575 75.404C111.547 75.0632 111.52 74.7225 111.498 74.3818C111.503 73.8838 111.542 73.391 111.509 72.893C111.536 72.568 111.536 72.243 111.509 71.918C111.514 71.4567 111.525 70.9954 111.525 70.5341C111.525 70.3349 111.459 70.2772 111.249 70.251C111.194 70.2458 111.133 70.251 111.078 70.251C110.609 70.2458 110.145 70.2877 109.682 70.3139C109.521 70.3139 109.433 70.2667 109.45 70.0937C109.461 69.9679 109.483 69.8421 109.45 69.7163C109.472 69.3074 109.472 68.8986 109.45 68.4897C109.477 68.0336 109.477 67.5776 109.45 67.1215C109.45 67.09 109.461 67.0586 109.461 67.0271C109.477 66.7493 109.477 66.7441 109.775 66.7388C109.98 66.7336 110.184 66.7388 110.394 66.7441C110.609 66.7441 110.83 66.7546 111.045 66.7441C111.376 66.7336 111.492 66.7231 111.525 66.2828C111.542 66.0678 111.52 65.8529 111.514 65.638C111.558 65.3916 111.514 65.14 111.525 64.8936C111.547 64.5791 111.586 64.5372 111.906 64.4585C112.508 64.317 113.093 64.1283 113.672 63.9343C114.031 63.84 114.39 63.7456 114.754 63.6513C114.937 63.6041 115.124 63.5779 115.317 63.6041C115.339 63.6775 115.356 63.7456 115.378 63.819C115.378 64.4428 115.389 65.0719 115.395 65.6957C115.367 65.9368 115.367 66.1727 115.4 66.4138C115.4 66.4977 115.4 66.5868 115.406 66.6707C115.389 66.7179 115.406 66.7336 115.455 66.7283C115.665 66.807 115.88 66.786 116.096 66.7755C116.548 66.7546 117.001 66.7598 117.454 66.7808C117.807 66.7965 117.846 66.8384 117.834 67.1634C117.834 67.3259 117.818 67.4832 117.862 67.6405C117.84 67.9235 117.834 68.2014 117.879 68.4844C117.879 69.0663 117.879 69.6482 117.879 70.2353C117.851 70.3087 117.779 70.2929 117.724 70.3139C117.051 70.272 116.372 70.2405 115.693 70.251C115.582 70.251 115.466 70.2353 115.378 70.3244H115.356L115.367 70.3506C115.317 70.4921 115.378 70.6232 115.395 70.7595C115.367 71.1055 115.373 71.4514 115.395 71.7974C115.373 72.3164 115.373 72.8353 115.395 73.3543C115.384 73.7003 115.362 74.0515 115.439 74.3922C115.422 74.6543 115.483 74.8955 115.698 75.0842C115.897 75.2624 116.134 75.3463 116.416 75.3777C116.708 75.4144 117.001 75.4511 117.294 75.4354C117.514 75.4249 117.719 75.4878 117.934 75.4983C118.05 75.6818 117.978 75.8862 118.017 76.0749C117.967 76.683 117.984 77.2859 118.011 77.8939L117.989 77.8834Z" fill="#FEFEFE"/>
<path d="M81.0166 78.5911C81.0221 78.0722 81.0331 77.5532 81.0386 77.029C81.0386 76.9032 81.0552 76.7721 81.011 76.6463C81.0386 76.4104 81.0497 76.1693 81.0221 75.9334C81.0442 75.3306 81.0718 74.7225 81.0055 74.1196C81.0331 73.8628 81.0607 73.6007 81.0276 73.3438C81.0497 72.7619 81.0662 72.1748 81.0221 71.593C81.0331 71.3151 81.0662 71.0321 81.0276 70.7542C81.0497 70.1933 81.0607 69.6272 81.0221 69.0663C81.0386 68.7623 81.0607 68.4635 81.0221 68.1594C81.0386 67.5513 81.0773 66.9433 81 66.3404C81.0331 66.0836 81.0662 65.8267 81.0276 65.5646C81.0497 65.0037 81.0552 64.4376 81.0276 63.8767C81.0386 63.7404 81.0442 63.6041 81.0055 63.473C81.011 63.4678 81.0221 63.4625 81.0221 63.4573C81.0221 63.4416 81.011 63.4311 81.0055 63.4154C81.0386 63.3158 81.0166 63.2109 81.0055 63.1113C81.1656 62.9855 81.3643 62.9383 81.5575 62.8964C82.4076 62.7129 83.2411 62.4561 84.058 62.173C84.3561 62.0681 84.6707 62.021 84.9909 62.0105C85.013 62.0367 85.0351 62.0629 85.0571 62.0891C85.0461 62.1363 85.0627 62.173 85.0903 62.2097C85.0903 62.2936 85.0903 62.3774 85.0903 62.4613C85.0019 62.5609 85.0295 62.6867 85.024 62.802C85.024 63.169 85.024 63.5307 85.024 63.8976C85.024 64.1335 84.9688 64.3694 85.0351 64.6001C85.0185 64.773 85.0019 64.946 85.0351 65.1243C84.9909 65.7952 84.9633 66.461 84.9909 67.132C84.9854 67.1739 84.9688 67.2158 84.9743 67.2578C84.9799 67.3836 84.8971 67.5409 85.0351 67.6195C85.1896 67.7086 85.2669 67.5409 85.3773 67.478C85.4546 67.436 85.5429 67.4098 85.576 67.3207C85.7802 67.2211 86.0066 67.1477 86.1832 67.0166C86.4095 66.8594 86.6634 66.7912 86.9174 66.7179C87.4252 66.5711 87.9496 66.5291 88.4684 66.4505C88.6892 66.4505 88.9156 66.461 89.1364 66.4662C89.2412 66.4924 89.3461 66.5082 89.4565 66.5029C89.4786 66.5291 89.5062 66.5344 89.5393 66.5187C89.9809 66.5291 90.3783 66.6812 90.7868 66.8122C91.0407 66.9171 91.3002 67.0114 91.532 67.1582C91.7859 67.3207 92.0343 67.4832 92.2882 67.6457C92.36 67.7558 92.4649 67.8292 92.5697 67.9026C92.7188 68.0913 92.9506 68.1961 93.1328 68.3534C93.2432 68.5002 93.3701 68.6312 93.5137 68.7518C93.7179 69.0768 93.9276 69.3965 94.1319 69.7216C94.165 69.8316 94.1981 69.947 94.2754 70.0413C94.2699 70.1619 94.3582 70.251 94.3748 70.3663C94.441 70.4974 94.5017 70.6284 94.568 70.7542C94.568 70.8486 94.5404 70.9587 94.579 71.0426C94.7225 71.3466 94.7004 71.6716 94.7722 71.9861L94.7612 73.2862C94.7004 73.3805 94.7225 73.4906 94.7115 73.5954C94.6728 73.9309 94.6397 74.2612 94.5128 74.5809C94.4796 74.7277 94.441 74.8745 94.4079 75.0265C94.3748 75.058 94.3251 75.0842 94.3196 75.1209C94.2588 75.4092 94.0822 75.6503 93.9994 75.9334C93.6296 76.4471 93.2984 76.9766 92.8513 77.4379C92.6636 77.6056 92.4704 77.7786 92.2827 77.9463C92.0012 78.1246 91.7142 78.2976 91.4161 78.4443C90.5439 78.8742 89.6055 79.0419 88.6285 79.0105C88.3691 79 88.1041 78.9738 87.8447 79C87.6405 78.9738 87.4362 78.9528 87.2265 78.9266C87.1878 78.8847 87.1271 78.8794 87.0719 78.8637C86.6414 78.7641 86.2439 78.5859 85.8465 78.4129C85.6698 78.2713 85.5043 78.1193 85.2945 78.0092C85.2945 77.9778 85.2835 77.9621 85.2448 77.9621V77.9463H85.2227C85.2117 77.8572 85.1731 77.7629 85.0682 77.7891C84.9578 77.8153 84.9302 77.9096 85.0075 78.0092V78.675C84.7591 78.7536 84.4996 78.7274 84.2402 78.7169C83.219 78.6802 82.1978 78.6855 81.1766 78.6907C81.1159 78.6697 81.0331 78.6855 81.0055 78.6068L81.0166 78.5911ZM87.4969 75.4983C88.2753 75.7132 88.9266 75.4302 89.5448 75.0265C89.7435 74.9269 89.9367 74.8221 90.0582 74.6334C90.417 74.2926 90.6212 73.8733 90.7206 73.4067C90.8255 72.893 90.8144 72.374 90.704 71.8603C90.6985 71.8341 90.6709 71.8079 90.6488 71.7817C90.5605 71.4672 90.3839 71.2051 90.1355 70.9796C90.0251 70.8748 89.8539 70.8486 89.7711 70.7175C89.7215 70.6389 89.6552 70.5708 89.5614 70.5341C89.4234 70.3821 89.2357 70.3349 89.037 70.272C88.1925 70.0046 87.3865 70.0308 86.5641 70.3925C85.6533 70.7962 85.1896 71.4567 85.0461 72.3635C85.0185 72.5365 84.9412 72.7095 85.0185 72.8878C85.0461 73.4906 85.2559 74.0305 85.6367 74.5076C85.8741 74.9322 86.2605 75.1681 86.7407 75.2781C86.967 75.4197 87.232 75.4354 87.4859 75.4931L87.4969 75.4983Z" fill="#FEFEFE"/>
<path d="M97.5984 77.2439C97.488 77.1024 97.3776 76.9556 97.2285 76.8455C97.0574 76.6044 96.8808 76.3685 96.7152 76.1274C96.5551 75.8915 96.4116 75.6503 96.257 75.4144C96.0859 75.1576 96.0528 74.8535 95.9534 74.5705C95.9534 74.4971 95.9645 74.4237 95.8761 74.3817C95.8651 74.0358 95.8541 73.6898 95.843 73.3491C95.8761 72.8301 95.8596 72.3111 95.843 71.7922C95.8927 71.4672 95.9424 71.1422 95.9976 70.8224C96.0141 70.6599 96.1632 70.5393 96.1411 70.3663C96.2018 70.1357 96.3398 69.9365 96.4392 69.7216C96.4778 69.6377 96.522 69.5538 96.5661 69.4699C96.7924 69.1869 96.9856 68.8881 97.2285 68.6207C97.4935 68.3272 97.7419 68.0231 97.9958 67.7191C98.1338 67.5304 98.3987 67.5042 98.5423 67.3312C98.9287 67.132 99.304 66.938 99.7235 66.7912C100.452 66.5396 101.197 66.3719 101.976 66.3509C102.252 66.3457 102.522 66.3457 102.798 66.3404C102.92 66.3666 103.035 66.4138 103.157 66.4086C103.863 66.3928 104.493 66.6654 105.133 66.8804C105.42 66.9747 105.68 67.1425 105.95 67.2735C106.232 67.4622 106.507 67.6509 106.789 67.8344C106.811 67.8711 106.828 67.9183 106.861 67.9393C107.269 68.1961 107.567 68.5578 107.904 68.8828C108.086 69.2026 108.263 69.5224 108.445 69.8421C108.489 70.057 108.655 70.23 108.66 70.4607C108.66 70.5131 108.727 70.5655 108.765 70.6179C108.859 71.2051 108.958 71.7869 109.052 72.374C109.03 72.6781 109.041 72.9769 109.058 73.2809C109.036 73.4067 109.019 73.5378 108.98 73.6636C108.837 74.1406 108.727 74.2035 108.191 74.1668C107.38 74.1092 106.568 74.1354 105.757 74.1511C105.68 74.1511 105.597 74.1354 105.519 74.1354C103.886 74.1249 102.257 74.1668 100.623 74.1092C100.524 74.1092 100.419 74.1092 100.314 74.1301C100.121 74.1668 100.071 74.2507 100.176 74.3975C100.601 75.0003 101.192 75.3987 101.926 75.6031C102.345 75.7237 102.782 75.7237 103.207 75.6765C103.847 75.6031 104.482 75.4721 104.956 75.016C105.116 74.864 105.271 74.8221 105.47 74.8902C105.972 75.1943 106.502 75.4406 107.032 75.6923C107.319 75.9386 107.678 76.0854 108.003 76.2794C108.025 76.3056 108.042 76.3318 108.07 76.3528C108.307 76.5257 108.324 76.5782 108.191 76.8193C108.141 76.9189 108.059 76.9923 107.976 77.0657C107.667 77.3435 107.358 77.6161 107.048 77.8939C106.325 78.4076 105.514 78.7327 104.625 78.8794C103.654 79.0419 102.666 79.0262 101.683 78.9738C101.523 78.9633 101.368 78.9109 101.208 78.9423C100.927 78.8689 100.645 78.7956 100.364 78.7222C100.182 78.675 99.9995 78.5964 99.8063 78.6068C99.707 78.6121 99.6407 78.5649 99.5634 78.5177C99.4806 78.4601 99.3868 78.4286 99.2874 78.4024C98.9618 78.177 98.6416 77.9568 98.2607 77.8153C98.051 77.6056 97.8191 77.4169 97.5708 77.2492L97.5984 77.2439ZM105.094 71.399C104.973 71.1055 104.934 70.7752 104.675 70.5446C104.609 70.4502 104.564 70.3296 104.465 70.2615C103.99 69.9522 103.505 69.6639 102.892 69.6744C102.461 69.5905 102.058 69.7111 101.65 69.8054C101.253 69.8945 100.932 70.099 100.684 70.4083C100.496 70.5865 100.281 70.7333 100.187 70.9954C100.038 71.4043 100.022 71.4095 100.491 71.4357C101.562 71.4934 102.633 71.42 103.709 71.3833C104.15 71.4043 104.587 71.4252 105.028 71.4409C105.061 71.4776 105.1 71.4776 105.128 71.4409C105.144 71.42 105.128 71.4043 105.1 71.4043L105.094 71.399Z" fill="#FEFEFE"/>
</g>
<defs>
<clipPath id="clip0_1742_855">
<rect width="37" height="17" fill="white" transform="translate(81 62)"/>
</clipPath>
</defs>
</svg>
