<svg width="140" height="140" viewBox="0 0 140 140" fill="none" xmlns="http://www.w3.org/2000/svg">
<rect width="140" height="140" rx="30" fill="white"/>
<g clip-path="url(#clip0_2451_572)">
<path d="M75.653 68.9975C76.2209 68.915 76.7387 68.847 77.2539 68.7641C79.1484 68.4601 80.9888 67.9712 82.7144 67.1091C85.5771 65.6791 87.5042 63.4278 88.5372 60.3995C89.2281 58.3744 89.4643 56.2796 89.4891 54.1508C89.5088 52.4714 89.2512 50.8457 88.6242 49.284C88.1347 48.0655 87.4515 46.9665 86.5921 45.9767C86.47 45.8361 86.3679 45.7265 86.4472 45.4939C87.2252 43.2172 87.1236 40.9375 86.4254 38.6634C86.3418 38.3904 86.2282 38.1268 86.1498 37.8525C86.0923 37.6513 85.9706 37.592 85.7765 37.5774C85.0555 37.5227 84.3539 37.6272 83.6591 37.807C82.0561 38.2214 80.6005 38.9692 79.1869 39.8084C78.7823 40.0488 78.382 40.2982 77.9954 40.5665C77.7927 40.7075 77.6148 40.7453 77.3683 40.6787C74.7469 39.9705 72.0754 39.6687 69.3631 39.7384C67.1733 39.7947 65.0131 40.0763 62.8979 40.6572C62.5957 40.7402 62.3707 40.7006 62.1097 40.5278C60.5242 39.4774 58.8723 38.5542 57.0494 37.9759C56.2162 37.7115 55.3693 37.5326 54.4855 37.5726C54.2244 37.5842 54.0847 37.6646 53.9878 37.9282C53.4735 39.3243 53.1863 40.7621 53.1863 42.2489C53.1863 43.3269 53.3299 44.3902 53.696 45.4105C53.7727 45.6242 53.7637 45.7695 53.6094 45.9475C51.591 48.2749 50.6592 51.0048 50.6789 54.0687C50.6922 56.093 50.9104 58.0919 51.5186 60.0362C52.5014 63.1801 54.4109 65.5458 57.3443 67.0554C58.7995 67.8039 60.3506 68.273 61.9494 68.5955C62.771 68.761 63.6008 68.875 64.4272 68.9799C64.4615 69.136 64.3363 69.1652 64.2759 69.2293C63.3642 70.2014 62.8812 71.3782 62.6681 72.6729C62.6171 72.9825 62.4958 73.1398 62.207 73.249C61.0733 73.6777 59.916 73.9318 58.6953 73.8553C56.9693 73.7474 55.5973 72.9713 54.4992 71.6616C54.2047 71.3103 53.9596 70.9251 53.7101 70.5411C52.9669 69.3965 52.0604 68.4248 50.8084 67.8224C50.0215 67.4441 49.1968 67.3598 48.3469 67.4927C48.0824 67.5339 47.7819 67.5885 47.6825 67.8869C47.5835 68.1845 47.7909 68.4029 47.9705 68.6071C48.247 68.9223 48.5852 69.1639 48.9478 69.3664C49.3914 69.6141 49.7656 69.9417 50.0875 70.3278C50.9704 71.3873 51.7171 72.537 52.2181 73.8256C52.9047 75.5923 54.1709 76.709 55.9496 77.2662C57.2607 77.6768 58.6096 77.7564 59.9726 77.6609C60.7818 77.6042 61.5859 77.5014 62.3703 77.3604C62.4547 77.4502 62.4328 77.5401 62.4337 77.6235C62.4521 79.3696 62.4684 81.1161 62.4868 82.8622C62.489 83.0639 62.4731 83.2621 62.4187 83.4573C62.2562 84.0377 61.8782 84.3847 61.2889 84.4918C60.889 84.5644 60.4959 84.5305 60.1093 84.3929C52.759 81.7748 47.1617 77.0568 43.3351 70.2483C41.5469 67.067 40.4351 63.6402 39.892 60.0297C39.6661 58.5274 39.5551 57.0131 39.5637 55.4962C39.5894 51.0017 40.5028 46.6995 42.4174 42.6234C45.1498 36.806 49.3018 32.2883 54.8356 29.0559C57.9302 27.2483 61.2571 26.0603 64.7902 25.4472C67.5081 24.9755 70.2392 24.8809 72.9793 25.1415C76.3268 25.4596 79.541 26.311 82.5974 27.7243C88.715 30.5526 93.4161 34.9249 96.6945 40.8232C98.3751 43.8467 99.4724 47.0796 100.038 50.4961C100.373 52.5221 100.514 54.5606 100.436 56.6102C100.279 60.7314 99.3511 64.6708 97.6101 68.4145C96.0559 71.7558 93.9686 74.7199 91.3502 77.3036C88.1201 80.4909 84.3633 82.842 80.0883 84.3563C79.7077 84.4909 79.3241 84.5864 78.9165 84.5257C78.1137 84.4062 77.6461 83.8868 77.6311 83.0712C77.6195 82.4271 77.6268 81.7826 77.6289 81.138C77.6349 79.6207 77.6444 78.1029 77.6499 76.5856C77.6529 75.7983 77.6705 75.0102 77.6461 74.2233C77.5989 72.6849 77.2826 71.2183 76.4117 69.9138C76.1999 69.5965 75.932 69.3247 75.6522 68.9967L75.653 68.9975Z" fill="#010101"/>
<path d="M39.6447 106.282C39.6447 108.343 39.6357 110.405 39.6533 112.466C39.6563 112.832 39.532 113.036 39.2217 113.211C37.9165 113.949 36.5235 114.442 35.0568 114.71C32.5816 115.163 30.1123 115.089 27.6731 114.471C25.2681 113.861 23.3299 112.564 21.9999 110.427C21.2837 109.276 20.8148 108.023 20.5161 106.704C20 104.425 19.9182 102.117 20.0652 99.7939C20.1873 97.8573 20.4874 95.9577 21.189 94.1385C21.9108 92.2669 23.0085 90.6807 24.6873 89.5409C25.8883 88.7253 27.223 88.251 28.6439 88.0115C30.3875 87.7174 32.1397 87.769 33.8927 87.9079C35.1048 88.0042 36.2972 88.2063 37.4463 88.6165C37.7271 88.7167 38.0048 88.8319 38.2684 88.9699C38.6293 89.1587 38.6696 89.2662 38.5779 89.6617C38.3747 90.5384 38.1651 91.4134 37.959 92.2893C37.8771 92.6367 37.7978 92.9849 37.7181 93.3332C37.6186 93.767 37.4562 93.8827 37.0542 93.7391C35.1893 93.0735 33.2596 92.975 31.3124 93.0937C29.9897 93.1741 28.7588 93.5529 27.7549 94.4773C26.8857 95.2775 26.3941 96.3004 26.0846 97.4205C25.7897 98.4872 25.6607 99.5789 25.632 100.684C25.5926 102.204 25.6436 103.717 25.9963 105.204C26.2055 106.085 26.5145 106.926 27.0293 107.681C27.8175 108.837 28.9212 109.474 30.2915 109.661C31.4466 109.819 32.5979 109.735 33.7453 109.572C34.1366 109.516 34.1379 109.507 34.1383 109.12C34.1396 107.646 34.1396 106.171 34.1383 104.697C34.1383 104.352 34.134 104.348 33.7877 104.347C32.8747 104.345 31.9618 104.349 31.0484 104.346C30.5877 104.345 30.4578 104.223 30.4561 103.769C30.4518 102.51 30.4514 101.25 30.4561 99.9899C30.4578 99.5552 30.5838 99.4366 31.0214 99.4361C33.7054 99.4344 36.3894 99.4344 39.0734 99.4361C39.5641 99.4361 39.6434 99.5161 39.6438 100.012C39.6456 102.102 39.6447 104.192 39.6447 106.282V106.282Z" fill="#010101"/>
<path d="M69.6837 98.3637C71.1847 98.3637 72.6385 98.3637 74.0928 98.3637C74.9488 98.3637 75.8047 98.3684 76.6602 98.3616C77.0665 98.3581 77.0584 98.4243 77.0575 97.9737C77.0541 95.2254 77.0528 92.477 77.0511 89.7287C77.0511 89.6285 77.0507 89.5283 77.0511 89.4282C77.0541 88.8666 77.1373 88.7819 77.6945 88.7819C79.0935 88.7811 80.4925 88.7819 81.8915 88.7819C82.5215 88.7819 82.5691 88.8292 82.5691 89.4716C82.5691 96.5144 82.5691 103.557 82.5691 110.6C82.5691 111.687 82.5691 112.775 82.5691 113.864C82.5691 113.992 82.5841 114.126 82.5228 114.244C82.4349 114.412 82.2836 114.472 82.0968 114.472C80.5692 114.47 79.042 114.475 77.5144 114.468C77.1771 114.466 77.058 114.333 77.0528 113.991C77.0455 113.49 77.0507 112.989 77.0507 112.488C77.0507 109.582 77.0494 106.676 77.0528 103.77C77.0533 103.395 77.0773 103.412 76.7185 103.412C74.4914 103.414 72.2648 103.413 70.0377 103.412C69.6708 103.412 69.6824 103.376 69.6828 103.798C69.6832 107.091 69.6828 110.383 69.6828 113.676C69.6828 113.762 69.6845 113.848 69.6828 113.933C69.6725 114.343 69.5538 114.468 69.1436 114.469C68.0871 114.473 67.031 114.471 65.9744 114.471C65.5463 114.471 65.1181 114.475 64.6899 114.469C64.293 114.464 64.1905 114.356 64.1777 113.955C64.1751 113.869 64.1773 113.783 64.1773 113.697C64.1773 105.638 64.179 97.579 64.1738 89.5197C64.1738 88.9058 64.1983 88.7664 64.932 88.7768C66.3165 88.7961 67.7013 88.7815 69.0862 88.7828C69.5911 88.7832 69.6824 88.8748 69.6828 89.3826C69.6837 92.2599 69.6832 95.1372 69.6832 98.0141V98.3646L69.6837 98.3637Z" fill="#010101"/>
<path d="M107.612 113.131C107.556 113.483 107.521 113.763 107.465 114.039C107.399 114.369 107.277 114.467 106.934 114.469C105.92 114.473 104.907 114.474 103.893 114.469C103.513 114.467 103.383 114.331 103.367 113.954C103.363 113.869 103.367 113.783 103.367 113.697C103.367 105.652 103.369 97.6074 103.363 89.5628C103.362 88.8705 103.443 88.7665 104.13 88.776C105.529 88.7949 106.928 88.7803 108.327 88.7824C108.805 88.7833 108.902 88.8804 108.902 89.3607C108.904 91.9229 108.903 94.485 108.903 97.0476V97.5726C109.129 97.4621 109.315 97.368 109.504 97.2802C111.306 96.4405 113.185 96.1916 115.134 96.5889C117.06 96.9814 118.349 98.1587 119.126 99.9379C119.683 101.214 119.907 102.567 119.968 103.943C120.042 105.617 120.003 107.291 119.727 108.95C119.54 110.068 119.25 111.151 118.704 112.157C117.899 113.643 116.644 114.506 115.01 114.8C113.101 115.144 111.232 114.962 109.431 114.215C108.798 113.952 108.207 113.61 107.612 113.132L107.612 113.131ZM108.787 105.685C108.787 106.901 108.794 108.117 108.781 109.333C108.778 109.569 108.856 109.691 109.063 109.794C110.07 110.301 111.135 110.513 112.252 110.417C113.344 110.324 113.931 109.82 114.224 108.761C114.312 108.445 114.378 108.124 114.417 107.796C114.538 106.786 114.556 105.772 114.524 104.758C114.498 103.954 114.39 103.161 114.064 102.417C113.689 101.565 113.051 101.057 112.108 100.969C111.007 100.866 109.994 101.156 109.016 101.632C108.812 101.732 108.782 101.877 108.783 102.08C108.79 103.281 108.787 104.483 108.787 105.685H108.787Z" fill="#010101"/>
<path d="M96.9744 113.306C96.6637 113.47 96.3525 113.639 96.0375 113.8C93.7517 114.972 91.3484 115.271 88.8492 114.721C86.8115 114.273 85.5501 113.018 85.1022 110.957C84.9496 110.255 84.8853 109.544 84.8845 108.829C84.8781 105.121 84.8815 101.414 84.8815 97.7055C84.8815 97.6342 84.8789 97.5624 84.8819 97.491C84.8991 97.092 85.0294 96.9617 85.4383 96.9608C86.9088 96.9578 88.3794 96.9596 89.85 96.9596C89.8641 96.9596 89.8787 96.9596 89.8928 96.9596C90.3099 96.9733 90.4256 97.0847 90.4286 97.4987C90.4333 98.0714 90.4299 98.6442 90.4299 99.2164C90.4299 102.123 90.4299 105.029 90.4295 107.935C90.4295 108.25 90.4479 108.563 90.4976 108.875C90.6511 109.839 91.096 110.309 92.0496 110.417C93.2082 110.549 94.2844 110.264 95.2904 109.684C95.434 109.601 95.4833 109.497 95.4747 109.337C95.4635 109.123 95.4721 108.907 95.4721 108.693V97.8268C95.4721 97.7696 95.4721 97.7124 95.4721 97.6548C95.473 97.0271 95.5377 96.9596 96.1489 96.9591C97.5196 96.9587 98.8899 96.9591 100.261 96.9591C100.303 96.9591 100.346 96.9583 100.389 96.9591C100.814 96.9686 100.939 97.095 100.952 97.5297C100.954 97.5869 100.952 97.6441 100.952 97.7017C100.954 103.041 100.955 108.382 100.956 113.721C100.956 113.807 100.96 113.893 100.955 113.979C100.934 114.333 100.804 114.467 100.45 114.471C99.5221 114.479 98.5941 114.482 97.6666 114.481C97.2659 114.481 97.1797 114.398 97.1099 113.99C97.0734 113.779 97.0408 113.567 97.0057 113.355C97.004 113.344 96.9928 113.334 96.9748 113.306H96.9744Z" fill="#010101"/>
<path d="M57.8942 105.212C57.8942 106.228 57.8934 107.244 57.8951 108.26C57.8951 108.417 57.9084 108.574 57.9169 108.731C57.9739 109.74 58.6267 110.193 59.4077 110.347C59.8873 110.442 60.3699 110.451 60.8551 110.394C61.0673 110.369 61.2816 110.347 61.495 110.35C61.7578 110.353 61.8799 110.48 61.8966 110.745C61.9065 110.902 61.8988 111.059 61.8988 111.217C61.8988 112.133 61.9009 113.048 61.8979 113.964C61.8966 114.356 61.8559 114.416 61.504 114.516C59.7977 115.002 58.0772 115.074 56.3482 114.657C54.2711 114.156 53.062 112.817 52.642 110.739C52.5228 110.15 52.4705 109.552 52.4718 108.949C52.4761 106.66 52.4735 104.37 52.4735 102.08C52.4735 101.98 52.4645 101.879 52.4753 101.78C52.4941 101.605 52.4144 101.561 52.2532 101.563C51.6253 101.569 50.9978 101.565 50.3699 101.564C50.2842 101.564 50.1985 101.568 50.1132 101.564C49.7283 101.546 49.6181 101.433 49.6138 101.032C49.6082 100.502 49.6125 99.9727 49.6125 99.4435C49.6125 99.0427 49.6095 98.642 49.6134 98.2413C49.6173 97.8491 49.673 97.7675 50.0493 97.6711C50.7389 97.4949 51.432 97.3328 52.1229 97.1621C52.4714 97.0756 52.4731 97.0726 52.4735 96.7244C52.4744 95.3218 52.4735 93.9193 52.474 92.5171C52.474 92.417 52.4727 92.3168 52.4753 92.2166C52.4795 92.0429 52.5747 91.9573 52.7436 91.9487C52.8147 91.9453 52.8863 91.9457 52.9574 91.9457C54.4417 91.9457 55.926 91.9449 57.4103 91.9461C57.8754 91.9466 57.8934 91.9642 57.8942 92.4273C57.8959 93.801 57.8942 95.1748 57.8955 96.5489C57.8955 96.9243 57.8989 96.9273 58.2637 96.9282C59.2628 96.9299 60.2619 96.9269 61.2606 96.9294C61.7526 96.9307 61.834 97.0116 61.8349 97.5039C61.8375 98.6631 61.8375 99.8223 61.8349 100.981C61.8336 101.461 61.7367 101.561 61.2567 101.564C60.2722 101.568 59.2876 101.564 58.3031 101.565C57.8964 101.565 57.8951 101.567 57.8947 101.991C57.8938 103.065 57.8947 104.138 57.8947 105.211L57.8942 105.212Z" fill="#010101"/>
<path d="M47.8475 105.712C47.8475 108.359 47.8475 111.006 47.8475 113.652C47.8475 113.767 47.8548 113.882 47.8428 113.996C47.8136 114.268 47.6872 114.406 47.4155 114.452C47.2899 114.473 47.1596 114.469 47.0314 114.469C45.776 114.471 44.5202 114.47 43.2648 114.469C43.1507 114.469 43.0359 114.472 42.9227 114.46C42.5233 114.419 42.372 114.261 42.3407 113.86C42.3317 113.746 42.3334 113.631 42.3334 113.517C42.3329 108.26 42.3325 103.004 42.3325 97.7471C42.3325 97.6758 42.3325 97.604 42.3347 97.5326C42.3484 97.0476 42.4645 96.9302 42.9549 96.9293C44.3959 96.9268 45.8369 96.9263 47.2779 96.9293C47.7609 96.9302 47.8462 97.0205 47.8466 97.5137C47.8479 100.246 47.8471 102.979 47.8471 105.711L47.8475 105.712Z" fill="#010101"/>
<path d="M48.1904 92.4345C48.2114 93.8878 47.1304 95.5264 45.1472 95.5363C43.2352 95.5457 42.0818 93.9574 42.0912 92.4474C42.1019 90.7258 43.4306 89.3598 45.1343 89.343C46.8107 89.3267 48.1874 90.7194 48.1899 92.4345H48.1904Z" fill="#010101"/>
</g>
<defs>
<clipPath id="clip0_2451_572">
<rect width="100" height="90" fill="white" transform="translate(20 25)"/>
</clipPath>
</defs>
</svg>
