<svg width="140" height="140" viewBox="0 0 140 140" fill="none" xmlns="http://www.w3.org/2000/svg">
<rect width="140" height="140" rx="30" fill="#F7BC42"/>
<path d="M40.0092 52.4338C39.6032 36.8607 52.7013 22.4153 70.2865 22.5004C85.5854 22.5642 98.2776 34.2865 99.8374 49.4553C100.628 57.2631 98.5126 64.1774 94.0041 70.4747C88.7264 77.8782 83.4701 85.3031 78.1924 92.7067C76.6326 94.9192 74.5813 95.9191 71.7609 96.1744C66.5259 96.6425 62.9576 94.9618 60.0516 90.4303C55.3722 83.1331 50.0731 76.2614 45.1159 69.1556C41.6331 64.1348 39.8383 58.5609 40.0306 52.4125L40.0092 52.4338ZM70.0942 79.3462C75.03 72.0915 79.9018 65.3688 84.282 58.3481C86.2051 55.2633 86.0769 51.4764 84.8803 47.9661C82.8077 41.9028 78.577 38.0734 72.2309 37.116C65.9703 36.18 60.7781 38.5202 57.1671 43.7112C53.4919 49.0086 53.4064 54.6889 56.5902 60.2203C58.3209 63.22 60.5217 65.9644 62.5302 68.794C64.9234 72.1554 67.3379 75.5168 70.0729 79.3462H70.0942Z" fill="#009B7E"/>
<path d="M70.0389 101.25C74.1668 101.25 77.5 104.863 77.5 109.342C77.5 113.756 74.128 117.456 70.0389 117.5C65.7948 117.543 62.4616 113.886 62.5003 109.256C62.5585 104.777 65.8723 101.25 70.0195 101.25H70.0389Z" fill="#009B7E"/>
</svg>
