<svg width="140" height="140" viewBox="0 0 140 140" fill="none" xmlns="http://www.w3.org/2000/svg">
<rect width="140" height="140" rx="30" fill="#1C449B"/>
<g clip-path="url(#clip0_2464_2)">
<path d="M55.592 53.9317C55.735 53.9317 55.8405 53.9317 55.9452 53.9317C58.4394 53.9317 60.9336 53.9366 63.4278 53.9246C63.6919 53.9231 63.8087 53.9999 63.9014 54.2472C65.9822 59.7669 68.0721 65.2837 70.1606 70.8006C70.1911 70.8816 70.2258 70.9605 70.276 71.0841C70.3277 70.9946 70.366 70.9427 70.3886 70.8851C72.4453 65.7343 74.5005 60.5834 76.5558 55.4326C76.7299 54.9969 76.9083 54.5634 77.079 54.1264C77.1278 54.0006 77.1802 53.9274 77.3395 53.9281C79.993 53.9338 82.6465 53.9324 85.3 53.9331C85.3347 53.9331 85.3701 53.9402 85.4437 53.948C87.055 64.6264 88.6678 75.3111 90.2848 86.0236C90.1935 86.0335 90.1191 86.0484 90.0441 86.0484C87.4437 86.0499 84.8433 86.0484 82.2429 86.0527C82.061 86.0527 81.9838 86.015 81.9597 85.8111C81.799 84.4665 81.6192 83.1241 81.4507 81.7802C81.2489 80.1727 81.0542 78.5645 80.8518 76.9577C80.6649 75.4738 80.4687 73.9907 80.2818 72.5068C80.0956 71.023 79.9165 69.5384 79.7318 68.0546C79.7098 67.8769 79.6751 67.7007 79.6468 67.5237C79.6206 67.5187 79.5951 67.5145 79.5689 67.5095C79.5264 67.5863 79.4755 67.6587 79.4415 67.7398C77.8011 71.6853 76.1621 75.6316 74.5232 79.5772C73.658 81.6601 72.7894 83.7416 71.9299 85.8274C71.8619 85.9916 71.7819 86.0562 71.6007 86.0548C70.6541 86.0456 69.7075 86.0449 68.7617 86.0548C68.5833 86.057 68.5153 85.9788 68.4566 85.8317C67.5475 83.5284 66.6349 81.2259 65.7224 78.9241C64.2356 75.1747 62.7482 71.4252 61.26 67.6758C61.2388 67.6218 61.2012 67.5742 61.1389 67.4704C61.0972 67.5863 61.0603 67.6516 61.0504 67.7206C60.7963 69.4894 60.5464 71.2589 60.2915 73.0278C60.055 74.6651 59.8122 76.3018 59.575 77.9391C59.352 79.4798 59.1339 81.0219 58.9116 82.5627C58.7531 83.6663 58.5895 84.7692 58.4338 85.8729C58.4118 86.0271 58.3283 86.0534 58.1973 86.052C57.764 86.0477 57.3307 86.0491 56.8975 86.0491C54.775 86.0491 52.6517 86.0499 50.5292 86.0506C50.4245 86.0506 50.3197 86.0506 50.1526 86.0506C51.9678 75.3317 53.7781 64.647 55.5927 53.9338L55.592 53.9317Z" fill="white"/>
<path d="M49.5587 61.8866C46.964 62.9775 44.3777 64.0641 41.7653 65.162C41.6605 64.9268 41.5664 64.7015 41.4623 64.4812C40.6623 62.792 39.4941 61.4567 37.7589 60.6955C36.3054 60.0574 34.7861 59.9465 33.2441 60.277C30.5857 60.8462 28.8547 62.5497 27.7198 64.9368C26.8186 66.8321 26.4837 68.8489 26.6062 70.9319C26.7478 73.331 27.4572 75.5419 29.0083 77.4166C30.3478 79.0355 32.0647 79.9835 34.1702 80.1804C35.8367 80.336 37.4361 80.1129 38.903 79.2636C40.4761 78.3533 41.3412 76.949 41.6351 75.1709C41.662 75.0075 41.6775 74.8426 41.7037 74.6387C41.5551 74.6387 41.4425 74.6387 41.3299 74.6387C39.3044 74.6387 37.2789 74.633 35.2541 74.6415C35.0028 74.6429 34.9235 74.5768 34.9249 74.3167C34.9355 72.3745 34.9312 70.4323 34.9312 68.4893C34.9312 68.3856 34.9312 68.2811 34.9312 68.161H51.2855C51.2855 68.2569 51.2855 68.3493 51.2855 68.4424C51.277 70.057 51.1814 71.666 50.9506 73.2642C50.4054 77.0378 48.8911 80.3339 46.0967 82.9747C44.1533 84.8117 41.8397 85.9538 39.2442 86.5365C37.2555 86.9828 35.2449 87.0901 33.213 86.9245C31.0714 86.7497 29.0105 86.2657 27.0671 85.3447C22.9042 83.3726 20.1707 80.1505 18.8022 75.7515C18.1331 73.6054 17.9257 71.4002 18.0227 69.1645C18.148 66.2664 18.8156 63.5076 20.2663 60.9748C22.1424 57.698 24.8922 55.4566 28.4122 54.1511C30.3584 53.4298 32.3769 53.0872 34.4477 53.014C36.5476 52.9401 38.6106 53.1434 40.6219 53.7723C44.0889 54.8554 46.7367 56.9895 48.6171 60.0901C48.9378 60.6188 49.2076 61.1781 49.4999 61.7246C49.524 61.7701 49.5361 61.8219 49.5594 61.8866H49.5587Z" fill="white"/>
<path d="M106.184 76.3181C105.831 76.9094 105.495 77.4701 105.16 78.0308C103.614 80.6233 102.066 83.2157 100.525 85.8118C100.434 85.9646 100.334 86.0058 100.167 86.0058C96.9483 86.0015 93.7285 86.0029 90.5093 86.0029C90.4739 86.0029 90.4392 85.9987 90.3613 85.993C90.4166 85.8963 90.4583 85.8153 90.5065 85.7386C93.9366 80.2608 97.3653 74.7831 100.803 69.3096C100.953 69.0715 100.95 68.9209 100.783 68.6871C97.3568 63.8553 93.9408 59.0157 90.5227 54.1776C90.4774 54.1136 90.435 54.0475 90.3691 53.9487C90.4796 53.9416 90.561 53.931 90.6431 53.931C93.8184 53.931 96.9936 53.9324 100.169 53.9274C100.349 53.9274 100.453 53.9828 100.555 54.1328C102.162 56.5199 103.775 58.9027 105.387 61.2863C105.446 61.373 105.508 61.4582 105.591 61.5769C105.666 61.4682 105.729 61.3886 105.782 61.3033C107.279 58.9191 108.777 56.5348 110.272 54.1491C110.356 54.0148 110.435 53.9253 110.619 53.926C113.555 53.9331 116.491 53.9317 119.428 53.9331C119.463 53.9331 119.498 53.9374 119.569 53.9423C119.53 54.0241 119.504 54.093 119.467 54.1555C117.416 57.5809 115.363 61.0063 113.311 64.4316C112.447 65.8743 111.585 67.319 110.714 68.7581C110.604 68.9408 110.599 69.0694 110.723 69.2549C114.174 74.361 117.618 79.472 121.062 84.5823C121.334 84.986 121.607 85.3896 121.878 85.794C121.916 85.8502 121.945 85.9113 121.999 86.0051C121.79 86.0051 121.617 86.0051 121.444 86.0051C118.72 86.0051 115.996 86.0029 113.271 86.0086C113.102 86.0086 113 85.9617 112.9 85.8217C110.728 82.7382 108.551 79.6582 106.375 76.5775C106.32 76.5 106.26 76.4254 106.182 76.3209L106.184 76.3181Z" fill="white"/>
</g>
<defs>
<clipPath id="clip0_2464_2">
<rect width="104" height="34" fill="white" transform="translate(18 53)"/>
</clipPath>
</defs>
</svg>
