<svg width="140" height="140" viewBox="0 0 140 140" fill="none" xmlns="http://www.w3.org/2000/svg">
<rect width="140" height="140" rx="30" fill="#163E9D"/>
<g clip-path="url(#clip0_670_18859)">
<path d="M20 53.37C20.1052 69.7457 33.1874 83.1446 49.2607 83.3339C57.0343 83.4251 64.1273 80.4643 69.4604 75.5555L69.9709 75.0149C74.2853 71.4268 76.9788 65.8519 78.7699 59.1661C79.2535 57.3595 79.4058 55.4845 79.3453 53.6118C79.3409 53.4635 79.3386 53.3175 79.3386 53.1692C79.3386 46.4127 84.2643 40.9382 90.3408 40.9382C96.4172 40.9382 101.345 46.4127 101.345 53.1692C101.345 59.9257 96.4195 65.398 90.3408 65.398C85.8136 65.398 81.9246 62.3573 80.2364 58.0142C80.1334 58.4887 80.0237 58.9586 79.9051 59.4216V81.3904C83.0038 82.5857 86.3532 83.2655 89.8504 83.3316C90.0296 83.3339 90.2087 83.3362 90.39 83.3362C106.743 83.3362 120 69.8301 120 53.1692C120 36.5084 106.743 23 90.39 23C90.2087 23 90.0296 23.0023 89.8504 23.0046C82.1597 23.146 75.1876 26.2688 70 31.2916C64.3198 36.789 60.7778 44.556 60.7778 53.1692V53.1852C60.6927 54.7135 60.6547 55.3454 60.3882 56.3901L60.0367 57.7564C58.4157 62.4303 54.314 65.7493 49.507 65.7493C43.2827 65.7493 38.2362 60.1812 38.2362 53.3152" fill="#F79301"/>
<path d="M38.2363 53.3152C38.2363 46.447 43.2829 40.8789 49.5071 40.8789C54.2828 40.8789 58.4898 44.2275 60.1309 48.858C61.1452 41.7503 64.47 35.377 69.4606 30.7807C64.208 25.9448 57.2472 23 49.6124 23C33.1942 23 19.8927 36.6156 20.0002 53.37" fill="#F79301"/>
<path d="M46.3255 100.487C46.9031 100.462 49.9884 99.6777 50.5123 99.4268C55.6148 96.9929 57.5694 94.8852 59.6158 90.0927C60.6569 87.2779 60.6838 84.7824 60.7017 82.2892C64.5101 81.0506 67.8529 78.8037 70.8665 75.8498C75.0802 70.9022 76.643 68.5641 79.1013 62.1498L79.22 61.7916L79.1371 82.2892C79.3028 88.7149 78.3154 94.892 74.2495 100.401C70.0157 106.487 64.9669 111.236 58.5859 113.795C51.9631 117.119 44.0641 118.017 34.4927 115.734" fill="#F79301"/>
</g>
<defs>
<clipPath id="clip0_670_18859">
<rect width="100" height="94" fill="white" transform="translate(20 23)"/>
</clipPath>
</defs>
</svg>
