<svg width="140" height="140" viewBox="0 0 140 140" fill="none" xmlns="http://www.w3.org/2000/svg">
<rect width="140" height="140" rx="30" fill="white"/>
<g clip-path="url(#clip0_850_4029)">
<path d="M68.848 91C68.6431 90.9579 68.4405 90.9052 68.2345 90.8759C66.2986 90.5983 64.792 89.1212 64.5088 87.1593C64.1601 84.7416 65.753 82.5173 68.0549 82.0593C69.0102 81.8695 69.9183 82.023 70.8092 82.372C70.8345 82.3826 70.8552 82.4048 70.8909 82.4318V84.9607C70.8138 84.8916 70.7516 84.8365 70.6918 84.7815C69.9862 84.129 69.1633 83.9428 68.2656 84.2216C67.4461 84.4757 66.9742 85.0942 66.7716 85.927C66.6485 86.4342 66.6957 86.9344 66.889 87.4158C67.2101 88.2158 67.8052 88.6609 68.6362 88.7979C69.4269 88.9291 70.1094 88.6937 70.7079 88.1701C70.7585 88.1268 70.8069 88.0811 70.8598 88.0342C70.9185 88.2427 70.9369 90.0559 70.8863 90.5198C70.526 90.6791 70.1428 90.7939 69.748 90.8724C69.5615 90.9087 69.3785 90.9579 69.1932 91H68.848Z" fill="#01B462"/>
<path d="M127 64.9754C126.916 64.9637 126.832 64.9532 126.726 64.9391C126.659 64.4577 126.741 63.9728 126.624 63.4867C126.58 63.5569 126.532 63.6249 126.494 63.6975C126.352 63.9622 126.213 64.2293 126.073 64.4952C126.028 64.5818 125.987 64.6674 125.868 64.672C125.733 64.6779 125.688 64.5818 125.639 64.487C125.505 64.2281 125.372 63.9692 125.237 63.7115C125.197 63.6354 125.151 63.5628 125.092 63.4621C124.971 63.6319 125.037 63.7982 125.024 63.9505C125.012 64.1051 125.022 64.2621 125.022 64.4179V64.9004C124.759 64.9649 124.728 64.9555 124.727 64.7716C124.722 64.1777 124.727 63.5827 124.73 62.9888C124.73 62.9619 124.749 62.935 124.758 62.9092C125.05 62.8354 125.07 62.8401 125.197 63.0767C125.375 63.4105 125.549 63.7467 125.726 64.0805C125.761 64.1461 125.802 64.207 125.861 64.3019C125.923 64.2012 125.97 64.1332 126.008 64.0606C126.173 63.7525 126.342 63.4468 126.493 63.1317C126.577 62.9549 126.677 62.8401 126.886 62.8787C126.923 62.8858 126.962 62.8729 127 62.8694V64.9742V64.9754Z" fill="#01B462"/>
<path d="M20.3903 69.8458C20.4593 69.5752 20.434 69.3726 20.4363 69.1735C20.4398 68.7811 20.4363 68.7811 20.8115 68.7811C21.7703 68.7811 22.7279 68.7811 23.6866 68.7811C23.7994 68.7811 23.9122 68.7811 24.0515 68.7811C24.0618 68.9087 24.0756 69.0036 24.0756 69.0973C24.0756 72.2833 24.0791 75.4705 24.0653 78.6565C24.063 79.1801 24.0319 79.7119 23.9352 80.2249C23.7016 81.4595 22.9811 82.3743 21.9728 83.0631C21.1637 83.6171 20.2579 83.9088 19.2934 84.0329C18.5867 84.1243 17.8777 84.143 17.1711 84.0798C15.4895 83.9275 14.0059 83.3383 12.9079 81.9644C12.5799 81.5544 12.2956 81.1152 12.1817 80.5857C12.1621 80.4932 12.154 80.3983 12.1368 80.2753C12.2438 80.2648 12.3267 80.2507 12.4084 80.2507C13.5973 80.2495 14.7851 80.2495 15.9741 80.2507C16.0972 80.2507 16.2192 80.2331 16.2848 80.3913C16.5127 80.9383 16.9535 81.2053 17.5083 81.2827C18.0239 81.3541 18.5372 81.3529 19.0345 81.1456C19.755 80.8446 20.205 80.3163 20.3581 79.5409C20.4639 79.0021 20.4432 78.4551 20.4214 77.9092C20.4214 77.8928 20.4029 77.8776 20.3719 77.8284C20.2614 77.9116 20.1463 77.9889 20.0427 78.0791C19.5789 78.4844 19.0667 78.8135 18.4682 78.9529C16.3953 79.4355 14.5711 79.0126 13.1185 77.354C12.5776 76.7367 12.2772 75.9883 12.1299 75.1789C11.9515 74.1985 11.9296 73.2134 12.2438 72.2611C12.924 70.1925 14.2891 68.8994 16.4471 68.5527C17.2424 68.425 18.0285 68.4613 18.7997 68.7307C19.3176 68.9123 19.7665 69.1969 20.144 69.5975C20.2084 69.6654 20.2752 69.731 20.3903 69.8481V69.8458ZM18.1931 76.226C19.4039 76.2893 20.6067 75.2503 20.6078 73.8681C20.609 72.4719 19.5639 71.3931 18.2035 71.3943C16.8902 71.3943 15.8037 72.4883 15.8037 73.8271C15.8037 75.1976 16.9973 76.2858 18.1931 76.226Z" fill="#01B462"/>
<path d="M103.76 78.9049C103.445 78.9717 100.336 78.9623 100.094 78.8932V78.5629C100.094 76.9359 100.1 75.3077 100.089 73.6808C100.087 73.313 100.052 72.9405 99.9845 72.5797C99.8683 71.9589 99.4586 71.5993 98.8693 71.4588C97.8231 71.2093 96.923 71.8488 96.7791 72.937C96.7515 73.149 96.7389 73.3633 96.7389 73.5777C96.7342 75.2152 96.7343 76.8516 96.7331 78.4891C96.7331 78.6238 96.7331 78.7573 96.7331 78.8791C96.5121 78.96 93.4644 78.9834 93.1283 78.919C93.0639 78.721 93.0466 69.1454 93.1156 68.8034H96.725C96.7308 69.1969 96.7354 69.5788 96.7423 70.0344C96.9161 69.8986 97.037 69.8119 97.1486 69.7158C97.6838 69.2543 98.288 68.9299 98.9717 68.7647C99.8959 68.541 100.814 68.5738 101.721 68.8584C102.472 69.0939 103.056 69.5659 103.518 70.2031C103.584 70.2933 103.657 70.3788 103.75 70.4971C103.833 70.3952 103.897 70.3261 103.951 70.2511C104.714 69.1794 105.768 68.6757 107.046 68.6136C107.496 68.5914 107.945 68.6054 108.385 68.7284C108.864 68.8619 109.293 69.0845 109.686 69.3914C110.264 69.8412 110.601 70.4385 110.702 71.1612C110.767 71.6228 110.809 72.0913 110.813 72.5575C110.827 74.5651 110.821 76.5716 110.823 78.5793C110.823 78.6378 110.82 78.6964 110.823 78.755C110.83 78.9037 110.748 78.9705 110.615 78.9764C110.501 78.981 110.386 78.9658 110.271 78.967C109.331 78.9693 108.392 78.9728 107.453 78.9775C107.194 78.9787 107.158 78.9529 107.158 78.6753C107.156 77.477 107.161 76.2776 107.155 75.0793C107.152 74.4468 107.139 73.8131 107.117 73.1806C107.11 72.9873 107.07 72.7941 107.031 72.6043C106.799 71.4939 105.799 71.2058 104.999 71.4857C104.341 71.7165 104.004 72.2295 103.879 72.8878C103.802 73.2966 103.769 73.7194 103.765 74.1353C103.753 75.6158 103.762 77.0975 103.763 78.5781C103.763 78.6835 103.763 78.7889 103.763 78.9037L103.76 78.9049Z" fill="#01B462"/>
<path d="M85.5633 69.7428C85.5772 69.5647 85.5944 69.4534 85.5944 69.3433C85.5956 67.1998 85.5956 65.0563 85.5944 62.9116C85.5944 62.3798 85.576 62.4196 86.079 62.4196C87.0089 62.4196 87.9378 62.4196 88.8677 62.4196C88.9817 62.4196 89.0945 62.4196 89.2395 62.4196C89.251 62.566 89.2683 62.6867 89.2683 62.8085C89.2706 64.2996 89.2694 65.7907 89.2694 67.2806C89.2694 71.0125 89.2694 74.7443 89.2694 78.4774C89.2694 78.6203 89.2579 78.7643 89.251 78.9295H85.6082V77.9491C85.5023 78.003 85.4436 78.0229 85.3976 78.0592C85.3297 78.1119 85.2687 78.1763 85.2065 78.2361C84.6092 78.8124 83.8968 79.131 83.083 79.2387C81.0988 79.5011 79.4944 78.7831 78.2087 77.2756C77.6298 76.5974 77.3306 75.7798 77.1878 74.8966C77.0382 73.9701 77.0187 73.0436 77.3248 72.1534C77.9924 70.2101 79.301 68.9755 81.3083 68.555C82.4247 68.3219 83.5008 68.4379 84.5137 68.9873C84.7819 69.1325 85.0201 69.334 85.271 69.512C85.3539 69.5706 85.4298 69.6373 85.5633 69.7428ZM85.6025 73.9642C85.6243 72.8222 84.7703 71.5431 83.1924 71.5244C81.886 71.5091 80.8007 72.6313 80.7984 73.9642C80.7961 75.2773 81.9114 76.3854 83.2223 76.3713C84.5494 76.3584 85.6025 75.2925 85.6036 73.9642H85.6025Z" fill="#01B462"/>
<path d="M26.2559 74.0017C26.3019 71.8406 27.2169 70.3682 28.8559 69.3351C29.5982 68.8666 30.4246 68.6288 31.2844 68.4965C32.0267 68.3817 32.7691 68.3711 33.5172 68.4414C35.2068 68.5995 36.6421 69.2848 37.7159 70.6306C39.5137 72.8843 39.2076 76.7016 36.1357 78.4774C35.4198 78.8908 34.6498 79.1485 33.8314 79.234C33.3089 79.2891 32.7818 79.343 32.2581 79.3359C31.2752 79.3219 30.3164 79.1427 29.4152 78.7245C27.3573 77.7687 26.3882 76.0808 26.2559 74.0017ZM32.494 71.4412C32.3456 71.4599 32.143 71.4705 31.9485 71.515C30.5673 71.8265 29.5418 73.4629 30.3544 74.9856C31.1762 76.5271 33.1892 76.6278 34.2331 75.6521C35.0158 74.92 35.2655 73.6913 34.7729 72.7988C34.2895 71.9226 33.5426 71.467 32.4952 71.4412H32.494Z" fill="#01B462"/>
<path d="M95.4777 64.9356C95.564 64.8173 95.6204 64.7318 95.6849 64.6533C96.5504 63.5851 97.6093 62.7616 98.804 62.1115C100.148 61.3806 101.582 60.9109 103.072 60.6076C104.721 60.2714 106.389 60.1589 108.068 60.1788C109.045 60.1906 110.019 60.2433 110.989 60.3709C113.154 60.6556 115.226 61.2342 117.12 62.3727C118.143 62.9877 119.045 63.7514 119.809 64.6791C119.869 64.7517 119.922 64.829 120.001 64.9356H95.4766H95.4777Z" fill="#01B462"/>
<path d="M74.9321 78.9341H71.2962C71.2882 78.8029 71.2755 78.6905 71.2755 78.5781C71.2744 76.9804 71.2801 75.3815 71.2709 73.7838C71.2686 73.4148 71.2295 73.0447 71.18 72.6792C71.0695 71.8593 70.5907 71.44 69.7482 71.3451C69.2314 71.2865 68.763 71.4201 68.3463 71.7445C67.9584 72.0467 67.7455 72.4473 67.6891 72.9323C67.6546 73.2309 67.6327 73.5343 67.6316 73.8353C67.627 75.4143 67.6316 76.9921 67.6316 78.571C67.6316 78.6764 67.6316 78.7819 67.6316 78.8779C67.4244 78.9517 64.4377 78.9798 63.9923 78.9142C63.9842 78.8111 63.9692 78.6999 63.9692 78.5886C63.9692 75.5092 63.9692 72.4298 63.9692 69.3503C63.9692 69.177 63.9692 69.0036 63.9692 68.8045C64.0878 68.7904 64.1787 68.7694 64.2708 68.7694C65.2871 68.767 66.3022 68.767 67.3185 68.7694C67.4106 68.7694 67.5027 68.7869 67.6235 68.7998V70.0051C67.7202 69.9407 67.7754 69.9126 67.8192 69.8727C67.8767 69.8212 67.9262 69.7615 67.9792 69.7052C68.6295 69.0071 69.4386 68.6428 70.3686 68.5702C71.0752 68.5152 71.7854 68.5058 72.4748 68.7307C73.8467 69.1793 74.6593 70.1164 74.8734 71.5712C74.9114 71.83 74.9286 72.0948 74.9286 72.356C74.9332 74.4316 74.9309 76.5071 74.9309 78.5827C74.9309 78.687 74.9309 78.7924 74.9309 78.9341H74.9321Z" fill="#01B462"/>
<path d="M57.8149 68.7928H61.4565C61.4646 68.9111 61.4772 69.0048 61.4772 69.0997C61.4749 71.2151 61.4726 73.3294 61.4692 75.4448C61.4692 75.9262 61.3898 76.3959 61.2183 76.8457C60.911 77.6562 60.3458 78.2314 59.6046 78.639C58.9739 78.9857 58.2937 79.1755 57.5893 79.2879C56.8872 79.4004 56.1782 79.4355 55.4692 79.4027C54.5001 79.3582 53.5414 79.2434 52.6436 78.8311C52.151 78.605 51.6976 78.318 51.3177 77.9221C50.7733 77.3564 50.4764 76.6735 50.3993 75.8934C50.3659 75.5643 50.3544 75.2328 50.3544 74.9013C50.3498 73.0201 50.3521 71.139 50.3521 69.2578C50.3521 69.1793 50.3498 69.102 50.3521 69.0236C50.3625 68.8127 50.3981 68.7729 50.6134 68.7706C50.9011 68.767 51.1888 68.7776 51.4754 68.7776C52.2132 68.7776 52.9521 68.7741 53.6899 68.7717C53.7566 68.7717 53.8245 68.7706 53.8913 68.7752C53.9914 68.7823 54.0501 68.8338 54.0513 68.9416C54.0513 69.0294 54.0536 69.1173 54.0536 69.2051C54.0536 70.9984 54.0478 72.7917 54.0547 74.585C54.0547 74.8345 54.0915 75.0922 54.156 75.3323C54.2849 75.8149 54.5991 76.1464 55.063 76.3151C55.612 76.5142 56.1702 76.5294 56.7249 76.3385C57.3165 76.1347 57.6538 75.7048 57.755 75.0864C57.7942 74.8474 57.8103 74.6014 57.8103 74.359C57.816 72.6336 57.8137 70.9094 57.8149 69.184C57.8149 69.0681 57.8149 68.9533 57.8149 68.7952V68.7928Z" fill="#01B462"/>
<path d="M124.426 74.51H124.039C121.767 74.51 119.495 74.51 117.223 74.5112C117.073 74.5112 116.922 74.5323 116.783 74.5428C116.606 75.3323 117.071 76.308 117.775 76.622C118.39 76.896 119.032 76.9523 119.684 76.7742C120.086 76.6641 120.416 76.4369 120.669 76.1019C120.764 75.9742 120.871 75.9098 121.03 75.9098C122.046 75.9133 123.063 75.9098 124.078 75.9121C124.142 75.9121 124.205 75.9332 124.304 75.9496C124.269 76.0855 124.249 76.2073 124.205 76.3209C123.712 77.5895 122.825 78.4504 121.574 78.933C120.877 79.2012 120.153 79.323 119.412 79.3429C118.528 79.3675 117.65 79.3137 116.796 79.056C116.081 78.8405 115.421 78.5136 114.838 78.0404C114.047 77.3997 113.528 76.5751 113.266 75.5853C112.95 74.3929 112.91 73.197 113.322 72.0198C113.924 70.2991 115.078 69.1805 116.839 68.7272C118.07 68.4098 119.295 68.3852 120.533 68.671C122.363 69.095 123.559 70.2206 124.161 72.0175C124.415 72.7753 124.487 73.5566 124.46 74.3507C124.459 74.3882 124.445 74.4245 124.428 74.5112L124.426 74.51ZM121.043 72.4965C121.036 72.3923 121.044 72.3126 121.023 72.2424C120.921 71.8945 120.758 71.5817 120.522 71.3018C119.84 70.4924 118.036 70.4362 117.278 71.4095C117.084 71.6579 116.948 71.9331 116.873 72.2377C116.822 72.445 116.869 72.5047 117.073 72.5223C117.111 72.5258 117.149 72.5246 117.188 72.5246C118.375 72.5246 119.56 72.5246 120.747 72.5246C120.839 72.5246 120.931 72.5071 121.043 72.4965Z" fill="#01B462"/>
<path d="M48.7958 65.8563C48.6531 65.7895 48.5518 65.7403 48.4482 65.6958C48.0166 65.5084 47.5735 65.41 47.1062 65.5353C46.6412 65.6607 46.3742 65.9793 46.2867 66.4501C46.2499 66.6504 46.2361 66.8566 46.2315 67.0604C46.2223 67.5078 46.2234 67.9565 46.2223 68.4051C46.2223 68.7319 46.2303 68.7401 46.5664 68.7401C47.2087 68.7401 47.8509 68.7389 48.492 68.7401C48.8039 68.7401 48.8119 68.7483 48.8131 69.0704C48.8131 69.84 48.8142 70.6095 48.8131 71.3791C48.8131 71.6801 48.8004 71.6942 48.5069 71.6953C47.8751 71.6977 47.242 71.6953 46.6102 71.6965C46.533 71.6965 46.4571 71.6965 46.38 71.7035C46.2787 71.7117 46.2246 71.7703 46.2234 71.8746C46.2223 71.9624 46.2211 72.0503 46.2211 72.1381C46.2211 74.2723 46.2211 76.4052 46.2211 78.5394C46.2211 78.6624 46.2073 78.7854 46.1981 78.9236H42.5576C42.5461 78.8018 42.5266 78.6905 42.5266 78.5781C42.5243 76.4837 42.5254 74.3882 42.5254 72.2939C42.5254 72.1967 42.5277 72.0994 42.5254 72.0011C42.5174 71.7422 42.4771 71.7024 42.2147 71.7C41.9845 71.6977 41.7543 71.7035 41.5252 71.7024C41.432 71.7024 41.3388 71.6907 41.2076 71.6813C41.1984 70.7126 41.2087 69.765 41.2041 68.7811C41.5103 68.7764 41.7762 68.7658 42.0409 68.7694C42.5277 68.7764 42.5254 68.7799 42.5243 68.2715C42.522 67.5805 42.5013 66.8882 42.6221 66.203C42.9536 64.323 44.0769 63.1622 45.8333 62.607C46.7034 62.3317 47.5862 62.3317 48.4574 62.6457C48.7912 62.7663 48.8165 62.7968 48.8165 63.1446C48.8165 63.9634 48.8177 64.781 48.8165 65.5997C48.8165 65.6665 48.8073 65.7333 48.797 65.8563H48.7958Z" fill="#01B462"/>
<path d="M100.702 58.8283C100.735 59.3133 100.53 59.6963 100.198 60.0207C99.7304 60.474 99.1619 60.7071 98.5323 60.8067C98.1698 60.8641 97.8084 60.8653 97.4458 60.8067C97.043 60.7423 96.6678 60.6099 96.334 60.3663C94.687 59.1586 93.0388 57.9533 91.3929 56.7434C90.8577 56.3498 90.3467 55.9176 89.7931 55.5533C88.847 54.9313 88.7354 53.3137 89.8253 52.4996C90.1959 52.2232 90.6218 52.0826 91.0707 52.0065C92.0847 51.8343 92.9766 52.1236 93.795 52.7292C95.7309 54.1617 97.6737 55.5849 99.6084 57.0198C99.8536 57.2013 100.077 57.4216 100.282 57.6511C100.575 57.9791 100.728 58.3738 100.702 58.8271V58.8283Z" fill="#01B462"/>
<path d="M118.155 61C117.304 61.0058 116.624 60.802 116.01 60.3475C115.078 59.6576 115.152 58.464 115.743 57.8034C115.936 57.5879 116.142 57.3782 116.372 57.2072C118.338 55.7477 120.31 54.2976 122.281 52.8463C122.97 52.338 123.733 52.0698 124.593 52.1272C125.087 52.16 125.561 52.2701 125.989 52.5277C126.657 52.9307 126.983 53.5222 126.947 54.3246C126.92 54.9231 126.681 55.3729 126.2 55.7266C124.156 57.2248 122.122 58.7381 120.084 60.2456C119.984 60.3206 119.877 60.3862 119.778 60.4635C119.268 60.8559 118.69 61.021 118.156 61.0011L118.155 61Z" fill="#01B462"/>
<path d="M105.263 54.4721C105.263 53.8197 105.279 53.1661 105.26 52.5148C105.223 51.313 105.93 50.4615 107.047 50.1499C107.81 49.9367 108.584 49.952 109.34 50.1991C110.147 50.4627 110.696 50.9851 110.852 51.8636C110.874 51.9877 110.881 52.1154 110.881 52.2407C110.879 53.6534 110.881 55.0648 110.865 56.4774C110.856 57.3208 110.449 57.9416 109.735 58.3469C109.096 58.71 108.398 58.8049 107.678 58.7404C107.277 58.7041 106.881 58.6327 106.51 58.4628C105.9 58.1852 105.463 57.7483 105.31 57.0678C105.272 56.8991 105.265 56.7211 105.264 56.5465C105.26 55.8554 105.262 55.1632 105.262 54.4721H105.263Z" fill="#01B462"/>
<path d="M73.8304 82.1389H75.9056C75.9171 82.2596 75.9366 82.372 75.9366 82.4833C75.9389 83.3021 75.9366 84.1197 75.9389 84.9384C75.9389 85.0637 75.9516 85.1879 75.9585 85.3332H79.1938C79.2192 84.2684 79.1881 83.2119 79.2111 82.1413H81.3358C81.3876 82.7129 81.353 83.2833 81.3588 83.8526C81.3645 84.4277 81.3599 85.0017 81.3599 85.5768V88.9971C81.3599 89.5687 81.3599 90.1415 81.3599 90.7318H79.2249C79.2169 90.6264 79.2031 90.5151 79.2031 90.4027C79.2008 89.4773 79.2031 88.552 79.2008 87.6254C79.2008 87.5107 79.1869 87.397 79.1812 87.2904C78.9395 87.2272 76.2693 87.219 75.9424 87.2811C75.9389 88.4173 75.9343 89.5616 75.9309 90.7271H73.8454C73.789 90.5057 73.7705 82.5583 73.8281 82.1366L73.8304 82.1389Z" fill="#01B462"/>
<path d="M94.2495 82.1412C94.3439 82.1342 94.4187 82.1248 94.4935 82.1248C95.6053 82.1248 96.7172 82.1201 97.829 82.1307C98.0753 82.133 98.3262 82.1705 98.5656 82.2267C99.3609 82.4141 99.9042 82.9155 100.214 83.6757C100.46 84.2789 100.5 84.9055 100.35 85.5381C100.161 86.3299 99.6705 86.85 98.9166 87.117C98.8188 87.151 98.7198 87.1814 98.576 87.2283C99.0122 87.8432 99.4576 88.4113 99.888 88.99C100.314 89.5616 100.744 90.1297 101.201 90.7376C101.077 90.7434 101.004 90.7505 100.932 90.7505C100.223 90.7505 99.5128 90.7423 98.8038 90.7563C98.6024 90.7598 98.4954 90.6837 98.393 90.5197C97.8117 89.5909 97.2213 88.669 96.6331 87.7448C96.579 87.6605 96.5157 87.5809 96.4271 87.5106C96.365 87.8749 96.3857 88.2298 96.3822 88.5847C96.3788 88.9349 96.3822 89.2863 96.3822 89.6377V90.7329H94.2495V82.1436V82.1412ZM96.4168 83.808C96.3558 84.1969 96.3719 85.7735 96.4386 85.9996C96.7966 86.0511 97.1545 86.0171 97.5033 85.9012C97.9659 85.7477 98.2019 85.4069 98.2076 84.9161C98.2134 84.4394 97.9706 84.0774 97.5297 83.9064C97.1718 83.767 96.8035 83.774 96.4168 83.808Z" fill="#01B462"/>
<path d="M92.0721 90.7388H89.7921C89.7552 90.6463 89.715 90.5491 89.6781 90.4507C89.5653 90.1403 89.4479 89.8322 89.3443 89.5183C89.2914 89.3602 89.2143 89.284 89.037 89.2864C88.1462 89.2946 87.2542 89.2946 86.3634 89.2864C86.193 89.2852 86.1021 89.3438 86.0423 89.5054C85.8903 89.9142 85.7234 90.3183 85.5589 90.7341H83.3433C83.349 90.5245 86.2793 82.6566 86.5452 82.1389H88.9058C89.9578 84.9981 91.0098 87.8562 92.071 90.7388H92.0721ZM87.7111 84.8013C87.5201 85.0989 86.7777 87.3888 86.7904 87.6301C87.4038 87.6196 88.0184 87.6524 88.6756 87.6067C88.3522 86.6497 88.0472 85.7361 87.71 84.8013H87.7111Z" fill="#01B462"/>
<path d="M116.036 82.1401C116.156 82.133 116.228 82.1248 116.302 82.1248C116.982 82.1248 117.664 82.1307 118.344 82.1201C118.529 82.1166 118.642 82.1775 118.744 82.3321C119.161 82.9623 119.59 83.5855 120.015 84.2098C120.073 84.2953 120.137 84.3749 120.22 84.4874C120.298 84.3785 120.355 84.3047 120.406 84.2262C120.821 83.5937 121.238 82.9635 121.645 82.3263C121.739 82.1787 121.842 82.1178 122.015 82.1201C122.782 82.1283 123.548 82.1237 124.328 82.1237C124.339 82.2548 124.249 82.3239 124.194 82.4048C123.28 83.7049 122.369 85.0063 121.447 86.3006C121.299 86.5079 121.229 86.7129 121.232 86.9718C121.243 88.1021 121.236 89.2324 121.236 90.3628C121.236 90.4776 121.236 90.5924 121.236 90.7282H119.094C119.09 90.624 119.08 90.5209 119.08 90.4178C119.08 89.2383 119.077 88.0588 119.083 86.8804C119.083 86.6953 119.037 86.5454 118.933 86.3943C118.028 85.0754 117.13 83.7541 116.228 82.4329C116.171 82.3474 116.116 82.2607 116.036 82.1412V82.1401Z" fill="#01B462"/>
<path d="M108.637 82.1389H114.372V83.9592C113.794 83.9884 113.214 83.951 112.596 83.9826C112.591 86.2456 112.596 88.4805 112.593 90.733H110.46C110.455 90.6135 110.445 90.4917 110.445 90.3698C110.445 88.3821 110.445 86.3943 110.445 84.4066V83.9931C109.831 83.9404 109.241 83.999 108.637 83.958V82.1413V82.1389Z" fill="#01B462"/>
<path d="M105.628 90.7353H103.555C103.484 90.5011 103.479 82.4131 103.552 82.1401H105.602C105.665 82.3603 105.689 90.2106 105.628 90.7353Z" fill="#01B462"/>
<path d="M123.806 64.9368C123.71 64.9415 123.629 64.945 123.506 64.9508V63.1447C123.326 63.1329 123.184 63.1259 123.044 63.113C122.901 63.1001 122.901 63.0966 122.892 62.8893C122.974 62.8811 123.057 62.8647 123.14 62.8647C123.484 62.8624 123.829 62.8635 124.173 62.8647C124.221 62.8647 124.276 62.8542 124.315 62.8729C124.366 62.8975 124.406 62.9467 124.45 62.9854C124.409 63.0275 124.371 63.099 124.324 63.106C124.175 63.1294 124.022 63.1294 123.845 63.1411C123.788 63.7432 123.853 64.3336 123.805 64.938L123.806 64.9368Z" fill="#01B462"/>
</g>
<defs>
<clipPath id="clip0_850_4029">
<rect width="115" height="41" fill="white" transform="translate(12 50)"/>
</clipPath>
</defs>
</svg>
