<svg width="140" height="140" viewBox="0 0 140 140" fill="none" xmlns="http://www.w3.org/2000/svg">
<rect width="140" height="140" rx="30" fill="white"/>
<g clip-path="url(#clip0_751_3324)">
<path d="M58.7901 54.2654C58.8761 57.3509 60.0115 59.9735 62.2426 62.1136C63.1574 62.9915 64.2329 63.6353 65.3825 64.1336C66.7887 64.7429 67.5785 66.2646 67.2726 67.8674C66.9405 69.6053 65.0736 70.923 62.9801 70.2176C61.9584 69.8732 61.0153 69.2984 60.1043 68.7079C58.9734 67.9755 57.9016 67.1516 57.0115 66.1341C55.7033 64.6378 54.5388 63.0433 53.7407 61.1928C53.2179 59.9802 52.8342 58.7324 52.5627 57.4507C52.4139 56.7484 52.2845 56.0318 52.3166 55.2979C52.3316 54.9557 52.2291 54.6076 52.2486 54.2661C52.3189 53.022 52.3914 51.7846 52.6652 50.554C53.0608 48.7771 53.734 47.1263 54.6255 45.5565C55.1551 44.6238 55.8058 43.7766 56.4864 42.9452C57.2082 42.0628 58.0564 41.3229 58.918 40.5995C59.7714 39.8829 60.7654 39.3727 61.7438 38.8384C62.9008 38.2066 64.1267 37.7826 65.393 37.4682C65.8882 37.3452 66.4005 37.2649 66.9039 37.1718C67.4289 37.075 67.9487 37.0143 68.4753 37.0037C69.6107 36.9812 70.7408 37.0428 71.871 37.1861C75.1754 37.604 78.0835 38.9172 80.6115 41.064C82.1284 42.3524 83.4103 43.8592 84.4066 45.5948C85.3281 47.2006 85.9728 48.9085 86.3258 50.7334C86.6003 52.1501 86.7597 53.5765 86.6736 55.0128C86.5876 56.4467 86.3932 57.8672 85.9601 59.2531C85.7402 59.957 85.5248 60.6706 85.2323 61.3347C84.7836 62.3529 84.1987 63.3149 83.5345 64.2169C82.4148 65.7356 81.1388 67.0975 79.5876 68.1878C78.4829 68.9645 77.3692 69.7494 76.0857 70.1711C75.0438 70.5133 73.9645 70.586 72.9974 69.8027C71.5449 68.6246 71.1986 66.7816 72.2248 65.2089C72.5733 64.6746 73.1133 64.3062 73.7065 64.063C74.5367 63.7224 75.3011 63.2871 76.0042 62.7251C77.2113 61.7601 78.2076 60.6173 78.9406 59.2591C79.5008 58.2214 79.889 57.1176 80.0468 55.9365C80.1254 55.3497 80.2413 54.7651 80.1919 54.1738C80.1059 53.1526 79.9877 52.1448 79.6998 51.1431C79.2989 49.7474 78.6519 48.5002 77.7439 47.4017C76.99 46.49 76.0984 45.7081 75.0587 45.1063C74.0423 44.518 72.9824 44.031 71.8373 43.8036C70.423 43.5223 69.0049 43.3992 67.5523 43.6978C63.7617 44.4767 61.1716 46.6918 59.6278 50.1953C59.0601 51.4837 58.7826 52.8434 58.7909 54.2639L58.7901 54.2654Z" fill="#03AA4B"/>
<path d="M34.6455 75.8402C34.6455 75.1303 34.6552 74.5098 34.6402 73.8899C34.6343 73.6581 34.7061 73.5928 34.9349 73.5936C36.4795 73.6026 38.0232 73.6026 39.5677 73.5936C39.822 73.592 39.9103 73.6633 39.9103 73.932C39.9036 80.4385 39.92 86.945 39.8908 93.4515C39.8856 94.6611 39.7211 95.8774 39.2252 97.0068C38.2775 99.1648 36.8108 100.834 34.6657 101.881C33.6043 102.399 32.4951 102.779 31.3381 102.901C30.3051 103.009 29.2535 103.02 28.2056 102.974C26.8294 102.915 25.5198 102.566 24.2423 102.097C22.8369 101.579 21.5564 100.828 20.4315 99.8282C20.2033 99.6248 19.9595 99.4447 19.7546 99.2061C19.6177 99.047 19.6416 98.9802 19.7531 98.894C20.3642 98.4235 20.8585 97.8254 21.4509 97.3339C21.8346 97.0158 22.1016 96.582 22.4771 96.2451C22.6559 96.0845 22.8653 95.9607 23.0343 95.7791C23.1794 95.6238 23.3806 95.7821 23.513 95.9105C24.2722 96.6436 25.1735 97.1246 26.1593 97.481C27.2647 97.8802 28.4031 97.9567 29.5624 97.9372C30.6268 97.9192 31.62 97.6378 32.5295 97.1103C33.632 96.4717 34.2887 95.5023 34.531 94.2334C34.6941 93.3809 34.632 92.5308 34.6567 91.6213C34.1668 91.9807 33.736 92.3394 33.2506 92.6238C32.2057 93.2346 31.1032 93.6263 29.8968 93.7997C28.9267 93.9392 27.9603 93.9407 27.0074 93.8357C25.8922 93.7126 24.8002 93.4252 23.7755 92.9165C23.0695 92.566 22.3754 92.1893 21.7568 91.7121C21.0231 91.1463 20.4225 90.4372 19.8585 89.6921C19.0739 88.6551 18.5825 87.4822 18.2729 86.2471C18.1098 85.5981 17.9999 84.9152 17.9999 84.2211C17.9999 83.1833 17.9789 82.1433 18.2504 81.1371C18.5062 80.1863 18.8914 79.2851 19.3941 78.4282C19.8271 77.6906 20.3507 77.0213 20.949 76.4367C21.6162 75.7854 22.3761 75.2324 23.2295 74.8069C23.8436 74.5008 24.4689 74.2156 25.1181 74.0408C26.5766 73.6483 28.0523 73.448 29.5849 73.6671C30.3986 73.7834 31.2109 73.9207 31.9693 74.1848C32.6806 74.4332 33.4091 74.7394 33.9813 75.2901C34.1675 75.4695 34.38 75.6211 34.6455 75.8387V75.8402ZM23.4637 83.9255C23.415 84.5175 23.5527 85.0923 23.7486 85.6663C24.3993 87.5685 25.8182 88.5996 27.6888 88.9605C29.2498 89.2614 30.8063 89.04 32.2154 88.2266C33.5737 87.4432 34.4331 86.3282 34.3889 84.6691C34.3665 83.8152 34.4495 82.9642 34.3231 82.1043C34.2506 81.6106 34.1286 81.1596 33.8586 80.7709C32.7397 79.1636 31.1137 78.528 29.2311 78.417C28.7726 78.3899 28.3276 78.5025 27.8765 78.5648C26.706 78.7261 25.6955 79.2244 24.8773 80.064C23.8429 81.1258 23.4016 82.4315 23.4629 83.927L23.4637 83.9255Z" fill="#141313"/>
<path d="M121 93.9632H116.838C116.278 93.9632 115.711 93.9122 115.159 93.979C114.683 94.036 114.592 93.6608 114.368 93.432C114.243 93.3044 114.223 93.0673 113.97 93.0823C113.95 93.0838 113.913 93.0365 113.907 93.0065C113.739 92.2644 113.158 91.7804 112.758 91.1891C111.989 90.053 111.167 88.9522 110.364 87.8402C109.836 87.1108 109.279 86.4025 108.783 85.6528C108.601 85.3789 108.515 85.5065 108.382 85.6333C107.866 86.1203 107.352 86.6088 106.842 87.1011C106.44 87.4897 106.06 87.9017 105.615 88.2446C105.453 88.3692 105.416 88.511 105.419 88.7324C105.439 90.3802 105.422 92.0288 105.429 93.6773C105.43 93.9182 105.34 93.9692 105.123 93.9677C103.554 93.961 101.984 93.9572 100.416 93.9707C100.162 93.973 100.141 93.8732 100.142 93.6661C100.15 92.4422 100.146 91.2184 100.146 89.9945C100.146 82.926 100.149 75.8574 100.138 68.7896C100.138 68.4452 100.227 68.3642 100.562 68.3687C102.031 68.3882 103.501 68.3942 104.97 68.3657C105.372 68.3582 105.435 68.4903 105.433 68.8519C105.421 72.8732 105.424 76.8945 105.429 80.9157C105.429 81.1041 105.331 81.3809 105.515 81.4605C105.659 81.5228 105.786 81.2556 105.921 81.1356C106.539 80.5833 107.162 80.037 107.759 79.4615C108.228 79.0083 108.714 78.573 109.178 78.1131C109.866 77.4317 110.618 76.8172 111.325 76.1553C112.188 75.3472 113.035 74.5225 113.882 73.6971C113.976 73.6048 114.053 73.5478 114.192 73.5485C116.421 73.553 118.649 73.5515 120.879 73.553C120.911 73.553 120.943 73.5688 120.999 73.5838C120.83 73.9672 120.48 74.1556 120.213 74.4137C119.385 75.2166 118.539 76.0008 117.7 76.7932C116.136 78.2699 114.572 79.7459 113.01 81.2241C112.768 81.4537 112.539 81.6976 112.299 81.9287C112.174 82.0488 112.139 82.1373 112.261 82.3039C113.855 84.489 115.514 86.6238 117.151 88.7759C118.399 90.4162 119.632 92.067 120.87 93.7149C120.913 93.7719 120.939 93.8424 121.003 93.964L121 93.9632Z" fill="#141313"/>
<path d="M89.328 85.5283C86.8739 85.5283 84.4199 85.5283 81.9666 85.5283C81.58 85.5283 81.5022 85.6026 81.6174 85.9822C81.7385 86.3807 81.9046 86.7656 82.1551 87.1078C82.9741 88.2274 84.0811 88.9162 85.399 89.2816C86.6069 89.6171 87.8223 89.6028 89.046 89.3507C89.6623 89.2239 90.2621 89.0408 90.8104 88.7459C91.2322 88.5193 91.6152 88.2071 91.9794 87.8912C92.123 87.7666 92.2898 87.6811 92.426 87.5543C92.5411 87.447 92.6279 87.5078 92.7169 87.5865C93.2405 88.0488 93.862 88.3699 94.4245 88.7766C94.9533 89.1593 95.491 89.5308 96.0363 89.8902C96.2121 90.0057 96.1642 90.0673 96.0595 90.1986C95.0453 91.466 93.7236 92.3177 92.2891 93.0155C91.3773 93.4597 90.3915 93.6968 89.4042 93.8372C88.4656 93.9707 87.506 93.9917 86.5501 93.955C85.5359 93.916 84.5493 93.7411 83.5717 93.4747C82.1581 93.089 80.8582 92.4595 79.7288 91.5395C78.3383 90.4065 77.3234 88.9785 76.7377 87.2631C76.2576 85.8554 76.102 84.4087 76.2157 82.9297C76.2972 81.8769 76.568 80.8722 76.9195 79.8764C77.3989 78.5183 78.1925 77.3777 79.2112 76.3969C79.8701 75.7629 80.6136 75.2301 81.4438 74.8107C82.2247 74.4167 83.025 74.0813 83.8664 73.8862C84.9891 73.6258 86.1305 73.4757 87.295 73.6821C87.7401 73.7609 88.206 73.6723 88.6608 73.7601C90.5374 74.1248 92.2412 74.8062 93.7162 76.0968C95.3617 77.536 96.343 79.3324 96.8149 81.4117C97.0954 82.6491 97.1956 83.9285 97.1507 85.2086C97.1395 85.5253 96.9555 85.529 96.7267 85.529C94.2607 85.5268 91.7939 85.5275 89.328 85.5275V85.5283ZM91.7438 81.6233C91.8022 81.513 91.7034 81.471 91.6997 81.3959C91.6444 80.3679 91.0408 79.6708 90.2786 79.0863C89.5897 78.5588 88.776 78.3074 87.942 78.1288C87.5583 78.047 87.1619 77.996 86.77 78.0493C86.405 78.0988 86.0691 77.912 85.6623 78.086C85.1828 78.2909 84.6331 78.3419 84.1357 78.5573C82.9076 79.09 82.0848 79.959 81.7258 81.2706C81.6338 81.6075 81.7355 81.6301 82.0227 81.6293C85.1462 81.6211 88.2689 81.6241 91.3923 81.6241H91.7446L91.7438 81.6233Z" fill="#141313"/>
<path d="M54.7843 93.9512C52.8681 93.9805 51.5143 93.8679 50.2061 93.471C49.2959 93.1948 48.426 92.8212 47.6235 92.2764C46.8396 91.7444 46.1216 91.1531 45.4761 90.4642C44.9825 89.9382 44.5973 89.3379 44.2338 88.7181C43.8882 88.1283 43.5943 87.5145 43.4282 86.8542C43.2577 86.1743 42.9832 85.508 43.0475 84.7831C43.0774 84.4477 42.957 84.1183 42.975 83.7896C43.0243 82.8862 43.0692 81.9925 43.3041 81.0973C43.6421 79.8081 44.2076 78.6466 45.0288 77.6373C45.7476 76.7534 46.5891 75.979 47.5509 75.3232C48.6474 74.575 49.8554 74.1436 51.1119 73.8697C52.2136 73.6296 53.358 73.5148 54.4904 73.6101C57.0948 73.8292 59.4987 74.5773 61.4785 76.3984C62.2219 77.082 62.8053 77.8722 63.3184 78.7396C63.6782 79.3482 63.9774 79.9717 64.1846 80.6418C64.3805 81.2751 64.5069 81.9212 64.5817 82.5838C64.6348 83.0528 64.6782 83.5195 64.6558 83.9877C64.5361 86.4527 63.8218 88.6948 62.1127 90.534C60.8315 91.9125 59.2952 92.8804 57.477 93.4192C56.4111 93.7351 55.3393 93.9295 54.7851 93.9505L54.7843 93.9512ZM48.4724 83.7731C48.4425 84.6391 48.5337 85.4765 48.9414 86.2741C49.6048 87.573 50.5876 88.4855 51.9855 88.9019C52.8808 89.1683 53.7956 89.1683 54.7312 89.079C55.8128 88.9755 56.7126 88.5395 57.5144 87.8574C58.4628 87.05 58.9407 85.9897 59.1165 84.7666C59.2877 83.5743 59.2316 82.4157 58.7058 81.3142C58.0626 79.968 57.0536 79.0128 55.5929 78.6548C54.7178 78.441 53.806 78.4222 52.9003 78.4927C51.6467 78.591 50.6242 79.1726 49.7783 80.0633C48.8 81.095 48.4118 82.3594 48.4717 83.7731H48.4724Z" fill="#141313"/>
<path d="M67.717 85.0773C67.717 81.4065 67.7245 77.7356 67.7065 74.0648C67.7043 73.6566 67.8277 73.5845 68.1994 73.5898C69.7185 73.6108 71.2376 73.6071 72.7559 73.5913C73.0963 73.5875 73.2085 73.6866 73.2077 74.0355C73.1995 81.0898 73.2099 88.1448 73.1942 95.1991C73.1912 96.54 73.1553 97.8892 72.7821 99.1934C72.4044 100.513 71.6789 101.571 70.4021 102.177C69.2107 102.743 67.9564 103.005 66.6385 102.991C65.456 102.979 64.2727 102.982 63.0902 102.991C62.8583 102.992 62.7678 102.947 62.7701 102.688C62.7835 101.227 62.7843 99.7659 62.7701 98.3057C62.7671 98.0355 62.8725 98.0048 63.0954 98.0063C64.0042 98.0153 64.913 98.0153 65.8225 98.0063C66.281 98.0018 66.7252 97.953 67.1149 97.6498C67.5988 97.2739 67.7028 96.7554 67.7036 96.2016C67.7095 92.4933 67.7065 88.7856 67.7065 85.0773C67.7103 85.0773 67.714 85.0773 67.7178 85.0773H67.717Z" fill="#141313"/>
<path d="M69.4843 60.7584C65.9959 60.7936 62.9136 57.8109 63.0019 54.0695C63.0819 50.6846 65.7618 47.9735 69.0475 47.7634C73.2293 47.4963 76.0132 50.8782 75.9885 54.2594C75.9623 57.8552 73.0027 60.7456 69.4843 60.7584Z" fill="#03AA4B"/>
</g>
<defs>
<clipPath id="clip0_751_3324">
<rect width="103" height="66" fill="white" transform="translate(18 37)"/>
</clipPath>
</defs>
</svg>
