<svg width="140" height="140" viewBox="0 0 140 140" fill="none" xmlns="http://www.w3.org/2000/svg">
<rect width="140" height="140" rx="30" fill="white"/>
<path fill-rule="evenodd" clip-rule="evenodd" d="M110.83 70.699C110.83 67.7385 110.564 64.8919 110.071 62.1592H70.75V78.3089H93.2191C92.2513 83.5276 89.3098 87.9493 84.8881 90.9098V101.385H98.381C106.276 94.117 110.83 83.4138 110.83 70.699Z" fill="#4285F4"/>
<path fill-rule="evenodd" clip-rule="evenodd" d="M70.7488 111.5C82.0214 111.5 91.4721 107.761 98.3798 101.385L84.8869 90.9094C81.1484 93.4144 76.3661 94.8947 70.7488 94.8947C59.8748 94.8947 50.6709 87.5505 47.3878 77.6823H33.4395V88.4993C40.3092 102.144 54.4284 111.5 70.7488 111.5Z" fill="#34A853"/>
<path fill-rule="evenodd" clip-rule="evenodd" d="M47.389 77.6823C46.554 75.1773 46.0796 72.5015 46.0796 69.7498C46.0796 66.9981 46.554 64.3223 47.389 61.8173V51.0002H33.4407C30.6131 56.6365 29 63.0129 29 69.7498C29 76.4868 30.6131 82.8632 33.4407 88.4994L47.389 77.6823Z" fill="#FBBC05"/>
<path fill-rule="evenodd" clip-rule="evenodd" d="M70.7489 44.6051C76.8785 44.6051 82.3819 46.7116 86.7088 50.8487L98.6835 38.874C91.4531 32.1371 82.0024 28 70.7489 28C54.4284 28 40.3092 37.3558 33.4395 51.0005L47.3878 61.8176C50.6709 51.9494 59.8749 44.6051 70.7489 44.6051Z" fill="#EA4335"/>
</svg>
