<svg width="140" height="140" viewBox="0 0 140 140" fill="none" xmlns="http://www.w3.org/2000/svg">
<rect width="140" height="140" rx="30" fill="white"/>
<path d="M92.3053 117.894C83.4714 117.91 75.9768 115.76 68.7761 112.454C66.4883 111.402 64.2072 110.281 62.0797 108.946C52.8818 103.184 44.7927 96.1499 38.113 87.5816C36.1926 85.115 34.4158 82.5286 32.7024 79.9121C28.0367 72.7786 25.0141 64.9859 23.6114 56.5874C22.9401 52.5562 22.7564 48.4818 23.4176 44.4374C24.3394 38.7951 26.3333 33.5922 30.3545 29.358C32.1079 27.5138 34.1185 26.169 36.8739 26.5385C38.31 26.7316 39.5257 27.3341 40.531 28.3361C46.2722 34.0482 52.0134 39.7638 57.7346 45.4959C60.49 48.2588 60.156 52.2267 57.0866 55.1061C53.4863 58.4848 49.9728 61.9501 46.4025 65.3587C45.8881 65.8481 45.9416 66.1476 46.4225 66.6237C55.8108 75.9409 65.1891 85.2715 74.5507 94.6154C75.0951 95.1613 75.389 95.0581 75.88 94.5688C79.8978 90.5476 83.9424 86.5464 87.9802 82.5452C90.4951 80.052 93.4843 80.2017 95.889 82.8115C99.4393 86.6662 103.066 90.4477 106.657 94.2625C109.031 96.7857 111.413 99.3023 113.767 101.845C115.377 103.583 115.477 106.502 113.844 108.237C110.447 111.845 106.663 114.941 101.791 116.389C98.4306 117.388 95.0173 118.087 92.302 117.894H92.3053Z" fill="#34A853"/>
<path d="M94.3223 67.2161C88.1002 67.2161 81.878 67.2161 75.6559 67.2161C73.5785 67.2161 72.6734 66.3107 72.6734 64.2335C72.6734 57.0866 72.6634 49.9431 72.6734 42.7962C72.6834 37.4801 72.7302 32.1641 72.7569 26.848C72.7703 24.448 74.2064 23.0166 76.6745 23C81.9281 22.9667 86.9947 23.9553 91.8274 25.9759C101.613 30.0736 108.807 36.9209 113.316 46.5078C115.848 51.8904 117.097 57.5793 116.99 63.5445C116.953 65.5417 115.423 67.1229 113.399 67.1362C109.983 67.1562 106.566 67.1429 103.15 67.1429C100.207 67.1429 97.2647 67.1429 94.3189 67.1429C94.3189 67.1662 94.3189 67.1895 94.3189 67.2095L94.3223 67.2161Z" fill="#34A853"/>
<path d="M61.7021 108.709L75.2152 94.9882L97.876 117.391C88.5078 119.461 73.6254 116.192 61.7021 108.709Z" fill="#00832D"/>
<path d="M23.665 43.0891L46.0487 65.9312L32.1282 79.2463C25.1579 67.6422 21.3839 54.8264 23.665 43.0891Z" fill="#00832D"/>
<path d="M72.667 42.1904C86.7645 42.8628 96.1361 49.8999 97.8762 67.2162H75.1051C73.7591 67.2162 72.667 66.1277 72.667 64.7862V42.1904Z" fill="#00832D"/>
</svg>
