<svg width="140" height="140" viewBox="0 0 140 140" fill="none" xmlns="http://www.w3.org/2000/svg">
<rect width="140" height="140" rx="30" fill="#F7F7F7"/>
<rect x="29" y="36" width="88" height="60" rx="30" fill="#5388F6"/>
<path opacity="0.54" fill-rule="evenodd" clip-rule="evenodd" d="M54 23C37.4315 23 24 36.4315 24 53C24 59.3007 25.9424 65.1478 29.261 69.9751C29.0889 68.6746 29 67.3477 29 66C29 49.4315 42.4315 36 59 36H87C95.0366 36 102.335 39.16 107.721 44.3054C103.993 31.9767 92.545 23 79 23H54Z" fill="#5388F6"/>
<path fill-rule="evenodd" clip-rule="evenodd" d="M107.721 44.3054C108.553 47.0574 109 49.9765 109 53C109 69.5685 95.5685 83 79 83H54C43.7322 83 34.6692 77.8417 29.261 69.975C29.0889 68.6745 29 67.3476 29 66C29 49.4315 42.4315 36 59 36H87C95.0366 36 102.335 39.1601 107.721 44.3054Z" fill="#004CB5"/>
<path d="M70.5 114V95.5L36 85L66.5 116C69 117.5 70.144 116.521 70.5 114Z" fill="#5787F6"/>
</svg>
