<svg width="140" height="140" viewBox="0 0 140 140" fill="none" xmlns="http://www.w3.org/2000/svg">
<rect width="140" height="140" rx="30" fill="#33A756"/>
<g clip-path="url(#clip0_668_18820)">
<path d="M102.159 62.9346V50H104.831V61.1085C104.116 61.4797 103.122 62.1605 102.159 62.934M97.5295 66.8329C98.3681 65.8426 99.2383 64.8523 100.202 64.0479V50H97.5295V66.8334V66.8329ZM66.7095 77.0752C66.7095 80.5718 68.1076 83.8208 70.5931 86.3271C73.1096 88.8026 76.3717 90.1951 79.8514 90.1951C81.3426 90.1951 82.8653 89.8547 83.8901 89.3598V86.7299C82.6161 87.2556 81.1249 87.5342 79.8514 87.5342C74.1349 87.5342 69.3501 82.7687 69.3501 77.1061V74.7233C69.3501 69.0606 74.1349 64.2951 79.8514 64.2951C82.6476 64.2951 85.3508 65.3781 87.2768 67.3278C89.2654 69.2775 90.3217 71.9074 90.3217 74.7233V90.1951H93.0249V74.2284C92.8382 70.8553 91.3781 67.6682 88.9236 65.3168C86.4071 62.934 83.2381 61.6657 79.8514 61.6657C76.4647 61.6657 73.0785 63.0272 70.5931 65.5027C68.1076 68.0091 66.7095 71.258 66.7095 74.7238V77.0757V77.0752ZM106.571 70.7317C107.751 69.5252 109.336 68.8444 110.858 68.8444C114.182 68.8444 116.699 71.3816 116.699 74.6615V77.0443C116.699 80.3241 114.151 82.8614 110.858 82.8614C109.274 82.8614 107.72 81.9952 106.54 80.4168C105.483 79.0243 104.769 77.137 104.676 75.4659L102.532 78.0958C102.936 80.0764 103.992 81.9638 105.483 83.3563C107.037 84.7487 108.932 85.5222 110.858 85.5222C115.549 85.5222 119.402 81.7161 119.402 77.0128V74.6301C119.402 72.4023 118.501 70.2981 116.854 68.6579C115.239 67.0486 113.095 66.1516 110.858 66.1516C109.46 66.1516 107.223 66.6464 104.551 69.0292L104.52 69.0601C103.836 69.7718 102.159 71.412 101.102 72.5877C99.3934 74.4442 96.908 77.2909 94.7953 80.1068V84.2224C97.1567 81.1898 98.5238 79.5501 100.73 77.0128C102.718 74.7542 105.173 71.9383 106.57 70.7312M43.6561 65.7494V62.5931C41.2637 61.2933 38.6232 60.7366 35.1434 60.7366C31.6636 60.7366 28.2149 62.0055 25.6363 64.3878C23.0888 66.7397 21.6597 69.865 21.6597 73.1449V73.9802C21.6597 80.8494 27.1591 86.3884 33.9319 86.3884C39.4623 86.3884 41.7301 84.5937 42.2896 84.0365V76.0529H33.2799V78.7143H39.8041V82.7058H39.7731C38.9034 83.0462 37.1635 83.727 33.9009 83.727C31.3224 83.727 28.8989 82.7058 27.097 80.9112C25.2641 79.0856 24.2387 76.6101 24.2387 73.9796V73.1444C24.2387 67.8221 29.2097 63.3661 35.0819 63.3661C39.1831 63.397 41.606 64.0778 43.6567 65.7488M63.0746 68.8742C64.0689 68.8742 64.9386 69.0287 65.6221 69.3382C65.9639 68.5338 66.2746 67.853 66.7715 67.0172C66.057 66.4914 64.3481 66.1819 63.0431 66.1819C58.1962 66.1819 54.4993 69.8331 54.4993 74.6913V90.1631H57.1714V74.6913C57.2024 71.2565 59.5948 68.8742 63.0746 68.8742ZM17 73.1768V74.0121C17 78.6227 18.7709 82.8619 21.9399 86.08C25.0779 89.2671 29.3343 91 33.9014 91C37.5673 91 40.7984 90.1956 43.5016 88.5245C45.7693 87.2247 46.7947 85.8632 46.8567 85.7396V71.4748H33.2799V74.1362H44.2471V84.9357C42.9421 86.2046 39.9287 88.3706 33.9325 88.3706C30.0489 88.3706 26.414 86.9163 23.8039 84.224C21.1318 81.5317 19.6716 77.9115 19.6716 74.0435V73.2083C19.6716 69.4948 21.3494 65.8436 24.2387 63.1205C27.1901 60.3355 31.0737 58.8194 35.1439 58.8194C38.9344 58.8194 41.575 59.4075 43.6567 60.6759V57.6741C41.4509 56.7456 38.8098 56.3125 35.1439 56.3125C25.3266 56.3125 17 64.0484 17 73.1768ZM88.3642 90.1647V74.6929C88.3642 69.9273 84.6357 66.1835 79.8514 66.1835C77.6457 66.1835 75.502 67.0811 73.8552 68.6899C72.2394 70.3301 71.3387 72.4342 71.3387 74.662V77.0448C71.3387 81.6553 75.2533 85.5542 79.8514 85.5542C81.1254 85.5542 82.8653 85.2138 83.8901 84.3476V81.5626C82.8338 82.3979 81.3426 82.8624 79.8514 82.8624C76.5893 82.8624 73.9792 80.3252 73.9792 77.0453V74.6625C73.9792 71.3518 76.5578 68.8454 79.8514 68.8454C83.1451 68.8454 85.7236 71.3827 85.7236 74.6625V90.1343H88.3642V90.1652V90.1647ZM63.0746 64.2652C64.8765 64.2652 66.4298 64.6365 67.8594 65.4409C68.5119 64.6056 69.2265 63.9557 69.7234 63.4294C68.2322 62.2847 65.6847 61.6348 63.1056 61.6348C59.4087 61.6348 56.022 62.9346 53.6606 65.3482C51.2682 67.7619 49.9321 71.0418 49.9321 74.7243V90.1961H52.6353V74.7243C52.6043 68.5354 56.8917 64.2652 63.0741 64.2652M120.116 65.4718C117.63 62.9655 114.306 61.6348 110.858 61.6348C108.31 61.6348 105.794 62.5324 104.395 63.4603C101.506 65.3786 99.0827 67.4828 94.8263 72.9909V76.9516C98.4922 72.2174 101.91 68.5349 104.551 66.4616C106.259 65.1 108.683 64.2338 110.889 64.2338C116.574 64.2338 121.359 68.9994 121.359 74.662V77.0448C121.359 79.8606 120.272 82.4597 118.252 84.4094C116.263 86.4209 113.654 87.473 110.858 87.473C106.197 87.473 102.065 84.2858 100.978 79.923L99.0827 82.1507C100.45 86.7613 105.39 90.1343 110.858 90.1343C114.337 90.1343 117.63 88.7728 120.116 86.2664C122.632 83.7909 123.999 80.5111 123.999 77.0144V74.6316C123.999 71.2277 122.632 67.9787 120.116 65.4723" fill="white"/>
</g>
<defs>
<clipPath id="clip0_668_18820">
<rect width="107" height="41" fill="white" transform="translate(17 50)"/>
</clipPath>
</defs>
</svg>
