<svg width="140" height="140" viewBox="0 0 140 140" fill="none" xmlns="http://www.w3.org/2000/svg">
<rect width="140" height="140" rx="30" fill="white"/>
<g clip-path="url(#clip0_752_3347)">
<path d="M45.8262 38.9467C45.8262 37.7287 45.838 36.5098 45.8203 35.2917C45.8135 34.835 45.9695 34.4649 46.2897 34.1679C47.2454 33.2838 48.2231 32.4233 49.172 31.5325C49.692 31.0446 50.2929 30.9403 50.9621 31.0269C54.2001 31.4475 57.433 31.9102 60.6769 32.2778C63.9798 32.6521 67.3003 32.8262 70.6243 32.7959C74.271 32.7631 77.9118 32.5486 81.5341 32.1196C84.081 31.8185 86.6186 31.4467 89.1596 31.0984C89.7032 31.0235 90.1971 31.111 90.6143 31.4736C91.6492 32.3737 92.7027 33.2552 93.6879 34.2066C93.9568 34.4665 94.1489 34.946 94.1456 35.3237C94.1194 38.6397 94.1295 41.9607 93.9601 45.2708C93.6272 51.7816 92.6016 58.1965 90.9935 64.518C90.1828 67.7053 89.2304 70.8472 88.1348 73.9478C87.9351 74.5139 87.5541 74.8865 87.1167 75.2424C83.1009 78.5129 78.6425 80.9221 73.5993 82.2192C70.5594 83.0015 67.5936 82.6869 64.6582 81.7305C60.3861 80.3383 56.5253 78.1983 53.0295 75.3837C52.3974 74.8748 51.9642 74.2918 51.6962 73.5154C50.3342 69.5719 49.1687 65.5737 48.266 61.5007C47.2665 56.9894 46.5291 52.4352 46.1869 47.8272C45.9678 44.8729 45.8666 41.9102 45.7124 38.9518C45.7495 38.9501 45.7866 38.9476 45.8237 38.9459L45.8262 38.9467ZM82.7461 55.2902C81.5265 55.4391 80.2817 55.5468 79.0538 55.7528C77.557 56.0035 76.0906 56.3896 74.8045 57.246C73.4088 58.1755 72.7565 59.4524 73.0102 61.1533C73.274 62.9198 74.0907 64.3776 75.4509 65.5182C76.5061 66.4032 77.7281 66.9095 79.1297 66.8002C80.4082 66.7009 81.6496 66.4023 82.8253 65.8791C85.5357 64.6728 87.3089 62.7457 87.6494 59.6846C87.8778 57.6346 86.8833 56.0784 84.8968 55.5922C84.2083 55.4239 83.4869 55.3903 82.7461 55.2902ZM56.8608 55.2271C56.3517 55.2784 55.846 55.3036 55.3496 55.3836C53.7323 55.6435 52.737 56.5881 52.4176 58.1486C51.9659 60.3533 52.6317 62.2132 54.2287 63.7492C55.6556 65.122 57.3816 65.98 59.293 66.4435C61.0722 66.8759 62.8192 66.8305 64.3666 65.6966C65.7311 64.6964 66.5477 63.3093 66.9472 61.6874C67.2624 60.4097 67.0315 59.2152 66.0876 58.263C65.603 57.7742 65.0366 57.3175 64.4239 57.0129C62.0489 55.8302 59.4675 55.4668 56.8608 55.2263V55.2271Z" fill="#F6AC15"/>
<path d="M86.3519 95.2147C88.1631 90.1483 94.4865 86.6413 99.7286 89.0118C99.93 87.819 100.129 86.6371 100.33 85.4553C100.469 84.6427 100.603 83.8284 100.753 83.0175C100.852 82.4774 101.262 82.1258 101.812 82.1225C103.342 82.1132 104.872 82.1124 106.402 82.1225C107.079 82.1267 107.572 82.7231 107.459 83.4011C107.154 85.2492 106.838 87.0964 106.52 88.9428C106.173 90.9541 105.819 92.9637 105.47 94.9742C105.458 95.0406 105.468 95.1104 105.468 95.2871C105.717 94.7269 105.908 94.2566 106.132 93.8024C107.752 90.5209 110.424 88.6467 113.996 88.0049C114.601 87.8964 115.22 87.8341 115.834 87.8114C116.602 87.7828 117.105 88.3759 116.98 89.122C116.724 90.653 116.462 92.1831 116.192 93.7115C116.054 94.4871 115.681 94.7714 114.895 94.7958C114.493 94.8085 114.076 94.8303 113.694 94.9422C112.334 95.3409 111.846 96.4319 111.629 97.6904C111.098 100.763 110.59 103.839 110.064 106.913C109.928 107.707 109.574 107.985 108.772 107.985C107.354 107.985 105.937 107.987 104.518 107.985C103.657 107.983 103.203 107.446 103.347 106.601C103.686 104.602 104.029 102.605 104.367 100.606C104.381 100.525 104.379 100.442 104.309 100.331C104.27 100.445 104.227 100.558 104.192 100.673C102.906 104.851 98.5917 108.024 94.2581 107.978C90.2355 107.935 86.5955 104.831 85.928 100.872C85.8741 100.55 85.8319 100.225 85.7081 99.901C85.5538 100.812 85.3996 101.723 85.2454 102.634C84.9917 104.137 84.7414 105.641 84.4827 107.144C84.3613 107.846 84.1877 107.985 83.4772 107.985C82.0453 107.985 80.6126 107.957 79.1824 107.998C78.5958 108.015 78.2814 107.487 78.3556 107.036C78.9902 103.174 79.6316 99.3122 80.2527 95.4478C80.4482 94.2322 80.2426 93.6417 78.9329 93.312C78.7079 93.2556 78.4576 93.2783 78.2208 93.2918C77.0223 93.3582 76.011 94.2701 75.8121 95.4511C75.1623 99.3113 74.5125 103.172 73.8627 107.033C73.7548 107.672 73.4927 107.902 72.8455 107.903C71.4557 107.906 70.066 107.908 68.6762 107.902C67.9599 107.898 67.632 107.485 67.7517 106.784C68.2725 103.738 68.7908 100.691 69.3075 97.6441C69.5527 96.1964 69.8174 94.7571 70.3719 93.3818C71.1784 91.3823 72.4949 89.89 74.4948 89.0101C76.4829 88.1353 78.5258 87.6289 80.7095 87.9881C82.1582 88.2261 83.4924 88.7687 84.6411 89.6856C85.8463 90.6471 86.2517 92.0022 86.3435 93.4718C86.3798 94.0497 86.3494 94.6326 86.3494 95.2131L86.3519 95.2147ZM94.929 102.06C95.1245 102.041 95.3209 102.032 95.5147 102.001C95.6799 101.975 95.8459 101.937 96.0044 101.884C97.8054 101.273 98.815 100.004 99.0477 98.1387C99.3342 95.8431 97.4624 93.9471 95.1607 94.1902C92.9189 94.4265 91.1364 96.5093 91.4382 98.9951C91.6556 100.787 93.219 102.112 94.9281 102.06L94.929 102.06Z" fill="#F6AC15"/>
<path d="M42.1548 96.4538C40.9285 96.9005 39.7335 97.3354 38.5375 97.7703C38.09 97.9335 37.6467 98.1068 37.195 98.2557C36.7146 98.4138 36.3345 98.2716 36.1617 97.8174C35.5836 96.3016 35.0181 94.7799 34.477 93.2497C34.2857 92.7097 34.5326 92.3581 35.179 92.1209C38.4802 90.9079 41.7823 89.6966 45.0835 88.4844C45.4652 88.3448 45.842 88.1908 46.2288 88.0663C46.7496 87.8989 47.1264 88.0646 47.3101 88.566C47.9118 90.2063 48.5734 91.8323 48.7268 93.5972C48.7808 94.2179 48.7951 94.8413 48.8313 95.5395C49.0437 95.0347 49.219 94.5881 49.4162 94.1523C51.1178 90.3939 54.1282 88.4499 58.1407 87.9031C58.5427 87.8485 58.9506 87.8098 59.356 87.8056C60.0892 87.7988 60.5823 88.3498 60.4668 89.0673C60.2131 90.6412 59.9434 92.2134 59.6636 93.7831C59.5406 94.4711 59.1386 94.7757 58.4281 94.7916C58.134 94.7984 57.8339 94.7849 57.5482 94.8404C56.1787 95.1037 55.3722 96.1005 55.105 97.7316C54.6027 100.794 54.0751 103.852 53.5492 106.911C53.4178 107.676 53.0259 107.981 52.2404 107.981C50.8784 107.983 49.5173 107.984 48.1554 107.982C47.1542 107.981 46.6932 107.48 46.8516 106.497C47.1812 104.454 47.5393 102.415 47.8866 100.375C47.9161 100.2 47.9481 100.024 47.9236 99.8253C47.7492 100.19 47.5865 100.561 47.3994 100.919C45.5301 104.488 42.6343 106.776 38.7053 107.677C31.9571 109.224 25.0892 104.987 23.4424 98.2742C22.3375 93.7696 23.3042 89.7109 26.3703 86.2309C28.5893 83.7132 31.4379 82.3185 34.804 82.0064C36.6506 81.8348 38.4415 82.0678 40.1869 82.6743C40.8358 82.8997 41.0162 83.2682 40.7903 83.9033C40.2754 85.3526 39.7503 86.7987 39.2244 88.2438C39.0205 88.8041 38.6303 88.9588 38.0091 88.7628C35.8516 88.0831 33.8491 88.3952 32.0397 89.7546C29.9572 91.3192 29.0175 94.0977 29.6984 96.5674C30.4342 99.2348 32.5487 101.085 35.2305 101.408C38.3488 101.784 41.4502 99.6386 42.1767 96.6019C42.1826 96.5775 42.1699 96.5489 42.1548 96.4513V96.4538Z" fill="#F6AC15"/>
<path d="M62.6734 107.982C61.9722 107.982 61.2702 107.986 60.569 107.981C59.8467 107.976 59.5475 107.606 59.668 106.863C59.9681 105.013 60.2673 103.164 60.5782 101.316C61.266 97.237 61.9604 93.1589 62.6549 89.0808C62.7526 88.5046 62.9878 88.2758 63.5853 88.2674C65.0163 88.248 66.4474 88.248 67.8784 88.2674C68.5611 88.2766 68.8569 88.6821 68.7398 89.4021C68.4263 91.3327 68.1035 93.2615 67.7782 95.1904C67.1166 99.1171 66.4491 103.043 65.7883 106.97C65.6442 107.826 65.4774 107.98 64.6084 107.982C63.9629 107.984 63.3181 107.982 62.6726 107.982V107.981L62.6734 107.982Z" fill="#F6AC15"/>
<path d="M113.361 106.171V107.008C113.121 106.815 113.083 106.445 113.188 105.72C113.8 105.647 113.562 106.297 113.848 106.488C114.166 106.327 113.899 105.647 114.526 105.717V106.97C114.474 106.976 114.423 106.983 114.371 106.99C114.345 106.72 114.319 106.449 114.282 106.058C114.177 106.366 114.116 106.572 114.035 106.77C114.002 106.849 113.925 106.91 113.867 106.979C113.808 106.913 113.727 106.857 113.696 106.78C113.613 106.578 113.551 106.368 113.481 106.162L113.362 106.173L113.361 106.171Z" fill="#F6AC15"/>
<path d="M112.265 106.981C112.247 106.636 112.229 106.292 112.211 105.937C112.067 105.901 111.941 105.869 111.815 105.838L111.819 105.756H112.883L112.903 105.822C112.774 105.862 112.644 105.901 112.466 105.955V106.963C112.399 106.969 112.332 106.975 112.265 106.981H112.265Z" fill="#F6AC15"/>
</g>
<defs>
<clipPath id="clip0_752_3347">
<rect width="94" height="77" fill="white" transform="translate(23 31)"/>
</clipPath>
</defs>
</svg>
