<svg width="140" height="140" viewBox="0 0 140 140" fill="none" xmlns="http://www.w3.org/2000/svg">
<rect width="140" height="140" rx="30" fill="#EA592C"/>
<g clip-path="url(#clip0_839_1322)">
<path d="M103.211 57.7963C103.271 75.9824 88.4766 91.2459 69.8058 91.0111C51.8703 90.785 37.1988 76.0635 37.2683 57.6463C37.339 38.9256 52.5787 24.343 70.5825 24.5298C88.5936 24.7178 103.282 39.5769 103.21 57.7963H103.211ZM75.5157 69.4771C75.2194 69.541 74.989 69.6049 74.7549 69.6381C73.7453 69.7856 72.737 69.7856 71.7201 69.6602C68.3256 69.2411 65.5896 67.695 63.7424 64.7735C61.4453 61.1393 61.1002 57.2223 62.5524 53.2046C63.9643 49.2987 66.8113 46.9278 70.8264 46.1007C74.066 45.4333 77.2812 45.7406 80.4172 46.8135C80.7013 46.9106 80.9853 47.0102 81.3365 47.1319C81.6364 44.5423 81.9278 42.0375 82.2205 39.5143C81.9571 39.4147 81.7767 39.3361 81.5913 39.2783C76.8093 37.7813 71.9993 37.6474 67.1868 39.0767C62.8352 40.3697 59.3018 42.8609 56.8657 46.7472C53.4798 52.1488 52.8653 57.9806 54.6929 64.0398C56.3207 69.4341 59.6944 73.3891 64.8544 75.6776C68.2415 77.1807 71.814 77.5715 75.4791 77.2213C77.9908 76.9816 80.3562 76.2479 82.6094 75.1098C83.0544 74.8849 83.2495 74.6341 83.2471 74.0958C83.2227 68.9326 83.2337 63.7694 83.2312 58.6074C83.2312 58.3911 83.2093 58.1736 83.1934 57.8749C80.6476 57.8221 78.1444 57.8577 75.5279 57.8479C75.512 61.7661 75.5303 65.6031 75.5169 69.4758L75.5157 69.4771Z" fill="white"/>
<path d="M60.671 115.988C58.7263 116.023 56.9547 115.5 55.4867 114.179C53.6346 112.512 52.8982 110.364 52.9701 107.903C52.9981 106.939 53.1896 106.003 53.57 105.116C54.7954 102.258 57.0144 100.81 60.0382 100.564C61.5782 100.439 63.0864 100.648 64.4776 101.369C66.921 102.637 68.1708 104.736 68.4622 107.432C68.6426 109.104 68.3659 110.716 67.5453 112.205C66.2614 114.53 64.2472 115.714 61.6635 115.984C61.3355 116.018 61.0027 115.989 60.671 115.989V115.988ZM56.3768 108.301C56.3914 111.725 59.353 113.575 62.5048 112.433C64.3423 111.767 65.1189 109.829 65.1019 108.247C65.0653 104.819 62.0866 102.941 58.9067 104.138C57.3107 104.739 56.3682 106.384 56.3768 108.302V108.301Z" fill="white"/>
<path d="M91.6797 115.835C91.47 115.231 91.4334 101.653 91.6224 100.857C91.7919 100.841 91.9821 100.809 92.1723 100.809C93.9817 100.805 95.7911 100.797 97.5993 100.809C99.5099 100.823 100.977 101.84 101.645 103.585C102.342 105.407 101.927 107.549 100.594 108.757C100.191 109.122 99.6952 109.383 99.1624 109.745C100.171 111.707 101.38 113.627 102.451 115.696C102.24 115.754 102.101 115.824 101.961 115.827C101.145 115.838 100.328 115.817 99.5123 115.841C99.0941 115.854 98.8795 115.662 98.6967 115.309C97.9309 113.832 97.1433 112.367 96.363 110.897C95.9143 110.05 95.7777 109.992 94.7291 110.254C94.7194 110.472 94.6999 110.709 94.6999 110.946C94.6974 112.325 94.7011 113.704 94.6974 115.083C94.695 115.803 94.6682 115.829 93.9488 115.835C93.1819 115.841 92.4137 115.837 91.681 115.837L91.6797 115.835ZM94.734 107.08C95.6643 107.08 96.5251 107.13 97.3762 107.065C98.2138 107.002 98.6808 106.277 98.6113 105.318C98.5516 104.496 98.0175 103.984 97.1884 103.964C96.747 103.954 96.3057 103.957 95.8643 103.963C95.4973 103.968 95.1315 103.984 94.734 103.996V107.078V107.08Z" fill="white"/>
<path d="M40.7046 100.85C41.0277 100.831 41.2435 100.808 41.4581 100.808C43.1797 100.805 44.9001 100.816 46.6217 100.803C48.3275 100.789 49.6967 101.432 50.5295 102.956C51.411 104.57 51.3964 106.236 50.5075 107.86C50.1369 108.537 49.5821 109.044 48.8969 109.399C48.7237 109.489 48.5494 109.576 48.2994 109.702C49.42 111.695 50.5246 113.656 51.6646 115.682C51.4574 115.747 51.3232 115.824 51.1891 115.825C50.3283 115.837 49.4675 115.819 48.6079 115.838C48.2324 115.846 48.0605 115.637 47.9068 115.342C47.0814 113.77 46.2474 112.203 45.4171 110.635C45.2927 110.399 45.1842 110.174 44.8587 110.136C43.9917 110.033 43.8576 110.139 43.8576 111.025C43.8576 112.337 43.8576 113.65 43.8576 114.961C43.8576 115.202 43.8576 115.443 43.8576 115.709C43.6565 115.758 43.5126 115.822 43.3687 115.823C42.6627 115.834 41.9568 115.841 41.2508 115.825C40.7777 115.816 40.7217 115.753 40.7131 115.275C40.7009 114.63 40.7095 113.984 40.7095 113.34C40.7095 109.492 40.7095 105.644 40.7095 101.796V100.846L40.7046 100.85ZM43.9076 107.086C44.8367 107.086 45.6743 107.125 46.5059 107.075C47.363 107.022 47.9446 106.2 47.8203 105.321C47.7191 104.598 47.3057 104.03 46.7144 103.995C45.7987 103.939 44.8782 103.98 43.9076 103.98V107.086Z" fill="white"/>
<path d="M36.8089 104.308C36.1078 104.167 35.4469 104.012 34.7775 103.905C33.9375 103.77 33.1035 103.845 32.2902 104.097C30.6881 104.592 29.5078 106.034 29.4018 107.72C29.3615 108.354 29.392 109.023 29.5469 109.635C30.0955 111.794 32.0342 113.013 34.3228 112.646C34.3459 112.435 34.3923 112.202 34.3947 111.969C34.4032 111.011 34.3947 110.055 34.4008 109.098C34.4032 108.836 34.4361 108.574 34.4593 108.256C35.5018 108.143 36.4979 108.162 37.5453 108.242C37.5672 108.482 37.6002 108.674 37.6002 108.867C37.6038 110.67 37.5855 112.473 37.6136 114.274C37.6209 114.756 37.4429 115 37.0259 115.179C34.6812 116.184 32.3317 116.193 30.0407 115.087C27.8057 114.008 26.5999 112.105 26.1366 109.694C25.8695 108.307 25.9927 106.941 26.4706 105.621C27.44 102.939 29.3884 101.397 32.1232 100.841C33.6375 100.532 35.1531 100.603 36.6406 101.05C37.2173 101.223 37.2466 101.253 37.1868 101.836C37.1112 102.567 37.0149 103.293 36.9198 104.021C36.9064 104.121 36.8454 104.216 36.8076 104.308H36.8089Z" fill="white"/>
<path d="M96.0779 26.5676C96.0828 23.4925 98.5567 20.9902 101.583 21C104.62 21.0099 107.083 23.4974 107.099 26.5725C107.116 29.6218 104.629 32.1204 101.578 32.1192C98.5189 32.1179 96.0718 29.6488 96.0767 26.5676H96.0779Z" fill="white"/>
<path d="M84.2457 109.882V112.624C85.0151 112.742 85.7808 112.667 86.5404 112.68C87.2866 112.694 88.0316 112.683 88.7546 112.683C88.9229 113.259 88.9411 115.06 88.7924 115.775C88.5997 115.794 88.3864 115.833 88.173 115.833C86.032 115.838 83.8921 115.839 81.7511 115.833C81.0488 115.832 81.0049 115.786 81.0037 115.068C81 110.553 81.0012 106.037 81.0049 101.521C81.0049 101.306 81.0451 101.092 81.0695 100.845H88.6144C88.6497 101.86 88.6412 102.844 88.618 103.912C87.15 104.029 85.7223 103.898 84.2457 103.994C84.1628 104.896 84.1884 105.749 84.2238 106.667C84.5127 106.686 84.7481 106.713 84.9822 106.716C85.754 106.722 86.527 106.713 87.2988 106.721C87.5341 106.723 87.7694 106.759 88.0401 106.782V109.839C86.7696 109.852 85.5284 109.866 84.2433 109.881L84.2457 109.882Z" fill="white"/>
<path d="M111.524 104.291C110.715 104.102 110.018 103.891 109.305 103.787C108.86 103.721 108.38 103.759 107.935 103.846C107.439 103.944 107.151 104.335 107.05 104.826C106.945 105.338 107.048 105.826 107.494 106.134C107.834 106.369 108.221 106.551 108.608 106.702C109.537 107.066 110.443 107.468 111.243 108.079C112.02 108.671 112.614 109.398 112.864 110.369C113.416 112.521 112.269 114.761 110.193 115.569C108.961 116.048 107.687 116.087 106.415 115.8C105.644 115.625 104.892 115.357 104.15 115.082C103.607 114.882 103.595 114.819 103.658 114.226C103.739 113.476 103.836 112.726 103.936 111.976C103.95 111.874 104.014 111.779 104.084 111.609C104.328 111.74 104.534 111.851 104.74 111.963C105.837 112.557 107.01 112.82 108.249 112.725C108.566 112.7 108.908 112.602 109.179 112.438C109.892 112.007 109.976 111.068 109.353 110.509C109.097 110.279 108.762 110.128 108.445 109.981C107.784 109.677 107.106 109.409 106.444 109.106C106.204 108.997 105.981 108.847 105.761 108.698C104.073 107.549 103.463 105.949 103.971 104.016C104.458 102.165 105.976 100.858 107.852 100.697C109.079 100.591 110.274 100.772 111.435 101.179C111.889 101.338 111.905 101.365 111.844 101.855C111.746 102.645 111.638 103.434 111.526 104.288L111.524 104.291Z" fill="white"/>
<path d="M74.2941 109.857C74.2941 110.212 74.2941 110.453 74.2941 110.693C74.2941 112.16 74.2965 113.628 74.2929 115.095C74.2904 115.79 74.2575 115.823 73.5954 115.832C73.0004 115.839 72.4042 115.838 71.808 115.832C71.6153 115.829 71.4227 115.798 71.2508 115.784C71.0618 115.194 71.0386 101.578 71.2227 100.856H78.6615C78.8164 101.859 78.7774 102.858 78.681 103.934H74.4502C74.2612 104.484 74.238 105.938 74.3953 106.68C74.6148 106.692 74.8501 106.715 75.0866 106.717C75.8804 106.722 76.6753 106.711 77.4691 106.723C78.0141 106.732 78.0702 106.787 78.0836 107.345C78.0982 107.989 78.0921 108.634 78.0836 109.28C78.0812 109.45 78.0312 109.621 77.9921 109.858H74.2953L74.2941 109.857Z" fill="white"/>
</g>
<defs>
<clipPath id="clip0_839_1322">
<rect width="87" height="95" fill="white" transform="translate(26 21)"/>
</clipPath>
</defs>
</svg>
