<svg width="140" height="140" viewBox="0 0 140 140" fill="none" xmlns="http://www.w3.org/2000/svg">
<rect width="140" height="140" rx="30" fill="white"/>
<path d="M122.965 19.1322C117.202 27.1405 110.205 35.9769 109.087 46.1052C108.383 52.4772 109.736 57.4257 110.816 63.5252C113.558 79.0169 107.431 94.3265 94.7414 103.474C81.6374 112.922 64.7795 113.385 50.8516 105.365C50.4994 105.163 48.0777 103.711 48.0056 103.558C47.9335 103.406 48.5826 103.246 48.6642 103.15L60.0266 97.8945C62.4231 98.7626 64.8875 99.4941 67.4229 99.8476C88.0973 102.729 104.75 83.797 99.7603 63.5996C99.028 60.6348 97.9893 56.2296 93.9107 57.8548C82.3403 66.138 71.0711 74.8625 59.5435 83.211C59.2382 83.432 58.9154 83.6259 58.6043 83.8352C58.4906 83.9661 58.4147 83.9913 58.3758 83.9115C63.3168 78.7496 68.4384 73.76 73.4763 68.6916C89.9259 52.142 106.196 35.371 122.888 19.0558C122.996 18.9547 123.035 18.9974 122.965 19.1322Z" fill="black"/>
<path d="M16.076 121H16C16.9867 119.546 18.1433 118.188 19.3029 116.872C24.9715 110.437 34.1775 102.838 34.9871 93.7517C35.4534 88.5157 32.9225 84.7355 31.7739 79.8666C25.3212 52.5154 47.7229 27.001 75.4979 30.2863C82.0258 31.0584 88.7115 33.6018 94 37.4994L82.0281 43.0972C69.9217 38.0601 55.5481 41.9496 47.5656 52.2966C39.8537 62.293 38.7845 76.4286 46.3185 86.8598C47.3231 88.2506 48.4926 89.4939 49.6408 90.7612L16.076 121Z" fill="black"/>
</svg>
