<svg width="140" height="140" viewBox="0 0 140 140" fill="none" xmlns="http://www.w3.org/2000/svg">
<rect width="140" height="140" rx="30" fill="white"/>
<g clip-path="url(#clip0_750_3315)">
<path d="M27.0618 63.8148C27.0618 55.8758 27.2457 47.9313 27.0088 40.0007C26.7747 32.3005 32.1793 25.1899 38.7073 22.4687C41.4389 21.3286 44.2764 21.0702 47.1083 21.0534C62.2269 20.9691 77.3454 21.0084 92.464 21.014C98.7383 21.014 104.093 23.3477 108.068 28.1639C110.194 30.7391 111.58 33.8899 111.705 37.4677C112.293 54.4015 111.764 71.3381 112 88.272C112.02 89.7295 111.22 91.1476 111.867 92.6079C110.844 93.4055 111.078 94.745 110.543 95.7841C109.743 97.337 108.6 98.5811 107.608 99.9656C106.448 101.58 104.932 103.035 103.36 103.911C101.144 105.147 98.663 106.211 96.0095 106.467C90.6048 106.989 85.189 106.649 79.7816 106.672C78.0506 106.68 77.0109 107.217 76.1106 108.741C74.1762 112.01 72.2362 115.285 70.0286 118.391C69.2872 119.435 68.9973 118.966 68.5904 118.298C66.695 115.186 64.7661 112.094 62.9544 108.935C62.0485 107.354 60.9531 106.616 59.0465 106.705C55.5763 106.865 52.0921 106.753 48.6135 106.75C44.9453 106.75 41.3162 106.557 37.8766 105.04C33.7151 103.209 31.0337 99.8813 28.7342 96.1239C27.5022 94.1132 27.1287 91.8413 27.1036 89.5919C27.0004 80.9986 27.0618 72.4053 27.0618 63.8148ZM59.5733 36.7347C59.5733 37.3413 59.5371 37.9507 59.5817 38.5545C59.6765 39.8856 59.0911 40.4304 57.7755 40.3686C56.4794 40.3068 55.1777 40.3686 53.8788 40.3546C53.037 40.3461 52.5715 40.6719 52.5994 41.5846C52.6356 42.8904 52.6245 44.1991 52.6579 45.5049C52.683 46.5131 53.207 47.041 54.2244 47.0467C55.5233 47.0551 56.8222 47.1056 58.1183 47.0691C59.1301 47.041 59.5761 47.5072 59.5789 48.4817C59.5817 49.7875 59.5845 51.0934 59.5733 52.402C59.565 53.3905 59.0632 53.8146 58.0737 53.7837C56.7302 53.7444 55.3812 53.823 54.0404 53.7584C52.9283 53.705 52.5409 54.1965 52.5855 55.2496C52.6328 56.415 52.6607 57.5861 52.6161 58.7515C52.5632 60.1472 53.2628 60.6976 54.5533 60.7004C55.8048 60.7004 57.0563 60.7004 58.3079 60.7313C58.7511 60.7426 59.2806 60.7032 59.3615 61.3716C59.4367 62.0147 59.473 62.6662 59.6096 63.2953C59.8771 64.5449 58.9044 66.0474 60.1865 67.0499C61.3405 67.9514 62.7871 67.3841 64.1028 67.5077C64.3313 67.5301 64.5682 67.4908 64.7968 67.5133C65.7724 67.6144 66.1375 67.1398 66.1208 66.2018C66.0957 64.8005 66.1291 63.3992 66.1068 61.9979C66.0929 61.1806 66.4581 60.7847 67.2608 60.7847C68.7465 60.7847 70.2293 60.8071 71.715 60.7734C72.423 60.7594 72.6348 61.0795 72.777 61.7451C73.0139 62.8656 72.8634 63.9777 72.9135 65.0926C72.9944 66.946 73.5351 67.5077 75.3023 67.5077C76.2751 67.5077 77.2506 67.4992 78.2234 67.5105C78.7196 67.5161 78.9091 67.3673 79.1851 66.8421C79.8652 65.5475 79.6143 64.2248 79.6784 62.9077C79.7676 61.1217 80.077 60.7847 81.8191 60.751C82.9312 60.7313 84.0434 60.7313 85.1555 60.7369C86.0085 60.7397 86.4321 60.3662 86.421 59.4704C86.3987 57.9764 86.4182 56.4852 86.4266 54.9912C86.4321 54.0898 85.9555 53.7584 85.1082 53.7724C83.8566 53.7949 82.6023 53.7387 81.3508 53.7865C80.1857 53.8314 79.6171 53.3821 79.6645 52.1577C79.7119 50.9923 79.7007 49.824 79.6645 48.6558C79.631 47.5156 80.1551 47.0466 81.2644 47.0747C82.5633 47.1084 83.8622 47.0691 85.1611 47.0832C86.028 47.0944 86.4349 46.7069 86.4238 45.8166C86.4043 44.463 86.4043 43.1095 86.4321 41.7559C86.4544 40.7281 85.9472 40.3321 84.9772 40.3517C83.8176 40.3742 82.6581 40.3658 81.4986 40.3517C79.907 40.3377 79.6784 40.0934 79.6728 38.4449C79.6701 37.2318 79.645 36.0158 79.6812 34.8026C79.7091 33.8085 79.3077 33.3227 78.2931 33.3423C76.9496 33.3648 75.6005 33.3844 74.257 33.3367C73.2006 33.2974 72.8606 33.8057 72.9024 34.7858C72.9414 35.6704 72.9108 36.5606 72.9108 37.448C72.9108 40.3546 72.9108 40.3742 69.9701 40.3517C65.7919 40.3181 66.2239 40.9218 66.2434 36.6589C66.2574 33.23 66.2574 33.3086 63.0073 33.3423C59.6207 33.376 59.6179 33.3507 59.5733 36.7375V36.7347ZM69.1339 92.4366C77.0472 92.7315 83.957 90.8247 90.2201 86.705C94.8193 83.6805 98.6909 79.8893 101.406 75.0254C102.459 73.1382 102.064 71.2427 100.578 70.1334C99.0978 69.0297 96.8819 69.1505 95.4659 70.4928C94.7607 71.1612 94.1419 71.9279 93.5287 72.6861C85.4956 82.6835 75.1741 86.5252 62.6784 84.0006C55.6961 82.5908 50.1828 78.6115 45.7676 73.0456C44.7474 71.7622 43.9976 70.2345 42.2416 69.6728C40.9009 69.2432 38.8243 69.4987 37.9686 70.4142C37.0042 71.4477 36.7394 73.3208 37.4697 74.6968C40.533 80.4594 45.1377 84.7055 50.6845 87.9237C56.5072 91.3049 62.8345 92.768 69.1339 92.431V92.4366Z" fill="#2BA9E1"/>
<path d="M72.7934 50.4306C72.7739 54.2864 73.0972 53.7781 69.4541 53.7556C66.1121 53.7359 66.232 54.5503 66.232 50.4783C66.232 47.0803 66.232 47.0635 69.5991 47.0832C73.0415 47.1028 72.7878 46.5777 72.7962 50.4306H72.7934Z" fill="#2BA9E1"/>
</g>
<defs>
<clipPath id="clip0_750_3315">
<rect width="85" height="98" fill="white" transform="translate(27 21)"/>
</clipPath>
</defs>
</svg>
