<svg width="140" height="140" viewBox="0 0 140 140" fill="none" xmlns="http://www.w3.org/2000/svg">
<rect width="140" height="140" rx="30" fill="#87D335"/>
<path d="M83.6741 98.0475C83.8243 97.8599 84.0489 97.8973 84.2366 97.9722C84.6614 98.6096 84.9613 99.4845 84.5615 100.197C84.3739 99.7346 84.4238 99.2345 84.2366 98.7723C84.1742 98.622 84.1867 98.4473 84.1867 98.2846C84.0365 98.2722 83.8867 98.2472 83.7494 98.2347C83.4744 98.4469 83.2369 98.7348 82.8745 98.7847C82.0619 98.9849 81.1995 98.9095 80.3749 98.9095C79.0377 98.922 77.7001 98.9095 76.3625 98.922C76.2123 98.8971 76.0999 98.9844 76.0001 99.0847C75.9502 99.1222 75.8374 99.2095 75.7875 99.2594C75.775 99.2095 75.7376 99.1222 75.7251 99.0718C75.8624 98.9091 76.0126 98.6969 76.2502 98.6969C78.1623 98.6844 80.0874 98.6969 81.9995 98.6844C82.6244 98.6969 83.2119 98.4593 83.6741 98.0471V98.0475Z" fill="#EEFFD4" stroke="#EEFFD4" stroke-width="0.24" stroke-miterlimit="10.42"/>
<path d="M84.2364 97.9722C84.8114 97.9098 84.8488 98.5971 84.9366 98.9969C85.1368 99.9342 84.6616 100.859 83.9239 101.422C83.5241 101.509 83.1613 101.722 82.749 101.722C82.199 101.784 81.6739 101.521 81.1243 101.597C80.4495 101.534 79.7992 101.735 79.1244 101.735C78.8868 101.897 78.8494 102.222 78.8494 102.497C78.8618 102.909 78.8618 103.335 78.8993 103.747C78.9866 104.059 79.3869 103.872 79.6115 103.935C80.5489 104.097 81.5112 103.947 82.461 104.059C82.761 104.272 83.061 104.584 83.011 104.984C82.9736 105.434 83.061 105.872 83.061 106.309C82.8483 106.659 82.6986 107.146 82.2359 107.221C81.3485 106.959 80.3987 107.109 79.4987 107.159C79.2237 107.159 78.8364 107.271 78.8863 107.609C78.8614 108.497 78.7615 109.384 78.9737 110.247C78.9862 110.747 78.811 111.234 78.6737 111.709C77.7488 112.059 76.7366 111.634 75.8113 111.947C75.6361 111.784 75.374 111.709 75.2612 111.484C75.8487 111.722 76.4861 111.734 77.1235 111.709C77.5607 111.672 78.1107 111.822 78.4481 111.434C78.7731 111.085 78.6732 110.559 78.6857 110.11C78.6982 109.047 78.6358 107.972 78.7231 106.91C79.5607 106.96 80.4107 106.935 81.2477 106.947C81.5477 106.947 81.8601 106.972 82.1351 106.872C82.6852 106.735 82.8224 106.11 82.8349 105.623C82.8224 105.223 82.8973 104.735 82.5848 104.423C82.2724 104.073 81.7852 104.173 81.3725 104.16C80.4726 104.135 79.5727 104.21 78.6852 104.085C78.6852 103.235 78.6852 102.385 78.6727 101.535C80.1601 101.411 81.6475 101.56 83.1349 101.448C83.7099 101.323 84.2474 100.935 84.4471 100.373C84.472 100.335 84.5344 100.248 84.5594 100.198C84.9592 99.4855 84.6592 98.6105 84.2344 97.9731L84.2364 97.9722Z" fill="#9AC565" stroke="#9AC565" stroke-width="0.24" stroke-miterlimit="10.42"/>
<path d="M82.874 98.7848C83.2364 98.7349 83.474 98.4474 83.749 98.2347C83.8863 98.2472 84.0365 98.2722 84.1862 98.2847C84.1862 98.4474 84.1737 98.6221 84.2361 98.7723C84.4238 99.235 84.3739 99.7346 84.5611 100.197C84.5361 100.247 84.4737 100.335 84.4488 100.372C84.1363 100.422 84.0365 100.734 83.8239 100.91C83.1116 101.009 82.4742 101.41 81.749 101.347C80.6115 101.447 79.474 101.147 78.3365 101.334C78.3865 102.209 78.4743 103.109 78.3865 103.984C78.2866 104.009 78.0865 104.059 77.9867 104.071C78.5242 104.684 79.4366 104.572 80.1488 104.409C80.9489 104.322 81.8239 104.259 82.5237 104.734C82.611 105.096 82.599 105.484 82.636 105.859C82.4733 106.209 82.0984 106.459 82.1359 106.871C81.8608 106.971 81.5484 106.946 81.2484 106.946C80.4109 106.933 79.5609 106.958 78.7239 106.908C78.2991 106.834 78.3241 107.346 78.3361 107.621C78.4114 108.696 78.3361 109.783 78.361 110.858C78.2238 111.07 78.0361 111.245 77.8984 111.458C77.3483 111.483 76.7983 111.52 76.2487 111.47C75.9613 111.358 75.6363 111.333 75.3364 111.283C75.0863 110.995 75.3364 110.62 75.6738 110.62C75.7611 110.796 75.8489 110.97 75.9488 111.145C76.0361 110.821 75.9363 110.508 75.7611 110.233C75.811 109.983 75.8609 109.745 75.8609 109.496C75.8609 106.996 75.8485 104.496 75.8609 101.997C75.8609 101.284 75.9109 100.572 75.811 99.8594C75.7357 99.6592 75.8859 99.522 75.9737 99.3593C75.9862 99.2969 75.9987 99.1591 75.9987 99.0843C76.0985 98.9844 76.2108 98.8966 76.3611 98.9216C77.6982 98.9091 79.0358 98.9216 80.3735 98.9091C81.1985 98.9091 82.061 98.9844 82.8735 98.7843L82.874 98.7848Z" fill="white" stroke="white" stroke-width="0.24" stroke-miterlimit="10.42"/>
<path d="M20.8051 98.4224C21.2927 98.4598 21.7804 98.4848 22.255 98.3975C22.7801 98.2472 23.0926 98.7723 23.405 99.0972C23.6925 99.3847 23.5298 99.7845 23.5173 100.122C23.4674 101.084 23.5672 102.047 23.4674 102.997C23.4674 103.16 23.392 103.472 23.6301 103.484C24.5799 103.697 25.5422 103.547 26.505 103.584C26.8924 103.584 27.3425 103.609 27.68 103.372C27.5173 103.272 27.3425 103.234 27.1674 103.184C27.3301 103.097 27.5173 103.009 27.6425 102.872C27.7423 102.659 27.6176 102.447 27.4424 102.309C27.5048 102.247 27.5672 102.184 27.6171 102.121C27.642 101.384 27.5672 100.634 27.667 99.9093C27.7419 99.8968 27.8796 99.8844 27.9545 99.8719C27.9794 101.172 27.9171 102.484 27.9794 103.784C27.942 103.796 27.8547 103.834 27.8167 103.859C26.3169 103.809 24.7921 103.797 23.2922 103.872L23.2173 103.822C23.1924 102.422 23.2173 101.022 23.2049 99.6098C23.2173 99.3348 23.13 99.0224 22.8675 98.8846C22.3429 98.5846 21.7055 98.7344 21.1305 98.6969C20.593 98.6346 20.0429 99.0593 20.0804 99.6218C20.0679 102.909 20.0804 106.209 20.0679 109.496C20.0928 110.108 19.5803 110.508 19.3177 111.008C19.4924 111.471 20.0424 111.708 20.5051 111.708C21.1425 111.708 21.7674 111.721 22.3923 111.708C22.8295 111.721 23.2298 111.309 23.2049 110.883C23.2173 109.446 23.1924 108.021 23.2173 106.584C24.7921 106.597 26.3918 106.547 27.967 106.621C27.942 107.997 27.967 109.371 27.9545 110.746C27.942 111.196 28.2919 111.684 28.7671 111.708C29.3046 111.721 29.8421 111.721 30.3792 111.696C30.8544 111.684 31.1543 111.183 31.1039 110.746C31.1164 107.284 31.1039 103.834 31.1039 100.372C31.1039 100.01 31.1414 99.6473 31.0665 99.2844C30.9542 98.8971 30.5165 98.6595 30.1292 98.6969C29.679 98.7094 29.2168 98.6845 28.7541 98.7094C28.3917 98.7219 28.1542 99.0344 27.979 99.3218C27.704 99.0718 27.979 98.7344 28.2415 98.6345C28.7915 98.3096 29.4164 98.5347 30.0039 98.4224C30.6288 98.2847 31.2163 98.7973 31.3914 99.3598C31.3415 102.734 31.3665 106.109 31.3665 109.484C31.379 109.996 31.4663 110.496 31.4164 110.996C31.3166 111.384 31.0416 111.721 30.7166 111.946C30.1916 112.033 29.654 112.008 29.1294 112.021C28.7047 112.034 28.3418 111.796 27.967 111.659C27.7918 111.247 27.6171 110.847 27.4294 110.447C27.2797 110.184 27.642 109.997 27.6171 109.747C27.6296 109.284 27.6171 108.835 27.6171 108.372C27.6545 108.184 27.5672 108.022 27.4169 107.922C27.5293 107.81 27.6296 107.697 27.7419 107.585C27.6171 107.372 27.3795 107.297 27.1794 107.197C27.2293 107.097 27.2917 106.985 27.3545 106.884C26.8295 106.797 26.2919 106.884 25.7673 106.86C25.0301 106.822 24.3049 106.847 23.5802 106.947C23.4554 107.097 23.4554 107.297 23.4679 107.484C23.5303 108.497 23.4679 109.497 23.5178 110.497C23.5303 110.921 23.418 111.334 23.2178 111.696C23.0302 111.959 22.6678 111.972 22.3928 111.996C21.5553 112.034 20.7302 111.909 19.9057 111.922C19.5179 111.797 19.1555 111.484 19.0557 111.084C19.0931 110.596 19.5433 110.296 19.6057 109.822C19.693 109.809 19.7684 109.809 19.8433 109.797C19.8433 106.372 19.8058 102.935 19.8682 99.498C19.7559 98.9105 20.3434 98.5981 20.8061 98.4229L20.8051 98.4224Z" fill="#90CC55" stroke="#90CC55" stroke-width="0.24" stroke-miterlimit="10.42"/>
<path d="M111.246 98.5222C111.784 98.5597 112.321 98.3975 112.858 98.3975C113.258 98.5851 113.721 98.8726 113.721 99.3598C113.783 100.322 113.783 101.284 113.733 102.247C113.708 102.447 113.871 102.56 113.996 102.672C114.108 102.547 114.208 102.422 114.308 102.297C114.846 102.21 115.333 101.897 115.883 101.947C116.421 101.972 116.958 101.972 117.495 101.997C117.533 102.047 117.607 102.147 117.645 102.185C116.67 102.21 115.632 101.972 114.733 102.422C114.708 102.435 114.67 102.46 114.658 102.472C114.345 102.66 114.083 102.897 113.858 103.185C113.683 103.147 113.608 103.047 113.608 102.885C113.558 101.885 113.608 100.872 113.595 99.8599C113.595 99.6722 113.545 99.4975 113.483 99.3223L113.47 99.2849C113.433 99.0473 113.258 98.8222 113.008 98.7723C112.47 98.6475 111.908 98.7099 111.37 98.7099C110.92 98.6974 110.395 98.9849 110.433 99.4975C110.421 102.872 110.446 106.247 110.421 109.622C110.483 110.172 109.896 110.484 109.796 110.997C109.783 111.322 110.146 111.472 110.358 111.647C109.983 111.771 109.671 111.484 109.596 111.134C109.395 110.547 110.196 110.296 110.196 109.746C110.233 106.172 110.158 102.585 110.233 98.9974C110.483 98.7229 110.895 98.623 111.246 98.5227L111.246 98.5222Z" fill="#91C655" stroke="#91C655" stroke-width="0.24" stroke-miterlimit="10.42"/>
<path d="M20.0795 99.6222C20.0421 99.0597 20.5921 98.635 21.1297 98.6974C21.7047 98.7348 22.342 98.5851 22.8671 98.885C23.1296 99.0228 23.217 99.3352 23.2045 99.6102C23.217 101.023 23.192 102.422 23.217 103.822C23.0792 103.76 22.9794 103.648 22.9794 103.497C22.8921 102.947 23.0044 102.41 22.9794 101.86C22.9545 101.198 22.9919 100.548 22.9545 99.8853C22.9295 99.5104 22.6919 99.0477 22.2672 99.0228C21.7047 98.9978 21.1172 98.8351 20.5926 99.0727C20.5053 99.3602 20.355 99.6602 20.4174 99.9601C20.5297 100.685 20.4549 101.41 20.4798 102.122C20.4798 104.722 20.4923 107.322 20.4673 109.922C20.4049 109.959 20.2672 110.021 20.2048 110.046C20.1424 110.371 19.9423 110.634 19.7421 110.884C19.6548 111.196 20.0296 111.372 20.2672 111.446C21.1422 111.484 22.1294 111.709 22.8921 111.134C23.0418 110.784 22.9794 110.384 22.9794 110.009C22.917 109.084 23.0169 108.172 22.9669 107.247C22.917 106.835 23.192 106.51 23.3792 106.172C23.6667 106.234 23.9667 106.296 24.2542 106.284C25.179 106.259 26.0914 106.296 27.0038 106.209C27.3662 106.172 27.7161 106.334 28.041 106.472C28.1658 106.609 28.1408 106.809 28.1658 106.984C28.1783 108.109 28.1783 109.247 28.1533 110.371C28.0909 110.709 28.4533 110.859 28.6405 111.071C28.5781 111.096 28.4658 111.171 28.4029 111.196C28.5776 111.308 28.7528 111.446 28.9654 111.458C29.5029 111.496 30.0655 111.496 30.59 111.321C30.8526 111.133 30.7273 110.771 30.7902 110.496C30.9025 109.621 30.8526 108.746 30.8775 107.871C30.8526 105.208 30.9025 102.534 30.8526 99.8713C30.8775 99.509 30.6774 99.0338 30.2526 99.0338C29.6901 99.0089 29.0278 98.7588 28.5277 99.1461C28.365 99.496 28.1399 99.8459 28.1528 100.258C28.1778 101.208 28.1653 102.171 28.1778 103.121C28.1653 103.358 28.2402 103.658 27.9777 103.783C27.9153 102.483 27.9777 101.171 27.9527 99.8709C27.9527 99.6832 27.9402 99.496 27.9777 99.3208C28.1528 99.0333 28.3899 98.7209 28.7528 98.7084C29.2155 98.6835 29.6777 98.7084 30.1278 98.6959C30.5152 98.6585 30.9529 98.8961 31.0652 99.2834C31.1401 99.6458 31.1026 100.008 31.1026 100.371C31.1026 103.833 31.1151 107.283 31.1026 110.745C31.1525 111.182 30.8526 111.683 30.3779 111.695C29.8404 111.72 29.3028 111.72 28.7657 111.707C28.2906 111.683 27.9407 111.195 27.9532 110.745C27.9657 109.37 27.9407 107.996 27.9657 106.62C26.3904 106.546 24.7908 106.595 23.216 106.583C23.1911 108.02 23.216 109.445 23.2036 110.882C23.2285 111.307 22.8287 111.72 22.391 111.707C21.7661 111.72 21.1412 111.707 20.5038 111.707C20.0411 111.707 19.4911 111.47 19.3164 111.007C19.5789 110.507 20.0915 110.107 20.0666 109.495C20.0791 106.208 20.0666 102.908 20.0791 99.6213L20.0795 99.6222Z" fill="#202C10" stroke="#202C10" stroke-width="0.24" stroke-miterlimit="10.42"/>
<path d="M110.434 99.4975C110.396 98.9849 110.921 98.6974 111.371 98.7099C111.908 98.7099 112.471 98.6475 113.008 98.7723C113.258 98.8222 113.433 99.0473 113.471 99.2849C112.996 98.9849 112.408 98.9724 111.859 98.91C111.509 98.8726 111.159 98.9724 110.821 99.0602C110.834 99.3353 110.796 99.6227 110.659 99.8603C110.759 101.448 110.671 103.035 110.696 104.622C110.696 106.447 110.709 108.284 110.696 110.109C110.471 110.484 110.134 110.809 110.059 111.272C110.934 111.797 111.933 111.384 112.871 111.409C113.008 111.272 113.146 111.146 113.246 110.984C113.333 109.947 113.446 108.897 113.296 107.86C113.221 107.372 113.283 106.835 113.571 106.422C113.933 105.935 114.208 105.372 114.721 105.022C114.795 105.06 114.958 105.135 115.033 105.159C114.658 105.547 114.121 105.822 113.945 106.372C113.846 106.672 113.558 106.909 113.571 107.247C113.558 108.409 113.571 109.584 113.571 110.747C113.62 111.146 113.345 111.522 112.996 111.684C112.146 111.746 111.283 111.721 110.421 111.684L110.358 111.647C110.146 111.471 109.783 111.322 109.796 110.997C109.896 110.484 110.483 110.172 110.421 109.622C110.446 106.247 110.421 102.872 110.434 99.4975Z" fill="#E5FFCB" stroke="#E5FFCB" stroke-width="0.24" stroke-miterlimit="10.42"/>
<path d="M20.5925 99.0723C21.1175 98.8347 21.705 98.9974 22.2675 99.0224C22.6923 99.0473 22.9298 99.5095 22.9548 99.8849C22.9922 100.547 22.9548 101.197 22.9798 101.86C23.0047 102.41 22.8924 102.947 22.9798 103.497C22.9798 103.647 23.0796 103.76 23.2173 103.822L23.2922 103.872C23.4295 103.984 23.5797 104.035 23.7549 104.035C24.7546 104.035 25.7548 104.022 26.7546 104.035C27.117 104.022 27.4918 104.047 27.8172 103.86C27.8546 103.835 27.942 103.797 27.9799 103.784C28.2424 103.66 28.1676 103.36 28.1801 103.122C28.1676 102.172 28.1801 101.21 28.1551 100.26C28.1426 99.8474 28.3672 99.497 28.5299 99.1476C29.0301 98.7598 29.6924 99.0099 30.2549 99.0353C30.6797 99.0353 30.8798 99.5105 30.8548 99.8729C30.9048 102.535 30.8548 105.21 30.8798 107.872C30.8548 108.747 30.9048 109.622 30.7924 110.497C30.7301 110.772 30.8548 111.134 30.5923 111.322C30.0672 111.497 29.5047 111.497 28.9677 111.46C28.755 111.447 28.5799 111.31 28.4052 111.197C28.4675 111.172 28.5799 111.098 28.6427 111.073C28.4551 110.86 28.0927 110.71 28.1556 110.373C28.1805 109.248 28.1805 108.11 28.1681 106.986C28.1431 106.811 28.1681 106.611 28.0433 106.473C27.7183 106.336 27.3685 106.173 27.0061 106.211C26.0937 106.298 25.1813 106.261 24.2564 106.286C23.9689 106.298 23.669 106.236 23.3815 106.173C23.1938 106.511 22.9188 106.836 22.9692 107.248C23.0191 108.173 22.9193 109.086 22.9817 110.01C22.9817 110.385 23.0441 110.786 22.8943 111.135C22.1317 111.71 21.1444 111.485 20.2695 111.448C20.0319 111.373 19.657 111.198 19.7444 110.885C19.9445 110.635 20.1442 110.373 20.2071 110.048C20.2695 110.023 20.4072 109.961 20.4696 109.923C20.4946 107.323 20.4821 104.723 20.4821 102.124C20.4571 101.412 20.532 100.686 20.4197 99.9616C20.3573 99.6617 20.507 99.3617 20.5949 99.0742L20.5925 99.0723Z" fill="#2D262A" stroke="#2D262A" stroke-width="0.24" stroke-miterlimit="10.42"/>
<path d="M110.821 99.0598C111.159 98.9724 111.509 98.8721 111.858 98.9095C112.408 98.9719 112.996 98.9849 113.471 99.2844L113.483 99.3218C113.421 100.172 113.471 101.022 113.458 101.872C113.471 102.409 113.396 102.959 113.596 103.472C113.683 103.372 113.771 103.271 113.858 103.184C114.083 102.897 114.346 102.659 114.658 102.472C114.671 102.459 114.708 102.434 114.733 102.422C115.633 101.972 116.67 102.209 117.646 102.184C117.708 102.197 117.846 102.197 117.921 102.197C117.958 102.247 118.021 102.347 118.058 102.409C118.333 102.497 118.646 102.672 118.721 102.972C118.796 103.222 118.821 103.509 119.021 103.709C119.233 103.909 119.208 104.234 119.283 104.497C119.346 104.847 119.583 105.147 119.546 105.509C119.533 107.121 119.546 108.746 119.533 110.371C119.546 110.571 119.458 110.746 119.383 110.921C118.883 110.858 118.896 111.684 118.371 111.546C117.946 111.321 117.471 111.296 117.008 111.233C116.833 110.796 116.921 110.321 116.909 109.871C116.884 108.696 116.896 107.533 116.896 106.358C116.933 106.146 116.771 105.996 116.646 105.846C116.434 105.558 116.221 105.233 115.858 105.109C115.583 104.971 115.308 105.159 115.033 105.159C114.958 105.134 114.796 105.059 114.721 105.021C114.208 105.371 113.933 105.934 113.571 106.421C113.283 106.834 113.221 107.371 113.296 107.859C113.446 108.896 113.333 109.946 113.246 110.983C113.146 111.146 113.008 111.271 112.871 111.408C111.934 111.383 110.934 111.796 110.059 111.271C110.134 110.808 110.471 110.483 110.696 110.108C110.709 108.284 110.696 106.446 110.696 104.621C110.672 103.034 110.759 101.447 110.659 99.8594C110.796 99.6218 110.834 99.3348 110.821 99.0598Z" fill="#FEFEFC" stroke="#FEFEFC" stroke-width="0.24" stroke-miterlimit="10.42"/>
<path d="M75.6994 99.0099L75.7243 99.0723C75.7368 99.1222 75.7742 99.21 75.7867 99.2599C75.8366 99.21 75.9494 99.1227 75.9993 99.0852C75.9993 99.1601 75.9869 99.2978 75.9744 99.3602C75.887 99.5229 75.7368 99.6602 75.8117 99.8604C75.9115 100.573 75.8616 101.285 75.8616 101.998C75.8491 104.497 75.8616 106.997 75.8616 109.497C75.8616 109.747 75.8117 109.985 75.7618 110.234C75.937 110.509 76.0368 110.822 75.9494 111.146C75.8496 110.971 75.7618 110.797 75.6744 110.621C75.337 110.621 75.087 110.996 75.337 111.284C75.637 111.334 75.9619 111.359 76.2494 111.471C76.7994 111.521 77.3495 111.484 77.899 111.459C78.0367 111.246 78.2239 111.071 78.3617 110.859C78.3367 109.784 78.4116 108.697 78.3367 107.622C78.3242 107.347 78.2993 106.834 78.7245 106.909C78.6372 107.972 78.6996 109.047 78.6871 110.109C78.6746 110.559 78.7744 111.084 78.4495 111.434C78.1121 111.821 77.5621 111.672 77.1248 111.709C76.4875 111.734 75.8501 111.721 75.2626 111.484C74.9252 111.372 74.75 110.909 75.0625 110.671C75.4623 110.321 75.5871 109.759 75.5496 109.246C75.5496 106.034 75.5621 102.822 75.5496 99.6098C75.5372 99.3972 75.612 99.1971 75.6999 99.0094L75.6994 99.0099Z" fill="#F2FFE3" stroke="#F2FFE3" stroke-width="0.24" stroke-miterlimit="10.42"/>
<path d="M113.483 99.3223C113.546 99.4974 113.596 99.6721 113.596 99.8598C113.608 100.872 113.558 101.884 113.608 102.884C113.608 103.047 113.683 103.147 113.858 103.184C113.771 103.272 113.683 103.372 113.596 103.472C113.395 102.959 113.471 102.409 113.458 101.872C113.47 101.022 113.42 100.172 113.483 99.3223H113.483Z" fill="#B8E093" stroke="#B8E093" stroke-width="0.24" stroke-miterlimit="10.42"/>
<path d="M83.8235 100.909C84.0362 100.735 84.136 100.422 84.4484 100.372C84.2483 100.934 83.7112 101.322 83.1362 101.447C81.6489 101.559 80.1615 101.41 78.6741 101.534C78.6866 102.384 78.6866 103.234 78.6866 104.084C79.574 104.209 80.4739 104.134 81.3739 104.159C81.7861 104.172 82.2738 104.072 82.5862 104.422C82.8987 104.734 82.8238 105.221 82.8363 105.622C82.8238 106.109 82.6865 106.734 82.1365 106.871C82.0991 106.459 82.4739 106.209 82.6366 105.859C82.5992 105.484 82.6117 105.097 82.5243 104.734C81.8245 104.259 80.9496 104.321 80.1495 104.409C79.4372 104.572 78.5249 104.684 77.9873 104.072C78.0871 104.059 78.2873 104.01 78.3871 103.985C78.4745 103.11 78.3871 102.21 78.3372 101.335C79.4747 101.147 80.6122 101.447 81.7497 101.347C82.4744 101.41 83.1118 101.01 83.8245 100.909H83.8235Z" fill="#F5FFD5" stroke="#F5FFD5" stroke-width="0.24" stroke-miterlimit="10.42"/>
<path d="M33.5414 101.91C33.8538 101.96 34.0665 102.222 34.3789 102.26C35.0163 102.36 35.6162 101.985 36.2536 101.997C37.2783 101.997 38.3409 101.885 39.3282 102.185C39.6906 102.51 40.303 102.472 40.5406 102.947C40.6903 103.21 40.9908 103.347 41.1031 103.622C41.2403 103.947 41.5029 104.247 41.4779 104.622C41.5653 106.659 41.4779 108.697 41.5278 110.734C41.5029 111.158 41.4525 111.684 41.0776 111.946C40.5526 112.008 40.015 112.021 39.4904 111.983C39.3157 111.983 39.2279 111.896 39.2279 111.721C39.8029 111.708 40.3903 111.721 40.9653 111.696C41.2902 111.346 41.2902 110.834 41.3027 110.371C41.3027 108.709 41.2902 107.034 41.3027 105.372C41.3152 104.434 40.8904 103.484 40.1153 102.922C40.028 102.86 39.9406 102.81 39.8528 102.747C38.8156 102.022 37.4655 102.159 36.2781 102.222C35.3532 102.359 34.2781 102.834 33.4785 102.109C33.4915 102.059 33.5289 101.959 33.5414 101.909V101.91Z" fill="#98CE5E" stroke="#98CE5E" stroke-width="0.24" stroke-miterlimit="10.42"/>
<path d="M43.4781 101.96C44.1904 101.847 44.9156 101.872 45.6153 101.91C45.8654 101.91 46.2777 102.16 46.0032 102.422C45.6907 102.048 45.1781 102.122 44.7534 102.11C44.3286 102.122 43.8909 102.072 43.4786 102.222C43.1287 102.372 43.0538 102.785 43.0663 103.122V112.884C43.0663 113.384 42.7913 113.846 42.4289 114.196C42.2168 114.334 42.3665 114.596 42.5412 114.709C43.266 115.284 44.2537 115.121 45.1162 115.146C45.6413 115.196 46.2038 114.809 46.1913 114.246C46.2038 113.396 46.1913 112.546 46.2038 111.696C46.354 111.684 46.4538 111.609 46.5287 111.471C47.6532 111.996 48.9659 112.008 50.1533 111.659C50.8905 111.396 51.5409 110.883 52.0031 110.259C52.0654 110.259 52.1658 110.259 52.2282 110.271C52.053 111.059 51.1531 111.246 50.6909 111.808C49.7036 112.046 48.6784 112.133 47.6662 112.071C47.2664 112.083 46.9035 111.883 46.5412 111.771C46.2662 112.258 46.391 112.834 46.3535 113.371C46.3286 113.633 46.4034 113.896 46.4908 114.146C46.5781 114.633 46.2282 115.133 45.7785 115.296C44.941 115.445 44.091 115.333 43.254 115.346C42.8038 115.333 42.5038 114.933 42.1539 114.708C42.0037 114.233 42.4913 113.821 42.4165 113.321C42.679 113.358 42.8916 113.121 42.8667 112.858C42.8292 110.109 42.8292 107.372 42.8542 104.622C42.8417 103.985 42.7294 103.335 42.8292 102.697C42.929 102.384 43.0913 101.96 43.4786 101.96H43.4781Z" fill="#93CC5B" stroke="#93CC5B" stroke-width="0.24" stroke-miterlimit="10.42"/>
<path d="M46.1771 102.647C47.0146 102.035 48.1017 101.834 49.1269 101.935C49.7019 101.985 50.3268 101.985 50.8389 102.297C51.4388 102.597 51.8511 103.135 52.4385 103.447C52.6013 103.822 52.6761 104.247 52.8887 104.609C53.1638 105.059 53.1388 105.609 53.1513 106.122C53.1388 106.872 53.1513 107.634 52.9636 108.372C52.8887 108.772 52.9761 109.422 52.4261 109.472C52.9636 108.072 53.1009 106.485 52.726 105.022C52.5633 104.497 52.3512 103.972 51.9634 103.56C51.901 103.485 51.8386 103.41 51.7633 103.335C51.0131 102.497 49.8636 102.097 48.7511 102.122C47.926 102.097 46.9762 102.222 46.4262 102.922C46.3388 102.935 46.2385 102.947 46.1387 102.96C46.1516 102.885 46.1641 102.722 46.1766 102.647L46.1771 102.647Z" fill="#96CB5F" stroke="#96CB5F" stroke-width="0.24" stroke-miterlimit="10.42"/>
<path d="M55.0388 101.935C55.6513 101.897 56.2637 101.91 56.8636 101.922C57.2135 101.935 57.4137 102.31 57.7386 102.359C58.2886 102.247 58.7882 101.897 59.3762 101.909C59.9008 101.922 60.4258 101.897 60.9509 101.934C61.6132 102.134 62.3135 102.309 62.8381 102.784C63.4131 103.359 63.9881 104.034 64.1128 104.872C64.1882 104.996 64.2756 105.122 64.338 105.246C64.4757 106.334 64.6005 107.458 64.2381 108.509C64.1133 108.846 64.1632 109.259 63.9132 109.533C63.6756 109.796 63.738 110.208 63.463 110.458C63.0882 110.808 62.7632 111.246 62.3255 111.546C61.8379 111.733 61.3507 111.921 60.8381 112.058C60.2132 112.096 59.5758 112.096 58.9509 112.046C58.5262 112.021 58.0386 111.684 57.6637 112.033C57.5389 112.758 57.6138 113.508 57.7011 114.234C57.6138 114.608 57.5888 115.108 57.2135 115.309C56.6889 115.408 56.1509 115.334 55.6388 115.346C54.9764 115.334 54.2637 115.421 53.6763 115.071C53.4012 114.846 53.3513 114.446 53.3763 114.121C53.5135 113.846 53.8764 113.721 53.8889 113.371C53.9138 113.059 54.2013 112.821 54.1764 112.496C54.114 110.084 54.2138 107.659 54.1514 105.247C54.1639 104.484 54.1888 103.71 53.9263 102.997C54.0137 102.672 54.1888 102.384 54.3635 102.109C54.5383 101.935 54.8133 101.972 55.0384 101.935H55.0388Z" fill="#99CC61" stroke="#99CC61" stroke-width="0.24" stroke-miterlimit="10.42"/>
<path d="M32.9039 102.022C32.9663 102.022 33.0916 102.01 33.154 102.01C32.9289 102.46 32.7167 102.972 32.8291 103.484C32.9164 104.172 33.4415 104.809 34.1288 104.947H34.1412C34.9538 105.247 35.691 104.647 36.4911 104.647C37.0411 104.585 37.6411 104.684 38.0034 105.122C38.2535 105.335 38.1661 105.685 38.2036 105.96C38.1661 105.96 38.0913 105.96 38.0538 105.947C36.529 105.86 34.854 106.022 33.6291 107.01C32.3169 107.997 32.3294 110.26 33.6291 111.234C34.1417 111.696 34.854 111.834 35.5163 111.897C36.3788 111.909 37.1914 111.534 37.941 111.122C38.0783 111.034 38.2036 110.934 38.3408 110.834C38.3658 110.822 38.4157 110.809 38.4532 110.797C38.4656 111.171 38.6283 111.521 38.9657 111.721L38.9907 111.859C38.6408 111.822 38.3783 111.584 38.1407 111.347C37.6905 111.497 37.2782 111.746 36.841 111.934C35.8787 112.147 34.8036 112.197 33.9161 111.709C33.4914 111.584 33.2164 111.221 32.9663 110.884C32.4163 110.234 32.3664 109.309 32.4912 108.497C32.4912 108.147 32.7662 107.859 32.8036 107.509C32.8161 107.247 33.0786 107.147 33.2538 107.009C33.5039 106.835 33.6162 106.522 33.9161 106.422C34.5161 106.197 35.0911 105.859 35.7409 105.859C36.4532 105.735 37.1659 105.634 37.8782 105.597C37.678 105.272 37.3406 105.047 37.0157 104.834C36.7781 104.809 36.5285 104.859 36.3034 104.897C36.3034 104.996 36.3159 105.109 36.3284 105.221C35.5288 104.872 34.6788 105.471 33.8662 105.134C32.604 104.797 32.1413 103.034 32.9039 102.022Z" fill="#94C95F" stroke="#94C95F" stroke-width="0.24" stroke-miterlimit="10.42"/>
<path d="M33.1538 102.01C33.2786 101.997 33.3914 102.022 33.4787 102.11C34.2788 102.835 35.3534 102.36 36.2783 102.222C37.4657 102.16 38.8153 102.022 39.853 102.747C39.3903 103.01 38.9406 102.61 38.5029 102.497C37.3903 102.222 36.2279 102.522 35.1283 102.735C34.5159 102.86 33.9035 102.697 33.3535 102.435C32.9412 102.797 33.0535 103.447 33.2287 103.91C33.4163 104.36 34.0163 104.472 34.1286 104.947C33.4413 104.81 32.9162 104.172 32.8289 103.485C32.7166 102.972 32.9287 102.459 33.1538 102.01Z" fill="#253906" stroke="#253906" stroke-width="0.24" stroke-miterlimit="10.42"/>
<path d="M64.7882 102.047C65.0757 102.022 65.3382 102.134 65.6132 102.109C66.038 102.009 66.4632 102.184 66.888 102.122C67.2378 102.072 67.5877 102.184 67.9002 102.347C68.1378 102.784 68.4627 103.184 68.5875 103.659C68.7123 104.059 68.8251 104.472 69.0002 104.859C69.2004 105.334 69.2124 105.859 69.3252 106.346C69.2877 106.396 69.2004 106.497 69.1625 106.547C68.8251 105.446 68.5126 104.321 68.0624 103.259C68.025 103.072 67.9501 102.897 67.8498 102.747C67.725 102.584 67.6122 102.372 67.3746 102.409C66.6245 102.397 65.8748 102.397 65.1246 102.397C64.637 102.359 64.5746 102.997 64.6619 103.334C64.9369 104.097 65.2993 104.822 65.5868 105.584C65.4495 105.534 65.1745 105.572 65.162 105.372C65.0373 104.797 64.7373 104.284 64.4872 103.759C64.0869 103.222 64.4747 102.522 64.7872 102.047H64.7882Z" fill="#95C555" stroke="#95C555" stroke-width="0.24" stroke-miterlimit="10.42"/>
<path d="M71.4999 102.359C71.5124 102.134 71.7624 102.097 71.9501 102.084C72.4876 102.172 73.0377 102.134 73.5747 102.184C73.7749 102.209 73.9496 102.109 74.1372 102.034C74.3873 102.759 74.3623 103.559 74.0374 104.259C73.9251 104.921 73.4999 105.471 73.3626 106.121C73.2628 106.584 73.0002 106.983 72.9124 107.446C72.85 107.82 72.5875 108.12 72.5246 108.496C72.4622 108.971 72.0744 109.296 71.9621 109.745C71.8373 110.095 71.8248 110.508 71.5748 110.808C71.3871 111.108 71.3497 111.483 71.3247 111.833C71.1745 111.908 71.0497 112.033 70.8745 112.008C71.8368 109.32 72.9119 106.683 73.8992 104.008C73.9241 103.958 73.9491 103.845 73.9616 103.796C74.1368 103.346 74.1992 102.846 73.9865 102.408C73.149 102.396 72.3245 102.433 71.4994 102.359L71.4999 102.359Z" fill="#9FD061" stroke="#9FD061" stroke-width="0.24" stroke-miterlimit="10.42"/>
<path d="M43.4774 102.222C43.8897 102.072 44.3274 102.122 44.7522 102.11C45.177 102.122 45.6896 102.047 46.002 102.422C46.0519 102.472 46.1393 102.585 46.1767 102.647C46.1642 102.722 46.1517 102.885 46.1393 102.96H46.0519C45.9147 102.772 45.8518 102.472 45.5897 102.435C45.0272 102.322 44.4522 102.347 43.9022 102.41C43.7021 102.435 43.4395 102.535 43.427 102.76C43.2643 103.997 43.3397 105.259 43.3522 106.51C43.3522 108.034 43.3647 109.572 43.3272 111.109C43.3023 111.66 43.4146 112.197 43.3896 112.747C43.3522 113.396 42.8396 113.897 42.6898 114.497C43.0772 114.821 43.6397 114.821 44.1273 114.884C44.6898 114.871 45.3397 114.959 45.7899 114.571C46.2525 113.609 45.8897 112.509 46.0025 111.497C46.0774 111.297 46.3149 111.209 46.5026 111.159C46.9528 111.335 47.3776 111.622 47.8777 111.447C48.2775 111.747 48.7901 111.697 49.2652 111.647C49.94 111.572 50.5524 111.222 51.1025 110.847C51.3276 110.697 51.4773 110.46 51.4648 110.185C51.665 110.122 51.94 110.11 51.9774 109.86C52.2025 109.122 52.6148 108.422 52.6148 107.635C52.7022 106.56 52.6522 105.447 52.19 104.447C52.0897 104.16 51.7773 103.885 51.9649 103.56C52.3528 103.972 52.5649 104.497 52.7276 105.022C53.1024 106.485 52.9652 108.072 52.4276 109.472C52.3028 109.734 52.1651 110.009 52.0029 110.259C51.5402 110.884 50.8903 111.397 50.1531 111.66C48.9657 112.009 47.6535 111.997 46.5285 111.472C46.4532 111.447 46.3159 111.384 46.241 111.347C46.2285 111.434 46.2036 111.61 46.2036 111.697C46.1911 112.547 46.2036 113.397 46.1911 114.247C46.2036 114.809 45.6411 115.197 45.116 115.147C44.2535 115.122 43.2663 115.284 42.5411 114.71C42.3659 114.597 42.2161 114.335 42.4287 114.197C42.7911 113.847 43.0661 113.384 43.0661 112.885V103.123C43.0536 102.786 43.1285 102.373 43.4784 102.223L43.4774 102.222Z" fill="#193202" stroke="#193202" stroke-width="0.24" stroke-miterlimit="10.42"/>
<path d="M46.4277 102.922C46.9778 102.222 47.9276 102.097 48.7526 102.122C49.8647 102.097 51.0151 102.497 51.7648 103.334C51.7523 103.409 51.7274 103.547 51.7149 103.609C51.2901 103.397 51.0526 102.922 50.5899 102.784C49.94 102.459 49.2278 102.222 48.4901 102.322C47.7524 102.322 47.1649 102.909 46.4277 102.921V102.922Z" fill="#173100" stroke="#173100" stroke-width="0.24" stroke-miterlimit="10.42"/>
<path d="M54.3143 102.997C54.2519 102.547 54.6767 102.122 55.1269 102.122C55.6644 102.109 56.2139 102.084 56.764 102.134C57.1513 102.147 57.4762 102.585 57.4014 102.972C57.1139 102.86 56.9142 102.585 56.6267 102.497C56.0143 102.459 55.352 102.297 54.8019 102.672C54.4021 102.809 54.5269 103.297 54.4895 103.622C54.452 106.746 54.502 109.871 54.4645 112.983C54.3772 113.42 54.3522 113.97 53.9145 114.196C53.9769 114.396 54.0393 114.658 54.2769 114.721C54.9641 114.896 55.6769 114.871 56.3891 114.883C56.7141 114.896 57.0889 114.746 57.1518 114.383C57.3644 113.483 57.2641 112.534 57.1518 111.621C57.1268 111.446 57.2017 111.296 57.2641 111.146C57.3015 111.171 57.3639 111.221 57.4014 111.246C57.4887 112.196 57.4138 113.158 57.4513 114.121C57.5261 114.621 57.1014 115.083 56.6138 115.145C56.1266 115.158 55.6265 115.145 55.1264 115.158C54.5888 115.195 54.0388 114.97 53.6265 114.62C53.5017 114.445 53.5891 114.233 53.7388 114.095C54.0263 113.758 54.3013 113.345 54.3013 112.87C54.3138 109.583 54.3138 106.296 54.3138 102.996L54.3143 102.997Z" fill="#213500" stroke="#213500" stroke-width="0.24" stroke-miterlimit="10.42"/>
<path d="M58.7389 102.235C60.1639 101.935 61.826 102.134 62.8886 103.197C63.801 104.034 64.1883 105.297 64.1758 106.497C64.1883 107.872 63.9757 109.346 63.0882 110.459C62.3635 111.409 61.1636 111.871 59.9887 111.896C59.1637 111.884 58.2138 111.846 57.564 111.271C57.8639 111.009 58.1764 111.309 58.4514 111.434C59.7636 111.897 61.3263 111.672 62.4134 110.784C62.8132 110.372 63.3258 109.984 63.3882 109.372C63.4631 108.834 63.9382 108.434 63.9008 107.872C63.9008 107.084 64.0385 106.285 63.9133 105.497C63.8883 105.197 63.5759 105.022 63.501 104.747C63.4007 104.447 63.4136 104.072 63.1636 103.847C62.7513 103.41 62.3385 102.934 61.7636 102.722C61.0388 102.434 60.2637 102.31 59.5011 102.359C58.8762 102.397 58.3261 102.722 57.7761 102.997L57.7137 102.922C57.9134 102.535 58.3636 102.372 58.7384 102.235H58.7389Z" fill="#133100" stroke="#133100" stroke-width="0.24" stroke-miterlimit="10.42"/>
<path d="M86.3863 102.26C86.7361 102.285 87.086 102.247 87.4234 102.172C87.5482 102.51 87.8607 102.86 88.211 102.935C88.5484 102.622 88.9862 102.51 89.386 102.285C89.9485 101.985 90.6482 102.248 91.0735 102.66C91.1359 103.31 91.0984 103.972 91.0735 104.622C90.761 104.072 91.1733 103.41 90.8858 102.873C90.4361 102.06 89.3361 102.435 88.7236 102.823C88.7112 102.835 88.6862 102.848 88.6737 102.848C88.3987 103.135 87.8986 103.335 87.8986 103.785L88.0488 103.835C88.0239 103.86 87.9864 103.885 87.9615 103.91C87.8741 103.86 87.7868 103.822 87.7114 103.772C87.7364 103.348 87.649 102.935 87.3865 102.598C86.824 102.372 86.2116 102.46 85.6241 102.447C85.1869 102.435 84.6368 102.747 84.6618 103.247C84.6243 104.497 84.6743 105.747 84.6243 106.997C84.5994 107.96 84.6618 108.934 84.562 109.897C84.537 110.284 84.2245 110.535 83.962 110.785C83.8996 110.622 83.8871 110.447 83.937 110.284C84.1118 110.122 84.4372 110.047 84.4122 109.747C84.4122 107.835 84.4247 105.91 84.4247 103.998C84.4247 103.623 84.1247 103.148 84.4372 102.823C84.4247 102.735 84.4247 102.648 84.4247 102.56C84.5495 102.473 84.6623 102.397 84.787 102.322C85.3246 102.335 85.8497 102.197 86.3867 102.26L86.3863 102.26Z" fill="#93C663" stroke="#93C663" stroke-width="0.24" stroke-miterlimit="10.42"/>
<path d="M93.9727 102.485C94.6225 102.01 95.485 102.097 96.2476 102.085C96.8101 102.072 97.3347 102.26 97.8723 102.372C98.0095 102.385 98.0974 102.46 98.1723 102.56C97.6472 102.622 97.1351 102.41 96.6225 102.385C95.7351 102.273 94.8601 102.435 93.9727 102.485Z" fill="#E0FBC5" stroke="#E0FBC5" stroke-width="0.24" stroke-miterlimit="10.42"/>
<path d="M103.509 102.434C104.172 102.122 104.909 102.197 105.622 102.122C106.509 102.184 107.521 102.147 108.246 102.747C109.146 103.359 108.534 104.984 107.496 105.009C106.959 105.047 106.459 104.722 105.959 104.547C106.571 104.409 107.134 104.81 107.734 104.722C108.321 104.497 108.522 103.747 108.296 103.197C108.222 103.047 108.021 103.034 107.884 102.972C107.559 102.885 107.297 102.659 106.984 102.547C106.134 102.359 105.247 102.384 104.384 102.435C104.072 102.447 103.809 102.61 103.559 102.785C103.347 102.835 103.135 102.885 102.922 102.947C102.884 103.185 102.884 103.46 102.672 103.622C102.522 103.522 102.359 103.447 102.197 103.372C102.159 103.535 102.134 103.697 102.097 103.86C101.997 103.91 101.897 103.96 101.797 104.023C101.935 103.16 102.785 102.735 103.509 102.435V102.434Z" fill="#E8FFDB" stroke="#E8FFDB" stroke-width="0.24" stroke-miterlimit="10.42"/>
<path d="M35.1288 102.734C36.2288 102.522 37.3913 102.222 38.5033 102.497C38.9406 102.609 39.3908 103.009 39.8534 102.747C39.9408 102.809 40.0286 102.859 40.116 102.922C39.9158 103.034 40.0661 103.234 40.1659 103.334C40.5158 103.697 40.8282 104.122 40.9285 104.621C41.1287 105.646 41.0289 106.709 41.0533 107.746C41.0783 108.783 41.0034 109.833 41.0783 110.883C41.1032 111.083 40.966 111.346 40.7409 111.383C40.4284 111.421 39.9662 111.583 39.816 111.183C39.7037 111.508 39.3284 111.595 39.0409 111.458C38.7783 111.346 38.7783 111.021 38.6785 110.783C38.6161 110.796 38.5038 110.796 38.4534 110.796C38.416 110.808 38.3661 110.821 38.3411 110.833C38.2034 110.933 38.0786 111.033 37.9413 111.121C37.5535 110.958 37.2041 111.233 36.8662 111.358C35.6414 112.045 33.9913 111.533 33.2291 110.396C32.8418 109.796 32.8418 109.033 32.9666 108.358C33.2416 107.696 33.7168 107.008 34.454 106.809C34.9166 106.646 35.3788 106.409 35.8789 106.359C36.3915 106.321 36.8662 106.109 37.3788 106.109C37.6164 106.096 37.866 106.134 38.0536 105.946C38.0911 105.959 38.1659 105.959 38.2034 105.959C38.3785 106.009 38.6156 105.984 38.6032 105.758C38.5033 105.221 38.153 104.658 37.5909 104.534C36.966 104.259 36.2658 104.446 35.6284 104.271C35.4787 104.209 35.3784 104.358 35.266 104.408C35.3284 104.458 35.4287 104.546 35.4911 104.596C35.0539 104.771 34.5288 104.646 34.141 104.946H34.1286C34.0162 104.471 33.4163 104.358 33.2286 103.909C33.0535 103.446 32.9411 102.797 33.3534 102.434C33.9035 102.696 34.5159 102.859 35.1283 102.734L35.1288 102.734Z" fill="#2D262B" stroke="#2D262B" stroke-width="0.24" stroke-miterlimit="10.42"/>
<path d="M43.4276 102.759C43.4401 102.534 43.7026 102.434 43.9028 102.409C44.4528 102.347 45.0278 102.322 45.5903 102.434C45.8528 102.472 45.9152 102.772 46.0525 102.959H46.1398C46.2397 102.947 46.34 102.934 46.4273 102.922C47.1645 102.909 47.7525 102.322 48.4897 102.322C49.2269 102.222 49.9396 102.46 50.5895 102.785C51.0522 102.922 51.2897 103.397 51.7145 103.61C51.727 103.547 51.7519 103.41 51.7644 103.335C51.8393 103.41 51.9017 103.485 51.9646 103.56C51.7769 103.885 52.0894 104.16 52.1897 104.447C52.6519 105.447 52.7023 106.559 52.6144 107.635C52.6144 108.422 52.2021 109.122 51.977 109.86C51.9396 110.11 51.6646 110.122 51.4645 110.185C51.4769 110.46 51.3272 110.697 51.1021 110.847C50.5521 111.222 49.9396 111.572 49.2648 111.647C48.7897 111.697 48.2776 111.747 47.8773 111.447C47.3772 111.622 46.9524 111.335 46.5022 111.159C46.3145 111.209 46.0774 111.297 46.0021 111.497C45.8898 112.509 46.2522 113.609 45.7895 114.571C45.3393 114.959 44.6894 114.871 44.1269 114.884C43.6393 114.821 43.0773 114.821 42.6895 114.496C42.8397 113.897 43.3518 113.396 43.3892 112.747C43.4142 112.197 43.3019 111.659 43.3268 111.109C43.3643 109.572 43.3518 108.034 43.3518 106.51C43.3393 105.26 43.2644 103.998 43.4267 102.76L43.4276 102.759Z" fill="#30252B" stroke="#30252B" stroke-width="0.24" stroke-miterlimit="10.42"/>
<path d="M54.802 102.672C55.352 102.297 56.0143 102.459 56.6268 102.497C56.9143 102.584 57.1139 102.859 57.4014 102.972C57.5017 102.947 57.614 102.934 57.7139 102.922L57.7763 102.997C58.3263 102.722 58.8763 102.397 59.5012 102.359C60.2639 102.31 61.0385 102.434 61.7637 102.722C62.3387 102.934 62.751 103.409 63.1637 103.847C63.4138 104.072 63.4013 104.447 63.5011 104.747C63.576 105.022 63.8885 105.196 63.9134 105.497C64.0382 106.285 63.901 107.084 63.901 107.872C63.9384 108.434 63.4637 108.834 63.3884 109.372C63.326 109.984 62.8134 110.371 62.4136 110.784C61.326 111.672 59.7638 111.897 58.4516 111.434C58.1765 111.309 57.8641 111.009 57.5641 111.271L57.4888 111.309L57.4014 111.246C57.364 111.221 57.3016 111.171 57.2642 111.146C57.2018 111.297 57.1269 111.446 57.1518 111.622C57.2641 112.534 57.3645 113.484 57.1518 114.384C57.0894 114.746 56.7146 114.896 56.3892 114.884C55.6769 114.871 54.9642 114.896 54.2769 114.721C54.0393 114.659 53.9769 114.396 53.9146 114.196C54.3518 113.971 54.3772 113.421 54.4646 112.984C54.502 109.871 54.4521 106.747 54.4895 103.622C54.527 103.297 54.4017 102.81 54.802 102.672V102.672Z" fill="#2D262B" stroke="#2D262B" stroke-width="0.24" stroke-miterlimit="10.42"/>
<path d="M64.6631 103.334C64.5757 102.997 64.6381 102.359 65.1258 102.397C65.8759 102.397 66.6256 102.397 67.3758 102.409C67.6134 102.372 67.7257 102.585 67.8509 102.747C67.6882 103.034 67.4007 102.747 67.2011 102.709C66.5637 102.559 65.9014 102.672 65.251 102.672C65.1133 102.672 64.8632 102.684 64.9011 102.884C64.8013 103.334 65.0888 103.709 65.2889 104.071C65.4392 104.684 65.7262 105.234 65.9388 105.821C66.4888 106.509 66.7264 107.359 67.1262 108.134C67.276 108.459 67.251 108.846 67.4886 109.134C67.7886 109.483 67.826 109.996 68.1759 110.321C68.5882 110.721 68.6635 111.308 68.6006 111.858C68.5133 111.983 68.3506 112.008 68.2258 112.096C68.0007 112.683 67.4257 113.308 66.7384 113.183C66.3511 113.171 65.8884 113.046 65.5635 113.308C65.2885 113.808 65.0135 114.383 65.2885 114.945C65.6384 115.083 65.9882 115.233 66.376 115.22C66.8382 115.258 67.3758 115.083 67.7756 115.383C67.1133 115.495 66.4384 115.521 65.7631 115.433C65.3005 115.358 64.7884 115.021 64.8383 114.496C64.8882 113.883 65.1382 113.233 65.6384 112.846C66.1634 112.695 66.7259 112.996 67.238 112.833C67.7132 112.546 67.9753 112.008 68.1629 111.508C67.4756 109.508 66.4629 107.633 65.6259 105.696C65.6259 105.671 65.6009 105.609 65.5884 105.584C65.3014 104.822 64.9386 104.096 64.6636 103.334H64.6631Z" fill="#232913" stroke="#232913" stroke-width="0.24" stroke-miterlimit="10.42"/>
<path d="M70.7625 103.397C70.8998 102.985 71.0625 102.522 71.4998 102.36C72.3248 102.435 73.1494 102.397 73.9869 102.41C74.1995 102.847 74.1371 103.347 73.9619 103.797C73.8621 103.435 73.9494 102.972 73.6744 102.697C73.0121 102.497 72.2994 102.598 71.6245 102.66C71.1369 102.685 71.1369 103.272 70.9872 103.622C70.8125 103.985 70.8499 104.41 70.6498 104.772C70.4376 105.222 70.3872 105.722 70.1626 106.16C70.0249 106.597 70.0124 107.085 69.7748 107.497C69.7249 107.522 69.6375 107.547 69.6001 107.572C69.9001 106.16 70.3627 104.785 70.7625 103.397Z" fill="#1A2D05" stroke="#1A2D05" stroke-width="0.24" stroke-miterlimit="10.42"/>
<path d="M88.7237 102.822C89.3361 102.435 90.4362 102.059 90.8859 102.872C90.9732 103.41 90.8859 103.96 90.8484 104.497C90.811 104.659 90.9233 104.921 90.7237 105.022C90.7861 104.372 90.561 103.747 90.4861 103.11C90.4861 102.847 90.2485 102.697 90.0988 102.51C89.7364 102.922 89.1864 102.884 88.6987 102.86L88.7237 102.822Z" fill="#EDFFD8" stroke="#EDFFD8" stroke-width="0.24" stroke-miterlimit="10.42"/>
<path d="M93.9726 102.485C94.86 102.435 95.735 102.272 96.6224 102.384C97.135 102.409 97.6471 102.622 98.1722 102.56H98.272C98.6095 102.822 99.0347 102.959 99.3721 103.234C99.5722 103.484 99.7969 103.735 99.9845 103.985C99.997 104.297 100.009 104.609 100.034 104.922C100.084 104.922 100.172 104.947 100.222 104.959C100.235 105.522 100.385 106.059 100.397 106.622C100.409 107.047 99.8967 107.259 99.9471 107.697V107.71C98.5845 107.697 97.2349 107.71 95.8723 107.697C95.5099 107.697 95.1351 107.672 94.7847 107.759C94.7847 107.809 94.7972 107.91 94.7972 107.96C94.7597 108.647 95.447 108.959 95.8723 109.36C96.6469 109.709 97.5468 109.497 98.297 109.184C98.847 108.947 99.5718 108.884 100.047 109.309C100.334 109.759 100.197 110.296 100.159 110.784C99.2094 111.471 98.0844 112.059 96.872 111.972C95.9721 112.021 95.1346 111.684 94.2846 111.434C93.9846 111.297 93.7096 111.072 93.3847 110.997C92.8721 110.547 92.2971 110.109 92.0221 109.472C91.8344 109.035 91.5724 108.609 91.5469 108.11C91.5095 107.41 91.522 106.697 91.5345 105.998C91.522 105.31 91.8219 104.685 92.0845 104.073C92.647 103.473 93.1845 102.773 93.9721 102.485L93.9726 102.485Z" fill="#FEFFFC" stroke="#FEFFFC" stroke-width="0.24" stroke-miterlimit="10.42"/>
<path d="M103.559 102.785C103.809 102.61 104.072 102.447 104.384 102.435C105.247 102.385 106.134 102.36 106.984 102.547C107.297 102.659 107.559 102.885 107.884 102.972C108.021 103.034 108.221 103.047 108.296 103.197C108.521 103.747 108.321 104.497 107.734 104.722C107.134 104.809 106.571 104.409 105.959 104.547C105.472 104.522 104.634 104.56 104.684 105.247L104.984 105.509C104.922 105.522 104.796 105.534 104.747 105.534C105.146 105.972 105.784 106.022 106.346 106.01L106.446 105.897C106.208 105.872 105.946 105.91 105.721 105.81C106.071 105.81 106.434 105.81 106.734 106.022L106.609 106.01C106.734 106.185 106.846 106.36 106.997 106.51C107.234 106.673 107.534 106.61 107.796 106.572C108.071 106.572 108.196 106.91 108.371 107.098C108.221 107.01 108.046 106.923 107.884 106.847C108.034 107.373 108.496 107.722 108.634 108.248C108.684 108.76 108.621 109.272 108.696 109.785V109.897C108.559 110.147 108.434 110.397 108.259 110.622C107.621 111.672 106.284 111.997 105.134 112.009C104.747 111.947 104.347 111.997 103.984 111.872L104.084 111.835C104.047 111.735 104.009 111.647 103.959 111.547C103.247 111.722 102.772 110.897 102.047 111.072C101.81 110.685 101.785 110.222 101.71 109.785C101.822 109.085 102.785 108.498 103.447 108.935C104.185 109.385 105.122 109.622 105.959 109.31C105.959 109.035 106.035 108.722 105.797 108.522C105.347 108.122 104.722 108.034 104.147 108.059C104.022 107.947 103.909 107.834 103.797 107.722C103.797 107.685 103.809 107.597 103.809 107.547C103.472 107.522 103.084 107.535 102.834 107.285C102.722 107.122 102.646 106.96 102.559 106.785C102.484 106.797 102.321 106.797 102.246 106.81H102.096C101.609 105.985 101.509 104.922 101.796 104.022C101.896 103.96 101.996 103.91 102.096 103.86C102.134 103.697 102.159 103.535 102.196 103.372C102.359 103.447 102.521 103.522 102.671 103.622C102.884 103.46 102.884 103.185 102.921 102.947C103.133 102.885 103.346 102.835 103.558 102.785L103.559 102.785Z" fill="#FEFEFD" stroke="#FEFEFD" stroke-width="0.24" stroke-miterlimit="10.42"/>
<path d="M84.6609 103.247C84.636 102.747 85.186 102.434 85.6232 102.447C86.2107 102.459 86.8231 102.372 87.3856 102.597C87.6482 102.934 87.7355 103.347 87.7106 103.772C87.7859 103.822 87.8733 103.859 87.9606 103.909C87.9856 103.884 88.023 103.859 88.048 103.834L87.8977 103.784C87.8977 103.335 88.3979 103.135 88.6729 102.847L88.6978 102.86C89.1855 102.885 89.735 102.922 90.0979 102.51C90.2481 102.697 90.4852 102.847 90.4852 103.11C90.5605 103.747 90.7851 104.372 90.7228 105.022C90.6853 105.597 89.9102 105.509 89.4979 105.559C88.8231 105.447 88.3355 106.059 88.1104 106.622C87.4979 108.047 87.773 109.609 87.6731 111.109C87.5858 111.659 86.9484 111.734 86.4982 111.709C85.7356 111.647 84.886 111.872 84.2107 111.421C83.9607 111.309 83.8733 111.022 83.9607 110.784C84.2232 110.534 84.5357 110.284 84.5606 109.897C84.6605 108.934 84.5981 107.96 84.623 106.997C84.6729 105.747 84.623 104.497 84.6605 103.247H84.6609Z" fill="#FDFFFA" stroke="#FDFFFA" stroke-width="0.24" stroke-miterlimit="10.42"/>
<path d="M64.9004 102.885C64.8629 102.684 65.113 102.672 65.2502 102.672C65.9001 102.672 66.5624 102.56 67.2003 102.71C67.4004 102.747 67.6879 103.035 67.8502 102.747C67.95 102.897 68.0249 103.072 68.0628 103.26C67.8626 103.635 68.1127 104.01 68.2255 104.372C68.4381 104.96 68.5629 105.585 68.8005 106.172C69.0131 106.672 69.0505 107.235 69.3006 107.722L69.4129 107.635C69.4628 107.622 69.5502 107.585 69.6005 107.572C69.638 107.547 69.7253 107.522 69.7752 107.497C70.0128 107.085 70.0253 106.597 70.1631 106.16C70.3882 105.723 70.4381 105.223 70.6502 104.773C70.8503 104.41 70.8129 103.985 70.9876 103.623C71.1378 103.273 71.1378 102.685 71.625 102.66C72.2998 102.598 73.0125 102.498 73.6749 102.698C73.9499 102.973 73.8625 103.435 73.9624 103.798C73.9499 103.848 73.9249 103.961 73.9 104.01C73.8376 103.935 73.7627 103.847 73.6878 103.772C73.6125 104.335 73.2506 104.81 73.1253 105.36C73.025 105.91 72.6252 106.347 72.5503 106.909C72.0877 107.509 72.1505 108.322 71.6879 108.922C71.2127 110.072 70.8254 111.259 70.463 112.459C70.2754 112.922 69.9879 113.347 69.8506 113.834C69.3754 114.097 69.088 114.597 68.5883 114.834C68.3632 114.959 68.1261 115.047 67.901 115.146C67.926 115.196 67.9884 115.284 68.0258 115.321C67.9634 115.334 67.8382 115.371 67.7758 115.383C67.376 115.083 66.8384 115.259 66.3762 115.221C65.9884 115.233 65.639 115.083 65.2886 114.946C65.0136 114.383 65.2886 113.808 65.5637 113.309C65.8886 113.046 66.3513 113.171 66.7386 113.184C67.4259 113.309 68.0009 112.684 68.226 112.096C68.3507 112.009 68.5134 111.984 68.6008 111.859C68.6632 111.309 68.5883 110.721 68.176 110.321C67.8262 109.996 67.7887 109.484 67.4888 109.134C67.2512 108.846 67.2761 108.459 67.1264 108.134C66.7266 107.36 66.489 106.51 65.939 105.822C65.7264 105.234 65.4389 104.684 65.2891 104.072C65.089 103.71 64.8015 103.335 64.9013 102.885H64.9004Z" fill="#2D262B" stroke="#2D262B" stroke-width="0.24" stroke-miterlimit="10.42"/>
<path d="M88.6733 102.847C88.6858 102.847 88.7108 102.835 88.7233 102.822L88.6983 102.86L88.6733 102.847Z" fill="#B0DE86" stroke="#B0DE86" stroke-width="0.24" stroke-miterlimit="10.42"/>
<path d="M40.1656 103.334C40.0658 103.234 39.9155 103.034 40.1157 102.922C40.8908 103.485 41.3156 104.434 41.3031 105.372C41.2906 107.034 41.3031 108.709 41.3031 110.371C41.2906 110.834 41.2906 111.346 40.9657 111.696C40.3907 111.721 39.8032 111.709 39.2282 111.721H38.9657C38.6283 111.521 38.4656 111.171 38.4531 110.796C38.503 110.796 38.6158 110.796 38.6782 110.784C38.7785 111.021 38.7785 111.346 39.0406 111.458C39.3281 111.596 39.7029 111.508 39.8157 111.183C39.9655 111.583 40.4281 111.421 40.7406 111.384C40.9657 111.346 41.103 111.084 41.078 110.883C41.0031 109.834 41.078 108.784 41.053 107.746C41.0281 106.709 41.1284 105.647 40.9282 104.622C40.8284 104.122 40.516 103.697 40.1661 103.335L40.1656 103.334Z" fill="#173100" stroke="#173100" stroke-width="0.24" stroke-miterlimit="10.42"/>
<path d="M118.721 102.972C118.933 102.997 119.046 103.172 119.158 103.334C119.52 103.809 119.708 104.409 119.808 104.997C119.808 107.059 119.808 109.122 119.795 111.184C119.645 111.347 119.508 111.496 119.371 111.659C118.633 111.759 117.871 111.734 117.121 111.659C116.833 111.509 116.696 111.172 116.658 110.871C116.658 109.196 116.67 107.522 116.646 105.847C116.77 105.997 116.933 106.147 116.896 106.359C116.896 107.534 116.883 108.697 116.908 109.872C116.921 110.321 116.833 110.797 117.008 111.234C117.471 111.297 117.945 111.322 118.37 111.547C118.895 111.684 118.883 110.859 119.383 110.922C119.458 110.747 119.545 110.572 119.533 110.372C119.545 108.747 119.533 107.122 119.545 105.51C119.583 105.147 119.345 104.848 119.283 104.498C119.207 104.235 119.233 103.91 119.02 103.71C118.821 103.51 118.796 103.222 118.72 102.972L118.721 102.972Z" fill="#E7FFD3" stroke="#E7FFD3" stroke-width="0.24" stroke-miterlimit="10.42"/>
<path d="M70.1129 104.709C70.3255 104.184 70.2631 103.534 70.7128 103.122C70.7253 103.197 70.7502 103.322 70.7627 103.397C70.3629 104.785 69.9002 106.159 69.6003 107.572C69.5503 107.584 69.4625 107.622 69.4126 107.634C69.3502 107.297 69.2624 106.959 69.1875 106.622C69.2873 106.709 69.5 106.959 69.5998 106.709C69.6622 106.422 69.6871 106.109 69.8623 105.859C69.9621 105.484 69.9621 105.072 70.1124 104.709H70.1129Z" fill="#9AC565" stroke="#9AC565" stroke-width="0.24" stroke-miterlimit="10.42"/>
<path d="M68.0627 103.259C68.5129 104.322 68.8254 105.447 69.1628 106.547L69.1877 106.621C69.2626 106.959 69.3504 107.296 69.4128 107.634L69.3005 107.721C69.0505 107.234 69.013 106.671 68.8004 106.171C68.5628 105.584 68.4381 104.959 68.2254 104.371C68.1131 104.009 67.8631 103.634 68.0627 103.259V103.259Z" fill="#173100" stroke="#173100" stroke-width="0.24" stroke-miterlimit="10.42"/>
<path d="M73.6877 103.772C73.7626 103.847 73.8374 103.935 73.8998 104.01C72.9126 106.684 71.8375 109.322 70.8752 112.009C70.6501 112.721 70.3126 113.384 69.9503 114.034C69.4502 114.659 68.7878 115.121 68.0257 115.321C67.9882 115.284 67.9258 115.196 67.9009 115.146C68.126 115.047 68.3636 114.959 68.5882 114.834C69.0883 114.596 69.3758 114.097 69.8505 113.834C69.9877 113.347 70.2752 112.922 70.4629 112.459C70.8252 111.259 71.213 110.072 71.6877 108.922C72.1499 108.322 72.0875 107.509 72.5502 106.909C72.6255 106.347 73.0253 105.91 73.1252 105.36C73.25 104.81 73.6123 104.335 73.6877 103.772V103.772Z" fill="#173003" stroke="#173003" stroke-width="0.24" stroke-miterlimit="10.42"/>
<path d="M23.2925 103.872C24.7923 103.797 26.3171 103.809 27.817 103.859C27.4921 104.047 27.1167 104.022 26.7544 104.034C25.7546 104.022 24.7544 104.034 23.7547 104.034C23.5795 104.034 23.4297 103.984 23.292 103.872H23.2925Z" fill="#17310A" stroke="#17310A" stroke-width="0.24" stroke-miterlimit="10.42"/>
<path d="M99.9847 103.985C100.247 104.26 100.347 104.659 100.385 105.034C100.36 105.184 100.372 105.359 100.484 105.484C100.697 106.047 100.584 106.672 100.572 107.259C100.397 107.447 100.197 107.622 99.9468 107.697C99.8969 107.259 100.409 107.047 100.396 106.621C100.384 106.059 100.234 105.521 100.222 104.959C100.172 104.946 100.084 104.921 100.034 104.921C100.009 104.609 99.9967 104.297 99.9842 103.984L99.9847 103.985Z" fill="#E7FFD3" stroke="#E7FFD3" stroke-width="0.24" stroke-miterlimit="10.42"/>
<path d="M35.2656 104.409C35.3779 104.359 35.4783 104.209 35.628 104.272C36.2654 104.447 36.9652 104.26 37.5905 104.535C38.153 104.659 38.5029 105.222 38.6028 105.759C38.6152 105.985 38.3777 106.01 38.203 105.96C38.1655 105.685 38.2529 105.335 38.0028 105.122C37.6404 104.685 37.0405 104.585 36.4905 104.647C35.6909 104.647 34.9532 105.247 34.1406 104.947C34.5284 104.647 35.053 104.772 35.4907 104.597C35.4283 104.547 35.3285 104.46 35.2661 104.409H35.2656Z" fill="#25240F" stroke="#25240F" stroke-width="0.24" stroke-miterlimit="10.42"/>
<path d="M95.1475 104.997C95.3102 104.409 96.0723 104.422 96.56 104.434C97.0222 104.722 97.4224 105.147 97.4973 105.697C96.7851 105.734 96.0848 105.697 95.3726 105.759C95.3226 105.709 95.2099 105.622 95.1475 105.571C95.2598 105.346 95.4474 105.134 95.41 104.872C95.3476 104.897 95.2099 104.971 95.1475 104.996V104.997Z" fill="#88D13A" stroke="#88D13A" stroke-width="0.24" stroke-miterlimit="10.42"/>
<path d="M96.5604 104.434C97.0355 104.447 97.5102 104.509 97.9729 104.647C97.8351 104.784 97.6729 104.922 97.623 105.122C97.6979 105.335 97.8481 105.522 97.9729 105.71C97.323 105.834 96.6477 106.109 95.9979 105.884C95.7354 105.797 95.4853 105.96 95.2477 106.022C95.11 105.947 94.9727 105.859 94.835 105.784C95.0226 105.772 95.1973 105.759 95.3725 105.759C96.0848 105.697 96.785 105.735 97.4973 105.697C97.4224 105.147 97.0221 104.722 96.5599 104.435L96.5604 104.434Z" fill="#F2FFDC" stroke="#F2FFDC" stroke-width="0.24" stroke-miterlimit="10.42"/>
<path d="M47.4149 104.672C48.0648 104.447 48.752 104.709 49.2397 105.134C49.8022 105.622 49.9898 106.409 49.9769 107.134C49.8646 107.784 49.7767 108.522 49.2397 108.971C48.7021 109.359 47.9899 109.596 47.34 109.409C46.7276 109.159 46.0777 108.696 46.0153 107.984C46.0153 107.284 45.9654 106.572 46.0153 105.872C46.2155 105.247 46.7526 104.759 47.4154 104.672H47.4149Z" fill="#192F0B" stroke="#192F0B" stroke-width="0.24" stroke-miterlimit="10.42"/>
<path d="M58.6635 104.672C59.1507 104.484 59.6758 104.684 60.126 104.884C60.8886 105.272 61.2011 106.184 61.226 106.996C61.1387 107.634 61.0883 108.359 60.5886 108.846C59.9887 109.433 58.9889 109.709 58.2263 109.258C57.814 108.933 57.3264 108.559 57.2765 107.984C57.2266 107.371 57.2266 106.734 57.264 106.121C57.3264 105.371 57.9767 104.847 58.664 104.671L58.6635 104.672Z" fill="#1F2F00" stroke="#1F2F00" stroke-width="0.24" stroke-miterlimit="10.42"/>
<path d="M46.2149 105.997C46.5273 105.422 47.0649 104.897 47.7522 104.897C48.2523 104.847 48.7519 105.021 49.0893 105.409C50.1644 106.409 49.8894 108.509 48.5019 109.071C47.5895 109.459 46.5518 108.883 46.1895 108.009C46.2144 107.334 46.1645 106.659 46.2144 105.996L46.2149 105.997ZM58.6764 104.934C59.2015 104.834 59.8139 104.884 60.2137 105.296C60.7762 105.709 61.0263 106.434 60.9764 107.121C61.0387 108.184 60.1014 109.283 59.0013 109.183C58.3011 109.146 57.7266 108.621 57.4516 107.996C57.4391 107.334 57.4141 106.671 57.464 106.009C57.7266 105.533 58.1389 105.096 58.6764 104.933V104.934Z" fill="#99CD63" stroke="#99CD63" stroke-width="0.24" stroke-miterlimit="10.42"/>
<path d="M95.1475 104.997C95.2099 104.972 95.3477 104.897 95.4101 104.872C95.4475 105.135 95.2598 105.347 95.1475 105.572C95.2099 105.622 95.3227 105.71 95.3726 105.759C95.1975 105.759 95.0227 105.772 94.8351 105.784C94.8101 105.509 94.9728 105.284 95.0727 105.034L95.1475 104.997Z" fill="#A4C872" stroke="#A4C872" stroke-width="0.24" stroke-miterlimit="10.42"/>
<path d="M100.385 105.034C100.585 105.009 100.622 105.372 100.485 105.484C100.372 105.359 100.36 105.184 100.385 105.034Z" fill="#D0F4A6" stroke="#D0F4A6" stroke-width="0.24" stroke-miterlimit="10.42"/>
<path d="M47.6644 105.159C47.9893 105.122 48.3392 105.209 48.6392 105.372C48.9641 105.534 49.1019 105.909 49.3764 106.134C49.4887 106.659 49.6015 107.234 49.3889 107.746C49.1887 108.159 48.9766 108.621 48.5014 108.771C47.6764 109.246 46.6517 108.571 46.3517 107.758C46.3268 107.258 46.3268 106.746 46.3393 106.246C46.6267 105.747 47.0765 105.296 47.6639 105.159H47.6644Z" fill="#86D434" stroke="#86D434" stroke-width="0.24" stroke-miterlimit="10.42"/>
<path d="M58.7886 105.172C59.2638 105.06 59.8008 105.297 60.1761 105.584C60.551 106.084 60.9263 106.722 60.7511 107.372C60.6508 107.734 60.4512 108.059 60.276 108.396C59.9011 108.734 59.3885 108.959 58.8764 108.921C58.3014 108.771 57.7639 108.346 57.6142 107.746C57.6017 107.246 57.6017 106.747 57.6266 106.247C57.8388 105.934 57.9765 105.496 58.3638 105.359C58.5011 105.284 58.6389 105.222 58.7886 105.172V105.172Z" fill="#87D335" stroke="#87D335" stroke-width="0.24" stroke-miterlimit="10.42"/>
<path d="M104.747 105.534C104.796 105.534 104.921 105.522 104.984 105.509C105.234 105.585 105.472 105.697 105.721 105.809C105.946 105.909 106.209 105.872 106.446 105.897L106.346 106.009C105.784 106.022 105.146 105.972 104.747 105.534Z" fill="#E7FBCF" stroke="#E7FBCF" stroke-width="0.24" stroke-miterlimit="10.42"/>
<path d="M65.9632 107.284C65.8135 106.784 65.3133 106.222 65.6258 105.697C66.4633 107.634 67.4755 109.509 68.1628 111.509C67.9752 112.009 67.7126 112.547 67.238 112.834C66.7254 112.997 66.1629 112.696 65.6383 112.846C65.1382 113.234 64.8881 113.884 64.8382 114.497C64.7883 115.022 65.3009 115.359 65.7631 115.434C66.4379 115.521 67.1127 115.496 67.7755 115.384C67.8379 115.372 67.9632 115.334 68.0256 115.322C68.7882 115.121 69.4505 114.659 69.9502 114.034C70.1004 114.334 69.9003 114.622 69.6502 114.759C69.1002 115.096 68.5751 115.609 67.8878 115.584C67.213 115.559 66.5382 115.609 65.8754 115.709C65.4756 115.584 64.938 115.584 64.688 115.196C64.5632 114.446 64.6505 113.622 65.1002 112.972C65.2749 112.722 65.5874 112.609 65.8754 112.535C65.9378 112.559 66.0755 112.597 66.1379 112.622C66.4504 112.535 66.7878 112.535 67.1127 112.522C67.4875 112.397 67.6502 111.997 67.9253 111.759C67.8878 111.447 67.7625 111.172 67.6128 110.909C67.3627 110.472 67.4127 109.922 67.1002 109.522C66.8876 109.272 66.925 108.897 66.7124 108.647C66.3251 108.26 66.4 107.635 65.9622 107.284H65.9632Z" fill="#99CD63" stroke="#99CD63" stroke-width="0.24" stroke-miterlimit="10.42"/>
<path d="M33.6283 107.009C34.8531 106.022 36.5282 105.859 38.0525 105.947C37.8648 106.134 37.6152 106.097 37.3777 106.109C36.8651 106.109 36.3904 106.321 35.8778 106.359C35.3777 106.409 34.9155 106.647 34.4528 106.809C33.7156 107.009 33.2405 107.697 32.9655 108.359C32.8407 109.034 32.8407 109.796 33.228 110.396C33.9906 111.534 35.6402 112.046 36.8651 111.359C37.2025 111.234 37.5524 110.959 37.9402 111.121C37.19 111.533 36.3779 111.909 35.5154 111.896C34.8531 111.834 34.1404 111.696 33.6283 111.234C32.3281 110.259 32.3156 107.997 33.6283 107.009Z" fill="#173100" stroke="#173100" stroke-width="0.24" stroke-miterlimit="10.42"/>
<path d="M106.609 106.009L106.734 106.022C107.133 106.059 107.509 106.297 107.796 106.572C107.534 106.609 107.234 106.672 106.997 106.509C106.846 106.359 106.734 106.184 106.609 106.009Z" fill="#EAFFD0" stroke="#EAFFD0" stroke-width="0.24" stroke-miterlimit="10.42"/>
<path d="M102.247 106.809C102.322 106.797 102.485 106.797 102.56 106.784C102.647 106.959 102.722 107.122 102.835 107.284C103.085 107.534 103.472 107.522 103.81 107.547C103.81 107.597 103.797 107.684 103.797 107.722C103.91 107.834 104.022 107.947 104.147 108.059C103.335 107.984 102.647 107.496 102.135 106.884L102.248 106.809H102.247Z" fill="#DEF8C2" stroke="#DEF8C2" stroke-width="0.24" stroke-miterlimit="10.42"/>
<path d="M107.884 106.847C108.047 106.922 108.222 107.009 108.372 107.097C108.984 107.797 109.097 108.946 108.697 109.784C108.622 109.271 108.684 108.759 108.634 108.247C108.497 107.722 108.035 107.372 107.884 106.847Z" fill="#E2FAC5" stroke="#E2FAC5" stroke-width="0.24" stroke-miterlimit="10.42"/>
<path d="M35.9039 108.046C36.5663 107.484 37.5036 107.384 38.3286 107.534C38.4664 107.884 38.5537 108.284 38.3536 108.621C37.9034 109.021 37.4662 109.484 36.8787 109.684C36.5163 109.721 36.154 109.746 35.7911 109.709C35.304 109.272 35.4787 108.459 35.9039 108.047V108.046Z" fill="#222E07" stroke="#222E07" stroke-width="0.24" stroke-miterlimit="10.42"/>
<path d="M36.0035 108.359C36.3159 108.059 36.7033 107.796 37.141 107.734C37.4909 107.709 37.8412 107.721 38.2036 107.697C38.2036 107.984 38.1662 108.259 38.0034 108.509C37.9535 108.297 37.8911 108.097 37.8283 107.897C37.4285 107.947 37.0287 108.034 36.6409 108.184C36.8036 108.272 36.9658 108.372 37.1285 108.472C36.8655 108.608 36.5986 108.738 36.3284 108.859C36.3534 108.959 36.3783 109.147 36.4038 109.234C36.9284 109.309 37.3286 108.947 37.6536 108.584C37.7035 108.622 37.7908 108.709 37.8412 108.747C37.4285 109.285 36.7162 109.572 36.0414 109.447C35.7414 109.172 35.7165 108.659 36.004 108.359L36.0035 108.359Z" fill="#91CA56" stroke="#91CA56" stroke-width="0.24" stroke-miterlimit="10.42"/>
<path d="M36.6411 108.184C37.0289 108.034 37.4287 107.947 37.8285 107.897C37.8909 108.097 37.9533 108.296 38.0036 108.509C37.9537 108.584 37.9038 108.672 37.8409 108.747C37.791 108.709 37.7032 108.622 37.6533 108.584C37.3283 108.946 36.9281 109.309 36.4035 109.234C36.3785 109.146 36.3536 108.959 36.3281 108.859C36.6031 108.734 36.8657 108.609 37.1282 108.471C36.966 108.371 36.8033 108.272 36.6411 108.184Z" fill="#89D236" stroke="#89D236" stroke-width="0.24" stroke-miterlimit="10.42"/>
<path d="M94.7979 107.959C95.2226 108.497 95.6479 109.171 96.3731 109.296C97.1607 109.396 97.9353 109.109 98.6101 108.746C99.3977 108.421 100.348 109.034 100.422 109.871C100.435 110.096 100.435 110.321 100.435 110.546C100.348 110.621 100.26 110.709 100.16 110.784C100.197 110.296 100.335 109.759 100.048 109.309C99.5724 108.884 98.8477 108.946 98.2977 109.184C97.5475 109.496 96.6476 109.709 95.8729 109.359C95.4477 108.959 94.7604 108.647 94.7979 107.96V107.959Z" fill="#E9FFBF" stroke="#E9FFBF" stroke-width="0.24" stroke-miterlimit="10.42"/>
<path d="M100.422 109.871C100.847 109.946 100.685 110.409 100.71 110.709C100.51 110.883 100.335 111.084 100.172 111.296C99.9721 111.321 99.735 111.309 99.5973 111.471C99.3348 111.708 98.9849 111.771 98.6974 111.971C98.61 112.046 98.4972 112.071 98.3725 112.083C97.4601 112.146 96.5352 112.208 95.6103 112.046C94.8981 112.058 94.2482 111.721 93.6478 111.346C93.498 111.283 93.4476 111.121 93.3853 110.996C93.7102 111.071 93.9852 111.296 94.2852 111.433C95.1352 111.683 95.9727 112.02 96.8726 111.971C98.085 112.058 99.21 111.47 100.16 110.783C100.26 110.708 100.347 110.62 100.435 110.546C100.435 110.321 100.435 110.096 100.422 109.871V109.871Z" fill="#97C85E" stroke="#97C85E" stroke-width="0.24" stroke-miterlimit="10.42"/>
<path d="M101.572 110.684C101.572 110.396 101.435 109.996 101.709 109.784C101.785 110.221 101.809 110.684 102.047 111.071C102.771 110.896 103.246 111.721 103.959 111.546C104.009 111.646 104.046 111.734 104.084 111.834L103.984 111.871C103.571 111.821 103.134 111.796 102.759 111.584C102.334 111.334 101.734 111.234 101.571 110.684H101.572Z" fill="#E6FFCA" stroke="#E6FFCA" stroke-width="0.24" stroke-miterlimit="10.42"/>
<path d="M46.2396 111.346C46.3149 111.384 46.4522 111.446 46.5271 111.471C46.4517 111.609 46.3519 111.684 46.2021 111.696C46.2021 111.609 46.2271 111.433 46.2396 111.346Z" fill="#97B97A" stroke="#97B97A" stroke-width="0.24" stroke-miterlimit="10.42"/>
<path d="M81.1252 25.61C84.7843 22.487 89.8104 21.5645 94.5101 21.684C97.0683 21.7728 99.5664 22.1001 102.065 22.606C102.571 26.532 101.232 30.4878 99.061 33.7001C97.1868 36.4964 94.5994 38.8462 91.5354 40.1843C90.9109 40.4819 90.1968 40.5712 89.6319 40.9873C98.0195 47.531 102.332 58.8334 100.607 69.3334C99.6552 75.758 96.5619 81.8554 91.892 86.3765C90.1373 87.8634 87.1332 88.8449 85.2595 87.0307C80.9466 90.1835 75.4439 91.4919 70.1496 91.3133C64.9142 91.4621 59.5604 90.1235 55.3075 87.0307C54.5938 87.6844 53.642 88.2205 52.6605 87.9527C50.7273 87.4771 49.0018 86.4058 47.5145 85.1565C40.9117 77.9884 38.175 67.5182 40.3761 58.0305C42.1313 49.8808 47.4252 42.5932 54.5938 38.3696C59.8882 35.1573 66.164 33.6997 72.3209 34.0865C73.3024 31.4986 74.0458 28.8219 75.3547 26.4125C75.7708 25.7286 76.3957 24.9554 77.2879 25.0442C78.0909 25.1335 78.3885 26.1745 78.0611 26.8286C77.1089 29.238 76.1874 31.6474 75.2352 34.0563C75.0269 34.6217 75.8601 34.4431 76.1576 34.5621C76.7821 31.142 78.388 27.8404 81.1242 25.6096M85.3478 25.6393C82.1062 27.156 79.6373 30.1307 78.8041 33.6104C78.7148 33.9675 78.4177 34.4431 78.8339 34.7407C80.0827 35.99 81.1832 37.4774 82.8194 38.2506C85.0205 39.3511 87.6976 39.1131 89.9577 38.3096C93.4677 36.971 96.1741 34.0865 97.9591 30.8737C98.9108 28.8809 99.8626 26.7394 99.7435 24.5086C94.955 23.8539 89.8392 23.527 85.3473 25.6388M67.4119 36.4954C64.9133 36.793 62.4746 37.3281 60.1248 38.2506C53.1947 40.9273 47.4242 46.4002 44.4202 53.1815C41.5942 59.4276 41.1781 66.7147 43.2899 73.2292C44.4202 76.62 46.0261 79.9212 48.4355 82.5691C48.6438 82.9554 48.8516 83.4613 49.298 83.6398C49.2087 84.0857 49.8038 84.7696 50.2497 84.6809L50.339 84.9784C51.2907 85.5731 52.5698 86.317 53.6406 85.5433C54.5031 84.6809 54.1465 83.3125 53.5216 82.4496C52.6889 81.0817 51.0824 80.5163 50.1902 79.2075C49.298 78.0177 48.8219 76.5605 48.6438 75.1029C48.5248 72.8423 49.6253 70.7603 51.0824 69.0943C52.0049 68.6485 52.7484 67.9045 53.7894 67.6967C56.1983 67.2508 58.6374 67.9645 60.8682 68.8568C65.5679 70.1656 70.535 70.3739 75.383 69.749C77.3162 69.4519 79.25 69.1246 81.0642 68.3514C82.8784 67.6972 84.8712 67.3699 86.8045 67.6972C88.2918 68.084 89.4514 69.1543 90.4631 70.2256C92.2183 72.7238 92.4559 76.2932 90.6412 78.8513C89.6002 80.5763 87.3694 81.2602 86.6557 83.2232C86.1498 84.2047 86.4474 85.5731 87.6074 85.9004C89.2133 85.9302 90.6412 84.8594 91.4744 83.5506C93.2286 81.2602 95.1921 78.9406 96.0546 76.1444C96.3819 75.8766 96.5005 75.4307 96.6493 75.0439C98.8801 69.4519 99.2372 63.1463 97.661 57.3763C96.1736 51.6951 92.7828 46.5495 88.2616 42.802C87.3694 42.1771 86.5664 41.1068 85.3468 41.2258C82.9677 41.2258 80.8559 39.9765 79.1305 38.4891C78.208 37.0022 75.9181 36.6154 74.52 37.6267C73.0029 37.954 73.1224 39.8872 72.319 40.8985C73.479 41.2849 74.6093 40.6009 75.5611 39.9765C76.3343 39.2926 77.167 40.72 76.6318 41.3151C75.6503 42.5342 74.0439 42.9508 72.557 42.9805C70.3262 43.04 67.8573 42.0288 66.9651 39.8575C66.6085 39.1735 67.2924 38.4301 68.0061 38.4891C68.7203 39.2326 69.2554 40.4224 70.4155 40.5117C70.6833 39.5301 71.0101 38.5189 71.3077 37.5076C71.4267 37.1208 71.5458 36.7642 71.6643 36.3773C71.1292 35.6934 70.0286 36.0798 69.2554 36.0207C68.6608 36.1695 67.7383 35.8422 67.4114 36.4964M53.0455 70.3744C51.7664 71.3559 51.1122 72.9921 51.0229 74.5385C50.8741 76.5015 52.123 78.2567 53.6699 79.2977C54.8002 80.3977 55.8114 81.6768 56.3173 83.1647C56.5256 83.7593 56.3471 84.4438 56.6446 85.0082C57.2695 85.5438 58.013 85.9307 58.7564 86.377C61.3141 87.7751 64.1996 88.5776 67.1143 88.9049L67.3226 89.143C68.81 89.4996 70.416 89.2913 71.9326 89.3215C72.4385 89.2323 73.1522 89.381 73.4795 88.9054C76.3943 88.5488 79.3095 87.7751 81.8672 86.3473C82.6404 85.9014 83.4736 85.5145 84.098 84.8604C83.9195 82.6593 85.4068 80.7855 86.8942 79.3279C88.2328 78.3762 89.3928 77.0078 89.5416 75.3126C89.7495 73.7662 89.125 72.1603 88.203 70.97C86.9835 69.5129 84.9014 69.4529 83.176 69.8397C79.6066 70.8807 76.0079 72.1896 72.2307 72.2491C70.1486 72.2784 68.0363 72.3676 65.9845 72.0408C62.9507 71.6539 60.0653 70.5534 57.1207 69.75C55.7524 69.5719 54.1762 69.4826 53.0459 70.3749L53.0455 70.3744Z" fill="#2A262A"/>
<path d="M81.1252 25.61C84.7843 22.487 89.8104 21.5645 94.5101 21.684C97.0683 21.7728 99.5664 22.1001 102.065 22.606C102.571 26.532 101.232 30.4878 99.061 33.7001C97.1868 36.4964 94.5994 38.8462 91.5354 40.1843C90.9109 40.4819 90.1968 40.5712 89.6319 40.9873C98.0195 47.531 102.332 58.8334 100.607 69.3334C99.6552 75.758 96.5619 81.8554 91.892 86.3765C90.1373 87.8634 87.1332 88.8449 85.2595 87.0307C80.9466 90.1835 75.4439 91.4919 70.1496 91.3133C64.9142 91.4621 59.5604 90.1235 55.3075 87.0307C54.5938 87.6844 53.642 88.2205 52.6605 87.9527C50.7273 87.4771 49.0018 86.4058 47.5145 85.1565C40.9117 77.9884 38.175 67.5182 40.3761 58.0305C42.1313 49.8808 47.4252 42.5932 54.5938 38.3696C59.8882 35.1573 66.164 33.6997 72.3209 34.0865C73.3024 31.4986 74.0458 28.8219 75.3547 26.4125C75.7708 25.7286 76.3957 24.9554 77.2879 25.0442C78.0909 25.1335 78.3885 26.1745 78.0611 26.8286C77.1089 29.238 76.1874 31.6474 75.2352 34.0563C75.0269 34.6217 75.8601 34.4431 76.1576 34.5621C76.7821 31.142 78.388 27.8404 81.1242 25.6096M85.3478 25.6393C82.1062 27.156 79.6373 30.1307 78.8041 33.6104C78.7148 33.9675 78.4177 34.4431 78.8339 34.7407C80.0827 35.99 81.1832 37.4774 82.8194 38.2506C85.0205 39.3511 87.6976 39.1131 89.9577 38.3096C93.4677 36.971 96.1741 34.0865 97.9591 30.8737C98.9108 28.8809 99.8626 26.7394 99.7435 24.5086C94.955 23.8539 89.8392 23.527 85.3473 25.6388M67.4119 36.4954C64.9133 36.793 62.4746 37.3281 60.1248 38.2506C53.1947 40.9273 47.4242 46.4002 44.4202 53.1815C41.5942 59.4276 41.1781 66.7147 43.2899 73.2292C44.4202 76.62 46.0261 79.9212 48.4355 82.5691C48.6438 82.9554 48.8516 83.4613 49.298 83.6398C49.2087 84.0857 49.8038 84.7696 50.2497 84.6809L50.339 84.9784C51.2907 85.5731 52.5698 86.317 53.6406 85.5433C54.5031 84.6809 54.1465 83.3125 53.5216 82.4496C52.6889 81.0817 51.0824 80.5163 50.1902 79.2075C49.298 78.0177 48.8219 76.5605 48.6438 75.1029C48.5248 72.8423 49.6253 70.7603 51.0824 69.0943C52.0049 68.6485 52.7484 67.9045 53.7894 67.6967C56.1983 67.2508 58.6374 67.9645 60.8682 68.8568C65.5679 70.1656 70.535 70.3739 75.383 69.749C77.3162 69.4519 79.25 69.1246 81.0642 68.3514C82.8784 67.6972 84.8712 67.3699 86.8045 67.6972C88.2918 68.084 89.4514 69.1543 90.4631 70.2256C92.2183 72.7238 92.4559 76.2932 90.6412 78.8513C89.6002 80.5763 87.3694 81.2602 86.6557 83.2232C86.1498 84.2047 86.4474 85.5731 87.6074 85.9004C89.2133 85.9302 90.6412 84.8594 91.4744 83.5506C93.2286 81.2602 95.1921 78.9406 96.0546 76.1444C96.3819 75.8766 96.5005 75.4307 96.6493 75.0439C98.8801 69.4519 99.2372 63.1463 97.661 57.3763C96.1736 51.6951 92.7828 46.5495 88.2616 42.802C87.3694 42.1771 86.5664 41.1068 85.3468 41.2258C82.9677 41.2258 80.8559 39.9765 79.1305 38.4891C78.208 37.0022 75.9181 36.6154 74.52 37.6267C73.0029 37.954 73.1224 39.8872 72.319 40.8985C73.479 41.2849 74.6093 40.6009 75.5611 39.9765C76.3343 39.2926 77.167 40.72 76.6318 41.3151C75.6503 42.5342 74.0439 42.9508 72.557 42.9805C70.3262 43.04 67.8573 42.0288 66.9651 39.8575C66.6085 39.1735 67.2924 38.4301 68.0061 38.4891C68.7203 39.2326 69.2554 40.4224 70.4155 40.5117C70.6833 39.5301 71.0101 38.5189 71.3077 37.5076C71.4267 37.1208 71.5458 36.7642 71.6643 36.3773C71.1292 35.6934 70.0286 36.0798 69.2554 36.0207C68.6608 36.1695 67.7383 35.8422 67.4114 36.4964M53.0455 70.3744C51.7664 71.3559 51.1122 72.9921 51.0229 74.5385C50.8741 76.5015 52.123 78.2567 53.6699 79.2977C54.8002 80.3977 55.8114 81.6768 56.3173 83.1647C56.5256 83.7593 56.3471 84.4438 56.6446 85.0082C57.2695 85.5438 58.013 85.9307 58.7564 86.377C61.3141 87.7751 64.1996 88.5776 67.1143 88.9049L67.3226 89.143C68.81 89.4996 70.416 89.2913 71.9326 89.3215C72.4385 89.2323 73.1522 89.381 73.4795 88.9054C76.3943 88.5488 79.3095 87.7751 81.8672 86.3473C82.6404 85.9014 83.4736 85.5145 84.098 84.8604C83.9195 82.6593 85.4068 80.7855 86.8942 79.3279C88.2328 78.3762 89.3928 77.0078 89.5416 75.3126C89.7495 73.7662 89.125 72.1603 88.203 70.97C86.9835 69.5129 84.9014 69.4529 83.176 69.8397C79.6066 70.8807 76.0079 72.1896 72.2307 72.2491C70.1486 72.2784 68.0363 72.3676 65.9845 72.0408C62.9507 71.6539 60.0653 70.5534 57.1207 69.75C55.7524 69.5719 54.1762 69.4826 53.0459 70.3749L53.0455 70.3744Z" stroke="#2A262A" stroke-width="0.24" stroke-miterlimit="10.42"/>
<path d="M85.3494 25.6398C89.8408 23.528 94.9566 23.8553 99.7456 24.5095C99.508 25.6398 99.2695 26.7701 98.8236 27.8408C94.4517 27.1267 89.7515 27.1267 85.6177 28.8819C83.0595 29.9819 80.9775 31.9752 79.6984 34.4143L78.8057 33.6108C79.6384 30.1307 82.1073 27.1564 85.3494 25.6398Z" fill="#D7DF27" stroke="#D7DF27" stroke-width="0.24" stroke-miterlimit="10.42"/>
<path d="M99.7451 24.5095C99.8641 26.7403 98.9124 28.8819 97.9606 30.8747C96.1761 34.087 93.4692 36.972 89.9593 38.3106C87.6992 39.1136 85.022 39.3516 82.8209 38.2516C81.1848 37.4784 80.0842 35.991 78.8354 34.7417C78.4188 34.4441 78.7164 33.9685 78.8056 33.6114L79.6984 34.4148C80.8282 35.7236 82.1375 37.0915 83.8922 37.5081C87.3426 38.4301 91.0603 37.2105 93.7375 34.95C95.9683 33.0465 97.7528 30.5776 98.8236 27.8414C99.2695 26.7706 99.5075 25.6403 99.7456 24.51L99.7451 24.5095Z" fill="#3EB44A" stroke="#3EB44A" stroke-width="0.24" stroke-miterlimit="10.42"/>
<path d="M85.617 28.8819C89.7513 27.1267 94.4511 27.1267 98.823 27.8409C97.7522 30.5771 95.9677 33.046 93.7369 34.9495C91.0597 37.2101 87.342 38.4296 83.8916 37.5076C82.1364 37.091 80.8276 35.7232 79.6978 34.4143C80.9768 31.9752 83.0584 29.9825 85.617 28.8824V28.8819Z" fill="#7BC044" stroke="#7BC044" stroke-width="0.24" stroke-miterlimit="10.42"/>
<path d="M67.4141 36.4959C67.7409 35.8413 68.6634 36.1686 69.258 36.0203C70.0313 36.0793 71.1318 35.6929 71.6669 36.3769C70.2693 36.3471 68.8414 36.3471 67.4141 36.4959Z" fill="#0A1628" stroke="#0A1628" stroke-width="0.24" stroke-miterlimit="10.42"/>
<path d="M60.1272 38.2511C62.477 37.3291 64.9157 36.7935 67.4143 36.4959C68.8417 36.3471 70.2696 36.3471 71.6677 36.3769C71.5486 36.7637 71.4301 37.1203 71.3111 37.5072C65.3923 37.5369 59.5325 39.4702 54.7738 42.9503C49.5389 46.8173 45.5827 52.4683 44.0362 58.8334C42.162 65.764 43.203 73.438 46.7725 79.6836C47.2486 80.6651 48.0515 81.4978 48.4384 82.5691C46.029 79.9217 44.4231 76.6201 43.2928 73.2292C41.181 66.7152 41.5971 59.4281 44.4231 53.1815C47.4271 46.4002 53.1976 40.9273 60.1277 38.2506L60.1272 38.2511Z" fill="#FAAF41" stroke="#FAAF41" stroke-width="0.24" stroke-miterlimit="10.42"/>
<path d="M74.5225 37.6262C75.9206 36.6149 78.2104 37.0018 79.1329 38.4887C78.0026 38.2804 76.9021 38.0721 75.7718 37.8638C75.3557 37.7745 74.9391 37.715 74.5225 37.6257V37.6262Z" fill="#CF933A" stroke="#CF933A" stroke-width="0.24" stroke-miterlimit="10.42"/>
<path d="M54.7727 42.9503C59.5319 39.4702 65.3912 37.5369 71.31 37.5071C71.0124 38.5184 70.6851 39.5297 70.4177 40.5112C69.2582 40.4219 68.7225 39.2321 68.0084 38.4886C67.2942 38.4291 66.6103 39.1726 66.9673 39.857C67.8596 42.0283 70.3285 43.0396 72.5593 42.9801C74.0462 42.9503 75.6526 42.5337 76.6341 41.3146C77.1692 40.7195 76.3365 39.2921 75.5633 39.976C74.6116 40.6004 73.4813 41.2844 72.3212 40.898C73.1242 39.8868 73.0052 37.9535 74.5223 37.6262C74.9389 37.7154 75.355 37.775 75.7716 37.8642C76.7531 39.8872 78.5678 41.5229 80.7387 42.0878C83.1778 42.742 85.7355 43.0396 88.2634 42.8015C92.7845 46.549 96.1754 51.6946 97.6628 57.3758C99.239 63.1458 98.8824 69.4514 96.6511 75.0434C96.5023 75.4302 96.3837 75.8761 96.0564 76.1439C94.8666 77.304 94.0636 78.7616 92.9928 80.0109C92.547 80.5461 91.8923 80.8139 91.2084 80.9334C92.6953 78.9699 93.4685 76.4122 92.8148 73.9731C93.1416 73.8838 93.3499 73.6755 93.4685 73.3487C94.4505 71.2666 94.3909 68.7382 93.3197 66.7157C92.4572 65.0503 90.9103 63.7414 89.1259 63.1463C86.6272 62.6706 84.1291 63.4736 81.7787 64.3361C76.3951 65.764 70.6548 65.9718 65.1819 64.7824C62.7135 64.3956 60.4827 62.998 57.9543 63.0273C54.4741 62.6702 51.4701 65.7937 51.0833 69.0948C49.6261 70.7608 48.5256 72.8428 48.6446 75.1034C45.7596 70.7012 44.242 65.4069 44.2722 60.1422C44.2722 59.6959 44.1532 59.25 44.0342 58.8334C45.5806 52.4687 49.5369 46.8173 54.7717 42.9503M60.75 40.66C58.906 41.2253 57.2401 42.623 56.6157 44.4972C56.4669 45.0026 56.1991 45.7763 56.824 46.1031C57.6865 46.3412 58.6085 46.1031 59.4412 45.8055C60.9578 45.2406 62.4155 44.2889 63.3082 42.8908C63.6945 42.2961 63.9326 41.3439 63.2487 40.8683C62.5345 40.3326 61.553 40.5112 60.75 40.66ZM53.5521 46.8763C52.7789 47.0841 52.3028 47.7686 51.7677 48.3037C50.132 49.9691 48.5851 51.7541 47.4548 53.8064C47.0977 54.5201 46.8299 55.7694 47.8709 56.067C49.3286 56.3943 50.6374 55.383 51.6779 54.461C53.1058 53.0927 54.3546 51.4868 55.1581 49.6423C55.783 48.512 54.8907 46.8461 53.5521 46.8763Z" fill="#F05A2A"/>
<path d="M54.7727 42.9503C59.5319 39.4702 65.3912 37.5369 71.31 37.5071C71.0124 38.5184 70.6851 39.5297 70.4177 40.5112C69.2582 40.4219 68.7225 39.2321 68.0084 38.4886C67.2942 38.4291 66.6103 39.1726 66.9673 39.857C67.8596 42.0283 70.3285 43.0396 72.5593 42.9801C74.0462 42.9503 75.6526 42.5337 76.6341 41.3146C77.1692 40.7195 76.3365 39.2921 75.5633 39.976C74.6116 40.6004 73.4813 41.2844 72.3212 40.898C73.1242 39.8868 73.0052 37.9535 74.5223 37.6262C74.9389 37.7154 75.355 37.775 75.7716 37.8642C76.7531 39.8872 78.5678 41.5229 80.7387 42.0878C83.1778 42.742 85.7355 43.0396 88.2634 42.8015C92.7845 46.549 96.1754 51.6946 97.6628 57.3758C99.239 63.1458 98.8824 69.4514 96.6511 75.0434C96.5023 75.4302 96.3837 75.8761 96.0564 76.1439C94.8666 77.304 94.0636 78.7616 92.9928 80.0109C92.547 80.5461 91.8923 80.8139 91.2084 80.9334C92.6953 78.9699 93.4685 76.4122 92.8148 73.9731C93.1416 73.8838 93.3499 73.6755 93.4685 73.3487C94.4505 71.2666 94.3909 68.7382 93.3197 66.7157C92.4572 65.0503 90.9103 63.7414 89.1259 63.1463C86.6272 62.6706 84.1291 63.4736 81.7787 64.3361C76.3951 65.764 70.6548 65.9718 65.1819 64.7824C62.7135 64.3956 60.4827 62.998 57.9543 63.0273C54.4741 62.6702 51.4701 65.7937 51.0833 69.0948C49.6261 70.7608 48.5256 72.8428 48.6446 75.1034C45.7596 70.7012 44.242 65.4069 44.2722 60.1422C44.2722 59.6959 44.1532 59.25 44.0342 58.8334C45.5806 52.4687 49.5369 46.8173 54.7717 42.9503M60.75 40.66C58.906 41.2253 57.2401 42.623 56.6157 44.4972C56.4669 45.0026 56.1991 45.7763 56.824 46.1031C57.6865 46.3412 58.6085 46.1031 59.4412 45.8055C60.9578 45.2406 62.4155 44.2889 63.3082 42.8908C63.6945 42.2961 63.9326 41.3439 63.2487 40.8683C62.5345 40.3326 61.553 40.5112 60.75 40.66ZM53.5521 46.8763C52.7789 47.0841 52.3028 47.7686 51.7677 48.3037C50.132 49.9691 48.5851 51.7541 47.4548 53.8064C47.0977 54.5201 46.8299 55.7694 47.8709 56.067C49.3286 56.3943 50.6374 55.383 51.6779 54.461C53.1058 53.0927 54.3546 51.4868 55.1581 49.6423C55.783 48.512 54.8907 46.8461 53.5521 46.8763Z" stroke="#F05A2A" stroke-width="0.24" stroke-miterlimit="10.42"/>
<path d="M75.772 37.8643C76.9023 38.0726 78.0028 38.2809 79.1331 38.4892C80.8585 39.9765 82.9703 41.2259 85.3495 41.2259C86.569 41.1068 87.3725 42.1776 88.2642 42.802C85.7363 43.0401 83.1781 42.7425 80.7395 42.0883C78.5682 41.5229 76.754 39.8873 75.7725 37.8643H75.772Z" fill="#C74E28" stroke="#C74E28" stroke-width="0.24" stroke-miterlimit="10.42"/>
<path d="M60.7516 40.6604C61.5546 40.5117 62.5361 40.3331 63.2502 40.8687C63.9342 41.3444 63.6961 42.2961 63.3098 42.8913C62.4175 44.2894 60.9599 45.2411 59.4428 45.806C58.61 46.1036 57.6876 46.3412 56.8256 46.1036C56.2007 45.7767 56.4685 45.0031 56.6173 44.4977C57.2417 42.6235 58.9076 41.2258 60.7516 40.6604ZM53.5537 46.8768C54.8923 46.847 55.7846 48.513 55.1597 49.6428C54.3567 51.4868 53.1074 53.0932 51.6795 54.4615C50.6385 55.3835 49.3297 56.3948 47.8725 56.0674C46.8315 55.7699 47.0993 54.5205 47.4564 53.8069C48.5867 51.7546 50.1336 49.9696 51.7693 48.3042C52.3044 47.769 52.7805 47.0846 53.5537 46.8768Z" fill="#FAAF41" stroke="#FAAF41" stroke-width="0.24" stroke-miterlimit="10.42"/>
<path d="M44.0352 58.8334C44.1542 59.25 44.2732 59.6959 44.2732 60.1423C44.2435 65.4069 45.7601 70.7013 48.6456 75.1034C48.8241 76.561 49.2998 78.0181 50.192 79.208C51.0842 80.5168 52.6906 81.0822 53.5234 82.45C54.1483 83.3125 54.5049 84.6809 53.6424 85.5438C52.5711 86.317 51.2925 85.5736 50.3408 84.9789L50.2515 84.6814C50.2218 84.1457 49.8652 83.7296 49.2998 83.6403C48.8534 83.4618 48.6456 82.9559 48.4373 82.5696C48.0504 81.4983 47.2475 80.6661 46.7714 79.6841C43.202 73.438 42.1609 65.764 44.0352 58.8334Z" fill="#EE4032" stroke="#EE4032" stroke-width="0.24" stroke-miterlimit="10.42"/>
<path d="M51.0845 69.0948C51.4713 65.7937 54.4753 62.6702 57.9555 63.0273C60.4839 62.9975 62.7147 64.3956 65.1831 64.7825C70.656 65.9723 76.3963 65.764 81.7799 64.3361C84.1298 63.4736 86.6279 62.6707 89.1271 63.1463C90.9115 63.7414 92.4584 65.0498 93.3209 66.7157C94.3917 68.7387 94.4512 71.2666 93.4697 73.3487C93.3507 73.676 93.1424 73.8838 92.816 73.9731C92.3994 72.5452 91.6262 71.1471 90.4661 70.2251C89.4544 69.1544 88.2948 68.0836 86.8074 67.6967C84.8742 67.3694 82.8814 67.6967 81.0672 68.3509C79.2525 69.1241 77.3192 69.4515 75.386 69.7485C70.538 70.3734 65.5704 70.1651 60.8712 68.8563C58.6404 67.9641 56.2013 67.2504 53.7924 67.6963C52.7514 67.9046 52.0079 68.648 51.0854 69.0939L51.0845 69.0948Z" fill="#EC1C24" stroke="#EC1C24" stroke-width="0.24" stroke-miterlimit="10.42"/>
<path d="M53.0479 70.3744C54.1782 69.4822 55.7544 69.5714 57.1227 69.7495C60.0672 70.5525 62.9522 71.6535 65.9865 72.0403C68.0388 72.3672 70.1506 72.2779 72.2326 72.2486C76.0104 72.1891 79.6091 70.8803 83.178 69.8393C84.9034 69.4529 86.9855 69.5119 88.205 70.9695C89.127 72.1593 89.7514 73.7653 89.5436 75.3122C89.3056 73.617 88.4728 71.8023 86.8069 71.0886C85.6469 70.6427 84.3083 70.7017 83.0892 70.9993C80.293 71.8023 77.527 72.8433 74.6415 73.2004C72.8571 73.5272 71.0428 73.4082 69.2584 73.4379C65.2723 73.5272 61.4653 72.1886 57.7179 71.0583C56.1115 70.612 54.1782 70.5525 52.8396 71.6828C51.9176 72.3969 51.6205 73.5867 51.0254 74.5385C51.1147 72.9921 51.7688 71.3564 53.0479 70.3744Z" fill="#EC9D6E" stroke="#EC9D6E" stroke-width="0.24" stroke-miterlimit="10.42"/>
<path d="M90.4654 70.2256C91.6255 71.1476 92.3987 72.5457 92.8153 73.9736C93.469 76.4127 92.6963 78.9704 91.2089 80.9338C89.5132 82.1236 87.4014 83.551 87.6097 85.9009C86.4497 85.5736 86.1521 84.2057 86.658 83.2237C87.3717 81.2607 89.6025 80.5768 90.6435 78.8518C92.4577 76.2936 92.2202 72.7242 90.4654 70.2261V70.2256Z" fill="#FAAF41" stroke="#FAAF41" stroke-width="0.24" stroke-miterlimit="10.42"/>
<path d="M52.8395 71.6827C54.178 70.5524 56.1113 70.6124 57.7177 71.0583C61.4652 72.1886 65.2722 73.5267 69.2582 73.4379C71.0427 73.4082 72.8569 73.5272 74.6414 73.2003C77.5268 72.8433 80.2928 71.8018 83.089 70.9993C84.3086 70.7017 85.6467 70.6422 86.8068 71.0885C88.4722 71.8022 89.3049 73.6169 89.5435 75.3121C89.3947 77.0078 88.2346 78.3757 86.896 79.3274C84.992 77.3644 81.3636 77.721 79.9952 80.1304C78.6274 82.2422 79.6386 85.276 81.869 86.3468C79.3113 87.7746 76.3961 88.5478 73.4813 88.9049C71.3695 89.0235 69.228 89.0537 67.1162 88.9049C64.2014 88.5776 61.3159 87.7746 58.7582 86.377C60.1261 85.5443 61.2564 84.1159 61.1969 82.4505C61.3457 80.0714 59.1446 77.8698 56.765 78.0186C55.6049 77.9888 54.5937 78.703 53.6717 79.2977C52.1248 78.2567 50.876 76.5015 51.0247 74.5385C51.6199 73.5867 51.917 72.3969 52.839 71.6827M58.9363 75.877C58.9363 76.1151 58.9661 76.5907 58.9661 76.8288C59.0553 78.7323 61.7916 79.7138 63.1897 78.4352C64.5878 77.4835 64.617 75.1634 63.2789 74.1521C61.8218 72.8433 58.9661 73.8252 58.9368 75.8775M78.0322 73.736C76.099 74.4199 75.7121 77.3347 77.4073 78.465C78.984 79.7738 81.7197 78.584 81.7197 76.5019C82.0173 74.5389 79.8167 72.9925 78.0318 73.736M63.6058 80.3685C63.0706 80.9036 62.8916 81.6773 62.7433 82.4207C61.7916 82.6886 61.7023 83.9081 62.3569 84.5325C64.32 86.6443 67.3537 87.2985 70.1499 87.3287C73.035 87.299 76.158 86.7341 78.3293 84.6813C78.6864 84.2945 79.2811 83.8188 78.8942 83.2535C78.5074 82.391 77.3478 82.5398 76.7527 83.0749C74.9687 84.6218 72.5291 85.2165 70.2387 85.0979C70.09 83.4027 69.6143 81.588 68.4245 80.3392C67.205 79.0006 64.7658 78.8816 63.6063 80.3685H63.6058Z" fill="#E6C399"/>
<path d="M52.8395 71.6827C54.178 70.5524 56.1113 70.6124 57.7177 71.0583C61.4652 72.1886 65.2722 73.5267 69.2582 73.4379C71.0427 73.4082 72.8569 73.5272 74.6414 73.2003C77.5268 72.8433 80.2928 71.8018 83.089 70.9993C84.3086 70.7017 85.6467 70.6422 86.8068 71.0885C88.4722 71.8022 89.3049 73.6169 89.5435 75.3121C89.3947 77.0078 88.2346 78.3757 86.896 79.3274C84.992 77.3644 81.3636 77.721 79.9952 80.1304C78.6274 82.2422 79.6386 85.276 81.869 86.3468C79.3113 87.7746 76.3961 88.5478 73.4813 88.9049C71.3695 89.0235 69.228 89.0537 67.1162 88.9049C64.2014 88.5776 61.3159 87.7746 58.7582 86.377C60.1261 85.5443 61.2564 84.1159 61.1969 82.4505C61.3457 80.0714 59.1446 77.8698 56.765 78.0186C55.6049 77.9888 54.5937 78.703 53.6717 79.2977C52.1248 78.2567 50.876 76.5015 51.0247 74.5385C51.6199 73.5867 51.917 72.3969 52.839 71.6827M58.9363 75.877C58.9363 76.1151 58.9661 76.5907 58.9661 76.8288C59.0553 78.7323 61.7916 79.7138 63.1897 78.4352C64.5878 77.4835 64.617 75.1634 63.2789 74.1521C61.8218 72.8433 58.9661 73.8252 58.9368 75.8775M78.0322 73.736C76.099 74.4199 75.7121 77.3347 77.4073 78.465C78.984 79.7738 81.7197 78.584 81.7197 76.5019C82.0173 74.5389 79.8167 72.9925 78.0318 73.736M63.6058 80.3685C63.0706 80.9036 62.8916 81.6773 62.7433 82.4207C61.7916 82.6886 61.7023 83.9081 62.3569 84.5325C64.32 86.6443 67.3537 87.2985 70.1499 87.3287C73.035 87.299 76.158 86.7341 78.3293 84.6813C78.6864 84.2945 79.2811 83.8188 78.8942 83.2535C78.5074 82.391 77.3478 82.5398 76.7527 83.0749C74.9687 84.6218 72.5291 85.2165 70.2387 85.0979C70.09 83.4027 69.6143 81.588 68.4245 80.3392C67.205 79.0006 64.7658 78.8816 63.6063 80.3685H63.6058Z" stroke="#E6C399" stroke-width="0.24" stroke-miterlimit="10.42"/>
<path d="M58.937 75.8771C58.9668 73.8248 61.822 72.8433 63.2796 74.1516C64.6182 75.1634 64.5885 77.483 63.1904 78.4347C61.7923 79.7138 59.056 78.7323 58.9668 76.8283C59.2639 76.561 59.2639 76.1146 58.937 75.8766V75.8771ZM78.0325 73.7355C79.8169 72.9921 82.018 74.5385 81.7204 76.5015C81.7204 78.5835 78.9842 79.7733 77.408 78.4645C75.7124 77.3342 76.0992 74.4194 78.0329 73.7355H78.0325Z" fill="#2A262A" stroke="#2A262A" stroke-width="0.24" stroke-miterlimit="10.42"/>
<path d="M58.937 75.8771C59.2643 76.1151 59.2643 76.5615 58.9668 76.8288C58.9668 76.5908 58.937 76.1151 58.937 75.8771Z" fill="#00031A" stroke="#00031A" stroke-width="0.24" stroke-miterlimit="10.42"/>
<path d="M92.9936 80.0114C94.0644 78.7621 94.8674 77.3049 96.0572 76.1444C95.1947 78.9406 93.2312 81.2602 91.477 83.5506C90.6438 84.8594 89.2164 85.9302 87.61 85.9004C87.4017 83.5506 89.5135 82.1232 91.2092 80.9334C91.8931 80.8144 92.5477 80.5461 92.9936 80.0109V80.0114Z" fill="#EE4032" stroke="#EE4032" stroke-width="0.24" stroke-miterlimit="10.42"/>
<path d="M53.6724 79.2977C54.5948 78.7025 55.6056 77.9889 56.7657 78.0186C59.1453 77.8698 61.3459 80.0709 61.1976 82.4505C61.2571 84.1159 60.1268 85.5443 58.7589 86.377C58.0155 85.9307 57.2715 85.5443 56.6471 85.0082C56.3495 84.4433 56.5281 83.7593 56.3198 83.1647C55.8139 81.6773 54.8027 80.3982 53.6724 79.2977ZM79.9954 80.1304C81.3638 77.721 84.9922 77.3644 86.8962 79.3274C85.4088 80.7851 83.9215 82.6588 84.1 84.8599C83.4756 85.5141 82.6429 85.9009 81.8692 86.3468C79.6384 85.2765 78.6276 82.2422 79.9954 80.1304Z" fill="#EC9D6E" stroke="#EC9D6E" stroke-width="0.24" stroke-miterlimit="10.42"/>
<path d="M63.6069 80.368C64.7669 78.8811 67.2056 79.0001 68.4256 80.3387C69.6154 81.5875 70.091 83.4023 70.2398 85.0974C72.5302 85.216 74.9693 84.6213 76.7538 83.0744C77.3489 82.5393 78.5089 82.39 78.8953 83.253C79.2822 83.8179 78.6875 84.294 78.3304 84.6808C76.1591 86.7331 73.0365 87.298 70.151 87.3283C67.3548 87.2985 64.321 86.6439 62.358 84.5321C61.7034 83.9076 61.7926 82.6881 62.7444 82.4203C62.8932 81.6768 63.0717 80.9031 63.6069 80.368ZM64.3503 82.7773C64.1718 83.6105 65.2128 84.0267 65.867 84.2052C65.8372 83.4022 65.8967 82.6286 66.105 81.8554C66.4323 82.7773 66.4616 83.8184 66.9675 84.7106C67.4734 85.0082 68.068 85.0082 68.6329 85.0979C68.5139 83.9974 68.2466 82.8969 67.6217 81.9749C67.2348 81.469 66.6992 80.9338 65.9855 80.9934C65.004 80.8446 64.3796 81.9154 64.3498 82.7778L64.3503 82.7773Z" fill="#2A262A" stroke="#2A262A" stroke-width="0.24" stroke-miterlimit="10.42"/>
<path d="M64.3505 82.7774C64.3802 81.9149 65.0051 80.8441 65.9862 80.9929C66.6998 80.9339 67.2355 81.469 67.6223 81.9744C68.2467 82.8964 68.5146 83.9969 68.6336 85.0975C68.0687 85.0077 67.474 85.0077 66.9681 84.7101C66.4623 83.8179 66.433 82.7769 66.1057 81.8549C65.8978 82.6281 65.8378 83.4018 65.8676 84.2047C65.2129 84.0262 64.1719 83.6101 64.351 82.7769L64.3505 82.7774Z" fill="#EC1C24" stroke="#EC1C24" stroke-width="0.24" stroke-miterlimit="10.42"/>
<path d="M49.3 83.6398C49.8654 83.7291 50.2225 84.1452 50.2518 84.6808C49.8054 84.7696 49.2107 84.0857 49.3 83.6398Z" fill="#FAAF41" stroke="#FAAF41" stroke-width="0.24" stroke-miterlimit="10.42"/>
<path d="M67.1162 88.9044C69.228 89.0532 71.3696 89.023 73.4814 88.9044C73.154 89.38 72.4403 89.2313 71.9345 89.3205C70.4173 89.2908 68.8114 89.4991 67.3245 89.142L67.1162 88.9039V88.9044Z" fill="#060B1D" stroke="#060B1D" stroke-width="0.24" stroke-miterlimit="10.42"/>
</svg>
