<svg width="140" height="140" viewBox="0 0 140 140" fill="none" xmlns="http://www.w3.org/2000/svg">
<rect width="140" height="140" rx="30" fill="#E96C1B"/>
<g clip-path="url(#clip0_832_806)">
<path fill-rule="evenodd" clip-rule="evenodd" d="M12 69.8184H19.0275V72.3846H16.8636V76.675H24.7809V72.3846H22.5463V69.8184H29.7052V72.3846H27.4099V85.0125H29.7052V87.5178H22.5463V85.0125H24.7809V79.1803H16.8636V85.0125H19.0275V87.5178H12V85.0125H14.2346V72.3846H12V69.8184Z" fill="black"/>
<path fill-rule="evenodd" clip-rule="evenodd" d="M96.1274 69.8184H110.577V74.758H108.15V72.3846H101.112V76.6142H107.129V79.1195H101.112V85.0125H108.089V81.6146H110.648V87.5178H96.1274V85.0125H98.4935V72.3846H96.1274V69.8184Z" fill="black"/>
<path fill-rule="evenodd" clip-rule="evenodd" d="M32.9712 69.8184H47.4812V74.758H44.9836V72.3846H37.9562V76.6142H43.9624V79.1195H37.9562V85.0125H44.923V81.6146H47.4812V87.5178H32.9712V85.0125H35.3373V72.3846H32.9712V69.8184Z" fill="black"/>
<path fill-rule="evenodd" clip-rule="evenodd" d="M100.354 67.445H105.531L106.805 68.9867H101.76L100.354 67.445Z" fill="black"/>
<path fill-rule="evenodd" clip-rule="evenodd" d="M124.774 77.385C122.984 76.9387 121.77 76.9996 119.92 76.4214C118.322 75.8433 117.999 74.8797 117.999 74.2407C117.999 73.5307 118.707 71.8064 121.255 71.8064C123.803 71.8064 125.542 73.5409 125.603 75.0116H128.1V69.8184H125.673V70.9747L125.805 71.2993V71.3601V71.2891C125.744 71.2891 125.673 71.0964 125.421 70.9037V70.8428C124.713 70.2038 123.247 69.433 121.073 69.433C118.454 69.433 115.38 71.0964 115.38 74.2407C115.38 77.385 117.554 78.3486 119.475 78.8557C121.326 79.373 122.286 79.373 123.884 79.8193C125.421 80.2047 126.442 81.1683 126.442 82.5782C126.442 83.8562 125.613 85.5906 122.286 85.5906C118.959 85.5906 117.685 83.7953 117.301 81.29H114.935V87.5178H117.362V86.3615L117.301 86.0369C117.301 86.0369 117.362 86.2296 117.685 86.4223V86.4832C118.899 87.4468 120.557 88.0858 122.61 88.0858C124.976 88.0858 129 86.8686 129 82.639C128.99 79.5657 127.392 78.1559 124.774 77.385Z" fill="black"/>
<path fill-rule="evenodd" clip-rule="evenodd" d="M90.4447 85.0125V72.3846H92.8108V69.8184H86.4203L82.133 80.2047L82.0623 80.722L81.9409 80.2047L77.7143 69.8184H71.2632V72.3846H73.6293V85.0125H71.2632V87.5178H78.4828V85.0125H76.2482V73.409V72.6381L76.4403 73.2163L81.3646 85.0125H82.7701L87.6943 73.2163L87.8258 72.5773L87.8865 73.2771V85.0125H85.6417V87.5178H92.8108V85.0125H90.4447Z" fill="black"/>
<path fill-rule="evenodd" clip-rule="evenodd" d="M38.917 63.0227H36.4902V62.3837H38.28C38.3406 62.5054 38.7249 62.83 38.917 63.0227Z" fill="black"/>
<path fill-rule="evenodd" clip-rule="evenodd" d="M99.9697 63.0227C99.9697 62.7692 100.223 62.5054 100.546 62.3837H101.83V63.0227H99.9697Z" fill="black"/>
<path fill-rule="evenodd" clip-rule="evenodd" d="M59.8174 63.469C58.7254 63.9863 57.3907 63.9153 56.2986 63.469H43.5784C42.365 63.9863 40.9595 63.9863 39.7461 63.469H36.4902V64.6861H101.821V63.469H59.8174Z" fill="black"/>
<path fill-rule="evenodd" clip-rule="evenodd" d="M44.3467 63.0227C44.5388 62.8909 44.9837 62.4446 45.0545 62.3837H54.9031C55.0345 62.5764 55.348 62.901 55.5401 63.0227H44.3467Z" fill="black"/>
<path fill-rule="evenodd" clip-rule="evenodd" d="M58.0982 62.6372C59.7565 62.6372 61.162 61.2274 61.162 59.564C61.162 57.9005 59.7565 56.4197 58.0982 56.4197C56.44 56.4197 54.9637 57.8295 54.9637 59.564C54.9637 61.2984 56.3692 62.6372 58.0982 62.6372V63.2763C55.9849 63.2763 54.3267 61.6128 54.3267 59.5538C54.3267 57.4948 55.9849 55.7705 58.0982 55.7705C60.2115 55.7705 61.8092 57.4339 61.8092 59.5538C61.8092 61.6737 60.1509 63.2763 58.0982 63.2763V62.6372Z" fill="black"/>
<path fill-rule="evenodd" clip-rule="evenodd" d="M45.8837 59.0467C45.8837 56.7341 43.9625 54.8171 41.6672 54.8171C39.3719 54.8171 37.4507 56.7442 37.4507 59.0467C37.4507 61.3491 39.3011 63.2763 41.6672 63.2763C44.0333 63.2763 45.8837 61.4201 45.8837 59.0467H45.1759C45.1759 61.0347 43.5782 62.6372 41.6571 62.6372C39.7359 62.6372 38.0776 61.0347 38.0776 59.0467C38.0776 57.0587 39.6752 55.5169 41.6571 55.5169C43.6389 55.5169 45.1759 57.0587 45.1759 59.0467H45.8837Z" fill="black"/>
<path fill-rule="evenodd" clip-rule="evenodd" d="M60.07 61.6737L58.796 60.203V60.132C58.8567 60.0711 58.8567 60.0001 58.9274 59.9392L60.8486 60.4565C60.9093 60.4565 61.0407 60.5174 61.0407 60.5884C61.0407 60.5275 61.1014 60.2638 61.1722 60.1421C61.1115 60.203 60.9801 60.203 60.8486 60.203L59.0589 59.6857C58.9982 59.6857 58.9982 59.6248 58.9982 59.6248V59.3104L60.8486 58.6105C60.8486 58.6105 61.0407 58.6105 61.0407 58.6714C61.0407 58.6105 60.9093 58.2859 60.9093 58.2251C60.9093 58.2859 60.7778 58.4178 60.7172 58.4178L60.8486 58.3569L58.9274 59.067C58.9274 59.1278 58.9274 59.067 58.8668 59.067C58.8668 59.0061 58.8061 58.9351 58.7353 58.9351C58.7353 58.8742 58.6747 58.8032 58.7353 58.8032L59.7566 57.2007C59.8173 57.1398 59.9487 57.0688 60.0094 57.0688C59.9487 57.0688 59.6858 56.8761 59.5645 56.8152C59.6251 56.8152 59.6251 57.0079 59.5645 57.0688L58.5432 58.6714H58.4118C58.4118 58.6714 58.2803 58.6105 58.2196 58.6105C58.2196 58.6105 58.159 58.6105 58.159 58.5497L58.0983 56.6935C58.0983 56.5617 58.0983 56.4399 58.2298 56.4399H57.7141C57.7747 56.4399 57.8455 56.6327 57.8455 56.6935L57.9062 58.5497C57.9062 58.6105 57.8455 58.6105 57.8455 58.6105C57.8455 58.6105 57.7141 58.6714 57.6534 58.7424C57.6534 58.7424 57.5927 58.7424 57.5927 58.6815L56.3794 57.2108C56.3187 57.1499 56.3187 57.0181 56.3187 56.9572C56.258 57.0181 55.9951 57.2108 55.9344 57.2818C55.9951 57.2818 56.1266 57.3427 56.1872 57.4137L57.4006 58.8844V58.9452C57.3399 58.9452 57.2692 59.0771 57.2692 59.138C57.2692 59.138 57.2085 59.1988 57.1377 59.1988L55.348 58.6815C55.2165 58.6207 55.1559 58.5497 55.1559 58.4888C55.1559 58.5497 55.0244 58.8742 55.0244 58.9351C55.0244 58.9351 55.2165 58.8742 55.2772 58.9351L57.0669 59.3814C57.1276 59.3814 57.1276 59.4422 57.1276 59.4422V59.7567L55.3379 60.5275C55.2772 60.5275 55.1458 60.5884 55.1458 60.5275C55.1458 60.5884 55.2064 60.8521 55.2772 60.9738C55.2772 60.913 55.4086 60.7811 55.4693 60.7811L57.1984 60.0102C57.2591 60.0102 57.2591 60.0711 57.2591 60.0711C57.3197 60.0711 57.3905 60.132 57.3905 60.203C57.4512 60.203 57.4512 60.2638 57.4512 60.2638L56.3591 61.8664C56.2985 61.9272 56.2277 61.9982 56.167 61.9982C56.2277 62.0591 56.4906 62.2518 56.5512 62.2518C56.4906 62.2518 56.5512 62.0591 56.5512 61.9982L57.6332 60.4565C57.6332 60.3957 57.6938 60.3957 57.6938 60.3957C57.7545 60.4565 57.8253 60.4565 57.886 60.4565C57.9466 60.4565 57.9466 60.4565 57.9466 60.5174L58.0781 62.4445C58.0781 62.5054 58.0174 62.6372 57.9466 62.6372H58.4623C58.3309 62.6372 58.3309 62.5054 58.3309 62.3837L58.1994 60.5275C58.1994 60.4667 58.2601 60.4667 58.2601 60.4667C58.3208 60.4667 58.4522 60.4058 58.5129 60.3348C58.5129 60.3348 58.5735 60.3348 58.5735 60.3957L59.8476 61.8055C59.8476 61.8664 59.9083 61.9982 59.9083 62.0591C59.9689 61.9982 60.161 61.8055 60.2318 61.7345C60.2015 61.8055 60.07 61.6737 60.07 61.6737Z" fill="black"/>
<path fill-rule="evenodd" clip-rule="evenodd" d="M41.5359 56.6022C43.3256 56.6022 45.1153 56.7949 46.1366 57.1195C46.268 57.1195 46.268 57.2514 46.1366 57.3122C45.0547 57.5658 43.2649 57.7585 41.5965 57.7585C39.9383 57.8194 38.1384 57.7585 36.9958 57.5049C36.8644 57.5049 36.8644 57.3731 36.9958 57.3731C38.0171 56.9877 39.7461 56.6732 41.5359 56.6022V56.2776C39.6147 56.3385 37.7036 56.7949 36.106 57.3731C35.9139 57.4339 35.9139 57.5658 36.106 57.5658C37.8957 58.0121 39.7461 58.0831 41.6067 58.0121C43.3964 57.9512 45.3176 57.8194 47.0365 57.3122C47.2893 57.2514 47.2286 57.1195 47.0972 57.1195C45.4389 56.6022 43.5177 56.2878 41.5359 56.2878V56.6022Z" fill="black"/>
<path fill-rule="evenodd" clip-rule="evenodd" d="M60.5252 55.4561C60.0803 55.5879 59.3119 55.8415 58.9276 55.8415C58.6041 55.8415 57.0064 55.7807 55.9245 55.8415C54.4583 55.9024 54.3269 56.0951 54.2662 55.9734C53.9427 55.4561 53.6899 54.6852 53.1843 54.2389C50.1812 54.7562 47.2387 54.2998 44.5491 53.3362V52.9508C44.7412 53.0117 44.8727 53.0117 44.994 53.0117C44.5491 52.3727 43.7806 52.1799 43.3357 51.4699C43.0829 51.2772 43.0121 50.8918 42.7594 50.6991C42.82 51.3989 42.2437 51.9162 42.183 52.4944C42.5672 52.6262 43.0829 52.6262 43.275 52.5552C43.5278 52.4944 43.8514 52.5552 43.9727 52.7479C44.1649 52.8088 44.2963 52.9407 44.5491 52.9407V53.3362C44.2255 53.2754 44.1649 53.2044 43.9121 53.0827C43.5885 53.2145 43.3357 53.1435 43.2144 53.0218C43.1537 52.9609 42.5066 52.9609 42.2538 52.9609C41.4246 52.9609 40.5247 53.2855 40.0798 53.9854C39.8877 54.3708 39.9484 54.8171 40.1405 55.1417C40.2719 55.3344 40.8483 56.1661 41.2224 56.4197L40.7067 56.5515C39.9382 55.8415 39.3619 55.2025 39.4933 54.3708C39.8776 52.5755 41.5359 52.8291 41.9909 52.0582C42.3145 51.3584 42.4358 49.2994 42.0516 48.7212C40.9696 48.2749 39.6248 47.6968 39.372 46.4086C39.3113 46.0841 39.4327 45.7088 39.7562 45.6378C40.3326 45.5059 40.7168 45.8305 41.1617 46.0232C41.3539 45.8913 40.9696 45.4451 41.4145 45.4451C41.9909 45.4451 42.3751 46.6013 42.5672 46.6622L42.5066 47.1085C42.1223 46.9766 40.7168 46.2058 40.5854 46.1449C40.3326 46.0131 40.009 45.8203 39.8169 46.0841C39.5641 46.4086 39.8776 46.7941 40.0697 47.1085C43.0728 50.2528 48.0578 46.9158 51.3238 49.1574C51.3845 48.9646 51.3238 48.9038 51.1923 48.8328C48.9577 46.7129 45.3782 47.8083 42.4965 47.0983L42.5571 46.6521C46.1366 47.5548 50.8688 46.0739 52.7192 50.1818C53.9325 51.9162 55.2167 54.6751 57.8356 54.7359C59.9489 54.7968 61.3544 53.9651 62.3756 52.4234C63.7811 49.8572 64.6103 46.9056 67.1078 45.1813C67.3606 45.0495 67.492 45.1813 67.3606 45.2422C66.1472 46.4593 65.0552 48.0619 64.4889 49.4109C65.4495 53.0624 67.5527 52.3017 68.0684 52.2307C67.937 50.8816 68.0684 46.9056 70.9401 45.9421C71.5771 45.4248 73.8825 43.954 76.8856 45.2321C74.651 47.3519 73.3062 50.3644 72.8613 52.4741L70.3637 53.1841C70.5558 52.7987 70.5558 52.1597 70.4952 51.4496C70.2424 51.5815 69.9795 51.7742 69.4031 52.0886C69.1503 52.1495 69.3424 51.7641 69.3424 51.7641C69.3424 51.6322 69.9795 51.3786 70.4952 51.0541C70.303 49.5834 70.1716 47.6562 71.3951 46.4391C68.8975 47.2708 69.6054 52.5349 69.8581 53.1739C69.1604 53.4985 68.1999 53.4985 68.1999 53.4985L68.0684 52.5958C66.9764 52.9812 65.126 52.7277 64.2968 49.8369C63.3969 51.7336 62.6284 54.6852 60.5252 55.4561Z" fill="black"/>
<path fill-rule="evenodd" clip-rule="evenodd" d="M99.5147 47.6258C99.3833 47.4939 99.3226 47.4331 99.1911 47.4331C99.1305 47.3722 99.1911 47.3012 99.2518 47.3012C99.3125 47.2404 99.4439 47.3012 99.5046 47.4331C99.5855 47.5041 99.5855 47.6258 99.5147 47.6258Z" fill="black"/>
<path fill-rule="evenodd" clip-rule="evenodd" d="M42.3042 60.0102L43.649 61.552C43.7805 61.6838 43.7805 61.8765 43.7097 61.9374C43.9018 61.8765 44.1546 61.552 44.286 61.4201C44.2254 61.481 43.9625 61.481 43.9018 61.3592L42.4963 59.8175V59.6857L42.557 59.6248C42.557 59.5639 42.6177 59.564 42.6177 59.564L44.5995 60.2638C44.7916 60.3957 44.8523 60.5174 44.8523 60.5884C44.913 60.4565 45.0444 60.0711 45.1051 59.9494C45.0444 60.0102 44.8523 60.0812 44.7208 60.0102L42.739 59.3002C42.6985 59.3002 42.6783 59.2799 42.6783 59.2394V59.1075C42.6783 59.0467 42.739 59.0467 42.739 59.0467L44.7815 58.7221C45.0343 58.6612 45.1657 58.7829 45.1657 58.8539C45.1657 58.7221 45.1051 58.2758 45.1051 58.1541C45.1051 58.2149 44.9736 58.4077 44.7208 58.4787L42.739 58.8032C42.6783 58.8032 42.6783 58.7424 42.6783 58.7424C42.6177 58.6815 42.6177 58.6105 42.5469 58.5497V58.4888L44.1445 57.1398C44.3366 57.0079 44.5287 57.0079 44.5894 57.0789C44.4579 56.9471 44.2052 56.6327 44.0737 56.5008C44.1344 56.5617 44.0737 56.7544 43.9423 56.9471L42.4053 58.2251C42.3649 58.2657 42.3446 58.2657 42.3446 58.2251C42.284 58.2251 42.2132 58.2251 42.1525 58.1642C42.1525 58.1642 42.0919 58.1034 42.1525 58.1034L42.8603 56.1154C42.921 55.9227 43.1131 55.8618 43.1839 55.8618C43.0524 55.8009 42.6075 55.6082 42.4862 55.6082C42.5469 55.6082 42.6783 55.8618 42.6177 56.0545L41.92 57.9817C41.92 58.0425 41.8593 58.0425 41.8593 58.0425H41.6672L41.6065 57.9817L41.2223 55.9328C41.2223 55.6792 41.3537 55.5474 41.3537 55.5474C41.2223 55.5474 40.838 55.6082 40.656 55.6792C40.7167 55.6792 40.9088 55.8111 40.9796 56.0038L41.3638 57.9918C41.3638 58.0324 41.3436 58.0763 41.3032 58.1237C41.2425 58.1237 41.1717 58.1845 41.111 58.1845H41.0504L39.6449 56.6428C39.5134 56.4501 39.5134 56.2574 39.5842 56.2574C39.4528 56.3182 39.1393 56.5819 39.0685 56.7037C39.1292 56.7037 39.3213 56.7037 39.4528 56.8355L40.8583 58.3772V58.4381C40.8178 58.4787 40.774 58.5226 40.7268 58.5699H40.6661L38.745 57.8599C38.5528 57.7991 38.4214 57.6064 38.4922 57.5354C38.3607 57.7281 38.3 58.1135 38.2394 58.2352C38.3 58.1744 38.4922 58.1034 38.6843 58.1744L40.6055 58.8134V59.1278L38.5629 59.5132C38.3708 59.5132 38.1787 59.3814 38.1787 59.3205C38.1787 59.5132 38.2394 59.9595 38.3102 60.0914C38.3102 60.0305 38.3708 59.8378 38.6337 59.7668L40.6156 59.3814C40.6156 59.3814 40.6762 59.3814 40.6762 59.4422C40.6762 59.5031 40.6762 59.5031 40.7369 59.5741V59.635L39.1393 60.9231C38.9472 61.1158 38.7551 61.055 38.7551 60.984C38.7551 61.1767 39.0786 61.5012 39.1393 61.5621C39.1393 61.5012 39.1393 61.3085 39.2708 61.1767L40.929 59.8885C40.929 59.848 40.9493 59.848 40.9897 59.8885L41.1212 60.0204C41.1616 60.0204 41.1818 60.0407 41.1818 60.0812L40.4841 62.0084C40.4235 62.2011 40.2313 62.333 40.1606 62.262C40.2819 62.3228 40.6762 62.5155 40.8583 62.5155C40.7268 62.5155 40.6661 62.3228 40.7268 62.1301L41.4346 60.1421C41.4346 60.1421 41.4346 60.0812 41.4953 60.0812C41.5559 60.1421 41.6267 60.1421 41.6874 60.1421C41.6874 60.1421 41.7481 60.1421 41.7481 60.203L42.1323 62.191C42.1323 62.4445 42.0009 62.5764 41.9402 62.6372C42.1323 62.6372 42.5165 62.5054 42.6379 62.4445C42.5772 62.5054 42.3851 62.3127 42.3851 62.191L42.0009 60.1421V60.0812C42.0615 60.0812 42.1323 60.0204 42.193 60.0204C42.2267 59.9663 42.2638 59.9629 42.3042 60.0102Z" fill="black"/>
<path fill-rule="evenodd" clip-rule="evenodd" d="M98.6251 47.8895C98.5645 47.8286 98.6251 47.7576 98.6251 47.6968C98.6858 47.5041 98.7566 47.5041 98.7566 47.3113C98.433 47.0578 98.3723 46.5405 98.5645 46.4188C98.7566 46.2261 99.3936 46.4796 99.3936 46.4796C99.97 46.0333 100.162 45.7088 100.486 45.5161C100.931 45.5161 101.83 46.3478 101.83 46.8651C101.699 47.0578 101.386 47.3823 100.87 48.0213C101.062 48.4676 101.062 48.7922 100.738 49.0458C100.678 49.0458 100.546 49.0458 100.415 48.9139C100.476 49.5529 101.183 49.9384 101.436 50.4556C101.436 51.4801 102.528 52.7682 101.305 53.5999C101.052 53.7318 100.789 53.9245 100.668 54.1781C100.86 55.2025 101.244 56.298 101.436 57.3832L100.223 57.4441C100.091 57.8295 99.7071 58.5294 99.8385 58.9148C99.8385 58.9148 99.7778 58.854 99.8992 58.9148C100.091 59.1684 100.152 61.2883 100.091 61.481C100.091 61.7345 100.283 61.7345 100.152 62.1808C100.021 62.2417 99.5149 62.5663 99.4442 62.759C99.1206 63.0835 98.2308 63.1444 98.2308 63.0125C98.2308 62.688 98.8678 62.3127 98.9993 61.9273C99.1307 60.3855 98.9993 58.854 98.1701 57.6267C97.8465 57.434 97.5938 57.9512 97.4016 58.2048C97.7252 59.1684 98.3016 60.1928 98.2308 61.2781C98.2308 61.6027 98.615 62.049 98.4229 62.4953L97.4016 63.0125H93.6907C93.5593 62.8198 93.3065 62.6271 93.3672 62.3735H96.6938C96.6938 62.2417 97.0174 62.3127 97.3309 61.7954C97.3309 60.2537 95.7332 58.0121 95.986 57.2412C96.3096 56.2777 96.7545 55.5068 97.2601 54.2288L97.5129 54.1679C96.9365 56.0951 96.1074 57.0587 96.2388 57.6267C96.2995 57.9512 96.4309 58.2048 96.6231 58.5902L96.7545 58.9757C96.8152 59.1684 97.0073 59.6147 97.1387 59.7465C97.3309 59.7465 97.4623 59.6147 97.5836 59.5538C97.5836 59.3002 97.3915 58.9757 97.2601 58.783L96.7444 58.9757L96.6129 58.5902C96.9972 58.5902 97.25 58.3367 96.9365 58.144C97.8263 57.6977 96.7444 57.8194 97.068 57.6267C97.5836 57.3731 97.8364 56.4095 97.8971 55.8314C97.8971 55.6995 97.9578 55.6387 98.0892 55.6387C98.4735 56.6631 98.4735 58.0121 99.1105 58.9757V59.3002C99.0498 59.5538 99.1105 59.8784 99.2419 60.0711C99.8183 60.132 99.7576 60.0103 99.6262 59.3002C99.4947 59.3002 99.2419 59.2394 99.1105 59.3002V58.9757C99.1711 58.9148 99.434 58.9757 99.4947 58.9148C99.3026 58.5902 99.3026 58.3367 99.3026 58.0222C99.3026 57.8295 99.434 57.4441 99.5554 58.2758C99.7475 58.3367 100.071 56.8051 100.132 56.2878C98.9184 56.5414 100.132 55.1315 99.2318 55.0707L99.6767 54.2998C99.6767 54.0462 99.4846 53.8535 99.161 53.9752L98.9082 53.6507C98.7161 53.5898 98.524 53.2652 98.2712 53.0725C98.0791 53.2652 97.7555 53.6507 97.6949 53.9042C97.6342 53.9651 97.8263 54.0361 97.887 53.9651C98.0791 53.7724 98.2106 54.1578 98.524 54.0969C98.6555 53.9651 99.0397 53.9042 98.9082 53.6507L99.161 53.9752C98.9082 54.1071 98.9082 54.5534 98.9082 54.8779C98.4633 55.7097 98.6555 54.4317 98.1398 54.4317C97.8162 54.6244 97.6949 54.1071 97.5028 54.1781L97.25 54.2389C97.25 53.7927 97.3106 53.2754 97.25 52.7581C97.6342 50.5774 98.0791 50.6382 98.1499 49.9992C98.1499 49.7456 99.1105 49.2284 99.0397 48.9748C99.1004 48.9748 99.2318 49.1675 99.2318 49.2284C99.1711 49.5529 98.524 49.5529 98.5948 50.2528C98.979 49.5529 100.061 49.6138 100.132 48.7821C99.9396 48.2648 100.385 48.5894 100.385 48.0822C100.253 47.9503 99.8688 47.5649 99.8082 47.3722C99.7475 47.3113 100 46.9259 99.1105 46.9259C99.0498 46.9868 98.979 47.3722 98.8577 47.5649C98.797 47.6258 98.6656 47.7576 98.7262 47.8185C98.7262 47.8793 98.8577 47.9503 98.8577 48.2039C98.797 48.4575 98.8577 48.5893 98.9891 48.7212C99.5048 48.9748 99.879 48.7212 99.3127 49.0458C99.3127 49.1066 99.3127 49.1776 99.252 49.2385C99.252 49.1776 99.0599 48.9139 98.9993 48.8531C98.9386 48.8531 98.615 48.6604 98.6757 48.4068C98.7566 48.1431 98.7566 48.0112 98.6251 47.8895Z" fill="black"/>
<path fill-rule="evenodd" clip-rule="evenodd" d="M81.4254 45.4451C81.4861 45.8914 81.2333 46.2159 81.2333 46.6622C81.6782 47.7576 81.2333 48.5894 81.3648 49.6138C80.8491 49.2892 80.7277 48.4575 80.5356 47.5649C80.4042 46.7941 80.5963 46.5405 80.6671 45.7088L81.4254 45.4451Z" fill="black"/>
<path fill-rule="evenodd" clip-rule="evenodd" d="M80.0806 45.7696C80.02 47.1186 79.8278 47.7576 80.7884 49.8775C78.3617 50.9019 76.3798 51.6119 73.498 52.4437C73.8216 50.3948 75.8035 46.4796 77.4618 45.3943C78.8672 45.7696 80.0806 45.7696 80.0806 45.7696Z" fill="black"/>
<path fill-rule="evenodd" clip-rule="evenodd" d="M73.8216 60.842C73.1846 61.0347 73.1846 61.4201 73.5689 61.8056C73.8216 61.9983 74.0744 62.3228 74.0744 62.3837H69.9793C69.9793 62.5764 70.1714 62.7083 70.3028 63.0227H92.9324C93.0638 62.6981 92.6796 62.3127 92.5481 61.9273C90.9505 61.3491 90.9505 59.8784 90.8898 58.2048C90.8898 58.144 90.7584 57.9513 90.7584 57.6267C90.5663 57.3731 89.4843 54.736 89.9899 52.6262L90.3741 51.9162C90.6977 51.47 90.3135 51.2164 90.5663 50.6991L95.2984 49.8065C95.3591 49.7457 95.3591 49.5529 95.2378 49.4819C95.2984 49.4819 95.2378 49.4211 95.2378 49.4819L90.637 50.3137C90.8898 49.1574 89.8686 48.7719 90.3135 47.8084C90.9505 48.5184 92.6796 49.7355 93.5694 49.9282L94.0143 49.8674C92.8616 49.3501 90.8191 48.1329 89.6663 46.5304C89.5349 46.5304 89.4136 46.3985 89.2821 46.3376C89.2821 46.4695 89.6057 46.8549 89.5349 46.9158C89.5349 46.9158 88.7664 47.4331 87.3609 46.7839C86.916 47.6765 81.9311 49.9282 81.9311 49.9282C82.1232 51.3381 82.7602 52.2408 83.468 53.0015C83.5287 53.1334 83.2759 52.8697 83.468 53.0015C84.4893 53.8332 85.7026 54.2187 87.0475 54.4722C87.3003 55.2431 88.2608 57.7484 88.3215 58.1237C88.453 58.5091 88.6451 58.5091 88.6451 58.5091C88.7765 58.641 89.2214 59.4727 89.2214 59.7973L89.3529 61.1463C89.4136 61.4708 89.7978 61.2071 89.8686 61.5317L89.6765 62.3634H90.637C90.1214 61.9171 90.4449 61.1463 89.8079 60.8217C89.7472 60.0508 89.6765 59.4727 89.363 59.1583C89.1102 58.3874 88.271 56.3385 87.7654 54.4722L88.089 54.026C86.6835 54.4114 85.5914 53.8941 84.3174 53.1942C83.3568 52.748 83.9331 53.1334 84.2567 52.9407C85.7936 53.6405 86.5621 53.458 87.7148 53.3261C87.8463 53.5188 88.0991 53.7115 88.0991 54.0361L87.7755 54.4824C88.0991 54.1578 88.3519 54.3505 88.544 55.2533C88.7968 56.0241 89.0597 56.6023 89.2417 57.2413C89.4945 57.8803 89.6866 58.712 89.8787 59.1684C89.8787 59.1684 90.0708 59.1684 90.2023 59.422C90.6472 60.8318 90.7786 61.0246 90.7179 61.6636C90.8494 62.1808 91.5471 61.7244 91.4864 62.3736H74.671C74.9238 61.3491 74.3474 60.4464 74.671 59.4828C74.034 58.4584 72.4364 57.6875 72.6892 56.2777C73.4576 55.1924 75.9552 54.097 75.3788 52.819C77.6842 51.6627 78.8268 53.5898 80.9401 53.3971C81.7086 53.3971 82.5377 53.2652 83.2455 53.0725C82.3456 52.3625 81.5873 51.2772 81.1323 50.3137C76.6529 52.1698 72.3049 53.6507 67.5121 54.6142L67.1278 54.4824C66.6829 54.5432 59.3926 56.2168 59.6453 56.5313C56.895 56.724 53.6998 57.8803 52.992 58.2657C52.6684 58.4584 52.6078 58.5903 52.992 58.712C55.9344 59.4828 58.3612 58.9047 62.9012 57.1703L62.5777 56.9167C62.3148 57.1094 58.614 58.3874 57.1377 58.5801C55.6007 58.7728 54.266 58.712 53.6189 58.5193C53.4908 58.4787 53.4706 58.4347 53.5582 58.3874C56.44 57.2311 62.0013 56.2067 62.7597 57.1703C63.2046 57.3021 63.5282 57.5557 63.7809 57.8701C64.0337 58.1947 64.5494 58.0628 64.9337 58.002C65.4493 57.8701 65.51 57.4238 65.51 56.9775L64.9337 56.9167C64.6809 56.9167 63.6495 57.0485 63.5282 57.1703C63.1439 56.8457 62.7597 56.5313 62.244 56.3994C63.2653 55.9531 64.9337 55.5677 65.8235 55.4967C64.9943 56.0748 65.3786 56.7848 64.9337 56.9065L65.51 56.9674C65.51 56.7138 65.51 56.5211 65.6313 56.3893C66.2077 54.9794 68.6345 54.7867 69.8478 54.4621C69.8478 54.4621 69.2108 55.2938 68.7659 55.4865C68.6345 57.4745 67.9368 59.209 67.8053 61.197C68.3817 61.197 68.3817 61.836 68.503 62.2214C68.3109 62.546 68.0581 62.2214 67.8053 62.2823C66.9155 61.836 67.9974 61.0651 67.2896 60.4261C67.6739 58.8236 68.2502 57.221 68.2502 55.5575C67.9974 55.5575 67.9267 55.8111 67.8053 56.0038C67.6132 57.6064 67.1683 59.0771 66.7841 60.558C66.9155 60.6898 67.229 60.8116 67.229 61.0753C66.7133 61.3998 67.229 61.978 67.0368 62.3634H61.2227L60.6464 63.0024H69.4636L69.5243 62.6779C68.2502 61.268 68.6951 59.2191 69.3321 57.6774L70.8691 55.6285C72.1533 55.1113 72.9116 53.5797 74.2564 53.0624C74.2564 53.7724 73.4273 54.026 72.9824 54.4114C72.4667 55.4967 71.0005 55.6285 70.8084 56.8457C71.3848 57.4847 72.2139 57.9411 72.9217 58.5091C73.6194 58.9554 73.4374 59.919 73.943 60.3653C74.0744 60.5174 73.943 60.771 73.8216 60.842Z" fill="black"/>
<path fill-rule="evenodd" clip-rule="evenodd" d="M83.5996 37.6858C83.3468 38.0712 82.8312 38.3248 83.1547 39.0348C82.5177 39.4202 82.7098 39.9984 82.9019 40.3128C82.5784 40.6374 82.3863 41.2764 82.8413 41.6618C82.3256 42.2399 82.9727 42.7471 83.1648 42.9398C82.9121 43.5179 83.1648 43.9642 83.1648 43.9642C83.1042 44.3497 82.3964 44.9887 82.1436 45.1814C81.7593 46.1449 81.8908 48.133 81.9515 49.482C83.7311 48.5894 85.5208 47.7577 86.9263 46.5405C85.7129 45.7088 84.7523 43.7208 83.4075 43.8425C83.2761 42.4326 82.7098 39.9274 84.6917 37.3612C84.9445 37.2293 85.3287 37.1685 85.5208 37.0366C84.6917 36.9048 83.5996 37.4221 82.8413 36.9758C82.8312 36.9859 83.2154 37.6249 83.5996 37.6858Z" fill="black"/>
<path fill-rule="evenodd" clip-rule="evenodd" d="M87.8868 37.0467C87.8868 37.1076 88.1396 37.2394 88.1396 37.2394C88.1396 37.2394 88.3924 37.1786 88.3924 37.1076C88.3924 37.0467 88.4531 36.854 88.3924 36.783C88.3317 36.783 88.1396 36.7222 88.0082 36.7222C88.0082 36.7323 87.8868 36.9859 87.8868 37.0467L87.7554 37.1786L86.8656 36.5396L86.997 36.4077C86.997 36.4077 87.3812 36.0223 87.5734 36.0223C87.7655 35.9614 88.7867 36.0223 89.0395 36.215C89.2316 36.4077 89.3631 36.5396 89.6159 36.9859C90.3237 37.5032 91.4663 37.5032 92.1741 38.0712C92.0426 38.2639 92.3662 38.5885 92.1134 38.7102C91.9213 38.771 91.4764 38.6493 91.4157 38.771L91.3551 39.1565L91.1023 39.0956C91.1023 39.0956 91.2337 38.6493 91.1023 38.6493C90.9708 38.5885 90.718 38.4566 90.5866 38.5175C90.5259 38.5783 90.5866 38.6493 90.6473 38.771C90.6473 38.9029 90.9708 38.9637 91.1629 38.9029L91.4157 38.9637L91.7393 39.0246C91.6078 39.3492 91.5472 39.4709 91.1023 39.3492C90.9708 39.6737 91.6786 39.9273 91.7393 40.049C91.6786 40.1809 91.5472 40.3026 91.1023 40.049C91.1023 40.049 89.2519 41.8443 88.1598 42.3616C87.0071 42.8789 88.0992 42.108 88.0992 42.108C88.6148 41.9153 90.8495 39.9882 90.8495 39.7955C90.7888 39.6636 90.6574 39.41 90.6574 39.2173C90.3338 39.0855 89.6968 39.2782 89.444 39.4709C89.5653 40.049 90.5967 42.9398 89.8282 47.2911L89.6968 47.1592C90.4046 42.9296 89.2519 39.5317 89.2519 39.5317C88.6148 39.7853 88.1598 39.5926 87.8464 39.6636C87.7149 42.2906 89.8282 42.676 89.0597 46.1449C86.8251 45.7595 85.2275 43.0006 83.9433 43.2542C83.8827 42.8079 83.4277 42.037 83.8827 41.7835C83.7512 41.398 83.6299 40.8807 84.2062 40.5663C84.0141 40.049 83.9534 39.6027 84.5298 39.2173C84.3984 38.8927 84.4691 38.1929 85.1668 38.061C85.2275 37.4829 85.4904 37.0366 85.996 36.8439C85.4196 36.5903 85.2882 36.0122 85.2882 36.0122C85.8039 36.3367 86.2488 36.5294 87.0172 36.3976L87.8868 37.0467Z" fill="black"/>
<path fill-rule="evenodd" clip-rule="evenodd" d="M66.1471 85.0125L66.0864 81.4219C66.0864 80.3265 65.3786 79.1803 64.4281 78.5413C64.236 78.4805 63.9124 78.3486 63.6596 78.3486C63.9124 78.3486 64.236 78.3486 64.5596 78.2167C65.5202 77.7704 66.6729 76.5533 66.6729 74.4334C66.6729 72.8309 66.0358 71.6137 64.8831 70.782C63.7911 70.0111 62.5777 69.8184 61.3037 69.8184H51.4551V72.3846H53.6897V85.0226H51.4551V87.5178H58.4826V85.0125H56.2479V79.4339H61.1014C62.7597 79.4947 63.4069 80.5902 63.4069 81.4828L63.599 87.5076H68.3918V85.0023H66.1471V85.0125ZM61.607 76.9996H56.2378V72.3846H61.2936C61.8699 72.3846 62.5069 72.3846 63.0226 72.5773C63.6596 72.9019 64.236 73.6017 64.236 74.6972C64.2259 76.036 63.0125 76.9996 61.607 76.9996Z" fill="black"/>
<path fill-rule="evenodd" clip-rule="evenodd" d="M50.5451 93.7963C52.8505 93.7963 53.8718 95.0743 53.8718 96.6769C53.8718 98.2794 52.7797 99.4966 50.353 99.4966H48.6947V103.919H47.2285V93.7861H50.5451V93.7963ZM48.6947 98.2287H50.4844C51.5765 98.2287 52.3348 97.6506 52.3348 96.6261C52.3348 95.8553 51.8899 95.0844 50.5451 95.0844H48.6947V98.2287Z" fill="black"/>
<path fill-rule="evenodd" clip-rule="evenodd" d="M65.3177 103.929H63.7201L62.446 100.917H58.0374L56.824 103.929H55.2163L59.6957 93.7354H60.717L65.3177 103.929ZM58.6037 99.5676H61.8697L60.1406 95.5916L58.6037 99.5676Z" fill="black"/>
<path d="M82.1234 93.7963H80.6572V103.929H82.1234V93.7963Z" fill="black"/>
<path fill-rule="evenodd" clip-rule="evenodd" d="M92.6793 95.977C91.7187 95.2061 90.8289 94.9526 90.0605 94.9526C89.0999 94.9526 88.3314 95.3989 88.3314 96.1089C88.3314 98.0969 93.0636 98.036 93.0636 101.302C93.0636 102.844 91.7895 104 89.9998 104C88.8471 104 87.8258 103.746 86.9259 103.097V101.241C87.755 102.205 88.7763 102.722 89.8683 102.722C91.0817 102.722 91.6581 102.012 91.6581 101.434C91.6581 99.385 86.8652 99.1213 86.8652 96.3726C86.8652 94.7091 88.2101 93.6746 90.1919 93.6746C91.0817 93.6746 91.8502 93.8673 92.6894 94.3846V95.977H92.6793Z" fill="black"/>
<path fill-rule="evenodd" clip-rule="evenodd" d="M75.9247 102.712C75.7325 102.458 75.5404 102.195 75.3483 101.88C74.5798 100.592 73.9428 99.6994 72.9822 99.1213C74.1349 98.675 74.772 97.7723 74.772 96.616C74.772 94.8816 73.4271 93.7963 71.2532 93.7963H68.6343V103.929H70.1712V99.5067H70.8082C71.5767 99.5067 72.2137 99.7603 73.5586 101.819L74.9641 103.939H76.6931L75.9247 102.712ZM71.1318 98.2287H70.1712V95.0236H71.1318C72.598 95.0236 73.1743 95.6017 73.1743 96.5653C73.2451 97.397 72.8002 98.2287 71.1318 98.2287Z" fill="black"/>
</g>
<defs>
<clipPath id="clip0_832_806">
<rect width="117" height="68" fill="white" transform="translate(12 36)"/>
</clipPath>
</defs>
</svg>
