<svg width="140" height="140" viewBox="0 0 140 140" fill="none" xmlns="http://www.w3.org/2000/svg">
<rect width="140" height="140" rx="30" fill="url(#paint0_linear_751_3336)"/>
<g clip-path="url(#clip0_751_3336)">
<path d="M76.3209 33.5019C78.5019 34.5692 79.662 36.0556 79.9481 38.1319C80.59 42.8006 79.4879 47.186 77.0015 51.0708C74.8939 54.3657 72.3108 57.354 69.9442 60.4782C66.8003 64.6308 63.4785 68.663 60.6015 72.9903C59.3718 74.8376 58.8111 77.267 58.4205 79.5102C57.8675 82.7003 59.9518 85.677 63.1112 86.6938C63.057 86.3988 63.0725 86.1427 62.9642 85.9603C60.4275 81.5904 60.8451 77.4067 63.9503 73.5491C65.5977 71.5 67.5041 69.6604 69.3177 67.751C70.0447 66.9865 70.8026 66.7885 71.8699 67.3784C76.3209 69.8312 80.8259 72.183 85.3155 74.5659C87.4153 75.6797 88.3975 77.6241 89.0549 79.7586C90.2266 83.5735 90.4625 87.501 90.041 91.4479C89.2715 98.6742 85.3233 103.572 78.5328 105.776C69.0934 108.838 59.4878 108.718 50.0871 105.617C43.3043 103.382 39.3948 98.2861 37.8635 91.3354C36.6686 85.9137 36.4597 80.4571 37.732 75.0355C39.7042 66.6333 45.408 61.3708 52.794 57.715C56.0732 56.0927 59.6347 55.0294 62.8559 53.3179C66.576 51.3425 70.3695 49.2934 73.5908 46.6233C78.2853 42.7307 78.7842 39.2612 76.3209 33.5097V33.5019Z" fill="white"/>
<path d="M72.438 63.4781C73.2849 62.3876 73.9113 61.5726 74.5455 60.7654C76.6414 58.0953 76.6298 58.1186 79.5378 59.6709C90.7753 65.6669 102.024 71.6436 113.258 77.6512C114.032 78.0665 114.855 78.5594 115.385 79.2308C116.352 80.4571 116.139 82.6615 115.033 83.6938C113.796 84.8503 112.446 84.8193 110.957 84.0198C102.74 79.6033 94.4993 75.2295 86.2625 70.8441C81.7304 68.4302 77.1944 66.0162 72.438 63.482V63.4781Z" fill="white"/>
<path d="M61.572 50.3528C59.159 51.3346 56.9935 52.3049 54.7584 53.0733C54.1397 53.2867 53.2154 53.1043 52.6006 52.7783C43.7606 48.0669 34.94 43.3128 26.1309 38.5393C24.0234 37.3983 23.4781 35.6441 24.5029 33.6997C25.3923 32.0115 27.0397 31.507 28.9345 32.5199C39.6384 38.2482 50.3229 44.0113 61.0075 49.7706C61.1583 49.8521 61.2627 50.0268 61.572 50.3566V50.3528Z" fill="white"/>
<path d="M65.1954 48.3775C61.9007 42.7385 62.736 35.5511 67.0284 33.6805C64.0044 38.4928 65.8373 42.3776 68.9889 46.1692C67.6703 46.9377 66.4792 47.6285 65.1954 48.3775Z" fill="white"/>
</g>
<defs>
<linearGradient id="paint0_linear_751_3336" x1="130" y1="6.5" x2="14.5" y2="135" gradientUnits="userSpaceOnUse">
<stop stop-color="#EA676C"/>
<stop offset="1" stop-color="#C6252B"/>
</linearGradient>
<clipPath id="clip0_751_3336">
<rect width="92" height="76" fill="white" transform="translate(24 32)"/>
</clipPath>
</defs>
</svg>
