<svg width="140" height="140" viewBox="0 0 140 140" fill="none" xmlns="http://www.w3.org/2000/svg">
<g clip-path="url(#clip0_2716_1664)">
<rect width="140" height="140" rx="30" fill="#E02A63"/>
<g clip-path="url(#clip1_2716_1664)">
<path d="M77.5853 34.1382C77.9327 34.1008 78.7921 33.935 78.9144 34.356L78.5165 56.7982C78.6828 57.0306 78.7285 56.9347 78.929 56.8859C82.8329 55.9188 86.246 54.7729 90.4222 55.0069C111.556 56.1968 117.464 85.2707 103.21 98.2366C92.3986 108.07 74.5865 106.606 63.7978 97.554C63.9821 96.4828 64.2903 95.423 64.4208 94.3405C64.698 92.0275 64.5773 89.817 64.5789 87.5381C64.5887 79.7426 64.3735 71.9617 64.2528 64.1841C64.1289 56.1903 64.6001 47.4227 63.7505 39.5476C63.6462 38.5756 63.4081 37.6003 63.2939 36.6267L63.5565 36.3926L77.5853 34.1382ZM78.3077 70.1282L78.3583 90.2022C83.1754 93.6432 90.3178 93.0597 94.2478 88.5052C98.1337 84.0028 98.5642 75.1118 93.92 70.9848C89.6329 67.1748 83.102 67.3894 78.3077 70.1282Z" fill="white"/>
<path d="M39.8968 103.666C39.6636 103.522 39.6718 103.342 39.6441 103.106C39.2967 100.156 39.6979 95.9903 39.6587 92.8744C39.543 83.6631 39.4223 74.3673 39.3179 65.1561C39.2869 62.3278 39.3359 59.4817 39.3522 56.6616C39.4696 56.6372 39.6751 56.4731 39.7338 56.4731H54.8894C55.2726 56.842 55.1601 57.6499 55.1405 58.183C54.5943 73.197 54.3187 88.2273 53.8295 103.261L53.5849 103.667H39.8968V103.666Z" fill="white"/>
<path d="M39 34.1739L39.3327 34C42.8468 36.3699 47.2725 37.2346 51.4683 37.4963C52.6489 37.5694 54.123 37.2508 55.1341 37.7417V51.0409C54.4622 51.4343 53.1153 51.3351 52.2836 51.2831C48.6553 51.0555 44.1807 49.7276 41.3678 47.387C40.9568 47.0456 39 45.0886 39 44.7164V34.1739Z" fill="white"/>
</g>
</g>
<defs>
<clipPath id="clip0_2716_1664">
<rect width="140" height="140" rx="30" fill="white"/>
</clipPath>
<clipPath id="clip1_2716_1664">
<rect width="72" height="71" fill="white" transform="translate(39 34)"/>
</clipPath>
</defs>
</svg>
