<svg width="140" height="140" viewBox="0 0 140 140" fill="none" xmlns="http://www.w3.org/2000/svg">
<rect width="140" height="140" rx="30" fill="#C7E337"/>
<g clip-path="url(#clip0_819_858)">
<path d="M29.263 59.0242C30.3636 58.9772 31.4195 59.0188 32.5188 59.0027C32.5333 59.2026 32.5557 59.3637 32.5557 59.5247C32.557 62.6689 32.5557 65.8132 32.5557 68.9574C32.5557 73.1269 32.5557 77.2964 32.553 81.4672C32.553 81.6202 32.5412 81.7732 32.5359 81.9155C32.2361 81.9973 23.1826 81.9946 22.8394 81.9128V78.7565C22.466 78.688 22.1175 78.7296 21.7743 78.7229C21.4245 78.7162 21.0734 78.7216 20.7237 78.7216C20.3765 78.7216 20.028 78.7216 19.6559 78.7216C19.6401 78.5002 19.6138 78.3136 19.6138 78.1271C19.6112 75.1506 19.6125 72.1741 19.6138 69.1963C19.6138 69.0876 19.6296 68.9789 19.6414 68.8246H22.8263V65.577C23.9164 65.522 24.9749 65.5582 26.0321 65.5515C27.092 65.5448 28.1519 65.5502 29.2354 65.5502C29.2499 65.4374 29.2696 65.3529 29.2696 65.2697C29.2696 63.3292 29.267 61.3901 29.2643 59.4496C29.2643 59.3194 29.2643 59.1892 29.2643 59.0228L29.263 59.0242ZM22.917 78.629H29.238V68.9131H22.917V78.629Z" fill="black"/>
<path d="M35.718 68.8125H38.9094V65.6307C39.2223 65.5327 44.8004 65.5099 45.4 65.5998C45.4237 66.6532 45.375 67.7161 45.4171 68.8138H48.5428C48.6374 69.1292 48.648 75.0137 48.5533 75.4311H38.9896C38.9488 76.5207 38.962 77.5608 38.9791 78.6384C39.1342 78.6437 39.2618 78.6531 39.3893 78.6531C41.25 78.6531 43.1107 78.6531 44.9727 78.6531C45.1002 78.6531 45.2278 78.6639 45.4013 78.6719C45.4066 79.7763 45.4079 80.8499 45.4053 81.9557H38.9173V78.7538C38.7923 78.7444 38.6977 78.7296 38.6043 78.7296C37.8048 78.7269 37.0066 78.7283 36.2071 78.7229C36.0467 78.7229 35.8863 78.6988 35.7153 78.6853V68.8152L35.718 68.8125ZM38.9948 72.0573C39.3985 72.1231 45.0765 72.1057 45.3264 72.0412V68.9158H38.9948V72.0573Z" fill="black"/>
<path d="M125.742 68.8984C123.608 68.8782 121.49 68.9091 119.351 68.8823V65.6132C119.614 65.5327 125.376 65.5166 125.782 65.6011C125.79 65.7072 125.805 65.8239 125.805 65.942C125.807 66.7673 125.805 67.5926 125.806 68.4166C125.806 68.536 125.817 68.6568 125.823 68.8219C126.37 68.8219 126.892 68.8205 127.414 68.8219C127.936 68.8232 128.458 68.8152 128.999 68.8286V81.9893C128.345 82.008 127.704 81.9973 127.062 81.9973C126.416 81.9973 125.771 81.9973 125.125 81.9973C124.49 81.9973 123.855 81.9973 123.221 81.9973C122.575 81.9973 121.93 82.0013 121.284 81.9973C120.644 81.9933 120.002 82.0134 119.338 81.9866V78.7471C119.201 78.739 119.087 78.7256 118.972 78.7256C118.162 78.7229 117.352 78.7229 116.542 78.7189C116.415 78.7189 116.286 78.7081 116.133 78.7001V75.3774H119.321V72.1419C119.477 72.1244 119.602 72.0976 119.727 72.0976C121.61 72.0976 123.492 72.0976 125.375 72.1003C125.491 72.1003 125.608 72.1003 125.743 72.1003V68.8984H125.742ZM119.439 75.4418C119.346 75.7303 119.343 78.3619 119.431 78.6303H125.74V75.4485C123.629 75.4069 121.531 75.4418 119.439 75.4418Z" fill="black"/>
<path d="M61.4835 68.8138C62.567 68.8178 63.6111 68.8219 64.6788 68.8259V81.9436C64.6025 81.9638 64.5407 81.9946 64.4789 81.9946C61.3401 81.9973 58.2 81.9973 55.0191 81.9973C54.9823 81.6189 55.0046 81.2659 55.0007 80.9143C54.9968 80.5574 55.0007 80.2004 54.9994 79.8435C54.9994 79.4878 54.9994 79.1336 54.9994 78.7296C54.6299 78.7269 54.2854 78.7229 53.9395 78.7202C53.5897 78.7189 53.2387 78.7175 52.8889 78.7175C52.5404 78.7175 52.1933 78.7175 51.8566 78.7175C51.7777 78.4612 51.7567 75.8014 51.829 75.3801C52.1643 75.3774 52.5102 75.3734 52.856 75.372C53.2058 75.372 53.5569 75.372 53.9067 75.3734C54.2551 75.3734 54.6036 75.3734 54.9902 75.3734V72.1406C55.1611 72.1245 55.2979 72.1016 55.4333 72.1016C57.294 72.0976 59.1547 72.0976 61.0166 72.0963C61.1363 72.0963 61.256 72.0963 61.3664 72.0963C61.4545 71.8306 61.4624 69.211 61.3743 68.8876H55.0178C54.9915 67.7657 55.0178 66.6801 54.9928 65.5488C57.1704 65.5488 59.3085 65.5448 61.4861 65.5515V68.8138H61.4835ZM55.0559 78.637H61.4335C61.4388 77.5742 61.4335 76.5234 61.4309 75.4391C60.8773 75.4391 60.3565 75.4391 59.8358 75.4391C59.3006 75.4391 58.7641 75.4391 58.2289 75.4391C57.7043 75.4391 57.1796 75.4337 56.6549 75.4391C56.1263 75.4458 55.5951 75.4002 55.0572 75.4619V78.6357L55.0559 78.637Z" fill="black"/>
<path d="M87.1766 81.9477C87.2055 80.8526 87.1318 79.7777 87.1897 78.6612H96.7968C96.8415 77.5796 96.8034 76.5382 96.8047 75.4499C95.7172 75.4123 94.66 75.4297 93.6041 75.4257C92.5469 75.4217 91.4883 75.4257 90.3903 75.4257V72.1875C89.3094 72.1473 88.264 72.1902 87.1752 72.162C87.17 71.0415 87.1463 69.9545 87.1963 68.8313H90.3982C90.3982 68.2636 90.3995 67.7322 90.3995 67.2008C90.3995 66.6774 90.3995 66.1554 90.3995 65.6065C90.4876 65.5891 90.5692 65.5622 90.652 65.5595C90.9255 65.5502 91.199 65.5475 91.4725 65.5475C94.1984 65.5475 96.923 65.5475 99.649 65.5502C99.7765 65.5502 99.9054 65.5649 100.064 65.5743C100.075 65.7273 100.092 65.8575 100.092 65.9863C100.093 66.8116 100.092 67.6369 100.092 68.4609C100.092 68.8903 100.089 68.893 99.6753 68.8943C96.7311 68.8943 93.7869 68.8943 90.8414 68.8943C90.723 68.8943 90.6047 68.8943 90.4626 68.8943V72.0976C90.5784 72.0976 90.6941 72.0976 90.8098 72.0976C92.6705 72.0976 94.5311 72.0949 96.3918 72.1003C96.8481 72.1016 96.8783 72.0238 96.8744 72.5941C96.8678 73.3966 96.8731 74.1991 96.8731 75.003C96.8731 75.1117 96.8731 75.2204 96.8731 75.3559C97.0217 75.3626 97.1387 75.372 97.2557 75.372C98.0881 75.372 98.9192 75.372 99.7515 75.372C100.075 75.372 100.092 75.3854 100.093 75.7035C100.095 76.5838 100.093 77.4655 100.091 78.3458C100.089 78.6988 100.061 78.7269 99.7134 78.7256C98.881 78.7243 98.05 78.7189 97.2176 78.7149C97.1216 78.7149 97.0243 78.7149 96.8849 78.7149C96.8626 79.2745 96.8783 79.8045 96.8757 80.3346C96.8731 80.8566 96.8757 81.38 96.8757 81.9436C96.6811 81.9557 96.5115 81.9745 96.3418 81.9745C94.2616 81.9745 92.1826 81.9745 90.1023 81.9718C89.2489 81.9718 88.3942 81.9705 87.5408 81.9665C87.4343 81.9665 87.3278 81.9544 87.1766 81.945V81.9477Z" fill="black"/>
<path d="M109.676 81.9584V78.7484C109.528 78.7363 109.402 78.7189 109.277 78.7189C108.478 78.7176 107.678 78.7202 106.88 78.7189C106.752 78.7189 106.625 78.7014 106.464 78.6894V68.8957H103.311C103.226 68.6072 103.202 66.0252 103.274 65.5931C103.402 65.5797 103.539 65.5528 103.677 65.5515C104.464 65.5475 105.253 65.5488 106.041 65.5488H106.439C106.449 65.424 106.463 65.318 106.463 65.212C106.463 63.305 106.461 61.3981 106.459 59.4912C106.459 59.3489 106.459 59.2067 106.459 59.0349C106.639 59.0242 106.788 59.0067 106.937 59.0067C107.747 59.0027 108.557 58.9973 109.367 59.0013C109.72 59.0027 109.732 59.0228 109.731 59.3838C109.727 61.3793 109.723 63.3762 109.72 65.3717C109.72 65.4146 109.728 65.4576 109.736 65.5327C109.847 65.5408 109.952 65.5528 110.057 65.5528C110.877 65.5528 111.699 65.5515 112.52 65.5502C112.563 65.5502 112.608 65.5488 112.651 65.5502C112.924 65.5636 112.954 65.5877 112.958 65.8628C112.963 66.3084 112.959 66.7552 112.959 67.2008C112.959 67.6463 112.962 68.0932 112.958 68.5387C112.955 68.8568 112.93 68.8876 112.62 68.889C111.799 68.8943 110.977 68.8917 110.157 68.8917C110.037 68.8917 109.918 68.8917 109.82 68.8917C109.79 68.9172 109.781 68.9239 109.773 68.9319C109.766 68.94 109.756 68.948 109.754 68.9574C109.747 69.0124 109.735 69.0675 109.735 69.1225C109.733 72.2332 109.732 75.3452 109.732 78.4559C109.732 78.4988 109.747 78.5431 109.761 78.6276C109.872 78.6343 109.987 78.6464 110.102 78.6464C110.901 78.6478 111.701 78.6464 112.499 78.6464C112.587 78.6464 112.674 78.6464 112.762 78.6505C112.878 78.6572 112.942 78.7216 112.952 78.8383C112.959 78.9162 112.962 78.994 112.962 79.0718C112.962 79.8971 112.96 80.7225 112.958 81.5478C112.958 81.6256 112.956 81.7034 112.952 81.7813C112.946 81.9168 112.875 81.9812 112.741 81.9759C112.566 81.9691 112.391 81.9597 112.216 81.9611C111.449 81.9638 110.683 81.9691 109.918 81.9718C109.853 81.9718 109.79 81.9624 109.674 81.953L109.676 81.9584Z" fill="black"/>
<path d="M71.0985 62.3361H67.8887V59.0295C68.0544 59.0201 68.2121 59.0027 68.3713 59.004C70.0136 59.0067 71.656 59.0121 73.2984 59.0161C73.5062 59.0161 73.7139 59.004 73.923 59.0067C74.0519 59.0081 74.1794 59.0255 74.3254 59.0376V81.9047C74.069 81.9987 71.4864 82.0161 71.0985 81.9222V62.3361Z" fill="black"/>
<path d="M10 68.8487V65.6213C10.3471 65.5139 16.1369 65.5153 16.4486 65.6226V81.9705C15.9094 82.0309 15.3769 81.9665 14.8469 81.9799C14.3144 81.9933 13.7805 81.9826 13.2124 81.9826C13.152 79.7831 13.1861 77.6118 13.1822 75.4418C13.1783 73.2718 13.1822 71.1005 13.1822 68.9104C13.0665 68.9037 12.9718 68.8943 12.8758 68.8943C12.0553 68.8943 11.2334 68.8957 10.4129 68.893C10.2761 68.893 10.1394 68.8648 10 68.8501V68.8487Z" fill="black"/>
<path d="M83.9873 65.5877V81.902C83.7125 81.9893 81.1036 82.0054 80.7525 81.9208C80.746 77.5957 80.7617 73.2638 80.742 68.8957H77.5361V65.5958C77.6729 65.581 77.811 65.5515 77.949 65.5515C79.8202 65.5488 81.6927 65.5488 83.5639 65.5515C83.6928 65.5515 83.8216 65.573 83.9873 65.5891V65.5877Z" fill="black"/>
<path d="M16.4461 62.3308C15.3731 62.3415 14.3172 62.3308 13.2192 62.3388C13.1877 61.2303 13.1785 60.1474 13.2074 59.0725C13.4835 58.9933 16.1095 58.9879 16.4461 59.0617V62.3308Z" fill="black"/>
<path d="M83.9825 59.0711V62.312H80.8056C80.7319 62.0865 80.7096 59.5193 80.7753 59.0604C81.0212 58.9933 83.7142 58.9973 83.9825 59.0698V59.0711Z" fill="black"/>
</g>
<defs>
<clipPath id="clip0_819_858">
<rect width="119" height="23" fill="white" transform="translate(10 59)"/>
</clipPath>
</defs>
</svg>
