<svg width="140" height="140" viewBox="0 0 140 140" fill="none" xmlns="http://www.w3.org/2000/svg">
<rect width="140" height="140" rx="30" fill="white"/>
<g clip-path="url(#clip0_832_766)">
<path d="M69.5895 57C84.9231 57 100.257 57 115.591 57C118.921 57 121.98 57.8595 124.565 60.0027C127.564 62.4885 128.975 65.7345 128.999 69.5929C129.013 71.8942 128.65 74.1216 127.54 76.1673C125.487 79.9528 122.255 82.1187 118.004 82.7927C117.068 82.9413 116.107 82.9896 115.157 82.9905C84.6331 83 54.1079 82.9981 23.5836 82.9991C20.1106 82.9991 16.9448 82.0808 14.3124 79.7711C11.3117 77.1404 9.94538 73.7562 10.0017 69.8135C10.0522 66.2949 11.2582 63.208 13.7905 60.707C15.9668 58.5572 18.6556 57.4364 21.6868 57.1089C22.4892 57.0218 23.3031 57.0047 24.1122 57.0047C39.2713 56.9991 54.4304 57 69.5895 57ZM68.8491 81.8385C69.0752 81.8385 69.2107 81.8385 69.3452 81.8385C84.7896 81.8385 100.233 81.8432 115.677 81.8262C116.608 81.8252 117.551 81.7258 118.464 81.5488C126.323 80.0238 130.041 71.6443 126.912 64.9526C124.771 60.3719 120.889 58.1255 115.891 58.1C100.384 58.0205 84.8764 58.0706 69.369 58.0706H68.8052C79.3969 62.9136 78.7376 77.7396 68.8491 81.8385ZM44.6058 75.7829H47.3069C47.3069 75.5993 47.3069 75.4308 47.3069 75.2632C47.3069 73.7202 47.304 72.1763 47.3097 70.6333C47.3107 70.3512 47.3231 70.0644 47.3737 69.787C47.5655 68.7372 48.5034 68.0216 49.571 68.0897C50.6778 68.1617 51.2875 68.7836 51.3877 69.9517C51.4039 70.1392 51.4058 70.3294 51.4067 70.5178C51.4077 72.1081 51.4067 73.6985 51.4087 75.2897C51.4087 75.4573 51.4239 75.6248 51.4306 75.7791H54.1441V75.2178C54.1441 73.5801 54.1441 71.9425 54.1441 70.3048C54.1441 69.5901 54.3636 68.9606 54.9609 68.527C55.6583 68.0206 56.4321 67.9392 57.2107 68.3084C57.9578 68.6624 58.2068 69.3487 58.2163 70.1089C58.2383 71.8251 58.223 73.5423 58.2249 75.2585C58.2249 75.4393 58.2411 75.6192 58.2488 75.7867H60.9165C60.9165 73.4202 60.989 71.0886 60.8907 68.7647C60.8258 67.2188 59.6752 66.0213 58.1448 65.7042C56.3415 65.3303 54.6985 65.5802 53.5173 67.1772C51.61 65.1097 49.696 65.0009 47.3231 66.8231C47.3069 66.4899 47.2907 66.1718 47.2744 65.8472H44.6029V75.7839L44.6058 75.7829ZM41.9056 75.8066C41.9275 75.711 41.9476 75.6665 41.9476 75.622C41.9495 73.4325 41.9982 71.241 41.9314 69.0534C41.8894 67.6864 41.1957 66.63 39.9372 65.9939C38.1292 65.0804 35.8908 65.5471 34.598 67.0958C34.5722 67.127 34.5207 67.1384 34.4739 67.163C33.745 66.1529 32.7441 65.6474 31.5181 65.5679C30.2873 65.4884 29.2234 65.8651 28.3122 66.9036V65.8112C27.5442 65.8112 26.8171 65.833 26.092 65.8027C25.6827 65.7856 25.5901 65.9352 25.5911 66.3157C25.6044 69.3241 25.5977 72.3334 25.5997 75.3418C25.5997 75.4914 25.6226 75.6409 25.634 75.7858H28.3265C28.3265 75.5633 28.3265 75.3778 28.3265 75.1913C28.3265 73.5054 28.3113 71.8204 28.3332 70.1344C28.3485 68.9701 29.2215 68.1333 30.4046 68.0878C31.562 68.0433 32.2785 68.7221 32.393 69.9763C32.4083 70.1486 32.4092 70.3228 32.4092 70.4951C32.4102 72.0864 32.4092 73.6776 32.4111 75.268C32.4111 75.4365 32.4254 75.604 32.434 75.7952H35.1247C35.1332 75.6116 35.1476 75.4431 35.1485 75.2746C35.1514 74.5031 35.1485 73.7306 35.1495 72.9591C35.1495 72.0144 35.1256 71.0678 35.159 70.124C35.201 68.9237 36.1064 68.0793 37.2877 68.0869C38.4364 68.0944 39.1654 68.8498 39.2283 70.1003C39.235 70.2262 39.2312 70.3521 39.2312 70.478C39.2312 72.0693 39.2312 73.6606 39.2322 75.2509C39.2322 75.4317 39.2503 75.6125 39.2608 75.8038H41.9066L41.9056 75.8066ZM63.089 70.8046C63.089 73.8405 65.4037 76.0877 68.5361 76.0896C71.6418 76.0915 73.988 73.8386 73.9899 70.8529C73.9918 67.7934 71.7047 65.5651 68.5609 65.5622C65.3932 65.5584 63.09 67.766 63.09 70.8046H63.089ZM22.8527 75.8246V65.8405H20.2079V75.8246C20.9636 75.8246 21.6763 75.8246 22.389 75.8246C22.5293 75.8246 22.6705 75.8246 22.8527 75.8246ZM19.7242 62.5832C19.7242 63.5535 20.4922 64.3146 21.4712 64.3155C22.4453 64.3155 23.2201 63.545 23.2172 62.5775C23.2144 61.6129 22.4329 60.8367 21.4664 60.8376C20.4961 60.8395 19.7242 61.6129 19.7242 62.5822V62.5832Z" fill="black"/>
<path d="M68.8491 81.8385C78.7376 77.7396 79.3969 62.9135 68.8052 58.0706H69.3691C84.8764 58.0706 100.385 58.0204 115.891 58.1C120.889 58.1255 124.771 60.3719 126.912 64.9526C130.041 71.6443 126.323 80.0238 118.464 81.5488C117.551 81.7258 116.607 81.8252 115.677 81.8262C100.233 81.8432 84.7896 81.8385 69.3452 81.8385C69.2107 81.8385 69.0752 81.8385 68.8491 81.8385ZM77.3264 65.7828C77.3541 65.9645 77.3541 66.0753 77.3885 66.1737C78.4676 69.3165 79.5448 72.4603 80.6449 75.5955C80.6973 75.746 80.9511 75.9173 81.1181 75.924C81.911 75.958 82.7058 75.9287 83.4996 75.9448C83.7963 75.9505 83.9223 75.816 84.0043 75.5595C84.2581 74.7643 84.5243 73.9739 84.7877 73.1816C85.2018 71.9358 85.6168 70.6891 86.049 69.3903C86.1063 69.4935 86.1349 69.5305 86.1492 69.573C86.7999 71.5307 87.4564 73.4864 88.0908 75.4487C88.2044 75.8009 88.358 75.9647 88.7559 75.9486C89.5173 75.9173 90.2806 75.9249 91.0429 75.9457C91.373 75.9552 91.5228 75.8255 91.622 75.5264C92.6449 72.4479 93.6782 69.3733 94.7067 66.2968C94.7544 66.1529 94.7811 66.0024 94.8384 65.7714C93.9988 65.7714 93.225 65.7951 92.454 65.7619C92.0295 65.7439 91.8386 65.8888 91.7184 66.2939C91.1278 68.2866 90.5086 70.2698 89.898 72.2567C89.8703 72.3476 89.8273 72.4328 89.7672 72.5795C89.7119 72.4205 89.6795 72.3315 89.6499 72.2425C88.9906 70.2546 88.3246 68.2686 87.6806 66.276C87.5594 65.902 87.3857 65.7392 86.9726 65.7629C86.3553 65.7979 85.7323 65.8036 85.1159 65.7619C84.656 65.7307 84.4814 65.9229 84.3535 66.3318C83.7687 68.2109 83.1542 70.0804 82.5483 71.9538C82.4997 72.1034 82.4415 72.2492 82.3528 72.4934C82.2736 72.27 82.2344 72.1687 82.202 72.0646C81.599 70.1249 81.0008 68.1834 80.3863 66.2476C80.3319 66.0753 80.1754 65.8074 80.0571 65.8026C79.1603 65.7648 78.2615 65.7818 77.3274 65.7818L77.3264 65.7828ZM98.4984 71.8591C98.6682 71.8516 98.839 71.8374 99.0089 71.8364C100.724 71.8345 102.441 71.8355 104.156 71.8355C105.73 71.8355 105.767 71.8326 105.631 70.2698C105.463 68.3188 104.626 66.7398 102.723 65.9532C100.77 65.1457 98.8486 65.3076 97.2208 66.6906C95.3641 68.2677 95.0664 70.3853 95.6513 72.6098C96.2066 74.7208 97.7017 75.8833 99.879 76.1426C101.65 76.3537 103.287 75.9997 104.726 74.8997C105.001 74.6896 105.043 74.5163 104.784 74.2569C104.405 73.8764 104.047 73.4741 103.696 73.068C103.513 72.8578 103.364 72.8446 103.135 73.0112C102.333 73.5972 101.425 73.8092 100.436 73.7136C99.38 73.6114 98.5719 72.8616 98.4984 71.8591ZM119.374 72.9288C118.871 73.1343 118.459 73.3472 118.021 73.4722C116.811 73.8177 116.051 73.2497 116.035 72.004C116.022 70.9494 116.045 69.894 116.025 68.8385C116.017 68.4447 116.163 68.3103 116.551 68.3188C117.408 68.3368 118.267 68.3169 119.124 68.3254C119.438 68.3282 119.586 68.2298 119.573 67.8899C119.551 67.34 119.554 66.7871 119.573 66.2371C119.585 65.8926 119.46 65.7591 119.106 65.7676C118.312 65.7856 117.518 65.7761 116.723 65.7714C115.871 65.7667 115.946 65.8708 115.943 64.9743C115.94 64.3912 115.934 63.809 115.945 63.2259C115.95 62.9211 115.859 62.7517 115.514 62.7583C114.864 62.7715 114.212 62.7706 113.561 62.7583C113.228 62.7526 113.118 62.8974 113.126 63.2155C113.141 63.8611 113.131 64.5067 113.13 65.1523C113.13 65.5638 112.922 65.7698 112.507 65.7705C111.227 65.7733 111.209 65.7733 111.233 67.0361C111.26 68.4645 110.891 68.3386 112.593 68.3027C113.016 68.2942 113.147 68.3907 113.139 68.8139C113.117 70.0729 113.1 71.3347 113.148 72.5928C113.2 73.972 113.645 75.213 115.021 75.799C116.798 76.5563 118.531 76.2799 120.161 75.2992C120.261 75.2386 120.372 75.0199 120.335 74.9366C120.038 74.2626 119.705 73.6038 119.376 72.925L119.374 72.9288ZM110.05 68.9303C110.05 66.8032 110.039 64.6762 110.059 62.5491C110.063 62.107 109.916 61.965 109.485 61.9868C108.946 62.0152 108.405 61.9925 107.865 61.9934C107.242 61.9953 107.24 61.9963 107.239 62.6362C107.238 65.3464 107.239 68.0566 107.239 70.7667C107.239 72.2482 107.239 73.7287 107.239 75.2102C107.239 75.8501 107.242 75.8511 107.858 75.853C108.398 75.8539 108.941 75.8246 109.478 75.8615C109.955 75.8946 110.062 75.7034 110.059 75.2632C110.039 73.1522 110.05 71.0403 110.05 68.9293V68.9303Z" fill="#F6AD00"/>
<path d="M44.606 75.7829V65.8462H47.2775C47.2937 66.1709 47.309 66.489 47.3262 66.8222C49.6981 64.9999 51.613 65.1088 53.5203 67.1762C54.7025 65.5783 56.3455 65.3294 58.1478 65.7033C59.6782 66.0204 60.8289 67.2179 60.8938 68.7637C60.9911 71.0886 60.9195 73.4192 60.9195 75.7858H58.2518C58.2442 75.6182 58.228 75.4384 58.228 75.2576C58.226 73.5413 58.2413 71.8241 58.2194 70.1079C58.2098 69.3478 57.9608 68.6615 57.2137 68.3074C56.4342 67.9382 55.6604 68.0197 54.9639 68.5261C54.3666 68.9597 54.1472 69.5892 54.1472 70.3039C54.1472 71.9415 54.1472 73.5792 54.1472 75.2168V75.7782H51.4337C51.426 75.6239 51.4117 75.4563 51.4117 75.2888C51.4098 73.6985 51.4117 72.1081 51.4098 70.5169C51.4098 70.3285 51.4069 70.1382 51.3907 69.9508C51.2905 68.7826 50.6808 68.1607 49.5741 68.0888C48.5064 68.0197 47.5685 68.7353 47.3767 69.7861C47.3262 70.0625 47.3138 70.3493 47.3128 70.6323C47.3071 72.1753 47.3099 73.7193 47.3099 75.2623C47.3099 75.4298 47.3099 75.5983 47.3099 75.782H44.6088L44.606 75.7829Z" fill="white"/>
<path d="M41.9058 75.8056H39.2601C39.2496 75.6144 39.2314 75.4336 39.2314 75.2528C39.2295 73.6615 39.2305 72.0703 39.2305 70.4799C39.2305 70.354 39.2343 70.2272 39.2276 70.1022C39.1647 68.8517 38.4357 68.0963 37.2869 68.0888C36.1067 68.0812 35.2012 68.9256 35.1583 70.1259C35.1249 71.0697 35.1497 72.0163 35.1488 72.961C35.1488 73.7325 35.1497 74.505 35.1478 75.2765C35.1478 75.445 35.1325 75.6135 35.1239 75.7971H32.4333C32.4247 75.6059 32.4114 75.4374 32.4104 75.2699C32.4085 73.6786 32.4104 72.0873 32.4085 70.497C32.4085 70.3237 32.4085 70.1496 32.3923 69.9782C32.2788 68.7239 31.5622 68.0443 30.4039 68.0897C29.2218 68.1351 28.3487 68.972 28.3325 70.1363C28.3106 71.8213 28.3258 73.5072 28.3258 75.1932C28.3258 75.3787 28.3258 75.5652 28.3258 75.7877H25.6333C25.6218 75.6428 25.5989 75.4933 25.5989 75.3437C25.597 72.3353 25.6037 69.326 25.5904 66.3176C25.5885 65.9371 25.681 65.7866 26.0913 65.8046C26.8164 65.8358 27.5434 65.8131 28.3115 65.8131V66.9055C29.2227 65.8661 30.2866 65.4903 31.5174 65.5698C32.7434 65.6493 33.7443 66.1548 34.4732 67.1649C34.52 67.1402 34.5706 67.1289 34.5973 67.0976C35.8901 65.549 38.1285 65.0823 39.9365 65.9958C41.195 66.631 41.8887 67.6883 41.9307 69.0553C41.9974 71.2429 41.9488 73.4344 41.9469 75.6239C41.9469 75.6684 41.9268 75.7129 41.9049 75.8085L41.9058 75.8056Z" fill="white"/>
<path d="M63.0893 70.8037C63.0893 67.765 65.3935 65.5575 68.5603 65.5613C71.7041 65.5651 73.9911 67.7934 73.9892 70.852C73.9873 73.8376 71.6411 76.0915 68.5355 76.0887C65.404 76.0868 63.0884 73.8395 63.0884 70.8037H63.0893ZM68.5374 73.5252C70.0974 73.5252 71.1936 72.3997 71.1898 70.8018C71.187 69.2446 70.0831 68.1058 68.5593 68.0878C67.0194 68.0698 65.8925 69.2162 65.8897 70.8037C65.8868 72.4111 66.9717 73.5252 68.5374 73.5243V73.5252Z" fill="white"/>
<path d="M22.8528 75.8237C22.6706 75.8237 22.5294 75.8237 22.3891 75.8237C21.6764 75.8237 20.9637 75.8237 20.208 75.8237V65.8396H22.8528V75.8237Z" fill="white"/>
<path d="M19.7246 62.5832C19.7246 61.6129 20.4974 60.8395 21.4668 60.8386C22.4334 60.8367 23.2148 61.6129 23.2177 62.5785C23.2205 63.5459 22.4458 64.3174 21.4716 64.3165C20.4917 64.3165 19.7246 63.5544 19.7246 62.5841V62.5832Z" fill="white"/>
<path d="M77.3266 65.7828C78.2607 65.7828 79.1605 65.7658 80.0564 65.8036C80.1747 65.8084 80.3312 66.0763 80.3856 66.2485C81 68.1844 81.5982 70.1259 82.2012 72.0656C82.2337 72.1697 82.2738 72.271 82.352 72.4944C82.4407 72.2501 82.4999 72.1034 82.5476 71.9548C83.1525 70.0824 83.767 68.2118 84.3528 66.3328C84.4797 65.9248 84.6553 65.7326 85.1151 65.7629C85.7315 65.8046 86.3545 65.7989 86.9719 65.7639C87.385 65.7402 87.5586 65.903 87.6798 66.2769C88.3229 68.2696 88.9898 70.2556 89.6491 72.2435C89.6787 72.3325 89.7111 72.4205 89.7665 72.5805C89.8266 72.4338 89.8695 72.3486 89.8972 72.2577C90.5078 70.2717 91.1271 68.2876 91.7177 66.2949C91.8379 65.8907 92.0287 65.7449 92.4533 65.7629C93.2242 65.7961 93.998 65.7724 94.8376 65.7724C94.7804 66.0034 94.7537 66.1539 94.706 66.2978C93.6774 69.3743 92.6441 72.4489 91.6213 75.5274C91.5221 75.8265 91.3723 75.9562 91.0421 75.9467C90.2808 75.9259 89.5165 75.9183 88.7551 75.9496C88.3572 75.9656 88.2036 75.8019 88.0901 75.4497C87.4556 73.4874 86.7992 71.5317 86.1484 69.574C86.1341 69.5324 86.1055 69.4955 86.0483 69.3913C85.616 70.6901 85.201 71.9359 84.7869 73.1826C84.5236 73.9749 84.2574 74.7653 84.0036 75.5605C83.9215 75.817 83.7956 75.9524 83.4989 75.9458C82.705 75.9297 81.9102 75.959 81.1174 75.9249C80.9504 75.9174 80.6975 75.747 80.6441 75.5965C79.544 72.4612 78.4668 69.3175 77.3877 66.1747C77.3534 66.0753 77.3534 65.9655 77.3257 65.7837L77.3266 65.7828Z" fill="black"/>
<path d="M98.4988 71.8592C98.5723 72.8607 99.3804 73.6114 100.437 73.7136C101.425 73.8092 102.333 73.5972 103.136 73.0112C103.365 72.8437 103.514 72.8579 103.696 73.068C104.047 73.4741 104.406 73.8764 104.785 74.257C105.042 74.5164 105.001 74.6896 104.726 74.8997C103.288 75.9997 101.65 76.3538 99.8794 76.1427C97.7021 75.8833 96.206 74.7208 95.6517 72.6099C95.0668 70.3853 95.3645 68.2677 97.2212 66.6906C98.8499 65.3076 100.771 65.1457 102.724 65.9532C104.627 66.7398 105.464 68.3188 105.632 70.2698C105.766 71.8327 105.73 71.8355 104.157 71.8355C102.441 71.8355 100.725 71.8355 99.0092 71.8365C98.8394 71.8365 98.6686 71.8507 98.4988 71.8592ZM102.769 69.8031C102.612 68.6246 101.804 67.9496 100.643 67.978C99.5254 68.0055 98.661 68.7609 98.5818 69.8031H102.769Z" fill="black"/>
<path d="M119.374 72.9279C119.703 73.6067 120.036 74.2655 120.334 74.9395C120.371 75.0228 120.26 75.2415 120.159 75.3021C118.529 76.2818 116.796 76.5582 115.019 75.8019C113.643 75.2159 113.199 73.9749 113.146 72.5957C113.098 71.3376 113.116 70.0757 113.138 68.8167C113.145 68.3936 113.014 68.297 112.591 68.3056C110.89 68.3415 111.258 68.4674 111.231 67.039C111.207 65.7762 111.226 65.7762 112.505 65.7733C112.92 65.7727 113.127 65.5667 113.128 65.1552C113.128 64.5096 113.139 63.864 113.124 63.2184C113.117 62.9003 113.226 62.7555 113.559 62.7612C114.21 62.7725 114.862 62.7735 115.512 62.7612C115.857 62.7545 115.948 62.924 115.943 63.2288C115.932 63.811 115.938 64.3941 115.941 64.9772C115.945 65.8737 115.869 65.7695 116.721 65.7743C117.515 65.779 118.31 65.7875 119.104 65.7705C119.459 65.7629 119.584 65.8954 119.571 66.24C119.553 66.791 119.55 67.3428 119.571 67.8928C119.585 68.2327 119.436 68.3311 119.122 68.3283C118.264 68.3188 117.406 68.3396 116.549 68.3216C116.16 68.3131 116.015 68.4475 116.023 68.8413C116.043 69.8959 116.02 70.9514 116.033 72.0069C116.05 73.2526 116.809 73.8196 118.019 73.4751C118.457 73.3501 118.869 73.1371 119.372 72.9317L119.374 72.9279Z" fill="black"/>
<path d="M110.05 68.9303C110.05 71.0413 110.039 73.1532 110.059 75.2642C110.062 75.7044 109.956 75.8946 109.478 75.8624C108.94 75.8255 108.398 75.8549 107.858 75.8539C107.242 75.852 107.239 75.8511 107.239 75.2112C107.237 73.7297 107.239 72.2492 107.239 70.7677C107.239 68.0575 107.239 65.3473 107.239 62.6372C107.239 61.9972 107.242 61.9963 107.865 61.9944C108.405 61.9925 108.947 62.0152 109.485 61.9878C109.916 61.9651 110.063 62.108 110.06 62.5501C110.039 64.6771 110.05 66.8042 110.05 68.9313V68.9303Z" fill="black"/>
<path d="M68.5373 73.5252C66.9716 73.5252 65.8868 72.4111 65.8897 70.8046C65.8925 69.2162 67.0193 68.0708 68.5593 68.0888C70.083 68.1068 71.1869 69.2455 71.1898 70.8027C71.1936 72.4006 70.0973 73.5252 68.5373 73.5262V73.5252Z" fill="black"/>
<path d="M102.77 69.8031H98.5825C98.6617 68.7609 99.5261 68.0055 100.643 67.978C101.806 67.9496 102.613 68.6236 102.77 69.8031Z" fill="#F6AD00"/>
</g>
<defs>
<clipPath id="clip0_832_766">
<rect width="119" height="26" fill="white" transform="translate(10 57)"/>
</clipPath>
</defs>
</svg>
