<svg width="140" height="140" viewBox="0 0 140 140" fill="none" xmlns="http://www.w3.org/2000/svg">
<rect width="140" height="140" rx="30" fill="#1F56A9"/>
<g clip-path="url(#clip0_666_18741)">
<path d="M94.6237 31.7016C94.662 31.7465 94.7071 31.7815 94.7688 31.7882C94.783 31.8257 94.8081 31.8465 94.8498 31.844L94.8698 31.8548L94.8815 31.8782L94.9065 31.8757C94.9374 31.8948 94.9683 31.914 94.9991 31.9331C95.0108 31.9673 95.0333 31.9856 95.0709 31.9831L95.0801 31.9989L95.0984 31.9973C95.1243 32.0414 95.1585 32.0722 95.2144 32.0689C95.5732 32.3388 95.9512 32.5812 96.335 32.8128C96.3442 32.8444 96.3634 32.8611 96.3976 32.8594C96.4009 32.8778 96.411 32.8844 96.4285 32.8794C96.4535 32.9252 96.4869 32.9577 96.5428 32.9561L96.5495 32.9602C96.5603 32.9944 96.582 33.0127 96.6187 33.0119C96.6229 33.0302 96.6329 33.0369 96.6513 33.0319L96.6554 33.051L96.6688 33.0427C96.7013 33.0643 96.733 33.0868 96.7656 33.1085C96.7773 33.1443 96.8006 33.1651 96.8398 33.1635L96.8632 33.1776L96.8732 33.2018L96.8974 33.2001C96.9433 33.2609 97.0017 33.3034 97.0751 33.3267C97.0827 33.3576 97.1018 33.3742 97.1344 33.3726C97.1411 33.3934 97.1544 33.4025 97.1761 33.4009L97.1811 33.4142L97.1778 33.4042C97.2128 33.4284 97.2487 33.4517 97.2837 33.4758C97.2946 33.5117 97.3171 33.5325 97.3563 33.5325L97.3755 33.545C97.378 33.5708 97.3922 33.5816 97.4172 33.5758C97.4606 33.6316 97.514 33.6749 97.5833 33.6949C97.5925 33.7291 97.6142 33.7482 97.6509 33.7482L97.6592 33.7657H97.6784L97.6859 33.7882L97.7085 33.7857C97.7535 33.8474 97.8102 33.8915 97.8837 33.9148C97.892 33.9473 97.912 33.9648 97.9463 33.9648C97.9488 33.9831 97.9596 33.9906 97.978 33.9873L97.983 34.0081L98.0013 34.0031C98.0456 34.0656 98.1015 34.1123 98.1749 34.1364C98.1832 34.1706 98.2049 34.1897 98.2416 34.1906L98.2658 34.2081L98.275 34.2339L98.3017 34.2355C98.3443 34.293 98.396 34.3372 98.4653 34.3588C98.4753 34.3946 98.4978 34.4155 98.5362 34.4163L98.5545 34.4296C98.5604 34.4596 98.5779 34.4746 98.6088 34.4738C98.6155 34.4954 98.6305 34.5063 98.6538 34.5063L98.6572 34.5179L98.6522 34.5088C98.7047 34.5704 98.7648 34.6221 98.8424 34.6512C98.8499 34.6845 98.8699 34.7029 98.905 34.7037L98.9117 34.7212L98.9309 34.7229L98.9392 34.7478H98.9642C99.031 34.8328 99.1086 34.9036 99.2087 34.9461C99.2162 34.9802 99.2371 34.9986 99.273 34.9994L99.2972 35.0177C99.3005 35.0452 99.3164 35.0586 99.3447 35.0586C99.3522 35.0819 99.3681 35.0944 99.3931 35.096L99.3948 35.106L99.3889 35.0985C99.4415 35.1593 99.4991 35.2127 99.5767 35.241C99.5842 35.276 99.6059 35.2951 99.6418 35.2968L99.6618 35.3126C99.666 35.3434 99.6835 35.3593 99.7152 35.3601C99.7177 35.3793 99.7294 35.3884 99.7486 35.3868L99.7527 35.4076L99.7711 35.4034C99.8637 35.515 99.9689 35.6117 100.097 35.6808C100.104 35.7141 100.123 35.7316 100.157 35.7333L100.163 35.7508L100.182 35.7533C100.186 35.7808 100.202 35.7949 100.229 35.7949C100.235 35.8174 100.249 35.8291 100.273 35.8299L100.275 35.8466L100.28 35.8357C100.377 35.9465 100.483 36.0482 100.611 36.1223C100.618 36.1573 100.638 36.1764 100.674 36.1789L100.692 36.1948C100.696 36.2264 100.715 36.2439 100.747 36.2456C100.747 36.2639 100.757 36.2714 100.775 36.2689C100.777 36.2956 100.792 36.3089 100.82 36.3097C100.825 36.333 100.839 36.3447 100.863 36.3455V36.363L100.873 36.3547C100.99 36.4921 101.121 36.6129 101.273 36.7112C101.279 36.747 101.3 36.767 101.336 36.7695L101.351 36.7829C101.356 36.817 101.376 36.8353 101.41 36.8378L101.43 36.8562C101.432 36.8845 101.447 36.8995 101.475 36.9003C101.556 37.0086 101.657 37.0952 101.766 37.1719L101.757 37.1785L101.772 37.1752C101.791 37.1935 101.81 37.2119 101.829 37.2302V37.2393L101.824 37.2319C102.581 37.9924 103.337 38.7529 104.093 39.5126C104.093 39.5418 104.109 39.5568 104.138 39.5584C104.138 39.5584 104.156 39.5784 104.156 39.5776C104.158 39.6117 104.178 39.6301 104.211 39.6351L104.226 39.6517C104.229 39.6875 104.249 39.7075 104.284 39.7134C104.397 39.89 104.541 40.0382 104.696 40.179L104.701 40.2065L104.727 40.2157L104.731 40.2348L104.75 40.2407C104.752 40.274 104.769 40.2915 104.802 40.2965L104.817 40.314C104.819 40.3498 104.838 40.3714 104.874 40.3781C104.964 40.5255 105.082 40.6488 105.207 40.7663C105.205 40.7929 105.217 40.8063 105.244 40.8079L105.262 40.8288C105.263 40.8637 105.282 40.8846 105.317 40.8912C105.384 41.0178 105.479 41.1211 105.589 41.2119V41.2344L105.613 41.2403C105.61 41.2586 105.618 41.2686 105.636 41.2702C105.637 41.3036 105.655 41.3219 105.687 41.3277L105.7 41.3435C105.702 41.381 105.722 41.4035 105.758 41.4119C105.797 41.5093 105.867 41.5826 105.947 41.6484C105.943 41.6743 105.955 41.6884 105.982 41.6909L105.997 41.7109C105.998 41.7476 106.017 41.7692 106.053 41.7775C106.093 41.8758 106.163 41.9508 106.244 42.0174C106.239 42.0424 106.25 42.0558 106.276 42.0574L106.293 42.0791C106.294 42.1157 106.313 42.1366 106.348 42.1449C106.386 42.2407 106.455 42.3148 106.53 42.3831C106.528 42.4115 106.541 42.4281 106.57 42.4331C106.61 42.5331 106.678 42.6105 106.758 42.6797C106.754 42.7055 106.766 42.7197 106.793 42.7222L106.806 42.7413C106.806 42.7796 106.827 42.8021 106.863 42.8121C106.885 42.8821 106.929 42.9346 106.988 42.9771V43.0021L107.013 43.0112L107.03 43.0362C107.03 43.0729 107.049 43.0945 107.084 43.1045C107.104 43.1737 107.147 43.2261 107.202 43.2694C107.197 43.2944 107.207 43.3086 107.234 43.3119L107.247 43.3303C107.247 43.3694 107.267 43.3927 107.304 43.4036C107.32 43.4702 107.363 43.5177 107.414 43.5602C107.411 43.5902 107.426 43.606 107.454 43.6118C107.489 43.7093 107.554 43.7834 107.628 43.8534C107.625 43.8875 107.643 43.905 107.675 43.9125C107.745 44.0558 107.83 44.1891 107.944 44.3015V44.3282L107.97 44.3399C107.994 44.4157 108.038 44.479 108.101 44.5273L108.096 44.5473L108.118 44.5539V44.5731L108.135 44.5814C108.134 44.6189 108.154 44.6414 108.189 44.6522C108.201 44.7197 108.245 44.7664 108.293 44.8105C108.29 44.8438 108.307 44.8613 108.337 44.8696C108.349 44.9371 108.392 44.9854 108.439 45.0312C108.436 45.0654 108.453 45.0837 108.484 45.0921C108.496 45.1595 108.539 45.207 108.585 45.252C108.582 45.2861 108.6 45.3053 108.631 45.3136C108.642 45.3803 108.685 45.4269 108.731 45.4727C108.728 45.5077 108.746 45.5269 108.778 45.536C109.062 46.0059 109.349 46.4748 109.632 46.9463C110.609 48.5732 111.475 50.2567 112.237 51.9943C112.276 52.0834 112.326 52.1667 112.371 52.2534L112.366 52.2817L112.391 52.3C112.422 52.3916 112.45 52.4858 112.487 52.5749C113.321 54.5641 114.012 56.6008 114.552 58.6891C114.907 60.0636 115.197 61.4514 115.42 62.8541C115.554 63.688 115.662 64.5251 115.754 65.364C115.823 65.9962 115.873 66.6318 115.907 67.2666C115.974 68.5377 116.024 69.8105 115.986 71.0842C115.974 71.5124 115.949 71.9405 115.932 72.3679C115.929 72.4528 115.934 72.5386 115.936 72.6244C115.901 72.6952 115.893 72.7677 115.925 72.8418C115.879 73.3416 115.833 73.8423 115.787 74.3421C115.692 75.3675 115.556 76.3879 115.387 77.4034C115.123 78.9869 114.775 80.5529 114.342 82.099C113.773 84.1307 113.064 86.1132 112.215 88.0458C110.808 91.247 109.047 94.2417 106.939 97.033C106.518 97.5903 106.073 98.1301 105.639 98.6782C105.602 98.7257 105.57 98.7782 105.536 98.8282C105.503 98.834 105.483 98.8523 105.483 98.8873C105.181 99.2363 104.88 99.5854 104.578 99.9344C104.546 99.9394 104.526 99.9569 104.526 99.991C104.264 100.258 103.997 100.521 103.768 100.818C103.733 100.824 103.713 100.844 103.71 100.88C103.215 101.371 102.72 101.863 102.226 102.355C102.122 102.458 102.021 102.565 101.919 102.67C101.885 102.67 101.87 102.688 101.866 102.721L101.853 102.733C101.816 102.737 101.795 102.757 101.789 102.793C101.514 102.998 101.278 103.244 101.034 103.482C101.002 103.482 100.986 103.5 100.983 103.53L100.968 103.543C100.931 103.545 100.91 103.566 100.903 103.602C100.537 103.909 100.171 104.215 99.8053 104.523C97.6651 106.318 95.3704 107.889 92.9348 109.256C91.0274 110.325 89.0515 111.249 87.008 112.031C86.9171 112.066 86.8286 112.11 86.7393 112.149C86.6793 112.141 86.6325 112.163 86.595 112.209C86.363 112.259 86.1419 112.342 85.9283 112.444C85.8682 112.435 85.819 112.454 85.7814 112.502C85.7564 112.509 85.7314 112.514 85.7072 112.521C85.6488 112.512 85.6029 112.534 85.5653 112.578C85.5386 112.584 85.5119 112.592 85.4852 112.599C85.4285 112.589 85.3859 112.613 85.3492 112.653C85.3209 112.659 85.2925 112.666 85.2641 112.673C85.2074 112.663 85.1632 112.685 85.1264 112.726C85.0989 112.733 85.0714 112.738 85.0438 112.745C84.9863 112.735 84.9404 112.756 84.9028 112.798C84.8761 112.804 84.8494 112.811 84.8235 112.817C84.7651 112.807 84.7184 112.828 84.68 112.871C84.6542 112.877 84.6283 112.883 84.6024 112.888C84.5432 112.878 84.4948 112.899 84.4556 112.943C84.4305 112.949 84.4063 112.954 84.3813 112.96C84.3204 112.95 84.2695 112.969 84.2278 113.014C84.1802 113.025 84.1318 113.036 84.0843 113.046C84.045 113.036 84.0158 113.05 83.9941 113.083C83.9508 113.092 83.9074 113.102 83.864 113.112C83.8056 113.101 83.758 113.121 83.718 113.163C83.6929 113.168 83.6687 113.173 83.6437 113.179C83.5811 113.169 83.5277 113.185 83.4843 113.232C83.4384 113.242 83.3925 113.252 83.3466 113.262C83.2899 113.252 83.2448 113.272 83.2065 113.312C83.1798 113.317 83.1539 113.322 83.1272 113.327C83.0646 113.317 83.0112 113.332 82.967 113.379C82.9219 113.388 82.876 113.397 82.831 113.407C82.7717 113.395 82.7225 113.412 82.6825 113.457C82.6332 113.466 82.584 113.476 82.5348 113.486C82.4789 113.474 82.4346 113.495 82.3971 113.533C82.3704 113.538 82.3437 113.543 82.317 113.548C82.2552 113.537 82.201 113.552 82.1576 113.599C82.1126 113.607 82.0675 113.616 82.0224 113.623C81.9607 113.611 81.9056 113.625 81.8614 113.671C81.8172 113.679 81.7721 113.687 81.7279 113.695C81.6645 113.683 81.6086 113.696 81.5627 113.744C81.5193 113.751 81.4767 113.76 81.4334 113.767C81.3524 113.754 81.2798 113.773 81.2164 113.826C81.1905 113.831 81.1647 113.835 81.1388 113.84C81.0554 113.828 80.9778 113.841 80.9118 113.896C80.8643 113.904 80.8167 113.911 80.77 113.919C80.7074 113.906 80.6507 113.919 80.6048 113.965C80.5622 113.972 80.5188 113.98 80.4763 113.986C80.392 113.975 80.3136 113.986 80.246 114.043C80.1993 114.05 80.1534 114.058 80.1066 114.065C80.024 114.051 79.9498 114.067 79.883 114.119C79.8346 114.125 79.7862 114.132 79.7378 114.139C79.6369 114.125 79.5426 114.144 79.4566 114.198C79.4283 114.202 79.3991 114.206 79.3707 114.21C79.2864 114.196 79.2063 114.205 79.1379 114.262C79.0928 114.269 79.0478 114.275 79.0027 114.281C78.8792 114.271 78.7599 114.287 78.6481 114.345C78.6189 114.349 78.5889 114.353 78.5597 114.356C78.4353 114.343 78.316 114.359 78.205 114.419C78.1758 114.422 78.1466 114.425 78.1174 114.429C77.9931 114.417 77.8729 114.433 77.7611 114.492C77.7077 114.498 77.6535 114.503 77.6001 114.508C77.495 114.493 77.394 114.5 77.3014 114.559C77.2288 114.566 77.157 114.573 77.0844 114.58C76.9785 114.566 76.8767 114.572 76.784 114.632C76.7123 114.639 76.6414 114.645 76.5696 114.651C76.4386 114.639 76.3093 114.636 76.1899 114.704C76.094 114.689 75.9997 114.699 75.9062 114.726C75.7761 114.713 75.6484 114.713 75.5291 114.778C75.4073 114.763 75.2871 114.773 75.1686 114.801C74.9517 114.785 74.7381 114.806 74.5278 114.863C74.4711 114.866 74.4152 114.869 74.3584 114.873C74.0655 114.857 73.776 114.873 73.4881 114.934C73.4097 114.938 73.3313 114.942 73.2528 114.945C72.8765 114.938 72.4985 114.914 72.1264 114.997C71.8969 114.994 71.6675 114.989 71.4372 114.99C70.8689 114.992 70.2999 114.996 69.7316 114.999C69.3628 114.923 68.989 114.939 68.616 114.945C68.5126 114.942 68.4099 114.938 68.3065 114.935C68.0194 114.875 67.7299 114.858 67.4379 114.875C67.2985 114.848 67.1583 114.833 67.0156 114.849C66.8921 114.782 66.7603 114.788 66.6268 114.802C66.5092 114.774 66.3907 114.762 66.2705 114.778C66.1504 114.711 66.0202 114.715 65.8892 114.728C65.7941 114.702 65.6981 114.694 65.6005 114.707C65.4828 114.64 65.3543 114.638 65.225 114.651C65.1549 114.644 65.0857 114.639 65.0156 114.632C64.9213 114.569 64.817 114.569 64.7102 114.581C64.6384 114.574 64.5667 114.567 64.4949 114.56C64.4023 114.5 64.2996 114.494 64.1945 114.509C64.1227 114.501 64.051 114.494 63.9784 114.487C63.8858 114.426 63.784 114.417 63.6772 114.431C63.648 114.428 63.6196 114.424 63.5904 114.421C63.4786 114.362 63.3593 114.345 63.2349 114.359C63.1874 114.353 63.1398 114.347 63.0923 114.341C63.0255 114.29 62.9496 114.275 62.8678 114.29C62.7994 114.281 62.731 114.272 62.6625 114.263C62.5924 114.204 62.5098 114.199 62.4239 114.21C62.378 114.205 62.3329 114.198 62.2871 114.192C62.2186 114.135 62.1402 114.125 62.0559 114.138C62.0109 114.131 61.9666 114.125 61.9216 114.118C61.8532 114.06 61.7722 114.051 61.6871 114.063C61.6429 114.056 61.5987 114.05 61.5544 114.043C61.5094 113.998 61.4552 113.985 61.3942 113.998C61.3283 113.987 61.2632 113.976 61.1973 113.966C61.1489 113.915 61.0897 113.907 61.0246 113.918C60.9795 113.91 60.9353 113.903 60.8903 113.896C60.846 113.851 60.7918 113.838 60.7309 113.851C60.6825 113.842 60.6341 113.835 60.5849 113.826C60.5198 113.77 60.443 113.756 60.3604 113.767C60.3195 113.76 60.2795 113.752 60.2386 113.746C60.191 113.695 60.1309 113.685 60.0659 113.696C60.0233 113.688 59.9816 113.681 59.939 113.673C59.8931 113.623 59.8356 113.612 59.7713 113.623C59.7304 113.615 59.6895 113.606 59.6487 113.599C59.6245 113.566 59.5928 113.553 59.5519 113.561C59.5026 113.552 59.4534 113.542 59.4042 113.533C59.3641 113.491 59.3149 113.472 59.2565 113.484C59.2098 113.475 59.163 113.466 59.1163 113.457C59.0738 113.412 59.022 113.395 58.9611 113.406C58.9186 113.397 58.876 113.388 58.8334 113.379C58.8118 113.345 58.7817 113.332 58.7417 113.342C58.6933 113.332 58.6449 113.321 58.5965 113.311C58.5556 113.266 58.5055 113.248 58.4454 113.259C58.4029 113.25 58.3595 113.241 58.3161 113.232C58.2944 113.198 58.2644 113.184 58.2252 113.194C58.1776 113.183 58.13 113.172 58.0816 113.162C58.0408 113.116 57.989 113.098 57.9281 113.108C57.9031 113.103 57.8772 113.097 57.8522 113.092C57.8138 113.049 57.7662 113.029 57.7078 113.04C57.5927 112.993 57.4792 112.937 57.3499 112.94C57.3073 112.891 57.2522 112.875 57.1897 112.883L57.1605 112.865L57.1263 112.867C57.0845 112.819 57.0311 112.802 56.9694 112.811L56.9377 112.793L56.901 112.795C56.8609 112.748 56.8092 112.73 56.7483 112.739C56.7249 112.733 56.7015 112.728 56.6782 112.723C56.6381 112.676 56.5881 112.658 56.528 112.666C56.5046 112.66 56.4813 112.654 56.4579 112.648C56.4187 112.601 56.3678 112.582 56.3069 112.591L56.2752 112.574L56.2393 112.574C56.1992 112.525 56.1475 112.508 56.0857 112.515C55.8713 112.416 55.651 112.334 55.4191 112.284C55.3815 112.239 55.3348 112.217 55.2755 112.225C55.1345 112.15 54.9877 112.087 54.8283 112.063C54.7916 112.017 54.7457 111.995 54.6856 112.002C54.2 111.8 53.7135 111.601 53.2296 111.394C50.6671 110.3 48.2223 108.987 45.9035 107.443C45.8125 107.382 45.7149 107.332 45.6198 107.277C45.6081 107.242 45.5864 107.221 45.5464 107.225C45.493 107.191 45.4412 107.2 45.392 107.234C45.3553 107.228 45.3336 107.246 45.3202 107.277C44.878 107.453 44.4366 107.629 43.9944 107.805C43.9318 107.796 43.8792 107.814 43.8383 107.863L43.8033 107.861L43.7732 107.878C43.7098 107.87 43.6539 107.884 43.6097 107.933C43.5655 107.943 43.5204 107.952 43.4762 107.962C43.4178 107.951 43.3702 107.97 43.331 108.013C43.306 108.018 43.2818 108.023 43.2567 108.028C43.1942 108.018 43.1391 108.032 43.0949 108.08C43.0506 108.089 43.0056 108.097 42.9614 108.105C42.8996 108.094 42.8454 108.109 42.802 108.154C42.7569 108.163 42.7119 108.171 42.6668 108.179C42.6051 108.168 42.5508 108.182 42.5066 108.228C42.4616 108.235 42.4165 108.244 42.3723 108.251C42.2905 108.238 42.2162 108.254 42.1512 108.307C42.1019 108.314 42.0519 108.322 42.0026 108.329C41.9409 108.317 41.8866 108.329 41.8416 108.374C41.7974 108.381 41.754 108.388 41.7098 108.394C41.6246 108.383 41.5437 108.39 41.4745 108.448C41.4044 108.458 41.3351 108.468 41.265 108.478C41.2033 108.464 41.1465 108.473 41.0998 108.519C41.0322 108.528 40.9655 108.536 40.8979 108.545C40.7761 108.531 40.6601 108.552 40.5499 108.608C40.5182 108.611 40.4873 108.614 40.4556 108.618C40.3121 108.607 40.1744 108.629 40.0418 108.683C40.0076 108.687 39.9734 108.691 39.9391 108.694C39.794 108.682 39.6538 108.7 39.5186 108.755C39.4869 108.758 39.4552 108.761 39.4243 108.764C39.3142 108.752 39.2057 108.749 39.1072 108.814C38.9896 108.801 38.8744 108.814 38.7601 108.842C38.569 108.828 38.3821 108.848 38.1986 108.904C38.1652 108.907 38.1318 108.909 38.0976 108.911C37.8556 108.898 37.617 108.917 37.3817 108.976C37.3258 108.979 37.269 108.982 37.2131 108.986C37.1214 108.976 37.0279 108.956 36.9503 109.031C36.8969 108.996 36.8377 109.001 36.7784 109.005C36.5056 109.023 36.2327 109.042 35.9607 109.061C35.8455 109.051 35.7271 109.017 35.6253 109.106C35.5794 109.095 35.5335 109.072 35.4884 109.074C34.5539 109.11 33.6185 109.116 32.684 109.079C32.6381 109.077 32.5914 109.097 32.5446 109.107C32.417 109.019 32.2751 109.053 32.1358 109.06C32.084 109.058 32.0331 109.057 31.9814 109.056C31.545 108.977 31.1019 108.955 30.6622 108.913C30.6305 108.91 30.5988 108.907 30.5671 108.902C30.4578 108.845 30.3418 108.823 30.2191 108.837C30.1741 108.83 30.129 108.823 30.084 108.817C30.0397 108.773 29.9863 108.758 29.9263 108.771C29.8787 108.763 29.8303 108.754 29.7827 108.746C29.741 108.704 29.691 108.688 29.6317 108.699C29.5825 108.691 29.5341 108.682 29.4849 108.673C29.444 108.631 29.3956 108.612 29.3363 108.623C29.2921 108.613 29.2487 108.603 29.2045 108.594C29.1603 108.545 29.1035 108.531 29.0393 108.54L29.0076 108.523L28.9717 108.525C28.9317 108.477 28.8791 108.459 28.8182 108.468L28.7865 108.45L28.7506 108.451C28.7105 108.403 28.658 108.385 28.5971 108.393C28.5261 108.349 28.4552 108.305 28.3668 108.309C28.3309 108.267 28.2875 108.243 28.2291 108.251C28.1573 108.208 28.0864 108.161 27.9971 108.163C27.9621 108.119 27.9187 108.094 27.8603 108.099C27.8294 108.079 27.801 108.055 27.7677 108.041C26.9958 107.696 26.2766 107.266 25.6274 106.723C25.609 106.708 25.5848 106.702 25.5632 106.691C25.5556 106.655 25.5339 106.634 25.4964 106.631L25.483 106.619C25.4797 106.588 25.4639 106.569 25.4296 106.568C25.2561 106.379 25.0767 106.194 24.9106 105.999C24.6386 105.681 24.4117 105.333 24.2515 104.945C23.9102 104.121 23.9227 103.301 24.2832 102.487C24.5193 101.954 24.8681 101.499 25.2711 101.082C25.6558 100.685 26.0988 100.355 26.5194 99.9985C26.874 99.6978 27.2445 99.4154 27.5682 99.0797C27.5999 99.0797 27.6158 99.0631 27.6191 99.0322L27.635 99.0189C27.6725 99.0164 27.6934 98.9964 27.7001 98.9598C27.8119 98.8656 27.9295 98.7773 28.0355 98.6774C28.9233 97.8469 29.7736 96.9831 30.4937 95.9993C30.9292 95.4045 31.3139 94.7806 31.5709 94.0842C31.6902 93.7602 31.7728 93.4286 31.8045 93.0863C31.8412 92.6881 31.7761 92.3108 31.5734 91.9542C29.8837 88.9804 28.5887 85.8408 27.6367 82.5588C27.1927 81.0294 26.8331 79.48 26.5578 77.9115C26.3867 76.9352 26.2348 75.9548 26.1464 74.966C26.1356 74.8444 26.1055 74.7253 26.0847 74.6045C26.1122 74.5553 26.108 74.5078 26.0746 74.4637C26.0429 74.0122 26.0121 73.5599 25.9804 73.1084C25.9753 73.0351 25.9628 72.9626 25.9587 72.8893C25.8802 71.4199 25.8343 69.9488 25.8886 68.4777C25.9528 66.7501 26.1038 65.0299 26.36 63.3181C26.7564 60.6692 27.3805 58.0769 28.2408 55.5421C29.3555 52.255 30.8408 49.1421 32.6823 46.1983C34.8685 42.7038 37.4852 39.5668 40.5307 36.7887C44.6252 33.0535 49.2528 30.1638 54.4119 28.1255C54.8225 27.963 55.2346 27.8056 55.646 27.6465C55.7053 27.6557 55.752 27.634 55.7895 27.5899C56.0207 27.5524 56.2309 27.4491 56.4512 27.3766C56.8467 27.2475 57.2414 27.1134 57.6361 26.9818C57.6953 26.9926 57.7445 26.9734 57.7846 26.9293C57.808 26.9243 57.8322 26.9193 57.8555 26.9143C57.9181 26.9235 57.9723 26.9085 58.0157 26.8602C58.1451 26.8643 58.2577 26.8102 58.3729 26.7619C58.4329 26.7719 58.4822 26.7535 58.523 26.7094C58.5723 26.6985 58.6207 26.6886 58.6699 26.6777C58.7091 26.6877 58.7392 26.6752 58.7609 26.6411C58.8034 26.6327 58.846 26.6244 58.8885 26.6161C58.9503 26.6269 59.0037 26.6119 59.0471 26.5653C59.0929 26.5561 59.1388 26.5469 59.1847 26.5378C59.244 26.5494 59.2932 26.5311 59.3341 26.4886C59.3833 26.4786 59.4317 26.4686 59.4809 26.4586C59.5369 26.4703 59.5827 26.4511 59.6211 26.412C59.647 26.407 59.6737 26.4028 59.6996 26.3978C59.7805 26.4095 59.8539 26.3928 59.9173 26.3395C59.9682 26.3304 60.02 26.3212 60.0709 26.312C60.1276 26.3245 60.1743 26.307 60.2152 26.2671C60.2653 26.2587 60.3154 26.2496 60.3654 26.2412C60.4238 26.2537 60.4731 26.2371 60.5148 26.1954C60.5632 26.1871 60.6116 26.1779 60.6591 26.1696C60.7184 26.1821 60.7701 26.1654 60.8127 26.1229C60.8594 26.1154 60.9061 26.1088 60.952 26.1013C61.0163 26.1129 61.0738 26.103 61.1214 26.0538C61.1881 26.043 61.2549 26.0321 61.3225 26.0222C61.3826 26.0346 61.4351 26.0205 61.4793 25.9772C61.5244 25.9697 61.5703 25.963 61.6154 25.9555C61.698 25.9688 61.7731 25.953 61.839 25.8997C61.8874 25.893 61.9358 25.8864 61.9842 25.8797C62.0668 25.8939 62.1435 25.8814 62.2103 25.8272C62.2579 25.8206 62.3046 25.8139 62.3521 25.8072C62.4364 25.8197 62.5148 25.8114 62.5833 25.7548C62.6542 25.7448 62.726 25.7348 62.7969 25.7248C62.8761 25.7406 62.9471 25.7223 63.0122 25.6756C63.0622 25.6698 63.1123 25.664 63.1623 25.6581C63.2091 25.6681 63.2516 25.6623 63.2808 25.619C63.3935 25.6473 63.4994 25.6123 63.6054 25.5848C63.7464 25.5965 63.8799 25.5682 64.0101 25.5165C64.0226 25.5273 64.0335 25.5257 64.0426 25.5124C64.1895 25.5248 64.3314 25.5049 64.4674 25.449C64.4991 25.4457 64.5308 25.4424 64.5625 25.439C64.6701 25.4524 64.7744 25.4499 64.8687 25.3874C64.9655 25.3999 65.0598 25.3891 65.1524 25.3591C65.1983 25.3699 65.2392 25.3657 65.2684 25.3241C65.4294 25.3566 65.5846 25.3158 65.7415 25.2899C65.87 25.3041 65.9968 25.3008 66.1145 25.2375C66.2129 25.2516 66.3089 25.2416 66.4049 25.2158C66.5584 25.2275 66.7119 25.2341 66.8571 25.1658C66.9781 25.1817 67.0966 25.1717 67.2151 25.1442C67.2843 25.1575 67.3527 25.165 67.4053 25.1033C67.6873 25.1483 67.966 25.0925 68.2464 25.0717C68.3156 25.0867 68.3849 25.0975 68.4383 25.0325C68.4725 25.0425 68.5059 25.0634 68.5393 25.0625C69.105 25.0425 69.6707 25.0192 70.2364 24.9976C70.3341 25.0026 70.4317 25.0126 70.5293 25.0117C71.4255 25.0067 72.3208 25.0192 73.2153 25.07C73.3496 25.0775 73.4848 25.0717 73.6191 25.0717C73.8911 25.0934 74.164 25.1158 74.436 25.1342C74.4677 25.1367 74.5019 25.1142 74.5345 25.1033C74.5528 25.1183 74.5704 25.145 74.5895 25.1467C74.8791 25.1775 75.167 25.2375 75.4607 25.2175C75.5166 25.2216 75.5725 25.2258 75.6284 25.23C75.7894 25.2841 75.9538 25.3066 76.124 25.2908C76.2809 25.3166 76.4369 25.3591 76.5988 25.3233C76.6514 25.3832 76.719 25.3799 76.789 25.3682C76.8199 25.3716 76.85 25.3749 76.8808 25.3782C77.1879 25.4657 77.5025 25.4957 77.8195 25.5132C77.9263 25.5407 78.0315 25.5765 78.1441 25.5473C78.1733 25.5907 78.2159 25.5965 78.2626 25.5865C78.3694 25.6131 78.4754 25.6515 78.588 25.6181C78.7349 25.7164 78.9043 25.7131 79.0703 25.7264C79.1237 25.7339 79.1771 25.7414 79.2314 25.7489C79.2939 25.7931 79.3624 25.8122 79.4383 25.7972C79.4934 25.8056 79.5484 25.8131 79.6035 25.8214C79.6894 25.8747 79.7829 25.8947 79.883 25.8805C79.9139 25.8847 79.9448 25.8889 79.9756 25.8939C80.0608 25.9447 80.1525 25.9697 80.2527 25.9563C80.281 25.9605 80.3094 25.9647 80.3378 25.9697C80.3995 26.0163 80.4688 26.0371 80.5464 26.023C80.5798 26.028 80.6131 26.0338 80.6465 26.0388C80.7308 26.0913 80.8217 26.1154 80.921 26.1021L80.9519 26.1071C81.032 26.1521 81.1163 26.1779 81.2089 26.1688C81.2406 26.1746 81.2723 26.1804 81.304 26.1863C81.3641 26.2287 81.4283 26.2521 81.5034 26.2396C81.5368 26.2454 81.571 26.2521 81.6044 26.2579C81.662 26.3004 81.7254 26.3229 81.798 26.3112C81.833 26.3179 81.8681 26.3245 81.9023 26.3312C81.9849 26.3845 82.075 26.4095 82.1743 26.3987C82.1743 26.3987 82.1985 26.4028 82.1977 26.4028C82.2544 26.4445 82.3153 26.4686 82.3871 26.4586C82.4205 26.4653 82.453 26.4728 82.4864 26.4795C82.5448 26.5245 82.6082 26.5494 82.6833 26.5378C82.7133 26.5436 82.7425 26.5494 82.7726 26.5553C82.8327 26.6044 82.9011 26.6277 82.9795 26.6152C83.007 26.6202 83.0337 26.6261 83.0613 26.6311C83.0988 26.6694 83.143 26.6886 83.1981 26.6769C83.2323 26.6844 83.2657 26.6919 83.2999 26.6994C83.3567 26.746 83.4209 26.7719 83.496 26.7619C83.5227 26.7677 83.5502 26.7735 83.5769 26.7785C83.6153 26.8185 83.6595 26.8393 83.7163 26.8285C83.7463 26.8352 83.7772 26.8418 83.8072 26.8493C83.8682 26.901 83.9374 26.9251 84.0175 26.9151L84.0359 26.9193C84.0934 26.9651 84.1577 26.9926 84.2336 26.9818C84.2612 26.9876 84.2887 26.9934 84.3154 26.9993C84.3529 27.0392 84.3972 27.0617 84.4539 27.0509C84.4823 27.0576 84.5106 27.0642 84.539 27.0717C84.5757 27.1109 84.6191 27.1334 84.6742 27.1234C84.7034 27.13 84.7334 27.1375 84.7626 27.1442C84.7985 27.1809 84.8402 27.2042 84.8945 27.1942C84.9253 27.2017 84.9554 27.2092 84.9863 27.2175C85.0213 27.2542 85.0614 27.2783 85.1148 27.2667C85.1465 27.275 85.1773 27.2825 85.209 27.2908C85.2433 27.3266 85.2825 27.35 85.335 27.3383C85.3667 27.3466 85.3984 27.3558 85.4302 27.3641C85.4644 27.4008 85.5036 27.4249 85.557 27.4141C85.587 27.4224 85.6171 27.4308 85.6471 27.4391C85.6822 27.4782 85.7247 27.5016 85.7798 27.4924C85.8081 27.4999 85.8357 27.5066 85.864 27.5141C85.9008 27.5557 85.945 27.579 86.0017 27.5699C86.0276 27.5765 86.0535 27.5832 86.0793 27.5899C86.1185 27.6357 86.1678 27.6565 86.2279 27.6482L86.2504 27.654C86.3063 27.7048 86.3714 27.7323 86.4481 27.7265L86.4623 27.7306C86.4965 27.7673 86.5349 27.7931 86.5883 27.7831C86.6175 27.7914 86.6459 27.7998 86.6751 27.8081C86.7126 27.8514 86.7577 27.8756 86.8169 27.8672L86.842 27.8747C86.8712 27.9106 86.9062 27.9314 86.9538 27.9222C86.9863 27.9322 87.018 27.9431 87.0506 27.953C87.0848 27.9914 87.124 28.0164 87.1791 28.0072C87.2066 28.0147 87.2341 28.023 87.2608 28.0305C87.2992 28.0755 87.346 28.0988 87.406 28.0905L87.4269 28.0963C87.4578 28.133 87.4945 28.158 87.5454 28.1488C87.5746 28.158 87.603 28.1671 87.6322 28.1763C87.6689 28.2204 87.7148 28.2454 87.7748 28.2388L87.7932 28.2446C87.8249 28.2829 87.8625 28.3087 87.9159 28.2996C87.9935 28.3412 88.0677 28.3904 88.1603 28.3937C88.1937 28.432 88.2313 28.4578 88.2855 28.4487C88.3598 28.4928 88.4332 28.5403 88.5241 28.542C88.56 28.5845 88.6026 28.6111 88.6601 28.6045L88.681 28.612C88.7119 28.6503 88.7478 28.6769 88.8003 28.6686C88.8738 28.7136 88.9447 28.7636 89.0356 28.7644C89.0715 28.8085 89.1157 28.8344 89.175 28.8285L89.1917 28.8344C89.2259 28.8743 89.2668 28.9018 89.3227 28.8952L89.3519 28.9052C89.3794 28.9418 89.4128 28.9651 89.462 28.9568C89.6339 29.0568 89.8116 29.1451 90.0019 29.2034C90.0361 29.2442 90.0761 29.2734 90.1337 29.2675L90.1529 29.275C90.1863 29.3158 90.2255 29.3433 90.2814 29.3375L90.3073 29.3467C90.3381 29.3866 90.3749 29.4141 90.4291 29.4075L90.4408 29.4225L90.46 29.42C90.4883 29.4599 90.5242 29.4858 90.5759 29.4799C90.5818 29.4966 90.5935 29.5008 90.6093 29.4941C90.6369 29.5341 90.6719 29.5591 90.7236 29.5532C90.7303 29.5699 90.7412 29.5749 90.7578 29.5674C90.7845 29.6074 90.8196 29.6315 90.8705 29.6257C90.8772 29.6424 90.8888 29.6474 90.9055 29.6407C90.9306 29.6782 90.9631 29.7007 91.0098 29.694C91.1751 29.7965 91.3428 29.8923 91.5305 29.9464C91.5455 29.9797 91.5689 29.9989 91.6073 29.9947C91.6123 30.0114 91.6223 30.0164 91.6381 30.0089C91.6657 30.0497 91.7007 30.0772 91.7541 30.0714L91.7817 30.083C91.8109 30.1247 91.8459 30.1555 91.9018 30.1488L91.9227 30.158C91.9527 30.1997 91.9894 30.2288 92.0445 30.2246C92.2331 30.3421 92.4208 30.4612 92.6328 30.5354C92.6478 30.5703 92.6736 30.5903 92.7137 30.5862L92.7387 30.5978C92.7663 30.6403 92.8013 30.6703 92.8555 30.6653C92.9916 30.7644 93.1326 30.8536 93.2953 30.9035C93.3103 30.9394 93.3362 30.9585 93.377 30.956L93.3996 30.9668C93.4279 31.0102 93.4647 31.0402 93.5206 31.0377C93.5623 31.081 93.6073 31.1176 93.6708 31.1226C93.6841 31.1568 93.7075 31.1759 93.7467 31.1734L93.7734 31.1868C93.8001 31.2301 93.8343 31.2601 93.8894 31.2559C93.9745 31.3292 94.0638 31.3967 94.1772 31.42C94.1931 31.4583 94.2198 31.4783 94.2624 31.4758L94.2815 31.485L94.2941 31.5091L94.3191 31.5066C94.35 31.5258 94.3808 31.5441 94.4117 31.5633C94.4234 31.5974 94.4459 31.6158 94.4835 31.6133L94.5102 31.6283C94.5369 31.6724 94.5702 31.7032 94.6262 31.6999L94.6237 31.7016ZM34.0482 101.634C34.0115 101.635 33.9907 101.655 33.9831 101.69C33.9539 101.707 33.9164 101.72 33.8964 101.744C33.8296 101.826 33.8922 101.835 33.9564 101.841C33.999 101.89 34.0532 101.904 34.1158 101.894C34.1575 101.902 34.1993 101.909 34.241 101.918C34.2635 101.952 34.2944 101.965 34.3344 101.954C34.4004 101.986 34.4704 101.996 34.543 101.989C34.5881 102.034 34.6423 102.046 34.7024 102.033C34.7375 102.038 34.7717 102.043 34.8067 102.049C34.9394 102.109 35.0796 102.127 35.2239 102.114L35.2406 102.124L35.259 102.117C35.4893 102.178 35.7229 102.202 35.9607 102.185L35.9824 102.196L36.0049 102.188C36.0516 102.229 36.1009 102.222 36.1501 102.193C36.7275 102.233 37.3041 102.229 37.8807 102.185C38.1502 102.201 38.4189 102.203 38.6817 102.128C38.7843 102.142 38.8861 102.136 38.9863 102.109C39.1765 102.122 39.3634 102.1 39.547 102.048C39.5812 102.044 39.6146 102.041 39.6488 102.038C39.7572 102.051 39.864 102.051 39.9617 101.989C40.056 102.004 40.1477 101.992 40.2387 101.964C40.3839 101.979 40.5232 101.959 40.6567 101.901C40.6893 101.898 40.7218 101.894 40.7544 101.891C40.8795 101.907 40.9988 101.891 41.1115 101.831C41.1649 101.825 41.2183 101.819 41.2717 101.814C41.3927 101.829 41.5062 101.804 41.6155 101.754C41.648 101.749 41.6805 101.745 41.7131 101.741C41.7957 101.755 41.8733 101.744 41.9417 101.691C42.0126 101.682 42.0844 101.674 42.1553 101.665C42.2179 101.678 42.2746 101.668 42.3222 101.622C42.389 101.613 42.4565 101.604 42.5233 101.595C42.5884 101.607 42.6485 101.6 42.6977 101.55C42.7903 101.562 42.8796 101.549 42.9672 101.515C43.0273 101.528 43.0799 101.515 43.1241 101.472C43.195 101.462 43.2651 101.451 43.336 101.441C43.3953 101.455 43.4478 101.441 43.492 101.398C43.563 101.387 43.6347 101.376 43.7057 101.365C43.7632 101.379 43.8133 101.364 43.8558 101.323C43.9034 101.315 43.9501 101.308 43.9977 101.301C44.0611 101.313 44.1179 101.302 44.1637 101.255L44.3673 101.221C44.4266 101.234 44.4783 101.221 44.5225 101.178L44.6611 101.156C44.742 101.168 44.8154 101.152 44.8788 101.099C44.9297 101.09 44.9798 101.081 45.0307 101.072C45.0724 101.081 45.1058 101.07 45.1317 101.036C45.2001 101.046 45.2635 101.032 45.3252 101.003C45.3853 101.016 45.437 101 45.4813 100.957C45.6348 100.966 45.7725 100.906 45.9143 100.862C45.9953 100.875 46.0695 100.861 46.1338 100.806L46.2848 100.778C46.3257 100.787 46.3599 100.776 46.3849 100.742C46.45 100.731 46.5151 100.72 46.5793 100.709C46.6394 100.722 46.692 100.706 46.7362 100.663C46.9331 100.622 47.055 100.754 47.1893 100.858C50.3567 103.304 53.822 105.212 57.5802 106.591C57.7629 106.658 57.9406 106.747 58.1384 106.767C58.1542 106.797 58.1768 106.812 58.211 106.802C58.2594 106.816 58.3078 106.829 58.3553 106.842C58.3729 106.872 58.3962 106.888 58.4329 106.878L58.5773 106.916C58.5948 106.945 58.6182 106.961 58.6532 106.951C58.7024 106.963 58.7517 106.977 58.8001 106.989C58.8401 107.036 58.891 107.055 58.9519 107.045C58.9761 107.051 58.9995 107.056 59.0237 107.062C59.0629 107.107 59.113 107.126 59.1731 107.117C59.3583 107.196 59.5469 107.266 59.7505 107.286C59.7696 107.317 59.7955 107.332 59.8331 107.321C59.8831 107.333 59.9332 107.344 59.9841 107.356C60.0233 107.399 60.0717 107.418 60.1309 107.408C60.1735 107.417 60.2169 107.427 60.2594 107.436C60.2811 107.471 60.3112 107.484 60.3512 107.474C60.4939 107.518 60.6308 107.586 60.7851 107.581C60.8277 107.626 60.8811 107.642 60.942 107.631C60.9854 107.64 61.0279 107.648 61.0713 107.657C61.093 107.69 61.1222 107.703 61.1606 107.692C61.2232 107.725 61.2908 107.737 61.3617 107.732C61.3842 107.767 61.4159 107.78 61.456 107.769C61.5227 107.781 61.5895 107.794 61.6562 107.806C61.6788 107.84 61.7105 107.853 61.7505 107.841C61.8031 107.85 61.8548 107.86 61.9074 107.87C61.97 107.921 62.0409 107.94 62.121 107.926C62.1669 107.934 62.2136 107.942 62.2595 107.95C62.3029 107.993 62.3546 108.007 62.4147 107.995C62.4823 108.005 62.5491 108.016 62.6166 108.027C62.6642 108.074 62.7209 108.084 62.7844 108.073C62.8494 108.083 62.9145 108.092 62.9796 108.102C63.028 108.152 63.0881 108.16 63.1532 108.148C63.2183 108.157 63.2842 108.166 63.3493 108.175C63.3976 108.224 63.4569 108.233 63.5211 108.22C63.5879 108.229 63.6546 108.239 63.7214 108.249C63.769 108.295 63.8265 108.305 63.8891 108.292C63.9951 108.321 64.1011 108.358 64.2137 108.33C64.2429 108.374 64.2855 108.379 64.333 108.369C64.4398 108.397 64.545 108.431 64.6576 108.402C64.6868 108.444 64.7285 108.45 64.7753 108.44C64.8462 108.448 64.9171 108.456 64.988 108.464C65.0815 108.528 65.1849 108.532 65.2918 108.518C65.3226 108.522 65.3527 108.525 65.3835 108.528C65.5195 108.587 65.6614 108.604 65.8074 108.591C65.8975 108.618 65.9893 108.63 66.0828 108.615C66.1804 108.679 66.2872 108.677 66.3965 108.663C66.4507 108.668 66.505 108.673 66.5592 108.677C66.7211 108.735 66.888 108.75 67.059 108.735C67.1174 108.739 67.1767 108.743 67.2351 108.747C67.4929 108.807 67.7541 108.83 68.0186 108.813C68.0745 108.816 68.1304 108.819 68.1863 108.823C68.5451 108.892 68.9072 108.902 69.271 108.884C69.624 108.897 69.9769 108.917 70.3299 108.922C71.0608 108.932 71.7918 108.934 72.5219 108.884C72.6612 108.897 72.8031 108.927 72.9307 108.838C72.9633 108.849 72.9975 108.871 73.0292 108.869C73.2779 108.852 73.5257 108.832 73.7743 108.813C74.0155 108.828 74.2533 108.807 74.4878 108.748C74.5445 108.744 74.6012 108.741 74.6588 108.737C74.7055 108.748 74.7489 108.747 74.779 108.702C74.9642 108.748 75.1419 108.688 75.3222 108.665C75.4331 108.679 75.5424 108.682 75.6417 108.617C75.7594 108.633 75.8737 108.618 75.9863 108.587C76.1098 108.602 76.2275 108.585 76.3401 108.531C76.3944 108.526 76.4478 108.52 76.502 108.515C76.6255 108.529 76.7448 108.517 76.8566 108.458C76.9109 108.451 76.9651 108.444 77.0193 108.438C77.1186 108.453 77.2113 108.433 77.298 108.384C77.3523 108.377 77.4073 108.37 77.4616 108.364C77.5417 108.379 77.6159 108.365 77.6827 108.316C77.7311 108.309 77.7795 108.304 77.8279 108.297C77.9113 108.31 77.9906 108.301 78.0582 108.245L78.2718 108.216C78.3327 108.229 78.3869 108.219 78.4328 108.174C78.5021 108.165 78.5705 108.155 78.6398 108.146C78.7015 108.159 78.7566 108.146 78.8025 108.101C78.8717 108.089 78.941 108.079 79.0102 108.067C79.0686 108.08 79.1179 108.064 79.1604 108.024C79.208 108.016 79.2556 108.009 79.3023 108.001C79.3649 108.013 79.4208 108.001 79.4675 107.955C79.6436 107.962 79.8029 107.893 79.9673 107.849C80.0424 107.861 80.1083 107.838 80.1684 107.795C80.1993 107.789 80.2301 107.783 80.261 107.778C80.3211 107.79 80.372 107.774 80.4145 107.73C80.4613 107.722 80.508 107.714 80.5547 107.705C80.6148 107.717 80.6657 107.699 80.7074 107.656L80.8509 107.627C80.9077 107.639 80.9544 107.62 80.9945 107.58C81.0454 107.569 81.0963 107.559 81.1463 107.548C81.1847 107.559 81.2139 107.546 81.2356 107.513L81.3649 107.487C81.4258 107.499 81.4776 107.481 81.5201 107.436C81.6511 107.441 81.7646 107.385 81.8814 107.338C81.9407 107.349 81.9882 107.329 82.0283 107.286C82.0525 107.281 82.0767 107.276 82.1017 107.271C82.1643 107.28 82.2177 107.264 82.2602 107.216C82.5406 107.177 82.7993 107.068 83.0613 106.968C83.1189 106.978 83.1639 106.957 83.2023 106.916C83.511 106.848 83.8031 106.733 84.0918 106.608C84.1518 106.617 84.2002 106.596 84.2378 106.549C84.3079 106.529 84.3796 106.514 84.4472 106.489C85.7139 106.024 86.9471 105.483 88.1545 104.881C92.2214 102.852 95.816 100.186 98.9542 96.9039C99.1144 96.7365 99.2621 96.5574 99.4165 96.3833C99.454 96.3775 99.4749 96.3558 99.4782 96.3175L99.4891 96.3058C99.5216 96.3017 99.54 96.2842 99.5408 96.2508C99.6017 96.1909 99.6651 96.1326 99.7219 96.0693C100.374 95.3512 100.993 94.6065 101.584 93.8385C104.29 90.3299 106.336 86.4731 107.719 82.2656C108.197 80.8095 108.584 79.3293 108.879 77.8257C109.094 76.7311 109.267 75.6316 109.39 74.522C109.474 73.754 109.543 72.9851 109.579 72.2146C109.628 71.1617 109.636 70.1071 109.595 69.0533C109.578 68.601 109.596 68.1462 109.514 67.6972C109.545 67.6239 109.538 67.5523 109.503 67.4815C109.522 67.2307 109.496 66.9842 109.439 66.7401C109.459 66.6443 109.472 66.5502 109.4 66.4677C109.442 66.1845 109.379 65.9063 109.345 65.6305C109.151 64.0612 108.874 62.5068 108.496 60.9699C107.63 57.448 106.293 54.1151 104.479 50.9764C101.914 46.5365 98.5988 42.7463 94.536 39.6101C92.0962 37.7267 89.4662 36.1623 86.6526 34.9061C84.7451 34.0548 82.7776 33.3676 80.7558 32.8378C80.6148 32.8011 80.4771 32.737 80.3253 32.7495C80.2635 32.6978 80.1934 32.6787 80.1142 32.6912C79.8496 32.5904 79.571 32.5429 79.2956 32.4862C78.8525 32.3954 78.4153 32.2738 77.9631 32.2355C77.8771 32.1814 77.7837 32.1614 77.6827 32.1772C77.6118 32.1689 77.5408 32.1614 77.4699 32.153C77.4015 32.0989 77.3239 32.0897 77.2405 32.1047C77.2054 32.1006 77.1712 32.0964 77.1362 32.0922C77.0294 32.0423 76.9175 32.0164 76.7991 32.0323C76.7615 32.0281 76.724 32.0239 76.6864 32.0206C76.5312 31.9689 76.3727 31.9373 76.2075 31.9531C76.1749 31.9498 76.1432 31.9465 76.1107 31.944C75.9505 31.8798 75.7836 31.8623 75.6125 31.8773L75.5858 31.8748C75.4039 31.8207 75.2187 31.7915 75.0276 31.8073C74.9934 31.804 74.96 31.8015 74.9258 31.7982C74.693 31.7349 74.456 31.719 74.2166 31.7332C74.1807 31.7307 74.144 31.729 74.1081 31.7265C73.8035 31.6632 73.4948 31.6449 73.1844 31.6591C72.9007 31.6266 72.617 31.6049 72.3316 31.6357C72.2557 31.5849 72.1681 31.5891 72.0838 31.5891C71.3387 31.5866 70.5944 31.5849 69.8493 31.5849C69.765 31.5849 69.6766 31.5791 69.604 31.6374C69.246 31.5949 68.8897 31.6332 68.5334 31.6657C68.2898 31.6474 68.0486 31.6607 67.8117 31.7215C67.7332 31.7265 67.6548 31.7307 67.5772 31.7357C67.422 31.724 67.2676 31.7149 67.1224 31.7857C67.0023 31.7674 66.8838 31.7807 66.7662 31.8107C66.6185 31.7974 66.4733 31.809 66.3356 31.8682C66.283 31.8723 66.2305 31.8773 66.1779 31.8815C66.0294 31.8665 65.885 31.8798 65.7473 31.9423L65.588 31.9581C65.5012 31.944 65.4177 31.9465 65.3443 32.0039C65.2517 31.9889 65.1616 32.0023 65.0723 32.0298C64.9488 32.0148 64.8303 32.0348 64.7194 32.0906L64.6309 32.1014C64.5066 32.0889 64.3873 32.1047 64.2763 32.1639C64.2471 32.1672 64.2187 32.1705 64.1895 32.1747C64.1202 32.163 64.0543 32.1639 64.0018 32.2222C63.9125 32.203 63.829 32.2255 63.7456 32.2547C63.6813 32.2413 63.6238 32.2505 63.5754 32.2988C63.5095 32.308 63.4435 32.3171 63.3776 32.3271C63.3125 32.3146 63.2533 32.323 63.2041 32.3721C63.139 32.3813 63.0739 32.3913 63.0088 32.4004C62.9454 32.3879 62.8878 32.3988 62.8411 32.4471C62.7735 32.4579 62.7068 32.4679 62.6392 32.4787C62.5783 32.4663 62.5249 32.4787 62.4806 32.5237C62.4356 32.5304 62.3905 32.5379 62.3463 32.5446C62.2804 32.5329 62.2195 32.5412 62.1711 32.5929C62.106 32.6045 62.0409 32.6154 61.9758 32.627C61.9174 32.6154 61.8673 32.632 61.8256 32.6737C61.7772 32.6828 61.7297 32.6912 61.6813 32.7003C61.622 32.6887 61.572 32.7045 61.5294 32.747C61.4819 32.7553 61.4343 32.7645 61.3867 32.7728C61.3275 32.7611 61.2766 32.777 61.234 32.8203C61.1047 32.8144 60.9896 32.8661 60.8727 32.9111C60.8085 32.9011 60.7517 32.9136 60.7067 32.9627C60.6633 32.971 60.6207 32.9794 60.5774 32.9885C60.5156 32.9777 60.4622 32.9927 60.4197 33.0394C60.2903 33.0327 60.1768 33.0852 60.0617 33.1343C60.0008 33.1243 59.949 33.1418 59.9073 33.1876C59.8598 33.1985 59.813 33.2093 59.7655 33.2193C59.7263 33.2093 59.6962 33.2234 59.6745 33.2576C59.5477 33.2534 59.4359 33.3034 59.3249 33.3551C59.2648 33.3451 59.2156 33.3642 59.1764 33.41C59.1522 33.4159 59.128 33.4217 59.1046 33.4267C59.0437 33.4175 58.9937 33.4359 58.9536 33.4825C58.9302 33.4883 58.9069 33.4933 58.8835 33.4992C58.8226 33.49 58.7709 33.5075 58.7308 33.5558C58.7049 33.5492 58.6824 33.5542 58.6624 33.5725C58.6006 33.5641 58.5481 33.58 58.5072 33.6291C58.4822 33.6225 58.4596 33.6275 58.4413 33.6458C58.3804 33.6375 58.3295 33.6566 58.2911 33.7041C58.2435 33.7133 58.1935 33.7158 58.1484 33.7316C57.3507 34.0115 56.5614 34.3105 55.7837 34.6412C52.3226 36.114 49.1426 38.049 46.2406 40.4381C45.901 40.718 45.5522 40.9887 45.2485 41.3102C45.2151 41.3102 45.1976 41.3286 45.1934 41.361C45.044 41.4868 44.8905 41.6084 44.7462 41.7401C43.9368 42.4748 43.1675 43.2486 42.4248 44.0508C41.0639 45.5219 39.8232 47.0871 38.7067 48.7506C37.3917 50.7098 36.2594 52.7707 35.3249 54.9381C34.6398 56.5267 34.0616 58.1527 33.5935 59.8187C33.0019 61.9237 32.598 64.0637 32.3702 66.237C32.3319 66.601 32.2643 66.965 32.2876 67.3349C32.2543 67.3815 32.2509 67.4298 32.281 67.479C32.2034 67.878 32.21 68.2837 32.1975 68.6877C32.1358 70.6735 32.1875 72.6561 32.4153 74.632C32.568 75.9589 32.7866 77.2742 33.072 78.5796C33.9698 82.6954 35.5126 86.5555 37.6754 90.1699C37.7647 90.319 37.8323 90.474 37.8798 90.6389C38.0292 91.1579 38.1352 91.6843 38.1952 92.2216C38.3421 93.5261 38.2645 94.8131 37.9115 96.0809C37.4443 97.7594 36.5665 99.1988 35.3566 100.443C35.0746 100.732 34.7758 101.006 34.4846 101.286C34.4538 101.285 34.4387 101.301 34.4362 101.33L34.4195 101.343C34.3828 101.345 34.3603 101.365 34.352 101.4C34.2543 101.442 34.1792 101.511 34.1125 101.59C34.0874 101.586 34.0733 101.597 34.0716 101.624L34.0499 101.64L34.0482 101.634Z" fill="white"/>
<path d="M62.8384 64.3751C62.8718 64.3718 62.9052 64.3693 62.9386 64.366C63.4033 64.366 63.8673 64.366 64.332 64.366C64.4221 64.3935 64.5139 64.4035 64.6074 64.391C64.6549 64.4351 64.7108 64.4468 64.7734 64.4343C64.8402 64.4443 64.9069 64.4551 64.9737 64.4651C64.9962 64.4993 65.0279 64.5109 65.0671 64.5009C65.7806 64.6925 66.4189 65.0324 67.0005 65.4839C67.0071 65.5197 67.028 65.5397 67.0655 65.5422L67.0814 65.5555C67.0864 65.5888 67.1056 65.6072 67.139 65.6105L67.1573 65.6288C67.1607 65.6621 67.179 65.6805 67.2132 65.6838L67.2316 65.7021C67.2349 65.7354 67.2533 65.7546 67.2867 65.7579L67.3042 65.7763C67.3075 65.8104 67.3267 65.8304 67.3601 65.8362L67.3718 65.8504C67.3743 65.8887 67.3951 65.9095 67.4318 65.917C67.6947 66.2686 67.925 66.6401 68.1286 67.0283C68.162 67.0932 68.1945 67.0974 68.2262 67.0266C68.4607 66.7625 68.6851 66.4893 68.9313 66.2361C69.4786 65.6713 70.0894 65.1873 70.8104 64.8575C71.0323 64.7558 71.2618 64.6717 71.4879 64.5801C71.5446 64.5901 71.5889 64.5684 71.6272 64.5293C71.6539 64.5243 71.6806 64.5184 71.7073 64.5134C71.7699 64.5234 71.825 64.5101 71.8701 64.4643C71.9393 64.4526 72.0094 64.4418 72.0787 64.4301C72.1379 64.4435 72.1896 64.4301 72.2339 64.3885C72.3039 64.381 72.3749 64.3726 72.445 64.3652C72.5351 64.3776 72.6227 64.3818 72.6995 64.3193C73.1417 64.3193 73.5839 64.3193 74.0262 64.3193C74.1029 64.381 74.1905 64.3785 74.2798 64.3652C74.3316 64.371 74.3825 64.376 74.4342 64.3818C74.4976 64.4293 74.5685 64.4485 74.647 64.4335C74.6979 64.441 74.7488 64.4485 74.7997 64.4568C74.8397 64.4951 74.8848 64.5159 74.9415 64.5043C74.9882 64.5143 75.0358 64.5243 75.0825 64.5351C75.1009 64.5642 75.1251 64.5801 75.161 64.5692C75.2628 64.6101 75.3579 64.6692 75.4722 64.6742C75.5072 64.7167 75.5498 64.7417 75.6074 64.735C76.0629 64.9607 76.4868 65.2356 76.8807 65.5572C76.8865 65.5905 76.9065 65.6097 76.9407 65.613L76.9583 65.6296C76.9624 65.663 76.9808 65.6821 77.015 65.6855L77.0325 65.703C77.0359 65.7363 77.0551 65.7554 77.0884 65.7588L77.106 65.7763C77.1093 65.8104 77.1285 65.8287 77.1619 65.8346L77.1752 65.8504C77.1777 65.8879 77.1977 65.9087 77.2336 65.9162C77.3354 66.0536 77.4389 66.1894 77.539 66.3277C78.0413 67.0233 78.3542 67.8021 78.557 68.6293C78.7414 69.3807 78.8323 70.1453 78.849 70.9184C78.8582 71.3224 78.8607 71.7264 78.8607 72.1296C78.8615 74.3937 78.8607 76.6578 78.8607 78.9219C78.8607 79.0935 78.8649 79.2651 78.849 79.4358C78.7856 80.1289 78.5103 80.6828 77.8177 80.9519C76.788 80.9535 75.7592 80.9552 74.7296 80.9569C74.294 80.8269 74.0754 80.5129 73.9736 80.0897C73.9219 79.8723 73.9127 79.6541 73.9127 79.4333C73.9177 77.0693 73.9219 74.706 73.9252 72.342C73.9252 71.8638 73.9143 71.3874 73.8443 70.9134C73.77 70.4136 73.6465 69.9304 73.3995 69.4839C73.1459 69.0266 72.7829 68.6959 72.2823 68.5268C72.2372 68.5118 72.1863 68.5127 72.1379 68.506C72.052 68.4444 71.956 68.4302 71.8542 68.446C71.6306 68.4077 71.407 68.4077 71.1833 68.451C71.1032 68.436 71.0306 68.4485 70.9681 68.5043C70.9422 68.5093 70.9155 68.5143 70.8896 68.5202C70.8287 68.5093 70.7795 68.5285 70.7403 68.5751C70.4516 68.6276 70.2263 68.7992 70.0127 68.9808C69.6213 69.314 69.351 69.7322 69.2016 70.2253C69.0656 70.6743 69.0189 71.135 69.0197 71.6023C69.0214 73.499 69.0197 75.3958 69.0197 77.2925C69.0197 77.9048 69.0222 78.5162 69.0181 79.1284C69.0172 79.2992 69.0064 79.4708 68.983 79.6399C68.9062 80.2113 68.6467 80.657 68.0877 80.8844C68.0276 80.8744 67.975 80.8902 67.9308 80.9336C67.8357 80.9402 67.7406 80.9469 67.6463 80.9535C67.4994 80.9486 67.3526 80.9377 67.2066 80.9386C66.5941 80.9419 65.9808 80.9477 65.3684 80.9535C65.3216 80.9469 65.2757 80.9411 65.229 80.9344C65.1865 80.8886 65.1339 80.8702 65.0721 80.8786C64.3754 80.5537 64.1092 79.9756 64.1092 79.2417C64.1092 77.1217 64.1092 75.0017 64.1084 72.8818C64.1084 72.4403 64.1117 71.9996 64.0992 71.5581C64.085 71.0675 64.0283 70.5793 63.8789 70.1095C63.7605 69.7355 63.6211 69.3682 63.3291 69.0858V69.0633L63.3065 69.0591C63.2623 68.9758 63.1981 68.9125 63.1163 68.8675L63.1113 68.8442H63.0879C62.9636 68.7126 62.8201 68.6135 62.639 68.5768C62.6015 68.5268 62.5514 68.506 62.4897 68.5135L62.4763 68.5102C62.4179 68.4619 62.3511 68.4394 62.2752 68.4535C61.979 68.3794 61.6811 68.3769 61.3832 68.4435C61.2823 68.4285 61.1888 68.4477 61.1062 68.5102L61.0929 68.5135C61.0303 68.506 60.9785 68.5252 60.9393 68.5751C60.9151 68.5826 60.8909 68.5901 60.8659 68.5976C60.8108 68.5885 60.7749 68.6176 60.7457 68.6593L60.7249 68.6684C60.6823 68.6643 60.6565 68.6843 60.6406 68.7226C60.5154 68.7559 60.4203 68.8325 60.3402 68.93L60.3194 68.9275L60.3135 68.95C60.2952 68.9475 60.2852 68.9558 60.2835 68.9742C60.2518 68.9742 60.2343 68.9916 60.2309 69.0233C59.6468 69.5298 59.3456 70.1837 59.2472 70.9367C59.2188 71.1541 59.2221 71.3774 59.2221 71.5973C59.2204 74.0488 59.2221 76.5003 59.2205 78.9518C59.2205 79.2209 59.2413 79.4891 59.2029 79.759C59.147 80.1472 59.016 80.4937 58.7231 80.7653C58.6981 80.7603 58.6831 80.7711 58.6798 80.7969L58.6614 80.8069C58.6205 80.8069 58.5913 80.8253 58.5721 80.8611C58.4036 80.8919 58.235 80.9236 58.0656 80.9544C57.3556 80.9277 56.6446 80.9277 55.9346 80.9544C55.7326 80.9261 55.5315 80.8977 55.3296 80.8702C55.2937 80.8328 55.2528 80.8069 55.1986 80.8136C54.5428 80.4338 54.3108 79.8298 54.31 79.1126C54.3066 76.7119 54.3 74.3112 54.3116 71.9113C54.3216 69.9021 54.2741 67.8946 54.2148 65.887C54.204 65.5097 54.2816 65.1857 54.5469 64.9133L54.5661 64.9174L54.5711 64.8966C54.5887 64.9008 54.5995 64.8941 54.6037 64.8766C54.6512 64.8774 54.6871 64.8558 54.7113 64.8158C54.7288 64.8233 54.743 64.8183 54.7522 64.8016C54.8064 64.8083 54.8482 64.7833 54.8857 64.7492C54.9166 64.7442 54.9475 64.7383 54.9792 64.7333C55.8603 64.7342 56.7423 64.735 57.6234 64.7367C57.6526 64.7417 57.681 64.7467 57.7102 64.7517C57.7477 64.7883 57.7894 64.8141 57.8445 64.8066C57.8687 64.815 57.8921 64.8225 57.9163 64.8308C57.9321 64.8658 57.9588 64.8849 57.9989 64.8833L58.0247 64.8974L58.0331 64.9199L58.0548 64.9166C58.4052 65.2281 58.5604 65.6238 58.583 66.087C58.5946 66.3302 58.6405 66.5726 58.6706 66.815C58.6939 66.9166 58.7031 66.9191 58.7866 66.8433C58.9092 66.72 59.0102 66.5809 59.0978 66.431C59.1303 66.4243 59.1487 66.4043 59.1504 66.3702L59.1679 66.3644L59.1704 66.346L59.1971 66.3369L59.2013 66.3094C59.3948 66.1128 59.5893 65.9162 59.7828 65.7204L59.792 65.7296V65.7121C59.8154 65.7113 59.8296 65.6996 59.8354 65.6763C59.8629 65.6763 59.8788 65.6621 59.8821 65.6346L59.9013 65.6321C59.9013 65.6321 59.908 65.6138 59.9072 65.6138C59.9414 65.613 59.9614 65.5947 59.9681 65.5613C60.0323 65.5139 60.0966 65.4664 60.1608 65.4189L60.155 65.4272L60.1583 65.4164C60.1809 65.4164 60.1959 65.4064 60.2034 65.3856C60.2351 65.3872 60.2534 65.3714 60.261 65.3414C60.588 65.1615 60.9151 64.9807 61.2431 64.8008C61.2939 64.8091 61.3307 64.7842 61.3615 64.7475L61.3832 64.7408C61.4425 64.7483 61.49 64.725 61.5284 64.6809C61.556 64.6742 61.5835 64.6667 61.611 64.66C61.6678 64.6692 61.7128 64.6484 61.7512 64.6084C61.7779 64.6026 61.8046 64.5967 61.8313 64.5917C61.9081 64.6034 61.9732 64.5759 62.0324 64.5301C62.0641 64.5243 62.0967 64.5176 62.1284 64.5118C62.2051 64.5243 62.2735 64.5026 62.3361 64.4593C62.3895 64.4518 62.4438 64.4451 62.4972 64.4376C62.6156 64.4518 62.7275 64.4251 62.8368 64.381L62.8384 64.3751Z" fill="white"/>
<path d="M86.963 80.1372C86.9246 80.093 86.8804 80.0589 86.8203 80.0522C86.8062 80.0139 86.7795 79.9931 86.7377 79.9947L86.7219 79.9856C86.7169 79.9598 86.7019 79.9498 86.6768 79.9564C86.5617 79.849 86.4348 79.7573 86.293 79.6882C86.283 79.6516 86.2596 79.6316 86.2212 79.6299L86.2054 79.6182C86.2012 79.5899 86.1845 79.5757 86.1562 79.5766C86.0377 79.455 85.9158 79.3367 85.769 79.2484C85.7632 79.2126 85.7423 79.1926 85.7056 79.1892C85.6163 79.0685 85.507 78.9668 85.3893 78.8744C85.3885 78.841 85.3693 78.8244 85.3368 78.8202C85.2225 78.6786 85.1065 78.537 84.993 78.3945C84.1728 77.3591 83.6721 76.1821 83.4235 74.8909C83.4001 74.7718 83.3709 74.6535 83.3442 74.5344C83.3684 74.4603 83.3667 74.392 83.3042 74.3353C83.34 74.2504 83.3067 74.1662 83.3008 74.0821C83.2124 72.8667 83.2357 71.6606 83.542 70.471C83.8615 69.2299 84.4031 68.1053 85.2542 67.1382C85.2859 67.1024 85.3092 67.0582 85.3368 67.0182C85.3726 67.0124 85.3935 66.9916 85.396 66.9549L85.4085 66.9408C85.4427 66.9358 85.4628 66.9158 85.4661 66.8808L85.482 66.865C85.517 66.8608 85.5362 66.8417 85.5395 66.8075L85.5554 66.7917C85.5896 66.7883 85.6088 66.7692 85.613 66.7342L85.6288 66.7184C85.6639 66.715 85.683 66.695 85.6872 66.6609L85.7031 66.6459C85.7381 66.6426 85.7581 66.6234 85.7632 66.5884C85.9117 66.4951 86.0385 66.376 86.1578 66.2486L86.1845 66.2452L86.1937 66.2194L86.2129 66.2177L86.2196 66.2002C86.2554 66.2002 86.2763 66.1811 86.2847 66.1478C86.7619 65.8187 87.2559 65.5163 87.7732 65.2523C87.83 65.2581 87.8725 65.2323 87.9067 65.1898C88.1087 65.1115 88.3098 65.0332 88.5117 64.9549C88.5701 64.9641 88.616 64.9424 88.6544 64.8991C88.6811 64.8924 88.7069 64.8866 88.7336 64.8799C88.792 64.8899 88.8388 64.8691 88.8772 64.8258C88.903 64.82 88.9281 64.815 88.9539 64.8091C89.0157 64.8191 89.0691 64.8041 89.1133 64.7583C89.1592 64.75 89.2042 64.7408 89.2501 64.7325C89.3102 64.7442 89.3619 64.7267 89.4045 64.6833C89.4512 64.675 89.498 64.6675 89.5455 64.6592C89.6248 64.6725 89.6965 64.6534 89.76 64.6042C89.8117 64.5967 89.8634 64.59 89.9143 64.5825C89.9953 64.5967 90.0704 64.5826 90.1379 64.5342C90.2105 64.5267 90.2831 64.5201 90.3549 64.5126C90.4609 64.5251 90.5643 64.5226 90.6578 64.4626C90.7546 64.4776 90.8497 64.4684 90.944 64.4418C91.5556 64.4418 92.1681 64.4418 92.7797 64.4418C92.8356 64.4451 92.8923 64.4484 92.9482 64.4518C93.0842 64.4943 93.2227 64.5217 93.3671 64.5076C93.6825 64.5667 93.9971 64.6259 94.3125 64.685C94.3333 64.7167 94.36 64.7308 94.3984 64.7192C94.4502 64.73 94.5011 64.7408 94.5528 64.7516C94.5912 64.7925 94.6379 64.8108 94.6946 64.8C94.9458 64.8941 95.1995 64.9816 95.4464 65.0832C96.4869 65.5138 97.3931 66.1378 98.1482 66.9749C98.2133 67.0474 98.2826 67.1149 98.3502 67.1848C98.3485 67.2115 98.361 67.2265 98.3886 67.2282L98.4036 67.2482C98.4052 67.2848 98.4244 67.3065 98.4595 67.3148C98.4995 67.3756 98.5371 67.4381 98.5796 67.4964C99.4024 68.6126 99.8863 69.8646 100.084 71.2324C100.226 72.2178 100.238 73.2049 100.111 74.1929C100.105 74.2395 100.116 74.2887 100.119 74.337C100.059 74.3936 100.06 74.4636 100.077 74.5369C100.004 74.6685 100.009 74.8193 99.9781 74.9609C99.6669 76.3795 99.0678 77.6515 98.0773 78.7286C98.0531 78.7552 98.0373 78.7886 98.0172 78.8185C97.9814 78.8244 97.9605 78.8452 97.9563 78.881L97.9447 78.8927C97.9079 78.8977 97.8871 78.9185 97.8829 78.9543L97.8712 78.966C97.8345 78.971 97.8136 78.9918 97.8086 79.0276L97.7978 79.0385C97.7611 79.0426 97.7394 79.0635 97.7335 79.1001C97.58 79.2326 97.4273 79.3658 97.2738 79.4983C97.2429 79.4966 97.2262 79.5124 97.2221 79.5416C97.0527 79.6399 96.895 79.7532 96.7515 79.8856H96.7247L96.7131 79.9106L96.693 79.9214C96.6513 79.9198 96.6263 79.9406 96.6121 79.9781C96.5504 79.9847 96.5061 80.0206 96.4669 80.0647C96.411 80.0606 96.3768 80.093 96.3493 80.1364L96.3242 80.1489C96.285 80.1455 96.26 80.1655 96.2458 80.2005C95.9262 80.3538 95.6058 80.507 95.2862 80.6603C95.2287 80.652 95.1869 80.6778 95.1511 80.7195C95.121 80.7286 95.091 80.7378 95.0618 80.7469C95.0109 80.7378 94.9733 80.7619 94.9408 80.7978L94.9224 80.8019C94.8598 80.7936 94.8081 80.8119 94.7672 80.8602C94.7439 80.8661 94.7205 80.8719 94.6971 80.8777C94.6362 80.8686 94.5862 80.8869 94.5453 80.9335C94.5219 80.9385 94.4994 80.9444 94.476 80.9494C94.3968 80.9385 94.3275 80.9619 94.2674 81.0135C94.2382 81.0193 94.209 81.0252 94.1798 81.031C94.103 81.0193 94.0363 81.0427 93.9754 81.0885C93.9453 81.0935 93.9153 81.0985 93.8853 81.1035C93.8052 81.0901 93.7334 81.1085 93.67 81.1576C93.6191 81.1643 93.5674 81.1709 93.5165 81.1784C93.4163 81.1643 93.3245 81.1859 93.2378 81.2351C93.2086 81.2384 93.1794 81.2418 93.1501 81.2442C93.0008 81.2318 92.8539 81.2442 92.7146 81.3059C92.6387 81.3109 92.5619 81.3159 92.486 81.3209C91.9236 81.3209 91.3612 81.3209 90.798 81.3209C90.7604 81.3184 90.7229 81.3159 90.6861 81.3134C90.5059 81.2642 90.3223 81.2359 90.1346 81.2467C90.0845 81.2409 90.0345 81.2351 89.9836 81.2293C89.8943 81.1684 89.795 81.1584 89.6907 81.1701C89.6632 81.1659 89.6356 81.1626 89.6073 81.1584C89.5447 81.1118 89.4754 81.0918 89.3978 81.1051C89.3486 81.0968 89.2994 81.0885 89.2501 81.0801C89.2092 81.0385 89.1609 81.021 89.1033 81.0327C89.0724 81.026 89.0415 81.0202 89.0107 81.0135C88.9506 80.966 88.8847 80.9402 88.8071 80.9502C88.782 80.9444 88.757 80.9394 88.732 80.9335C88.6927 80.8894 88.6452 80.8686 88.5859 80.8786C88.5609 80.8727 88.5359 80.8661 88.51 80.8602C88.4708 80.8136 88.4207 80.7928 88.3598 80.8003L88.3415 80.7953C88.3089 80.7586 88.2722 80.7336 88.2196 80.7428C88.1904 80.7336 88.1612 80.7253 88.132 80.7161C88.0961 80.6736 88.0528 80.6487 87.9952 80.6562C87.7265 80.527 87.4578 80.3979 87.1883 80.2688C87.1725 80.2313 87.1466 80.2122 87.1049 80.2155L87.0848 80.2063C87.0556 80.163 87.0189 80.1314 86.9622 80.1339L86.963 80.1372ZM89.5447 76.6436L89.5622 76.6661C89.5639 76.7011 89.5822 76.7219 89.6164 76.7285C89.7149 76.8852 89.8426 77.0126 90.0011 77.1084C90.0069 77.14 90.0253 77.1567 90.0587 77.1567C90.0628 77.1759 90.0745 77.185 90.0946 77.1825L90.0979 77.2009L90.1087 77.1917C90.1413 77.2142 90.1738 77.2367 90.2055 77.2583C90.2172 77.2942 90.2397 77.3141 90.279 77.3116L90.3015 77.3233C90.3299 77.3675 90.3657 77.3983 90.4216 77.3941C90.4684 77.4374 90.5184 77.4741 90.5869 77.4741C90.6202 77.5141 90.6586 77.5416 90.7145 77.5324C90.7395 77.5391 90.7654 77.5466 90.7905 77.5532C90.828 77.5999 90.8764 77.619 90.9356 77.6082C90.9632 77.6132 90.9907 77.619 91.0182 77.624C91.08 77.6757 91.1501 77.6948 91.2293 77.679C91.6015 77.7615 91.9736 77.7615 92.345 77.6732C92.4025 77.6857 92.4501 77.669 92.4901 77.6274C92.5402 77.6165 92.5911 77.6057 92.6412 77.594C92.6929 77.6057 92.7279 77.5799 92.7588 77.5432L92.7797 77.5366C92.8381 77.5441 92.8806 77.5174 92.9165 77.4741C92.9841 77.4741 93.0325 77.4358 93.0784 77.3925C93.1351 77.3974 93.1702 77.3666 93.1969 77.3225L93.2211 77.31C93.2603 77.3125 93.2828 77.2925 93.2937 77.2567C93.3287 77.2333 93.3638 77.2092 93.398 77.1859L93.3963 77.1967L93.4005 77.1825C93.423 77.1825 93.4372 77.1725 93.443 77.1509C93.4731 77.1509 93.4906 77.1359 93.4948 77.1059L93.5156 77.0892C93.5515 77.0876 93.5715 77.0684 93.5774 77.0334C93.6516 77.0009 93.705 76.9476 93.7376 76.8735C93.7735 76.8677 93.7926 76.8477 93.7951 76.811L93.8102 76.7935C93.8419 76.7885 93.8594 76.7702 93.8611 76.7377C93.8794 76.7369 93.8869 76.7269 93.8844 76.7086L93.9078 76.7019L93.9061 76.6794C94.1656 76.4262 94.3233 76.1071 94.4677 75.7831C94.7856 75.0709 94.9408 74.317 94.99 73.5423C95.0309 72.8934 95.0134 72.2453 94.9166 71.6006C94.8281 71.0175 94.6871 70.4485 94.4485 69.9071C94.2491 69.4556 93.9937 69.0383 93.6266 68.7009C93.2595 68.3635 92.8464 68.1111 92.3349 68.0595C91.9978 67.957 91.5372 67.9587 91.1784 68.0637C90.8405 68.0945 90.5426 68.2328 90.2598 68.4094C89.7566 68.7242 89.402 69.1716 89.1325 69.6914C88.772 70.3861 88.6018 71.1341 88.5083 71.9055C88.4291 72.5544 88.4491 73.2016 88.515 73.848C88.5843 74.5336 88.7378 75.2008 89.029 75.8289C89.1575 76.1063 89.2927 76.382 89.513 76.6028L89.5163 76.6303L89.543 76.6402L89.5447 76.6436Z" fill="white"/>
<path d="M48.1178 64.8033C48.1737 64.8291 48.2288 64.8541 48.2847 64.8799C48.6793 65.0615 48.8704 65.3855 48.923 65.8004C48.9397 65.9336 48.9372 66.0694 48.9372 66.2035C48.9372 70.6243 48.9372 75.045 48.9388 79.4658C48.9388 79.7123 48.9255 79.9547 48.8479 80.1913C48.6785 80.7061 48.3272 80.9851 47.7849 80.991C46.8286 81.001 45.8716 80.9968 44.9145 80.991C44.7818 80.991 44.6492 80.9535 44.5165 80.9335C44.5015 80.901 44.4781 80.8835 44.4406 80.8877C44.4255 80.866 44.4047 80.8552 44.378 80.8569C44.3621 80.8169 44.3321 80.7952 44.2904 80.7894C43.995 80.4754 43.9074 80.0963 43.9082 79.6748C43.914 77.4807 43.9107 75.2866 43.9107 73.0925C43.9107 70.7142 43.9107 68.3369 43.9107 65.9586C43.9107 65.7629 43.9065 65.568 43.9816 65.3797C44.1043 65.0723 44.3121 64.8732 44.6417 64.8016C44.8002 64.7674 44.9579 64.7633 45.1173 64.7633C46.0626 64.7616 47.008 64.7591 47.9526 64.7574C48.0001 64.7999 48.056 64.8124 48.1178 64.8024V64.8033Z" fill="white"/>
<path d="M44.5877 60.8C44.5051 60.71 44.42 60.6217 44.3399 60.5292C43.9761 60.1052 43.7817 59.6146 43.7617 59.054C43.7458 58.6208 43.7725 58.1952 43.9578 57.7962C44.0345 57.6304 44.128 57.4721 44.2139 57.3097C44.249 57.2997 44.269 57.278 44.2698 57.2405C44.2698 57.2405 44.2849 57.2205 44.2849 57.2214C44.3124 57.2189 44.3249 57.2047 44.3232 57.1772C44.4117 57.0898 44.501 57.0023 44.5894 56.9157C44.6195 56.9173 44.6345 56.9015 44.6378 56.8732L44.6545 56.8607C44.6929 56.8599 44.7171 56.839 44.7279 56.8032C44.7596 56.7816 44.7922 56.7599 44.8239 56.7391L44.8406 56.7466L44.8472 56.7257H44.8664L44.8765 56.7108C44.9165 56.7133 44.9415 56.6933 44.9557 56.6583C45.0784 56.6033 45.2019 56.5483 45.3245 56.4925C45.3829 56.5008 45.4288 56.4783 45.4672 56.4359C45.4939 56.43 45.5198 56.4242 45.5465 56.4184C45.6258 56.43 45.6958 56.4084 45.7584 56.3609C45.811 56.3542 45.8636 56.3476 45.9161 56.3409C46.2315 56.3409 46.5478 56.3401 46.8632 56.3392C46.9166 56.3459 46.9708 56.3526 47.0242 56.3592C47.0868 56.4042 47.1552 56.4267 47.2328 56.4142C47.2612 56.42 47.2896 56.4267 47.3179 56.4325C47.3546 56.4725 47.398 56.4958 47.4548 56.4875C47.6559 56.5916 47.857 56.6966 48.0572 56.8007C48.0672 56.834 48.0889 56.8532 48.1248 56.8532L48.1323 56.8707L48.1507 56.8715L48.1598 56.8965L48.1857 56.899C48.2992 57.0156 48.4135 57.1323 48.527 57.2489C48.5253 57.2772 48.5395 57.2939 48.567 57.2989C48.7665 57.6345 48.9484 57.9752 49.026 58.3668C49.2062 59.2781 48.9726 60.0553 48.305 60.7017C48.2441 60.7608 48.1799 60.8183 48.1181 60.8766C48.0839 60.8749 48.0647 60.8933 48.0564 60.9241L48.0497 60.9282C47.993 60.9282 47.9571 60.9599 47.9279 61.004L47.9045 61.0157C47.8645 61.0124 47.8394 61.0324 47.8244 61.0674C47.7385 61.0757 47.6709 61.1248 47.6008 61.169C47.5482 61.1606 47.5107 61.1865 47.479 61.2231L47.4606 61.2281C47.383 61.2206 47.3154 61.2464 47.2562 61.2948C47.2236 61.3014 47.1911 61.3081 47.1586 61.3148C47.0835 61.3039 47.0167 61.3256 46.9541 61.3656C46.9249 61.3689 46.8957 61.3731 46.8665 61.3764C46.5494 61.3764 46.2324 61.3781 45.9153 61.3781C45.8844 61.3747 45.8527 61.3706 45.8218 61.3672C45.7351 61.3164 45.6424 61.2914 45.5415 61.2998L45.5248 61.2964C45.4647 61.2481 45.3988 61.2198 45.3204 61.2281L45.3028 61.2231C45.2703 61.1848 45.2327 61.1581 45.1793 61.1665C45.0024 61.0607 44.8256 60.9557 44.6487 60.8499C44.642 60.8174 44.6236 60.7983 44.5886 60.7983L44.5877 60.8Z" fill="white"/>
</g>
<defs>
<clipPath id="clip0_666_18741">
<rect width="92" height="90" fill="white" transform="translate(24 25)"/>
</clipPath>
</defs>
</svg>
