<svg width="140" height="140" viewBox="0 0 140 140" fill="none" xmlns="http://www.w3.org/2000/svg">
<rect width="140" height="140" rx="30" fill="white"/>
<g clip-path="url(#clip0_850_3963)">
<path d="M41.6457 65.992C41.694 66.0165 41.7276 65.9847 41.762 65.9667C43.0312 65.3106 44.3741 64.8819 45.7899 64.6831C46.8535 64.5339 47.9213 64.5152 48.9916 64.6179C50.5908 64.7703 52.1073 65.2014 53.537 65.9284C54.3894 66.362 55.182 66.8885 55.9223 67.4909C56.1671 67.6897 56.3366 67.9383 56.416 68.2431C56.4537 68.3882 56.4627 68.5374 56.4709 68.6857C56.4742 68.7395 56.4717 68.7941 56.4717 68.8479C56.4717 71.13 56.4717 73.4129 56.4717 75.695C56.4717 75.8034 56.4668 75.9118 56.4611 76.0193C56.4349 76.4733 56.2236 76.8246 55.8715 77.1107C54.3255 78.365 52.5953 79.2452 50.6432 79.6813C49.6147 79.9111 48.5731 80.0065 47.5185 79.9983C46.3942 79.9902 45.2887 79.8524 44.2029 79.5655C42.6561 79.1572 41.2485 78.4604 39.967 77.51C39.7705 77.3641 39.5773 77.2134 39.3889 77.0577C39.0196 76.752 38.846 76.3633 38.8641 75.8791C38.8804 75.426 38.8665 74.972 38.8665 74.518C38.8673 70.6442 38.869 66.7695 38.8698 62.8957C38.8698 62.6993 38.86 62.5029 38.8796 62.3073C38.9009 62.1027 38.9574 61.9095 39.0655 61.7318C39.19 61.5265 39.366 61.3814 39.5969 61.3113C39.9908 61.1915 40.3888 61.1817 40.7859 61.2942C41.2395 61.4221 41.4917 61.7335 41.5826 62.1826C41.6203 62.3692 41.6301 62.5583 41.6301 62.7482C41.6285 63.7637 41.6301 64.7801 41.6301 65.7956C41.6301 65.8608 41.6129 65.9293 41.6449 65.9904L41.6457 65.992ZM53.7138 72.2677H53.7155C53.7155 71.3264 53.7122 70.385 53.7188 69.4445C53.7196 69.2994 53.6737 69.2106 53.5517 69.1299C52.7247 68.5838 51.8485 68.1364 50.9027 67.8307C49.2716 67.3034 47.6077 67.195 45.9168 67.4656C44.4109 67.706 43.0418 68.2806 41.7865 69.134C41.676 69.2098 41.626 69.2904 41.626 69.4314C41.6326 71.3142 41.6334 73.1961 41.6277 75.0788C41.6277 75.2345 41.6784 75.3233 41.8013 75.4105C42.7388 76.0715 43.7616 76.5524 44.867 76.8621C46.2722 77.2557 47.7011 77.3266 49.1414 77.1327C50.7504 76.9159 52.2137 76.3201 53.5501 75.4072C53.6696 75.3257 53.7179 75.2369 53.7171 75.091C53.7114 74.1497 53.7138 73.2083 53.7138 72.2677Z" fill="black"/>
<path d="M59.2446 72.2678C59.2446 71.0558 59.2519 69.8431 59.2413 68.6311C59.2364 68.1176 59.4558 67.7378 59.8464 67.4281C60.9674 66.5381 62.1883 65.8201 63.5378 65.327C64.54 64.9602 65.5734 64.7296 66.6363 64.6228C67.6099 64.525 68.5835 64.5266 69.5547 64.6342C71.5248 64.8518 73.3467 65.4875 75.0131 66.5593C75.4373 66.8315 75.8426 67.129 76.2397 67.4387C76.6238 67.7378 76.8293 68.1225 76.8457 68.6058C76.8489 68.6939 76.8506 68.7819 76.8506 68.8699C76.8506 71.139 76.8506 73.4072 76.8506 75.6762C76.8506 75.7577 76.8498 75.8384 76.8473 75.9199C76.8358 76.4187 76.6262 76.8091 76.234 77.1262C74.6905 78.3715 72.966 79.2485 71.0212 79.6829C69.9927 79.9128 68.9512 80.0081 67.8965 80C66.7722 79.9918 65.6668 79.8541 64.5818 79.568C62.9736 79.1434 61.5185 78.4082 60.1993 77.4041C60.0208 77.268 59.839 77.136 59.6761 76.9811C59.3862 76.704 59.2405 76.3706 59.2421 75.9664C59.247 74.7341 59.2437 73.5017 59.2437 72.2686L59.2446 72.2678ZM62.0074 72.2702H62.009C62.009 73.2116 62.0123 74.1529 62.0057 75.0935C62.0049 75.2312 62.0467 75.3152 62.158 75.395C63.5894 76.4057 65.1804 76.9974 66.9237 77.1767C67.9317 77.2802 68.9381 77.2468 69.9371 77.065C71.4012 76.7985 72.7342 76.2247 73.956 75.3861C74.0567 75.3168 74.0935 75.2369 74.0935 75.1163C74.0911 73.2205 74.0911 71.3248 74.0952 69.429C74.0952 69.3011 74.0608 69.2179 73.9494 69.1446C73.1183 68.592 72.2364 68.1405 71.2841 67.8324C69.6529 67.3042 67.9898 67.1958 66.2981 67.4656C64.7988 67.7044 63.4362 68.2749 62.1834 69.1193C62.0499 69.2098 62.0016 69.3076 62.0033 69.4681C62.0114 70.4022 62.0074 71.337 62.0074 72.271V72.2702Z" fill="black"/>
<path d="M85.3737 72.2832C85.187 72.1349 85.0068 71.9914 84.8251 71.8488C83.0383 70.447 81.2516 69.0459 79.4649 67.6441C79.2823 67.5006 79.1103 67.3482 78.9711 67.1608C78.7427 66.8519 78.6944 66.5193 78.8377 66.1632C79.0047 65.7491 79.2643 65.4117 79.6631 65.1884C79.9709 65.0156 80.2821 65.0017 80.6047 65.1354C80.8397 65.2332 81.0444 65.3791 81.2426 65.5348C82.1802 66.2675 83.1186 66.9994 84.0562 67.7321C85.1919 68.6197 86.3285 69.5064 87.4642 70.394C87.4855 70.4111 87.5068 70.4282 87.5281 70.4445C87.655 70.5407 87.6558 70.5415 87.7844 70.4404C88.636 69.7746 89.4876 69.1095 90.3392 68.4428C91.6239 67.4371 92.9079 66.4297 94.1943 65.4256C94.4154 65.2528 94.6553 65.1158 94.9386 65.0621C95.127 65.0262 95.3063 65.0417 95.4783 65.1191C96.0547 65.3791 96.3896 65.8347 96.5247 66.4378C96.5747 66.6587 96.5018 66.8665 96.3888 67.0589C96.2668 67.2675 96.0948 67.4305 95.9065 67.5789C95.0885 68.2219 94.2705 68.865 93.4524 69.5072C92.3191 70.3972 91.185 71.2873 90.0518 72.1781C90.0092 72.2115 89.9699 72.2474 89.915 72.2938C90.0821 72.4267 90.2385 72.5538 90.3981 72.6777C92.2127 74.0877 94.0281 75.4977 95.8435 76.9069C96.0269 77.0495 96.1923 77.2093 96.3249 77.4008C96.5362 77.7056 96.5902 78.0316 96.474 78.3854C96.3061 78.8931 95.9679 79.246 95.4774 79.4506C95.2285 79.5549 94.9706 79.5321 94.7192 79.4376C94.4932 79.352 94.2967 79.2191 94.1091 79.0724C92.9374 78.1539 91.7656 77.2354 90.5938 76.3168C89.6628 75.5874 88.731 74.8579 87.7991 74.1293C87.6566 74.0176 87.6542 74.0184 87.5125 74.1293C85.422 75.761 83.3323 77.3927 81.2426 79.0252C81.06 79.1678 80.8725 79.3015 80.6604 79.3993C80.2993 79.5672 79.9513 79.5533 79.609 79.3422C79.2004 79.0912 78.9457 78.7252 78.7992 78.2819C78.7091 78.0096 78.755 77.7472 78.8991 77.5002C79.0383 77.2614 79.2323 77.0732 79.4485 76.9053C80.1568 76.3543 80.8668 75.8042 81.5751 75.254C82.8263 74.2825 84.0783 73.3118 85.3295 72.3395C85.3401 72.3313 85.3467 72.3191 85.3721 72.2865L85.3737 72.2832Z" fill="black"/>
<path d="M18.5707 73.3486C18.5707 71.7911 18.5764 70.2335 18.5674 68.6752C18.5649 68.1683 18.7557 67.7713 19.148 67.4575C20.8962 66.0581 22.8565 65.1233 25.0805 64.75C25.9984 64.596 26.9221 64.5283 27.8498 64.5634C29.9772 64.6441 31.9785 65.1779 33.8241 66.2505C34.4375 66.6067 35.018 67.0093 35.5732 67.4486C35.8426 67.6613 36.0416 67.9221 36.1194 68.2595C36.1587 68.4307 36.1718 68.6076 36.1718 68.7836C36.1718 71.818 36.1726 74.8523 36.1701 77.8859C36.1701 78.1157 36.1497 78.3455 36.0948 78.5705C35.9916 78.9935 35.7165 79.2535 35.3022 79.3635C34.9681 79.4524 34.6258 79.4483 34.2893 79.37C33.8274 79.2625 33.5245 78.9063 33.4565 78.4002C33.4295 78.1988 33.4139 77.9967 33.4139 77.793C33.4155 75.0227 33.4131 72.2532 33.4196 69.4829C33.4196 69.2963 33.3599 69.1895 33.2076 69.0892C32.1463 68.3875 30.9918 67.9017 29.7586 67.5969C29.0347 67.4184 28.3002 67.3206 27.5526 67.3345C27.0965 67.3434 26.6396 67.328 26.1835 67.3777C24.6686 67.5439 23.2643 68.0256 21.9673 68.8195C21.8051 68.9189 21.6495 69.0297 21.4866 69.1284C21.3703 69.1985 21.3277 69.2873 21.3286 69.4267C21.3335 71.5669 21.3326 73.7072 21.3326 75.8475C21.3326 76.4636 21.3343 77.0798 21.3318 77.6968C21.3318 77.9201 21.3302 78.1434 21.2974 78.3659C21.2106 78.9544 20.9134 79.2755 20.3279 79.3912C20.0716 79.4418 19.8104 79.4401 19.5549 79.3969C18.9899 79.3008 18.6575 78.9356 18.5928 78.3651C18.5641 78.1084 18.5649 77.8516 18.5649 77.5941C18.5649 76.1784 18.5649 74.7635 18.5649 73.3478C18.5666 73.3478 18.569 73.3478 18.5707 73.3478V73.3486Z" fill="#CC0717"/>
<path d="M13 72.254C13 70.4593 13 68.6646 13.0016 66.8699C13.0016 66.5724 12.9951 66.2741 13.0614 65.9799C13.1605 65.5422 13.4225 65.2618 13.8598 65.1461C14.225 65.0491 14.5902 65.0548 14.9489 65.1656C15.3968 65.3034 15.6441 65.6196 15.7235 66.0736C15.7587 66.2749 15.7685 66.477 15.7685 66.6808C15.7685 70.3655 15.7685 74.0495 15.7685 77.7342C15.7685 77.9437 15.7652 78.1532 15.7349 78.3626C15.6473 78.9576 15.3411 79.2869 14.7482 79.3961C14.4919 79.4434 14.2307 79.4425 13.9744 79.3953C13.4192 79.2918 13.0933 78.9323 13.0287 78.37C13 78.1132 13 77.8557 13 77.5981C13 75.8165 13 74.0356 13 72.254Z" fill="#CC0717"/>
<path d="M14.3553 63.9724C14.1981 63.9797 14.0425 63.974 13.8886 63.9349C13.4448 63.8208 13.1647 63.5486 13.0632 63.1019C12.9895 62.7735 12.9895 62.4442 13.0624 62.1157C13.1623 61.6691 13.4399 61.3887 13.8853 61.282C14.2358 61.198 14.5887 61.2013 14.9351 61.304C15.4035 61.4433 15.6507 61.771 15.7261 62.2404C15.7629 62.4687 15.7687 62.696 15.7343 62.9267C15.6401 63.5559 15.2602 63.9178 14.6215 63.9708C14.5338 63.9781 14.4446 63.9716 14.3561 63.9716L14.3553 63.9724Z" fill="#CC0717"/>
<path d="M99.0548 79.4091C99.8553 79.4091 100.504 78.7633 100.504 77.9665C100.504 77.1698 99.8553 76.5239 99.0548 76.5239C98.2544 76.5239 97.6055 77.1698 97.6055 77.9665C97.6055 78.7633 98.2544 79.4091 99.0548 79.4091Z" fill="#D8D0C7"/>
<path d="M105.299 62.4426V77.9665C105.299 78.7628 104.65 79.4091 103.849 79.4091C103.048 79.4091 102.4 78.7628 102.4 77.9665V62.4426C102.4 61.6455 103.048 61 103.849 61C104.65 61 105.299 61.6455 105.299 62.4426Z" fill="#D8D0C7"/>
<path d="M125.737 67.3141L118.331 77.8239L117.903 78.4311L117.536 78.9527C117.279 79.1858 116.936 79.3276 116.561 79.3276C116.186 79.3276 115.845 79.1858 115.588 78.9535H115.587L115.219 78.4311L114.792 77.8239L107.385 67.3141C106.925 66.6612 107.084 65.7623 107.739 65.3042C108.395 64.8462 109.298 65.0043 109.758 65.6571L116.562 75.312L123.365 65.6571C123.825 65.0043 124.728 64.8462 125.384 65.3042C126.039 65.7623 126.198 66.6612 125.738 67.3141H125.737Z" fill="#D8D0C7"/>
</g>
<defs>
<clipPath id="clip0_850_3963">
<rect width="113" height="19" fill="white" transform="translate(13 61)"/>
</clipPath>
</defs>
</svg>
