<svg width="140" height="140" viewBox="0 0 140 140" fill="none" xmlns="http://www.w3.org/2000/svg">
<rect width="140" height="140" rx="30" fill="white"/>
<g clip-path="url(#clip0_820_1000)">
<path d="M70.3769 103.069C51.7297 103.032 37.5071 88.0193 36.8047 70.7704C36.0008 51.1548 52.1425 35.2853 71.6225 35.7789C89.4297 36.229 103.79 51.1839 104.239 68.4981C104.746 87.954 88.8214 103.359 70.3769 103.069ZM73.1795 76.687C78.0024 78.8359 81.3046 78.4511 83.8174 75.5327C86.2217 72.7523 86.5475 68.1787 84.5851 65.0861C83.593 63.5253 82.2026 62.4581 80.5008 61.8265C77.9155 60.8755 75.4968 61.3619 73.5271 62.8719C73.0708 62.4581 72.7739 61.9427 72.4408 61.9209C71.0359 61.8265 69.6166 61.8991 68.2045 61.8628C67.5527 61.8483 67.3065 62.0371 67.3137 62.734C67.3355 71.3367 67.3355 79.9321 67.3427 88.5348C67.3427 88.8687 67.4006 89.2099 67.4513 89.7108C67.8858 89.4495 68.1682 89.3043 68.4217 89.1083C69.5731 88.2371 70.6666 87.2934 71.876 86.5021C72.8608 85.856 73.2736 85.1227 73.2229 83.9176C73.1215 81.551 73.194 79.1771 73.194 76.687H73.1795ZM64.3012 61.8628C64.0767 61.9282 63.9464 61.9282 63.8595 61.9935C62.2229 63.1623 60.5718 64.3166 58.9641 65.5362C58.7034 65.7322 58.5296 66.1968 58.5224 66.5453C58.4934 69.9428 58.5079 73.3403 58.4934 76.7451C58.4934 77.442 58.7758 77.7034 59.471 77.6889C60.7673 77.6526 62.0635 77.6453 63.3525 77.6889C64.1129 77.7106 64.3229 77.4202 64.3229 76.687C64.3157 72.2369 64.3447 67.7794 64.3591 63.3293C64.3591 62.8647 64.3157 62.4 64.294 61.8628H64.3012ZM64.5402 57.3618C64.5185 55.634 63.0556 54.1821 61.3683 54.2257C59.71 54.262 58.1675 55.7938 58.1603 57.4054C58.153 59.0461 59.7607 60.5996 61.4552 60.5924C63.1425 60.5924 64.5619 59.1042 64.5402 57.3691V57.3618Z" fill="#6961E2"/>
<path d="M70.5075 94.8216C84.5016 94.8216 95.846 83.449 95.846 69.4201C95.846 55.3913 84.5016 44.0186 70.5075 44.0186C56.5134 44.0186 45.1689 55.3913 45.1689 69.4201C45.1689 83.449 56.5134 94.8216 70.5075 94.8216Z" fill="#FFC800"/>
<path d="M14.9999 70.4438C14.5654 41.1511 36.7032 16.4828 65.8798 14.1815C97.8444 11.6624 123.661 35.2853 125.841 65.0281C128.288 98.3498 103.232 123.142 73.5342 124.898C42.663 126.728 15.5648 102.081 14.9999 70.4438ZM24.1461 69.4129C23.9868 93.5875 42.9382 115.033 69.3413 115.824C96.2657 116.63 116.919 94.7491 116.89 69.5218C116.854 43.2491 96.2295 23.3069 71.6514 23.0528C44.43 22.7697 24.0158 43.4669 24.1461 69.4129Z" fill="#4404CB"/>
<path d="M24.1533 69.4129C24.023 43.4742 44.43 22.7697 71.6586 23.0528C96.244 23.3069 116.868 43.2491 116.897 69.5218C116.926 94.7491 96.2729 116.63 69.3485 115.824C42.9382 115.033 23.994 93.5875 24.1533 69.4129ZM70.4564 29.0347C48.4201 28.9186 28.8387 47.2928 30.1349 71.7941C31.2212 92.288 48.0146 110.706 72.39 109.871C93.4921 109.145 111.176 91.9178 110.916 68.716C110.669 46.4797 92.5942 28.9258 70.4564 29.0347Z" fill="#6961E2"/>
<path d="M70.4566 29.0347C92.5944 28.9258 110.67 46.4724 110.916 68.716C111.176 91.9178 93.4851 109.145 72.3902 109.871C48.0148 110.713 31.2214 92.288 30.1351 71.7941C28.8389 47.2927 48.4203 28.9186 70.4566 29.0347ZM70.377 103.076C88.8215 103.366 104.739 87.9613 104.239 68.5054C103.79 51.1912 89.4298 36.2436 71.6226 35.7862C52.1425 35.2925 36.0081 51.1621 36.8047 70.7777C37.5071 88.0339 51.7297 103.04 70.377 103.076ZM102.762 89.5729C104.152 89.5584 104.826 88.847 104.804 87.4168C104.782 86.2988 103.884 85.522 102.624 85.5438C101.487 85.5656 100.596 86.5021 100.625 87.6419C100.654 88.7671 101.56 89.5874 102.762 89.5729ZM57.2406 32.8751C56.1109 32.8896 55.2492 33.8261 55.2781 35.0094C55.2999 36.0621 56.2558 36.9695 57.3493 36.9768C58.5079 36.984 59.4349 36.0766 59.4131 34.9441C59.3914 33.7825 58.421 32.8606 57.2334 32.8751H57.2406ZM76.7641 32.846C76.7641 31.5756 75.8734 30.6899 74.6134 30.7117C73.643 30.7262 72.6653 31.7208 72.6509 32.6936C72.6364 33.8551 73.6575 34.8352 74.8596 34.8134C75.9458 34.7916 76.7641 33.9495 76.7641 32.846ZM92.8406 100.361C92.8261 99.2718 91.8123 98.27 90.7477 98.2845C89.6905 98.299 88.7056 99.2718 88.7201 100.303C88.7346 101.609 89.5891 102.423 90.9071 102.393C92.0585 102.364 92.8623 101.522 92.8406 100.368V100.361ZM37.862 54.1676C39.0569 54.1676 39.8679 53.3255 39.8607 52.0986C39.8534 50.9879 38.9337 50.1167 37.7389 50.095C36.6599 50.0732 35.7547 50.9806 35.7474 52.0986C35.7402 53.3182 36.6092 54.1676 37.862 54.1676ZM47.5151 38.9369C47.5151 40.2364 48.3044 41.093 49.521 41.1075C50.629 41.122 51.5921 40.1928 51.6211 39.0893C51.6501 38.0222 50.6652 37.0639 49.5428 37.0494C48.29 37.0421 47.5151 37.7608 47.5223 38.9369H47.5151ZM74.2513 104.332C72.984 104.325 72.1584 105.021 72.1222 106.132C72.086 107.272 73.0709 108.332 74.1571 108.332C75.3375 108.332 76.192 107.526 76.2065 106.423C76.221 105.007 75.5982 104.346 74.244 104.332H74.2513ZM42.9167 46.9298C44.1695 46.9152 44.966 46.0804 44.9516 44.8027C44.9371 43.7137 43.9884 42.8789 42.7646 42.9007C41.6638 42.9152 40.8093 43.7646 40.8166 44.8317C40.8166 46.0731 41.6928 46.9443 42.9094 46.9298H42.9167ZM97.3304 92.6655C96.2876 92.6655 95.4114 93.5803 95.4258 94.6619C95.4403 95.7654 96.4976 96.7672 97.6273 96.7527C98.6629 96.7382 99.5319 95.8816 99.5391 94.8579C99.5463 93.5149 98.6991 92.6728 97.3304 92.6728V92.6655ZM82.7457 106.335C83.9189 106.357 84.8386 105.486 84.8603 104.346C84.882 103.192 83.9478 102.27 82.7312 102.241C81.7174 102.219 80.776 103.199 80.7688 104.295C80.7615 105.384 81.6595 106.321 82.7457 106.335ZM39.542 86.2335C39.5203 85.0502 38.6368 84.1935 37.4709 84.2153C36.3919 84.2371 35.436 85.3043 35.4505 86.4585C35.465 87.4821 36.4064 88.2952 37.5361 88.2662C38.8324 88.2299 39.5638 87.4894 39.5493 86.2408L39.542 86.2335ZM49.0793 97.544C47.8482 97.544 46.9647 98.3716 46.972 99.5114C46.972 100.695 47.7758 101.551 48.8983 101.566C50.1366 101.588 51.0563 100.673 51.0635 99.417C51.0635 98.3571 50.2018 97.5368 49.0793 97.5368V97.544ZM56.6613 105.791C57.8127 105.806 58.8338 104.847 58.8483 103.744C58.8628 102.677 57.8489 101.689 56.7482 101.711C55.6113 101.726 54.7495 102.64 54.7495 103.831C54.7495 104.92 55.5895 105.784 56.6541 105.798L56.6613 105.791ZM65.3368 104.041C64.1564 104.027 63.244 104.898 63.244 106.052C63.244 107.025 64.2578 108.085 65.1847 108.085C66.4737 108.078 67.321 107.279 67.3572 106.052C67.3862 104.818 66.6258 104.056 65.3368 104.041ZM106.057 81.3913C107.338 81.4131 108.12 80.6871 108.142 79.453C108.164 78.3423 107.288 77.3912 106.216 77.3477C104.985 77.2969 104.116 78.0882 104.08 79.286C104.043 80.4911 104.869 81.3695 106.049 81.3913H106.057ZM63.8957 32.7589C63.8957 34.0511 64.6633 34.8207 65.9596 34.8279C67.1327 34.8352 67.8641 34.1092 67.8859 32.9332C67.9076 31.7063 67.0458 30.777 65.8654 30.7553C64.8082 30.7335 63.8885 31.6627 63.8885 32.7662L63.8957 32.7589ZM36.6164 60.4182C36.6599 59.2857 35.8488 58.4436 34.6612 58.3855C33.6184 58.3347 32.5901 59.2566 32.5321 60.302C32.4742 61.391 33.4301 62.4146 34.5308 62.4364C35.6967 62.4581 36.573 61.6088 36.6164 60.4182ZM101.009 51.8155C101.009 53.0714 101.675 53.8119 102.82 53.8192C104 53.8264 105.093 52.8754 105.101 51.8373C105.108 50.6685 104.304 49.8699 103.109 49.8554C101.849 49.8409 101.016 50.6177 101.009 51.8155ZM33.4518 71.1479C34.7336 71.1334 35.5447 70.3276 35.5519 69.0644C35.5519 68.0118 34.6684 67.1479 33.5749 67.1479C32.3801 67.1479 31.4024 68.0989 31.4386 69.2387C31.4676 70.255 32.4235 71.1625 33.4518 71.1479ZM107.418 71.1479C108.664 71.1552 109.598 70.3421 109.605 69.2459C109.612 68.1424 108.656 67.1551 107.563 67.1406C106.448 67.1334 105.542 68.0118 105.528 69.1152C105.513 70.3857 106.216 71.1407 107.411 71.1479H107.418ZM83.4047 36.8098C84.5416 36.8316 85.3962 35.9967 85.4251 34.8352C85.4541 33.739 84.5561 32.8243 83.4482 32.8025C82.2605 32.7807 81.3553 33.5793 81.3264 34.6755C81.2901 35.8661 82.1881 36.788 83.4047 36.8098ZM36.4716 77.8341C36.4716 76.7669 35.6822 75.932 34.6467 75.903C33.3939 75.8667 32.4959 76.7524 32.4814 78.0373C32.467 79.1336 33.2708 79.9249 34.415 79.9466C35.646 79.9684 36.4716 79.119 36.4716 77.8341ZM97.9677 42.6248C96.7945 42.6103 95.8241 43.5468 95.8169 44.6938C95.8169 45.6303 96.7728 46.5886 97.7287 46.6031C98.996 46.6249 99.8722 45.8118 99.8867 44.5994C99.9012 43.358 99.206 42.6393 97.9604 42.6248H97.9677ZM91.356 36.8461C90.125 36.8316 89.1763 37.6882 89.1401 38.857C89.1111 39.8371 90.096 40.8171 91.1098 40.8171C92.3771 40.8171 93.2099 39.9968 93.2171 38.7336C93.2244 37.6374 92.4568 36.8606 91.356 36.8461ZM44.4374 93.5367C44.4591 92.3461 43.7494 91.6056 42.5691 91.5766C41.3959 91.5548 40.4907 92.4114 40.4545 93.573C40.4255 94.7345 41.3235 95.642 42.5039 95.6347C43.5539 95.6275 44.4157 94.691 44.4374 93.5367ZM104.246 59.9536C104.232 61.195 104.992 62.0734 106.086 62.0734C107.346 62.0734 108.229 61.2893 108.265 60.1496C108.301 58.93 107.563 58.1387 106.368 58.1169C105.166 58.0951 104.261 58.8719 104.246 59.9536Z" fill="#FF5800"/>
<path d="M102.761 89.5729C101.559 89.5874 100.654 88.7598 100.625 87.6418C100.596 86.5021 101.487 85.5656 102.624 85.5438C103.884 85.522 104.782 86.2988 104.804 87.4168C104.833 88.8397 104.152 89.5584 102.761 89.5729Z" fill="#FFC800"/>
<path d="M57.2406 32.8751C58.4283 32.8606 59.3986 33.7826 59.4204 34.9441C59.4421 36.0694 58.5152 36.9841 57.3565 36.9768C56.263 36.9695 55.3071 36.0621 55.2854 35.0094C55.2564 33.8334 56.1182 32.8896 57.2479 32.8751H57.2406Z" fill="#FFC800"/>
<path d="M76.7638 32.8533C76.7638 33.9568 75.9455 34.7989 74.8592 34.8207C73.6571 34.8424 72.6361 33.8624 72.6505 32.7008C72.665 31.7208 73.6426 30.7335 74.613 30.719C75.8731 30.6972 76.7638 31.5829 76.7638 32.8533Z" fill="#FFC800"/>
<path d="M92.8404 100.361C92.8549 101.522 92.0583 102.364 90.9069 102.386C89.5889 102.415 88.7344 101.602 88.7199 100.295C88.7054 99.2646 89.6903 98.2845 90.7475 98.2773C91.8121 98.2627 92.8259 99.2718 92.8404 100.354V100.361Z" fill="#FFC800"/>
<path d="M37.8617 54.1677C36.6089 54.1677 35.7399 53.3183 35.7471 52.0987C35.7544 50.9807 36.6596 50.0732 37.7386 50.095C38.9407 50.124 39.8531 50.9879 39.8604 52.0987C39.8676 53.3183 39.0493 54.1677 37.8617 54.1677Z" fill="#FFC800"/>
<path d="M47.5224 38.9369C47.5224 37.7536 48.29 37.0349 49.5428 37.0494C50.6653 37.0567 51.6501 38.0149 51.6212 39.0894C51.5922 40.1928 50.629 41.1221 49.5211 41.1076C48.3045 41.093 47.5151 40.2364 47.5151 38.9369H47.5224Z" fill="#FFC800"/>
<path d="M74.2512 104.332C75.6054 104.339 76.2282 105.007 76.2137 106.423C76.1992 107.526 75.3447 108.325 74.1643 108.332C73.0708 108.332 72.0932 107.279 72.1294 106.132C72.1656 105.021 72.9912 104.317 74.2584 104.332H74.2512Z" fill="#FFC800"/>
<path d="M42.9166 46.9297C41.6927 46.9443 40.8237 46.0804 40.8237 44.8317C40.8237 43.7645 41.671 42.9151 42.7717 42.9006C43.9883 42.8788 44.9442 43.7064 44.9587 44.8027C44.9732 46.0804 44.1766 46.9152 42.9238 46.9297H42.9166Z" fill="#FFC800"/>
<path d="M97.3305 92.6656C98.6992 92.6656 99.5465 93.515 99.5392 94.8507C99.5392 95.8671 98.663 96.731 97.6274 96.7455C96.4977 96.76 95.4404 95.7582 95.426 94.6547C95.4115 93.573 96.2877 92.6583 97.3305 92.6583V92.6656Z" fill="#FFC800"/>
<path d="M82.7456 106.343C81.6666 106.328 80.7614 105.392 80.7686 104.303C80.7758 103.207 81.7173 102.227 82.7311 102.248C83.9477 102.277 84.8819 103.199 84.8601 104.354C84.8384 105.501 83.9187 106.365 82.7456 106.343Z" fill="#FFC800"/>
<path d="M39.5493 86.2335C39.5711 87.4821 38.8324 88.2226 37.5362 88.2589C36.4137 88.288 35.4723 87.4749 35.4506 86.4513C35.4288 85.297 36.392 84.2298 37.471 84.208C38.6441 84.1863 39.5276 85.0429 39.5421 86.2262L39.5493 86.2335Z" fill="#FFC800"/>
<path d="M49.0863 97.5513C50.2088 97.5513 51.0778 98.3716 51.0705 99.4315C51.0705 100.687 50.1436 101.595 48.9053 101.58C47.7828 101.566 46.9862 100.709 46.979 99.5259C46.979 98.3789 47.8552 97.5585 49.0863 97.5585V97.5513Z" fill="#FFC800"/>
<path d="M56.6682 105.798C55.6037 105.784 54.7637 104.92 54.7637 103.831C54.7637 102.64 55.6254 101.726 56.7624 101.711C57.8631 101.697 58.8769 102.684 58.8624 103.744C58.848 104.855 57.8269 105.806 56.6755 105.791L56.6682 105.798Z" fill="#FFC800"/>
<path d="M65.3365 104.049C66.6255 104.07 67.3859 104.825 67.3569 106.06C67.3279 107.286 66.4734 108.085 65.1844 108.092C64.2575 108.092 63.2509 107.04 63.2437 106.06C63.2437 104.905 64.1489 104.034 65.3365 104.049Z" fill="#FFC800"/>
<path d="M106.064 81.3913C104.883 81.3695 104.058 80.4911 104.094 79.286C104.13 78.0881 104.999 77.2968 106.23 77.3476C107.302 77.3912 108.171 78.3422 108.156 79.4529C108.135 80.6871 107.353 81.4131 106.071 81.3913H106.064Z" fill="#FFC800"/>
<path d="M63.8955 32.7589C63.8955 31.6627 64.808 30.7262 65.8725 30.748C67.0529 30.7698 67.9074 31.699 67.8929 32.9259C67.8784 34.1092 67.1398 34.8352 65.9666 34.8207C64.6631 34.8134 63.9028 34.0439 63.9028 32.7517L63.8955 32.7589Z" fill="#FFC800"/>
<path d="M36.6162 60.4182C36.5728 61.6088 35.7038 62.4582 34.5306 62.4364C33.4299 62.4146 32.4668 61.391 32.5319 60.302C32.5899 59.2566 33.6182 58.3347 34.661 58.3855C35.8486 58.4436 36.6524 59.2857 36.6162 60.4182Z" fill="#FFC800"/>
<path d="M101.002 51.8228C101.002 50.6249 101.842 49.8554 103.102 49.8627C104.297 49.8772 105.108 50.6757 105.094 51.8445C105.086 52.8899 103.993 53.8337 102.812 53.8264C101.668 53.8192 100.995 53.0714 101.002 51.8228Z" fill="#FFC800"/>
<path d="M33.4443 71.1479C32.416 71.1625 31.4601 70.255 31.4311 69.2386C31.3949 68.1061 32.3798 67.1406 33.5674 67.1479C34.6609 67.1479 35.5516 68.019 35.5444 69.0644C35.5372 70.3276 34.7261 71.1334 33.4443 71.1479Z" fill="#FFC800"/>
<path d="M107.411 71.1552C106.209 71.1479 105.514 70.3929 105.528 69.1225C105.535 68.019 106.448 67.1406 107.563 67.1479C108.656 67.1551 109.612 68.1424 109.605 69.2532C109.598 70.3494 108.664 71.1625 107.418 71.1552H107.411Z" fill="#FFC800"/>
<path d="M83.39 36.8171C82.1734 36.7953 81.2754 35.8806 81.3116 34.6828C81.3406 33.5865 82.2458 32.788 83.4334 32.8098C84.5414 32.8315 85.4393 33.7463 85.4104 34.8425C85.3814 36.004 84.5269 36.8389 83.39 36.8171Z" fill="#FFC800"/>
<path d="M36.4713 77.8341C36.4713 79.1191 35.6458 79.9685 34.4147 79.9467C33.2705 79.9249 32.4667 79.1336 32.4811 78.0374C32.4956 76.7524 33.3936 75.8668 34.6464 75.9031C35.682 75.9321 36.4713 76.7742 36.4713 77.8341Z" fill="#FFC800"/>
<path d="M97.9605 42.632C99.1988 42.6465 99.894 43.3653 99.8867 44.6066C99.8723 45.819 98.996 46.6321 97.7287 46.6103C96.7728 46.5958 95.8097 45.6375 95.8169 44.701C95.8169 43.5467 96.7946 42.6102 97.9677 42.632H97.9605Z" fill="#FFC800"/>
<path d="M91.3489 36.8534C92.4569 36.8679 93.2245 37.6447 93.21 38.7409C93.1955 40.0041 92.37 40.8244 91.1027 40.8244C90.0888 40.8244 89.104 39.8443 89.1329 38.8643C89.1692 37.6955 90.1106 36.8316 91.3489 36.8534Z" fill="#FFC800"/>
<path d="M44.4372 93.5367C44.4155 94.691 43.5537 95.6275 42.5037 95.6347C41.3305 95.642 40.4253 94.7345 40.4543 93.573C40.4833 92.4114 41.3957 91.5548 42.5688 91.5766C43.7492 91.5984 44.4589 92.3461 44.4372 93.5367Z" fill="#FFC800"/>
<path d="M104.246 59.9463C104.261 58.8646 105.166 58.0806 106.368 58.1096C107.563 58.1314 108.302 58.9227 108.265 60.1423C108.229 61.2821 107.346 62.0589 106.086 62.0661C104.992 62.0661 104.232 61.1877 104.246 59.9463Z" fill="#FFC800"/>
<path d="M73.1795 76.6871C73.1795 79.1771 73.1071 81.551 73.2085 83.9177C73.2592 85.1228 72.8464 85.8633 71.8616 86.5021C70.6594 87.2862 69.5587 88.2372 68.4073 89.1083C68.1538 89.2971 67.8642 89.4423 67.4369 89.7109C67.3935 89.21 67.3283 88.876 67.3283 88.5348C67.321 79.9321 67.3283 71.3367 67.2993 62.734C67.2993 62.0371 67.5383 61.8484 68.19 61.8629C69.6022 61.8992 71.0215 61.8266 72.4264 61.9209C72.7595 61.9427 73.0564 62.4582 73.5127 62.872C75.4824 61.362 77.9011 60.8756 80.4864 61.8266C82.1954 62.4509 83.5858 63.5181 84.5706 65.0862C86.5259 68.186 86.2073 72.7523 83.803 75.5328C81.2902 78.4439 77.988 78.8359 73.1651 76.6871H73.1795ZM79.7839 69.7759C79.7984 68.0916 78.2197 66.4655 76.5179 66.4292C74.8234 66.3856 73.1578 68.0045 73.0999 69.7396C73.0492 71.3803 74.722 73.0427 76.4817 73.0935C78.1328 73.1444 79.7622 71.5037 79.7839 69.7759Z" fill="#4404CB"/>
<path d="M64.3012 61.8629C64.3229 62.3928 64.3664 62.8574 64.3664 63.3293C64.3519 67.7795 64.3157 72.2369 64.3302 76.6871C64.3302 77.4203 64.1201 77.7179 63.3598 77.6889C62.0635 77.6453 60.7673 77.6526 59.4782 77.6889C58.783 77.7034 58.4934 77.4493 58.5006 76.7451C58.5151 73.3476 58.5006 69.9501 58.5296 66.5453C58.5296 66.2041 58.7106 65.7322 58.9713 65.5362C60.579 64.3166 62.2228 63.1623 63.8667 61.9935C63.9536 61.9282 64.0839 61.9282 64.3084 61.8629H64.3012Z" fill="#4404CB"/>
<path d="M64.5328 57.3619C64.5545 59.0969 63.1351 60.5779 61.4478 60.5852C59.7533 60.5924 58.1456 59.0388 58.1529 57.3982C58.1601 55.7865 59.7026 54.262 61.3609 54.2184C63.0482 54.1821 64.511 55.6268 64.5328 57.3546V57.3619Z" fill="#FF5800"/>
<path d="M79.7836 69.7759C79.7692 71.4964 78.1325 73.1371 76.4814 73.0935C74.7217 73.0427 73.0417 71.3803 73.0996 69.7396C73.1503 68.0045 74.8231 66.3929 76.5177 66.4292C78.2194 66.4727 79.7981 68.0917 79.7836 69.7759Z" fill="#FFC800"/>
</g>
<defs>
<clipPath id="clip0_820_1000">
<rect width="111" height="111" fill="white" transform="translate(15 14)"/>
</clipPath>
</defs>
</svg>
