<svg width="140" height="140" viewBox="0 0 140 140" fill="none" xmlns="http://www.w3.org/2000/svg">
<rect width="140" height="140" rx="30" fill="white"/>
<g clip-path="url(#clip0_3612_911)">
<path d="M93.4513 93.4612H75.3187V89.1476C75.3187 89.0987 75.6053 88.4364 75.652 88.2326C76.3446 85.1518 76.4749 82.5865 76.5719 79.4496C76.9905 65.9045 76.518 52.2623 76.5791 38.7136C76.4416 37.1461 76.3365 35.5857 75.9925 34.0467C75.9152 33.7004 75.4076 32.2486 75.4076 32.1356V28H93.3156C93.4135 28 93.4441 28.2172 93.4548 28.3071C93.5483 29.094 93.4611 31.2294 93.3524 32.0394C93.2869 32.529 92.941 33.1966 92.8098 33.7253C92.2717 35.8999 92.1558 38.0932 92.0094 40.315C92.3768 53.7052 91.5332 67.3412 92.0094 80.703C92.0929 83.0636 92.375 85.7509 92.9554 88.0376C93.02 88.2913 93.4504 89.2571 93.4504 89.3266V93.4621L93.4513 93.4612Z" fill="#025E2E"/>
<path d="M63.4693 28V31.4243C63.4693 32.1275 62.9527 33.3595 62.7767 34.1179C62.2835 36.2497 62.2062 38.3229 62.1217 40.4948C61.6151 53.5156 62.3203 66.7581 62.0283 79.8128C62.2107 82.7467 62.3697 85.5791 63.1153 88.4302C63.1674 88.6296 63.4693 89.2277 63.4693 89.3248V93.4603H45.3367V89.1467C45.3367 89.0649 45.7661 87.8943 45.8317 87.5917C46.3734 85.0735 46.4965 82.8108 46.5899 80.249C47.0697 67.067 46.422 53.7017 46.687 40.4921C46.5864 37.9704 46.4094 35.6133 45.8317 33.1565C45.7877 32.9696 45.5164 32.383 45.5164 32.3127V28H63.4693Z" fill="#FB5E02"/>
<path d="M54.7624 97.8193C54.6276 98.3383 54.5216 98.9276 54.4893 99.4607C54.3078 102.457 54.297 106.795 54.4893 109.785C54.5333 110.472 54.6833 111.148 54.942 111.783H51.8005C51.7807 111.783 51.8508 111.52 51.7546 111.515C48.4675 112.946 45.2873 110.878 45.0645 107.385C44.8094 103.382 47.8342 100.692 51.8013 101.91V99.0201C51.8013 98.7335 51.5013 98.1318 51.442 97.8193H54.7633H54.7624ZM49.8034 103.358C46.9583 103.798 47.1874 110.467 50.6685 110.084C50.956 110.052 51.7888 109.774 51.8723 109.499L51.8849 104.274C51.6369 103.476 50.5463 103.243 49.8034 103.358Z" fill="black"/>
<path d="M75.9467 106.981C75.9467 108.609 75.8371 110.23 76.3958 111.784H72.7152L73.0324 110.897C73.0674 107.202 73.4339 103.052 73.168 99.3726C73.1312 98.8581 72.9578 98.3312 72.8949 97.8193H77.7874C78.1045 97.8193 79.1313 98.1496 79.4521 98.3054C82.4481 99.7598 82.263 104.658 79.5105 106.286C79.126 106.514 77.9329 106.981 77.5179 106.981H75.9467ZM75.9467 105.202C79.1574 105.85 79.8752 100.081 76.8639 99.7126C76.6995 99.6922 75.9467 99.6147 75.9467 99.8204V105.201V105.202Z" fill="black"/>
<path d="M43.452 111.784H39.8612C39.9591 111.454 40.1074 111.151 40.1801 110.81C40.4397 109.586 40.4406 106.187 40.3095 104.891C40.1289 103.111 38.1947 103.676 37.53 104.803C37.697 107.094 37.1113 109.631 37.9764 111.784H34.3857C34.5231 111.298 34.7073 110.833 34.7477 110.319C34.9067 108.323 34.8528 105.313 34.7477 103.287C34.7369 103.071 34.4207 101.822 34.6992 101.822H37.5264C37.5713 101.822 37.4922 102.607 37.5264 102.712C39.032 101.081 42.7306 101.095 43.0001 103.735C43.2238 105.925 42.8842 108.353 43.0917 110.493C43.1339 110.932 43.3271 111.365 43.4502 111.784H43.452Z" fill="black"/>
<path d="M83.7067 103.104C86.029 100.515 91.0607 101.278 92.2196 104.688C93.6902 109.015 90.5666 112.903 85.923 111.816C82.1184 110.925 81.2991 105.79 83.7067 103.104ZM87.2373 103.355C84.447 103.682 84.5745 109.757 87.2337 110.161C90.1462 110.603 90.5091 104.622 88.2452 103.555C87.938 103.41 87.5742 103.316 87.2373 103.355Z" fill="black"/>
<path d="M70.2914 111.784H67.2397C67.2173 111.784 67.2568 111.409 67.2397 111.339C65.5382 112.538 62.4209 112.011 61.7696 109.866C60.7338 106.455 64.3353 104.984 67.1508 105.113C67.2595 103.062 65.4951 103.215 64.0945 103.908C63.6094 104.147 63.2061 104.62 62.6626 104.667C62.5736 104.575 62.9617 102.426 63.1513 102.261C63.4468 102.006 64.9678 101.68 65.4017 101.644C71.3614 101.156 69.5817 106.017 69.8441 109.869C69.8899 110.546 70.0282 111.161 70.2923 111.782L70.2914 111.784ZM67.1499 106.892C65.9955 106.884 64.3605 107.194 64.3605 108.626C64.3605 110.115 66.141 110.497 67.1499 109.604V106.891V106.892Z" fill="black"/>
<path d="M109.34 104.668C109.112 104.887 108.519 104.039 108.306 103.87C107.149 102.955 105.868 103.581 106.737 104.801C107.611 106.027 109.719 106.639 109.96 108.456C110.449 112.127 106.376 112.623 103.83 111.259C103.715 111.173 103.739 108.524 103.858 108.442C103.937 108.387 104.121 108.374 104.207 108.422C104.273 108.458 104.893 109.405 105.119 109.606C106.347 110.701 107.872 109.842 107.007 108.626C106.137 107.403 103.939 106.624 103.771 104.805C103.472 101.578 107.017 100.985 109.34 102.222C109.272 102.539 109.429 104.583 109.34 104.668Z" fill="black"/>
<path d="M32.7704 97.8193C32.4084 98.6684 32.2763 99.6066 32.2278 100.528C32.0922 103.12 32.0976 106.479 32.2278 109.074C32.2736 109.997 32.385 110.939 32.7704 111.783H29C29.1132 111.482 29.2515 111.233 29.3324 110.911C29.4321 110.514 29.5166 109.927 29.5426 109.518C29.716 106.772 29.7079 102.833 29.5426 100.083C29.4959 99.3084 29.3297 98.5518 29.0898 97.8184H32.7704V97.8193Z" fill="black"/>
<path d="M101.979 97.8193C102.036 98.1416 101.896 98.446 101.885 98.7495C101.759 102.264 101.632 106.95 101.885 110.408C101.919 110.868 102.054 111.337 102.157 111.783C101.095 111.725 100.065 111.917 99.0157 111.783C99.0768 111.183 99.2502 110.566 99.2888 109.963C99.5035 106.589 99.4092 102.25 99.2888 98.8385C99.2771 98.5101 99.1289 98.1718 99.1954 97.8193H101.979Z" fill="black"/>
<path d="M97.2208 97.8193C97.2873 98.1718 97.139 98.5101 97.1273 98.8385C97.0061 102.298 96.8893 106.82 97.1273 110.23C97.1642 110.752 97.3151 111.271 97.4004 111.783C96.3539 111.68 95.2884 112.042 94.2616 111.779C94.1861 111.672 94.5284 110.937 94.5284 110.761V97.8202H97.2217L97.2208 97.8193Z" fill="#FB5E02"/>
<path d="M59.9693 101.911C59.8749 102.658 59.7348 103.423 59.6962 104.176C59.6153 105.766 59.6099 107.843 59.6962 109.431C59.7402 110.237 59.8704 111.029 60.1489 111.785H56.5582C56.7989 111.176 56.9651 110.533 57.011 109.876C57.134 108.099 57.125 105.425 57.011 103.643C56.975 103.074 56.8232 102.475 56.7379 101.912H59.9693V101.911Z" fill="black"/>
<path d="M58.3262 96.4057C58.451 96.3728 58.4906 96.42 58.5813 96.4796C58.8283 96.6443 60.1723 97.9946 60.3762 98.2599C60.431 98.3311 60.5146 98.3792 60.5101 98.4869C60.5101 98.6649 58.708 100.377 58.3971 100.58C58.2175 100.58 56.4899 98.7948 56.2842 98.4869C56.2842 98.3418 58.1833 96.4431 58.3253 96.4066L58.3262 96.4057Z" fill="black"/>
</g>
<defs>
<clipPath id="clip0_3612_911">
<rect width="81" height="84" fill="white" transform="translate(29 28)"/>
</clipPath>
</defs>
</svg>
