<svg width="140" height="140" viewBox="0 0 140 140" fill="none" xmlns="http://www.w3.org/2000/svg">
<rect width="140" height="140" rx="30" fill="white"/>
<g clip-path="url(#clip0_1532_7623)">
<path d="M12.011 69.4911C12.011 66.5111 12.0327 63.531 12 60.5514C11.9877 59.4348 12.4597 58.619 13.2886 57.9542C13.961 57.415 14.7589 57.1425 15.5633 56.8799C20.7327 55.1921 25.999 53.8765 31.3315 52.8395C34.6241 52.1993 37.9343 51.6412 41.2481 51.1209C43.6496 50.7438 46.0674 50.4618 48.4832 50.1881C50.5534 49.9534 52.6301 49.7634 54.7073 49.6025C56.8417 49.4372 58.9797 49.3165 61.1174 49.2029C62.5263 49.1282 63.9377 49.0912 65.3486 49.0547C66.5166 49.0244 67.6854 49.0071 68.8534 49.0059C70.6218 49.0038 72.3914 48.9845 74.1586 49.0383C76.8009 49.1187 79.4428 49.2332 82.0827 49.3781C83.9611 49.4811 85.8379 49.6284 87.7105 49.809C90.0265 50.0326 92.3441 50.2616 94.6487 50.5776C97.9086 51.024 101.167 51.4939 104.409 52.0573C110.984 53.2002 117.481 54.6902 123.842 56.7391C124.588 56.9796 125.335 57.2398 126.041 57.5771C126.882 57.9788 127.556 58.5968 127.841 59.5271C127.944 59.8628 127.988 60.2293 127.989 60.5818C127.997 66.5336 127.99 72.4851 127.999 78.437C128.001 79.4961 127.575 80.3185 126.764 80.9656C126.064 81.5237 125.24 81.8122 124.405 82.0863C119.864 83.5768 115.246 84.7738 110.569 85.7394C107.688 86.334 104.796 86.8765 101.898 87.3783C99.7424 87.7514 97.5724 88.0481 95.402 88.3296C93.1752 88.6185 90.943 88.8721 88.7084 89.0949C86.8124 89.2841 84.9112 89.4273 83.0099 89.5541C81.1245 89.6796 79.2371 89.7954 77.3489 89.8499C74.5189 89.9316 71.6872 89.9731 68.8559 89.9977C67.3145 90.0112 65.7719 89.9837 64.2317 89.9226C61.7849 89.8257 59.3384 89.703 56.894 89.5565C55.1698 89.4531 53.4476 89.3124 51.7275 89.1511C49.9677 88.9861 48.2092 88.8007 46.4555 88.5799C44.1473 88.2893 41.8399 87.9844 39.5399 87.6348C35.5332 87.0254 31.5523 86.2708 27.5976 85.3807C23.6359 84.4894 19.7062 83.4758 15.8451 82.2098C15.1474 81.9809 14.4501 81.7199 13.8007 81.3813C12.9799 80.9533 12.3648 80.2947 12.0969 79.373C12.0409 79.181 12.0139 78.9737 12.0139 78.7735C12.009 75.6798 12.0102 72.5856 12.0102 69.4919L12.011 69.4911ZM124.826 69.5005C124.826 67.1718 124.833 64.8434 124.822 62.5146C124.818 61.5597 124.475 60.7512 123.688 60.1702C123.245 59.8427 122.746 59.6273 122.213 59.5013C118.875 58.7126 115.508 58.0691 112.125 57.511C109.438 57.0674 106.746 56.6575 104.049 56.2783C101.745 55.9545 99.434 55.6738 97.1217 55.4153C95.0425 55.1831 92.9584 54.9894 90.8739 54.8109C88.773 54.6311 86.6701 54.4719 84.5664 54.3389C82.6565 54.2179 80.7442 54.1219 78.8319 54.055C76.6267 53.9778 74.4203 53.9089 72.2139 53.9007C69.4714 53.8904 66.7285 53.9319 63.9859 53.9782C62.3316 54.0061 60.6778 54.0718 59.0251 54.1473C57.3238 54.2253 55.6238 54.3287 53.9237 54.4341C52.7986 54.5043 51.6739 54.588 50.5509 54.6832C48.9997 54.815 47.4485 54.9545 45.8993 55.1071C44.3015 55.2647 42.7041 55.426 41.1099 55.6152C39.2585 55.8351 37.4083 56.0711 35.5618 56.3308C33.4589 56.6267 31.354 56.9172 29.2621 57.2812C26.2206 57.8106 23.1881 58.3945 20.1556 58.976C19.2575 59.1484 18.3549 59.3347 17.4859 59.6137C15.8807 60.1287 15.183 61.5761 15.1891 62.8314C15.2116 67.3092 15.1973 71.7875 15.1993 76.2658C15.1993 76.4439 15.2022 76.6265 15.237 76.8001C15.5388 78.309 16.4958 79.222 17.9497 79.5285C21.1605 80.2056 24.379 80.8503 27.6074 81.4359C30.0469 81.8783 32.5032 82.2349 34.959 82.5812C37.4635 82.9341 39.9738 83.2534 42.4869 83.5398C44.7105 83.7934 46.9393 84.0039 49.1694 84.1927C51.5451 84.3934 53.9237 84.569 56.3035 84.713C58.4162 84.8411 60.5314 84.9293 62.647 85.0003C64.5278 85.0635 66.4103 85.0963 68.2923 85.1095C70.1184 85.1222 71.9444 85.1021 73.7705 85.0787C75.0522 85.0623 76.3339 85.0327 77.6144 84.981C79.8183 84.8924 82.0222 84.7935 84.2253 84.6761C85.7639 84.594 87.302 84.491 88.8376 84.3667C90.7533 84.2116 92.6672 84.0351 94.58 83.8484C96.1455 83.6958 97.7106 83.5324 99.272 83.3424C101.22 83.1057 103.165 82.8512 105.108 82.5775C106.986 82.3128 108.862 82.0367 110.733 81.7236C112.883 81.3641 115.029 80.9792 117.17 80.5663C118.864 80.2397 120.558 79.8942 122.234 79.4842C123.812 79.0981 124.873 78.1649 124.835 76.1189C124.793 73.9132 124.825 71.7062 124.825 69.4997L124.826 69.5005Z" fill="#D61627"/>
<path d="M119.588 75.0382C119.189 75.3518 118.744 75.6136 118.296 75.8557C117.894 76.0736 117.45 76.179 116.983 76.1401C116.63 76.1105 116.342 75.8828 116.336 75.534C116.329 75.1905 116.346 74.8249 116.457 74.5048C116.958 73.0558 117.494 71.6187 118.027 70.1808C118.051 70.1176 118.167 70.056 118.244 70.0507C118.583 70.0281 118.923 70.0183 119.263 70.0212C119.432 70.0228 119.527 69.976 119.586 69.8061C119.814 69.1549 120.056 68.509 120.291 67.8606C120.309 67.8118 120.314 67.758 120.332 67.6768H118.91C119.578 65.9057 120.232 64.1719 120.898 62.4061C120.024 62.4061 119.197 62.4127 118.37 62.4012C118.165 62.3983 118.077 62.4656 118.008 62.6589C117.432 64.2638 116.843 65.8634 116.264 67.4667C116.205 67.6296 116.128 67.6998 115.949 67.6907C115.657 67.676 115.364 67.6989 115.073 67.6825C114.873 67.6714 114.764 67.7289 114.701 67.9308C114.599 68.2558 114.465 68.5705 114.345 68.8898C114.208 69.2517 114.072 69.6141 113.914 70.0318H115.347C115.329 70.1172 115.326 70.1578 115.311 70.1935C114.831 71.4094 114.36 72.629 113.863 73.8379C113.612 74.4461 113.23 74.9738 112.716 75.394C111.78 76.1585 110.706 76.2701 109.568 76.051C109.049 75.9513 108.609 75.7125 108.301 75.2607C108.189 75.0949 108.204 75.0005 108.386 74.9008C108.763 74.6948 109.134 74.4748 109.499 74.2483C110.286 73.7608 110.992 73.1752 111.547 72.4296C112.182 71.5748 112.679 70.6568 112.581 69.5374C112.522 68.8603 112.204 68.3334 111.593 68.0141C110.883 67.6439 110.139 67.6062 109.372 67.8077C108.432 68.0547 107.709 68.6366 107.068 69.3301C105.599 70.919 104.838 72.7394 105.289 74.9459C105.307 75.0284 105.243 75.1761 105.172 75.2196C104.813 75.4396 104.448 75.653 104.069 75.8343C103.642 76.0383 103.183 76.0801 102.714 76.0083C102.392 75.9591 102.214 75.7728 102.14 75.4626C102.067 75.1568 102.111 74.8663 102.223 74.5795C102.65 73.4817 103.045 72.368 103.784 71.4258C103.811 71.3918 103.828 71.3351 103.822 71.2929C103.757 70.7963 103.685 70.3006 103.614 69.7914C102.65 69.8033 101.726 69.775 101.104 68.9448C101.616 68.3961 102.11 67.8668 102.612 67.3292C101.573 67.4277 100.606 67.2709 99.9118 66.3308C99.4444 66.998 99.0198 67.6128 98.5859 68.2201C98.4052 68.4729 98.2109 68.7105 98.3291 69.0556C98.3512 69.12 98.3401 69.2045 98.3213 69.2731C98.1802 69.7877 98.0948 70.3281 97.8768 70.8082C97.3365 71.9995 96.5055 72.993 95.5902 73.9134C95.1056 74.401 94.5633 74.8158 93.9061 75.046C93.6795 75.1257 93.4219 75.2159 93.2146 75.0231C92.9884 74.813 93.1348 74.5671 93.2178 74.3435C93.8697 72.5937 94.5257 70.8452 95.1788 69.0962C95.3485 68.6428 95.5142 68.1877 95.6933 67.7014C95.5808 67.6952 95.5035 67.6874 95.4258 67.6874C94.9792 67.6862 94.5327 67.6948 94.0865 67.6846C93.5074 67.671 92.9774 67.7465 92.7033 68.3691C92.651 68.3309 92.6134 68.3128 92.588 68.2841C92.2195 67.8705 91.7414 67.724 91.2102 67.7383C90.5411 67.756 89.9232 67.971 89.3355 68.2792C88.3429 68.7999 87.5728 69.58 86.8935 70.4492C86.004 71.5871 85.31 72.8297 85.0565 74.2762C85.0246 74.4576 84.9469 74.5442 84.7976 74.6135C84.4009 74.7986 84.0103 74.9972 83.6116 75.1782C83.4136 75.268 83.2088 75.3518 82.9981 75.4026C82.6153 75.4954 82.3687 75.3005 82.3814 74.911C82.3879 74.712 82.4284 74.506 82.4971 74.3189C82.8493 73.3586 83.2165 72.4041 83.5768 71.4464C83.8455 70.7311 84.1023 70.0154 84.0905 69.2308C84.0741 68.1594 83.3388 67.5684 82.3012 67.8151C81.3762 68.035 80.6192 68.5607 79.8969 69.1487C79.8323 69.2013 79.7648 69.2505 79.6814 69.3141C79.6315 69.1779 79.5984 69.0786 79.5591 68.9817C79.1334 67.9353 78.3347 67.5286 77.4124 67.7145C76.4375 67.9111 75.5627 68.3588 74.8474 69.0782C74.7951 69.1307 74.7337 69.1742 74.636 69.2554C74.636 68.9838 74.6486 68.7724 74.6335 68.5636C74.5983 68.0695 74.2806 67.7613 73.7902 67.7244C73.2921 67.6866 72.8263 67.8142 72.374 68.0055C71.0976 68.5447 69.8224 69.0868 68.5456 69.6264C68.479 69.6543 68.2638 69.7138 68.1955 69.7335C68.3857 70.127 68.5329 70.6281 68.6393 71.0643C68.6695 71.0216 68.8724 70.8698 68.9538 70.8452C69.7128 70.6146 70.4686 70.3724 71.226 70.1365C71.2886 70.1168 71.3552 70.1094 71.4632 70.0881C70.5136 72.67 69.5819 75.2032 68.6434 77.7552C68.7243 77.7634 68.771 77.7725 68.8176 77.7729C69.694 77.7774 70.5708 77.7778 71.4472 77.7889C71.6276 77.7909 71.7151 77.7347 71.7822 77.5574C72.4345 75.8339 73.095 74.1133 73.7632 72.3959C73.8626 72.1411 73.9808 71.8772 74.1542 71.6721C74.3305 71.4632 74.5644 71.2724 74.8122 71.1624C75.186 70.9966 75.4932 71.219 75.4772 71.6298C75.4658 71.9084 75.4044 72.1961 75.3079 72.4587C74.8012 73.8379 74.2761 75.2102 73.7583 76.5853C73.6131 76.9706 73.4712 77.3572 73.3224 77.7589C73.3898 77.7708 73.4283 77.784 73.4667 77.784C74.4323 77.7852 75.3983 77.7815 76.3643 77.7881C76.5336 77.7893 76.5814 77.6937 76.6309 77.564C77.2624 75.9107 77.8922 74.2569 78.5338 72.6077C78.6565 72.2917 78.7903 71.9671 78.9882 71.6975C79.1477 71.4796 79.3882 71.2855 79.6344 71.1751C80.0536 70.988 80.3746 71.2399 80.3276 71.6983C80.2977 71.9856 80.2253 72.2741 80.1296 72.5469C79.9063 73.1826 79.6471 73.8055 79.4209 74.4399C79.1833 75.1055 79.07 75.7884 79.1927 76.4983C79.362 77.4782 80.0454 77.919 80.9954 77.6383C81.251 77.5628 81.5062 77.4733 81.7442 77.3547C82.7961 76.8295 83.8418 76.2911 84.8904 75.7592C84.9726 75.7178 85.0606 75.6878 85.1558 75.6484C85.191 75.7551 85.2106 75.8339 85.2417 75.9078C85.6229 76.8131 86.1443 77.5784 87.2035 77.7442C87.5131 77.7926 87.8374 77.7914 88.1503 77.761C88.9085 77.6867 89.6115 77.4651 90.1432 76.8689C90.1931 76.8131 90.2532 76.7667 90.3424 76.6854C90.3853 76.8689 90.4094 77.0031 90.4487 77.1327C90.5509 77.4717 90.771 77.7109 91.1223 77.7598C91.5578 77.8205 91.9987 77.809 92.4171 77.6408C93.4685 77.2181 94.4558 76.6776 95.3506 75.9784C96.5628 75.0304 97.4797 73.8199 98.3451 72.5634C98.6158 72.1694 98.907 71.7845 99.2309 71.4349C99.4055 71.2465 99.6529 71.0951 99.8963 71.0089C100.332 70.855 100.664 71.1923 100.54 71.6384C100.488 71.8235 100.406 72.0044 100.314 72.1739C99.7315 73.2384 99.201 74.3213 98.9884 75.5335C98.8141 76.5258 99.2746 77.2936 100.231 77.5845C101.024 77.8258 101.83 77.8291 102.637 77.6953C103.762 77.5086 104.755 77.001 105.699 76.3834C105.771 76.3362 105.844 76.2907 105.904 76.2529C105.938 76.271 105.947 76.2734 105.952 76.2788C106.017 76.3514 106.082 76.424 106.146 76.4971C106.648 77.0708 107.269 77.4606 108.011 77.6231C109.401 77.9272 110.764 77.8431 112.075 77.2497C112.487 77.063 112.894 76.8635 113.313 76.6653C113.607 77.2017 114.082 77.4885 114.65 77.6424C115.27 77.8106 115.898 77.7844 116.531 77.7306C118.216 77.5882 119.479 76.6863 120.593 75.5052C120.633 75.463 120.666 75.3612 120.644 75.3206C120.445 74.9673 119.924 74.7744 119.588 75.0387V75.0382ZM91.4895 71.4312C91.1803 72.7804 90.5109 73.9352 89.5281 74.9032C89.3633 75.0653 89.1596 75.1999 88.9523 75.3042C88.4767 75.543 88.1303 75.3649 88.0125 74.8433C87.9912 74.7489 87.9871 74.6509 87.9777 74.5782C88.0166 73.9775 88.1863 73.4374 88.4223 72.9167C88.8288 72.02 89.3441 71.1952 90.0925 70.5436C90.2835 70.377 90.519 70.2424 90.7562 70.1545C91.1219 70.0191 91.4552 70.2227 91.5071 70.6125C91.5427 70.8809 91.5496 71.1698 91.4895 71.4312ZM107.799 72.8071C107.582 72.6393 107.674 72.4062 107.756 72.2039C108.145 71.2514 108.761 70.4886 109.646 69.9547C109.721 69.9091 109.806 69.8734 109.891 69.8529C110.137 69.7934 110.307 69.9329 110.306 70.2588C110.263 70.3745 110.218 70.5678 110.127 70.7352C109.695 71.5243 109.083 72.1571 108.372 72.6955C108.209 72.819 108.008 72.9688 107.799 72.8071ZM56.7395 62.4008C56.5408 62.3975 56.459 62.4677 56.3931 62.6478C55.7666 64.3553 55.1282 66.0583 54.5017 67.7654C54.4342 67.9484 54.3655 67.9874 54.1688 67.9402C53.0294 67.6686 51.9015 67.7256 50.7977 68.1269C49.4779 68.6071 48.5083 69.5205 47.73 70.6593C46.9771 71.7603 46.416 72.9364 46.3485 74.3025C46.3444 74.3874 46.2426 74.4998 46.1579 74.5421C45.7665 74.737 45.3678 74.9188 44.965 75.0908C44.7879 75.1663 44.5993 75.2286 44.41 75.2574C44.0636 75.3095 43.8399 75.1142 43.8526 74.7612C43.8595 74.5626 43.9078 74.3579 43.9773 74.1712C44.4067 73.0143 44.8468 71.8612 45.2856 70.7077C45.4995 70.1459 45.6083 69.5698 45.5547 68.9653C45.497 68.3128 45.0901 67.8261 44.446 67.7338C44.1499 67.6911 43.8309 67.7108 43.5364 67.7724C42.7226 67.9427 42.0519 68.4043 41.4098 68.9087C41.247 69.0367 41.0904 69.173 40.9133 69.3203C40.8634 69.1906 40.8262 69.0933 40.7886 68.9965C40.3559 67.8795 39.3151 67.3809 38.2068 67.8212C37.5774 68.0711 36.966 68.3859 36.386 68.7371C35.4908 69.2788 34.6299 69.8775 33.7523 70.4488C33.6443 70.5189 33.522 70.5674 33.4063 70.6256C33.392 70.6088 33.3777 70.5924 33.3634 70.5756C34.8021 66.9024 36.2409 63.2293 37.6915 59.5262C36.9778 59.6554 36.3182 59.7753 35.6585 59.8951C33.8279 60.2283 31.9962 60.5554 30.1669 60.8964C28.6013 61.1881 27.1102 61.6917 25.7582 62.5542C24.5231 63.3421 23.7244 64.405 23.6962 65.936C23.6766 67.0136 24.0025 67.9554 24.8127 68.6908C25.6519 69.452 26.6542 69.7261 27.7638 69.6047C28.7379 69.498 29.7534 68.5525 29.9383 67.6062C29.883 67.6 29.8287 67.5943 29.7743 67.5877C29.2356 67.5208 28.7273 67.3702 28.2913 67.0305C27.4955 66.41 27.3605 65.2807 27.9891 64.4924C28.3155 64.0828 28.7343 63.7939 29.2074 63.5826C30.5079 63.0019 31.869 62.6162 33.2619 62.3384C33.5094 62.2887 33.7609 62.2588 34.0553 62.2128C33.9973 62.3753 33.9625 62.4824 33.9212 62.5862C33.0894 64.668 32.2596 66.7502 31.4228 68.8299C31.0048 69.8685 30.6531 70.9367 30.0528 71.8949C29.169 73.3061 28.0635 74.4641 26.478 75.0756C25.6576 75.392 24.7934 75.5967 23.9305 75.415C22.3323 75.078 21.3139 74.0624 20.8551 72.4887C20.8183 72.3627 20.786 72.2351 20.7438 72.0795C20.1627 72.5396 19.676 73.0234 19.373 73.6627C19.0135 74.4223 19.0924 75.1441 19.6527 75.7699C19.9484 76.1003 20.2923 76.3957 20.6486 76.6612C22.1638 77.7901 23.8958 77.974 25.6985 77.7458C27.1912 77.5566 28.5081 76.9296 29.6692 75.9788C30.7566 75.0883 31.822 74.1707 32.9151 73.2872C33.6529 72.691 34.4062 72.1107 35.1841 71.569C35.4806 71.3626 35.8577 71.2555 36.2126 71.1554C36.5705 71.0545 36.8596 71.2535 36.8817 71.6244C36.8973 71.8826 36.8445 72.1616 36.7545 72.4062C36.2413 73.8002 35.7076 75.1868 35.1816 76.5763C35.0356 76.9616 34.8921 77.3478 34.7322 77.7729C35.6957 77.7729 36.604 77.7626 37.5123 77.7799C37.7573 77.7844 37.8632 77.7044 37.9491 77.4799C38.6243 75.7133 39.3147 73.9524 39.9968 72.1887C40.1477 71.7989 40.3637 71.4595 40.7313 71.2477C41.2454 70.9519 41.593 71.1583 41.5877 71.7484C41.5865 71.8608 41.584 71.9806 41.5472 72.0845C41.2389 72.9565 40.935 73.8301 40.6033 74.6931C40.4242 75.1581 40.3305 75.6263 40.3678 76.1212C40.4414 77.1024 41.3861 78.1439 42.5803 77.5378C43.7368 76.9505 44.9007 76.3785 46.0618 75.8003C46.1612 75.7506 46.2622 75.7043 46.3841 75.6464C46.4319 75.82 46.47 75.9677 46.5133 76.1142C46.7603 76.955 47.2809 77.5287 48.1553 77.697C48.5406 77.7712 48.9479 77.7868 49.3401 77.7589C50.1004 77.7039 50.8038 77.4787 51.344 76.8923C51.3898 76.8426 51.4471 76.8036 51.5244 76.7388C51.5448 76.8291 51.5698 76.8824 51.5661 76.9337C51.5309 77.4348 51.9419 77.779 52.4597 77.7708C52.9901 77.7622 53.4838 77.6092 53.9569 77.3945C54.7687 77.026 55.5699 76.6345 56.3764 76.2541C56.8876 76.0129 57.5951 75.7092 58.1194 75.4642C57.9276 75.1088 57.8241 74.8216 57.7018 74.4268C57.7084 74.4584 57.4651 74.465 57.4716 74.497C56.8446 74.7198 56.2247 74.9541 55.594 75.1564C55.3998 75.2188 55.1777 75.2114 54.9691 75.2061C54.727 75.1999 54.5773 74.9849 54.6297 74.7452C54.6505 74.6505 54.6882 74.5594 54.7221 74.4683C56.194 70.5288 57.6663 66.5893 59.1373 62.6499C59.1639 62.5789 59.1782 62.5029 59.2048 62.4057C58.3619 62.4057 57.5509 62.4127 56.74 62.4004L56.7395 62.4008ZM52.7169 71.6056C52.3791 72.8818 51.7346 73.9889 50.7837 74.9057C50.6116 75.0719 50.401 75.2126 50.185 75.3156C49.7139 75.5397 49.3282 75.3099 49.2599 74.7892C49.2493 74.7091 49.2583 74.6267 49.2583 74.5454C49.2812 73.9684 49.4534 73.4296 49.6894 72.9093C50.1171 71.9667 50.6611 71.1066 51.4749 70.4467C51.6172 70.331 51.7845 70.2329 51.9558 70.1685C52.3775 70.0089 52.7427 70.2186 52.7803 70.6687C52.8061 70.9781 52.7959 71.3076 52.7169 71.6056Z" fill="#006AB4"/>
<path d="M63.0416 75.6226C61.3142 75.6226 59.9089 74.2126 59.9089 72.4792C59.9089 70.7458 61.3142 69.3358 63.0416 69.3358C64.7691 69.3358 66.1743 70.7458 66.1743 72.4792C66.1743 74.2126 64.7691 75.6226 63.0416 75.6226ZM63.0416 70.0335C61.6978 70.0335 60.6042 71.1308 60.6042 72.4792C60.6042 73.8277 61.6978 74.925 63.0416 74.925C64.3855 74.925 65.4791 73.8277 65.4791 72.4792C65.4791 71.1308 64.3855 70.0335 63.0416 70.0335Z" fill="#D61627"/>
<path d="M63.0437 77.0334C60.5302 77.0334 58.4854 74.9816 58.4854 72.4595C58.4854 69.9375 60.5302 67.8857 63.0437 67.8857C65.5572 67.8857 67.6021 69.9375 67.6021 72.4595C67.6021 74.9816 65.5572 77.0334 63.0437 77.0334ZM63.0437 68.5837C60.9138 68.5837 59.1806 70.3224 59.1806 72.4599C59.1806 74.5975 60.9134 76.3362 63.0437 76.3362C65.174 76.3362 66.9068 74.5975 66.9068 72.4599C66.9068 70.3224 65.174 68.5837 63.0437 68.5837Z" fill="#D61627"/>
<path d="M63.0155 78.5009C59.7985 78.5009 57.1812 75.811 57.1812 72.5043C57.1812 69.1976 59.7985 66.5077 63.0155 66.5077C66.2324 66.5077 68.8498 69.1976 68.8498 72.5043C68.8498 75.811 66.2324 78.5009 63.0155 78.5009ZM63.0155 67.1642C60.1593 67.1642 57.8355 69.5599 57.8355 72.5043C57.8355 75.4486 60.1593 77.8443 63.0155 77.8443C65.8717 77.8443 68.1955 75.4486 68.1955 72.5043C68.1955 69.5599 65.8717 67.1642 63.0155 67.1642Z" fill="#D61627"/>
</g>
<defs>
<clipPath id="clip0_1532_7623">
<rect width="116" height="41" fill="white" transform="translate(12 49)"/>
</clipPath>
</defs>
</svg>
