<svg width="140" height="140" viewBox="0 0 140 140" fill="none" xmlns="http://www.w3.org/2000/svg">
<rect width="140" height="140" rx="30" fill="white"/>
<g clip-path="url(#clip0_602_3268)">
<path d="M71.7163 103.61C71.7163 101.413 71.7632 99.213 71.7031 97.0171C71.6445 94.9226 72.3738 94.3076 74.408 94.0845C76.6648 93.8364 78.8805 93.4049 81.0011 92.5272C82.6472 91.8461 84.1775 90.9889 85.6874 90.0436C86.7492 89.3787 87.5561 88.4526 88.5534 87.7304C89.3003 87.1888 89.8055 86.2993 90.3854 85.5404C92.6935 82.5241 94.1038 79.0968 94.8023 75.3906C95.1274 73.666 95.372 71.909 95.2739 70.1345C95.1304 67.5512 94.6895 65.0398 93.7669 62.5988C92.3932 58.9646 90.176 55.9673 87.2559 53.4647C85.7196 52.1481 83.9959 51.128 82.1771 50.2429C80.8649 49.6044 79.5117 49.0657 78.1117 48.7355C76.8669 48.4419 75.6059 48.0823 74.3084 48.0794C71.955 48.0735 71.4849 46.4663 71.6284 44.6447C71.6504 44.3659 71.7134 44.0752 71.7148 43.7876C71.7192 39.3431 71.8027 34.8957 71.6753 30.4541C71.627 28.7735 73.3404 27.7387 74.7404 28.0733C75.7026 28.3038 76.7438 28.1629 77.7412 28.4153C78.6403 28.6428 79.5864 28.6781 80.487 28.8982C82.3294 29.3489 84.1585 29.8508 85.9334 30.5436C88.2415 31.4449 90.5143 32.4048 92.6627 33.6539C95.4979 35.3022 98.1164 37.2265 100.546 39.437C102.669 41.3686 104.576 43.4823 106.247 45.8058C107.898 48.1029 109.349 50.5233 110.484 53.1242C111.695 55.8983 112.682 58.7576 113.215 61.7328C113.618 63.9771 114.066 66.2316 113.993 68.5434C113.947 69.9627 113.964 71.385 113.99 72.8044C114.024 74.5995 113.672 76.3462 113.41 78.1075C113.179 79.6722 112.829 81.2046 112.379 82.7164C111.997 83.9993 111.549 85.2586 111.076 86.5136C110.523 87.9814 109.799 89.3611 109.077 90.735C107.605 93.5355 105.793 96.1027 103.646 98.4424C101.373 100.919 98.9087 103.144 96.1394 105.056C93.8284 106.652 91.4369 108.086 88.8682 109.207C85.6054 110.632 82.2737 111.852 78.7355 112.422C77.1466 112.677 75.5693 113.009 73.9496 113C72.6169 112.993 71.7295 112.125 71.7236 110.794C71.7104 108.4 71.7207 106.007 71.7207 103.613H71.7178L71.7163 103.61Z" fill="#02A1FF"/>
<path d="M34 89.9894C34 83.2478 34 76.5077 34 69.7661C34 67.789 34.8333 66.9655 36.8367 66.9641C41.1994 66.9641 45.5606 66.9758 49.9233 66.9582C52.2957 66.9479 52.7043 67.993 52.8537 69.8292C52.861 69.9261 52.8537 70.0244 52.8537 70.1228C52.8537 83.3124 52.8551 96.5005 52.8478 109.69C52.8478 110.242 52.8024 110.8 52.7146 111.346C52.5989 112.065 51.4405 112.993 50.6438 112.994C45.77 113.003 40.8962 113.003 36.0224 112.985C35.0251 112.981 34.0059 111.842 34.0044 110.798C34.0015 103.862 34.0029 96.9262 34.0029 89.9894H34Z" fill="#2BBB49"/>
<path d="M34.0309 37.8841C34.0309 35.3433 34.0279 32.8041 34.0309 30.2633C34.0338 29.1155 35.0311 28.0293 36.1705 28.0249C40.9476 28.0058 45.7247 27.9721 50.5004 28.0425C51.8184 28.0616 52.7982 29.0538 52.8143 30.3602C52.8758 35.3419 52.8846 40.3265 52.8172 45.3082C52.7923 47.1151 51.9546 48.0676 49.8956 48.0574C45.4846 48.0368 41.0735 48.053 36.6625 48.05C34.9154 48.05 34.0323 47.1723 34.0294 45.433C34.0236 42.9172 34.0279 40.4014 34.0279 37.8856H34.0323L34.0309 37.8841Z" fill="#FF3301"/>
</g>
<defs>
<clipPath id="clip0_602_3268">
<rect width="80" height="85" fill="white" transform="translate(34 28)"/>
</clipPath>
</defs>
</svg>
