<svg width="140" height="140" viewBox="0 0 140 140" fill="none" xmlns="http://www.w3.org/2000/svg">
<rect width="140" height="140" rx="30" fill="#1D1D1B"/>
<path d="M89.6809 61.9608C89.9062 60.2281 90.608 58.7695 91.7739 57.5261C93.4209 55.7697 95.5139 54.9113 97.839 54.6247C100.688 54.2737 103.542 54.3348 106.306 55.1785C107.397 55.5115 108.477 56.0369 109.416 56.6858C111.181 57.9055 112.033 59.7162 112.057 61.8554C112.095 65.357 112.102 68.8596 112.052 72.3612C112.014 75.0677 111.312 77.558 109.396 79.5975C107.751 81.3483 105.673 82.252 103.381 82.6427C101.07 83.0368 98.7267 83.2157 96.3813 82.9145C94.5395 82.6778 92.87 81.987 91.4179 80.8217C90.0267 79.704 89.3688 78.1695 89.0883 76.4471C88.818 74.7925 88.8461 73.1448 89.2731 71.5198C89.6752 69.9864 90.5258 68.769 91.8685 67.8982C93.6642 66.7329 95.6389 66.0874 97.7342 65.7556C99.3057 65.5065 100.886 65.297 102.439 64.9617C103.152 64.8077 103.878 64.494 104.48 64.0784C105.807 63.1623 105.572 61.2564 104.062 60.6924C102.214 60.0016 100.308 59.8351 98.3831 60.4252C97.6543 60.6482 97.0842 61.0673 96.6686 61.7161C96.5762 61.86 96.3678 62.0174 96.2112 62.0185C94.1114 62.0366 92.0105 62.0287 89.9107 62.0242C89.8577 62.0242 89.8048 61.9959 89.6809 61.9596V61.9608ZM105.481 68.7996C103.839 69.2707 102.318 69.709 100.795 70.1438C99.7 70.4564 98.5904 70.7203 97.5123 71.0838C96.512 71.4201 95.9679 72.2049 95.6975 73.2162C95.1196 75.3735 96.2146 77.1265 98.3989 77.464C98.8393 77.5319 99.2967 77.5285 99.7439 77.5093C102.712 77.3813 104.824 75.617 105.284 72.727C105.489 71.4382 105.424 70.1076 105.481 68.7996Z" fill="white"/>
<path d="M26.7832 82.5499C26.7832 82.2781 26.7832 82.0924 26.7832 81.9066C26.7832 76.6917 26.7866 71.4756 26.7832 66.2607C26.7832 64.4058 26.9713 62.5814 27.5853 60.8193C28.2161 59.0074 29.3235 57.602 31.0087 56.653C35.7783 53.9657 40.6155 53.7268 45.5845 56.106C48.1225 57.3212 49.6061 59.3154 50.1536 62.0186C50.4093 63.2835 50.5895 64.587 50.6019 65.8757C50.6515 71.2605 50.6245 76.6453 50.6245 82.0301C50.6245 82.1784 50.6098 82.3256 50.5952 82.6155C49.0519 82.5453 47.5052 82.6099 46.0081 82.3698C44.4952 82.1263 43.5748 80.7198 43.5714 79.0721C43.5647 74.4211 43.5737 69.7713 43.5613 65.1203C43.5602 64.579 43.5219 64.0241 43.4013 63.4975C42.9924 61.706 41.2925 60.3697 39.2896 60.2134C38.1428 60.124 37.0546 60.304 36.0385 60.8838C34.7386 61.6267 34.0829 62.7592 33.9703 64.2302C33.9387 64.6424 33.9354 65.0581 33.9342 65.4714C33.932 70.9321 33.923 76.3916 33.9466 81.8511C33.9489 82.4332 33.7855 82.5748 33.2212 82.5646C31.3095 82.5283 29.3956 82.551 27.4828 82.551H26.7832V82.5499Z" fill="white"/>
<path d="M86.7893 82.4627C85.2596 82.4627 83.8323 82.5555 82.423 82.4366C81.0419 82.32 79.9447 81.0539 79.7983 79.6621C79.7589 79.2884 79.7487 78.9113 79.7476 78.5353C79.7442 74.1867 79.7487 69.8381 79.7408 65.4907C79.7408 64.9278 79.7386 64.3537 79.6383 63.8033C79.2733 61.7842 77.5926 60.3425 75.4376 60.2259C74.773 60.1897 74.0768 60.2259 73.4347 60.389C71.2549 60.9405 70.1104 62.4772 70.1002 64.8112C70.0845 68.5381 70.0946 72.265 70.0946 75.993C70.0946 77.951 70.0946 79.9079 70.0946 81.8659C70.0946 82.0697 70.0946 82.2724 70.0946 82.5136H62.9537C62.9436 82.3098 62.9278 82.1263 62.9278 81.944C62.9267 76.7483 62.9177 71.5527 62.9312 66.3581C62.9368 64.3174 63.1441 62.3028 63.9191 60.3856C64.5466 58.8353 65.5424 57.6088 66.9945 56.7629C71.763 53.9861 76.6317 53.6985 81.6604 56.0562C84.3516 57.3178 85.8701 59.4366 86.3872 62.296C86.6271 63.621 86.7567 64.9833 86.7679 66.3298C86.8108 71.5243 86.786 76.72 86.7871 81.9157C86.7871 82.1003 86.7871 82.2849 86.7871 82.4627H86.7893Z" fill="white"/>
<path d="M114.599 82.5034V47.0362C114.785 47.0249 114.965 47.0034 115.144 47.0034C116.12 47 117.094 46.9988 118.07 47.0034C120.321 47.0113 121.725 48.4144 121.726 50.6657C121.728 56.1264 121.726 61.5859 121.726 67.0466C121.726 71.9614 121.726 76.8751 121.726 81.7899C121.726 82.013 121.726 82.235 121.726 82.5045H114.598L114.599 82.5034Z" fill="white"/>
<path d="M89.0074 91.9853C89.0074 90.9608 88.9858 89.9774 89.0165 88.9939C89.0325 88.4621 89.8264 88.0501 90.8219 88.0047C90.9916 87.9972 91.1625 88.0009 91.3333 88.0009C101.321 88.0009 111.309 88.0009 121.296 88.0009C121.5 88.0009 121.705 88.0009 121.936 88.0009C121.958 88.0753 121.983 88.1244 121.984 88.1736C121.991 89.0846 122.009 89.995 121.994 90.906C121.984 91.5751 121.198 91.9985 119.982 91.9985C109.804 92.001 99.6268 91.9998 89.4505 91.9991C89.3218 91.9991 89.1942 91.9916 89.0074 91.9859V91.9853Z" fill="#E31E24"/>
<path d="M17.0074 91.9853C17.0074 90.9608 16.9858 89.9774 17.0165 88.9939C17.0325 88.4621 17.8264 88.0501 18.8219 88.0047C18.9916 87.9972 19.1625 88.0009 19.3333 88.0009C29.3206 88.0009 39.3089 88.0009 49.2961 88.0009C49.5 88.0009 49.705 88.0009 49.9363 88.0009C49.9579 88.0753 49.983 88.1244 49.9841 88.1736C49.9909 89.0846 50.0092 89.995 49.9944 90.906C49.9841 91.5751 49.1982 91.9985 47.9816 91.9985C37.8042 92.001 27.6268 91.9998 17.4505 91.9991C17.3218 91.9991 17.1942 91.9916 17.0074 91.9859V91.9853Z" fill="#00A0E3"/>
<path d="M53.0074 91.9853C53.0074 90.9608 52.9858 89.9774 53.0165 88.9939C53.0325 88.4621 53.8264 88.0501 54.8219 88.0047C54.9916 87.9972 55.1625 88.0009 55.3333 88.0009C65.3206 88.0009 75.3089 88.0009 85.2961 88.0009C85.5 88.0009 85.705 88.0009 85.9363 88.0009C85.9579 88.0753 85.983 88.1244 85.9841 88.1736C85.9909 89.0846 86.0092 89.995 85.9944 90.906C85.9841 91.5751 85.1982 91.9985 83.9816 91.9985C73.8042 92.001 63.6268 91.9998 53.4505 91.9991C53.3218 91.9991 53.1942 91.9916 53.0074 91.9859V91.9853Z" fill="#FDC400"/>
<path d="M24.1628 55.0563V82.5023H17.0546C17.0455 82.2894 17.0286 82.0901 17.0286 81.8897C17.0275 74.2071 17.0264 66.5257 17.0286 58.8432C17.0286 56.5251 18.4841 55.0619 20.7821 55.0574C21.8861 55.0551 22.9912 55.0574 24.1628 55.0574V55.0563Z" fill="white"/>
<path d="M60.3024 82.5407H53.2235C53.2122 82.2927 53.1942 82.073 53.1942 81.8522C53.1931 73.1924 53.1931 64.5325 53.1942 55.8727C53.1942 55.3563 53.448 55.0973 53.9557 55.0958C54.893 55.0958 55.8313 55.0845 56.7686 55.0992C58.9022 55.1321 60.3362 56.5601 60.3385 58.6925C60.3475 66.4679 60.343 74.2422 60.3407 82.0176C60.3407 82.1818 60.3182 82.3471 60.3036 82.5396L60.3024 82.5407Z" fill="white"/>
<path d="M24.1377 52.6204H17.0475C17.061 51.454 16.8233 50.2751 17.2998 49.1732C17.8856 47.8211 18.9321 47.0397 20.4405 47.0114C21.6571 46.9887 22.8749 47.0069 24.1377 47.0069V52.6204Z" fill="white"/>
<path d="M59.9892 52.6181H52.9023V47.0193C53.3935 47.0193 53.8734 47.0193 54.3533 47.0193C55.1204 47.0193 55.8887 47.008 56.6558 47.0227C58.3907 47.0578 59.8912 48.4881 59.9813 50.2196C60.0218 51.0021 59.988 51.788 59.988 52.6181H59.9892Z" fill="white"/>
</svg>
