<svg width="140" height="140" viewBox="0 0 140 140" fill="none" xmlns="http://www.w3.org/2000/svg">
<rect width="140" height="140" rx="30" fill="#6D51FE"/>
<g clip-path="url(#clip0_2656_1338)">
<path d="M96.6949 67.1072C95.5924 67.1072 94.7348 67.1072 93.8773 67.1072C87.9664 67.1072 82.0555 67.1095 76.1423 67.1095C74.5427 67.1095 74.5309 67.1025 74.8372 65.6085C76.5569 57.1933 78.2838 48.7803 80.0036 40.3651C80.1449 39.6694 80.3734 39.3847 81.1768 39.7208C87.09 42.1975 93.2718 43.6752 99.6492 44.3031C104.175 44.7489 108.715 44.7489 113.243 44.2237C113.476 44.1957 113.711 44.184 113.942 44.1397C114.755 43.9856 115.057 44.2681 114.993 45.1178C114.776 47.9797 114.515 50.8345 114.088 53.6708C112.861 61.8386 110.58 69.6959 106.99 77.1611C100.036 91.6176 89.3234 102.591 75.4143 110.598C74.1987 111.298 72.9642 111.968 71.7345 112.645C71.0183 113.037 70.3257 113.161 69.5412 112.706C67.7531 111.67 65.939 110.673 64.1062 109.72C63.3382 109.321 63.3523 108.99 63.8612 108.359C67.0416 104.426 70.1867 100.469 73.3412 96.5151C80.9765 86.9466 88.6072 77.3782 96.2402 67.8075C96.3557 67.6627 96.4428 67.4993 96.6973 67.1072H96.6949Z" fill="#FDFDFD"/>
<path d="M44.5194 73.8042C45.0306 74.1006 45.5065 73.9792 45.9517 73.9792C52.4115 73.9886 58.8737 74.0049 65.3335 73.9629C66.3041 73.9559 66.5303 74.1917 66.3347 75.1301C64.8152 82.3688 63.3381 89.6146 61.8421 96.858C61.5476 98.2843 61.2366 99.7059 60.9044 101.268C58.2729 99.5565 55.91 97.7801 53.6437 95.8823C42.213 86.3209 34.4009 74.3948 29.9201 60.2767C28.8128 56.7846 28.0966 53.2154 27.338 49.6438C26.7349 46.8076 26.6313 43.9294 26.252 41.0768C26.1342 40.1805 25.8656 39.3214 26.0753 38.362C26.2166 37.7084 26.3886 37.6571 26.9611 37.7247C33.0981 38.4601 39.2281 38.3877 45.3251 37.3886C49.8625 36.644 54.3245 35.5865 58.6122 33.8824C62.457 32.3558 66.1769 30.5934 69.64 28.3314C70.2808 27.9136 70.7449 27.8715 71.4069 28.3197C73.0866 29.4589 74.8465 30.4883 76.71 31.3007C77.7654 31.7605 77.6924 32.1434 77.0374 32.944C74.1868 36.4339 71.4022 39.975 68.5916 43.4975C60.7631 53.3157 52.9322 63.1339 45.106 72.9521C44.8963 73.2136 44.722 73.5007 44.5123 73.8018L44.5194 73.8042Z" fill="#FDFDFD"/>
</g>
<defs>
<clipPath id="clip0_2656_1338">
<rect width="89" height="85" fill="white" transform="translate(26 28)"/>
</clipPath>
</defs>
</svg>
