<svg width="140" height="140" viewBox="0 0 140 140" fill="none" xmlns="http://www.w3.org/2000/svg">
<g clip-path="url(#clip0_560_10470)">
<rect width="140" height="140" rx="30" fill="white"/>
<rect x="-29" y="-29" width="199" height="199" fill="url(#paint0_linear_560_10470)"/>
<path d="M53.1892 69.7942C53.1892 60.6277 60.616 53.1948 69.7799 53.1948C78.9437 53.1948 86.3745 60.6277 86.3745 69.7942C86.3745 78.9607 78.9437 86.3936 69.7799 86.3936C60.616 86.3936 53.1892 78.9607 53.1892 69.7942ZM44.2185 69.7942C44.2185 83.9159 55.6623 95.363 69.7799 95.363C83.8974 95.363 95.3412 83.9159 95.3412 69.7942C95.3412 55.6726 83.8974 44.2255 69.7799 44.2255C55.6623 44.2255 44.2185 55.6726 44.2185 69.7942ZM90.3796 43.2117C90.3791 44.3935 90.729 45.5489 91.385 46.5318C92.0409 47.5147 92.9736 48.2809 94.0649 48.7336C95.1563 49.1863 96.3573 49.3051 97.5162 49.075C98.675 48.8449 99.7397 48.2763 100.575 47.4409C101.411 46.6056 101.981 45.5411 102.211 44.3821C102.442 43.2231 102.325 42.0216 101.873 40.9296C101.421 39.8376 100.656 38.9041 99.6739 38.2471C98.6918 37.5901 97.537 37.2392 96.3555 37.2388H96.3531C94.7695 37.2395 93.2509 37.8689 92.1308 38.9889C91.0108 40.1088 90.3809 41.6276 90.3796 43.2117ZM49.6688 110.326C44.8155 110.104 42.1775 109.296 40.4245 108.613C38.1004 107.708 36.4421 106.63 34.6986 104.888C32.9551 103.146 31.8759 101.489 30.9751 99.1645C30.2917 97.4117 29.4833 94.7722 29.2626 89.9175C29.0213 84.6688 28.9731 83.0921 28.9731 69.7946C28.9731 56.4972 29.0253 54.9249 29.2626 49.6718C29.4837 44.817 30.2981 42.1827 30.9751 40.4248C31.8799 38.1 32.9575 36.4413 34.6986 34.6973C36.4397 32.9533 38.0964 31.8737 40.4245 30.9727C42.1767 30.2891 44.8155 29.4804 49.6688 29.2597C54.916 29.0183 56.4922 28.9701 69.7799 28.9701C83.0675 28.9701 84.6453 29.0223 89.8969 29.2597C94.7502 29.4808 97.3838 30.2955 99.1412 30.9727C101.465 31.8737 103.124 32.9557 104.867 34.6973C106.611 36.4389 107.686 38.1 108.591 40.4248C109.274 42.1775 110.082 44.817 110.303 49.6718C110.544 54.9249 110.593 56.4972 110.593 69.7946C110.593 83.0921 110.544 84.6644 110.303 89.9175C110.082 94.7722 109.27 97.4109 108.591 99.1645C107.686 101.489 106.608 103.148 104.867 104.888C103.126 106.628 101.465 107.708 99.1412 108.613C97.389 109.296 94.7502 110.105 89.8969 110.326C84.6497 110.567 83.0735 110.615 69.7799 110.615C56.4862 110.615 54.9144 110.567 49.6688 110.326ZM49.2566 20.3016C43.9573 20.543 40.3361 21.3835 37.1737 22.6144C33.8985 23.8855 31.126 25.5909 28.3554 28.3579C25.5849 31.1248 23.8844 33.9025 22.6136 37.1786C21.3831 40.3439 20.5428 43.9642 20.3015 49.2651C20.0562 54.5743 20 56.2717 20 69.7942C20 83.3167 20.0562 85.0141 20.3015 90.3234C20.5428 95.6247 21.3831 99.2445 22.6136 102.41C23.8844 105.684 25.5853 108.465 28.3554 111.231C31.1256 113.996 33.8985 115.699 37.1737 116.974C40.342 118.205 43.9573 119.045 49.2566 119.287C54.5671 119.528 56.2612 119.588 69.7799 119.588C83.2985 119.588 84.9954 119.532 90.3031 119.287C95.6029 119.045 99.2216 118.205 102.386 116.974C105.659 115.699 108.434 113.998 111.204 111.231C113.975 108.464 115.672 105.684 116.946 102.41C118.177 99.2445 119.021 95.6243 119.258 90.3234C119.5 85.0101 119.556 83.3167 119.556 69.7942C119.556 56.2717 119.5 54.5743 119.258 49.2651C119.017 43.9638 118.177 40.3419 116.946 37.1786C115.672 33.9045 113.97 31.1292 111.204 28.3579C108.438 25.5865 105.659 23.8855 102.39 22.6144C99.2217 21.3835 95.6025 20.539 90.3071 20.3016C84.9993 20.0602 83.3024 20 69.7838 20C56.2652 20 54.5671 20.0562 49.2566 20.3016Z" fill="white"/>
</g>
<defs>
<linearGradient id="paint0_linear_560_10470" x1="166.175" y1="170" x2="-32.8248" y2="-29" gradientUnits="userSpaceOnUse">
<stop stop-color="#FBE18A"/>
<stop offset="0.21" stop-color="#FCBB45"/>
<stop offset="0.38" stop-color="#F75274"/>
<stop offset="0.52" stop-color="#D53692"/>
<stop offset="0.74" stop-color="#8F39CE"/>
<stop offset="1" stop-color="#5B4FE9"/>
</linearGradient>
<clipPath id="clip0_560_10470">
<rect width="140" height="140" rx="30" fill="white"/>
</clipPath>
</defs>
</svg>
