<svg width="140" height="140" viewBox="0 0 140 140" fill="none" xmlns="http://www.w3.org/2000/svg">
<rect width="140" height="140" rx="30" fill="white"/>
<g clip-path="url(#clip0_2316_116)">
<path d="M79.0908 92.4477C78.5864 92.5845 78.1869 92.578 77.7807 92.578C70.405 92.578 63.0293 92.565 55.6536 92.578C55.2344 92.578 55.11 92.4933 55.11 92.0502C55.11 81.1416 55.0772 70.2265 55.1362 59.3179C55.1362 58.9009 55.2606 58.8162 55.6536 58.8162C60.0227 58.8292 64.3918 58.8292 68.7543 58.8292C69.0491 58.8292 69.3046 58.8944 69.5666 59.0182C71.9575 60.1195 74.0929 61.5726 75.7436 63.6449C77.7742 66.1993 78.1475 69.047 77.1126 72.0967C76.772 73.1003 76.0056 73.8171 75.1737 74.4427C73.5361 75.6743 71.6561 76.4432 69.7434 77.134C68.8722 77.4468 67.988 77.7139 67.1233 78.0267C66.3766 78.2939 66.0818 78.6979 66.1211 79.317C66.1408 79.6819 66.3569 79.9556 66.5796 80.2098C67.1561 80.8549 67.7325 81.5065 68.3482 82.1061C71.7675 85.436 75.2064 88.7529 78.6388 92.0697C78.7567 92.1805 78.8877 92.2783 79.0843 92.4412L79.0908 92.4477Z" fill="#010375"/>
<path d="M86.9512 112.942C88.805 109.352 90.7963 105.833 92.7352 102.281C92.8662 102.047 92.9776 101.858 93.3116 101.962C96.1545 102.835 99.089 102.776 102.017 102.868C106.995 103.018 110.912 100.874 114.253 97.433C116.271 95.3542 117.777 92.9692 118.426 90.1019C118.819 88.3686 118.838 86.6221 118.681 84.8692C118.288 80.4641 116.709 76.4043 115.013 72.3771C114.81 71.8949 114.62 71.3996 114.41 70.8914C114.554 70.9044 114.587 70.9696 114.633 71.0347C117.509 75.2835 120.07 79.7016 121.845 84.5303C122.932 87.5019 123.771 90.5451 123.928 93.7121C124.072 96.651 124.111 99.5964 123.201 102.47C121.413 108.153 117.725 112.121 112.314 114.552C108.829 116.116 105.155 116.67 101.355 116.546C96.9536 116.409 92.7352 115.379 88.5823 113.998C87.9862 113.802 87.3967 113.594 86.8071 113.385C86.8595 113.242 86.9054 113.092 86.9578 112.949L86.9512 112.942Z" fill="#010375"/>
<path d="M83.9053 44.1282C83.8398 44.1151 83.7743 44.1086 83.7088 44.0956C83.6891 44.063 83.6629 44.0239 83.6433 43.9913C82.5363 39.3972 80.7218 35.1615 77.2501 31.812C74.5776 29.2315 71.3483 27.7588 67.6735 27.2049C63.0948 26.5141 59.086 27.7849 55.444 30.5478C52.2278 32.9915 49.529 35.9109 47.0989 39.104C46.7648 39.5406 46.4242 39.9772 46.0836 40.4073C46.0705 40.4268 46.0312 40.4203 45.9591 40.4268C46.4831 39.3255 47.0334 38.2699 47.6163 37.2337C50.2692 32.4897 53.4265 28.1107 57.396 24.3702C60.9594 21.0142 65.0534 18.5575 69.8875 17.4562C74.1584 16.4853 78.2261 17.1239 82.1105 19.0463C86.9905 21.4574 90.3967 25.2956 92.781 30.0982C94.4972 33.5584 95.5453 37.2337 96.2789 41.0068C96.4165 41.704 96.5213 42.4078 96.6392 43.1116C96.6392 43.47 96.6392 43.8219 96.6392 44.1803C92.6107 44.1803 88.5822 44.1673 84.5472 44.1608C84.3311 44.0826 84.1149 44.1021 83.8922 44.1282H83.9053Z" fill="#010375"/>
<path d="M32.1837 69.3924C33.4348 71.6536 34.6859 73.9149 35.9305 76.1826C36.7952 77.7596 37.6467 79.3366 38.5245 80.9396C38.1576 81.0439 37.8498 81.1873 37.6009 81.4349C35.2558 83.7938 33.1401 86.3157 31.6793 89.3329C30.3758 92.0242 29.9238 94.8588 30.1335 97.8238C30.3496 100.874 31.1684 103.715 32.9108 106.263C34.568 108.687 36.8017 110.427 39.4284 111.697C42.5136 113.196 45.8084 114.011 49.1622 114.643C50.4068 114.877 51.6645 115.073 52.9156 115.288C53.0597 115.314 53.1972 115.353 53.3348 115.405C51.7103 115.516 50.0924 115.529 48.4679 115.49C44.3477 115.386 40.2734 114.956 36.2711 113.926C32.7274 113.014 29.3278 111.756 26.2687 109.71C22.3385 107.09 19.4171 103.682 17.9236 99.1597C16.9345 96.1752 16.7904 93.1254 17.2751 90.0366C18.0153 85.3252 20.1573 81.2655 23.1573 77.6097C25.6137 74.6186 28.4893 72.0707 31.5549 69.7248C31.699 69.614 31.8365 69.5032 31.9741 69.3924C32.0462 69.3924 32.1182 69.3794 32.1903 69.3794L32.1837 69.3924Z" fill="#010375"/>
<path d="M71.7413 80.0405C72.8221 79.6886 73.8505 79.3563 74.8527 78.9197C76.9226 78.0204 78.6584 76.678 80.0078 74.886C81.0755 73.4784 81.6716 71.8688 81.6585 70.0833C81.6454 68.78 81.7895 67.4637 81.4489 66.1734C80.7546 63.5538 79.2611 61.4881 77.0798 59.8915C76.6475 59.5788 76.2152 59.266 75.7894 58.9532C75.8483 58.8098 75.9532 58.8554 76.0318 58.8554C80.3419 58.7707 84.6455 58.8424 88.9556 58.8098C89.3355 58.8098 89.2635 59.0249 89.2635 59.2399C89.27 62.231 89.2897 65.222 89.2897 68.2131C89.2897 76.1632 89.2897 84.1068 89.2962 92.0569C89.2962 92.5065 89.1652 92.5847 88.7525 92.5717C87.318 92.5261 85.8835 92.6368 84.449 92.5195C84.2262 92.5 84.0625 92.4348 83.9053 92.2719C79.9096 88.2513 75.9073 84.2371 71.905 80.2164C71.8657 80.1773 71.8264 80.1317 71.7478 80.034L71.7413 80.0405Z" fill="#010375"/>
<path d="M86.9512 112.942C86.8988 113.086 86.853 113.235 86.8006 113.379C86.2503 114.161 85.8508 115.021 85.3726 115.842C84.2656 117.745 83.1782 119.661 82.0778 121.563C81.8026 122.033 81.6192 122.104 81.1345 121.831C79.9292 121.14 78.7371 120.436 77.558 119.713C73.7392 117.38 70.0579 114.851 66.501 112.141C64.7652 110.811 63.0555 109.443 61.3983 108.016C59.4987 106.38 57.6515 104.699 55.8502 102.959C53.6623 100.848 51.5859 98.6385 49.5815 96.3512C46.8172 93.2037 44.2691 89.8999 41.9503 86.4201C41.0267 85.0386 40.0769 83.6636 39.2647 82.2105C39.1599 82.015 39.0157 81.839 39.0288 81.5979H39.0354C40.0442 82.4581 40.8826 83.4877 41.8062 84.4391C42.232 84.8757 42.6184 85.3514 43.0377 85.788C44.446 87.2672 45.8281 88.7725 47.3412 90.1475C49.1295 91.7636 50.9177 93.3732 52.7846 94.898C55.6209 97.2179 58.5751 99.3748 61.6472 101.375C64.0053 102.913 66.4355 104.334 68.9247 105.663C73.4378 108.074 78.1017 110.173 82.9293 111.88C83.6629 112.141 84.3966 112.382 85.1237 112.649C85.7198 112.87 86.3224 113.001 86.9643 112.936L86.9512 112.942Z" fill="#CBC6D1"/>
<path d="M32.1837 69.3924C32.1117 69.3924 32.0396 69.4054 31.9676 69.4054C31.8628 68.8971 31.5484 68.4931 31.2929 68.0565C29.9304 65.7171 28.4435 63.4494 27.1858 61.0513C26.8845 60.4844 26.8976 60.4779 27.4609 60.152C30.1466 58.5946 32.8781 57.1219 35.6685 55.7664C39.7101 53.805 43.8303 52.0325 48.0618 50.5076C52.2278 49.0023 56.4593 47.7251 60.776 46.7151C63.5599 46.0634 66.37 45.5682 69.1932 45.1381C70.9749 44.8709 72.7566 44.6624 74.5449 44.4538C75.4881 44.3431 76.4445 44.317 77.3943 44.2583C79.2742 44.1345 81.1476 44.0563 83.0341 44.0824C83.1848 44.0824 83.342 44.0824 83.4926 44.0824C83.4926 44.128 83.4926 44.1671 83.4926 44.2127C82.7328 44.3756 81.973 44.5451 81.2197 44.7015C78.1738 45.3531 75.1475 46.0569 72.154 46.9106C69.2129 47.7512 66.3242 48.7417 63.4682 49.8299C60.4289 50.9899 57.4484 52.2997 54.5532 53.7789C50.7147 55.7469 46.981 57.8908 43.4241 60.3345C40.9678 62.0223 38.6227 63.8534 36.3236 65.7432C35.0462 66.7923 33.782 67.8545 32.5178 68.9167C32.3737 69.0405 32.2034 69.1513 32.1903 69.3729L32.1837 69.3924Z" fill="#CBC6D1"/>
<path d="M96.6523 44.1737C96.6523 43.8153 96.6523 43.4634 96.6523 43.105C96.685 43.1506 96.7309 43.1962 96.7505 43.2483C97.0453 44.0694 97.0453 44.0629 97.9623 44.0825C99.934 44.1346 101.906 44.0173 103.877 43.9977C104.807 43.9847 105.731 43.9977 106.661 43.9847C106.956 43.9847 107.087 44.0499 107.08 44.3757C107.061 45.8354 107.094 47.2951 107.061 48.7482C107.028 50.2601 106.976 51.7719 106.884 53.2837C106.766 55.2061 106.635 57.1284 106.432 59.0443C106.176 61.4293 105.869 63.8013 105.489 66.1733C104.814 70.3895 103.917 74.56 102.738 78.6654C101.473 83.077 99.9405 87.404 98.0999 91.6201C97.006 94.129 95.7942 96.5857 94.543 99.0229C94.1631 99.7592 93.7504 100.476 93.3116 101.186C93.2723 100.815 93.4229 100.483 93.5212 100.144C94.2024 97.8564 95.0016 95.6017 95.6304 93.2949C96.4164 90.4211 97.0911 87.5213 97.6479 84.5954C98.0802 82.3407 98.4274 80.073 98.7025 77.7987C98.8728 76.3716 98.9842 74.938 99.1021 73.5109C99.3575 70.396 99.3968 67.2811 99.3379 64.1597C99.3051 62.3807 99.1545 60.6082 99.0169 58.8358C98.899 57.2392 98.7353 55.6492 98.5322 54.0657C98.316 52.3519 98.0278 50.638 97.7003 48.9372C97.4055 47.4254 97.1304 45.9136 96.7571 44.4148C96.7374 44.3301 96.7374 44.2388 96.6523 44.1737Z" fill="#CBC6D1"/>
</g>
<defs>
<clipPath id="clip0_2316_116">
<rect width="107" height="105" fill="white" transform="translate(17 17)"/>
</clipPath>
</defs>
</svg>
