<svg width="140" height="140" viewBox="0 0 140 140" fill="none" xmlns="http://www.w3.org/2000/svg">
<rect width="140" height="140" rx="30" fill="url(#paint0_radial_3468_1003)"/>
<g clip-path="url(#clip0_3468_1003)">
<path d="M39.6845 48.9057L38.4691 58.2353C38.1319 60.8249 37.8335 63.4197 37.585 66.0194C37.336 68.6268 36.8926 70.9327 35.7328 72.1277C32.5821 75.408 30.3868 75.1498 20.0562 75.718L21.115 68.3304C21.8713 69.0748 22.5617 69.6507 23.0262 69.6479L27.4683 69.2347C29.8864 69.0065 30.3713 68.2105 30.5268 66.589C30.6528 65.273 30.7916 63.958 30.9585 62.6466L32.5305 50.3008L32.3239 49.8616L30.8516 48.7507L38.8578 48.0533C39.6471 47.8574 39.8011 48.2554 39.6845 48.9057Z" fill="url(#paint1_linear_3468_1003)" stroke="#23E5D7" stroke-width="0.445313" stroke-miterlimit="10"/>
<path d="M56.9113 54.2626C56.7606 54.29 56.6084 54.3089 56.4554 54.3198L43.2925 55.2665L41.7426 60.0631L52.1241 59.5075C52.7944 59.6765 53.0587 60.1764 52.8552 61.0576L52.5335 62.3151C46.3631 62.9878 42.1228 62.052 40.9531 65.3862C39.9506 67.5203 39.6645 69.8278 40.1341 72.3182C40.4002 74.1506 42.0598 74.7766 45.0179 74.2777L47.6716 74.0995C48.4951 74.0441 49.2816 73.7371 49.9245 73.2199L51.7732 71.7331L52.0072 73.8098L57.7974 73.254L59.8153 57.4308C60.1751 54.7686 59.0771 53.8697 56.9113 54.2626ZM52.1327 65.9136L51.8042 69.1177L47.7793 69.3721C47.4993 69.3899 47.219 69.4191 46.9468 69.4867C46.3791 69.6277 46.7961 67.7704 47.082 66.1792L51.947 65.726C52.0542 65.7161 52.1439 65.8066 52.1327 65.9136Z" fill="url(#paint2_linear_3468_1003)" stroke="#23E5D7" stroke-width="0.445313" stroke-miterlimit="10"/>
<path d="M52.1323 65.9129L51.8037 69.117L47.7789 69.3714C47.4988 69.3892 47.2185 69.4184 46.9464 69.486C46.3787 69.6271 46.7957 67.7697 47.0816 66.1785L51.9465 65.7254C52.0538 65.7154 52.1435 65.8059 52.1323 65.9129Z" stroke="black" stroke-width="0.445313" stroke-miterlimit="10"/>
<path d="M52.1323 65.9129L51.8037 69.117L47.7789 69.3714C47.4988 69.3892 47.2185 69.4184 46.9464 69.486C46.3787 69.6271 46.7957 67.7697 47.0816 66.1785L51.9465 65.7254C52.0538 65.7154 52.1435 65.8059 52.1323 65.9129Z" stroke="black" stroke-width="0.445313" stroke-miterlimit="10"/>
<path d="M68.1733 66.112C67.2666 69.8897 68.5555 71.4545 70.5942 72.264L64.0168 72.8424C61.0543 72.6953 60.5842 70.7927 60.8805 68.3506L63.6818 47.8546C63.9593 46.7216 63.5124 46.1287 62.6923 45.8141L69.7109 45.2049C70.3599 45.1596 70.7743 45.2854 70.6915 45.7742C70.642 46.0664 70.5916 46.3582 70.5558 46.6522L68.1733 66.112Z" fill="url(#paint3_linear_3468_1003)" stroke="#23E5D7" stroke-width="0.445313" stroke-miterlimit="10"/>
<path d="M99.6751 50.8311L92.8075 70.6603L85.2324 71.3161L84.296 62.3939C84.293 62.3639 84.2513 62.3585 84.2409 62.3867L80.7977 71.6096L73.3263 72.1273L71.5996 53.1448L77.203 52.6693C77.543 52.6223 77.7448 52.7766 77.7669 53.1929C77.7786 53.413 77.7885 53.6331 77.806 53.8526L78.6098 63.8618C78.6128 63.9007 78.667 63.9076 78.6797 63.8707L82.7304 52.1425L88.5283 51.6593C89.0017 51.7557 89.1219 52.2192 89.0975 52.833L89.964 62.7494C89.9665 62.7802 90.0095 62.785 90.0191 62.7558L93.7393 51.2451L99.6751 50.8311Z" fill="url(#paint4_linear_3468_1003)" stroke="#23E5D7" stroke-width="0.445313" stroke-miterlimit="10"/>
<path d="M113.314 49.65C112.584 49.7179 111.854 49.7862 111.122 49.8445L102.512 50.5309L100.914 55.3239L110.499 54.841C111.665 55.0489 111.082 58.3188 110.053 57.9249C107.376 58.0408 104.663 58.1452 102.823 58.5326C101.618 58.7865 100.348 59.3796 99.882 60.5205C98.8656 63.0107 98.6196 65.6358 99.0534 68.2414C99.2226 69.2577 100.26 69.9063 101.287 69.9772C102.348 70.0504 104.19 70.0509 106.128 69.7136C107.361 69.4991 108.185 68.8871 109.178 68.1257L109.496 67.8827L109.498 67.9783C109.517 68.7408 109.349 69.6237 110.111 69.5856L115.552 69.2198C116.052 69.1748 116.455 68.7888 116.52 68.2907L118.3 53.2806C118.22 50.5601 116.561 49.3476 113.314 49.65ZM110.354 62.2378L109.919 65.0995C109.894 65.2696 109.753 65.3984 109.581 65.4094L105.662 65.6561C105.112 65.7286 105.052 65.4462 105.114 65.0754L105.538 62.5624C105.554 62.4696 105.594 62.3827 105.653 62.31C105.744 62.2005 105.874 62.1308 106.015 62.1168L109.872 61.731C110.16 61.7023 110.397 61.9522 110.354 62.2378Z" fill="url(#paint5_linear_3468_1003)" stroke="#23E5D7" stroke-width="0.445313" stroke-miterlimit="10"/>
<path d="M110.354 62.238L109.92 65.0998C109.894 65.2698 109.754 65.3986 109.582 65.4096L105.662 65.6564C105.113 65.7288 105.053 65.4464 105.115 65.0756L105.539 62.5626C105.555 62.4698 105.594 62.3829 105.654 62.3102C105.744 62.2007 105.874 62.131 106.016 62.1171L109.873 61.7313C110.16 61.7025 110.398 61.9524 110.354 62.238Z" stroke="black" stroke-width="0.445313" stroke-miterlimit="10"/>
<path d="M110.354 62.238L109.92 65.0998C109.894 65.2698 109.754 65.3986 109.582 65.4096L105.662 65.6564C105.113 65.7288 105.053 65.4464 105.115 65.0756L105.539 62.5626C105.555 62.4698 105.594 62.3829 105.654 62.3102C105.744 62.2007 105.874 62.131 106.016 62.1171L109.873 61.7313C110.16 61.7025 110.398 61.9524 110.354 62.238Z" stroke="black" stroke-width="0.445313" stroke-miterlimit="10"/>
<path d="M45.4588 89.951L45.0995 92.8013C45.0829 92.9324 44.9772 93.0346 44.8456 93.0463L40.8934 93.4013C40.7651 93.4128 40.6601 93.3007 40.6802 93.1734L41.1348 90.2908C41.1508 90.1891 41.2342 90.1119 41.3366 90.1035L45.2921 89.7769C45.3902 89.7688 45.4712 89.8532 45.4588 89.951Z" fill="white"/>
<path d="M53.4316 87.0669C53.4191 87.2003 53.3912 87.4153 53.3912 87.6135C53.3912 87.7665 53.4077 87.9094 53.4613 87.9978C53.6799 88.3582 54.2097 88.3091 54.6297 88.2733L57.5825 88.0779C57.7591 88.0662 57.9027 87.9302 57.924 87.7543L58.1329 86.0373L57.2163 86.0066C57.1332 86.0088 57.0687 85.9346 57.0824 85.8528L57.5543 83.0205C57.582 82.8538 57.7225 82.729 57.8915 82.7212L62.3329 82.5117C62.5844 82.5 62.7852 82.7189 62.7519 82.9684L61.8808 90.6771C61.8295 91.0626 61.8005 91.7516 60.921 91.7641L50.7502 92.4815C48.9399 92.1328 48.2287 90.6118 48.4846 88.0586L49.7129 80.4686C50.1965 77.9841 51.4993 77.0259 53.0977 76.619L62.188 75.9092C62.8416 75.7836 63.2799 75.8441 63.1435 76.4007L62.5156 79.9227L55.8599 80.3199C55.6076 80.3413 55.3626 80.4058 55.1354 80.5095C54.9082 80.6132 54.6989 80.7561 54.5174 80.933C54.1731 81.2684 54.1675 81.7213 54.0984 82.1968L53.4316 87.0669Z" fill="white"/>
<path d="M75.5476 77.225L66.086 77.978L65.2075 81.4167L72.0091 80.965C72.5745 81.2853 72.4357 81.8185 72.2111 82.632L66.6603 82.9172C65.9925 82.9515 65.36 83.2377 64.9021 83.7251C64.0734 84.6073 63.5848 86.1116 63.552 88.4495C63.5482 88.7179 63.5352 88.9863 63.5197 89.2542C63.4328 90.7618 63.9982 91.7242 65.8852 91.5827C67.9974 91.7158 69.8819 91.3095 71.4066 90.0514L71.2871 90.9676C71.2711 91.0904 71.3725 91.1966 71.4958 91.1865L75.849 90.8296L77.4049 78.8315C77.2641 77.7887 76.9312 76.9497 75.5476 77.225ZM71.6698 87.3714C71.6302 87.4891 71.5245 87.5717 71.4007 87.5808L68.7343 87.7806C68.1433 87.7806 68.0183 87.5765 68.0139 87.0954C68.0134 87.0286 68.0124 86.9615 68.0111 86.8946C68.001 86.3881 68.077 86.0605 68.2032 85.8374C68.3224 85.6267 68.544 85.4945 68.7857 85.481L71.7199 85.3186C71.8497 85.3115 71.96 85.4139 71.9613 85.5441C71.9684 86.2105 71.8581 86.8125 71.6698 87.3714Z" fill="white"/>
<path d="M71.9608 85.5434C71.9679 86.2098 71.8577 86.8119 71.6694 87.3707C71.6297 87.4884 71.524 87.571 71.4003 87.5802L68.7339 87.7799C68.1428 87.7799 68.0178 87.5758 68.0135 87.0947C68.013 87.0279 68.0119 86.9608 68.0107 86.894C68.0005 86.3874 68.0765 86.0598 68.2028 85.8367C68.322 85.626 68.5435 85.4938 68.7852 85.4804L71.7194 85.318C71.8493 85.3109 71.9596 85.4133 71.9608 85.5434Z" stroke="black" stroke-width="0.445313" stroke-miterlimit="10"/>
<path d="M71.9608 85.5434C71.9679 86.2098 71.8577 86.8119 71.6694 87.3707C71.6297 87.4884 71.524 87.571 71.4003 87.5802L68.7339 87.7799C68.1428 87.7799 68.0178 87.5758 68.0135 87.0947C68.013 87.0279 68.0119 86.9608 68.0107 86.894C68.0005 86.3874 68.0765 86.0598 68.2028 85.8367C68.322 85.626 68.5435 85.4938 68.7852 85.4804L71.7194 85.318C71.8493 85.3109 71.9596 85.4133 71.9608 85.5434Z" stroke="black" stroke-width="0.445313" stroke-miterlimit="10"/>
<path d="M99.4307 78.197L98.0255 89.051C98.0077 89.188 97.8954 89.2929 97.7574 89.3013L93.7544 89.5415C93.576 89.5522 93.4312 89.3997 93.4512 89.2223L94.1155 83.3296C94.3213 82.0708 94.4664 80.8793 94.2624 80.079C94.2232 79.925 94.0776 79.8223 93.9191 79.8322L91.6427 79.973C91.394 79.9883 91.1914 80.1789 91.1607 80.4264L90.0309 89.5522C90.008 89.7367 89.8607 89.8808 89.6757 89.8993L85.9308 90.2765C85.6785 90.3019 85.4671 90.0879 85.4955 89.8358L86.501 80.9215C86.5376 80.597 86.2769 80.3161 85.9506 80.3283L83.7874 80.4102C83.5254 80.4201 83.3094 80.6188 83.2779 80.8791L82.1423 90.2488C82.124 90.3993 82.0002 90.5149 81.8488 90.5228L77.8089 90.734C77.615 90.7441 77.459 90.5767 77.4829 90.384L79.0256 77.9525L79.0457 77.249C79.0515 77.0447 79.2175 76.8813 79.4218 76.8787L83.5152 76.6485C83.7048 76.6462 83.8641 76.7908 83.8799 76.9799L83.7915 77.6862C84.0656 77.28 84.7019 76.8149 85.4404 76.5473L89.2282 76.2111C90.3277 76.1501 90.982 76.5544 91.2135 77.1888C92.4226 76.1679 94.4725 75.7455 97.1702 75.7833C99.0602 75.4484 99.925 76.1414 99.4307 78.197Z" fill="white"/>
<path d="M112.206 74.8053C111.842 74.6851 111.456 74.6441 111.074 74.6729L103.356 75.2531C101.907 75.6117 101.136 76.5271 100.921 77.8996L99.969 86.4209C99.5799 89.2364 102.069 89.2092 104.943 88.8026L110.976 88.3527L112.432 84.8066L105.605 85.1771C105.256 85.2412 104.961 85.2145 104.758 85.0338C104.615 84.9065 104.545 84.7148 104.561 84.5237L104.652 83.3775L112.643 82.7424L113.543 77.2644C113.699 75.8242 113.146 75.1153 112.206 74.8053ZM108.71 78.634L108.539 79.9996C107.378 80.1086 106.507 80.2174 105.381 80.2248C105.245 80.2258 105.151 80.0873 105.177 79.9544L105.383 78.9111C105.502 78.7349 105.635 78.5664 106.054 78.5664L108.506 78.4173C108.627 78.4099 108.725 78.5141 108.71 78.634Z" fill="white"/>
<path d="M108.71 78.6334L108.54 79.999C107.379 80.108 106.508 80.2168 105.381 80.2241C105.246 80.2252 105.152 80.0866 105.178 79.9537L105.384 78.9104C105.503 78.7343 105.636 78.5658 106.055 78.5658L108.507 78.4166C108.628 78.4093 108.725 78.5135 108.71 78.6334Z" stroke="black" stroke-width="0.445313" stroke-miterlimit="10"/>
<path d="M108.71 78.6334L108.54 79.999C107.379 80.108 106.508 80.2168 105.381 80.2241C105.246 80.2252 105.152 80.0866 105.178 79.9537L105.384 78.9104C105.503 78.7343 105.636 78.5658 106.055 78.5658L108.507 78.4166C108.628 78.4093 108.725 78.5135 108.71 78.6334Z" stroke="black" stroke-width="0.445313" stroke-miterlimit="10"/>
<path d="M121.062 64.5618C120.406 68.8404 120.39 72.1601 119.072 73.1778C118.06 73.6179 116.58 73.864 115.215 73.848C115.12 73.8467 115.066 73.957 115.126 74.0312C116.696 75.9592 117.226 76.8279 117.262 77.7001C117.271 77.926 117.273 78.7238 117.25 78.9487C117 81.3667 116.578 83.6988 116.09 86.0837C116.055 86.2568 115.995 86.4238 116.009 86.5999L116.01 86.6131C116.022 86.7644 116.068 86.91 116.138 87.0442C116.326 87.4005 116.425 88.0892 116.324 88.3752C115.867 90.9278 115.186 92.8454 112.197 93.0475L53.8045 97.1494C52.4013 97.1543 51.0868 96.9296 50.0096 96.0904C49.8836 95.992 49.6994 96.0256 49.614 96.1608C48.706 97.6013 46.3987 98.165 42.7105 97.8633C42.2198 97.8232 41.7556 97.6227 41.3879 97.2948C40.5069 96.5095 39.786 95.7864 39.3268 95.1658C38.9469 94.6522 38.797 94.0038 38.9045 93.374L39.5949 89.3186C39.6945 88.9498 39.9298 88.6827 40.3786 88.5757L45.9403 88.0483C46.2988 88.0143 46.5888 87.7413 46.6442 87.3853L47.9765 78.8196C47.995 78.6997 47.8977 78.5937 47.7768 78.6021L44.1679 78.8504C41.995 78.9309 41.0232 77.7845 39.6109 76.3684C39.5242 76.2814 39.3812 76.2916 39.3062 76.3889C38.1815 77.8511 36.7288 78.7403 34.9177 79.0036L22.5331 80.2159C21.2074 80.3921 19.764 79.1101 18.2541 77.0025C18.0938 76.7786 18.0277 76.5005 18.0683 76.2281L19.4403 67.0492C19.6776 66.0931 20.2628 65.9853 21.14 66.5894L22.3819 67.5041C22.5727 67.6444 22.7946 67.7367 23.0289 67.7727C23.1025 67.7842 23.1773 67.7898 23.2517 67.7898C23.3025 67.7898 23.3531 67.7872 23.4037 67.7819L27.6318 67.3417C27.9187 67.3097 28.1863 67.1811 28.3906 66.977C28.4915 66.8761 28.5738 66.7597 28.6353 66.6331C28.6968 66.5066 28.7375 66.3698 28.7542 66.228L30.2977 52.4424C30.3122 52.3217 30.2802 52.2002 30.2098 52.1011C29.2998 50.8209 28.742 49.0294 28.3004 47.0689C28.2501 46.8798 28.2557 46.7192 28.6628 46.7624L39.5095 45.636C39.88 45.5977 40.2548 45.6442 40.6027 45.7773C42.057 46.3334 43.665 47.8764 43.5689 49.2844L43.0953 52.3776C43.0261 52.812 43.1682 53.0064 43.5684 52.9075L59.1452 51.6642C59.2979 51.652 59.4514 51.6688 59.598 51.7138L60.8731 52.1052C61.0947 52.1372 61.2243 52.0157 61.2746 51.7621L61.5709 49.983C61.5935 49.8473 61.5905 49.7083 61.5613 49.5736C61.4207 48.9209 61.2571 48.4487 61.0932 47.9775L60.0633 44.5676C59.9111 44.2016 59.9794 43.9688 60.4066 43.9528L70.7062 42.8429C71.7865 42.6836 72.8931 43.4369 74.0145 44.6995C74.2463 44.9608 74.4058 45.2782 74.4757 45.6203C74.6544 46.492 74.5433 46.8028 74.4988 47.9137L74.3581 50.241C74.3525 50.334 74.4236 50.4006 74.5161 50.3889C77.3949 50.0277 78.9722 49.9207 80.0275 51.0764C80.0867 51.1412 80.1927 51.1221 80.2245 51.04C80.6295 49.9952 81.8109 49.5281 83.7686 49.6384C87.8511 49.1835 91.2158 48.973 91.8452 49.6956C91.9245 49.7868 92.046 49.8346 92.1639 49.8084C92.2312 49.7937 92.2963 49.7568 92.3585 49.6933C92.4983 49.5502 92.6477 49.4168 92.8154 49.308C93.576 48.8157 94.5398 48.5842 95.7303 48.6431L100.44 48.392C100.677 48.3793 100.914 48.4047 101.143 48.467L101.439 48.5473C101.61 48.5941 101.791 48.5938 101.962 48.5471L102.027 48.529C102.145 48.497 102.254 48.4424 102.353 48.3717C102.617 48.1831 102.917 48.0596 103.279 48.0474C107.643 47.6105 111.726 47.3094 115.324 47.2425C116.714 47.4435 117.966 48.1453 119.098 49.2905C119.36 49.556 119.627 49.8176 119.904 50.0687C121.262 51.3 122.104 52.6361 122.158 53.777C122.235 57.116 121.565 60.7668 121.062 64.5618Z" stroke="black" stroke-width="0.445313" stroke-miterlimit="10"/>
<path d="M69.7588 41.9214C71.7458 41.5922 73.2861 42.067 74.334 42.9399C75.3787 43.8104 75.918 45.0641 75.9277 46.2563V46.2759L75.6807 49.3325L78.0762 49.1655C78.4572 49.1391 78.8408 49.2011 79.1943 49.3462L79.6602 49.5376C79.7745 49.5845 79.9053 49.5731 80.0098 49.5063L80.5127 49.1851C80.9315 48.9172 81.412 48.7604 81.9082 48.729L90.041 48.2153C90.5244 48.1848 91.0095 48.2434 91.4717 48.3862L91.6973 48.4556H91.6982C91.8597 48.5053 92.0349 48.4921 92.1865 48.4175L92.6025 48.2124C93.0698 47.9823 93.5774 47.8436 94.0967 47.8032L100.228 47.3267L100.252 47.3247L100.275 47.3286L101.434 47.4858C101.598 47.5082 101.766 47.488 101.921 47.4263L102.854 47.0532L102.887 47.0396L102.921 47.0376L113.222 46.3032C114.646 46.2023 115.932 46.2271 117.287 46.7622C118.641 47.2967 120.043 48.3308 121.725 50.2036H121.724C122.33 50.8509 122.877 51.5997 123.225 52.6216C123.572 53.6429 123.714 54.9224 123.537 56.6235L123.538 56.6245C123.09 61.6906 122.36 66.5503 121.423 71.2534C121.32 72.4327 120.955 73.4064 120.226 74.0659C119.554 74.6732 118.604 74.9846 117.352 74.981C117.8 75.5094 118.164 76.1542 118.372 76.9985C118.615 77.9818 118.645 79.2242 118.374 80.8511V80.854L117.312 86.7329C117.608 88.5566 117.509 90.1674 116.875 91.4741C116.233 92.7968 115.055 93.7772 113.262 94.355L113.236 94.3628L113.209 94.3647L93.3643 95.7896H93.3633L73.585 97.1245L54.6299 98.4155L54.6289 98.4146C53.0537 98.6595 51.5372 98.4788 50.1357 97.6187L49.5225 98.106C48.9747 98.541 48.317 98.8169 47.623 98.9038C46.2309 99.0785 44.9127 99.1972 43.7812 99.1841C42.6568 99.171 41.6839 99.0275 41.0029 98.6548L40.9756 98.6401L40.9541 98.6187L38.5068 96.2153V96.2144C37.8217 95.5491 37.4894 94.6713 37.4834 93.6108V93.5933L37.4854 93.5767L38.0195 89.9272L38.0205 89.9224C38.1495 89.1734 38.3919 88.5823 38.75 88.1489C39.1111 87.7122 39.5794 87.4479 40.1318 87.3384L40.1445 87.3354L40.1582 87.3345L45.3877 86.9253L46.4297 80.062C44.4615 80.262 43.1024 80.2004 42.0498 79.8403C41.013 79.4855 40.2984 78.8507 39.5986 77.9624C38.2753 79.3129 36.8148 80.1534 35.1709 80.228L23.0234 81.4653L23.0195 81.4663C22.1335 81.5418 21.3681 81.3816 20.7051 81.0278C20.0492 80.6777 19.5055 80.1436 19.0449 79.4849L17.1709 77.5161C16.9217 77.2543 16.7938 76.9001 16.8184 76.5396C16.9454 74.6747 17.5938 70.6368 18.1494 66.9917C18.2043 66.6315 18.3199 66.2793 18.5039 65.9595C18.7162 65.5906 18.9994 65.2836 19.3955 65.1421C19.7431 65.0181 20.1464 65.032 20.6123 65.1919L20.8154 65.27L20.835 65.2778L20.8525 65.2896L22.7812 66.5581L22.8848 66.6147C22.9931 66.6621 23.1126 66.6808 23.2314 66.6694L27.2646 66.2837C27.3174 66.2781 27.3379 66.2634 27.3467 66.2554C27.3579 66.245 27.3747 66.2237 27.3896 66.1763C27.4051 66.127 27.4149 66.0629 27.4238 65.98C27.4312 65.912 27.441 65.793 27.4512 65.7075L28.9463 53.0776L28.9492 53.0513L28.958 53.0269C28.966 53.0045 28.9755 52.9436 28.9463 52.8208C28.9177 52.7009 28.8577 52.5429 28.7578 52.3413L28.5596 51.9224C28.3694 51.5004 28.2026 51.0681 28.0586 50.6284L26.999 47.3931L26.9951 47.3823L26.9922 47.3696C26.8987 46.9262 26.9668 46.5737 27.1689 46.2983C27.3631 46.0345 27.6597 45.8715 27.958 45.7515L27.9873 45.7397L28.0186 45.7358L39.5859 44.5454H39.5869C40.6949 44.4372 41.8456 44.7551 43.0977 46.0356L43.416 46.3345C43.7277 46.632 44.0136 46.9262 44.2383 47.2085C44.5303 47.5755 44.7549 47.9644 44.752 48.3384V48.3394C44.736 49.6821 44.7094 50.9777 44.6152 51.7456L51.2207 51.3032L58.4746 50.6909C59.0693 50.6197 59.6108 50.6787 60.1025 50.853C60.2421 50.1983 60.2119 49.5798 59.9922 48.9956C59.8197 48.5367 59.6516 48.0718 59.5039 47.5991C59.1397 46.432 58.8384 45.3412 58.667 44.4146L58.666 44.4116C58.5846 43.9328 58.6645 43.4959 59.0078 43.189C59.3336 42.898 59.8522 42.7665 60.54 42.7642L69.7588 41.9214ZM70.7393 43.063L70.7305 43.0649L60.4307 44.1743L60.4229 44.1753H60.415C60.3266 44.1786 60.2734 44.1935 60.2451 44.2065C60.2253 44.2158 60.2201 44.2235 60.2188 44.2261C60.2167 44.2302 60.2088 44.2494 60.2139 44.2944C60.2164 44.3173 60.2226 44.3444 60.2314 44.3755L60.2695 44.4819L60.2734 44.4927L60.2764 44.5034L61.3037 47.9048L61.4268 48.2632C61.4883 48.4462 61.5492 48.6369 61.6084 48.8442C61.6381 48.9481 61.6678 49.056 61.6963 49.1694C61.7248 49.2828 61.7523 49.4017 61.7793 49.5269C61.7998 49.6214 61.8084 49.7178 61.8076 49.814C61.8075 49.8273 61.8072 49.8407 61.8066 49.854C61.8045 49.9096 61.8002 49.9651 61.791 50.02L61.4941 51.7993L61.4932 51.8052C61.4632 51.9561 61.4031 52.105 61.2852 52.2085C61.1905 52.2913 61.0777 52.3277 60.96 52.3315C60.9206 52.3328 60.8807 52.3315 60.8408 52.3257L60.8389 52.3247L60.8242 52.3237L60.8115 52.3188L60.8076 52.3179L60.334 52.1724L59.5332 51.9272C59.4436 51.8997 59.3504 51.8849 59.2568 51.8833C59.2256 51.8829 59.1943 51.8837 59.1631 51.8862L43.5889 53.1284C43.5079 53.1462 43.4245 53.1559 43.3438 53.1519C43.2093 53.1452 43.0824 53.0999 42.9863 52.9868C42.9501 52.9441 42.9223 52.8969 42.9023 52.8462C42.8893 52.8131 42.8814 52.7781 42.874 52.7427C42.8665 52.7058 42.8636 52.6679 42.8613 52.6294C42.8554 52.5347 42.86 52.4368 42.875 52.3423L43.3457 49.2671C43.3479 49.2347 43.3485 49.2022 43.3486 49.1694C43.3487 49.1535 43.3481 49.1376 43.3477 49.1216C43.3376 48.736 43.1891 48.3318 42.9404 47.937C42.817 47.7415 42.6708 47.5473 42.502 47.3608C42.4355 47.2874 42.3665 47.2152 42.2949 47.145C41.8492 46.7084 41.3127 46.3393 40.7852 46.0962L40.5234 45.9858C40.2096 45.8657 39.8698 45.8232 39.5332 45.8579L28.6865 46.9839L28.6631 46.9868L28.6396 46.9839C28.5813 46.9777 28.5389 46.9782 28.5098 46.98L28.5156 47.0122L28.5186 47.02H28.5176C28.5727 47.2646 28.6295 47.506 28.6885 47.7437C28.8064 48.219 28.9327 48.6793 29.0713 49.1196C29.3832 50.1102 29.757 50.9993 30.2305 51.7329C30.2831 51.8145 30.3364 51.8945 30.3916 51.9722L30.457 52.0854C30.4726 52.1189 30.4849 52.1536 30.4951 52.189C30.4999 52.2054 30.5033 52.222 30.5068 52.2388C30.5117 52.2617 30.515 52.2847 30.5176 52.3081C30.5193 52.3234 30.5208 52.3386 30.5215 52.354C30.5226 52.38 30.5213 52.4059 30.5195 52.4321C30.5187 52.4444 30.521 52.4569 30.5195 52.4692L28.9756 66.2534V66.2544C28.9559 66.4212 28.908 66.5825 28.8359 66.731C28.7639 66.8791 28.667 67.0159 28.5488 67.1343L28.5479 67.1353C28.3081 67.3745 27.9938 67.5252 27.6572 67.563H27.6553L23.4277 68.0034C23.3692 68.0096 23.3101 68.0122 23.252 68.0122C23.2092 68.0122 23.1659 68.0115 23.123 68.0083L22.9951 67.9927C22.9346 67.9834 22.8752 67.9693 22.8164 67.9536C22.7987 67.9489 22.7812 67.9433 22.7637 67.938C22.7201 67.9249 22.6771 67.9106 22.6348 67.894C22.6174 67.8872 22.6002 67.8799 22.583 67.8726C22.5744 67.8689 22.5652 67.8666 22.5566 67.8628L22.4209 67.7944C22.3619 67.7612 22.3048 67.7244 22.25 67.6841L21.0693 66.814L21.0078 66.769H21.0068C20.9029 66.6978 20.8072 66.6389 20.7188 66.5923C20.6101 66.5351 20.5124 66.497 20.4258 66.4722C20.3308 66.4448 20.2489 66.4341 20.1787 66.439C20.1523 66.4408 20.1276 66.445 20.1045 66.4507C19.941 66.4913 19.7699 66.6518 19.6582 67.0962L18.2891 76.2612C18.269 76.396 18.282 76.5323 18.3252 76.6587C18.3514 76.7343 18.3883 76.8065 18.4355 76.8726C18.8104 77.3958 19.179 77.8643 19.54 78.27C19.7207 78.4729 19.8993 78.6602 20.0762 78.8306C20.253 79.001 20.4277 79.1547 20.6006 79.2905C20.6871 79.3585 20.7728 79.4216 20.8574 79.48C20.9423 79.5385 21.0263 79.5922 21.1094 79.6411C21.441 79.8363 21.7577 79.9547 22.0605 79.9946C22.1359 80.0046 22.2105 80.009 22.2842 80.0093C22.3583 80.0095 22.4315 80.0052 22.5039 79.9956L22.5117 79.9946L34.8965 78.7817C35.1101 78.7504 35.3182 78.7089 35.5215 78.6597C36.9792 78.3063 38.174 77.496 39.1299 76.2534L39.1943 76.186C39.3174 76.0831 39.4892 76.0579 39.6348 76.1196C39.6556 76.1285 39.6758 76.1394 39.6953 76.1519L39.7686 76.2114L40.2832 76.73C40.4069 76.8542 40.528 76.974 40.6475 77.0894C40.7669 77.2046 40.8848 77.3152 41.0029 77.4204C41.2395 77.6311 41.4766 77.8208 41.7266 77.9849C42.3797 78.4134 43.1204 78.6659 44.1592 78.6274L47.7617 78.3804L47.8574 78.3843C47.894 78.3903 47.9283 78.4025 47.9609 78.4175C47.974 78.4235 47.9868 78.4297 47.999 78.437C48.0053 78.4408 48.0115 78.4446 48.0176 78.4487C48.0312 78.4578 48.0443 78.4674 48.0566 78.478C48.0652 78.4854 48.0731 78.4934 48.0811 78.5015C48.089 78.5095 48.0962 78.5182 48.1035 78.5269C48.1123 78.5374 48.1212 78.5477 48.1289 78.5591C48.1336 78.566 48.1373 78.5734 48.1416 78.5806C48.1492 78.5933 48.1568 78.606 48.1631 78.6196C48.1829 78.6627 48.1964 78.7092 48.2002 78.7583L48.1992 78.7622C48.2002 78.7761 48.1997 78.79 48.1992 78.8042L48.1973 78.854L46.8643 87.4194C46.7932 87.8759 46.4215 88.226 45.9619 88.27L40.4209 88.7954C40.2352 88.8412 40.105 88.916 40.0127 89.0073C39.9187 89.1005 39.8522 89.2226 39.8105 89.3765L39.249 92.6782L39.124 93.4116C39.1118 93.4831 39.1036 93.5548 39.0986 93.6265C39.0691 94.056 39.1686 94.4847 39.3867 94.854C39.4231 94.9156 39.4629 94.9756 39.5059 95.0337C39.5614 95.1088 39.621 95.1857 39.6846 95.2642C39.7483 95.3428 39.8163 95.4226 39.8877 95.5044C40.0303 95.6678 40.1873 95.8379 40.3584 96.0132C40.5295 96.1885 40.7144 96.3691 40.9111 96.5552C41.1079 96.7413 41.3166 96.9327 41.5361 97.1284C41.6192 97.2025 41.7078 97.2694 41.8008 97.3286C41.8933 97.3876 41.9904 97.4386 42.0908 97.4819C42.2923 97.5687 42.5075 97.623 42.7285 97.6411C44.5605 97.791 46.0327 97.7239 47.1514 97.4487C48.2691 97.1737 49.013 96.6964 49.4258 96.0415C49.5804 95.7971 49.915 95.7341 50.1465 95.9146C50.2252 95.9759 50.3062 96.0327 50.3877 96.0874C50.482 96.1506 50.578 96.2094 50.6758 96.2642C50.6847 96.2692 50.6932 96.2749 50.7021 96.2798C50.7501 96.3062 50.7989 96.3305 50.8477 96.355C51.7179 96.7919 52.7159 96.9289 53.792 96.9263L112.181 92.8257H112.182C112.355 92.8139 112.521 92.7953 112.678 92.772C113.824 92.6017 114.542 92.1309 115.03 91.4614C115.172 91.2668 115.296 91.0536 115.405 90.8237C115.734 90.1342 115.933 89.2923 116.104 88.3354L116.108 88.3179L116.114 88.3013C116.13 88.2563 116.14 88.184 116.142 88.0923C116.142 88.0467 116.141 87.9962 116.138 87.9419C116.134 87.8872 116.128 87.8287 116.119 87.7671C116.111 87.7075 116.1 87.6481 116.088 87.5903C116.064 87.4749 116.032 87.3656 115.997 87.2729C115.979 87.2268 115.961 87.1847 115.941 87.1479C115.921 87.1087 115.902 87.0682 115.885 87.0269C115.85 86.9439 115.824 86.857 115.807 86.7671C115.798 86.7222 115.792 86.6766 115.788 86.6304L115.787 86.6167C115.778 86.499 115.794 86.3898 115.813 86.2954C115.823 86.2486 115.835 86.2024 115.845 86.1606C115.855 86.1175 115.864 86.0782 115.872 86.0396C115.994 85.4439 116.112 84.8518 116.224 84.2612C116.391 83.3758 116.546 82.4935 116.682 81.6069C116.745 81.1967 116.802 80.7854 116.856 80.3726C116.92 79.893 116.978 79.4114 117.028 78.9263C117.039 78.8219 117.044 78.5738 117.045 78.3237C117.046 78.0739 117.044 77.822 117.039 77.7095C117.029 77.4669 116.977 77.2198 116.86 76.9351C116.814 76.8211 116.757 76.7009 116.688 76.5728C116.654 76.5088 116.617 76.4428 116.577 76.3745C116.571 76.3638 116.564 76.3531 116.558 76.3423C116.394 76.0679 116.184 75.7596 115.918 75.4009C115.654 75.0458 115.336 74.6413 114.953 74.1714C114.797 73.9782 114.899 73.7029 115.117 73.6392C115.148 73.63 115.182 73.6251 115.218 73.6255C116.415 73.6395 117.694 73.4455 118.648 73.103C118.754 73.065 118.857 73.0265 118.954 72.9849C118.988 72.9573 119.022 72.9276 119.055 72.896C119.251 72.7065 119.421 72.4436 119.567 72.1021C119.592 72.0453 119.616 71.9864 119.639 71.9253C119.733 71.6748 119.817 71.3927 119.892 71.0806C119.929 70.9246 119.964 70.7611 119.998 70.5903C120.032 70.4195 120.065 70.2414 120.096 70.0562C120.22 69.316 120.324 68.4725 120.438 67.5425C120.469 67.292 120.502 67.0353 120.535 66.7729C120.552 66.6352 120.57 66.4958 120.588 66.355C120.663 65.7702 120.745 65.1594 120.842 64.5278C121.221 61.6716 121.689 58.9218 121.867 56.3276C121.912 55.6793 121.939 55.0407 121.941 54.4126C121.942 54.2031 121.94 53.9947 121.936 53.7876L121.917 53.5874C121.895 53.4187 121.854 53.245 121.797 53.0669C121.564 52.3387 121.047 51.5423 120.291 50.7554C120.253 50.7153 120.214 50.6753 120.174 50.6353C120.041 50.5012 119.901 50.3668 119.755 50.2339H119.754C119.473 49.9791 119.203 49.7139 118.939 49.4468C118.871 49.3774 118.802 49.3096 118.732 49.2437C118.613 49.1299 118.491 49.0219 118.369 48.9185C118.306 48.865 118.243 48.8129 118.179 48.7622C117.289 48.055 116.335 47.6169 115.308 47.4653C111.817 47.531 107.868 47.8185 103.644 48.2358C103.53 48.2471 103.416 48.2576 103.302 48.269L103.295 48.27H103.287C102.976 48.2805 102.718 48.3861 102.483 48.5532H102.482L102.392 48.6128C102.382 48.6184 102.372 48.6221 102.362 48.6274C102.348 48.6353 102.334 48.6426 102.32 48.6499C102.298 48.6612 102.276 48.6721 102.253 48.6821C102.233 48.691 102.214 48.7017 102.193 48.7095L102.087 48.7437L102.021 48.7622C101.973 48.7755 101.924 48.7844 101.874 48.7915C101.861 48.7933 101.849 48.794 101.836 48.7954C101.801 48.7993 101.766 48.8014 101.731 48.8022C101.714 48.8027 101.698 48.8035 101.681 48.8032C101.635 48.8025 101.589 48.8003 101.544 48.7944C101.489 48.7873 101.434 48.777 101.38 48.7622L101.085 48.6821C101.033 48.6681 100.981 48.6558 100.929 48.646C100.772 48.6166 100.612 48.6062 100.452 48.6147L95.7422 48.8657L95.7314 48.8667L95.7197 48.8657C94.5645 48.8085 93.6491 49.0346 92.9365 49.4956C92.7879 49.5921 92.6513 49.7132 92.5186 49.8491H92.5176C92.4899 49.8773 92.4594 49.9009 92.4287 49.9233C92.3867 49.9543 92.3434 49.9817 92.2959 50.0005L92.2119 50.0249L92.2129 50.0259C92.161 50.0374 92.1096 50.0404 92.0596 50.0366C91.9844 50.031 91.9125 50.0098 91.8477 49.9761C91.8043 49.9536 91.7645 49.9253 91.7285 49.8931C91.7106 49.877 91.6934 49.8603 91.6777 49.8423L91.6348 49.8013C91.6119 49.7823 91.5836 49.7632 91.5498 49.7437C91.5431 49.7398 91.5364 49.7358 91.5293 49.7319C91.4937 49.7126 91.4524 49.6931 91.4043 49.6743C91.2638 49.6195 91.081 49.5735 90.8564 49.5376C90.6283 49.5011 90.3631 49.476 90.0645 49.4614C89.7751 49.4476 89.4544 49.4441 89.1055 49.4487C87.6871 49.4677 85.834 49.6325 83.7939 49.8599L83.7754 49.8618L83.7744 49.8608V49.8618L83.7559 49.8608C83.6345 49.854 83.5167 49.8495 83.4023 49.8472C81.6881 49.8124 80.7589 50.28 80.4326 51.1206C80.3403 51.3593 80.0322 51.4119 79.8633 51.2271C79.3837 50.7019 78.7842 50.4556 77.9375 50.3862C77.4413 50.3456 76.8677 50.3668 76.1934 50.4263C75.9923 50.444 75.7821 50.4647 75.5625 50.4888L74.5439 50.6099C74.5172 50.6132 74.4903 50.614 74.4639 50.6118C74.4109 50.6074 74.3597 50.5914 74.3135 50.5649C74.2903 50.5516 74.2682 50.5359 74.248 50.5171C74.228 50.4983 74.2101 50.4778 74.1953 50.4556C74.151 50.3891 74.1309 50.309 74.1357 50.228V50.2271L74.2764 47.8999C74.2827 47.7421 74.293 47.6011 74.3008 47.4731C74.3492 46.6781 74.4051 46.3846 74.2578 45.6655C74.2267 45.5136 74.1755 45.3669 74.1064 45.229C74.0374 45.0917 73.9506 44.9632 73.8477 44.8472C73.6285 44.6005 73.4111 44.3756 73.1963 44.1743C72.8695 43.8684 72.5484 43.6171 72.2324 43.4302C71.9194 43.2451 71.6156 43.1253 71.3203 43.0737C71.2455 43.0607 71.1714 43.0506 71.0977 43.0464C70.9769 43.0395 70.8574 43.0456 70.7393 43.063Z" fill="url(#paint6_linear_3468_1003)"/>
</g>
<defs>
<radialGradient id="paint0_radial_3468_1003" cx="0" cy="0" r="1" gradientUnits="userSpaceOnUse" gradientTransform="translate(70 70) rotate(90) scale(70)">
<stop stop-color="#01153A"/>
<stop offset="1" stop-color="#00021B"/>
</radialGradient>
<linearGradient id="paint1_linear_3468_1003" x1="29.8876" y1="48.0032" x2="29.8876" y2="75.718" gradientUnits="userSpaceOnUse">
<stop stop-color="#83FBCD"/>
<stop offset="1" stop-color="#0E9EBF"/>
</linearGradient>
<linearGradient id="paint2_linear_3468_1003" x1="49.8984" y1="54.1746" x2="49.8984" y2="74.4427" gradientUnits="userSpaceOnUse">
<stop stop-color="#83FBCD"/>
<stop offset="1" stop-color="#0E9EBF"/>
</linearGradient>
<linearGradient id="paint3_linear_3468_1003" x1="65.7531" y1="45.1963" x2="65.7531" y2="72.8424" gradientUnits="userSpaceOnUse">
<stop stop-color="#83FBCD"/>
<stop offset="1" stop-color="#0E9EBF"/>
</linearGradient>
<linearGradient id="paint4_linear_3468_1003" x1="85.6374" y1="50.8311" x2="85.6374" y2="72.1273" gradientUnits="userSpaceOnUse">
<stop stop-color="#83FBCD"/>
<stop offset="1" stop-color="#0E9EBF"/>
</linearGradient>
<linearGradient id="paint5_linear_3468_1003" x1="108.574" y1="49.6047" x2="108.574" y2="70.0164" gradientUnits="userSpaceOnUse">
<stop stop-color="#83FBCD"/>
<stop offset="1" stop-color="#0E9EBF"/>
</linearGradient>
<linearGradient id="paint6_linear_3468_1003" x1="70.214" y1="41.8169" x2="70.214" y2="99.1855" gradientUnits="userSpaceOnUse">
<stop stop-color="#1AD9D4"/>
<stop offset="1" stop-color="#034195"/>
</linearGradient>
<clipPath id="clip0_3468_1003">
<rect width="106.43" height="57" fill="white" transform="translate(17 42)"/>
</clipPath>
</defs>
</svg>
