<svg width="140" height="140" viewBox="0 0 140 140" fill="none" xmlns="http://www.w3.org/2000/svg">
<rect width="140" height="140" rx="30" fill="#EF3413"/>
<g clip-path="url(#clip0_653_17409)">
<path d="M112.977 31.8906C112.846 29.0233 111.624 26.9396 109.171 25.5059C105.015 23.0797 100.463 22.2149 95.7292 22.0669C84.8386 21.7273 74.1222 22.6241 63.8963 26.7364C56.4279 29.7372 48.7475 32.4217 43.3806 39.0937C41.3169 38.0374 39.4331 36.9578 37.4535 36.0929C35.3201 35.1613 33.9413 35.7708 33.0734 37.9242C32.5887 39.1257 32.3739 40.4316 31.8921 41.6331C30.6236 44.7993 29.2623 47.9279 27.9677 51.0854C27.3292 52.638 26.6412 54.1878 26.1855 55.7956C25.3235 58.8457 27.5614 61.4664 30.6004 60.6799C38.7538 58.5729 42.6956 54.684 41.552 46.7438C41.4504 46.0182 41.4504 45.2782 41.3923 44.3408C41.7203 44.5962 41.8538 44.66 41.9235 44.7645C42.057 44.9619 42.1992 45.1708 42.2631 45.3972C43.3545 49.3673 46.0829 52.1389 49.1017 54.6782C55.6906 60.2155 63.3012 63.6894 71.6201 65.7151C76.183 66.8266 80.7546 67.1429 85.364 66.0169C92.6728 64.2292 98.7653 60.4332 103.688 54.7798C105.142 53.1082 106.399 51.2682 107.749 49.5066C107.29 49.2744 107.096 49.2657 106.93 49.3296C101.122 51.6223 95.1429 52.0344 89.0155 51.0506C82.7487 50.0464 77.3905 47.3503 73.054 42.6866C72.7986 42.4109 72.4909 42.0858 72.4358 41.7434C72.3748 41.3719 72.4793 40.8727 72.7115 40.597C72.8247 40.4606 73.4226 40.6319 73.739 40.7886C74.0264 40.9279 74.2151 41.2616 74.4792 41.4677C76.6765 43.1799 78.6764 45.3014 81.1262 46.5087C88.8587 50.325 96.9744 50.6472 105.18 48.1078C107.003 47.5419 108.945 46.8628 109.871 44.9677C111.879 40.8524 113.188 36.566 112.977 31.8906ZM74.0932 34.8247C72.7405 34.8073 71.7449 33.8525 71.7943 32.619C71.8407 31.4466 72.8218 30.5992 74.1309 30.6021C75.4284 30.6021 76.6097 31.6236 76.5923 32.7322C76.5749 33.8757 75.4196 34.8421 74.0932 34.8247ZM101.514 30.367C97.4534 30.367 94.1589 28.9159 94.1589 27.1253C94.1589 25.3347 97.4534 23.8836 101.514 23.8836C105.575 23.8836 108.869 25.3347 108.869 27.1253C108.869 28.9159 105.578 30.367 101.514 30.367Z" fill="white"/>
<path d="M85.0532 67.5985V88.7C82.9952 89.1759 82.8675 89.0715 82.377 87.2663C81.8748 85.4148 81.422 83.5284 80.6905 81.761C79.9475 79.9645 78.6964 79.8572 77.7734 81.5172C76.7749 83.3078 76.0057 85.2464 75.3178 87.1851C74.656 89.0512 74.6415 89.1585 72.6155 88.7522V81.2705C71.9479 81.6884 71.3761 81.9206 70.9668 82.3211C69.0365 84.2104 67.1295 86.1229 65.2573 88.0731C64.5085 88.8538 63.7248 89.1701 62.4854 88.7116C64.1195 85.9226 65.7102 83.2033 67.3617 80.3825C65.7595 79.6279 64.0673 78.9633 63.7161 77.0073C63.5796 76.2556 63.6928 75.4575 63.6928 74.6797L64.0586 74.6333C64.2617 75.0802 64.4446 75.5388 64.671 75.9741C65.8088 78.171 68.4792 78.3364 69.7854 76.244C71.2396 73.9107 72.6387 71.5454 74.0116 69.1628C74.508 68.3037 75.0653 67.9497 76.1102 68.1238C79.0738 68.6143 82.0461 68.7855 85.0503 67.5985H85.0532Z" fill="white"/>
<path d="M80.7376 117.788C80.5866 116.74 80.308 115.757 81.9363 115.484C82.363 115.411 82.9203 114.503 82.9493 113.951C83.0654 111.743 82.9987 109.523 82.9987 107.073H72.1342C73.4346 104.244 74.5898 101.736 75.8699 98.9532C74.5869 98.9532 73.5042 98.9097 72.4303 98.9648C71.455 99.017 71.3447 98.4888 71.3418 97.7053C71.3418 96.9362 71.5392 96.5299 72.3983 96.5734C73.4085 96.6228 74.4273 96.5589 75.4403 96.5908C76.3372 96.6199 77.1673 96.6576 77.5447 95.5548C77.623 95.3226 78.1571 95.1456 78.4938 95.1253C79.4488 95.0672 80.4067 95.1049 81.4545 95.1049C81.3529 95.6564 81.2803 96.0627 81.1846 96.5821C86.177 96.5821 91.0912 96.5821 96.0082 96.5821C96.4436 96.5821 96.879 96.6083 97.3115 96.5821C98.1474 96.5328 98.2403 97.0436 98.2316 97.6966C98.2229 98.3582 98.2548 98.9735 97.2999 98.9561C95.7557 98.93 94.2115 98.9561 92.6644 98.9561C88.8504 98.9561 85.0363 98.988 81.2223 98.9358C80.276 98.9242 79.7158 99.165 79.3501 100.079C78.7609 101.548 78.0526 102.967 77.3241 104.557H82.9813V100.427H86.9172V104.63H97.2012V106.983H86.9346C86.9346 108.971 86.9724 110.742 86.9259 112.512C86.8272 116.276 84.6241 118.162 80.7376 117.785V117.788Z" fill="white"/>
<path d="M56.1409 106.969C56.1409 108.826 56.1525 110.405 56.1409 111.987C56.109 116.157 54.1207 118.009 49.7958 117.823C49.6507 116.79 49.2849 115.794 50.9684 115.53C51.427 115.458 52.0337 114.488 52.0685 113.899C52.1991 111.699 52.1208 109.488 52.1208 107.03C50.7682 107.03 49.4388 107.03 48.1094 107.03C46.3214 107.03 44.5362 107.004 42.7482 107.039C41.9036 107.056 41.5262 106.795 41.5553 105.883C41.6104 104.015 41.5727 102.143 41.5727 100.166H66.5235V106.966H56.1467L56.1409 106.969ZM45.5086 104.601C46.0514 104.627 46.5216 104.67 46.9948 104.67C51.726 104.676 56.4573 104.676 61.1885 104.67C62.9998 104.67 63.0926 104.537 62.6369 102.552H45.5086V104.598V104.601Z" fill="white"/>
<path d="M40.7744 98.8545V96.6373H51.8624C52.0482 96.0975 52.1991 95.6622 52.3674 95.1688H56.0276C56.1118 95.6158 56.1902 96.0192 56.2918 96.559H67.3972V98.8545H40.7744Z" fill="white"/>
<path d="M90.2178 108.202H94.0434C95.3206 111.502 96.5397 114.651 97.7646 117.814C96.6993 118.154 95.7298 117.861 94.859 116.874C92.6618 114.384 91.0305 111.618 90.2207 108.199L90.2178 108.202Z" fill="white"/>
<path d="M66.9874 117.852C66.1689 118.067 65.2458 117.942 64.3576 116.996C62.1429 114.648 60.2359 111.247 59.6699 108.153C60.8803 108.153 62.0588 108.121 63.2314 108.179C63.4752 108.191 63.8294 108.504 63.9164 108.754C64.9585 111.763 65.9628 114.787 66.9903 117.852H66.9874Z" fill="white"/>
<path d="M79.3268 108.211C78.3602 111.937 76.6419 115.011 73.957 117.469C73.4519 117.93 72.436 117.832 71.6465 117.994C72.6972 115.347 73.7567 112.991 74.5636 110.55C75.3531 108.165 75.237 108.127 77.8232 108.147C78.2499 108.15 78.6795 108.185 79.3268 108.214V108.211Z" fill="white"/>
<path d="M41.0791 118C42.3766 114.651 43.5957 111.505 44.8612 108.237H48.7072C47.7522 111.935 46.0397 115.046 43.2938 117.504C42.7974 117.948 41.8193 117.849 41.0791 118Z" fill="white"/>
</g>
<defs>
<clipPath id="clip0_653_17409">
<rect width="87" height="96" fill="white" transform="translate(26 22)"/>
</clipPath>
</defs>
</svg>
