<svg width="140" height="140" viewBox="0 0 140 140" fill="none" xmlns="http://www.w3.org/2000/svg">
<rect width="140" height="140" rx="30" fill="white"/>
<g clip-path="url(#clip0_3527_4084)">
<ellipse cx="74" cy="72.5" rx="32" ry="30.5" fill="#DF1F25"/>
<path d="M70.5595 119C43.2437 119.053 21.0533 96.9509 21 69.6316C21 69.5313 21 69.4311 21 69.3308C21 42.024 43.2374 19.9875 70.7632 20C98.0195 20 120.025 42.2935 120 69.8572C119.966 96.8663 97.7156 119 70.5595 119ZM59.5567 54.0591C56.3048 54.0591 53.1311 54.034 49.9575 54.0591C47.7457 54.081 46.4925 55.538 46.6961 57.7438C46.8058 58.9439 46.906 60.1377 47.0094 61.3377C47.8678 71.1325 48.7263 80.9272 49.5878 90.7219C49.7507 92.5737 50.9318 93.6985 52.8116 93.7048C64.5819 93.7236 76.3523 93.7236 88.1195 93.7048C90.0274 93.7048 91.2117 92.486 91.3715 90.5809C91.4905 89.1271 91.597 87.6701 91.7223 86.2162C92.5463 76.8508 93.3953 67.4916 94.1942 58.1198C94.4386 55.2842 93.2575 54.0622 90.4097 54.0591H82.2014C80.9138 46.6519 76.7314 42.7729 70.3026 42.9358C65.9322 43.0455 60.0674 46.3919 59.5536 54.0591H59.5567Z" fill="#DF1F25"/>
<path d="M59.5566 54.059C60.0736 46.3918 65.9353 43.0486 70.3057 42.9358C76.7344 42.7697 80.9262 46.6488 82.2045 54.059H90.4064C93.2417 54.059 94.4353 55.2716 94.191 58.1198C93.3921 67.4853 92.5431 76.8476 91.7191 86.2162C91.5938 87.67 91.4873 89.127 91.3682 90.5809C91.2147 92.4859 90.0242 93.7016 88.1163 93.7048C76.3459 93.7267 64.5756 93.7267 52.8084 93.7048C50.9286 93.7048 49.7475 92.5736 49.5846 90.7219C48.7262 80.9271 47.8678 71.1324 47.0062 61.3377C46.9028 60.1376 46.8026 58.9439 46.6929 57.7438C46.4893 55.5411 47.7424 54.0841 49.9543 54.059C53.1342 54.0434 56.3109 54.059 59.5598 54.059H59.5566ZM79.2188 81.3658C82.947 81.3783 85.4314 79.0221 85.4251 75.4752C85.4251 71.9815 82.9532 69.5971 79.3378 69.5846C75.6535 69.5846 73.1096 72.0003 73.1284 75.5003C73.1472 79.0002 75.5564 81.3376 79.2188 81.3658ZM56.69 76.2616C55.8065 76.6627 55.2426 77.5306 55.4588 78.4644C55.6468 79.2822 56.2326 80.4039 56.9125 80.6263C58.3975 81.1277 59.9671 81.3376 61.5335 81.2373C64.1276 81.0305 65.6439 79.5736 65.8726 76.9635C66.1295 73.9869 66.0731 70.9726 66.0104 67.9803C66.0104 67.4633 65.3713 66.6017 64.8857 66.4857C62.9371 66.0126 61.4333 66.2727 61.4928 68.842C61.5429 71.0259 61.5272 73.2223 61.4928 75.4C61.4583 77.139 60.4245 77.9098 58.7703 77.3834C58.0497 77.1452 57.4263 76.6596 56.6869 76.246V76.2585L56.69 76.2616ZM77.0352 54.0026C76.8378 50.2615 74.0213 47.5073 70.6659 47.6451C67.273 47.7955 64.61 50.6093 64.6414 54.0026H77.032H77.0352ZM67.649 75.4125C67.649 76.7003 67.6114 77.9912 67.649 79.279C67.6865 80.5668 68.263 81.0838 69.5882 81.1402C71.1359 81.1935 71.8815 80.7579 71.9285 79.4263C72.0194 76.7724 72.0194 74.1185 71.9285 71.4646C71.8846 70.1047 71.2111 69.6974 69.6102 69.7412C68.2818 69.7757 67.6959 70.2802 67.6427 71.5711C67.5894 72.862 67.649 74.1247 67.649 75.4125ZM69.8765 68.5349C71.3082 68.5192 72.1134 67.7735 72.1008 66.4732C72.0883 65.1729 71.2424 64.4679 69.8107 64.4585C68.4353 64.4585 67.4923 65.2606 67.4798 66.4732C67.4578 67.7453 68.3977 68.5506 69.8765 68.5349Z" fill="#FEFEFE"/>
<path d="M81.6784 75.4629C81.6784 76.9512 80.6477 78.0259 79.2316 78.0071C77.8155 77.9883 76.8569 76.923 76.8788 75.3877C76.9007 73.9558 77.8938 72.9093 79.2473 72.8967C80.6414 72.8779 81.6784 73.9746 81.6784 75.4629Z" fill="#FEFEFE"/>
</g>
<defs>
<clipPath id="clip0_3527_4084">
<rect width="99" height="99" fill="white" transform="translate(21 20)"/>
</clipPath>
</defs>
</svg>
