<svg width="140" height="140" viewBox="0 0 140 140" fill="none" xmlns="http://www.w3.org/2000/svg">
<rect width="140" height="140" rx="30" fill="#F60100"/>
<g clip-path="url(#clip0_820_1045)">
<path d="M53.5483 72.6323C53.7262 72.5629 53.7907 72.4007 53.8613 72.2469C54.1306 71.6594 54.2848 71.0348 54.4307 70.4087C54.549 69.9009 54.6519 69.3893 54.7693 68.8432C55.5456 69.035 56.2982 69.282 57.0577 69.5025C57.8202 69.7239 58.5812 69.952 59.362 70.1827C59.2307 71.4036 58.9052 72.5466 58.4829 73.6662C58.0599 74.7874 57.5082 75.8419 56.8637 76.864C57.533 77.7037 58.195 78.5325 58.8553 79.3625C59.5075 80.1826 60.1582 81.0036 60.8424 81.8653C60.7244 81.875 60.6598 81.8846 60.5952 81.8846C58.7432 81.8855 56.8915 81.8837 55.0395 81.8882C54.8775 81.8886 54.7618 81.8438 54.6533 81.7179C54.3464 81.3612 54.0271 81.0156 53.7118 80.6665C53.5271 80.462 53.5241 80.4581 53.2874 80.5674C51.6497 81.3219 49.9238 81.7424 48.1406 81.923C46.0823 82.1314 44.0662 81.9257 42.1159 81.2014C41.3474 80.916 40.6264 80.5357 39.9396 80.0814C39.3782 79.7102 39.0031 79.1849 38.6728 78.621C37.6006 76.7903 37.6147 74.9182 38.503 73.0259C38.9723 72.0264 39.6212 71.1508 40.3631 70.3431C41.2129 69.4183 42.158 68.6042 43.1859 67.8875C43.2332 67.8546 43.2759 67.8144 43.3453 67.7576C43.2373 67.6247 43.1372 67.5039 43.0395 67.3807C42.0585 66.1435 41.3674 64.7664 41.0817 63.1985C40.914 62.2791 40.9065 61.3636 41.1385 60.4472C41.313 59.7561 41.4436 59.0538 41.5943 58.3567C41.6152 58.2592 41.6385 58.1619 41.6594 58.0704C41.8839 58.0048 56.126 57.9834 56.5263 58.0447C56.4892 58.2522 53.3424 64.1711 53.114 64.4439C53.123 64.2847 53.1301 64.1587 53.1367 64.0328C53.1508 63.7718 53.1669 63.5108 53.178 63.2499C53.2082 62.5437 52.8773 62.0393 52.3025 61.6795C51.8266 61.3817 51.2949 61.2585 50.7458 61.1978C49.1846 61.0253 47.7496 61.923 47.2382 63.4248C46.8882 64.4526 47.0098 65.4415 47.5658 66.3791C48.1573 67.377 48.877 68.2732 49.6656 69.115C50.7963 70.322 52.0176 71.4299 53.2987 72.4717C53.3528 72.5157 53.4081 72.5589 53.4658 72.5985C53.4894 72.6148 53.5202 72.6209 53.5486 72.632L53.5483 72.6323ZM50.7685 76.726C49.3469 74.9823 47.931 73.2455 46.4882 71.4758C45.9831 71.8588 45.4812 72.2182 45.0036 72.6082C44.6162 72.9244 44.271 73.2881 43.9912 73.71C43.3276 74.711 43.3817 75.7301 44.155 76.6502C44.9626 77.6107 46.0079 78.0021 47.2346 77.9378C48.4759 77.8725 49.6004 77.4331 50.6672 76.8184C50.7001 76.7994 50.7249 76.7664 50.7682 76.726H50.7685Z" fill="white"/>
<path d="M87.1413 58.0674C86.6894 58.5337 86.236 58.9986 85.7867 59.4676C85.6806 59.5785 85.5512 59.5577 85.4244 59.558C84.3194 59.5592 83.214 59.5589 82.109 59.5589C81.1334 59.5589 80.1575 59.5634 79.1818 59.5552C78.9971 59.5537 78.8614 59.6036 78.7371 59.7425C78.5338 59.9696 78.3147 60.1823 78.1025 60.401L78.1321 60.4547H84.7662C84.7047 60.5478 84.6772 60.6061 84.6347 60.6502C84.3289 60.967 84.013 61.2742 83.7162 61.5992C83.5951 61.7318 83.4583 61.7282 83.3094 61.7282C81.7961 61.7282 80.2827 61.7282 78.7694 61.7282C78.162 61.7282 77.5546 61.7321 76.9475 61.7254C76.7969 61.7236 76.6827 61.762 76.579 61.8756C76.3638 62.1112 76.1378 62.3362 75.9235 62.5579C75.9352 62.5902 75.937 62.6008 75.9423 62.6086C75.9471 62.6159 75.9552 62.6243 75.963 62.6255C75.992 62.631 76.0215 62.6367 76.0511 62.6367C78.2215 62.6385 80.3918 62.6397 82.5624 62.6412C82.572 62.6412 82.5822 62.6443 82.5911 62.6485C82.5992 62.6521 82.6055 62.6591 82.6333 62.6805C82.5926 62.731 82.5562 62.7853 82.5116 62.8312C82.0295 63.3254 81.5396 63.8123 81.0661 64.3146C80.9152 64.4747 80.7583 64.5336 80.5427 64.533C78.2827 64.5266 76.0227 64.5293 73.7627 64.5293C73.6441 64.5293 73.5254 64.5293 73.3661 64.5293C71.9669 70.3147 70.5704 76.0893 69.171 81.8768H62.6603C62.6988 81.6807 62.7269 81.5046 62.7682 81.3319C63.4772 78.3619 64.1832 75.3909 64.8994 72.4227C65.5097 69.8934 66.1329 67.3674 66.7496 64.8398C66.7702 64.755 66.7822 64.6677 66.8046 64.5481C66.1075 64.5103 65.4344 64.5348 64.7622 64.5302C64.0852 64.5257 63.4081 64.5293 62.7311 64.5293H56.6431C56.6825 64.4242 56.6999 64.3578 56.7306 64.2992C57.7998 62.2776 58.8741 60.2587 59.9352 58.2329C60.0428 58.0272 60.1842 58.0145 60.3713 58.0145C62.8504 58.0151 65.3295 58.0115 67.8086 58.01C74.1603 58.0063 80.5123 58.0033 86.8642 58C86.95 58 87.0361 58 87.1219 58C87.1285 58.0224 87.1351 58.045 87.1416 58.0674H87.1413Z" fill="white"/>
<path d="M32.9449 81.8816H15C15.0368 81.7925 15.0613 81.7194 15.0956 81.6514C15.8038 80.2563 16.513 78.8614 17.2223 77.4669C17.254 77.4044 17.2911 77.344 17.3186 77.2796C17.3685 77.1636 17.4498 77.1114 17.5768 77.1235C17.6558 77.131 17.7362 77.1247 17.8157 77.1247C20.8722 77.1247 23.9288 77.1247 26.9854 77.1247H27.3306C28.7367 70.7452 30.1361 64.3925 31.5368 58.0359H38.2245C36.4627 65.9934 34.707 73.9227 32.9446 81.8816H32.9449Z" fill="white"/>
<path d="M103.42 77.5059C103.424 77.5149 103.425 77.5285 103.432 77.5327C104.024 77.9145 104.167 78.5268 104.244 79.1665C104.332 79.8944 104.402 80.6245 104.485 81.353C104.504 81.5219 104.542 81.6883 104.574 81.8771H102.601C102.557 81.5681 102.505 81.2639 102.47 80.9579C102.406 80.3992 102.361 79.838 102.288 79.2807C102.262 79.0856 102.189 78.892 102.109 78.7098C101.989 78.4322 101.758 78.2567 101.468 78.2247C101.156 78.1903 100.838 78.2169 100.501 78.2169C100.278 79.432 100.057 80.6441 99.8317 81.8713H97.9238C97.9705 81.6101 98.0132 81.3654 98.0583 81.1211C98.5327 78.5534 99.0073 75.986 99.4823 73.4183C99.5152 73.2407 99.5597 73.0646 99.5842 72.8858C99.6016 72.7583 99.6518 72.6912 99.783 72.6677C100.996 72.4496 102.212 72.3533 103.431 72.5994C103.984 72.7112 104.5 72.932 104.897 73.3548C105.517 74.0148 105.581 74.8047 105.344 75.6338C105.099 76.4907 104.484 77.0087 103.702 77.3527C103.62 77.3887 103.537 77.4219 103.457 77.4596C103.441 77.4669 103.432 77.4899 103.42 77.5056L103.42 77.5059ZM100.78 76.703C101.124 76.703 101.423 76.7245 101.717 76.6964C101.971 76.6722 102.231 76.6218 102.468 76.5299C103.073 76.2965 103.429 75.7591 103.436 75.1408C103.441 74.6754 103.227 74.3537 102.811 74.1737C102.366 73.981 101.899 74.0091 101.431 74.0686C101.318 74.0831 101.259 74.1426 101.24 74.2607C101.201 74.4981 101.15 74.7337 101.105 74.9702C101 75.5308 100.895 76.0914 100.78 76.7024L100.78 76.703Z" fill="white"/>
<path d="M81.4379 80.2031C81.3309 80.78 81.2307 81.321 81.1279 81.8744H75.5552C76.1303 78.7563 76.7015 75.6613 77.2751 72.5517H82.661C82.5588 73.106 82.4592 73.6439 82.3549 74.2093H78.9241C78.7621 74.8799 78.6542 75.5362 78.5281 76.2388C79.6152 76.25 80.6649 76.237 81.7598 76.2469C81.6591 76.8081 81.564 77.3361 81.463 77.8985C80.3854 77.9254 79.3154 77.8919 78.216 77.9176C78.0746 78.6775 77.9365 79.4208 77.7913 80.2028H81.4379V80.2031Z" fill="white"/>
<path d="M112.596 74.2229H109.161C109.033 74.8971 108.911 75.5444 108.78 76.2318C109.869 76.2653 110.928 76.2206 112.022 76.2578C111.914 76.8241 111.813 77.3521 111.707 77.9085C111.58 77.9085 111.473 77.9085 111.365 77.9085C110.499 77.9085 109.633 77.9079 108.767 77.9085C108.471 77.9085 108.469 77.91 108.412 78.2129C108.305 78.7856 108.199 79.3583 108.094 79.9316C108.08 80.0083 108.079 80.0874 108.069 80.198H111.667C111.602 80.7773 111.483 81.3107 111.385 81.8677H105.81C106.385 78.7524 106.956 75.6531 107.528 72.5532H112.91C112.804 73.1162 112.703 73.6557 112.596 74.2226V74.2229Z" fill="white"/>
<path d="M83.5798 72.5499H85.6174C85.9418 73.6544 86.2652 74.756 86.5979 75.8899C87.2566 74.7521 87.8975 73.646 88.5285 72.5565H90.8378C90.6617 72.8066 90.5105 73.0265 90.3542 73.2428C89.4679 74.4688 88.5838 75.6966 87.6894 76.9165C87.5666 77.0842 87.5561 77.2195 87.6276 77.4107C88.1396 78.7835 88.6394 80.1611 89.1424 81.5373C89.1798 81.6393 89.2121 81.7435 89.247 81.8472C89.0208 81.9121 87.8129 81.9263 87.2133 81.8713C86.8495 80.7459 86.4807 79.6054 86.0948 78.4117C86.0213 78.5228 85.9716 78.5902 85.9301 78.6624C85.3544 79.6615 84.7763 80.6589 84.2087 81.6629C84.1125 81.8333 84.0046 81.8991 83.8085 81.8946C83.2214 81.881 82.6338 81.8903 82.0465 81.8891C81.9711 81.8891 81.8955 81.8801 81.7676 81.8719C81.8839 81.7073 81.9732 81.5795 82.0641 81.4521C83.0349 80.0892 84.0022 78.724 84.9811 77.3669C85.1144 77.182 85.1296 77.0331 85.0531 76.8187C84.5809 75.4951 84.1253 74.1652 83.665 72.8374C83.636 72.7537 83.6145 72.6671 83.5798 72.5496V72.5499Z" fill="white"/>
<path d="M91.9557 72.7094C92.7038 72.5375 93.4239 72.4641 94.1526 72.4608C94.6616 72.4587 95.1683 72.4786 95.6647 72.6039C96.4951 72.8133 97.1787 73.2274 97.5371 74.0517C97.8363 74.74 97.7917 75.4489 97.5676 76.1454C97.2678 77.076 96.655 77.7384 95.775 78.138C94.8801 78.5446 93.9332 78.6183 92.9677 78.5373C92.9193 78.5334 92.8712 78.5274 92.7845 78.5183C92.5771 79.6356 92.3708 80.7465 92.1619 81.8713H90.2788C90.839 78.8107 91.3955 75.7691 91.9554 72.7097L91.9557 72.7094ZM93.0771 76.8927C93.4833 76.9854 93.8591 76.9924 94.2306 76.9353C95.2149 76.784 95.8671 76.0153 95.7846 75.0937C95.7428 74.6246 95.5144 74.3075 95.0747 74.1504C94.6401 73.9955 94.1965 74.0196 93.75 74.0843C93.6337 74.1012 93.5748 74.1565 93.5569 74.2731C93.5291 74.4513 93.4932 74.6283 93.4606 74.8056C93.3357 75.4849 93.211 76.1642 93.0771 76.8924V76.8927Z" fill="white"/>
<path d="M119.163 81.2863C119.381 80.7272 119.585 80.2071 119.797 79.6652C119.885 79.7039 119.955 79.731 120.022 79.7646C120.648 80.0778 121.307 80.2442 122.008 80.2279C122.321 80.2207 122.621 80.1633 122.895 79.9999C123.479 79.6504 123.587 78.9137 123.095 78.441C122.868 78.2229 122.581 78.0668 122.318 77.8895C121.945 77.6397 121.542 77.4301 121.2 77.144C120.051 76.1832 119.97 74.534 120.991 73.4288C121.513 72.8637 122.164 72.5405 122.905 72.3946C123.79 72.2204 124.667 72.2632 125.527 72.5481C125.64 72.5855 125.748 72.6387 125.857 72.6882C125.9 72.7082 125.94 72.7384 126 72.7755C125.803 73.3156 125.608 73.8487 125.411 74.3863C125.154 74.2948 124.925 74.2009 124.69 74.1323C124.245 74.0033 123.791 73.9617 123.331 74.0329C123.071 74.0734 122.831 74.1652 122.63 74.3431C122.262 74.6693 122.218 75.1475 122.537 75.5208C122.658 75.6634 122.807 75.789 122.962 75.8951C123.2 76.0582 123.457 76.1935 123.702 76.3478C123.946 76.5019 124.196 76.6499 124.425 76.8257C125.318 77.5125 125.624 78.4199 125.375 79.5187C125.123 80.6333 124.399 81.3207 123.362 81.6702C122.16 82.0746 120.951 82.0115 119.761 81.5868C119.56 81.5149 119.376 81.3953 119.163 81.2872L119.163 81.2863Z" fill="white"/>
<path d="M119.391 72.7553C119.185 73.3207 118.99 73.8532 118.789 74.4044C118.308 74.1725 117.834 74.0338 117.333 74.0048C116.971 73.984 116.617 74.0097 116.282 74.1646C116.086 74.2552 115.925 74.3878 115.821 74.5781C115.663 74.8657 115.65 75.1641 115.853 75.4281C115.986 75.5993 116.15 75.7558 116.328 75.8781C116.631 76.0871 116.965 76.2508 117.269 76.4589C117.581 76.6725 117.901 76.8869 118.166 77.1527C119.024 78.0121 118.974 79.223 118.54 80.1493C118.162 80.9555 117.498 81.4352 116.68 81.691C115.48 82.0658 114.284 82.0048 113.107 81.572C112.916 81.5016 112.741 81.3853 112.545 81.2832C112.763 80.7232 112.967 80.2025 113.18 79.6567C113.289 79.7075 113.377 79.7461 113.463 79.789C114.081 80.098 114.734 80.2448 115.424 80.2258C115.738 80.217 116.036 80.1527 116.305 79.9817C116.863 79.6286 116.969 78.9282 116.5 78.4633C116.27 78.235 115.975 78.0716 115.702 77.8894C115.363 77.6626 115.003 77.4648 114.675 77.2225C113.113 76.0696 113.588 74.0734 114.585 73.2141C115.224 72.6625 115.97 72.3922 116.79 72.3179C117.529 72.2508 118.261 72.3049 118.966 72.5686C119.095 72.6169 119.219 72.6791 119.392 72.755L119.391 72.7553Z" fill="white"/>
</g>
<defs>
<clipPath id="clip0_820_1045">
<rect width="111" height="24" fill="white" transform="translate(15 58)"/>
</clipPath>
</defs>
</svg>
