<svg width="140" height="140" viewBox="0 0 140 140" fill="none" xmlns="http://www.w3.org/2000/svg">
<rect width="140" height="140" rx="30" fill="#FCF7EF"/>
<path d="M118.771 70.646V98.2255C118.771 99.3834 118.44 99.7123 117.284 99.3834C115.63 98.8879 113.979 98.2255 112.328 97.8967C107.208 96.5743 102.087 96.0787 96.9693 96.0787C89.3733 96.2431 81.9417 97.5655 74.6746 98.8879L56.8378 102.355C51.0598 103.346 45.4439 103.841 39.6635 103.677C34.0399 103.52 28.472 102.518 23.1468 100.703C21.9912 100.375 21 99.2167 21 97.7299V43.2333C21 41.7488 21.9912 41.2532 23.1468 41.7488C28.4316 43.7289 33.8808 44.5556 39.4967 44.7201C43.6259 44.8845 47.9195 44.5556 52.0487 44.06C59.647 43.0689 67.243 41.4177 74.839 39.9309C81.4461 38.6109 87.8865 37.6197 94.6581 37.1241C102.254 36.6285 109.521 37.6173 116.788 40.0953C118.108 40.5909 119.1 41.7488 118.935 43.2333C118.771 52.3184 118.771 61.3988 118.771 70.646Z" fill="url(#paint0_linear_2121_704)"/>
<path opacity="0.6" d="M82.7663 47.8369C82.7663 50.1505 82.9307 52.464 82.9307 54.7729C80.7862 55.1041 78.6371 55.4353 76.6571 55.7641L64.7651 57.7465C64.4363 57.7465 64.2719 57.9109 64.2719 58.2421C64.2719 61.0489 64.1051 63.8557 64.1051 66.5004C64.1051 66.5004 64.1051 66.6648 64.2695 66.8292C64.434 66.6648 64.434 66.5004 64.5984 66.336C66.9119 64.0224 69.7187 62.8668 72.8591 62.3712C75.3347 62.0424 77.6483 62.3712 79.9595 63.5268C83.0974 65.178 84.9154 67.9848 85.5731 71.454C87.0599 79.5456 82.933 86.6483 75.0035 89.6195C71.3723 90.9419 67.7387 91.4375 64.1051 90.4463C59.3136 89.2907 56.0136 85.326 55.6824 80.37C55.6824 80.0412 55.6824 79.8768 56.0112 79.8768C58.6559 79.3812 61.1316 79.05 63.774 78.5544C63.774 78.8856 63.9384 79.05 63.9384 79.3812C64.9296 82.8503 67.9031 84.6659 71.5367 83.8392C75.5015 83.0147 78.1438 79.2168 77.6483 75.252C77.4838 74.0964 77.3171 72.9408 76.6571 71.9496C75.3347 70.134 73.6835 69.3072 71.3723 69.4716C69.8481 69.6406 68.381 70.1486 67.0787 70.9584C65.7563 71.7852 64.7651 72.9408 64.2695 74.4276C64.1051 74.592 63.9407 74.9208 63.7763 74.9208C61.2983 75.4188 58.8204 75.7476 56.178 76.2432L56.6712 52.4617C57.8292 52.2973 58.9848 52.1329 59.976 51.9684C64.2695 51.3061 68.5631 50.4793 72.8591 49.8193C75.8303 49.3261 78.9683 48.8281 81.9418 48.3325C82.1063 48.3325 82.2707 48.1681 82.2707 48.1681C82.5995 47.8393 82.5995 47.8393 82.7663 47.8393V47.8369Z" fill="#141F00"/>
<path d="M82.7663 47.6725C82.7663 49.9837 82.9307 52.2973 82.9307 54.6085C80.7862 54.9373 78.6371 55.2685 76.6571 55.5997L64.7651 57.582C64.4363 57.582 64.2719 57.7464 64.2719 58.0753C64.2719 60.8844 64.1051 63.6912 64.1051 66.3336C64.1051 66.3336 64.1051 66.498 64.2695 66.6624C64.434 66.498 64.434 66.3336 64.5984 66.1692C66.9119 63.858 69.7187 62.7 72.8591 62.2044C75.3347 61.8756 77.6483 62.2044 79.9595 63.3624C83.0974 65.0136 84.9154 67.8204 85.5731 71.2896C87.0599 79.3811 82.933 86.4815 75.0035 89.4551C71.3723 90.7775 67.7387 91.2707 64.1051 90.2819C59.3136 89.1239 56.0136 85.1615 55.6824 80.2056C55.6824 79.8767 55.6824 79.7123 56.0112 79.7123C58.6559 79.2167 61.1316 78.8855 63.774 78.39C63.774 78.7188 63.9384 78.8856 63.9384 79.2167C64.9296 82.6835 67.9031 84.5015 71.5367 83.6747C75.5015 82.8503 78.1438 79.05 77.6483 75.0876C77.4838 73.932 77.3171 72.774 76.6571 71.7852C75.3347 69.9672 73.6835 69.1428 71.3723 69.3072C69.848 69.476 68.381 69.9841 67.0787 70.794C65.7563 71.6184 64.7651 72.774 64.2695 74.2608C64.1051 74.4252 63.9407 74.7564 63.7763 74.7564C61.2983 75.252 58.8204 75.5832 56.178 76.0787L56.6712 52.2973C57.8292 52.1328 58.9848 51.9684 59.976 51.8017C64.2695 51.1416 68.5631 50.3149 72.8591 49.6549C75.8303 49.1593 78.9683 48.6637 81.9418 48.1681C82.1063 48.1681 82.2707 48.0037 82.2707 48.0037C82.5995 47.6725 82.5995 47.6725 82.7663 47.6725Z" fill="url(#paint1_linear_2121_704)"/>
<path opacity="0.7" d="M114.475 94.2631C114.218 94.2455 113.976 94.1355 113.794 93.9532C113.611 93.771 113.501 93.529 113.484 93.2719V44.5533C113.484 44.0577 113.979 43.5621 114.475 43.5621C114.97 43.5621 115.466 44.0553 115.466 44.5533V93.2719C115.466 93.9319 114.973 94.2631 114.475 94.2631ZM25.4604 97.0699C25.2033 97.0523 24.9613 96.9423 24.7791 96.76C24.5969 96.5778 24.4868 96.3358 24.4692 96.0787V47.3601C24.4692 46.8668 24.9625 46.3689 25.4604 46.3689C25.9537 46.3689 26.4516 46.8645 26.4516 47.3601V96.081C26.4516 96.7434 25.956 97.0722 25.4604 97.0722V97.0699Z" fill="#141F00"/>
<path d="M114.475 94.0986C114.218 94.0811 113.976 93.971 113.793 93.7888C113.611 93.6066 113.501 93.3646 113.484 93.1075V44.3889C113.484 43.8933 113.979 43.3977 114.475 43.3977C114.97 43.3977 115.466 43.8909 115.466 44.3889V93.1075C115.466 93.6007 114.973 94.0986 114.475 94.0986Z" fill="#608038"/>
<path d="M25.4604 96.9031C25.2041 96.8857 24.9627 96.7763 24.7805 96.595C24.5984 96.4138 24.4879 96.1729 24.4692 95.9166V47.1933C24.4692 46.6977 24.9625 46.2021 25.4604 46.2021C25.9537 46.2021 26.4516 46.6954 26.4516 47.1933V95.9119C26.4516 96.4075 25.956 96.9031 25.4604 96.9031Z" fill="url(#paint2_linear_2121_704)"/>
<path d="M113.486 43.5621H101.926V93.6031H113.484L113.486 43.5621Z" fill="url(#paint3_radial_2121_704)"/>
<path opacity="0.33" d="M37.6813 103.51V46.2045H24.467V101.035C28.7647 102.351 33.1963 103.181 37.679 103.51H37.6813Z" fill="url(#paint4_linear_2121_704)"/>
<defs>
<linearGradient id="paint0_linear_2121_704" x1="42.0569" y1="47.7664" x2="95.3721" y2="90.9983" gradientUnits="userSpaceOnUse">
<stop offset="0.084" stop-color="#B0D365"/>
<stop offset="0.202" stop-color="#9FC854"/>
<stop offset="0.346" stop-color="#92C049"/>
<stop offset="0.54" stop-color="#8BBB42"/>
<stop offset="1" stop-color="#89BA40"/>
</linearGradient>
<linearGradient id="paint1_linear_2121_704" x1="53.6107" y1="48.161" x2="87.5672" y2="86.1997" gradientUnits="userSpaceOnUse">
<stop offset="0.235" stop-color="#3D5527"/>
<stop offset="0.291" stop-color="#374D23"/>
<stop offset="0.419" stop-color="#2F401D"/>
<stop offset="0.592" stop-color="#2A391A"/>
<stop offset="1" stop-color="#293719"/>
</linearGradient>
<linearGradient id="paint2_linear_2121_704" x1="25.5332" y1="51.2614" x2="25.3172" y2="91.1908" gradientUnits="userSpaceOnUse">
<stop offset="0.335" stop-color="#67873A"/>
<stop offset="0.364" stop-color="#638339"/>
<stop offset="0.478" stop-color="#577635"/>
<stop offset="0.633" stop-color="#516F33"/>
<stop offset="1" stop-color="#4F6D32"/>
</linearGradient>
<radialGradient id="paint3_radial_2121_704" cx="0" cy="0" r="1" gradientUnits="userSpaceOnUse" gradientTransform="translate(107.68 68.5908) scale(12.4902 18.7007)">
<stop stop-color="#7FA739"/>
<stop offset="1" stop-color="#8DBB3F"/>
</radialGradient>
<linearGradient id="paint4_linear_2121_704" x1="24.4201" y1="74.801" x2="37.6508" y2="74.801" gradientUnits="userSpaceOnUse">
<stop stop-color="#8DBC42" stop-opacity="0"/>
<stop offset="0.793" stop-color="#AFD364"/>
</linearGradient>
</defs>
</svg>
