<svg width="140" height="140" viewBox="0 0 140 140" fill="none" xmlns="http://www.w3.org/2000/svg">
<rect width="140" height="140" rx="30" fill="white"/>
<g clip-path="url(#clip0_750_3299)">
<path d="M59.6895 93.8744C59.6915 100.145 59.6944 106.416 59.6915 112.688C59.6915 113.568 59.2664 113.984 58.3704 113.986C55.3685 113.992 52.3656 114.001 49.3637 113.981C48.4024 113.974 48.0261 113.58 48.0027 112.614C47.9988 112.453 48.0027 112.292 48.0027 112.131C48.0027 83.6939 48.0027 55.2559 48.0027 26.8189C48.0027 26.5768 48.0027 26.3356 48.0095 26.0935C48.0242 25.4592 48.3527 25.095 48.9884 25.0156C49.1483 24.9953 49.3121 25.0001 49.4749 25.0001C52.3959 25.0001 55.3178 24.9982 58.2388 25.0001C59.2235 25.0001 59.6837 25.4563 59.6846 26.448C59.6895 43.8261 59.6924 61.2042 59.6973 78.5834C59.6973 78.809 59.7051 79.0347 59.709 79.2603C59.7597 79.3988 59.8153 79.3852 59.8748 79.2661C61.2348 77.9064 62.5949 76.5457 63.9559 75.1869C65.5705 73.5764 67.2055 71.9862 68.7878 70.3456C69.2012 69.9175 69.637 69.5175 70.0562 69.0982C72.4566 66.6983 74.8735 64.313 77.229 61.8705C78.204 60.8595 79.1916 59.8619 80.1821 58.8664C81.2283 57.8156 82.2773 56.7687 83.3205 55.715C83.6891 55.3421 84.3335 55.3121 84.8736 55.3092C88.7842 55.2918 92.6957 55.2947 96.6063 55.3044C97.4067 55.3063 97.822 55.6394 97.9371 56.3038C97.9946 56.637 97.9156 56.9382 97.6592 57.1861C95.7317 59.0523 93.8091 60.9253 91.8787 62.7886C89.9844 64.6171 88.0803 66.4378 86.182 68.2624C84.0274 70.334 81.8737 72.4074 79.719 74.48C77.7506 76.3723 75.7812 78.2647 73.8127 80.1571C73.2814 80.6675 73.2746 80.6733 73.7348 81.2418C77.1491 85.4575 80.5702 89.6684 83.9825 93.8861C87.0975 97.7367 90.1988 101.598 93.3138 105.45C94.9888 107.52 96.6599 109.596 98.3758 111.633C98.8321 112.176 98.912 112.791 98.9949 113.413C99.0417 113.759 98.6858 113.912 98.3719 113.974C98.1837 114.011 97.9839 113.995 97.7899 113.995C94.0246 113.995 90.2603 113.99 86.495 114C85.5922 114.002 84.9526 113.617 84.3793 112.929C81.3716 109.32 78.5315 105.58 75.6047 101.909C72.3942 97.881 69.208 93.8347 66.0102 89.7972C65.7206 89.4311 65.4661 88.8442 65.1122 88.7735C64.7466 88.7009 64.4073 89.2888 64.072 89.5996C62.9098 90.6756 61.7769 91.7826 60.6274 92.8731C60.3583 93.1278 60.0688 93.3602 59.789 93.6033C59.5599 93.6236 59.5335 93.7156 59.6895 93.8744Z" fill="#49BAEB"/>
</g>
<defs>
<clipPath id="clip0_750_3299">
<rect width="51" height="89" fill="white" transform="translate(48 25)"/>
</clipPath>
</defs>
</svg>
