<svg width="140" height="140" viewBox="0 0 140 140" fill="none" xmlns="http://www.w3.org/2000/svg">
<rect width="140" height="140" rx="30" fill="#FFE600"/>
<g clip-path="url(#clip0_859_8145)">
<path d="M122.091 56.2583C120.019 46.9876 114.669 39.7907 107.33 34.0737C96.4968 25.6431 84.0108 22.2052 71.1469 22C64.5869 22.0724 58.7471 22.7726 53.046 24.4215C42.5793 27.4441 33.3398 32.5793 26.4545 41.2658C17.4663 52.6055 15.3897 65.1114 21.452 78.5226C25.2894 87.0111 31.8087 93.0829 39.7299 97.6725C40.7539 98.2664 40.9907 98.7806 40.6199 99.9249C38.5002 106.499 34.7753 112.03 30.0383 116.931C29.5694 117.416 28.6459 117.918 29.2584 118.674C29.567 119.053 30.5048 118.918 31.1627 118.998C31.2704 119.01 31.3924 118.937 31.5049 118.901C41.6103 115.77 51.1991 111.506 60.0964 105.697C60.6706 105.323 61.5079 105.089 62.1754 105.171C70.1684 106.154 78.0873 105.792 85.9056 103.851C96.803 101.144 106.42 96.1008 113.842 87.4167C121.536 78.4139 124.725 68.0447 122.091 56.2583ZM43.2946 76.1445C43.2802 78.636 41.5147 79.9615 39.3735 79.1937C38.1533 78.7568 37.5696 77.7597 37.5624 75.9828C37.5481 72.1224 37.5576 68.262 37.5576 64.3992C37.5576 62.5088 37.5361 60.6184 37.5648 58.7305C37.5768 58.0086 37.3256 57.7213 36.5983 57.7407C35.2059 57.7769 33.8087 57.7696 32.4164 57.7407C30.8326 57.7044 29.8804 56.7242 29.8661 55.1719C29.8541 53.6702 30.8493 52.4993 32.3542 52.4872C37.7299 52.4462 43.1056 52.4486 48.4837 52.4848C50.0388 52.4945 51.0795 53.6992 51.034 55.2371C50.9886 56.7677 50.0196 57.7165 48.4167 57.7407C46.7875 57.7648 45.1607 57.7455 43.3113 57.7455V59.4934C43.309 65.0438 43.3305 70.5942 43.2946 76.1445ZM67.9363 79.3893C66.6731 79.3965 65.7257 78.7785 65.264 77.5569C64.9362 76.695 64.6587 75.8114 64.4171 74.9229C64.2448 74.2904 63.9362 73.9958 63.2496 74.0031C60.3835 74.0296 57.5174 74.0272 54.6513 74.0055C53.9838 73.9983 53.6417 74.2566 53.4623 74.906C53.2207 75.7945 52.9336 76.6757 52.5962 77.5327C51.9766 79.1165 50.4622 79.7707 48.8928 79.1889C47.4406 78.6457 46.7253 77.2309 47.3043 75.6641C49.8282 68.8124 52.3761 61.9704 54.9839 55.1502C55.6609 53.3733 57.0078 52.2386 58.9935 52.2482C60.9816 52.2603 62.2783 53.4071 62.9434 55.2105C65.4386 61.9897 67.9076 68.7762 70.3359 75.5772C71.0871 77.68 69.9579 79.3796 67.9363 79.3893ZM85.1353 79.3869C82.1902 79.4207 79.2428 79.4038 76.2977 79.3965C73.6996 79.3917 72.7163 78.397 72.702 75.7269C72.6876 72.3904 72.6996 69.0539 72.6996 65.7198C72.702 62.3012 72.6757 58.885 72.7115 55.4688C72.7355 53.2622 74.0393 52.0164 75.9628 52.2482C77.5107 52.4365 78.3911 53.4674 78.4174 55.2733C78.4557 57.8855 78.4318 60.4977 78.4318 63.1124C78.4342 66.3668 78.4629 69.6236 78.415 72.878C78.3983 73.8486 78.7428 74.131 79.6567 74.1045C81.4869 74.0514 83.3194 74.0683 85.1496 74.0997C86.9774 74.131 88.0923 75.1547 88.0827 76.7239C88.0707 78.2618 86.8937 79.3676 85.1353 79.3869ZM108.633 78.7616C107.574 79.609 105.873 79.6283 104.875 78.7205C104.349 78.2401 103.906 77.6559 103.48 77.0764C101.351 74.1745 99.2384 71.2581 97.059 68.262C95.9322 69.0152 95.3532 69.8143 95.4393 71.1253C95.5494 72.8467 95.492 74.5825 95.4537 76.3087C95.4154 78.2377 94.2575 79.4231 92.5182 79.3893C90.7813 79.3555 89.7191 78.257 89.7143 76.3304C89.6904 69.3339 89.688 62.3374 89.7143 55.3409C89.7215 53.3805 90.8675 52.2192 92.6211 52.2337C94.3843 52.2482 95.4226 53.3781 95.4561 55.394C95.4872 57.2844 95.4609 59.1747 95.468 61.0627C95.4704 61.4441 95.5159 61.8256 95.5565 62.4605C96.0422 62.0042 96.3604 61.7314 96.6499 61.4272C99.0518 58.9091 101.454 56.3887 103.851 53.8609C104.602 53.0691 105.459 52.55 106.593 52.678C107.619 52.7914 108.44 53.2767 108.825 54.252C109.186 55.1622 109.098 56.0917 108.387 56.8377C106.377 58.9574 104.341 61.0506 102.332 63.1703C100.856 64.7275 100.844 64.2278 102.117 65.9202C104.117 68.5758 106.129 71.2219 108.131 73.8775C108.468 74.3242 108.81 74.7732 109.086 75.2609C109.818 76.5477 109.619 77.9697 108.633 78.7616Z" fill="#47292B"/>
<path d="M59.1182 58.5784C60.2163 61.9367 61.312 65.2925 62.4508 68.7763H55.4339C56.575 65.2852 57.6755 61.9174 58.776 58.5519C58.8885 58.5591 59.0033 58.5688 59.1158 58.576L59.1182 58.5784Z" fill="#47292B"/>
</g>
<defs>
<clipPath id="clip0_859_8145">
<rect width="105" height="97" fill="white" transform="translate(18 22)"/>
</clipPath>
</defs>
</svg>
