<svg width="140" height="140" viewBox="0 0 140 140" fill="none" xmlns="http://www.w3.org/2000/svg">
<rect width="140" height="140" rx="30" fill="white"/>
<g clip-path="url(#clip0_832_707)">
<path d="M85.6527 43.8366C85.6066 42.964 85.4066 42.1165 85.1918 41.2817C84.8326 39.8886 84.334 38.5397 83.6615 37.2601C81.7982 33.7159 79.1157 30.9886 75.5638 29.1591C73.8167 28.2592 71.9439 27.6946 70.0376 27.2099C68.8791 26.9155 67.7123 26.8524 66.5423 26.7262C66.2354 26.6926 65.94 26.6011 65.6227 26.6085C64.9136 26.6253 64.8203 26.598 64.8434 25.8893C64.8748 24.9588 65.0246 24.0294 65.3325 23.1389C65.3472 23.0979 65.4111 23.0737 65.4519 23.0421C67.2231 23.019 68.9891 22.834 70.7624 22.8781C71.7166 22.9023 72.6687 23.0127 73.6188 23.0327C74.5101 23.0516 75.3868 23.2398 76.2656 23.224C76.9622 23.2114 77.6241 23.3891 78.3092 23.4248C79.3796 23.4806 80.4333 23.8149 81.4996 24.001C82.7366 24.2165 83.9758 24.4689 85.1751 24.8001C86.0193 25.0335 86.8845 25.27 87.7277 25.5445C88.7594 25.8809 89.8089 26.2037 90.8144 26.5853C91.755 26.9418 92.7333 27.253 93.6289 27.7492C94.0531 27.9847 94.5517 28.0836 94.9916 28.2949C95.7028 28.6366 96.3941 29.0214 97.0948 29.3841C98.1035 29.9056 99.1687 30.3409 100.11 30.9633C101.473 31.8633 102.864 32.7234 104.217 33.6402C105.262 34.3478 106.213 35.1752 107.263 35.8702C107.986 36.3486 108.676 36.9132 109.286 37.4988C111.859 39.9685 114.413 42.4645 116.649 45.2655C120.114 49.6056 122.963 54.3116 125.157 59.4183C125.885 61.1131 126.496 62.8521 127.09 64.5995C127.632 66.1914 128.051 67.8147 128.427 69.4486C129.056 72.1853 129.498 74.9505 129.72 77.7598C129.949 80.6512 130.114 83.5373 129.9 86.4317C129.761 88.3232 129.611 90.2104 129.313 92.0935C128.895 94.7293 128.354 97.3263 127.632 99.8948C126.36 104.413 124.523 108.684 122.257 112.782C120.242 116.425 117.8 119.761 115.082 122.899C114.537 123.529 114.029 124.2 113.366 124.72C113.353 124.307 113.644 124.017 113.798 123.673C115.235 120.455 116.321 117.121 117.096 113.683C117.464 112.042 117.767 110.385 117.963 108.716C118.103 107.517 118.239 106.315 118.316 105.106C118.402 103.752 118.483 102.4 118.551 101.046C118.637 99.3323 118.52 97.627 118.383 95.9269C118.304 94.9522 118.137 93.9786 118.006 93.0061C117.025 85.7452 113.854 78.7492 110.699 73.9044C109.193 71.5913 107.571 69.3708 105.674 67.3616C105.417 67.0892 105.166 66.8106 104.912 66.5341C104.77 66.3911 104.629 66.2481 104.488 66.1062C104.072 65.6888 103.656 65.2714 103.239 64.8529C103.126 64.6815 102.985 64.5386 102.812 64.4271C101.385 63.0603 99.9051 61.7576 98.3245 60.5695C97.0749 59.6307 95.7489 58.8074 94.4605 57.9274C93.1135 57.0074 91.6126 56.3913 90.187 55.6259C89.2569 55.1275 88.2797 54.7354 87.3129 54.3148C86.4927 53.9573 85.6485 53.6766 84.8158 53.3685C84.4178 53.2214 84.3685 53.0111 84.5288 52.7314C84.9268 52.0375 84.9614 51.2332 85.2463 50.5151C85.4977 49.8811 85.6349 49.1777 85.6422 48.5763" fill="#33A0FF"/>
<path d="M33.7558 64.2126C32.6686 65.2587 31.596 66.3185 30.5947 67.4509C25.2371 73.5027 21.4003 80.3725 19.3924 88.2453C18.8163 90.5016 18.3628 92.7737 18.0549 95.0805C17.8328 96.7417 17.6621 98.4039 17.5479 100.076C17.2777 104.019 17.3363 107.968 17.2986 111.916C17.2578 111.914 17.2169 111.912 17.1771 111.911C16.9194 111.727 16.9697 111.403 16.8388 111.155C15.6678 108.94 14.7156 106.626 13.7855 104.299C13.0198 102.382 12.4794 100.403 11.9473 98.4165C11.4194 96.4441 10.9732 94.4559 10.7061 92.4278C10.6537 92.0283 10.5291 91.6266 10.4107 91.2313C10.3154 90.9127 10.4086 90.5553 10.351 90.1978C10.2201 89.384 10.1876 88.5502 10.1258 87.7239C9.96659 85.599 10.0001 83.4678 10.0148 81.3387C10.0252 79.8615 10.1352 78.3917 10.3175 76.9271C10.4966 75.4888 10.6548 74.0484 10.8559 72.6132C10.9365 72.0349 11.1031 71.4693 11.234 70.8984C11.2989 70.6135 11.4005 70.3454 11.2905 70.0341C11.1648 69.6798 11.5817 69.4822 11.6058 69.1447C11.6613 68.3708 11.8698 67.5991 12.0761 66.8789C12.3233 66.0147 12.7067 65.162 12.9968 64.2946C13.5352 62.6881 14.1553 61.1141 14.7837 59.5423C15.9453 56.6331 17.4903 53.9278 19.0918 51.2489C20.0733 49.6066 21.2076 48.0705 22.3231 46.525C23.1852 45.3316 24.1813 44.234 25.1491 43.1195C26.4835 41.5813 27.9311 40.1546 29.4059 38.7615C30.0972 38.1086 30.7853 37.4367 31.5583 36.85C32.5953 36.0625 33.6186 35.254 34.6682 34.4823C34.6818 34.9701 34.6242 35.4727 34.7195 35.9437C35.217 38.4061 36.3839 40.4469 38.5101 41.8736C39.6581 42.6443 40.9224 43.192 42.2715 43.2909C43.9212 43.4128 45.574 43.6368 47.2363 43.5474C47.2269 44.5925 47.1598 45.6418 47.2227 46.6827C47.3096 48.1063 47.3955 49.5351 47.9234 50.8956C48.0679 51.2668 48.1203 51.6884 48.2114 52.0868C48.3549 52.7135 48.7613 53.215 48.9771 53.809C49.0892 54.1181 48.9907 54.2433 48.7593 54.3221C47.5453 54.7385 46.4099 55.3335 45.3027 55.9612C44.1883 56.5921 43.0696 57.2198 41.975 57.8937C39.987 59.1196 38.1184 60.4927 36.32 61.9721C35.5532 62.6018 34.8211 63.2758 34.0743 63.9298C33.9119 63.9602 33.8375 64.0917 33.7548 64.2126H33.7558Z" fill="#33A0FF"/>
<path d="M47.2362 43.5464C45.5729 43.6357 43.9211 43.4107 42.2714 43.2898C40.9223 43.1899 39.658 42.6432 38.51 41.8725C36.3837 40.4447 35.2169 38.405 34.7194 35.9427C34.6241 35.4716 34.6806 34.9691 34.6681 34.4812C34.6942 33.7726 34.6764 33.065 34.6628 32.3595C34.6555 32.0052 34.8346 31.5783 34.8011 31.1778C34.7382 30.4323 34.9362 29.7058 34.8859 28.9446C34.8534 28.462 34.8587 27.8669 34.9592 27.3759C35.3981 25.2458 36.2947 23.3291 37.9716 21.8603C38.8023 21.1327 39.7041 20.565 40.7662 20.1991C41.9959 19.7754 43.2161 19.665 44.5024 19.7743C45.1874 19.8322 45.8798 19.8868 46.5711 19.9173C47.5169 19.9594 48.468 19.952 49.4106 20.0982C49.6777 20.1392 54.0466 20.8015 55.5517 22.038C55.7853 22.2304 55.955 22.5006 56.1551 22.7351C56.2095 23.0242 55.9686 23.1682 55.8408 23.3627C54.7243 25.0513 53.6307 26.7524 52.6001 28.4956C52.4838 28.6912 52.4094 28.9646 52.09 28.9362C52.0847 28.831 52.0732 28.727 52.0743 28.6218C52.0795 27.439 51.2457 26.6305 50.0831 26.6126C49.4798 26.6031 48.8702 26.5632 48.271 26.5012C46.7889 26.3487 45.3005 26.3035 43.8153 26.2057C42.4641 26.1163 41.6104 26.9995 41.491 28.3453C41.4324 29.0066 41.4355 29.6658 41.3915 30.324C41.2931 31.7949 41.1862 33.2658 41.0878 34.7378C41.0773 34.8923 41.1108 35.0385 41.1611 35.1941C41.5853 36.4957 42.4651 36.8889 43.7283 36.9068C45.3299 36.9289 46.9167 37.1591 48.5161 37.1718C48.4313 38.1106 48.0144 38.9686 47.8688 39.898C47.6887 41.0409 47.3619 42.1606 47.3545 43.3308C47.3545 43.4034 47.2781 43.4759 47.2362 43.5485V43.5464Z" fill="#282828"/>
<path d="M52.1771 112.977C52.0975 110.559 54.1211 108.533 56.4663 108.563C57.5431 108.576 58.5591 108.854 59.396 109.633C60.1156 110.303 60.678 111.102 60.831 112.037C61.0719 113.513 60.721 114.893 59.6264 116.001C58.8031 116.836 57.7672 117.305 56.637 117.346C54.1253 117.438 52.1635 115.371 52.176 112.977H52.1771Z" fill="#282828"/>
<path d="M87.8599 112.932C87.927 114.23 87.4368 115.286 86.4993 116.161C85.897 116.723 85.1879 117.162 84.4097 117.294C82.87 117.557 81.5031 117.071 80.4221 115.917C79.6523 115.096 79.1285 114.132 79.182 112.969C79.3003 110.393 81.0024 108.629 83.4052 108.572C85.9306 108.513 87.9636 110.313 87.8599 112.931V112.932Z" fill="#282828"/>
<path d="M17.1759 111.91C17.2167 111.912 17.2576 111.913 17.2974 111.915C17.2995 112.002 17.3016 112.087 17.3026 112.172C17.0806 112.172 17.1612 112.025 17.1748 111.91H17.1759Z" fill="#3DCC8E"/>
<path d="M32.9397 111.907C32.9682 111.935 32.9977 111.962 33.0262 111.99C32.9576 112.005 32.9112 111.996 32.9397 111.907Z" fill="#282828"/>
<path d="M108.057 120.944C108.028 120.977 108 121.009 107.971 121.042C107.951 120.967 107.992 120.945 108.057 120.944Z" fill="#282828"/>
<path d="M113.398 124.826C113.398 124.763 113.412 124.71 113.492 124.711C113.46 124.75 113.429 124.788 113.398 124.826Z" fill="#33A0FF"/>
<path d="M105.956 124.982L105.948 124.986C105.936 124.988 105.923 124.99 105.91 124.991C105.925 124.988 105.941 124.985 105.956 124.982Z" fill="#3DCC8E"/>
<path d="M79.0926 60.5569C79.6928 60.1815 80.1275 59.6253 80.6219 59.1364C80.8313 58.9303 81.0094 58.8599 81.3069 58.9619C83.1179 59.578 84.8943 60.2688 86.6425 61.0542C90.4415 62.7595 93.8572 65.04 97.0005 67.7526C97.9265 68.5517 98.7623 69.4506 99.6411 70.3012C101.203 71.812 102.594 73.4627 103.877 75.2101C105.386 77.2646 106.603 79.4704 107.141 81.9906C107.595 84.1249 107.629 86.2498 106.717 88.2989C106.023 89.8582 105.009 91.1745 103.564 92.0829C102.457 92.7779 101.278 93.3635 99.9763 93.6169C99.7898 93.6526 99.5856 93.7304 99.3772 93.6442C99.2253 93.5811 99.0629 93.557 98.9645 93.7609C98.9425 93.8061 98.8304 93.8535 98.7874 93.8345C98.1297 93.5591 97.5284 94.0795 96.8727 93.9575C96.2108 93.8335 95.532 93.7998 94.8638 93.7031C93.8666 93.5591 92.8967 93.2878 91.932 93.005C89.4224 92.2679 86.8844 91.6434 84.3099 91.1903C82.4266 90.8591 80.5475 90.4911 78.6317 90.3534C78.1457 90.3187 77.6409 90.203 77.1507 90.1315C76.6615 90.06 76.1472 90.0548 75.6476 90.0274C73.7905 89.9233 71.925 89.9454 70.0627 89.936C69.2467 89.9318 68.4203 90.08 67.6232 90.0222C66.9309 89.9717 66.2689 90.3239 65.5566 90.059C65.3409 89.978 64.9554 90.2598 64.6066 90.2913C64.2798 90.3208 63.8399 90.1641 63.6859 90.264C63.1182 90.632 62.4971 90.5016 61.9126 90.6141C59.8 91.021 57.6852 91.4216 55.6092 91.9935C53.6233 92.5403 51.6855 93.2331 49.7761 94.0049C48.053 94.7009 46.33 95.398 44.6038 96.3936C47.0894 88.5723 49.5425 80.853 51.9966 73.1326C51.9526 73.0989 51.9097 73.0663 51.8657 73.0327C51.3556 73.5689 50.8256 74.0872 50.3406 74.6455C49.3937 75.7327 48.3589 76.7378 47.4005 77.8113C46.5552 78.7565 45.6387 79.6312 44.8112 80.5933C44.0183 81.5143 43.128 82.3491 42.2953 83.2365C41.4039 84.1848 40.5377 85.1563 39.6474 86.1047C38.8147 86.9921 37.9589 87.8552 37.1262 88.7416C36.2474 89.6784 35.3917 90.6362 34.5118 91.5719C33.7252 92.4078 32.9156 93.2205 32.1394 94.069C31.1915 95.1057 30.2017 96.1034 29.2673 97.1548C28.6441 97.8572 27.9455 98.4838 27.3265 99.1966C26.3806 100.286 25.3353 101.288 24.3256 102.32C24.2323 102.416 24.1423 102.658 23.9705 102.507C23.8469 102.399 23.7222 102.194 23.9003 102.001C24.0805 101.805 24.0197 101.604 23.9694 101.372C23.9129 101.105 23.8563 100.782 23.9537 100.548C24.202 99.9484 24.049 99.3102 24.1632 98.6941C24.2753 98.0927 24.3172 97.4093 24.3465 96.7595C24.3664 96.3043 24.4827 95.8627 24.6199 95.4253C24.6817 95.2266 24.6052 94.9879 24.6356 94.7745C24.8137 93.517 25.0577 92.2711 25.3541 91.0357C26.2151 87.4515 27.4144 83.9935 29.1427 80.73C30.5777 78.0195 32.2819 75.4919 34.2468 73.142C35.3079 71.872 36.3805 70.6103 37.5881 69.4748C40.7147 66.533 44.0937 63.9371 47.8854 61.9047C49.4335 61.0752 51.0235 60.3424 52.6523 59.6884C52.9697 59.5612 53.1875 59.5864 53.4442 59.8167C56.3131 62.3821 59.7172 63.8593 63.4199 64.7214C63.6032 64.7645 63.8001 64.7467 63.9907 64.7572C64.063 64.9391 63.974 65.0968 63.9195 65.2618C63.7572 65.7539 63.598 66.2523 63.5885 66.7727C63.5602 68.3992 63.9394 69.9006 64.9952 71.1822C65.0843 71.2895 65.1639 71.4051 65.255 71.5113C65.3419 71.6133 65.4006 71.73 65.3168 71.8436C64.9376 72.3619 64.9827 72.9717 64.9753 73.5542C64.9628 74.4868 65.0214 75.4036 65.3922 76.2962C66.0039 77.7671 67.1624 78.8217 68.0904 80.0508C68.6529 80.7951 69.2583 81.4838 70.0648 81.9958C71.5542 82.94 73.1317 83.227 74.8505 82.8517C76.2467 82.5468 77.3643 81.7666 78.4003 80.8382C78.6831 80.5849 78.9344 80.4944 79.3241 80.6521C80.3118 81.0538 81.3917 81.1736 82.4056 80.9928C84.158 80.6805 85.66 79.811 86.765 78.357C87.7664 77.0396 88.1277 75.5403 88.0775 73.899C88.0324 72.4366 87.5119 71.177 86.6184 70.0562C85.7166 68.9239 84.7959 67.8073 83.8804 66.6854C82.6036 65.1199 81.31 63.568 80.0552 61.9846C79.7022 61.5389 79.2267 61.1614 79.0926 60.5611V60.5569Z" fill="#FF6F21"/>
<path d="M61.2636 57.1504C60.412 56.959 59.7134 56.4565 59.0189 55.976C55.8903 53.8122 54.1777 50.8021 53.7388 47.0244C53.3817 43.947 54.029 41.022 55.0418 38.1601C56.0851 35.213 57.607 32.5015 59.2787 29.872C59.3059 29.8288 59.3374 29.7878 59.4054 29.6901C59.5458 29.9003 59.6558 30.0665 59.7668 30.2305C60.9766 32.0147 62.6483 33.0198 64.8049 33.0409C66.3101 33.0556 67.7639 33.2942 69.2136 33.6507C71.3273 34.169 73.309 34.9649 74.9807 36.4043C76.5959 37.7942 77.8476 39.4575 78.6132 41.4625C79.2281 43.0722 79.58 44.7387 79.4742 46.4703C79.2501 50.1428 77.8329 53.2371 74.9881 55.6206C74.3544 54.9761 73.8348 54.2359 73.263 53.5399C71.5096 51.4087 69.2722 50.5035 66.5573 51.005C63.6046 51.5507 61.2992 54.2254 61.2636 57.1493V57.1504Z" fill="#FF6F21"/>
<path d="M61.2632 57.1503C61.2988 54.2264 63.6042 51.5517 66.5569 51.006C69.2718 50.5045 71.5092 51.4097 73.2626 53.5409C73.8355 54.2369 74.354 54.9771 74.9877 55.6216C75.238 56.2714 75.7649 56.7224 76.1723 57.2555C76.9631 58.29 77.8136 59.2784 78.6202 60.3024C78.7563 60.4759 78.8862 60.5621 79.0915 60.5568C79.2256 61.1572 79.7011 61.5346 80.0541 61.9804C81.3079 63.5638 82.6025 65.1157 83.8793 66.6812C84.7948 67.8031 85.7155 68.9196 86.6173 70.052C87.5108 71.1728 88.0313 72.4323 88.0764 73.8948C88.1277 75.5361 87.7653 77.0354 86.7639 78.3527C85.6579 79.8068 84.1558 80.6763 82.4045 80.9886C81.3906 81.1694 80.3107 81.0496 79.323 80.6479C78.9333 80.4892 78.682 80.5796 78.3992 80.834C77.3632 81.7635 76.2456 82.5426 74.8494 82.8475C73.1306 83.2228 71.5531 82.9358 70.0637 81.9916C69.2561 81.4796 68.6507 80.7909 68.0893 80.0465C67.1613 78.8175 66.0028 77.7629 65.3911 76.292C65.0203 75.3994 64.9617 74.4815 64.9742 73.55C64.9816 72.9665 64.9376 72.3577 65.3157 71.8394C65.3984 71.7258 65.3408 71.6081 65.2539 71.5071C65.1628 71.4009 65.0832 71.2863 64.9941 71.178C63.9383 69.8964 63.5591 68.395 63.5874 66.7685C63.5969 66.248 63.7561 65.7497 63.9184 65.2576C63.9729 65.0926 64.0619 64.9349 63.9896 64.753C64.5165 64.4817 64.5605 63.8393 64.1101 63.3304C63.5487 62.6964 62.96 62.0856 62.4782 61.3822C61.6015 60.1048 61.2852 58.6707 61.2642 57.1493L61.2632 57.1503ZM81.4346 75.6969C82.2453 75.7001 82.8392 75.0882 82.8476 74.2691C82.8518 73.8097 82.613 73.4785 82.3459 73.1494C79.9494 70.1897 77.5539 67.229 75.1563 64.2704C73.1264 61.7639 71.1028 59.2542 69.0624 56.7571C68.4779 56.0422 67.6232 55.9475 66.9947 56.4743C66.3841 56.9853 66.3286 57.8201 66.8533 58.5361C67.0492 58.8031 67.3456 58.9987 67.5132 59.2626C68.2611 60.4422 69.2718 61.4127 70.0574 62.5608C70.4366 63.1159 70.8817 63.628 71.3259 64.1337C71.528 64.365 71.5511 64.4575 71.2766 64.6678C70.5906 65.1914 69.9474 65.7728 69.2886 66.3322C68.8958 66.6655 68.7638 67.1701 69.0592 67.7505C69.3389 68.3004 69.7798 68.9291 70.4324 68.8713C70.6838 68.8492 70.9613 68.906 71.1677 68.6862C71.7783 68.0354 72.5314 67.5486 73.184 66.9472C73.4071 66.7422 73.5496 66.7758 73.7255 67.0008C74.2283 67.6453 74.7373 68.2856 75.2631 68.9112C75.4444 69.1278 75.3574 69.2224 75.1825 69.3644C73.6962 70.5724 72.2151 71.7857 70.7361 73.0022C70.1559 73.4785 70.0815 74.1114 70.5549 74.7107C71.2044 75.5329 71.8674 76.3456 72.5409 77.1489C73.1243 77.8439 73.6731 77.8796 74.3896 77.295C75.8235 76.1259 77.2616 74.961 78.682 73.776C78.9396 73.5615 79.0706 73.5857 79.258 73.837C79.5807 74.2712 79.9326 74.6844 80.2678 75.1092C80.5673 75.4877 80.9423 75.7085 81.4346 75.698V75.6969Z" fill="#282828"/>
<path d="M48.5162 37.1707C46.9168 37.1581 45.3289 36.9268 43.7284 36.9058C42.4652 36.889 41.5854 36.4957 41.1612 35.1931C41.1109 35.0385 41.0774 34.8913 41.0879 34.7368C41.1874 33.2659 41.2932 31.795 41.3916 30.323C41.4356 29.6638 41.4314 29.0046 41.4911 28.3443C41.6116 26.9985 42.4642 26.1153 43.8154 26.2047C45.2996 26.3025 46.788 26.3477 48.2711 26.5001C48.8692 26.5622 49.4799 26.6021 50.0832 26.6116C51.2458 26.6305 52.0796 27.439 52.0744 28.6208C52.0744 28.7259 52.0848 28.83 52.0901 28.9352C52.0492 29.4977 51.7664 29.955 51.5025 30.4366C50.9976 31.3586 50.5451 32.3101 50.0895 33.2585C49.8276 33.8031 49.5532 34.3498 49.3678 34.9229C49.1196 35.6872 48.821 36.4295 48.5162 37.1697V37.1707ZM44.6387 32.4962C44.6387 32.7233 44.647 32.9515 44.6366 33.1775C44.6271 33.3836 44.6837 33.5129 44.9131 33.5298C45.9479 33.6055 46.9828 33.6875 48.0177 33.7642C48.2628 33.7821 48.4021 33.6948 48.4178 33.412C48.4733 32.4563 48.5623 31.5027 48.6157 30.547C48.6535 29.8772 48.6377 29.8888 47.9475 29.8699C47.0813 29.8457 46.2014 29.8762 45.354 29.73C44.8345 29.6407 44.7382 29.8635 44.7622 30.2042C44.8167 30.9759 44.5873 31.7287 44.6387 32.4962Z" fill="#3DCC8E"/>
<path d="M102.931 64.424C103.104 64.5354 103.244 64.6784 103.358 64.8498C103.046 64.8792 102.904 64.7383 102.931 64.424Z" fill="#282828"/>
<path d="M104.606 66.103C104.747 66.246 104.889 66.389 105.03 66.5309C104.717 66.5593 104.577 66.4163 104.606 66.103Z" fill="#282828"/>
<path d="M33.7559 64.2126C33.8386 64.0917 33.9119 63.9603 34.0753 63.9298C34.0282 64.2967 34.0125 64.3104 33.7559 64.2126Z" fill="#282828"/>
<path d="M37.2691 98.2126C37.2765 98.2264 37.2913 98.2413 37.2902 98.2551C37.2892 98.2678 37.2723 98.2794 37.2617 98.2922C37.2638 98.2657 37.2659 98.2392 37.2691 98.2126Z" fill="#282828"/>
<path d="M81.435 75.6959C80.9416 75.7075 80.5666 75.4867 80.2671 75.1082C79.9308 74.6834 79.58 74.2702 79.2573 73.836C79.0699 73.5847 78.9389 73.5605 78.6813 73.775C77.2609 74.9599 75.8228 76.1249 74.3889 77.294C73.6724 77.8786 73.1236 77.8429 72.5402 77.1479C71.8667 76.3457 71.2036 75.5319 70.5542 74.7097C70.0808 74.1104 70.1562 73.4785 70.7354 73.0012C72.2144 71.7847 73.6965 70.5714 75.1818 69.3634C75.3567 69.2214 75.4436 69.1268 75.2624 68.9102C74.7366 68.2846 74.2276 67.6433 73.7248 66.9998C73.5488 66.7748 73.4064 66.7412 73.1833 66.9462C72.5307 67.5476 71.7776 68.0334 71.167 68.6852C70.9606 68.905 70.6831 68.8482 70.4317 68.8703C69.7781 68.9281 69.3382 68.2994 69.0585 67.7495C68.7631 67.1691 68.8951 66.6644 69.2879 66.3312C69.9467 65.7718 70.5898 65.1904 71.2759 64.6668C71.5503 64.4565 71.5273 64.364 71.3251 64.1327C70.8821 63.6259 70.4359 63.1139 70.0567 62.5598C69.2711 61.4106 68.2614 60.4402 67.5125 59.2616C67.3449 58.9977 67.0485 58.8032 66.8526 58.5351C66.3289 57.8191 66.3844 56.9843 66.994 56.4733C67.6235 55.9465 68.4782 56.0412 69.0616 56.7561C71.102 59.2532 73.1267 61.7639 75.1556 64.2694C77.5521 67.229 79.9476 70.1898 82.3452 73.1484C82.6112 73.4775 82.8511 73.8087 82.8469 74.2681C82.8385 75.0872 82.2457 75.6991 81.4339 75.6959H81.435Z" fill="#3DCC8E"/>
<path d="M44.6374 32.4963C44.5861 31.7288 44.8165 30.976 44.761 30.2042C44.7369 29.8646 44.8322 29.6407 45.3528 29.7301C46.2002 29.8762 47.08 29.8447 47.9462 29.8699C48.6365 29.8899 48.6522 29.8773 48.6145 30.547C48.56 31.5027 48.472 32.4563 48.4165 33.412C48.3998 33.6949 48.2605 33.7821 48.0164 33.7643C46.9815 33.6886 45.9467 33.6055 44.9118 33.5298C44.6824 33.513 44.6259 33.3837 44.6353 33.1776C44.6458 32.9505 44.6374 32.7234 44.6374 32.4963Z" fill="#282828"/>
<path d="M108.056 120.944C108.944 118.909 109.639 116.81 110.276 114.682C110.774 113.016 111.084 111.316 111.398 109.62C111.673 108.125 111.843 106.606 111.952 105.079C112.097 103.036 112.285 100.998 112.225 98.9507C112.189 97.7311 112.129 96.4957 111.892 95.3055C111.739 94.5327 111.88 93.7253 111.566 92.9735C111.181 93.4887 110.825 94.0049 110.427 94.4875C109.237 95.9322 107.822 97.1129 106.199 98.0402C104.358 99.0926 102.374 99.7655 100.294 100.116C99.8863 100.184 99.3814 100.126 98.998 100.193C97.9485 100.377 96.9179 100.269 95.8778 100.286C94.9906 100.301 94.1191 100.221 93.2592 100.023C92.2694 99.796 91.2743 99.5815 90.3002 99.2945C88.9595 98.9002 87.5968 98.6027 86.2487 98.2431C85.0546 97.9245 83.826 97.7805 82.6267 97.4998C81.5122 97.239 80.3779 97.156 79.2582 96.9562C78.4673 96.8153 77.6629 96.7323 76.8606 96.6723C75.4162 96.5651 73.9707 96.4715 72.5232 96.4158C71.0672 96.359 69.6124 96.3864 68.1606 96.5609C67.5636 96.6324 66.9582 96.6019 66.3538 96.6608C65.2624 96.7659 64.1804 96.9467 63.0932 97.0571C61.9996 97.1686 60.9522 97.4693 59.8796 97.6554C58.8699 97.831 57.8864 98.1727 56.8924 98.4355C55.448 98.8172 54.0475 99.3071 52.6586 99.8391C51.0341 100.462 49.4409 101.158 47.8991 101.968C46.8443 102.522 45.8399 103.162 44.8102 103.757C40.807 106.071 37.2886 109.069 33.5043 111.69C33.3503 111.798 33.1848 111.889 33.0256 111.988C32.9973 111.961 32.968 111.933 32.9397 111.906C33.012 111.23 33.2759 110.605 33.4739 109.964C33.8677 108.691 34.2951 107.428 34.7015 106.16C35.0765 104.991 35.4441 103.819 35.8159 102.648C36.2443 101.297 36.6759 99.9474 37.1001 98.5953C37.1221 98.5238 37.1399 98.4229 37.0079 98.3514C35.9165 99.4995 34.8146 100.648 33.7242 101.807C32.1489 103.482 30.5987 105.181 28.9982 106.832C28.6306 107.21 28.5248 107.547 28.6316 108.041C29.9084 113.945 32.2589 119.374 35.7395 124.307C35.8788 124.504 36.0202 124.699 36.1626 124.898C35.9961 125.049 35.8149 124.983 35.6525 124.983C33.4215 124.987 31.1894 124.98 28.9584 124.991C28.619 124.993 28.4326 124.902 28.2273 124.59C27.3737 123.29 26.7148 121.889 26.0581 120.491C25.46 119.215 24.908 117.917 24.4157 116.591C23.9842 115.431 23.6019 114.262 23.2447 112.993C21.2734 115.086 19.3346 117.145 17.3026 119.303C17.3026 116.858 17.3026 114.513 17.3026 112.169C17.3005 112.084 17.2984 111.999 17.2974 111.912C17.3351 107.964 17.2764 104.015 17.5467 100.071C17.6608 98.3998 17.8316 96.7375 18.0536 95.0763C18.3616 92.7685 18.8161 90.4975 19.3912 88.2412C21.4002 80.3684 25.2358 73.4986 30.5935 67.4467C31.5948 66.3154 32.6674 65.2556 33.7546 64.2084C34.0112 64.3062 34.0259 64.2925 34.0741 63.9256C34.8219 63.2716 35.553 62.5988 36.3198 61.9679C38.1182 60.4897 39.9858 59.1155 41.9748 57.8896C43.0694 57.2156 44.1881 56.5879 45.3025 55.9571C46.4107 55.3294 47.5451 54.7343 48.7591 54.318C48.9916 54.2381 49.09 54.114 48.9769 53.8049C48.7612 53.2109 48.3537 52.7093 48.2113 52.0827C48.1201 51.6842 48.0678 51.2626 47.9232 50.8915C47.3953 49.531 47.3094 48.1011 47.2225 46.6785C47.1586 45.6377 47.2267 44.5884 47.2361 43.5433C47.2769 43.4707 47.3534 43.3982 47.3545 43.3256C47.3607 42.1554 47.6886 41.0357 47.8687 39.8928C48.0154 38.9634 48.4312 38.1055 48.516 37.1666C48.8209 36.4253 49.1204 35.6841 49.3676 34.9198C49.553 34.3467 49.8264 33.8 50.0893 33.2554C50.546 32.307 50.9974 31.3555 51.5023 30.4335C51.7662 29.9519 52.049 29.4946 52.0899 28.9321C52.4083 28.9594 52.4837 28.6871 52.6 28.4915C53.6307 26.7494 54.7242 25.0472 55.8407 23.3586C55.9696 23.1641 56.2094 23.0201 56.155 22.7309C56.8536 22.0339 57.3134 21.157 57.8927 20.3716C59.1422 18.6778 60.3531 16.9556 61.5702 15.2387C61.7566 14.9759 61.9137 14.9243 62.2049 15.0978C63.6158 15.9389 65.0508 16.7401 66.4491 17.6001C66.7602 17.7915 67.3719 17.7358 67.3227 18.2741C67.2892 18.6379 66.9812 18.968 66.8398 19.3307C66.3915 20.4862 65.7955 21.586 65.5305 22.8119C65.5075 22.9202 65.4677 23.0926 65.4541 23.1336C65.1461 24.0242 64.9953 24.9536 64.9649 25.8841C64.9408 26.5927 65.0351 26.62 65.7442 26.6032C66.0616 26.5959 66.358 26.6884 66.6638 26.721C67.8338 26.8482 69.0007 26.9102 70.1591 27.2046C72.0654 27.6893 73.9383 28.2539 75.6854 29.1539C79.2372 30.9844 81.9197 33.7106 83.7831 37.2549C84.4555 38.5344 84.9541 39.8834 85.3134 41.2765C85.5281 42.1113 85.7281 42.9587 85.7742 43.8314C85.7868 44.0774 85.8842 47.2884 85.7627 48.57C85.4946 51.4067 85.0473 52.0301 84.6493 52.7251C84.489 53.0048 84.5383 53.214 84.9363 53.3623C85.769 53.6714 86.6132 53.9521 87.4334 54.3085C88.3991 54.7291 89.3774 55.1212 90.3075 55.6196C91.7331 56.384 93.234 57.0011 94.581 57.9211C95.8694 58.8011 97.1954 59.6233 98.445 60.5633C100.026 61.7513 101.506 63.054 102.932 64.4208C102.904 64.7352 103.047 64.8761 103.36 64.8466C103.775 65.264 104.191 65.6814 104.608 66.0999C104.579 66.4132 104.719 66.5562 105.032 66.5278C105.287 66.8033 105.537 67.0819 105.795 67.3553C107.692 69.3645 109.313 71.585 110.819 73.8981C113.974 78.7419 117.146 85.7389 118.126 92.9998C118.257 93.9724 118.425 94.9459 118.503 95.9206C118.641 97.6217 118.759 99.3271 118.672 101.04C118.604 102.394 118.522 103.746 118.436 105.099C118.36 106.308 118.224 107.511 118.083 108.71C117.888 110.378 117.586 112.035 117.216 113.677C116.443 117.115 115.357 120.449 113.919 123.667C113.765 124.012 113.475 124.301 113.486 124.714L113.491 124.708C113.412 124.708 113.398 124.76 113.398 124.823C113.276 125.032 113.072 124.986 112.886 124.986C110.573 124.986 108.26 124.984 105.948 124.983L105.955 124.979C106.585 123.834 107.239 122.704 107.794 121.52C107.867 121.365 107.913 121.199 107.97 121.038C107.999 121.006 108.027 120.973 108.055 120.941L108.056 120.944ZM74.9888 55.6217C77.8337 53.2382 79.2508 50.1439 79.475 46.4714C79.5808 44.7398 79.2278 43.0733 78.614 41.4636C77.8483 39.4586 76.5966 37.7953 74.9815 36.4054C73.3098 34.9671 71.3281 34.1712 69.2143 33.6518C67.7647 33.2953 66.3098 33.0567 64.8057 33.042C62.649 33.0209 60.9773 32.0158 59.7676 30.2316C59.6565 30.0676 59.5466 29.9014 59.4062 29.6912C59.3381 29.7879 59.3077 29.8289 59.2795 29.8731C57.6078 32.5026 56.0858 35.2131 55.0426 38.1612C54.0297 41.0231 53.3824 43.9481 53.7396 47.0255C54.1785 50.8032 55.891 53.8133 59.0197 55.9771C59.7141 56.4576 60.4117 56.9601 61.2643 57.1515C61.2853 58.6728 61.6027 60.1069 62.4783 61.3844C62.9601 62.0878 63.5488 62.6976 64.1102 63.3326C64.5606 63.8415 64.5166 64.4839 63.9898 64.7552C63.7991 64.7446 63.6022 64.7625 63.4189 64.7194C59.7173 63.8583 56.3121 62.3811 53.4432 59.8147C53.1855 59.5844 52.9687 59.5592 52.6513 59.6864C51.0226 60.3393 49.4326 61.0721 47.8845 61.9027C44.0928 63.9351 40.7137 66.531 37.5872 69.4728C36.3805 70.6083 35.3079 71.871 34.2458 73.14C32.2809 75.4899 30.5777 78.0174 29.1417 80.7279C27.4135 83.9915 26.2141 87.4495 25.3532 91.0337C25.0567 92.268 24.8127 93.5139 24.6346 94.7725C24.6042 94.9869 24.6818 95.2246 24.6189 95.4233C24.4817 95.8617 24.3665 96.3022 24.3455 96.7575C24.3162 97.4073 24.2743 98.0896 24.1622 98.6921C24.0481 99.3082 24.1999 99.9453 23.9527 100.546C23.8553 100.78 23.9119 101.103 23.9685 101.37C24.0177 101.602 24.0795 101.803 23.8993 101.999C23.7202 102.192 23.8449 102.398 23.9695 102.505C24.1423 102.656 24.2314 102.413 24.3246 102.318C25.3354 101.287 26.3796 100.284 27.3255 99.1946C27.9445 98.4828 28.6421 97.8551 29.2664 97.1528C30.1996 96.1014 31.1905 95.1037 32.1384 94.067C32.9135 93.2185 33.7242 92.4068 34.5108 91.5699C35.3907 90.6342 36.2464 89.6753 37.1252 88.7396C37.9579 87.8532 38.8147 86.989 39.6464 86.1027C40.5367 85.1533 41.404 84.1828 42.2943 83.2345C43.127 82.3481 44.0184 81.5123 44.8102 80.5913C45.6388 79.6292 46.5553 78.7545 47.3995 77.8093C48.3589 76.7358 49.3928 75.7307 50.3396 74.6435C50.8256 74.0863 51.3546 73.5669 51.8647 73.0307C51.9087 73.0643 51.9516 73.0969 51.9956 73.1306C49.5425 80.8499 47.0895 88.5703 44.6028 96.3916C46.328 95.3959 48.052 94.6989 49.7751 94.0028C51.6845 93.2311 53.6223 92.5383 55.6082 91.9915C57.6842 91.4206 59.7979 91.019 61.9116 90.6121C62.4961 90.4996 63.1172 90.63 63.6849 90.262C63.8389 90.1621 64.2788 90.3188 64.6056 90.2893C64.9534 90.2588 65.3388 89.9771 65.5557 90.057C66.2679 90.3219 66.9288 89.9697 67.6222 90.0202C68.4204 90.078 69.2468 89.9297 70.0617 89.9339C71.924 89.9434 73.7885 89.9213 75.6466 90.0254C76.1462 90.0538 76.6605 90.0591 77.1497 90.1295C77.6388 90.201 78.1447 90.3167 78.6307 90.3513C80.5465 90.4891 82.4256 90.8571 84.3089 91.1883C86.8835 91.6414 89.4203 92.2659 91.931 93.003C92.8957 93.2858 93.8656 93.557 94.8628 93.7011C95.5311 93.7978 96.2087 93.8315 96.8718 93.9555C97.5285 94.0775 98.1287 93.557 98.7865 93.8325C98.8305 93.8504 98.9415 93.8031 98.9635 93.7589C99.0619 93.5549 99.2243 93.5791 99.3762 93.6422C99.5857 93.7284 99.7899 93.6506 99.9753 93.6149C101.277 93.3615 102.456 92.7759 103.563 92.0809C105.009 91.1725 106.022 89.8561 106.716 88.2969C107.627 86.2478 107.594 84.1229 107.14 81.9886C106.602 79.4684 105.385 77.2625 103.876 75.2081C102.593 73.4618 101.202 71.81 99.6401 70.2992C98.7613 69.4486 97.9265 68.5507 96.9995 67.7506C93.8562 65.038 90.4405 62.7575 86.6415 61.0522C84.8923 60.2668 83.1159 59.577 81.3059 58.9599C81.0084 58.8589 80.8304 58.9283 80.6209 59.1344C80.1254 59.6233 79.6918 60.1795 79.0916 60.5538C78.8863 60.559 78.7564 60.4728 78.6203 60.2994C77.8138 59.2763 76.9632 58.288 76.1724 57.2524C75.765 56.7194 75.2371 56.2673 74.9878 55.6185L74.9888 55.6217ZM37.2687 98.2126C37.2666 98.2389 37.2645 98.2652 37.2625 98.2915C37.2729 98.2789 37.2897 98.2673 37.2907 98.2547C37.2918 98.241 37.2771 98.2263 37.2698 98.2126H37.2687Z" fill="#282827"/>
</g>
<defs>
<clipPath id="clip0_832_707">
<rect width="120" height="110" fill="white" transform="translate(10 15)"/>
</clipPath>
</defs>
</svg>
