<svg width="140" height="140" viewBox="0 0 140 140" fill="none" xmlns="http://www.w3.org/2000/svg">
<rect width="140" height="140" rx="30" fill="white"/>
<g clip-path="url(#clip0_750_3230)">
<path d="M70.0036 8C35.7581 8 8 35.7581 8 70.0036C8 104.249 35.7581 132 70.0036 132C104.249 132 132 104.235 132 70.0036C132 35.7724 104.242 8 70.0036 8Z" fill="white"/>
<path d="M35.1844 94.6256C35.7441 94.3386 35.7872 94.2525 35.8948 94.1305C36.0886 93.908 36.2967 93.6999 36.5909 93.3267C37.2512 92.5086 37.531 92.3292 38.1051 92.0206C38.6721 91.7049 40.2365 90.8437 40.9398 90.4992C41.6431 90.1548 41.8225 89.4228 41.9588 88.863C42.6549 85.8274 43.5376 82.8851 43.7601 82.3684C43.9826 81.8517 43.8893 81.7441 43.8175 81.6365C43.7601 81.536 43.4802 81.091 42.9707 80.4739C41.2197 78.3138 39.9566 75.2423 39.6839 74.374C39.4041 73.4985 39.2103 73.3262 38.8156 72.9961C38.4137 72.6732 38.3061 72.8454 37.2081 72.1637C34.9906 70.8074 35.0911 68.6401 35.1126 67.8722C35.1341 67.1115 35.0121 65.8629 34.194 65.1524C33.3759 64.4419 31.9837 62.4828 31.1943 61.3274C30.4121 60.1792 29.5796 58.3851 28.8548 56.4977C28.374 55.2706 28.252 53.0603 28.7472 52.1273C29.0558 51.5532 28.8405 51.2662 28.4243 50.9432C27.6564 50.362 26.4221 49.3214 25.8408 48.3167C25.2595 47.312 25.6829 46.4652 25.891 46.0274C26.1063 45.5897 26.2283 45.073 26.6302 42.6976C27.0536 40.2505 26.7306 38.155 26.1637 36.9637C25.6111 35.7725 24.4486 34.6314 23.8242 33.3181C23.6089 32.866 23.53 32.4426 23.53 32.0695L23.4582 32.256C15.026 42.6043 10.0098 55.737 10.0098 70.1328C10.0098 81.9953 13.4688 93.0468 19.4108 102.355L19.949 102.046C27.5416 97.3957 34.7036 94.8768 35.1844 94.6256Z" fill="#C41230"/>
<path d="M95.1634 84.1123C94.8046 83.3372 93.5487 82.8708 92.6445 82.8205C92.4005 82.8062 91.891 82.8636 92.1493 83.6315C92.4436 84.5213 92.7593 85.6911 94.0008 89.7385C95.2926 93.9439 97.0795 101.917 97.5531 105.139C97.7038 106.237 97.9263 106.38 98.6726 106.402H99.3974C99.8783 106.416 100.84 106.51 101.256 106.639C101.83 106.811 101.507 107.234 100.747 107.278C100.388 107.292 99.1821 107.435 98.2277 107.565C98.2277 107.565 100.273 116.219 101.601 121.142C103.883 119.728 106.064 118.171 108.117 116.47C106.602 112.875 104.988 108.835 103.61 105.476C101.414 100.144 95.9528 85.849 95.1562 84.1266" fill="#C41230"/>
<path d="M82.5547 121.63C82.3179 120.116 81.1482 110.428 81.0764 109.832V109.804C70.3191 111.39 59.167 113.837 53.2106 115.674C49.522 116.815 42.5968 119.298 40.5659 120.109C38.8293 120.798 38.8149 119.197 38.736 118.064C38.5637 115.394 38.5781 110.959 39.0589 105.95C39.7478 98.7305 40.2215 96.513 40.3148 95.9748C40.3937 95.5155 40.1282 95.5729 40.0062 95.6375L39.4895 95.8958C38.8867 96.1685 38.6499 96.9579 38.1762 98.6946C37.5375 101.077 35.277 111.555 34.8894 114.382C34.7387 115.466 34.545 116.958 34.3584 118.386C44.3263 125.757 56.6553 130.127 70.0033 130.127C74.6679 130.127 79.1962 129.582 83.5522 128.57C83.4733 128.096 83.4015 127.622 83.3369 127.156L82.5547 121.637" fill="#C41230"/>
<path d="M88.2384 109.717C88.1739 109.416 88.1164 109.129 88.059 108.863C87.2051 108.978 86.308 109.093 85.3464 109.215C84.9302 109.265 84.4996 109.316 84.0762 109.38C84.0762 109.38 85.8415 119.721 86.143 121.515L86.4802 123.41C86.6094 124.178 86.7099 124.931 86.8749 125.721C86.9898 126.374 87.0831 127.005 87.1764 127.63C88.5973 127.206 90.0038 126.733 91.3817 126.209C91.1736 125.025 90.9439 123.819 90.9224 123.64L90.2119 119.42C89.2718 115.085 88.6834 111.863 88.2456 109.717" fill="#C41230"/>
<path d="M97.7904 120.726C97.0297 117.353 94.9916 107.974 94.9916 107.966C93.9295 108.103 92.6665 108.268 91.1953 108.462C91.1953 108.462 93.4702 118.43 94.0443 121.444L94.6974 124.802C95.9173 124.25 97.123 123.661 98.3071 123.037L97.9267 121.314C97.8908 121.142 97.8478 120.948 97.7904 120.733" fill="#C41230"/>
<path d="M43.1565 50.3476C43.5368 50.0318 43.9746 49.752 44.2401 49.5367C44.6563 49.2066 44.52 48.7042 43.8598 48.819C43.6158 48.8693 43.1349 48.9626 42.69 49.0702C42.3025 49.1707 41.8576 49.3142 41.7284 49.3573C40.8242 49.6587 40.3864 50.6992 40.329 51.0939C40.1926 51.9049 41.0466 52.1417 41.5777 51.7039C42.0154 51.3451 42.568 50.8141 43.1565 50.3404" fill="#F5D4B7"/>
<path d="M48.7687 48.6325C48.1157 48.7114 46.6302 49.6156 45.8982 50.2328C45.4891 50.5772 45.2236 50.7638 44.8648 51.0294C44.3624 51.4025 44.0323 51.5102 43.8888 51.6609C43.3721 52.2135 44.1256 52.3067 44.3266 52.2924C44.5418 52.278 45.1662 52.1202 45.7546 51.7542C46.3288 51.3954 47.1253 50.7997 48.3525 50.3476C49.4576 49.9386 50.1035 50.0103 50.7135 50.0318C51.3163 50.0534 51.1154 49.5008 50.5987 49.0702C50.0963 48.6612 49.2567 48.575 48.7759 48.6325" fill="#F5D4B7"/>
<path d="M55.0626 59.7127C54.7253 60.2438 54.5674 61.4924 55.3712 62.4038C56.1821 63.3152 56.9572 62.9062 56.9715 62.6765C56.993 62.4756 56.8782 62.0378 56.6988 61.7867C56.5194 61.5427 56.1821 60.6456 56.5337 59.5907C56.6342 59.2821 55.5865 58.8659 55.0554 59.7127" fill="#F5D4B7"/>
<path d="M72.6732 46.946C72.0848 46.5154 71.3169 46.214 70.6926 46.2284C70.4916 46.2284 70.0754 46.2714 69.8745 46.3504C68.9057 46.7092 68.1737 47.5703 68.0589 47.7497C67.9369 47.9292 68.023 48.3454 68.4823 48.1732C68.9487 47.9937 69.365 47.8646 69.8888 47.6995C70.6782 47.4627 71.5896 47.6278 72.1063 47.9579C72.9101 48.4602 73.3119 48.6181 73.886 48.8406C74.1659 48.9554 74.9338 49.0917 75.1634 48.9338C75.7232 48.5463 75.0989 48.453 74.8118 48.3382C74.1875 48.0727 73.2545 47.3694 72.6661 46.946" fill="#F5D4B7"/>
<path d="M76.7278 46.659C76.8786 46.1423 76.5556 45.561 76.0676 45.2524C75.4002 44.8362 74.5462 44.8362 73.2043 45.0371C72.8239 45.0873 72.7235 45.4246 72.9962 45.5179C73.3837 45.6615 74.0367 46.0705 74.3955 46.3289C74.7615 46.5872 75.7375 47.1111 76.0317 47.1182C76.326 47.1182 76.5556 47.2474 76.7278 46.659Z" fill="#F5D4B7"/>
<path d="M54.1293 77.2732C54.0647 77.5244 53.8495 78.1703 53.7346 78.6654C53.6055 79.2037 53.2108 79.2395 52.7156 78.7157C50.6847 76.6058 49.1848 70.2476 49.1131 69.4797C49.0198 68.5253 48.1658 68.6329 47.9864 68.676C47.8213 68.719 47.563 68.8123 47.0893 69.0635C46.2856 69.4725 45.367 71.5393 46.1995 73.5989C49.4575 81.6293 54.4594 83.0861 56.3325 82.7846C57.0358 82.6698 57.1865 82.1388 56.72 81.3853C56.2464 80.6174 55.5287 78.7157 54.9331 77.2517C54.6532 76.5628 54.1724 77.101 54.1293 77.2804" fill="#F5D4B7"/>
<path d="M90.7141 85.239L90.6567 84.9806L90.6352 84.8873L90.5706 84.6218C90.1185 82.5478 89.2501 82.2967 89.0635 82.2177L88.8626 82.1531H88.8483H88.8195H88.7908H88.7334H88.7047L88.6688 82.1747L88.6114 82.2105L88.5971 82.2321L88.5397 82.3182L88.511 82.4043L88.4966 82.4617L88.4679 82.6914L88.4464 83.165V83.2368L88.4033 83.775C88.9918 85.9781 89.4726 88.1669 89.8458 90.1548L89.8888 90.6571C90.0539 91.5254 90.3912 94.317 91.0514 100.639C91.2021 102.735 91.3384 104.931 91.4246 106.775H91.5968C91.9843 106.732 92.3431 106.703 92.6445 106.675L93.2545 106.581L93.5272 106.524L93.6492 106.502L93.8286 106.459L93.8932 106.438L94.0726 106.359L94.1157 106.33L94.2233 106.223L94.2449 106.194L94.3238 106V105.957L94.3525 105.842V105.692V105.663L94.331 105.275V105.211L94.252 104.694C93.7066 100.984 93.2258 97.9698 92.7881 95.4868C91.7906 89.7098 91.116 86.8823 90.7356 85.2605V85.2461" fill="#F5D4B7"/>
<path d="M43.186 46.092L43.308 46.0705L43.5233 46.0418L43.8534 45.9916C43.9826 44.707 43.9108 42.9775 43.8319 41.6714C44.2337 37.7459 44.8437 33.1961 46.2288 30.1605C47.3052 27.8282 47.1545 28.6033 47.6927 27.4981L47.7645 27.29L47.7214 26.8235L47.6281 26.8523L47.3554 26.9384L47.176 26.9886L46.767 27.1393L46.6522 27.1967L46.3436 27.3474L46.1785 27.4335L45.8986 27.5914L45.7551 27.6919L45.3532 27.9861L45.3102 28.0292L44.9514 28.3521L44.8294 28.4813L44.5351 28.8042L44.4275 28.9406L44.04 29.4573C40.7317 34.3372 40.8824 39.4396 40.7747 41.0399C40.7388 41.5996 40.8393 42.5684 40.38 42.9416C40.1289 43.1425 39.7413 43.444 39.4471 43.7669C39.2462 44.0109 39.1959 44.4343 39.1816 44.6065C39.1457 45.0371 39.2605 45.726 39.3323 46.1279C39.404 46.5585 39.6911 46.7379 40.1002 46.6661L40.5379 46.5728C41.5857 46.3719 42.4325 46.2068 43.1788 46.0848" fill="#F5D4B7"/>
<path d="M78.5577 64.729C78.73 63.7674 78.5362 63.2937 78.2133 62.7268C77.9047 62.167 77.3019 61.6432 76.5268 61.1336C75.7805 60.6385 74.094 59.1458 73.929 59.0023L72.7951 57.9689C72.6085 57.8253 72.2354 57.5096 71.4388 57.1077C69.4797 56.1174 67.9009 56.8565 67.8363 56.8924C67.7789 56.9283 67.4846 57.1579 67.2119 57.4235C66.9249 57.6818 67.1402 58.1913 67.2406 58.3707L67.2765 58.3923V58.2846V58.2631L67.2909 58.1913L67.3124 58.1483L67.3339 58.1052L67.377 58.055L67.3985 58.0335L67.4775 57.9832L67.499 57.9689L67.6138 57.933H67.6425L67.8076 57.9115H68.0516C69.4007 58.055 70.6781 58.8516 71.489 59.6266C72.2928 60.416 73.2688 61.7006 74.338 62.4397C75.5365 63.2578 76.0245 63.1287 76.4981 63.4372C76.9646 63.7458 77.3162 63.8965 77.5889 65.626L77.6679 66.1786H77.675C77.675 66.1786 78.407 65.5112 78.5577 64.729Z" fill="#F5D4B7"/>
<path d="M54.6896 54.6462V54.9333C54.6322 55.8016 54.1585 56.6628 53.7567 57.1436C53.2184 57.7966 52.2712 58.2487 51.7401 58.4999C51.1947 58.7511 50.3264 58.9305 50.2761 58.9305L49.8886 58.9879L49.6303 59.0525L49.293 59.1027L49.214 59.153L49.1423 59.2606V59.275L49.1279 59.397L49.3145 59.7342C49.3719 59.8419 49.7092 60.1648 50.2546 60.0357C50.9794 59.8778 51.4387 59.7342 51.9195 59.5764C52.4075 59.4257 53.0462 59.1458 53.1467 59.0668L53.5557 58.7511L53.7136 58.6076L53.7782 58.543L53.9074 58.4353L54.2734 58.1124C56.0818 56.0743 55.9598 54.4237 55.9957 54.1582C56.0387 53.8281 55.8952 53.6128 55.7302 53.8281C55.5077 54.1152 55.3426 54.2443 55.0843 54.474L54.8834 54.6032L54.8331 54.6175L54.7111 54.6319H54.6968V54.6462" fill="#F5D4B7"/>
<path d="M44.0036 63.1861L44.5346 63.753L44.5561 63.7889L44.5849 63.8176C44.9293 64.1692 45.2738 64.485 45.5967 64.7577L45.9627 65.0232L45.9771 65.0376L46.1708 65.138L46.3933 65.2457L46.5799 65.2959L46.8095 65.3533L46.9961 65.3677H47.2186L47.4052 65.339L47.563 65.3174L47.6276 65.2959L47.764 65.2528L48.008 65.1524L48.1371 65.0806L48.374 64.9227L48.4888 64.8438L48.8189 64.5352L49.4432 63.9396L49.9886 63.5018C49.7518 63.6166 49.4217 63.7458 49.0701 63.4731C49.0701 63.4731 48.7328 63.0856 48.3309 62.5617C48.0869 62.2603 47.8142 61.9015 47.5702 61.557C47.398 61.313 47.276 61.1265 47.1827 60.9614C47.0105 60.66 46.9387 60.4662 46.91 60.3442V60.3155C46.8311 60.1146 46.7593 59.7916 46.7593 59.7916C46.2426 59.7271 45.7115 59.6122 45.2092 59.4257V59.44L45.3168 59.562L45.3384 59.5907L45.3743 59.7055V59.7558L45.3886 59.8634V59.9208L45.3743 60.0213L45.3599 60.0787L45.3312 60.1792L45.3097 60.2438L45.281 60.3227L45.2235 60.4949C45.1231 60.8035 44.8576 61.0116 44.427 60.9255C43.7165 60.7748 43.0563 60.3873 42.8266 60.2653C42.6042 60.1505 42.2597 60.2294 42.4535 60.7676C42.5683 61.0475 42.6975 61.3059 42.841 61.5714L42.9343 61.7436C43.0706 61.9876 43.2285 62.2244 43.3864 62.4541V62.4684H43.4008C43.573 62.7124 43.7524 62.9277 43.939 63.1574L43.9892 63.2076" fill="#F5D4B7"/>
<path d="M74.2517 55.3423C73.9073 55.45 73.7135 55.5576 73.613 55.6653L73.5771 55.737V55.7872V55.8375L73.5915 55.8805L73.6202 55.938L73.6417 55.981L73.6992 56.0528L73.7279 56.0887L73.814 56.1604L73.8355 56.1891L73.9503 56.2752L73.9718 56.2896L74.1082 56.3901H74.1154L74.2589 56.4905L74.4742 56.5336L74.7684 56.4977C75.1416 56.4331 75.6081 56.2465 75.9956 56.0528H75.9884L75.9238 56.0743H75.8449H75.7372L75.6798 56.0528L75.5937 55.9882L75.5506 55.9595L75.4574 55.8447L75.1918 55.206L75.1775 55.1127L75.199 55.005L75.2277 54.9476L75.2779 54.8256C75.0268 55.0194 74.7038 55.1916 74.2589 55.3351" fill="#F5D4B7"/>
<path d="M59.8922 61.4709C59.8276 61.3202 59.5405 60.8035 59.4329 60.4662C59.318 60.1289 59.2678 59.928 59.2463 59.5907C59.1602 59.3395 59.0956 58.8372 59.1386 58.3851C59.1745 57.976 59.2606 57.5168 59.519 56.2178C59.6912 55.3567 59.4185 54.3735 59.4113 53.4621C59.4042 52.7588 59.3324 51.0293 59.3539 49.2927L59.0238 49.4147L58.9808 49.4362L58.7009 49.5869L58.6291 49.6371L58.421 49.8237C58.1914 50.1179 57.7105 51.3523 57.8182 52.2637C57.9258 53.1822 58.0622 54.5027 58.0765 55.1844C58.1052 56.7561 57.3446 58.9377 57.646 59.8634L57.7393 60.0931L57.768 60.1505L57.9043 60.4016L57.9258 60.4447L58.134 60.7533L58.1914 60.8322L58.4067 61.0977L58.4784 61.1767L58.7942 61.4924L58.8875 61.5786L59.1961 61.8226L59.3181 61.9158L59.7702 62.2101L59.8491 62.2531L60.3084 62.4756L60.3873 62.5187C60.2438 62.3536 60.2294 62.3249 60.1792 62.1096C60.1218 61.8943 59.9783 61.6288 59.9209 61.4781" fill="#F5D4B7"/>
<path d="M64.65 99.6491L64.4634 99.7423L64.4419 99.7567H64.4275L64.4132 99.7782L64.2194 99.893L64.162 99.9289L63.9395 100.08L63.8893 100.108C63.6955 100.252 63.4731 100.431 63.2147 100.668L63.1286 100.74L62.7985 101.056L62.6837 101.17L62.2387 101.637L62.1598 101.723C62.5186 101.615 62.9922 101.45 63.1429 101.479C63.2291 101.493 62.8272 101.917 62.5904 102.362C62.3607 102.799 60.9039 107.105 59.5476 109.387C59.0955 110.335 59.3108 109.94 59.0381 110.622L59.3323 110.571L59.6194 110.528C59.8418 110.492 60.2222 110.428 60.581 110.363L60.6958 110.335L60.7173 110.32L60.8178 110.284L60.8896 110.241H60.9039L60.9183 110.22L60.947 110.205L61.0331 110.141V110.127L61.1408 110.048L61.1623 110.033L61.1982 110.005L61.2484 109.947L61.2628 109.933L61.356 109.832L61.3704 109.811L61.4565 109.696H61.4709L61.5713 109.56V109.538L61.6646 109.409L61.6933 109.359L61.7507 109.265L61.7651 109.229L61.844 109.1L61.8656 109.057L61.9589 108.878L62.0378 108.749L62.0593 108.691L62.2531 108.289L62.2674 108.268L62.3894 107.988L62.4684 107.809C62.576 107.557 62.698 107.299 62.8128 107.026C64.5423 103.022 65.0088 101.084 65.1236 100.503C65.2743 99.7352 65.138 99.4051 64.6572 99.6491" fill="#F5D4B7"/>
<path d="M74.2376 103.18C75.5796 104.077 76.046 104.285 77.5172 104.902C77.9837 105.117 79.218 104.866 79.749 104.077L79.7203 104.098H79.7132L79.5912 104.141H79.5553L79.4548 104.127H79.3974L79.3113 104.098L79.2682 104.084L79.1462 104.012C78.9381 103.826 78.6869 103.618 77.7253 102.929C73.9793 100.252 71.3527 99.0534 70.4054 98.7161C70.0682 98.5941 69.7165 98.8596 69.9533 99.2041C70.1686 99.5127 70.3696 99.8284 70.5633 100.151L70.6279 100.252C71.8909 101.242 73.4984 102.555 74.2448 103.173" fill="#F5D4B7"/>
<path d="M53.0242 95.3074C51.3163 96.2618 52.3281 98.264 52.486 99.6562C52.8161 100.833 53.2252 102.864 54.7465 103.051C55.9019 103.187 58.55 102.462 59.9494 102.182C60.1503 101.831 60.3297 101.522 60.4517 101.3L60.5594 101.106C60.8536 100.546 60.3728 100.632 60.179 100.639C59.9781 100.647 59.4183 100.783 57.7319 101.12C55.945 101.465 55.2776 101.221 54.7968 100.797C54.3088 100.374 54.3662 99.4625 54.2729 98.4649C54.1724 97.4674 54.0433 96.9292 53.9787 96.1829L53.9356 95.7953L53.9213 95.5872V95.4868V95.3217L53.9356 95.2141L53.9859 95.0777L54.0002 95.0131C53.6557 95.0347 53.3974 95.2069 53.0242 95.3145" fill="#F5D4B7"/>
<path d="M50.1894 91.6474L51.9548 92.9607C52.0624 93.0325 53.6843 93.9295 54.6674 94.4534L54.7823 94.4032L55.0047 94.3027C56.3826 93.7573 57.6959 93.707 58.1408 93.6066C58.5929 93.4989 58.3633 93.176 58.2197 93.0325C58.0762 92.8818 57.4519 92.6593 56.4041 92.1928C51.4668 89.9897 48.4743 87.2627 48.1441 86.8967C47.8069 86.5451 47.4983 86.4231 47.1251 87.4995L47.0462 87.7722L47.0246 87.8942L46.9888 88.1239L46.9744 88.2602L46.9385 88.619L46.9242 88.8845V89.0137L46.917 89.1788C47.8069 89.9825 49.1991 90.9298 49.4215 91.0733L50.1894 91.6403" fill="#F5D4B7"/>
<path d="M44.9292 101.407C45.4028 102.283 46.7735 104.127 46.8309 104.228C46.9027 104.335 47.1969 104.651 47.5342 105.031C47.8786 105.426 48.18 105.756 48.2662 105.849L49.1632 106.775L49.6655 107.371C50.1464 107.801 51.9117 109.344 52.084 109.473L53.2537 110.191C54.7679 110.385 55.5143 109.552 55.6721 109.301C55.83 109.057 55.8516 108.957 55.7583 108.598V108.677L55.7439 108.698L55.6865 108.828L55.6721 108.842L55.5502 108.907H55.5286H55.4497L55.342 108.885L55.3133 108.871L55.0478 108.734C53.4977 107.73 52.2132 106.223 50.3688 104.149C48.302 101.816 45.1301 95.3863 44.9579 95.0777C44.7856 94.762 44.4125 94.8553 44.2833 94.8983C44.1541 94.927 43.7379 95.1997 43.4652 95.372C43.1925 95.5442 43.1279 95.9891 42.9844 97.5177V97.532C43.3719 98.3286 44.5273 100.654 44.9363 101.4" fill="#F5D4B7"/>
<path d="M31.8323 106.172C31.9687 105.677 32.0978 105.225 32.2055 104.838C32.428 104.063 32.5787 103.539 32.6217 103.388C32.8801 102.555 32.6217 101.651 32.1409 101.493L31.9256 101.436L31.8969 101.422C31.7319 101.386 31.5237 101.336 31.2941 101.271L31.1936 101.249L31.0429 101.214C30.7989 101.163 30.5478 101.106 30.3109 101.048C29.2991 102.692 28.2226 108.268 27.67 110.88C27.5696 111.174 27.4476 111.655 27.2969 112.265C28.0432 113.019 28.8111 113.765 29.5933 114.475C30.1602 112.272 30.8133 109.832 31.373 107.794C31.5381 107.22 31.6888 106.675 31.8251 106.172" fill="#F5D4B7"/>
<path d="M120.561 85.1026C118.752 84.7008 114.454 83.8396 108.655 83.3085C102.864 82.7775 98.1202 82.3254 97.4672 82.2608C96.8715 82.1962 96.6562 81.658 96.1108 81.3781C94.1517 80.3949 90.4415 79.4764 88.1164 78.6583C87.5423 78.4573 87.1619 77.955 86.3654 76.9862C85.8846 76.3977 85.5545 76.125 85.1454 75.7519C84.9014 75.5294 84.356 75.0701 84.2125 74.9553C84.0689 74.8476 83.9757 74.5247 84.0905 73.886C84.2196 73.2545 84.5928 70.7715 84.5641 67.8722C84.5641 67.0972 84.9014 66.602 85.2602 66.4226C85.454 66.3221 86.7314 65.7552 86.6453 64.5065C86.5591 63.2435 86.1644 61.4781 87.1835 58.9879C88.1738 56.5838 89.4081 52.2852 89.5517 49.4577C89.7096 46.4365 88.956 44.4989 87.7648 43.444C87.3055 43.0421 86.7529 42.4249 87.205 41.1188C87.6715 39.7123 88.547 35.8586 87.693 33.3038C87.5064 32.7369 87.2911 32.7369 87.1619 32.6651C87.0328 32.6005 86.4156 32.1269 86.1788 31.0863C85.8774 29.7156 84.8727 24.8429 81.0908 19.8912C79.0886 17.2575 76.95 15.693 76.096 15.0687C75.5147 14.6812 74.4814 13.9707 73.2542 13.3249C71.496 12.3919 70.0966 11.6886 67.2907 10.7701C67.0251 10.6911 66.4223 10.5046 65.6258 10.2964C65.6258 10.2964 63.236 9.65775 60.6454 9.36352C60.2076 9.32046 59.6048 9.26305 58.9087 9.21281C56.2534 9.06211 55.2775 9.22716 53.8996 9.36352L53.4547 9.41375C53.1748 9.44963 52.8877 9.49269 52.5863 9.54292C48.4743 10.2462 44.2905 12.1766 42.2596 13.1454C41.1114 13.6908 40.0923 14.2578 39.1594 14.796L39.0805 14.8391C38.8436 14.9898 38.4633 15.1979 38.0901 15.3988C37.5232 15.7289 36.9706 16.0303 36.4396 16.2887C34.7962 17.0853 33.3466 17.4943 32.2845 17.8675L31.8037 18.0397C31.0286 18.3339 30.555 18.6425 30.4689 19.152C30.3038 20.0634 31.3731 20.9031 30.9927 22.3599C30.0526 25.9265 26.0267 29.3496 25.3808 29.7443C23.5078 30.8854 23.6226 31.6819 23.5509 32.0838C23.5509 32.457 23.6298 32.8804 23.8451 33.3325C24.4694 34.6529 25.632 35.7868 26.1846 36.9781C26.7515 38.1693 27.0744 40.2648 26.651 42.712C26.242 45.0802 26.1272 45.604 25.9119 46.0418C25.7038 46.4724 25.2804 47.3264 25.8616 48.331C26.4429 49.3286 27.6773 50.3691 28.4451 50.9576C28.8614 51.2733 29.0695 51.5676 28.7681 52.1417C28.2729 53.0746 28.3949 55.2849 28.8757 56.5121C29.5933 58.3995 30.433 60.1935 31.2152 61.3418C31.9974 62.4972 33.3968 64.4563 34.2149 65.1668C35.033 65.8772 35.1478 67.1259 35.1335 67.8866C35.1191 68.6544 35.0115 70.8145 37.229 72.178C38.3269 72.8526 38.4346 72.6804 38.8365 73.0105C39.2312 73.3406 39.4249 73.5128 39.7048 74.3883C39.9775 75.2639 41.2405 78.3282 42.9916 80.4882C43.4939 81.1126 43.781 81.5503 43.8384 81.6508C43.9101 81.7584 44.0034 81.8661 43.781 82.3828C43.5585 82.8995 42.6758 85.8418 41.9797 88.8774C41.8434 89.4371 41.6639 90.1691 40.9607 90.5136C40.2574 90.8581 38.6929 91.7192 38.126 92.035C37.5519 92.3507 37.272 92.523 36.6118 93.3411C36.3176 93.7071 36.1023 93.9152 35.9157 94.1448C35.8081 94.274 35.765 94.3529 35.2052 94.64C34.7244 94.8912 27.5624 97.4172 19.9699 102.06L19.4316 102.369C19.8766 103.072 20.3359 103.761 20.8023 104.436C22.5103 103.575 26.5793 101.515 27.218 101.192C27.7203 100.941 28.3518 100.84 28.8614 100.833C29.1699 100.819 29.4283 100.848 29.6005 100.883C29.9378 100.97 30.5263 101.099 31.0717 101.221L31.2224 101.257L31.3228 101.278C31.5525 101.336 31.7606 101.386 31.9257 101.429L31.9544 101.443L32.1696 101.501C32.6505 101.658 32.9088 102.563 32.6505 103.395C32.6074 103.546 32.4567 104.077 32.2342 104.845C32.1266 105.232 31.9974 105.684 31.8611 106.18C31.7247 106.682 31.5668 107.227 31.409 107.801C30.8564 109.832 30.1962 112.279 29.6292 114.483C31.1434 115.86 32.7366 117.174 34.3871 118.394C34.5737 116.966 34.7675 115.473 34.9182 114.389C35.3057 111.562 37.5663 101.084 38.2049 98.7018C38.6714 96.9651 38.9082 96.1757 39.5182 95.903L40.0349 95.6447C40.1569 95.5801 40.4224 95.5227 40.3435 95.982C40.2502 96.5274 39.7766 98.7448 39.0876 105.957C38.6068 110.959 38.5925 115.401 38.7647 118.071C38.8436 119.205 38.8652 120.805 40.5947 120.116C42.6256 119.305 49.5507 116.822 53.2394 115.681C59.1886 113.844 70.3478 111.397 81.1051 109.811L84.112 109.38C84.112 109.38 85.8702 119.721 86.1788 121.515C85.8774 119.721 84.112 109.38 84.112 109.38C84.5354 109.323 84.966 109.265 85.3822 109.215C86.3438 109.093 87.2409 108.978 88.0949 108.863L91.2309 108.469C92.7093 108.275 93.9651 108.11 95.0272 107.974C95.0272 107.974 97.0581 117.36 97.8188 120.733C97.8762 120.948 97.9121 121.149 97.9552 121.314L98.3355 123.037L97.9623 121.314C97.338 118.645 95.0344 107.974 95.0344 107.974L98.2422 107.557C99.1967 107.435 100.402 107.285 100.761 107.27C101.522 107.234 101.845 106.811 101.271 106.632C100.854 106.502 99.8928 106.409 99.412 106.402H98.6872C97.9408 106.373 97.7255 106.23 97.5676 105.132C97.1012 101.917 95.3071 93.9439 94.0154 89.7314C92.7739 85.6839 92.4581 84.507 92.1639 83.6243C91.8983 82.8564 92.4079 82.799 92.659 82.8134C93.5632 82.8636 94.8191 83.3301 95.1779 84.1051C95.9745 85.8346 101.436 100.123 103.632 105.455C105.002 108.813 106.617 112.854 108.138 116.449C109.114 115.652 110.054 114.805 110.98 113.937C108.146 107.715 101.852 93.6138 98.5293 86.4877C98.4073 86.2221 98.2422 85.8131 98.1705 85.5691L98.1346 85.3538C98.1346 84.8945 98.7374 84.8299 99.0316 84.8586C100.201 84.9806 110.865 85.6767 113.772 85.9566C115.688 86.136 117.604 86.4302 118.889 86.6599C119.183 86.7101 119.448 86.7604 119.664 86.8034C119.936 86.8608 120.144 86.9039 120.274 86.9398C121.221 87.1838 122.9 87.8512 124.45 88.6764C125.089 89.0209 125.821 89.5161 126.603 90.1189C126.833 89.4515 127.07 88.7769 127.285 88.1023C126.725 87.7148 126.101 87.3201 125.484 86.99C123.711 86.0427 122.218 85.4543 120.589 85.0883M33.7987 49.7591C33.5116 49.8883 33.2533 49.9098 33.0452 49.5223C32.5643 48.5679 32.184 46.8527 32.0476 45.7404C31.8969 44.6281 31.6817 41.3054 31.7534 39.497C31.8324 37.6885 31.4735 36.6767 30.8277 35.8083C30.1818 34.94 29.7656 34.3372 29.6005 34.0501C29.3924 33.6913 29.5288 33.433 29.9163 33.1674C30.1029 33.0311 30.4832 33.11 30.7774 33.0526C31.3515 32.9378 33.2963 32.2273 34.746 31.1007C36.1812 29.9668 38.4848 27.778 40.0421 26.9312C41.5922 26.0844 42.2883 25.704 44.1111 25.4888C44.434 25.4529 44.9148 25.6179 44.3766 26.0413C43.8312 26.4576 42.073 27.0747 40.0349 30.1534C38.7791 32.0479 38.5781 33.1316 38.1834 33.9784C37.7815 34.8252 37.4012 35.0548 36.7697 35.7437C36.4611 36.0739 35.8368 36.7628 35.6071 37.7459C35.3775 38.7435 34.4733 42.2527 35.0115 47.556C35.0689 48.1732 35.3272 48.9984 34.746 49.2999C34.3871 49.4793 34.0786 49.6371 33.7915 49.7591H33.7987ZM36.296 56.914C35.9875 56.6915 34.7244 54.9835 34.1073 53.0818C34.0427 52.888 33.9709 52.3713 34.301 52.2278C34.5665 52.113 34.9325 51.8977 35.1263 51.8116C35.3129 51.7111 35.7937 51.5963 35.8511 52.278C35.9157 52.967 35.9803 53.7779 36.7625 55.8016C36.906 56.1604 36.9347 56.2824 36.9706 56.4188C37.0711 56.8422 36.5759 57.1149 36.2889 56.914H36.296ZM38.8652 50.4696C38.7791 50.4768 37.9179 50.5844 37.4443 50.6705C37.1572 50.7279 36.8558 50.8356 36.8271 50.5557C36.7912 50.2328 36.6979 49.8166 36.6692 49.7017L36.8414 49.4434C37.1859 49.3573 38.5135 49.1348 38.6499 49.1276C38.7719 49.1276 38.9011 49.1707 38.9585 49.4362C39.0159 49.7089 39.0733 49.9888 39.0948 50.1036C39.1092 50.2256 39.1379 50.4194 38.8723 50.4624L38.8652 50.4696ZM39.3316 46.1279C39.2599 45.726 39.1379 45.0371 39.1809 44.6065C39.1953 44.4343 39.2383 44.0037 39.4465 43.7669C39.7407 43.444 40.1282 43.1426 40.3794 42.9416C40.8387 42.5684 40.7382 41.5996 40.7741 41.0399C40.8817 39.4396 40.731 34.33 44.0393 29.4573L44.4268 28.9406L44.5345 28.8042L44.8287 28.4813L44.9507 28.3521L45.3095 28.0292L45.3526 27.9861L45.7545 27.6919L45.898 27.5914L46.1779 27.4335L46.3429 27.3474L46.6515 27.1967L46.7663 27.1393L47.1754 26.9886L47.3548 26.9384L47.6275 26.8523L47.7208 26.8236C48.3954 26.6513 49.0843 26.5437 49.7804 26.4289C51.7467 26.0987 54.0431 26.4073 55.2272 26.7805C56.1602 27.0747 56.641 27.3115 56.9567 27.0101C57.2725 26.7159 58.0906 25.783 58.4422 25.4529L58.5571 25.3022L58.5858 25.2448L58.6073 25.1443V25.0869V24.9864V24.929L58.5284 24.7926L58.1767 24.4554C57.7964 24.2329 53.957 21.4126 48.7757 21.2906C43.7164 21.1614 39.6043 22.9555 38.5207 23.3287C38.2911 23.4004 38.1834 23.4363 38.0542 23.4435C37.9251 23.4435 37.4801 23.2928 37.6452 22.977C37.8246 22.6326 38.2767 22.1087 38.736 21.6853C39.2312 21.2475 41.6209 18.9942 43.9891 17.9464C44.4268 17.7527 44.5345 17.6737 44.8072 17.5661C45.166 17.4225 45.3813 16.6188 44.5847 16.6188C43.7738 16.6188 43.458 16.7049 43.0275 16.7767C42.604 16.8484 42.3672 16.6475 42.6328 16.2887C42.9055 15.9227 43.4293 15.5136 44.3838 14.9969C46.4649 13.8774 50.254 12.6862 52.0481 12.2915C54.3804 11.7748 54.6675 11.7461 56.2247 11.6528C57.6744 11.5738 58.8369 11.6743 59.3823 11.6886C64.0254 11.8681 69.379 13.411 73.5269 16.1308C77.4667 19.0229 83.1288 23.8597 84.2555 35.7868C84.3919 37.2149 84.2986 38.0258 84.2412 38.3846C84.1981 38.7435 83.7891 39.4037 83.4303 38.6502C82.2533 36.1959 80.4377 32.9737 78.3853 29.9166L78.0408 29.6367L77.926 29.651L77.8973 29.6797L77.8471 29.7371L77.8255 29.7874L77.7968 29.8735V29.9524L77.8112 30.1534C77.8614 30.3687 78.5145 33.598 78.5432 34.0501C78.5719 34.5022 78.3494 35.6074 80.0287 37.6455C80.7104 38.4779 81.3204 39.1956 81.6362 40.4227C81.9376 41.6571 82.0452 42.1737 82.0524 42.3029C82.0524 42.4321 82.2031 42.8053 81.6075 42.8053C81.0262 42.8053 78.78 42.6402 77.8112 42.6617C76.8424 42.6904 70.2043 43.3363 67.7356 43.8602C65.2598 44.3912 63.9321 45.0084 62.6619 46.3432C62.3605 46.659 61.9299 46.9675 61.8366 46.9891C61.7362 47.0178 61.4204 47.0178 60.7889 46.9747C60.1574 46.9317 59.0666 47.0824 58.4996 47.3479C57.9255 47.5991 57.5093 47.8359 56.8204 47.556C55.83 47.1613 54.1293 45.3242 49.723 45.5466C47.0677 45.6758 45.7042 45.7404 43.8671 46.0203L43.537 46.0705L43.3217 46.0992L43.1997 46.1207C42.4533 46.2427 41.5994 46.4006 40.5588 46.6087L40.121 46.702C39.712 46.781 39.4321 46.6016 39.3532 46.1638L39.3316 46.1279ZM79.9426 44.994L79.5981 45.3098L78.048 45.4605L77.6677 45.1878L77.5959 44.4989C77.5815 44.3984 77.5744 44.2549 77.8184 44.2262C77.9547 44.2118 79.1962 44.097 79.6483 44.0468L79.9426 44.3266V44.994ZM74.3881 46.3217C74.0292 46.0633 73.3762 45.6543 72.9887 45.5107C72.716 45.4103 72.8164 45.0802 73.1968 45.0299C74.5316 44.829 75.3856 44.829 76.0601 45.2452C76.541 45.5538 76.8639 46.1351 76.7204 46.6518C76.5481 47.2402 76.3185 47.1111 76.0243 47.1111C75.73 47.1039 74.7541 46.58 74.3881 46.3217ZM75.1631 48.9267C74.9263 49.0846 74.1656 48.9482 73.8857 48.8334C73.3116 48.6109 72.9097 48.453 72.106 47.9507C71.5893 47.6206 70.6851 47.4555 69.8885 47.6924C69.3646 47.8502 68.9484 47.9866 68.4819 48.166C68.0226 48.3382 67.9294 47.922 68.0585 47.7426C68.1662 47.5632 68.9053 46.7092 69.8741 46.3432C70.0751 46.2643 70.4913 46.2284 70.6922 46.2212C71.3166 46.2069 72.0845 46.5083 72.6729 46.9388C73.2614 47.3622 74.1943 48.0727 74.8186 48.331C75.1057 48.4459 75.73 48.5392 75.1703 48.9267H75.1631ZM55.9449 69.6807C53.6126 70.4988 52.9595 69.6807 52.7514 69.4367C52.5433 69.1927 52.8016 68.9559 53.0456 68.841C53.591 68.5827 54.3374 68.0301 54.7177 67.6569C55.0981 67.2909 55.8229 66.0207 56.3539 65.5758C56.6051 65.3605 57.9614 64.9012 58.9805 65.382C60.1933 65.9561 62.0806 66.0207 63.236 65.8629C64.3914 65.7121 64.8364 64.8653 65.0875 64.363C65.3387 63.8678 65.9559 63.6741 66.2716 63.5449C67.1615 63.1789 68.3384 61.9589 68.4532 61.8441C68.568 61.7149 68.9412 61.5355 69.5225 61.8728C70.5774 62.4971 71.1228 63.3224 72.106 64.4419C73.0963 65.5614 74.2661 65.7409 74.6034 65.7552C74.9406 65.7767 75.1488 66.1714 75.1703 66.2863C75.1846 66.3939 74.9048 66.7671 74.6966 66.9321C74.4814 67.0828 74.3665 67.3699 72.4792 67.4129C63.0064 67.6498 58.7508 68.6975 55.9377 69.6735L55.9449 69.6807ZM68.7905 70.8217C68.2236 71.1159 66.5515 71.7475 65.7262 71.8982C64.8938 72.056 62.2457 72.5943 61.7936 72.6301C61.2338 72.6804 60.4588 72.501 59.777 72.0489C59.6479 71.9556 59.4613 71.5896 59.9564 71.5178C60.8678 71.3815 62.3533 70.6854 67.7284 70.4198C68.3097 70.384 68.5824 70.3768 68.7259 70.3696C68.8551 70.3696 69.3574 70.5275 68.7905 70.8145V70.8217ZM56.3252 82.7703C54.4522 83.0717 49.4503 81.6149 46.1922 73.5846C45.3598 71.525 46.2783 69.4582 47.0821 69.0491C47.5557 68.8052 47.8212 68.7047 47.9791 68.6616C48.1585 68.6114 49.0053 68.5109 49.1058 69.4654C49.1848 70.2404 50.6846 76.5987 52.7083 78.7013C53.2035 79.2252 53.5982 79.1893 53.7274 78.6511C53.8422 78.1559 54.0575 77.5101 54.1221 77.2589C54.1651 77.0795 54.6531 76.5413 54.9258 77.2302C55.5215 78.6942 56.2391 80.5959 56.7127 81.3638C57.172 82.1101 57.0213 82.6411 56.3252 82.7631V82.7703ZM56.6984 61.7795C56.8778 62.0307 56.9854 62.4684 56.9711 62.6694C56.9567 62.8918 56.1817 63.3081 55.3708 62.3967C54.567 61.4925 54.7249 60.2366 55.0622 59.7056C55.586 58.8587 56.641 59.275 56.5405 59.5836C56.1889 60.6385 56.5262 61.5355 56.7056 61.7795H56.6984ZM50.7061 50.0318C50.1033 50.0103 49.4503 49.9385 48.3451 50.3476C47.1108 50.7997 46.3214 51.3953 45.7473 51.7542C45.1588 52.1202 44.5345 52.278 44.3264 52.2924C44.1254 52.3067 43.3647 52.2134 43.8886 51.6609C44.0321 51.5102 44.3622 51.3953 44.8646 51.0294C45.2234 50.7638 45.4889 50.5772 45.898 50.2328C46.63 49.6156 48.1155 48.7114 48.7685 48.6325C49.2422 48.575 50.089 48.6612 50.5913 49.0702C51.1152 49.5008 51.3089 50.0534 50.7133 50.0318H50.7061ZM40.3291 51.1011C40.3866 50.7064 40.8243 49.6658 41.7285 49.3644C41.8577 49.3214 42.3026 49.1779 42.6902 49.0774C43.1279 48.9626 43.6159 48.8693 43.8527 48.8262C44.513 48.7114 44.6493 49.2137 44.2331 49.5438C43.9604 49.7591 43.5298 50.039 43.1494 50.3548C42.561 50.8284 42.0084 51.3595 41.5707 51.7183C41.0468 52.156 40.1928 51.9192 40.322 51.1083L40.3291 51.1011ZM43.415 62.4397L43.4078 62.4254C43.2427 62.1957 43.092 61.9517 42.9557 61.7149L42.8624 61.5427C42.7189 61.2772 42.5897 61.0188 42.4749 60.7389C42.2739 60.1935 42.6184 60.1146 42.848 60.2366C43.0777 60.3586 43.7379 60.7389 44.4484 60.8968C44.8789 60.9829 45.1445 60.7748 45.2449 60.4662L45.3024 60.294L45.3311 60.2151L45.3526 60.1505L45.3813 60.05L45.3956 59.9926L45.41 59.8921V59.7271L45.3956 59.6768L45.3598 59.562L45.3382 59.5333L45.2378 59.4113L45.0368 59.2821C44.4197 59.0382 42.6615 58.4784 41.341 56.0313C41.1472 55.6796 41.3338 55.3926 41.463 55.2849C41.5922 55.1845 42.0515 54.8902 42.2668 54.7539C42.482 54.6247 42.7906 54.6319 43.0992 54.8472C43.4006 55.0553 44.0537 55.5361 44.5775 55.493C45.0655 55.45 45.1158 55.249 45.1947 55.1199C45.5392 54.6247 46.4721 52.7947 48.912 52.7732C49.9167 52.7517 50.864 52.8521 51.1941 52.8234C51.5314 52.8019 52.7227 52.6943 53.426 52.2206C54.1077 51.747 54.4091 52.0915 54.0073 52.6081L53.8422 52.8234L53.7848 52.8952L53.6484 53.1033C53.4977 53.3617 53.469 53.5841 53.7561 53.8855C54.201 54.3592 54.3158 54.4453 54.4594 54.5601L54.689 54.6391L54.811 54.6247L54.8612 54.6103L55.0622 54.4812C55.3205 54.2587 55.4856 54.1224 55.708 53.8353C55.8731 53.6272 56.0166 53.8353 55.9736 54.1654C55.9449 54.4238 56.0597 56.0815 54.2512 58.1196L53.8853 58.4425L53.7561 58.5502L53.6915 58.6147L53.5193 58.7655L53.3757 58.909L53.2322 59.0525L53.1461 59.153L52.9667 59.3683L52.9093 59.4472L52.7227 59.7199L52.5146 60.1074C52.0051 61.1767 52.0768 61.5283 52.0194 61.923C51.9692 62.3106 51.6678 62.4613 51.3305 62.6191C51.1224 62.7053 50.5841 63.0282 49.9813 63.4731L49.4359 63.9109L48.8116 64.5065L48.4815 64.8151L48.3666 64.894L48.1298 65.0519L48.0007 65.1237L47.7567 65.2242L47.6203 65.2672L47.5557 65.2887L47.3978 65.3103L47.2113 65.3462H46.9888L46.8022 65.3246L46.5726 65.2672L46.386 65.217L46.1635 65.1093L45.9698 65.0089L45.9554 64.9945L45.5894 64.729C45.2736 64.4563 44.922 64.1405 44.5775 63.7889L44.5488 63.7602L44.5273 63.7243L43.9963 63.1574L43.946 63.1071C43.7666 62.8847 43.58 62.6622 43.4078 62.4182L43.415 62.4397ZM65.1162 100.503C65.0086 101.092 64.5349 103.022 62.8054 107.026C62.6906 107.292 62.5758 107.55 62.461 107.809L62.3892 107.981L62.26 108.268L62.2457 108.289L62.0519 108.691L62.0304 108.749L61.9515 108.878L61.8582 109.057V109.072L61.8366 109.1L61.7577 109.229L61.7433 109.258L61.6859 109.359L61.6644 109.387V109.409L61.5711 109.538V109.56L61.4635 109.689H61.4491L61.363 109.811L61.3486 109.832L61.2554 109.933L61.241 109.947L61.1908 110.005L61.1549 110.033L61.1334 110.048L61.0329 110.127V110.141L60.9324 110.205L60.9037 110.22L60.8894 110.234H60.875L60.8032 110.292L60.7028 110.327L60.6813 110.342L60.5664 110.371C60.2148 110.442 59.8273 110.5 59.6048 110.536L59.3177 110.579L59.0235 110.629C56.4257 111.067 49.3713 112.279 46.0989 112.94C43.9245 113.37 44.147 112.279 43.6016 110.306C43.3719 109.481 42.561 102.139 42.9844 97.532C43.1279 96.0035 43.1925 95.5586 43.4652 95.3863C43.7379 95.2141 44.1541 94.9414 44.2833 94.9127C44.4053 94.8696 44.7785 94.7835 44.9579 95.0921C45.1229 95.4007 48.3021 101.831 50.3688 104.163C52.2132 106.237 53.4977 107.737 55.0478 108.749L55.3133 108.885L55.3421 108.899L55.4497 108.921H55.5573L55.6793 108.849L55.6937 108.835L55.7511 108.706V108.684C55.8013 108.44 55.6865 108.081 55.4569 107.83C55.1196 107.457 53.7058 106 51.84 103.352C49.4287 99.9218 47.7997 94.8696 47.3548 93.255C47.0677 92.1929 46.9099 90.5208 46.9314 89.186V89.0209V88.8917L46.9529 88.6262L46.9888 88.2674L47.0031 88.131L47.039 87.9014L47.0606 87.7794L47.1395 87.5067C47.5127 86.4302 47.8284 86.5522 48.1585 86.9039C48.4886 87.2699 51.4812 89.9969 56.4185 92.2C57.4663 92.6665 58.0906 92.889 58.2341 93.0397C58.3776 93.1832 58.6001 93.5061 58.1552 93.6138C57.7174 93.7142 56.397 93.7645 55.0191 94.3099L54.7967 94.4103C54.3158 94.6185 54.0862 94.8337 53.9929 95.0706L53.9427 95.2069L53.9283 95.3146V95.4796V95.5801L53.9427 95.7882L53.9857 96.1757C54.0503 96.9221 54.1867 97.4603 54.28 98.4578C54.3732 99.4553 54.3158 100.367 54.8038 100.79C55.2918 101.214 55.9592 101.458 57.7389 101.113C59.4254 100.776 59.9851 100.639 60.1861 100.632C60.3798 100.632 60.8607 100.546 60.5664 101.099L60.4588 101.292C60.0713 101.981 59.1312 103.546 58.8082 104.579C58.4494 105.727 58.3776 106.043 58.3489 106.244C58.3202 106.445 58.4566 106.825 58.8011 106.395C59.1527 105.971 59.8488 104.385 61.5783 102.369C61.8151 102.096 62.0304 101.867 62.2313 101.644L62.6763 101.17L62.7911 101.056L63.1212 100.74L63.2073 100.668C63.4585 100.431 63.6881 100.252 63.8819 100.108L63.9321 100.08L64.1546 99.929L64.212 99.8931L64.4058 99.7782L64.4417 99.7567L64.4632 99.7424L64.6498 99.6491C65.1306 99.4051 65.2669 99.7424 65.1162 100.503ZM67.9939 109.344C67.7141 109.402 66.5084 109.588 66.329 109.588L66.0635 109.294C66.1424 109.165 66.9677 108.081 67.427 106.208C67.4988 105.9 67.6925 105.692 67.8145 106.129C67.915 106.452 68.281 108.045 68.3671 108.648C68.3815 108.756 68.4461 109.229 67.9939 109.344ZM68.4963 94.0372C67.7069 94.3386 66.8242 93.4487 66.1137 92.9751C64.5206 91.8771 63.0423 90.8222 61.8366 89.351C59.9851 87.0905 60.1574 85.5117 60.6956 82.5981C61.0688 80.5241 60.4014 78.5793 60.2435 78.2995C60.1 78.0339 60.265 77.7397 60.7028 77.955C61.1334 78.1559 61.5639 78.8018 62.0089 79.3472C62.4538 79.8926 62.5543 79.5051 62.5902 79.1319C62.6763 78.2779 62.4753 77.589 62.3749 77.1871L62.3605 77.1297C62.2959 76.8857 62.0806 76.3547 61.607 76.2542C60.9898 76.125 60.3727 76.0748 60.0426 75.838L59.8847 75.3284C60.2076 75.0199 60.6669 74.6108 61.1047 74.4601C61.7003 74.252 62.2744 73.9434 63.0279 73.9506C68.1231 73.9865 69.4938 72.8024 71.4386 71.9914C71.8261 71.8336 72.0558 71.7546 72.3859 71.8623C72.716 71.9627 73.6058 72.3 73.8283 72.6947C74.0508 73.0894 74.0867 74.7472 74.5244 75.9456C74.955 77.1441 75.687 75.9026 75.8449 75.3859C76.0027 74.8763 76.0601 73.642 76.0673 73.3406C76.0745 73.0248 76.1678 71.7187 76.5768 71.2882C77.3878 70.4127 77.5744 69.3864 77.6748 68.9846C77.7681 68.6257 77.8399 67.6211 77.6605 66.1786L77.5815 65.626C77.3088 63.8965 76.9644 63.7458 76.4907 63.4372C76.0171 63.1287 75.5291 63.2578 74.3307 62.4397C73.2614 61.7006 72.2854 60.416 71.4816 59.6266C70.6779 58.8444 69.3933 58.055 68.0442 57.9186H67.8145L67.8002 57.9115L67.6351 57.933H67.6064L67.4916 57.9689L67.4701 57.9832L67.3911 58.0335L67.3696 58.055L67.3265 58.1052L67.305 58.1483L67.2835 58.1913L67.2691 58.2631V58.2846V58.3923C67.2907 58.7224 67.5347 59.1314 67.5921 59.2965C67.6782 59.5261 67.8935 60.2223 67.5131 60.6241C67.1328 61.0332 64.8722 63.0497 62.7624 62.9851C61.8079 62.9708 61.0114 62.7699 60.3511 62.49L60.2722 62.4541L59.8129 62.2316L59.734 62.1886L59.2819 61.8943L59.1599 61.801L58.8513 61.557L58.758 61.4709L58.4422 61.1552L58.3705 61.0762L58.1552 60.8107L58.0978 60.7318L57.8897 60.4232L57.8681 60.3801L57.7318 60.129L57.7031 60.0715L57.6098 59.8419C57.3084 58.9162 58.0691 56.7345 58.0404 55.1629C58.026 54.4812 57.8897 53.1607 57.782 52.2422C57.6815 51.3379 58.1624 50.0964 58.3848 49.8022L58.5929 49.6156L58.6647 49.5654L58.9446 49.4147L58.9876 49.3931L59.3177 49.264C59.5187 49.1994 59.7268 49.142 59.9636 49.0917C60.71 48.9123 61.5926 49.2927 61.8151 49.9098C62.5973 52.0699 63.4657 52.522 63.7671 52.6656C64.0613 52.8091 64.5206 52.3857 64.7144 52.2278C64.8866 52.0699 65.3315 51.4958 65.1378 51.2375C64.8364 50.8499 64.6713 50.6131 64.5852 50.3691C64.4417 49.9673 64.9727 49.9601 65.0947 50.0103C66.7094 50.6921 67.4701 50.8356 69.0273 50.7854C70.5846 50.7351 73.003 49.7089 73.2973 49.7017C73.5341 49.7017 74.0149 49.8453 74.2087 50.1036L74.3163 50.2687C74.467 50.4983 74.6679 50.8069 74.8617 50.8715H74.8761C75.1129 50.9361 75.6583 50.893 75.9453 50.9074C76.34 50.9217 77.0146 50.7925 77.0074 51.5102C76.9644 53.4334 75.4358 54.6319 75.2995 54.7539L75.1918 54.9261L75.1631 54.9835L75.1416 55.0912L75.1559 55.1845L75.4215 55.8232L75.5147 55.938L75.5578 55.9667L75.6439 56.0313L75.7013 56.0528H75.809H75.8879L76.053 55.9954C77.3447 55.2132 77.8686 54.3018 78.4283 53.1607C78.9881 52.0197 79.2823 48.2521 79.3182 47.6349C79.3469 47.0178 79.5407 46.6374 79.8493 46.3791C80.1507 46.1279 81.6577 45.1663 81.873 45.1089C82.0883 45.0586 82.3323 45.0371 82.5834 45.5969C82.8274 46.1638 83.3657 49.6443 83.4661 50.1754C83.581 50.7423 83.8752 50.6777 84.0259 50.5629C84.3488 50.3332 84.5785 50.039 84.8727 49.5438C85.1669 49.0487 84.9445 48.3669 84.6646 48.0583C84.3704 47.7426 83.9254 47.2259 84.1192 46.7307C84.5569 45.5753 85.4755 45.6399 85.7195 45.6758C85.9635 45.7189 86.8892 46.1351 87.0615 48.6396C87.2983 52.3498 85.7841 56.182 85.4325 57.158C84.6287 59.3252 84.4636 60.7964 84.3416 61.4853C84.2196 62.1886 83.6886 62.0594 83.5666 61.9446L83.1863 61.2126C83.1001 61.1336 82.892 61.1767 82.7557 61.7723C82.6193 62.368 82.1672 63.1933 81.9017 63.6454C81.7223 63.9324 81.7582 64.3558 81.8012 64.6716C81.8873 65.3103 82.2103 67.7143 82.1098 70.4557C81.9232 75.3356 80.2942 78.4071 79.0814 80.0218C76.218 83.8037 73.5413 85.3897 73.2111 85.6121C72.8021 85.9064 72.106 85.849 71.8763 85.7772C71.6395 85.7126 71.4314 85.4686 70.9937 85.1529L70.886 85.0883C70.5415 84.9304 70.477 85.4184 70.4841 85.5476C70.4913 85.6911 70.7066 86.1934 70.8214 86.6886C71.0511 87.6072 70.5415 88.7339 70.0105 89.6237C69.257 90.8724 68.4102 92.2431 68.5896 93.7573L68.4748 94.03L68.4963 94.0372ZM92.7595 95.4796C93.1901 97.9626 93.6709 100.977 94.2235 104.687L94.2881 105.204V105.268L94.3239 105.656V105.835L94.3024 105.95V105.993L94.2163 106.187L94.1948 106.215L94.0871 106.323L94.0441 106.352L93.8647 106.431L93.8001 106.452L93.6207 106.495L93.4987 106.517L93.226 106.574L92.616 106.668C92.3146 106.696 91.9557 106.725 91.5682 106.761C87.7791 107.105 80.3875 107.852 74.467 108.598L74.1225 108.634C73.6633 108.698 73.3906 108.627 73.3618 108.175C73.3331 107.758 72.637 103.646 70.5487 100.144C70.3478 99.8213 70.154 99.4984 69.9387 99.197C69.7019 98.8525 70.0536 98.5941 70.3908 98.709C71.3381 99.0463 73.9718 100.252 77.7107 102.921C78.6723 103.61 78.9163 103.819 79.1316 104.005L79.2536 104.077L79.2967 104.091L79.3828 104.12H79.4402L79.5407 104.134H79.5766L79.6986 104.091L79.7631 103.747C79.5263 103.094 78.2776 101.802 75.0626 98.8238C74.6105 98.4004 74.5962 98.221 75.0698 98.1779C75.5506 98.1349 76.8352 98.1851 77.5169 98.1636C78.2059 98.1349 79.7344 98.0918 79.433 96.0896C79.2034 94.5395 79.0168 92.9248 78.9953 92.4512C78.9594 91.9704 78.8876 91.0733 77.7681 90.9513C76.6558 90.8293 74.7828 91.0877 73.1178 91.669C72.6514 91.834 72.4935 91.6187 72.8308 91.303C73.1681 90.9944 76.1176 89.0783 78.6149 86.2006C81.3635 83.0287 82.5763 80.7035 83.2652 78.5865C83.3944 78.2133 83.5522 78.3353 83.703 78.4214C83.8537 78.5147 84.8871 79.3472 85.253 81.4068C85.619 83.4592 86.3223 86.3154 85.0665 93.8147C84.3775 97.9267 83.5379 100.352 83.337 100.926C83.1432 101.501 83.4805 101.823 83.8608 101.314C84.7435 100.108 85.9204 96.757 86.9036 92.9033C87.8724 89.107 88.2312 85.8418 88.3819 83.7535L88.4106 83.2152V83.1435L88.4465 82.6698L88.4752 82.4402L88.4896 82.3828L88.5183 82.2967L88.5757 82.2034L88.59 82.1819L88.6475 82.146L88.6833 82.1244H88.712L88.7695 82.1173H88.7982H88.8269H88.8412L89.0422 82.189C89.2359 82.268 90.1042 82.512 90.5492 84.5931L90.6138 84.8586L90.6353 84.9519L90.6927 85.2103V85.2246C91.0659 86.8537 91.7476 89.6811 92.7451 95.4509L92.7595 95.4796Z" fill="#261C02"/>
<path d="M55.0125 94.3099L54.79 94.4032L55.0125 94.3099Z" fill="white"/>
<path d="M62.5831 102.362C62.8271 101.917 63.2218 101.493 63.1357 101.479C62.985 101.45 62.5114 101.615 62.1525 101.723L62.2315 101.644C62.0305 101.867 61.8153 102.096 61.5784 102.369C59.8418 104.385 59.1457 105.971 58.8012 106.395C58.4496 106.825 58.3132 106.445 58.3491 106.244C58.3778 106.05 58.4496 105.735 58.8084 104.579C59.1313 103.539 60.0714 101.981 60.4589 101.292C60.3298 101.515 60.1575 101.823 59.9566 102.175C58.5572 102.455 55.9091 103.18 54.7537 103.043C53.2324 102.857 52.8233 100.826 52.4932 99.6491C52.3353 98.2568 51.3234 96.2618 53.0314 95.3002C53.4046 95.1925 53.6558 95.0203 54.0074 94.9988L53.993 95.0634C54.0935 94.8265 54.316 94.6113 54.7968 94.4031L54.682 94.4534C53.6988 93.9367 52.077 93.0325 51.9693 92.9607L50.2039 91.6474L49.4361 91.0805C49.2136 90.937 47.8214 89.9897 46.9315 89.1859C46.91 90.5136 47.0679 92.1928 47.3549 93.2549C47.7927 94.8696 49.4289 99.9217 51.8401 103.352C53.706 106 55.1197 107.457 55.457 107.83C55.6867 108.074 55.8015 108.44 55.7656 108.684V108.605C55.8661 108.964 55.8445 109.064 55.6867 109.308C55.5288 109.56 54.7824 110.392 53.2682 110.198L52.0985 109.481C51.9334 109.351 50.1609 107.809 49.6801 107.378L49.1777 106.782L48.2807 105.857C48.1946 105.763 47.8932 105.426 47.5487 105.038C47.2114 104.658 46.9172 104.342 46.8454 104.235C46.788 104.134 45.4173 102.29 44.9437 101.414C44.5418 100.668 43.3864 98.343 42.9917 97.5464V97.532C42.5755 102.139 43.3792 109.481 43.6089 110.306C44.1543 112.279 43.939 113.37 46.1062 112.94C49.3787 112.279 56.4402 111.067 59.0308 110.629C59.3035 109.947 59.0882 110.342 59.5404 109.395C60.9039 107.105 62.3535 102.807 62.5831 102.369" fill="white"/>
<path d="M67.8223 106.129C67.7003 105.692 67.5066 105.9 67.4348 106.208C66.9827 108.081 66.1574 109.172 66.0713 109.294L66.3368 109.588C66.5234 109.588 67.729 109.409 68.0017 109.344C68.4538 109.229 68.3892 108.749 68.3749 108.648C68.2888 108.045 67.9228 106.459 67.8223 106.129Z" fill="white"/>
<path d="M35.0119 47.556C34.4737 42.2455 35.3779 38.7434 35.6076 37.7459C35.8372 36.7556 36.4615 36.0667 36.7701 35.7437C37.4016 35.0548 37.782 34.8252 38.1839 33.9784C38.5786 33.1244 38.7795 32.0479 40.0354 30.1534C42.0734 27.0747 43.8316 26.4575 44.377 26.0413C44.9224 25.6179 44.4344 25.4529 44.1115 25.4887C42.2887 25.704 41.5926 26.0844 40.0425 26.9312C38.4853 27.778 36.1817 29.9668 34.7464 31.1006C33.2968 32.2345 31.3592 32.9378 30.7779 33.0526C30.4836 33.11 30.1033 33.0311 29.9167 33.1674C29.5292 33.4401 29.3928 33.6913 29.601 34.0501C29.7588 34.3443 30.1751 34.94 30.8281 35.8083C31.474 36.6767 31.8328 37.6813 31.7539 39.497C31.6893 41.3126 31.9046 44.628 32.0481 45.7404C32.1844 46.8455 32.5576 48.5607 33.0456 49.5223C33.2465 49.9098 33.5121 49.8883 33.7991 49.7591C34.0862 49.6371 34.3947 49.4793 34.7536 49.2998C35.3348 49.0056 35.0765 48.1803 35.0191 47.556" fill="white"/>
<path d="M36.7699 55.8016C35.9877 53.7779 35.9303 52.967 35.8585 52.278C35.8011 51.5963 35.3203 51.7183 35.1337 51.8116C34.94 51.8977 34.5812 52.113 34.3085 52.2278C33.9712 52.3713 34.0501 52.8809 34.1147 53.0818C34.7319 54.9835 35.9949 56.6915 36.3035 56.914C36.5905 57.1149 37.0785 56.8422 36.9852 56.4188C36.9493 56.2824 36.9206 56.1604 36.7771 55.8016" fill="white"/>
<path d="M52.8519 53.7277C52.4357 53.9645 52.1199 54.0219 51.9334 54.1224C51.7468 54.23 51.431 54.4525 51.51 54.8615C51.5889 55.2706 51.7037 55.3998 51.7396 55.7083C51.7683 56.0241 51.6248 56.5838 51.266 57.2297C50.9071 57.8684 50.3402 58.3277 50.0245 58.5143C49.7015 58.7009 49.5078 58.7583 49.3283 58.8516C49.2925 58.8731 49.2566 58.9664 49.2207 59.1673L49.2996 59.1171L49.6369 59.0669L49.8953 59.0023L50.2828 58.9449C50.3259 58.9449 51.2014 58.7583 51.7468 58.5143C52.2778 58.2631 53.2323 57.8038 53.7633 57.158C54.158 56.6771 54.6388 55.8088 54.6891 54.9476V54.6606H54.6963H54.7106L54.481 54.5745C54.3374 54.4597 54.2226 54.3735 53.7777 53.8999C53.4978 53.5913 53.5193 53.3688 53.67 53.1177L53.6557 53.132C53.5265 53.2612 53.2682 53.5052 52.8591 53.742" fill="white"/>
<path d="M70.0471 89.6381C70.5781 88.7482 71.0876 87.6287 70.858 86.7029C70.7432 86.2078 70.5351 85.7054 70.5207 85.5619C70.5207 85.4327 70.5781 84.9447 70.9226 85.1026L70.9082 85.0883C70.9082 85.0883 70.9082 84.8515 70.5566 83.7104C70.1834 82.5766 69.4299 81.3709 69.2936 81.0982C69.1572 80.8327 68.741 80.2371 68.7266 80.1725C68.7123 80.1007 68.5616 79.7204 68.4539 79.0243C68.253 77.6823 68.3463 76.7852 68.3534 76.6991L68.4109 76.326L68.3391 76.1824L67.9157 76.3116C67.5425 76.6848 67.5282 76.7637 67.521 76.8211L67.5353 77.1369C67.4995 77.5531 67.4277 77.8761 67.2339 78.1846C67.0474 78.5004 66.9254 78.6009 66.6527 78.5722C66.3871 78.5506 66.1575 78.3425 66.1288 77.7756C66.1001 77.223 65.9853 77.0364 65.8704 76.8929L65.4183 76.6991C65.3394 76.6991 65.2676 76.7781 64.6863 76.9288C64.0979 77.0723 63.1721 77.1297 63.043 77.1297L62.3899 77.1871C62.4904 77.589 62.6913 78.2707 62.6052 79.1319C62.5693 79.5051 62.4688 79.8926 62.0239 79.3472C61.579 78.8018 61.1556 78.1559 60.7178 77.955C60.2801 77.7469 60.115 78.0339 60.2585 78.2995C60.4092 78.5793 61.0838 80.5241 60.7106 82.5981C60.1724 85.5117 60.0002 87.0905 61.8517 89.351C63.0573 90.8222 64.5285 91.8699 66.1288 92.9751C66.8464 93.4487 67.7219 94.3386 68.5113 94.0372L68.6262 93.7645C68.4539 92.2503 69.2936 90.8796 70.0471 89.6309" fill="white"/>
<path d="M74.8836 50.9074L74.5535 50.9648L74.2808 51.1514C74.1947 51.2734 74.1732 51.4743 74.3526 51.6968C74.532 51.9049 74.7832 52.3211 74.7616 52.6656C74.7545 52.8234 74.7616 53.3258 74.6038 53.6846C74.4243 54.0937 74.2091 54.4955 74.0727 54.6821C73.9866 54.7826 73.5991 55.2132 73.5488 55.5146L73.5775 55.7155V55.7299L73.6134 55.6581C73.7139 55.5505 73.9076 55.4428 74.2521 55.3352C74.697 55.1916 75.0272 55.0194 75.2712 54.8256L75.2209 54.9476L75.3286 54.7754C75.4577 54.6534 76.9935 53.455 77.0365 51.5317C77.0437 50.8141 76.3691 50.9432 75.9744 50.9289C75.6802 50.9145 75.142 50.9576 74.9052 50.9074L74.8836 50.893V50.9002" fill="white"/>
<path d="M74.7109 66.9393C74.919 66.7742 75.2061 66.4011 75.1845 66.2934C75.163 66.1786 74.9549 65.7839 74.6176 65.7624C74.2803 65.748 73.1106 65.5614 72.1202 64.4491C71.1371 63.3296 70.5917 62.5043 69.5368 61.88C68.9555 61.5427 68.5895 61.7149 68.4675 61.8513C68.3455 61.9733 67.1686 63.1932 66.2859 63.5521C65.9629 63.6812 65.3529 63.875 65.1018 64.3702C64.8506 64.8725 64.4057 65.7193 63.2503 65.87C62.0877 66.0279 60.2075 65.9633 58.9947 65.3892C57.9757 64.9084 56.6193 65.3677 56.3682 65.583C55.8371 66.0279 55.1123 67.2981 54.732 67.6641C54.3588 68.0373 53.6125 68.5899 53.0599 68.8482C52.8159 68.963 52.5575 69.1998 52.7656 69.4438C52.9738 69.6878 53.6268 70.5059 55.9591 69.6878C58.7722 68.7119 63.0278 67.6569 72.5006 67.4273C74.3808 67.3842 74.5028 67.0972 74.7181 66.9465" fill="white"/>
<path d="M67.7355 70.427C62.3604 70.6925 60.8749 71.3886 59.9635 71.525C59.4683 71.5896 59.6549 71.9556 59.7841 72.056C60.4587 72.5153 61.2409 72.6876 61.8006 72.6373C62.2527 72.6014 64.8936 72.0632 65.7333 71.9053C66.5657 71.7475 68.2306 71.1159 68.7976 70.8289C69.3645 70.5418 68.8621 70.3768 68.733 70.384C68.5894 70.384 68.3167 70.3983 67.7355 70.4342" fill="white"/>
<path d="M58.5144 24.7783C59.4258 23.9889 61.55 21.8862 63.4374 21.9652C65.3248 22.0441 70.7285 22.7187 73.7857 24.8357C76.8428 26.9599 77.7829 29.041 78.0484 29.6223H78.0412L78.3857 29.9022C80.4381 32.9593 82.2609 36.1815 83.4307 38.6358C83.7895 39.3893 84.1914 38.7363 84.2416 38.3703C84.299 38.0115 84.3923 37.2077 84.256 35.7725C83.1293 23.8454 77.4671 19.0157 73.5273 16.1165C69.3794 13.3894 64.0258 11.8537 59.3828 11.6743C58.8302 11.6599 57.6748 11.5523 56.2252 11.6384C54.6679 11.7389 54.3808 11.7676 52.0485 12.2771C50.2544 12.6718 46.4653 13.8631 44.3842 14.9826C43.4297 15.4993 42.9059 15.9083 42.6332 16.2743C42.3676 16.6403 42.6045 16.8341 43.0279 16.7623C43.4585 16.6906 43.7742 16.6044 44.5851 16.6044C45.3817 16.6044 45.1664 17.4154 44.8076 17.5517C44.5277 17.6594 44.4201 17.7311 43.9895 17.9321C41.6213 18.9798 39.2316 21.226 38.7364 21.6709C38.2771 22.0943 37.825 22.6254 37.6456 22.9627C37.4806 23.2784 37.9255 23.4291 38.0547 23.4291C38.1838 23.4291 38.2915 23.3861 38.5211 23.3143C39.6048 22.9412 43.7168 21.1471 48.7761 21.2762C53.9574 21.4054 57.7968 24.2257 58.1771 24.441L58.5288 24.7783V24.7639H58.5216" fill="white"/>
<path d="M38.9592 49.4434C38.9089 49.1779 38.7798 49.1348 38.6506 49.1348C38.5142 49.1348 37.1938 49.3644 36.8422 49.4506L36.6699 49.7089C36.6986 49.8237 36.7919 50.24 36.8278 50.5629C36.8565 50.8428 37.1579 50.7351 37.445 50.6777C37.9186 50.5916 38.7798 50.4839 38.8659 50.4768C39.1242 50.4337 39.0955 50.24 39.0883 50.118C39.074 50.0031 39.0094 49.7233 38.952 49.4506" fill="white"/>
<path d="M79.6559 44.054C79.2038 44.1042 77.9695 44.219 77.826 44.2334C77.582 44.2692 77.5891 44.4056 77.6035 44.5061L77.6753 45.195L78.0556 45.4677L79.6057 45.317L79.9502 45.0012V44.3338L79.6559 44.054Z" fill="white"/>
<path d="M30.3108 101.048C30.5476 101.106 30.7988 101.156 31.0428 101.213C30.4974 101.084 29.9089 100.962 29.5716 100.876C29.3994 100.84 29.1411 100.812 28.8325 100.826C28.3229 100.833 27.6986 100.934 27.1891 101.192C26.5504 101.508 22.4814 103.567 20.7734 104.428C22.7254 107.227 24.8998 109.847 27.2896 112.265C27.4403 111.655 27.5694 111.181 27.6627 110.88C28.2153 108.268 29.2846 102.692 30.3036 101.048" fill="white"/>
<path d="M119.635 86.8178C119.413 86.7747 119.155 86.7245 118.86 86.6742C117.576 86.4446 115.66 86.1504 113.744 85.971C110.837 85.6983 100.173 84.995 99.0035 84.8802C98.7093 84.8443 98.1064 84.916 98.1064 85.3681L98.1423 85.5834C98.2213 85.8274 98.3863 86.2365 98.5011 86.502C101.824 93.6353 108.125 107.73 110.952 113.952C117.913 107.45 123.324 99.3046 126.568 90.1332C125.786 89.5304 125.054 89.0353 124.415 88.6908C122.865 87.8583 121.186 87.1909 120.238 86.9541C120.102 86.9182 119.901 86.8752 119.628 86.8178" fill="white"/>
<path d="M86.4735 123.403L86.1362 121.508C85.8276 119.714 84.0694 109.373 84.0694 109.373L81.0625 109.804V109.832C81.1414 110.435 82.304 120.116 82.5408 121.63L83.323 127.149C83.3876 127.622 83.4594 128.089 83.5383 128.563C84.7583 128.275 85.9639 127.967 87.1552 127.608C87.0619 126.984 86.9615 126.352 86.8538 125.699C86.6959 124.917 86.5955 124.156 86.4591 123.388" fill="white"/>
<path d="M88.0596 108.863C88.117 109.129 88.1744 109.416 88.239 109.717C88.6767 111.863 89.2724 115.085 90.2053 119.42L90.9158 123.64C90.9373 123.819 91.1598 125.025 91.375 126.209C92.5017 125.778 93.6069 125.312 94.6905 124.816L94.0446 121.458C93.4777 118.444 91.1956 108.476 91.1956 108.476L88.0596 108.871" fill="white"/>
<path d="M98.2205 107.557L95.0127 107.974C95.0127 107.974 97.3163 118.645 97.9406 121.314L98.3138 123.037C99.4333 122.434 100.524 121.795 101.601 121.135C100.273 116.212 98.2277 107.557 98.2277 107.557" fill="white"/>
<path d="M47.7637 27.29L47.6919 27.4981C47.1609 28.5961 47.3044 27.8282 46.228 30.1605C44.8429 33.1961 44.2329 37.7388 43.8311 41.6714C43.91 42.9775 43.9818 44.707 43.8526 45.9915C45.6897 45.7188 47.0532 45.6471 49.7085 45.5179C54.1148 45.2954 55.8227 47.1326 56.8059 47.5273C57.4948 47.8072 57.911 47.5703 58.4851 47.3192C59.0521 47.0536 60.1429 46.9029 60.7744 46.946C61.3987 46.9891 61.7217 46.9891 61.8221 46.9604C61.9154 46.9388 62.346 46.6374 62.6474 46.3145C63.9176 44.9797 65.2524 44.3625 67.7211 43.8315C70.1898 43.3076 76.8279 42.6617 77.7967 42.633C78.7583 42.6115 81.0045 42.7765 81.593 42.7765C82.1886 42.7765 82.0379 42.4106 82.0379 42.2742C82.0379 42.145 81.9302 41.6283 81.6217 40.394C81.3059 39.1668 80.6959 38.4492 80.0142 37.6168C78.3421 35.5787 78.5645 34.4735 78.5287 34.0214C78.5071 33.5765 77.8541 30.3471 77.7967 30.1247L77.7752 29.9237V29.8448L77.8039 29.7587L77.8254 29.7084L77.8756 29.651L77.9043 29.6223L78.0191 29.608H78.0263C77.7608 29.0267 76.8207 26.9455 73.7636 24.8213C70.7136 22.6971 65.3027 22.0297 63.4153 21.9508C61.5207 21.8719 59.4037 23.9745 58.4923 24.7639V24.7855L58.5569 24.9218V24.9792L58.5713 25.0797V25.1371L58.5426 25.2376L58.5138 25.295L58.399 25.4457C58.0546 25.7758 57.2293 26.7015 56.9135 27.0029C56.5978 27.2972 56.117 27.0675 55.184 26.7733C53.9999 26.4001 51.7035 26.0916 49.7372 26.4217C49.0411 26.5365 48.3522 26.6441 47.6776 26.8164L47.7206 27.2828" fill="#FFF1E2"/>
<path d="M43.1858 46.092C42.4395 46.214 41.5855 46.3719 40.5449 46.58C41.5927 46.3791 42.4395 46.214 43.1858 46.092Z" fill="#FFF1E2"/>
<path d="M43.5229 46.0346L43.3076 46.0705L43.5229 46.0346Z" fill="#FFF1E2"/>
<path d="M43.8526 45.9915L43.5225 46.0346L43.8526 45.9915Z" fill="#FFF1E2"/>
<path d="M43.3075 46.0705L43.1855 46.092L43.3075 46.0705Z" fill="#FFF1E2"/>
<path d="M40.1074 46.6661L40.5452 46.5728L40.1074 46.6661Z" fill="#FFF1E2"/>
<path d="M46.7735 59.763C46.7735 59.763 46.8381 60.0859 46.9099 60.2868L46.9243 60.3155C46.953 60.4375 47.0247 60.6313 47.197 60.9327C47.2974 61.0978 47.4122 61.2915 47.5845 61.5283C47.8285 61.88 48.1012 62.2316 48.3452 62.533C48.747 63.0569 49.0843 63.4444 49.0843 63.4444C49.436 63.71 49.7661 63.588 50.0029 63.4731C50.5985 63.021 51.1439 62.7053 51.3521 62.6191C51.6822 62.4613 51.9907 62.3106 52.041 61.923C52.0984 61.5283 52.0266 61.1767 52.5362 60.1074L52.7443 59.7199L52.9308 59.4472L52.9883 59.3683L53.1677 59.153L53.2538 59.0525L53.3973 58.909L53.5408 58.7654L53.5552 58.7511L53.1461 59.0669C53.0457 59.153 52.407 59.4257 51.919 59.5764C51.4382 59.7343 50.9789 59.8778 50.2541 60.0357C49.7087 60.1577 49.3714 59.8419 49.314 59.7343L49.1274 59.397V59.275L49.1346 59.2606L49.2135 59.153C49.2494 58.952 49.2853 58.8516 49.3212 58.8372C49.5006 58.7439 49.6943 58.6865 50.0173 58.4999C50.333 58.3133 50.8999 57.8541 51.2588 57.2154C51.6176 56.5767 51.7683 56.0097 51.7324 55.694C51.6965 55.3854 51.5817 55.2562 51.5028 54.8472C51.4238 54.4381 51.7324 54.2156 51.9262 54.108C52.1199 54.0075 52.4285 53.9573 52.8447 53.7133C53.261 53.4765 53.5121 53.2253 53.6413 53.1033L53.6557 53.089L53.792 52.8809L53.8494 52.8091L54.0145 52.5938C54.4164 52.0771 54.1149 51.7326 53.4332 52.2063C52.7299 52.6871 51.5386 52.7947 51.2014 52.8091C50.8641 52.8378 49.924 52.7373 48.9193 52.7589C46.4793 52.7804 45.5464 54.6103 45.2019 55.1055C45.123 55.2347 45.0728 55.4356 44.5848 55.4787C44.0609 55.5289 43.4007 55.0481 43.1064 54.8328C42.7907 54.6104 42.4893 54.6032 42.274 54.7395C42.0587 54.8759 41.5922 55.1701 41.4702 55.2706C41.3411 55.3782 41.1545 55.6653 41.3482 56.0169C42.6615 58.464 44.4269 59.0238 45.044 59.2678L45.245 59.397V59.3826C45.733 59.5692 46.2712 59.6768 46.7879 59.7486" fill="#FFF1E2"/>
<path d="M45.2305 59.4113L45.3309 59.5333L45.2305 59.4113Z" fill="#FFF1E2"/>
<path d="M64.6715 76.9359C65.26 76.7852 65.3245 76.7063 65.4035 76.7063L65.8556 76.9001C65.9632 77.0364 66.0781 77.2302 66.1139 77.7827C66.1427 78.3497 66.3723 78.5578 66.6378 78.5793C66.9105 78.608 67.0325 78.5075 67.2191 78.1918C67.4129 77.8832 67.4846 77.5603 67.5205 77.144L67.5062 76.8283C67.5133 76.7709 67.5277 76.6919 67.9009 76.3188L68.3243 76.1824L68.396 76.3331L68.3386 76.7063C68.3386 76.7924 68.2381 77.6895 68.4391 79.0314C68.5467 79.7204 68.6974 80.1007 68.7118 80.1796C68.7261 80.2442 69.1424 80.8399 69.2787 81.1054C69.4151 81.3781 70.1758 82.5837 70.5418 83.7176C70.9006 84.8586 70.8934 85.0954 70.8934 85.0954L70.9077 85.1098L71.0154 85.1744C71.4531 85.4901 71.6613 85.7341 71.8981 85.7987C72.1277 85.8705 72.8238 85.9279 73.2329 85.6337C73.563 85.404 76.2469 83.8252 79.1031 80.0433C80.3231 78.4358 81.9521 75.3643 82.1315 70.4772C82.2392 67.7359 81.9091 65.3246 81.823 64.6931C81.7799 64.3702 81.744 63.9468 81.9234 63.6669C82.189 63.2148 82.6411 62.3895 82.7774 61.7939C82.9138 61.1982 83.1219 61.1552 83.208 61.2341L83.5883 61.9661C83.7175 62.0809 84.2414 62.2101 84.3634 61.5068C84.4782 60.8107 84.6504 59.3395 85.4542 57.1795C85.813 56.2035 87.32 52.3713 87.0832 48.6611C86.911 46.1566 85.9852 45.7404 85.7412 45.6973C85.4972 45.6614 84.5787 45.604 84.1409 46.7522C83.9472 47.2546 84.3921 47.7641 84.6863 48.0799C84.9662 48.3956 85.1887 49.0774 84.8944 49.5654C84.6002 50.0605 84.3706 50.3548 84.0476 50.5844C83.8969 50.6921 83.6027 50.7638 83.4879 50.1969C83.3802 49.6658 82.8492 46.1853 82.6052 45.6184C82.354 45.0586 82.11 45.0802 81.8947 45.1304C81.6794 45.1878 80.1724 46.1494 79.871 46.4006C79.5624 46.6518 79.3687 47.0393 79.3399 47.6565C79.3041 48.2736 79.0098 52.0484 78.4501 53.1822C77.8903 54.3233 77.3665 55.2419 76.0747 56.0169L75.9671 56.06H75.9742C75.5795 56.2465 75.1131 56.4331 74.7471 56.4977L74.4529 56.5336L74.2376 56.4905L74.094 56.3901H74.0869L73.9505 56.2896L73.929 56.2752L73.8142 56.1891L73.7926 56.1604L73.7065 56.0887L73.6778 56.0528L73.6204 55.981L73.5989 55.938L73.563 55.8805V55.8375L73.5558 55.7873V55.737V55.7298L73.5271 55.5217C73.5845 55.2203 73.9649 54.7897 74.051 54.6893C74.1873 54.5027 74.4026 54.0936 74.582 53.6918C74.7471 53.3329 74.7256 52.8306 74.7399 52.6727C74.7614 52.3211 74.5103 51.912 74.3309 51.7039C74.1514 51.4815 74.173 51.2805 74.2591 51.1585L74.5318 50.9719L74.8619 50.9145C74.6753 50.8428 74.4672 50.5342 74.3237 50.3045L74.216 50.1395C74.0223 49.8811 73.5486 49.7376 73.3046 49.7376C73.0032 49.7376 70.5848 50.771 69.0275 50.8212C67.4775 50.8715 66.7096 50.7279 65.0949 50.0462C64.9657 49.9959 64.4419 50.0031 64.5854 50.405C64.6715 50.649 64.8366 50.8858 65.138 51.2733C65.3389 51.5245 64.894 52.1058 64.7146 52.2637C64.5208 52.4216 64.0615 52.845 63.7673 52.7014C63.4731 52.5579 62.6047 52.1058 61.8153 49.9457C61.5928 49.3214 60.7102 48.9482 59.9638 49.1276C59.727 49.1778 59.5189 49.2353 59.318 49.307C59.3036 51.0437 59.3682 52.7732 59.3754 53.4765C59.3754 54.3879 59.6552 55.3782 59.483 56.2322C59.2247 57.5311 59.1385 57.9976 59.1027 58.3994C59.0668 58.8516 59.1242 59.3539 59.2103 59.6051C59.2318 59.9424 59.2821 60.1433 59.3969 60.4806C59.5045 60.8107 59.7916 61.3346 59.8562 61.4853C59.9136 61.636 60.0571 61.9015 60.1145 62.1168C60.1648 62.3321 60.1719 62.3608 60.3226 62.5187C60.99 62.7985 61.7866 62.9995 62.7339 63.0138C64.8437 63.0712 67.0971 61.0547 67.4846 60.6528C67.865 60.2509 67.6497 59.5548 67.5636 59.3252C67.5062 59.1601 67.2622 58.7511 67.2406 58.421L67.2048 58.3994C67.1043 58.22 66.889 57.7105 67.176 57.4522C67.4487 57.1866 67.743 56.957 67.8004 56.9211C67.865 56.8852 69.4366 56.1461 71.4029 57.1364C72.2067 57.5383 72.5727 57.854 72.7592 57.9976L73.8931 59.031C74.051 59.1745 75.7446 60.6672 76.4909 61.1623C77.266 61.6719 77.8688 62.1957 78.1774 62.7555C78.5003 63.3224 78.6941 63.796 78.5218 64.7577C78.3711 65.5471 77.6392 66.2145 77.6392 66.2145H77.632C77.8114 67.6426 77.7468 68.6473 77.6535 69.0132C77.553 69.4151 77.3664 70.4413 76.5555 71.3169C76.1393 71.7546 76.0532 73.0607 76.046 73.3693C76.0317 73.6707 75.9742 74.905 75.8235 75.4146C75.6657 75.9312 74.9337 77.1728 74.5031 75.9743C74.0653 74.7759 74.0223 73.1181 73.807 72.7234C73.5773 72.3359 72.6947 71.9914 72.3574 71.891C72.0273 71.7905 71.8048 71.8694 71.4173 72.0201C69.4725 72.8239 68.1018 74.008 63.0066 73.9793C62.2531 73.9649 61.6718 74.2807 61.0833 74.4888C60.6456 74.6395 60.1863 75.0486 59.8634 75.3571L60.0284 75.8667C60.3585 76.1035 60.9757 76.1609 61.5929 76.2829C62.0593 76.3834 62.2818 76.9072 62.3464 77.1584L62.3607 77.2158L63.0138 77.1584C63.1429 77.1584 64.0687 77.101 64.6571 76.9575" fill="#FFF1E2"/>
<path d="M91.0304 100.647C90.3702 94.3242 90.0329 91.5326 89.8679 90.6643L89.8248 90.1619C89.4516 88.1741 88.9708 85.9781 88.3824 83.7822C88.2317 85.8776 87.8729 89.1357 86.904 92.932C85.9209 96.7857 84.744 100.137 83.8613 101.343C83.4809 101.852 83.1436 101.536 83.3374 100.955C83.5383 100.381 84.3852 97.9554 85.0669 93.8434C86.3228 86.3441 85.6195 83.4879 85.2535 81.4355C84.8875 79.3831 83.8541 78.5434 83.7034 78.4501C83.5527 78.364 83.3948 78.242 83.2656 78.6152C82.5767 80.7394 81.3711 83.0645 78.6154 86.2293C76.1108 89.0998 73.1685 91.0231 72.8312 91.3317C72.494 91.6403 72.6518 91.8555 73.1183 91.6977C74.7832 91.1164 76.6562 90.8509 77.7686 90.98C78.8881 91.1092 78.967 92.0062 78.9957 92.4799C79.0244 92.9607 79.2038 94.5682 79.4335 96.1183C79.7349 98.1205 78.1991 98.1635 77.5174 98.1923C76.8428 98.221 75.5511 98.1635 75.0703 98.2066C74.5966 98.2568 74.611 98.4291 75.0631 98.8525C78.2781 101.831 79.5268 103.122 79.7636 103.775L79.699 104.12H79.7062L79.7349 104.098C79.2038 104.881 77.9695 105.139 77.503 104.924C76.0319 104.306 75.5726 104.098 74.2235 103.201C73.4771 102.584 71.8696 101.271 70.6066 100.281L70.542 100.18C72.6303 103.682 73.3264 107.801 73.3551 108.21C73.3838 108.663 73.6565 108.734 74.1158 108.67L74.4603 108.634C80.3808 107.895 87.7796 107.141 91.5615 106.797H91.3893C91.3031 104.96 91.1668 102.764 91.0161 100.668M77.869 99.0534H77.4456V100.13H77.1873V99.0534H76.7711V98.8381H77.869V99.0534ZM79.4837 100.13H79.2469V99.0821L78.8881 100.13H78.6871L78.3283 99.0821V100.13H78.0987V98.8309H78.4575L78.7876 99.7495L79.1177 98.8309H79.4909V100.13H79.4837Z" fill="white"/>
<path d="M76.792 99.0319H77.2082V100.108H77.4666V99.0319H77.89V98.8094H76.792V99.0319Z" fill="#261C02"/>
<path d="M78.795 99.728L78.4721 98.8094H78.1133V100.108H78.3429V99.0606L78.7017 100.108H78.9027L79.2615 99.0606V100.108H79.4983V98.8094H79.1323L78.795 99.728Z" fill="#261C02"/>
<path d="M127.737 63.387H127.615V63.6741H127.744L127.874 63.6597L127.96 63.5305L127.902 63.4157L127.737 63.387Z" fill="#C41230"/>
<path d="M128.211 63.2507L127.766 63.0641L127.321 63.2507L127.135 63.6956L127.321 64.1405L127.766 64.3343L128.211 64.1405L128.398 63.6956L128.211 63.2507ZM128.039 63.7961L128.082 63.9181V64.0401L128.096 64.0903H127.967V64.0472L127.96 63.9898L127.888 63.8032L127.73 63.7745H127.623V64.0903H127.486V63.2866H127.766L127.982 63.3153L128.104 63.5162L128.025 63.6741L127.91 63.71L128.046 63.7889L128.039 63.7961Z" fill="#C41230"/>
<path d="M70.0032 10.1386C68.5608 10.1386 65.7476 10.2893 65.6328 10.2893C66.4294 10.4974 67.0322 10.684 67.2977 10.7629C70.1037 11.6815 71.5031 12.3847 73.2613 13.3177C74.4812 13.9635 75.5218 14.6812 76.1031 15.0615C76.9571 15.6859 79.0956 17.2575 81.0978 19.884C84.8798 24.8357 85.8844 29.7084 86.1859 31.0791C86.4227 32.1197 87.0398 32.5862 87.169 32.6579C87.2982 32.7225 87.5207 32.7225 87.7001 33.2966C88.554 35.8442 87.6785 39.7051 87.2121 41.1116C86.76 42.4249 87.3125 43.0421 87.7718 43.4368C88.9631 44.4917 89.7166 46.4365 89.5587 49.4506C89.4152 52.278 88.1809 56.5767 87.1905 58.9807C86.1715 61.4709 86.5662 63.2363 86.6523 64.4993C86.7384 65.748 85.4682 66.315 85.2673 66.4154C84.9085 66.5948 84.564 67.0972 84.5712 67.865C84.5999 70.7571 84.2267 73.2401 84.0975 73.8788C83.9827 74.5175 84.076 74.8405 84.2195 74.9481C84.3631 75.0629 84.9085 75.5222 85.1525 75.7447C85.5615 76.1178 85.8916 76.3905 86.3724 76.979C87.169 77.9478 87.5494 78.4502 88.1235 78.6511C90.4558 79.4692 94.1588 80.3878 96.1179 81.3709C96.6633 81.6508 96.8714 82.1819 97.4742 82.2536C98.1273 82.3254 102.871 82.7703 108.662 83.3014C114.453 83.8324 118.752 84.6936 120.568 85.0954C122.197 85.4614 123.689 86.0571 125.462 86.9972C126.079 87.3273 126.703 87.722 127.263 88.1095C129.036 82.433 130.012 76.3905 130.012 70.1256C130.012 36.9852 103.151 10.1314 70.0176 10.1314M101.5 73.9362C98.6153 73.9506 97.424 74.0295 96.3045 72.4866C95.0917 70.8145 94.8621 70.6208 93.8574 69.0061C93.8574 69.0061 93.678 69.6448 93.477 70.3624C93.2761 71.1159 93.0393 71.9556 92.946 72.2928C92.7737 72.9531 93.6923 73.1397 93.6923 73.1397L93.4985 73.9219H87.6929L87.8077 73.4482L87.8867 73.1468H88.0876C88.4536 73.0966 89.0779 72.8813 89.5013 71.2953C89.6233 70.9293 89.4152 71.5896 91.2667 64.9012C91.5322 63.9037 90.7715 63.753 90.506 63.6884L90.5419 63.5521L90.6854 62.978H96.2327L96.0462 63.6884C96.0462 63.6884 95.2998 63.7745 95.0989 64.4635L94.1444 67.9368L94.1085 68.0588L98.7803 64.485C99.2324 64.0759 98.6799 63.7171 98.2852 63.6884L98.3211 63.5521L98.4646 62.978H104.277L104.091 63.6884C104.091 63.6884 103.789 63.6525 103.309 63.9037C103.144 63.9826 102.957 64.1046 102.749 64.2769L102.598 64.3989L98.0699 68.0301C98.0699 68.0301 100.632 72.0058 100.919 72.3216C101.213 72.6373 101.701 73.1684 102.433 73.1684L102.239 73.9362H101.493H101.5ZM112.293 69.9964C112.293 69.9964 112.114 69.7309 111.669 69.5515C111.439 69.4654 111.16 69.3936 110.794 69.3936H108.511C108.511 69.3936 108.447 69.6304 108.354 69.9677C108.138 70.7428 107.794 72.0202 107.779 72.0776C107.543 72.9244 108.468 73.1612 108.468 73.1612L108.289 73.9291H103.323L105.806 64.9012C106.143 63.8032 105.045 63.6884 105.045 63.6884L105.081 63.5521L105.225 62.978H115.178L114.439 65.9131H114.066L113.815 65.4825C113.628 65.3318 113.355 65.2026 113.018 65.2026H109.688L109.538 65.7767L109.121 67.3053H112.954L112.293 69.9964ZM125.95 66.0494H125.57L125.311 65.7696C124.845 65.2959 124.149 64.973 122.972 64.973C121.479 64.973 120.281 65.3964 119.477 66.0925C118.716 66.7455 118.3 67.6354 118.307 68.6544C118.307 70.5634 119.951 72.0202 122.405 72.0058C123.316 72.0058 124.436 71.7546 125.333 71.4604L124.802 73.7568C124.551 73.7999 124.292 73.8429 124.02 73.8932C123.101 74.0582 122.103 74.1659 120.955 74.1731C116.348 74.1874 114.36 71.8264 114.353 69.3721C114.353 67.7072 115.257 66.0566 116.879 64.8295C118.472 63.6238 120.761 62.8344 123.582 62.8775C124.787 62.8918 125.943 63.1071 126.718 63.3583L125.964 66.0566L125.95 66.0494ZM127.78 64.4204L127.263 64.1979C127.127 64.0544 127.055 63.8894 127.055 63.6812L127.263 63.1645L127.78 62.9493C127.981 62.9493 128.153 63.021 128.304 63.1645L128.512 63.6812C128.512 63.8894 128.44 64.0544 128.304 64.1979C128.153 64.3486 127.988 64.4204 127.78 64.4204Z" fill="#C41230"/>
<path d="M116.858 64.8294C115.236 66.0566 114.332 67.7143 114.332 69.3721C114.346 71.8335 116.327 74.1946 120.934 74.173C122.082 74.173 123.087 74.0582 123.999 73.8932C124.271 73.8429 124.53 73.7999 124.781 73.7568L125.312 71.4604C124.415 71.7546 123.295 71.9986 122.384 72.0058C119.93 72.0201 118.286 70.5562 118.286 68.6544C118.286 67.6354 118.695 66.7455 119.456 66.0925C120.26 65.3892 121.458 64.973 122.951 64.973C124.128 64.973 124.824 65.2959 125.29 65.7695L125.549 66.0494H125.929L126.683 63.3511C125.907 63.0999 124.752 62.8847 123.546 62.8703C120.726 62.8272 118.437 63.6166 116.844 64.8223" fill="white"/>
<path d="M113.004 65.2098C113.341 65.2098 113.607 65.3318 113.8 65.4897L114.052 65.9203H114.425L115.164 62.9851H105.21L105.067 63.5592L105.031 63.6956C105.031 63.6956 106.122 63.8176 105.792 64.9084L103.309 73.9291H107.535H108.275L108.454 73.1612C108.454 73.1612 107.528 72.9244 107.765 72.0776C107.779 72.0273 108.131 70.7428 108.339 69.9677C108.433 69.6304 108.497 69.3936 108.497 69.3936H110.779C111.152 69.3936 111.425 69.4582 111.655 69.5515C112.107 69.7237 112.279 69.9964 112.279 69.9964L112.939 67.3053H109.107L109.523 65.7767L109.674 65.2026H113.004" fill="white"/>
<path d="M100.913 72.3215C100.625 72.0058 98.0635 68.0301 98.0635 68.0301L102.592 64.3989L102.742 64.2769C102.943 64.1046 103.13 63.9826 103.302 63.9037C103.783 63.6525 104.084 63.6884 104.084 63.6884L104.271 62.9708H98.4582L98.3147 63.5521L98.2788 63.6884C98.6663 63.7171 99.2261 64.0759 98.774 64.485L94.1022 68.0588L94.1381 67.9368L95.0925 64.4634C95.2934 63.7745 96.0398 63.6884 96.0398 63.6884L96.2264 62.9708H90.6791L90.5355 63.5521L90.4996 63.6884C90.7652 63.753 91.5259 63.9037 91.2603 64.9012C89.4088 71.5896 89.617 70.9293 89.495 71.2953C89.0787 72.8813 88.4544 73.0966 88.0812 73.1396H87.8803L87.8013 73.4482L87.6865 73.9219H93.4922L93.6859 73.1396C93.6859 73.1396 92.7674 72.9531 92.9396 72.2928C93.0329 71.9555 93.2625 71.1087 93.4707 70.3624C93.6716 69.6448 93.851 69.0061 93.851 69.0061C94.8557 70.6207 95.0853 70.8145 96.2981 72.4866C97.4176 74.0223 98.6089 73.9506 101.494 73.9362H102.24L102.434 73.1683C101.702 73.1683 101.221 72.6373 100.92 72.3215" fill="white"/>
<path d="M128.29 63.1789C128.139 63.0354 127.974 62.9636 127.766 62.9636L127.249 63.1789L127.041 63.6956C127.041 63.9037 127.113 64.0688 127.249 64.2123L127.766 64.4347C127.967 64.4347 128.139 64.363 128.29 64.2123C128.426 64.0688 128.498 63.9037 128.498 63.6956L128.29 63.1789ZM128.211 64.1405L127.766 64.3343L127.321 64.1405L127.134 63.6956L127.321 63.2506L127.766 63.0641L128.211 63.2506L128.397 63.6956L128.211 64.1405Z" fill="white"/>
<path d="M128.096 63.5162L127.974 63.3152L127.758 63.2865H127.479V64.0903H127.615V63.7745H127.723L127.88 63.8032L127.952 63.9898V64.0759L127.959 64.0903H128.088L128.074 64.04V63.918L128.031 63.796L127.895 63.7171L128.01 63.6812L128.088 63.5234M127.866 63.6669L127.737 63.6812H127.608V63.387H127.73L127.895 63.4229L127.952 63.5305L127.866 63.6597V63.6669Z" fill="white"/>
</g>
<defs>
<clipPath id="clip0_750_3230">
<rect width="124" height="124" fill="white" transform="translate(8 8)"/>
</clipPath>
</defs>
</svg>
