<svg width="140" height="140" viewBox="0 0 140 140" fill="none" xmlns="http://www.w3.org/2000/svg">
<rect width="140" height="140" rx="30" fill="black"/>
<g clip-path="url(#clip0_3517_15)">
<path d="M59.3054 43.4574H69.9985V32.6194H80.6916V22H112.997V54.0739H102.304V64.3594C102.304 64.383 101.994 64.6903 101.971 64.6903H91.721C91.6972 64.6903 91.3877 64.9976 91.3877 65.0212V75.3067H102.304V85.9232H112.997V117.997H80.6916V107.381H69.9985V96.5426H59.3054V117.666C59.3054 117.69 58.9959 117.997 58.9721 117.997H27V22H58.9721C58.9959 22 59.3054 22.3073 59.3054 22.3309V43.4545V43.4574Z" fill="#52FA18"/>
</g>
<defs>
<clipPath id="clip0_3517_15">
<rect width="86" height="96" fill="white" transform="translate(27 22)"/>
</clipPath>
</defs>
</svg>
