<svg width="140" height="140" viewBox="0 0 140 140" fill="none" xmlns="http://www.w3.org/2000/svg">
<rect width="140" height="140" rx="30" fill="#F6ADC1"/>
<g clip-path="url(#clip0_813_616)">
<path d="M92.6855 104.994C92.4744 104.994 92.3506 104.994 92.2268 104.994C86.2332 104.994 80.2396 104.994 74.246 105C73.9562 105 73.7902 104.916 73.627 104.677C66.0717 93.7888 58.5107 82.9062 50.9498 72.0208C50.871 71.9066 50.795 71.7896 50.75 71.7228C64.8392 63.8652 72.4254 52.03 73.3287 36H88.2508C87.7921 51.044 82.3501 63.971 71.6404 74.7366C78.6329 84.7919 85.6311 94.8528 92.6827 104.994H92.6855Z" fill="black"/>
<path d="M33 36.0167H48.4398V105H33V36.0167Z" fill="black"/>
<path d="M117 96.2984C117 101.078 113.038 105 108.21 105.003C103.384 105.003 99.4105 101.078 99.4077 96.3068C99.4077 91.5187 103.384 87.5912 108.235 87.5996C113.109 87.6079 117.003 91.4741 117 96.2984Z" fill="black"/>
</g>
<defs>
<clipPath id="clip0_813_616">
<rect width="84" height="69" fill="white" transform="translate(33 36)"/>
</clipPath>
</defs>
</svg>
