<svg width="140" height="140" viewBox="0 0 140 140" fill="none" xmlns="http://www.w3.org/2000/svg">
<rect width="140" height="140" rx="30" fill="#AFE23F"/>
<g clip-path="url(#clip0_2492_1244)">
<path d="M71.9756 44.7228C81.2552 42.1361 89.4962 43.8266 95.9648 51.0875C102.388 58.2917 103.359 66.6531 99.8595 75.6839C100.13 75.8314 100.458 76.0016 100.797 76.1831C107.604 79.8817 111.702 85.5656 112.774 93.269C114.411 104.977 106.881 115.982 95.3665 118.41C86.8433 120.214 79.3022 117.888 72.9803 111.818C71.8965 110.775 70.9934 109.538 70.0113 108.392C69.9097 108.279 69.8081 108.165 69.5936 107.938C69.2436 108.335 68.9275 108.721 68.5889 109.073C65.7214 112.068 62.7073 114.893 58.948 116.754C54.9404 118.739 50.7296 119.34 46.3268 118.75C41.6532 118.115 37.5665 116.22 34.1347 112.942C31.1544 110.094 29.1901 106.622 28.0724 102.674C27.3725 100.201 27.0226 97.671 27.0226 95.0956C27.0226 78.282 26.9887 61.4684 27.0339 44.6548C27.0564 38.9821 28.5692 33.718 32.1478 29.2139C35.9748 24.3808 41.0323 21.7488 47.1397 21.1248C52.2649 20.6029 57.0514 21.6353 61.4316 24.3922C65.665 27.0697 68.5663 30.8476 70.3161 35.5332C71.3095 38.188 71.7949 40.9335 71.9078 43.7698C71.9078 44.0761 71.953 44.3825 71.9756 44.7228ZM34.5749 69.9659C34.5749 78.0778 34.5411 86.1896 34.5975 94.3014C34.6088 96.1734 34.7669 98.0794 35.1733 99.8946C37.7585 111.455 50.865 114.292 57.9659 108.392C60.743 106.089 63.2604 103.48 65.8682 100.984C66.0262 100.836 66.0601 100.428 65.9924 100.201C64.7844 96.3322 64.3442 92.3727 64.3442 88.3338C64.3442 74.3112 64.3442 60.2771 64.3329 46.2544C64.3329 44.6321 64.2652 42.987 64.0394 41.376C63.5314 37.927 62.1428 34.8525 59.535 32.47C56.0693 29.2933 51.9262 28.1361 47.3316 28.7941C41.608 29.611 37.702 32.8103 35.6813 38.2787C34.7781 40.7293 34.5637 43.3047 34.5637 45.9027C34.5637 53.9238 34.5637 61.9449 34.5637 69.9659H34.5749ZM72.2691 94.2447C72.3481 94.2674 72.4158 94.3014 72.4949 94.3241C72.6642 94.1653 72.8448 94.0065 73.0142 93.8363C75.509 91.3176 78.0152 88.799 80.5101 86.2804C83.6372 83.115 86.7981 79.9724 89.8687 76.7504C93.0184 73.4262 94.6553 69.4894 94.2037 64.8266C93.1764 54.3209 82.2373 48.1831 72.7658 52.7552C72.1449 53.0616 71.9304 53.4133 71.9304 54.1053C71.953 65.7342 71.9304 77.3517 71.9643 88.9805C71.9643 90.739 72.1675 92.4975 72.2804 94.2561L72.2691 94.2447ZM90.975 111.365C91.6298 111.274 92.8152 111.206 93.9441 110.934C101.316 109.175 106.193 102.311 105.323 94.7099C104.635 88.7309 101.361 84.6126 95.8293 82.2868C95.4229 82.1167 95.1746 82.1961 94.8811 82.5024C94.2376 83.1945 93.5715 83.8752 92.9055 84.5445C87.1819 90.3193 81.4697 96.1053 75.7235 101.869C75.3058 102.288 75.272 102.583 75.5881 103.071C79.0764 108.506 84.0661 111.206 90.975 111.365Z" fill="#1C4900"/>
</g>
<defs>
<clipPath id="clip0_2492_1244">
<rect width="86" height="98" fill="white" transform="translate(27 21)"/>
</clipPath>
</defs>
</svg>
