<svg width="140" height="140" viewBox="0 0 140 140" fill="none" xmlns="http://www.w3.org/2000/svg">
<rect width="140" height="140" rx="30" fill="white"/>
<circle cx="70" cy="70" r="55" fill="#22303D"/>
<path d="M60.5 124L42.5 96.5L74 58.5L78 56.5L102 63L123.5 83C120 104.5 92.5 130.5 60.5 124Z" fill="#19212C"/>
<g clip-path="url(#clip0_3529_4435)">
<path d="M86.6051 64.8034C85.3219 64.01 84.2725 63.4116 82.3105 63.6141C81.4859 63.6996 80.675 63.3471 80.0873 62.7698L74.2604 57.0544C73.6939 56.5985 73.6104 56.0106 73.8883 55.3237C73.9475 55.1783 73.9779 55.0208 73.9749 54.8648C73.9551 53.6216 73.7668 51.8414 72.2103 50.1063C68.7251 47.0304 66.2482 46.1171 62.883 47.4878C60.9544 48.3261 59.4403 48.6366 58.8906 47.7158C58.0979 46.9134 58.1116 45.9986 59.044 44.9563C62.3834 41.36 66.1465 39.7764 70.2983 40.0253C74.8025 40.3912 79.0212 41.4905 82.4593 44.5964C82.7539 44.8618 83.1548 44.9743 83.5497 44.9083C84.2118 44.7974 84.8511 44.8094 85.4722 44.9353C85.7122 44.9848 85.9308 45.1048 86.1055 45.2773L92.9635 52.0499C93.2384 52.3918 93.3249 52.8687 93.006 53.6336C92.9787 53.6996 92.9529 53.7686 92.9377 53.839C92.4532 55.9416 93.8807 57.4158 94.8678 58.4041C95.3872 58.881 96.2923 59.13 97.41 59.253C97.621 59.2755 97.823 59.3519 97.9961 59.4719C99.3204 60.3897 99.5664 60.6222 100.424 61.6615C100.476 61.7245 100.534 61.7815 100.596 61.8324C101.843 62.8567 102.963 63.848 102.963 64.5289C102.963 64.5799 102.963 64.6309 102.973 64.6804C103.049 65.1378 102.98 65.5082 102.667 65.7272L95.0971 73.2332C94.4122 73.8675 93.7243 73.9365 93.0333 73.2287C93.0075 73.2017 92.9802 73.1762 92.9513 73.1522C91.375 71.8249 89.9081 70.3402 88.5717 68.6666C88.4046 68.4581 88.315 68.2017 88.3029 67.9362C88.2437 66.5985 87.8367 65.4617 86.6066 64.8034H86.6051Z" fill="#FDFDFD"/>
<path d="M79.2461 63.3863C79.2339 63.2559 76.1071 60.3794 75.0684 59.3731C74.8497 59.1617 74.5217 58.7448 74.385 58.6233C74.3531 58.5963 73.9325 58.4268 73.89 58.5423C62.0434 69.3851 50.215 80.234 38.262 90.9598C34.2878 94.5606 40.5976 101.453 44.789 99.7286C45.9735 99.2412 48.5217 96.2058 49.5331 95.12C57.0289 87.0726 64.4276 78.8977 72.0297 70.9493C72.262 70.7064 76.8087 66.1338 77.77 65.078C78.2347 64.5666 78.7176 64.0612 79.2036 63.5693C79.24 63.5138 79.2522 63.4523 79.2446 63.3878L79.2461 63.3863Z" fill="#FDFDFD"/>
</g>
<defs>
<clipPath id="clip0_3529_4435">
<rect width="66" height="60" fill="white" transform="translate(37 40)"/>
</clipPath>
</defs>
</svg>
