<svg width="140" height="140" viewBox="0 0 140 140" fill="none" xmlns="http://www.w3.org/2000/svg">
<rect width="140" height="140" rx="30" fill="white"/>
<g clip-path="url(#clip0_3597_809)">
<path d="M96.9362 36.8251C87.2286 30.4344 75.4422 35.8618 68.2873 43.4126C67.9149 43.8048 66.2793 46.2295 65.8652 45.946C65.7027 45.8345 64.2172 43.2681 63.6905 42.6529C55.7922 33.4302 41.756 34.3233 36.4923 45.6047C31.6469 55.9875 39.5022 66.1666 47.1907 72.6673C52.2765 76.9663 64.3964 83.8868 67.0089 89.2536C69.8325 95.058 66.4266 99.3488 67.7676 104.201C68.8709 108.189 73.0827 107.761 73.8775 103.9C74.5459 100.66 73.223 97.5474 73.5635 94.2186C73.9428 90.5017 75.9425 87.0628 78.5118 84.4317C83.9562 78.8543 90.6317 73.7476 96.2942 68.3629C105.81 59.3108 109.565 45.1368 96.9362 36.8251ZM50.6535 71.7701C44.852 66.9895 42.3814 59.52 38.3655 53.2986C37.982 51.8536 38.4266 50.4225 38.503 48.9872L52.3071 72.7884C52.1292 72.9687 50.887 71.9628 50.6535 71.7701ZM59.4579 79.0043C58.9368 78.4539 58.5616 77.6654 58.1461 77.0117C51.7819 67.0294 46.5682 55.9476 40.1733 45.9336C39.573 44.7323 40.7639 44.1598 41.0626 43.1635L64.0685 82.413C63.8754 82.6235 59.7122 79.2727 59.4579 79.0043ZM69.171 85.5257L43.8224 41.5576C43.2207 41.0099 45.6344 40.114 45.7622 40.1443C46.0804 40.2186 46.3861 41.0443 46.6321 41.314L72.2531 85.9564C71.4291 85.8684 69.7519 86.2496 69.171 85.5257ZM74.6835 83.9281L48.9902 39.7356C48.9179 39.2251 49.0096 39.4095 49.364 39.364C49.7322 39.3159 51.5845 39.298 51.7568 39.4053L76.1537 81.7263C76.8207 82.9194 75.2657 83.1437 74.6835 83.9281ZM78.7744 80.3832L55.3781 40.1264C55.5295 39.9902 58.7478 41.6057 59.0883 41.8933C59.6747 42.3874 60.1138 43.3355 60.5362 44.0057C67.5119 55.093 73.4176 67.189 80.328 78.3589C80.7615 79.3607 79.2385 79.6016 78.7744 80.3832ZM82.8653 76.8369L66.9977 49.506C66.9213 49.034 68.5402 47.1804 68.9265 47.468L84.4272 74.8154C84.6134 75.5764 83.3086 76.2301 82.8653 76.8369ZM86.5783 73.0416L70.5648 45.1877C70.3869 44.4543 71.6361 43.4222 72.1267 42.9144L88.5862 71.1908C88.6446 71.5582 86.8993 73.2604 86.5783 73.0416ZM91.0305 69.2367L74.407 41.1475C74.3208 40.608 76.194 39.353 76.59 39.6269L92.666 67.6019L91.0305 69.2367ZM94.881 65.4441L78.9078 38.2232C78.9259 37.9783 81.0394 37.1251 81.4285 37.3687L96.5124 63.5946L94.881 65.4441ZM98.3397 61.3942L84.273 36.5802C85.0998 36.6971 86.6102 36.2912 87.2161 36.8279L99.6737 58.4287C100.51 59.0947 98.5787 61.5594 98.3397 61.3942ZM90.6664 37.0866C90.8832 36.8884 94.2557 38.0086 94.4627 38.7682L101.802 51.5151C101.966 52.8004 101.558 54.2563 101.401 55.5691L90.6664 37.0866Z" fill="#B92025"/>
</g>
<defs>
<clipPath id="clip0_3597_809">
<rect width="70" height="73" fill="white" transform="translate(35 34)"/>
</clipPath>
</defs>
</svg>
