<svg width="140" height="140" viewBox="0 0 140 140" fill="none" xmlns="http://www.w3.org/2000/svg">
<rect width="140" height="140" rx="30" fill="white"/>
<g clip-path="url(#clip0_2712_1536)">
<path d="M69.4812 71.1735L83.1927 54.6904L119 55.8252L69.4812 71.1735Z" fill="#F2C109"/>
<path d="M69.4812 71.1735L90.2274 77.0365L100.805 115L69.4812 71.1735Z" fill="#E46A1D"/>
<path d="M69.4813 71.1735L68.7039 93.0892L100.805 115L69.4813 71.1735Z" fill="#ED8657"/>
<path d="M69.4811 71.1735L48.497 76.1194L35 115L69.4811 71.1735Z" fill="#A04A99"/>
<path d="M69.4811 71.1735L68.7036 93.0892L35 115L69.4811 71.1735Z" fill="#802880"/>
<path d="M69.4812 71.1735L90.2274 77.0365L119 55.8252L69.4812 71.1735Z" fill="#F29E12"/>
<path d="M69.4812 71.1735L55.7685 54.6904L20.0012 55.6488L69.4812 71.1735Z" fill="#30ACDE"/>
<path d="M69.4812 71.1797L48.4971 76.1194L20 55.66L69.4812 71.1797Z" fill="#1182C0"/>
<path d="M69.4813 71.1735L55.7686 54.6904L69.4813 20V71.1735Z" fill="#A4C851"/>
<path d="M69.4812 71.1735L83.1927 54.6904L69.4812 20V71.1735Z" fill="#7DA33B"/>
</g>
<defs>
<clipPath id="clip0_2712_1536">
<rect width="99" height="95" fill="white" transform="translate(20 20)"/>
</clipPath>
</defs>
</svg>
