<svg width="140" height="140" viewBox="0 0 140 140" fill="none" xmlns="http://www.w3.org/2000/svg">
<rect width="140" height="140" rx="30" fill="white"/>
<g clip-path="url(#clip0_684_149)">
<path d="M82.0184 36.4113C84.9258 33.1145 88.1253 30.7828 92.1398 29.8275C101.52 27.593 110.894 33.8173 113.336 43.8597C116.429 56.5673 108.464 67.3384 95.5189 68.1415C83.4978 68.8863 71.4895 69.887 59.4652 70.6124C52.7679 71.0172 47.0108 68.5495 42.178 63.9121C31.9315 54.0834 30.7922 37.318 39.7519 26.2944C45.586 19.1147 53.2139 15.7889 62.3565 17.3984C71.5665 19.0176 77.561 24.8759 80.9915 33.5193C81.3188 34.3451 81.5884 35.1936 82.0184 36.4113ZM50.743 44.2386C50.5632 44.3033 50.9227 46.7773 50.743 46.8421C51.6287 49.5527 51.5805 50.071 52.9347 52.5193C56.6893 59.2973 65.0489 60.1361 70.3695 54.5174C75.151 49.4687 75.9308 41.1167 72.1666 35.294C67.8248 28.5742 59.1571 28.0982 54.151 34.3257C51.834 37.2079 50.7462 40.5403 50.743 44.2386ZM106.821 48.4097C106.747 48.387 106.677 48.3643 106.603 48.3449C106.558 47.6778 106.584 46.9945 106.452 46.3436C105.765 42.914 104.1 40.252 100.58 39.2093C97.9931 38.4418 94.9285 39.7307 93.0736 42.3149C90.9813 45.2231 90.5802 48.4842 91.4627 51.8716C92.3805 55.395 95.0312 57.7461 98.0252 57.9598C101.17 58.1865 104.183 56.2564 105.615 52.8723C106.208 51.4668 106.43 49.9026 106.818 48.4129L106.821 48.4097Z" fill="url(#paint0_linear_684_149)"/>
<path d="M66.3295 112.764C68.0848 110.332 69.6027 108.062 71.2939 105.934C72.6641 104.211 72.985 102.33 73.2354 100.183C73.8675 94.7809 72.0608 90.7102 67.9532 87.2839C65.3475 85.1077 63.1589 82.4262 60.7778 79.9747C58.8395 77.9766 58.9711 76.1728 61.5897 74.9875C63.4092 74.165 65.5561 73.9545 67.5842 73.7472C75.4432 72.9343 83.3022 71.9207 91.1868 71.6001C96.3117 71.3896 101.494 72.0988 106.616 72.6915C109.405 73.0153 110.708 74.8418 110.717 77.6528C110.74 83.537 111.285 82.4618 106.009 83.5888C101.318 84.5895 96.5909 85.4153 91.8928 86.3771C89.4122 86.8856 88.5201 87.951 88.4655 90.5385C88.3949 94.0425 88.3949 97.5497 88.4591 101.054C88.504 103.424 89.7684 104.354 92.1174 103.894C93.5647 103.609 94.9895 103.172 96.4497 102.981C98.5356 102.705 99.0298 101.604 98.2917 99.3309C97.0754 99.5802 95.8014 99.7551 94.582 100.108C92.7849 100.63 91.8671 100.131 91.8992 98.1521C91.9313 96.2123 91.9249 94.2757 91.9089 92.3359C91.896 90.9109 92.602 90.1208 93.953 89.8584C98.9527 88.8869 103.959 87.9445 108.946 86.9179C110.239 86.6524 110.74 87.0183 110.736 88.3234C110.717 93.5438 110.781 98.7642 110.698 103.985C110.653 106.604 108.66 108.959 105.788 109.649C96.8893 111.786 87.9778 113.888 79.0341 115.831C74.4933 116.818 70.5879 114.616 66.3263 112.764H66.3295Z" fill="url(#paint1_linear_684_149)"/>
<path d="M69.7888 98.6605C69.7888 101.822 69.2785 103.165 67.7638 105.063C64.2884 109.422 60.7841 113.778 57.6425 118.376C55.3191 121.773 52.2513 122.583 48.7598 121.628C43.0028 120.047 37.2906 118.224 31.6908 116.148C28.0518 114.801 25.9402 111.948 25.5904 107.842C24.8587 99.2014 24.724 90.5709 25.6706 81.9437C26.152 77.5491 28.9246 75.1754 33.2761 75.8036C39.553 76.7104 45.8107 77.7985 52.0138 79.1165C53.7723 79.4922 55.5277 80.7001 56.9012 81.9534C60.4087 85.153 63.6274 88.6764 67.1124 91.9052C69.1726 93.8126 69.7888 95.4737 69.7888 98.6638V98.6605ZM51.2468 100.034C51.0735 96.8211 50.881 93.4758 50.7141 90.1305C50.6243 88.3008 49.6551 87.2127 47.9383 86.8597C43.6093 85.9659 39.2738 85.0979 34.9256 84.2916C33.5777 84.0422 32.5188 84.5312 32.522 86.1278C32.5348 92.7472 32.5059 99.3698 32.7241 105.986C32.753 106.889 33.9211 108.253 34.8325 108.544C39.2417 109.956 43.7248 111.129 48.2143 112.262C49.7001 112.638 50.5954 111.844 50.6788 110.219C50.8489 106.873 51.0479 103.528 51.2436 100.034H51.2468Z" fill="url(#paint2_linear_684_149)"/>
</g>
<defs>
<linearGradient id="paint0_linear_684_149" x1="73.8515" y1="16.9999" x2="73.8515" y2="70.6555" gradientUnits="userSpaceOnUse">
<stop stop-color="#F6870A"/>
<stop offset="1" stop-color="#F67404"/>
</linearGradient>
<linearGradient id="paint1_linear_684_149" x1="85.0998" y1="71.5623" x2="85.0998" y2="116.075" gradientUnits="userSpaceOnUse">
<stop stop-color="#F76E07"/>
<stop offset="1" stop-color="#F56201"/>
</linearGradient>
<linearGradient id="paint2_linear_684_149" x1="47.3949" y1="75.7039" x2="47.3949" y2="122" gradientUnits="userSpaceOnUse">
<stop stop-color="#F46F07"/>
<stop offset="1" stop-color="#F35E02"/>
</linearGradient>
<clipPath id="clip0_684_149">
<rect width="89" height="105" fill="white" transform="translate(25 17)"/>
</clipPath>
</defs>
</svg>
