<svg width="140" height="140" viewBox="0 0 140 140" fill="none" xmlns="http://www.w3.org/2000/svg">
<rect width="140" height="140" rx="30" fill="url(#paint0_linear_669_18831)"/>
<g clip-path="url(#clip0_669_18831)">
<path d="M19 38.8103V83.5556C19 84.5908 19.5524 85.547 20.4469 86.0596L69.1931 113.999V65.0787L19 38.8103Z" fill="url(#paint1_linear_669_18831)"/>
<path d="M121 38.8103V83.6064C121 84.6416 120.447 85.5978 119.553 86.1104L69.1938 113.999V65.0787L121.001 38.8112L121 38.8103Z" fill="url(#paint2_linear_669_18831)"/>
<path d="M39.1763 26.3813L19 38.8106L69.194 65.078L121.001 38.8106L101.41 26.5582C100.47 25.9703 99.2883 25.9304 98.3117 26.4548L79.7916 36.39C76.8283 37.9795 73.5211 38.8115 70.1616 38.8115C66.8029 38.8115 63.4957 37.9795 60.5315 36.39L41.7326 26.3051C40.9274 25.8733 39.9544 25.9023 39.1763 26.3813Z" fill="url(#paint3_linear_669_18831)"/>
<path d="M80.3527 78.4904H75.1626C75.1058 77.7392 75.0516 77.0162 74.9929 76.245C68.5997 80.1879 63.48 79.7978 59.5879 75.1373C55.675 70.4513 55.7896 63.0999 59.8478 58.4893C63.6731 54.1436 68.9779 53.788 74.9054 57.5785C74.9352 57.1257 74.8368 56.6694 75.0137 56.3872C75.2764 55.9672 75.7286 55.6642 76.1149 55.3285C76.1736 55.2777 76.3126 55.3203 76.4146 55.3167C80.4755 55.1988 80.4493 55.1978 80.4177 59.295C80.3735 65.0179 80.3726 70.7408 80.3536 76.4637C80.3518 77.0724 80.3536 77.6803 80.3536 78.4895L80.3527 78.4904ZM68.819 74.1556C72.7481 74.1502 75.4867 71.2116 75.4912 66.9966C75.4957 62.9339 72.5315 59.7912 68.736 59.8339C64.9269 59.8765 62.1766 62.8686 62.1667 66.982C62.1558 71.2071 64.8953 74.1611 68.819 74.1556Z" fill="white"/>
<path d="M93.9111 60.2775C90.8891 60.2775 88.1668 60.2802 85.4445 60.2775C82.2925 60.2739 82.3683 60.2694 82.2772 57.1757C82.2338 55.6878 82.7077 55.2505 84.1745 55.2786C89.2626 55.3766 94.3525 55.3838 99.4414 55.3412C100.653 55.3312 100.982 55.7349 101.042 56.9098C101.132 58.6926 100.693 60.1051 99.4739 61.4851C96.3689 65.0025 93.4246 68.6632 90.4197 72.2695C90.0758 72.6823 89.7599 73.1178 89.2617 73.7619C92.8351 73.7619 96.1279 73.8408 99.4135 73.7265C100.937 73.6739 101.47 74.0704 101.401 75.6698C101.25 79.1428 101.697 78.5712 98.4522 78.5893C93.6674 78.6166 88.8835 78.5884 84.0987 78.5839C83.5481 78.5839 82.9975 78.5839 82.3683 78.5839C82.1625 76.3539 81.9802 74.4596 83.6473 72.6306C86.8751 69.0905 89.8303 65.3 92.8947 61.6103C93.1754 61.2728 93.4282 60.9117 93.9111 60.2775Z" fill="white"/>
<path d="M46.4215 73.1704C49.6394 73.1704 52.5928 73.213 55.5453 73.1486C56.6627 73.1241 57.0517 73.4553 57.0635 74.6165C57.1014 78.5957 57.1429 78.5939 53.1822 78.5948C49.513 78.5957 45.8439 78.5694 42.1756 78.6211C41.1222 78.6356 40.7558 78.3027 40.7603 77.224C40.7937 68.8818 40.791 60.5397 40.7621 52.1976C40.7585 51.1634 41.06 50.7696 42.1485 50.7424C46.4234 50.6372 46.4224 50.6018 46.4224 54.8958C46.4224 60.3719 46.4224 65.848 46.4224 71.3241C46.4224 71.8739 46.4224 72.4246 46.4224 73.1686L46.4215 73.1704Z" fill="white"/>
</g>
<defs>
<linearGradient id="paint0_linear_669_18831" x1="70" y1="0" x2="70" y2="140" gradientUnits="userSpaceOnUse">
<stop stop-color="#1955D1"/>
<stop offset="1" stop-color="#112180"/>
</linearGradient>
<linearGradient id="paint1_linear_669_18831" x1="18.2653" y1="64.3139" x2="69.4274" y2="88.0188" gradientUnits="userSpaceOnUse">
<stop stop-color="#FA7200"/>
<stop offset="1" stop-color="#F33C2D"/>
</linearGradient>
<linearGradient id="paint2_linear_669_18831" x1="121.419" y1="64.0843" x2="69.2863" y2="88.2391" gradientUnits="userSpaceOnUse">
<stop stop-color="#F800B2"/>
<stop offset="1" stop-color="#F0163B"/>
</linearGradient>
<linearGradient id="paint3_linear_669_18831" x1="18.3555" y1="44.6006" x2="121.232" y2="46.1138" gradientUnits="userSpaceOnUse">
<stop stop-color="#FA7200"/>
<stop offset="0.45" stop-color="#E56508"/>
<stop offset="0.69" stop-color="#F11449"/>
<stop offset="1" stop-color="#F800B0"/>
</linearGradient>
<clipPath id="clip0_669_18831">
<rect width="102" height="88" fill="white" transform="translate(19 26)"/>
</clipPath>
</defs>
</svg>
