<svg width="140" height="140" viewBox="0 0 140 140" fill="none" xmlns="http://www.w3.org/2000/svg">
<rect width="140" height="140" rx="30" fill="#F76B13"/>
<g clip-path="url(#clip0_685_185)">
<path d="M28.4753 104.086C28.8484 104.408 29.2435 104.586 29.6797 104.627C30.5947 104.714 31.4109 104.457 32.1229 103.846C32.4768 103.542 32.7814 103.207 33.0407 102.82C33.2039 102.575 33.2643 102.565 33.5126 102.74C33.9625 103.057 34.4056 103.386 34.8515 103.71C35.0737 103.872 35.2959 104.036 35.5168 104.201C35.8035 104.414 35.8254 104.469 35.654 104.77C35.1094 105.721 34.3878 106.494 33.4357 107.037C32.374 107.643 31.2189 107.857 30.0227 107.943C28.8786 108.024 27.7935 107.807 26.7646 107.312C26.386 107.13 26.0334 106.881 25.6919 106.631C25.4477 106.452 25.2543 106.431 24.9799 106.592C24.1595 107.073 23.3282 107.545 22.3858 107.743C21.9276 107.839 21.4653 107.917 21.0003 107.968C20.7657 107.993 20.5215 107.954 20.2855 107.917C19.0797 107.731 17.9878 107.294 17.1647 106.337C16.535 105.606 16.1084 104.767 16.0604 103.77C16.0384 103.308 16.0096 102.843 16.0082 102.379C16.0055 98.4182 16.0096 94.4558 16 90.492C15.9986 89.7733 16.2387 89.1917 16.7476 88.6911C17.258 88.1906 18.2937 88.0941 18.948 88.5387C19.6435 89.0099 19.9014 89.6922 19.9001 90.5102C19.8932 94.2293 19.8864 97.947 19.885 101.666C19.885 102.13 19.911 102.596 19.9453 103.059C19.9604 103.264 20.0071 103.475 20.077 103.668C20.2499 104.144 20.5901 104.415 21.0881 104.495C21.6066 104.579 22.0867 104.479 22.5463 104.242C22.7809 104.121 23.0182 104.005 23.2459 103.874C23.4558 103.754 23.4736 103.705 23.3858 103.484C22.9482 102.368 22.8591 101.202 22.9331 100.022C22.9702 99.4431 23.1087 98.8768 23.3502 98.3413C23.5834 97.824 23.7823 97.2913 24.1458 96.8453C24.5478 96.3517 24.9717 95.8861 25.4957 95.5198C26.3051 94.9535 27.1899 94.6208 28.1721 94.5523C28.9609 94.4977 29.7456 94.4852 30.5234 94.6641C32.079 95.022 33.2917 95.8777 34.1669 97.2353C34.4893 97.7345 34.7472 98.2602 34.9461 98.8195C35.0696 99.1662 35.049 99.2445 34.7486 99.4626C33.6923 100.236 32.636 101.008 31.5769 101.777C30.8074 102.337 30.0323 102.891 29.2641 103.454C29.0075 103.643 28.7633 103.851 28.4725 104.085L28.4753 104.086ZM30.6757 98.7188C30.4123 98.2336 30.0186 97.9694 29.57 97.8366C28.3984 97.4912 27.279 98.0043 26.755 99.0893C26.4313 99.7618 26.3627 100.462 26.5328 101.191C26.6494 101.696 26.7427 101.732 27.1583 101.42C28.157 100.669 29.1584 99.9198 30.1557 99.1648C30.3286 99.0348 30.485 98.8824 30.677 98.7174L30.6757 98.7188Z" fill="white"/>
<path d="M40.1672 105.98C40.1672 106.398 40.1672 106.73 40.1672 107.062C40.1672 107.143 40.1836 107.224 40.1822 107.305C40.1795 107.607 40.0945 107.71 39.7981 107.712C38.8283 107.716 37.8584 107.716 36.8885 107.703C36.5236 107.699 36.4976 107.653 36.4976 107.299C36.503 102.723 36.5099 98.1456 36.514 93.5694C36.514 92.5123 36.5113 91.4553 36.5058 90.3983C36.5017 89.558 36.8487 88.9037 37.5607 88.4954C38.1588 88.1514 38.8049 88.1612 39.3866 88.5387C40.0519 88.9722 40.4168 89.6153 40.4182 90.4347C40.4223 92.2355 40.4182 94.0349 40.4182 95.8358C40.4182 95.9798 40.4347 96.1238 40.447 96.3307C40.5499 96.2371 40.6034 96.1993 40.6459 96.1504C41.7297 94.9256 43.0809 94.4194 44.6914 94.5299C45.7587 94.604 46.6805 95.0039 47.5091 95.6582C48.0976 96.1238 48.5009 96.7432 48.8535 97.3989C49.4118 98.4378 49.6999 99.5479 49.6875 100.736C49.682 101.212 49.6958 101.687 49.6711 102.161C49.6176 103.203 49.2938 104.18 48.8041 105.073C47.8438 106.827 46.3554 107.819 44.3704 107.982C44.0905 108.004 43.8011 107.964 43.5226 107.917C43.2194 107.867 42.9231 107.775 42.6227 107.705C41.8243 107.517 41.1974 107.052 40.6473 106.458C40.5101 106.309 40.3633 106.172 40.1672 105.977V105.98ZM45.6914 101.065C45.6393 100.77 45.5831 100.321 45.4761 99.8835C45.2319 98.8838 44.6132 98.2281 43.6241 97.9932C42.4444 97.7135 41.2756 98.2448 40.7584 99.4515C40.2989 100.524 40.3427 101.628 40.6473 102.726C40.805 103.295 41.1288 103.77 41.6268 104.112C42.2605 104.545 42.9561 104.566 43.6667 104.435C44.3608 104.306 44.8588 103.882 45.2058 103.267C45.5639 102.634 45.6448 101.933 45.6914 101.064V101.065Z" fill="white"/>
<path d="M97.4789 94.5313C98.4557 94.4964 99.5092 94.797 100.512 95.3199C101.508 95.8386 102.245 96.6314 102.822 97.5877C103.018 97.9135 103.21 98.2504 103.345 98.6042C103.479 98.9579 103.56 99.3382 103.63 99.7129C103.815 100.703 103.84 101.703 103.642 102.692C103.278 104.511 102.409 105.987 100.801 106.971C99.4982 107.768 98.0798 108.066 96.601 107.959C95.295 107.866 94.0274 107.522 92.9712 106.665C92.0356 105.905 91.3236 104.973 90.9285 103.803C90.4127 102.273 90.3496 100.724 90.7721 99.1746C91.3126 97.1976 92.5253 95.7897 94.4061 95.0081C95.2689 94.6488 96.1195 94.4866 97.4789 94.5327V94.5313ZM94.5254 101.23C94.5254 101.322 94.5227 101.416 94.5254 101.508C94.5446 102.231 94.7147 102.927 95.1222 103.512C95.8821 104.602 97.2992 104.721 98.2581 104.26C98.955 103.924 99.3473 103.329 99.5682 102.603C99.8275 101.751 99.8042 100.887 99.6327 100.022C99.3885 98.7915 98.2595 97.8128 96.9535 97.9345C96.007 98.0225 95.3279 98.4769 94.9123 99.341C94.6256 99.9352 94.4925 100.564 94.5254 101.229V101.23Z" fill="white"/>
<path d="M63.8842 101.153C63.9103 102.144 63.7594 103.103 63.3835 104.018C63.0008 104.95 62.4672 105.781 61.6948 106.435C60.7675 107.221 59.7043 107.699 58.5081 107.852C58.0005 107.917 57.4834 108.001 56.9758 107.97C54.8467 107.839 53.0195 107.084 51.7794 105.209C50.815 103.749 50.4762 102.133 50.6709 100.398C50.7574 99.6206 50.9439 98.867 51.2732 98.1553C51.9659 96.6593 53.0414 95.5883 54.5765 94.9955C56.0004 94.4446 57.445 94.4292 58.9224 94.7047C59.8196 94.8724 60.6097 95.2471 61.3574 95.7603C61.8896 96.1266 62.2943 96.6104 62.6674 97.1235C63.2971 97.9904 63.6442 98.9845 63.8074 100.043C63.8637 100.408 63.8609 100.782 63.8842 101.153ZM59.9156 101.565C59.9115 100.65 59.8127 100.047 59.5713 99.4724C59.1035 98.3553 57.8579 97.7065 56.6973 97.9946C55.6054 98.2658 55.0031 99.0432 54.7411 100.223C54.5696 100.999 54.6245 101.768 54.8124 102.534C55.2871 104.461 57.2131 104.963 58.6604 104.121C58.7482 104.071 58.8209 103.993 58.8963 103.921C59.6481 103.204 59.884 102.28 59.9156 101.567V101.565Z" fill="white"/>
<path d="M73.3405 107.655C73.3227 107.22 73.2953 106.838 73.2939 106.456C73.2911 104.388 73.3021 102.321 73.2884 100.254C73.2857 99.9115 73.2088 99.5619 73.1156 99.2292C72.9592 98.6727 72.4914 98.3217 71.9276 98.284C71.848 98.2784 71.7684 98.2798 71.6875 98.2756C70.7505 98.2239 69.9741 98.744 69.5927 99.6947C69.3266 100.357 69.1798 101.041 69.1853 101.763C69.1977 103.4 69.1949 105.039 69.1963 106.676C69.1963 106.873 69.1963 107.071 69.1908 107.269C69.1812 107.645 69.1359 107.706 68.7779 107.708C67.7284 107.715 66.6776 107.715 65.6282 107.706C65.2962 107.703 65.2578 107.646 65.2578 107.312C65.2592 103.642 65.2592 99.9702 65.2647 96.3C65.2647 95.5534 65.6227 94.9941 66.2702 94.6879C66.9671 94.3579 67.6489 94.4488 68.247 94.9801C68.6476 95.3353 68.8492 95.7869 68.8986 96.3182C68.9096 96.4314 68.9192 96.5433 68.9356 96.7348C69.0715 96.5964 69.173 96.5097 69.2539 96.4077C69.874 95.6303 70.6394 95.036 71.5736 94.7452C72.9249 94.3244 74.2651 94.3775 75.486 95.1968C76.1857 95.6652 76.6439 96.3433 76.9045 97.1501C77.1473 97.9051 77.2667 98.6867 77.2694 99.4794C77.279 102.035 77.2749 104.59 77.2763 107.146C77.2763 107.708 77.2763 107.703 76.7262 107.701C75.7686 107.695 74.8097 107.696 73.8522 107.691C73.6958 107.691 73.5381 107.669 73.3405 107.652V107.655Z" fill="white"/>
<path d="M114.689 96.7921C114.983 96.4622 115.205 96.1839 115.455 95.9364C116.493 94.9074 117.74 94.4306 119.189 94.5383C119.528 94.5634 119.869 94.625 120.2 94.7089C121.173 94.9563 121.885 95.5561 122.368 96.4426C122.808 97.2535 123 98.1302 122.999 99.053C122.996 100.796 122.994 102.539 122.994 104.282C122.994 105.107 122.997 105.932 122.999 106.757C122.999 106.954 123.004 107.153 122.999 107.35C122.99 107.65 122.959 107.684 122.656 107.692C122.45 107.698 122.244 107.689 122.04 107.688C121.321 107.687 120.602 107.687 119.883 107.682C119.646 107.681 119.409 107.668 119.136 107.66C119.127 107.471 119.115 107.312 119.115 107.154C119.115 104.935 119.125 102.715 119.107 100.496C119.104 100.095 119.004 99.6933 118.927 99.2962C118.821 98.7566 118.149 98.2672 117.62 98.235C116.761 98.1833 115.839 98.6419 115.41 99.622C115.101 100.328 114.969 101.065 114.961 101.823C114.943 103.554 114.95 105.285 114.946 107.016C114.946 107.155 114.943 107.294 114.936 107.434C114.928 107.599 114.842 107.688 114.677 107.698C114.587 107.703 114.495 107.708 114.403 107.708C113.433 107.71 112.462 107.712 111.492 107.712C111.434 107.712 111.378 107.712 111.32 107.709C111.035 107.689 110.977 107.636 110.968 107.357C110.962 107.171 110.968 106.985 110.976 106.799C110.991 106.393 111.025 105.988 111.025 105.581C111.029 103.211 111.031 100.84 111.024 98.4699C111.023 97.8547 110.986 97.2395 110.966 96.6243C110.954 96.2315 111.051 95.8665 111.226 95.5184C111.545 94.878 112.067 94.5327 112.761 94.5285C113.514 94.5229 114.106 94.8515 114.451 95.5645C114.625 95.9239 114.716 96.3042 114.689 96.7907V96.7921Z" fill="white"/>
<path d="M84.7884 94.4963C85.2768 94.5299 85.7692 94.5397 86.2549 94.6012C86.9078 94.6837 87.5087 94.9396 88.089 95.2472C88.8887 95.6694 89.5102 96.2888 90.0013 97.0508C90.2084 97.3724 90.1878 97.4479 89.8655 97.6562C89.1151 98.1414 88.3661 98.6293 87.6171 99.1187C87.3523 99.2907 87.3125 99.2977 87.1218 99.0236C86.3084 97.8561 84.5497 97.7163 83.5606 98.4434C83.1079 98.7761 82.8761 99.2487 82.6977 99.7521C82.4687 100.397 82.4687 101.073 82.5098 101.749C82.5441 102.311 82.6799 102.841 82.9611 103.338C83.348 104.023 83.9543 104.363 84.6759 104.471C85.2329 104.553 85.7871 104.451 86.3015 104.172C86.5896 104.015 86.8461 103.835 87.0244 103.552C87.0793 103.466 87.1506 103.387 87.2206 103.31C87.3002 103.222 87.3976 103.214 87.5005 103.27C87.5306 103.287 87.5608 103.303 87.5896 103.323C88.3674 103.831 89.1453 104.335 89.9217 104.846C90.17 105.009 90.1878 105.064 90.0452 105.322C89.6473 106.047 89.0959 106.62 88.3921 107.044C87.3537 107.667 86.2178 107.95 85.0285 107.982C84.0737 108.007 83.1312 107.84 82.2492 107.473C80.9295 106.923 79.9047 106.016 79.2476 104.704C78.5878 103.39 78.4012 101.992 78.5233 100.543C78.5658 100.036 78.6386 99.5242 78.7675 99.0348C78.9733 98.2574 79.3217 97.5416 79.795 96.8872C80.5358 95.8637 81.5537 95.243 82.6977 94.8235C83.3658 94.5788 84.0778 94.5159 84.7911 94.4963H84.7884Z" fill="white"/>
<path d="M105.14 101.94C105.14 100.244 105.14 98.5482 105.14 96.8537C105.14 96.3335 105.261 95.847 105.522 95.3912C105.922 94.6893 106.848 94.3523 107.637 94.5621C108.434 94.7746 109.076 95.6205 109.078 96.3559C109.078 96.8313 109.12 97.3067 109.121 97.782C109.128 100.906 109.128 104.03 109.13 107.154C109.13 107.178 109.13 107.2 109.13 107.224C109.123 107.643 109.065 107.705 108.647 107.705C107.632 107.705 106.615 107.698 105.6 107.694C105.542 107.694 105.486 107.689 105.429 107.688C105.25 107.684 105.154 107.597 105.151 107.41C105.149 107.235 105.138 107.062 105.138 106.887C105.138 105.237 105.138 103.589 105.138 101.939L105.14 101.94Z" fill="white"/>
<path d="M107.101 92.6508C105.798 92.6452 104.728 91.5434 104.747 90.2585C104.766 88.9428 105.722 87.8089 107.259 87.8746C108.67 87.9347 109.536 89.0337 109.521 90.3466C109.507 91.6105 108.367 92.6983 107.101 92.6508Z" fill="white"/>
</g>
<g clip-path="url(#clip1_685_185)">
<path d="M90.9707 57.1802C90.9707 60.9204 90.9348 64.6605 90.9904 68.4006C91.009 69.6788 90.4278 70.4647 89.4077 71.0412C87.4182 72.1656 85.4175 73.2726 83.4304 74.4007C80.6767 75.964 77.9292 77.5396 75.1816 79.1128C73.5655 80.0388 71.9519 80.9698 70.3382 81.9021C69.553 82.3558 68.7691 82.4686 67.9394 81.9901C64.9408 80.2607 61.9349 78.5425 58.9301 76.8243C55.39 74.7999 51.8499 72.773 48.3023 70.761C47.553 70.3358 47.1388 69.742 47.14 68.868C47.14 66.9068 47.14 64.9444 47.1326 62.9832C47.1214 59.7997 47.0942 56.6186 47.0942 53.4363C47.0942 50.771 47.1313 48.1057 47.1437 45.4404C47.1486 44.5713 47.5332 43.9651 48.2862 43.535C52.781 40.9738 57.2683 38.3977 61.758 35.829C63.7971 34.6625 65.8422 33.5059 67.8788 32.3344C68.6677 31.8806 69.438 31.8906 70.2207 32.3406C74.0613 34.5497 77.9032 36.7588 81.7487 38.9605C84.3949 40.4754 87.041 41.9928 89.702 43.4816C90.6207 43.9961 90.9892 44.7585 90.9867 45.7714C90.9781 49.3045 90.9793 52.8388 90.9768 56.3719C90.9768 56.6409 90.9768 56.9087 90.9768 57.1777H90.9694L90.9707 57.1802ZM87.7978 47.9371C87.4095 48.1317 87.1486 48.247 86.9025 48.3883C84.5272 49.7483 82.1593 51.1231 79.779 52.4744C76.9338 54.0897 74.0787 55.6876 71.2235 57.2881C70.7772 57.5385 70.5595 57.8447 70.5595 58.4087C70.5595 64.7671 70.5249 71.1267 70.5027 77.4851C70.5027 77.681 70.5262 77.8768 70.5435 78.157C70.8155 78.0417 71.0072 77.9797 71.1803 77.883C72.3809 77.2037 73.5766 76.5169 74.7748 75.8338C78.8899 73.4883 83.0001 71.1329 87.1263 68.8073C87.6296 68.5234 87.7903 68.1936 87.7903 67.632C87.7903 61.3344 87.8163 55.0368 87.8324 48.7392C87.8324 48.5197 87.8126 48.3003 87.7965 47.9371H87.7978ZM67.4942 78.0206C67.5251 77.7764 67.5585 77.64 67.5585 77.5024C67.561 71.0759 67.5585 64.6493 67.5684 58.2228C67.5684 57.7963 67.4114 57.5546 67.0404 57.3426C64.2669 55.7595 61.5058 54.1566 58.7422 52.5574C56.1554 51.0611 53.5711 49.5611 50.9831 48.0685C50.8025 47.9644 50.5998 47.8974 50.35 47.7883C50.3364 48.0784 50.3203 48.2631 50.3203 48.4466C50.3191 54.7901 50.324 61.1348 50.3092 67.4783C50.3092 67.9097 50.4489 68.1539 50.8149 68.3634C54.2462 70.3345 57.6701 72.3193 61.094 74.3028C63.1961 75.5202 65.2969 76.7425 67.4955 78.0194L67.4942 78.0206ZM52.0304 45.1205C52.3482 45.3176 52.567 45.4614 52.7933 45.5928C57.8717 48.5359 62.9661 51.4528 68.016 54.4442C68.8062 54.9116 69.3552 54.9165 70.1268 54.4727C75.2348 51.5384 80.3688 48.6524 85.4917 45.7453C85.7291 45.6102 85.943 45.4354 86.2435 45.2246C85.551 44.8403 84.955 44.5217 84.3701 44.1821C79.4921 41.3432 74.6153 38.5055 69.7459 35.6518C69.3564 35.4237 69.0386 35.4088 68.6615 35.6419C67.9258 36.0943 67.1826 36.5357 66.4308 36.9596C62.3639 39.2555 58.2909 41.5415 54.2227 43.8362C53.5142 44.2366 52.8168 44.6581 52.0292 45.1205H52.0304Z" fill="white"/>
</g>
<defs>
<clipPath id="clip0_685_185">
<rect width="107" height="20.1197" fill="white" transform="translate(16 87.8718)"/>
</clipPath>
<clipPath id="clip1_685_185">
<rect width="43.8974" height="50.2991" fill="white" transform="translate(47.0942 32)"/>
</clipPath>
</defs>
</svg>
