<svg width="140" height="140" viewBox="0 0 140 140" fill="none" xmlns="http://www.w3.org/2000/svg">
<rect width="140" height="140" rx="30" fill="#1C2F90"/>
<g clip-path="url(#clip0_820_970)">
<path d="M70.5805 16C100.142 16.0137 124.046 40.0244 124 69.7089C123.954 99.1503 99.8615 123.099 70.2277 123C40.8988 122.901 16.9692 98.8352 17 69.3202C17.0309 39.9559 41.118 15.9863 70.5805 16ZM70.4624 119.577C98.2347 119.659 121.197 96.8486 120.669 68.493C120.168 41.4904 98.0788 19.3019 70.4487 19.3379C42.7157 19.3738 20.24 41.9459 20.3222 69.5754C20.4044 97.2099 42.9126 119.657 70.4624 119.577Z" fill="#BB251F"/>
<path d="M70.4622 119.577C42.9125 119.657 20.4042 97.2099 20.322 69.5754C20.2398 41.9459 42.7156 19.3738 70.4485 19.3379C98.0787 19.3019 120.167 41.4904 120.669 68.493C121.195 96.8503 98.2345 119.659 70.4622 119.577ZM58.5214 61.8892C55.0588 65.3024 51.6939 68.6197 48.3135 71.9507V69.4812C45.2209 71.1972 42.2498 72.8464 39.2153 74.5316V63.6138C39.8917 63.6138 40.5271 63.5915 41.1624 63.6206C41.6264 63.6429 41.8217 63.4888 41.8011 63.0041C41.772 62.278 41.76 61.5484 41.8045 60.824C41.8405 60.24 41.6076 60.1047 41.0613 60.1115C38.8574 60.1389 36.6552 60.1218 34.4513 60.1218C31.8416 60.1218 29.2318 60.1355 26.6221 60.1115C26.0809 60.1064 25.9114 60.2811 25.9405 60.8068C25.9782 61.5313 25.973 62.2608 25.9422 62.987C25.9234 63.4528 26.0672 63.6446 26.557 63.6206C27.2334 63.5864 27.9115 63.6121 28.5914 63.6121V75.3794C27.8876 75.3794 27.2454 75.4051 26.6067 75.3708C26.1203 75.3451 25.908 75.4804 25.9405 76.0079C25.9833 76.6895 25.9987 77.3797 25.9371 78.0596C25.8772 78.7361 26.1409 78.8731 26.7693 78.8714C31.6258 78.8474 36.4823 78.8577 41.337 78.8577C43.4553 78.8577 45.5736 78.8423 47.6902 78.8679C48.2039 78.8731 48.3666 78.6967 48.3443 78.2035C48.3135 77.5201 48.3289 76.8351 48.3443 76.15C48.3478 75.9668 48.3632 75.7236 48.4762 75.614C49.281 74.8228 50.1116 74.0572 50.788 73.4219C53.1118 75.6774 55.4921 77.9877 57.9905 80.4127C57.1 81.2433 56.2301 82.0551 55.5417 82.6973C56.0657 83.3584 56.5521 83.9749 57.1223 84.6942C61.9086 79.9452 66.6006 75.2886 71.2088 70.7142V75.3811C70.5067 75.3811 69.8663 75.4051 69.2275 75.3725C68.7652 75.3503 68.6333 75.5404 68.6453 75.9719C68.6676 76.7409 68.6693 77.5116 68.6453 78.2822C68.6299 78.7344 68.8097 78.8679 69.2481 78.8662C74.2107 78.8525 79.1751 78.8954 84.1377 78.8337C86.3725 78.8063 88.3075 77.9209 89.7751 76.1911C91.8095 73.7918 92.4431 70.9694 92.0458 67.9124C91.4875 63.6121 88.6449 60.0139 83.3243 60.1149C80.9081 60.1612 78.4901 60.1235 76.0721 60.1235C73.8254 60.1235 71.5787 60.1389 69.3337 60.1132C68.796 60.1064 68.6179 60.2828 68.6419 60.8103C68.6778 61.5792 68.659 62.3499 68.6504 63.1206C68.6453 63.4699 68.7806 63.6258 69.1419 63.6172C69.6984 63.6035 70.255 63.6258 70.8098 63.6155C71.13 63.6087 71.279 63.72 71.2739 64.0591C71.2619 64.8931 71.279 65.7271 71.2636 66.5612C71.2602 66.7187 71.214 66.9225 71.1078 67.0236C69.8491 68.2395 68.5768 69.4384 67.2856 70.6629C64.4652 67.8388 61.5524 64.9239 58.5214 61.8892ZM105.841 74.5008C105.783 74.4015 105.762 74.3844 105.762 74.3655C105.754 70.9249 105.75 67.4843 105.737 64.0437C105.737 63.6926 105.903 63.6052 106.213 63.6121C106.769 63.6224 107.326 63.6052 107.881 63.6155C108.225 63.6224 108.388 63.5008 108.381 63.1326C108.365 62.2985 108.364 61.4645 108.381 60.6304C108.389 60.2331 108.223 60.1167 107.846 60.1167C102.927 60.1252 98.0085 60.1252 93.0886 60.1167C92.6777 60.1167 92.5098 60.2502 92.5201 60.6698C92.5407 61.4388 92.5527 62.2112 92.515 62.9784C92.4893 63.5076 92.7136 63.6429 93.1948 63.6206C93.8267 63.5915 94.4603 63.6138 95.0973 63.6138V75.3811C94.3935 75.3811 93.7342 75.3999 93.0784 75.3742C92.6554 75.3571 92.5098 75.5198 92.5218 75.9308C92.5424 76.657 92.5595 77.3865 92.5167 78.111C92.4824 78.6984 92.6828 78.8714 93.2753 78.8714C100.206 78.8525 107.134 78.8525 114.064 78.8714C114.643 78.8714 114.835 78.7207 114.828 78.123C114.799 75.4924 114.816 72.8636 114.814 70.233C114.814 70.0275 114.792 69.822 114.775 69.4949C111.746 71.1921 108.809 72.8396 105.843 74.5008H105.841ZM57.1908 49.543C54.0861 49.543 51.5963 52.0178 51.5928 55.1073C51.5894 58.1934 54.1546 60.7657 57.2182 60.7503C60.2715 60.7349 62.7956 58.178 62.7888 55.1124C62.7802 52.0126 60.2972 49.5413 57.1908 49.5413V49.543Z" fill="#FFF100"/>
<path d="M92.044 67.9141C91.4874 63.6121 88.6431 60.0139 83.3242 60.1166C80.9063 60.1629 78.4883 60.1235 76.0721 60.1235C73.8253 60.1235 71.5786 60.1389 69.3336 60.1132C68.7959 60.1081 68.6178 60.2828 68.6418 60.8103C68.6778 61.5792 68.6589 62.3499 68.6504 63.1206C68.6452 63.4699 68.7805 63.6258 69.1401 63.6172C69.6967 63.6035 70.2532 63.6258 70.8097 63.6155C71.1283 63.6086 71.2772 63.72 71.2721 64.0591C71.2601 64.8931 71.2772 65.7271 71.2618 66.5612L71.2087 70.7177V75.3828C70.5066 75.3828 69.8662 75.4068 69.2274 75.3759C68.7651 75.352 68.6315 75.5438 68.6452 75.9736C68.6675 76.7443 68.6692 77.515 68.6452 78.2839C68.6298 78.7361 68.8096 78.8696 69.248 78.8679C74.2106 78.8542 79.1733 78.897 84.1359 78.8354C86.3707 78.808 88.3057 77.9226 89.7733 76.1928C91.8077 73.7935 92.4413 70.9711 92.044 67.9141ZM83.4287 71.7966C83.0383 72.5707 82.3944 73.0125 81.4645 72.9783C81.0604 72.9629 80.8926 72.855 80.9011 72.4285C80.9234 71.4267 80.908 70.4231 80.908 69.4195C80.908 68.481 80.9337 67.5408 80.8977 66.604C80.8789 66.0971 81.0861 65.9892 81.5382 66.0097C82.4509 66.0491 83.0845 66.5115 83.4544 67.2942C84.1616 68.7876 84.177 70.3135 83.4287 71.7966ZM48.3374 76.3675L48.3134 71.9524V69.4829C45.2208 71.1989 42.2497 72.8481 39.2135 74.5316V63.6155C39.89 63.6155 40.527 63.5932 41.1606 63.6223C41.6247 63.6429 41.8199 63.4905 41.7993 63.0058C41.7702 62.2797 41.7582 61.5501 41.8027 60.8257C41.8387 60.2417 41.6058 60.1064 41.0596 60.1132C38.8574 60.1406 36.6534 60.1235 34.4495 60.1235C31.8398 60.1235 29.23 60.1372 26.6203 60.1132C26.0791 60.1081 25.9096 60.2828 25.937 60.8085C25.9764 61.5347 25.9695 62.2643 25.9387 62.9904C25.9199 63.4562 26.0637 63.648 26.5535 63.6241C27.2299 63.5898 27.908 63.6155 28.5896 63.6155V75.3828C27.8841 75.3828 27.2436 75.4085 26.6049 75.3742C26.1185 75.3485 25.9045 75.4838 25.937 76.013C25.9798 76.6946 25.9952 77.3848 25.9336 78.063C25.8736 78.7412 26.1374 78.8782 26.7675 78.8748C31.6223 78.8508 36.4788 78.8611 41.3353 78.8611C43.4535 78.8611 45.5701 78.8474 47.6884 78.8714C48.2021 78.8782 48.3648 78.7001 48.3426 78.2069C48.3169 77.5955 48.3254 76.9806 48.3374 76.3675Z" fill="#1C2F90"/>
<path d="M71.2619 66.5612L71.2088 70.7177C66.6006 75.2903 61.9068 79.9469 57.1223 84.6977C56.552 83.9767 56.064 83.3618 55.5417 82.6991C56.2284 82.0585 57.1 81.2451 57.9905 80.4162C55.492 77.9911 53.11 75.6791 50.7862 73.4253C50.1098 74.0607 49.2793 74.8262 48.4744 75.6174C48.3614 75.7288 48.346 75.9702 48.3426 76.1535C48.3409 76.2254 48.3392 76.2956 48.3375 76.3676L48.3135 71.9525C51.6938 68.6197 55.0588 65.3024 58.5213 61.8909C61.5523 64.9239 64.4635 67.8388 67.2839 70.6629C68.575 69.4401 69.8474 68.2395 71.106 67.0236C71.2122 66.9226 71.2584 66.7188 71.2619 66.5612Z" fill="#BB251F"/>
<path d="M105.841 74.5025C108.807 72.8396 111.744 71.1938 114.773 69.4966C114.792 69.8254 114.813 70.0292 114.813 70.2347C114.814 72.8653 114.797 75.4958 114.826 78.1247C114.833 78.7224 114.643 78.8748 114.063 78.8731C107.132 78.8542 100.204 78.8542 93.2735 78.8731C92.681 78.8731 92.4807 78.7001 92.5149 78.1127C92.5577 77.3883 92.5406 76.6587 92.5201 75.9325C92.5081 75.5198 92.6553 75.3588 93.0766 75.3759C93.7342 75.4016 94.3918 75.3828 95.0956 75.3828V63.6155C94.4585 63.6155 93.8249 63.5932 93.193 63.6224C92.7119 63.6446 92.4875 63.5093 92.5132 62.9801C92.5509 62.2129 92.5372 61.4405 92.5183 60.6715C92.5081 60.2519 92.6759 60.1167 93.0869 60.1184C98.0067 60.1269 102.925 60.1269 107.845 60.1184C108.221 60.1184 108.388 60.2348 108.379 60.6321C108.36 61.4662 108.362 62.3002 108.379 63.1343C108.386 63.5025 108.223 63.6241 107.879 63.6172C107.322 63.6052 106.766 63.6241 106.211 63.6138C105.901 63.6069 105.733 63.6943 105.735 64.0454C105.749 67.486 105.752 70.9266 105.761 74.3672C105.761 74.3861 105.781 74.4032 105.839 74.5025H105.841Z" fill="#1C2F90"/>
<path d="M57.1907 49.543C60.2971 49.543 62.7801 52.0143 62.7887 55.1141C62.7973 58.1797 60.2714 60.7366 57.2181 60.752C54.1529 60.7674 51.5894 58.1951 51.5928 55.109C51.5962 52.0195 54.0861 49.5447 57.1907 49.5447V49.543Z" fill="#BB251F"/>
<path d="M80.9084 69.4195C80.9084 68.481 80.9341 67.5408 80.8981 66.6023C80.8793 66.097 81.0865 65.9891 81.5386 66.008C82.4496 66.0474 83.0832 66.5098 83.4548 67.2924C84.1621 68.7858 84.1775 70.3118 83.4291 71.7949C83.0387 72.569 82.3948 73.0108 81.465 72.9766C81.0608 72.9611 80.8913 72.8533 80.9016 72.4268C80.9238 71.4249 80.9084 70.4214 80.9084 69.4178V69.4195Z" fill="#FFF100"/>
</g>
<defs>
<clipPath id="clip0_820_970">
<rect width="107" height="107" fill="white" transform="translate(17 16)"/>
</clipPath>
</defs>
</svg>
