<svg width="140" height="140" viewBox="0 0 140 140" fill="none" xmlns="http://www.w3.org/2000/svg">
<rect width="140" height="140" rx="30" fill="#3ACE01"/>
<path fill-rule="evenodd" clip-rule="evenodd" d="M70.4725 22.7708C98.3781 22.7708 121 40.9015 121 63.2669C121 71.079 118.238 78.373 113.457 84.5591C113.22 84.9112 112.911 85.3002 112.521 85.7301L112.492 85.7622C110.858 87.718 109.019 89.5542 106.997 91.2492C93.024 104.176 70.0252 119.566 66.9897 117.191C64.3509 115.127 71.3358 105.032 63.2772 103.352C62.7151 103.288 62.1543 103.219 61.5984 103.14L61.5878 103.139V103.138C37.9192 99.7728 19.9453 83.2024 19.9453 63.2669C19.9446 40.9015 42.5668 22.7708 70.4725 22.7708Z" fill="white"/>
<path fill-rule="evenodd" clip-rule="evenodd" d="M41.1576 76.1813H51.3482C52.7978 76.1813 53.9834 74.9943 53.9834 73.5435V73.3234C53.9834 71.8726 52.7978 70.686 51.3482 70.686H44.0126V53.9812C44.0126 52.5304 42.827 51.3438 41.3774 51.3438H41.1576C39.7081 51.3438 38.5225 52.5304 38.5225 53.9812V73.5431C38.5225 74.9943 39.7081 76.1813 41.1576 76.1813ZM104.304 63.9196V63.6996C104.304 62.2488 103.118 61.0621 101.668 61.0621H94.333V56.8858H101.668C103.118 56.8858 104.304 55.6992 104.304 54.2483V54.0283C104.304 52.5775 103.118 51.3908 101.668 51.3908H91.4777C90.0281 51.3908 88.8425 52.5775 88.8425 54.0283V73.5902C88.8425 75.041 90.0281 76.228 91.4777 76.228H101.668C103.118 76.228 104.304 75.041 104.304 73.5902V73.3702C104.304 71.9193 103.118 70.7327 101.668 70.7327H94.333V66.5564H101.668C103.118 66.5571 104.304 65.3701 104.304 63.9196ZM84.7061 75.395L84.7068 75.3939C85.1944 74.9018 85.4683 74.2369 85.4688 73.5438V53.982C85.4688 52.5311 84.2832 51.3445 82.8333 51.3445H82.6134C81.1639 51.3445 79.9783 52.5311 79.9783 53.982V65.465L70.4534 52.6782C69.9984 51.8831 69.1416 51.3445 68.1653 51.3445H67.9455C66.4959 51.3445 65.31 52.5311 65.31 53.982V73.5438C65.31 74.9947 66.4956 76.1817 67.9455 76.1817H68.1653C69.6149 76.1817 70.8005 74.9947 70.8005 73.5438V61.8459L80.3939 74.9607C80.4529 75.0527 80.5175 75.141 80.5871 75.2249L80.5875 75.2257C80.8511 75.5855 81.2116 75.8321 81.6134 75.9828C81.9222 76.1105 82.2598 76.1813 82.613 76.1813H82.8329C83.2623 76.1816 83.6852 76.0758 84.0641 75.8734C84.3276 75.7478 84.5497 75.5858 84.7061 75.395ZM58.7454 76.1813H58.9653C60.4148 76.1813 61.6004 74.9943 61.6004 73.5435V53.9816C61.6004 52.5308 60.4148 51.3441 58.9653 51.3441H58.7454C57.2959 51.3441 56.1099 52.5308 56.1099 53.9816V73.5435C56.1099 74.9943 57.2959 76.1813 58.7454 76.1813Z" fill="#3ACE01"/>
</svg>
