<svg width="140" height="140" viewBox="0 0 140 140" fill="none" xmlns="http://www.w3.org/2000/svg">
<rect width="140" height="140" rx="30" fill="url(#paint0_linear_571_676)"/>
<path d="M48.859 107.265V56.4809H31.9941V107.265H48.8607H48.859ZM40.43 49.5483C46.31 49.5483 49.9706 45.6487 49.9706 40.7753C49.8605 35.7908 46.31 32 40.5419 32C34.7698 32 31 35.7908 31 40.7748C31 45.6483 34.6593 49.5479 40.3195 49.5479H40.4287L40.43 49.5483ZM58.1939 107.265H75.0575V78.9079C75.0575 77.3921 75.1676 75.8724 75.6131 74.7897C76.8317 71.756 79.6066 68.6156 84.2666 68.6156C90.3675 68.6156 92.8095 73.2722 92.8095 80.0999V107.265H109.673V78.147C109.673 62.5489 101.354 55.2903 90.2583 55.2903C81.1615 55.2903 77.1663 60.3792 74.9466 63.8452H75.0588V56.4826H58.1948C58.4149 61.2468 58.1935 107.267 58.1935 107.267L58.1939 107.265Z" fill="white"/>
<defs>
<linearGradient id="paint0_linear_571_676" x1="70" y1="0" x2="70" y2="140" gradientUnits="userSpaceOnUse">
<stop stop-color="#006699"/>
<stop offset="1" stop-color="#2A7397"/>
</linearGradient>
</defs>
</svg>
