<svg width="140" height="140" viewBox="0 0 140 140" fill="none" xmlns="http://www.w3.org/2000/svg">
<rect width="140" height="140" rx="30" fill="white"/>
<g clip-path="url(#clip0_830_641)">
<path d="M58.4805 121.773C57.9474 121.375 57.503 120.9 57.0653 120.394C55.8746 119.018 54.5941 117.72 53.3685 116.372C52.1452 115.026 50.9781 113.629 49.7256 112.312C48.6258 111.155 47.6516 109.884 46.4665 108.804C45.673 108.081 45.3902 107.076 45.177 106.063C44.7617 104.082 44.3196 102.102 43.9346 100.12C43.6035 98.4158 43.0985 96.7405 42.919 95.0013C42.8337 94.1692 42.6934 93.3092 42.3769 92.5455C42.0862 91.8458 42.4106 91.5957 42.8786 91.3109C43.8864 90.6975 44.8953 90.0864 46.0142 89.4069C44.6753 88.1543 43.4251 86.9119 42.0862 85.7715C41.5722 85.3341 41.1626 84.8116 40.6609 84.3709C40.2524 84.0121 40.3826 83.4144 40.2749 82.9423C39.6677 80.2814 39.1784 77.5935 38.6273 74.9202C38.2806 73.237 38.0011 71.5304 37.5006 69.8932C36.9978 68.2482 36.9641 66.5224 36.4367 64.8886C36.1662 64.0498 36.3873 63.8738 37.2716 63.4791C38.8372 62.7805 40.3725 62.0135 42.0425 61.2162C40.873 60.29 39.8069 59.4355 38.7306 58.5956C37.5713 57.6918 36.4142 56.7846 35.2336 55.91C34.4345 55.3168 34.2179 54.4399 33.9385 53.5686C33.6568 52.6884 33.7151 51.7666 33.5288 50.8684C33.2202 49.3748 32.7993 47.9092 32.5075 46.4155C32.2247 44.9712 31.8432 43.5471 31.7175 42.0681C31.64 41.1643 31.4201 40.2605 31.1586 39.3869C30.6591 37.715 30.3932 36.0061 30.1081 34.2904C29.8769 32.9011 29.6783 31.4814 29.1845 30.1459C28.8893 29.3486 29.0498 28.5368 29.0105 27.7316C28.9982 27.4872 29.189 27.5107 29.3719 27.4558C31.1294 26.9321 32.8801 26.386 34.6298 25.8366C37.8474 24.8262 41.0459 23.7486 44.2859 22.8145C46.3587 22.2169 48.3979 21.5216 50.4652 20.9139C51.4315 20.6302 52.3888 20.3151 53.3618 20.0594C53.9173 19.9136 54.4526 20.0504 54.9756 20.3094C58.4345 22.0184 61.899 23.7172 65.3691 25.4048C67.5542 26.4679 69.7415 27.5264 71.9468 28.5446C72.5696 28.8328 72.7784 29.2197 72.8098 29.897C73.1566 37.539 73.5348 45.1798 73.9085 52.8207C73.9467 53.6034 73.9961 54.3861 74.06 55.1665C74.1016 55.6756 73.9141 55.956 73.4316 56.1982C71.6584 57.0863 69.9143 58.0327 68.1692 58.9758C67.7854 59.1832 67.3623 59.2909 66.919 59.4187C67.1793 59.8852 67.5082 60.1027 67.8392 60.3382C69.1085 61.2398 70.4339 62.0595 71.7246 62.9263C72.4159 63.3905 73.3025 63.5666 73.7896 64.3436C74.3574 64.3179 74.2923 64.7114 74.3092 65.0871C74.4057 67.2861 74.5157 69.4828 74.6245 71.7614C75.3899 71.3913 76.1262 71.074 76.8253 70.6893C78.1653 69.9515 79.5278 69.2551 80.8038 68.404C81.5389 67.914 82.2751 67.9768 82.9945 68.459C83.944 69.0959 84.8968 69.7284 85.8429 70.3698C86.2009 70.612 86.5555 70.8362 87.0145 70.7118C86.9551 70.8262 86.973 70.9237 87.1043 70.9517C87.1414 70.9596 87.2222 70.8833 87.2412 70.8306C87.2727 70.7432 87.2165 70.695 87.1212 70.705C87.3142 68.7718 87.2895 66.8308 87.2929 64.8931C87.294 64.2674 87.4881 63.9691 88.0594 63.6585C89.6766 62.7805 91.2265 61.7802 92.8021 60.8249C94.673 59.6912 96.5618 58.5844 98.4035 57.4047C99.1947 56.8979 99.8804 56.9035 100.668 57.3588C102.236 58.2648 103.831 59.126 105.413 60.0074C107.046 60.9179 108.691 61.8083 110.306 62.7513C111.359 63.3658 112.443 63.9265 113.494 64.5477C114.012 64.855 114.058 65.1622 113.978 65.6197C113.692 67.2793 113.39 68.9423 113.172 70.6052C113.003 71.8903 112.958 73.2057 112.709 74.4829C112.403 76.0584 112.188 77.6439 112.013 79.2351C111.97 79.631 111.75 79.8317 111.49 80.0391C109.877 81.3287 108.26 82.616 106.645 83.9022C104.939 85.2613 103.221 86.608 101.529 87.985C100.58 88.7576 100.471 88.7621 99.4528 88.0142C98.5336 87.3391 97.5775 86.7134 96.6381 86.0664C96.5831 85.9184 96.5124 85.804 96.334 85.9341C95.9838 87.809 96.0119 89.7164 95.8705 91.6081C95.8121 92.3908 95.6337 92.9358 94.9524 93.4639C92.8291 95.1089 90.7383 96.7966 88.6115 98.4393C86.6318 99.9677 84.7049 101.566 82.7611 103.141C82.0372 103.728 81.7937 103.733 80.989 103.254C80.3179 102.855 79.7758 102.293 79.1967 101.799C78.1429 100.897 77.0262 100.077 75.8579 98.9809C75.8579 99.4485 75.8501 99.7255 75.8591 100.004C75.941 102.351 76.0005 104.699 76.1239 107.042C76.1699 107.923 75.8995 108.583 75.216 109.121C73.5382 110.443 71.8727 111.781 70.2016 113.113C68.1591 114.741 66.1165 116.37 64.0717 117.996C62.5881 119.176 61.101 120.353 59.6174 121.53H59.5411L59.5276 121.606C59.4917 121.677 59.4345 121.721 59.3581 121.735C59.0675 121.747 58.7746 121.758 58.4828 121.769L58.4805 121.773ZM49.1948 110.308C49.2127 110.33 49.2273 110.355 49.2486 110.373C49.2598 110.383 49.2812 110.382 49.2991 110.385C49.2621 110.363 49.2239 110.34 49.1869 110.318C49.1566 110.199 49.0825 110.124 48.9624 110.092C48.72 109.208 47.9187 108.773 47.3643 108.143C46.939 107.66 46.6045 107.198 46.471 106.528C45.7 102.677 44.8706 98.8385 44.067 94.9945C44.0109 94.7265 43.9986 94.4552 43.6709 94.306C43.6709 94.4664 43.6518 94.5797 43.6731 94.6839C44.4228 98.2868 45.2095 101.883 45.911 105.496C46.168 106.821 46.6259 107.961 47.7044 108.825C48.1656 109.195 48.5506 109.661 48.9703 110.083C49.0455 110.159 49.1196 110.233 49.1948 110.308ZM77.6794 85.6694C77.4909 85.3936 77.2743 85.1626 76.7962 85.0639C77.1115 85.4205 77.327 85.6571 77.6861 85.6616C77.8646 86.0462 78.1508 86.2873 78.584 86.3333C78.832 86.7874 79.1821 87.116 79.7029 87.2303C79.8981 87.5937 80.1731 87.8493 80.6018 87.902C80.7825 88.2373 80.8465 88.5917 80.8409 88.9752C80.7836 92.6655 81.1057 96.3503 81.0126 100.042C81.0036 100.414 81.0081 100.787 81.0148 101.161C81.0182 101.334 80.9823 101.523 81.1585 101.648C81.1798 101.616 81.218 101.586 81.2191 101.554C81.3392 97.2686 81.2191 92.9829 81.2281 88.6959C81.2281 88.2508 81.0159 88.003 80.5962 87.9076C80.3886 87.5611 80.0945 87.3279 79.6961 87.2359C79.4189 86.8177 79.0475 86.5172 78.5772 86.3389C78.3528 86.0148 78.0621 85.7804 77.6794 85.6672V85.6694ZM99.2149 86.5609C99.4427 86.7616 99.6469 87.0038 100.224 87.098C99.8007 86.7168 99.5639 86.5306 99.2081 86.5699C99.0982 86.2536 98.8815 86.0574 98.4562 85.9273C98.6919 86.2693 98.9466 86.423 99.2149 86.5609ZM51.5134 66.2073C51.7827 66.0862 51.9556 66.0201 52.1183 65.936C56.8723 63.4477 61.6263 60.9605 66.378 58.4678C68.2623 57.4788 70.132 56.4606 72.0287 55.4962C72.536 55.2383 72.7705 54.9333 72.6897 54.3681C72.6381 53.9992 72.6347 53.6236 72.6179 53.2513C72.4428 49.488 72.2633 45.7248 72.0994 41.9604C71.9962 39.5753 71.9243 37.188 71.8289 34.8017C71.7784 33.5335 71.7089 32.2664 71.6415 30.9993C71.6281 30.7548 71.6999 30.4767 71.444 30.2962C71.0018 30.2154 70.636 30.4487 70.2634 30.5911C66.2894 32.1071 62.321 33.6411 58.3515 35.1684C54.9734 36.4681 51.5931 37.7632 48.2161 39.064C47.4462 39.36 47.453 39.3656 47.5663 40.1663C47.9019 42.5278 48.2229 44.8905 48.5674 47.2498C49.3788 52.8162 50.1891 58.3837 51.0342 63.9444C51.1442 64.6666 51.1139 65.4347 51.5134 66.2084V66.2073ZM55.8016 96.4871C56.0979 96.3424 56.2393 96.2931 56.3594 96.2123C62.0168 92.4558 67.6709 88.6937 73.3317 84.9428C73.7503 84.6658 73.9242 84.3429 73.9007 83.8327C73.8221 82.1204 73.7851 80.4069 73.6886 78.6935C73.4663 74.7486 73.3508 70.7981 73.1824 66.8499C73.1689 66.5437 73.2632 66.2006 73.0545 65.9046C72.8839 65.9573 72.7705 65.973 72.6785 66.0245C70.8986 67.0405 69.122 68.062 67.3421 69.078C62.8417 71.6481 58.3402 74.2149 53.841 76.785C52.9858 77.2739 52.9118 77.3928 53.0554 78.1553C53.8825 82.5465 54.3763 86.9881 55.0396 91.404C55.2876 93.0513 55.5334 94.6985 55.8005 96.4871H55.8016ZM59.3099 120.049C59.5747 120.084 59.7083 119.939 59.8508 119.827C64.7485 115.966 69.6405 112.1 74.546 108.25C74.9163 107.96 75.0465 107.65 75.0095 107.2C74.9253 106.16 74.8569 105.118 74.8052 104.075C74.6773 101.467 74.5696 98.8565 74.4394 96.2482C74.4035 95.5317 74.3193 94.8185 74.2475 94.0066C73.9209 94.2096 73.7267 94.3161 73.5483 94.444C68.3173 98.1713 63.0965 101.913 57.8475 105.616C57.2213 106.058 57.2303 106.549 57.3223 107.162C57.7623 110.072 58.1719 112.987 58.6376 115.892C58.8598 117.282 58.9586 118.695 59.3076 120.048L59.3099 120.049ZM82.3279 101.7C82.6343 101.796 82.7532 101.553 82.9148 101.427C84.1752 100.433 85.4287 99.4317 86.6823 98.4304C89.0447 96.5443 91.4083 94.6604 93.7662 92.7687C94.1377 92.4704 94.5125 92.2069 94.5349 91.6182C94.6775 87.7058 95.1511 83.8125 95.2162 79.8945C95.2207 79.65 95.3127 79.3775 95.0557 79.1645C94.6932 79.1477 94.4553 79.4067 94.1927 79.594C90.3993 82.3076 86.6184 85.0381 82.8082 87.7271C82.274 88.1039 82.1281 88.5109 82.1349 89.1164C82.1753 93.0333 82.1842 96.9502 82.2134 100.867C82.2157 101.147 82.1158 101.461 82.3279 101.7ZM101.445 86.6114C101.632 86.5687 101.719 86.5743 101.768 86.5351C104.698 84.2251 107.625 81.9095 110.556 79.5996C110.89 79.3361 111.087 79.04 111.148 78.5848C111.643 74.8574 112.173 71.1345 112.678 67.4094C112.709 67.1807 112.888 66.9093 112.625 66.694C112.545 66.7187 112.47 66.7254 112.416 66.7624C109.303 68.9815 106.198 71.2108 103.076 73.4176C102.553 73.7865 102.428 74.2631 102.381 74.8507C102.183 77.3008 101.906 79.7453 101.751 82.1966C101.659 83.6431 101.385 85.0796 101.444 86.6114H101.445Z" fill="#010101"/>
<path d="M58.48 121.774C58.7718 121.762 59.0647 121.751 59.3554 121.74C59.0748 122.09 58.783 122.071 58.48 121.774Z" fill="#00B159"/>
<path d="M87.1186 70.7073C87.214 70.6972 87.2701 70.7455 87.2387 70.8329C87.2196 70.8856 87.1399 70.9619 87.1017 70.954C86.9704 70.926 86.9525 70.8284 87.012 70.7141L87.0613 70.6625L87.1186 70.7062V70.7073Z" fill="#00B159"/>
<path d="M96.3315 85.9374C96.51 85.8062 96.5807 85.9217 96.6357 86.0697C96.5335 86.0249 96.4325 85.9811 96.3315 85.9374Z" fill="#00B159"/>
<path d="M59.5249 121.611L59.5384 121.535C59.5384 121.535 59.6163 121.535 59.6152 121.535L59.5994 121.609L59.5249 121.611Z" fill="#00B159"/>
<path d="M51.5129 66.2074C51.1134 65.4348 51.1437 64.6667 51.0337 63.9434C50.1875 58.3815 49.3784 52.8151 48.567 47.2488C48.2224 44.8895 47.9014 42.5257 47.5659 40.1652C47.4525 39.3646 47.4447 39.359 48.2157 39.0629C51.5938 37.7633 54.9729 36.467 58.351 35.1674C62.3216 33.6401 66.2889 32.1061 70.2629 30.59C70.6355 30.4476 71.0014 30.2144 71.4436 30.2951C71.6994 30.4757 71.6276 30.7538 71.6411 30.9982C71.7084 32.2653 71.778 33.5325 71.8285 34.8007C71.9239 37.1869 71.9957 39.5732 72.099 41.9594C72.2617 45.7237 72.4424 49.487 72.6175 53.2502C72.6343 53.6236 72.6377 53.9993 72.6893 54.3671C72.769 54.9322 72.5344 55.2373 72.0283 55.4952C70.1316 56.4595 68.2619 57.4777 66.3776 58.4667C61.6258 60.9595 56.8718 63.4478 52.1179 65.9349C51.9551 66.0201 51.7834 66.0863 51.5129 66.2063V66.2074Z" fill="#00B159"/>
<path d="M55.8013 96.487C55.5342 94.6996 55.2884 93.0512 55.0404 91.404C54.3771 86.9881 53.8833 82.5465 53.0562 78.1553C52.9125 77.3927 52.9866 77.2739 53.8418 76.785C58.341 74.2148 62.8436 71.6481 67.3428 69.078C69.1227 68.062 70.8993 67.0393 72.6793 66.0245C72.7713 65.9718 72.8846 65.9572 73.0552 65.9045C73.2628 66.2006 73.1697 66.5426 73.1832 66.8498C73.3515 70.7981 73.4671 74.7486 73.6893 78.6935C73.7858 80.4069 73.8229 82.1203 73.9014 83.8326C73.925 84.3429 73.7499 84.6658 73.3324 84.9428C67.6716 88.6937 62.0176 92.4558 56.3602 96.2123C56.239 96.2919 56.0987 96.3424 55.8024 96.487H55.8013Z" fill="#00B159"/>
<path d="M59.3085 120.049C58.9595 118.697 58.8607 117.282 58.6385 115.893C58.1728 112.988 57.7631 110.072 57.3232 107.163C57.2301 106.55 57.2211 106.059 57.8484 105.617C63.0973 101.916 68.3182 98.1736 73.5492 94.4451C73.7287 94.3173 73.9218 94.2108 74.2483 94.0078C74.319 94.8197 74.4043 95.5328 74.4403 96.2494C74.5704 98.8576 74.6782 101.468 74.8061 104.076C74.8566 105.119 74.9262 106.161 75.0104 107.202C75.0463 107.651 74.9161 107.961 74.5469 108.251C69.6414 112.101 64.7493 115.967 59.8517 119.828C59.7092 119.94 59.5756 120.085 59.3108 120.05L59.3085 120.049Z" fill="#00B159"/>
<path d="M82.3275 101.7C82.1154 101.461 82.2153 101.148 82.2131 100.867C82.1839 96.9502 82.1749 93.0333 82.1345 89.1164C82.1278 88.5098 82.2737 88.1039 82.8079 87.7271C86.618 85.0381 90.399 82.3076 94.1923 79.594C94.4549 79.4067 94.6928 79.1477 95.0553 79.1645C95.3135 79.3775 95.2203 79.65 95.2158 79.8945C95.1507 83.8125 94.6771 87.7058 94.5346 91.6182C94.5133 92.2069 94.1384 92.4704 93.7658 92.7687C91.4079 94.6593 89.0444 96.5442 86.682 98.4303C85.4284 99.4317 84.1737 100.433 82.9145 101.427C82.7529 101.554 82.6339 101.796 82.3275 101.7Z" fill="#00B159"/>
<path d="M101.445 86.6115C101.386 85.0797 101.66 83.6433 101.752 82.1967C101.908 79.7443 102.185 77.2998 102.382 74.8508C102.429 74.2621 102.553 73.7866 103.076 73.4177C106.199 71.2109 109.304 68.9816 112.417 66.7625C112.47 66.7244 112.546 66.7188 112.626 66.6941C112.889 66.9105 112.709 67.1819 112.679 67.4095C112.172 71.1357 111.643 74.8575 111.149 78.5849C111.088 79.0401 110.892 79.3362 110.556 79.5997C107.626 81.9108 104.699 84.2252 101.769 86.5352C101.718 86.5745 101.633 86.57 101.446 86.6115H101.445Z" fill="#00B159"/>
<path d="M48.9699 110.084C48.5501 109.661 48.1652 109.195 47.7039 108.825C46.6254 107.961 46.1675 106.822 45.9105 105.496C45.2091 101.883 44.4224 98.2869 43.6727 94.684C43.6514 94.5798 43.6704 94.4676 43.6704 94.3062C43.9982 94.4553 44.0105 94.7278 44.0666 94.9947C44.8702 98.8386 45.6995 102.677 46.4705 106.528C46.6052 107.198 46.9385 107.66 47.3639 108.144C47.9183 108.773 48.7196 109.208 48.962 110.092L48.9699 110.084Z" fill="#00B159"/>
<path d="M80.5938 87.9099C81.0135 88.0052 81.2267 88.2519 81.2256 88.6982C81.2166 92.984 81.3367 97.2709 81.2166 101.557C81.2166 101.588 81.1773 101.618 81.156 101.65C80.9809 101.525 81.0157 101.336 81.0124 101.163C81.0056 100.79 81 100.417 81.0101 100.044C81.1033 96.3525 80.7812 92.6678 80.8384 88.9774C80.844 88.5939 80.78 88.2396 80.5994 87.9043L80.5938 87.911V87.9099Z" fill="#00B159"/>
<path d="M78.5757 86.3412C79.0448 86.5195 79.4174 86.82 79.6946 87.2383L79.7013 87.2316C79.1806 87.1161 78.8304 86.7886 78.5824 86.3345L78.5757 86.3423V86.3412Z" fill="#00B159"/>
<path d="M99.2133 86.5609C98.945 86.423 98.6903 86.2694 98.4546 85.9274C98.8799 86.0563 99.0965 86.2537 99.2065 86.5699L99.2133 86.5609Z" fill="#00B159"/>
<path d="M78.5826 86.3333C78.1494 86.2885 77.8633 86.0462 77.6848 85.6616L77.6792 85.6683C78.0619 85.7816 78.3526 86.0171 78.577 86.34L78.5838 86.3322L78.5826 86.3333Z" fill="#00B159"/>
<path d="M99.2065 86.5688C99.5623 86.5307 99.7991 86.7157 100.222 87.0969C99.6454 87.0039 99.4411 86.7605 99.2133 86.5598L99.2065 86.5688Z" fill="#00B159"/>
<path d="M79.6948 87.2382C80.0932 87.3301 80.3862 87.5634 80.5949 87.9099L80.6005 87.9031C80.1729 87.8504 79.8968 87.5936 79.7016 87.2314L79.6948 87.2382Z" fill="#00B159"/>
<path d="M77.6844 85.6627C77.3253 85.6583 77.1109 85.4217 76.7944 85.0651C77.2725 85.1637 77.4891 85.3947 77.6777 85.6706L77.6833 85.6639L77.6844 85.6627Z" fill="#00B159"/>
<path d="M48.9609 110.092C49.0799 110.123 49.1551 110.198 49.1854 110.318L49.1932 110.309C49.1181 110.234 49.044 110.16 48.9688 110.085L48.9609 110.094V110.092Z" fill="#00B159"/>
<path d="M49.1855 110.318C49.2228 110.341 49.2612 110.363 49.2984 110.386C49.2815 110.382 49.26 110.383 49.2476 110.373C49.2262 110.355 49.2115 110.33 49.1934 110.308L49.1855 110.317V110.318Z" fill="#00B159"/>
</g>
<defs>
<clipPath id="clip0_830_641">
<rect width="90" height="102" fill="white" transform="translate(29 20)"/>
</clipPath>
</defs>
</svg>
