<svg width="140" height="140" viewBox="0 0 140 140" fill="none" xmlns="http://www.w3.org/2000/svg">
<rect width="140" height="140" rx="30" fill="#2C70AD"/>
<g clip-path="url(#clip0_2352_2)">
<path d="M23.9106 76.0826C23.9106 81.2396 26.3592 85.8358 30.1788 88.8134C29.3504 91.2465 27.0084 93 24.2498 93C20.7983 93 18 90.2552 18 86.8698V53.1302C18 49.7448 20.7983 47 24.2498 47C25.9755 47 27.5384 47.6862 28.6692 48.7953C29.8 49.9045 30.4995 51.4375 30.4995 53.1302V63.1086C26.4968 66.0748 23.9106 70.7822 23.9106 76.0826Z" fill="white"/>
<path d="M62.2871 76.0826C62.2871 81.2396 64.7357 85.8358 68.5553 88.8134C67.7268 91.2465 65.3849 93 62.6262 93C59.1748 93 56.3765 90.2552 56.3765 86.8698V53.1302C56.3765 49.7448 59.1748 47 62.6262 47C64.3519 47 65.9149 47.6862 67.0456 48.7953C68.1764 49.9045 68.876 51.4375 68.876 53.1302V63.1086C64.8732 66.0748 62.2871 70.7822 62.2871 76.0826Z" fill="white"/>
<path d="M41.8421 59.8306C32.6913 59.8306 25.2729 67.1069 25.2729 76.0826C25.2729 85.0583 32.6913 92.3347 41.8421 92.3347C47.0473 92.3347 51.6915 89.9805 54.7292 86.2986V65.8666C51.6915 62.1847 47.0473 59.8306 41.8421 59.8306ZM41.8421 80.4545C39.38 80.4545 37.3849 78.4976 37.3849 76.0826C37.3849 73.6676 39.38 71.7107 41.8421 71.7107C44.3042 71.7107 46.2993 73.6676 46.2993 76.0826C46.2993 78.4976 44.3042 80.4545 41.8421 80.4545Z" fill="white"/>
<path d="M93.1231 65.5235C90.0835 62.0393 85.5682 59.8306 80.5267 59.8306C71.3758 59.8306 63.9575 67.1069 63.9575 76.0826C63.9575 85.0583 71.3758 92.3347 80.5267 92.3347C85.5682 92.3347 90.0835 90.1259 93.1231 86.6417C90.6465 83.8009 89.1504 80.1133 89.1504 76.0826C89.1504 72.0519 90.6465 68.3643 93.1231 65.5235ZM80.5267 80.4545C78.0646 80.4545 76.0695 78.4976 76.0695 76.0826C76.0695 73.6676 78.0646 71.7107 80.5267 71.7107C82.9888 71.7107 84.9839 73.6676 84.9839 76.0826C84.9839 78.4976 82.9888 80.4545 80.5267 80.4545Z" fill="white"/>
<path d="M107.431 59.8306C98.28 59.8306 90.8617 67.1069 90.8617 76.0826C90.8617 85.0583 98.28 92.3347 107.431 92.3347C116.582 92.3347 124 85.0583 124 76.0826C124 67.1069 116.582 59.8306 107.431 59.8306ZM107.431 80.4545C104.969 80.4545 102.974 78.4976 102.974 76.0826C102.974 73.6676 104.969 71.7107 107.431 71.7107C109.893 71.7107 111.888 73.6676 111.888 76.0826C111.888 78.4976 109.893 80.4545 107.431 80.4545Z" fill="white"/>
</g>
<defs>
<clipPath id="clip0_2352_2">
<rect width="106" height="46" fill="white" transform="translate(18 47)"/>
</clipPath>
</defs>
</svg>
