<svg width="140" height="140" viewBox="0 0 140 140" fill="none" xmlns="http://www.w3.org/2000/svg">
<rect width="140" height="140" rx="30" fill="#01BAB5"/>
<path d="M82.4105 70.426C82.4105 73.3526 82.4105 76.2783 82.4105 79.2049C82.4105 79.6757 82.2406 79.8693 81.7697 79.8735C80.5446 79.8837 79.3204 79.8727 78.0954 79.8794C77.7665 79.8811 77.5796 79.7476 77.4841 79.4272C77.2229 78.5565 77.2322 78.4491 76.3149 79.0054C73.869 80.4889 71.2785 80.6884 68.65 79.554C66.7993 78.7551 65.8415 77.2022 65.4424 75.2799C65.2995 74.5918 65.2598 73.8911 65.2623 73.1852C65.2725 69.3448 65.2674 65.5036 65.2691 61.6632C65.2691 61.0706 65.3223 61.0182 65.9285 61.0174C67.4064 61.0149 68.8851 61.014 70.3629 61.0165C70.9361 61.0165 71.0004 61.0799 71.0004 61.6404C71.0021 65.3683 71.0029 69.0963 71.0029 72.8251C71.0029 73.1488 71.0198 73.4684 71.0765 73.7896C71.3064 75.0974 72.0073 75.7407 73.3431 75.7711C74.2537 75.7922 75.0915 75.531 75.7949 74.9207C76.3816 74.4109 76.6716 73.7719 76.6708 72.9925C76.6674 69.3203 76.6691 65.649 76.6708 61.9768C76.6708 61.7655 76.6725 61.555 76.6809 61.3437C76.6902 61.1264 76.8052 61.0174 77.0284 61.0182C78.6618 61.0199 80.2944 61.0182 81.9278 61.0216C82.3505 61.0225 82.4156 61.2955 82.4148 61.6497C82.4089 64.5763 82.4114 67.502 82.4114 70.4285H82.4097L82.4105 70.426Z" fill="white"/>
<path d="M49.1152 70.421C49.1769 72.115 48.9597 73.7913 48.3146 75.3941C47.4243 77.6063 45.8459 79.1102 43.5479 79.7586C40.7343 80.5523 37.9333 80.5135 35.2727 79.1778C33.4153 78.2454 32.3305 76.6283 31.8131 74.6586C31.0209 71.6425 31.0319 68.6271 32.0693 65.6566C32.4109 64.6786 32.9655 63.8222 33.6782 63.0623C34.9032 61.7554 36.4749 61.1434 38.1827 60.8585C40.0478 60.5474 41.9103 60.6252 43.7365 61.1586C45.3386 61.6269 46.666 62.5246 47.5545 63.933C48.3797 65.2399 48.8903 66.6888 49.0391 68.2493C49.1076 68.9653 49.1381 69.6788 49.1144 70.4201L49.1152 70.421ZM43.2977 70.541C43.3281 69.6128 43.2639 68.6314 43.0407 67.6702C42.7566 66.4462 42.1775 65.4935 40.7952 65.2534C39.582 65.0421 38.4626 65.4284 37.9046 66.3388C37.6383 66.7733 37.4751 67.2526 37.3728 67.7497C37.0693 69.2214 37.0684 70.7067 37.2172 72.1936C37.2646 72.6653 37.355 73.1404 37.4878 73.5952C37.9291 75.1075 38.7796 75.7178 40.3648 75.706C41.7903 75.695 42.552 75.1346 42.9544 73.7693C43.2596 72.7355 43.3104 71.6704 43.2985 70.541H43.2977Z" fill="white"/>
<path d="M92.0851 60.752C93.6002 60.6734 95.0577 60.7444 96.4814 61.1823C97.7183 61.5627 98.8335 62.1629 99.8167 63.0023C100.204 63.3328 100.215 63.4486 99.9038 63.8392C99.1412 64.7944 98.3668 65.7412 97.605 66.6973C97.4393 66.9052 97.266 66.9466 97.0175 66.8638C96.7469 66.7733 96.5068 66.6313 96.2836 66.4682C95.2572 65.7133 94.1066 65.3405 92.8392 65.3075C92.7547 65.305 92.6702 65.3075 92.5865 65.3194C91.916 65.409 91.4747 65.7361 91.3859 66.2061C91.3014 66.6575 91.5406 67.0236 92.179 67.3685C92.4749 67.5282 92.7834 67.6694 93.0971 67.7911C94.4202 68.3051 95.7459 68.8106 97.0724 69.3153C98.8318 69.9848 100.205 71.9789 100.246 73.8632C100.29 75.8573 99.509 77.4491 97.9272 78.6241C96.6404 79.5802 95.1524 80.0435 93.5562 80.1593C90.9226 80.3512 88.4438 79.8254 86.1315 78.5472C85.5768 78.2404 85.0603 77.8769 84.5801 77.4601C84.356 77.2657 84.3332 77.0746 84.4879 76.8346C85.1795 75.7627 85.8778 74.695 86.5525 73.6121C86.8087 73.2013 87.053 73.378 87.3159 73.5648C88.0379 74.0787 88.7811 74.5564 89.5851 74.9359C90.4838 75.3594 91.429 75.6097 92.4191 75.6883C92.8748 75.7246 93.3203 75.6638 93.7422 75.4981C94.1505 75.3375 94.4727 75.0805 94.5251 74.5944C94.5766 74.1143 94.2883 73.8328 93.9383 73.6011C93.251 73.1472 92.4723 72.9003 91.6954 72.6518C90.3815 72.2325 89.0931 71.7701 87.923 71.0059C85.3934 69.3516 85.0797 66.1867 86.3538 64.0049C87.4495 62.1282 89.1852 61.2271 91.249 60.8433C91.5373 60.79 91.8281 60.7207 92.086 60.7537L92.0851 60.752Z" fill="white"/>
<path d="M117.24 80.1948C116.005 80.2303 114.845 79.9048 113.669 79.5743C112.437 79.2285 111.349 78.6317 110.278 77.9774C110.029 77.8253 109.824 77.619 109.631 77.3891C109.433 77.1549 109.476 76.9816 109.614 76.7686C110.262 75.7652 110.908 74.7609 111.555 73.7567C111.835 73.3222 112.078 73.3382 112.494 73.6425C113.723 74.542 115.052 75.2487 116.565 75.5547C117.033 75.6494 117.503 75.7525 117.982 75.6942C118.598 75.6189 119.175 75.4583 119.515 74.8564C119.716 74.4997 119.556 73.9908 119.224 73.7558C118.171 73.0119 116.938 72.7237 115.751 72.3111C114.713 71.9502 113.695 71.5334 112.815 70.8538C111.103 69.5317 110.447 67.8097 110.826 65.671C111.13 63.9516 112.113 62.7115 113.566 61.8678C115.216 60.91 117.017 60.5178 118.942 60.7444C120.14 60.8855 121.337 61.0039 122.453 61.4942C123.381 61.9016 124.275 62.364 124.986 63.1215C125.178 63.326 125.193 63.4942 125.052 63.7123C124.614 64.3852 124.078 64.982 123.581 65.6076C123.318 65.9381 123.041 66.2568 122.784 66.5916C122.542 66.9069 122.268 66.9838 121.933 66.753C121.14 66.2069 120.29 65.7691 119.366 65.5011C118.662 65.2965 117.935 65.2145 117.213 65.4258C116.786 65.5501 116.474 65.9593 116.467 66.3532C116.46 66.7201 116.896 67.2425 117.301 67.4234C118.955 68.1656 120.736 68.5925 122.344 69.4488C124.996 70.8605 126.054 73.3517 124.901 76.2648C124.3 77.7822 123.123 78.7704 121.653 79.4263C120.247 80.0536 118.756 80.2032 117.242 80.1931L117.24 80.1948Z" fill="#F7BD02"/>
<path d="M52.2535 70.3626C52.2535 68.9273 52.2544 67.4919 52.2535 66.0573C52.2535 65.5239 52.1166 65.3929 51.5746 65.3929C51.1519 65.3929 50.7292 65.3828 50.3073 65.3963C50.0089 65.4064 49.8533 65.2906 49.8533 64.9871C49.8533 63.8054 49.8508 62.6236 49.855 61.4418C49.8558 61.1763 49.9911 61.036 50.2701 61.0174C51.7547 60.9151 52.8064 60.1357 53.58 58.9083C53.9706 58.2878 54.0865 57.5896 54.1972 56.8913C54.2462 56.5836 54.3756 56.4433 54.6884 56.445C55.6032 56.4509 56.5188 56.4526 57.4344 56.445C57.8123 56.4416 57.9155 56.642 57.9138 56.9784C57.907 58.1323 57.9113 59.2862 57.913 60.4401C57.913 60.9413 57.9916 61.0174 58.5073 61.0183C59.6757 61.02 60.845 61.0166 62.0134 61.0183C62.5536 61.0191 62.6382 61.1003 62.639 61.6201C62.6415 62.6895 62.6415 63.7589 62.639 64.8282C62.6373 65.3363 62.5849 65.3878 62.0835 65.3895C60.9008 65.3929 59.718 65.3929 58.5352 65.3954C58.0423 65.3963 57.9121 65.5231 57.9121 66.0235C57.9104 68.6551 57.907 71.2858 57.9163 73.9173C57.9206 75.1523 58.662 75.7694 59.8888 75.5961C60.5507 75.5023 61.1713 75.2977 61.7445 74.9503C62.2019 74.6739 62.3811 74.7423 62.557 75.2436C62.9273 76.2952 63.2858 77.3511 63.6721 78.3959C63.8167 78.7856 63.7432 79.0282 63.3593 79.2116C61.5069 80.0959 59.5455 80.3351 57.5232 80.2075C56.9204 80.1694 56.326 80.0587 55.7469 79.8795C53.7889 79.2725 52.8014 77.8507 52.4209 75.9224C52.2924 75.2732 52.2417 74.6164 52.2476 73.9528C52.2594 72.7566 52.251 71.5605 52.251 70.3652H52.2535V70.3626Z" fill="white"/>
<path d="M21.3928 65.2636C21.3928 67.9796 21.3928 70.6949 21.3928 73.4109C21.3928 74.2546 21.7792 74.6417 22.6348 74.6426C24.7332 74.646 26.8307 74.6426 28.9291 74.6443C29.6013 74.6443 29.641 74.6857 29.6418 75.3645C29.6427 76.6587 29.6393 77.9538 29.6401 79.248C29.6401 79.8059 29.581 79.8752 29.0086 79.8752C26.0377 79.8786 23.0659 79.8837 20.095 79.8744C19.4018 79.8719 18.7237 79.7425 18.1023 79.4128C16.5247 78.576 15.6708 77.2843 15.67 75.4786C15.6666 69.4142 15.67 63.3489 15.67 57.2844C15.67 56.4687 15.6869 56.4475 16.5433 56.4458C17.9654 56.4433 19.3874 56.4458 20.8103 56.4475C21.3302 56.4475 21.3928 56.5092 21.3928 57.0317C21.3936 59.7756 21.3928 62.5196 21.3928 65.2636Z" fill="white"/>
<path d="M110.068 60.7773C110.063 61.5491 109.865 62.2736 109.463 62.9287C108.493 64.5103 107.509 66.0835 106.523 67.6542C106.079 68.3617 105.573 68.3795 105.129 67.677C104.071 66.0015 103.006 64.3294 102.004 62.621C101.148 61.162 101.527 59.1255 102.725 57.7662C103.751 56.603 105.819 56.2201 106.998 56.6343C109.246 57.4239 110.081 59.0993 110.067 60.7773H110.068Z" fill="#F7BD02"/>
<path d="M43.2967 70.5419C43.3086 71.6712 43.257 72.7364 42.9526 73.7702C42.5502 75.1354 41.7884 75.6959 40.363 75.7069C38.7778 75.7187 37.9273 75.1084 37.486 73.5961C37.3532 73.1404 37.2628 72.6662 37.2154 72.1945C37.0666 70.7084 37.0683 69.2223 37.371 67.7506C37.4733 67.2535 37.6364 66.7742 37.9028 66.3397C38.4608 65.4293 39.5801 65.0438 40.7933 65.2543C42.1757 65.4944 42.7548 66.4462 43.0389 67.6711C43.2621 68.6322 43.3263 69.6137 43.2959 70.5419H43.2967Z" fill="#01BAB5"/>
</svg>
