<svg width="140" height="140" viewBox="0 0 140 140" fill="none" xmlns="http://www.w3.org/2000/svg">
<rect width="140" height="140" rx="30" fill="white"/>
<g clip-path="url(#clip0_834_996)">
<path d="M119.971 88.6688C117.085 88.9792 114.534 88.3293 112.073 87.3011C104.759 84.2554 99.9699 76.9935 99.9476 68.988C99.9348 64.4711 99.9891 59.951 99.9252 55.4374C99.8678 51.4217 96.4198 49.2328 92.9974 50.9302C91.2127 51.8161 90.7179 53.4231 90.6796 55.2046C90.5966 59.2623 90.4625 58.3829 93.6934 58.4637C97.1318 58.5478 96.9051 57.83 96.9147 61.7487C96.921 65.0305 96.9147 68.309 96.9115 71.5907C96.9093 73.1449 96.1655 73.923 94.6799 73.9252C93.8817 73.9252 93.0804 73.9801 92.2886 73.9122C91.0659 73.8088 90.6732 74.284 90.571 75.5483C90.0251 82.4092 83.3175 88.7335 76.6866 88.7561C76.4312 88.7561 76.1726 88.7205 75.7767 88.6914C75.7479 88.0674 75.7001 87.4951 75.7001 86.9228C75.6937 76.2208 75.6809 65.5187 75.7001 54.8166C75.7128 45.4466 82.9504 36.6716 91.7842 35.2651C101.774 33.6743 111.268 39.3875 114.129 48.8998C114.672 50.7104 115.432 51.4023 117.203 51.121C117.721 51.0402 118.263 51.1339 118.796 51.1178C119.674 51.0919 120.01 51.4961 120.003 52.3884C119.975 56.6919 120.016 60.9921 119.939 65.2956C119.933 65.6836 119.307 66.2074 118.857 66.3981C118.404 66.5889 117.813 66.4466 117.28 66.4466C115.093 66.4499 115.029 66.521 115.205 68.7002C115.409 71.2448 116.514 72.5737 119.023 73.4272C119.394 73.5533 119.933 73.9931 119.936 74.2905C119.994 79.0596 119.978 83.8286 119.978 88.6656L119.971 88.6688Z" fill="#E1017E"/>
<path d="M57.2953 86.509C50.428 91.1261 42.4115 88.5007 39.2381 82.5159C38.2452 80.6439 37.5748 78.3677 37.5205 76.2531C37.3194 68.4577 37.4598 60.6559 37.412 52.8573C37.4024 51.5349 37.827 51.0402 39.1487 51.0596C43.082 51.1178 47.0152 51.121 50.9484 51.0628C52.2861 51.0434 52.6852 51.5672 52.6724 52.8734C52.6213 58.897 52.6086 64.9238 52.7012 70.9441C52.7139 71.7136 53.2567 72.7547 53.8792 73.1459C54.4379 73.4984 55.6734 73.424 56.1874 73.0069C56.7717 72.5349 57.1516 71.4711 57.1644 70.6596C57.2442 64.8526 57.2027 59.0425 57.2059 53.2323C57.2059 51.0951 57.2122 51.0854 59.3353 51.0822C63.1089 51.0757 66.8825 51.1242 70.6561 51.066C71.9683 51.0466 72.4216 51.5219 72.4184 52.8476C72.3769 63.7113 72.4919 74.5783 72.3482 85.442C72.2045 96.2961 64.7627 104.02 54.0803 104.903C50.1918 105.226 46.4757 104.654 42.785 103.532C41.6836 103.196 41.1568 102.646 41.1888 101.366C41.2782 97.9256 41.2143 94.4822 41.2239 91.0388C41.2239 90.57 41.2814 90.1011 41.3292 89.4125C45.8339 91.3136 50.2972 92.497 54.7284 89.933C55.9193 89.2443 56.7461 87.9155 57.7422 86.8776C57.5922 86.7515 57.4453 86.6286 57.2953 86.5025V86.509Z" fill="#E1017E"/>
<path d="M38.4072 86.9778C34.9496 89.5677 29.1711 89.4125 25.2474 86.7903C21.5791 84.3362 19.7594 80.7312 19.2773 76.4374C19.0091 74.0416 19.0315 71.6102 19.0251 69.1949C18.9932 58.9843 18.9995 48.7704 18.9995 38.5566C18.9995 36.2836 19.0666 36.2254 21.3397 36.2222C24.8451 36.2189 28.3506 36.2222 31.856 36.2254C33.3991 36.2276 34.1717 37.0369 34.1738 38.6536C34.1738 49.8342 34.2345 61.0148 34.1419 72.1921C34.0972 77.5561 34.3271 82.7584 38.4072 86.9746V86.9778Z" fill="#E1017E"/>
</g>
<defs>
<clipPath id="clip0_834_996">
<rect width="101" height="70" fill="white" transform="translate(19 35)"/>
</clipPath>
</defs>
</svg>
