<svg width="140" height="140" viewBox="0 0 140 140" fill="none" xmlns="http://www.w3.org/2000/svg">
<rect width="140" height="140" rx="30" fill="white"/>
<g clip-path="url(#clip0_2662_2940)">
<path d="M30 63.1471C30.0277 55.1323 32.1988 47.7478 36.6108 41.0345C40.6916 34.8245 46.0886 30.0597 52.7969 26.842C58.8935 23.9168 65.3682 22.6932 72.1356 23.0647C80.8512 23.5417 88.5914 26.5257 95.3142 32.0682C100.31 36.187 104.145 41.1963 106.693 47.1462C108.46 51.2699 109.538 55.5637 109.88 60.0504C110.281 65.3185 109.683 70.4716 108.081 75.482C106.586 80.1569 104.363 84.5022 101.156 88.258C99.2758 90.4582 97.2083 92.5027 95.1805 94.5735C90.6325 99.2196 86.0567 103.841 81.4906 108.469C79.411 110.577 77.3363 112.689 75.2362 114.778C73.0194 116.983 69.9019 117.617 67.03 116.365C66.2075 116.007 65.4285 115.425 64.7903 114.787C58.749 108.744 52.7403 102.671 46.7268 96.6011C44.6569 94.5123 42.5833 92.426 40.5423 90.3096C37.4946 87.1495 35.2236 83.4716 33.4186 79.499C31.1897 74.588 30.0036 68.8466 30 63.1471ZM35.2489 63.7451C35.1778 68.7207 36.0918 73.2243 37.8763 77.5696C39.396 81.2702 41.4599 84.6485 44.2186 87.5282C48.4656 91.9622 52.8668 96.25 57.1933 100.609C59.9424 103.378 62.683 106.157 65.4116 108.946C67.903 111.492 71.7165 111.726 74.3295 109.175C74.9593 108.56 75.5782 107.934 76.1971 107.309C81.8434 101.608 87.4836 95.9013 93.1371 90.2066C95.5081 87.8182 97.814 85.3891 99.5745 82.4902C102.065 78.3905 103.747 73.996 104.436 69.26C105.165 64.24 104.834 59.2775 103.449 54.3749C102.75 51.8966 101.789 49.5394 100.569 47.2876C98.0958 42.7206 94.7169 38.9229 90.5662 35.7904C86.731 32.8951 82.4202 31.0328 77.7625 29.9291C73.6251 28.9488 69.4274 29.0662 65.2478 29.4809C61.9605 29.8068 58.8068 30.7188 55.7784 32.0826C49.4133 34.9491 44.3884 39.3567 40.6519 45.1797C36.9792 50.9044 35.1766 57.2127 35.2501 63.7439L35.2489 63.7451Z" fill="#DE3173"/>
<path d="M70.1114 34.604C74.7365 34.622 79.0667 35.7341 83.1824 37.7497C87.5463 39.8865 91.19 42.9004 94.0631 46.7963C96.0789 49.5286 97.6479 52.4875 98.6497 55.765C99.8057 59.5447 100.307 63.376 99.9562 67.2923C99.3108 74.5018 96.5364 80.7765 91.4128 85.9715C87.4656 89.9729 83.5148 93.9719 79.5604 97.9661C77.6458 99.8991 75.7408 101.842 73.7937 103.742C71.666 105.82 68.4473 105.905 66.3099 103.844C63.503 101.136 60.7961 98.3244 58.047 95.5562C54.8741 92.3625 51.6964 89.1712 48.5282 85.9727C43.8152 81.2139 41.1155 75.4772 40.216 68.8849C39.6898 65.0261 39.9222 61.2189 40.8843 57.4236C42.3823 51.5156 45.3951 46.5243 49.8913 42.4486C54.0709 38.6581 58.9514 36.1475 64.5639 35.208C66.3954 34.9012 68.263 34.7981 70.1126 34.6028L70.1114 34.604ZM45.1338 65.6169C45.2277 66.7902 45.2831 67.967 45.4215 69.1342C46.0068 74.056 47.9683 78.3917 51.2737 82.0767C53.2088 84.2338 55.316 86.2387 57.3522 88.3047C60.4842 91.4817 63.6102 94.6634 66.7639 97.8187C68.6207 99.6762 71.3806 99.6858 73.2181 97.8307C78.1322 92.8706 83.0139 87.8793 87.9208 82.912C90.7951 80.0023 92.7795 76.5678 93.8656 72.6598C94.9939 68.5985 95.118 64.4677 94.2486 60.3285C93.6393 57.4296 92.5254 54.732 90.8974 52.2514C88.9551 49.2902 86.5312 46.7855 83.581 44.813C80.1311 42.5073 76.2983 41.2047 72.1717 40.8667C68.5556 40.5707 64.9962 40.9626 61.5764 42.2497C59.1645 43.158 56.9151 44.354 54.8753 45.9551C51.4664 48.6299 48.8714 51.9194 47.1447 55.8753C45.7912 58.9755 45.1855 62.2351 45.1338 65.6181V65.6169Z" fill="#DE3173"/>
<path d="M49.8118 66.3936C49.9467 63.527 50.4849 60.7743 51.7228 58.1978C53.9481 53.5625 57.351 50.0452 62.1194 48.008C65.9558 46.3686 69.9645 45.9971 74.0887 46.8431C77.9179 47.6293 81.216 49.3993 83.9711 52.1088C87.25 55.3337 89.2272 59.238 89.8787 63.8218C90.4422 67.7861 89.7944 71.5406 88.1784 75.1514C87.1212 77.5134 85.522 79.5039 83.6942 81.3302C80.1419 84.881 76.621 88.463 73.07 92.0162C72.6076 92.4788 72.1018 92.9449 71.5274 93.2386C70.2005 93.9168 68.5411 93.6328 67.4634 92.5663C64.7192 89.8483 61.9918 87.1136 59.2825 84.3621C57.5846 82.6377 55.8338 80.9527 54.2804 79.1048C52.2009 76.6314 50.8932 73.7397 50.3585 70.54C50.1297 69.1654 49.9925 67.7765 49.813 66.3936H49.8118ZM69.9344 52.4875C66.2424 52.5486 62.7781 53.7854 59.9182 56.5201C55.9337 60.3274 54.4707 64.9591 55.4364 70.3578C55.9277 73.1033 57.1595 75.4953 59.0826 77.5122C60.7262 79.2354 62.4181 80.912 64.099 82.5993C65.5248 84.0302 66.942 85.4706 68.4051 86.862C69.2733 87.6876 70.3703 87.7583 71.2661 87.1328C71.5756 86.9171 71.8526 86.6474 72.1199 86.379C74.8352 83.6611 77.5446 80.9372 80.2563 78.2168C82.4563 76.0094 83.9831 73.4389 84.5587 70.3518C85.0464 67.731 84.9392 65.1425 84.0711 62.6127C83.056 59.6575 81.2726 57.2259 78.7583 55.3768C76.2224 53.5121 73.3325 52.587 69.9344 52.4887V52.4875Z" fill="#DE3173"/>
</g>
<defs>
<clipPath id="clip0_2662_2940">
<rect width="80" height="94" fill="white" transform="translate(30 23)"/>
</clipPath>
</defs>
</svg>
