<svg width="140" height="140" viewBox="0 0 140 140" fill="none" xmlns="http://www.w3.org/2000/svg">
<rect width="140" height="140" rx="30" fill="white"/>
<circle cx="70" cy="70" r="49" fill="#F3A05B"/>
<path d="M85.5943 59.4086C87.8437 61.8165 88.6248 64.8898 87.9438 67.8045C87.5277 69.5888 86.5443 71.1885 85.2022 72.4358C80.9786 76.3652 76.9846 80.9162 72.6432 84.6183C68.9057 87.8052 63.7029 87.7603 60.126 84.3638L79.0775 65.6135L66.1056 53.1224C63.1012 50.0971 62.8415 44.7369 65.75 41.5531C66.1765 41.0859 66.285 40.7542 66.7908 41.236C74.7518 48.8112 81.2529 54.7627 85.5932 59.4076L85.5943 59.4086Z" fill="#2C3C4D"/>
<path d="M52 98.9998C52.0146 95.111 54.6165 91.5894 58.354 90.51C58.719 90.4047 59.6451 90.145 59.9684 90.145H87.6725C87.7361 90.145 87.806 90.2816 87.8091 90.3797C87.8143 90.5747 87.7434 91.2035 87.7132 91.435C87.3857 93.9211 85.5899 96.5366 83.4239 97.7703C82.7544 98.1509 80.5676 98.9998 79.8626 98.9998H52.0021H52Z" fill="#2C3C4D"/>
</svg>
