<svg width="140" height="140" viewBox="0 0 140 140" fill="none" xmlns="http://www.w3.org/2000/svg">
<rect width="140" height="140" rx="30" fill="white"/>
<path d="M120.952 114.976C120.83 114.984 120.707 115 120.584 115C116.547 115 112.515 115 108.478 115C108.367 115 108.256 114.988 108.149 114.984C108.149 114.462 108.149 113.939 108.149 113.416C108.149 113.294 108.173 113.167 108.097 113.056C108.082 111.073 108.066 109.09 108.05 107.102C108.05 106.936 108.042 106.774 108.038 106.607C108.078 106.512 108.082 106.421 108.018 106.334C108.006 105.784 107.998 105.238 107.986 104.687C108.074 104.549 108.074 104.41 107.978 104.272C107.97 103.86 107.959 103.448 107.951 103.037C107.986 102.969 107.982 102.906 107.935 102.847C107.923 102.435 107.915 102.027 107.903 101.615C107.982 101.532 107.978 101.449 107.899 101.366C107.891 101.037 107.879 100.709 107.871 100.38C107.903 100.313 107.899 100.25 107.852 100.19C107.84 99.8617 107.832 99.537 107.82 99.2085C107.883 99.153 107.879 99.0976 107.816 99.0422C107.808 98.7413 107.796 98.4405 107.788 98.1396C107.824 98.0446 107.828 97.9535 107.76 97.8664C107.752 97.621 107.744 97.3756 107.737 97.1341C107.8 97.0786 107.796 97.0232 107.733 96.9678C107.725 96.6946 107.713 96.4215 107.705 96.1483C107.737 96.081 107.733 96.0177 107.681 95.9583C107.673 95.7129 107.661 95.4714 107.653 95.2259C107.717 95.1705 107.713 95.1151 107.649 95.0597C107.641 94.8419 107.633 94.6242 107.626 94.4065C107.653 94.3392 107.649 94.2758 107.602 94.2165C107.594 93.9987 107.582 93.7849 107.574 93.5672C107.637 93.5078 107.633 93.4524 107.566 93.4009C107.558 93.1832 107.546 92.9655 107.538 92.7477C107.57 92.6804 107.562 92.6171 107.514 92.5577C107.507 92.3677 107.499 92.1777 107.491 91.9916C107.554 91.9322 107.55 91.8768 107.483 91.8254C107.475 91.6353 107.467 91.4453 107.459 91.2553C107.487 91.188 107.483 91.1207 107.431 91.0653C107.419 90.7684 107.403 90.4715 107.392 90.1706C107.392 90.1389 107.388 90.1072 107.384 90.0716C107.384 89.9964 107.376 89.9172 107.372 89.842C107.4 89.7747 107.396 89.7074 107.344 89.652C107.336 89.4897 107.328 89.3274 107.32 89.169C107.384 89.1096 107.38 89.0542 107.312 89.0028C107.312 88.9513 107.312 88.8959 107.308 88.8444C107.308 88.8127 107.304 88.7811 107.3 88.7494C107.3 88.6742 107.292 88.595 107.288 88.5198C107.32 88.4525 107.312 88.3891 107.261 88.3298C107.261 88.2823 107.257 88.2347 107.253 88.1872C107.292 88.1516 107.288 88.116 107.245 88.0843C107.237 87.8943 107.229 87.7082 107.217 87.5182C107.217 87.4865 107.217 87.4509 107.213 87.4192C107.213 87.3717 107.209 87.3203 107.205 87.2728C107.233 87.2055 107.229 87.1382 107.177 87.0827C107.177 87.0352 107.17 86.9877 107.17 86.9402C107.209 86.9046 107.205 86.869 107.162 86.8373C107.154 86.675 107.146 86.5166 107.138 86.3543C107.138 86.3227 107.134 86.291 107.13 86.2554C107.126 86.1801 107.122 86.1049 107.114 86.0297C107.118 86.0178 107.13 86.002 107.126 85.9901C107.118 85.9664 107.102 85.9426 107.09 85.9189C107.078 85.6774 107.062 85.4359 107.051 85.1944C107.051 85.1627 107.047 85.1311 107.043 85.0954C107.043 85.0479 107.039 84.9965 107.035 84.949C107.062 84.8817 107.055 84.8144 107.007 84.7589C107.007 84.7114 106.999 84.6639 106.995 84.6164C107.039 84.5808 107.031 84.5452 106.987 84.5135C106.979 84.3789 106.975 84.2443 106.967 84.1137C106.967 84.082 106.963 84.0503 106.959 84.0187C106.955 83.9434 106.947 83.8682 106.944 83.789C106.963 83.7455 106.955 83.7099 106.924 83.6782C106.924 83.6307 106.916 83.5832 106.912 83.5396C106.951 83.504 106.947 83.4684 106.904 83.4367C106.896 83.3021 106.892 83.1675 106.884 83.0369C106.884 83.0052 106.88 82.9735 106.876 82.9379C106.876 82.8904 106.872 82.8429 106.868 82.7914C106.872 82.7796 106.884 82.7637 106.88 82.7518C106.872 82.7281 106.856 82.7043 106.844 82.6806C106.84 82.6331 106.836 82.5895 106.832 82.542C106.876 82.5024 106.868 82.4708 106.825 82.4391C106.817 82.3045 106.809 82.1739 106.801 82.0393C106.801 82.0076 106.797 81.9759 106.793 81.9443C106.793 81.8968 106.789 81.8453 106.785 81.7978C106.813 81.6751 106.829 81.5563 106.741 81.4494C106.733 81.3148 106.725 81.1802 106.717 81.0496C106.717 81.0179 106.714 80.9862 106.71 80.9546C106.71 80.9071 106.702 80.8556 106.702 80.8081C106.706 80.7962 106.717 80.7804 106.714 80.7685C106.706 80.7448 106.69 80.721 106.678 80.6972C106.674 80.6497 106.67 80.6062 106.666 80.5587C106.706 80.5191 106.702 80.4874 106.658 80.4558C106.65 80.3212 106.642 80.1905 106.634 80.0559C106.65 79.8817 106.682 79.7036 106.575 79.5452C106.567 79.4107 106.559 79.276 106.551 79.1454C106.567 78.9712 106.599 78.7931 106.491 78.6347C106.48 78.4487 106.464 78.2626 106.452 78.0726C106.456 78.0607 106.468 78.0449 106.464 78.033C106.456 78.0092 106.44 77.9855 106.428 77.9617C106.424 77.9142 106.42 77.8707 106.416 77.8232C106.456 77.7876 106.452 77.7519 106.408 77.7203C106.4 77.6134 106.392 77.5065 106.388 77.3996C106.408 77.3046 106.416 77.2135 106.353 77.1304C106.337 76.9443 106.321 76.7583 106.305 76.5683C106.305 76.5366 106.301 76.5049 106.297 76.4693C106.293 76.4218 106.289 76.3703 106.285 76.3228C106.321 76.2278 106.321 76.1367 106.246 76.0536C106.238 75.9467 106.23 75.8398 106.222 75.7329C106.242 75.6379 106.25 75.5469 106.182 75.4638C106.178 75.4163 106.17 75.3687 106.166 75.3212C106.206 75.2856 106.202 75.25 106.158 75.2183C106.147 75.06 106.131 74.9016 106.119 74.7393C106.123 74.7274 106.135 74.7116 106.131 74.6997C106.123 74.676 106.107 74.6522 106.095 74.6285C106.075 74.4147 106.059 74.2049 106.039 73.9911C106.039 73.9792 106.051 73.9634 106.051 73.9515C106.043 73.9278 106.028 73.904 106.016 73.8802C106 73.7219 105.988 73.5635 105.972 73.4052C105.992 73.3102 106 73.2191 105.932 73.136C105.917 72.9776 105.905 72.8153 105.889 72.657C105.909 72.562 105.917 72.4709 105.849 72.3878C105.829 72.174 105.809 71.9642 105.79 71.7504C105.794 71.7386 105.806 71.7227 105.802 71.7108C105.794 71.6871 105.778 71.6633 105.766 71.6396C105.75 71.4535 105.73 71.2714 105.714 71.0854C105.714 71.0735 105.726 71.0576 105.722 71.0458C105.714 71.022 105.698 70.9983 105.687 70.9745C105.516 69.6325 105.35 68.2865 105.171 66.9484C104.977 65.5272 104.782 64.1021 104.56 62.6848C104.315 61.1172 104.037 59.5535 103.771 57.9858C103.494 56.3508 103.169 54.7277 102.824 53.1046C102.213 50.2385 101.523 47.3961 100.679 44.5893C100.1 42.6693 99.4573 40.773 98.6762 38.9243C98.006 37.3447 97.2527 35.8048 96.2653 34.3915C95.7816 33.6987 95.2423 33.0495 94.5881 32.5071C94.0607 32.0677 93.4858 31.7154 92.8156 31.5491C92.6134 31.4976 92.4072 31.4739 92.205 31.4383C92.1693 31.4383 92.1336 31.4383 92.0979 31.4343C92.0504 31.4343 92.0028 31.4343 91.9552 31.4343C91.9195 31.4343 91.8838 31.4343 91.8481 31.4343C90.7617 31.5135 89.8695 32.0123 89.0765 32.7169C88.224 33.481 87.542 34.3836 86.9353 35.3495C86.0511 36.7588 85.3453 38.2592 84.7148 39.7952C83.7513 42.1507 82.982 44.5735 82.304 47.0239C81.6973 49.2211 81.1739 51.438 80.7021 53.6707C80.3888 55.1434 80.0994 56.62 79.8337 58.1006C79.5799 59.5139 79.3539 60.9311 79.1279 62.3523C78.9653 63.3618 78.8107 64.3713 78.664 65.3808C78.5807 65.9429 78.5173 66.5051 78.4459 67.0672C78.4102 67.0989 78.3983 67.1345 78.4181 67.178C78.3071 68.049 78.1961 68.9159 78.089 69.7869C78.0375 70.2065 77.9939 70.6301 77.9503 71.0537C77.9146 71.0854 77.9027 71.121 77.9225 71.1645C77.9027 71.3783 77.8829 71.5881 77.863 71.8019C77.8273 71.8336 77.8194 71.8692 77.8392 71.9127C77.8194 72.1265 77.7996 72.3363 77.7798 72.5501C77.7123 72.6332 77.7203 72.7243 77.7401 72.8193C77.7282 72.9776 77.7123 73.136 77.7005 73.2983C77.6648 73.33 77.6568 73.3656 77.6767 73.4092C77.6648 73.5675 77.6529 73.7298 77.637 73.8882C77.5617 73.9673 77.5617 74.0584 77.5974 74.1534C77.5815 74.3395 77.5656 74.5295 77.5537 74.7155C77.4784 74.7947 77.4784 74.8858 77.5141 74.9847C77.4943 75.2262 77.4744 75.4638 77.4546 75.7052C77.4189 75.7369 77.407 75.7725 77.4308 75.8161C77.4189 76.0021 77.4031 76.1882 77.3912 76.3782C77.3039 76.4851 77.3158 76.6039 77.3436 76.7266C77.3277 76.9681 77.3079 77.2096 77.292 77.4471C77.2564 77.4788 77.2484 77.5144 77.2683 77.5579C77.2683 77.6054 77.2603 77.653 77.2564 77.7005C77.2564 77.7321 77.2524 77.7638 77.2484 77.7994C77.2365 77.9855 77.2207 78.1716 77.2088 78.3576C77.1731 78.3893 77.1652 78.4249 77.185 78.4685C77.185 78.516 77.177 78.5635 77.1731 78.611C77.1731 78.6426 77.1691 78.6783 77.1652 78.7099C77.1572 78.8445 77.1493 78.9752 77.1414 79.1098C77.0977 79.1415 77.0898 79.1731 77.1334 79.2127C77.1295 79.2602 77.1255 79.3038 77.1215 79.3513C77.0859 79.3829 77.0779 79.4186 77.0977 79.4621C77.0977 79.5096 77.0938 79.5611 77.0898 79.6086C77.0898 79.6403 77.0859 79.6719 77.0819 79.7036C77.074 79.8382 77.066 79.9728 77.0621 80.1034C77.0184 80.1351 77.0105 80.1668 77.0541 80.2064C77.0502 80.2539 77.0462 80.2974 77.0422 80.3449C77.0105 80.3766 76.9986 80.4122 77.0184 80.4558C77.0184 80.5033 77.0105 80.5508 77.0105 80.6022C77.0105 80.6339 77.0066 80.6656 77.0026 80.7012C76.9947 80.8358 76.9867 80.9704 76.9828 81.101C76.9391 81.1327 76.9352 81.1644 76.9748 81.204C76.9748 81.2515 76.9669 81.299 76.9629 81.3425C76.9272 81.3742 76.9193 81.4098 76.9391 81.4534C76.9233 81.6949 76.9114 81.9363 76.8955 82.1778C76.8519 82.2095 76.844 82.2412 76.8876 82.2808C76.8876 82.3283 76.8797 82.3758 76.8797 82.4233C76.8281 82.4787 76.8242 82.542 76.8519 82.6133C76.8519 82.6608 76.8479 82.7123 76.844 82.7598C76.844 82.7914 76.84 82.8231 76.836 82.8548C76.8242 83.0963 76.8083 83.3377 76.7964 83.5792C76.7607 83.6109 76.7528 83.6465 76.7726 83.6901C76.7686 83.7653 76.7647 83.8445 76.7567 83.9197C76.7567 83.9514 76.7528 83.983 76.7488 84.0147C76.7369 84.2562 76.725 84.5016 76.7092 84.7431C76.6576 84.7985 76.6537 84.8619 76.6814 84.9331C76.6814 84.9806 76.6814 85.0321 76.6774 85.0796C76.6774 85.1113 76.6735 85.1469 76.6695 85.1786C76.6576 85.4478 76.6418 85.717 76.6299 85.9862C76.5783 86.0416 76.5743 86.1089 76.6021 86.1762C76.5902 86.4731 76.5743 86.77 76.5625 87.0709C76.5188 87.1025 76.5149 87.1382 76.5545 87.1738C76.5506 87.249 76.5466 87.3203 76.5426 87.3955C76.5109 87.4272 76.499 87.4628 76.5228 87.5063C76.503 87.9418 76.4831 88.3733 76.4633 88.8088C76.4118 88.8682 76.4078 88.9315 76.4356 88.9988C76.4276 89.1888 76.4197 89.3788 76.4118 89.5689C76.3444 89.6203 76.3404 89.6757 76.4078 89.7351C76.3999 89.9529 76.388 90.1706 76.3801 90.3844C76.3285 90.4437 76.3245 90.5071 76.3563 90.5744C76.3483 90.7921 76.3404 91.0098 76.3285 91.2276C76.2611 91.283 76.2571 91.3384 76.3245 91.3938C76.3126 91.6393 76.3047 91.8808 76.2968 92.1262C76.2492 92.1856 76.2413 92.2489 76.277 92.3162L76.2492 93.0526C76.1818 93.108 76.1818 93.1634 76.2492 93.2188C76.2413 93.492 76.2294 93.7652 76.2214 94.0343C76.154 94.1214 76.158 94.2125 76.1977 94.3075C76.1897 94.5807 76.1818 94.8538 76.1739 95.127C76.0866 95.2339 76.0827 95.3447 76.1659 95.4595C76.158 95.7881 76.1461 96.1127 76.1382 96.4413C76.0906 96.5007 76.0866 96.564 76.1184 96.6313C76.1104 96.9599 76.1025 97.2885 76.0906 97.617C76.0113 97.7002 76.0073 97.7833 76.0866 97.8664C76.0747 98.3336 76.0668 98.7968 76.0549 99.2639C76.0073 99.3233 76.0034 99.3866 76.039 99.4539C76.0272 99.9488 76.0192 100.444 76.0073 100.934C75.9161 101.073 75.9161 101.212 76.0034 101.35C75.9915 102.094 75.9835 102.835 75.9716 103.579C75.8923 103.721 75.9122 103.868 75.9518 104.018C75.9439 105.356 75.936 106.698 75.9241 108.037C75.9201 108.646 75.9954 108.571 75.4007 108.571C71.4553 108.571 67.514 108.571 63.5686 108.571C63.4457 108.571 63.3188 108.571 63.1959 108.571C63.0928 108.571 63.0492 108.508 63.0492 108.409C63.0492 108.298 63.0492 108.187 63.0492 108.076C63.0413 106.267 63.0294 104.458 63.0214 102.649C63.0214 102.47 63.0135 102.288 63.0056 102.11C63.0452 102.015 63.0492 101.924 62.9897 101.837C62.9778 101.231 62.9699 100.63 62.958 100.024C63.0452 99.9131 63.0413 99.8023 62.954 99.6914C62.9461 99.2797 62.9342 98.868 62.9263 98.4563C62.9659 98.3613 62.9699 98.2702 62.9064 98.1831C62.8985 97.8268 62.8866 97.4745 62.8787 97.1182C62.9659 96.9797 62.962 96.8411 62.8708 96.7026C62.8628 96.4017 62.8549 96.1008 62.843 95.8C62.8747 95.7327 62.8708 95.6693 62.8232 95.6099C62.8152 95.3091 62.8033 95.0122 62.7954 94.7113C62.8589 94.6519 62.8549 94.6005 62.7914 94.545C62.7835 94.2442 62.7716 93.9433 62.7637 93.6424C62.7954 93.5751 62.7914 93.5118 62.7399 93.4524L62.7082 92.6369C62.7716 92.5815 62.7677 92.5261 62.7042 92.4706C62.6963 92.2252 62.6884 91.9797 62.6765 91.7343C62.7082 91.667 62.7002 91.6037 62.6527 91.5443C62.6328 91.0296 62.609 90.511 62.5892 89.9964C62.5932 89.9845 62.6051 89.9687 62.6051 89.9568C62.5972 89.9331 62.5853 89.9093 62.5734 89.8816C62.5654 89.6639 62.5535 89.4501 62.5456 89.2324C62.609 89.173 62.6051 89.1176 62.5377 89.0661C62.5297 88.8761 62.5218 88.6861 62.5139 88.496C62.5456 88.4287 62.5377 88.3654 62.4861 88.306C62.4782 88.116 62.4663 87.926 62.4584 87.7399C62.5218 87.6805 62.5179 87.6251 62.4504 87.5736C62.4504 87.5222 62.4504 87.4667 62.4465 87.4153C62.4465 87.3836 62.4425 87.3519 62.4385 87.3203C62.4385 87.2451 62.4306 87.1659 62.4267 87.0907C62.4544 87.0234 62.4504 86.9561 62.3989 86.9006C62.3949 86.8254 62.391 86.7502 62.387 86.675C62.3949 86.6631 62.4108 86.6512 62.4108 86.6433C62.4068 86.6196 62.391 86.5958 62.383 86.576C62.3711 86.3068 62.3592 86.0337 62.3473 85.7645C62.3751 85.6972 62.3711 85.6299 62.3196 85.5745C62.3077 85.3053 62.2918 85.0361 62.2799 84.7669C62.2799 84.7352 62.276 84.6996 62.272 84.6679C62.272 84.6204 62.268 84.5689 62.2641 84.5214C62.2918 84.4541 62.2839 84.3868 62.2363 84.3314C62.2363 84.2839 62.2284 84.2364 62.2284 84.1889C62.268 84.1533 62.2641 84.1176 62.2205 84.086C62.2125 83.9236 62.2046 83.7653 62.1967 83.603C62.1967 83.5713 62.1927 83.5396 62.1887 83.504C62.1887 83.4565 62.1848 83.405 62.1808 83.3575C62.2086 83.2902 62.2006 83.2229 62.1531 83.1675C62.1531 83.12 62.1451 83.0725 62.1451 83.025C62.1887 82.9894 62.1808 82.9537 62.1372 82.9221C62.1372 82.8706 62.1332 82.8191 62.1293 82.7637C62.1927 82.7043 62.1848 82.6489 62.1213 82.5975C62.1213 82.546 62.1174 82.4906 62.1134 82.4391C62.1134 82.4074 62.1094 82.3718 62.1055 82.3401C62.1055 82.2926 62.1015 82.2451 62.0975 82.1976C62.1015 82.1857 62.1134 82.1699 62.1094 82.158C62.1015 82.1343 62.0857 82.1105 62.0738 82.0868C62.0738 82.0393 62.0658 81.9957 62.0619 81.9482C62.1055 81.9086 62.0975 81.877 62.0539 81.8453C62.046 81.683 62.0381 81.5246 62.0301 81.3623C62.0301 81.3307 62.0262 81.295 62.0222 81.2634C62.0222 81.2158 62.0143 81.1683 62.0143 81.1208C62.0182 81.109 62.0301 81.0931 62.0262 81.0812C62.0182 81.0575 62.0024 81.0337 61.9905 81.01C61.9905 80.9625 61.9826 80.9189 61.9786 80.8714C62.0182 80.8318 62.0143 80.8002 61.9707 80.7685C61.9627 80.6339 61.9548 80.4993 61.9508 80.3687C61.9508 80.337 61.9469 80.3053 61.9429 80.2737C61.9429 80.2262 61.935 80.1747 61.935 80.1272C61.9389 80.1153 61.9508 80.0995 61.9469 80.0876C61.9389 80.0638 61.9231 80.0401 61.9112 80.0163C61.9072 79.9688 61.9033 79.9253 61.8993 79.8778C61.9389 79.8382 61.935 79.8065 61.8914 79.7749C61.8834 79.6403 61.8755 79.5096 61.8676 79.375C61.8676 79.3433 61.8636 79.3117 61.8596 79.276C61.8596 79.2285 61.8517 79.181 61.8517 79.1296C61.8557 79.1177 61.8676 79.1019 61.8636 79.09C61.8557 79.0662 61.8398 79.0425 61.8279 79.0187C61.8239 78.9712 61.82 78.9277 61.816 78.8802C61.8557 78.8445 61.8517 78.8089 61.8081 78.7772C61.7962 78.5912 61.7843 78.4012 61.7724 78.2151C61.7764 78.2032 61.7883 78.1874 61.7843 78.1755C61.7764 78.1518 61.7605 78.128 61.7486 78.1043C61.7288 77.8351 61.709 77.5698 61.6891 77.3006C61.6931 77.2887 61.705 77.2729 61.701 77.261C61.6931 77.2373 61.6772 77.2135 61.6653 77.1898C61.6614 77.1423 61.6574 77.0987 61.6495 77.0512C61.6891 77.0116 61.6852 76.98 61.6416 76.9483C61.6336 76.8414 61.6297 76.7345 61.6217 76.6276C61.6217 76.596 61.6178 76.5643 61.6138 76.5326C61.6098 76.4851 61.6059 76.4376 61.6019 76.3861C61.6059 76.3743 61.6178 76.3584 61.6138 76.3466C61.6059 76.3228 61.59 76.2991 61.5781 76.2753C61.5583 76.0338 61.5424 75.7963 61.5226 75.5548C61.5226 75.5429 61.5385 75.5271 61.5345 75.5152C61.5266 75.4915 61.5107 75.4677 61.4988 75.444C61.479 75.2025 61.4592 74.9649 61.4393 74.7235C61.4393 74.7116 61.4552 74.6958 61.4512 74.6839C61.4433 74.6601 61.4274 74.6364 61.4155 74.6126C61.3957 74.3711 61.3759 74.1336 61.3561 73.8921C61.3917 73.7971 61.3878 73.7061 61.3164 73.6229C61.3085 73.516 61.3005 73.4092 61.2926 73.3062C61.3124 73.2112 61.3204 73.1202 61.253 73.037C61.2411 72.8787 61.2252 72.7164 61.2133 72.558C61.2331 72.463 61.2411 72.372 61.1737 72.2888C61.1538 72.075 61.134 71.8652 61.1142 71.6515C61.1142 71.6396 61.13 71.6237 61.1261 71.6119C61.1182 71.5881 61.1023 71.5644 61.0904 71.5406C61.0706 71.3268 61.0507 71.117 61.0309 70.9032C61.0626 70.8082 61.0626 70.7172 60.9873 70.638C60.9754 70.5074 60.9635 70.3728 60.9516 70.2421C60.9516 70.2303 60.9635 70.2144 60.9635 70.2025C60.9556 70.1788 60.9397 70.155 60.9278 70.1313C60.8247 69.2841 60.7216 68.4369 60.6225 67.5858C60.6225 67.5739 60.6344 67.5581 60.6304 67.5462C60.6225 67.5225 60.6066 67.4987 60.5947 67.475C60.452 66.4496 60.3172 65.4243 60.1665 64.399C59.9722 63.0728 59.774 61.7506 59.5559 60.4283C59.2664 58.6865 58.9492 56.9486 58.6003 55.2146C58.1919 53.1838 57.7478 51.1609 57.2442 49.1538C56.5543 46.4064 55.7612 43.6907 54.762 41.0383C54.1038 39.2885 53.3583 37.5823 52.4265 35.9592C51.915 35.0724 51.3401 34.2252 50.662 33.4533C50.2021 32.9307 49.6906 32.4715 49.1037 32.0915C48.5129 31.7114 47.8666 31.4739 47.1608 31.4264C46.6295 31.3908 46.1179 31.5056 45.6263 31.7193C45.0989 31.945 44.6389 32.2696 44.2147 32.6536C43.6596 33.1564 43.1798 33.7304 42.7476 34.34C42.018 35.3693 41.4192 36.4738 40.8839 37.6139C39.8609 39.7952 39.0719 42.0636 38.37 44.3636C37.799 46.2401 37.2994 48.1364 36.8474 50.0445C36.3993 51.9368 35.983 53.8409 35.6261 55.753C35.3525 57.2178 35.0789 58.6825 34.8291 60.1552C34.6348 61.2834 34.4683 62.4196 34.2938 63.5518C34.1313 64.6167 33.9727 65.6816 33.826 66.7465C33.7149 67.5383 33.6237 68.334 33.5246 69.1297C33.4889 69.1614 33.477 69.197 33.4968 69.2406C33.3938 70.1155 33.2946 70.9943 33.1915 71.8692C33.1558 71.9009 33.1439 71.9365 33.1638 71.98C33.1439 72.1938 33.1241 72.4036 33.1043 72.6174C33.0686 72.6491 33.0607 72.6847 33.0805 72.7282C33.0607 72.942 33.0409 73.1518 33.021 73.3656C32.9576 73.4487 32.9615 73.5398 32.9814 73.6348C32.9655 73.7932 32.9536 73.9555 32.9378 74.1138C32.8704 74.1969 32.8783 74.288 32.8981 74.383C32.8902 74.4899 32.8822 74.5968 32.8743 74.7037C32.799 74.7828 32.799 74.8739 32.8307 74.9729C32.8109 75.2144 32.791 75.4519 32.7673 75.6934C32.7316 75.725 32.7236 75.7607 32.7435 75.8042C32.7038 76.2397 32.6642 76.6751 32.6245 77.1146C32.5809 77.1462 32.5769 77.1779 32.6166 77.2175C32.6126 77.265 32.6087 77.3085 32.6007 77.356C32.565 77.3877 32.5571 77.4233 32.5769 77.4669C32.5571 77.7084 32.5412 77.9459 32.5214 78.1874C32.4857 78.2191 32.4738 78.2547 32.4976 78.2982C32.4937 78.3457 32.4897 78.3932 32.4857 78.4447C32.4857 78.4764 32.4818 78.508 32.4778 78.5437C32.4659 78.7297 32.45 78.9158 32.4381 79.1019C32.4025 79.1335 32.3945 79.1692 32.4144 79.2127C32.4144 79.2602 32.4064 79.3077 32.4025 79.3592C32.4025 79.3909 32.3985 79.4225 32.3945 79.4542C32.3826 79.6403 32.3668 79.8263 32.3549 80.0163C32.3192 80.048 32.3113 80.0836 32.3311 80.1272C32.3311 80.1747 32.3232 80.2222 32.3192 80.2737C32.3192 80.3053 32.3152 80.337 32.3113 80.3726C32.3033 80.5072 32.2954 80.6418 32.2875 80.7725C32.2002 80.8794 32.2121 80.9981 32.2439 81.1208C32.228 81.39 32.2082 81.6592 32.1923 81.9284C32.1408 81.9838 32.1328 82.0472 32.1606 82.1184C32.1487 82.3322 32.1368 82.55 32.1209 82.7637C32.0773 82.7954 32.0694 82.831 32.113 82.8667C32.113 82.9142 32.1051 82.9577 32.1011 83.0052C32.0694 83.0369 32.0575 83.0725 32.0773 83.1161C32.0773 83.1636 32.0734 83.2111 32.0694 83.2625C32.0694 83.2942 32.0654 83.3259 32.0615 83.3615C32.0496 83.5753 32.0377 83.793 32.0218 84.0068C31.9703 84.0622 31.9623 84.1255 31.9941 84.1968C31.9941 84.2443 31.9901 84.2958 31.9861 84.3433C31.9861 84.3749 31.9822 84.4066 31.9782 84.4422C31.9623 84.6837 31.9504 84.9252 31.9346 85.1667C31.9029 85.1984 31.891 85.234 31.9108 85.2775C31.8989 85.519 31.883 85.7605 31.8711 86.006C31.8275 86.0376 31.8235 86.0693 31.8632 86.1089C31.8592 86.1841 31.8513 86.2554 31.8473 86.3306C31.8156 86.3623 31.8037 86.3979 31.8235 86.4414C31.8235 86.4889 31.8196 86.5364 31.8156 86.5839C31.8156 86.6156 31.8156 86.6512 31.8117 86.6829C31.8037 86.869 31.7918 87.059 31.7839 87.2451C31.7403 87.2767 31.7363 87.3124 31.776 87.348C31.776 87.3955 31.772 87.443 31.768 87.4905C31.7165 87.5459 31.7125 87.6093 31.7403 87.6805C31.7403 87.728 31.7363 87.7795 31.7324 87.827C31.7324 87.8587 31.7284 87.8943 31.7244 87.926C31.7086 88.2229 31.6927 88.5198 31.6768 88.8167C31.6451 88.8484 31.6332 88.884 31.657 88.9275C31.657 89.0028 31.6491 89.0819 31.6451 89.1571C31.6451 89.1888 31.6412 89.2205 31.6372 89.2522C31.6213 89.5491 31.6094 89.846 31.5936 90.1429C31.5618 90.1745 31.55 90.2102 31.5737 90.2537C31.5658 90.4437 31.5539 90.6338 31.546 90.8238C31.4786 90.8752 31.4746 90.9307 31.5381 90.9901C31.5301 91.1801 31.5182 91.3701 31.5103 91.5562C31.4627 91.6155 31.4548 91.6789 31.4825 91.7462C31.4746 91.9362 31.4667 92.1262 31.4588 92.3162C31.3913 92.3677 31.3913 92.4231 31.4508 92.4825C31.4508 92.5617 31.4469 92.6409 31.4429 92.724C31.3993 92.7557 31.3953 92.7913 31.4389 92.8269C31.4389 92.9021 31.431 92.9774 31.427 93.0526C31.3755 93.112 31.3715 93.1753 31.4032 93.2426C31.3953 93.4603 31.3834 93.6781 31.3755 93.8958C31.3081 93.9473 31.3081 94.0027 31.3676 94.0621C31.3596 94.2798 31.3517 94.4975 31.3438 94.7113C31.2922 94.7707 31.2883 94.834 31.32 94.9013C31.3001 95.4476 31.2803 95.99 31.2605 96.5363C31.1931 96.6194 31.201 96.7144 31.2327 96.8094C31.2248 97.0549 31.2169 97.3003 31.2089 97.5458C31.1296 97.625 31.1257 97.7081 31.201 97.7952C31.1931 98.0406 31.1852 98.2861 31.1772 98.5276C31.1098 98.6146 31.1138 98.7057 31.1534 98.8007C31.1455 99.0739 31.1376 99.347 31.1257 99.6202C31.0384 99.731 31.0345 99.8379 31.1178 99.9527C31.1059 100.309 31.094 100.661 31.086 101.018C31.0543 101.049 31.0464 101.089 31.0702 101.128C31.0622 101.485 31.0503 101.841 31.0424 102.193C30.9631 102.277 30.9591 102.36 31.0384 102.443C31.0266 102.91 31.0147 103.373 31.0067 103.84C30.9591 103.9 30.9552 103.963 30.9909 104.03C30.9829 104.497 30.971 104.965 30.9631 105.428C30.8957 105.483 30.8957 105.539 30.9631 105.594C30.9512 106.31 30.9393 107.023 30.9274 107.74C30.864 107.827 30.8679 107.918 30.9116 108.013C30.8997 109.561 30.8838 111.109 30.8719 112.652C30.8679 113.274 30.8719 113.896 30.8719 114.517C30.8719 114.612 30.8719 114.711 30.8719 114.806C30.864 114.937 30.8243 114.984 30.7014 114.992C30.6181 115 30.5349 114.996 30.4516 114.996C26.4389 114.996 22.4261 114.996 18.4134 114.996C17.9851 114.996 17.997 115.004 18.001 114.592C18.001 113.915 18.001 113.238 18.001 112.561C18.1001 112.312 18.1001 112.063 18.005 111.813C18.0129 111.069 18.0248 110.329 18.0327 109.584C18.1081 109.47 18.0962 109.351 18.0525 109.228C18.0605 108.761 18.0724 108.294 18.0803 107.827C18.1715 107.688 18.1755 107.55 18.0882 107.411C18.0962 107.027 18.1081 106.647 18.116 106.263C18.1794 106.176 18.1755 106.085 18.1398 105.99C18.1596 105.281 18.1834 104.569 18.2032 103.86C18.2349 103.828 18.2468 103.789 18.2191 103.749C18.2389 103.175 18.2627 102.605 18.2825 102.031C18.3341 101.972 18.338 101.908 18.3024 101.841C18.3142 101.596 18.3222 101.35 18.3341 101.105C18.4015 101.053 18.4015 100.998 18.342 100.938C18.3499 100.748 18.3579 100.558 18.3658 100.368C18.4173 100.309 18.4213 100.246 18.3896 100.178C18.3975 99.9883 18.4094 99.7983 18.4173 99.6083C18.4848 99.5529 18.4887 99.5014 18.4213 99.442C18.4292 99.252 18.4411 99.062 18.4491 98.872C18.5006 98.8126 18.5046 98.7492 18.4729 98.6819C18.4927 98.2742 18.5125 97.8704 18.5363 97.4626C18.572 97.431 18.5799 97.3953 18.5561 97.3518C18.5601 97.2766 18.5641 97.2014 18.572 97.1261C18.572 97.0945 18.572 97.0588 18.5759 97.0272C18.5918 96.758 18.6037 96.4888 18.6196 96.2196C18.6553 96.1879 18.6632 96.1523 18.6394 96.1087C18.6434 96.0335 18.6513 95.9583 18.6553 95.8831C18.6553 95.8514 18.6592 95.8158 18.6632 95.7841C18.6751 95.5426 18.6909 95.3012 18.7028 95.0597C18.7385 95.028 18.7465 94.9924 18.7227 94.9488C18.7385 94.7073 18.7544 94.4659 18.7663 94.2204C18.7742 94.2125 18.794 94.2006 18.794 94.1927C18.794 94.1689 18.7821 94.1452 18.7742 94.1214C18.7742 94.0739 18.7821 94.0264 18.7861 93.9789C18.8218 93.9473 18.8297 93.9116 18.8059 93.8681C18.8139 93.7929 18.8178 93.7176 18.8258 93.6424C18.8258 93.6108 18.8297 93.5751 18.8337 93.5435C18.8416 93.4089 18.8495 93.2782 18.8575 93.1436C18.8654 93.1357 18.8852 93.1238 18.8852 93.1159C18.8852 93.0922 18.8733 93.0684 18.8654 93.0447C18.8654 92.9971 18.8733 92.9496 18.8773 92.9021C18.913 92.8705 18.9209 92.8348 18.8971 92.7913C18.913 92.5775 18.9249 92.3637 18.9407 92.146C18.9487 92.1381 18.9685 92.1262 18.9685 92.1183C18.9685 92.0946 18.9566 92.0708 18.9487 92.047C18.9487 91.9995 18.9566 91.952 18.9606 91.9045C18.9963 91.8729 19.0082 91.8372 18.9844 91.7937C18.9883 91.7462 18.9923 91.6987 18.9963 91.6512C18.9963 91.6195 19.0002 91.5839 19.0042 91.5522C19.0161 91.3661 19.028 91.1761 19.0399 90.9901C19.1231 90.8832 19.1073 90.7604 19.0835 90.6377C19.0954 90.4517 19.1112 90.2656 19.1231 90.0756C19.1549 90.0439 19.1668 90.0083 19.143 89.9647C19.1668 89.6955 19.1866 89.4303 19.2064 89.1611C19.2421 89.1294 19.254 89.0938 19.2302 89.0503C19.25 88.8088 19.2699 88.5712 19.2857 88.3298C19.3214 88.2981 19.3333 88.2625 19.3095 88.2189C19.3293 87.9774 19.3492 87.7399 19.3729 87.4984C19.4086 87.4667 19.4205 87.4311 19.3967 87.3876C19.4245 87.0946 19.4562 86.7977 19.484 86.5048C19.4879 86.4691 19.4919 86.4335 19.4998 86.3979C19.5752 85.717 19.6545 85.0361 19.7298 84.3552C19.8012 83.7138 19.8765 83.0765 19.9479 82.4351C19.9836 82.4035 19.9955 82.3678 19.9757 82.3243C19.9955 82.1382 20.0153 81.9561 20.0351 81.7701C20.0708 81.7384 20.0827 81.7028 20.0629 81.6592C20.0827 81.4732 20.1025 81.2911 20.1224 81.105C20.158 81.0733 20.1699 81.0377 20.1501 80.9942C20.3167 79.7907 20.4792 78.5872 20.6537 77.3838C20.7925 76.4139 20.9392 75.444 21.0978 74.478C21.2921 73.2944 21.4903 72.1067 21.7084 70.927C21.986 69.4187 22.2794 67.9183 22.5887 66.414C22.8504 65.1314 23.1319 63.8487 23.4253 62.57C24.036 59.9058 24.7219 57.2574 25.4872 54.6327C26.4745 51.248 27.5888 47.9107 28.9052 44.6408C29.9282 42.0992 31.0662 39.6131 32.3906 37.2141C33.5365 35.1397 34.8053 33.1484 36.2962 31.3076C37.5215 29.7954 38.8736 28.4177 40.4597 27.2815C41.7285 26.371 43.1005 25.6703 44.6231 25.2863C45.1068 25.1636 45.5985 25.0923 46.0942 25.0369C46.1378 25.0686 46.1695 25.0528 46.2012 25.0211C46.2528 25.0211 46.3003 25.0132 46.3519 25.0132C46.3836 25.0448 46.4153 25.0448 46.4431 25.0132C46.8 25.0132 47.1608 25.0132 47.5177 25.0132C47.5732 25.0726 47.6326 25.0805 47.6921 25.0211C47.7397 25.0211 47.7912 25.029 47.8388 25.029C47.8706 25.0646 47.9062 25.0765 47.9459 25.0488C50.2298 25.2665 52.2283 26.1929 54.0641 27.523C55.4956 28.5602 56.7485 29.7914 57.8905 31.1334C59.4805 33.0059 60.8327 35.0447 62.042 37.1745C63.6241 39.9575 64.9485 42.8593 66.1182 45.8324C67.3752 49.0231 68.4418 52.2772 69.3776 55.5749C69.4093 55.6818 69.441 55.7847 69.4807 55.9114C69.5917 55.8362 69.6036 55.7293 69.6314 55.6303C69.9922 54.4268 70.3371 53.2194 70.7178 52.0199C71.5782 49.3042 72.5457 46.632 73.652 44.0034C74.4411 42.1309 75.3015 40.2901 76.2571 38.4928C77.407 36.3273 78.6878 34.245 80.1866 32.3013C81.1858 31.0068 82.2683 29.7875 83.4936 28.6988C84.7545 27.5824 86.1185 26.6244 87.6689 25.9435C88.5848 25.5436 89.5365 25.2626 90.5238 25.1042C91.2256 24.9934 91.9314 24.9894 92.6372 25.0092C92.665 25.0448 92.6967 25.0488 92.7324 25.0132C94.9965 25.1992 96.9711 26.1058 98.7753 27.4359C100.187 28.4771 101.408 29.7162 102.526 31.0622C104.025 32.8674 105.294 34.827 106.44 36.8697C107.947 39.5498 109.212 42.3447 110.338 45.1989C111.852 49.035 113.097 52.9542 114.184 56.9288C114.945 59.7158 115.615 62.5225 116.218 65.3451C116.658 67.3958 117.059 69.4583 117.419 71.5248C117.713 73.1993 117.998 74.8739 118.248 76.5524C118.435 77.8113 118.625 79.0662 118.799 80.3251C118.934 81.3109 119.045 82.3006 119.168 83.2863C119.232 83.8207 119.295 84.3552 119.358 84.8896C119.335 84.9331 119.347 84.9688 119.382 85.0004C119.394 85.1311 119.402 85.2657 119.414 85.3963C119.418 85.4319 119.422 85.4676 119.43 85.4992C119.462 85.7961 119.493 86.0891 119.525 86.386C119.481 86.481 119.489 86.5721 119.561 86.6512C119.573 86.8096 119.588 86.9719 119.6 87.1302C119.58 87.1738 119.592 87.2094 119.624 87.2411C119.644 87.4826 119.664 87.7201 119.688 87.9616C119.668 88.0051 119.676 88.0408 119.711 88.0724C119.723 88.2308 119.735 88.3891 119.747 88.5515C119.747 88.5831 119.751 88.6188 119.755 88.6504C119.759 88.6979 119.763 88.7454 119.771 88.7929C119.751 88.8365 119.759 88.8721 119.795 88.9038C119.814 89.1453 119.83 89.3828 119.85 89.6243C119.846 89.6362 119.834 89.652 119.838 89.6639C119.846 89.6876 119.862 89.7114 119.874 89.7351C119.878 89.7826 119.882 89.8301 119.886 89.8776C119.878 89.8895 119.862 89.9014 119.862 89.9093C119.866 89.9331 119.882 89.9529 119.89 89.9766C119.902 90.1627 119.918 90.3487 119.929 90.5388C119.91 90.5823 119.918 90.6179 119.953 90.6496C119.957 90.6971 119.961 90.7446 119.965 90.7921C119.957 90.804 119.941 90.8159 119.941 90.8238C119.945 90.8475 119.961 90.8673 119.969 90.8911C119.981 91.0771 119.993 91.2672 120.009 91.4532C119.981 91.5245 119.989 91.5878 120.04 91.6433C120.06 91.9124 120.076 92.1816 120.096 92.4469C120.092 92.4588 120.08 92.4746 120.084 92.4865C120.092 92.5102 120.108 92.534 120.12 92.5577C120.144 92.8784 120.163 93.203 120.187 93.5237C120.163 93.5672 120.175 93.6028 120.207 93.6345C120.207 93.682 120.215 93.7295 120.219 93.777C120.211 93.7889 120.195 93.8008 120.195 93.8087C120.199 93.8325 120.215 93.8522 120.223 93.876C120.239 94.1175 120.255 94.359 120.27 94.6044C120.247 94.648 120.255 94.6836 120.29 94.7153C120.29 94.7628 120.298 94.8103 120.302 94.8578C120.294 94.8696 120.278 94.8815 120.278 94.8894C120.282 94.9132 120.298 94.9369 120.306 94.9567C120.306 95.0082 120.31 95.0636 120.314 95.1151C120.251 95.1745 120.255 95.2299 120.322 95.2814C120.322 95.3328 120.33 95.3882 120.33 95.4397C120.33 95.4714 120.33 95.507 120.334 95.5387C120.334 95.5862 120.342 95.6337 120.342 95.6852C120.31 95.7525 120.318 95.8158 120.37 95.8752C120.389 96.2275 120.409 96.5798 120.429 96.9282C120.397 96.9955 120.405 97.0589 120.453 97.1182C120.453 97.1657 120.461 97.2132 120.461 97.2607C120.453 97.2726 120.437 97.2845 120.437 97.2924C120.441 97.3162 120.457 97.3399 120.465 97.3597C120.481 97.6566 120.492 97.9535 120.508 98.2544C120.473 98.3217 120.481 98.385 120.532 98.4444C120.54 98.6067 120.548 98.769 120.556 98.9313C120.492 98.9907 120.496 99.0462 120.564 99.0976C120.572 99.2876 120.58 99.4777 120.588 99.6677C120.556 99.735 120.564 99.7983 120.611 99.8577C120.619 100.075 120.631 100.293 120.639 100.507C120.572 100.562 120.58 100.618 120.643 100.673C120.651 100.863 120.659 101.053 120.667 101.243C120.635 101.311 120.643 101.374 120.691 101.433C120.703 101.679 120.711 101.92 120.722 102.166C120.647 102.249 120.647 102.332 120.726 102.415C120.738 102.661 120.746 102.906 120.758 103.151C120.722 103.219 120.726 103.282 120.778 103.341L120.806 104.157C120.726 104.24 120.73 104.323 120.81 104.406C120.822 104.707 120.829 105.008 120.841 105.309C120.806 105.376 120.81 105.44 120.857 105.499C120.865 105.855 120.877 106.208 120.885 106.564C120.806 106.647 120.81 106.73 120.889 106.813C120.897 107.225 120.909 107.637 120.917 108.048C120.877 108.143 120.873 108.234 120.937 108.322C120.944 108.844 120.956 109.363 120.964 109.885C120.873 110.135 120.869 110.384 120.972 110.633C120.984 112.039 120.992 113.448 121 114.854C120.992 114.885 120.98 114.921 120.972 114.952L120.952 114.976Z" fill="#FFC423" stroke="#FFC423" stroke-width="2"/>
<path d="M108.306 114.965C108.386 115.081 108.357 115.217 108.361 115.341C108.361 115.887 108.361 116.433 108.361 116.979C108.327 116.996 108.294 116.988 108.294 116.959C108.277 116.293 108.244 115.627 108.311 114.961L108.306 114.965Z" fill="#FCE196"/>
<path d="M13.0837 113.679C13.1843 113.939 13.1843 114.2 13.0795 114.46C12.9748 114.2 12.9748 113.939 13.0837 113.679Z" fill="#FCE196"/>
<path d="M121.89 112.463C121.781 112.202 121.785 111.946 121.881 111.681C121.995 111.942 121.99 112.198 121.89 112.463Z" fill="#FCE196"/>
<path d="M13.1719 109.084C13.264 109.228 13.264 109.373 13.1635 109.518C13.0671 109.373 13.0713 109.228 13.1719 109.084Z" fill="#FCE196"/>
<path d="M60.4959 97.8997C60.5922 98.0403 60.5964 98.185 60.5042 98.3339C60.4037 98.1933 60.4037 98.0486 60.4959 97.8997Z" fill="#FCE196"/>
<path d="M74.3772 102.755C74.285 102.611 74.285 102.466 74.3814 102.321C74.4778 102.466 74.4778 102.611 74.3772 102.755Z" fill="#FCE196"/>
<path d="M108.18 105.791C108.277 105.936 108.277 106.081 108.189 106.226C108.088 106.081 108.088 105.936 108.18 105.791Z" fill="#FCE196"/>
<path d="M74.5488 96.601C74.4608 96.4852 74.465 96.3693 74.5572 96.2535C74.6494 96.3735 74.6494 96.4852 74.5488 96.601Z" fill="#FCE196"/>
<path d="M60.5842 101.022C60.6764 101.138 60.6806 101.254 60.5884 101.37C60.4921 101.254 60.4921 101.138 60.5842 101.022Z" fill="#FCE196"/>
<path d="M26.9522 101.283C26.8642 101.167 26.8642 101.051 26.9606 100.936C27.0527 101.051 27.0486 101.167 26.9522 101.283Z" fill="#FCE196"/>
<path d="M74.4651 99.1157C74.3813 99.0288 74.3855 98.942 74.4693 98.8551C74.5531 98.942 74.5531 99.0288 74.4651 99.1157Z" fill="#FCE196"/>
<path d="M121.802 108.476C121.718 108.389 121.714 108.302 121.798 108.215C121.886 108.302 121.89 108.389 121.802 108.476Z" fill="#FCE196"/>
<path d="M106.618 78.9939C106.731 79.1635 106.698 79.3455 106.681 79.5274C106.563 79.362 106.601 79.1759 106.618 78.9939Z" fill="#FCE196"/>
<path d="M106.706 79.9492C106.819 80.1188 106.781 80.3008 106.769 80.4828C106.651 80.3173 106.689 80.1312 106.706 79.9492Z" fill="#FCE196"/>
<path d="M27.0401 99.0289C26.9605 98.9379 26.9647 98.851 27.0485 98.7683C27.1323 98.8593 27.1323 98.9462 27.0401 99.0289Z" fill="#FCE196"/>
<path d="M108.093 102.755C108.177 102.842 108.181 102.929 108.097 103.016C108.009 102.929 108.005 102.842 108.093 102.755Z" fill="#FCE196"/>
<path d="M26.8684 103.885C26.7846 103.798 26.7888 103.711 26.8726 103.624C26.9564 103.711 26.9522 103.798 26.8684 103.885Z" fill="#FCE196"/>
<path d="M121.626 103.88C121.542 103.798 121.538 103.711 121.622 103.62C121.71 103.703 121.714 103.789 121.626 103.88Z" fill="#FCE196"/>
<path d="M121.714 105.961C121.63 105.874 121.626 105.791 121.71 105.7C121.798 105.787 121.802 105.87 121.714 105.961Z" fill="#FCE196"/>
<path d="M74.3224 105.539C74.2763 105.386 74.2596 105.229 74.3434 105.08C74.3853 105.233 74.4062 105.39 74.3224 105.539Z" fill="#FCE196"/>
<path d="M107.833 96.1667C107.904 96.2205 107.904 96.2784 107.837 96.3405C107.766 96.2867 107.757 96.2288 107.833 96.1667Z" fill="#FCE196"/>
<path d="M107.657 92.7876C107.728 92.8414 107.728 92.8993 107.665 92.9613C107.59 92.9075 107.586 92.8496 107.657 92.7876Z" fill="#FCE196"/>
<path d="M28.1255 81.616C28.092 81.4878 28.0795 81.3637 28.1716 81.2521C28.1968 81.3803 28.2135 81.5044 28.1255 81.616Z" fill="#FCE196"/>
<path d="M60.0602 88.3661C60.1314 88.4199 60.1356 88.4778 60.0685 88.5398C59.9973 88.486 59.9889 88.4281 60.0602 88.3661Z" fill="#FCE196"/>
<path d="M121.186 96.4273C121.115 96.3735 121.111 96.3156 121.178 96.2535C121.253 96.3073 121.257 96.3652 121.186 96.4273Z" fill="#FCE196"/>
<path d="M27.2162 95.1285C27.1492 95.0665 27.1534 95.0086 27.2246 94.9548C27.2958 95.0169 27.2916 95.0748 27.2162 95.1285Z" fill="#FCE196"/>
<path d="M26.7803 107.177C26.7132 107.119 26.7132 107.061 26.7803 107.003C26.8515 107.061 26.8515 107.119 26.7803 107.177Z" fill="#FCE196"/>
<path d="M106.882 81.9429C106.974 82.0545 106.961 82.1828 106.928 82.3068C106.836 82.1952 106.857 82.067 106.882 81.9429Z" fill="#FCE196"/>
<path d="M107.745 94.4337C107.816 94.4875 107.816 94.5454 107.753 94.6074C107.678 94.5537 107.674 94.4958 107.745 94.4337Z" fill="#FCE196"/>
<path d="M107.481 89.8386C107.552 89.8924 107.556 89.9503 107.489 90.0123C107.414 89.9586 107.41 89.9007 107.481 89.8386Z" fill="#FCE196"/>
<path d="M107.921 98.1603C107.992 98.214 107.992 98.272 107.925 98.334C107.849 98.2802 107.845 98.2223 107.921 98.1603Z" fill="#FCE196"/>
<path d="M74.6411 94.26C74.5741 94.2021 74.5741 94.1442 74.6411 94.0863C74.7123 94.1442 74.7081 94.2021 74.6411 94.26Z" fill="#FCE196"/>
<path d="M60.1481 89.9254C60.2193 89.9792 60.2235 90.0371 60.1565 90.0991C60.081 90.0454 60.0768 89.9875 60.1481 89.9254Z" fill="#FCE196"/>
<path d="M74.8129 90.6202C74.7458 90.5582 74.75 90.5003 74.8171 90.4465C74.8883 90.5086 74.8841 90.5665 74.8129 90.6202Z" fill="#FCE196"/>
<path d="M60.4123 95.6455C60.4793 95.7034 60.4877 95.7572 60.4165 95.8192C60.3411 95.7655 60.3411 95.7075 60.4123 95.6455Z" fill="#FCE196"/>
<path d="M13.1341 110.978C13.1802 111.106 13.1928 111.23 13.1132 111.35C13.0713 111.222 13.0587 111.098 13.1341 110.978Z" fill="#FCE196"/>
<path d="M75.8057 77.021C75.7764 76.8927 75.7639 76.7687 75.856 76.657C75.877 76.7852 75.8979 76.9093 75.8057 77.021Z" fill="#FCE196"/>
<path d="M60.3243 93.4783C60.3955 93.5362 60.3955 93.5941 60.3285 93.652C60.2573 93.5941 60.2531 93.5403 60.3243 93.4783Z" fill="#FCE196"/>
<path d="M121.45 100.414C121.383 100.361 121.374 100.303 121.441 100.241C121.517 100.294 121.521 100.352 121.45 100.414Z" fill="#FCE196"/>
<path d="M14.2068 91.5674C14.2319 91.6956 14.2487 91.8197 14.1607 91.9355C14.1272 91.8073 14.1146 91.6832 14.2068 91.5674Z" fill="#FCE196"/>
<path d="M108.009 100.328C108.076 100.386 108.08 100.443 108.013 100.501C107.942 100.443 107.938 100.386 108.009 100.328Z" fill="#FCE196"/>
<path d="M27.3041 93.4783C27.2371 93.4162 27.2413 93.3583 27.3125 93.3046C27.3837 93.3666 27.3795 93.4245 27.3041 93.4783Z" fill="#FCE196"/>
<path d="M27.392 91.919C27.325 91.8569 27.3292 91.799 27.4004 91.7452C27.4716 91.8073 27.4674 91.8652 27.392 91.919Z" fill="#FCE196"/>
<path d="M13.5194 100.762C13.5907 100.82 13.5823 100.878 13.5152 100.936C13.444 100.878 13.4482 100.82 13.5194 100.762Z" fill="#FCE196"/>
<path d="M13.4357 102.321C13.5028 102.383 13.4986 102.441 13.4274 102.495C13.3561 102.433 13.3603 102.375 13.4357 102.321Z" fill="#FCE196"/>
<path d="M121.538 102.061C121.467 102.003 121.463 101.945 121.534 101.887C121.605 101.945 121.609 101.999 121.538 102.061Z" fill="#FCE196"/>
<path d="M74.7291 92.3533C74.6579 92.2954 74.6621 92.2375 74.7333 92.1796C74.8045 92.2375 74.8003 92.2954 74.7291 92.3533Z" fill="#FCE196"/>
<path d="M59.7081 83.163C59.7794 83.2167 59.7835 83.2746 59.7165 83.3367C59.6411 83.2829 59.6369 83.225 59.7081 83.163Z" fill="#FCE196"/>
<path d="M58.845 73.7948C58.9246 73.8775 58.9246 73.9727 58.8869 74.0761C58.8115 73.9933 58.8199 73.8941 58.845 73.7948Z" fill="#FCE196"/>
<path d="M106.354 76.3096C106.434 76.3923 106.434 76.4874 106.396 76.5908C106.325 76.5081 106.329 76.4088 106.354 76.3096Z" fill="#FCE196"/>
<path d="M108.223 107.942C108.29 108.033 108.285 108.128 108.243 108.227C108.176 108.136 108.181 108.041 108.223 107.942Z" fill="#FCE196"/>
<path d="M105.935 72.4878C106.006 72.5747 106.002 72.6698 105.977 72.769C105.893 72.6863 105.893 72.5912 105.935 72.4878Z" fill="#FCE196"/>
<path d="M106.467 77.4263C106.534 77.5131 106.526 77.6083 106.505 77.7075C106.421 77.6248 106.425 77.5297 106.467 77.4263Z" fill="#FCE196"/>
<path d="M26.7259 109.7C26.684 109.601 26.6798 109.505 26.7426 109.414C26.7845 109.514 26.7887 109.609 26.7259 109.7Z" fill="#FCE196"/>
<path d="M76.2331 72.9428C76.2121 72.8435 76.2038 72.7484 76.275 72.6615C76.3169 72.7608 76.3127 72.86 76.2331 72.9428Z" fill="#FCE196"/>
<path d="M60.6216 103.26C60.6886 103.351 60.6844 103.446 60.6383 103.545C60.5713 103.454 60.5755 103.359 60.6216 103.26Z" fill="#FCE196"/>
<path d="M120.381 87.419C120.302 87.3362 120.297 87.2411 120.344 87.1418C120.411 87.2287 120.406 87.3238 120.381 87.419Z" fill="#FCE196"/>
<path d="M26.99 100.079C26.9522 99.9802 26.9439 99.8851 27.0151 99.7941C27.0528 99.8933 27.0612 99.9885 26.99 100.079Z" fill="#FCE196"/>
<path d="M13.2219 107.599C13.2638 107.698 13.268 107.793 13.1967 107.884C13.1548 107.785 13.1506 107.69 13.2219 107.599Z" fill="#FCE196"/>
<path d="M60.5335 99.4467C60.6006 99.5376 60.5964 99.6328 60.5545 99.732C60.4875 99.6411 60.4917 99.5459 60.5335 99.4467Z" fill="#FCE196"/>
<path d="M107.954 99.0991C108.026 99.1901 108.022 99.2852 107.984 99.3845C107.913 99.2976 107.917 99.1984 107.954 99.0991Z" fill="#FCE196"/>
<path d="M121.852 110.052C121.785 109.961 121.789 109.865 121.831 109.766C121.898 109.857 121.894 109.952 121.852 110.052Z" fill="#FCE196"/>
<path d="M58.4934 70.6721C58.573 70.7548 58.573 70.85 58.5395 70.9492C58.4641 70.8665 58.4683 70.7714 58.4934 70.6721Z" fill="#FCE196"/>
<path d="M58.7782 73.1827C58.8495 73.2696 58.8453 73.3647 58.8201 73.464C58.7405 73.3813 58.7363 73.2861 58.7782 73.1827Z" fill="#FCE196"/>
<path d="M106.291 75.6932C106.358 75.7801 106.354 75.8752 106.333 75.9745C106.249 75.8918 106.249 75.7966 106.291 75.6932Z" fill="#FCE196"/>
<path d="M106.027 73.2654C106.098 73.3522 106.09 73.4474 106.069 73.5466C105.99 73.4639 105.985 73.3688 106.027 73.2654Z" fill="#FCE196"/>
<path d="M27.0695 97.999C27.036 97.8997 27.0318 97.8046 27.0989 97.7136C27.1366 97.8129 27.145 97.908 27.0695 97.999Z" fill="#FCE196"/>
<path d="M75.9858 75.2011C75.9523 75.1018 75.9523 75.0067 76.0277 74.9198C76.0528 75.0191 76.0612 75.1142 75.9858 75.2011Z" fill="#FCE196"/>
<path d="M28.7414 75.2011C28.7079 75.1018 28.7079 75.0067 28.7875 74.9198C28.8126 75.0191 28.8168 75.1142 28.7414 75.2011Z" fill="#FCE196"/>
<path d="M28.8962 73.8072C28.8752 73.708 28.8668 73.6129 28.9381 73.526C28.98 73.6253 28.98 73.7204 28.8962 73.8072Z" fill="#FCE196"/>
<path d="M74.5823 95.3974C74.5446 95.2982 74.5404 95.2031 74.6074 95.1121C74.6451 95.2113 74.6493 95.3064 74.5823 95.3974Z" fill="#FCE196"/>
<path d="M28.8127 74.589C28.7917 74.4897 28.7833 74.3946 28.8546 74.3077C28.8965 74.4111 28.8923 74.5063 28.8127 74.589Z" fill="#FCE196"/>
<path d="M76.078 74.3325C76.0402 74.2333 76.0444 74.1381 76.1198 74.0554C76.145 74.1547 76.1492 74.2498 76.078 74.3325Z" fill="#FCE196"/>
<path d="M58.6945 72.401C58.7657 72.4879 58.7574 72.583 58.7364 72.6823C58.6526 72.5995 58.6526 72.5044 58.6945 72.401Z" fill="#FCE196"/>
<path d="M13.5738 99.9678C13.6074 100.038 13.6032 100.104 13.5487 100.166C13.5152 100.096 13.5194 100.03 13.5738 99.9678Z" fill="#FCE196"/>
<path d="M75.0223 86.902C74.9888 86.8317 74.9972 86.7655 75.0516 86.7035C75.0851 86.7738 75.0768 86.84 75.0223 86.902Z" fill="#FCE196"/>
<path d="M107.783 95.2858C107.833 95.3478 107.841 95.414 107.808 95.4843C107.749 95.4264 107.745 95.3561 107.783 95.2858Z" fill="#FCE196"/>
<path d="M60.45 96.7582C60.5003 96.8202 60.5045 96.8864 60.471 96.9567C60.4165 96.8947 60.4123 96.8285 60.45 96.7582Z" fill="#FCE196"/>
<path d="M121.241 97.0476C121.186 96.9897 121.178 96.9194 121.211 96.8491C121.266 96.907 121.274 96.9773 121.241 97.0476Z" fill="#FCE196"/>
<path d="M107.867 97.1056C107.917 97.1676 107.925 97.2338 107.892 97.3041C107.837 97.2421 107.833 97.1759 107.867 97.1056Z" fill="#FCE196"/>
<path d="M60.3618 94.504C60.4121 94.5661 60.4163 94.6322 60.387 94.7026C60.3283 94.6405 60.3241 94.5743 60.3618 94.504Z" fill="#FCE196"/>
<path d="M74.4987 97.8252C74.4652 97.7549 74.4694 97.6887 74.5197 97.6267C74.5574 97.697 74.5532 97.7632 74.4987 97.8252Z" fill="#FCE196"/>
<path d="M28.0372 82.6542C28.0078 82.5839 28.0162 82.5177 28.0707 82.4557C28.1042 82.5301 28.0958 82.5963 28.0372 82.6542Z" fill="#FCE196"/>
<path d="M121.329 98.3464C121.274 98.2843 121.266 98.2181 121.303 98.1478C121.358 98.2099 121.362 98.276 121.329 98.3464Z" fill="#FCE196"/>
<path d="M27.2499 94.2724C27.2163 94.2021 27.2205 94.1359 27.275 94.0739C27.3085 94.1442 27.3043 94.2103 27.2499 94.2724Z" fill="#FCE196"/>
<path d="M107.69 93.5527C107.745 93.6148 107.749 93.681 107.715 93.7513C107.661 93.6892 107.657 93.623 107.69 93.5527Z" fill="#FCE196"/>
<path d="M121.416 99.7361C121.362 99.6741 121.354 99.6079 121.391 99.5376C121.446 99.5996 121.45 99.6658 121.416 99.7361Z" fill="#FCE196"/>
<path d="M74.4147 100.774C74.377 100.704 74.3812 100.638 74.4315 100.576C74.4692 100.646 74.465 100.712 74.4147 100.774Z" fill="#FCE196"/>
<path d="M75.282 83.1753C75.2527 83.105 75.2611 83.0388 75.3113 82.9768C75.3449 83.0513 75.3365 83.1174 75.282 83.1753Z" fill="#FCE196"/>
<path d="M74.6745 93.3169C74.641 93.2466 74.6452 93.1804 74.6954 93.1184C74.7332 93.1887 74.7248 93.2549 74.6745 93.3169Z" fill="#FCE196"/>
<path d="M121.504 101.209C121.45 101.146 121.446 101.08 121.479 101.01C121.534 101.072 121.538 101.138 121.504 101.209Z" fill="#FCE196"/>
<path d="M13.4859 101.531C13.5237 101.601 13.5153 101.668 13.4608 101.73C13.4273 101.659 13.4315 101.593 13.4859 101.531Z" fill="#FCE196"/>
<path d="M60.2697 92.5105C60.32 92.5725 60.3284 92.6387 60.2949 92.709C60.2404 92.647 60.232 92.5808 60.2697 92.5105Z" fill="#FCE196"/>
<path d="M27.3335 92.709C27.3041 92.6387 27.3083 92.5725 27.3628 92.5105C27.4005 92.5849 27.3921 92.6511 27.3335 92.709Z" fill="#FCE196"/>
<path d="M120.892 92.6263C120.838 92.5684 120.83 92.5022 120.859 92.4277C120.913 92.4856 120.922 92.5518 120.892 92.6263Z" fill="#FCE196"/>
<path d="M108.047 101.527C108.097 101.589 108.101 101.655 108.068 101.726C108.013 101.664 108.009 101.597 108.047 101.527Z" fill="#FCE196"/>
<path d="M107.602 91.9934C107.657 92.0513 107.661 92.1216 107.632 92.1919C107.577 92.134 107.569 92.0637 107.602 91.9934Z" fill="#FCE196"/>
<path d="M59.7421 83.7585C59.7966 83.8164 59.8008 83.8826 59.7714 83.9571C59.7128 83.8992 59.7044 83.833 59.7421 83.7585Z" fill="#FCE196"/>
<path d="M121.588 102.855C121.538 102.793 121.53 102.726 121.563 102.656C121.618 102.718 121.622 102.784 121.588 102.855Z" fill="#FCE196"/>
<path d="M13.3981 103.264C13.4358 103.334 13.4274 103.401 13.3771 103.463C13.3436 103.392 13.3478 103.326 13.3981 103.264Z" fill="#FCE196"/>
<path d="M74.7584 91.4971C74.7249 91.4268 74.7333 91.3606 74.7835 91.2986C74.8171 91.3689 74.8129 91.4351 74.7584 91.4971Z" fill="#FCE196"/>
<path d="M107.514 90.5168C107.569 90.5748 107.573 90.6451 107.544 90.7154C107.489 90.6575 107.481 90.5872 107.514 90.5168Z" fill="#FCE196"/>
<path d="M108.134 104.302C108.185 104.364 108.189 104.431 108.151 104.501C108.101 104.439 108.097 104.373 108.134 104.302Z" fill="#FCE196"/>
<path d="M121.68 104.848C121.626 104.786 121.622 104.72 121.659 104.65C121.71 104.712 121.714 104.778 121.68 104.848Z" fill="#FCE196"/>
<path d="M27.8616 84.8216C27.8323 84.7513 27.8406 84.6851 27.8909 84.623C27.9244 84.6975 27.9161 84.7637 27.8616 84.8216Z" fill="#FCE196"/>
<path d="M26.8141 105.539C26.7764 105.469 26.7806 105.402 26.8309 105.34C26.8686 105.411 26.8644 105.477 26.8141 105.539Z" fill="#FCE196"/>
<path d="M74.846 89.851C74.8125 89.7807 74.8209 89.7145 74.8753 89.6525C74.9089 89.7228 74.9047 89.789 74.846 89.851Z" fill="#FCE196"/>
<path d="M107.427 89.1313C107.481 89.1893 107.485 89.2596 107.456 89.3299C107.401 89.272 107.393 89.2017 107.427 89.1313Z" fill="#FCE196"/>
<path d="M59.8297 84.9705C59.8841 85.0284 59.8883 85.0945 59.859 85.169C59.8003 85.1111 59.7961 85.0449 59.8297 84.9705Z" fill="#FCE196"/>
<path d="M60.0936 89.1313C60.148 89.1934 60.1522 89.2596 60.1229 89.3299C60.0684 89.272 60.0601 89.2017 60.0936 89.1313Z" fill="#FCE196"/>
<path d="M121.764 107.102C121.714 107.04 121.706 106.974 121.748 106.904C121.798 106.966 121.802 107.032 121.764 107.102Z" fill="#FCE196"/>
<path d="M75.1062 85.6032C75.0769 85.5329 75.0853 85.4667 75.1356 85.4047C75.1691 85.4791 75.1649 85.5453 75.1062 85.6032Z" fill="#FCE196"/>
<path d="M107.163 85.4047C107.217 85.4626 107.221 85.5287 107.192 85.6032C107.133 85.5453 107.129 85.4791 107.163 85.4047Z" fill="#FCE196"/>
<path d="M27.5974 88.4612C27.5681 88.3909 27.5765 88.3247 27.6268 88.2627C27.6603 88.3371 27.6561 88.4033 27.5974 88.4612Z" fill="#FCE196"/>
<path d="M44.4407 23.0166C44.3779 23.0786 44.315 23.0703 44.2563 23.0083C44.3192 23.0083 44.3779 23.0124 44.4407 23.0166Z" fill="#FCE196"/>
<path d="M107.338 87.8325C107.393 87.8904 107.397 87.9607 107.368 88.031C107.313 87.9731 107.305 87.907 107.338 87.8325Z" fill="#FCE196"/>
<path d="M60.0059 87.6588C60.0604 87.7167 60.0646 87.787 60.0352 87.8573C59.9766 87.7994 59.9724 87.7333 60.0059 87.6588Z" fill="#FCE196"/>
<path d="M59.918 86.2692C59.9725 86.3271 59.9767 86.3974 59.9474 86.4677C59.8887 86.4098 59.8845 86.3436 59.918 86.2692Z" fill="#FCE196"/>
<path d="M27.1659 96.0054C27.1324 95.9351 27.1366 95.8689 27.191 95.8069C27.2245 95.8772 27.2203 95.9434 27.1659 96.0054Z" fill="#FCE196"/>
<path d="M42.8612 23.0206C42.8277 23.0579 42.7941 23.0703 42.748 23.0372C42.7816 23.0082 42.8193 23 42.8612 23.0206Z" fill="#FCE196"/>
<path d="M14.5417 88.1801C14.5669 88.2256 14.5543 88.2628 14.5166 88.2959C14.4956 88.2504 14.504 88.2131 14.5417 88.1801Z" fill="#FCE196"/>
<path d="M107.288 86.9681C107.288 87.0012 107.293 87.0343 107.297 87.0715C107.284 87.0467 107.272 87.026 107.263 87.0012C107.263 86.993 107.28 86.9805 107.288 86.9681Z" fill="#FCE196"/>
<path d="M27.6855 87.1626C27.6646 87.1171 27.673 87.0798 27.7107 87.0468C27.7358 87.0922 27.7232 87.1295 27.6855 87.1626Z" fill="#FCE196"/>
<path d="M14.6509 87.146C14.6467 87.1832 14.6425 87.2204 14.6342 87.2577C14.63 87.2329 14.6216 87.2039 14.6216 87.1791C14.6216 87.1667 14.6383 87.1584 14.6509 87.146Z" fill="#FCE196"/>
<path d="M107.25 86.6166C107.263 86.6414 107.28 86.6662 107.288 86.691C107.288 86.7034 107.28 86.7158 107.275 86.7324C107.242 86.6993 107.229 86.6621 107.254 86.6166H107.25Z" fill="#FCE196"/>
<path d="M27.6726 87.419C27.6726 87.3859 27.6726 87.3486 27.6768 87.3156C27.6852 87.3404 27.6978 87.3652 27.6978 87.39C27.6978 87.3983 27.681 87.4107 27.6685 87.419H27.6726Z" fill="#FCE196"/>
<path d="M59.9849 87.3156C59.9974 87.3404 60.01 87.361 60.0142 87.3859C60.0142 87.3941 59.9974 87.4065 59.9891 87.419C59.9891 87.3859 59.9891 87.3486 59.9849 87.3156Z" fill="#FCE196"/>
<path d="M107.322 87.5762C107.368 87.6093 107.372 87.6465 107.33 87.6837C107.33 87.6465 107.326 87.6134 107.322 87.5762Z" fill="#FCE196"/>
<path d="M120.243 86.2154C120.239 86.1782 120.235 86.141 120.227 86.1079C120.239 86.1327 120.256 86.1575 120.264 86.1824C120.264 86.1906 120.252 86.2072 120.243 86.2196V86.2154Z" fill="#FCE196"/>
<path d="M74.9718 87.9442C74.9299 87.907 74.9341 87.8698 74.9802 87.8367C74.9802 87.8739 74.976 87.907 74.9718 87.9442Z" fill="#FCE196"/>
<path d="M27.7773 85.9506C27.7564 85.9052 27.7648 85.8679 27.8025 85.8348C27.8276 85.8803 27.815 85.9176 27.7773 85.9506Z" fill="#FCE196"/>
<path d="M120.453 88.0352C120.419 88.0022 120.407 87.9649 120.428 87.9194C120.44 87.9442 120.457 87.9691 120.465 87.9939C120.465 88.0063 120.457 88.0228 120.453 88.0352Z" fill="#FCE196"/>
<path d="M27.6352 88.1179C27.5891 88.0807 27.5974 88.0435 27.6435 88.0104C27.6435 88.0476 27.6393 88.0848 27.6352 88.1179Z" fill="#FCE196"/>
<path d="M107.2 85.7562C107.2 85.7893 107.204 85.8224 107.208 85.8596C107.196 85.8348 107.183 85.8141 107.175 85.7893C107.175 85.781 107.192 85.7686 107.2 85.7562Z" fill="#FCE196"/>
<path d="M75.0933 85.8596C75.0933 85.8265 75.0975 85.7893 75.1016 85.7562C75.11 85.781 75.1226 85.8059 75.1226 85.8307C75.1226 85.8389 75.1058 85.8514 75.0933 85.8596Z" fill="#FCE196"/>
<path d="M43.1164 23.0083C43.0871 23.0455 43.0535 23.0455 43.02 23.0083C43.0535 23.0083 43.0829 23.0083 43.1164 23.0083Z" fill="#FCE196"/>
<path d="M107.376 88.1841C107.376 88.2172 107.376 88.2544 107.38 88.2875C107.368 88.2627 107.355 88.242 107.351 88.2172C107.351 88.2089 107.368 88.1965 107.376 88.1841Z" fill="#FCE196"/>
<path d="M120.193 85.6902C120.155 85.6571 120.143 85.6198 120.168 85.5743C120.18 85.5992 120.197 85.624 120.206 85.6488C120.206 85.6612 120.197 85.6736 120.197 85.6902H120.193Z" fill="#FCE196"/>
<path d="M59.8674 85.322C59.8674 85.3551 59.8716 85.3923 59.8758 85.4254C59.8632 85.4006 59.8507 85.3799 59.8423 85.3551C59.8423 85.3468 59.859 85.3344 59.8674 85.322Z" fill="#FCE196"/>
<path d="M27.585 88.7177C27.585 88.6846 27.5892 88.6473 27.5933 88.6143C27.6017 88.6391 27.6101 88.6639 27.6143 88.6887C27.6143 88.697 27.5975 88.7094 27.585 88.7177Z" fill="#FCE196"/>
<path d="M120.541 88.8997C120.507 88.8667 120.495 88.8294 120.516 88.7839C120.528 88.8088 120.545 88.8336 120.553 88.8584C120.553 88.8708 120.545 88.8832 120.541 88.8997Z" fill="#FCE196"/>
<path d="M107.41 88.8749C107.456 88.908 107.46 88.9452 107.418 88.9824C107.418 88.9452 107.414 88.9121 107.41 88.8749Z" fill="#FCE196"/>
<path d="M14.4494 89.0444C14.4746 89.0899 14.462 89.1272 14.4243 89.1602C14.4034 89.1148 14.4117 89.0775 14.4494 89.0444Z" fill="#FCE196"/>
<path d="M107.146 85.1483C107.192 85.1814 107.196 85.2145 107.154 85.2559C107.154 85.2186 107.15 85.1855 107.146 85.1483Z" fill="#FCE196"/>
<path d="M27.8447 85.078C27.8447 85.0449 27.8489 85.0118 27.8531 84.9746C27.8615 84.9994 27.8699 85.0242 27.8741 85.0491C27.8741 85.0573 27.8573 85.0697 27.8447 85.078Z" fill="#FCE196"/>
<path d="M120.587 89.5035C120.587 89.4705 120.582 89.4332 120.578 89.4001C120.591 89.425 120.603 89.4456 120.612 89.4705C120.612 89.4787 120.595 89.4911 120.587 89.5035Z" fill="#FCE196"/>
<path d="M107.468 89.5697C107.468 89.6028 107.473 89.6359 107.477 89.669C107.464 89.6441 107.452 89.6235 107.443 89.5986C107.443 89.5904 107.46 89.578 107.468 89.5656V89.5697Z" fill="#FCE196"/>
<path d="M27.5134 89.7641C27.4924 89.7186 27.5008 89.6814 27.5343 89.6483C27.5595 89.6938 27.5469 89.731 27.5134 89.7641Z" fill="#FCE196"/>
<path d="M59.813 84.714C59.8591 84.7471 59.8633 84.7843 59.8214 84.8215C59.8214 84.7843 59.8172 84.7512 59.813 84.714Z" fill="#FCE196"/>
<path d="M120.629 89.7683C120.595 89.7352 120.583 89.698 120.604 89.6525C120.616 89.6773 120.633 89.7021 120.641 89.7269C120.641 89.7393 120.633 89.7559 120.629 89.7683Z" fill="#FCE196"/>
<path d="M107.116 84.6313L107.125 84.7306C107.112 84.7058 107.1 84.6851 107.091 84.6603C107.091 84.652 107.108 84.6396 107.116 84.6272V84.6313Z" fill="#FCE196"/>
<path d="M14.366 89.913C14.3911 89.9585 14.3785 89.9957 14.3408 90.0288C14.3199 89.9833 14.3282 89.9461 14.366 89.913Z" fill="#FCE196"/>
<path d="M75.1772 84.6437C75.1772 84.6106 75.1814 84.5775 75.1856 84.5444C75.194 84.5692 75.2024 84.5899 75.2066 84.6147C75.2066 84.623 75.1898 84.6354 75.1772 84.6437Z" fill="#FCE196"/>
<path d="M27.4927 90.1033C27.4927 90.0702 27.4969 90.0371 27.5011 90.004C27.5094 90.0288 27.5178 90.0537 27.522 90.0785C27.522 90.0867 27.5052 90.0992 27.4927 90.1074V90.1033Z" fill="#FCE196"/>
<path d="M107.074 84.2756C107.108 84.3087 107.12 84.3459 107.095 84.3914C107.083 84.3666 107.066 84.3418 107.058 84.317C107.058 84.3046 107.066 84.2922 107.07 84.2756H107.074Z" fill="#FCE196"/>
<path d="M75.1982 84.3045C75.1773 84.259 75.1857 84.2218 75.2234 84.1887C75.2443 84.2342 75.2359 84.2714 75.1982 84.3045Z" fill="#FCE196"/>
<path d="M120.713 90.6368C120.7 90.612 120.683 90.5872 120.675 90.5624C120.675 90.55 120.683 90.5334 120.687 90.521C120.725 90.5541 120.733 90.5913 120.713 90.6368Z" fill="#FCE196"/>
<path d="M60.1862 90.7775C60.1988 90.8023 60.2113 90.8271 60.2197 90.8561C60.2197 90.8685 60.2113 90.8809 60.203 90.8974C60.1904 90.8726 60.1778 90.8478 60.1694 90.8188C60.1694 90.8064 60.1778 90.794 60.1862 90.7775Z" fill="#FCE196"/>
<path d="M120.733 90.885C120.721 90.8602 120.708 90.8395 120.704 90.8147C120.704 90.8064 120.721 90.794 120.729 90.7816C120.729 90.8147 120.733 90.8519 120.738 90.885H120.733Z" fill="#FCE196"/>
<path d="M14.2697 90.8643C14.2948 90.9098 14.2822 90.947 14.2487 90.9801C14.2278 90.9346 14.2362 90.8973 14.2697 90.8643Z" fill="#FCE196"/>
<path d="M107.552 90.9553C107.552 90.9884 107.556 91.0215 107.56 91.0587C107.548 91.0339 107.535 91.0132 107.527 90.9884C107.527 90.9801 107.544 90.9677 107.552 90.9553Z" fill="#FCE196"/>
<path d="M27.4254 91.1538C27.4002 91.1083 27.4128 91.0711 27.4463 91.038C27.4715 91.0835 27.4589 91.1207 27.4254 91.1538Z" fill="#FCE196"/>
<path d="M59.7795 84.1101C59.7795 84.1432 59.7837 84.1763 59.7879 84.2135C59.7753 84.1887 59.7628 84.168 59.7544 84.1432C59.7544 84.1349 59.7712 84.1225 59.7795 84.1101Z" fill="#FCE196"/>
<path d="M120.801 91.5881C120.767 91.555 120.754 91.5178 120.775 91.4723C120.809 91.5054 120.821 91.5426 120.801 91.5881Z" fill="#FCE196"/>
<path d="M107.058 84.0233C107.104 84.0564 107.108 84.0895 107.066 84.1309C107.066 84.0936 107.062 84.0605 107.058 84.0233Z" fill="#FCE196"/>
<path d="M27.9326 83.9489C27.9326 83.9158 27.9368 83.8827 27.941 83.8455C27.9494 83.8703 27.9578 83.8951 27.9619 83.9199C27.9619 83.9282 27.9452 83.9406 27.9326 83.9489Z" fill="#FCE196"/>
<path d="M120.821 91.8405C120.809 91.8156 120.796 91.795 120.792 91.7701C120.792 91.7619 120.809 91.7495 120.817 91.7371C120.817 91.7701 120.821 91.8074 120.826 91.8405H120.821Z" fill="#FCE196"/>
<path d="M27.9492 83.6965C27.9283 83.651 27.9408 83.6138 27.9743 83.5807C27.9995 83.6262 27.9869 83.6634 27.9492 83.6965Z" fill="#FCE196"/>
<path d="M107.024 83.5022C107.024 83.5353 107.028 83.5684 107.033 83.6056C107.02 83.5808 107.007 83.5601 106.999 83.5353C106.999 83.527 107.016 83.5146 107.024 83.5022Z" fill="#FCE196"/>
<path d="M59.7251 83.5022C59.7712 83.5353 59.7754 83.5725 59.7335 83.6097C59.7335 83.5725 59.7293 83.5394 59.7251 83.5022Z" fill="#FCE196"/>
<path d="M14.123 92.5187C14.123 92.5518 14.1188 92.589 14.1146 92.6221C14.0685 92.5849 14.0727 92.5476 14.123 92.5187Z" fill="#FCE196"/>
<path d="M75.2651 83.4318C75.2651 83.3987 75.2693 83.3656 75.2735 83.3325C75.2819 83.3573 75.2903 83.3822 75.2945 83.407C75.2945 83.4152 75.2777 83.4276 75.2651 83.4359V83.4318Z" fill="#FCE196"/>
<path d="M27.9872 83.4359C27.9411 83.3945 27.9495 83.3615 27.9956 83.3284C27.9956 83.3656 27.9914 83.4028 27.9872 83.4359Z" fill="#FCE196"/>
<path d="M14.1017 92.771C14.1268 92.8165 14.1143 92.8537 14.0766 92.8868C14.0514 92.8413 14.064 92.8041 14.1017 92.771Z" fill="#FCE196"/>
<path d="M106.991 83.2333C107.003 83.2581 107.02 83.2829 107.028 83.3077C107.028 83.3201 107.02 83.3367 107.016 83.3491C106.978 83.316 106.97 83.2788 106.991 83.2333Z" fill="#FCE196"/>
<path d="M14.064 93.0358C14.0724 93.0606 14.0808 93.0854 14.085 93.1102C14.085 93.1185 14.0682 93.1309 14.0557 93.1392C14.0557 93.1061 14.0599 93.0689 14.064 93.0358Z" fill="#FCE196"/>
<path d="M106.97 82.981C107.016 83.014 107.024 83.0513 106.978 83.0885C106.978 83.0513 106.974 83.014 106.97 82.981Z" fill="#FCE196"/>
<path d="M59.6916 82.8942C59.6916 82.9273 59.6958 82.9645 59.7 82.9976C59.6875 82.9727 59.6749 82.9521 59.6665 82.9273C59.6665 82.919 59.6833 82.9066 59.6916 82.8942Z" fill="#FCE196"/>
<path d="M15.1493 82.89C15.1702 82.9355 15.1577 82.9727 15.12 83.0058C15.099 82.9603 15.1116 82.9231 15.1493 82.89Z" fill="#FCE196"/>
<path d="M120.976 93.5816C120.964 93.5568 120.947 93.532 120.938 93.5072C120.938 93.4948 120.947 93.4782 120.951 93.4658C120.985 93.4989 120.997 93.5361 120.976 93.5816Z" fill="#FCE196"/>
<path d="M75.3197 82.828C75.2736 82.7908 75.282 82.7535 75.3281 82.7205C75.3281 82.7577 75.3239 82.7908 75.3197 82.828Z" fill="#FCE196"/>
<path d="M27.2874 93.8381C27.2413 93.8009 27.2455 93.7637 27.2916 93.7306C27.2916 93.7678 27.2916 93.8009 27.2874 93.8381Z" fill="#FCE196"/>
<path d="M14.0137 93.8134C14.0389 93.8589 14.0263 93.8961 13.9928 93.9292C13.9676 93.8837 13.9802 93.8464 14.0137 93.8134Z" fill="#FCE196"/>
<path d="M13.9762 94.078C13.9845 94.1028 13.9929 94.1276 13.9971 94.1524C13.9971 94.1607 13.9803 94.1731 13.9678 94.1814C13.9678 94.1483 13.972 94.1111 13.9762 94.078Z" fill="#FCE196"/>
<path d="M59.6582 82.6294C59.6708 82.6542 59.6875 82.679 59.6959 82.7038C59.6959 82.7163 59.6875 82.7328 59.6833 82.7452C59.6456 82.7121 59.6372 82.6749 59.6582 82.6294Z" fill="#FCE196"/>
<path d="M106.94 82.464C106.94 82.4971 106.944 82.5302 106.949 82.5632C106.936 82.5426 106.923 82.5177 106.915 82.4929C106.915 82.4847 106.932 82.4722 106.94 82.4598V82.464Z" fill="#FCE196"/>
<path d="M59.6372 82.373C59.6833 82.4061 59.6917 82.4434 59.6456 82.4806C59.6456 82.4434 59.6414 82.4061 59.6372 82.373Z" fill="#FCE196"/>
<path d="M15.2416 82.1952C15.2625 82.2407 15.2499 82.2779 15.2122 82.311C15.1913 82.2655 15.2039 82.2283 15.2416 82.1952Z" fill="#FCE196"/>
<path d="M13.9468 94.5991C13.9468 94.6322 13.9426 94.6694 13.9384 94.7025C13.93 94.6777 13.9217 94.6529 13.9175 94.6281C13.9175 94.6198 13.9342 94.6074 13.9468 94.5991Z" fill="#FCE196"/>
<path d="M121.068 94.7066C121.035 94.6735 121.022 94.6363 121.047 94.5908C121.06 94.6156 121.073 94.6405 121.081 94.6653C121.081 94.6777 121.073 94.6901 121.068 94.7066Z" fill="#FCE196"/>
<path d="M121.085 94.959C121.073 94.9342 121.06 94.9135 121.056 94.8887C121.056 94.8804 121.073 94.868 121.081 94.8556C121.081 94.8887 121.081 94.9259 121.085 94.959Z" fill="#FCE196"/>
<path d="M13.9175 94.9384C13.9469 94.9839 13.9343 95.0211 13.8966 95.0542C13.8714 95.0128 13.884 94.9714 13.9175 94.9384Z" fill="#FCE196"/>
<path d="M75.3739 81.9635C75.3488 81.918 75.3613 81.8807 75.3991 81.8477C75.4242 81.8932 75.4116 81.9304 75.3739 81.9635Z" fill="#FCE196"/>
<path d="M59.6038 81.7692C59.6038 81.8023 59.6079 81.8395 59.6121 81.8726C59.5996 81.8477 59.587 81.8271 59.5786 81.8023C59.5786 81.794 59.5954 81.7816 59.6038 81.7692Z" fill="#FCE196"/>
<path d="M13.8883 95.203C13.8966 95.2278 13.9092 95.2526 13.9092 95.2774C13.9092 95.2857 13.8925 95.2981 13.8799 95.3064C13.8799 95.2733 13.8799 95.2361 13.8841 95.203H13.8883Z" fill="#FCE196"/>
<path d="M75.4118 81.703C75.3699 81.6658 75.3741 81.6285 75.4202 81.5955C75.4202 81.6327 75.416 81.6658 75.4118 81.703Z" fill="#FCE196"/>
<path d="M59.5703 81.5002C59.5829 81.5251 59.5996 81.5499 59.608 81.5747C59.608 81.5871 59.5996 81.6036 59.5954 81.6161C59.5577 81.583 59.5494 81.5457 59.5703 81.5002Z" fill="#FCE196"/>
<path d="M121.152 95.8358C121.119 95.8027 121.106 95.7655 121.131 95.72C121.144 95.7448 121.157 95.7696 121.165 95.7944C121.165 95.8068 121.157 95.8192 121.152 95.8358Z" fill="#FCE196"/>
<path d="M15.3339 81.5044C15.3548 81.5499 15.3422 81.5871 15.3045 81.6202C15.2836 81.5747 15.2961 81.5375 15.3339 81.5044Z" fill="#FCE196"/>
<path d="M27.7274 86.8151C27.6814 86.7778 27.6897 86.7406 27.7358 86.7075C27.7358 86.7447 27.7316 86.7778 27.7274 86.8151Z" fill="#FCE196"/>
<path d="M13.8335 96.0675C13.8587 96.113 13.8503 96.1502 13.8126 96.1833C13.7874 96.1378 13.8 96.1006 13.8335 96.0675Z" fill="#FCE196"/>
<path d="M106.852 81.4217C106.852 81.4548 106.856 81.4879 106.861 81.521C106.848 81.4962 106.836 81.4755 106.827 81.4507C106.827 81.4424 106.844 81.43 106.852 81.4176V81.4217Z" fill="#FCE196"/>
<path d="M59.5493 81.248C59.5954 81.2811 59.6038 81.3142 59.5577 81.3556C59.5577 81.3184 59.5535 81.2853 59.5493 81.248Z" fill="#FCE196"/>
<path d="M106.815 81.1528C106.828 81.1776 106.844 81.2025 106.853 81.2273C106.853 81.2397 106.844 81.2562 106.84 81.2686C106.802 81.2356 106.794 81.1983 106.815 81.1528Z" fill="#FCE196"/>
<path d="M121.202 96.6962C121.202 96.6631 121.202 96.6259 121.198 96.5928C121.244 96.6259 121.249 96.659 121.202 96.6962Z" fill="#FCE196"/>
<path d="M75.4414 81.1776C75.4414 81.1445 75.4456 81.1114 75.4498 81.0742C75.4582 81.099 75.4665 81.1238 75.4707 81.1487C75.4707 81.1569 75.454 81.1693 75.4414 81.1776Z" fill="#FCE196"/>
<path d="M106.794 80.9005C106.84 80.9336 106.848 80.9667 106.802 81.008C106.802 80.9708 106.798 80.9377 106.794 80.9005Z" fill="#FCE196"/>
<path d="M13.771 96.9402C13.771 96.9733 13.7668 97.0105 13.7626 97.0436C13.7543 97.0188 13.7417 96.994 13.7417 96.9691C13.7417 96.9609 13.7585 96.9485 13.771 96.9402Z" fill="#FCE196"/>
<path d="M75.458 80.9212C75.4371 80.8757 75.4454 80.8385 75.4831 80.8054C75.5083 80.8509 75.4957 80.8881 75.458 80.9212Z" fill="#FCE196"/>
<path d="M13.7458 97.2793C13.7709 97.3248 13.7625 97.362 13.7248 97.3951C13.6997 97.3496 13.7081 97.3124 13.7458 97.2793Z" fill="#FCE196"/>
<path d="M59.5198 80.7268C59.5198 80.7599 59.524 80.793 59.5281 80.8261C59.5156 80.8012 59.503 80.7806 59.4946 80.7557C59.4946 80.7475 59.5114 80.7351 59.5198 80.7227V80.7268Z" fill="#FCE196"/>
<path d="M28.1968 80.8302C28.1968 80.7971 28.201 80.764 28.2052 80.7268C28.2135 80.7516 28.2219 80.7764 28.2261 80.8013C28.2261 80.8095 28.2093 80.8219 28.1968 80.8302Z" fill="#FCE196"/>
<path d="M75.4958 80.6648C75.4539 80.6234 75.4581 80.5903 75.5041 80.5573C75.5041 80.5945 75.5 80.6276 75.4958 80.6648Z" fill="#FCE196"/>
<path d="M59.4819 80.4622C59.4945 80.487 59.5113 80.5118 59.5196 80.5366C59.5196 80.549 59.5113 80.5656 59.5071 80.578C59.4694 80.5449 59.461 80.5077 59.4819 80.4622Z" fill="#FCE196"/>
<path d="M28.2173 80.578C28.1963 80.5325 28.2047 80.4952 28.2424 80.4622C28.2634 80.5077 28.255 80.5449 28.2173 80.578Z" fill="#FCE196"/>
<path d="M13.6827 98.2389C13.6827 98.272 13.6827 98.3092 13.6785 98.3423C13.6325 98.3051 13.6366 98.272 13.6827 98.2389Z" fill="#FCE196"/>
<path d="M121.345 98.6028C121.333 98.578 121.32 98.5573 121.316 98.5325C121.316 98.5242 121.333 98.5118 121.341 98.4994C121.341 98.5325 121.341 98.5697 121.345 98.6028Z" fill="#FCE196"/>
<path d="M13.6618 98.5822C13.6869 98.6276 13.6785 98.6649 13.6408 98.698C13.6157 98.6525 13.6241 98.6152 13.6618 98.5822Z" fill="#FCE196"/>
<path d="M59.4609 80.2098C59.507 80.2429 59.5154 80.276 59.4693 80.3174C59.4693 80.2801 59.4651 80.2471 59.4609 80.2098Z" fill="#FCE196"/>
<path d="M75.5293 80.1354C75.5293 80.1023 75.5335 80.0692 75.5377 80.0361C75.5461 80.0609 75.5544 80.0858 75.5586 80.1106C75.5586 80.1189 75.5419 80.1313 75.5293 80.1395V80.1354Z" fill="#FCE196"/>
<path d="M75.5459 79.8831C75.5249 79.8376 75.5375 79.8004 75.571 79.7673C75.592 79.8128 75.5836 79.8501 75.5459 79.8831Z" fill="#FCE196"/>
<path d="M28.2803 79.8748C28.2803 79.8417 28.2845 79.8086 28.2887 79.7755C28.297 79.8003 28.3054 79.8251 28.3096 79.85C28.3096 79.8582 28.2928 79.8706 28.2803 79.8789V79.8748Z" fill="#FCE196"/>
<path d="M59.4319 79.6887C59.4319 79.7218 59.4361 79.7549 59.4403 79.7921C59.4277 79.7673 59.4151 79.7466 59.4067 79.7218C59.4067 79.7135 59.4235 79.7011 59.4319 79.6887Z" fill="#FCE196"/>
<path d="M75.5837 79.6225C75.5418 79.5812 75.546 79.5481 75.592 79.515C75.592 79.5522 75.5878 79.5853 75.5837 79.6225Z" fill="#FCE196"/>
<path d="M28.3013 79.6225C28.2803 79.577 28.2929 79.5398 28.3264 79.5067C28.3473 79.5522 28.3348 79.5894 28.3013 79.6225Z" fill="#FCE196"/>
<path d="M59.394 79.4198C59.4066 79.4446 59.4234 79.4694 59.4317 79.4942C59.4317 79.5067 59.4234 79.5232 59.4192 79.5356C59.3815 79.5025 59.3731 79.4653 59.394 79.4198Z" fill="#FCE196"/>
<path d="M59.373 79.1676C59.4191 79.2007 59.4233 79.2338 59.3814 79.2751C59.3814 79.2379 59.3772 79.2048 59.373 79.1676Z" fill="#FCE196"/>
<path d="M75.6172 79.0973C75.6172 79.0642 75.6214 79.027 75.6256 78.9939C75.6339 79.0187 75.6423 79.0435 75.6465 79.0683C75.6465 79.0766 75.6298 79.089 75.6172 79.0973Z" fill="#FCE196"/>
<path d="M28.3726 78.9235C28.3726 78.8904 28.3767 78.8573 28.3809 78.8201C28.3893 78.8449 28.3977 78.8697 28.4019 78.8945C28.4019 78.9028 28.3851 78.9152 28.3726 78.9235Z" fill="#FCE196"/>
<path d="M75.6381 78.8449C75.6129 78.7994 75.6255 78.7622 75.6632 78.7291C75.6842 78.7746 75.6758 78.8118 75.6381 78.8449Z" fill="#FCE196"/>
<path d="M28.3935 78.6712C28.3726 78.6257 28.381 78.5885 28.4187 78.5554C28.4396 78.6009 28.4271 78.6381 28.3935 78.6712Z" fill="#FCE196"/>
<path d="M59.3104 78.4645C59.323 78.4893 59.3398 78.5141 59.3482 78.5389C59.3482 78.5513 59.3398 78.5679 59.3356 78.5803C59.2979 78.5472 59.2853 78.51 59.3104 78.4645Z" fill="#FCE196"/>
<path d="M106.551 78.2948C106.563 78.3196 106.58 78.3444 106.588 78.3692C106.588 78.3817 106.58 78.3982 106.576 78.4106C106.538 78.3775 106.53 78.3403 106.551 78.2948Z" fill="#FCE196"/>
<path d="M106.53 78.0426C106.576 78.0757 106.58 78.1088 106.538 78.1501C106.538 78.1129 106.534 78.0798 106.53 78.0426Z" fill="#FCE196"/>
<path d="M75.7051 78.1419C75.7051 78.1088 75.7093 78.0757 75.7135 78.0385C75.7218 78.0633 75.7302 78.0881 75.7344 78.1129C75.7344 78.1212 75.7176 78.1336 75.7051 78.1419Z" fill="#FCE196"/>
<path d="M75.7261 77.8895C75.7051 77.844 75.7135 77.8068 75.7512 77.7737C75.7722 77.8192 75.7638 77.8564 75.7261 77.8895Z" fill="#FCE196"/>
<path d="M28.477 77.8027C28.4561 77.7572 28.4687 77.72 28.5022 77.6869C28.5231 77.7324 28.5147 77.7696 28.477 77.8027Z" fill="#FCE196"/>
<path d="M26.9018 102.507C26.8767 102.466 26.8851 102.425 26.9186 102.391C26.9479 102.433 26.9395 102.474 26.9018 102.507Z" fill="#FCE196"/>
<path d="M59.2226 77.5132C59.2351 77.538 59.2519 77.5628 59.2603 77.5876C59.2603 77.6 59.2519 77.6166 59.2477 77.629C59.21 77.5959 59.1974 77.5587 59.2226 77.5132Z" fill="#FCE196"/>
<path d="M28.5148 77.5421C28.4729 77.5049 28.4771 77.4677 28.5232 77.4346C28.5232 77.4718 28.519 77.5049 28.5148 77.5421Z" fill="#FCE196"/>
<path d="M59.1973 77.2609C59.2434 77.294 59.2517 77.327 59.2056 77.3684C59.2056 77.3312 59.1973 77.2981 59.1973 77.2609Z" fill="#FCE196"/>
<path d="M59.1677 76.8265C59.1677 76.8596 59.1719 76.8927 59.1761 76.9258C59.1635 76.9051 59.151 76.8803 59.1426 76.8555C59.1426 76.8472 59.1593 76.8348 59.1677 76.8224V76.8265Z" fill="#FCE196"/>
<path d="M106.412 76.7397C106.412 76.7728 106.417 76.8059 106.421 76.8431C106.408 76.8183 106.396 76.7977 106.387 76.7728C106.387 76.7646 106.404 76.7522 106.412 76.7397Z" fill="#FCE196"/>
<path d="M59.1304 76.5619C59.1429 76.5867 59.1597 76.6115 59.1681 76.6363C59.1681 76.6487 59.1597 76.6653 59.1555 76.6777C59.1178 76.6446 59.1094 76.6074 59.1304 76.5619Z" fill="#FCE196"/>
<path d="M75.8979 76.0697C75.877 76.0242 75.8896 75.9869 75.9231 75.9539C75.944 75.9994 75.9315 76.0366 75.8979 76.0697Z" fill="#FCE196"/>
<path d="M28.6489 76.0697C28.628 76.0242 28.6405 75.9869 28.6741 75.9539C28.695 75.9994 28.6824 76.0366 28.6489 76.0697Z" fill="#FCE196"/>
<path d="M59.0424 75.6932C59.0549 75.7181 59.0717 75.7429 59.0801 75.7677C59.0801 75.7801 59.0717 75.7966 59.0675 75.809C59.0298 75.776 59.0172 75.7387 59.0424 75.6932Z" fill="#FCE196"/>
<path d="M13.3102 105.258C13.3395 105.299 13.3269 105.341 13.2934 105.374C13.2683 105.332 13.2767 105.291 13.3102 105.258Z" fill="#FCE196"/>
<path d="M106.266 75.4409C106.312 75.474 106.316 75.5071 106.274 75.5485C106.274 75.5112 106.27 75.4781 106.266 75.4409Z" fill="#FCE196"/>
<path d="M106.199 74.8247C106.211 74.8495 106.228 74.8743 106.236 74.8992C106.236 74.9116 106.228 74.9281 106.224 74.9405C106.186 74.9074 106.178 74.8702 106.199 74.8247Z" fill="#FCE196"/>
<path d="M58.954 74.8247C58.9666 74.8495 58.9833 74.8743 58.9917 74.8992C58.9917 74.9116 58.9833 74.9281 58.9791 74.9405C58.9414 74.9074 58.9289 74.8702 58.954 74.8247Z" fill="#FCE196"/>
<path d="M106.115 74.0471C106.128 74.0719 106.144 74.0968 106.153 74.1216C106.153 74.134 106.144 74.1505 106.14 74.1629C106.103 74.1298 106.09 74.0926 106.115 74.0471Z" fill="#FCE196"/>
<path d="M76.1616 73.5549C76.1407 73.5094 76.1532 73.4722 76.1867 73.4391C76.2077 73.4846 76.1951 73.5218 76.1616 73.5549Z" fill="#FCE196"/>
<path d="M29.001 72.8601C28.98 72.8146 28.9926 72.7774 29.0261 72.7443C29.0471 72.7898 29.0345 72.827 29.001 72.8601Z" fill="#FCE196"/>
<path d="M29.0892 72.0825C29.0682 72.037 29.0808 71.9998 29.1185 71.9667C29.1395 72.0122 29.1269 72.0494 29.0892 72.0825Z" fill="#FCE196"/>
<path d="M76.3335 71.9957C76.3125 71.9502 76.3251 71.913 76.3586 71.8799C76.3796 71.9254 76.367 71.9626 76.3335 71.9957Z" fill="#FCE196"/>
<path d="M105.847 71.7062C105.859 71.731 105.876 71.7558 105.885 71.7806C105.885 71.793 105.876 71.8096 105.872 71.822C105.834 71.7889 105.822 71.7517 105.843 71.7062H105.847Z" fill="#FCE196"/>
<path d="M58.6022 71.6193C58.6147 71.6441 58.6315 71.6689 58.6399 71.6937C58.6399 71.7061 58.6315 71.7227 58.6273 71.7351C58.5896 71.702 58.577 71.6648 58.598 71.6193H58.6022Z" fill="#FCE196"/>
<path d="M76.4256 71.214C76.4047 71.1685 76.4172 71.1312 76.4549 71.0981C76.4759 71.1436 76.4633 71.1809 76.4256 71.214Z" fill="#FCE196"/>
<path d="M105.763 71.0112C105.776 71.036 105.793 71.0609 105.801 71.0857C105.801 71.0981 105.793 71.1146 105.793 71.127C105.755 71.094 105.742 71.0567 105.767 71.0112H105.763Z" fill="#FCE196"/>
<path d="M58.4303 70.1427C58.4429 70.1675 58.4596 70.1923 58.468 70.2171C58.468 70.2296 58.4596 70.2461 58.4554 70.2585C58.4177 70.2254 58.4052 70.1882 58.4261 70.1427H58.4303Z" fill="#FCE196"/>
<path d="M29.4408 69.2203C29.4198 69.1748 29.4324 69.1376 29.4701 69.1045C29.491 69.15 29.4785 69.1872 29.4408 69.2203Z" fill="#FCE196"/>
<path d="M58.0745 67.3716C58.0871 67.3964 58.1039 67.4212 58.1123 67.446C58.1123 67.4584 58.1039 67.475 58.1039 67.4874C58.0662 67.4543 58.0536 67.4171 58.0745 67.3716Z" fill="#FCE196"/>
<path d="M76.9495 67.0531C76.9286 67.0076 76.9412 66.9703 76.9789 66.9373C76.9998 66.9828 76.9873 67.02 76.9495 67.0531Z" fill="#FCE196"/>
<path d="M91.4004 29.7046C91.4381 29.7046 91.4758 29.7046 91.5135 29.7087C91.4758 29.7501 91.4381 29.7501 91.4004 29.7046Z" fill="#FCE196"/>
<path d="M91.1362 29.7086C91.1739 29.7086 91.2116 29.7086 91.2494 29.7086C91.2116 29.7541 91.1739 29.7541 91.1362 29.7086Z" fill="#FCE196"/>
<path d="M92.0371 23.0166C92.0036 23.0538 91.97 23.0497 91.9365 23.0125C91.97 23.0125 92.0036 23.0125 92.0371 23.0166Z" fill="#FCE196"/>
<path d="M44.7088 23.0496C44.6627 23.0786 44.625 23.062 44.5957 23.0289C44.6376 23.0083 44.6795 23.0207 44.7088 23.0496Z" fill="#FCE196"/>
<path d="M121.89 116.975C121.898 116.942 121.911 116.905 121.919 116.872C121.961 116.921 121.957 116.959 121.89 116.975Z" fill="#FCE196"/>
<path d="M74.9342 88.2917C74.909 88.2462 74.9216 88.209 74.9551 88.1759C74.9803 88.2214 74.9677 88.2586 74.9342 88.2917Z" fill="#FCE196"/>
<path d="M60.0476 88.0973C60.0476 88.1304 60.0518 88.1635 60.056 88.1965C60.0434 88.1717 60.0308 88.151 60.0225 88.1262C60.0225 88.118 60.0392 88.1055 60.0476 88.0931V88.0973Z" fill="#FCE196"/>
<path d="M121.169 96.0881C121.156 96.0633 121.144 96.0426 121.14 96.0178C121.14 96.0096 121.156 95.9971 121.165 95.9847C121.165 96.0178 121.165 96.0551 121.169 96.0881Z" fill="#FCE196"/>
<path d="M125.979 113.228C126 113.273 125.987 113.311 125.95 113.344C125.929 113.298 125.941 113.261 125.979 113.228Z" fill="#FCE196"/>
<path d="M125.958 114.01C125.971 114.034 125.988 114.059 125.996 114.084C125.996 114.097 125.988 114.113 125.988 114.125C125.95 114.092 125.937 114.055 125.958 114.01Z" fill="#FCE196"/>
</svg>
