<svg width="140" height="140" viewBox="0 0 140 140" fill="none" xmlns="http://www.w3.org/2000/svg">
<g clip-path="url(#clip0_3610_803)">
<rect width="140" height="140" rx="30" fill="white"/>
<g clip-path="url(#clip1_3610_803)">
<path d="M27.0347 -1.95125L113.183 -2C128.62 -1.19558 141.197 10.2961 142.876 25.7114C143.208 54.4663 142.927 83.253 143.018 112.02C142.199 128.438 130.114 141.618 113.602 142.998H26.4244C10.1728 141.648 -2.16266 128.35 -2.99896 112.169V27.5537C-1.8542 11.4849 10.9772 -1.01838 27.0347 -1.95125ZM70.3602 34.8863C70.2552 34.9482 70.1689 34.8798 70.0808 34.8282C69.508 34.4944 68.1832 32.9221 67.4453 32.3352C52.7313 20.6279 30.1587 31.2955 29.0524 49.7729C28.3989 60.6935 29.553 72.2602 29.0599 83.2483C30.3715 91.0516 41.5903 90.8126 42.5963 82.9699L42.5851 51.6245C43.4683 38.464 61.594 37.6915 63.2516 50.6279C63.396 61.7427 62.9319 72.9324 63.4888 84.004C65.6302 91.1585 75.9368 90.4075 76.9269 82.9699L76.9156 51.482C77.8222 37.9756 96.7571 38.2259 97.5841 50.911C98.26 61.2795 97.0684 72.3821 97.5719 82.8264C98.6454 91.1754 110.496 90.9729 111.257 82.5414C110.835 71.932 111.804 60.9101 111.251 50.3495C110.214 30.5445 87.3356 20.2773 72.0103 33.1893C71.4768 33.6394 71.0437 34.1475 70.4737 34.6135C70.3536 34.7119 70.3715 34.8779 70.3593 34.8854L70.3602 34.8863ZM89.0307 102.264V96.3535C89.0307 95.4432 86.3906 94.9434 86.0699 96.3835C86.0699 101.601 85.9171 106.858 86.1477 112.055C86.8978 113.299 88.8685 112.945 89.0345 111.454C89.2717 109.323 88.3032 104.96 90.0995 103.546C91.0137 102.827 92.7997 102.673 93.5113 103.695C94.4517 105.044 93.8423 109.625 94.0091 111.458C94.1695 113.221 96.819 113.349 97.015 111.316C97.179 109.609 97.1828 104.841 96.7628 103.293C95.7896 99.7015 91.1365 99.7456 89.0307 102.265V102.264ZM39.2211 103.879C40.2787 102.822 42.4032 103.3 42.5944 104.896C42.8204 106.778 42.4219 109.095 42.586 111.028C42.797 113.513 45.3837 113.34 45.5881 111.028C45.7428 109.282 45.7175 104.546 44.988 103.071C43.5189 100.104 39.523 99.724 37.2494 101.974C34.7912 99.2065 29.5521 100.653 29.0702 104.341C28.8789 105.807 28.8817 110.114 29.0552 111.595C29.253 113.288 31.7413 113.181 31.9138 111.314C32.0966 109.335 31.6016 106.658 31.941 104.79C32.2804 102.921 35.2524 102.835 35.6922 104.675C36.1094 106.42 35.5384 109.388 35.7531 111.309C35.9819 113.361 38.4279 113.135 38.6061 111.596C38.8123 109.82 38.0726 105.028 39.2211 103.879ZM50.7109 107.391H58.3323C59.3973 107.391 59.0233 105.364 58.8808 104.707C58.4898 102.911 57.3854 101.304 55.5552 100.768C46.8013 98.2071 44.4555 112.056 53.3651 112.785C54.6814 112.893 58.9539 112.392 58.9529 110.596C58.9529 110.149 58.4851 109.467 58.0276 109.42C57.5279 109.369 55.9678 110.27 55.183 110.367C52.8232 110.658 51.054 109.894 50.7118 107.392L50.7109 107.391ZM63.817 107.391H71.4384C71.7853 107.391 72.2166 106.693 72.2316 106.321C72.4875 99.6106 63.397 98.3711 61.2903 104.223C59.0814 110.359 64.5989 114.485 70.2786 112.213C71.3006 111.804 72.2944 111.363 71.9072 110.055C71.4881 108.641 69.2473 110.248 68.2891 110.366C65.8796 110.663 64.178 109.963 63.8179 107.391H63.817ZM77.2484 104.93C77.1359 104.794 77.0994 104.635 77.0769 104.464C76.8003 102.326 79.5783 102.585 80.9424 103.015C81.5931 103.22 83.0622 104.31 83.4438 103.018C83.7307 102.047 83.351 101.653 82.5728 101.242C80.9621 100.392 78.2216 100.284 76.5387 100.955C73.5648 102.141 73.1982 106.262 76.4618 107.352C77.6478 107.749 81.8781 107.66 80.8768 109.707C80.2739 110.94 77.6516 110.597 76.5584 110.247C75.7971 110.004 74.1639 108.88 73.936 110.465C73.7607 111.686 74.8661 112.078 75.8515 112.379C79.1601 113.387 84.5708 112.707 83.727 108.065C83.1944 105.135 78.1447 106.017 77.2484 104.93ZM103.957 100.595C99.8061 101.092 98.3772 105.48 99.5323 109.07C101.305 114.578 110.493 113.918 111.109 107.747C111.59 102.922 108.836 100.011 103.957 100.595Z" fill="#50024A"/>
<path d="M70.3601 34.8864C70.3733 34.8789 70.3555 34.713 70.4745 34.6145C71.0446 34.1476 71.4768 33.6404 72.0112 33.1904C87.3356 20.2783 110.215 30.5455 111.252 50.3505C111.805 60.9121 110.836 71.9331 111.258 82.5425C110.497 90.9739 98.6462 91.1764 97.5727 82.8275C97.0693 72.3822 98.26 61.2805 97.5849 50.9121C96.758 38.2269 77.8231 37.9766 76.9165 51.4831L76.9277 82.9709C75.9377 90.4086 65.6311 91.1596 63.4897 84.0051C62.9328 72.9334 63.3969 61.7437 63.2525 50.629C61.5949 37.6925 43.4691 38.4651 42.586 51.6256L42.5972 82.9709C41.5912 90.8136 30.3724 91.0527 29.0608 83.2494C29.5539 72.2622 28.3998 60.6946 29.0533 49.7739C30.1586 31.2965 52.7322 20.629 67.4462 32.3363C68.1841 32.9232 69.5088 34.4955 70.0817 34.8292C70.1698 34.8808 70.257 34.9492 70.3611 34.8874L70.3601 34.8864Z" fill="#FC8F03"/>
<path d="M104.81 102.87C106.411 102.681 107.542 103.579 107.912 105.107C108.535 107.67 107.662 111.023 104.377 110.351C101.53 109.769 101.358 103.277 104.81 102.87V102.87Z" fill="#50024A"/>
<path d="M69.5145 105.54H63.816C64.0944 101.812 69.5304 101.549 69.5145 105.54Z" fill="#50024A"/>
<path d="M56.4092 105.54H50.7108C51.0295 101.831 56.5639 101.494 56.4092 105.54Z" fill="#50024A"/>
</g>
</g>
<defs>
<clipPath id="clip0_3610_803">
<rect width="140" height="140" rx="30" fill="white"/>
</clipPath>
<clipPath id="clip1_3610_803">
<rect width="146.043" height="144.997" fill="white" transform="translate(-3 -2)"/>
</clipPath>
</defs>
</svg>
