<svg width="140" height="140" viewBox="0 0 140 140" fill="none" xmlns="http://www.w3.org/2000/svg">
<rect width="140" height="140" rx="30" fill="white"/>
<path d="M50.39 55.3707C50.4228 55.256 50.4228 55.1413 50.39 55.0266C50.4181 54.7714 50.4813 54.5115 50.3034 54.2798C49.6643 53.4394 49.0978 52.5428 48.4165 51.7351C48.4212 51.6859 48.4001 51.6555 48.3533 51.6391C47.9811 51.0164 47.5269 50.4499 47.1009 49.8646C46.6538 49.2513 46.2488 48.6028 45.7384 48.0363H45.7431C45.2187 47.217 44.6498 46.4327 44.0342 45.6813C43.999 45.5502 43.9335 45.4378 43.8094 45.3676C43.7532 45.2716 43.7064 45.1686 43.6432 45.0796C43.1305 44.3656 42.6202 43.6516 42.0958 42.947C41.9413 42.741 41.9717 42.6403 42.2012 42.5279C42.5172 42.3711 42.8566 42.2587 43.1376 42.0363C43.1727 42.0199 43.2054 42.0059 43.2406 41.9895C43.3085 41.9942 43.36 41.9684 43.3927 41.9076C43.5121 41.9076 43.6058 41.8514 43.6877 41.7694C44.2308 41.5541 44.7552 41.3012 45.2538 40.9922C45.3966 40.9852 45.5043 40.9033 45.6167 40.8284C46.0334 40.6458 46.4594 40.4795 46.8363 40.215C47.047 40.1822 47.2179 40.0628 47.3959 39.9575C47.9038 39.7351 48.4118 39.5104 48.88 39.2107C49.0509 39.192 49.1891 39.1077 49.3155 38.9977C49.7158 38.8643 50.088 38.6723 50.4415 38.4429C50.7201 38.3609 50.9753 38.2298 51.2164 38.066C51.5816 37.9442 51.921 37.7687 52.2464 37.5603C52.4875 37.4877 52.7099 37.373 52.9206 37.2373C53.4169 37.0219 53.9202 36.8229 54.3674 36.5092H54.365C54.4634 36.5092 54.5453 36.4764 54.5991 36.3921C54.6389 36.3781 54.6787 36.3641 54.7185 36.35C55.1329 36.1604 55.58 36.0316 55.9382 35.7343C56.0388 35.7226 56.1372 35.6992 56.2144 35.6243C56.3806 36.3126 56.5211 37.0008 56.8465 37.6493C57.516 38.979 58.4501 40.0558 59.7002 40.8611C60.4189 41.3246 61.2008 41.6524 62.0154 41.9122C62.383 42.1065 62.7833 42.1183 63.1836 42.1183C63.8157 42.1183 64.4501 42.1183 65.0822 42.1206C65.1594 42.1136 65.2343 42.1065 65.3116 42.0995C65.4029 42.0433 65.5035 42.0293 65.6089 42.0363C65.644 42.0831 65.6698 42.0738 65.6932 42.0246C66.6436 41.7858 67.566 41.4768 68.4275 40.9993L68.9659 41.6688C68.9799 41.7671 69.0478 41.8303 69.1181 41.8888C69.6939 42.7058 70.2722 43.5205 70.8879 44.3914C71.658 43.2771 72.454 42.2915 73.1329 41.224L73.1305 41.2287C73.9148 40.2501 74.6405 39.2271 75.3381 38.1877C75.3732 38.176 75.3896 38.1502 75.3849 38.1128C76.2488 37.0102 77.0705 35.8795 77.8477 34.7136C78.049 34.524 78.2035 34.2969 78.3299 34.0511C78.667 33.7094 78.9011 33.2903 79.1891 32.9111C79.3061 32.7566 79.4115 32.6114 79.6362 32.6863C79.7837 32.8127 79.9499 32.897 80.1395 32.9345C80.1629 32.9836 80.1817 33.0726 80.2144 33.0773C80.692 33.1709 81.0736 33.4893 81.5324 33.6227C81.7408 33.7679 81.9632 33.8873 82.2113 33.9528C82.5999 34.215 83.026 34.3976 83.4567 34.5755C83.5527 34.6458 83.644 34.7207 83.7704 34.7183C84.3135 35.0578 84.8964 35.3129 85.4794 35.5751C85.5145 35.5868 85.5472 35.5985 85.5824 35.6103C85.6058 35.6383 85.6222 35.6735 85.6502 35.6945C86.1419 36.0855 86.8161 36.13 87.289 36.556C87.3639 36.6239 87.4247 36.563 87.4903 36.563C87.5511 36.5865 87.612 36.6122 87.6752 36.6356C87.825 36.7831 88.0264 36.844 88.2066 36.9329C91.9358 38.7706 95.6674 40.606 99.399 42.4437C99.5441 42.5162 99.722 42.5467 99.811 42.7175C99.4435 43.3215 98.9495 43.8389 98.6124 44.4639L98.6147 44.4616C98.5539 44.4803 98.5211 44.5178 98.5188 44.5833L98.5117 44.595C98.0108 45.1639 97.6011 45.8053 97.1563 46.4163C96.7677 46.9548 96.3369 47.4651 96.0115 48.048C95.9483 48.0644 95.9226 48.1065 95.9202 48.1698C95.2531 49.0008 94.6327 49.8623 94.0474 50.7519C93.9772 50.8104 93.9117 50.8736 93.8976 50.9696C93.0291 52.0582 92.2238 53.1936 91.4442 54.3477L91.4349 54.3617C91.3927 54.3734 91.3576 54.3851 91.3857 54.4413C91.2944 54.638 91.3366 54.8463 91.3366 55.0476C91.3366 62.6465 91.3366 70.2431 91.3342 77.842C91.3342 78.048 91.3202 78.2517 91.3108 78.4577C91.175 78.5162 91.0346 78.5677 90.9011 78.6333C87.8578 80.1292 84.8168 81.6274 81.7735 83.1257C80.287 83.8561 78.8005 84.5865 77.3139 85.3169C76.1083 85.9115 74.905 86.5131 73.6947 87.0984C72.8824 87.4917 72.0654 87.8756 71.2811 88.325C70.8832 88.6036 70.5648 88.2853 70.2183 88.1822C69.9327 87.9903 69.6237 87.8522 69.303 87.7304C69.104 87.604 68.9027 87.4753 68.6639 87.4284C68.2168 87.1803 67.7743 86.9158 67.2874 86.7472C67.2406 86.6676 67.1633 86.6536 67.0814 86.6489C66.5383 86.3094 65.9554 86.0426 65.3678 85.7921C65.2577 85.7382 65.1688 85.6399 65.033 85.6493C64.5812 85.3309 64.0708 85.1272 63.5699 84.9025C63.5324 84.8908 63.4973 84.8767 63.4598 84.865C63.4388 84.8206 63.4083 84.7901 63.3545 84.7971C63.2843 84.7644 63.214 84.7316 63.1461 84.6988C62.6358 84.4085 62.1138 84.144 61.566 83.9286C61.5191 83.8561 61.4442 83.842 61.367 83.8373C60.8403 83.4838 60.2503 83.2521 59.6838 82.9735C56.7435 81.5151 53.7938 80.0683 50.8465 78.6263C50.5773 78.4952 50.3596 78.3617 50.397 78.0199C50.4321 77.8678 50.4345 77.7156 50.397 77.5634C50.4064 77.3972 50.4228 77.2287 50.4228 77.0625C50.4228 69.9973 50.4228 62.9298 50.4228 55.8646C50.4228 55.6984 50.4064 55.5299 50.397 55.3637L50.39 55.3707ZM61.2546 70.3859C61.2874 70.3602 61.2921 70.3297 61.271 70.2946C61.4911 69.597 61.7088 69.4682 62.376 69.7234C63.9749 70.3344 64.216 71.114 64.209 72.2751C64.2043 73.0593 64.209 73.8459 64.209 74.6302C64.209 75.4144 64.209 76.201 64.209 76.9852C64.209 77.1725 64.1902 77.3668 64.4103 77.4604C65.0728 77.7437 65.6744 78.1557 66.3674 78.3664C66.4563 78.4351 66.5211 78.4335 66.5617 78.3617C66.571 78.2142 66.5898 78.0644 66.5898 77.9169C66.5898 76.311 66.5827 74.7027 66.5921 73.0968C66.5991 71.9005 66.1988 70.8658 65.4029 69.9809C64.4969 68.9766 63.3873 68.265 62.1255 67.7921C61.6549 67.6165 61.1563 67.5182 60.6506 67.5931C60.3206 67.6423 60.1099 67.5533 59.8875 67.2911C58.93 66.1604 57.6893 65.4581 56.2917 65.0156C55.9686 64.9126 55.6339 64.8869 55.2967 64.8635C54.4095 64.8003 53.7868 65.4604 53.7868 66.2798C53.7868 67.9044 53.7728 69.5291 53.7681 71.1538C53.7681 71.5073 53.6815 71.9122 53.8219 72.2025C53.9788 72.5209 54.4353 72.5841 54.7677 72.7433C55.182 72.9399 55.5683 73.2045 56.0248 73.3051C56.1208 73.1015 56.0833 72.9119 56.0833 72.7269C56.088 71.3083 56.0833 69.8873 56.088 68.4686C56.088 68.2088 56.1091 67.9466 56.1325 67.6867C56.1559 67.4316 56.2683 67.2232 56.4977 67.0921C56.5539 67.1038 56.6054 67.0921 56.6428 67.0453C56.6967 67.0593 56.7505 67.0757 56.8044 67.0874C58.3916 67.4643 59.026 68.2696 59.0283 69.9037C59.0283 71.1748 59.0236 72.446 59.033 73.7148C59.0353 74.0847 58.8879 74.5248 59.1102 74.8057C59.3092 75.0586 59.7072 75.1639 60.0279 75.3114C60.4259 75.494 60.8005 75.7328 61.2523 75.8615V70.3812L61.2546 70.3859ZM72.3838 45.1499C72.0467 44.9907 71.6932 44.8572 71.3724 44.6676C71.0307 44.4663 70.7404 44.478 70.3799 44.6559C68.3362 45.6696 66.3065 46.709 64.2441 47.6875C61.6924 48.8978 59.1945 50.2158 56.6428 51.4261C54.9198 52.2431 53.2226 53.1163 51.516 53.9731C51.2023 54.13 50.9027 54.3196 50.6007 54.4928C50.6733 54.7012 50.8254 54.748 50.9846 54.8159C51.8999 55.1904 52.8036 55.5954 53.6861 56.0449C54.1145 56.2626 54.5336 56.5014 54.9667 56.7144C55.5589 57.0071 56.1606 57.2833 56.7552 57.5712C58.2651 58.3063 59.7774 59.0391 61.285 59.7811C64.1856 61.2068 67.0837 62.6372 69.9819 64.0675C70.9042 64.5217 70.9066 64.531 71.8383 64.0722C74.6077 62.7097 77.3514 61.2981 80.1395 59.9755C81.2538 59.4464 82.3447 58.8705 83.4544 58.3344C84.8168 57.6789 86.1512 56.9673 87.5348 56.3516C88.5016 55.9208 89.431 55.3988 90.3908 54.9446C90.6553 54.8206 90.9714 54.7129 91.1867 54.4296C90.5172 54.0433 89.843 53.7718 89.1898 53.4511C87.2257 52.4866 85.2687 51.5033 83.3092 50.5295C83.1266 50.4382 82.9534 50.3211 82.7451 50.286C82.8387 50.1479 82.93 50.0074 83.0307 49.874C83.6651 49.0125 84.0115 48.041 84.0958 46.9852C84.2152 45.508 83.7493 44.1924 82.8176 43.0664C81.9632 42.0363 80.884 41.3808 79.5379 41.0812C78.4048 40.8307 77.3303 40.8401 76.2511 41.2006C74.2917 41.8537 72.9784 43.153 72.3814 45.1475L72.3838 45.1499Z" fill="#F8401D"/>
<path d="M65.6045 42.041C65.4991 42.0339 65.3985 42.0503 65.3072 42.1042C65.2252 42.0597 65.1503 42.0854 65.0778 42.1276C64.4457 42.1276 63.8113 42.1276 63.1792 42.1252C62.7953 42.0222 62.4067 41.9426 62.0087 41.9192C61.1964 41.6594 60.4145 41.3316 59.6935 40.8681C58.4434 40.0628 57.5093 38.986 56.8398 37.6563C56.5144 37.0101 56.3739 36.3195 56.2077 35.6313C56.1398 34.9196 56.1421 34.2056 56.2124 33.494C56.2943 33.3558 56.2756 33.1966 56.299 33.0468C56.4441 32.5973 56.5869 32.1455 56.7321 31.6961C56.8093 31.6399 56.8304 31.5556 56.8351 31.4666C56.917 31.4151 56.9428 31.3332 56.9498 31.2442C57.3431 30.6075 57.7855 30.0105 58.2678 29.4393C58.3099 29.3972 58.3521 29.3551 58.3942 29.3153C59.0099 28.7558 59.7005 28.2969 60.4121 27.8709L60.4215 27.8662C60.5128 27.8685 60.5877 27.8404 60.6369 27.7608C60.6814 27.7444 60.7282 27.7281 60.7727 27.7117C60.8218 27.721 60.8476 27.6929 60.864 27.6508L60.8686 27.6485C61.0466 27.6368 61.2011 27.5735 61.3345 27.4588C61.3696 27.4588 61.4024 27.4518 61.4328 27.4307C61.6856 27.4214 61.9197 27.3535 62.1351 27.2177C62.4371 27.2388 62.7133 27.0913 63.0107 27.0796C63.1137 27.096 63.2096 27.0819 63.2846 27C64.0805 27.0117 64.8788 26.9742 65.67 27.1053C65.7028 27.1522 65.745 27.1779 65.8058 27.1662C65.9205 27.1826 66.0352 27.2013 66.1499 27.2177C66.356 27.3512 66.5947 27.3792 66.8288 27.4261H66.8335C66.8874 27.4986 66.9576 27.5291 67.0466 27.515C67.1964 27.5665 67.3439 27.618 67.4937 27.6695C68.2779 28.1026 69.0411 28.5685 69.7387 29.1373C69.823 29.2684 69.926 29.3808 70.0641 29.4557C70.4738 30.0176 70.8835 30.5794 71.2908 31.1389C71.4219 31.4339 71.553 31.7312 71.6841 32.0261C71.7052 32.2298 71.7567 32.4218 71.8807 32.5903C71.8878 32.6278 71.8948 32.6652 71.9041 32.7004C71.9463 32.8876 71.9861 33.0749 72.0282 33.2622C72.1499 33.8943 72.0984 34.5334 72.1289 35.1701C72.0984 35.3949 72.068 35.6196 72.0399 35.8443C71.9861 36.1065 71.9299 36.3664 71.8761 36.6286C71.745 36.7924 71.7403 37.0031 71.6771 37.1927C71.5553 37.3917 71.4711 37.6071 71.4149 37.8342C70.9841 38.5576 70.3895 39.1615 69.9424 39.8732C69.8019 39.9949 69.6638 40.119 69.5233 40.2407C69.4016 40.2243 69.2939 40.2712 69.2284 40.3648C69.02 40.6574 68.6993 40.8096 68.4231 41.0133C67.5639 41.4908 66.6392 41.7998 65.6911 42.0386C65.6607 42.0222 65.6326 42.0269 65.6068 42.0503L65.6045 42.041Z" fill="#60C9F8"/>
<path d="M82.7474 50.2907C82.9557 50.3258 83.129 50.4429 83.3116 50.5342C85.271 51.508 87.2281 52.4913 89.1922 53.4558C89.8453 53.7765 90.5195 54.048 91.1891 54.4343C90.9737 54.7176 90.66 54.8252 90.3931 54.9493C89.4333 55.4011 88.5039 55.9255 87.5371 56.3563C86.1536 56.972 84.8192 57.6836 83.4567 58.3391C82.3447 58.8752 81.2562 59.4511 80.1419 59.9801C77.3537 61.3028 74.6077 62.7144 71.8406 64.0769C70.9066 64.5357 70.9066 64.5287 69.9842 64.0722C67.0861 62.6419 64.1879 61.2115 61.2874 59.7858C59.7798 59.0437 58.2675 58.311 56.7575 57.5759C56.1629 57.288 55.5613 57.0117 54.969 56.7191C54.5383 56.5061 54.1192 56.2673 53.6885 56.0496C52.8059 55.6001 51.9023 55.1951 50.987 54.8206C50.8254 54.755 50.6756 54.7059 50.603 54.4975C50.905 54.3243 51.2047 54.1346 51.5184 53.9778C53.225 53.1233 54.9222 52.2501 56.6452 51.4308C59.1969 50.2205 61.6947 48.9002 64.2464 47.6922C66.3088 46.7137 68.3385 45.6743 70.3822 44.6606C70.7427 44.4827 71.0307 44.471 71.3748 44.6723C71.6955 44.8596 72.0467 44.9954 72.3861 45.1545C72.1286 46.1518 72.1145 47.1491 72.4095 48.1417C73.0673 50.3563 75.0361 51.9692 77.3724 52.2525C78.9292 52.4421 80.3385 52.0839 81.6378 51.2295C82.0451 50.9602 82.3728 50.5974 82.7497 50.2931L82.7474 50.2907ZM67.9522 57.9645C69.8976 57.9528 71.5059 56.478 71.4825 54.5139C71.4591 52.5006 70.0451 50.9883 67.9335 51.0117C65.8406 51.0352 64.5437 52.6856 64.5133 54.4366C64.4782 56.471 66.1988 58.016 67.9522 57.9622V57.9645Z" fill="#AF1B2E"/>
<path d="M82.7471 50.2907C82.3726 50.5974 82.0448 50.9602 81.6351 51.2271C80.3359 52.0816 78.9266 52.4398 77.3698 52.2501C75.0335 51.9669 73.0647 50.3516 72.4069 48.1393C72.1119 47.1467 72.126 46.1495 72.3835 45.1522C72.9804 43.16 74.2937 41.8607 76.2532 41.2053C77.3324 40.8447 78.4069 40.8354 79.5399 41.0859C80.886 41.3855 81.9652 42.0387 82.8197 43.071C83.7537 44.1971 84.2173 45.5127 84.0979 46.9899C84.0136 48.0457 83.6671 49.0172 83.0327 49.8787C82.9344 50.0121 82.8431 50.1526 82.7471 50.2907Z" fill="#60C9F8"/>
<path d="M62.0107 41.9169C62.4087 41.9427 62.7973 42.0223 63.1812 42.1229C62.7786 42.1229 62.3783 42.1089 62.0107 41.9169Z" fill="#AF1B2E"/>
<path d="M65.0776 42.1276C65.1502 42.0855 65.2251 42.0597 65.3071 42.1042C65.2298 42.1112 65.1549 42.1182 65.0776 42.1276Z" fill="#AF1B2E"/>
<path d="M65.604 42.041C65.6298 42.0176 65.6578 42.0129 65.6883 42.0293C65.6672 42.0785 65.6391 42.0878 65.604 42.041Z" fill="#AF1B2E"/>
<path d="M67.9522 57.9622C66.1987 58.016 64.4781 56.471 64.5132 54.4366C64.5437 52.6856 65.8406 51.0352 67.9334 51.0117C70.045 50.9883 71.459 52.4983 71.4824 54.5139C71.5058 56.4757 69.8975 57.9505 67.9522 57.9645V57.9622Z" fill="#60C9F8"/>
<path d="M29.4976 99.7289C29.7556 99.8843 30.0151 100.04 30.2731 100.195C30.4708 100.37 30.6414 100.396 30.7849 100.273C30.9446 100.195 31.0928 100.098 31.2268 99.9812C31.3979 99.9142 31.5604 99.8301 31.7058 99.7175C32.0879 99.5707 32.4714 99.4281 32.8492 99.2713C32.9262 99.2399 33.006 99.2556 33.0773 99.2185C33.1329 99.2285 33.1871 99.2371 33.2184 99.1729C33.4522 99.1914 33.6732 99.123 33.8984 99.0817C33.9284 99.0874 33.9583 99.0916 33.9882 99.0974C34.4872 99.0916 34.9876 99.0859 35.4866 99.0788C35.5921 99.0788 35.699 99.0788 35.8045 99.0774C35.8358 99.0874 35.8672 99.0959 35.8986 99.1059C36.0554 99.1914 36.2279 99.1629 36.3947 99.1686C36.4531 99.1743 36.5116 99.18 36.57 99.1857C36.6384 99.2542 36.724 99.2399 36.8067 99.2356C37.3099 99.334 37.7946 99.4965 38.2836 99.6448C38.3934 99.7588 38.5416 99.793 38.6842 99.8387C39.0577 100.064 39.4227 100.302 39.7563 100.584C39.7762 100.636 39.8119 100.673 39.8646 100.691C39.8817 100.707 39.8988 100.724 39.9159 100.74C39.9202 100.778 39.9416 100.801 39.9801 100.81C40.1782 101.097 40.4035 101.368 40.5475 101.692C40.5974 101.806 40.6615 101.913 40.6786 102.04C40.6644 102.087 40.69 102.107 40.7314 102.115C40.7242 102.249 40.7798 102.361 40.8568 102.463L40.8483 102.493L40.8711 102.516C40.8326 102.668 40.9138 102.803 40.9409 102.945C41.0136 103.314 41.0279 103.689 41.0279 104.064C41.0293 106.995 41.0293 109.926 41.0279 112.857C41.0279 112.946 41.0507 113.04 40.9923 113.122C39.7092 113.122 38.4247 113.12 37.1417 113.118C37.0946 112.997 37.1175 112.87 37.1175 112.748C37.116 110.076 37.1175 107.406 37.116 104.734C37.116 104.53 37.1089 104.325 37.1046 104.121C37.1103 104.115 37.1217 104.107 37.1203 104.103C37.116 104.087 37.1075 104.071 37.1003 104.056C37.0761 103.617 36.9578 103.202 36.7454 102.818C36.6769 102.693 36.59 102.569 36.446 102.507C36.3562 102.391 36.2336 102.324 36.0924 102.289C35.9356 102.229 35.7831 102.158 35.6077 102.174C35.5835 102.101 35.5293 102.098 35.4666 102.113L35.4495 102.098C35.391 102.051 35.324 102.043 35.2528 102.063C34.9135 102.027 34.5756 102.027 34.2363 102.06C34.1451 102.04 34.061 102.055 33.9825 102.104C33.8001 102.104 33.6333 102.16 33.4793 102.255C33.4209 102.241 33.3752 102.258 33.3453 102.309L33.341 102.312C33.1714 102.352 33.0359 102.445 32.9304 102.583C32.862 102.609 32.8164 102.656 32.7964 102.726C32.7594 102.733 32.7394 102.754 32.7423 102.793L32.7337 102.807C32.7066 102.811 32.6966 102.825 32.7009 102.851C32.6425 102.908 32.594 102.971 32.5911 103.058C32.5584 103.071 32.5413 103.092 32.5498 103.128C32.5398 103.148 32.5298 103.169 32.5213 103.189C32.48 103.199 32.4543 103.219 32.47 103.267C32.4628 103.33 32.4571 103.391 32.45 103.454C32.4172 103.474 32.4058 103.501 32.4187 103.538C32.3745 103.651 32.3303 103.753 32.3303 103.887C32.3317 106.841 32.3246 109.795 32.3174 112.749C32.3174 112.873 32.3417 112.998 32.2918 113.12C31.0814 113.12 29.8697 113.12 28.6579 113.12C28.608 112.998 28.6322 112.872 28.6322 112.749C28.6308 110.008 28.6308 107.266 28.6322 104.526C28.6322 104.096 28.6109 103.668 28.4469 103.262C28.4626 103.232 28.4469 103.216 28.4227 103.203C28.3428 103.099 28.3685 102.946 28.2602 102.857C28.2659 102.822 28.2473 102.805 28.216 102.8L28.2117 102.793C28.2117 102.753 28.1917 102.727 28.1532 102.717C28.0905 102.592 27.9936 102.505 27.8653 102.449C27.8596 102.419 27.8453 102.402 27.8111 102.408C27.7883 102.398 27.7669 102.386 27.7441 102.376C27.7327 102.339 27.7113 102.322 27.6714 102.333C27.6001 102.304 27.5288 102.274 27.459 102.244C27.4034 102.185 27.3378 102.165 27.2594 102.187C27.2152 102.182 27.171 102.178 27.1254 102.174C27.0997 102.104 27.0455 102.103 26.9857 102.115L26.9643 102.103C26.8844 102.053 26.7989 102.038 26.7077 102.058C26.3898 102.027 26.0704 102.028 25.7525 102.055C25.6613 102.038 25.5743 102.044 25.4945 102.098L25.4774 102.113C25.3819 102.117 25.2778 102.081 25.2037 102.174C25.0454 102.162 24.9185 102.238 24.7945 102.319C24.7389 102.312 24.7047 102.341 24.6762 102.385L24.6576 102.393C24.6177 102.388 24.5949 102.406 24.5864 102.445C24.5322 102.445 24.5023 102.477 24.4794 102.522H24.4595L24.4552 102.542C24.4238 102.542 24.4082 102.557 24.4082 102.589H24.3896L24.3882 102.609C24.3568 102.609 24.3412 102.626 24.3412 102.656L24.3226 102.66V102.678C24.2784 102.701 24.2456 102.733 24.2442 102.787C24.1687 102.841 24.1287 102.917 24.1145 103.006C24.0888 103.048 24.0632 103.088 24.0375 103.129L24.0404 103.128C23.999 103.135 23.9719 103.15 23.989 103.199C23.9833 103.243 23.9776 103.286 23.9719 103.33C23.932 103.339 23.9021 103.354 23.9249 103.403C23.885 103.599 23.9334 103.819 23.7723 103.983C23.8565 104.036 23.8365 104.12 23.8365 104.197C23.8351 107.092 23.8336 109.988 23.8322 112.883C23.8322 112.961 23.845 113.043 23.8066 113.117C22.5492 113.117 21.2904 113.117 20.0315 113.118C19.9817 113.01 20.0059 112.893 20.0059 112.782C20.0045 109.948 20.0059 107.112 20.003 104.278C20.003 103.698 20.0372 103.123 20.1584 102.556C20.2012 102.352 20.2839 102.157 20.348 101.957L20.3694 101.941L20.3623 101.917C20.4307 101.835 20.4749 101.74 20.4906 101.634C20.569 101.558 20.616 101.465 20.6417 101.361C20.8869 101.02 21.1578 100.701 21.46 100.41L21.4771 100.416L21.4814 100.396H21.5013L21.5085 100.376C21.6924 100.246 21.8749 100.118 22.0588 99.9884C22.1928 99.9427 22.3154 99.8757 22.4266 99.7873L22.4365 99.7987L22.4437 99.7802C22.4907 99.7774 22.5292 99.7574 22.5606 99.7218L22.5748 99.7303L22.5834 99.7118C22.9997 99.5692 23.406 99.3939 23.8379 99.2927C23.8949 99.3041 23.9505 99.3098 23.9762 99.2399C24.1986 99.2741 24.4025 99.1544 24.622 99.1686C24.7475 99.1686 24.8772 99.1957 24.9912 99.1145C25.0639 99.1031 25.1366 99.0902 25.2094 99.0788C25.3163 99.0788 25.4232 99.0788 25.5301 99.0802C26.0519 99.0859 26.5737 99.0916 27.0954 99.0974C27.1254 99.0916 27.1553 99.0859 27.1852 99.0802C27.2152 99.0888 27.2451 99.0988 27.2736 99.1073C27.3863 99.1886 27.516 99.1658 27.6414 99.1629C27.9095 99.1715 28.1518 99.3269 28.4255 99.3041C28.4897 99.3483 28.5068 99.4694 28.6251 99.4281C28.6964 99.4324 28.7662 99.4366 28.8375 99.4409C28.8489 99.4652 28.8646 99.4794 28.8931 99.468C28.886 99.4894 28.8931 99.5022 28.9145 99.5079C28.9031 99.5521 28.9188 99.5721 28.9658 99.5607C29.0357 99.5664 29.107 99.5721 29.1768 99.5778C29.1882 99.6049 29.2068 99.622 29.2395 99.6163L29.2467 99.6377L29.2695 99.6391C29.2894 99.6947 29.3365 99.6647 29.3707 99.6719C29.3721 99.6975 29.385 99.7089 29.4106 99.7075C29.4306 99.7489 29.4619 99.736 29.4933 99.7246L29.4976 99.7289Z" fill="#222222"/>
<path d="M92.0406 113.323C92.0163 113.319 91.9907 113.316 91.9664 113.312C91.908 113.264 91.8424 113.244 91.7669 113.256C91.7426 113.252 91.7184 113.248 91.6927 113.244C91.6357 113.191 91.5687 113.168 91.4917 113.188C91.352 113.138 91.2137 113.088 91.074 113.038C91.0412 112.994 90.9999 112.973 90.9443 112.98L90.9243 112.974C90.8944 112.939 90.8616 112.909 90.8103 112.92C90.6078 112.82 90.4054 112.722 90.203 112.622C90.1488 112.551 90.0761 112.509 89.9891 112.491L89.9848 112.488C89.9763 112.452 89.9549 112.435 89.9164 112.44L89.895 112.428C89.8708 112.384 89.8366 112.354 89.7824 112.354L89.7796 112.353C89.6798 112.246 89.5657 112.157 89.436 112.092C89.436 112.092 89.426 112.083 89.426 112.085C89.4203 112.052 89.4032 112.033 89.3676 112.033L89.3647 112.016L89.3476 112.018C89.3447 111.988 89.3291 111.972 89.2991 111.973L89.2934 111.953H89.2735C89.2521 111.909 89.2221 111.875 89.1708 111.866C89.0582 111.718 88.927 111.59 88.7845 111.47C88.7218 111.365 88.6533 111.266 88.5493 111.195C88.4851 111.062 88.3996 110.947 88.2955 110.844V110.817L88.2713 110.806L88.2613 110.787C88.2641 110.749 88.2456 110.726 88.2085 110.715C88.0432 110.395 87.8778 110.077 87.7124 109.758C87.7253 109.701 87.6996 109.661 87.6583 109.627C87.6041 109.464 87.5485 109.303 87.4943 109.141C87.5057 109.104 87.4915 109.079 87.4601 109.062C87.4287 108.93 87.3959 108.797 87.3646 108.665C87.3817 108.62 87.3475 108.609 87.319 108.596C87.3475 108.342 87.2605 108.1 87.2334 107.852C87.1294 106.918 87.1536 105.99 87.2962 105.062C87.3646 104.616 87.4972 104.187 87.5927 103.749C87.6183 103.736 87.6326 103.718 87.6183 103.688C87.9348 102.842 88.3311 102.043 88.927 101.354C89.0083 101.26 89.0839 101.163 89.1637 101.067C89.1979 101.065 89.2164 101.046 89.2179 101.012L89.2307 100.999C89.2635 100.996 89.282 100.978 89.2863 100.943L89.2991 100.931C89.3348 100.928 89.3533 100.909 89.3561 100.875L89.3676 100.864C89.4032 100.861 89.4217 100.842 89.4246 100.808C89.8594 100.446 90.3199 100.119 90.8088 99.8343C90.8616 99.84 90.9257 99.8785 90.9429 99.7859C90.9685 99.7659 90.9942 99.7445 91.0213 99.7246C91.5259 99.5335 92.0249 99.3268 92.5566 99.2099C92.6678 99.1857 92.7762 99.1857 92.8845 99.1686C92.99 99.1714 93.0984 99.1914 93.1896 99.1158C93.2395 99.1044 93.2894 99.0945 93.3393 99.0831C93.4263 99.0831 93.5132 99.0845 93.6002 99.0859C94.0407 99.0859 94.4812 99.0859 94.9217 99.0859C95.0073 99.0845 95.0914 99.0816 95.1769 99.0802C95.2297 99.0916 95.2824 99.1016 95.3337 99.113C95.4478 99.1928 95.5775 99.17 95.7044 99.1686C96.0693 99.2156 96.4143 99.324 96.7665 99.4309C97.2041 99.5649 97.6404 99.6875 98.0452 99.9099C98.5285 100.176 98.9576 100.512 99.3639 100.881C99.3853 100.916 99.3383 100.989 99.4252 100.986C99.9128 101.491 100.276 102.067 100.529 102.725C100.705 103.187 100.889 103.645 100.981 104.13C101.106 104.798 101.179 105.474 101.179 106.154C101.182 108.395 101.179 110.638 101.179 112.879C101.179 112.957 101.192 113.038 101.154 113.114C100.018 113.117 98.8821 113.118 97.7459 113.121C97.6874 112.74 97.7345 112.358 97.7202 111.978C97.7131 111.809 97.7102 111.641 97.7045 111.473C97.7245 111.383 97.7287 111.295 97.696 111.181C97.5862 111.276 97.5277 111.362 97.4964 111.467C97.4565 111.479 97.4408 111.507 97.4393 111.547C97.4051 111.556 97.3866 111.576 97.388 111.611L97.3766 111.628C97.2754 111.727 97.177 111.827 97.1115 111.953L97.1001 111.968C97.0673 111.971 97.0502 111.989 97.0502 112.022L97.0316 112.025V112.043C97.0017 112.046 96.986 112.06 96.986 112.09L96.9646 112.095L96.9618 112.116C96.9347 112.116 96.9204 112.13 96.919 112.159L96.8976 112.163L96.8933 112.184C96.8663 112.184 96.852 112.199 96.8506 112.227L96.8292 112.231L96.8249 112.253C96.7964 112.253 96.7821 112.267 96.7807 112.296H96.7608L96.7565 112.317C96.7251 112.317 96.7094 112.333 96.7066 112.364H96.6895L96.688 112.38C96.6538 112.38 96.6353 112.398 96.631 112.431L96.6182 112.441C96.5797 112.441 96.5597 112.46 96.554 112.497L96.5483 112.501C96.5084 112.502 96.4842 112.522 96.4771 112.561C96.4243 112.564 96.3901 112.595 96.3673 112.639L96.3502 112.636C96.3502 112.636 96.3445 112.653 96.3459 112.653C96.3088 112.649 96.2903 112.668 96.2818 112.702C95.8469 112.961 95.3793 113.151 94.9075 113.329C94.8291 113.313 94.7578 113.328 94.6979 113.382C94.6765 113.386 94.6551 113.389 94.6338 113.393C94.5397 113.399 94.437 113.365 94.3615 113.455C94.3258 113.457 94.2902 113.459 94.2545 113.462C93.8625 113.462 93.4705 113.462 93.077 113.462C93.0214 113.459 92.9658 113.456 92.9102 113.453C92.7847 113.409 92.6564 113.385 92.521 113.399C92.474 113.399 92.4269 113.396 92.3799 113.395C92.3556 113.392 92.33 113.389 92.3057 113.386C92.2245 113.333 92.1347 113.316 92.0391 113.329L92.0406 113.323ZM92.3285 102.792L92.3129 102.805C92.2758 102.805 92.2573 102.824 92.253 102.859L92.2444 102.867C92.1318 102.931 92.042 103.018 91.9835 103.135C91.8353 103.259 91.7298 103.42 91.6485 103.589C91.4988 103.903 91.2707 104.192 91.2864 104.567L91.2636 104.59L91.2722 104.62C91.1039 104.871 91.1467 105.165 91.1225 105.44C91.0426 106.321 91.0412 107.2 91.3092 108.059C91.4703 108.573 91.7298 109.034 92.119 109.409C92.4825 109.759 92.9002 110.01 93.4248 110.03C93.5261 110.074 93.6315 110.1 93.7427 110.082C94.0207 110.116 94.2987 110.137 94.5767 110.073C94.6266 110.087 94.6651 110.067 94.6993 110.035C94.7578 110.04 94.812 110.03 94.8561 109.989L94.8861 109.993L94.9046 109.968C95.4278 109.798 95.8526 109.481 96.2262 109.088L96.2361 109.098V109.079C96.2632 109.079 96.2761 109.067 96.2775 109.039L96.3017 109.034L96.3074 109.01C96.3331 109.01 96.3459 108.995 96.3473 108.97H96.3659L96.3587 108.955C96.4699 108.877 96.5597 108.779 96.6196 108.656C96.6524 108.65 96.6709 108.632 96.6681 108.596L96.688 108.588V108.566L96.7066 108.56L96.6966 108.548C96.718 108.519 96.7379 108.489 96.7593 108.461C96.795 108.451 96.8149 108.429 96.8107 108.389L96.8263 108.384L96.8221 108.367L96.8434 108.358L96.8377 108.338C97.2084 107.811 97.378 107.208 97.4408 106.583C97.5064 105.927 97.4479 105.273 97.284 104.63C97.3011 104.586 97.2669 104.574 97.2383 104.562C97.2569 104.365 97.1557 104.194 97.0915 104.023C96.805 103.257 96.3145 102.673 95.5276 102.375C95.4948 102.328 95.4506 102.308 95.3936 102.323C95.2567 102.298 95.137 102.191 94.9859 102.238C94.9602 102.167 94.906 102.167 94.8462 102.181L94.8219 102.168C94.4698 102.075 94.1177 102.068 93.7656 102.164C93.737 102.171 93.7071 102.177 93.6786 102.184C93.603 102.182 93.5189 102.15 93.4662 102.236C93.4448 102.232 93.4248 102.236 93.4063 102.249C93.3279 102.234 93.258 102.246 93.201 102.308C92.8831 102.375 92.6165 102.537 92.377 102.75C92.3456 102.747 92.3328 102.763 92.33 102.791L92.3285 102.792Z" fill="#222222"/>
<path d="M48.0607 106.754C48.008 107.037 48.1505 107.297 48.1534 107.574C48.0921 107.685 48.1862 107.704 48.2518 107.739C48.2518 107.858 48.2518 107.975 48.3558 108.057C48.3544 108.104 48.333 108.157 48.4014 108.177C48.4114 108.206 48.42 108.234 48.43 108.261C48.4057 108.307 48.4371 108.311 48.4699 108.315L48.4784 108.324C48.4913 108.371 48.4684 108.434 48.5369 108.456C48.5426 108.482 48.5483 108.508 48.5554 108.533C48.5412 108.58 48.5654 108.592 48.6067 108.588C48.6295 108.657 48.6666 108.714 48.7436 108.737C48.7707 108.774 48.735 108.848 48.8149 108.853C48.9189 109.101 49.167 109.193 49.3509 109.353C49.3623 109.389 49.3766 109.42 49.4236 109.403C49.7415 109.551 50.0124 109.802 50.3845 109.832C50.3959 109.856 50.4101 109.871 50.4386 109.854C50.5783 109.962 50.7409 109.982 50.9105 109.976C50.929 110.009 50.9576 110.017 50.9918 110.006C51.1129 110.019 51.2113 110.124 51.3425 110.089H51.4751C51.5264 110.093 51.5777 110.097 51.629 110.102C51.7559 110.149 51.8856 110.171 52.0211 110.154C52.0938 110.166 52.165 110.177 52.2378 110.187C52.4088 110.27 52.5885 110.243 52.7681 110.23C53.4538 110.228 54.1381 110.227 54.8238 110.226C55.0733 110.241 55.3256 110.271 55.5694 110.183C55.6535 110.18 55.7362 110.177 55.8203 110.174C56.0128 110.169 56.2109 110.213 56.3948 110.119C56.4747 110.113 56.5545 110.107 56.6343 110.102C56.7612 110.103 56.8924 110.132 57.0078 110.047C57.0663 110.043 57.1247 110.037 57.1818 110.033C57.2873 110.037 57.3956 110.057 57.4868 109.979C57.7064 109.935 57.9259 109.889 58.1811 109.838C58.1811 110.927 58.1811 112.002 58.1811 113.075C58.1612 113.087 58.1412 113.098 58.1198 113.11C57.9445 113.081 57.7905 113.195 57.6194 113.187C57.5111 113.171 57.4099 113.189 57.3158 113.244C57.2602 113.249 57.2046 113.254 57.1475 113.259C57.0164 113.244 56.8924 113.266 56.7698 113.313C56.7127 113.318 56.6543 113.321 56.5973 113.325C56.4005 113.308 56.2081 113.335 56.017 113.382C55.9572 113.385 55.8987 113.388 55.8388 113.39C55.6564 113.379 55.4725 113.365 55.2943 113.43C55.1617 113.44 55.0277 113.449 54.8951 113.459C54.6442 113.46 54.3933 113.463 54.1424 113.465C53.4424 113.46 52.7424 113.456 52.0424 113.452L52.0225 113.446C52.0225 113.446 52.0011 113.449 52.0025 113.449C51.7673 113.406 51.5307 113.37 51.2897 113.388C51.2327 113.383 51.1757 113.379 51.1187 113.373C51.0003 113.312 50.872 113.306 50.7423 113.319C50.7067 113.315 50.671 113.312 50.6368 113.308C50.5213 113.245 50.3973 113.235 50.269 113.245C49.7216 113.145 49.177 113.038 48.6538 112.837C47.7457 112.487 46.9046 112.023 46.1975 111.349C45.8938 111.06 45.6457 110.716 45.4091 110.365C44.8902 109.6 44.5894 108.737 44.4539 107.845C44.3042 106.858 44.2914 105.849 44.444 104.852C44.4582 104.756 44.5124 104.666 44.4996 104.562C44.5224 104.549 44.5495 104.539 44.5295 104.505C44.5751 104.439 44.5651 104.364 44.5694 104.291C44.5951 104.278 44.6222 104.265 44.6079 104.228C44.6179 104.18 44.6279 104.13 44.6378 104.081C44.6606 104.07 44.6849 104.06 44.6678 104.026C44.7048 103.986 44.7134 103.937 44.7091 103.885C44.7362 103.872 44.7519 103.852 44.7405 103.819C45.0498 103.038 45.4519 102.312 45.9993 101.671C46.072 101.585 46.1404 101.495 46.2103 101.407C46.2445 101.403 46.263 101.384 46.2659 101.35L46.2787 101.337C46.3115 101.333 46.33 101.316 46.3329 101.281L46.3471 101.267C46.3799 101.264 46.3985 101.247 46.4013 101.213L46.4156 101.199C46.4484 101.196 46.4669 101.177 46.4712 101.144L46.4854 101.132C46.5211 101.13 46.5396 101.11 46.5439 101.076L46.5553 101.066C46.5909 101.065 46.6109 101.045 46.6152 101.009C46.772 100.909 46.9074 100.784 47.0386 100.654C47.0771 100.657 47.0956 100.637 47.1027 100.601C47.2367 100.539 47.3493 100.447 47.4563 100.346C47.5461 100.32 47.6216 100.275 47.6801 100.201C48.1006 99.9855 48.5098 99.7488 48.9517 99.5749C49.6146 99.3126 50.3075 99.1771 51.0103 99.0759C51.0958 99.0759 51.18 99.0788 51.2655 99.0802C51.7402 99.0859 52.2149 99.0916 52.6911 99.0973C52.721 99.0916 52.751 99.0859 52.7809 99.0802C52.8308 99.0916 52.8807 99.1016 52.9306 99.113C53.0218 99.19 53.1316 99.1672 53.2357 99.1657C53.7774 99.2484 54.2906 99.4323 54.811 99.5934C54.955 99.6376 55.1032 99.6861 55.2144 99.8172C55.2615 99.8728 55.3527 99.9313 55.4511 99.9199C55.4753 100.001 55.5338 99.9627 55.5822 99.957C55.7419 100.092 55.9401 100.174 56.0855 100.328C56.0912 100.412 56.1354 100.437 56.2123 100.413C56.3349 100.517 56.4661 100.61 56.5645 100.74C56.5559 100.78 56.5616 100.807 56.6129 100.79C57.1361 101.301 57.5382 101.893 57.7905 102.581C57.7549 102.687 57.8276 102.72 57.9031 102.751C57.9074 102.797 57.9003 102.845 57.916 102.887C58.298 103.969 58.3394 105.092 58.3137 106.222C58.3037 106.664 58.3023 106.664 57.8632 106.664C54.7454 106.664 51.6262 106.664 48.5084 106.664C48.3843 106.664 48.2589 106.676 48.1349 106.682C48.0793 106.672 48.0593 106.696 48.0721 106.749L48.0607 106.754ZM49.0344 103.066L49.0159 103.07V103.09L48.9916 103.098V103.122C48.7493 103.384 48.5739 103.685 48.4684 104.026C48.43 104.068 48.4342 104.12 48.4856 104.13C48.5625 104.145 48.6438 104.138 48.7236 104.138C50.5014 104.138 52.2791 104.138 54.0568 104.138C54.1566 104.138 54.2621 104.164 54.3576 104.104L54.3733 104.107L54.3591 104.098C54.4075 103.829 54.3477 103.577 54.2436 103.331C54.2564 103.299 54.2393 103.281 54.2122 103.269C54.1908 103.23 54.1652 103.195 54.1509 103.155C53.9471 102.587 53.5564 102.217 52.9819 102.037C52.9263 101.97 52.855 101.967 52.7781 101.984C52.7339 101.98 52.6897 101.974 52.6441 101.97C52.6198 101.899 52.5642 101.897 52.5043 101.91L52.4844 101.897C52.406 101.843 52.319 101.836 52.2278 101.854C51.9541 101.829 51.6818 101.829 51.4081 101.854C51.3154 101.836 51.227 101.839 51.1457 101.894L51.1315 101.909C51.036 101.914 50.929 101.869 50.8563 101.971C50.6582 101.966 50.4757 102.017 50.3103 102.125C50.2547 102.111 50.2191 102.14 50.1877 102.179C49.971 102.242 49.7843 102.356 49.6246 102.514C49.5719 102.517 49.5405 102.55 49.5177 102.593H49.4992L49.4949 102.61C49.4621 102.61 49.445 102.626 49.4421 102.657C49.2953 102.747 49.177 102.867 49.0857 103.013C49.0529 103.018 49.0358 103.035 49.0373 103.069L49.0344 103.066Z" fill="#222222"/>
<path d="M83.9526 110.25C84.0624 110.228 84.1736 110.206 84.2848 110.184C84.3347 110.343 84.3104 110.491 84.3104 110.636C84.3133 111.396 84.3133 112.157 84.3104 112.917C84.3104 113.028 84.3418 113.144 84.2776 113.249C84.1536 113.242 84.031 113.249 83.917 113.308L83.8956 113.321C83.8257 113.322 83.7573 113.325 83.6874 113.326C83.5534 113.311 83.4237 113.329 83.2968 113.378C83.2213 113.382 83.1443 113.388 83.0687 113.392C82.8691 113.375 82.6738 113.403 82.4799 113.447C82.3787 113.45 82.2775 113.455 82.1763 113.457C81.5918 113.457 81.0073 113.457 80.4228 113.456C80.343 113.453 80.2645 113.449 80.1861 113.446C80.0122 113.408 79.8383 113.379 79.6587 113.396C79.5617 113.389 79.4662 113.383 79.3693 113.376C79.2467 113.322 79.1169 113.308 78.9843 113.322C78.9359 113.322 78.8874 113.322 78.8375 113.321C78.7691 113.318 78.7007 113.315 78.6322 113.312C78.5838 113.225 78.5039 113.244 78.4269 113.254C78.3599 113.251 78.2915 113.246 78.2245 113.244C78.1974 113.175 78.1461 113.171 78.0848 113.189C77.9394 113.199 77.8196 113.085 77.6714 113.108C77.6429 113.051 77.5944 113.043 77.5374 113.053C77.4989 113.045 77.4618 113.037 77.4233 113.03C77.3805 112.977 77.3249 112.968 77.2636 112.984C77.1453 112.977 77.0498 112.877 76.9244 112.901C76.9129 112.867 76.8987 112.836 76.8531 112.85C76.8075 112.843 76.7618 112.837 76.7162 112.83C76.6963 112.765 76.6449 112.753 76.5865 112.753C76.1317 112.541 75.6812 112.318 75.2436 112.073C75.111 111.946 74.9584 111.848 74.8002 111.755C74.7232 111.665 74.6362 111.587 74.5293 111.534C74.5236 111.493 74.4965 111.477 74.4595 111.474L74.4538 111.469C74.4495 111.43 74.4295 111.409 74.3896 111.407L74.3825 111.4C74.3782 111.363 74.3583 111.342 74.3212 111.339L74.3141 111.332C74.3112 111.295 74.2912 111.273 74.2528 111.271C74.0945 111.085 73.9349 110.898 73.7766 110.713C73.7353 110.605 73.674 110.511 73.5827 110.437C73.5713 110.415 73.5599 110.394 73.5471 110.371C73.5528 110.334 73.5328 110.315 73.5 110.305C73.2919 109.876 73.0538 109.46 72.9141 109.001C72.9269 108.968 72.9127 108.948 72.8856 108.933C72.877 108.888 72.8671 108.844 72.8585 108.799C72.8685 108.762 72.8571 108.732 72.8229 108.712C72.7202 108.511 72.7174 108.28 72.6917 108.069C72.562 106.979 72.5506 105.886 72.7587 104.805C72.8785 104.18 73.0823 103.578 73.3774 103.008C73.54 102.696 73.7381 102.408 73.9092 102.101C73.9448 102.093 73.9648 102.071 73.9619 102.034L73.9733 102.016C73.999 102.013 74.009 102 74.0061 101.974C74.0803 101.911 74.1444 101.843 74.1815 101.752C74.2157 101.746 74.2342 101.728 74.2328 101.692L74.2499 101.689L74.2471 101.672C74.277 101.669 74.2927 101.653 74.2927 101.623L74.3141 101.616L74.3169 101.594L74.3383 101.589L74.3354 101.569C74.4609 101.468 74.5749 101.358 74.6662 101.224C74.8615 101.059 75.0554 100.895 75.2507 100.73H75.2692L75.2749 100.713C75.3077 100.713 75.3262 100.697 75.3334 100.665C75.4688 100.6 75.5943 100.519 75.7012 100.412L75.7254 100.415L75.7354 100.392L75.7554 100.382C75.7953 100.386 75.8195 100.368 75.8295 100.33C75.8523 100.319 75.8737 100.309 75.8965 100.298C75.9293 100.303 75.945 100.286 75.9535 100.258C76.0447 100.235 76.1274 100.194 76.193 100.124L76.1959 100.137L76.2044 100.119C76.2728 100.119 76.3213 100.075 76.3726 100.037C76.4126 100.044 76.4368 100.027 76.451 99.9912C76.9186 99.8158 77.3748 99.6077 77.8596 99.4822C78.1162 99.4152 78.3742 99.3511 78.6308 99.2855C78.6878 99.2969 78.742 99.3026 78.7691 99.2356C78.8689 99.2356 78.9672 99.2327 79.0656 99.2313C79.1896 99.2313 79.3194 99.2527 79.4306 99.1714C79.4676 99.1686 79.5061 99.1657 79.5432 99.1615C79.6915 99.1615 79.844 99.1914 79.9808 99.1059C80.0322 99.0959 80.0835 99.0859 80.1362 99.0759C80.266 99.0759 80.3957 99.0759 80.524 99.0759C81.06 99.0945 81.5975 99.0987 82.1335 99.0759H82.5199C82.6282 99.0845 82.7365 99.093 82.8435 99.103C82.9575 99.1287 83.073 99.1643 83.1942 99.1429C83.2512 99.1529 83.3082 99.1629 83.3638 99.1714C83.5007 99.2556 83.6518 99.2285 83.8001 99.2285C83.8343 99.2285 83.8685 99.2285 83.9013 99.2299C84.2263 99.257 84.2292 99.2584 84.2277 99.5891C84.2235 100.514 84.2178 101.438 84.2121 102.363C84.1379 102.299 84.051 102.308 83.964 102.316C83.82 102.289 83.6746 102.262 83.5306 102.235C83.4109 102.172 83.284 102.165 83.1528 102.181C82.9504 102.168 82.7494 102.157 82.5469 102.144C81.9311 102.078 81.3152 102.068 80.7022 102.168C80.6438 102.172 80.5867 102.175 80.5283 102.179C80.3986 102.165 80.2717 102.172 80.1533 102.235L80.1291 102.248C80.0536 102.248 79.9694 102.209 79.921 102.305C79.8768 102.309 79.8326 102.313 79.7884 102.318C79.7442 102.318 79.7 102.321 79.6558 102.322C79.1754 102.443 78.7007 102.58 78.2844 102.862C78.2445 102.859 78.2159 102.875 78.2031 102.914C78.1846 102.924 78.1646 102.934 78.1461 102.944C78.1104 102.938 78.0919 102.956 78.0848 102.988C77.5245 103.32 77.1325 103.79 76.9101 104.402C76.8901 104.432 76.8687 104.462 76.8488 104.492C76.8074 104.496 76.7804 104.512 76.7975 104.56C76.5993 105.237 76.4995 105.926 76.5095 106.633C76.5138 106.962 76.5166 107.309 76.5965 107.611C76.8702 108.635 77.439 109.447 78.4911 109.825C78.5766 109.879 78.6365 109.986 78.7648 109.952C79.0984 110.094 79.4391 110.216 79.8055 110.244C79.8939 110.323 80.0008 110.304 80.1035 110.301C80.1405 110.304 80.179 110.308 80.2161 110.311C80.3757 110.401 80.5482 110.37 80.7193 110.37C80.802 110.372 80.8861 110.377 80.9688 110.38C81.1156 110.465 81.2796 110.432 81.4335 110.429C81.8612 110.419 82.2932 110.485 82.7166 110.38C82.7679 110.371 82.8207 110.361 82.872 110.352C82.9618 110.354 83.0516 110.357 83.1414 110.358C83.2555 110.37 83.3709 110.392 83.4722 110.314C83.5306 110.31 83.5891 110.305 83.6475 110.3C83.7516 110.304 83.8599 110.324 83.9497 110.244L83.9526 110.25Z" fill="#222222"/>
<path d="M112.213 99.0146C112.354 99.0261 112.495 99.036 112.635 99.0474C112.732 99.1187 112.84 99.0988 112.947 99.0888C113 99.0888 113.053 99.0888 113.107 99.0888L113.139 99.0959L113.172 99.0845C113.242 99.0973 113.313 99.1102 113.383 99.123C113.455 99.1886 113.54 99.1757 113.626 99.17C113.704 99.1772 113.782 99.1857 113.862 99.1928C113.932 99.2556 114.015 99.2456 114.097 99.2299C114.166 99.277 114.15 99.3511 114.15 99.4167C114.15 100.326 114.15 101.236 114.15 102.145C114.15 102.189 114.136 102.234 114.129 102.279C114.063 102.274 113.996 102.268 113.931 102.261C113.862 102.258 113.794 102.255 113.725 102.252L113.707 102.239C113.607 102.182 113.5 102.175 113.389 102.189C113.313 102.184 113.238 102.178 113.162 102.172C112.993 102.108 112.817 102.103 112.639 102.118C112.267 102.095 111.896 102.088 111.524 102.118C111.393 102.101 111.265 102.111 111.146 102.174L111.122 102.187C111.047 102.187 110.963 102.154 110.91 102.241H110.878L110.85 102.254C110.772 102.239 110.699 102.247 110.64 102.309C110.619 102.315 110.598 102.319 110.575 102.325C110.519 102.316 110.472 102.331 110.438 102.379C110.119 102.462 109.846 102.624 109.614 102.855C109.56 102.861 109.497 102.852 109.481 102.927C109.441 102.932 109.417 102.956 109.412 102.996C109.374 103.003 109.347 103.018 109.359 103.063C109.286 103.16 109.212 103.259 109.139 103.356C109.005 103.396 109.004 103.5 109.015 103.609C108.994 103.621 108.987 103.638 108.995 103.662C108.975 103.691 108.954 103.719 108.934 103.748C108.893 103.752 108.866 103.766 108.883 103.815C108.854 103.929 108.826 104.043 108.797 104.157C108.756 104.161 108.731 104.18 108.743 104.225C108.617 107.068 108.717 109.912 108.683 112.756C108.682 112.879 108.719 113.007 108.647 113.124C107.364 113.122 106.08 113.121 104.797 113.12C104.751 113.01 104.773 112.894 104.773 112.782C104.771 110.278 104.77 107.775 104.773 105.272C104.773 104.763 104.8 104.255 104.895 103.753C105.252 101.877 106.294 100.531 108.02 99.7132C108.342 99.5607 108.683 99.4523 109.017 99.3297C109.044 99.3468 109.059 99.334 109.071 99.3097C109.394 99.2527 109.718 99.2028 110.039 99.1358C110.139 99.1144 110.236 99.1073 110.334 99.1045C110.505 99.0988 110.68 99.1344 110.841 99.0489C110.958 99.0375 111.077 99.0275 111.194 99.0161C111.533 99.0161 111.874 99.0161 112.213 99.0161V99.0146Z" fill="#222222"/>
<path d="M63.5043 100.604C63.6041 100.558 63.6796 100.486 63.7466 100.402L63.7438 100.413L63.7509 100.399C63.7723 100.405 63.7837 100.396 63.7866 100.376C63.8193 100.377 63.8365 100.362 63.8422 100.33C63.9134 100.309 63.9705 100.265 64.0132 100.205L64.0289 100.212L64.0346 100.194L64.0531 100.196L64.0603 100.179C64.0973 100.182 64.1173 100.162 64.1259 100.129C64.689 99.8058 65.272 99.5264 65.8979 99.3453C66.3569 99.2127 66.8245 99.1357 67.2993 99.0987C67.5159 99.0987 67.7341 99.1201 67.9436 99.0431C67.9964 99.0345 68.0477 99.026 68.1004 99.016C68.4412 99.016 68.7819 99.016 69.1226 99.016L69.1369 99.0388C69.4377 99.1201 69.747 99.0915 70.0535 99.103C70.0692 99.0958 70.0835 99.0973 70.0963 99.1072C70.2317 99.1899 70.3814 99.1685 70.5283 99.1714C70.5667 99.1742 70.6038 99.1785 70.6423 99.1814C70.7507 99.2612 70.8733 99.2412 70.9944 99.2313C71.0101 99.2598 71.04 99.2883 71.04 99.3154C71.04 100.308 71.0643 101.3 71.0286 102.292C70.8961 102.272 70.7663 102.232 70.6309 102.252L70.6095 102.239C70.5111 102.182 70.4028 102.175 70.293 102.189C70.2175 102.184 70.1433 102.178 70.0678 102.172C69.8981 102.111 69.7228 102.101 69.5446 102.118C69.1525 102.094 68.7591 102.087 68.367 102.121C68.2558 102.104 68.1503 102.114 68.052 102.172L68.0292 102.185C67.985 102.188 67.9408 102.189 67.8966 102.192C67.6927 102.271 67.4589 102.259 67.2764 102.398C67.2208 102.383 67.1852 102.412 67.1538 102.452C67.0897 102.447 67.0426 102.476 67.0027 102.523C66.9471 102.517 66.9115 102.546 66.883 102.59L66.8673 102.597C66.8274 102.594 66.8031 102.611 66.7917 102.65C66.1189 103.049 65.7539 103.646 65.6384 104.412C65.5757 104.83 65.58 105.249 65.58 105.669C65.58 108.032 65.58 110.392 65.58 112.755C65.58 112.877 65.6071 113.004 65.5529 113.124C64.2684 113.124 62.9839 113.124 61.6995 113.122C61.6496 113.001 61.6752 112.876 61.6738 112.752C61.6724 110.593 61.6767 108.436 61.671 106.278C61.6681 105.29 61.6624 104.304 61.8748 103.331L61.8934 103.316L61.8819 103.296C61.9404 103.23 61.949 103.15 61.9461 103.069C61.9718 103.056 61.9846 103.039 61.9675 103.011C62.0088 102.969 62.0174 102.916 62.0131 102.861C62.0373 102.849 62.0502 102.834 62.0345 102.807C62.0716 102.708 62.11 102.61 62.1471 102.512C62.1827 102.479 62.2141 102.443 62.2013 102.388C62.2298 102.219 62.4023 102.122 62.4208 101.95L62.4408 101.943L62.4308 101.93C62.5605 101.772 62.666 101.598 62.7644 101.418C62.7958 101.411 62.8143 101.392 62.8129 101.358L62.8328 101.351V101.331L62.8528 101.327L62.8457 101.311C62.9312 101.251 62.9953 101.173 63.0395 101.079C63.0752 101.075 63.0937 101.055 63.0951 101.019L63.1065 101.006C63.1393 101.002 63.1579 100.985 63.1593 100.951L63.1735 100.935C63.2049 100.932 63.222 100.915 63.2249 100.882H63.242V100.865C63.2733 100.862 63.2904 100.846 63.2933 100.814H63.3104V100.797C63.3418 100.794 63.3589 100.777 63.3632 100.745L63.3803 100.73C63.4145 100.728 63.4316 100.71 63.4359 100.677L63.4501 100.664C63.4858 100.664 63.5043 100.644 63.51 100.61L63.5043 100.604Z" fill="#222222"/>
<path d="M116.828 113.12C116.778 112.998 116.802 112.872 116.802 112.749C116.801 108.461 116.802 104.172 116.801 99.8843C116.801 99.7289 116.813 99.5735 116.758 99.4238C118.065 99.4238 119.374 99.4238 120.681 99.4224C120.73 99.5193 120.708 99.6234 120.708 99.7246C120.708 104.09 120.708 108.455 120.708 112.82C120.708 112.921 120.731 113.026 120.681 113.122C119.397 113.122 118.112 113.122 116.828 113.121V113.12Z" fill="#222222"/>
<path d="M118.38 97.7473C117.962 97.733 117.658 97.4935 117.362 97.2383C117.269 97.1585 117.188 97.063 117.102 96.9746C117.105 96.9489 117.095 96.9347 117.07 96.9318L117.06 96.9147C117.061 96.8762 117.043 96.8548 117.007 96.8449C116.934 96.708 116.861 96.5697 116.789 96.4329C116.796 96.3773 116.773 96.3331 116.732 96.2974C116.736 96.2447 116.727 96.1962 116.693 96.1534C116.708 96.1207 116.693 96.0993 116.666 96.0836C116.579 95.5989 116.583 95.117 116.666 94.6309C116.678 94.561 116.723 94.5126 116.729 94.447C116.755 94.437 116.76 94.4199 116.747 94.3971C117.128 93.5432 117.772 93.0599 118.716 93C118.783 93.0185 118.849 93.0185 118.916 93C119.385 93.0841 119.85 93.1782 120.23 93.4947C120.279 93.5759 120.343 93.6429 120.425 93.6914C120.544 93.8996 120.729 94.0706 120.778 94.3187C120.763 94.3672 120.79 94.3843 120.832 94.3914C120.838 94.4356 120.843 94.4798 120.85 94.524C120.832 94.5724 120.86 94.5896 120.9 94.5967C121.083 95.2867 121.01 95.9524 120.718 96.5982C120.703 96.6282 120.699 96.6624 120.691 96.6952C120.587 96.8377 120.483 96.9803 120.377 97.1229L120.357 97.1271V97.1471C120.331 97.1471 120.317 97.1613 120.316 97.1884L120.293 97.1941L120.287 97.2169C120.262 97.2169 120.247 97.2312 120.247 97.2569H120.227L120.223 97.2797C120.066 97.3866 119.909 97.4921 119.753 97.599C119.609 97.6418 119.456 97.656 119.328 97.7444C119.282 97.7458 119.237 97.7473 119.191 97.7487H118.38V97.7473Z" fill="#222222"/>
<path d="M120.681 99.4224C119.374 99.4224 118.065 99.4224 116.758 99.4239C116.823 99.3583 116.908 99.3797 116.983 99.3797C118.165 99.3782 119.347 99.3782 120.527 99.3797C120.581 99.3797 120.641 99.3654 120.681 99.4224Z" fill="#AF1B2E"/>
<path d="M82.7214 110.384C82.298 110.489 81.8661 110.425 81.4384 110.434C81.2844 110.437 81.1205 110.471 80.9736 110.384C81.5567 110.384 82.1398 110.384 82.7214 110.384Z" fill="#AF1B2E"/>
<path d="M27.0995 99.0989C26.5777 99.0932 26.056 99.0875 25.5342 99.0818C25.5385 99.0646 25.547 99.0504 25.557 99.0361C26.0631 99.0418 26.5677 99.0475 27.0738 99.0532C27.081 99.0689 27.0881 99.0846 27.0981 99.0989H27.0995Z" fill="#AF1B2E"/>
<path d="M82.1383 99.0803C81.6023 99.1031 81.0648 99.0989 80.5288 99.0803C80.5331 99.0632 80.5402 99.049 80.5516 99.0361C81.0734 99.0361 81.5937 99.0361 82.1155 99.0361C82.1269 99.049 82.134 99.0646 82.1383 99.0803Z" fill="#AF1B2E"/>
<path d="M35.488 99.0803C34.9891 99.086 34.4887 99.0917 33.9883 99.0989C33.9983 99.0846 34.0068 99.0689 34.0139 99.0518C34.4972 99.0461 34.9805 99.0404 35.4652 99.0361C35.4766 99.049 35.4837 99.0646 35.488 99.0803Z" fill="#AF1B2E"/>
<path d="M52.6824 99.0989C52.2077 99.0932 51.733 99.0875 51.2568 99.0818C51.2611 99.0646 51.2682 99.049 51.2796 99.0361C51.7387 99.0418 52.1977 99.0475 52.6568 99.0518C52.6639 99.0675 52.671 99.0832 52.6824 99.0974V99.0989Z" fill="#AF1B2E"/>
<path d="M94.9231 99.0832C94.4826 99.0832 94.0421 99.0832 93.6016 99.0832C93.6058 99.0661 93.613 99.0504 93.6244 99.0361C94.0506 99.0361 94.4755 99.0361 94.9017 99.0361C94.9131 99.0504 94.9202 99.0646 94.9245 99.0818L94.9231 99.0832Z" fill="#AF1B2E"/>
<path d="M70.0544 99.1016C69.7479 99.0902 69.4399 99.1187 69.1377 99.0375C69.4456 99.0232 69.7521 99.0175 70.0544 99.1016Z" fill="#AF1B2E"/>
<path d="M54.8223 110.224C54.8265 110.209 54.8337 110.193 54.8437 110.179C55.0846 110.179 55.3269 110.18 55.5679 110.181C55.3241 110.268 55.0717 110.24 54.8223 110.224Z" fill="#AF1B2E"/>
<path d="M67.9447 99.0404C67.7351 99.1188 67.517 99.0974 67.3003 99.096C67.5113 99.0247 67.7265 99.0261 67.9447 99.0404Z" fill="#AF1B2E"/>
<path d="M56.3929 110.116C56.209 110.21 56.0108 110.166 55.8184 110.171C56.008 110.134 56.199 110.1 56.3929 110.116Z" fill="#AF1B2E"/>
<path d="M80.7239 110.375C80.5543 110.375 80.3804 110.405 80.2207 110.317C80.3918 110.304 80.5586 110.328 80.7239 110.375Z" fill="#AF1B2E"/>
<path d="M36.396 99.1687C36.2292 99.163 36.0567 99.1929 35.8999 99.106C36.0695 99.0917 36.2363 99.1045 36.396 99.1687Z" fill="#AF1B2E"/>
<path d="M52.751 110.184C52.7581 110.199 52.7638 110.213 52.7667 110.229C52.587 110.241 52.4074 110.268 52.2363 110.186C52.4074 110.186 52.5785 110.186 52.751 110.186V110.184Z" fill="#AF1B2E"/>
<path d="M110.842 99.0474C110.679 99.1329 110.504 99.0973 110.334 99.103C110.499 99.0503 110.669 99.0332 110.842 99.0474Z" fill="#AF1B2E"/>
<path d="M83.8049 99.2342C83.6566 99.2342 83.5055 99.2613 83.3687 99.1772C83.5183 99.1629 83.6652 99.1743 83.8049 99.2342Z" fill="#AF1B2E"/>
<path d="M70.5296 99.1686C70.3828 99.1658 70.2317 99.1872 70.0977 99.1045C70.2473 99.0902 70.3913 99.1059 70.5296 99.1686Z" fill="#AF1B2E"/>
<path d="M79.9855 99.1101C79.8472 99.1942 79.6947 99.1643 79.5479 99.1657C79.689 99.1044 79.8358 99.0973 79.9855 99.1101Z" fill="#AF1B2E"/>
<path d="M95.7056 99.1657C95.5787 99.1685 95.449 99.1914 95.335 99.1101C95.4633 99.0973 95.5887 99.1044 95.7056 99.1657Z" fill="#AF1B2E"/>
<path d="M57.0063 110.046C56.8908 110.13 56.7597 110.102 56.6328 110.1C56.7526 110.05 56.8766 110.033 57.0063 110.046Z" fill="#AF1B2E"/>
<path d="M70.9942 99.2284C70.873 99.2384 70.7504 99.2584 70.6421 99.1785C70.7633 99.1714 70.883 99.1657 70.9942 99.2284Z" fill="#AF1B2E"/>
<path d="M24.9957 99.1144C24.8816 99.1957 24.7519 99.1686 24.6265 99.1686C24.7448 99.1201 24.8674 99.0973 24.9957 99.1144Z" fill="#AF1B2E"/>
<path d="M79.4338 99.1757C79.3226 99.257 79.1943 99.2356 79.0688 99.2356C79.1843 99.1743 79.3069 99.1629 79.4338 99.1757Z" fill="#AF1B2E"/>
<path d="M27.6471 99.1657C27.5216 99.1671 27.3919 99.1899 27.2793 99.1101C27.4076 99.0987 27.5316 99.1029 27.6471 99.1657Z" fill="#AF1B2E"/>
<path d="M83.4767 110.318C83.3755 110.397 83.26 110.374 83.146 110.362C83.1503 110.345 83.1574 110.33 83.1674 110.315C83.27 110.315 83.3727 110.318 83.4767 110.318Z" fill="#AF1B2E"/>
<path d="M83.9531 110.25C83.8633 110.33 83.7564 110.308 83.6509 110.306C83.7464 110.257 83.8462 110.239 83.9531 110.25Z" fill="#AF1B2E"/>
<path d="M80.108 110.305C80.0039 110.31 79.897 110.328 79.8101 110.248C79.9156 110.234 80.0139 110.258 80.108 110.305Z" fill="#AF1B2E"/>
<path d="M53.227 99.1672C53.1215 99.1687 53.0131 99.1915 52.9219 99.1145C53.0288 99.1002 53.1329 99.1116 53.227 99.1672Z" fill="#AF1B2E"/>
<path d="M112.947 99.0873C112.84 99.0973 112.732 99.1172 112.635 99.046C112.742 99.0374 112.851 99.0132 112.947 99.0873Z" fill="#AF1B2E"/>
<path d="M57.4852 109.978C57.394 110.056 57.2857 110.036 57.1802 110.032C57.2771 109.983 57.3783 109.965 57.4852 109.978Z" fill="#AF1B2E"/>
<path d="M93.1908 99.1145C93.0996 99.19 92.9898 99.1701 92.8857 99.1672C92.9813 99.1145 93.0839 99.1002 93.1908 99.1145Z" fill="#AF1B2E"/>
<path d="M114.096 99.227C114.013 99.2441 113.931 99.2541 113.861 99.19C113.944 99.1771 114.023 99.1786 114.096 99.227Z" fill="#AF1B2E"/>
<path d="M113.624 99.1673C113.539 99.1744 113.453 99.1872 113.382 99.1202C113.469 99.106 113.549 99.1245 113.624 99.1673Z" fill="#AF1B2E"/>
<path d="M36.8079 99.237C36.7238 99.2413 36.6397 99.2541 36.5713 99.1871C36.6568 99.1729 36.7352 99.1943 36.8079 99.237Z" fill="#AF1B2E"/>
</svg>
