<svg width="140" height="140" viewBox="0 0 140 140" fill="none" xmlns="http://www.w3.org/2000/svg">
<rect width="140" height="140" rx="30" fill="white"/>
<g clip-path="url(#clip0_824_1202)">
<path d="M104.657 103.992H101.68C101.431 103.858 101.15 103.904 100.887 103.867C99.7471 103.703 98.6285 103.469 97.5335 103.101C94.2936 102.013 91.6096 100.092 89.3046 97.6077C86.5054 94.5918 84.1353 91.2488 81.9467 87.7752C78.4497 82.2247 75.1717 76.5416 71.7918 70.9203C71.2416 70.0049 70.7135 69.0755 70.1002 68.1996C70.087 68.019 69.9276 67.9336 69.841 67.8009C68.3641 65.5435 66.8845 63.2868 65.4049 61.0308C65.2102 60.7342 65.064 60.4043 64.8096 60.1473C64.4056 59.534 64.0189 58.9088 63.5954 58.3094C62.3847 56.5945 61.1033 54.9386 59.6632 53.4022C58.5017 52.163 57.3146 50.9593 55.9659 49.9271C54.2646 48.6255 52.4093 47.6586 50.2672 47.2898C48.9518 47.0634 47.6497 47.0543 46.3419 47.294C44.6988 47.5954 43.2871 48.4011 41.9447 49.3472C40.9918 50.0188 40.1664 50.8308 39.3867 51.6997C38.2703 52.9444 37.3305 54.3148 36.4338 55.7186C35.7615 56.7702 35.2085 57.8878 34.688 59.0179C34.2078 60.0612 33.6436 61.0697 33.3027 62.1748C33.1786 62.1442 33.0622 62.0977 32.9596 62.0178C31.7905 61.1003 30.6463 60.1522 29.4917 59.2172C27.9615 57.9781 26.4438 56.7223 24.9025 55.4956C24.7438 55.3692 24.6267 55.2206 24.5234 55.0532C24.5685 54.9476 24.6087 54.8393 24.6586 54.7358C25.5969 52.8125 26.6586 50.9593 27.8312 49.17C29.5132 46.6029 31.3878 44.1892 33.6513 42.1103C35.5668 40.3509 37.7117 38.9131 40.1054 37.8775C40.8213 37.5677 41.5517 37.2753 42.3009 37.0648C43.0376 36.8571 43.7881 36.6849 44.5338 36.5029C45.6829 36.2223 46.8506 36.1292 48.017 36.0347C49.6601 35.9014 51.2825 36.1667 52.8917 36.4661C53.9839 36.6696 55.0276 37.0516 56.0678 37.4496C57.5751 38.0254 58.9931 38.7631 60.3098 39.6799C64.0584 42.2916 67.2338 45.5249 70.2138 48.9624C70.6269 49.4389 71.0157 49.9376 71.4155 50.4259C72.8161 52.3749 74.2133 54.326 75.6194 56.2715C75.8606 56.6049 76.0442 56.9862 76.3797 57.2474C76.4358 57.5204 76.6506 57.6982 76.7899 57.9204C80.2474 63.4271 83.7001 68.9366 87.1215 74.4662C89.6968 78.6288 92.2991 82.7741 94.9111 86.9139C95.8252 88.3628 96.9258 89.6693 98.2051 90.8126C99.6112 92.0691 101.164 93.0082 103.126 93.0693C104.169 93.1019 105.183 92.9984 106.152 92.5991C107.95 91.8586 109.257 90.623 109.994 88.7948C110.325 87.9745 110.611 87.1424 110.799 86.2804C110.953 85.5796 111.109 84.8801 111.181 84.1605C111.223 83.7459 111.167 83.3145 111.276 82.9221C111.411 82.4373 111.386 81.9483 111.427 81.4641C111.527 80.2556 111.519 79.0414 111.476 77.8287C111.743 77.8704 111.927 78.0565 112.122 78.2149C113.854 79.6249 115.581 81.0404 117.311 82.4525C118.087 83.086 118.858 83.7264 119.647 84.3432C119.97 84.5953 120.233 84.9399 120.655 85.0531C120.709 85.8025 120.5 86.5256 120.398 87.2556C120.221 88.5413 119.916 89.8075 119.544 91.0515C119.06 92.6741 118.423 94.2362 117.583 95.7108C115.755 98.9163 113.295 101.409 109.8 102.788C108.466 103.314 107.095 103.633 105.69 103.867C105.345 103.924 104.984 103.826 104.656 103.99L104.657 103.992Z" fill="url(#paint0_linear_824_1202)"/>
<path d="M64.8088 60.148C65.0632 60.4043 65.2094 60.7342 65.4041 61.0315C66.8837 63.2875 68.3633 65.5436 69.8402 67.8017C69.9268 67.9343 70.0869 68.0198 70.0994 68.2003C69.9005 68.1746 69.8284 68.3184 69.7501 68.4587C69.4015 69.0804 69.0605 69.7069 68.6995 70.3209C65.3861 75.945 62.1192 81.5968 58.7463 87.1862C57.302 89.579 55.9236 92.0163 54.2146 94.2383C52.1736 96.8909 49.8755 99.2803 47.0833 101.154C44.7548 102.716 42.1802 103.642 39.3998 103.905C37.6152 104.074 35.8168 104.03 34.0406 103.685C33.3178 103.545 32.5984 103.398 31.8916 103.189C31.2602 103.003 30.6614 102.735 30.0509 102.494C29.1299 102.131 28.3059 101.611 27.4846 101.082C26.9593 100.743 26.5047 100.304 26.0147 99.9172C25.1588 99.24 24.4519 98.4253 23.797 97.5765C21.9536 95.1864 20.8184 92.4477 20.0318 89.5533C19.6479 88.1419 19.4206 86.7034 19.2619 85.2483C19.1392 84.121 19.0512 82.9936 18.9985 81.8629C18.9985 81.0537 18.9985 80.2445 18.9985 79.4346C19.0436 78.4483 19.0914 77.4627 19.1323 76.4763C19.1704 75.5511 19.3263 74.6364 19.3575 73.7091C19.3769 73.1472 19.4871 72.5908 19.5225 72.024C19.553 71.5309 19.6895 71.0211 19.7706 70.5154C19.9757 69.2429 20.228 67.9788 20.5079 66.7202C20.8046 65.388 21.1123 64.0564 21.5135 62.7534C22.0742 60.9322 22.6806 59.1249 23.4491 57.378C23.7922 56.5973 24.104 55.802 24.5206 55.0553C24.6238 55.2227 24.7409 55.372 24.8996 55.4977C26.4409 56.7244 27.9586 57.9802 29.4888 59.2193C30.6434 60.1543 31.7876 61.1024 32.9567 62.0199C33.0593 62.1005 33.1757 62.147 33.2998 62.1769C33.2651 62.2866 33.2367 62.3992 33.1938 62.5054C32.5749 64.0294 32.0516 65.5831 31.692 67.1918C31.5007 68.0468 31.2353 68.8859 31.0599 69.7437C30.773 71.1468 30.5201 72.5568 30.3607 73.9828C30.2685 74.8107 30.0973 75.6303 30.0204 76.459C29.9213 77.5224 29.8499 78.5893 29.8423 79.6603C29.8298 81.4864 29.8929 83.3013 30.3517 85.0843C30.6524 86.2533 30.8915 87.4383 31.3649 88.558C31.7121 89.3783 32.0842 90.1847 32.7038 90.8383C33.9436 92.1462 35.4662 92.87 37.2632 93.0117C38.1184 93.079 38.9666 93.0457 39.8038 92.8484C41.5648 92.4338 43.0091 91.4745 44.2773 90.2201C46.4548 88.0662 48.3017 85.6421 49.9989 83.1027C53.6858 77.5884 57.2181 71.9733 60.8101 66.3965C62.1483 64.3183 63.4748 62.2325 64.8067 60.1501L64.8088 60.148Z" fill="#3271BD"/>
<path d="M111.477 77.8294C111.381 77.1404 111.328 76.4451 111.227 75.7595C111.108 74.958 111.057 74.1495 110.91 73.3507C110.764 72.5644 110.72 71.7601 110.6 70.969C110.454 70.0077 110.299 69.0464 110.104 68.0941C109.744 66.3423 109.313 64.6072 108.763 62.9048C107.977 60.4696 107.024 58.1024 105.844 55.8284C104.191 52.6423 102.114 49.8001 99.2688 47.569C97.5716 46.2375 95.7073 45.2366 93.559 44.8997C90.931 44.4872 88.4472 44.9463 86.145 46.3167C84.2676 47.4343 82.7069 48.9179 81.2696 50.5419C79.4975 52.5444 77.9992 54.7497 76.5528 56.9932C76.4967 57.08 76.4364 57.1641 76.3782 57.2495C76.0435 56.9883 75.8591 56.607 75.6179 56.2736C74.2118 54.3288 72.8147 52.3777 71.4141 50.428C71.8236 49.7744 72.3261 49.1902 72.8029 48.588C73.3816 47.8559 73.9568 47.119 74.5694 46.416C75.821 44.9789 77.1024 43.5724 78.5189 42.2895C79.7872 41.1406 81.1032 40.0626 82.5309 39.1236C84.4561 37.8566 86.5352 36.9356 88.7986 36.4793C90.3315 36.1702 91.8812 36.0174 93.4515 36.1278C95.1342 36.2466 96.7725 36.5765 98.363 37.1301C101.938 38.3748 104.974 40.4676 107.652 43.1112C110.744 46.1639 113.068 49.7632 115.024 53.6168C115.871 55.2852 116.614 57.0001 117.256 58.7602C117.87 60.4404 118.403 62.1429 118.865 63.8717C119.251 65.3136 119.572 66.7681 119.861 68.2302C119.963 68.7428 120.105 69.2547 120.171 69.7625C120.232 70.2341 120.328 70.705 120.365 71.1822C120.441 72.1553 120.574 73.1229 120.678 74.0925C120.877 75.9735 120.988 77.8544 121 79.7444C121.008 80.9099 120.915 82.0705 120.856 83.2326C120.827 83.7917 120.768 84.3495 120.722 84.9079C120.717 84.9656 120.716 85.0239 120.656 85.0559C120.233 84.9427 119.971 84.5981 119.648 84.346C118.859 83.7292 118.088 83.0888 117.312 82.4553C115.582 81.0432 113.854 79.6277 112.122 78.2177C111.928 78.0593 111.744 77.8732 111.477 77.8315V77.8294Z" fill="#3470B8"/>
</g>
<defs>
<linearGradient id="paint0_linear_824_1202" x1="24.5227" y1="69.9958" x2="120.664" y2="69.9958" gradientUnits="userSpaceOnUse">
<stop stop-color="#366FB5"/>
<stop offset="0.51" stop-color="#1586FF"/>
<stop offset="1" stop-color="#366FB5"/>
</linearGradient>
<clipPath id="clip0_824_1202">
<rect width="102" height="68" fill="white" transform="translate(19 36)"/>
</clipPath>
</defs>
</svg>
