<svg width="140" height="140" viewBox="0 0 140 140" fill="none" xmlns="http://www.w3.org/2000/svg">
<rect width="140" height="140" rx="30" fill="url(#paint0_linear_668_18796)"/>
<g clip-path="url(#clip0_668_18796)">
<path d="M114.833 31.8742C115.137 31.6409 115.006 31.1609 114.623 31.1126C111.317 30.6969 108.169 31.4746 105.387 32.9255C103.666 32.1692 101.772 31.7401 99.778 31.7133C91.7688 31.6168 85.2178 38.2998 85.2178 46.2835V94.9364C85.2178 102.917 91.7607 109.375 99.7915 109.268C107.69 109.166 113.975 102.598 113.975 94.7218V46.0475C113.975 44.0174 113.553 42.0865 112.789 40.3379C112.452 39.5683 112.221 38.7584 112.073 37.9324C111.965 37.3317 111.922 36.7202 111.982 36.1115C112.167 34.202 113.504 32.9094 114.833 31.8742ZM94.6098 51.3681C93.0979 51.3681 91.8737 50.1452 91.8737 48.6407C91.8737 47.1363 93.0979 45.9134 94.6098 45.9134C96.1218 45.9134 97.3459 47.1336 97.3459 48.6407C97.3459 50.1479 96.1218 51.3681 94.6098 51.3681ZM104.731 51.3681C103.219 51.3681 101.995 50.1452 101.995 48.6407C101.995 47.1363 103.219 45.9134 104.731 45.9134C106.243 45.9134 107.467 47.1336 107.467 48.6407C107.467 50.1479 106.243 51.3681 104.731 51.3681Z" fill="#B9EABD"/>
<path d="M80.2109 47.6512C79.6271 47.2945 79.0648 46.9083 78.5079 46.5141C71.7577 41.7459 59.4063 38.5572 45.5536 37.3317L48.4888 44.6395C35.3275 49.5445 26 61.8164 26 76.1773C26 94.8559 41.7844 110 61.2546 110C80.7247 110 96.5118 94.8559 96.5118 76.1773C96.5118 64.1897 90.0119 53.661 80.2109 47.6512ZM58.4915 74.0533C56.1375 74.0533 54.2327 72.152 54.2327 69.8081C54.2327 67.4642 56.1375 65.5628 58.4915 65.5628C60.8456 65.5628 62.7504 67.4642 62.7504 69.8081C62.7504 72.152 60.8429 74.0533 58.4915 74.0533ZM77.725 74.0533C75.3709 74.0533 73.4661 72.152 73.4661 69.8081C73.4661 67.4642 75.3709 65.5628 77.725 65.5628C80.079 65.5628 81.9838 67.4642 81.9838 69.8081C81.9838 72.152 80.0764 74.0533 77.725 74.0533Z" fill="#F7F7F7"/>
</g>
<defs>
<linearGradient id="paint0_linear_668_18796" x1="70" y1="0" x2="70" y2="140" gradientUnits="userSpaceOnUse">
<stop stop-color="#2CD53E"/>
<stop offset="1" stop-color="#1FC631"/>
</linearGradient>
<clipPath id="clip0_668_18796">
<rect width="89" height="79" fill="white" transform="translate(26 31)"/>
</clipPath>
</defs>
</svg>
