<svg width="140" height="140" viewBox="0 0 140 140" fill="none" xmlns="http://www.w3.org/2000/svg">
<g clip-path="url(#clip0_2772_36)">
<rect width="140" height="140" rx="30" fill="white"/>
<g filter="url(#filter0_f_2772_36)">
<rect x="12.8241" y="212.297" width="237.186" height="67.7674" transform="rotate(-102.763 12.8241 212.297)" fill="#F39C4D"/>
</g>
<g filter="url(#filter1_f_2772_36)">
<path d="M-28 -13H182L151 104.5L-8.5 42L-28 -13Z" fill="#F84A6F"/>
</g>
<g clip-path="url(#clip1_2772_36)">
<g filter="url(#filter2_f_2772_36)">
<path d="M155 29V140L59.4227 137.651L27.8487 69.4083C26.6308 66.7761 26 63.9105 26 61.0102V53C26 39.7452 36.7452 29 50 29H155Z" fill="#DE52F1"/>
</g>
<path d="M81.7627 89.5477L80.509 92.2936C76.2193 90.3102 76.0135 86.7806 75.7328 83.2768C77.1572 86.7572 78.9162 89.4471 81.7627 89.5477Z" fill="#1D1D1B"/>
<path d="M81.7627 89.5477L80.509 92.2936C76.2193 90.3102 76.0135 86.7806 75.7328 83.2768C77.1572 86.7572 78.9162 89.4471 81.7627 89.5477Z" fill="#1D1D1B"/>
<g filter="url(#filter3_f_2772_36)">
<path d="M50.4717 102.564C50.3758 88.9325 48.7222 80.7297 45.1575 74.6763C40.1919 67.5869 38.0891 61.8329 39.2446 57.597C40.269 52.0395 43.8407 49.2842 47.4848 46.6084C45.4242 48.9614 43.5062 51.518 42.1706 54.9095C40.5146 59.239 40.9637 64.193 45.754 70.4357C48.6988 74.7559 50.1887 80.2993 50.4717 86.8578C50.9068 91.8773 50.6822 97.2243 50.4717 102.564Z" fill="#1D1D1B" fill-opacity="0.5"/>
<path d="M95.9184 62.972C96.6785 62.4644 96.9779 61.6318 97.0481 60.64C97.0504 60.6026 97.0598 60.5628 97.0715 60.5278C97.6749 58.7899 96.4797 55.8077 94.5126 51.6887C94.4682 51.5951 94.4542 51.4899 94.4729 51.3893L95.6283 45.4295C95.633 45.4062 95.6353 45.3804 95.6377 45.3547C95.7897 42.3795 94.6366 39.4511 91.7503 36.5835C91.631 36.4642 91.5795 36.2934 91.617 36.1297C92.5947 31.8002 93.1467 28.4087 92.8426 26.9141C92.8239 26.8252 92.7771 26.7503 92.7139 26.6848C91.3877 25.3259 91.1328 22.1472 91.3199 18.22C91.3971 16.412 90.7632 14.2577 89.4791 11.7924C89.4721 11.7784 89.4651 11.7644 89.4557 11.7503C86.1063 6.3075 80.4974 4.14159 72.5869 5.30174C68.3463 5.8514 65.2284 8.67457 63.0789 13.4602C63.0602 13.4999 63.0485 13.5467 63.0414 13.5888C62.4941 17.3359 59.7294 18.8936 56.0923 19.593C55.7648 19.6562 55.5146 19.9181 55.4654 20.2479C55.4304 20.4865 55.5052 20.7274 55.6713 20.9052L57.3741 22.7179C57.4676 22.8185 57.5144 22.9541 57.5027 23.0921L57.4208 23.9716C57.4091 24.0979 57.3483 24.2149 57.2501 24.2967L56.8221 24.837C56.6232 25.0031 56.4619 25.0943 56.4502 25.3539L56.4385 25.6182C56.4314 25.782 56.5086 25.9387 56.6443 26.0346L57.3437 26.5188L56.5461 26.8766C56.4314 26.9281 56.3426 27.0216 56.2958 27.1386L56.2209 27.3304C56.1531 27.5035 56.1905 27.7023 56.3192 27.838L56.525 28.0555C56.67 28.2075 56.6981 28.4367 56.5952 28.6192L55.8958 29.8682C55.8677 29.9173 55.849 29.9711 55.8397 30.0273C55.4888 32.1066 57.2033 33.2574 60.7516 33.5849C64.0612 33.8071 64.253 37.2735 63.4695 41.7573C63.4227 42.0216 63.1678 42.1947 62.9034 42.1433C58.5786 41.2802 56.0829 42.9408 54.9859 46.5172C54.9696 46.5733 54.9415 46.6271 54.9041 46.6739L52.8341 49.2608C52.8177 49.2819 52.8013 49.2982 52.7826 49.317C48.6777 53.0219 45.078 56.8088 46.2825 61.4049C46.2942 61.4517 46.313 61.4938 46.3387 61.5359C49.6554 66.9717 52.1207 74.0542 53.344 83.5458C53.344 83.5622 53.3486 83.5809 53.3486 83.5973C53.5896 92.2843 53.503 99.9796 52.6633 105.397C52.6165 105.694 52.8528 105.956 53.1522 105.949L86.3729 104.952C86.4127 104.952 86.4524 104.955 86.4899 104.964L86.8898 105.053L83.8328 101.02C83.6901 100.831 83.7065 100.569 83.8702 100.401C89.72 94.3052 95.3383 86.086 100.807 76.4891C101.796 74.9406 99.6163 70.1317 95.785 63.6222C95.6541 63.4024 95.7195 63.117 95.9324 62.9743L95.9184 62.972ZM85.0982 85.9433C84.1205 89.9032 82.4785 93.2854 80.4015 96.2863C80.212 96.56 79.8074 96.5693 79.6156 96.2957C78.6963 94.9812 76.5328 92.7825 74.2008 90.4622C74.1891 90.4505 74.1751 90.4388 74.161 90.4271C71.7121 88.5209 70.1122 85.7141 71.787 79.4198C71.7916 79.4035 71.7963 79.3847 71.8033 79.3684C74.0885 73.0975 78.4812 69.1306 83.8936 66.277C84.1579 66.139 84.4854 66.2723 84.5742 66.5577C84.897 67.5985 85.1099 68.7821 85.021 70.3702C85.007 70.6205 85.1894 70.8497 85.4397 70.8731C86.5811 70.976 87.8675 70.4802 89.2242 69.699C89.4347 69.5773 89.7013 69.6335 89.8463 69.8276L92.8543 73.839C93.0203 74.0612 92.9642 74.3769 92.7303 74.529C89.8066 76.4329 87.3951 80.8139 85.1262 85.8684C85.1145 85.8942 85.1052 85.9199 85.0982 85.948V85.9433Z" fill="#1D1D1B" fill-opacity="0.5"/>
<path d="M81.7627 89.5477L80.509 92.2936C76.2193 90.3102 76.0135 86.7806 75.7328 83.2768C77.1572 86.7572 78.9162 89.4471 81.7627 89.5477Z" fill="#1D1D1B" fill-opacity="0.5"/>
<path d="M87.7366 99.5796L89.5283 97.0114C92.1106 99.1095 93.9046 101.526 94.3654 104.477H91.5586C91.0276 102.934 89.6523 101.289 87.7366 99.5796Z" fill="#1D1D1B" fill-opacity="0.5"/>
</g>
<path d="M50.4717 102.564C50.3758 88.9325 48.7222 80.7297 45.1575 74.6763C40.1919 67.5869 38.0891 61.8329 39.2446 57.597C40.269 52.0395 43.8407 49.2842 47.4848 46.6084C45.4242 48.9614 43.5062 51.518 42.1706 54.9095C40.5146 59.239 40.9637 64.193 45.754 70.4357C48.6988 74.7559 50.1887 80.2993 50.4717 86.8578C50.9068 91.8773 50.6822 97.2243 50.4717 102.564Z" fill="white"/>
<path d="M95.9184 62.972C96.6785 62.4644 96.9779 61.6318 97.0481 60.64C97.0504 60.6026 97.0598 60.5628 97.0715 60.5278C97.6749 58.7899 96.4797 55.8077 94.5126 51.6887C94.4682 51.5951 94.4542 51.4899 94.4729 51.3893L95.6283 45.4295C95.633 45.4062 95.6353 45.3804 95.6377 45.3547C95.7897 42.3795 94.6366 39.4511 91.7503 36.5835C91.631 36.4642 91.5795 36.2934 91.617 36.1297C92.5947 31.8002 93.1467 28.4087 92.8426 26.9141C92.8239 26.8252 92.7771 26.7503 92.7139 26.6848C91.3877 25.3259 91.1328 22.1472 91.3199 18.22C91.3971 16.412 90.7632 14.2577 89.4791 11.7924C89.4721 11.7784 89.4651 11.7644 89.4557 11.7503C86.1063 6.3075 80.4974 4.14159 72.5869 5.30174C68.3463 5.8514 65.2284 8.67457 63.0789 13.4602C63.0602 13.4999 63.0485 13.5467 63.0414 13.5888C62.4941 17.3359 59.7294 18.8936 56.0923 19.593C55.7648 19.6562 55.5146 19.9181 55.4654 20.2479C55.4304 20.4865 55.5052 20.7274 55.6713 20.9052L57.3741 22.7179C57.4676 22.8185 57.5144 22.9541 57.5027 23.0921L57.4208 23.9716C57.4091 24.0979 57.3483 24.2149 57.2501 24.2967L56.8221 24.837C56.6232 25.0031 56.4619 25.0943 56.4502 25.3539L56.4385 25.6182C56.4314 25.782 56.5086 25.9387 56.6443 26.0346L57.3437 26.5188L56.5461 26.8766C56.4314 26.9281 56.3426 27.0216 56.2958 27.1386L56.2209 27.3304C56.1531 27.5035 56.1905 27.7023 56.3192 27.838L56.525 28.0555C56.67 28.2075 56.6981 28.4367 56.5952 28.6192L55.8958 29.8682C55.8677 29.9173 55.849 29.9711 55.8397 30.0273C55.4888 32.1066 57.2033 33.2574 60.7516 33.5849C64.0612 33.8071 64.253 37.2735 63.4695 41.7573C63.4227 42.0216 63.1678 42.1947 62.9034 42.1433C58.5786 41.2802 56.0829 42.9408 54.9859 46.5172C54.9696 46.5733 54.9415 46.6271 54.9041 46.6739L52.8341 49.2608C52.8177 49.2819 52.8013 49.2982 52.7826 49.317C48.6777 53.0219 45.078 56.8088 46.2825 61.4049C46.2942 61.4517 46.313 61.4938 46.3387 61.5359C49.6554 66.9717 52.1207 74.0542 53.344 83.5458C53.344 83.5622 53.3486 83.5809 53.3486 83.5973C53.5896 92.2843 53.503 99.9796 52.6633 105.397C52.6165 105.694 52.8528 105.956 53.1522 105.949L86.3729 104.952C86.4127 104.952 86.4524 104.955 86.4899 104.964L86.8898 105.053L83.8328 101.02C83.6901 100.831 83.7065 100.569 83.8702 100.401C89.72 94.3052 95.3383 86.086 100.807 76.4891C101.796 74.9406 99.6163 70.1317 95.785 63.6222C95.6541 63.4024 95.7195 63.117 95.9324 62.9743L95.9184 62.972ZM85.0982 85.9433C84.1205 89.9032 82.4785 93.2854 80.4015 96.2863C80.212 96.56 79.8074 96.5693 79.6156 96.2957C78.6963 94.9812 76.5328 92.7825 74.2008 90.4622C74.1891 90.4505 74.1751 90.4388 74.161 90.4271C71.7121 88.5209 70.1122 85.7141 71.787 79.4198C71.7916 79.4035 71.7963 79.3847 71.8033 79.3684C74.0885 73.0975 78.4812 69.1306 83.8936 66.277C84.1579 66.139 84.4854 66.2723 84.5742 66.5577C84.897 67.5985 85.1099 68.7821 85.021 70.3702C85.007 70.6205 85.1894 70.8497 85.4397 70.8731C86.5811 70.976 87.8675 70.4802 89.2242 69.699C89.4347 69.5773 89.7013 69.6335 89.8463 69.8276L92.8543 73.839C93.0203 74.0612 92.9642 74.3769 92.7303 74.529C89.8066 76.4329 87.3951 80.8139 85.1262 85.8684C85.1145 85.8942 85.1052 85.9199 85.0982 85.948V85.9433Z" fill="white"/>
<path d="M81.7627 89.5477L80.509 92.2936C76.2193 90.3102 76.0135 86.7806 75.7328 83.2768C77.1572 86.7572 78.9162 89.4471 81.7627 89.5477Z" fill="white"/>
<path d="M87.7366 99.5796L89.5283 97.0114C92.1106 99.1095 93.9046 101.526 94.3654 104.477H91.5586C91.0276 102.934 89.6523 101.289 87.7366 99.5796Z" fill="white"/>
<path d="M140.17 122.034V116.481C108 98.5 65.5 97 23 110.5C51.4998 110.5 104 107 140.17 122.034Z" fill="#9372FE"/>
<path d="M-0.169861 119.585V140.089H140.17V122.032C117.535 99.2194 34.1689 98.9808 -0.169861 119.583V119.585Z" fill="url(#paint0_linear_2772_36)"/>
<path d="M54.9018 121.29C56.193 122.385 57.3484 118.946 57.8583 118.133C59.3693 115.728 60.4102 115.396 62.4732 117.662C65.3384 120.808 68.9569 129.624 64.9197 132.903C63.2474 134.262 60.6885 134.295 59.802 132.073C58.8922 129.79 60.4616 129.879 61.1189 128.576C61.9095 127.007 61.3575 124.481 60.3587 123.108C58.2747 120.242 57.3554 124.616 55.1287 124.324C53.599 124.123 53.2949 120.67 51.2834 121.718C49.8122 122.485 49.2274 125.84 49.4637 127.346C49.5947 128.174 50.4484 129.353 50.4484 130.017C50.4507 132.103 47.003 133.404 45.4921 131.668C43.7308 129.647 44.9003 123.437 45.9435 121.105C46.7621 119.274 49.4099 114.98 51.8588 116.364C53.3838 117.225 53.9101 120.448 54.9018 121.29Z" fill="white"/>
<path d="M30.316 121.29C31.6071 122.385 32.7626 118.946 33.2725 118.133C34.7835 115.728 35.8244 115.396 37.8873 117.662C40.7526 120.808 44.371 129.624 40.3339 132.903C38.6616 134.262 36.1027 134.295 35.2162 132.073C34.3063 129.79 35.8758 129.879 36.5331 128.576C37.3236 127.007 36.7716 124.481 35.7729 123.108C33.6888 120.242 32.7696 124.616 30.5429 124.324C29.0132 124.123 28.7091 120.67 26.6976 121.718C25.2264 122.485 24.6416 125.84 24.8779 127.346C25.0088 128.174 25.8626 129.353 25.8626 130.017C25.8649 132.103 22.4172 133.404 20.9062 131.668C19.145 129.647 20.3145 123.437 21.3577 121.105C22.1763 119.274 24.8241 114.98 27.273 116.364C28.798 117.225 29.3243 120.448 30.316 121.29Z" fill="white"/>
<path d="M112.046 128.527C111.636 128.63 112.097 129.687 112.233 129.916C112.82 130.901 114.09 131.184 115.161 130.943C115.856 130.787 116.132 130.022 116.813 129.973C118.078 129.881 119.594 130.312 120.89 129.928C120.019 134.627 112.125 134.913 108.996 132.452C107.866 131.563 107.281 130.45 106.961 129.056C105.546 122.906 111.424 119.307 116.958 121.159C119.269 121.933 120.541 123.374 121.156 125.72C121.301 126.272 121.575 127.62 121.558 128.129C121.554 128.295 121.437 128.525 121.329 128.525H112.046V128.527ZM116.513 125.898C116.162 123.07 112.081 122.93 111.784 125.898H116.513Z" fill="white"/>
<path d="M76.0487 116.261V129.753H83.9311V133.783H70.2667V116.261H76.0487Z" fill="white"/>
<path d="M96.8049 120.993C97.1137 121.091 97.3195 122.425 97.4294 122.787C97.5136 123.063 97.5674 123.257 97.668 123.627C98.082 125.147 98.4352 126.705 98.8632 128.221C98.9357 128.48 99.0504 128.801 99.3427 128.878C99.5883 128.022 101.279 120.993 101.71 120.993H106.177L101.981 133.703C101.169 133.75 96.5851 133.982 96.2787 133.612L92.0661 121.351C91.9117 121.243 92.2322 120.995 92.2532 120.995H96.8073L96.8049 120.993Z" fill="white"/>
<path d="M90.5879 120.993H85.5076V133.783H90.5879V120.993Z" fill="white"/>
<path d="M90.5878 115.735V119.152C90.5878 119.171 90.3446 119.414 90.3259 119.414H85.7719C85.7531 119.414 85.5099 119.171 85.5099 119.152V115.735H90.5902H90.5878Z" fill="white"/>
</g>
</g>
<defs>
<filter id="filter0_f_2772_36" x="-59.5754" y="-54" width="158.492" height="286.297" filterUnits="userSpaceOnUse" color-interpolation-filters="sRGB">
<feFlood flood-opacity="0" result="BackgroundImageFix"/>
<feBlend mode="normal" in="SourceGraphic" in2="BackgroundImageFix" result="shape"/>
<feGaussianBlur stdDeviation="10" result="effect1_foregroundBlur_2772_36"/>
</filter>
<filter id="filter1_f_2772_36" x="-48" y="-33" width="250" height="157.5" filterUnits="userSpaceOnUse" color-interpolation-filters="sRGB">
<feFlood flood-opacity="0" result="BackgroundImageFix"/>
<feBlend mode="normal" in="SourceGraphic" in2="BackgroundImageFix" result="shape"/>
<feGaussianBlur stdDeviation="10" result="effect1_foregroundBlur_2772_36"/>
</filter>
<filter id="filter2_f_2772_36" x="-24" y="-21" width="229" height="211" filterUnits="userSpaceOnUse" color-interpolation-filters="sRGB">
<feFlood flood-opacity="0" result="BackgroundImageFix"/>
<feBlend mode="normal" in="SourceGraphic" in2="BackgroundImageFix" result="shape"/>
<feGaussianBlur stdDeviation="25" result="effect1_foregroundBlur_2772_36"/>
</filter>
<filter id="filter3_f_2772_36" x="34.935" y="0.997978" width="70.1096" height="108.951" filterUnits="userSpaceOnUse" color-interpolation-filters="sRGB">
<feFlood flood-opacity="0" result="BackgroundImageFix"/>
<feBlend mode="normal" in="SourceGraphic" in2="BackgroundImageFix" result="shape"/>
<feGaussianBlur stdDeviation="2" result="effect1_foregroundBlur_2772_36"/>
</filter>
<linearGradient id="paint0_linear_2772_36" x1="-0.169861" y1="122.3" x2="140.17" y2="122.3" gradientUnits="userSpaceOnUse">
<stop stop-color="#FF6B31"/>
<stop offset="1" stop-color="#FF1E2B"/>
</linearGradient>
<clipPath id="clip0_2772_36">
<rect width="140" height="140" rx="30" fill="white"/>
</clipPath>
<clipPath id="clip1_2772_36">
<rect width="140.34" height="135.089" fill="white" transform="translate(-0.169861 5)"/>
</clipPath>
</defs>
</svg>
