<svg width="140" height="140" viewBox="0 0 140 140" fill="none" xmlns="http://www.w3.org/2000/svg">
<rect width="140" height="140" rx="30" fill="#2853C3"/>
<g clip-path="url(#clip0_846_3820)">
<path d="M65.9867 77.2102C66.6217 74.7583 67.2632 72.3085 67.8861 69.8533C67.9829 69.4709 68.0401 69.0677 68.0401 68.6733C68.0489 58.9071 68.0467 49.141 68.0467 39.3738C68.0467 38.5827 68.05 38.598 68.8215 38.4701C72.2218 37.9063 75.62 37.3283 79.0214 36.7645C82.2061 36.2367 85.3941 35.7341 88.5777 35.1976C91.4014 34.7223 94.2163 34.2 97.0401 33.7291C99.1793 33.3729 101.302 32.8801 103.502 33.0112C104.63 33.0779 105.357 33.4701 105.701 34.5475C105.929 35.2632 106.009 36.0313 106.105 36.782C106.161 37.2092 106.115 37.6496 106.115 38.1697C106.698 38.1412 107.238 38.0888 107.777 38.0943C109.112 38.1074 110.461 38.0331 111.776 38.2046C113.608 38.4428 114.808 39.8731 114.899 41.8071C114.949 42.8713 114.844 43.9454 114.767 45.0119C114.654 46.5678 114.501 48.1216 114.368 49.6764C114.231 51.2673 114.096 52.8571 113.965 54.448C113.923 54.9506 113.899 55.4554 113.866 55.9821C114.93 56.3274 115.972 56.2498 117.009 55.993C117.699 55.8226 118.391 55.6478 119.061 55.4172C120.752 54.8348 122.522 54.7015 124.278 54.5092C125.686 54.3551 126.691 55.0031 127.275 56.2487C127.852 57.4823 128.148 58.7717 127.927 60.1571C127.781 61.0684 127.717 61.995 127.639 62.9161C127.474 64.8719 126.372 66.2388 124.824 67.3097C122.845 68.6777 120.619 69.4895 118.294 70.0358C116.414 70.4783 114.521 70.8619 112.629 71.2563C112.239 71.3372 112.078 71.4792 112.038 71.9217C111.827 74.2327 111.55 76.5371 111.312 78.8459C111.074 81.1361 110.861 83.4296 110.624 85.7198C110.425 87.6494 110.201 89.5768 110.001 91.5065C109.799 93.4547 109.691 95.416 109.393 97.3489C109.142 98.9704 108.788 100.596 108.274 102.152C107.752 103.734 106.364 104.264 104.787 104.295C103.285 104.324 101.783 104.307 100.28 104.297C99.9628 104.295 99.8506 104.385 99.7273 104.716C99.2916 105.892 99.0605 107.194 97.9633 108.027C97.2425 108.576 96.4095 108.858 95.5204 108.881C93.0488 108.944 90.575 108.993 88.1023 108.994C72.18 109.001 56.2588 109.001 40.3365 108.987C35.4088 108.982 30.481 108.928 25.5521 108.89C23.6109 108.874 22.0637 107.361 22.001 105.436C21.9966 105.309 22.001 105.181 22.001 105.053C22.001 86.63 21.9988 68.2067 22.0153 49.7835C22.0153 49.3562 22.2035 48.9181 22.3586 48.5051C22.4731 48.2035 22.6943 47.9434 22.8395 47.6506C23.5801 46.1471 24.8929 45.4992 26.4688 45.2479C29.1527 44.8206 31.8367 44.3934 34.5229 43.9782C37.0099 43.5925 39.5002 43.2221 41.9894 42.8451C44.5501 42.4583 47.1119 42.0715 49.6727 41.6847C50.9349 41.4935 52.1993 41.3121 53.4571 41.0969C53.6519 41.063 53.894 40.9089 53.9875 40.7407C55.5193 38.0134 57.0588 35.2894 58.5378 32.5337C59.5899 30.5735 61.6598 29.6098 63.831 30.1496C64.96 30.4304 66.056 30.7626 66.8781 31.6454C67.0585 31.8388 67.206 32.0628 67.3414 32.301C66.3543 31.6552 65.2714 31.2368 64.1215 31.2138C61.9844 31.1712 60.4306 32.2147 59.4215 34.0569C57.4374 37.6769 55.4676 41.3034 53.4923 44.9277C44.1749 62.0267 34.8695 79.1344 25.5202 96.218C24.1512 98.7191 25.2132 101.839 27.5868 103.019C29.3101 103.875 30.8892 104.041 32.4629 102.893C32.9163 102.562 33.3124 102.072 33.5721 101.572C40.396 88.4438 47.1989 75.3035 54.0051 62.1665C55.0736 60.1047 56.1444 58.0439 57.3053 55.9919V56.5601C57.3053 68.5815 57.3505 80.604 57.2734 92.6243C57.2547 95.5843 59.153 97.2112 61.2856 97.8362C63.7121 98.5475 65.6731 97.8373 67.1345 95.7908C67.3667 95.4652 67.5802 95.1122 67.8685 94.8402C68.7136 94.0436 69.1846 93.0198 69.7062 92.0211C73.6909 84.402 77.6822 76.7862 81.6713 69.1704C81.7637 68.9945 81.8573 68.8197 82.0421 68.6471V69.1956C82.0421 76.1427 82.0521 83.0909 82.0366 90.0379C82.0311 92.2866 83.0832 93.8612 85.0805 94.7899C87.1152 95.7361 89.0718 95.4531 90.8578 94.119C92.2113 93.1083 92.7979 91.7305 92.7968 90.0522C92.7869 76.1033 92.7913 62.1534 92.7913 48.2046C92.7913 45.3244 90.5673 43.1347 87.6577 43.0735C85.1168 43.0189 83.5068 44.3814 82.3855 46.4356C80.6688 49.5781 79.0181 52.7566 77.3411 55.9209C73.5787 63.0199 69.8185 70.1189 66.0571 77.2178C66.034 77.2146 66.0109 77.2124 65.9867 77.2091V77.2102ZM106.092 38.5455C104.085 58.6799 102.09 78.694 100.086 98.7999C100.599 98.7683 101.047 98.7497 101.492 98.7136C103.132 98.5814 103.774 98.069 104.078 96.6343C104.15 96.2989 104.184 95.9536 104.225 95.6116C104.426 93.9202 104.628 92.2287 104.82 90.5362C105.029 88.6995 105.234 86.8616 105.433 85.0227C105.597 83.5093 105.747 81.9938 105.907 80.4794C106.076 78.8929 106.257 77.3074 106.421 75.7209C106.585 74.1344 106.731 72.5446 106.893 70.958C107.061 69.3343 107.244 67.7139 107.411 66.0902C107.575 64.4851 107.715 62.8778 107.881 61.2727C108.083 59.3071 108.305 57.3436 108.509 55.3779C108.708 53.4482 108.89 51.5164 109.085 49.5868C109.302 47.4583 109.577 45.3342 109.725 43.2013C109.786 42.3152 109.74 41.3624 109.115 40.6106C108.34 39.6797 107.306 39.1082 106.091 38.5455H106.092ZM124.566 61.2782C124.566 59.1508 122.862 57.443 120.713 57.4179C118.562 57.3927 116.785 59.1355 116.783 61.2695C116.781 63.4427 118.499 65.1877 120.638 65.1866C122.836 65.1855 124.566 63.4635 124.566 61.2782Z" fill="white"/>
<path d="M122.741 61.2707C122.71 62.3447 121.655 63.3893 120.611 63.3784C119.61 63.3675 118.574 62.254 118.608 61.2269C118.641 60.2173 119.704 59.1979 120.704 59.2154C121.714 59.2329 122.769 60.296 122.741 61.2707Z" fill="white"/>
</g>
<defs>
<clipPath id="clip0_846_3820">
<rect width="106" height="79" fill="white" transform="translate(22 30)"/>
</clipPath>
</defs>
</svg>
