<svg width="140" height="140" viewBox="0 0 140 140" fill="none" xmlns="http://www.w3.org/2000/svg">
<rect width="140" height="140" rx="30" fill="#A50064"/>
<path d="M98.1781 25.0031C86.4754 25.0031 76.9895 34.0942 76.9895 45.2976C76.9895 56.5009 86.5 65.5921 98.1781 65.5921C109.856 65.5921 119.391 56.5009 119.391 45.2976C119.391 34.0942 109.905 25.0031 98.1781 25.0031ZM98.1781 53.9563C93.2993 54.046 89.2701 50.176 89.1753 45.3101C89.4363 40.3508 93.6783 36.5411 98.6507 36.8013C103.258 37.0427 106.94 40.7144 107.181 45.3101C107.087 50.1764 103.057 54.046 98.1785 53.9563H98.1781ZM70.9339 40.2458V65.6786H58.6989V40.1223C58.6977 38.144 57.089 36.5411 55.1053 36.5423C53.1236 36.5435 51.5173 38.1456 51.5161 40.1223V65.6786H39.3307V40.1223C39.3295 38.144 37.7208 36.5411 35.7371 36.5423C33.7554 36.5435 32.1491 38.1456 32.1479 40.1223V65.6786H20V40.2458C20.1895 31.6602 27.305 24.845 35.9129 25.0035C39.3355 24.9966 42.6731 26.0686 45.4484 28.0666C48.2213 26.073 51.5532 25.0014 54.9714 25.0035C63.5959 24.8241 70.7379 31.6437 70.9339 40.2458ZM98.1781 74.3249C86.4754 74.3249 76.9895 83.4036 76.9895 94.6194C76.9895 105.835 86.5 114.951 98.1781 114.951C109.856 114.951 119.367 105.872 119.367 94.6689C119.367 83.4655 109.905 74.3253 98.1781 74.3253V74.3249ZM98.1781 103.278C93.394 103.094 89.6657 99.0763 89.8504 94.3048C90.0351 89.5334 94.0631 85.8142 98.8467 85.9985C103.498 86.1775 107.178 89.9891 107.181 94.6319C107.113 99.5023 103.1 103.396 98.2172 103.328C98.2039 103.328 98.191 103.328 98.1777 103.328V103.278H98.1781ZM70.9339 89.6167V115H58.6989V89.4807C58.6977 87.5025 57.089 85.8995 55.1053 85.9007C53.1236 85.9019 51.5173 87.5041 51.5161 89.4807V115H39.3307V89.4807C39.3295 87.5025 37.7208 85.8995 35.7371 85.9007C33.7554 85.9019 32.1491 87.5041 32.1479 89.4807V115H20V89.6167C20.1557 81.0158 27.2723 74.1692 35.8952 74.3245C35.9012 74.3245 35.9069 74.3245 35.9129 74.3245C39.3335 74.3188 42.6694 75.3864 45.4484 77.3755C48.2217 75.3844 51.5544 74.3164 54.9714 74.3245C63.6007 74.1386 70.7468 80.9655 70.9331 89.5728C70.9331 89.5873 70.9335 89.6018 70.9339 89.6163V89.6167Z" fill="white"/>
</svg>
