<svg width="140" height="140" viewBox="0 0 140 140" fill="none" xmlns="http://www.w3.org/2000/svg">
<rect width="140" height="140" rx="30" fill="#3D82EF"/>
<g clip-path="url(#clip0_700_1522)">
<path d="M85.9034 92.8397C85.6684 93.1606 85.4816 93.4013 85.3054 93.6528C83.1536 96.809 81.0392 99.9865 78.85 103.111C76.6128 106.304 73.5534 108.086 69.5969 107.909C65.9928 107.749 63.2003 105.994 61.1553 103.052C58.9128 99.8261 56.7129 96.5736 54.4917 93.3372C54.3956 93.1927 54.2782 93.0643 54.0165 92.7273C53.8243 93.0215 53.6908 93.2837 53.5039 93.4923C50.3377 97.0015 47.1821 100.522 43.9838 104.004C42.1631 105.983 39.9205 107.283 37.2669 107.807C32.4828 108.754 27.1914 106.304 24.7139 102.035C23.5553 100.035 23 97.9216 23 95.616C23.0214 78.9043 23.0107 62.1925 23.0267 45.4861C23.0267 44.3092 22.9786 43.1109 23.1922 41.9661C24.463 35.1456 31.1639 30.7804 37.8809 32.3799C40.5025 33.0058 42.6223 34.4822 44.4216 36.4936C48.8747 41.474 53.3544 46.4276 57.8342 51.3812C61.5718 55.511 65.336 59.6194 69.079 63.7492C69.3566 64.0595 69.5648 64.4286 69.8211 64.7924C71.6419 62.7649 73.249 60.9621 74.8722 59.1754C80.5426 52.9272 86.2077 46.6844 91.8888 40.4469C93.4586 38.7244 94.9537 36.9216 96.6569 35.3435C99.9193 32.321 103.806 31.2832 108.105 32.5029C113.353 33.9901 116.915 38.7244 116.941 44.1915C116.989 54.3662 116.947 64.5463 116.952 74.721C116.952 81.6539 116.904 88.5868 116.995 95.5197C117.091 102.736 111.036 108.321 104.308 107.92C101.233 107.738 98.5097 106.593 96.3846 104.32C92.9941 100.682 89.673 96.9855 86.3199 93.3158C86.2024 93.1874 86.0849 93.059 85.898 92.845L85.9034 92.8397ZM65.1064 69.976C64.6045 69.4892 64.1507 69.0933 63.7502 68.6547C56.2484 60.3576 48.7519 52.0553 41.25 43.7636C40.2676 42.6776 39.2691 41.6024 38.2173 40.586C36.8984 39.3128 35.2913 39.04 33.588 39.6124C31.8847 40.1848 30.7368 41.3135 30.3577 43.1644C29.9946 44.9404 30.6994 46.3527 31.6712 47.7436C34.6185 51.9643 37.5338 56.2064 40.4545 60.4432C45.0197 67.0766 49.5795 73.7153 54.1447 80.3486C54.3422 80.6375 54.5772 80.8943 54.8388 81.2206C58.272 77.4599 61.6625 73.7527 65.1118 69.976H65.1064ZM85.0491 81.2473C85.1986 81.0815 85.284 81.012 85.3481 80.921C86.6456 79.0701 87.959 77.2245 89.2405 75.3629C93.9071 68.5851 98.5738 61.802 103.23 55.0135C105.147 52.2157 107.085 49.4233 108.905 46.5613C110.208 44.5125 109.717 41.8431 107.96 40.4843C105.835 38.8367 103.331 38.949 101.457 40.8C100.891 41.3617 100.341 41.9447 99.8018 42.5332C92.6844 50.3702 85.5723 58.2071 78.4603 66.0495C77.2749 67.3601 76.1056 68.6921 74.8669 70.083C78.2627 73.8062 81.6372 77.5081 85.0491 81.2527V81.2473ZM30.2349 58.5763C30.2349 59.6141 30.2349 60.4486 30.2349 61.2777C30.2242 69.0345 30.2082 76.7859 30.2082 84.5426C30.2082 88.4745 30.2509 92.4063 30.2829 96.3382C30.2883 97.253 30.5766 98.0714 31.1586 98.799C33.0648 101.163 36.3859 101.383 38.5216 99.2216C39.488 98.2426 40.3423 97.162 41.2714 96.1456C43.6688 93.5297 46.0822 90.9245 48.4849 88.3086C48.9174 87.8379 49.6382 87.3564 49.6596 86.8589C49.6863 86.3133 49.0776 85.7195 48.7038 85.1792C42.8198 76.6254 36.9251 68.0716 31.0304 59.5231C30.8275 59.2289 30.5659 58.9721 30.2295 58.5763H30.2349ZM109.658 58.7581L109.434 58.6779C102.984 68.0876 96.5341 77.4974 90.0841 86.9071C90.3191 87.1211 90.5273 87.2869 90.7088 87.4795C93.0101 90.0044 95.3007 92.5401 97.6073 95.065C98.9529 96.5415 100.261 98.05 101.681 99.4569C103.043 100.8 104.778 101.014 106.513 100.436C108.249 99.8582 109.37 98.601 109.578 96.6966C109.642 96.0814 109.637 95.4555 109.637 94.835C109.648 83.1036 109.653 71.3722 109.664 59.6408C109.664 59.3466 109.664 59.0577 109.664 58.7635L109.658 58.7581ZM69.8425 75.2559C69.725 75.4699 69.6556 75.7053 69.5061 75.8658C66.1476 79.589 62.7892 83.3122 59.4093 87.0194C59.121 87.335 59.2118 87.5276 59.4093 87.8111C61.6358 91.069 63.8517 94.3375 66.0889 97.5953C66.5748 98.3068 67.0713 99.029 67.664 99.6495C69.1163 101.169 71.3749 100.992 72.6136 99.2965C73.0087 98.7615 73.3505 98.1891 73.7296 97.6381C76.0789 94.2252 78.4336 90.8175 80.8203 87.3511C77.2269 83.3925 73.6281 79.4178 69.8425 75.2506V75.2559Z" fill="#F5F6F8"/>
</g>
<defs>
<clipPath id="clip0_700_1522">
<rect width="94" height="76" fill="white" transform="translate(23 32)"/>
</clipPath>
</defs>
</svg>
