<svg width="140" height="140" viewBox="0 0 140 140" fill="none" xmlns="http://www.w3.org/2000/svg">
<rect width="140" height="140" rx="30" fill="white"/>
<path d="M115.388 51.6138V59.8766H111.614V80.6129L111.734 80.7326H120.206V74.3156H128.316V88.9954H95.7939V80.7326H99.528L99.6485 80.6129V59.8766H95.7939V51.6138H115.388Z" fill="#FE1D45"/>
<path d="M28.3807 51.6138L34.5951 72.5844L34.9675 72.6366L42.0728 51.6138H57.4107V59.8758H53.6363V80.7326H57.4107V88.9947H42.8763V73.8337L41.9038 73.8815L37.0563 88.9168L33.0483 88.9998L28.2485 73.9674C28.0899 73.7052 27.5023 73.8829 27.2181 73.8337V88.9947H12.6836V80.7326H16.5381V59.8758H12.6836V51.6138H28.3829H28.3807Z" fill="#FE1D45"/>
<path d="M75.8 51.6138L70.1115 66.5096L70.6609 67.3366H77.808V88.9954H61.9082V80.7326H65.7627V59.8766H61.9082V51.6138H75.8Z" fill="#FE1D45"/>
<path d="M77.8066 51.6137C81.2403 51.4778 84.3809 51.6012 87.3871 53.3941C95.7843 58.4017 95.3994 71.996 86.267 75.9886C84.2083 76.8883 82.0526 77.1454 79.8147 77.1226L85.4789 62.0447L84.8333 61.3205H77.8066V51.6144V51.6137Z" fill="#FE1D45"/>
</svg>
