<svg width="140" height="140" viewBox="0 0 140 140" fill="none" xmlns="http://www.w3.org/2000/svg">
<rect width="140" height="140" rx="30" fill="#00A151"/>
<g clip-path="url(#clip0_839_1353)">
<path d="M78.8261 31C80.1814 31.319 80.9577 32.1302 81.0597 33.5603C81.0764 33.7959 81.2705 34.0204 81.3913 34.246C81.8461 35.0972 81.6198 35.6206 80.7071 35.9217C80.4376 36.0106 80.0949 36.1517 79.9751 36.3718C79.6657 36.9418 79.9296 37.393 80.6882 37.6819C80.9766 37.7919 81.2937 37.8364 81.6021 37.8764C82.2043 37.9553 82.5326 38.2153 82.8509 38.8154C83.3133 39.6866 84.0764 40.4033 84.7429 41.1579C85.4705 41.9824 86.3255 42.7114 86.9511 43.6037C87.3803 44.216 87.3692 44.9361 86.6328 45.4895C85.2398 46.5363 84.0087 47.8053 82.3873 48.5332C82.3396 48.5543 82.2542 48.5798 82.2542 48.6054C82.2409 49.2255 81.6309 49.6822 81.7939 50.3556C81.876 50.6945 81.8838 51.0501 81.9448 51.3935C82.0102 51.7602 81.8538 52.0213 81.6864 52.3436C81.4457 52.8092 81.3758 53.3771 81.2993 53.9116C80.9 56.6997 80.5518 59.4955 80.1115 62.277C80.0095 62.9248 80.1714 63.3793 80.5507 63.8283C80.8002 64.1239 81.0553 64.4139 81.3093 64.705C81.7784 65.244 82.2575 65.7596 83.0827 65.4396C83.0971 65.434 83.1181 65.4496 83.1359 65.4518C84.4279 65.6318 84.8782 65.7463 84.2616 67.1331C83.818 68.1321 84.0109 69.14 83.8657 70.1623C85.8819 67.2931 88.5814 65.6885 92.0838 65.4784C95.584 65.2684 98.3976 66.6275 100.778 69.17C100.325 67.462 99.8727 65.754 99.4047 63.9849C101.216 63.5016 102.982 63.0293 104.772 62.5526C104.971 63.2726 105.146 63.906 105.3 64.465C105.727 63.776 106.081 62.9915 106.624 62.3703C107.994 60.7968 109.85 60.2345 111.866 60.1734C113.472 60.1245 115.01 60.3779 116.357 61.3813C117.511 62.2414 118.286 63.3871 118.709 64.7117C119.307 66.5841 119.767 68.5032 120.241 70.4124C120.821 72.7548 121.344 75.1107 121.917 77.4554C122.037 77.9443 121.972 78.1532 121.431 78.2833C119.893 78.6544 118.374 79.1034 116.848 79.5201C116.69 79.5634 116.53 79.5923 116.317 79.6401C115.974 78.3699 115.637 77.1298 115.305 75.8874C114.658 73.4671 114.028 71.0413 113.358 68.6266C113.121 67.7754 112.814 66.9231 112.11 66.3285C111.099 65.474 109.384 65.5485 108.143 66.4019C106.855 67.2887 106.624 68.5588 106.935 69.9256C107.426 72.0792 108.043 74.205 108.612 76.3419C109.057 78.011 109.511 79.6779 109.978 81.4092C108.055 81.9359 106.183 82.4482 104.247 82.9782C103.767 81.1758 103.295 79.4045 102.795 77.5254C101.675 81.7803 99.5688 85.0907 95.1237 86.1553C90.8206 87.1854 87.1828 85.8719 84.1762 82.5138C83.5451 85.3941 82.2952 87.8699 79.9307 89.6179C77.5485 91.3792 74.8302 91.8537 71.9588 91.3437C69.1152 90.8381 66.8228 89.3634 65.1847 86.9787C63.5533 84.6051 63.0697 81.9303 63.4457 79.0734C61.822 79.5801 61.0601 80.998 61.4938 82.7849C61.964 84.7184 62.5141 86.632 63.0298 88.5544C63.4923 90.2802 63.9559 92.0048 64.435 93.7895C62.5352 94.3118 60.6597 94.8274 58.7056 95.3641C56.9877 88.9278 55.2708 82.4971 53.5352 75.9919C55.4394 75.4774 57.327 74.9684 59.2601 74.4462C59.4043 74.9529 59.5329 75.4063 59.7026 76.0052C60.4379 74.0628 61.8076 73.0515 63.6908 72.5859C63.978 73.6627 64.2553 74.7062 64.5536 75.8274C67.2154 71.2747 71.1836 69.7801 76.2764 70.5868C76.2764 70.1445 76.3363 69.7189 76.2653 69.3178C76.0169 67.9032 76.1111 66.5319 76.6401 65.1906C76.8065 64.7673 76.7688 64.4139 76.344 64.0827C75.5034 63.4271 74.7259 62.6915 73.9119 62.0036C73.2997 61.4858 73.0645 60.8201 73.0779 60.0423C73.1011 58.6766 73.11 57.3097 73.1555 55.944C73.1777 55.2828 73.2686 54.6239 73.3296 53.9638C73.4294 52.9026 73.5237 51.8413 73.6335 50.7812C73.679 50.3445 73.7621 49.9111 73.8187 49.4755C73.8442 49.281 73.8708 49.0821 73.8553 48.8888C73.7488 47.5853 73.6379 46.2829 73.5148 44.9816C73.4849 44.666 73.4061 44.356 73.3496 44.0426C73.2952 44.0382 73.2409 44.0338 73.1854 44.0293C73.069 44.2471 72.9481 44.4627 72.8372 44.6827C72.0243 46.2873 71.2479 47.912 70.3906 49.4933C69.7385 50.6979 68.9721 51.8391 68.2912 53.0292C68.1902 53.2059 68.2912 53.4948 68.2889 53.7315C68.2834 54.1749 68.2978 54.6205 68.2435 55.0584C68.2291 55.1728 67.9906 55.2584 67.8553 55.3573C67.8098 55.1839 67.7389 55.0128 67.7289 54.8383C67.7222 54.7194 67.8032 54.5961 67.8664 54.4094C67.6257 54.3327 67.3917 54.2227 67.1477 54.1871C66.6342 54.1116 66.2305 54.2472 66.1518 54.8506C65.9888 56.1063 65.8024 57.3597 65.6804 58.6188C65.6594 58.841 65.8623 59.1255 66.032 59.3177C66.3348 59.6589 66.3237 59.9589 66.0387 60.2823C65.8324 60.5179 65.6649 60.8135 65.4121 60.9757C64.8553 61.3324 64.6967 61.8403 64.598 62.457C64.1566 65.2184 63.3803 67.8776 62.0638 70.3612C61.9385 70.5979 61.8387 70.8491 61.6878 71.1813C61.7466 68.7199 62.2279 66.4386 62.8657 64.1827C63.1318 63.2426 63.4335 62.307 63.6054 61.3491C63.7163 60.729 63.6331 60.0723 63.6143 59.4333C63.6043 59.1155 63.6819 58.9066 63.9614 58.6966C64.2398 58.4876 64.4915 58.1687 64.618 57.8453C64.9241 57.0586 65.1714 56.2463 65.3965 55.4317C65.4753 55.1484 65.4642 54.8183 65.4121 54.525C65.2668 53.7026 65.8867 52.4403 66.7496 51.9791C67.191 51.7435 67.4128 51.3968 67.5869 50.9434C68.2867 49.1255 68.9566 47.2908 69.7629 45.5195C70.5448 43.8015 71.1869 42.0535 71.6017 40.2133C71.7181 39.6977 71.9133 39.1865 72.1629 38.7209C72.3026 38.4598 72.5976 38.2353 72.8749 38.1053C73.6213 37.7564 74.4154 37.5086 75.1485 37.1374C75.5122 36.954 75.8028 36.6073 76.0912 36.3006C76.3252 36.0506 76.3873 35.7828 76.2209 35.4039C76.0413 34.996 75.9548 34.5049 75.9847 34.0604C76.0113 33.6626 75.8904 33.4025 75.6653 33.1247C75.2139 32.5669 75.3381 32.2157 76.0424 32.1313C76.4339 32.0846 76.6878 31.949 76.9451 31.6245C77.1747 31.3356 77.5984 31.2012 77.9366 30.9978C78.2316 30.9978 78.5278 30.9978 78.8228 30.9978L78.8261 31ZM88.7921 79.1556C88.822 79.26 88.8287 79.3134 88.8509 79.3589C89.6549 80.9525 90.9769 81.7914 92.7292 81.827C94.5071 81.8637 96.0376 81.2458 96.9159 79.589C97.2254 79.0045 97.618 78.7411 98.2246 78.5944C99.6342 78.251 101.034 77.8588 102.429 77.4598C102.62 77.4054 103.021 77.4609 102.899 77.0198C102.761 76.5142 102.626 76.0063 102.479 75.4563C97.8708 76.702 93.337 77.9277 88.7921 79.1556ZM83.1703 80.6246C78.8383 81.7848 74.513 82.9438 70.0679 84.1339C70.4061 84.6173 70.6446 85.0518 70.9684 85.4085C72.9292 87.5721 77.0461 87.2032 78.4612 84.3106C78.6387 83.9484 78.8483 83.7361 79.2531 83.6461C80.2401 83.4272 81.2172 83.1649 82.1965 82.9127C82.8609 82.7416 83.5218 82.5549 84.2028 82.3715C83.849 81.7737 83.5318 81.2369 83.1703 80.6246ZM96.5133 72.8482C95.6194 70.9557 93.3059 70.1056 91.14 70.7124C88.791 71.3702 87.5588 73.6583 87.845 75.1762C90.7318 74.4006 93.6165 73.6261 96.5145 72.8471L96.5133 72.8482ZM69.3925 80.1168C72.2682 79.3456 75.1374 78.5755 78.0087 77.8054C77.5307 76.3742 75.3658 74.9529 72.8782 75.603C70.5259 76.2175 69.1407 78.2977 69.3936 80.1168H69.3925ZM79.0579 67.3664C78.8527 67.9887 78.6365 68.5366 78.5 69.1044C78.4324 69.3845 78.4146 69.7489 78.5389 69.9879C78.9193 70.7168 79.3762 71.4058 79.8121 72.1059C79.8675 72.1948 79.974 72.2515 80.0572 72.3248C80.6494 72.8449 81.2461 73.3605 81.8305 73.8894C82.0069 74.0494 82.1477 74.2483 82.3241 74.4517C82.4827 73.7794 82.6257 73.1738 82.7766 72.5348C82.2287 72.3704 82.1311 71.897 82.2542 71.4447C82.5536 70.3379 82.2265 69.4589 81.5011 68.6277C81.1751 68.2543 80.9865 67.7598 80.7259 67.3031C80.3466 67.4853 80.0017 67.652 79.6546 67.8187C79.4727 67.6809 79.2986 67.5487 79.059 67.3676L79.0579 67.3664ZM81.978 42.4247C81.5289 43.5748 80.7259 44.4382 80.9111 45.6684C80.9799 46.124 81.3237 46.4274 81.7385 46.2707C82.7244 45.8962 83.5218 45.2839 84.0897 44.286C83.4098 43.6859 82.7422 43.0981 81.9791 42.4236L81.978 42.4247ZM77.0538 57.842C76.4405 58.9577 76.4583 59.7333 77.0538 60.1601V57.842Z" fill="white"/>
<path d="M17.9998 65.7373C19.7787 65.2706 21.5576 64.8039 23.3964 64.3216C23.5672 64.9628 23.7336 65.5929 23.9011 66.223C24.7584 63.8549 26.544 62.6625 28.894 62.1436C31.334 61.6046 33.3447 62.3903 35.0881 64.1149C35.3288 63.5926 35.5395 63.0793 35.7979 62.5903C36.9857 60.3323 38.9488 59.2121 41.3931 58.8443C43.639 58.5065 45.6109 59.1121 47.3033 60.6401C48.1783 61.4291 48.7384 62.4225 49.0767 63.5171C49.7188 65.594 50.2922 67.6931 50.8745 69.7878C51.3536 71.5102 51.7983 73.2415 52.2719 74.9651C52.365 75.3051 52.4216 75.5496 51.9647 75.6674C50.2212 76.1152 48.4855 76.593 46.6767 77.0775C46.4116 76.0785 46.1599 75.1062 45.8948 74.1361C45.2316 71.7025 44.6138 69.2555 43.8741 66.8452C43.5103 65.6596 42.7129 64.7272 41.3332 64.7439C39.9602 64.7606 38.7569 65.2328 38.0981 66.5652C37.7033 67.3642 37.7399 68.2321 37.9539 69.0588C38.8223 72.4092 39.7306 75.7496 40.639 79.1489C43.009 78.4788 45.3247 78.2477 47.5284 79.9779C47.3399 79.2656 47.1913 78.7033 47.0282 78.0854C48.9403 77.5643 50.8323 77.0475 52.7587 76.523C53.2001 78.1588 53.6327 79.7567 54.0619 81.3569C55.2419 85.753 56.4375 90.1446 57.5909 94.5473C58.0356 96.2464 58.3395 97.9744 58.0223 99.7435C57.7606 101.205 57.0275 102.428 56.0449 103.503C53.5517 106.23 50.3998 107.588 46.7676 107.947C44.4918 108.171 42.3791 107.741 40.4671 106.458C39.5366 105.833 38.819 104.996 38.2312 104.05C38.0992 103.836 38.0127 103.595 37.8752 103.304C39.1218 102.971 40.3074 102.655 41.4929 102.336C42.4168 102.088 43.3384 101.83 44.2656 101.595C44.3953 101.561 44.5994 101.581 44.687 101.664C46.0634 102.967 47.605 102.872 49.2064 102.207C51.765 101.145 52.4072 98.8412 51.8404 96.2909C51.7783 96.0097 51.6874 95.7341 51.5976 95.4096C51.236 96.0542 50.9654 96.6698 50.5772 97.201C49.6079 98.5289 48.2205 99.2268 46.66 99.599C44.2878 100.165 41.9887 99.9735 39.7928 98.86C37.1632 97.5277 35.5417 95.3496 34.6412 92.5993C33.9757 90.5658 33.7872 88.4733 34.2841 86.3797C34.507 85.4418 34.9595 84.5595 35.28 83.6427C35.3754 83.3694 35.473 83.0371 35.4031 82.776C34.3484 78.8233 33.2815 74.8751 32.1769 70.9368C31.9961 70.2934 31.7055 69.6445 31.3207 69.1022C30.2937 67.652 28.2242 67.5631 26.8501 68.8199C25.883 69.7056 25.69 70.8368 25.934 72.0136C26.2966 73.7605 26.7813 75.4829 27.2338 77.2109C27.7373 79.1356 28.263 81.0558 28.7765 82.9782C28.8231 83.1527 28.8508 83.3327 28.8963 83.555C27.9591 83.8139 27.0597 84.0672 26.158 84.3117C25.3062 84.5428 24.4456 84.7451 23.6005 84.9984C23.2534 85.1029 23.158 84.9996 23.0737 84.6795C22.243 81.5258 21.3979 78.3766 20.5562 75.2273C19.7332 72.1481 18.9081 69.0688 18.0818 65.9896C18.0685 65.9396 18.0264 65.8985 17.9976 65.8529C17.9976 65.8162 17.9976 65.7785 17.9976 65.7418L17.9998 65.7373ZM49.8131 89.3978C49.8652 86.4953 47.7048 84.0239 45.1462 83.9072C42.1584 83.7705 40.0379 86.0852 39.968 88.5933C39.8859 91.5525 42.1428 94.1406 44.8367 94.1095C47.6393 94.0773 49.7565 92.1415 49.8131 89.3978Z" fill="white"/>
<path d="M53.9359 55.7273C54.13 56.4163 54.3063 57.0419 54.5292 57.8342C54.8808 56.6018 55.3067 55.5673 56.2461 54.9139C56.9592 54.4182 57.7688 54.0615 58.6483 53.5815C59.225 55.7195 59.7584 57.6953 60.2852 59.6488C59.6176 59.9289 58.9788 60.16 58.371 60.4578C56.6864 61.2835 56.1551 62.5814 56.652 64.3861C57.4449 67.2619 58.2002 70.1489 58.9688 73.0315C58.9921 73.1193 58.9899 73.2126 59.0076 73.3715C57.1211 73.8883 55.2368 74.405 53.3093 74.9328C51.7311 69.0122 50.1629 63.1315 48.5747 57.1752C50.3581 56.6941 52.1215 56.2185 53.937 55.7284L53.9359 55.7273Z" fill="white"/>
<path d="M122.288 56.3385C122.526 57.2164 122.758 58.0643 123 58.9555C122.765 59.0244 122.541 59.0899 122.294 59.1633C122.151 58.6565 122.012 58.1654 121.873 57.6742C121.824 57.6764 121.775 57.6787 121.726 57.6809C121.726 58.0809 121.749 58.4821 121.715 58.8788C121.7 59.0466 121.563 59.2022 121.481 59.3644C121.328 59.2766 121.131 59.2233 121.03 59.0944C120.784 58.7832 120.582 58.4365 120.291 58.1409C120.433 58.6099 120.575 59.0788 120.73 59.5911C120.468 59.6578 120.244 59.7144 119.99 59.7789C119.766 58.8777 119.554 58.0231 119.346 57.183C120.124 56.7352 120.184 56.753 120.616 57.452C120.784 57.7264 120.967 57.9909 121.277 58.2221C121.277 57.9554 121.277 57.6875 121.277 57.4208C121.277 56.7993 121.614 56.4393 122.289 56.3407L122.288 56.3385Z" fill="white"/>
<path d="M117.058 57.7398C117.708 57.5542 118.285 57.3897 118.892 57.2164C118.952 57.4153 119.003 57.5864 119.059 57.7775C118.89 57.8587 118.747 57.9276 118.566 58.0142C118.735 58.6665 118.898 59.3011 119.079 60.0034C118.829 60.0789 118.598 60.1489 118.337 60.2278C118.201 59.7022 118.054 59.2288 117.962 58.7443C117.883 58.3298 117.737 58.0809 117.254 58.2887C117.186 58.0998 117.133 57.9487 117.059 57.7409L117.058 57.7398Z" fill="white"/>
</g>
<defs>
<clipPath id="clip0_839_1353">
<rect width="105" height="77" fill="white" transform="translate(18 31)"/>
</clipPath>
</defs>
</svg>
