<svg width="140" height="140" viewBox="0 0 140 140" fill="none" xmlns="http://www.w3.org/2000/svg">
<rect width="140" height="140" rx="30" fill="white"/>
<g clip-path="url(#clip0_856_4282)">
<path d="M99.3898 51.0302C99.2184 50.9977 99.0506 50.945 98.8791 50.9131C98.0008 50.75 97.1243 50.6016 96.2232 50.5986C95.0945 50.5949 93.9892 50.7286 92.8993 51.0094C92.7007 51.0609 92.5002 51.1075 92.3004 51.1541C92.2504 51.1657 92.1992 51.1737 92.1486 51.178C92.0586 51.1854 92.0148 51.1467 92.0099 51.0554C92.0068 50.994 92.0092 50.9327 92.0092 50.7985C92.1079 50.1301 92.2177 49.3949 92.6415 48.7475C92.9967 48.2042 93.4513 47.7744 94.0299 47.4752C94.6522 47.1533 95.311 46.9877 96.016 47.0006C96.8129 47.0159 97.5271 47.2685 98.176 47.7174C98.7108 48.0877 99.0993 48.5929 99.3985 49.154C99.6544 49.6359 99.7618 50.1736 99.7778 50.7212C99.7877 51.0443 99.7186 51.094 99.3898 51.0302Z" fill="#0086FB"/>
<path d="M102.292 54.7571C102.057 55.0318 101.737 55.1771 101.358 55.1231C101.134 55.0912 100.914 55.0391 100.699 54.9698C100.15 54.7926 99.592 54.662 99.027 54.5492C98.5021 54.4438 97.9742 54.3745 97.4431 54.3187C97.3413 54.3076 97.2383 54.3027 97.1359 54.3009C96.8275 54.2948 96.5197 54.2899 96.2113 54.2892C95.7703 54.2886 95.3293 54.2819 94.8895 54.3475C94.5349 54.4002 94.1753 54.426 93.8182 54.4646C93.1002 54.5425 92.4032 54.7074 91.7229 54.949C91.4231 55.0557 91.1166 55.144 90.81 55.2286C90.5516 55.2997 90.2963 55.3224 90.023 55.2427C89.5703 55.1103 89.2804 54.6406 89.3063 54.2316C89.2909 53.8521 89.458 53.5565 89.796 53.3548C89.9903 53.2389 90.1914 53.1371 90.406 53.0635C90.8625 52.9066 91.3251 52.7692 91.7914 52.6448C91.8611 52.6264 91.9314 52.6104 92.0017 52.5975C92.254 52.5509 92.5087 52.5154 92.7591 52.4584C93.2304 52.3517 93.7053 52.2677 94.1876 52.2346C94.6891 52.2002 95.1881 52.1285 95.6932 52.1432C96.1657 52.1561 96.6388 52.1407 97.1106 52.1561C97.4696 52.1677 97.8286 52.1972 98.1851 52.237C99.2392 52.3541 100.27 52.5834 101.288 52.8771C101.526 52.9458 101.751 53.047 101.973 53.1518C102.592 53.4437 102.759 54.2114 102.292 54.7571Z" fill="#0086FB"/>
<path d="M116.92 82.0553C116.841 81.7199 116.675 81.428 116.399 81.2079C116.302 81.1313 116.211 81.0485 116.113 80.9743C115.548 80.5475 114.932 80.195 114.35 79.7934C114.076 79.6045 113.774 79.4788 113.473 79.3494C113.199 79.2323 112.911 79.2053 112.628 79.2979C112.277 79.4132 111.936 79.5567 111.647 79.7989C111.286 80.1018 110.92 80.3991 110.559 80.7027C110.011 81.1662 109.436 81.5972 108.839 81.9964C108.174 82.4409 107.479 82.8364 106.78 83.2276C106.116 83.5998 105.423 83.9095 104.737 84.232C104.104 84.5294 103.426 84.7102 102.77 84.95C102.346 85.1051 101.905 85.2106 101.47 85.332C101.123 85.4288 100.77 85.4975 100.423 85.5883C99.7464 85.7661 99.0574 85.8838 98.3666 85.988C98.0218 86.0395 97.6709 86.0487 97.3261 86.1003C96.5415 86.218 95.7508 86.2468 94.9613 86.286C94.1089 86.3283 93.2564 86.2529 92.4047 86.2284C92.3633 86.2272 92.3226 86.221 92.2819 86.2168C91.9544 86.1836 91.6275 86.1511 91.3006 86.1174C90.6875 86.0537 90.0744 85.9905 89.4687 85.8715C89.3274 85.844 89.185 85.8237 89.0431 85.8004C88.81 85.7618 88.5774 85.725 88.3492 85.6582C88.1235 85.5913 87.8909 85.5429 87.6596 85.4975C87.0126 85.3712 86.381 85.1885 85.758 84.9782C85.2924 84.8206 84.8254 84.6642 84.3659 84.484C83.8022 84.262 83.2458 84.026 82.6938 83.7764C82.1411 83.5262 81.6224 83.2129 81.0963 82.9143C80.4264 82.5341 79.7936 82.097 79.1583 81.6641C78.7765 81.4041 78.4274 81.1012 78.0573 80.8265C77.7427 80.5935 77.4418 80.3464 77.1642 80.0754C76.4617 79.3893 75.7363 78.7258 75.1226 77.9514C74.7025 77.4223 74.2948 76.8845 73.8952 76.3401C73.7354 76.1224 73.7632 76.0316 74.0136 75.9213C74.2671 75.8097 74.5255 75.7091 74.7803 75.6C75.5297 75.2787 76.2279 74.8722 76.8681 74.3675C77.2 74.1063 77.4874 73.7998 77.7804 73.4993C78.4841 72.7801 79.0072 71.9401 79.4149 71.0289C79.809 70.1466 80.0527 69.2183 80.2112 68.2679C80.3913 67.1918 80.403 66.112 80.2692 65.0317C80.1402 63.9911 79.8682 62.9874 79.4457 62.0254C79.043 61.1093 78.5199 60.2724 77.8007 59.5654C77.6182 59.3851 77.4387 59.2024 77.2542 59.0252C76.9132 58.6972 76.5307 58.4206 76.1298 58.1717C75.7197 57.9166 75.2904 57.6977 74.8469 57.5046C74.3084 57.2704 73.7508 57.0907 73.1809 56.9552C72.3791 56.7645 71.5643 56.675 70.7365 56.6805C69.1538 56.6909 67.5705 56.6836 65.8052 56.6836C65.3809 56.7044 64.7758 56.6474 64.1701 56.6419C62.968 56.6308 61.7658 56.637 60.5637 56.6866C60.3367 56.6958 60.1116 56.7179 59.892 56.7712C59.5164 56.8626 59.2172 57.0668 59.0353 57.4163C58.9298 57.6168 58.8552 57.8289 58.8397 58.057C58.8095 58.4948 58.7688 58.932 58.7774 59.3722C58.7879 59.9137 58.7787 60.4557 58.7799 60.9971C58.7805 61.1295 58.7805 61.2632 58.7966 61.3944C58.8225 61.6084 58.8293 61.8218 58.8293 62.037C58.8299 66.1133 58.8305 70.1895 58.8293 74.2658C58.8293 74.4491 58.812 74.633 58.7966 74.8158C58.7731 75.0917 58.7657 75.3676 58.799 75.6417C58.8219 75.8354 58.8311 76.0286 58.8311 76.223C58.8299 77.2138 58.8305 78.2047 58.8274 79.1961C58.8274 79.3586 58.8157 79.5223 58.8009 79.6848C58.77 80.0214 58.7682 80.3587 58.7947 80.6947C58.8465 81.3581 58.8478 82.0209 58.7953 82.6838C58.7731 82.9597 58.7626 83.2368 58.7916 83.5103C58.8299 83.8671 58.8286 84.224 58.8293 84.5815C58.8305 84.8267 58.8317 85.072 58.8305 85.3173C58.8293 85.5135 58.8669 85.7029 58.9181 85.8912C59.047 86.3608 59.3949 86.6202 59.8235 86.7784C60.0721 86.8704 60.3416 86.9041 60.6118 86.9035C61.2286 86.9035 61.8448 86.9047 62.4616 86.909C62.7219 86.9108 62.9729 86.8679 63.2196 86.7901C63.7735 86.6159 64.1004 86.2443 64.1855 85.6741C64.2281 85.3914 64.254 85.1063 64.2534 84.8194C64.2509 82.2552 64.2515 79.6903 64.2503 77.1261C64.2503 76.9833 64.2343 76.8404 64.2336 76.6975C64.2336 76.5252 64.2966 76.4498 64.4637 76.4302C64.5858 76.4155 64.7098 76.4155 64.8332 76.4155C65.6658 76.4179 66.4979 76.4222 67.3306 76.4253C67.5465 76.4259 67.763 76.432 67.9782 76.4222C68.2478 76.4094 68.4297 76.5271 68.5463 76.7613C68.6104 76.8895 68.6838 77.0133 68.7418 77.1439C68.9743 77.6682 69.2612 78.1642 69.5585 78.6541C69.8551 79.144 70.1777 79.6174 70.5133 80.0828C70.945 80.6806 71.4101 81.252 71.8782 81.8217C72.3667 82.4164 72.9434 82.9278 73.4548 83.5011C74.1592 84.2914 74.9949 84.9414 75.8146 85.6073C75.9337 85.7035 76.0737 85.7741 76.1909 85.8722C76.5375 86.1622 76.9082 86.4185 77.2839 86.668C78.0524 87.1794 78.8369 87.6662 79.648 88.1096C80.1797 88.3996 80.7071 88.6994 81.2634 88.9398C82.1017 89.3021 82.9337 89.6798 83.7923 89.9962C84.6509 90.3126 85.5187 90.5984 86.3995 90.8412C87.2507 91.0766 88.1117 91.2765 88.9796 91.4439C90.2119 91.6806 91.4554 91.8369 92.7069 91.9271C92.9937 91.9473 93.2787 91.9865 93.5673 91.9908C94.6467 92.008 95.7255 91.997 96.8049 91.9865C97.072 91.9841 97.3384 91.9761 97.6043 91.9424C97.859 91.9099 98.1156 91.8964 98.3716 91.8731C98.9137 91.8234 99.4559 91.7725 99.9931 91.6793C100.61 91.5714 101.228 91.469 101.842 91.3452C102.669 91.179 103.487 90.9797 104.298 90.751C104.792 90.6118 105.28 90.4512 105.767 90.2893C106.508 90.0428 107.249 89.7963 107.96 89.4732C108.446 89.2525 108.932 89.0317 109.413 88.8012C109.821 88.6056 110.227 88.4076 110.621 88.1887C111.293 87.8152 111.973 87.4529 112.607 87.0145C113.13 86.6527 113.664 86.3063 114.175 85.9292C114.67 85.565 115.145 85.1744 115.622 84.7857C115.931 84.533 116.23 84.2675 116.505 83.9763C116.598 83.8788 116.675 83.7733 116.743 83.6581C117.044 83.1491 117.05 82.6071 116.92 82.0553ZM71.7469 71.4011C71.3965 71.5194 71.0382 71.6126 70.6773 71.693C70.4368 71.7469 70.1913 71.7678 69.9433 71.7764C68.2182 71.8364 66.4917 71.823 64.7659 71.8242C64.6531 71.8242 64.5396 71.8242 64.4279 71.8095C64.2935 71.7917 64.225 71.723 64.2083 71.5906C64.1942 71.4802 64.1948 71.3668 64.1948 71.2546C64.1942 69.6916 64.1948 68.1287 64.1948 66.5658H64.204C64.204 65.0133 64.204 63.4608 64.2053 61.9076C64.2053 61.7752 64.2077 61.6415 64.2256 61.5109C64.2441 61.3717 64.3107 61.3141 64.4464 61.2939C64.5069 61.2853 64.5692 61.2847 64.6309 61.2847C66.1932 61.2859 67.7549 61.2816 69.3173 61.292C69.8613 61.2957 70.4047 61.3454 70.9444 61.4196C71.2522 61.4625 71.5384 61.5796 71.8301 61.6795C72.3754 61.8666 72.8392 62.1928 73.258 62.5686C73.6768 62.9451 74.0259 63.3872 74.2615 63.912C74.5761 64.6135 74.742 65.3431 74.7513 66.1096C74.7544 66.3647 74.7513 66.6203 74.7544 66.8754C74.7698 67.9086 74.4663 68.8553 73.9143 69.7162C73.3968 70.5243 72.6671 71.0902 71.7469 71.4011Z" fill="#0086FB"/>
<path d="M54.7611 85.6219C54.7364 86.0843 54.4971 86.4258 54.0949 86.6594C53.8106 86.8249 53.4985 86.8881 53.1796 86.8973C52.4506 86.9188 51.7209 86.9359 50.9925 86.8679C50.911 86.8605 50.8284 86.8538 50.7463 86.8525C50.1925 86.8433 49.8304 86.5368 49.5658 86.091C49.4714 85.9328 49.4153 85.7556 49.3974 85.5686C49.3592 85.1621 49.3148 84.7562 49.279 84.349C49.2007 83.4538 49.1236 82.5586 49.0502 81.6634C48.9971 81.0116 48.9589 80.3592 48.9009 79.7087C48.817 78.773 48.7855 77.8337 48.6856 76.8986C48.6135 76.229 48.5857 75.5546 48.5357 74.8825C48.5197 74.6587 48.4969 74.4349 48.4778 74.2111C48.421 73.5397 48.36 72.8683 48.3081 72.1963C48.2748 71.7689 48.2563 71.3404 48.2286 70.9124C48.2064 70.5764 48.1891 70.2391 48.1521 69.905C48.1145 69.5683 48.1108 69.2323 48.1102 68.8951V67.6694H48.112C48.112 67.0667 48.1157 66.4639 48.1095 65.8612C48.1083 65.7496 48.162 65.6117 48.017 65.5356C47.8776 65.5724 47.8887 65.7079 47.8437 65.8036C47.5668 66.3983 47.3873 67.0287 47.1658 67.6436C47.0277 68.0287 46.8729 68.407 46.7291 68.7896C46.6323 69.0478 46.5435 69.309 46.4485 69.5677C46.3708 69.7786 46.3017 69.9939 46.2086 70.198C45.6621 71.398 45.1674 72.6206 44.6388 73.8285C44.2132 74.8028 43.8111 75.7869 43.3867 76.7619C43.1869 77.2211 42.9661 77.6706 42.7625 78.1286C42.6089 78.4738 42.4702 78.8257 42.3227 79.174C42.1636 79.5505 41.9749 79.9135 41.8466 80.3034C41.78 80.507 41.6745 80.6971 41.5265 80.8583C41.4851 80.9037 41.4481 80.954 41.4179 81.0067C41.2606 81.279 41.0213 81.4415 40.7265 81.5359C40.4212 81.634 40.1084 81.6953 39.7883 81.6965C39.1413 81.6996 38.4937 81.6922 37.846 81.6879C37.5117 81.6855 37.2021 81.569 36.8887 81.4715C36.7888 81.4408 36.7167 81.3617 36.6389 81.2955C36.317 81.0227 36.1202 80.664 35.9506 80.2906C35.7723 79.9 35.6107 79.5014 35.4424 79.1066C35.1457 78.4112 34.849 77.7147 34.5517 77.0194C34.1699 76.1266 33.7881 75.2333 33.4038 74.3417C33.0843 73.5998 32.7587 72.861 32.441 72.1184C31.7582 70.52 31.0841 68.9184 30.5468 67.2635C30.3735 66.7288 30.1786 66.2015 29.9929 65.6705C29.9763 65.6227 29.9596 65.5742 29.9399 65.527C29.9232 65.4896 29.9023 65.4443 29.8579 65.4443C29.7876 65.4443 29.7845 65.508 29.7795 65.5559C29.761 65.7392 29.7413 65.9219 29.7327 66.1052C29.7234 66.299 29.7277 66.4934 29.7234 66.6877C29.7 67.6369 29.6821 68.5867 29.6494 69.5358C29.634 69.9841 29.5908 70.4323 29.5593 70.8805C29.5347 71.2263 29.5094 71.5727 29.4841 71.9192C29.4175 72.8358 29.3527 73.7525 29.2836 74.6686C29.2318 75.351 29.1541 76.0316 29.1251 76.7146C29.0955 77.4087 29.0042 78.0979 28.9734 78.792C28.9573 79.1483 28.9136 79.5039 28.8839 79.8601C28.8556 80.1955 28.8284 80.5315 28.8007 80.8675C28.7427 81.58 28.6841 82.2919 28.6274 83.0044C28.6039 83.2993 28.5848 83.5949 28.5632 83.8904C28.5367 84.2466 28.5102 84.6029 28.483 84.9591C28.4608 85.2559 28.4022 85.5465 28.3368 85.8353C28.2474 86.2283 28.0087 86.5104 27.6417 86.6827C27.3506 86.8194 27.0471 86.9089 26.7215 86.9083C26.0128 86.9065 25.3034 86.9053 24.5941 86.9028C24.258 86.9016 23.9477 86.8164 23.6566 86.6441C23.2384 86.397 23.0423 86.0223 23.0108 85.5582C22.9892 85.2424 23.0022 84.9254 23.0305 84.609C23.0867 83.9885 23.1391 83.368 23.1921 82.7475C23.2661 81.8823 23.3395 81.0178 23.4129 80.1526C23.4395 79.8374 23.4641 79.5217 23.49 79.2059C23.5702 78.2291 23.6516 77.2518 23.73 76.275C23.7793 75.6539 23.8207 75.0322 23.8731 74.4116C23.9662 73.3024 24.0674 72.1939 24.1599 71.0847C24.2136 70.4439 24.2561 69.8019 24.3055 69.1606C24.3529 68.5395 24.4017 67.9183 24.4529 67.2972C24.5053 66.6663 24.5602 66.036 24.6139 65.405C24.6626 64.8354 24.7125 64.2658 24.7594 63.6955C24.8131 63.0444 24.8637 62.3932 24.9173 61.7414C24.9697 61.1007 25.029 60.4599 25.0758 59.818C25.1147 59.2882 25.1505 58.7584 25.2239 58.2323C25.2633 57.9466 25.3411 57.6731 25.4743 57.4156C25.5761 57.2188 25.7241 57.0704 25.9165 56.9594C26.2077 56.7914 26.5191 56.6927 26.8541 56.6909C27.4709 56.6878 28.0852 56.6191 28.7026 56.6412C29.1646 56.6571 29.6284 56.6498 30.0879 56.6921C30.7251 56.751 31.2512 57.0201 31.5627 57.6081C31.678 57.8246 31.7891 58.0441 31.8816 58.271C32.3189 59.3403 32.7476 60.4127 33.1824 61.4833C33.7708 62.9322 34.363 64.3798 34.9532 65.8287C35.3505 66.8036 35.7415 67.781 36.1455 68.7535C36.6908 70.0656 37.2132 71.387 37.7103 72.7181C37.9854 73.4551 38.2241 74.2056 38.4801 74.9494C38.5732 75.2198 38.6682 75.4902 38.7644 75.7594C38.7811 75.8066 38.8076 75.8513 38.8347 75.8936C38.8619 75.9366 38.9359 75.9359 38.9704 75.8998C39.0297 75.8378 39.0506 75.7575 39.0778 75.6815C39.2079 75.3154 39.3344 74.9482 39.4633 74.5821C39.8074 73.609 40.1387 72.631 40.5001 71.6647C40.8221 70.8032 41.173 69.9522 41.5197 69.0999C42.113 67.6418 42.7144 66.1868 43.3096 64.7293C43.6963 63.7826 44.0763 62.8334 44.4612 61.8867C44.9503 60.6843 45.44 59.4819 45.9335 58.2808C46.0149 58.0827 46.1099 57.8896 46.2073 57.6983C46.5046 57.1133 46.9894 56.7939 47.6389 56.716C47.7617 56.7013 47.885 56.6896 48.0078 56.689C48.9533 56.6847 49.8989 56.6841 50.8444 56.6817C51.1251 56.6817 51.3946 56.7326 51.6561 56.8374C52.1101 57.0189 52.3895 57.3506 52.5098 57.8154C52.5511 57.973 52.5795 58.1361 52.5893 58.2986C52.6282 58.9203 52.68 59.5408 52.7651 60.1583C52.7762 60.2392 52.7787 60.3214 52.7787 60.4029C52.7799 60.9247 52.8465 61.4422 52.891 61.9603C52.9156 62.2559 52.9384 62.5508 52.9631 62.8457C53.0217 63.538 53.0822 64.2296 53.1395 64.9212C53.1895 65.5215 53.2357 66.1224 53.2845 66.7227C53.3061 66.9876 53.3295 67.2518 53.3517 67.5161C53.4263 68.3911 53.5096 69.2654 53.5738 70.141C53.6231 70.8235 53.7088 71.5035 53.7477 72.1859C53.7865 72.8794 53.8828 73.5679 53.9062 74.2626C53.9118 74.4257 53.9401 74.5876 53.9537 74.7501C54.0141 75.4424 54.0746 76.134 54.132 76.8256C54.1776 77.375 54.2183 77.925 54.2639 78.4744C54.3386 79.3702 54.4175 80.2648 54.4909 81.1606C54.5242 81.5678 54.5458 81.9755 54.5785 82.3826C54.6266 82.9731 54.6772 83.563 54.7321 84.1528C54.7784 84.6421 54.7864 85.1326 54.7611 85.6219Z" fill="#0086FB"/>
<path d="M106.43 75.809C107.947 73.8432 108.845 71.4115 108.845 68.7792C108.845 62.243 103.313 56.9441 96.4902 56.9441C89.6672 56.9441 84.1357 62.243 84.1357 68.7792C84.1357 75.3154 89.6672 80.6149 96.4902 80.6149C99.0333 80.6149 101.397 79.8785 103.361 78.6166L104.868 80.0085C105.365 80.4678 106.142 80.4395 106.603 79.9453L107.762 78.7068C108.224 78.2132 108.195 77.4406 107.699 76.9814L106.43 75.809ZM96.608 75.8243C93.0861 75.8243 90.2303 72.6703 90.2303 68.7792C90.2303 64.8881 93.0861 61.7347 96.608 61.7347C100.13 61.7347 102.986 64.8887 102.986 68.7792C102.986 69.9332 102.735 71.0221 102.291 71.9829L100.842 70.645C100.346 70.1864 99.5686 70.214 99.1067 70.7082L97.9483 71.9467C97.487 72.4403 97.5153 73.2129 98.0118 73.6722L99.5088 75.0554C98.6385 75.5472 97.6529 75.8243 96.608 75.8243Z" fill="#B065D8"/>
</g>
<defs>
<clipPath id="clip0_856_4282">
<rect width="94" height="45" fill="white" transform="translate(23 47)"/>
</clipPath>
</defs>
</svg>
