<svg width="140" height="140" viewBox="0 0 140 140" fill="none" xmlns="http://www.w3.org/2000/svg">
<rect width="140" height="140" rx="30" fill="white"/>
<g clip-path="url(#clip0_750_3305)">
<path d="M20.0074 75.9194C19.9557 73.9488 20.1595 72.2941 20.552 70.6717C20.8167 69.5814 21.2472 68.5401 21.6579 67.4927C22.201 66.1049 22.9494 64.8382 23.8103 63.6466C24.6485 62.4888 25.6494 61.4629 26.6869 60.4784C27.6939 59.523 28.7952 58.6826 29.9893 58.0048C31.8634 56.9421 33.8607 56.1631 35.9812 55.7383C37.5191 55.43 39.0737 55.2414 40.6375 55.3365C42.18 55.43 43.7026 55.6371 45.2193 56.022C48.1414 56.7642 50.7198 58.1275 53 60.0674C55.7047 62.3677 57.6898 65.1986 58.9204 68.5554C59.4498 70.0015 59.8194 71.4906 60.002 73.0195C60.2058 74.734 60.1723 76.4592 60.1708 78.1813C60.1678 82.8555 60.183 87.5297 60.1556 92.2038C60.148 93.5824 59.9229 94.9427 59.6277 96.2937C59.0421 98.9789 57.9073 101.405 56.3299 103.632C55.6681 104.564 54.9502 105.463 54.1181 106.236C52.8007 107.459 51.4043 108.591 49.8269 109.476C47.9269 110.543 45.9159 111.258 43.7757 111.679C42.4735 111.937 41.179 111.988 39.8678 111.997C38.6843 112.006 37.7716 110.962 37.5313 109.896C37.2955 108.849 37.7595 108.086 38.3968 107.399C38.7528 107.016 39.2882 106.854 39.8145 106.846C40.852 106.831 41.8955 106.798 42.9025 106.568C43.9384 106.332 44.953 106.013 45.9342 105.556C46.7435 105.179 47.5345 104.785 48.2753 104.294C49.6291 103.398 50.7715 102.284 51.7892 101.008C52.8023 99.7365 53.5689 98.3471 54.109 96.8274C54.4451 95.8827 54.6551 94.9028 54.8224 93.9091C55.0749 92.4154 54.9121 90.9157 54.9882 89.422C54.9927 89.3423 55.0201 89.2242 54.9152 89.2119C54.8148 89.2012 54.6566 89.2181 54.6125 89.284C53.7317 90.586 52.4646 91.4493 51.2203 92.3326C49.5698 93.5058 47.752 94.3477 45.8323 94.9672C43.3847 95.7585 40.8581 95.9395 38.3223 95.7524C35.3636 95.5361 32.6042 94.5946 30.0289 93.1009C28.278 92.0857 26.7158 90.8298 25.3467 89.3407C23.5092 87.3426 22.1173 85.0591 21.1939 82.4905C20.6478 80.9693 20.2706 79.4127 20.0926 77.7995C20.012 77.0711 20.0698 76.3442 20.0029 75.9148L20.0074 75.9194ZM40.0199 90.6212C43.9871 90.5936 47.428 89.1843 50.303 86.4623C53.2039 83.7158 54.8224 80.2807 54.9593 76.2706C55.2757 66.9851 48.1642 60.7805 40.5493 60.5581C35.5674 60.4124 31.4846 62.406 28.3678 66.3012C25.975 69.2915 24.9041 72.7833 25.1642 76.6033C25.4563 80.8987 27.3197 84.4641 30.6161 87.2045C33.3298 89.4603 36.4695 90.6366 40.0214 90.6212H40.0199Z" fill="#282B2A"/>
<path d="M99.9588 95.7999C88.7113 95.8705 80.5381 86.7798 79.8886 77.0803C79.4794 70.9661 81.4599 65.6617 85.7268 61.2881C89.2255 57.7027 93.506 55.7015 98.497 55.3948C104.454 55.0283 109.662 56.8669 113.964 61.0811C117.3 64.349 119.319 68.3315 119.845 73.0042C120.514 78.9435 118.993 84.2648 115.093 88.8086C111.111 93.446 106.012 95.6941 99.9573 95.7984L99.9588 95.7999ZM99.9999 90.5384C108.302 90.6872 114.816 83.5839 114.866 75.7185C114.92 67.4084 108.061 60.0168 98.9959 60.5612C91.8297 60.9906 84.4064 67.1507 85.062 76.792C85.5458 83.8952 91.6365 90.7485 99.9999 90.5384Z" fill="#282B2A"/>
<path d="M73.414 61.3893C73.414 71.3725 73.4186 81.3557 73.3988 91.3404C73.3988 91.7576 73.519 92.2606 73.1037 92.6041C73.0292 93.8646 72.0328 94.2986 71.1049 94.5455C70.1496 94.8016 69.2521 94.3661 68.5204 93.6269C68.1599 93.2619 68.0306 92.7942 67.7614 92.3955C67.6427 92.2207 67.8572 92.1563 67.8572 91.9953C67.8344 80.5061 67.8252 69.0155 67.8207 57.5264C67.8176 49.4294 67.8344 41.3324 67.8024 33.237C67.7979 32.1604 67.7431 31.0762 67.9196 30.0258C68.1112 28.8894 69.0787 28.1043 70.2682 28.0123C71.0653 27.9509 71.7864 28.1472 72.404 28.6349C72.9729 29.0842 73.2513 29.7252 73.3334 30.4429C73.4809 31.7295 73.4155 33.0207 73.4155 34.3104C73.4201 43.3367 73.4186 52.363 73.4186 61.3878H73.4155L73.414 61.3893Z" fill="#282B2A"/>
<path d="M99.9995 90.5384C91.6377 90.75 85.5454 83.8952 85.0617 76.792C84.4045 67.1492 91.8278 60.9906 98.9955 60.5612C108.062 60.0183 114.919 67.4099 114.866 75.7185C114.816 83.5824 108.302 90.6856 99.9995 90.5384Z" fill="url(#paint0_radial_750_3305)"/>
</g>
<defs>
<radialGradient id="paint0_radial_750_3305" cx="0" cy="0" r="1" gradientUnits="userSpaceOnUse" gradientTransform="translate(109.326 60.48) rotate(119.133) scale(34.6195 34.3771)">
<stop stop-color="#F0A019"/>
<stop offset="1" stop-color="#E64622"/>
</radialGradient>
<clipPath id="clip0_750_3305">
<rect width="100" height="84" fill="white" transform="translate(20 28)"/>
</clipPath>
</defs>
</svg>
