<svg width="140" height="140" viewBox="0 0 140 140" fill="none" xmlns="http://www.w3.org/2000/svg">
<rect width="140" height="140" rx="30" fill="white"/>
<g clip-path="url(#clip0_3517_54)">
<path d="M34 34.0549C35.2064 21.2541 52.8468 19.7726 60.1991 28.5653C65.2778 34.6383 71.2169 49.7055 75.0892 57.3524C76.8609 60.8485 78.9109 64.4453 80.691 67.933C81.484 69.4859 82.1589 71.3284 83.2556 72.6966V24.9433H105.992L106 103.167C106 105.597 105.498 108.018 104.401 110.188C102.828 113.298 100.238 115.812 96.6399 116.639C87.5666 118.725 82.6524 111.368 78.7843 104.636C70.8964 90.9116 64.5016 75.9241 56.4196 62.3258L56.1032 115.418H34V34.0549Z" fill="#FC028F"/>
</g>
<defs>
<clipPath id="clip0_3517_54">
<rect width="72" height="94" fill="white" transform="translate(34 23)"/>
</clipPath>
</defs>
</svg>
