<svg width="140" height="140" viewBox="0 0 140 140" fill="none" xmlns="http://www.w3.org/2000/svg">
<rect width="140" height="140" rx="30" fill="black"/>
<g clip-path="url(#clip0_3612_890)">
<path d="M80.1586 66.4207H85.722C85.7335 66.4207 85.8781 66.5631 85.8781 66.5744V78.9593C85.8781 79.0484 86.3204 79.7235 86.4495 79.8301C86.9708 80.2664 87.9054 80.2664 88.4278 79.8301C88.5558 79.7225 88.9991 79.0484 88.9991 78.9593V66.5744C88.9991 66.5631 89.1438 66.4207 89.1552 66.4207H94.7186V79.3691C94.7186 79.7082 94.2982 80.9815 94.1452 81.3636C92.3688 85.8002 86.9354 87.4157 83.0048 84.5587C81.8497 85.2132 80.6373 85.8545 79.2761 85.9692C74.6232 86.3636 71.3586 82.8367 71.111 78.4522L71.1151 66.4207H76.7826C76.7941 66.4207 76.9387 66.5631 76.9387 66.5744V78.8569C76.9387 78.8999 77.2093 79.4715 77.2676 79.5565C77.816 80.3627 79.1783 80.3617 79.7465 79.5729C79.8641 79.4101 80.1617 78.6981 80.1617 78.5485V66.4187L80.1586 66.4207Z" fill="#FBFAFB"/>
<path d="M37.5253 85.9713H31.8058V72.6132C31.8058 69.4837 28.0552 67.6644 25.2308 68.5976C23.6229 69.1292 21.8226 71.0858 21.8226 72.8171V85.9703H16V72.2045C16.6744 65.3001 23.2212 60.6473 30.1178 62.6059C33.9319 63.6887 37.2318 67.4287 37.5295 71.3809C37.8167 75.1977 37.4681 79.5709 37.5211 83.4677C37.5274 83.9256 37.6543 84.3753 37.6346 84.9018C37.621 85.2655 37.491 85.6046 37.5253 85.9713Z" fill="#FBFAFB"/>
<path d="M58.114 77.9871H45.7393C46.1327 80.0083 48.6168 81.1023 50.4546 80.121C50.6222 80.0318 51.1508 79.5227 51.1987 79.5227H57.5936C57.0775 81.9813 54.8629 84.2616 52.536 85.2398C46.8913 87.6134 41.0334 84.072 39.7773 78.3805C38.2246 71.3491 44.4874 64.6547 51.7721 66.8807C56.4947 68.323 58.9809 73.3384 58.114 77.9871ZM52.0822 74.5073C52.1436 74.0258 51.8512 73.5904 51.5598 73.2299C49.8021 71.0541 46.3585 71.8705 45.6353 74.5073H52.0822Z" fill="#FBFAFB"/>
<path d="M123 85.9714H117.28V75.2747C117.28 73.0067 114.405 71.7948 112.396 72.4115C111.312 72.7434 109.897 74.1069 109.897 75.2747V85.9714H104.177L104.173 75.2706C104.726 66.7036 115.716 63.1971 121.17 69.9099C121.889 70.794 122.999 73.0343 122.999 74.1489V85.9714H123Z" fill="#FBFAFB"/>
<path d="M93.9829 59.8667C90.0065 58.5472 85.9364 57.5976 81.757 57.1192C66.7911 55.4064 51.1925 58.7757 37.4795 64.4826C36.8645 63.6887 36.1318 62.903 35.3326 62.2842C34.755 61.8376 34.0838 61.518 33.5031 61.1164C33.3969 61.0437 33.2336 61.017 33.2606 60.8439C42.3925 57.3886 52.1114 55.0233 61.9104 54.2417C71.5938 53.4693 85.0549 54.464 93.9558 58.5206C94.7738 58.8935 94.0609 59.166 93.9839 59.8667H93.9829Z" fill="#F5A309"/>
<path d="M66.0168 64.8853V66.4208H69.2409V72.1533H66.0168V78.4482C66.0168 78.8908 66.8567 79.781 67.2761 79.9725C67.9244 80.2686 69.0452 79.9961 69.1243 80.0463C69.245 80.1221 70.1223 82.2743 70.2951 82.6298C70.575 83.2035 71.3336 84.3569 71.4793 84.8415C71.5189 84.9757 71.5574 85.1078 71.522 85.2481C68.0222 86.6956 64.1644 86.0082 61.7563 83.0508C61.0528 82.1873 60.0902 80.0504 60.0902 78.9584V64.8853H66.0168Z" fill="#FBFAFB"/>
<path d="M102.307 66.4208H96.5877V85.9713H102.307V66.4208Z" fill="#FBFAFB"/>
<path d="M98.9542 57.6448C103.35 57.0773 104.678 63.4716 100.518 64.7111C95.4034 66.2354 93.7716 58.3137 98.9542 57.6448Z" fill="#F5A309"/>
</g>
<defs>
<clipPath id="clip0_3612_890">
<rect width="107" height="32" fill="white" transform="translate(16 54)"/>
</clipPath>
</defs>
</svg>
