<svg width="140" height="140" viewBox="0 0 140 140" fill="none" xmlns="http://www.w3.org/2000/svg">
<rect width="140" height="140" rx="30" fill="white"/>
<g clip-path="url(#clip0_842_3700)">
<path d="M113.998 83.0244C113.998 89.1112 113.998 95.1979 113.998 101.285C113.998 103.488 113.49 103.993 111.282 103.996C106.879 103.998 102.478 104.002 98.0753 103.996C96.1082 103.991 95.5705 103.437 95.5682 101.44C95.5682 90.499 95.6142 79.5582 95.5429 68.6174C95.5154 64.3078 94.0585 60.4268 91.0734 57.2896C87.0727 53.0843 82.1436 51.7868 76.578 53.1932C70.392 54.7548 65.7547 60.6794 65.5249 67.116C65.4997 67.8481 65.4974 68.5803 65.4974 69.3125C65.4974 79.7528 65.4974 90.1932 65.4974 100.634C65.4974 103.551 65.0516 104.002 62.1929 104.002C57.9831 104.002 53.771 104.009 49.5612 104C47.4654 103.996 46.9093 103.428 46.9093 101.319C46.907 91.0713 46.9093 80.8233 46.9093 70.5776C46.9093 68.3602 46.8036 68.1609 44.77 67.4936C41.2403 66.3375 37.9336 64.7828 35.1807 62.2155C30.6951 58.0287 28.6269 52.644 27.6204 46.7427C27.2183 44.384 27.1539 41.9952 27.0069 39.6133C26.9242 38.288 27.648 37.4191 28.9693 37.4237C32.9838 37.4376 37.0029 37.2221 41.0151 37.5419C42.0055 37.6207 43.0051 37.5743 43.9978 37.5998C45.0848 37.6276 45.6868 38.1837 45.8109 39.2843C46.043 41.3464 46.0246 43.4433 46.6818 45.4452C47.1943 47.0022 47.8837 48.448 49.2188 49.4814C50.4964 50.4684 51.3513 50.3271 52.298 49.0156C58.1555 40.9108 66.1845 36.5525 75.9461 35.3176C82.856 34.4418 89.5706 35.3523 95.8669 38.4061C106.028 43.3321 112.251 51.2817 113.8 62.6952C113.968 63.9232 114 65.1488 114 66.3815C113.998 71.9284 114 77.4776 114 83.0244H113.998Z" fill="#8ECD00"/>
</g>
<defs>
<clipPath id="clip0_842_3700">
<rect width="87" height="69" fill="white" transform="translate(27 35)"/>
</clipPath>
</defs>
</svg>
