<svg width="140" height="140" viewBox="0 0 140 140" fill="none" xmlns="http://www.w3.org/2000/svg">
<rect width="140" height="140" rx="30" fill="white"/>
<path d="M116.5 63.134C117.167 63.5189 117.167 64.4811 116.5 64.866L94 77.8564C93.3333 78.2413 92.5 77.7602 92.5 76.9904L92.5 51.0096C92.5 50.2398 93.3333 49.7587 94 50.1436L116.5 63.134Z" fill="#792DFF"/>
<path d="M81.5 84.134C82.1667 84.5189 82.1667 85.4811 81.5 85.866L59 98.8564C58.3333 99.2413 57.5 98.7602 57.5 97.9904L57.5 72.0096C57.5 71.2398 58.3333 70.7587 59 71.1436L81.5 84.134Z" fill="#F78F12"/>
<path d="M22.5 76.866C21.8333 76.4811 21.8333 75.5189 22.5 75.134L45 62.1436C45.6667 61.7587 46.5 62.2398 46.5 63.0096L46.5 88.9904C46.5 89.7602 45.6667 90.2413 45 89.8564L22.5 76.866Z" fill="#F30952"/>
<path d="M57.5 56.866C56.8333 56.4811 56.8333 55.5189 57.5 55.134L80 42.1436C80.6667 41.7587 81.5 42.2398 81.5 43.0096L81.5 68.9904C81.5 69.7602 80.6667 70.2413 80 69.8564L57.5 56.866Z" fill="#3CC2C3"/>
</svg>
