<svg width="140" height="140" viewBox="0 0 140 140" fill="none" xmlns="http://www.w3.org/2000/svg">
<rect width="140" height="140" rx="30" fill="black"/>
<g clip-path="url(#clip0_610_4286)">
<path d="M132 49.3321C131.839 49.408 131.679 49.4874 131.516 49.5593C120.979 54.2035 110.442 58.8466 99.9054 63.4903C89.6394 68.0142 79.3738 72.5386 69.1073 77.0625C63.5378 79.5167 57.9579 81.9486 52.4013 84.4314C49.9816 85.5126 47.555 86.5676 45.0493 87.4345C42.0735 88.4639 39.0428 89.2899 35.9172 89.7083C32.9963 90.0991 30.0714 90.1725 27.1811 89.4545C24.8528 88.8759 22.7643 87.846 21.0891 86.0867C19.5206 84.4397 18.6229 82.4602 18.2265 80.2445C17.7257 77.4464 18.0935 74.7217 18.9709 72.0448C20.0362 68.7953 21.5656 65.7636 23.3926 62.8851C26.4841 58.0143 29.9883 53.4643 34.1391 49.4312C34.3028 49.272 34.4713 49.1183 34.7051 49C34.6636 49.1079 34.6305 49.2198 34.5791 49.3228C33.5346 51.4275 32.5563 53.5599 31.8208 55.7952C31.2083 57.6565 30.7372 59.5499 30.6201 61.5117C30.4668 64.0767 30.9295 66.4811 32.5627 68.5622C33.7353 70.0569 35.2677 71.0489 37.0314 71.6905C39.4081 72.5554 41.8698 72.7692 44.378 72.544C47.245 72.2863 50.0107 71.5451 52.774 70.7931C66.0751 67.174 79.3748 63.5504 92.676 59.9328C101.66 57.4895 110.646 55.0536 119.63 52.6122C123.678 51.5123 127.724 50.4065 131.771 49.3036C131.832 49.2868 131.896 49.2774 131.958 49.2646L132.001 49.3321H132Z" fill="white"/>
</g>
<defs>
<clipPath id="clip0_610_4286">
<rect width="114" height="41" fill="white" transform="translate(18 49)"/>
</clipPath>
</defs>
</svg>
