<svg width="140" height="140" viewBox="0 0 140 140" fill="none" xmlns="http://www.w3.org/2000/svg">
<rect width="140" height="140" rx="30" fill="white"/>
<g clip-path="url(#clip0_2756_376)">
<path d="M34.9599 72.359L38.0875 70.6116L49.8352 62.3397C49.9131 62.2846 49.8683 62.1619 49.7732 62.1706L46.4606 62.4688L53.4534 58.3238C53.5351 58.2756 53.5007 58.1504 53.406 58.1504H49.8894L59.6801 53.5023C52.411 54.6208 43.3571 58.02 33.5341 62.403C24.5714 65.8809 18.2401 70.2109 13.7503 75.1379C13.0738 75.8803 12.5285 76.7346 12.1584 77.6686C11.0609 80.4406 12.3185 81.7339 17.3531 80.2044L34.7589 71.8972L34.9608 72.3585L34.9599 72.359Z" fill="url(#paint0_linear_2756_376)"/>
<path d="M26.2576 75.5786C20.9678 78.1372 13.9896 82.018 12.3219 80.4609C16.4678 83.5695 18.6287 87.257 19.721 89.2243C20.0576 89.8307 20.645 90.2623 21.3285 90.3794C24.5576 90.9329 31.1222 88.5081 32.3665 86.4152L31.7329 77.5859L26.2572 75.5786H26.2576Z" fill="url(#paint1_linear_2756_376)"/>
<path d="M29.4016 73.329L29.7338 67.2073C29.7562 66.7971 30.2399 66.5918 30.5507 66.8608L35.3447 71.014C35.4635 71.1169 35.624 71.1573 35.7772 71.1225L41.9583 69.7242C42.3543 69.6346 42.6831 70.034 42.5191 70.4054L40.0122 76.0878C39.9476 76.2345 39.9579 76.4037 40.0401 76.541L43.2465 81.894C43.4548 82.2422 43.1785 82.679 42.7748 82.6394L36.8261 82.0584C36.6651 82.0425 36.5067 82.1066 36.4017 82.2302L32.2601 87.0995C31.9976 87.4085 31.4954 87.2867 31.4028 86.892L29.9778 80.8009C29.943 80.6515 29.8405 80.5267 29.7007 80.4634L24.0394 77.9005C23.6822 77.7387 23.6469 77.2451 23.9775 77.0342L29.1739 73.7198C29.3082 73.6342 29.393 73.4891 29.4016 73.3299V73.329Z" fill="url(#paint2_linear_2756_376)" stroke="url(#paint3_linear_2756_376)" stroke-width="0.129114" stroke-miterlimit="10"/>
<path d="M32.2855 79.0182C34.0673 78.9864 35.8478 78.3171 37.6261 77.0066C37.6933 78.5306 37.3649 79.7232 36.1624 80.1854C36.0574 80.2259 35.9541 80.2693 35.8521 80.3167C34.4336 80.9756 33.2733 80.4088 32.2855 79.0187V79.0182Z" fill="white"/>
<path d="M30.91 77.5734C31.4836 77.5734 31.9486 77.1085 31.9486 76.5349C31.9486 75.9614 31.4836 75.4964 30.91 75.4964C30.3365 75.4964 29.8715 75.9614 29.8715 76.5349C29.8715 77.1085 30.3365 77.5734 30.91 77.5734Z" fill="white"/>
<path d="M35.5719 75.4964C35.7957 74.6877 36.3703 73.6083 38.242 74.337C37.7613 73.1366 37.0344 73.1805 36.264 73.4469C35.5715 73.8188 35.3408 74.5018 35.5715 75.4964H35.5719Z" fill="white"/>
<path d="M43.2577 57.0413L41.3614 56.613C41.2672 56.5919 41.169 56.6208 41.101 56.6892L39.7354 58.0729C39.5689 58.242 39.2805 58.1387 39.2586 57.9025L39.08 55.9666C39.0709 55.8706 39.0132 55.7858 38.9272 55.7428L37.1893 54.8717C36.9771 54.7654 36.9862 54.4594 37.2039 54.3656L38.9896 53.5978C39.0782 53.5595 39.1406 53.4786 39.1553 53.383L39.4466 51.4609C39.4824 51.2264 39.7759 51.1403 39.9325 51.3185L41.2146 52.7796C41.2783 52.8519 41.3747 52.8868 41.4699 52.8709L43.3876 52.5541C43.6218 52.5154 43.7943 52.768 43.673 52.972L42.6797 54.6428C42.6302 54.7258 42.6276 54.8282 42.6719 54.9139L43.5658 56.6402C43.6751 56.851 43.4879 57.0929 43.2564 57.0408L43.2577 57.0413Z" fill="#FD4BB1"/>
<path d="M54.5552 62.7571L53.8153 62.5902C53.6953 62.563 53.5696 62.5996 53.4831 62.6874L52.9503 63.2271C52.7372 63.4427 52.3697 63.311 52.3417 63.0093L52.272 62.254C52.2608 62.1314 52.1868 62.0233 52.077 61.9683L51.3992 61.6283C51.1285 61.4927 51.1397 61.1019 51.4181 60.9823L52.1149 60.6827C52.2281 60.6341 52.3081 60.5304 52.3266 60.409L52.4403 59.6593C52.4859 59.3597 52.8607 59.25 53.0604 59.4776L53.5605 60.0475C53.6419 60.14 53.765 60.1839 53.8863 60.1641L54.6348 60.0406C54.9339 59.9911 55.1538 60.3139 54.9993 60.5743L54.612 61.2263C54.5491 61.3322 54.5453 61.463 54.6016 61.5723L54.9502 62.2459C55.0897 62.5148 54.8508 62.8243 54.5552 62.7571Z" fill="#1673F4"/>
<path d="M57.1633 51.6473L56.0873 51.2544C55.9939 51.2204 55.8893 51.2367 55.811 51.2983L54.9089 52.0045C54.7161 52.1556 54.4342 52.0123 54.4433 51.7674L54.4841 50.6226C54.4876 50.5231 54.4398 50.4289 54.3572 50.3729L53.4069 49.7334C53.2038 49.5965 53.2528 49.2845 53.4887 49.2169L54.59 48.9023C54.6856 48.8748 54.7604 48.8003 54.788 48.7044L55.1026 47.603C55.1697 47.3672 55.4822 47.3181 55.6191 47.5212L56.2586 48.4715C56.3141 48.5542 56.4084 48.6024 56.5082 48.5985L57.653 48.5576C57.8979 48.549 58.0412 48.8305 57.8902 49.0233L57.1839 49.9253C57.1224 50.0037 57.106 50.1083 57.14 50.2016L57.533 51.2776C57.6169 51.5079 57.3935 51.7312 57.1633 51.6473Z" fill="#0FC3F2"/>
<path d="M62.7268 51.5931L62.0756 51.3555C61.9599 51.3133 61.8307 51.3335 61.7339 51.4097L61.1877 51.8371C60.9493 52.0239 60.6011 51.8466 60.6119 51.5436L60.6369 50.8507C60.6412 50.7276 60.5818 50.6109 60.4798 50.5421L59.9048 50.1547C59.6534 49.9856 59.7146 49.5995 60.0059 49.5165L60.6726 49.3258C60.7909 49.2918 60.8835 49.1993 60.9175 49.0809L61.1081 48.4143C61.1912 48.1229 61.5772 48.0618 61.7464 48.3131L62.1337 48.8881C62.2026 48.9901 62.3192 49.0495 62.4423 49.0452L63.1352 49.0202C63.4382 49.0095 63.6155 49.3572 63.4287 49.5961L63.0014 50.1422C62.9256 50.2391 62.905 50.3686 62.9471 50.484L63.1847 51.1351C63.2884 51.4196 63.0126 51.6959 62.7277 51.5922L62.7268 51.5931Z" fill="#3ADD53"/>
<path d="M102.706 81.9298L106.723 78.1364C107.238 77.8343 108.344 78.5267 108.419 79.0268C108.523 79.7206 105.806 83.9491 105.588 85.0263C105.483 85.3332 105.859 85.2493 106.04 85.189C106.52 85.0302 109.582 82.7376 110.024 82.293C111.136 81.1766 111.981 79.1594 113.553 78.3705C114.401 77.9449 114.711 78.4321 115.47 78.6369L115.683 78.2091C116.883 78.921 117.306 79.406 116.45 80.689C115.477 82.148 113.324 83.1327 111.594 83.1443C111.246 83.9108 110.179 85.9017 111.71 85.7076C113.009 85.5428 117.252 83.1301 118.245 82.1949C119.07 81.4189 119.456 79.7447 120.9 81.1611C120.182 82.6704 119.191 84.188 119.213 85.9267C119.977 86.5645 123.357 83.6831 123.357 83.4335C121.563 82.1579 122.626 79.6109 123.73 78.219C124.464 77.2941 125.107 76.6524 126.376 76.986C129.149 77.7146 125.286 81.8329 125.512 82.0731C126.458 81.4288 127.429 80.6735 128.25 81.8553C127.645 83.8355 125.951 86.0937 126.148 88.2374C126.197 88.7715 126.532 89.0526 126.657 89.5182C122.906 88.9785 125.301 84.4049 126.371 82.3606C126.283 82.2792 124.408 83.3156 124.229 83.4421C123.384 84.0403 122.543 85.2278 121.706 85.9349C120.815 86.6863 119.654 87.7722 118.489 87.0057C117.117 86.1036 117.65 84.5555 117.908 83.2187L114.454 85.7124C112.079 87.4726 108.72 87.1942 109.587 83.5045C108.493 84.1716 106.679 86.4212 105.465 86.6308C104.764 86.7517 103.782 85.7498 103.877 85.0461C104.063 83.6698 105.758 81.4193 106.181 79.8872C106.215 79.7645 106.429 79.5213 106.078 79.6401C105.276 79.9121 101.075 85.1073 100.493 86.0933C99.3599 88.0085 98.2939 90.7285 98.1011 92.941C97.366 93.2083 96.4544 92.5102 96.3869 91.7377C96.3098 90.8584 97.1663 89.1787 97.5609 88.3218C98.5164 86.2478 99.811 84.3257 100.695 82.216C99.5063 83.1451 98.4036 84.1957 97.1555 85.053C95.7938 85.9887 93.728 87.5148 92.1003 86.4298C90.9103 85.6366 91.221 84.6016 91.3023 83.3621C90.0727 84.1178 88.0801 86.4763 86.7881 86.8787C86.0246 87.1163 84.9439 86.5714 85.008 85.6788C85.1161 84.1828 86.9013 81.9151 87.4664 80.3924C87.5434 80.1854 87.8627 79.5652 87.4268 79.6363C86.5355 79.8045 84.2622 82.7707 83.6541 83.6031C83.1854 84.2443 82.3478 85.8953 81.9097 86.3007C81.4092 86.7638 80.4279 86.1053 80.5015 85.4739C81.1363 83.6887 82.3504 81.9414 82.9168 80.1463C82.9573 80.0176 83.2568 79.1818 82.8411 79.3535C82.7119 79.4069 81.6041 80.5642 81.4027 80.7824C80.3397 81.9336 78.8889 83.7606 78.1534 85.1275C77.9605 85.4856 77.29 87.3125 77.1071 87.3396C74.5252 86.5637 76.5661 84.3136 77.1725 82.7897L74.3441 84.6171C73.7437 84.9437 73.4239 84.7487 72.8734 84.5086C72.6208 85.1288 71.3576 86.6304 70.7607 86.7677C69.6142 87.0315 68.1664 86.0649 68.1315 84.8602C68.0786 83.0406 70.756 78.6158 72.388 77.7977C72.8562 77.5627 73.0753 77.6036 73.5616 77.7327C74.2761 77.9221 75.4669 78.9119 74.0183 78.924C74.1689 79.5222 74.694 79.5769 74.7439 80.2853C74.8119 81.2493 73.5526 83.3814 73.5879 83.5725C73.7101 84.2327 75.1661 83.4331 75.4407 83.279C77.8805 81.9091 78.9431 80.395 79.6149 77.7086C79.6661 77.5037 79.4901 77.4912 79.8267 77.4861C80.319 77.4792 80.6805 77.6875 81.0972 77.9066C81.7535 78.6317 79.9803 80.6119 79.757 81.3573C81.2745 80.5237 82.9719 77.0914 84.8552 78.6395C85.1294 79.2235 83.7066 81.9013 83.4849 82.6446C83.7913 82.7191 83.806 82.4746 83.9467 82.3192C84.9034 81.2635 86.8896 77.913 88.4334 77.9126C88.9426 77.9126 89.7904 78.4338 89.805 78.9885C89.8343 80.0916 86.3482 85.208 86.6409 85.5088C87.0579 85.5153 87.4285 85.2006 87.7754 84.9962C88.7597 84.4161 91.0751 82.9467 91.8386 82.2194C92.7777 81.3251 93.4013 79.8523 94.6705 78.8495C95.7021 78.0344 95.9143 78.0903 97.1103 78.6369L97.1112 78.207C100.832 79.4133 96.627 82.6726 94.5663 83.0414C94.2655 83.0952 93.338 82.9919 93.2218 83.1606L92.6847 85.4133C92.8573 85.9263 93.7043 85.6551 94.071 85.5531C95.6746 85.1064 100.25 82.3205 101.344 81.0729C101.869 80.4725 104.096 76.4768 104.314 75.7336C104.46 75.2412 104.444 74.8418 104.427 74.3413C105.14 74.2569 106.302 75.0312 106.218 75.7921L102.706 81.9306L102.706 81.9298ZM126.044 77.941C125.597 78.0654 124.647 79.4723 124.437 79.9276C123.653 81.6289 123.612 83.6298 125.427 81.2015C126.056 80.3593 126.659 79.3531 126.767 78.2948C126.646 77.9913 126.367 77.851 126.044 77.941ZM97.1099 79.2102C96.7467 79.1856 96.4041 79.3815 96.1161 79.5773C95.666 79.8837 93.3738 82.4148 93.6694 82.7892C95.1702 82.1191 96.9115 80.9855 97.1099 79.2102ZM115.326 79.2097C114.39 78.8891 111.654 82.5409 111.886 82.7888C113.384 82.0744 115.263 81.1138 115.326 79.2097ZM69.8582 85.94C70.3966 86.4574 72.1913 84.4277 72.3617 83.9284C72.5804 83.2885 72.3751 82.3055 72.4547 81.5872C72.5214 80.9864 72.8489 80.3967 72.8683 79.7822C71.1326 81.2902 69.7132 83.5717 69.8578 85.94H69.8582Z" fill="#116FF2"/>
<path d="M69.2828 69.1857L67.9223 69.6161C65.0952 74.5362 62.2831 80.5857 58.457 84.7956C57.2399 86.135 55.7443 87.6882 53.932 86.1587C52.0839 84.5985 53.5265 80.098 54.9416 78.5659C55.7964 77.6406 56.6627 78.1058 57.5325 78.7187C57.0526 79.7012 56.3361 80.519 55.9186 81.5458C55.5244 82.5155 55.0643 83.7662 55.6513 84.7328C55.9522 84.9424 56.534 84.4724 56.7927 84.2801C58.7359 82.834 62.3011 77.3996 63.7498 75.1874C64.4939 74.0512 66.4741 71.2219 66.8438 70.1132C66.963 69.7556 66.7151 69.9828 66.5989 70.0121C65.6788 70.2449 62.2766 71.7685 61.681 71.4061L61.1086 69.7586C61.922 69.8382 62.6231 69.6949 63.4051 69.5447C65.2919 69.1823 69.5195 67.4638 71.1567 67.9605C71.6718 68.1167 72.0282 68.6925 71.8354 69.2232C68.9148 75.8317 64.4561 82.7556 65.8415 90.3037L65.5501 90.4586C62.0683 87.7046 63.8918 82.6377 65.1223 79.1344C65.7868 77.242 66.5972 75.3673 67.3943 73.527C67.6301 72.9826 69.427 69.3743 69.2832 69.1853L69.2828 69.1857Z" fill="#116FF2"/>
<path d="M89.651 75.0574C89.9286 75.3049 88.1821 76.1545 88.0267 76.2268C86.0952 77.1237 83.475 77.8575 81.9071 75.9866C82.9276 75.9655 83.9575 76.1385 84.9878 76.0568C86.5359 75.9341 88.1304 75.3406 89.651 75.0574Z" fill="#116FF2"/>
<path d="M75.2371 71.4422V68.7958H75.9967V69.7861H76.972V68.7958H77.7316V71.4422H76.972V70.4364H75.9967V71.4422H75.2371Z" fill="#116FF2"/>
<path d="M79.5646 71.4422L80.7318 68.7769H81.4643L82.6315 71.4422H81.8168L81.6171 70.9697H80.5596L80.3638 71.4422H79.565H79.5646ZM80.7826 70.399H81.3976L81.092 69.6467L80.7826 70.399Z" fill="#116FF2"/>
<path d="M86.5002 71.9716V71.4422H84.4636V68.7958H85.2232V70.7997H86.1593V68.7958H86.9189V70.7997H87.2284L87.1423 71.9716H86.5002Z" fill="#116FF2"/>
<path d="M89.0532 71.4422V68.7958H89.8051V70.2854L90.8664 68.7958H91.5752V71.4422H90.8233V69.9527L89.762 71.4422H89.0532Z" fill="#116FF2"/>
<path d="M96.0611 71.0945C95.7779 71.3618 95.4258 71.4952 95.0058 71.4952C94.5857 71.4952 94.235 71.3622 93.9543 71.0962C93.6737 70.8302 93.5334 70.5044 93.5334 70.1188C93.5334 69.7332 93.675 69.4104 93.9582 69.1436C94.2414 68.8763 94.593 68.7429 95.0135 68.7429C95.434 68.7429 95.7843 68.8759 96.0649 69.1419C96.3455 69.4078 96.4858 69.7336 96.4858 70.1192C96.4858 70.5049 96.3443 70.8277 96.0611 71.0945ZM95.0135 70.8337C95.2197 70.8337 95.3875 70.7644 95.5166 70.6258C95.6457 70.4872 95.7103 70.3185 95.7103 70.1192C95.7103 69.92 95.6436 69.7543 95.5106 69.6144C95.3776 69.4745 95.2089 69.4044 95.0053 69.4044C94.8018 69.4044 94.6352 69.4737 94.5061 69.6123C94.377 69.7508 94.3124 69.92 94.3124 70.1188C94.3124 70.3177 94.3783 70.4838 94.5104 70.6237C94.6421 70.7635 94.8099 70.8337 95.0135 70.8337Z" fill="#116FF2"/>
<path d="M98.448 71.4422V68.7958H99.2076V69.7861H100.183V68.7958H100.942V71.4422H100.183V70.4364H99.2076V71.4422H98.448Z" fill="#116FF2"/>
<path d="M102.775 71.4422L103.943 68.7769H104.675L105.842 71.4422H105.028L104.828 70.9697H103.77L103.575 71.4422H102.776H102.775ZM103.993 70.399H104.608L104.303 69.6467L103.993 70.399Z" fill="#116FF2"/>
<path d="M107.831 71.4801C107.653 71.4801 107.502 71.4599 107.377 71.4194L107.427 70.8561C107.474 70.8664 107.533 70.8711 107.603 70.8711C107.656 70.8711 107.699 70.8634 107.733 70.8483C107.767 70.8333 107.804 70.7937 107.844 70.7291C107.884 70.665 107.916 70.5742 107.94 70.4571C107.964 70.34 107.983 70.1722 107.999 69.9544C108.014 69.7366 108.022 69.4724 108.022 69.1625V68.7958H110.129V71.4422H109.369V69.4384H108.731V69.5404C108.731 69.8554 108.717 70.1287 108.688 70.3607C108.659 70.5927 108.62 70.7799 108.569 70.9219C108.518 71.0644 108.453 71.1776 108.375 71.2623C108.297 71.3467 108.215 71.4039 108.13 71.4345C108.045 71.4646 107.946 71.4797 107.831 71.4797L107.831 71.4801Z" fill="#116FF2"/>
<path d="M112.182 71.4422V68.7958H112.941V69.6278H113.357C113.699 69.6278 113.974 69.7052 114.183 69.8602C114.392 70.0151 114.496 70.2376 114.496 70.5273C114.496 70.8169 114.397 71.0355 114.199 71.1982C114 71.3609 113.732 71.4422 113.396 71.4422H112.182ZM112.942 70.8259H113.337C113.465 70.8259 113.564 70.7988 113.633 70.7446C113.702 70.6904 113.737 70.6116 113.737 70.5083C113.737 70.4149 113.701 70.3409 113.631 70.2854C113.56 70.2299 113.464 70.2023 113.341 70.2023H112.942V70.8259Z" fill="#116FF2"/>
<path d="M116.384 71.4422V68.7958H117.144V69.7861H118.119V68.7958H118.879V71.4422H118.119V70.4364H117.144V71.4422H116.384Z" fill="#116FF2"/>
<path d="M120.711 71.4422L121.878 68.7769H122.611L123.778 71.4422H122.963L122.764 70.9697H121.706L121.51 71.4422H120.712H120.711ZM121.929 70.399H122.544L122.239 69.6467L121.929 70.399Z" fill="#116FF2"/>
<path d="M125.485 71.4422L126.139 70.5199C125.763 70.3663 125.575 70.0926 125.575 69.6996C125.575 69.4048 125.682 69.1806 125.895 69.0265C126.107 68.8729 126.38 68.7958 126.711 68.7958H128.007V71.4422H127.248V70.6409H126.915L126.363 71.4422H125.486H125.485ZM126.746 70.0775H127.247V69.4199H126.75C126.622 69.4199 126.521 69.4487 126.448 69.5068C126.375 69.5649 126.338 69.6467 126.338 69.7526C126.338 69.8507 126.374 69.9295 126.446 69.9889C126.518 70.0482 126.618 70.0775 126.745 70.0775H126.746Z" fill="#116FF2"/>
</g>
<defs>
<linearGradient id="paint0_linear_2756_376" x1="51.6221" y1="57.3546" x2="14.1076" y2="78.1885" gradientUnits="userSpaceOnUse">
<stop stop-color="#17DBF2"/>
<stop offset="0.59" stop-color="#0C92F1"/>
<stop offset="1" stop-color="#0A50F1"/>
</linearGradient>
<linearGradient id="paint1_linear_2756_376" x1="12.3219" y1="83.019" x2="32.3669" y2="83.019" gradientUnits="userSpaceOnUse">
<stop stop-color="#17DBF2"/>
<stop offset="1" stop-color="#0C8FF1"/>
</linearGradient>
<linearGradient id="paint2_linear_2756_376" x1="31.5177" y1="90.2365" x2="35.012" y2="72.1386" gradientUnits="userSpaceOnUse">
<stop stop-color="#17DBF2"/>
<stop offset="0.59" stop-color="#0C92F1"/>
<stop offset="1" stop-color="#0A50F1"/>
</linearGradient>
<linearGradient id="paint3_linear_2756_376" x1="23.6844" y1="77.0062" x2="43.3825" y2="77.0062" gradientUnits="userSpaceOnUse">
<stop stop-color="#215FA5"/>
<stop offset="1" stop-color="#7794D4"/>
</linearGradient>
<clipPath id="clip0_2756_376">
<rect width="116.459" height="45.6066" fill="white" transform="translate(11.7904 47.3934)"/>
</clipPath>
</defs>
</svg>
