<svg width="140" height="140" viewBox="0 0 140 140" fill="none" xmlns="http://www.w3.org/2000/svg">
<g clip-path="url(#clip0_2125_371)">
<rect width="140" height="140" rx="30" fill="#000001"/>
<rect x="5" y="39" width="128" height="66" fill="#542AEB"/>
<path d="M63 107.968C40.1172 107.968 17.2344 107.958 -5.64757 108C-6.77787 108.002 -7.00156 107.78 -6.99998 106.654C-6.95809 83.2174 -6.95809 59.7818 -6.99998 36.3453C-7.00235 35.2204 -6.77786 34.9992 -5.64835 35C40.1172 35.0362 85.882 35.0362 131.648 35C132.777 34.9992 133.002 35.2196 133 36.3453C132.958 59.7818 132.958 83.2182 133 106.654C133.002 107.779 132.778 108.002 131.648 108C108.766 107.957 85.8828 107.968 63.0008 107.968H63ZM33.7013 93.9679C34.4617 93.9781 35.4679 93.5758 36.2268 92.5517C37.2496 91.171 38.0076 89.6683 38.549 88.0475C41.0112 80.6749 42.9461 73.1472 45.1388 65.6958C47.1141 58.9836 49.0174 52.2501 50.9184 45.5158C51.6203 43.0292 51.1555 42.5206 48.5858 42.9378C45.8747 43.3779 43.1872 43.9683 40.4705 44.3611C39.2944 44.5311 38.9956 45.0341 38.9213 46.1487C38.1823 57.2329 37.3887 68.3139 36.5919 79.3941C36.5398 80.1246 36.6615 81.2865 35.7952 81.3204C34.8838 81.3566 34.985 80.1766 34.8791 79.4634C33.5678 70.6463 32.3118 61.8213 30.9728 53.0081C30.606 50.5955 30.4361 48.0978 28.8576 46.022C27.955 44.8341 26.8057 44.4547 25.3845 44.7365C23.6226 45.086 22.6536 46.325 22.0758 47.8648C21.5391 49.2943 21.0735 50.7663 20.7542 52.258C19.2334 59.3693 17.7751 66.494 16.2915 73.6124C14.5051 82.1823 12.7243 90.7538 10.9142 99.3198C10.6842 100.409 10.719 100.967 12.1117 100.66C14.5794 100.116 17.0677 99.6544 19.5646 99.2616C20.5337 99.1089 20.7779 98.7011 20.8269 97.7754C21.3225 88.4301 21.8632 79.0872 22.407 69.7442C22.4489 69.0184 22.2244 67.8983 23.1452 67.8078C24.0977 67.7141 24.0645 68.9051 24.2186 69.5758C25.1972 73.8399 26.0722 78.1276 27.031 82.3964C27.7123 85.4302 28.0972 88.5537 29.5627 91.3662C30.3341 92.8477 31.3822 93.9812 33.7006 93.9694L33.7013 93.9679ZM109.905 67.5134C109.38 67.2339 109.572 66.7388 109.525 66.3428C108.778 60.0423 108.132 53.7284 107.272 47.4428C106.819 44.1359 105.673 42.9497 103.656 42.9229C101.583 42.8953 100.387 44.0651 99.6401 47.1618C97.589 55.6601 96.031 64.2616 94.2866 72.8244C93.6131 76.1274 93.6123 76.088 96.9108 76.7115C98.1296 76.9421 98.5122 76.5588 98.7019 75.3646C99.3856 71.043 100.185 66.7388 100.97 62.433C101.08 61.8316 101 60.8673 101.809 60.8681C102.514 60.8681 102.43 61.8079 102.516 62.3566C103.017 65.5446 103.424 68.7469 103.938 71.9325C104.329 74.3578 104.376 76.8571 105.256 79.1816C106.094 81.3951 108.47 81.7454 109.925 79.9491C110.523 79.2107 110.879 78.3559 111.201 77.4813C113.05 72.4466 114.861 67.3969 116.769 62.3841C117.164 61.3459 117.098 59.4606 118.423 59.6227C119.231 59.7211 118.739 61.6576 118.668 62.7541C118.204 69.8528 117.71 76.95 117.169 84.0432C117.08 85.2019 117.418 85.4782 118.508 85.2342C120.276 84.8398 122.049 84.4265 123.843 84.214C125.142 84.0597 125.355 83.456 125.35 82.298C125.308 72.663 125.339 63.0273 125.314 53.3923C125.31 51.8077 125.219 50.2145 125.033 48.6409C124.661 45.5135 121.871 44.3004 119.402 46.133C118.256 46.9831 117.587 48.1615 117.034 49.4297C114.671 54.8548 112.867 60.491 110.731 66.0012C110.528 66.5239 110.54 67.2009 109.907 67.5141L109.905 67.5134ZM70.5873 50.7923C69.1701 51.951 68.005 53.0192 66.7189 53.9157C65.8447 54.525 65.5254 55.1784 65.625 56.23C66.0479 60.7067 65.9159 65.1912 65.6313 69.6702C65.4954 71.8027 65.1816 73.9139 64.3556 75.9054C64.0845 76.5595 63.6877 77.2853 62.8656 77.2633C61.9203 77.2373 61.7274 76.3627 61.469 75.6488C61.3773 75.3961 61.3638 75.1143 61.3227 74.8443C60.7536 71.1414 60.9212 67.4276 61.197 63.7184C61.3773 61.2931 61.6587 58.8757 61.9005 56.4009C58.987 56.9684 56.1771 57.499 53.3268 57.6469C52.1965 57.706 51.9609 58.1964 51.9269 59.1402C51.8084 62.4739 51.5539 65.8068 51.5483 69.1397C51.5452 71.5917 51.7791 74.05 52.6952 76.3887C53.9615 79.6201 56.1684 81.6919 59.7387 81.9548C63.2063 82.2099 65.7364 80.593 67.5521 77.7364C68.7733 75.8141 69.525 73.7084 69.9312 71.487C71.1706 64.7087 70.9888 57.8823 70.5881 50.7938L70.5873 50.7923ZM74.8066 45.5135C74.6801 45.9071 74.6026 46.0464 74.5939 46.1897C74.2541 51.9281 74.0818 57.6721 74.0699 63.4209C74.0628 66.8002 74.5615 70.0677 76.1835 73.0968C77.894 76.2911 80.9885 77.871 84.2261 77.0767C87.2012 76.3462 88.7773 74.1484 89.7029 71.4421C91.2458 66.9301 90.8135 62.2535 90.7289 57.6099C90.7233 57.3234 90.672 57.0495 90.4072 56.9031C89.0532 56.1521 87.6913 55.4145 86.1444 54.5691C86.4875 58.6301 86.5254 62.4046 86.3144 66.1744C86.2021 68.1872 86.1397 70.2346 85.301 72.1293C85.0852 72.6166 84.8371 73.1771 84.1446 73.1306C83.4459 73.0834 83.0499 72.6048 82.891 71.9955C82.699 71.2579 82.5741 70.4975 82.4927 69.7387C81.8959 64.219 82.2152 58.6955 82.4286 53.1711C82.4508 52.6004 82.7219 51.9179 82.1393 51.4739C79.6716 49.5942 77.1692 47.7601 74.8058 45.5127L74.8066 45.5135Z" fill="#000001"/>
</g>
<defs>
<clipPath id="clip0_2125_371">
<rect width="140" height="140" rx="30" fill="white"/>
</clipPath>
</defs>
</svg>
