<svg width="140" height="140" viewBox="0 0 140 140" fill="none" xmlns="http://www.w3.org/2000/svg">
<rect width="140" height="140" rx="30" fill="white"/>
<g clip-path="url(#clip0_3610_765)">
<path d="M112.251 66.125C112.396 66.1354 112.537 66.1236 112.681 66.1057C115.523 65.75 118.495 64.8192 121.349 64.4221C122.673 64.2378 123.856 64.2951 124.31 65.7652C124.646 66.8542 124.661 68.4577 123.325 68.8112L112.489 70.5348C112.431 70.6149 112.451 71.1211 112.456 71.2668C112.537 73.5483 112.875 75.823 113.08 78.0928C113.252 80.0056 113.68 82.6027 113.635 84.4409C113.577 86.7674 112 87.105 110.007 87.2307C107.979 87.3585 107.995 85.8331 107.774 84.222C107.325 80.9495 107.363 77.0846 107.279 73.75C107.263 73.0898 107.373 72.1458 107.283 71.5375C107.269 71.4436 107.322 71.4201 107.178 71.4339L102.556 72.3344C101.63 74.9791 101.028 77.7178 100.292 80.4178C99.8399 82.0724 99.4256 83.8795 98.8801 85.4912C98.3345 87.103 97.5307 87.3108 95.8603 87.1617C93.1617 86.9207 94.1388 84.1702 94.6022 82.4577C95.4225 79.4269 96.4866 76.4521 97.385 73.4441C97.4016 73.3895 97.4506 73.3018 97.3768 73.2977L94.5946 73.8625L92.9898 84.4326C92.6424 85.7454 91.9532 86.6728 90.5936 87.0035C89.5543 87.257 87.9523 87.4337 87.4226 86.2819C86.1465 83.5032 88.3514 78.2392 88.765 75.3133C88.7802 75.207 88.8582 74.9853 88.6815 75.0219L79.4973 76.8118C77.7757 79.3392 76.6046 82.205 75.1551 84.8877C74.6117 85.8931 73.9142 87.4462 72.6512 87.6271C72.1057 87.7051 70.5934 87.701 70.0955 87.5276C69.4948 87.3184 69.0141 86.7266 68.7863 86.1459L63.8689 70.4706C63.6652 70.6916 63.4946 71.0285 63.3503 71.2965C61.0895 75.5053 59.6732 80.1499 57.6699 84.4499C56.5264 86.9048 55.2434 87.4696 52.5137 87.2335C50.4779 87.0574 51.5006 84.6633 51.9661 83.5087C54.2359 77.8759 57.451 71.9062 60.4756 66.6305C62.8946 62.4113 65.9115 57.2156 69.0473 53.5392C70.3055 52.0635 71.1894 51.884 73.1546 52.0518C74.0613 52.1291 74.7311 52.6891 74.5509 53.6594C74.5019 53.9224 74.129 54.4804 73.975 54.7387C72.3667 57.4193 70.3365 59.8549 68.7283 62.5314C68.6613 62.6426 68.5494 62.742 68.5632 62.8829L71.8695 60.7049C75.1959 58.4455 78.2577 55.5376 81.5426 53.2664C83.0321 52.2368 85.2432 51.3523 86.759 52.8376C88.3376 54.3844 86.4379 55.5632 85.2584 56.4284C80.6049 59.8411 75.7842 62.7407 70.9843 65.8902C70.5181 66.1961 68.7973 67.2547 68.5729 67.6193C68.2414 68.158 68.5149 68.816 68.6689 69.365L72.6353 79.1624C72.7955 79.2046 72.7507 79.1238 72.7928 79.0747C72.9268 78.9194 73.0504 78.7295 73.174 78.5637C79.2645 70.367 84.6183 61.6959 91.2337 53.8479C92.514 52.3287 93.0319 51.9295 95.1677 52.1257C97.0287 52.2969 97.1371 53.484 97.066 55.0549C96.9804 56.9436 96.729 59.1609 96.5143 61.0557C96.1911 63.9035 95.5523 66.7161 95.3417 69.5749C96.5605 69.3968 97.7952 69.1268 98.983 68.7988C99.6873 66.9564 100.41 65.1175 101.176 63.3007C102.264 60.7215 103.391 57.9821 104.578 55.4575C105.353 53.8071 106.042 52.6394 107.945 52.2023C109.849 51.7652 111.469 51.895 111.768 54.1593C112.058 56.3635 111.826 58.8267 112.184 61.0544L112.25 66.1271L112.251 66.125ZM103.694 67.8486L107.274 67.1159L107.075 58.538L103.694 67.8486ZM91.6156 59.435C91.4422 59.4475 91.3103 59.6885 91.2047 59.8169C90.5514 60.6103 89.9244 61.5074 89.3099 62.3374C86.8778 65.6209 84.5092 68.9652 82.2988 72.4013L89.5301 70.9381L91.6156 59.435Z" fill="#FE2679"/>
<path d="M29.431 68.7464L25.6924 77.4589C24.2478 80.1154 23.0718 86.6742 20.0237 87.7956C18.6951 88.2845 16.0414 87.9531 16 86.1501C15.9675 84.7317 17.6987 81.6498 18.3319 80.2418C22.0312 72.0223 25.5978 63.3208 29.9717 55.4562C30.8632 53.8528 31.8845 52.2535 33.99 52.7058C35.8302 53.1015 35.7743 55.1662 35.7115 56.7088C35.5962 59.5338 35.1031 62.4963 34.8849 65.3323C34.7799 66.6934 34.7171 68.0682 34.7116 69.4355C35.9815 66.9157 37.1664 64.3545 38.4143 61.8237C39.631 59.355 40.8526 56.7351 42.1646 54.3285C42.5395 53.6408 43.0809 52.4972 43.8688 52.2383C44.5953 51.9993 46.7139 51.9793 47.4265 52.2459C48.4616 52.6333 48.126 53.4156 47.8029 54.1704C46.6358 56.8967 44.9558 59.7175 43.614 62.3989C40.6198 68.3811 37.9329 74.232 35.4546 80.4545C34.8186 82.051 34.2959 83.7939 33.586 85.3463C33.1461 86.3089 32.4894 87.5022 31.3238 87.6375C29.4179 87.8585 27.762 87.2715 27.9843 85.059L29.4324 68.7464H29.431Z" fill="#FE2679"/>
<path d="M53.8396 63.8248C54.4735 63.2116 55.0978 62.1558 55.5908 61.4017C57.2329 58.8895 58.7362 56.1605 60.4612 53.716C60.9432 53.033 61.4045 52.3542 62.3195 52.2624C63.6847 52.125 65.5243 52.5214 65.1065 54.2884C64.86 55.3305 63.4879 57.4083 62.8919 58.4206C60.2506 62.9092 57.369 67.2582 54.8188 71.8033C52.2313 76.4155 50.0202 81.2244 47.7787 86.0112C46.9708 87.3302 45.5372 87.5525 44.0961 87.44C42.9242 87.3488 42.3117 86.8723 42.4947 85.628C42.6687 84.443 44.797 81.0946 45.5013 79.873C47.084 77.1288 48.9858 74.3411 50.4256 71.5506C51.9123 68.6697 50.1135 69.5708 48.2428 69.6454C42.6929 69.8664 44.2363 65.1707 45.7085 61.8706C46.4847 60.1297 47.3727 58.3841 48.2628 56.6984C48.7828 55.7137 50.0762 53.0413 50.9449 52.5504C52.1644 51.8612 54.7712 52.281 54.2588 54.1379C53.2554 56.5092 51.8916 58.8502 50.9324 61.2291C50.3496 62.6751 49.492 64.9849 52.0269 64.737C52.7265 64.6687 53.3473 64.3013 53.8403 63.8248H53.8396Z" fill="#FE2679"/>
</g>
<defs>
<clipPath id="clip0_3610_765">
<rect width="108.501" height="36" fill="white" transform="translate(16 52)"/>
</clipPath>
</defs>
</svg>
