<svg width="140" height="140" viewBox="0 0 140 140" fill="none" xmlns="http://www.w3.org/2000/svg">
<rect width="140" height="140" rx="30" fill="#F046B1"/>
<g clip-path="url(#clip0_752_3464)">
<path d="M30.0456 79.7689C29.6887 79.9627 29.3797 80.1399 29.0619 80.3006C28.4605 80.6035 27.8406 80.8635 27.1913 81.0476C26.7552 81.1712 26.3191 81.2978 25.8791 81.404C25.62 81.4663 25.3511 81.4936 25.0861 81.5306C24.692 81.5861 24.299 81.6718 23.9029 81.6825C23.0004 81.7049 22.0959 81.6942 21.1934 81.6864C20.9832 81.6844 20.773 81.6484 20.5637 81.6163C20.2596 81.5695 19.9555 81.5189 19.6543 81.4566C19.3454 81.3923 19.0383 81.3173 18.7332 81.2384C17.9441 81.0329 17.1991 80.7213 16.4901 80.322C15.5837 79.8118 14.7995 79.1554 14.1405 78.3529C13.7112 77.83 13.3426 77.2681 13.0688 76.6478C12.9074 76.2826 12.7432 75.9184 12.6092 75.5434C12.5104 75.2659 12.4567 74.9728 12.3853 74.6855C12.3295 74.4605 12.2758 74.2346 12.221 74.0087C12.2151 73.9853 12.2073 73.9619 12.2044 73.9376C12.1662 73.5198 12.132 73.102 12.091 72.6852C12.0773 72.5421 12.046 72.4008 12.0245 72.2577C12.0147 72.1934 12.002 72.1291 12.0039 72.0649C12.0137 71.7357 11.9531 71.4017 12.0773 71.0784C12.1046 71.0063 12.088 70.9177 12.0919 70.8369C12.1076 70.5233 12.0626 70.2039 12.179 69.8991C12.1848 69.8845 12.1829 69.8669 12.1848 69.8513C12.222 69.5397 12.2494 69.2271 12.3002 68.9174C12.3354 68.7051 12.4039 68.4987 12.4567 68.2893C12.4967 68.1345 12.5388 67.9796 12.576 67.8238C12.6884 67.3486 12.8615 66.8948 13.0414 66.441C13.2184 65.994 13.4286 65.5645 13.6584 65.1438C13.9204 64.6647 14.2206 64.2109 14.5531 63.7765C15.0508 63.126 15.614 62.5378 16.2437 62.0139C16.9399 61.4345 17.6997 60.9524 18.5132 60.5512C19.0344 60.2941 19.5742 60.0847 20.1227 59.8968C20.4043 59.8004 20.6977 59.738 20.9871 59.6689C21.3792 59.5754 21.7723 59.4819 22.1683 59.404C22.4225 59.3543 22.6817 59.3047 22.9388 59.3037C23.7592 59.3008 24.5776 59.1245 25.4 59.2667C25.5271 59.2891 25.6601 59.2735 25.7901 59.2842C26.2184 59.3193 26.6516 59.33 27.073 59.404C27.6529 59.5063 28.2307 59.6309 28.7959 59.7945C29.3992 59.9688 29.984 60.2026 30.5433 60.4937C30.5971 60.522 30.6577 60.5376 30.7222 60.5619C30.8151 60.3535 30.862 60.1636 30.8669 59.9571C30.8699 59.814 30.91 59.6718 30.9334 59.5296C30.9373 59.5053 30.9452 59.4819 30.9471 59.4585C30.9853 59.0895 31.0146 58.7204 31.0645 58.3532C31.1094 58.0192 31.1749 57.6891 31.2346 57.357C31.2688 57.1681 31.3021 56.9782 31.347 56.7912C31.4165 56.5039 31.4673 56.2079 31.5758 55.9342C31.7401 55.5203 31.921 55.1084 32.142 54.7218C32.6661 53.8035 33.4112 53.1111 34.3792 52.6641C34.7528 52.4917 35.137 52.3573 35.5399 52.2638C35.976 52.1616 36.4102 52.0856 36.859 52.0759C37.0839 52.071 37.3078 52.0116 37.5327 51.9999C37.6588 51.9931 37.7869 52.034 37.914 52.0545C37.9541 52.0603 37.9942 52.0768 38.0343 52.0749C38.4274 52.0554 38.8097 52.1382 39.195 52.1888C39.3788 52.2132 39.5646 52.2443 39.7416 52.2979C40.1806 52.4313 40.6206 52.5608 41.0421 52.7498C41.5544 52.9796 42.0238 53.2737 42.4677 53.6136C42.8657 53.9184 43.2627 54.2251 43.6665 54.5222C43.8171 54.6332 43.8826 54.7383 43.8494 54.9448C43.7535 55.5437 43.6998 56.1485 43.6186 56.7503C43.5394 57.3434 43.4475 57.9355 43.3624 58.5276C43.3233 58.8002 43.2881 59.0729 43.2529 59.3456C43.248 59.3836 43.2607 59.4245 43.2656 59.4761C43.4475 59.516 43.6206 59.4878 43.7927 59.443C43.8396 59.4303 43.8846 59.406 43.9325 59.4011C44.6854 59.3271 45.4383 59.2492 46.1961 59.3047C46.4953 59.3271 46.7975 59.3466 47.0918 59.4001C47.4722 59.4693 47.8467 59.5705 48.2231 59.6601C48.7384 59.7819 49.2127 59.999 49.6693 60.261C49.9871 60.4431 50.2697 60.671 50.5415 60.9144C50.7146 61.0702 50.7166 61.0634 50.919 60.9505C51.4822 60.6349 52.0601 60.3506 52.6741 60.148C53.1396 59.9942 53.6021 59.8247 54.0753 59.6991C54.4645 59.5959 54.8674 59.5433 55.2653 59.478C55.6408 59.4157 56.0173 59.3641 56.3947 59.3115C56.4993 59.2969 56.6059 59.294 56.7115 59.293C57.3628 59.2901 58.015 59.2881 58.6662 59.2891C59.1629 59.2901 59.6508 59.368 60.1368 59.4624C60.3666 59.5072 60.6013 59.5306 60.8291 59.5842C61.1029 59.6494 61.3757 59.7254 61.6426 59.8179C61.9086 59.9104 62.1638 60.0321 62.4278 60.1315C62.4816 60.1519 62.5559 60.1431 62.6136 60.1246C63.0497 59.9844 63.4809 59.8247 63.9219 59.6981C64.1605 59.6299 64.4147 59.6105 64.6631 59.5764C65.0806 59.5199 65.4991 59.4683 65.9167 59.4167C66.0213 59.404 66.1279 59.3943 66.2325 59.3933C66.9414 59.3904 67.6503 59.3709 68.3583 59.3972C68.7523 59.4118 69.1415 59.5111 69.5346 59.5588C69.826 59.5939 70.1027 59.6796 70.3794 59.7682C71.0091 59.9698 71.586 60.2659 72.0906 60.6953C72.4729 61.0206 72.4113 61.043 72.8015 60.6797C73.308 60.2074 73.9074 59.8812 74.5693 59.666C75.0318 59.515 75.5022 59.4235 75.9862 59.3621C76.3597 59.3144 76.7303 59.2871 77.1038 59.2959C77.6152 59.3066 78.1217 59.3621 78.6243 59.4644C78.8541 59.5111 79.0888 59.5326 79.3156 59.5881C79.5816 59.6533 79.8427 59.738 80.1018 59.8247C80.2768 59.8831 80.444 59.9659 80.6191 60.0253C80.6729 60.0438 80.7442 60.0312 80.8019 60.0127C81.2234 59.8773 81.6428 59.7439 82.0819 59.6621C82.56 59.5725 83.0421 59.5238 83.5232 59.4615C84.4746 59.3378 85.426 59.3904 86.3764 59.4011C86.7451 59.405 87.1137 59.4955 87.4784 59.5647C87.763 59.6192 88.0426 59.6971 88.3223 59.7741C88.4533 59.8101 88.5834 59.8598 88.7056 59.9201C88.8044 59.9688 88.8855 59.9591 88.9833 59.9201C89.349 59.7711 89.7245 59.6562 90.1117 59.5676C90.5478 59.4683 90.9878 59.4225 91.4278 59.3582C91.949 59.2833 92.4692 59.2716 92.9855 59.3105C93.403 59.3417 93.8284 59.3485 94.239 59.4654C94.4092 59.5141 94.5871 59.5355 94.7612 59.5686C95.5454 59.7176 96.2748 60.0166 96.9701 60.3973C97.1334 60.4859 97.2605 60.485 97.4218 60.3993C97.7347 60.2337 98.0594 60.0915 98.3899 59.9338C98.4221 59.7624 98.4036 59.5881 98.3674 59.4137C98.3429 59.2959 98.3107 59.1771 98.3068 59.0583C98.297 58.7184 98.3038 58.3776 98.297 58.0367C98.2882 57.6063 98.382 57.1944 98.4769 56.7766C98.6461 56.0374 98.9756 55.3733 99.4058 54.7617C99.7021 54.342 100.049 53.9593 100.461 53.636C100.919 53.2756 101.402 52.9562 101.936 52.7235C102.276 52.5764 102.625 52.4566 102.987 52.3612C103.651 52.1869 104.323 52.0944 105.005 52.1051C105.44 52.1129 105.874 52.1801 106.305 52.2629C107.021 52.4011 107.682 52.6582 108.298 53.0419C109.181 53.5921 109.844 54.3371 110.288 55.273C110.557 55.8388 110.72 56.4338 110.798 57.058C110.846 57.4388 110.879 57.8167 110.856 58.1964C110.819 58.7866 110.728 59.3689 110.527 59.9299C110.502 60.001 110.499 60.0789 110.477 60.2006C110.612 60.1636 110.702 60.1441 110.79 60.1149C111.134 60 111.473 59.8724 111.819 59.7692C112.158 59.6679 112.503 59.5764 112.85 59.5063C113.143 59.4469 113.442 59.4108 113.741 59.3894C114.073 59.366 114.408 59.3709 114.742 59.3641C115.019 59.3582 115.086 59.2901 115.109 59.0262C115.141 58.6736 115.173 58.3201 115.223 57.9695C115.275 57.6044 115.33 57.2372 115.418 56.8798C115.628 56.0306 115.908 55.2019 116.404 54.4715C116.986 53.6145 117.74 52.9445 118.723 52.5686C119.091 52.4284 119.47 52.3125 119.848 52.2015C120.025 52.1499 120.213 52.1236 120.398 52.1051C120.833 52.0622 121.269 52.0262 121.705 51.998C121.808 51.9912 121.912 52.0262 122.016 52.0428C122.088 52.0545 122.161 52.0807 122.231 52.0759C122.625 52.0486 123.006 52.1479 123.392 52.1976C123.67 52.2336 123.948 52.3067 124.215 52.3953C124.667 52.5443 125.113 52.7069 125.536 52.9299C125.968 53.1568 126.36 53.4402 126.745 53.7343C127.118 54.0187 127.486 54.3108 127.865 54.5864C127.973 54.6643 128.012 54.7345 127.99 54.8669C127.924 55.274 127.872 55.683 127.813 56.092C127.777 56.3481 127.736 56.6042 127.703 56.8603C127.627 57.4378 127.56 58.0163 127.48 58.5938C127.4 59.1703 127.305 59.7448 127.222 60.3214C127.176 60.6418 127.144 60.9641 127.1 61.2845C127.051 61.6448 126.994 62.0042 126.94 62.3645C126.9 62.6362 126.857 62.9088 126.822 63.1815C126.778 63.5185 126.745 63.8564 126.699 64.1933C126.652 64.5293 126.593 64.8643 126.542 65.2003C126.504 65.4486 126.468 65.696 126.436 65.9453C126.393 66.2744 126.36 66.6046 126.314 66.9327C126.264 67.2931 126.204 67.6524 126.15 68.0127C126.114 68.2523 126.079 68.4928 126.047 68.7334C126.005 69.0538 125.972 69.3761 125.928 69.6965C125.878 70.0568 125.818 70.4162 125.769 70.7765C125.742 70.9693 125.728 71.1631 125.708 71.3569C125.695 71.4796 125.778 71.5497 125.858 71.6189C126.095 71.8263 126.35 72.0152 126.57 72.2402C127.183 72.8654 127.601 73.6016 127.802 74.4586C127.905 74.9026 127.983 75.3487 127.964 75.8034C127.893 77.5106 127.251 78.9363 125.871 80.0007C125.182 80.5324 124.417 80.9112 123.581 81.1449C123.106 81.2784 122.628 81.4059 122.144 81.4994C121.77 81.5715 121.387 81.5949 121.006 81.6211C120.479 81.6582 119.949 81.7068 119.422 81.6952C118.978 81.6854 118.536 81.6026 118.094 81.5403C117.518 81.4595 116.983 81.2521 116.471 80.9852C116.366 80.9307 116.273 80.9385 116.168 80.9804C115.664 81.1839 115.142 81.3212 114.611 81.4429C113.5 81.6981 112.378 81.6367 111.259 81.6036C110.929 81.5939 110.601 81.5111 110.274 81.4478C109.972 81.3894 109.674 81.3144 109.375 81.2413C108.797 81.1001 108.251 80.8752 107.731 80.5908C107.558 80.4964 107.425 80.4886 107.245 80.5976C106.835 80.844 106.384 81.0105 105.922 81.1371C105.587 81.2287 105.25 81.3193 104.911 81.3972C104.698 81.4459 104.481 81.4858 104.263 81.5053C103.737 81.552 103.21 81.5987 102.681 81.6192C102.169 81.6387 101.656 81.6319 101.142 81.626C99.9915 81.6114 98.9159 81.3183 97.9195 80.7437C97.2576 80.362 96.7158 79.8478 96.27 79.2313C96.1585 79.0775 96.1438 79.0755 95.9864 79.1827C95.1465 79.7562 94.2449 80.2101 93.2906 80.5655C92.6892 80.7895 92.0751 80.9687 91.4513 81.1079C90.978 81.2141 90.4911 81.2618 90.011 81.3348C89.9787 81.3397 89.9464 81.3407 89.9142 81.3455C89.5094 81.405 89.5103 81.405 89.4526 81.8071C89.3676 82.3992 89.2776 82.9913 89.1955 83.5844C89.1485 83.9291 89.1182 84.2758 89.0723 84.6206C89.0234 84.9897 88.9647 85.3568 88.9119 85.7249C88.8718 86.0054 88.8317 86.2858 88.7965 86.5663C88.7564 86.8877 88.7105 87.2081 88.688 87.5304C88.6772 87.6901 88.5824 87.7631 88.4641 87.8148C88.204 87.9277 87.9409 88.0348 87.673 88.1293C87.2995 88.2598 86.924 88.3893 86.5417 88.4955C86.1985 88.5899 85.8474 88.6562 85.4984 88.7272C85.204 88.7866 84.9097 88.8509 84.6125 88.8831C84.1206 88.9366 83.6259 88.9999 83.134 88.995C82.7077 88.9902 82.2804 88.9074 81.857 88.8383C81.5304 88.7847 81.2058 88.7107 80.885 88.6269C80.2514 88.4614 79.6735 88.1722 79.1396 87.7972C78.5002 87.3493 77.9956 86.7786 77.6397 86.0862C77.4979 85.8106 77.403 85.5116 77.2779 85.2273C77.1136 84.8543 77.0667 84.4492 77.0207 84.0567C76.966 83.5883 76.9327 83.1043 77.0628 82.633C77.0862 82.5482 77.0765 82.4557 77.0882 82.3671C77.1107 82.2006 77.1302 82.0331 77.1635 81.8675C77.1967 81.702 77.1576 81.6367 76.9894 81.628C76.9083 81.6241 76.8261 81.6319 76.746 81.6406C76.0312 81.7195 75.3203 81.7166 74.6026 81.6396C73.9924 81.5734 73.4038 81.4478 72.8337 81.2277C72.646 81.1557 72.4631 81.0651 72.2852 80.9706C72.1541 80.9005 72.0309 80.8878 71.8892 80.9356C71.5518 81.0495 71.2145 81.1615 70.8722 81.2589C70.6317 81.328 70.3843 81.3787 70.1379 81.4244C69.8113 81.4848 69.4818 81.5345 69.1532 81.5841C69.0486 81.5997 68.943 81.6095 68.8374 81.6114C68.3407 81.6192 67.8439 81.6231 67.3472 81.628C66.7116 81.6348 66.0858 81.5686 65.46 81.441C64.625 81.2715 63.8349 80.9998 63.1074 80.5577C62.8522 80.4029 62.6097 80.2247 62.3672 80.0494C62.2 79.9286 62.1687 79.9189 62.0015 80.024C61.2779 80.4798 60.5074 80.8401 59.6958 81.1021C59.2734 81.2384 58.8353 81.327 58.4022 81.4322C57.0841 81.7516 55.7415 81.7487 54.4 81.6971C53.9717 81.6806 53.5463 81.5987 53.12 81.5403C52.8951 81.5092 52.6712 81.4721 52.4492 81.4254C52.1246 81.3572 51.797 81.2959 51.4802 81.1995C50.8368 81.0028 50.2091 80.7632 49.6155 80.4409C49.5725 80.4175 49.5295 80.3951 49.4894 80.3668C49.3691 80.2821 49.2586 80.2889 49.1305 80.3668C48.4617 80.7729 47.742 81.0573 46.9813 81.2452C46.4533 81.3757 45.9204 81.4634 45.3816 81.5374C44.439 81.6679 43.4964 81.6358 42.5538 81.6036C42.0609 81.5871 41.5789 81.4478 41.1125 81.2793C40.738 81.144 40.3801 80.9726 40.0525 80.7447C39.9215 80.6541 39.8061 80.6444 39.6467 80.7057C39.104 80.9171 38.5574 81.1235 38.0001 81.29C37.5826 81.4147 37.1455 81.4712 36.7113 81.5364C35.9565 81.6494 35.2006 81.6095 34.4448 81.627C33.8982 81.6396 33.3623 81.5705 32.8294 81.4381C32.2897 81.3037 31.7783 81.1089 31.2972 80.8343C30.909 80.6122 30.556 80.3435 30.2519 80.0143C30.1805 79.9374 30.116 79.8546 30.0377 79.7631L30.0456 79.7689ZM117.114 75.931C117.166 76.2855 117.176 76.5981 117.262 76.8902C117.537 77.8339 118.215 78.1835 119.017 78.2487C119.758 78.3091 120.509 78.3169 121.255 78.1893C121.613 78.128 121.971 78.0764 122.325 77.9868C122.856 77.8534 123.35 77.6518 123.789 77.3216C124.333 76.9117 124.551 76.3439 124.583 75.6905C124.588 75.5658 124.52 75.4402 124.511 75.3126C124.495 75.0828 124.372 74.9046 124.25 74.7264C124.131 74.554 123.97 74.4644 123.75 74.517C123.657 74.5394 123.559 74.555 123.462 74.5598C123.122 74.5784 122.781 74.6046 122.441 74.6007C122.287 74.5988 122.126 74.516 122.073 74.3622C122.023 74.2122 122.011 74.0437 122.014 73.883C122.019 73.551 122.044 73.2198 122.063 72.8878C122.068 72.8069 122.071 72.7261 122.082 72.6463C122.137 72.2811 122.201 71.9169 122.249 71.5497C122.295 71.2069 122.327 70.8612 122.364 70.5174C122.366 70.5019 122.371 70.4863 122.373 70.4697C122.429 70.1289 122.495 69.79 122.542 69.4482C122.589 69.1054 122.619 68.7597 122.657 68.4159C122.659 68.4003 122.665 68.3847 122.667 68.3682C122.724 68.0196 122.787 67.6719 122.836 67.3213C122.882 66.9863 122.912 66.6494 122.951 66.3134C122.953 66.2978 122.958 66.2822 122.961 66.2657C123.018 65.917 123.081 65.5694 123.13 65.2188C123.175 64.8838 123.206 64.5468 123.245 64.2109C123.248 64.1875 123.261 64.1651 123.264 64.1408C123.286 64.0219 123.312 63.9041 123.327 63.7853C123.367 63.4581 123.403 63.1299 123.441 62.8017C123.443 62.7861 123.451 62.7706 123.453 62.755C123.509 62.4219 123.571 62.0908 123.616 61.7568C123.663 61.414 123.694 61.0683 123.731 60.7245C123.733 60.7089 123.738 60.6924 123.74 60.6768C123.797 60.336 123.862 59.9971 123.909 59.6553C123.957 59.3125 123.986 58.9677 124.024 58.623C124.026 58.6074 124.032 58.5918 124.034 58.5753C124.092 58.2188 124.155 57.8624 124.204 57.505C124.25 57.17 124.279 56.8331 124.32 56.4971C124.324 56.4581 124.341 56.4192 124.36 56.3832C124.411 56.2838 124.366 56.2098 124.295 56.1475C124.24 56.1007 124.179 56.0598 124.116 56.0228C123.502 55.6586 122.82 55.5096 122.122 55.4561C121.639 55.4181 121.152 55.4307 120.664 55.5194C119.914 55.6557 119.389 56.0413 119.086 56.7337C118.943 57.061 118.841 57.3989 118.788 57.7524C118.733 58.1205 118.663 58.4857 118.61 58.8528C118.559 59.2053 118.523 59.5598 118.478 59.9124C118.455 60.0964 118.425 60.2805 118.4 60.4645C118.358 60.7693 118.316 61.0741 118.274 61.378C118.22 61.7626 118.167 62.1463 118.112 62.531C118.072 62.8095 118.03 63.0871 117.985 63.388C117.865 63.3266 117.764 63.2779 117.666 63.2253C117.017 62.8826 116.302 62.8037 115.593 62.756C114.774 62.7014 113.949 62.7053 113.145 62.9235C112.763 63.0277 112.37 63.1095 112.005 63.2585C110.452 63.8915 109.287 64.9724 108.452 66.4108C107.76 67.6018 107.389 68.9038 107.183 70.2535C107.111 70.7249 107.08 71.204 107.066 71.6812C107.044 72.4583 107.023 73.2345 107.145 74.0096C107.231 74.556 107.358 75.0867 107.569 75.596C107.797 76.1482 108.124 76.64 108.568 77.0441C109.135 77.5612 109.82 77.8689 110.557 78.0501C110.957 78.1475 111.369 78.203 111.78 78.241C112.47 78.3052 113.164 78.2653 113.844 78.1416C114.246 78.0686 114.64 77.9459 115.021 77.7813C115.773 77.4551 116.387 76.9652 116.861 76.3011C116.943 76.1862 117.018 76.0673 117.113 75.9271L117.114 75.931ZM87.9556 65.3717C87.9488 65.3152 87.939 65.285 87.9439 65.2577C87.9722 65.0756 88.0172 64.8945 88.0309 64.7114C88.0495 64.4534 88.0426 64.1933 88.0505 63.9333C88.0583 63.6831 87.9488 63.4863 87.7796 63.312C87.4784 62.9994 87.0766 62.9137 86.6786 62.8553C86.2777 62.7959 85.867 62.7715 85.4612 62.7764C84.7132 62.7852 83.9671 62.8134 83.223 62.9205C82.7038 62.9955 82.2022 63.1085 81.7318 63.3364C81.3348 63.5292 81.0219 63.8155 80.8381 64.2274C80.6641 64.6189 80.6474 65.0308 80.7012 65.4428C80.7325 65.6804 80.8146 65.9131 80.8929 66.142C80.9525 66.3153 81.0718 66.4069 81.282 66.3942C81.6634 66.3718 82.0477 66.3796 82.43 66.3777C82.516 66.3777 82.6021 66.3903 82.6969 66.3981C82.6969 66.4789 82.7028 66.5354 82.696 66.59C82.6754 66.7662 82.65 66.9425 82.6265 67.1188C82.5815 67.4479 82.5375 67.7761 82.4916 68.1052C82.4437 68.45 82.3909 68.7938 82.3459 69.1385C82.299 69.4998 82.2598 69.8621 82.2139 70.2233C82.1806 70.4882 82.1425 70.7521 82.1054 71.017C82.0565 71.3618 82.0017 71.7046 81.9557 72.0493C81.9069 72.4184 81.8677 72.7884 81.8228 73.1585C81.8003 73.3435 81.7729 73.5266 81.7484 73.7116C81.7054 74.032 81.6634 74.3534 81.6184 74.6738C81.5695 75.0185 81.5138 75.3613 81.4688 75.7061C81.4209 76.0751 81.3837 76.4452 81.3378 76.8153C81.3035 77.0879 81.2635 77.3606 81.2243 77.6323C81.1745 77.9848 81.1217 78.3364 81.0757 78.6889C81.0288 79.0502 80.9887 79.4125 80.9427 79.7738C80.9105 80.0309 80.8743 80.287 80.8371 80.5431C80.7882 80.8791 80.7335 81.2141 80.6865 81.551C80.6386 81.8958 80.6142 82.2444 80.5477 82.5852C80.4607 83.0283 80.4489 83.4734 80.4959 83.9165C80.534 84.2807 80.6738 84.6157 80.929 84.8981C81.3593 85.3724 81.9372 85.499 82.5287 85.5506C83.2758 85.6158 84.0248 85.5389 84.7679 85.4532C84.9899 85.4279 85.204 85.3402 85.4231 85.2847C85.5453 85.2536 85.5883 85.1766 85.5981 85.0559C85.6284 84.7111 85.6685 84.3674 85.7057 84.0226C85.7096 83.9827 85.7223 83.9437 85.7301 83.9038C85.7516 83.785 85.779 83.6672 85.7927 83.5484C85.8328 83.2046 85.868 82.8599 85.9061 82.5151C85.9081 82.4995 85.9139 82.484 85.9169 82.4674C85.9726 82.1188 86.0371 81.7701 86.0831 81.4205C86.13 81.0612 86.1603 80.6999 86.1975 80.3396C86.1995 80.324 86.2034 80.3074 86.2063 80.2919C86.263 79.951 86.3285 79.6111 86.3745 79.2693C86.4253 78.8944 86.4586 78.5165 86.5006 78.1406C86.5026 78.127 86.5172 78.1144 86.5407 78.0793C86.6209 78.0754 86.7167 78.0676 86.8125 78.0666C87.4638 78.0647 88.116 78.0666 88.7672 78.0637C88.8806 78.0637 88.995 78.0559 89.1075 78.0413C89.4761 77.9917 89.8457 77.943 90.2134 77.8806C90.5869 77.8164 90.9653 77.7618 91.3281 77.6566C91.7759 77.5271 92.2159 77.3674 92.6472 77.1902C93.4597 76.8562 94.2019 76.4023 94.857 75.8161C95.4359 75.298 95.9502 74.7244 96.3521 74.0564C96.8038 73.3036 97.1598 72.5119 97.3436 71.65C97.4306 71.243 97.5411 70.8398 97.6076 70.4298C97.6643 70.0802 97.6868 69.7228 97.7025 69.3683C97.7181 69.0284 97.7161 68.6866 97.7025 68.3468C97.6937 68.114 97.6526 67.8813 97.6252 67.6495C97.5881 67.3301 97.5783 67.0029 97.5049 66.6922C97.4062 66.2735 97.2781 65.8586 97.1246 65.4574C96.9339 64.9607 96.6542 64.5079 96.2905 64.1145C95.4946 63.2575 94.4708 62.8728 93.3365 62.754C92.8848 62.7073 92.4252 62.7384 91.9695 62.7345C91.5432 62.7306 91.1325 62.8124 90.7228 62.9235C89.7616 63.1835 89.0185 63.7395 88.4611 64.5488C88.2842 64.8049 88.1346 65.0805 87.9576 65.3727L87.9556 65.3717ZM38.2221 71.1592C38.2866 71.2371 38.3296 71.2731 38.3531 71.3189C39.0737 72.7826 39.7885 74.2492 40.514 75.7109C40.7653 76.2163 41.0206 76.7227 41.3139 77.2038C41.7422 77.9069 42.4042 78.2448 43.2216 78.2565C43.732 78.2643 44.2415 78.2692 44.7548 78.1962C45.2105 78.1319 45.6681 78.09 46.1189 77.9829C46.6205 77.8631 47.0947 77.6859 47.5035 77.3762C47.9718 77.0207 48.2759 76.5601 48.271 75.9456C48.2701 75.7752 48.2603 75.6048 48.2671 75.4353C48.2759 75.2328 48.1967 75.0565 48.1097 74.8861C47.9239 74.5248 47.8418 74.4858 47.4399 74.5228C47.3998 74.5267 47.3568 74.5258 47.3187 74.5374C47.0341 74.6309 46.7388 74.6046 46.4464 74.6154C46.2176 74.6241 46.0299 74.5443 45.891 74.368C45.7669 74.2112 45.6417 74.0515 45.5439 73.8782C44.79 72.5304 44.043 71.1787 43.294 69.828C43.1949 69.6494 43.2115 69.4745 43.3438 69.3031C43.3683 69.2709 43.3927 69.2388 43.4172 69.2076C43.6685 68.8746 43.9139 68.5367 44.174 68.2094C44.5642 67.7177 44.9641 67.2327 45.4383 66.8169C45.7062 66.5812 46.0299 66.4312 46.3809 66.4156C46.8513 66.3952 47.3245 66.4176 47.7948 66.4556C48.0012 66.4721 48.1361 66.4283 48.2554 66.2686C48.626 65.7729 48.7159 65.2003 48.7267 64.6062C48.7287 64.4962 48.671 64.3871 48.6602 64.2761C48.6211 63.8856 48.4363 63.5759 48.142 63.3276C47.6599 62.9215 47.0664 62.8027 46.468 62.756C45.9174 62.7131 45.3611 62.7413 44.8076 62.7423C44.4351 62.7423 44.0889 62.8514 43.7545 63.0053C43.2959 63.2156 42.9136 63.5321 42.5753 63.8934C42.1538 64.3423 41.7392 64.802 41.3647 65.2889C40.5444 66.3543 39.7514 67.4401 38.9466 68.5172C38.843 68.6564 38.7364 68.7938 38.6308 68.932C38.6122 68.9262 38.5936 68.9194 38.575 68.9135C38.5897 68.7246 38.5995 68.5357 38.62 68.3468C38.6327 68.227 38.667 68.1101 38.6816 67.9913C38.7227 67.6475 38.7569 67.3028 38.7951 66.959C38.797 66.9435 38.8029 66.9279 38.8058 66.9123C38.8615 66.5637 38.9261 66.216 38.972 65.8654C39.019 65.5061 39.0493 65.1448 39.0874 64.7845C39.0894 64.7689 39.0933 64.7523 39.0962 64.7367C39.1539 64.3716 39.2184 64.0083 39.2673 63.6421C39.3133 63.2994 39.3436 62.9536 39.3808 62.6099C39.3827 62.5943 39.3886 62.5787 39.3915 62.5622C39.4482 62.2057 39.5128 61.8493 39.5597 61.4909C39.6066 61.1316 39.6369 60.7703 39.6751 60.41C39.677 60.3944 39.6809 60.3778 39.6839 60.3623C39.7416 59.9971 39.8061 59.6338 39.855 59.2677C39.901 58.9249 39.9313 58.5792 39.9694 58.2354C39.9694 58.2276 39.9733 58.2198 39.9743 58.212C40.032 57.8712 40.0965 57.5323 40.1435 57.1895C40.1718 56.983 40.165 56.7756 40.2266 56.5672C40.3136 56.2741 40.2667 56.1933 40.0017 56.0336C39.368 55.6518 38.6601 55.5087 37.9365 55.459C37.4603 55.4259 36.9802 55.4249 36.5031 55.533C36.0885 55.6265 35.7159 55.7726 35.4118 56.0774C34.9337 56.5555 34.7762 57.1739 34.6521 57.802C34.5905 58.1108 34.567 58.4272 34.5249 58.7398C34.4868 59.0203 34.4467 59.3008 34.4076 59.5812C34.3568 59.9494 34.3049 60.3175 34.257 60.6866C34.2111 61.0391 34.169 61.3936 34.124 61.7461C34.1035 61.9068 34.0791 62.0665 34.0575 62.2262C34.0106 62.5787 33.9646 62.9322 33.9167 63.2848C33.8688 63.6373 33.816 63.9888 33.7701 64.3423C33.7231 64.7036 33.684 65.0649 33.6381 65.4262C33.6058 65.6833 33.5706 65.9394 33.5344 66.1956C33.4845 66.5481 33.4278 66.8996 33.3819 67.2522C33.334 67.6213 33.2968 67.9913 33.2518 68.3614C33.2264 68.5698 33.1961 68.7782 33.1677 68.9866C33.1247 69.2992 33.0827 69.6118 33.0387 69.9244C32.9898 70.2769 32.936 70.6285 32.891 70.981C32.8431 71.3501 32.803 71.7201 32.757 72.0892C32.7267 72.3385 32.6935 72.5869 32.6583 72.8352C32.6084 73.1789 32.5507 73.5227 32.5048 73.8674C32.4559 74.2365 32.4109 74.6056 32.3747 74.9757C32.3366 75.3701 32.2985 75.7655 32.2818 76.1608C32.2701 76.451 32.2955 76.7393 32.3894 77.0237C32.5282 77.4473 32.7942 77.7589 33.1795 77.9654C33.5481 78.1621 33.9578 78.2332 34.3695 78.2614C35.0862 78.3111 35.8 78.2332 36.5109 78.1582C36.7788 78.1299 37.0399 78.0335 37.3234 77.9634C37.3577 77.6664 37.389 77.3957 37.4202 77.1249C37.4261 77.0772 37.433 77.0285 37.4408 76.9808C37.4642 76.8464 37.4936 76.713 37.5102 76.5776C37.5513 76.2417 37.5865 75.9057 37.6236 75.5697C37.6256 75.5541 37.6324 75.5386 37.6354 75.523C37.6911 75.1743 37.7537 74.8257 37.7996 74.4761C37.8466 74.1168 37.8769 73.7555 37.915 73.3951C37.917 73.3796 37.9219 73.363 37.9248 73.3474C37.9805 73.0153 38.0451 72.6833 38.09 72.3502C38.1409 71.9763 38.1751 71.5994 38.223 71.1631L38.2221 71.1592ZM73.3304 75.4792C73.3246 75.5834 73.3314 75.6476 73.3168 75.7061C73.2151 76.1131 73.2209 76.5251 73.2512 76.9389C73.2698 77.1863 73.3647 77.4064 73.5143 77.606C73.8604 78.0676 74.3708 78.2293 74.8979 78.2517C76.0253 78.2994 77.1547 78.315 78.2743 78.0881C78.7515 77.9917 79.2188 77.8806 79.6589 77.6752C80.1135 77.4629 80.492 77.1658 80.7413 76.7159C80.9066 76.417 80.9212 76.0878 80.9858 75.7674C80.9906 75.744 80.9897 75.7177 80.9838 75.6944C80.9232 75.4626 80.8841 75.2211 80.7951 75.001C80.623 74.5725 80.3971 74.4615 79.9385 74.5345C79.9229 74.5374 79.9062 74.5384 79.8906 74.5433C79.5806 74.6378 79.2609 74.6056 78.9451 74.6134C78.7006 74.6193 78.4405 74.3807 78.4659 74.1129C78.505 73.6873 78.5373 73.2607 78.5725 72.8342C78.5735 72.8186 78.5794 72.803 78.5823 72.7865C78.64 72.4135 78.7035 72.0405 78.7524 71.6666C78.7984 71.315 78.8297 70.9625 78.8678 70.61C78.8707 70.5866 78.8815 70.5632 78.8854 70.5398C78.9079 70.422 78.9353 70.3042 78.9499 70.1844C78.991 69.8406 79.0262 69.4959 79.0643 69.1521C79.0663 69.1365 79.0722 69.121 79.0751 69.1044C79.1308 68.7558 79.1944 68.4071 79.2413 68.0575C79.2883 67.706 79.3186 67.3534 79.3567 67.0009C79.3596 66.9775 79.3704 66.9542 79.3743 66.9308C79.3968 66.812 79.4242 66.6951 79.4379 66.5753C79.4789 66.2316 79.5141 65.8868 79.5523 65.5431C79.5542 65.5275 79.5611 65.5119 79.563 65.4963C79.5875 65.3542 79.6168 65.213 79.6354 65.0698C79.6765 64.7426 79.7117 64.4134 79.7498 64.0862C79.7527 64.0628 79.7654 64.0404 79.7694 64.0161C79.7909 63.8895 79.8104 63.7629 79.831 63.6363C79.8544 63.4961 79.7918 63.3958 79.6706 63.3412C79.3685 63.2049 79.0712 63.0501 78.7554 62.9527C78.1462 62.7657 77.5145 62.7063 76.877 62.7267C76.5123 62.7384 76.1466 62.7238 75.7906 62.8417C75.4357 62.9595 75.1257 63.1299 74.8998 63.4406C74.5508 63.9207 74.4256 64.4787 74.3259 65.0455C74.2672 65.3795 74.2271 65.7174 74.1792 66.0543C74.1303 66.3991 74.0795 66.7428 74.0345 67.0876C73.9875 67.4401 73.9475 67.7946 73.9015 68.1471C73.8682 68.4042 73.8301 68.6594 73.793 68.9155C73.7441 69.2515 73.6903 69.5874 73.6453 69.9234C73.5974 70.2847 73.5583 70.646 73.5123 71.0073C73.4791 71.2644 73.4429 71.5205 73.4057 71.7766C73.3559 72.1204 73.3089 72.4651 73.2503 72.8079C73.2307 72.9238 73.2043 73.0504 73.1408 73.1458C72.3996 74.2677 71.0257 74.8374 69.6842 74.5423C69.12 74.4186 68.9811 73.9327 69.0134 73.5023C69.0467 73.0611 69.118 72.6229 69.1728 72.1837C69.2109 71.8808 69.2481 71.577 69.2862 71.2741C69.2882 71.2585 69.297 71.243 69.2999 71.2274C69.3556 70.9362 69.4182 70.646 69.4652 70.3529C69.5111 70.0675 69.5424 69.7793 69.5805 69.492C69.5825 69.4764 69.5913 69.4618 69.5942 69.4453C69.649 69.1541 69.7106 68.8629 69.7565 68.5698C69.8025 68.2757 69.8338 67.9796 69.8719 67.6846C69.8739 67.669 69.8797 67.6534 69.8827 67.6378C69.9384 67.3544 70.002 67.073 70.047 66.7876C70.0949 66.4858 70.1252 66.1819 70.1633 65.8781C70.1662 65.8547 70.177 65.8313 70.1809 65.808C70.2366 65.5002 70.3031 65.1935 70.3413 64.8838C70.3667 64.6754 70.3481 64.4631 70.353 64.2518C70.3628 63.8213 70.1702 63.4951 69.8338 63.2429C69.5121 63.0014 69.1288 62.9001 68.7465 62.8572C68.1656 62.791 67.578 62.7228 66.9923 62.7852C66.4349 62.8446 65.8727 62.8154 65.3153 62.9166C64.8831 62.9945 64.4548 63.0744 64.0461 63.2341C63.5552 63.4269 63.1416 63.7181 62.9246 64.2177C62.7202 64.689 62.7456 65.1837 62.8317 65.6736C62.861 65.8382 62.9324 65.9969 63.0028 66.1508C63.0781 66.3173 63.2013 66.4049 63.4066 66.3942C63.8134 66.3738 64.2211 66.3786 64.6279 66.3757C64.6905 66.3757 64.7521 66.3845 64.8225 66.3893C64.8225 66.438 64.8274 66.4711 64.8225 66.5013C64.7052 67.1041 64.5859 67.706 64.4685 68.3088C64.4275 68.523 64.3932 68.7382 64.3561 68.9535C64.3111 69.2164 64.269 69.4803 64.2192 69.7423C64.138 70.1708 64.0481 70.5983 63.9698 71.0268C63.8887 71.4718 63.8114 71.9178 63.741 72.3648C63.6755 72.7875 63.6178 73.2121 63.5641 73.6376C63.5435 73.7983 63.5484 73.9619 63.5308 74.1226C63.4653 74.7244 63.5122 75.3175 63.656 75.9057C63.8349 76.6409 64.2456 77.2077 64.8821 77.6148C65.2459 77.8475 65.6458 77.9878 66.0673 78.0842C66.6569 78.2195 67.2514 78.2857 67.8537 78.2595C68.2341 78.2419 68.6145 78.2078 68.9938 78.1689C69.2676 78.1406 69.5453 78.1173 69.8093 78.0462C70.1819 77.9469 70.5515 77.8271 70.9065 77.6771C71.6779 77.3489 72.3174 76.8435 72.82 76.1715C72.9823 75.9544 73.1398 75.7343 73.3265 75.4782L73.3304 75.4792ZM24.696 62.6488C24.1924 62.6576 23.6908 62.6469 23.1862 62.7199C22.6553 62.7969 22.1311 62.8835 21.6129 63.0228C20.9832 63.1922 20.3799 63.424 19.8069 63.7308C18.6091 64.3735 17.643 65.2616 16.9165 66.4117C16.5205 67.0389 16.2183 67.7069 15.9954 68.4081C15.8663 68.8152 15.7666 69.2339 15.6913 69.6546C15.6179 70.0597 15.6052 70.4756 15.5456 70.8836C15.4302 71.6714 15.5094 72.4554 15.6082 73.2345C15.6815 73.81 15.8389 74.3729 16.0677 74.9133C16.5488 76.0518 17.3369 76.9048 18.4301 77.4833C19.2329 77.9079 20.1041 78.1114 20.991 78.2487C21.4154 78.314 21.8495 78.3471 22.2788 78.3432C22.9124 78.3374 23.546 78.2926 24.1787 78.2517C24.4046 78.2371 24.6295 78.1981 24.8504 78.1484C25.2044 78.0696 25.5574 77.9819 25.9055 77.8816C26.2458 77.7832 26.59 77.6888 26.9146 77.5505C27.6519 77.2369 28.3383 76.8386 28.968 76.3352C29.6525 75.7879 30.203 75.1295 30.6469 74.3885C31.0664 73.6883 31.394 72.9413 31.5612 72.134C31.6443 71.7347 31.7616 71.3403 31.8242 70.9381C31.8858 70.5398 31.92 70.1347 31.9269 69.7325C31.9357 69.233 31.9464 68.7343 31.8643 68.2318C31.7988 67.8287 31.7597 67.4236 31.6639 67.0223C31.568 66.6231 31.4321 66.2433 31.262 65.8722C30.6235 64.4835 29.5205 63.6256 28.1007 63.1348C27.6793 62.9897 27.25 62.8689 26.8051 62.8183C26.3299 62.7637 25.8566 62.6966 25.3804 62.6518C25.1545 62.6303 24.9248 62.6479 24.6969 62.6479L24.696 62.6488ZM54.2269 71.2215C54.2543 70.7638 54.1702 70.3003 54.309 69.8465C54.3785 69.6176 54.3706 69.3654 54.444 69.1385C54.5437 68.8288 54.6699 68.523 54.8175 68.2328C55.0815 67.7147 55.4599 67.2882 55.9625 66.9853C56.6353 66.5792 57.3716 66.3923 58.1567 66.3932C58.5479 66.3932 58.939 66.3971 59.3291 66.401C59.4181 66.402 59.5091 66.4069 59.5971 66.4205C59.9324 66.4731 60.2688 66.5237 60.6032 66.5861C60.833 66.6289 61.0628 66.6766 61.2848 66.7458C61.4187 66.7876 61.5116 66.7662 61.6153 66.6786C61.9595 66.3903 62.1531 66.0105 62.2215 65.585C62.288 65.1701 62.2684 64.7416 62.1169 64.3414C61.9467 63.8905 61.6436 63.5428 61.2173 63.3033C60.7734 63.054 60.2991 62.9118 59.7985 62.827C59.2118 62.7277 58.6212 62.6742 58.0286 62.6595C57.3197 62.642 56.6147 62.7053 55.9166 62.8261C55.5176 62.8952 55.1148 62.9546 54.7246 63.0608C54.1301 63.2215 53.5532 63.4376 53.0037 63.721C51.6152 64.4358 50.5405 65.4681 49.7896 66.8354C49.465 67.4265 49.2254 68.0517 49.0396 68.6964C48.9477 69.0138 48.8753 69.3391 48.8264 69.6663C48.7629 70.0899 48.7443 70.5204 48.6827 70.945C48.5663 71.7494 48.6553 72.5498 48.7463 73.3455C48.8147 73.9454 48.9702 74.5336 49.2088 75.0974C49.6537 76.1492 50.3694 76.9487 51.3795 77.494C52.1813 77.9264 53.0545 78.1212 53.9414 78.2497C54.4391 78.3218 54.9466 78.3422 55.4502 78.3471C55.896 78.352 56.3429 78.2906 56.7898 78.2819C57.3432 78.2702 57.8859 78.1942 58.4286 78.092C58.8275 78.017 59.2167 77.9147 59.5941 77.7735C60.1534 77.5651 60.6521 77.2574 61.0315 76.786C61.2466 76.5192 61.405 76.2086 61.4432 75.8765C61.495 75.4305 61.5341 74.9708 61.3542 74.5365C61.2329 74.2453 61.0872 73.9648 60.7939 73.8032C60.7362 73.771 60.6511 73.7496 60.5915 73.7681C60.2659 73.8645 59.9481 73.9872 59.6205 74.0778C59.2705 74.1752 58.9145 74.256 58.5576 74.3261C58.2721 74.3826 57.9798 74.407 57.6923 74.4556C56.9824 74.5735 56.2823 74.5443 55.5978 74.3203C55.2438 74.2044 54.9417 73.995 54.7315 73.6863C54.4058 73.2101 54.2836 72.6609 54.2338 72.099C54.2074 71.8097 54.2289 71.5156 54.2289 71.2235L54.2269 71.2215ZM100.181 66.3952C100.176 66.4575 100.175 66.4965 100.169 66.5354C100.123 66.8305 100.076 67.1265 100.026 67.4206C99.9857 67.6602 99.9436 67.8988 99.8986 68.1374C99.8497 68.3993 99.792 68.6603 99.7471 68.9233C99.6679 69.3849 99.5975 69.8484 99.5212 70.311C99.487 70.5184 99.4469 70.7249 99.4078 70.9313C99.3569 71.2011 99.3041 71.4708 99.2552 71.7416C99.1956 72.0678 99.1379 72.394 99.0812 72.7203C99.0391 72.9589 98.9932 73.1974 98.9619 73.438C98.911 73.8227 98.8827 74.2112 98.824 74.5949C98.737 75.1675 98.7204 75.7421 98.7614 76.3167C98.8074 76.9526 99.1144 77.4473 99.6512 77.7969C100.157 78.126 100.734 78.2283 101.315 78.2536C101.914 78.2799 102.515 78.278 103.118 78.1981C103.606 78.1338 104.097 78.0997 104.58 77.9887C104.896 77.9157 105.202 77.8222 105.496 77.6898C106.092 77.422 106.554 77.0344 106.737 76.3702C106.836 76.0128 106.842 75.3798 106.697 75.0448C106.505 74.5988 106.237 74.441 105.762 74.5452C105.446 74.6144 105.132 74.6095 104.815 74.6183C104.505 74.6261 104.299 74.4401 104.321 74.0953C104.35 73.662 104.421 73.2315 104.475 72.7991C104.477 72.7836 104.485 72.768 104.488 72.7524C104.543 72.4856 104.607 72.2207 104.651 71.9519C104.699 71.6588 104.728 71.3618 104.766 71.0677C104.768 71.0521 104.773 71.0365 104.776 71.0199C104.834 70.6966 104.898 70.3733 104.947 70.049C104.994 69.7306 105.024 69.4102 105.062 69.0908C105.064 69.0752 105.071 69.0596 105.074 69.044C105.131 68.7197 105.193 68.3964 105.24 68.0712C105.287 67.7527 105.318 67.4323 105.356 67.1129C105.358 67.0973 105.364 67.0817 105.367 67.0652C105.424 66.7253 105.486 66.3855 105.537 66.0446C105.582 65.7427 105.613 65.4379 105.651 65.135C105.652 65.1273 105.655 65.1195 105.658 65.1117C105.789 64.7991 105.751 64.468 105.718 64.1515C105.688 63.8768 105.575 63.6178 105.368 63.4026C105.024 63.0452 104.575 62.9351 104.121 62.8621C103.713 62.7969 103.294 62.7745 102.88 62.7813C102.149 62.793 101.418 62.8154 100.691 62.9225C100.173 62.9984 99.6698 63.1056 99.1985 63.3334C98.5356 63.6548 98.1581 64.169 98.1523 64.9208C98.1513 65.1068 98.164 65.2938 98.1689 65.4798C98.1767 65.7378 98.2745 65.9677 98.3899 66.1926C98.4612 66.3319 98.5629 66.4069 98.737 66.3991C99.1193 66.3825 99.5026 66.3864 99.8849 66.3845C99.9798 66.3845 100.075 66.3942 100.181 66.4001V66.3952ZM104.338 60.6505C104.796 60.6827 105.23 60.6145 105.658 60.4665C105.959 60.3623 106.242 60.2269 106.489 60.0331C107.163 59.5043 107.438 58.7749 107.48 57.9481C107.489 57.7592 107.437 57.5654 107.401 57.3765C107.367 57.1963 107.344 57.0074 107.271 56.8418C106.93 56.0579 106.287 55.6557 105.466 55.5583C104.978 55.5009 104.482 55.5048 103.987 55.6216C103.286 55.7872 102.709 56.1241 102.267 56.688C102.028 56.9918 101.88 57.3424 101.799 57.7173C101.705 58.1497 101.709 58.5879 101.797 59.0213C101.881 59.4342 102.064 59.8004 102.387 60.0837C102.806 60.4509 103.314 60.594 103.854 60.6495C104.015 60.6661 104.179 60.6525 104.336 60.6525L104.338 60.6505Z" fill="#F6F7F5"/>
<path d="M117.114 75.9311C117.019 76.0723 116.944 76.1911 116.862 76.305C116.387 76.9702 115.774 77.46 115.021 77.7853C114.641 77.9498 114.247 78.0726 113.845 78.1456C113.165 78.2693 112.471 78.3082 111.781 78.2449C111.37 78.2069 110.958 78.1514 110.558 78.054C109.82 77.8739 109.137 77.5652 108.569 77.0481C108.125 76.6439 107.798 76.1521 107.57 75.6C107.358 75.0907 107.231 74.5599 107.146 74.0136C107.024 73.2384 107.045 72.4623 107.067 71.6851C107.081 71.208 107.112 70.7288 107.184 70.2575C107.391 68.9078 107.761 67.6057 108.452 66.4147C109.288 64.9764 110.452 63.8964 112.006 63.2624C112.371 63.1134 112.764 63.0316 113.146 62.9274C113.95 62.7083 114.774 62.7054 115.593 62.7599C116.303 62.8067 117.018 62.8855 117.666 63.2293C117.765 63.2819 117.865 63.3306 117.986 63.3919C118.031 63.091 118.073 62.8135 118.113 62.535C118.168 62.1513 118.222 61.7666 118.275 61.3819C118.317 61.0771 118.359 60.7723 118.401 60.4685C118.426 60.2844 118.456 60.1004 118.479 59.9163C118.524 59.5628 118.56 59.2083 118.611 58.8568C118.664 58.4887 118.734 58.1235 118.789 57.7563C118.842 57.4019 118.943 57.0649 119.087 56.7377C119.391 56.0453 119.915 55.6597 120.665 55.5233C121.153 55.4347 121.64 55.423 122.123 55.46C122.82 55.5146 123.503 55.6636 124.117 56.0268C124.18 56.0638 124.241 56.1037 124.296 56.1515C124.367 56.2128 124.412 56.2868 124.361 56.3871C124.342 56.4222 124.325 56.4621 124.32 56.5011C124.281 56.837 124.251 57.174 124.205 57.509C124.156 57.8664 124.093 58.2228 124.035 58.5792C124.032 58.5948 124.027 58.6104 124.025 58.627C123.987 58.9707 123.958 59.3164 123.91 59.6592C123.863 60.001 123.797 60.3409 123.741 60.6808C123.738 60.6964 123.733 60.7119 123.732 60.7285C123.694 61.0723 123.664 61.418 123.617 61.7608C123.571 62.0948 123.509 62.4269 123.454 62.7589C123.451 62.7745 123.443 62.7901 123.442 62.8057C123.404 63.1339 123.369 63.4611 123.328 63.7893C123.313 63.909 123.287 64.0269 123.265 64.1447C123.261 64.1681 123.249 64.1905 123.246 64.2148C123.208 64.5508 123.176 64.8878 123.13 65.2228C123.083 65.5724 123.019 65.921 122.962 66.2696C122.959 66.2852 122.953 66.3008 122.952 66.3174C122.913 66.6533 122.883 66.9903 122.837 67.3253C122.788 67.6749 122.725 68.0225 122.668 68.3721C122.665 68.3877 122.659 68.4033 122.658 68.4199C122.62 68.7636 122.591 69.1093 122.543 69.4521C122.496 69.794 122.431 70.1338 122.374 70.4737C122.371 70.4893 122.366 70.5049 122.365 70.5214C122.327 70.8652 122.296 71.2109 122.25 71.5537C122.202 71.9198 122.138 72.2841 122.083 72.6502C122.071 72.7301 122.068 72.8109 122.064 72.8917C122.046 73.2238 122.021 73.5549 122.015 73.887C122.012 74.0467 122.024 74.2162 122.074 74.3661C122.127 74.52 122.288 74.6037 122.442 74.6047C122.782 74.6086 123.123 74.5823 123.463 74.5638C123.56 74.5589 123.658 74.5434 123.751 74.521C123.972 74.4684 124.133 74.557 124.251 74.7303C124.373 74.9086 124.495 75.0877 124.512 75.3166C124.521 75.4442 124.589 75.5698 124.583 75.6944C124.553 76.3479 124.334 76.9156 123.79 77.3256C123.35 77.6557 122.856 77.8573 122.326 77.9907C121.972 78.0794 121.615 78.132 121.256 78.1933C120.51 78.3209 119.759 78.3141 119.018 78.2527C118.216 78.1865 117.538 77.8379 117.263 76.8942C117.178 76.603 117.168 76.2895 117.115 75.935L117.114 75.9311ZM114.544 74.6729C114.863 74.6203 115.188 74.5891 115.499 74.5083C115.871 74.4109 116.196 74.2084 116.483 73.9493C116.587 73.8558 116.639 73.7477 116.645 73.6094C116.65 73.4887 116.66 73.367 116.676 73.2472C116.729 72.8625 116.788 72.4798 116.838 72.0942C116.883 71.7494 116.916 71.4037 116.959 71.058C116.992 70.7853 117.032 70.5136 117.07 70.2409C117.125 69.8485 117.181 69.457 117.232 69.0636C117.276 68.7266 117.31 68.3887 117.352 68.0518C117.387 67.7713 117.431 67.4918 117.468 67.2113C117.492 67.0273 117.519 66.8422 117.532 66.6572C117.542 66.4936 117.493 66.4527 117.345 66.3933C117.113 66.3008 116.866 66.3183 116.629 66.2716C116.095 66.1645 115.583 66.2531 115.067 66.3797C114.532 66.5111 114.089 66.8004 113.715 67.188C113.188 67.7362 112.856 68.3975 112.666 69.1308C112.624 69.2934 112.581 69.456 112.546 69.6196C112.489 69.8855 112.397 70.1523 112.393 70.4201C112.382 71.0823 112.279 71.7407 112.36 72.4087C112.405 72.7778 112.448 73.142 112.58 73.4877C112.739 73.9065 113.008 74.2347 113.422 74.4401C113.777 74.6164 114.156 74.6271 114.543 74.6719L114.544 74.6729Z" fill="#476FB6"/>
<path d="M87.9557 65.3728C88.1336 65.0806 88.2832 64.806 88.4592 64.5489C89.0166 63.7396 89.7597 63.1836 90.7209 62.9236C91.1306 62.8125 91.5423 62.7307 91.9676 62.7346C92.4233 62.7385 92.8829 62.7074 93.3346 62.7541C94.4689 62.8729 95.4936 63.2576 96.2886 64.1146C96.6533 64.507 96.932 64.9608 97.1227 65.4575C97.2772 65.8587 97.4043 66.2736 97.503 66.6923C97.5764 67.0039 97.5862 67.3302 97.6233 67.6496C97.6507 67.8823 97.6908 68.1141 97.7006 68.3469C97.7133 68.6867 97.7162 69.0285 97.7006 69.3684C97.6839 69.7229 97.6624 70.0803 97.6057 70.4299C97.5392 70.8399 97.4287 71.243 97.3417 71.6501C97.1579 72.512 96.802 73.3037 96.3502 74.0565C95.9493 74.7255 95.434 75.2981 94.8551 75.8162C94.2 76.4024 93.4578 76.8563 92.6453 77.1903C92.2141 77.3675 91.774 77.5272 91.3262 77.6567C90.9634 77.7619 90.585 77.8165 90.2115 77.8807C89.8448 77.9431 89.4752 77.9917 89.1056 78.0414C88.9931 78.057 88.8787 78.0638 88.7653 78.0638C88.1141 78.0667 87.4619 78.0658 86.8107 78.0667C86.7148 78.0667 86.62 78.0755 86.5388 78.0794C86.5154 78.1144 86.5007 78.1261 86.4987 78.1407C86.4567 78.5166 86.4234 78.8945 86.3726 79.2694C86.3266 79.6112 86.2611 79.9511 86.2044 80.292C86.2015 80.3075 86.1976 80.3241 86.1956 80.3397C86.1584 80.7 86.1281 81.0623 86.0812 81.4206C86.0352 81.7712 85.9717 82.1189 85.915 82.4675C85.912 82.4831 85.9062 82.4987 85.9042 82.5152C85.8671 82.86 85.8319 83.2037 85.7908 83.5485C85.7771 83.6682 85.7497 83.7861 85.7282 83.9039C85.7214 83.9438 85.7087 83.9828 85.7038 84.0227C85.6666 84.3665 85.6265 84.7112 85.5962 85.056C85.5855 85.1767 85.5424 85.2537 85.4212 85.2848C85.2021 85.3403 84.988 85.427 84.766 85.4533C84.0229 85.539 83.2739 85.6159 82.5269 85.5507C81.9353 85.4991 81.3574 85.3725 80.9271 84.8982C80.671 84.6158 80.5321 84.2808 80.494 83.9166C80.447 83.4735 80.4588 83.0284 80.5458 82.5853C80.6123 82.2445 80.6367 81.8959 80.6846 81.5511C80.7316 81.2152 80.7863 80.8792 80.8352 80.5432C80.8724 80.2871 80.9076 80.031 80.9408 79.7739C80.9868 79.4126 81.0259 79.0503 81.0738 78.689C81.1198 78.3365 81.1736 77.984 81.2224 77.6324C81.2606 77.3597 81.3017 77.088 81.3359 76.8154C81.3818 76.4463 81.419 76.0752 81.4669 75.7061C81.5119 75.3614 81.5686 75.0176 81.6165 74.6739C81.6615 74.3535 81.7035 74.0321 81.7466 73.7117C81.771 73.5277 81.7984 73.3436 81.8209 73.1586C81.8658 72.7895 81.905 72.4185 81.9538 72.0494C81.9988 71.7046 82.0536 71.3609 82.1035 71.0171C82.1416 70.7532 82.1787 70.4883 82.212 70.2234C82.258 69.8621 82.2961 69.4999 82.344 69.1386C82.389 68.7938 82.4418 68.4501 82.4897 68.1053C82.5357 67.7772 82.5797 67.448 82.6246 67.1188C82.6491 66.9426 82.6735 66.7663 82.6941 66.5901C82.7009 66.5355 82.695 66.479 82.695 66.3982C82.6012 66.3904 82.5141 66.3778 82.4281 66.3778C82.0458 66.3797 81.6615 66.3719 81.2801 66.3943C81.0699 66.406 80.9506 66.3154 80.891 66.1421C80.8127 65.9132 80.7306 65.6805 80.6993 65.4429C80.6455 65.0309 80.6622 64.619 80.8362 64.2275C81.0191 63.8156 81.332 63.5303 81.7299 63.3365C82.2003 63.1076 82.7019 62.9946 83.2211 62.9206C83.9652 62.8135 84.7113 62.7853 85.4593 62.7765C85.8651 62.7716 86.2758 62.796 86.6767 62.8554C87.0747 62.9138 87.4765 63.0005 87.7777 63.3121C87.9469 63.4874 88.0564 63.6831 88.0486 63.9334C88.0407 64.1925 88.0476 64.4525 88.029 64.7115C88.0163 64.8946 87.9703 65.0757 87.942 65.2578C87.9381 65.2851 87.9479 65.3153 87.9537 65.3718L87.9557 65.3728ZM86.9368 74.6116C87.0972 74.6525 87.2116 74.6953 87.3289 74.708C87.5557 74.7333 87.7836 74.7489 88.0114 74.7547C88.6069 74.7703 89.1926 74.7352 89.7646 74.5327C90.5146 74.2678 91.0905 73.7974 91.5325 73.1489C92.0615 72.3708 92.3011 71.4885 92.3842 70.573C92.4634 69.7034 92.4908 68.8231 92.303 67.9583C92.2258 67.6028 92.1016 67.263 91.8689 66.9679C91.51 66.5112 91.0074 66.3593 90.4647 66.3076C90.0404 66.2677 89.6287 66.3485 89.2219 66.48C88.7897 66.6202 88.4143 66.8423 88.1063 67.1724C88.0378 67.2454 87.9694 67.3419 87.9537 67.4353C87.9029 67.7528 87.8755 68.0742 87.8393 68.3936C87.8344 68.4335 87.8237 68.4735 87.8168 68.5124C87.7943 68.639 87.767 68.7637 87.7513 68.8912C87.7102 69.2106 87.6731 69.5301 87.635 69.8495C87.633 69.8651 87.6262 69.8807 87.6232 69.8962C87.5685 70.2293 87.5078 70.5604 87.4609 70.8944C87.414 71.2294 87.3827 71.5664 87.3436 71.9023C87.3416 71.9179 87.3357 71.9335 87.3338 71.9501C87.278 72.2909 87.2155 72.6308 87.1685 72.9726C87.1216 73.3076 87.0903 73.6445 87.0512 73.9805C87.0483 74.0049 87.0375 74.0273 87.0336 74.0516C87.0033 74.224 86.9739 74.3973 86.9378 74.6125L86.9368 74.6116Z" fill="#476FB6"/>
<path d="M38.2221 71.1602C38.1742 71.5956 38.14 71.9724 38.0891 72.3474C38.0432 72.6814 37.9796 73.0125 37.9239 73.3446C37.921 73.3601 37.9161 73.3757 37.9141 73.3923C37.876 73.7526 37.8457 74.1139 37.7987 74.4732C37.7528 74.8238 37.6902 75.1715 37.6345 75.5201C37.6315 75.5357 37.6247 75.5513 37.6227 75.5669C37.5846 75.9028 37.5494 76.2388 37.5093 76.5748C37.4927 76.7102 37.4633 76.8436 37.4399 76.978C37.4321 77.0257 37.4242 77.0734 37.4193 77.1221C37.3881 77.3928 37.3568 77.6635 37.3225 77.9606C37.039 78.0307 36.7779 78.1271 36.51 78.1553C35.7991 78.2303 35.0853 78.3082 34.3686 78.2586C33.9559 78.2303 33.5472 78.1602 33.1786 77.9625C32.7933 77.7561 32.5273 77.4444 32.3885 77.0208C32.2956 76.7374 32.2692 76.4492 32.2809 76.158C32.2976 75.7626 32.3347 75.3672 32.3738 74.9728C32.41 74.6028 32.455 74.2327 32.5039 73.8646C32.5498 73.5199 32.6075 73.1771 32.6574 72.8323C32.6936 72.584 32.7258 72.3357 32.7562 72.0864C32.8021 71.7173 32.8422 71.3472 32.8901 70.9781C32.9361 70.6256 32.9889 70.2731 33.0378 69.9215C33.0818 69.6089 33.1238 69.2963 33.1668 68.9837C33.1952 68.7753 33.2255 68.5669 33.2509 68.3585C33.2959 67.9894 33.3331 67.6184 33.381 67.2493C33.4269 66.8968 33.4836 66.5452 33.5335 66.1927C33.5697 65.9366 33.6049 65.6795 33.6372 65.4234C33.6821 65.0621 33.7222 64.6998 33.7692 64.3395C33.8151 63.987 33.8679 63.6344 33.9158 63.2819C33.9638 62.9294 34.0097 62.5759 34.0566 62.2233C34.0782 62.0636 34.1026 61.9029 34.1231 61.7432C34.1681 61.3897 34.2102 61.0362 34.2561 60.6837C34.304 60.3146 34.3559 59.9465 34.4067 59.5784C34.4458 59.2979 34.4859 59.0175 34.524 58.737C34.5661 58.4244 34.5896 58.1079 34.6512 57.7992C34.7763 57.1701 34.9337 56.5527 35.4109 56.0745C35.715 55.7707 36.0885 55.6246 36.5022 55.5301C36.9784 55.4221 37.4585 55.423 37.9356 55.4561C38.6592 55.5058 39.3662 55.649 40.0008 56.0307C40.2648 56.1904 40.3127 56.2712 40.2257 56.5644C40.1641 56.7718 40.1709 56.9792 40.1426 57.1866C40.0956 57.5285 40.0311 57.8683 39.9734 58.2092C39.9724 58.217 39.9695 58.2248 39.9685 58.2325C39.9313 58.5763 39.901 58.922 39.8541 59.2648C39.8052 59.631 39.7407 59.9952 39.683 60.3594C39.68 60.375 39.6761 60.3915 39.6742 60.4071C39.636 60.7674 39.6067 61.1287 39.5588 61.4881C39.5119 61.8465 39.4473 62.2019 39.3906 62.5593C39.3877 62.5749 39.3818 62.5905 39.3799 62.607C39.3427 62.9508 39.3124 63.2965 39.2664 63.6393C39.2175 64.0055 39.153 64.3687 39.0953 64.7339C39.0924 64.7495 39.0885 64.766 39.0865 64.7816C39.0484 65.1419 39.019 65.5032 38.9711 65.8626C38.9252 66.2122 38.8616 66.5608 38.8049 66.9094C38.802 66.925 38.7961 66.9406 38.7941 66.9562C38.756 67.3 38.7218 67.6447 38.6807 67.9885C38.667 68.1082 38.6318 68.2251 38.6191 68.3439C38.5986 68.5319 38.5888 68.7218 38.5741 68.9107C38.5927 68.9165 38.6113 68.9233 38.6299 68.9292C38.7355 68.7909 38.8421 68.6536 38.9457 68.5143C39.7505 67.4373 40.5435 66.3514 41.3638 65.2861C41.7393 64.7991 42.1539 64.3405 42.5744 63.8905C42.9127 63.5293 43.295 63.2128 43.7536 63.0024C44.088 62.8485 44.4352 62.7404 44.8067 62.7395C45.3602 62.7395 45.9165 62.7103 46.4671 62.7531C47.0655 62.7998 47.659 62.9187 48.1411 63.3247C48.4354 63.5731 48.6202 63.8837 48.6593 64.2733C48.6701 64.3843 48.7278 64.4943 48.7258 64.6034C48.715 65.1974 48.6251 65.7701 48.2545 66.2657C48.1352 66.4254 48.0003 66.4702 47.7939 66.4527C47.3246 66.4147 46.8504 66.3923 46.38 66.4128C46.029 66.4274 45.7053 66.5783 45.4374 66.814C44.9632 67.2298 44.5633 67.7148 44.1731 68.2066C43.914 68.5338 43.6686 68.8717 43.4163 69.2048C43.3918 69.2369 43.3674 69.2691 43.3429 69.3002C43.21 69.4723 43.1933 69.6472 43.2931 69.8251C44.0421 71.1758 44.7891 72.5275 45.543 73.8753C45.6398 74.0487 45.766 74.2084 45.8901 74.3651C46.029 74.5414 46.2167 74.6203 46.4455 74.6125C46.7379 74.6018 47.0322 74.6281 47.3178 74.5346C47.3559 74.5219 47.3979 74.5229 47.439 74.52C47.8419 74.483 47.923 74.5219 48.1088 74.8832C48.1958 75.0537 48.275 75.2299 48.2662 75.4325C48.2594 75.6019 48.2682 75.7723 48.2701 75.9428C48.275 76.5582 47.9709 77.0189 47.5026 77.3733C47.0938 77.683 46.6196 77.8603 46.118 77.98C45.6672 78.0872 45.2096 78.1281 44.7539 78.1933C44.2406 78.2663 43.7311 78.2615 43.2207 78.2537C42.4033 78.242 41.7413 77.9041 41.313 77.201C41.0197 76.7189 40.7635 76.2135 40.5131 75.7081C39.7876 74.2463 39.0728 72.7797 38.3522 71.3161C38.3297 71.2703 38.2867 71.2343 38.2212 71.1564L38.2221 71.1602Z" fill="#114B9C"/>
<path d="M73.3303 75.4792C73.1436 75.7354 72.9861 75.9554 72.8238 76.1726C72.3212 76.8446 71.6817 77.35 70.9102 77.6782C70.5563 77.8281 70.1857 77.9479 69.8131 78.0472C69.5491 78.1183 69.2714 78.1417 68.9976 78.17C68.6182 78.2089 68.2379 78.244 67.8575 78.2605C67.2542 78.2878 66.6607 78.2206 66.071 78.0852C65.6486 77.9888 65.2497 77.8486 64.8859 77.6158C64.2494 77.2088 63.8387 76.642 63.6597 75.9068C63.516 75.3186 63.47 74.7255 63.5346 74.1237C63.5522 73.963 63.5473 73.7994 63.5678 73.6387C63.6216 73.2141 63.6793 72.7895 63.7448 72.3659C63.8142 71.9189 63.8915 71.4729 63.9736 71.0278C64.0518 70.5984 64.1428 70.1718 64.223 69.7433C64.2728 69.4814 64.3139 69.2175 64.3599 68.9545C64.397 68.7393 64.4312 68.5241 64.4723 68.3098C64.5887 67.707 64.7089 67.1052 64.8263 66.5024C64.8321 66.4722 64.8263 66.4391 64.8263 66.3904C64.7568 66.3855 64.6943 66.3758 64.6317 66.3768C64.2249 66.3807 63.8172 66.3748 63.4104 66.3953C63.2051 66.406 63.0819 66.3183 63.0066 66.1518C62.9362 65.9979 62.8648 65.8392 62.8354 65.6746C62.7494 65.1838 62.724 64.6901 62.9283 64.2187C63.1444 63.7192 63.558 63.428 64.0499 63.2352C64.4586 63.0745 64.8859 62.9956 65.3191 62.9177C65.8764 62.8164 66.4387 62.8456 66.996 62.7862C67.5818 62.7239 68.1694 62.7921 68.7502 62.8583C69.1335 62.9021 69.5159 63.0024 69.8376 63.2439C70.1749 63.4971 70.3666 63.8224 70.3568 64.2528C70.3519 64.4632 70.3705 64.6765 70.3451 64.8849C70.3069 65.1945 70.2394 65.5013 70.1847 65.809C70.1808 65.8324 70.17 65.8558 70.1671 65.8791C70.129 66.182 70.0986 66.4868 70.0507 66.7887C70.0058 67.0731 69.9422 67.3555 69.8865 67.6389C69.8835 67.6544 69.8777 67.67 69.8757 67.6856C69.8376 67.9807 69.8063 68.2767 69.7603 68.5708C69.7144 68.864 69.6528 69.1542 69.598 69.4463C69.5951 69.4619 69.5863 69.4765 69.5843 69.4931C69.5462 69.7803 69.5149 70.0676 69.4689 70.3539C69.422 70.6461 69.3594 70.9373 69.3037 71.2284C69.3007 71.244 69.292 71.2596 69.29 71.2752C69.2519 71.578 69.2137 71.8819 69.1766 72.1847C69.1218 72.6239 69.0504 73.0622 69.0172 73.5033C68.9849 73.9338 69.1238 74.4197 69.688 74.5434C71.0295 74.8385 72.4034 74.2688 73.1445 73.1469C73.2081 73.0515 73.2335 72.9249 73.2541 72.809C73.3127 72.4662 73.3597 72.1214 73.4095 71.7777C73.4467 71.5216 73.4829 71.2654 73.5161 71.0083C73.5621 70.6471 73.6012 70.2848 73.6491 69.9245C73.6941 69.5875 73.7478 69.2525 73.7967 68.9165C73.8339 68.6604 73.872 68.4043 73.9053 68.1482C73.9512 67.7947 73.9913 67.4412 74.0383 67.0886C74.0842 66.7439 74.1341 66.4001 74.183 66.0554C74.2309 65.7194 74.271 65.3815 74.3296 65.0465C74.4294 64.4807 74.5545 63.9227 74.9036 63.4416C75.1285 63.131 75.4385 62.9605 75.7944 62.8427C76.1503 62.7249 76.516 62.7395 76.8808 62.7278C77.5183 62.7074 78.15 62.7668 78.7591 62.9537C79.074 63.0501 79.3722 63.206 79.6744 63.3423C79.7956 63.3968 79.8582 63.4971 79.8347 63.6374C79.8132 63.764 79.7937 63.8906 79.7731 64.0172C79.7692 64.0405 79.7555 64.0629 79.7536 64.0873C79.7154 64.4155 79.6802 64.7436 79.6392 65.0709C79.6216 65.214 79.5922 65.3552 79.5668 65.4974C79.5639 65.513 79.557 65.5286 79.5561 65.5441C79.5179 65.8879 79.4827 66.2326 79.4417 66.5764C79.427 66.6962 79.3996 66.8131 79.3781 66.9319C79.3732 66.9552 79.3625 66.9786 79.3605 67.002C79.3224 67.3545 79.2921 67.708 79.2451 68.0586C79.1982 68.4092 79.1356 68.7568 79.0789 69.1055C79.076 69.121 79.0701 69.1366 79.0681 69.1532C79.03 69.4969 78.9948 69.8417 78.9537 70.1855C78.9391 70.3043 78.9117 70.4221 78.8892 70.5409C78.8843 70.5643 78.8735 70.5876 78.8716 70.611C78.8335 70.9635 78.8022 71.3171 78.7562 71.6676C78.7073 72.0416 78.6438 72.4146 78.5861 72.7875C78.5831 72.8031 78.5782 72.8187 78.5763 72.8353C78.5411 73.2618 78.5098 73.6883 78.4697 74.1139C78.4453 74.3827 78.7054 74.6203 78.9488 74.6145C79.2656 74.6067 79.5844 74.6388 79.8944 74.5444C79.91 74.5395 79.9267 74.5375 79.9423 74.5356C80.3999 74.4625 80.6258 74.5736 80.7989 75.0021C80.8878 75.2231 80.927 75.4637 80.9876 75.6954C80.9935 75.7188 80.9944 75.7451 80.9895 75.7685C80.925 76.0889 80.9103 76.418 80.7451 76.717C80.4957 77.1669 80.1173 77.4649 79.6626 77.6762C79.2226 77.8817 78.7552 77.9927 78.2781 78.0891C77.1585 78.3151 76.0291 78.3004 74.9017 78.2527C74.3746 78.2303 73.8642 78.0677 73.5181 77.6071C73.3685 77.4074 73.2736 77.1873 73.255 76.94C73.2247 76.5271 73.2179 76.1142 73.3205 75.7071C73.3352 75.6487 73.3284 75.5844 73.3342 75.4802L73.3303 75.4792Z" fill="#476FB6"/>
<path d="M24.6958 62.6489C24.9236 62.6489 25.1534 62.6314 25.3793 62.6528C25.8555 62.6976 26.3288 62.7648 26.804 62.8193C27.2499 62.87 27.6791 62.9907 28.0996 63.1358C29.5203 63.6266 30.6223 64.4846 31.2609 65.8733C31.432 66.2443 31.5669 66.6231 31.6627 67.0234C31.7595 67.4246 31.7977 67.8297 31.8632 68.2329C31.9453 68.7354 31.9346 69.234 31.9258 69.7336C31.9189 70.1358 31.8847 70.5409 31.8231 70.9392C31.7605 71.3414 31.6432 71.7348 31.5601 72.1351C31.3929 72.9424 31.0643 73.6893 30.6458 74.3895C30.2019 75.1306 29.6523 75.7889 28.9669 76.3362C28.3372 76.8397 27.6508 77.238 26.9135 77.5515C26.5889 77.6898 26.2447 77.7843 25.9044 77.8827C25.5563 77.983 25.2033 78.0706 24.8493 78.1495C24.6283 78.1982 24.4025 78.2381 24.1776 78.2527C23.5449 78.2936 22.9113 78.3394 22.2777 78.3442C21.8484 78.3481 21.4143 78.315 20.9899 78.2498C20.103 78.1125 19.2318 77.9099 18.429 77.4844C17.3358 76.9059 16.5477 76.0528 16.0666 74.9144C15.8378 74.3739 15.6804 73.811 15.607 73.2355C15.5083 72.4574 15.4291 71.6725 15.5445 70.8847C15.6041 70.4766 15.6178 70.0608 15.6901 69.6557C15.7654 69.235 15.8652 68.8162 15.9942 68.4092C16.2172 67.707 16.5193 67.0399 16.9153 66.4128C17.6419 65.2627 18.6079 64.3736 19.8058 63.7318C20.3788 63.4241 20.9821 63.1923 21.6118 63.0238C22.13 62.8846 22.6541 62.7979 23.1851 62.721C23.6896 62.6479 24.1913 62.6586 24.6948 62.6499L24.6958 62.6489ZM26.8245 69.567C26.8304 68.9555 26.7854 68.3945 26.6387 67.8414C26.3737 66.8452 25.7675 66.441 24.9579 66.3203C24.5002 66.2521 24.0241 66.2472 23.5557 66.3777C22.923 66.554 22.4165 66.9007 22.0127 67.4003C21.47 68.0703 21.1903 68.8649 21.0124 69.6898C20.9391 70.0316 20.8706 70.3831 20.8823 70.7434C20.8911 71.0074 20.8168 71.2732 20.8158 71.5391C20.8158 71.804 20.8794 72.0698 20.8814 72.3347C20.8843 72.7349 20.9586 73.1196 21.0975 73.4897C21.2705 73.9474 21.557 74.3126 22.0146 74.5346C22.3461 74.6953 22.6991 74.7342 23.055 74.7547C23.8979 74.8014 24.643 74.5541 25.2678 73.9805C26.0207 73.2891 26.4011 72.396 26.6231 71.4281C26.7658 70.8048 26.8392 70.1679 26.8265 69.568L26.8245 69.567Z" fill="#114B9C"/>
<path d="M54.2261 71.2216C54.2261 71.5138 54.2046 71.8069 54.231 72.0971C54.2819 72.659 54.4031 73.2083 54.7287 73.6845C54.9399 73.9932 55.2421 74.2025 55.5951 74.3184C56.2795 74.5424 56.9806 74.5716 57.6896 74.4538C57.977 74.4061 58.2694 74.3808 58.5549 74.3243C58.9118 74.2542 59.2677 74.1733 59.6178 74.0759C59.9454 73.9854 60.2632 73.8627 60.5888 73.7663C60.6484 73.7487 60.7335 73.7702 60.7912 73.8013C61.0835 73.963 61.2302 74.2434 61.3515 74.5346C61.5314 74.969 61.4923 75.4286 61.4405 75.8746C61.4013 76.2067 61.2429 76.5174 61.0288 76.7842C60.6494 77.2555 60.1507 77.5623 59.5914 77.7717C59.214 77.9129 58.8248 78.0141 58.4259 78.0901C57.8822 78.1924 57.3405 78.2683 56.787 78.28C56.3402 78.2888 55.8933 78.3501 55.4474 78.3453C54.9439 78.3404 54.4364 78.3199 53.9387 78.2479C53.0508 78.1193 52.1786 77.9246 51.3768 77.4922C50.3667 76.9478 49.651 76.1483 49.206 75.0956C48.9675 74.5317 48.812 73.9435 48.7435 73.3436C48.6526 72.549 48.5636 71.7485 48.68 70.9431C48.7416 70.5195 48.7602 70.0891 48.8237 69.6645C48.8726 69.3373 48.945 69.012 49.0369 68.6945C49.2227 68.0498 49.4622 67.4246 49.7869 66.8335C50.5378 65.4662 51.6134 64.434 53.0009 63.7192C53.5505 63.4358 54.1274 63.2196 54.7219 63.0589C55.112 62.9537 55.5149 62.8934 55.9138 62.8242C56.612 62.7044 57.318 62.6402 58.0259 62.6577C58.6185 62.6723 59.2091 62.7259 59.7958 62.8252C60.2964 62.9099 60.7716 63.0521 61.2146 63.3014C61.6409 63.541 61.944 63.8886 62.1142 64.3395C62.2647 64.7398 62.2853 65.1683 62.2188 65.5831C62.1503 66.0087 61.9567 66.3885 61.6125 66.6767C61.5089 66.7634 61.417 66.7848 61.282 66.7439C61.0601 66.6748 60.8293 66.6271 60.6005 66.5842C60.2661 66.5219 59.9307 66.4712 59.5943 66.4187C59.5063 66.405 59.4164 66.4002 59.3264 66.3992C58.9353 66.3953 58.5442 66.3914 58.154 66.3914C57.3688 66.3914 56.6325 66.5774 55.9598 66.9835C55.4572 67.2863 55.0788 67.7129 54.8148 68.231C54.6671 68.5212 54.541 68.827 54.4413 69.1366C54.3679 69.3635 54.3757 69.6158 54.3063 69.8446C54.1675 70.2994 54.2516 70.762 54.2242 71.2197L54.2261 71.2216Z" fill="#476FB6"/>
<path d="M100.18 66.3953C100.074 66.3894 99.9786 66.3787 99.8838 66.3797C99.5014 66.3816 99.1181 66.3778 98.7358 66.3943C98.5618 66.4021 98.4601 66.3271 98.3887 66.1879C98.2733 65.9639 98.1755 65.7331 98.1677 65.475C98.1618 65.289 98.1491 65.102 98.1511 64.916C98.156 64.1642 98.5334 63.65 99.1973 63.3287C99.6686 63.1008 100.171 62.9937 100.689 62.9177C101.417 62.8106 102.147 62.7892 102.879 62.7765C103.292 62.7697 103.712 62.7921 104.12 62.8573C104.573 62.9294 105.023 63.0404 105.366 63.3978C105.574 63.613 105.687 63.8721 105.716 64.1467C105.75 64.4632 105.788 64.7943 105.657 65.1069C105.654 65.1147 105.651 65.1225 105.65 65.1303C105.612 65.4341 105.581 65.7379 105.536 66.0398C105.485 66.3807 105.423 66.7205 105.365 67.0604C105.362 67.076 105.357 67.0916 105.355 67.1081C105.316 67.4276 105.286 67.7479 105.239 68.0664C105.191 68.3917 105.129 68.715 105.073 69.0393C105.07 69.0548 105.063 69.0704 105.061 69.086C105.023 69.4054 104.993 69.7258 104.946 70.0443C104.898 70.3695 104.832 70.6919 104.775 71.0152C104.772 71.0308 104.767 71.0463 104.765 71.0629C104.727 71.358 104.698 71.654 104.65 71.9471C104.606 72.2159 104.542 72.4808 104.486 72.7476C104.483 72.7632 104.476 72.7788 104.474 72.7944C104.42 73.2258 104.348 73.6572 104.32 74.0906C104.298 74.4353 104.504 74.6223 104.814 74.6135C105.131 74.6047 105.445 74.6096 105.76 74.5405C106.236 74.4372 106.504 74.594 106.696 75.04C106.841 75.375 106.836 76.008 106.736 76.3654C106.552 77.0296 106.091 77.4172 105.494 77.685C105.2 77.8165 104.895 77.9109 104.579 77.984C104.095 78.0959 103.604 78.1291 103.116 78.1933C102.514 78.2722 101.913 78.2742 101.314 78.2488C100.733 78.2235 100.156 78.1213 99.6501 77.7921C99.1123 77.4415 98.8062 76.9478 98.7603 76.3119C98.7192 75.7373 98.7358 75.1627 98.8228 74.5901C98.8815 74.2064 98.9099 73.8179 98.9607 73.4332C98.992 73.1927 99.0389 72.9551 99.08 72.7155C99.1367 72.3893 99.1944 72.063 99.2541 71.7368C99.3029 71.467 99.3567 71.1973 99.4066 70.9266C99.4447 70.7201 99.4848 70.5136 99.52 70.3062C99.5963 69.8436 99.6677 69.3801 99.7459 68.9185C99.7909 68.6556 99.8486 68.3955 99.8975 68.1326C99.9415 67.894 99.9845 67.6554 100.025 67.4159C100.074 67.1208 100.121 66.8257 100.168 66.5306C100.174 66.4927 100.175 66.4537 100.18 66.3904V66.3953Z" fill="#476FB6"/>
<path d="M104.337 60.6506C104.181 60.6506 104.016 60.6642 103.855 60.6477C103.315 60.5931 102.807 60.45 102.388 60.0819C102.066 59.7985 101.882 59.4323 101.798 59.0194C101.71 58.5861 101.706 58.1488 101.8 57.7155C101.881 57.3405 102.029 56.9899 102.268 56.6861C102.709 56.1223 103.287 55.7853 103.988 55.6198C104.483 55.5029 104.98 55.499 105.467 55.5565C106.288 55.6538 106.93 56.057 107.272 56.84C107.345 57.0055 107.368 57.1945 107.403 57.3746C107.438 57.5635 107.491 57.7573 107.481 57.9463C107.439 58.773 107.164 59.5015 106.49 60.0312C106.243 60.225 105.96 60.3604 105.659 60.4646C105.231 60.6126 104.797 60.6818 104.339 60.6487L104.337 60.6506Z" fill="#476FB6"/>
<path d="M114.545 74.6729C114.157 74.6281 113.778 74.6174 113.423 74.4411C113.009 74.2357 112.74 73.9075 112.581 73.4887C112.45 73.143 112.407 72.7788 112.361 72.4097C112.28 71.7417 112.383 71.0833 112.394 70.4211C112.399 70.1533 112.49 69.8865 112.547 69.6206C112.582 69.4561 112.625 69.2944 112.667 69.1318C112.857 68.3985 113.189 67.7372 113.716 67.189C114.089 66.8014 114.533 66.5112 115.069 66.3807C115.584 66.2551 116.096 66.1655 116.63 66.2726C116.867 66.3203 117.114 66.3018 117.346 66.3943C117.495 66.4537 117.543 66.4936 117.533 66.6582C117.52 66.8433 117.494 67.0283 117.469 67.2123C117.432 67.4928 117.388 67.7723 117.353 68.0528C117.31 68.3897 117.277 68.7276 117.233 69.0646C117.183 69.457 117.125 69.8495 117.071 70.2419C117.033 70.5146 116.994 70.7863 116.96 71.059C116.917 71.4037 116.883 71.7504 116.839 72.0952C116.79 72.4798 116.729 72.8635 116.677 73.2482C116.66 73.368 116.651 73.4897 116.646 73.6105C116.64 73.7478 116.588 73.8568 116.484 73.9503C116.197 74.2094 115.872 74.4119 115.5 74.5093C115.189 74.5911 114.864 74.6213 114.545 74.6739L114.545 74.6729Z" fill="#F6F7F5"/>
<path d="M86.9365 74.6106C86.9727 74.3954 87.002 74.223 87.0323 74.0496C87.0363 74.0263 87.047 74.0029 87.05 73.9786C87.0891 73.6426 87.1204 73.3056 87.1673 72.9706C87.2152 72.6288 87.2768 72.2889 87.3325 71.9481C87.3355 71.9325 87.3413 71.9169 87.3423 71.9004C87.3814 71.5644 87.4127 71.2275 87.4597 70.8925C87.5056 70.5584 87.5672 70.2264 87.622 69.8943C87.6249 69.8787 87.6318 69.8631 87.6337 69.8475C87.6728 69.5281 87.709 69.2077 87.7501 68.8893C87.7667 68.7627 87.7931 68.6371 87.8156 68.5105C87.8224 68.4705 87.8332 68.4316 87.8381 68.3916C87.8752 68.0722 87.9016 67.7509 87.9525 67.4334C87.9671 67.3399 88.0366 67.2435 88.105 67.1705C88.413 66.8403 88.7885 66.6183 89.2207 66.4781C89.6265 66.3466 90.0391 66.2658 90.4635 66.3057C91.0072 66.3573 91.5088 66.5092 91.8676 66.9659C92.0994 67.261 92.2245 67.6009 92.3018 67.9563C92.4895 68.8211 92.4612 69.7015 92.3829 70.5711C92.2998 71.4865 92.0612 72.3688 91.5313 73.1469C91.0903 73.7955 90.5134 74.2658 89.7634 74.5307C89.1923 74.7333 88.6057 74.7683 88.0102 74.7528C87.7823 74.7469 87.5545 74.7313 87.3277 74.706C87.2103 74.6934 87.0959 74.6505 86.9355 74.6096L86.9365 74.6106Z" fill="#F6F7F5"/>
<path d="M26.8246 69.5661C26.8373 70.166 26.764 70.8019 26.6212 71.4261C26.3992 72.3941 26.0198 73.2871 25.266 73.9785C24.6411 74.5521 23.896 74.7995 23.0532 74.7527C22.6972 74.7333 22.3442 74.6933 22.0128 74.5327C21.5551 74.3106 21.2686 73.9464 21.0956 73.4877C20.9557 73.1177 20.8824 72.733 20.8795 72.3328C20.8775 72.0669 20.814 71.802 20.814 71.5371C20.814 71.2723 20.8893 71.0064 20.8805 70.7415C20.8687 70.3802 20.9372 70.0296 21.0105 69.6878C21.1885 68.863 21.4681 68.0683 22.0108 67.3983C22.4156 66.8987 22.9212 66.5521 23.5538 66.3758C24.0232 66.2453 24.4984 66.2502 24.956 66.3183C25.7656 66.4401 26.3719 66.8432 26.6368 67.8395C26.7845 68.3926 26.8285 68.9545 26.8226 69.5651L26.8246 69.5661Z" fill="#F6F7F5"/>
</g>
<defs>
<clipPath id="clip0_752_3464">
<rect width="116" height="37" fill="white" transform="translate(12 52)"/>
</clipPath>
</defs>
</svg>
