<svg width="140" height="140" viewBox="0 0 140 140" fill="none" xmlns="http://www.w3.org/2000/svg">
<rect width="140" height="140" rx="30" fill="#0079BA"/>
<g clip-path="url(#clip0_841_3615)">
<path d="M53.9632 53C54.603 53.2242 54.78 53.6883 54.7773 54.3487C54.7571 58.9739 54.7611 63.5991 54.7787 68.2244C54.78 68.5304 54.8793 68.8922 55.0597 69.1301C55.4915 69.6991 56.2894 69.6616 56.7975 69.1069C58.4223 67.3323 60.0445 65.555 61.6708 63.7811C62.2282 63.1732 62.7998 62.579 63.3511 61.9649C63.5889 61.6998 63.8781 61.5758 64.2145 61.5745C65.9813 61.5676 67.7474 61.569 69.5142 61.5731C69.9452 61.5745 70.2803 61.7646 70.4533 62.1714C70.6492 62.6328 70.5648 63.0519 70.2276 63.4274C68.1899 65.6974 66.1556 67.9709 64.1206 70.2429C63.6308 70.7902 63.1382 71.3347 62.6538 71.8874C62.4829 72.0823 62.3275 72.2922 62.1741 72.5014C61.7546 73.0738 61.7437 73.662 62.1667 74.2283C62.491 74.6617 62.8288 75.0904 63.2031 75.4795C66.232 78.6314 69.2669 81.7771 72.3106 84.914C72.6802 85.2942 72.7842 85.6963 72.6018 86.1788C72.4288 86.6347 72.066 86.8548 71.5025 86.8555C69.6459 86.8576 67.7893 86.8555 65.9326 86.8562C65.4834 86.8562 65.1354 86.6947 64.8111 86.3499C62.1032 83.4692 59.3777 80.6056 56.6542 77.7407C56.2934 77.3611 55.8401 77.2697 55.3894 77.4715C54.9172 77.6827 54.6983 78.0616 54.699 78.5782C54.6996 80.9246 54.699 83.2716 54.699 85.6179C54.699 86.4098 54.3355 86.7826 53.545 86.7853C52.2397 86.7901 50.9343 86.7894 49.6297 86.7853C48.7852 86.7833 48.4615 86.4575 48.4615 85.6179C48.4615 75.1435 48.4642 64.6684 48.4541 54.194C48.4541 53.5874 48.6852 53.2038 49.2385 53.0007H53.9652L53.9632 53Z" fill="#F6F7F6"/>
<path d="M20 73.6804C20.0878 73.065 20.1534 72.4455 20.2675 71.8356C21.2898 66.3769 25.8658 62.1714 31.358 61.6331C38.1339 60.9686 44.1761 65.7847 45.0949 72.5818C46.0293 79.4982 41.0621 85.9785 34.1828 86.816C27.363 87.6467 21.1911 82.9206 20.1628 76.0771C20.0973 75.643 20.0534 75.2055 20 74.7694C20 74.4068 20 74.0436 20 73.681V73.6804ZM32.614 80.5661C36.055 80.5675 38.8974 77.712 38.9008 74.2494C38.9041 70.7888 36.0624 67.9177 32.6289 67.9116C29.1913 67.9055 26.3428 70.7643 26.3367 74.2249C26.3313 77.7393 29.1278 80.5647 32.614 80.5661Z" fill="#F6F7F6"/>
<path d="M108.897 63.2564C108.897 63.0417 108.891 62.8877 108.897 62.7344C108.926 62.0488 109.332 61.6433 110.014 61.6406C111.342 61.6344 112.67 61.6372 113.997 61.6392C114.813 61.6399 115.198 62.0249 115.198 62.8441C115.2 66.6979 115.185 70.5517 115.209 74.4055C115.215 75.4904 115.325 76.5753 115.404 77.6589C115.423 77.9042 115.501 78.1475 115.569 78.386C115.873 79.4471 116.571 80.0898 117.646 80.2799C118.152 80.3698 118.672 80.3971 119.187 80.4264C119.731 80.4571 119.989 80.7045 119.989 81.2476C119.989 82.755 119.971 84.2632 120.001 85.7699C120.01 86.2436 119.806 86.5223 119.415 86.6395C118.913 86.7901 118.392 86.9087 117.871 86.9584C116.592 87.0804 115.331 86.9339 114.113 86.5121C112.888 86.0875 111.885 85.3454 111.105 84.3007C111.025 84.1923 110.943 84.0853 110.845 83.9545C107.696 86.5312 104.137 87.52 100.149 86.7199C97.4131 86.1713 95.1194 84.7988 93.2675 82.6985C89.5522 78.4835 89.0455 72.3065 92.0378 67.577C93.8336 64.7393 96.3551 62.8672 99.5954 62.0311C102.822 61.1983 105.902 61.6767 108.898 63.2564H108.897ZM108.897 74.2971C108.85 70.6607 106.054 67.8605 102.522 67.913C99.0583 67.9641 96.2936 70.8284 96.3396 74.3183C96.3869 77.8511 99.2171 80.6152 102.738 80.5668C106.161 80.5198 108.941 77.6889 108.897 74.2971Z" fill="#F6F7F6"/>
<path d="M73.937 64.6438C73.937 61.1751 73.937 57.7056 73.937 54.2369C73.937 53.4075 74.2573 53.0818 75.0755 53.0804C76.3808 53.0783 77.6861 53.0783 78.9914 53.0804C79.7995 53.0818 80.163 53.4518 80.1636 54.2689C80.165 56.2752 80.1636 58.2822 80.1643 60.2885C80.1643 61.1662 80.6237 61.6351 81.4953 61.6371C83.2729 61.6412 85.0511 61.6378 86.8287 61.6385C87.5307 61.6385 87.9624 62.0208 87.9732 62.7282C87.9942 64.1225 87.9915 65.5168 87.9739 66.9111C87.9665 67.5183 87.5179 67.9082 86.8794 67.9095C85.1126 67.9136 83.3465 67.9102 81.5798 67.9116C80.596 67.9116 80.165 68.3491 80.1643 69.3461C80.1636 71.0239 80.163 72.7017 80.1643 74.3795C80.167 78.1434 83.6026 81.1249 87.3091 80.5811C87.9854 80.4816 88.4543 80.8448 88.53 81.5229C88.68 82.8743 88.8306 84.2256 88.9826 85.577C89.0671 86.3321 88.7009 86.7799 87.9577 86.8807C81.6419 87.738 75.0795 83.2941 74.0478 76.0308C73.9715 75.4945 73.9438 74.9465 73.9424 74.4041C73.933 71.1507 73.9377 67.8966 73.9377 64.6432L73.937 64.6438Z" fill="#F6F7F6"/>
</g>
<defs>
<clipPath id="clip0_841_3615">
<rect width="100" height="34" fill="white" transform="translate(20 53)"/>
</clipPath>
</defs>
</svg>
