<svg width="140" height="140" viewBox="0 0 140 140" fill="none" xmlns="http://www.w3.org/2000/svg">
<rect width="140" height="140" rx="30" fill="white"/>
<g clip-path="url(#clip0_752_3496)">
<path d="M81.1633 87.1418C81.0499 85.1271 82.0336 83.6226 83.3119 82.2183C85.8565 79.4217 88.3648 76.5918 90.7945 73.692C91.5228 72.8236 92.31 72.0038 93.0867 71.1779C93.5596 70.6738 93.7243 70.2244 93.3919 69.4987C92.2027 66.9026 90.8564 64.3869 89.6204 61.8151C88.3829 59.2433 87.0124 56.723 85.9532 54.0783C84.832 51.2757 86.6286 48.8405 89.3605 48.6234C92.2178 48.3972 94.1459 49.7909 95.6146 52.1608C97.3553 54.9695 99.232 57.6932 101.057 60.4487C101.503 61.1213 101.574 61.1015 102.13 60.4609C105.057 57.092 108.018 53.7549 110.906 50.3527C111.965 49.1047 113.221 48.2697 114.774 47.8719C116.169 47.5151 117.496 47.673 118.355 48.9529C119.176 50.1735 118.948 51.546 118.218 52.6877C116.521 55.3445 114.69 57.9148 112.928 60.5307C111.195 63.1056 109.516 65.7184 107.733 68.2584C107.139 69.104 107.166 69.7022 107.74 70.5341C109.616 73.2563 111.409 76.0346 113.236 78.7901C115.16 81.6914 117.086 84.5927 119.013 87.4925C119.655 88.4596 120.295 89.4252 120.948 90.3847C121.276 90.8675 121.581 91.3594 121.779 91.9105C122.381 93.5881 121.707 95.1093 120.055 95.7895C118.698 96.3482 117.249 96.5865 115.853 97.0147C114.868 97.3168 113.874 97.6007 112.869 97.8224C109.934 98.4661 107.881 97.3122 106.562 94.6007C105.302 92.0152 103.848 89.5239 102.473 86.9945C101.544 85.2865 100.601 83.5862 99.6686 81.8812C99.2199 81.0614 99.0975 81.0492 98.5883 81.8023C95.6222 86.1929 92.6938 90.6109 89.6733 94.9651C88.2605 97.0025 86.2493 96.8993 84.7746 94.7191C83.8151 93.2981 82.9327 91.8239 82.0215 90.371C81.399 89.3811 81.0877 88.3032 81.1602 87.1372L81.1633 87.1418Z" fill="#F57200"/>
<path d="M56.8587 71.5392C56.8149 78.2831 55.0969 83.7942 51.1758 88.4733C47.4421 92.9292 42.6854 95.3948 36.7894 95.2217C32.539 95.0972 28.8581 93.4181 25.7213 90.5957C21.6657 86.946 19.307 82.2927 18.4261 76.9546C17.2264 69.684 18.5001 62.8642 22.9742 56.8976C26.646 52.0014 31.5356 49.1867 37.7686 49.255C42.1807 49.3036 45.9915 51.0207 49.2447 53.9857C53.0162 57.4245 55.2238 61.7559 56.2875 66.7037C56.6744 68.5058 56.9267 70.3413 56.8587 71.5362V71.5392ZM46.2469 72.2846C46.3134 71.3434 46.1985 70.4112 46.0912 69.4836C45.6621 65.7624 44.7464 62.1962 42.2215 59.304C39.8628 56.6031 37.0252 55.9047 34.0575 58.0105C32.1914 59.3359 31.0038 61.2731 30.1893 63.4214C28.3988 68.146 28.1676 72.98 29.2601 77.8838C29.9128 80.8124 31.0431 83.5315 33.2129 85.6828C35.5912 88.0391 38.6691 88.1894 41.1789 86.114C42.4044 85.1013 43.3049 83.8185 44.0106 82.408C45.6047 79.2259 46.1864 75.8099 46.2469 72.2846Z" fill="#612182"/>
<path d="M69.6734 54.3744C69.5828 58.3946 69.897 63.142 69.8351 67.8955C69.8155 69.3667 70.5498 70.188 71.9807 70.4917C72.6274 70.6283 73.2787 70.6298 73.933 70.6435C76.4216 70.6981 78.9148 70.5008 81.3989 70.7892C83.1456 70.9927 83.8377 71.8171 83.8875 73.6009C83.9359 75.3226 83.7606 77.0336 83.7062 78.7507C83.6458 80.6925 82.6712 81.5639 80.7023 81.5685C75.5467 81.5806 70.3927 81.5776 65.2371 81.5928C64.3395 81.5958 63.4571 81.734 62.5596 81.4076C60.2235 80.5619 59.057 79.0407 58.9543 76.5478C58.9513 76.4719 58.9513 76.396 58.9513 76.32C58.8969 71.2143 58.9044 66.1071 58.7715 61.0044C58.643 56.0778 58.4813 51.1543 58.4949 46.2247C58.4995 44.667 59.3985 43.5116 60.8703 43.1139C61.1347 43.0425 61.4157 43.0106 61.6892 43.0091C63.2743 43 64.8608 42.9924 66.4459 43.0091C67.975 43.0243 68.9572 43.7743 69.3833 45.25C69.5797 45.9317 69.6764 46.6316 69.6749 47.3451C69.6704 49.4433 69.6749 51.5429 69.6749 54.3744H69.6734Z" fill="#A5B401"/>
</g>
<defs>
<clipPath id="clip0_752_3496">
<rect width="104" height="55" fill="white" transform="translate(18 43)"/>
</clipPath>
</defs>
</svg>
