<svg width="140" height="140" viewBox="0 0 140 140" fill="none" xmlns="http://www.w3.org/2000/svg">
<rect width="140" height="140" rx="30" fill="white"/>
<g clip-path="url(#clip0_2387_54)">
<path d="M81.1634 87.1418C81.0501 85.1272 82.0337 83.6227 83.312 82.2183C85.8566 79.4218 88.3649 76.5918 90.7946 73.6921C91.5229 72.8237 92.3101 72.0038 93.0868 71.1779C93.5597 70.6739 93.7244 70.2245 93.392 69.4988C92.2029 66.9027 90.8565 64.387 89.6205 61.8152C88.383 59.2433 87.0125 56.7231 85.9533 54.0784C84.8321 51.2758 86.6287 48.8406 89.3606 48.6235C92.218 48.3973 94.146 49.791 95.6147 52.1609C97.3554 54.9696 99.2321 57.6932 101.057 60.4488C101.503 61.1213 101.574 61.1016 102.13 60.4609C105.057 57.092 108.019 53.755 110.906 50.3527C111.965 49.1047 113.221 48.2697 114.774 47.872C116.169 47.5152 117.496 47.6731 118.355 48.9529C119.176 50.1736 118.948 51.546 118.218 52.6877C116.521 55.3446 114.69 57.9149 112.928 60.5308C111.195 63.1056 109.516 65.7185 107.733 68.2584C107.139 69.1041 107.166 69.7022 107.741 70.5342C109.616 73.2563 111.409 76.0347 113.236 78.7902C115.16 81.6915 117.086 84.5928 119.013 87.4926C119.655 88.4596 120.296 89.4252 120.948 90.3847C121.276 90.8675 121.581 91.3594 121.779 91.9105C122.381 93.5881 121.707 95.1094 120.055 95.7895C118.698 96.3482 117.249 96.5866 115.853 97.0147C114.868 97.3169 113.874 97.6008 112.869 97.8224C109.935 98.4661 107.881 97.3123 106.562 94.6008C105.302 92.0153 103.848 89.5239 102.473 86.9946C101.544 85.2866 100.601 83.5862 99.6688 81.8813C99.22 81.0614 99.0976 81.0493 98.5884 81.8023C95.6223 86.193 92.6939 90.6109 89.6734 94.9652C88.2606 97.0026 86.2495 96.8994 84.7747 94.7192C83.8152 93.2982 82.9328 91.824 82.0216 90.3711C81.3991 89.3812 81.0878 88.3033 81.1604 87.1373L81.1634 87.1418Z" fill="#F57200"/>
<path d="M56.8587 71.5392C56.8149 78.2831 55.0969 83.7942 51.1758 88.4733C47.4421 92.9292 42.6854 95.3948 36.7894 95.2217C32.539 95.0972 28.8581 93.4181 25.7213 90.5957C21.6657 86.946 19.307 82.2927 18.4261 76.9546C17.2264 69.684 18.5001 62.8642 22.9742 56.8976C26.646 52.0014 31.5356 49.1867 37.7686 49.255C42.1807 49.3036 45.9915 51.0207 49.2447 53.9857C53.0162 57.4245 55.2238 61.7559 56.2875 66.7037C56.6744 68.5058 56.9267 70.3413 56.8587 71.5362V71.5392ZM46.2469 72.2846C46.3134 71.3434 46.1985 70.4112 46.0912 69.4836C45.6621 65.7624 44.7464 62.1962 42.2215 59.304C39.8628 56.6031 37.0252 55.9047 34.0575 58.0105C32.1914 59.3359 31.0038 61.2731 30.1893 63.4214C28.3988 68.146 28.1676 72.98 29.2601 77.8838C29.9128 80.8124 31.0431 83.5315 33.2129 85.6828C35.5912 88.0391 38.6691 88.1894 41.1789 86.114C42.4044 85.1013 43.3049 83.8185 44.0106 82.408C45.6047 79.2259 46.1864 75.8099 46.2469 72.2846Z" fill="#612182"/>
<path d="M69.6737 54.3744C69.583 58.3946 69.8973 63.1421 69.8353 67.8956C69.8157 69.3667 70.55 70.1881 71.981 70.4917C72.6277 70.6283 73.2789 70.6298 73.9332 70.6435C76.4218 70.6982 78.915 70.5008 81.3991 70.7893C83.1459 70.9927 83.8379 71.8171 83.8878 73.601C83.9361 75.3226 83.7608 77.0336 83.7064 78.7507C83.646 80.6925 82.6714 81.564 80.7025 81.5685C75.547 81.5807 70.3929 81.5776 65.2373 81.5928C64.3398 81.5958 63.4574 81.734 62.5598 81.4076C60.2238 80.5619 59.0573 79.0407 58.9545 76.5478C58.9515 76.4719 58.9515 76.396 58.9515 76.3201C58.8971 71.2144 58.9047 66.1071 58.7717 61.0044C58.6433 56.0779 58.4816 51.1543 58.4952 46.2247C58.4997 44.667 59.3988 43.5117 60.8705 43.1139C61.1349 43.0425 61.416 43.0107 61.6895 43.0091C63.2745 43 64.8611 42.9924 66.4461 43.0091C67.9753 43.0243 68.9574 43.7743 69.3835 45.25C69.58 45.9317 69.6767 46.6316 69.6752 47.3451C69.6706 49.4433 69.6752 51.543 69.6752 54.3744H69.6737Z" fill="#A5B401"/>
</g>
<path d="M88.324 124V105.818H95.6039C96.9415 105.818 98.0571 106.016 98.9508 106.413C99.8445 106.81 100.516 107.36 100.966 108.064C101.416 108.763 101.641 109.568 101.641 110.479C101.641 111.189 101.499 111.814 101.215 112.352C100.931 112.885 100.54 113.323 100.043 113.666C99.5515 114.004 98.9893 114.243 98.356 114.385V114.563C99.0485 114.592 99.6965 114.788 100.3 115.149C100.91 115.51 101.404 116.016 101.783 116.667C102.162 117.312 102.351 118.081 102.351 118.975C102.351 119.94 102.111 120.801 101.632 121.559C101.158 122.31 100.457 122.905 99.5279 123.343C98.5987 123.781 97.4534 124 96.0921 124H88.324ZM92.1681 120.857H95.302C96.3733 120.857 97.1545 120.653 97.6458 120.245C98.137 119.83 98.3826 119.28 98.3826 118.593C98.3826 118.09 98.2613 117.646 98.0186 117.262C97.776 116.877 97.4297 116.575 96.9799 116.356C96.536 116.137 96.0063 116.028 95.3908 116.028H92.1681V120.857ZM92.1681 113.426H95.0179C95.5447 113.426 96.0122 113.335 96.4206 113.151C96.8349 112.962 97.1604 112.696 97.3972 112.352C97.6398 112.009 97.7612 111.598 97.7612 111.118C97.7612 110.461 97.5274 109.932 97.0598 109.529C96.5982 109.127 95.9412 108.925 95.0889 108.925H92.1681V113.426ZM116.908 111.695C116.784 111.263 116.61 110.882 116.385 110.55C116.16 110.213 115.885 109.929 115.559 109.698C115.239 109.461 114.872 109.281 114.458 109.156C114.05 109.032 113.597 108.97 113.1 108.97C112.171 108.97 111.354 109.201 110.65 109.662C109.951 110.124 109.407 110.796 109.016 111.678C108.625 112.554 108.43 113.625 108.43 114.891C108.43 116.158 108.622 117.235 109.007 118.123C109.392 119.011 109.936 119.688 110.641 120.156C111.345 120.618 112.177 120.848 113.135 120.848C114.005 120.848 114.748 120.694 115.364 120.387C115.985 120.073 116.459 119.632 116.784 119.064C117.116 118.496 117.281 117.824 117.281 117.049L118.063 117.164H113.375V114.27H120.983V116.56C120.983 118.158 120.646 119.531 119.971 120.68C119.297 121.822 118.367 122.704 117.184 123.325C116 123.941 114.645 124.249 113.118 124.249C111.413 124.249 109.916 123.873 108.625 123.121C107.335 122.364 106.329 121.289 105.607 119.898C104.891 118.502 104.533 116.844 104.533 114.927C104.533 113.453 104.746 112.139 105.172 110.985C105.604 109.825 106.208 108.843 106.983 108.038C107.758 107.233 108.661 106.62 109.691 106.2C110.721 105.78 111.836 105.57 113.038 105.57C114.068 105.57 115.026 105.721 115.914 106.022C116.802 106.318 117.589 106.739 118.276 107.283C118.968 107.828 119.533 108.476 119.971 109.227C120.409 109.973 120.69 110.796 120.815 111.695H116.908Z" fill="black"/>
<defs>
<clipPath id="clip0_2387_54">
<rect width="104" height="55" fill="white" transform="translate(18 43)"/>
</clipPath>
</defs>
</svg>
