<svg width="140" height="140" viewBox="0 0 140 140" fill="none" xmlns="http://www.w3.org/2000/svg">
<rect width="140" height="140" rx="30" fill="white"/>
<g clip-path="url(#clip0_2370_305)">
<path d="M81.1634 87.1418C81.0501 85.1272 82.0337 83.6227 83.312 82.2183C85.8566 79.4218 88.3649 76.5918 90.7946 73.6921C91.5229 72.8237 92.3101 72.0038 93.0868 71.1779C93.5597 70.6739 93.7244 70.2245 93.392 69.4988C92.2029 66.9027 90.8565 64.387 89.6205 61.8152C88.383 59.2433 87.0125 56.7231 85.9533 54.0784C84.8321 51.2758 86.6287 48.8406 89.3606 48.6235C92.218 48.3973 94.146 49.791 95.6147 52.1609C97.3554 54.9696 99.2321 57.6932 101.057 60.4488C101.503 61.1213 101.574 61.1016 102.13 60.4609C105.057 57.092 108.019 53.755 110.906 50.3527C111.965 49.1047 113.221 48.2697 114.774 47.872C116.169 47.5152 117.496 47.6731 118.355 48.9529C119.176 50.1736 118.948 51.546 118.218 52.6877C116.521 55.3446 114.69 57.9149 112.928 60.5308C111.195 63.1056 109.516 65.7185 107.733 68.2584C107.139 69.1041 107.166 69.7022 107.741 70.5342C109.616 73.2563 111.409 76.0347 113.236 78.7902C115.16 81.6915 117.086 84.5928 119.013 87.4926C119.655 88.4596 120.296 89.4252 120.948 90.3847C121.276 90.8675 121.581 91.3594 121.779 91.9105C122.381 93.5881 121.707 95.1094 120.055 95.7895C118.698 96.3482 117.249 96.5866 115.853 97.0147C114.868 97.3169 113.874 97.6008 112.869 97.8224C109.935 98.4661 107.881 97.3123 106.562 94.6008C105.302 92.0153 103.848 89.5239 102.473 86.9946C101.544 85.2866 100.601 83.5862 99.6688 81.8813C99.22 81.0614 99.0976 81.0493 98.5884 81.8023C95.6223 86.193 92.6939 90.6109 89.6734 94.9652C88.2606 97.0026 86.2495 96.8994 84.7747 94.7192C83.8152 93.2982 82.9328 91.824 82.0216 90.3711C81.3991 89.3812 81.0878 88.3033 81.1604 87.1373L81.1634 87.1418Z" fill="#F57200"/>
<path d="M56.8587 71.5392C56.8149 78.2831 55.0969 83.7942 51.1758 88.4733C47.4421 92.9292 42.6854 95.3948 36.7894 95.2217C32.539 95.0972 28.8581 93.4181 25.7213 90.5957C21.6657 86.946 19.307 82.2927 18.4261 76.9546C17.2264 69.684 18.5001 62.8642 22.9742 56.8976C26.646 52.0014 31.5356 49.1867 37.7686 49.255C42.1807 49.3036 45.9915 51.0207 49.2447 53.9857C53.0162 57.4245 55.2238 61.7559 56.2875 66.7037C56.6744 68.5058 56.9267 70.3413 56.8587 71.5362V71.5392ZM46.2469 72.2846C46.3134 71.3434 46.1985 70.4112 46.0912 69.4836C45.6621 65.7624 44.7464 62.1962 42.2215 59.304C39.8628 56.6031 37.0252 55.9047 34.0575 58.0105C32.1914 59.3359 31.0038 61.2731 30.1893 63.4214C28.3988 68.146 28.1676 72.98 29.2601 77.8838C29.9128 80.8124 31.0431 83.5315 33.2129 85.6828C35.5912 88.0391 38.6691 88.1894 41.1789 86.114C42.4044 85.1013 43.3049 83.8185 44.0106 82.408C45.6047 79.2259 46.1864 75.8099 46.2469 72.2846Z" fill="#612182"/>
<path d="M69.6736 54.3744C69.5829 58.3946 69.8972 63.1421 69.8353 67.8956C69.8156 69.3667 70.55 70.1881 71.9809 70.4917C72.6276 70.6283 73.2789 70.6298 73.9331 70.6435C76.4218 70.6982 78.915 70.5008 81.3991 70.7893C83.1458 70.9927 83.8378 71.8171 83.8877 73.601C83.9361 75.3226 83.7608 77.0336 83.7064 78.7507C83.6459 80.6925 82.6713 81.564 80.7025 81.5685C75.5469 81.5807 70.3928 81.5776 65.2373 81.5928C64.3397 81.5958 63.4573 81.734 62.5598 81.4076C60.2237 80.5619 59.0572 79.0407 58.9545 76.5478C58.9515 76.4719 58.9515 76.396 58.9515 76.3201C58.8971 71.2144 58.9046 66.1071 58.7716 61.0044C58.6432 56.0779 58.4815 51.1543 58.4951 46.2247C58.4997 44.667 59.3987 43.5117 60.8704 43.1139C61.1349 43.0425 61.4159 43.0107 61.6894 43.0091C63.2745 43 64.861 42.9924 66.4461 43.0091C67.9752 43.0243 68.9574 43.7743 69.3835 45.25C69.5799 45.9317 69.6766 46.6316 69.6751 47.3451C69.6706 49.4433 69.6751 51.543 69.6751 54.3744H69.6736Z" fill="#A5B401"/>
</g>
<path d="M89.1419 124V105.818H92.986V113.835H93.2257L99.7687 105.818H104.376L97.6291 113.959L104.456 124H99.8575L94.877 116.525L92.986 118.833V124H89.1419ZM106.183 124V121.718L115.256 108.988H106.165V105.818H120.086V108.1L111.004 120.831H120.103V124H106.183Z" fill="black"/>
<defs>
<clipPath id="clip0_2370_305">
<rect width="104" height="55" fill="white" transform="translate(18 43)"/>
</clipPath>
</defs>
</svg>
