<svg width="140" height="140" viewBox="0 0 140 140" fill="none" xmlns="http://www.w3.org/2000/svg">
<rect width="140" height="140" rx="30" fill="white"/>
<g clip-path="url(#clip0_2385_7)">
<path d="M81.1634 87.1418C81.0501 85.1272 82.0337 83.6227 83.312 82.2183C85.8566 79.4218 88.3649 76.5918 90.7946 73.6921C91.5229 72.8237 92.3101 72.0038 93.0868 71.1779C93.5597 70.6739 93.7244 70.2245 93.392 69.4988C92.2029 66.9027 90.8565 64.387 89.6205 61.8152C88.383 59.2433 87.0125 56.7231 85.9533 54.0784C84.8321 51.2758 86.6287 48.8406 89.3606 48.6235C92.218 48.3973 94.146 49.791 95.6147 52.1609C97.3554 54.9696 99.2321 57.6932 101.057 60.4488C101.503 61.1213 101.574 61.1016 102.13 60.4609C105.057 57.092 108.019 53.755 110.906 50.3527C111.965 49.1047 113.221 48.2697 114.774 47.872C116.169 47.5152 117.496 47.6731 118.355 48.9529C119.176 50.1736 118.948 51.546 118.218 52.6877C116.521 55.3446 114.69 57.9149 112.928 60.5308C111.195 63.1056 109.516 65.7185 107.733 68.2584C107.139 69.1041 107.166 69.7022 107.741 70.5342C109.616 73.2563 111.409 76.0347 113.236 78.7902C115.16 81.6915 117.086 84.5928 119.013 87.4926C119.655 88.4596 120.296 89.4252 120.948 90.3847C121.276 90.8675 121.581 91.3594 121.779 91.9105C122.381 93.5881 121.707 95.1094 120.055 95.7895C118.698 96.3482 117.249 96.5866 115.853 97.0147C114.868 97.3169 113.874 97.6008 112.869 97.8224C109.935 98.4661 107.881 97.3123 106.562 94.6008C105.302 92.0153 103.848 89.5239 102.473 86.9946C101.544 85.2866 100.601 83.5862 99.6688 81.8813C99.22 81.0614 99.0976 81.0493 98.5884 81.8023C95.6223 86.193 92.6939 90.6109 89.6734 94.9652C88.2606 97.0026 86.2495 96.8994 84.7747 94.7192C83.8152 93.2982 82.9328 91.824 82.0216 90.3711C81.3991 89.3812 81.0878 88.3033 81.1604 87.1373L81.1634 87.1418Z" fill="#F57200"/>
<path d="M56.8587 71.5392C56.8149 78.2831 55.0969 83.7942 51.1758 88.4733C47.4421 92.9292 42.6854 95.3948 36.7894 95.2217C32.539 95.0972 28.8581 93.4181 25.7213 90.5957C21.6657 86.946 19.307 82.2927 18.4261 76.9546C17.2264 69.684 18.5001 62.8642 22.9742 56.8976C26.646 52.0014 31.5356 49.1867 37.7686 49.255C42.1807 49.3036 45.9915 51.0207 49.2447 53.9857C53.0162 57.4245 55.2238 61.7559 56.2875 66.7037C56.6744 68.5058 56.9267 70.3413 56.8587 71.5362V71.5392ZM46.2469 72.2846C46.3134 71.3434 46.1985 70.4112 46.0912 69.4836C45.6621 65.7624 44.7464 62.1962 42.2215 59.304C39.8628 56.6031 37.0252 55.9047 34.0575 58.0105C32.1914 59.3359 31.0038 61.2731 30.1893 63.4214C28.3988 68.146 28.1676 72.98 29.2601 77.8838C29.9128 80.8124 31.0431 83.5315 33.2129 85.6828C35.5912 88.0391 38.6691 88.1894 41.1789 86.114C42.4044 85.1013 43.3049 83.8185 44.0106 82.408C45.6047 79.2259 46.1864 75.8099 46.2469 72.2846Z" fill="#612182"/>
<path d="M69.6737 54.3744C69.583 58.3946 69.8973 63.1421 69.8353 67.8956C69.8157 69.3667 70.55 70.1881 71.981 70.4917C72.6277 70.6283 73.2789 70.6298 73.9332 70.6435C76.4218 70.6982 78.915 70.5008 81.3991 70.7893C83.1459 70.9927 83.8379 71.8171 83.8878 73.601C83.9361 75.3226 83.7608 77.0336 83.7064 78.7507C83.646 80.6925 82.6714 81.564 80.7025 81.5685C75.547 81.5807 70.3929 81.5776 65.2373 81.5928C64.3398 81.5958 63.4574 81.734 62.5598 81.4076C60.2238 80.5619 59.0573 79.0407 58.9545 76.5478C58.9515 76.4719 58.9515 76.396 58.9515 76.3201C58.8971 71.2144 58.9047 66.1071 58.7717 61.0044C58.6433 56.0779 58.4816 51.1543 58.4952 46.2247C58.4997 44.667 59.3988 43.5117 60.8705 43.1139C61.1349 43.0425 61.416 43.0107 61.6895 43.0091C63.2745 43 64.8611 42.9924 66.4461 43.0091C67.9753 43.0243 68.9574 43.7743 69.3835 45.25C69.58 45.9317 69.6767 46.6316 69.6752 47.3451C69.6706 49.4433 69.6752 51.543 69.6752 54.3744H69.6737Z" fill="#A5B401"/>
</g>
<path d="M88.1165 124V105.818H95.2898C96.6629 105.818 97.8348 106.064 98.8054 106.555C99.782 107.04 100.525 107.73 101.034 108.624C101.549 109.511 101.806 110.556 101.806 111.757C101.806 112.965 101.546 114.004 101.025 114.874C100.504 115.738 99.7494 116.401 98.761 116.862C97.7786 117.324 96.5889 117.555 95.1921 117.555H90.3892V114.465H94.5707C95.3046 114.465 95.9142 114.365 96.3995 114.163C96.8849 113.962 97.2459 113.66 97.4826 113.258C97.7253 112.855 97.8466 112.355 97.8466 111.757C97.8466 111.154 97.7253 110.645 97.4826 110.23C97.2459 109.816 96.8819 109.502 96.3907 109.289C95.9053 109.07 95.2928 108.961 94.5529 108.961H91.9606V124H88.1165ZM97.9354 115.726L102.454 124H98.2106L93.7894 115.726H97.9354ZM121.231 114.909C121.231 116.892 120.855 118.579 120.103 119.969C119.358 121.36 118.34 122.423 117.049 123.157C115.765 123.885 114.321 124.249 112.717 124.249C111.101 124.249 109.651 123.882 108.367 123.148C107.083 122.414 106.068 121.351 105.322 119.961C104.576 118.57 104.203 116.886 104.203 114.909C104.203 112.926 104.576 111.24 105.322 109.849C106.068 108.458 107.083 107.398 108.367 106.67C109.651 105.937 111.101 105.57 112.717 105.57C114.321 105.57 115.765 105.937 117.049 106.67C118.34 107.398 119.358 108.458 120.103 109.849C120.855 111.24 121.231 112.926 121.231 114.909ZM117.333 114.909C117.333 113.625 117.141 112.542 116.756 111.66C116.378 110.778 115.842 110.109 115.15 109.653C114.457 109.198 113.646 108.97 112.717 108.97C111.788 108.97 110.977 109.198 110.284 109.653C109.592 110.109 109.053 110.778 108.669 111.66C108.29 112.542 108.101 113.625 108.101 114.909C108.101 116.193 108.29 117.277 108.669 118.158C109.053 119.04 109.592 119.709 110.284 120.165C110.977 120.621 111.788 120.848 112.717 120.848C113.646 120.848 114.457 120.621 115.15 120.165C115.842 119.709 116.378 119.04 116.756 118.158C117.141 117.277 117.333 116.193 117.333 114.909Z" fill="black"/>
<defs>
<clipPath id="clip0_2385_7">
<rect width="104" height="55" fill="white" transform="translate(18 43)"/>
</clipPath>
</defs>
</svg>
