<svg width="140" height="140" viewBox="0 0 140 140" fill="none" xmlns="http://www.w3.org/2000/svg">
<rect width="140" height="140" rx="30" fill="white"/>
<g clip-path="url(#clip0_2332_1594)">
<path d="M115.55 77.9229C111.87 81.3899 107.595 83.3407 102.584 83.6847C101.845 83.7345 101.579 84.0603 101.398 84.7438C100.952 86.432 100.555 88.1474 99.6575 89.6773C99.5853 89.8628 99.5131 90.0484 99.441 90.2385C99.4004 90.329 99.3553 90.4241 99.3147 90.5191C96.7848 96.48 93.2356 101.825 88.1622 105.781C82.2409 110.398 75.2869 111.914 67.8594 110.47C64.3147 109.782 61.5007 107.922 60.4815 104.215C59.4172 100.341 60.0395 96.7561 62.84 93.7055C65.2392 91.0849 68.36 89.6365 71.5844 88.419C78.137 85.9387 85.0054 84.9294 91.9323 84.2504C92.7756 84.169 93.6235 84.1237 94.4713 84.0649C96.4646 83.9336 98.4579 83.7616 100.451 83.6892C101.267 83.662 101.669 83.4991 101.836 82.5803C104.465 68.2958 101.209 55.5321 92.1397 44.2303C91.5625 43.5152 91.116 43.5786 90.3855 43.9271C85.4248 46.3259 80.8339 49.277 76.5902 52.8164C74.6059 54.473 72.8967 56.4192 70.8809 58.0305C68.0939 60.7869 65.3114 63.5298 62.3846 66.1504C59.4126 68.8208 56.328 71.2876 52.9637 73.3787C48.3683 76.2392 43.579 78.6742 38.1222 79.4844C28.5706 80.9056 19.3392 73.7905 18.1577 64.1091C17.3369 57.3833 19.7496 51.6622 23.7227 46.5341C29.4365 39.1656 36.9001 34.2457 45.7392 31.3987C49.3424 29.9323 53.1351 29.2624 56.9819 29.0678C70.3442 28.3843 81.7538 32.7294 90.8815 42.6914C91.5264 43.3975 91.9549 43.0762 92.5366 42.7865C104.56 36.7803 119.058 43.3115 122.283 56.3921C124.362 64.8152 121.841 71.9891 115.55 77.9229Z" fill="url(#paint0_linear_2332_1594)"/>
</g>
<defs>
<linearGradient id="paint0_linear_2332_1594" x1="44.5" y1="93" x2="109" y2="44.5" gradientUnits="userSpaceOnUse">
<stop stop-color="#08349A"/>
<stop offset="0.379" stop-color="#652493"/>
<stop offset="1" stop-color="#CD128A"/>
</linearGradient>
<clipPath id="clip0_2332_1594">
<rect width="105" height="82" fill="white" transform="translate(18 29)"/>
</clipPath>
</defs>
</svg>
