<svg width="140" height="140" viewBox="0 0 140 140" fill="none" xmlns="http://www.w3.org/2000/svg">
<rect width="140" height="140" rx="30" fill="#292626"/>
<g clip-path="url(#clip0_3597_817)">
<path d="M82.8196 83.2794L95.1321 90.4289L68.9286 106L37 88.1078V51.4436L68.5987 33L95.1321 48.4608L82.91 55.7819C79.3157 52.0147 74.2528 49.6691 68.6451 49.6691C57.7351 49.6691 48.8923 58.5417 48.8923 69.4828C48.8923 80.424 57.7351 89.2966 68.6451 89.2966C74.2064 89.2966 79.2301 86.9902 82.8196 83.2794Z" fill="#F49E0B"/>
<path d="M68.7428 78.8701C73.8803 78.8701 78.045 74.6926 78.045 69.5393C78.045 64.386 73.8803 60.2084 68.7428 60.2084C63.6054 60.2084 59.4406 64.386 59.4406 69.5393C59.4406 74.6926 63.6054 78.8701 68.7428 78.8701Z" fill="#F49E0B"/>
<path d="M93.6978 78.8701C98.8352 78.8701 103 74.6926 103 69.5393C103 64.386 98.8352 60.2084 93.6978 60.2084C88.5603 60.2084 84.3956 64.386 84.3956 69.5393C84.3956 74.6926 88.5603 78.8701 93.6978 78.8701Z" fill="#F49E0B"/>
</g>
<defs>
<clipPath id="clip0_3597_817">
<rect width="66" height="73" fill="white" transform="translate(37 33)"/>
</clipPath>
</defs>
</svg>
