<svg width="140" height="140" viewBox="0 0 140 140" fill="none" xmlns="http://www.w3.org/2000/svg">
<rect width="140" height="140" rx="30" fill="url(#paint0_linear_822_1068)"/>
<g clip-path="url(#clip0_822_1068)">
<path d="M60.0697 43.0189C66.7718 43.0189 73.4746 43.0766 80.1759 43.0017C86.1026 42.9349 90.597 45.4676 93.9443 50.2766C95.7394 52.855 97.0094 55.6981 98.0834 58.6356C99.1076 61.436 101.086 63.1791 103.836 64.1861C109.246 66.1677 112.693 69.9547 113.693 75.7106C114.048 77.7559 113.931 79.8875 113.981 81.9816C114.022 83.7083 113.975 85.4365 114 87.1639C114.007 87.6865 113.803 87.8724 113.311 87.8709C112.036 87.8672 110.758 87.9302 109.485 87.8724C108.714 87.8372 108.404 88.0981 108.228 88.8614C107.371 92.5869 105.206 95.307 101.797 96.994C97.9173 98.9141 93.1257 98.0294 89.8738 94.8377C88.1346 93.1297 86.9443 91.1099 86.5354 88.6874C86.4155 87.9744 86.1004 87.8537 85.471 87.8552C79.627 87.8687 73.783 87.8552 67.9389 87.8477C66.4321 87.8454 64.9253 87.8499 63.4185 87.8162C62.982 87.8064 62.8182 87.9227 62.7541 88.3785C62.1798 92.4542 58.6701 96.2547 54.724 97.3396C47.9981 99.1885 41.5567 94.3593 40.7895 87.5823C40.6539 86.3834 40.7522 85.1568 40.747 83.9437C40.7359 81.423 39.2775 79.9475 36.777 79.937C35.6173 79.9317 34.4576 79.9475 33.2986 79.9317C31.1997 79.9032 29.6161 78.3482 29.6288 76.3479C29.6414 74.3445 31.2257 72.8383 33.3433 72.8285C35.1525 72.8203 36.961 72.8375 38.7702 72.8218C40.7589 72.8053 42.3492 71.3313 42.3872 69.4974C42.4274 67.5442 40.9236 65.9487 38.9683 65.9338C35.9771 65.9098 32.985 65.924 29.9938 65.924C27.7607 65.924 26.0319 64.2071 25.9999 61.9555C25.9686 59.7288 27.7548 57.9016 29.9967 57.8971C34.7041 57.8873 39.4123 57.8956 44.1197 57.8896C46.0361 57.8873 47.5281 56.5145 47.8223 54.5044C48.0785 52.756 46.9128 50.8524 45.2354 50.3373C44.8667 50.2241 44.4601 50.2023 44.0698 50.1986C42.3306 50.1836 40.5906 50.2226 38.8522 50.1783C37.3625 50.1401 36.1186 49.5493 35.4773 48.1247C34.4702 45.8837 35.7089 43.0541 38.9192 43.0399C44.9718 43.0129 51.0251 43.0294 57.0777 43.0271C58.075 43.0271 59.0724 43.0271 60.069 43.0271V43.0181L60.0697 43.0189ZM93.2598 61.3767C93.1913 61.1383 93.1578 60.9831 93.1034 60.8361C92.1798 58.3185 91.1422 55.8525 89.695 53.5867C88.4839 51.6906 86.9696 50.1289 84.8625 49.2081C83.3758 48.5589 81.8168 48.4434 80.2407 48.4351C76.2298 48.4127 72.2181 48.4209 68.2071 48.4187C65.2158 48.4172 62.2253 48.4082 59.234 48.4217C57.4382 48.4299 56.0252 49.4226 55.5381 50.9446C54.943 52.8062 54.3396 54.6649 53.7229 56.519C52.8626 59.1065 54.4692 61.4007 57.1819 61.4C68.937 61.3977 80.6929 61.385 92.4479 61.376C92.6967 61.376 92.9455 61.376 93.2591 61.376L93.2598 61.3767ZM57.2296 86.3827C57.211 83.3641 54.7798 80.9934 51.7245 81.0144C48.833 81.0339 46.4384 83.4796 46.4711 86.4171C46.5039 89.4184 48.7049 91.8649 51.863 91.8454C55.0502 91.8251 57.1551 89.3974 57.2304 86.3834L57.2296 86.3827ZM97.4615 81.0316C94.4657 80.9971 91.9921 83.3769 92.0152 86.3759C92.0383 89.3734 94.1685 91.8281 97.3736 91.8319C100.5 91.8356 102.676 89.5324 102.748 86.4614C102.818 83.5148 100.391 81.0039 97.4615 81.0316ZM64.214 68.207H58.1212V74.3243H64.214V68.207ZM83.1292 68.1973C83.1292 70.1879 83.1181 72.0975 83.1546 74.0064C83.1568 74.1339 83.5255 74.358 83.7266 74.3618C85.3265 74.391 86.9272 74.3513 88.5264 74.3903C89.1088 74.4045 89.2354 74.1706 89.2258 73.6548C89.2004 72.3014 89.2086 70.9474 89.2049 69.5933C89.2034 69.136 89.2049 68.6794 89.2049 68.1973H83.1292ZM67.4652 80.6845C68.2764 80.6845 69.0882 80.6665 69.8986 80.692C70.3366 80.7055 70.5198 80.5803 70.5131 80.1042C70.49 78.448 70.4945 76.791 70.5131 75.1348C70.5176 74.7217 70.3984 74.5417 69.9679 74.5455C68.2987 74.5582 66.6303 74.556 64.9611 74.544C64.532 74.541 64.3965 74.7404 64.3987 75.1408C64.4084 76.797 64.4144 78.454 64.3987 80.1109C64.3942 80.587 64.6028 80.7047 65.0326 80.692C65.843 80.668 66.6548 80.6852 67.466 80.6845H67.4652ZM70.671 68.1695C70.671 70.1721 70.6621 72.081 70.6911 73.9899C70.6934 74.1219 70.9772 74.3588 71.1328 74.361C72.8251 74.388 74.5189 74.3715 76.2111 74.3835C76.5776 74.3858 76.7065 74.2283 76.7042 73.8834C76.6923 72.1328 76.6983 70.3813 76.6603 68.6314C76.6566 68.4747 76.3884 68.192 76.2395 68.1898C74.434 68.159 72.6277 68.1695 70.671 68.1695ZM76.9426 77.6525H76.9456C76.9456 78.445 76.9612 79.2375 76.9396 80.0292C76.9269 80.4821 77.0364 80.7032 77.5534 80.6942C79.1503 80.6657 80.748 80.6717 82.3457 80.6927C82.7955 80.6987 82.9639 80.5428 82.9602 80.0907C82.946 78.436 82.9482 76.7813 82.9594 75.1265C82.9624 74.6992 82.7739 74.5552 82.371 74.5575C80.7502 74.5665 79.1294 74.5665 77.5094 74.5537C77.0916 74.5507 76.9307 74.7194 76.9389 75.1363C76.9552 75.9753 76.9441 76.8142 76.9441 77.6532L76.9426 77.6525Z" fill="black"/>
</g>
<defs>
<linearGradient id="paint0_linear_822_1068" x1="6.5" y1="9" x2="126" y2="135" gradientUnits="userSpaceOnUse">
<stop stop-color="#FED943"/>
<stop offset="1" stop-color="#FAB800"/>
</linearGradient>
<clipPath id="clip0_822_1068">
<rect width="88" height="55" fill="white" transform="translate(26 43)"/>
</clipPath>
</defs>
</svg>
