<svg width="140" height="140" viewBox="0 0 140 140" fill="none" xmlns="http://www.w3.org/2000/svg">
<rect width="140" height="140" rx="30" fill="white"/>
<g clip-path="url(#clip0_839_1308)">
<path d="M75.4367 75.1652V84.991C75.307 84.991 75.1895 84.991 75.0721 84.991C73.8083 84.9921 72.5446 84.991 71.2808 84.9989C71.1309 84.9989 71.0817 84.9596 71.0839 84.8094C71.0907 84.3241 71.0839 83.8377 71.0839 83.3524C71.0839 74.7371 71.0862 66.1217 71.0851 57.5063C71.0851 56.9683 71.0303 57.0378 71.5682 57.0378C72.7671 57.0378 73.966 57.0389 75.1649 57.0401C75.2443 57.0401 75.3237 57.0401 75.4333 57.0401V58.9319C75.6112 58.8232 75.7487 58.7436 75.8818 58.6573C77.8681 57.364 80.0556 56.6198 82.3852 56.2589C84.0337 56.0033 85.6867 55.9417 87.3486 56.1087C88.8651 56.2611 90.3671 56.4909 91.811 56.9963C93.2067 57.485 94.5286 58.1261 95.7354 58.9902C97.5024 60.2555 98.8333 61.8795 99.5054 63.9507C100.766 67.8387 99.8342 71.2313 96.9544 74.0803C95.2041 75.8119 93.0401 76.8419 90.6713 77.4381C89.3058 77.7822 87.9179 77.9963 86.5009 78.0489C84.0583 78.1408 81.6683 77.8965 79.3477 77.1097C78.0716 76.6771 76.857 76.11 75.742 75.3423C75.6581 75.284 75.5642 75.2403 75.4345 75.1674L75.4367 75.1652ZM85.5827 74.532C86.3488 74.4647 87.1182 74.4311 87.8787 74.3246C89.2946 74.1251 90.6657 73.7698 91.9351 73.0738C94.1651 71.8499 95.5475 70.0646 95.6817 67.4565C95.7812 65.5389 95.2175 63.8431 93.8565 62.4579C92.4976 61.0748 90.7887 60.3441 88.9278 59.9597C87.3363 59.6313 85.7236 59.5326 84.0963 59.6952C82.6626 59.8386 81.2635 60.1042 79.936 60.6803C78.7069 61.2138 77.6231 61.9535 76.7955 63.0216C75.676 64.4663 75.307 66.1194 75.5127 67.9127C75.6257 68.8989 75.9277 69.8281 76.4924 70.6496C77.4878 72.0999 78.8567 73.0783 80.5019 73.66C82.1414 74.2394 83.8414 74.4961 85.5838 74.532H85.5827Z" fill="black"/>
<path d="M44.3822 58.9208C44.5276 58.8378 44.6339 58.7863 44.7311 58.7213C46.5608 57.4963 48.5795 56.7521 50.7358 56.3542C52.5945 56.0112 54.4656 55.9305 56.3478 56.102C59.0521 56.3486 61.6098 57.0592 63.9338 58.4982C66.005 59.7815 67.5529 61.5064 68.4118 63.8185C68.848 64.9931 69.0012 66.1979 68.9565 67.4386C68.8357 70.8447 67.1469 73.363 64.4427 75.2661C62.4083 76.6973 60.1112 77.4841 57.6541 77.8372C55.7428 78.1118 53.8292 78.1566 51.9156 77.9268C49.4015 77.6242 47.0384 76.8688 44.8978 75.4824C44.7625 75.395 44.6294 75.302 44.4941 75.2146C44.4773 75.2033 44.4482 75.2112 44.3766 75.2067C44.3766 75.3434 44.3766 75.4757 44.3766 75.6079C44.3822 78.5881 44.3923 81.5682 44.39 84.5472C44.39 85.0863 44.4583 84.9911 43.9371 84.9944C42.6498 85.0023 41.3626 84.9967 40.0395 84.9967C40.0395 84.8756 40.0395 84.7759 40.0395 84.675C40.0395 75.785 40.0395 66.8951 40.0395 58.004C40.0395 57.7372 40.0362 57.4694 40.0295 57.2026C40.0261 57.0793 40.072 57.0311 40.1995 57.0311C41.5359 57.0356 42.8724 57.0379 44.21 57.0345C44.3811 57.0345 44.3833 57.1331 44.3833 57.2564C44.3811 57.7899 44.3833 58.3234 44.3833 58.9196L44.3822 58.9208ZM54.8044 74.5286C55.4799 74.4636 56.1599 74.4244 56.8309 74.3269C58.2054 74.1263 59.5453 73.7901 60.7822 73.1333C63.4484 71.7166 64.8084 69.5334 64.6004 66.477C64.4594 64.4092 63.4764 62.793 61.7932 61.6039C60.2711 60.5279 58.5454 59.9911 56.7135 59.7647C55.074 59.5618 53.4378 59.582 51.8027 59.851C50.3678 60.0875 49.0023 60.519 47.7519 61.2654C44.7435 63.0587 43.5815 66.505 44.9202 69.7172C45.712 71.618 47.2498 72.787 49.1186 73.5323C50.9393 74.2585 52.8484 74.5174 54.8056 74.5298L54.8044 74.5286Z" fill="black"/>
<path d="M37.9213 67.0925C37.8732 70.02 36.6956 72.4274 34.527 74.3607C32.8774 75.8312 30.9381 76.767 28.8166 77.3476C27.3034 77.7612 25.7667 77.9864 24.1954 78.0369C21.036 78.1389 18.0018 77.6334 15.1566 76.2212C12.5631 74.9335 10.5914 73.0304 9.54681 70.2766C9.06926 69.0191 8.94736 67.7067 9.01894 66.3629C9.13525 64.1763 10.0199 62.3147 11.3989 60.6716C12.2813 59.6192 13.403 58.8436 14.5863 58.1555C16.398 57.1008 18.372 56.536 20.4253 56.2289C22.0973 55.9789 23.7782 55.9307 25.4637 56.1078C27.2329 56.2939 28.9675 56.6323 30.616 57.3239C32.7152 58.2048 34.5807 59.4163 35.9653 61.2656C37.2559 62.9894 37.9459 64.9205 37.9224 67.0925H37.9213ZM23.4315 74.484C24.7602 74.4795 26.544 74.2722 27.7709 73.8923C29.0268 73.5033 30.1877 72.9609 31.2211 72.1226C33.8705 69.9707 34.1356 66.3663 32.8002 63.8972C31.976 62.3729 30.6943 61.3811 29.1487 60.6907C27.8279 60.1011 26.4344 59.8086 24.9939 59.6887C22.4865 59.4802 20.0406 59.6999 17.7222 60.7355C15.047 61.9302 13.4388 63.9084 13.3482 66.9356C13.3001 68.5417 13.7732 69.9796 14.7954 71.2304C15.67 72.2996 16.804 73.008 18.0644 73.5134C19.7834 74.2016 21.5873 74.465 23.4315 74.484Z" fill="black"/>
<path d="M116.162 56C118.974 56.0224 121.347 56.4013 123.616 57.2934C125.42 58.0028 127.053 59.0093 128.374 60.4472C130.163 62.3963 131.078 64.6916 130.995 67.3624C130.903 70.3594 129.566 72.7253 127.313 74.6138C125.687 75.9756 123.802 76.8486 121.761 77.3956C120.3 77.7867 118.813 77.9728 117.302 78.0344C115.462 78.1095 113.642 77.9672 111.857 77.5312C109.47 76.9495 107.254 75.9845 105.408 74.3135C103.607 72.6827 102.425 70.6911 102.142 68.2534C101.787 65.1825 102.717 62.5207 104.863 60.2915C106.416 58.6787 108.329 57.6554 110.425 56.9471C111.647 56.5346 112.902 56.26 114.191 56.1558C114.974 56.093 115.755 56.0314 116.162 55.9989V56ZM116.766 74.4928C117.168 74.4648 117.774 74.4311 118.379 74.3796C119.787 74.2597 121.143 73.9133 122.415 73.3104C124.988 72.091 126.559 70.1431 126.644 67.2033C126.696 65.3876 126.139 63.7849 124.842 62.4646C123.926 61.5322 122.837 60.8787 121.62 60.4439C119.093 59.5394 116.495 59.4318 113.86 59.8308C112.412 60.0505 111.037 60.4809 109.785 61.2475C107.041 62.9309 105.917 65.5826 106.608 68.7085C107.035 70.6418 108.3 71.9722 109.97 72.9315C112.006 74.1016 114.25 74.4435 116.765 74.4917L116.766 74.4928Z" fill="black"/>
</g>
<defs>
<clipPath id="clip0_839_1308">
<rect width="122" height="29" fill="white" transform="translate(9 56)"/>
</clipPath>
</defs>
</svg>
