<svg width="140" height="140" viewBox="0 0 140 140" fill="none" xmlns="http://www.w3.org/2000/svg">
<rect width="140" height="140" rx="30" fill="white"/>
<g clip-path="url(#clip0_698_1502)">
<path d="M88.1938 69.5049C88.1811 59.6816 95.7792 52.0294 105.576 52C115.355 51.9705 123.005 59.6704 123 69.5399C122.996 79.2861 115.326 86.9775 105.61 86.9803C95.8411 86.9831 88.205 79.3211 88.1924 69.5035L88.1938 69.5049ZM116.462 69.4698C116.394 68.7756 116.377 68.0014 116.238 67.2482C115.521 63.3674 113.585 60.3632 109.895 58.6577C105.451 56.6045 99.8448 58.0883 97.0593 62.1023C94.5693 65.69 94.1712 69.5946 95.4345 73.7223C97.4603 80.3338 105.278 83.3141 111.147 79.6423C114.848 77.3268 116.268 73.7433 116.46 69.4712L116.462 69.4698Z" fill="#0DAAAC"/>
<path d="M33.4198 86.982C23.7566 87.0044 16.0741 79.5332 15.9995 69.5907C15.9264 59.6931 23.5343 52.0213 33.3466 52.0016C43.1603 51.982 50.7626 59.6271 50.7682 69.522C50.7738 79.2962 43.1491 86.968 33.4198 86.982ZM22.5523 69.1587C22.5749 72.2148 23.2923 74.7674 24.965 77.0381C28.6156 81.9932 36.1461 82.6524 40.5887 78.3859C44.743 74.3971 45.4492 67.3158 42.1742 62.4855C38.8218 57.543 32.4055 56.2218 27.4775 59.5668C24.0238 61.9105 22.655 65.3817 22.5523 69.1587Z" fill="#0DAAAC"/>
<path d="M62.735 58.6172C65.3981 64.9047 67.9908 71.0239 70.6651 77.3352C73.2381 71.0491 75.7478 64.9173 78.3264 58.6158C77.4514 58.6158 76.6692 58.5695 75.8955 58.6298C75.1893 58.6845 74.9572 58.4671 74.9881 57.742C75.0486 56.3437 75.0247 54.9411 74.9994 53.54C74.9895 53.0421 75.1696 52.9005 75.6507 52.9019C78.9074 52.9187 82.1641 52.9229 85.4208 52.9047C85.9723 52.9019 86.0243 53.1431 86.0891 53.6143C86.3873 55.777 85.4701 57.6186 84.6584 59.5064C82.1472 65.3381 79.6558 71.1782 77.1588 77.0155C75.8547 80.0632 74.5436 83.1094 73.2662 86.1683C73.0186 86.7616 72.7091 87.0071 72.0311 86.9986C69.2695 86.9692 67.3535 85.7167 66.259 83.2062C62.7801 75.223 59.3011 67.2399 55.8404 59.2483C55.6308 58.7644 55.3733 58.5737 54.8472 58.6059C54.1241 58.6494 53.3954 58.6059 52.6695 58.6214C52.2854 58.6298 52.1223 58.4895 52.1251 58.0912C52.1391 56.5498 52.142 55.0085 52.1251 53.4685C52.1208 53.0323 52.3065 52.9089 52.7145 52.9089C56.9785 52.9159 61.2424 52.9173 65.5078 52.9061C65.9749 52.9061 66.1141 53.0968 66.1085 53.5358C66.0916 55.0295 66.0888 56.5246 66.1085 58.0183C66.1141 58.4839 65.9214 58.6312 65.4811 58.6214C64.6215 58.6031 63.7606 58.6158 62.7336 58.6158L62.735 58.6172Z" fill="#0DAAAC"/>
</g>
<defs>
<clipPath id="clip0_698_1502">
<rect width="107" height="35" fill="white" transform="translate(16 52)"/>
</clipPath>
</defs>
</svg>
