<svg width="140" height="140" viewBox="0 0 140 140" fill="none" xmlns="http://www.w3.org/2000/svg">
<rect width="140" height="140" rx="30" fill="#0E4C3F"/>
<g clip-path="url(#clip0_2545_490)">
<path d="M10.2943 10.0141C52.3129 10.0141 94.3343 10.0141 136.353 10C136.881 10 137 10.1188 137 10.6477C136.986 52.7133 136.986 94.7789 136.986 136.847C95.038 136.847 53.09 136.847 11.1421 136.864C10.4356 136.864 10.2745 136.703 10.2745 135.996C10.2943 94.001 10.2943 52.0062 10.2943 10.0141ZM87.3769 32.9986C81.3972 33.1966 75.4572 33.816 69.5566 34.8088C68.6411 34.9616 68.6439 34.9588 68.7287 35.9063C69.3447 42.6608 69.9608 49.4124 70.5768 56.1669C71.2833 63.9 71.9898 71.636 72.6934 79.3692C73.3914 87.0118 74.0922 94.6516 74.7676 102.294C74.8185 102.88 75.0361 102.97 75.5504 102.919C77.3703 102.738 79.193 102.597 81.0157 102.438C83.9349 102.181 86.8513 101.912 89.7733 101.675C90.2932 101.632 90.4458 101.46 90.3808 100.942C90.2169 99.6382 90.0926 98.3315 89.9767 97.0219C89.5189 91.9277 89.0753 86.8308 88.6175 81.7338C88.5157 80.6024 88.5016 80.6222 89.6405 80.4836C94.5095 79.8896 99.209 78.7186 103.584 76.4134C108.06 74.0544 111.369 70.5725 113.432 65.9677C115.616 61.0942 115.95 55.9774 114.836 50.8069C113.093 42.6976 108.051 37.4733 100.331 34.7551C96.1429 33.2814 91.791 32.8883 87.3769 32.9986ZM38.0109 37.6006C34.1818 37.7137 31.2768 37.9032 28.3915 38.2596C25.673 38.5962 22.9488 38.9017 20.25 39.4052C19.7724 39.4957 19.5916 39.6315 19.6594 40.166C19.8233 41.4445 19.9053 42.7343 20.0211 44.0213C20.4507 48.7647 20.8746 53.5081 21.3126 58.2515C21.7562 63.0628 22.2197 67.8741 22.6549 72.6882C23.1579 78.2491 23.6327 83.8127 24.1385 89.3764C24.6698 95.2173 25.2293 101.055 25.7493 106.899C25.7973 107.434 25.9527 107.558 26.4699 107.507C29.1291 107.247 31.7911 107.026 34.4531 106.786C36.5782 106.594 38.7004 106.39 40.8227 106.2C41.1844 106.166 41.419 106.124 41.3681 105.629C41.0799 102.806 40.8255 99.9777 40.5656 97.1492C40.2208 93.4099 39.8986 89.6706 39.5313 85.9341C39.4691 85.3062 39.6697 85.1619 40.2632 85.0884C44.909 84.517 49.4389 83.4931 53.6863 81.4425C58.5384 79.0976 62.1273 75.4969 64.3654 70.598C66.4934 65.9394 66.8268 61.0404 65.9593 56.0623C65.0663 50.937 62.6671 46.6263 58.609 43.3029C55.2829 40.579 51.4284 39.0346 47.2488 38.2285C43.8888 37.5836 40.4977 37.4846 38.0138 37.6062L38.0109 37.6006ZM109.526 92.5415C109.518 97.6526 113.649 101.734 118.827 101.74C123.859 101.745 128.093 97.5876 128.107 92.6235C128.121 87.5916 123.939 83.445 118.838 83.4394C113.672 83.4337 109.532 87.4785 109.526 92.5415Z" fill="#0E4C3F"/>
<path d="M10.2943 10.0139C10.2943 52.0088 10.2943 94.0036 10.2773 135.996C10.2773 136.703 10.4384 136.864 11.1449 136.864C53.0928 136.844 95.0408 136.847 136.989 136.847C136.958 136.889 137.059 136.994 136.918 136.988C136.732 136.983 136.542 136.988 136.356 136.988C94.501 136.988 52.6435 136.988 10.7888 137.003C10.2604 137.003 10.1417 136.884 10.1417 136.355C10.153 94.4505 10.153 52.549 10.1615 10.6475C10.1615 10.441 10.0004 10.1695 10.2943 10.0139Z" fill="#FDFDFD"/>
<path d="M87.3769 32.9986C91.791 32.8854 96.1429 33.2786 100.331 34.7551C108.051 37.4733 113.096 42.6975 114.836 50.8069C115.947 55.9774 115.613 61.0941 113.432 65.9677C111.369 70.5725 108.06 74.0544 103.584 76.4133C99.209 78.7186 94.5095 79.8896 89.6404 80.4836C88.5016 80.6222 88.5157 80.6024 88.6175 81.7338C89.0753 86.8279 89.5189 91.9249 89.9767 97.0218C90.0954 98.3314 90.2197 99.6382 90.3808 100.942C90.4458 101.463 90.2904 101.635 89.7733 101.675C86.8541 101.912 83.9349 102.181 81.0157 102.438C79.193 102.6 77.3703 102.741 75.5504 102.919C75.0361 102.97 74.8213 102.88 74.7676 102.294C74.0922 94.6516 73.3914 87.0089 72.6934 79.3691C71.9869 71.636 71.2804 63.9 70.5768 56.1669C69.9607 49.4124 69.3447 42.6608 68.7286 35.9063C68.641 34.9587 68.641 34.9644 69.5566 34.8088C75.4572 33.816 81.3972 33.1966 87.3769 32.9986ZM89.68 46.6405C88.1851 46.6631 87.0915 46.796 85.9978 46.912C85.5061 46.9657 85.4552 47.1581 85.4948 47.5908C85.8933 51.8195 86.2691 56.0481 86.6534 60.2795C86.8399 62.3359 87.0236 64.3922 87.2243 66.4485C87.2441 66.6635 87.1593 66.9831 87.6171 66.9294C89.6178 66.6946 91.6101 66.4513 93.4978 65.6537C97.033 64.1602 99.0875 61.5665 99.4294 57.7141C99.7035 54.6112 99.0197 51.7827 96.7646 49.4944C94.713 47.4126 92.1357 46.6659 89.6828 46.6376L89.68 46.6405Z" fill="#FDFDFD"/>
<path d="M38.0109 37.6006C40.4949 37.479 43.8888 37.578 47.246 38.2229C51.4284 39.0262 55.2829 40.5734 58.6062 43.2973C62.6642 46.6207 65.0634 50.9342 65.9564 56.0566C66.824 61.0348 66.4905 65.9366 64.3626 70.5924C62.1245 75.4942 58.5356 79.0948 53.6835 81.4368C49.4333 83.4903 44.9062 84.5114 40.2603 85.0828C39.6669 85.1563 39.4691 85.3006 39.5284 85.9285C39.8958 89.665 40.2208 93.4043 40.5627 97.1436C40.8227 99.9692 41.077 102.798 41.3653 105.623C41.4161 106.118 41.1788 106.161 40.8199 106.195C38.6948 106.387 36.5725 106.591 34.4503 106.78C31.7882 107.021 29.1262 107.241 26.467 107.502C25.9499 107.552 25.7916 107.428 25.7464 106.893C25.2265 101.053 24.6669 95.2117 24.1357 89.3708C23.6298 83.81 23.1579 78.2463 22.652 72.6826C22.2169 67.8685 21.7506 63.06 21.3097 58.2459C20.8745 53.5025 20.4478 48.7591 20.0183 44.0157C19.9024 42.7316 19.8205 41.4389 19.6566 40.1604C19.5888 39.6258 19.7696 39.4873 20.2472 39.3996C22.9431 38.8961 25.6673 38.5906 28.3887 38.254C31.2739 37.8976 34.1761 37.7081 38.0081 37.595L38.0109 37.6006ZM50.4478 61.0744C50.4478 60.9811 50.4478 60.8877 50.4478 60.7916C50.298 55.9831 47.5512 52.5719 42.9817 51.4886C41.0233 51.0247 39.0706 51.234 37.1123 51.4575C36.5584 51.5197 36.4086 51.7149 36.4623 52.2947C37.0501 58.5061 37.6068 64.7204 38.1522 70.9374C38.1946 71.4041 38.3472 71.5144 38.8022 71.4777C40.5373 71.3334 42.2385 71.0138 43.8832 70.4424C48.1362 68.9631 50.5071 65.5633 50.4478 61.0744Z" fill="#FDFDFD"/>
<path d="M109.526 92.5415C109.535 87.4784 113.675 83.4337 118.838 83.4393C123.936 83.445 128.118 87.5916 128.107 92.6235C128.093 97.5847 123.859 101.743 118.827 101.74C113.647 101.734 109.518 97.6498 109.526 92.5415Z" fill="#429F3E"/>
<path d="M89.68 46.6405C92.1329 46.6688 94.7073 47.4155 96.7617 49.4973C99.0168 51.7856 99.7007 54.6141 99.4266 57.7169C99.0846 61.5665 97.0302 64.1631 93.495 65.6566C91.6101 66.4542 89.6178 66.6946 87.6142 66.9322C87.1564 66.986 87.244 66.6663 87.2214 66.4514C87.0236 64.3951 86.8371 62.3387 86.6506 60.2824C86.2663 56.0538 85.8904 51.8223 85.492 47.5937C85.4524 47.161 85.5033 46.9686 85.995 46.9149C87.0914 46.7961 88.1823 46.6631 89.6772 46.6433L89.68 46.6405Z" fill="#0E4C3F"/>
<path d="M50.4478 61.0745C50.5043 65.5633 48.1362 68.9632 43.8832 70.4425C42.2413 71.0138 40.5401 71.3335 38.8022 71.4777C38.3472 71.5145 38.1946 71.4042 38.1522 70.9375C37.604 64.7232 37.0473 58.509 36.4623 52.2948C36.4086 51.7149 36.5584 51.5226 37.1123 51.4575C39.0706 51.2341 41.0234 51.0248 42.9817 51.4887C47.5512 52.572 50.2952 55.9832 50.4478 60.7916C50.4506 60.885 50.4478 60.9783 50.4478 61.0745Z" fill="#0E4C3F"/>
</g>
<defs>
<clipPath id="clip0_2545_490">
<rect width="124" height="122" fill="white" transform="translate(13 10)"/>
</clipPath>
</defs>
</svg>
