<svg width="140" height="140" viewBox="0 0 140 140" fill="none" xmlns="http://www.w3.org/2000/svg">
<g clip-path="url(#clip0_667_18780)">
<rect width="140" height="140" rx="30" fill="url(#paint0_linear_667_18780)"/>
<path d="M145 104L84.5 34.5L68.5 32L52 47L41 114L93 165L137 154L145 104Z" fill="#82116D"/>
<path d="M56.3733 82.1393C56.3733 82.5359 56.3733 82.9324 56.3733 83.3289C56.3733 91.0939 56.3823 98.861 56.3711 106.626C56.3711 107.444 56.3037 108.266 56.187 109.077C55.7358 112.211 53.9535 114.364 50.8355 114.713C47.5066 115.088 44.1215 114.962 40.7588 115C40.5231 115.002 40.1774 114.61 40.0719 114.333C39.9485 114.003 40.0248 113.596 40.0248 113.224C40.0248 93.361 39.9485 73.4985 40.0742 53.6359C40.1123 47.4504 41.4637 41.4822 44.9228 36.1704C47.6951 31.9116 51.5292 28.9208 56.297 27.3167C65.0583 24.3662 73.9542 24.1982 82.7626 27.0367C91.066 29.7116 95.9663 35.7089 98.3031 43.942C100.146 50.4322 100.256 57.0591 99.7307 63.7195C99.3042 69.1186 98.2155 74.3632 95.6183 79.1933C92.0088 85.9008 86.2824 89.5951 78.85 90.8049C75.0789 91.4187 71.3279 91.4008 67.6263 90.3209C63.4914 89.1134 60.1939 86.7208 57.5945 83.3267C57.2802 82.9167 56.9727 82.5 56.6607 82.0878C56.5664 82.1057 56.4721 82.1259 56.3801 82.1438L56.3733 82.1393ZM56.3688 58.0201C56.4407 61.2865 56.8559 65.2451 58.4048 68.9999C60.5418 74.1795 64.4836 76.7021 70.2728 76.6349C75.6647 76.5722 79.5908 73.904 81.4809 68.7468C83.9613 61.9721 84.0062 55.0517 82.0106 48.174C80.4326 42.7323 76.8163 39.5488 70.9754 39.0559C64.3938 38.5003 59.7203 41.5023 57.6865 47.7752C56.6876 50.8601 56.398 54.0503 56.3688 58.0201Z" fill="white"/>
</g>
<defs>
<linearGradient id="paint0_linear_667_18780" x1="0" y1="70" x2="140" y2="70" gradientUnits="userSpaceOnUse">
<stop stop-color="#CD3E5A"/>
<stop offset="0.495" stop-color="#AC217A"/>
<stop offset="1" stop-color="#8C039B"/>
</linearGradient>
<clipPath id="clip0_667_18780">
<rect width="140" height="140" rx="30" fill="white"/>
</clipPath>
</defs>
</svg>
