<svg width="140" height="140" viewBox="0 0 140 140" fill="none" xmlns="http://www.w3.org/2000/svg">
<rect width="140" height="140" rx="30" fill="white"/>
<g clip-path="url(#clip0_1557_22007)">
<path d="M20.957 58.1287C18.1383 58.038 15.3129 58.0401 12.4919 58.0042C12.0078 57.9979 11.5237 58 11.0088 58C11.0088 58.7007 10.9912 59.3127 11.0088 59.9142C11.0088 59.9965 11.011 60.0767 11.0154 60.1569C11.0198 60.2603 11.0176 60.3574 11.0088 60.4439V62.8013C11.0088 62.8013 11.033 62.7908 11.0462 62.7844V77.2834H14.8332V71.6273C16.9016 71.6273 18.8754 71.659 20.8492 71.621C24.8738 71.545 27.7366 68.7655 27.7806 64.9308C27.8246 61.1383 24.9728 58.2596 20.957 58.1287ZM21.1705 68.2506C19.0976 68.3751 17.0072 68.2801 14.875 68.2801V61.6427C17.0358 61.6427 19.1769 61.5224 21.2981 61.6806C22.966 61.8052 24.0949 63.3479 24.0575 65.011C24.0222 66.6867 22.8406 68.1493 21.1705 68.2506Z" fill="#373C4E"/>
<path d="M49.51 77.3341C48.2051 77.3341 46.9772 77.3552 45.7516 77.3109C45.569 77.3046 45.3291 77.0239 45.2323 76.8213C44.6558 75.6267 44.1387 74.4048 43.5379 73.2208C43.4191 72.9865 43.0384 72.7333 42.7744 72.7312C39.971 72.6953 37.1655 72.7206 34.3621 72.6953C33.8868 72.6911 33.6865 72.8768 33.5149 73.2567C32.9824 74.4428 32.4059 75.6077 31.8822 76.7959C31.7105 77.1864 31.5081 77.3637 31.0372 77.3489C29.9194 77.313 28.8016 77.3362 27.5913 77.3362C27.7167 77.0175 27.7871 76.7959 27.8862 76.587C30.6565 70.6502 33.4379 64.7177 36.1885 58.7725C36.4195 58.2744 36.6924 58.1161 37.2337 58.1414C38.1381 58.1836 39.049 58.1731 39.9556 58.1435C40.4243 58.1288 40.6906 58.2533 40.8952 58.6944C43.692 64.7367 46.513 70.7684 49.3229 76.8023C49.3867 76.9395 49.4263 77.0893 49.5122 77.332L49.51 77.3341ZM38.5539 62.1935C37.4229 64.7008 36.3821 67.0075 35.3193 69.365H41.7974C40.717 66.9759 39.6762 64.6755 38.5539 62.1935Z" fill="#373C4E"/>
<path d="M106.02 58.1878H109.631C109.677 58.2659 109.723 58.3102 109.723 58.3546C109.723 62.2843 109.826 66.2182 109.69 70.1437C109.527 74.8247 105.998 77.7815 100.943 77.695C95.6709 77.6042 92.2932 74.3879 92.2382 69.3312C92.1964 65.6421 92.2294 61.9508 92.2294 58.2068H95.9878C95.9878 58.5002 95.9878 58.8062 95.9878 59.1101C95.99 62.565 95.9878 66.0219 96.001 69.4768C96.0054 70.6924 96.3002 71.849 97.1474 72.7839C98.6569 74.4512 100.613 74.7023 102.717 74.1853C104.53 73.74 105.8 72.2732 105.899 70.2809C106.037 67.5436 105.991 64.7979 106.015 62.0542C106.026 60.7901 106.015 59.5259 106.015 58.1857L106.02 58.1878Z" fill="#373C4E"/>
<path d="M77.5724 61.6111V66.8408H87.4722V70.1712H77.5636V77.2413H73.7898V58.1921H88.0399V61.6111H77.5724Z" fill="#373C4E"/>
<path d="M117.768 74.0017H127.998V77.2961H114.047V58.1963H117.766V74.0017H117.768Z" fill="#373C4E"/>
<path d="M71.3032 58.2026C64.0373 65.9291 56.9519 73.4635 49.8642 81L49.7168 80.8882C50.7444 79.4763 51.7742 78.0643 52.8018 76.6524C57.1081 70.7347 61.4188 64.8232 65.7053 58.8906C66.0793 58.3736 66.4688 58.1668 67.1179 58.1879C68.4272 58.2322 69.7387 58.2005 71.3032 58.2005V58.2026Z" fill="#01AEE3"/>
<path d="M70.7377 77.218C69.281 77.218 68.0465 77.237 66.8143 77.2011C66.5898 77.1948 66.2994 77.0133 66.1652 76.8297C64.7371 74.8606 63.3354 72.8725 61.8655 70.8042C62.6202 69.998 63.3794 69.1834 64.2222 68.2822C66.383 71.2474 68.4954 74.1451 70.7377 77.2201V77.218Z" fill="#373C4E"/>
<path d="M51.9304 58.1435C53.3607 58.1435 54.5952 58.1266 55.8296 58.1604C56.0519 58.1667 56.3445 58.3377 56.4743 58.5171C57.5328 59.9944 58.5692 61.4865 59.5814 62.9934C59.6936 63.1601 59.698 63.5105 59.5858 63.6751C59.0357 64.4918 58.4305 65.2769 57.7748 66.1654C55.8362 63.5062 53.9416 60.904 51.9282 58.1435H51.9304Z" fill="#373C4E"/>
<path d="M11.0086 58V59.9121C10.9914 59.3127 11.0086 58.7007 11.0086 58Z" fill="#373C4E"/>
</g>
<defs>
<clipPath id="clip0_1557_22007">
<rect width="117" height="23" fill="white" transform="translate(11 58)"/>
</clipPath>
</defs>
</svg>
