<svg width="140" height="140" viewBox="0 0 140 140" fill="none" xmlns="http://www.w3.org/2000/svg">
<rect width="140" height="140" rx="30" fill="white"/>
<g clip-path="url(#clip0_799_9695)">
<path d="M78.442 50.0012C80.4798 49.9816 82.234 50.524 83.7919 51.6701C84.2656 52.0186 84.6505 52.4518 84.9218 52.9733C85.2968 53.6924 85.0834 54.2114 84.294 54.3906C83.7401 54.517 83.1665 54.571 82.5991 54.6287C79.6188 54.9256 76.7558 55.6692 74.0037 56.8424C70.1711 58.4756 66.7196 60.7274 63.4371 63.2552C58.5967 66.9831 54.4433 71.3848 50.6699 76.1533C47.9771 79.556 45.5778 83.1539 43.5758 87.0046C42.9528 88.2035 42.399 89.4379 41.8192 90.6589C41.6465 91.0221 41.4874 91.0859 41.1235 90.8969C40.6165 90.6319 40.4241 90.1754 40.3797 89.6416C40.3143 88.8526 40.5264 88.109 40.7732 87.3727C41.681 84.6608 42.9195 82.0949 44.2999 79.5953C47.3344 74.1016 51.0449 69.0974 55.3932 64.5645C59.1259 60.6734 63.1744 57.1418 67.6534 54.117C69.8689 52.6199 72.2101 51.3547 74.7932 50.5829C76.0156 50.2172 77.2591 49.9816 78.4408 50.0037L78.442 50.0012Z" fill="#F74600"/>
<path d="M17.8775 74.2918C17.7171 75.1299 17.5604 75.9447 17.405 76.7607C17.0917 78.3952 16.7808 80.0309 16.4601 81.663C16.4428 81.7476 16.338 81.8802 16.2714 81.8814C15.1982 81.8949 14.1238 81.8912 13 81.8912C13.0752 81.4752 13.1406 81.0862 13.2159 80.6985C14.3791 74.6218 15.5436 68.5452 16.7019 62.4674C16.7488 62.2207 16.8536 62.1115 17.104 62.0686C19.1233 61.7164 21.1525 61.5544 23.1953 61.7777C24.5546 61.9262 25.8388 62.3128 26.9255 63.1926C28.1381 64.1731 28.6402 65.4762 28.6562 66.9917C28.6895 70.2583 26.7368 72.8818 23.5308 73.8844C21.773 74.4341 19.9806 74.5752 18.1562 74.3163C18.0785 74.3052 18.0008 74.3028 17.8787 74.293L17.8775 74.2918ZM18.4449 71.4277C19.4983 71.6977 20.9255 71.6829 21.9112 71.4056C23.8639 70.8559 25.1147 69.333 25.164 67.447C25.2035 65.972 24.4831 65.005 23.0448 64.6369C22.074 64.389 21.0921 64.4565 20.1077 64.5706C19.8141 64.605 19.7006 64.7265 19.6488 65.0124C19.3713 66.5438 19.0728 68.0703 18.7829 69.5993C18.6682 70.2043 18.5584 70.8092 18.4436 71.4289L18.4449 71.4277Z" fill="black"/>
<path d="M41.8503 67.7452C41.5617 69.1649 41.2718 70.5736 40.9906 71.9836C40.5588 74.1531 40.0358 76.3079 39.8668 78.5204C39.7928 79.4959 39.7632 80.4751 39.7151 81.4531C39.7089 81.5881 39.7151 81.7231 39.7151 81.8753H36.4807C36.5621 80.8052 36.6423 79.7548 36.7274 78.6455C36.6485 78.7682 36.5917 78.8505 36.5411 78.9351C35.8417 80.1254 34.9721 81.1611 33.6805 81.7341C32.0165 82.4716 30.366 82.5072 28.8487 81.3587C27.8829 80.6261 27.3981 79.5855 27.2328 78.4148C26.6098 73.9838 29.2768 68.2115 35.4791 67.2286C37.5712 66.8972 39.6213 67.1279 41.6505 67.6654C41.7146 67.6826 41.7751 67.7157 41.8479 67.7464L41.8503 67.7452ZM37.8968 69.9122C36.4659 69.5883 35.1423 69.7355 33.9433 70.5552C32.2435 71.7161 31.3072 73.3727 30.9026 75.3458C30.7139 76.2662 30.6781 77.1951 31.0025 78.1007C31.2529 78.7989 31.7229 79.2603 32.4803 79.383C33.292 79.5143 33.9741 79.2125 34.581 78.7204C35.6986 77.8148 36.3684 76.6024 36.7496 75.2575C37.0987 74.0267 37.3183 72.7603 37.5872 71.5087C37.6994 70.9859 37.792 70.4583 37.898 69.9122H37.8968Z" fill="black"/>
<path d="M64.1122 82.2127C62.4395 82.2054 60.995 81.7906 59.8133 80.6752C58.8449 79.761 58.2837 78.621 58.1418 77.3203C57.7964 74.1408 58.6624 71.3259 61.0628 69.1453C63.3091 67.1046 65.9822 66.4923 68.8872 67.4997C70.8609 68.1845 72.013 69.7257 72.2894 71.7418C72.7927 75.4158 71.6504 78.5142 68.6109 80.7905C67.3219 81.7562 65.7553 82.1955 64.1122 82.2127ZM61.629 76.3668C61.687 76.6478 61.7388 77.2123 61.9214 77.7313C62.4407 79.2063 63.8926 79.8923 65.3753 79.4051C66.0908 79.1695 66.6483 78.7057 67.1097 78.1289C68.1076 76.8797 68.5961 75.4305 68.7762 73.8635C68.8675 73.0647 68.8268 72.2793 68.5381 71.5197C68.0299 70.1834 66.8618 69.538 65.4567 69.819C64.4711 70.0153 63.7544 70.6092 63.1833 71.3909C62.1595 72.7898 61.7117 74.3813 61.6303 76.368L61.629 76.3668Z" fill="black"/>
<path d="M73.0811 81.8593C73.2315 81.0544 73.3808 80.2567 73.5301 79.4591C74.1666 76.0625 74.8068 72.6671 75.4384 69.2692C75.542 68.7109 75.6037 68.1452 75.7011 67.5857C75.7134 67.512 75.8208 67.3979 75.8861 67.3967C76.8421 67.3869 77.7994 67.393 78.7554 67.3967C78.7726 67.3967 78.7887 67.4126 78.8282 67.4335C78.7233 68.2532 78.6172 69.0815 78.505 69.9626C78.8701 69.5539 79.1711 69.1711 79.5202 68.8361C80.861 67.5488 82.456 66.9242 84.3298 67.1108C86.0012 67.2777 87.1324 68.3477 87.4149 69.9945C87.6209 71.1946 87.4507 72.3775 87.2323 73.5543C86.729 76.2588 86.2109 78.9597 85.704 81.6642C85.6768 81.8066 85.6509 81.8949 85.4745 81.8937C84.4001 81.8863 83.3244 81.8888 82.25 81.8863C82.2216 81.8863 82.1945 81.8716 82.1513 81.8581C82.3598 80.7611 82.5683 79.6653 82.7743 78.5695C83.111 76.7803 83.4601 74.9925 83.7722 73.1984C83.8598 72.6916 83.8845 72.1628 83.8561 71.6474C83.7734 70.1258 82.7101 69.749 81.5876 69.9711C80.7599 70.1344 80.1345 70.651 79.5942 71.267C78.5716 72.4315 78.0584 73.8267 77.7784 75.3213C77.3812 77.4381 76.9852 79.5548 76.593 81.6728C76.5671 81.8127 76.5436 81.9121 76.3672 81.9109C75.3027 81.9035 74.2369 81.9035 73.1723 81.8998C73.1551 81.8998 73.1378 81.8851 73.0811 81.8581V81.8593Z" fill="black"/>
<path d="M92.4058 75.9508C92.2405 77.8 93.2249 79.1719 95.0172 79.4112C96.5419 79.6149 97.9962 79.3118 99.3951 78.7044C99.511 78.6541 99.6258 78.5989 99.78 78.5277C99.8626 79.1265 99.9416 79.7021 100.019 80.2788C100.024 80.3181 100.025 80.3573 100.03 80.3954C100.12 81.1022 100.124 81.112 99.4617 81.3709C97.488 82.1403 95.449 82.4814 93.3507 82.0728C90.9465 81.6041 89.433 80.08 89.1024 77.6687C88.5941 73.9604 89.7944 70.8436 92.7894 68.5415C94.6731 67.0936 96.8651 66.6653 99.1681 67.3783C102.52 68.4139 102.504 72.3137 100.909 73.893C100.212 74.5826 99.3729 75.0121 98.4502 75.3004C96.796 75.8183 95.0888 75.9349 93.3692 75.952C93.0547 75.9557 92.7401 75.952 92.407 75.952L92.4058 75.9508ZM92.7993 73.3543C94.2179 73.3628 95.6192 73.3543 96.9712 72.937C97.3758 72.8119 97.7816 72.6106 98.1122 72.3505C99.0004 71.6523 98.7943 70.2718 97.7434 69.8595C97.4066 69.7269 97.0119 69.6705 96.648 69.6877C94.8322 69.7748 93.025 71.4964 92.7993 73.3543Z" fill="black"/>
<path d="M105.96 75.9496C105.833 78.0393 106.989 79.3511 109.013 79.4615C110.456 79.5401 111.833 79.2407 113.139 78.6234C113.192 78.5989 113.245 78.5731 113.329 78.5338C113.351 78.6271 113.379 78.7044 113.39 78.7854C113.482 79.475 113.565 80.1647 113.67 80.8518C113.696 81.0249 113.643 81.096 113.498 81.166C112.487 81.6519 111.416 81.9452 110.309 82.1023C109.013 82.2876 107.715 82.3268 106.437 81.9685C104.364 81.3869 103.164 79.9941 102.71 77.9362C101.93 74.3997 103.675 70.1859 106.756 68.2495C108.603 67.0874 110.617 66.7131 112.728 67.3709C116.08 68.4127 116.07 72.2952 114.484 73.8831C113.687 74.682 112.7 75.1225 111.632 75.4121C109.854 75.8931 108.035 75.9655 106.207 75.9496C106.13 75.9496 106.054 75.9496 105.96 75.9496ZM106.346 73.3518C107.644 73.3739 108.913 73.3321 110.16 73.0487C110.729 72.9198 111.279 72.7272 111.716 72.3137C112.58 71.4964 112.287 70.1527 111.15 69.8018C110.846 69.7085 110.507 69.668 110.189 69.6864C108.364 69.7895 106.567 71.5038 106.345 73.3518H106.346Z" fill="black"/>
<path d="M120.875 70.4743C122.092 68.3501 123.585 66.8163 126.265 67.1194C126.031 68.2667 125.803 69.3834 125.588 70.4338C125.013 70.5 124.466 70.5 123.953 70.635C122.75 70.9528 121.987 71.8179 121.392 72.8475C120.744 73.9666 120.434 75.1974 120.203 76.4552C119.881 78.1964 119.538 79.9352 119.211 81.6765C119.181 81.836 119.137 81.9158 118.954 81.9145C117.929 81.9072 116.904 81.9109 115.878 81.9096C115.831 81.9096 115.784 81.8961 115.712 81.8851C115.876 81.0188 116.039 80.1659 116.198 79.3131C116.698 76.6478 117.221 73.9875 117.684 71.3173C117.895 70.1037 117.988 68.8692 118.125 67.6433C118.145 67.4666 118.183 67.382 118.383 67.3844C119.26 67.393 120.138 67.3881 121.015 67.3893C121.064 67.3893 121.11 67.4016 121.204 67.4139C121.097 68.4115 120.991 69.3981 120.875 70.4743Z" fill="black"/>
<path d="M48.9333 63.6528C48.8963 65.5351 48.5546 67.3562 47.9563 69.1293C47.8515 69.4385 47.6813 69.7392 47.4851 70.003C47.1792 70.4141 46.7894 70.419 46.4847 70.0128C46.3009 69.7674 46.1381 69.4778 46.0653 69.1833C45.7298 67.8261 45.4066 66.4653 45.1216 65.0983C44.6356 62.7631 44.157 60.4255 43.724 58.0792C43.4354 56.5122 43.2207 54.9317 42.9938 53.3537C42.8988 52.6959 43.201 52.464 43.7993 52.761C44.2039 52.9622 44.5986 53.2408 44.9058 53.5696C46.9633 55.7747 48.2401 58.3701 48.6989 61.347C48.8161 62.1091 48.8568 62.8834 48.9321 63.6515L48.9333 63.6528Z" fill="#F74600"/>
</g>
<defs>
<clipPath id="clip0_799_9695">
<rect width="113" height="41" fill="white" transform="translate(13 50)"/>
</clipPath>
</defs>
</svg>
