<svg width="140" height="140" viewBox="0 0 140 140" fill="none" xmlns="http://www.w3.org/2000/svg">
<rect width="140" height="140" rx="30" fill="url(#paint0_linear_569_374)"/>
<path d="M106.672 68.7382C105.54 75.4663 102.306 80.9962 97.1631 85.4033C95.4312 86.8863 93.5355 88.1543 91.4344 89.0843C90.5407 89.4809 89.6775 89.9613 88.7671 90.3076C87.9067 90.6344 87.0102 90.8606 86.1192 91.0868C85.4059 91.2628 84.6648 91.341 83.946 91.5114C81.7311 92.0308 79.4801 91.8437 77.243 91.8772C76.3826 91.8912 75.5222 91.88 74.659 91.88H68.2919C66.5239 91.88 65.9715 92.4386 65.7301 94.1814C65.3998 96.5302 64.964 98.8678 64.5893 101.214C64.2812 103.16 64.012 105.118 63.6984 107.068C63.3542 109.232 63.01 111.394 62.6076 113.544C62.3772 114.79 61.922 115.164 60.6453 115.175C56.5236 115.209 52.4019 115.209 48.2802 115.201C47.8916 115.198 47.467 115.125 47.12 114.955C46.5316 114.667 46.1597 114.156 46.2457 113.458C46.3623 112.48 46.5288 111.506 46.6787 110.534C47.2061 107.09 47.7279 103.644 48.2663 100.2C48.6549 97.7004 49.0685 95.2035 49.4709 92.7067C49.9095 89.9976 50.3646 87.2913 50.7865 84.5822C51.3194 81.1386 51.8163 77.6866 52.3492 74.243C52.7266 71.8048 53.143 69.3722 53.5315 66.934C54.206 62.7307 54.8832 58.5274 55.5466 54.3213C56.0351 51.2129 56.5125 48.1016 56.9843 44.9931C57.1786 43.7112 57.8975 43.0577 59.2519 43.0465C61.4058 43.0241 63.5568 43.0353 65.7079 43.0353C71.431 43.0353 77.1514 43.0102 82.8691 43.0521C86.2414 43.0744 89.5443 43.5883 92.7084 44.8255C97.6294 46.7526 101.551 49.9254 104.199 54.5252C106.733 58.9296 107.519 63.7026 106.672 68.7382Z" fill="#399AC3"/>
<path d="M93.4408 49.7106C92.3084 56.4443 89.0749 61.9742 83.9318 66.3786C82.1998 67.8588 80.3041 69.1296 78.203 70.0596C77.3065 70.4562 76.4461 70.931 75.533 71.2829C74.6753 71.6068 73.7788 71.8359 72.8851 72.0565C72.1718 72.2352 71.4335 72.3134 70.7146 72.4838C68.4997 73.0033 66.2488 72.8134 64.0089 72.8497C63.1485 72.8636 62.2881 72.8525 61.4277 72.8525H55.0606C53.2898 72.8525 52.7374 73.4082 52.4959 75.151C52.1684 77.5054 51.7327 79.8403 51.358 82.1863C51.0499 84.1329 50.7807 86.0907 50.467 88.0402C50.1228 90.2046 49.7787 92.3663 49.3762 94.5168C49.1431 95.7625 48.6879 96.1339 47.4111 96.1479C43.2895 96.1814 39.1678 96.1814 35.0489 96.1702C34.6603 96.1702 34.2329 96.0948 33.8887 95.9273C33.3003 95.6368 32.9283 95.1285 33.0116 94.4303C33.131 93.4528 33.2947 92.478 33.4446 91.5061C33.9747 88.0625 34.4965 84.6133 35.035 81.1697C35.4236 78.6728 35.8343 76.176 36.2396 73.6792C36.6781 70.9701 37.1333 68.2638 37.5524 65.5519C38.0881 62.1082 38.5821 58.659 39.115 55.2154C39.4925 52.7772 39.9116 50.3418 40.3002 47.9064C40.9747 43.7032 41.6491 39.4971 42.3097 35.2938C42.801 32.1853 43.2784 29.074 43.7474 25.9628C43.9445 24.6836 44.6606 24.0301 46.015 24.0161C48.1689 23.9966 50.3227 24.005 52.4765 24.005C58.1969 24.0078 63.9201 23.9826 69.6377 24.0245C73.01 24.0469 76.3101 24.5579 79.4715 25.798C84.3953 27.7251 88.3199 30.895 90.9622 35.4977C93.4963 39.902 94.2846 44.6751 93.438 49.7079L93.4408 49.7106Z" fill="#FAFBFB"/>
<path d="M83.3403 43.0496C77.6199 43.0077 71.9023 43.0329 66.1791 43.0329C64.0253 43.0329 61.8742 43.0189 59.7232 43.044C58.3687 43.058 57.6498 43.7115 57.4556 44.9907C56.9809 48.0992 56.5035 51.2104 56.0178 54.3189C55.3545 58.525 54.68 62.7283 54.0028 66.9316C53.6392 69.205 53.2561 71.4728 52.9009 73.7434C53.27 73.0927 53.9056 72.8525 55.063 72.8525H61.4301C62.2905 72.8525 63.151 72.8636 64.0114 72.8497C66.2513 72.8134 68.5022 73.0033 70.7171 72.4838C71.436 72.3134 72.1715 72.2352 72.8876 72.0565C73.7813 71.8331 74.6778 71.6068 75.5355 71.2829C76.4486 70.9338 77.309 70.4562 78.2055 70.0596C80.3066 69.1324 82.2051 67.8588 83.9343 66.3786C89.0801 61.9742 92.3109 56.4443 93.4433 49.7107C93.7097 48.1355 93.8124 46.5826 93.7541 45.0605C93.5626 44.9795 93.3739 44.8985 93.1796 44.8231C90.0155 43.5859 86.7126 43.072 83.3403 43.0496Z" fill="#7AB4D5"/>
<defs>
<linearGradient id="paint0_linear_569_374" x1="140" y1="140" x2="9.5" y2="-5.28353e-06" gradientUnits="userSpaceOnUse">
<stop stop-color="#008AC9"/>
<stop offset="1" stop-color="#004463"/>
</linearGradient>
</defs>
</svg>
