<svg width="140" height="140" viewBox="0 0 140 140" fill="none" xmlns="http://www.w3.org/2000/svg">
<rect width="140" height="140" rx="30" fill="url(#paint0_linear_798_9655)"/>
<g clip-path="url(#clip0_798_9655)">
<path d="M69.7299 116.59C63.7199 116.59 57.7199 116.62 51.7099 116.59C44.1299 116.54 38.6199 112.03 38.3299 104.44C37.8799 92.56 37.8899 80.63 38.3299 68.75C38.6199 61.07 44.2099 56.51 51.9799 56.48C63.2799 56.44 74.5799 56.47 85.8799 56.47C96.5799 56.47 101.3 60.35 101.69 70.98C102.1 82.35 101.8 93.77 101.31 105.14C101.01 112.07 95.9199 116.41 88.9699 116.53C82.5599 116.64 76.1399 116.55 69.7299 116.55V116.58V116.59Z" fill="white"/>
<path d="M99.9499 56.89C97.3199 55.77 94.8299 54.9 92.5499 53.63C91.6799 53.15 91.1099 51.83 90.7399 50.77C87.5199 41.64 79.1099 35.67 69.4999 35.81C60.6299 35.93 52.2499 41.71 49.3899 50.12C48.5399 52.63 47.3099 54 44.8399 54.75C43.1599 55.26 41.6599 56.36 39.6699 57.42C39.0499 45.82 43.0399 36.74 51.9399 30.01C61.7099 22.62 74.7999 22.06 85.2699 28.28C95.2899 34.23 101.4 46.1 99.9499 56.9V56.89Z" fill="white"/>
</g>
<defs>
<linearGradient id="paint0_linear_798_9655" x1="70" y1="0" x2="70" y2="140" gradientUnits="userSpaceOnUse">
<stop stop-color="#0FB1F2"/>
<stop offset="1" stop-color="#0980B5"/>
</linearGradient>
<clipPath id="clip0_798_9655">
<rect width="63.88" height="92.6" fill="white" transform="translate(38 24)"/>
</clipPath>
</defs>
</svg>
