<svg width="140" height="140" viewBox="0 0 140 140" fill="none" xmlns="http://www.w3.org/2000/svg">
<g clip-path="url(#clip0_835_1016)">
<rect width="140" height="140" rx="30" fill="url(#paint0_linear_835_1016)"/>
<g filter="url(#filter0_f_835_1016)">
<circle cx="29.5" cy="15.5" r="54.5" fill="#00A891"/>
</g>
<g clip-path="url(#clip1_835_1016)">
<path d="M97.3899 67.2031C97.3616 67.4142 97.3324 67.5319 97.3324 67.6496C97.3277 71.0662 97.3259 74.4819 97.324 77.8985C97.324 78.7933 96.9315 79.3948 96.1871 79.632C95.1509 79.9617 94.0941 79.2042 94.0922 78.118C94.0875 75.3197 94.0903 72.5214 94.0903 69.7231C94.0903 67.3796 94.0865 65.0362 94.0884 62.6918C94.0884 61.5719 95.1368 60.7715 96.2012 61.1208C96.5005 61.2189 96.797 61.4636 96.9908 61.7186C98.4533 63.6436 99.8951 65.5845 101.335 67.5272C102.747 69.4307 104.148 71.3426 105.556 73.249C105.621 73.3377 105.703 73.4143 105.865 73.4685C105.87 73.3377 105.882 73.2069 105.882 73.0762C105.882 69.6483 105.882 66.2196 105.882 62.7918C105.882 61.9512 106.33 61.3412 107.127 61.0919C108.024 60.8107 109.104 61.5607 109.139 62.5004C109.157 62.9898 109.143 63.4792 109.143 63.9696C109.143 68.634 109.146 73.2975 109.144 77.962C109.144 78.8727 108.68 79.462 107.807 79.6806C107.245 79.8216 106.507 79.4994 106.102 78.9455C105.193 77.7014 104.283 76.4582 103.369 75.2169C101.499 72.6764 99.6269 70.1368 97.7541 67.5991C97.6675 67.4824 97.5574 67.3834 97.3917 67.204L97.3899 67.2031Z" fill="white"/>
<path d="M14.294 76.6217C14.294 77.2045 14.3109 77.7883 14.2902 78.3702C14.2535 79.3957 13.5928 79.8599 12.7138 79.9916C12.0645 80.0888 11.2146 79.3687 11.0706 78.6588C11.0321 78.4664 11.0095 78.2674 11.0085 78.0713C11.0048 74.7481 10.9878 71.4258 11.0132 68.1026C11.0264 66.469 11.4471 64.9382 12.3967 63.5698C13.7274 61.6523 15.5306 60.482 17.8533 60.1103C20.1289 59.7469 22.1683 60.2887 24.0091 61.6523C25.7417 62.9347 26.7647 64.643 27.0903 66.7427C27.4611 69.1356 26.8052 71.2502 25.2053 73.0865C23.8341 74.6603 22.0911 75.5551 20.0385 75.7848C18.1516 75.9959 16.3475 75.6391 14.709 74.6257C14.6092 74.5641 14.4822 74.5473 14.3683 74.509C14.3429 74.6183 14.2968 74.7285 14.2949 74.8378C14.2874 75.4327 14.2911 76.0268 14.2911 76.6217H14.294ZM18.9581 72.7502C21.5114 72.8586 23.9197 70.546 23.9225 67.9597C23.9254 65.3547 21.6441 63.072 18.9892 63.0767C16.4077 63.0804 14.0907 65.1875 14.0493 67.8738C14.0079 70.5142 16.2788 72.7437 18.9581 72.7502Z" fill="white"/>
<path d="M114.049 70.3423C114.049 67.7654 114.049 65.1885 114.049 62.6125C114.049 61.7905 114.646 61.1675 115.48 61.1591C117.008 61.1451 118.538 61.0947 120.063 61.1657C123.823 61.3394 127.436 63.8743 128.56 67.6673C129.148 69.6474 129.189 71.6061 128.42 73.5413C127.895 74.8639 127.116 76.0146 126.075 77.0149C124.647 78.387 122.943 79.1435 121.018 79.4751C120.639 79.5405 120.25 79.576 119.865 79.5788C118.502 79.5909 117.138 79.5816 115.775 79.5825C114.571 79.5825 114.048 79.0651 114.048 77.8611C114.048 75.3543 114.048 72.8474 114.048 70.3405H114.05L114.049 70.3423ZM117.274 70.3694H117.276C117.276 70.5329 117.276 70.6954 117.276 70.8589C117.277 72.6428 117.285 74.4258 117.275 76.2098C117.274 76.5442 117.397 76.6768 117.73 76.66C118.057 76.6441 118.387 76.6507 118.715 76.6563C119.754 76.674 120.805 76.6516 121.759 76.2173C124.017 75.1908 125.317 73.4227 125.566 70.9681C125.753 69.1253 125.222 67.4628 123.984 66.0571C123.09 65.0418 121.979 64.3525 120.614 64.1984C119.696 64.0947 118.764 64.1078 117.838 64.0845C117.304 64.0714 117.273 64.1125 117.273 64.6337C117.272 66.5456 117.273 68.4575 117.273 70.3694H117.274Z" fill="white"/>
<path d="M78.8402 70.3685C78.8402 67.9204 78.8684 65.4714 78.828 63.0234C78.8082 61.8334 79.6853 61.1264 80.7328 61.1413C83.2597 61.1768 85.7866 61.1479 88.3135 61.1554C88.8537 61.1572 89.3496 61.316 89.6235 61.8222C89.9134 62.3565 89.9313 62.9244 89.6198 63.4558C89.3562 63.9051 88.9214 64.0844 88.4019 64.0835C86.5094 64.0788 84.6177 64.0788 82.7251 64.0779C82.6197 64.0779 82.5143 64.0844 82.4089 64.0891C82.1802 64.0984 82.0701 64.2142 82.0701 64.4431C82.072 65.6087 82.072 66.7744 82.0701 67.941C82.0701 68.2632 82.2837 68.2772 82.5256 68.2763C84.2883 68.2744 86.052 68.2996 87.8147 68.2697C88.9704 68.2501 89.5473 69.2738 89.2537 70.2218C89.0748 70.8 88.5017 71.1951 87.8166 71.1969C86.0887 71.2007 84.3608 71.1969 82.6329 71.1969C82.0871 71.1969 82.0701 71.2119 82.0701 71.7368C82.0682 73.206 82.0673 74.6752 82.0701 76.1434C82.0701 76.575 82.1153 76.6273 82.5529 76.6282C84.4681 76.6329 86.3833 76.6282 88.2975 76.631C89.0777 76.6319 89.6367 77.0308 89.8108 77.6958C90.0724 78.698 89.3845 79.5825 88.3351 79.5834C85.8318 79.5853 83.3284 79.5834 80.8241 79.5778C80.569 79.5778 80.3046 79.5703 80.0599 79.5068C79.2759 79.3023 78.8421 78.7288 78.8411 77.9227C78.8383 75.4046 78.8402 72.8865 78.8411 70.3675L78.8402 70.3685Z" fill="white"/>
<path d="M71.7311 74.5734C71.7368 73.2854 71.1505 72.5728 70.2084 72.1926C69.2343 71.7994 68.2048 71.5425 67.2109 71.1923C66.539 70.956 65.8576 70.7169 65.2318 70.3844C63.7401 69.5923 63.0691 68.2679 62.9646 66.639C62.83 64.5421 63.6723 62.9197 65.4671 61.8139C66.3649 61.2609 67.3531 60.9602 68.4278 60.9275C69.7341 60.8883 71.0074 61.0256 72.1923 61.586C72.6139 61.7849 73.0082 62.0978 73.3282 62.4387C73.7959 62.9375 73.8006 63.7015 73.4327 64.219C73.0176 64.8027 72.3551 65.0334 71.669 64.7626C70.8164 64.4263 69.975 64.0751 69.0471 63.9948C68.4786 63.9453 67.9196 63.9612 67.3888 64.1956C65.9903 64.813 65.7663 66.6932 66.9841 67.6188C67.7474 68.1988 68.6631 68.436 69.5619 68.7022C70.743 69.0515 71.9335 69.371 73.0176 69.9771C74.8773 71.0167 75.5492 72.9716 75.1417 74.8807C74.5827 77.4997 72.2412 79.5405 69.3746 79.7889C67.1498 79.9813 65.1235 79.4555 63.3778 78.0078C62.8385 77.5604 62.7049 76.9934 62.8677 76.3742C63.0465 75.6942 63.5895 75.3524 64.2615 75.2534C64.828 75.1702 65.3381 75.2842 65.7635 75.74C66.2331 76.2434 66.8891 76.4396 67.5413 76.6058C68.4127 76.8281 69.2842 76.8421 70.1453 76.5545C71.1476 76.2191 71.7321 75.4066 71.7302 74.5743L71.7311 74.5734Z" fill="white"/>
<path d="M36.5842 66.6838C36.4901 66.8529 36.4186 66.9631 36.3649 67.0826C34.6323 70.9438 32.9016 74.806 31.1709 78.6672C30.8556 79.3705 30.226 79.7693 29.5051 79.7245C28.8247 79.6825 28.2148 79.2351 28.0596 78.5411C27.9833 78.2021 28.0116 77.7808 28.149 77.4633C29.0647 75.3458 30.0199 73.2462 30.9667 71.1428C32.1327 68.5509 33.3035 65.9609 34.4714 63.3699C34.6606 62.9515 34.845 62.5303 35.037 62.1128C35.4182 61.2834 35.9132 61.062 36.8345 61.0293C37.3314 61.0116 37.6891 61.3768 37.9112 61.7793C38.2876 62.4621 38.6161 63.1729 38.937 63.8836C40.967 68.3781 42.9876 72.8754 45.0138 77.3708C45.5069 78.4645 44.9215 79.5424 43.7348 79.717C43.0741 79.8142 42.3579 79.4023 42.0427 78.7064C41.1618 76.7627 40.2941 74.8135 39.4198 72.867C38.522 70.8682 37.6232 68.8694 36.7244 66.8716C36.7065 66.8314 36.6717 66.7987 36.588 66.6848L36.5842 66.6838Z" fill="white"/>
<path d="M52.4834 69.3289C52.8664 68.7311 53.2015 68.2156 53.529 67.6963C54.6941 65.8516 55.8582 64.0069 57.0215 62.1613C57.3499 61.6401 57.6906 61.1516 58.3861 61.0638C59.0872 60.976 59.634 61.2254 60.0349 61.7709C60.4161 62.2893 60.4434 62.8534 60.0942 63.4063C59.3338 64.6103 58.5668 65.8095 57.8016 67.0107C56.6422 68.832 55.4761 70.6487 54.3299 72.4784C54.2019 72.6829 54.1285 72.9547 54.1256 73.1966C54.1068 74.7817 54.1181 76.3667 54.1125 77.9517C54.1087 78.9334 53.72 79.4471 52.8438 79.6591C51.85 79.8991 50.8534 79.1258 50.8506 78.1049C50.8459 76.4732 50.859 74.8414 50.8393 73.2097C50.8364 72.9585 50.7536 72.6773 50.62 72.4644C48.7556 69.5026 46.8866 66.5437 44.9921 63.6015C44.4086 62.6956 44.7117 61.8876 45.234 61.4281C45.8899 60.8518 47.1106 60.8714 47.6498 61.7092C48.4291 62.9178 49.1801 64.1442 49.9499 65.3584C50.7715 66.6548 51.6006 67.9466 52.4834 69.3289Z" fill="white"/>
</g>
</g>
<defs>
<filter id="filter0_f_835_1016" x="-91.1" y="-105.1" width="241.2" height="241.2" filterUnits="userSpaceOnUse" color-interpolation-filters="sRGB">
<feFlood flood-opacity="0" result="BackgroundImageFix"/>
<feBlend mode="normal" in="SourceGraphic" in2="BackgroundImageFix" result="shape"/>
<feGaussianBlur stdDeviation="33.05" result="effect1_foregroundBlur_835_1016"/>
</filter>
<linearGradient id="paint0_linear_835_1016" x1="140" y1="0" x2="20" y2="140" gradientUnits="userSpaceOnUse">
<stop stop-color="#245EC1"/>
<stop offset="1" stop-color="#0087A7"/>
</linearGradient>
<clipPath id="clip0_835_1016">
<rect width="140" height="140" rx="30" fill="white"/>
</clipPath>
<clipPath id="clip1_835_1016">
<rect width="118" height="20" fill="white" transform="translate(11 60)"/>
</clipPath>
</defs>
</svg>
