<svg width="140" height="140" viewBox="0 0 140 140" fill="none" xmlns="http://www.w3.org/2000/svg">
<g clip-path="url(#clip0_2778_506)">
<rect width="140" height="140" rx="30" fill="white"/>
<rect x="-3" y="73" width="146" height="77" fill="#1F336B"/>
<rect x="-3" y="-4" width="146" height="77" fill="#00BAF2"/>
<circle cx="69.5" cy="70.5" r="55.5" fill="white"/>
<path d="M110.612 64.8093C109.879 62.7131 107.881 61.2078 105.534 61.2078H105.485C103.959 61.2078 102.585 61.8428 101.606 62.8621C100.625 61.8428 99.2505 61.2078 97.7267 61.2078H97.6776C96.3365 61.2078 95.1107 61.6989 94.1693 62.5116V62.0985C94.1371 61.687 93.7984 61.3636 93.3802 61.3636H89.7805C89.3402 61.3636 88.9847 61.7192 88.9847 62.1611V81.7092C88.9847 82.1511 89.3402 82.5067 89.7805 82.5067H93.3802C93.7815 82.5067 94.1117 82.207 94.1642 81.8192L94.1625 67.786C94.1621 67.739 94.1644 67.6921 94.1692 67.6454C94.2268 67.0189 94.6857 66.5042 95.4104 66.4398H96.074C96.3771 66.4669 96.6328 66.5736 96.8343 66.7344C97.1475 66.9834 97.322 67.366 97.322 67.786L97.3355 81.7498C97.3355 82.1917 97.6927 82.549 98.1313 82.549H101.731C102.156 82.549 102.501 82.2104 102.522 81.7888L102.52 67.7673C102.518 67.3068 102.732 66.8902 103.106 66.643C103.291 66.5245 103.512 66.4449 103.768 66.4212H104.432C105.211 66.4889 105.681 67.0799 105.68 67.7673L105.693 81.7126C105.693 82.1545 106.05 82.5101 106.489 82.5101H110.089C110.527 82.5101 110.885 82.1545 110.885 81.7126V66.7141C110.885 65.6914 110.769 65.2563 110.612 64.8093ZM86.2423 61.4146H84.1834V58.0688C84.1834 57.6675 83.8583 57.3424 83.457 57.3424C83.4096 57.3424 83.3639 57.3491 83.3199 57.3576C81.0374 57.9841 81.4946 61.1454 77.3276 61.4146H76.9229C76.8619 61.4146 76.8044 61.423 76.7485 61.4349C76.3929 61.5145 76.1254 61.8311 76.1254 62.2104V65.8101C76.1254 66.2487 76.4827 66.6059 76.9229 66.6059H79.0953L79.0919 81.8702C79.0919 82.3054 79.4441 82.6576 79.8792 82.6576H83.4384C83.8718 82.6576 84.2241 82.3054 84.2241 81.8702L84.2257 66.6059H86.2423C86.6809 66.6059 87.0381 66.2487 87.0381 65.8101V62.2104C87.0381 61.7719 86.6809 61.4146 86.2423 61.4146Z" fill="#00BAF2"/>
<path d="M73.2908 61.4146H69.6911C69.2525 61.4146 68.8969 61.7718 68.8969 62.2103V69.6537C68.8885 70.1143 68.516 70.4834 68.0537 70.4834H66.5468C66.0794 70.4834 65.7018 70.1075 65.7018 69.6401L65.6883 62.2104C65.6883 61.7718 65.331 61.4146 64.8925 61.4146H61.2927C60.8525 61.4146 60.497 61.7718 60.497 62.2104V70.3682C60.497 73.4668 62.7066 75.6765 65.8068 75.6765C65.8068 75.6765 68.1333 75.6765 68.2044 75.69C68.6243 75.7374 68.9511 76.0896 68.9511 76.523C68.9511 76.9514 68.6311 77.3019 68.2163 77.3544C68.196 77.3578 68.1774 77.3629 68.1553 77.3663L62.8911 77.3849C62.4509 77.3849 62.0953 77.7421 62.0953 78.1807V81.7788C62.0953 82.219 62.4509 82.5746 62.8911 82.5746H68.7767C71.8786 82.5746 74.0866 80.3666 74.0866 77.2664V62.2104C74.0866 61.7718 73.731 61.4146 73.2908 61.4146ZM38.4476 68.0105V70.232C38.4476 70.6976 38.07 71.0769 37.6044 71.0769L35.3203 71.0785V66.6271H37.6044C38.07 66.6271 38.4476 67.003 38.4476 67.4703V68.0105ZM38.7643 61.4137H30.8959C30.4641 61.4137 30.1154 61.7642 30.1154 62.1943V65.7212C30.1154 65.728 30.117 65.7348 30.117 65.7415C30.117 65.7585 30.1154 65.7754 30.1154 65.7906V81.7542C30.1154 82.1877 30.4404 82.5416 30.8435 82.5517H34.5109C34.9494 82.5517 35.3067 82.1962 35.3067 81.7559L35.3202 76.2852H38.7642C41.646 76.2852 43.6542 74.2855 43.6542 71.3918V66.3139C43.6542 63.4202 41.6461 61.4137 38.7643 61.4137ZM53.3836 76.4616V77.0237C53.3836 77.0695 53.3768 77.1135 53.3701 77.1558C53.3616 77.1955 53.3503 77.2346 53.3362 77.2726C53.2244 77.5876 52.9095 77.8161 52.5353 77.8161H51.0368C50.5695 77.8161 50.1885 77.4606 50.1885 77.0237V76.3448C50.1885 76.3363 50.1868 76.3278 50.1868 76.3194L50.1885 74.5127V73.9472L50.1902 73.9421C50.1919 73.5069 50.5695 73.1548 51.0368 73.1548H52.5353C53.0043 73.1548 53.3836 73.5087 53.3836 73.9472L53.3836 76.4616ZM52.8113 61.4344H47.8163C47.3744 61.4344 47.0172 61.7696 47.0172 62.1811V63.5814C47.0172 63.5898 47.0189 63.6 47.0189 63.6084C47.0189 63.6186 47.0172 63.6287 47.0172 63.6389V65.5573C47.0172 65.9925 47.3965 66.3481 47.8638 66.3481H52.62C52.9959 66.4073 53.2939 66.6816 53.3362 67.11V67.5739C53.2939 67.982 52.9993 68.28 52.6403 68.3139H50.2851C47.1527 68.3139 44.921 70.3948 44.921 73.3173V77.5029C44.921 80.4085 46.8394 82.4758 49.9498 82.4758H56.4771C57.6488 82.4758 58.5987 81.5886 58.5987 80.4965V66.8374C58.5987 63.5255 56.892 61.4344 52.8113 61.4344Z" fill="#1F336B"/>
</g>
<defs>
<clipPath id="clip0_2778_506">
<rect width="140" height="140" rx="30" fill="white"/>
</clipPath>
</defs>
</svg>
