<svg width="140" height="140" viewBox="0 0 140 140" fill="none" xmlns="http://www.w3.org/2000/svg">
<rect width="140" height="140" rx="30" fill="#175CA7"/>
<g clip-path="url(#clip0_798_9633)">
<path d="M33.5585 91.343H18C18.1458 91.2584 18.2652 91.1979 18.3766 91.1233C19.6257 90.293 20.555 89.235 21.0145 87.7678C24.2659 77.3849 27.5376 67.008 30.8031 56.6272C31.4044 54.7126 32.0037 52.7981 32.609 50.8855C33.02 49.5836 32.7669 48.4772 31.6676 47.6106C31.6413 47.5905 31.6048 47.5804 31.6069 47.5139C31.6473 47.5139 31.6878 47.5078 31.7303 47.5078C38.4174 47.5078 45.1024 47.4857 51.7894 47.524C54.2978 47.5381 56.715 48.0681 58.9198 49.3236C61.0192 50.5187 62.4445 52.2418 62.985 54.628C63.2361 55.7364 63.2705 56.8549 63.1328 57.9774C62.7603 61.0165 61.6974 63.8057 59.9826 66.341C58.1444 69.0556 55.6582 71.0165 52.7065 72.4131C50.4451 73.4833 48.0582 74.1443 45.5923 74.5494C43.177 74.9444 40.7456 75.0351 38.306 74.9605C37.7736 74.9444 37.2411 74.9 36.7107 74.8355C36.4981 74.8093 36.4131 74.8517 36.3503 75.0552C35.9312 76.4155 35.498 77.7698 35.0708 79.1282C34.1395 82.0786 33.2083 85.029 32.2749 87.9774C31.8275 89.3922 32.2527 90.5187 33.5261 91.2846C33.5383 91.2926 33.5443 91.3107 33.5646 91.341L33.5585 91.343ZM37.4901 71.4397C37.5711 71.4659 37.6035 71.48 37.6359 71.4881C39.6827 71.871 41.6546 71.6251 43.5414 70.7646C45.6692 69.7932 47.2261 68.1971 48.4428 66.2463C49.6778 64.2652 50.4512 62.0947 51.018 59.8456C51.4432 58.1648 51.7327 56.4679 51.4432 54.7287C51.1962 53.2475 50.4977 52.0705 49.0846 51.4055C48.376 51.0709 47.6209 50.9117 46.8414 50.8895C45.9871 50.8654 45.1327 50.8875 44.2784 50.8694C44.0375 50.8633 43.9463 50.946 43.8755 51.1697C41.8732 57.5361 39.8629 63.8984 37.8545 70.2628C37.7331 70.6477 37.6157 71.0347 37.4881 71.4458L37.4901 71.4397Z" fill="white"/>
<path d="M103.621 68.7835H120.658C120.356 68.9266 120.091 69.0415 119.834 69.1745C118.392 69.9101 117.433 71.0347 116.947 72.5865C115.309 77.8162 113.649 83.0399 112.001 88.2656C111.942 88.451 111.861 88.5861 111.671 88.6767C108.837 90.031 105.871 90.9883 102.779 91.5465C100.769 91.9093 98.7403 92.0645 96.6975 91.9758C93.6162 91.8408 90.6685 91.1596 87.903 89.7711C85.4999 88.5639 83.8337 86.6594 82.704 84.2612C81.9468 82.655 81.5055 80.9601 81.2504 79.2088C81.0155 77.5985 80.9508 75.9762 81.0581 74.3599C81.467 68.2717 83.2344 62.6288 87.0405 57.784C91.0511 52.6792 96.2683 49.3317 102.631 47.8222C104.338 47.4172 106.065 47.1733 107.816 47.0685C109.624 46.9597 111.428 46.9798 113.23 47.1431C116.131 47.4091 118.969 47.9915 121.749 48.8561C121.808 48.8742 121.866 48.8944 121.923 48.9186C121.945 48.9287 121.962 48.9528 121.996 48.9851C121.395 50.8795 120.793 52.7799 120.18 54.7146C119.816 54.4284 119.486 54.1604 119.145 53.9045C117.319 52.528 115.333 51.468 113.09 50.9339C109.999 50.1983 107.112 50.7303 104.407 52.3426C102.33 53.58 100.643 55.2487 99.1837 57.1491C96.6287 60.4764 94.8208 64.1846 93.5676 68.1709C92.8752 70.3736 92.282 72.6006 91.8711 74.8718C91.5411 76.7037 91.3184 78.5478 91.3811 80.4139C91.4398 82.1794 91.699 83.9045 92.5857 85.4744C93.5676 87.2116 95.082 88.189 97.0437 88.5075C98.137 88.6848 99.2221 88.6264 100.307 88.443C100.532 88.4047 100.647 88.31 100.718 88.0782C101.7 84.9303 102.696 81.7884 103.688 78.6425C104.298 76.7118 104.879 74.7731 105.518 72.8525C106.128 71.0266 105.346 69.626 103.818 68.8883C103.771 68.8662 103.725 68.84 103.615 68.7815L103.621 68.7835Z" fill="white"/>
<path d="M73.0545 82.0605C73.1881 81.8751 73.2975 81.738 73.3926 81.5909C74.0465 80.5732 74.411 79.4547 74.5183 78.2535C74.5952 77.393 74.3178 76.6675 73.6376 76.1112C73.6133 76.0911 73.5931 76.0649 73.5546 76.0246H79.0309C78.9439 77.1028 78.7516 78.1407 78.4337 79.1564C77.8547 81.0105 76.8181 82.5945 75.5224 84.0234C75.4151 84.1423 75.3038 84.2572 75.2005 84.3781C74.9414 84.6844 74.8705 84.5977 75.2188 84.9585C76.4051 86.1858 77.7697 87.1935 79.1909 88.1266C81.1324 89.4023 83.161 90.5167 85.3515 91.3511C85.2786 91.3511 85.2057 91.3511 85.1329 91.3511C81.7843 91.3511 78.4377 91.3571 75.0892 91.347C74.8726 91.347 74.6114 91.2886 74.4454 91.1616C73.508 90.4442 72.5909 89.7005 71.6758 88.9569C71.4066 88.7392 71.1535 88.5014 70.9106 88.2535C70.7567 88.0963 70.6433 88.0923 70.4611 88.2193C68.9751 89.2491 67.3919 90.1096 65.7136 90.7908C64.2094 91.4014 62.6566 91.8589 61.0309 91.9577C58.8383 92.0907 56.6822 91.8871 54.7143 90.815C52.295 89.495 50.8374 87.4696 50.4891 84.7287C50.0417 81.216 51.22 78.3079 53.9086 76.0004C55.7023 74.4627 57.7997 73.4712 59.9963 72.661C60.8284 72.3547 61.6666 72.0605 62.5047 71.7682C62.6728 71.7098 62.7294 71.6272 62.7335 71.4438C62.7558 70.3474 62.7335 69.243 62.8448 68.1548C63.1121 65.5933 63.8247 63.1729 65.4403 61.0992C66.8534 59.2834 68.7625 58.2455 70.9652 57.7154C72.8197 57.268 74.658 57.3446 76.4152 58.1407C78.0247 58.8702 79.1888 60.0169 79.6019 61.7884C79.9318 63.2092 79.6059 64.5252 78.8973 65.7666C78.128 67.1088 77.0246 68.1427 75.7876 69.0476C74.245 70.1782 72.5383 71.0125 70.8134 71.8206C70.2749 72.0726 69.7384 72.3325 69.1978 72.5804C69.0338 72.655 68.9933 72.7477 69.0217 72.9311C69.5197 76.085 70.8883 78.8702 72.6699 81.48C72.7893 81.6554 72.9067 81.8307 73.0586 82.0564L73.0545 82.0605ZM63.3064 75.1157C63.2254 75.1459 63.1829 75.16 63.1445 75.1782C61.5107 75.9299 60.053 76.9315 58.8423 78.2616C57.4859 79.7529 56.7287 81.4599 57.0284 83.5236C57.1944 84.6763 57.6337 85.6921 58.5589 86.4397C59.9174 87.5361 61.5026 87.7961 63.185 87.5723C64.7499 87.3648 66.2116 86.8186 67.6227 86.1274C67.8839 86.0004 68.1349 85.8553 68.4123 85.7062C66.0557 82.4716 64.3612 78.9589 63.3085 75.1137L63.3064 75.1157ZM68.4123 69.7166C68.6269 69.6078 68.7565 69.5554 68.8698 69.4809C70.8903 68.1628 72.597 66.5284 73.8684 64.4728C74.3684 63.6606 74.7491 62.792 74.8199 61.8267C74.9272 60.3898 74.166 59.7126 72.8743 59.8275C72.1799 59.89 71.6029 60.2527 71.0907 60.7142C70.2222 61.4982 69.6472 62.4776 69.21 63.5457C68.7403 64.6945 68.4892 65.8956 68.4204 67.127C68.3718 67.9613 68.4123 68.8017 68.4123 69.7166Z" fill="white"/>
</g>
<defs>
<clipPath id="clip0_798_9633">
<rect width="104" height="45" fill="white" transform="translate(18 47)"/>
</clipPath>
</defs>
</svg>
