<svg width="140" height="140" viewBox="0 0 140 140" fill="none" xmlns="http://www.w3.org/2000/svg">
<rect width="140" height="140" rx="30" fill="#363EEB"/>
<g clip-path="url(#clip0_846_3834)">
<path d="M70.5096 117C44.1594 117.021 22.9683 95.6094 23 69.5191C23.0318 43.2806 44.2547 22.0276 70.3804 22C96.8259 21.9725 118.07 43.4352 118 69.5974C117.93 95.872 96.6077 117.034 70.5096 117ZM32.1745 69.5509C32.1618 74.0577 32.9772 78.4121 34.5232 82.6034C37.1218 89.6517 41.4189 95.4823 47.3912 100.072C48.1536 100.658 48.609 100.737 49.401 100.002C56.8791 93.0912 65.7635 90.5243 75.747 91.992C81.8443 92.8879 87.2426 95.5246 91.7896 99.7371C92.6219 100.508 93.1218 100.451 93.9816 99.771C98.679 96.0541 102.347 91.543 104.963 86.1487C107.193 81.5529 108.455 76.6966 108.745 71.6264C109.128 64.919 107.775 58.5251 104.776 52.4955C101.114 45.1295 95.6653 39.4578 88.3863 35.6625C80.69 31.6491 72.5152 30.2725 63.9019 31.7974C57.3027 32.9665 51.3664 35.6223 46.2328 39.8919C36.982 47.5862 32.5049 57.6017 32.1724 69.5466L32.1745 69.5509Z" fill="white"/>
<path d="M54.9624 69.1167C54.9878 60.2618 62.0911 53.1393 70.8737 53.1605C79.7475 53.1817 86.8952 60.3613 86.838 69.195C86.7808 77.961 79.6331 85.0686 70.9055 85.039C62.0296 85.0093 54.9391 77.9271 54.9645 69.1188L54.9624 69.1167Z" fill="white"/>
</g>
<defs>
<clipPath id="clip0_846_3834">
<rect width="95" height="95" fill="white" transform="translate(23 22)"/>
</clipPath>
</defs>
</svg>
