<svg width="140" height="140" viewBox="0 0 140 140" fill="none" xmlns="http://www.w3.org/2000/svg">
<rect width="140" height="140" rx="30" fill="black"/>
<path d="M83.5424 63.4445C83.3447 63.5587 83.1459 63.6695 82.9477 63.7764C79.3934 60.87 74.8522 59.1269 69.9033 59.1269C64.9543 59.1269 60.6882 60.766 57.1845 63.5155C57.1261 63.4873 57.078 63.4635 57.0406 63.4445C46.3113 55.6013 41.7346 44.4366 44.9808 36.6448C45.1722 36.1851 48.172 29.3016 55.1051 28.1582C60.6357 27.246 66.5759 30.3318 69.9936 36.049C70.2663 35.582 74.5781 28.458 82.3514 28.3069C89.1717 28.1747 94.2577 33.4959 96.0494 38.1338C99.6041 47.3362 92.0106 58.5622 83.5424 63.4445Z" fill="url(#paint0_linear_3160_57)"/>
<path d="M52.5276 69.0368C52.6782 69.2084 52.8255 69.3819 52.9688 69.5558C50.8097 73.6077 49.9836 78.4011 50.9468 83.2558C51.8808 87.9632 54.3479 91.9757 57.7268 94.8773C57.7102 94.94 57.6966 94.992 57.685 95.0323C52.0795 107.083 42.0189 113.745 33.7446 112.077C33.2562 111.979 25.9208 110.376 23.4497 103.798C21.4787 98.5506 23.3496 92.1234 28.2922 87.6585C27.781 87.4821 19.9543 84.6388 18.2933 77.0439C16.8364 70.3795 21.0661 64.3552 25.2667 61.6956C33.6012 56.4181 46.0907 61.6815 52.5276 69.0378V69.0368Z" fill="url(#paint1_linear_3160_57)"/>
<path d="M82.2099 95.1988C82.1311 94.9845 82.0558 94.7697 81.9844 94.5559C85.4546 91.5498 87.9475 87.3726 88.7921 82.4965C89.6114 77.7677 88.7498 73.1371 86.6383 69.2155C86.6762 69.163 86.7078 69.1193 86.7326 69.0857C96.2918 59.8522 108.074 57.2485 115.197 61.7765C115.618 62.0438 121.888 66.1744 121.831 73.2008C121.786 78.8057 117.732 84.1322 111.515 86.5241C111.929 86.8725 118.213 92.3371 117.035 100.022C116.001 106.765 109.89 110.868 105.014 111.842C95.3398 113.774 85.5746 104.376 82.2094 95.1983L82.2099 95.1988Z" fill="url(#paint2_linear_3160_57)" stroke="url(#paint3_linear_3160_57)" stroke-width="1.71339" stroke-miterlimit="10"/>
<path d="M56.6035 82.8823C57.0273 84.3591 57.6833 85.7387 58.5293 86.9774L56.6035 82.8823Z" fill="url(#paint4_linear_3160_57)"/>
<path d="M84.0392 78.929C84.0392 71.0347 77.6402 64.6357 69.7459 64.6357C61.8516 64.6357 55.4531 71.0347 55.4531 78.929C55.4531 80.2994 55.646 81.6251 56.0061 82.8798H56.0066V82.8822L57.9329 86.9778L69.7454 112.097H78.166L69.6409 93.2213C69.6755 93.2218 69.7104 93.2218 69.7454 93.2218C77.6397 93.2218 84.0387 86.8228 84.0387 78.929H84.0392ZM63.9393 78.929C63.9393 75.7217 66.5391 73.1224 69.7459 73.1224C72.9527 73.1224 75.5525 75.7217 75.5525 78.929C75.5525 82.1363 72.9532 84.7357 69.7459 84.7357C66.5386 84.7357 63.9393 82.1358 63.9393 78.929Z" fill="url(#paint5_linear_3160_57)"/>
<path d="M56.6033 82.8799V82.8806L56.6025 82.8799H56.6033Z" fill="url(#paint6_linear_3160_57)"/>
<defs>
<linearGradient id="paint0_linear_3160_57" x1="43.9549" y1="45.8886" x2="96.9464" y2="45.8886" gradientUnits="userSpaceOnUse">
<stop stop-color="#0FF977"/>
<stop offset="1" stop-color="#00EF57"/>
</linearGradient>
<linearGradient id="paint1_linear_3160_57" x1="43.0242" y1="111.284" x2="32.7132" y2="59.3052" gradientUnits="userSpaceOnUse">
<stop stop-color="#0FF977"/>
<stop offset="1" stop-color="#00EF57"/>
</linearGradient>
<linearGradient id="paint2_linear_3160_57" x1="106.242" y1="59.1667" x2="97.1952" y2="111.38" gradientUnits="userSpaceOnUse">
<stop stop-color="#00BB4D"/>
<stop offset="1" stop-color="#027A43"/>
</linearGradient>
<linearGradient id="paint3_linear_3160_57" x1="82.8862" y1="83.5795" x2="120.637" y2="87.4341" gradientUnits="userSpaceOnUse">
<stop stop-color="#06EB5D"/>
<stop offset="1" stop-color="#18704C"/>
</linearGradient>
<linearGradient id="paint4_linear_3160_57" x1="56.6035" y1="84.9301" x2="58.5293" y2="84.9301" gradientUnits="userSpaceOnUse">
<stop stop-color="#0FF977"/>
<stop offset="1" stop-color="#00EF57"/>
</linearGradient>
<linearGradient id="paint5_linear_3160_57" x1="68.4154" y1="81.0993" x2="84.756" y2="104.555" gradientUnits="userSpaceOnUse">
<stop stop-color="#DDFFE6"/>
<stop offset="1" stop-color="#60EE8D"/>
</linearGradient>
<linearGradient id="paint6_linear_3160_57" x1="56.6025" y1="82.8806" x2="56.6033" y2="82.8806" gradientUnits="userSpaceOnUse">
<stop stop-color="#0FF977"/>
<stop offset="1" stop-color="#00EF57"/>
</linearGradient>
</defs>
</svg>
