<svg width="140" height="140" viewBox="0 0 140 140" fill="none" xmlns="http://www.w3.org/2000/svg">
<rect width="140" height="140" rx="30" fill="white"/>
<g clip-path="url(#clip0_798_9665)">
<path d="M113.13 83.58C106.08 90.17 97.4698 94.99 86.9798 97.64C91.1598 88.71 93.1998 77.77 92.9898 64.71C91.4998 37.24 76.9298 30.98 59.0098 30.16C60.4798 30.06 61.7098 30.02 62.0798 30.06C91.8798 33.24 104.63 48.74 113.64 81.78C113.82 82.42 113.62 83.13 113.13 83.58Z" fill="#0AC1B5"/>
<path d="M92.9905 64.71C93.2005 77.77 91.1605 88.71 86.9805 97.64C82.2205 98.85 77.0705 99.61 71.5005 99.89C71.1805 99.91 70.8505 99.93 70.5205 99.94H54.3305C53.3805 99.94 52.6105 99.2 52.5305 98.26C51.8605 89.65 49.5905 81.51 44.7305 74.15V72.62C50.2905 64.56 52.5705 54.73 52.6105 43.72C52.6405 39.85 55.9505 37.65 55.4705 33.52C55.3805 32.74 55.9505 30.39 59.0105 30.16C76.9305 30.98 91.5005 37.24 92.9905 64.71Z" fill="#FF138A"/>
<path d="M55.4704 33.52C55.9504 37.65 52.6405 39.85 52.6105 43.72C48.9905 39.98 44.8004 36.35 40.0304 32.85C39.0604 32.14 39.5104 30.61 40.7104 30.55C46.9404 30.21 53.1604 29.89 59.0104 30.16C55.9504 30.39 55.3804 32.74 55.4704 33.52Z" fill="#8D9BB3"/>
<path d="M86.9803 97.64C83.1403 105.88 77.4803 112.4 70.1003 117.3C69.1203 117.95 67.8503 117 68.1803 115.87C69.7503 110.45 70.8703 105.11 71.5003 99.89C77.0703 99.61 82.2203 98.85 86.9803 97.64Z" fill="#0DC5CC"/>
<path d="M92.9903 64.71C93.2003 77.77 91.1604 88.71 86.9804 97.64C82.2204 98.85 77.0704 99.61 71.5004 99.89C73.9804 79.3 68.7504 60.35 52.6104 43.72C52.6404 39.85 54.1304 30.04 54.1304 30.04C54.1304 30.04 55.9404 29.94 59.7904 30.04C77.7104 30.86 91.5003 37.24 92.9903 64.71Z" fill="#1A2858"/>
<path d="M27.0205 54.16C28.8805 65.21 29.4905 76.96 27.0805 90.38C26.8405 91.74 28.3805 92.7 29.4905 91.87C35.8505 87.13 41.4505 81.35 44.5305 73.68C44.6605 73.35 44.6805 72.97 44.5705 72.63C41.8605 64.13 36.2505 57.95 29.4705 52.72C28.3705 51.87 26.8005 52.79 27.0305 54.17L27.0205 54.16Z" fill="#02C2CA"/>
</g>
<defs>
<clipPath id="clip0_798_9665">
<rect width="86.71" height="87.51" fill="white" transform="translate(27 30)"/>
</clipPath>
</defs>
</svg>
