<svg width="140" height="140" viewBox="0 0 140 140" fill="none" xmlns="http://www.w3.org/2000/svg">
<rect width="140" height="140" rx="30" fill="white"/>
<g clip-path="url(#clip0_3527_4134)">
<path d="M38.2411 108.855C38.2107 108.667 38.2843 107.843 38.2411 107.799C38.165 107.722 36.3934 107.722 36.0811 107.681C33.7048 107.374 31.4197 106.466 30.3941 104.126C28.799 100.487 29.075 93.2543 29.2422 89.2068C29.7989 75.6601 31.746 62.0381 35.5034 49.0514C37.0517 43.7018 39.5356 34.8483 45.4588 33.0106C50.6277 31.4067 59.1143 33.9148 64.171 35.5C74.5252 38.7466 83.6959 43.4493 93.166 48.5841C93.3297 48.6722 93.4478 49.0444 93.8431 48.9258C93.6396 48.4432 91.7592 47.6717 91.6247 47.3418C91.5838 47.1058 91.6902 47.134 91.8668 47.2162C92.3778 47.4522 93.4457 47.2933 94 47.5C94.2152 47.581 94.2614 47.8791 94.5 48C94.8555 48.5378 99.1091 51.6312 100.07 52.3498C103.277 54.7498 107.701 58.4145 110.078 61.5931C111.061 62.9059 112.4 65.5161 112.296 67.1623C111.944 72.7422 104.439 79.677 100.267 82.9378C95.7259 86.485 91.0669 89.0871 86.133 91.9686C85.9155 91.9686 85.719 92.0284 85.5226 92.1165C77.7856 95.5722 70.1749 98.9609 62.2122 101.786C60.32 102.457 58.0431 102.965 56.2469 103.772C55.5721 104.075 55.5686 104.119 55.4131 104.87C54.7079 105.091 53.9992 105.25 53.3104 105.455L56.6468 83.6493C56.9006 83.3957 57.1017 83.3194 57.4502 83.283C61.4684 82.8579 66.1637 83.6857 70.3059 83.4063C75.352 83.0658 80.7185 80.203 83.9123 76.3094C90.6354 68.1134 89.4683 54.9624 79.3596 50.2186C74.6445 48.0052 69.8814 48.368 64.8118 48.1121C62.8799 48.0146 60.9211 47.8303 58.981 47.7504C57.0444 47.6706 54.2612 47.3723 52.431 47.5167C50.7061 47.653 49.9986 48.4667 49.6103 50.08C49.2384 51.6241 49.0443 53.4007 48.7754 54.9882C45.9301 71.7899 43.6649 88.6996 40.7928 105.495C40.6174 106.518 40.3297 107.479 40.2279 108.506C39.8116 108.575 39.4234 108.672 38.9427 108.741C38.7463 108.769 38.5311 108.851 38.475 108.858C38.3989 108.869 38.3171 108.849 38.2411 108.858V108.855ZM94.3097 49.0432C94.1823 48.9152 93.9495 49.1489 94.077 49.2769C94.2045 49.4049 94.4372 49.1712 94.3097 49.0432ZM94.4851 49.2781V49.3955C94.5612 49.3567 94.5612 49.3168 94.4851 49.2781Z" fill="#010101"/>
<path d="M110.079 61.5922C110.771 61.3867 111.457 61.1072 112.152 60.9158C112.846 60.7244 113.315 60.735 114.079 60.6235C114.678 60.5366 115.476 60.1925 116.104 60.0728C116.179 60.56 116.399 59.8767 116.855 60.1855C118.862 63.6435 119.559 66.0671 118.528 70.1216C116.865 76.6572 111.466 82.2593 106.46 86.4559C105.444 86.2246 104.64 85.6046 103.739 85.142C103.373 84.9541 102.435 84.7064 102.164 84.5525C102.103 84.5173 102.052 84.2484 101.835 84.1216C101.36 83.8445 100.261 83.7142 100.269 82.9368C104.443 79.6761 111.947 72.7412 112.298 67.1614C112.402 65.5152 111.063 62.9049 110.081 61.5922H110.079Z" fill="url(#paint0_linear_3527_4134)"/>
<path d="M36.2552 29.1064C36.357 29.2473 36.3897 29.4787 36.4868 29.6043C37.3381 30.7045 38.4023 31.7108 39.2279 32.8662C39.4349 33.3383 39.8466 34.0228 40.3436 34.2671C35.5629 40.6219 32.9364 51.832 31.3494 59.5993C31.2091 59.4526 31.3226 59.2717 31.0641 59.2388C30.6092 59.1813 30.0151 59.2165 29.5637 59.105C29.3287 59.0463 29.193 58.8291 28.9498 58.7833C28.4399 58.687 27.847 58.9148 27.3418 58.66C27.2763 58.6271 27.2763 58.4474 27.1804 58.4275C26.5629 58.2971 25.5771 58.357 24.9246 58.3089C26.7886 48.6464 29.6818 36.5392 36.2552 29.1064Z" fill="url(#paint1_linear_3527_4134)"/>
<path d="M85.3156 92.5536C86.8067 92.2131 86.6324 93.1524 87.4183 94.1364C87.5668 94.3231 87.8849 94.4429 87.9445 94.5462C88.0662 94.7576 87.9375 95.0382 88.0627 95.2496C88.1165 95.34 88.3141 95.3893 88.3995 95.4973C88.8871 96.1067 89.2824 96.7831 89.8694 97.3033C89.5572 97.6003 89.2298 97.5839 88.9374 97.9479C88.6111 98.353 86.5026 99.4004 85.7858 99.7679C79.1071 103.197 71.8566 106.299 64.7581 108.738L64.6412 108.855C64.4084 108.935 64.1734 109.012 63.9407 109.09L63.881 108.974C63.6647 108.933 63.6951 109.008 63.7068 109.207C63.6179 109.237 63.446 109.178 63.356 109.207C63.3209 109.219 63.2741 109.196 63.239 109.207L64.1734 101.937C71.0017 99.4344 77.3915 96.4355 83.9147 93.2581L84.0316 93.1407C84.2351 93.0432 84.4175 92.9881 84.6152 92.9059L84.6853 93.0033C84.9028 92.9751 85.1484 92.9387 85.0818 92.671C85.1344 92.6546 85.194 92.5818 85.3156 92.5536Z" fill="url(#paint2_linear_3527_4134)"/>
<path d="M98.281 43.1794C105.334 47.747 112.559 52.7856 116.854 60.1842C116.398 59.8754 116.179 60.5588 116.103 60.0715C115.475 60.1924 114.676 60.5353 114.078 60.6222C113.314 60.7326 112.871 60.7149 112.151 60.9146C111.43 61.1142 110.769 61.3866 110.078 61.5909C107.701 58.4123 103.277 54.7476 100.07 52.3476C99.109 51.629 94.5481 48.7592 94.1926 48.2214C93.8289 47.6695 94.0757 47.8222 94.2663 47.5932C94.5762 47.2222 94.9153 46.7361 95.2381 46.3955C95.838 45.7638 97.6495 44.2984 98.0097 43.7277C98.1044 43.5775 97.9641 43.2792 98.281 43.1782V43.1794Z" fill="url(#paint3_linear_3527_4134)"/>
<path d="M79.1246 32.8595L78.8264 33.4337C78.5843 35.4158 78.0475 37.3274 77.3728 39.192C71.7092 36.6299 64.9358 34.1089 58.9167 32.5072C58.2829 32.1385 58.7132 31.5655 58.5156 30.9749C58.4209 30.6908 58.1215 30.6579 58.0969 30.5487C58.0548 30.362 58.1332 30.1295 58.0712 29.897C57.8291 28.9811 57.3157 27.9067 57.1275 26.9697C57.0386 26.527 57.0924 26.4613 57.0491 26.1255C57.0129 25.8472 56.5264 25.5877 57.0468 25.354C64.9557 27.0496 71.7957 29.6093 79.1234 32.8595H79.1246Z" fill="url(#paint4_linear_3527_4134)"/>
<path d="M28.8982 76.252C28.0773 83.8278 27.6271 91.4307 27.7312 99.0605L28.4304 104.867H28.4294C28.309 104.503 27.9135 103.88 27.8513 103.513C27.5344 101.634 27.6831 99.3418 27.4949 97.4209C27.4656 97.1168 27.3419 96.8404 27.2449 96.5586L27.2439 96.5576C27.341 96.8394 27.4647 97.1158 27.4939 97.4199C27.6821 99.342 27.5334 101.634 27.8503 103.512C27.9125 103.879 28.308 104.504 28.4285 104.866C28.8424 106.12 29.2455 108.371 30.5681 108.875C32.5655 109.636 36.15 109.122 38.241 108.854C38.3168 108.844 38.3985 108.864 38.4744 108.854L38.9421 108.736C39.4214 108.668 39.81 108.571 40.2273 108.502C40.5688 108.446 40.8826 108.455 41.2791 108.384C43.7793 107.934 46.2554 107.341 48.7556 106.86C48.8372 107.269 48.4181 106.986 48.2263 107.209C48.0979 107.359 48.1039 107.798 47.9871 108.025C47.1486 109.653 46.1486 111.315 45.2751 112.925C45.0132 113.407 44.4754 113.613 44.6658 114.365C44.8587 114.358 45.0578 114.378 45.2507 114.365C43.4708 114.942 41.4388 115.283 39.5701 115.523C34.2996 116.204 28.0385 116.834 24.4578 112.255L24.3406 112.137C24.2731 112.045 24.2593 111.953 24.2244 111.902L23.8699 111.054L23.5232 110.729C23.4484 110.541 23.4524 110.394 23.407 110.26C23.2936 109.925 23.2068 109.577 22.9392 109.321C22.93 109.282 22.9523 109.213 22.9392 109.204C22.9673 108.955 22.9539 108.941 22.7048 108.969C22.6476 108.767 22.6052 108.594 22.5876 108.383L22.5886 108.386C22.5884 108.383 22.5879 108.38 22.5876 108.377C21.9577 106.416 21.5026 104.169 21.3064 102.111C20.6141 94.8372 21.2285 87.3446 21.8904 80.1221C21.9044 79.9694 21.9809 79.6854 22.0066 79.4189C22.0253 79.2264 21.9879 79.0243 22.0066 78.833C22.182 78.8166 22.182 78.4969 22.0066 78.4805C22.0242 78.2997 22.1016 78.1035 22.1238 77.8945C22.2536 77.81 22.3062 77.5831 22.1238 77.542C22.1354 77.4271 22.1122 77.3053 22.1238 77.1904L28.8982 76.252ZM25.8835 96.7246C25.7866 96.7492 25.704 96.7732 25.6443 96.792C25.7042 96.7732 25.7867 96.7491 25.8835 96.7246Z" fill="url(#paint5_linear_3527_4134)"/>
<path d="M57.048 25.3538C56.5276 25.5863 57.0141 25.8458 57.0504 26.1252C57.0936 26.4622 57.0398 26.5268 57.1287 26.9695C57.317 27.9065 57.8304 28.9809 58.0724 29.8968C58.1333 30.1293 58.0561 30.3618 58.0982 30.5484C58.1227 30.6577 58.4221 30.6917 58.5168 30.9747C58.7145 31.5665 58.2841 32.1383 58.9179 32.507C54.9594 31.4538 49.7379 30.3805 45.6612 30.7492C43.52 30.943 41.6044 32.5916 40.3449 34.266C39.8479 34.0217 39.4363 33.3372 39.2293 32.8652C38.4037 31.7097 37.3395 30.7034 36.4881 29.6032C36.3911 29.4776 36.3583 29.2463 36.2566 29.1054C36.4566 28.8787 36.6776 28.3844 36.9524 28.1038C42.5622 22.3936 50.0244 23.8473 57.048 25.3538Z" fill="url(#paint6_linear_3527_4134)"/>
<path d="M79.1246 32.8594C85.9178 35.8724 92.172 39.2236 98.2811 43.1794C97.9642 43.2804 98.1045 43.5787 98.0098 43.729C97.6496 44.2996 95.8382 45.765 95.2382 46.3968C94.9155 46.7361 94.5763 47.2234 94.2664 47.5945C94.0758 47.8234 93.8291 47.6708 94.1928 48.2226C93.9542 48.1017 96.7152 50.081 96.5 50C98 50.5 93.1192 47.6496 92.9426 47.5451C87.9222 44.5521 82.6738 41.5908 77.3716 39.1919C78.0463 37.3272 78.5831 35.4144 78.8252 33.4336L79.1234 32.8594H79.1246Z" fill="url(#paint7_linear_3527_4134)"/>
<path d="M100.267 82.937C100.259 83.7132 101.357 83.8447 101.833 84.1218C102.05 84.2486 102.101 84.5175 102.161 84.5527C102.432 84.7065 103.369 84.9543 103.737 85.1422C104.639 85.6036 105.442 86.2236 106.458 86.4561C101.608 90.52 95.4663 94.7154 89.8577 97.6427C89.5829 97.786 89.2496 97.9339 88.9362 97.9492C89.2297 97.5852 89.556 97.6005 89.8682 97.3046C89.2812 96.7844 88.8859 96.108 88.3983 95.4986C88.3117 95.3906 88.1141 95.3413 88.0615 95.2509C87.9363 95.0407 88.0661 94.7589 87.9433 94.5475C87.8837 94.4442 87.5668 94.3244 87.4171 94.1377C86.6324 93.1538 86.8055 92.2144 85.3145 92.5549C85.5483 92.38 85.8933 92.1075 86.1319 91.969C91.0657 89.0887 95.7248 86.4866 100.266 82.9382L100.267 82.937Z" fill="url(#paint8_linear_3527_4134)"/>
<path d="M24.9247 58.3081C25.5773 58.3562 26.5631 58.2964 27.1806 58.4267C27.2765 58.4467 27.2753 58.6263 27.3419 58.6592C27.8471 58.914 28.4401 58.685 28.9499 58.7825C29.1932 58.8283 29.3288 59.0455 29.5639 59.1042C30.0153 59.2158 30.6082 59.1805 31.0643 59.2381C31.3239 59.271 31.2093 59.4518 31.3496 59.5986C31.3356 59.669 31.3613 59.7594 31.3496 59.8334C31.1964 59.8886 31.2397 60.0577 31.2327 60.1857C31.1204 62.3579 30.4176 64.9705 30.0843 67.1827C29.6317 70.1875 29.2247 73.2322 28.8961 76.2523L22.1216 77.1905C22.7507 71.2196 23.5916 65.2617 24.6908 59.3649L24.8078 59.2475C24.8604 58.9668 24.8651 58.6181 24.9247 58.3093V58.3081Z" fill="url(#paint9_linear_3527_4134)"/>
<path d="M64.1733 101.936L63.2389 109.206C62.1946 109.54 61.0438 109.868 60.0849 110.379C60.0159 110.396 59.92 110.363 59.851 110.379C58.8605 110.612 58.0021 110.923 57.0432 111.261C56.8573 111.327 56.628 111.235 56.697 111.552C56.6245 111.565 56.5286 111.536 56.4632 111.552C55.6434 111.761 54.6248 111.914 53.7501 112.17C53.5782 112.22 53.0028 112.328 53.0765 112.608C53.0051 112.623 52.9127 112.593 52.8426 112.608C51.4205 112.916 49.8149 113.144 48.3297 113.532C48.1262 113.585 47.7532 113.574 47.8198 113.898C47.7427 113.904 47.6631 113.892 47.586 113.898C47.5672 113.9 47.3649 113.694 47.2141 113.799L45.8341 114.251C45.6447 114.274 45.4658 114.354 45.2506 114.368C45.0576 114.381 44.8588 114.361 44.6659 114.368C44.4764 113.614 45.0132 113.41 45.2752 112.927C46.1487 111.317 47.1486 109.655 47.9871 108.027C48.104 107.801 48.097 107.363 48.2268 107.211C48.4174 106.988 48.8373 107.271 48.7554 106.863C48.8267 106.848 48.9156 106.874 48.9893 106.863C49.3541 106.804 49.4243 106.718 49.6898 106.628C50.8838 106.221 52.1035 105.815 53.3104 105.455C53.9992 105.249 54.7078 105.089 55.413 104.869C58.3471 103.946 61.2859 102.995 64.1733 101.937V101.936Z" fill="url(#paint10_linear_3527_4134)"/>
<path d="M52.8426 112.608C52.4579 112.833 51.9258 112.958 51.4907 113.068C50.5669 113.304 48.6747 113.838 47.8199 113.897C47.7532 113.573 48.1263 113.585 48.3298 113.531C49.8149 113.143 51.4206 112.914 52.8426 112.606V112.608Z" fill="#E6E550"/>
<path d="M56.4632 111.552C55.3861 111.946 54.1945 112.373 53.0753 112.608C53.0017 112.328 53.577 112.22 53.7489 112.17C54.6237 111.914 55.6434 111.761 56.462 111.552H56.4632Z" fill="#E6E550"/>
<path d="M59.851 110.379C59.9188 110.696 59.6908 110.604 59.5049 110.67C58.7143 110.951 57.4888 111.409 56.697 111.552C56.6292 111.235 56.8573 111.326 57.0432 111.261C58.001 110.923 58.8593 110.611 59.851 110.379Z" fill="#E6E550"/>
<path d="M63.3559 109.206C63.4296 109.491 62.9524 109.547 62.7653 109.61C61.8602 109.913 60.996 110.165 60.085 110.379C61.0439 109.869 62.1946 109.54 63.2389 109.206C63.274 109.194 63.3208 109.218 63.3559 109.206Z" fill="#E6E550"/>
<path d="M47.586 113.898C47.082 114.184 46.4014 114.179 45.8342 114.251L47.2142 113.799C47.365 113.695 47.5673 113.901 47.586 113.898Z" fill="#E6E550"/>
<path d="M23.4067 110.261C22.9717 110.298 23.0091 109.607 22.939 109.323C23.2056 109.579 23.2921 109.927 23.4067 110.261Z" fill="#E6E550"/>
<path d="M23.5237 110.731L23.8698 111.056L24.2242 111.904C23.8897 111.418 23.7611 111.327 23.5237 110.731Z" fill="#E6E550"/>
<path d="M22.7061 108.972C22.954 108.944 22.9681 108.958 22.94 109.207C22.9002 109.184 22.7529 109.242 22.712 109.201C22.6745 109.164 22.7237 109.032 22.7061 108.972Z" fill="#E6E550"/>
<path d="M63.9393 109.09C63.8914 109.106 63.8154 109.171 63.7054 109.207C63.6937 109.008 63.6633 108.933 63.8797 108.974L63.9393 109.09Z" fill="#E6E550"/>
<path d="M22.1215 77.8938C22.1332 77.7787 22.1098 77.6566 22.1215 77.5415C22.304 77.5814 22.2513 77.808 22.1215 77.8938Z" fill="#D9FC69"/>
<path d="M64.6399 108.855L64.7568 108.737C64.737 108.744 64.6995 108.834 64.6399 108.855Z" fill="#E6E550"/>
<path d="M24.458 112.256C24.4276 112.217 24.3761 112.185 24.3411 112.138L24.458 112.256Z" fill="#E6E550"/>
<path d="M24.6919 59.3635C24.7048 59.2942 24.8077 59.2543 24.8088 59.2461L24.6919 59.3635Z" fill="#B0F99B"/>
<path d="M58.9167 32.5069C64.9358 34.1097 71.7092 36.6295 77.3728 39.1916C82.6738 41.5905 87.9223 44.5519 92.9438 47.5449C93.1204 47.6494 93.4268 47.7222 93.3765 47.9876C92.8222 47.7809 92.379 47.451 91.868 47.215C91.6902 47.1328 91.5838 47.1046 91.6259 47.3406C91.7604 47.6706 93.6397 48.4408 93.8443 48.9246C93.449 49.0432 93.3309 48.6721 93.1672 48.5829C83.6983 43.4481 74.5264 38.7454 64.1722 35.4988C59.1155 33.9136 50.6289 31.4055 45.46 33.0094C39.538 34.8471 37.0529 43.7006 35.5046 49.0502C31.7472 62.0369 29.8001 75.6589 29.2434 89.2056C29.0774 93.2531 28.8014 100.487 30.3953 104.125C31.4209 106.465 33.706 107.373 36.0823 107.679C36.3945 107.719 38.1662 107.72 38.2422 107.798C38.2855 107.841 38.2118 108.666 38.2422 108.854C36.1513 109.124 32.567 109.636 30.5696 108.875C29.2469 108.371 28.8446 106.119 28.4295 104.866L27.7302 99.0596C27.6261 91.4296 28.0752 83.8266 28.8973 76.2507C29.2247 73.2306 29.6317 70.1859 30.0854 67.1811C30.4187 64.9677 31.1215 62.3563 31.2338 60.184C31.3964 60.1242 31.332 59.9539 31.3508 59.8318C31.3624 59.7578 31.3367 59.6674 31.3508 59.5969C32.9377 51.8296 35.5642 40.6195 40.3449 34.2647C41.6044 32.5903 43.5199 30.9417 45.6612 30.7479C49.7366 30.3792 54.9593 31.4525 58.9179 32.5057L58.9167 32.5069Z" fill="#010101"/>
<path d="M38.9426 108.737L38.4749 108.855C38.5298 108.848 38.7462 108.765 38.9426 108.737Z" fill="#1A1F0D"/>
<path d="M86.133 91.9663C85.8944 92.106 85.5483 92.3773 85.3155 92.5522C85.1939 92.5804 85.1343 92.652 85.0817 92.6697C84.8326 92.7507 84.7495 92.8481 84.6139 92.9045C84.4162 92.9867 84.2326 93.0419 84.0303 93.1393C83.98 93.164 83.9461 93.2415 83.9134 93.2568C77.3903 96.4342 71.0016 99.4331 64.1721 101.935C61.2848 102.993 58.346 103.944 55.4119 104.867C55.5674 104.116 55.5709 104.071 56.2457 103.769C58.0419 102.964 60.32 102.455 62.211 101.784C70.1737 98.9599 77.7844 95.5699 85.5214 92.1143C85.7178 92.0262 85.9155 91.9663 86.1318 91.9663H86.133Z" fill="#1A1F0D"/>
<path d="M85.0816 92.6709C85.1483 92.9386 84.9027 92.975 84.6852 93.0032L84.615 92.9057C84.7506 92.8494 84.8337 92.7531 85.0828 92.6709H85.0816Z" fill="#9A6591"/>
<path d="M83.9133 93.2571C83.9461 93.2418 83.98 93.1643 84.0303 93.1396L83.9133 93.2571Z" fill="#9A6591"/>
<path d="M31.2326 60.1843C31.2396 60.0563 31.1951 59.8884 31.3495 59.832C31.3308 59.953 31.3951 60.1244 31.2326 60.1843Z" fill="#B0F99B"/>
<path d="M49.6885 106.626C49.4231 106.717 49.3517 106.802 48.988 106.861C49.0851 106.557 49.4371 106.617 49.6885 106.626Z" fill="#F8C430"/>
<path d="M94.3097 49.0435C94.4372 49.1715 94.2045 49.4051 94.077 49.2772C93.9496 49.1492 94.1823 48.9155 94.3097 49.0435Z" fill="black"/>
<path d="M94.4851 49.2783C94.5611 49.3171 94.5611 49.357 94.4851 49.3957V49.2783Z" fill="#1A1F0D"/>
<path d="M76.2045 65.6969C76.0267 68.4352 74.593 71.0348 72.2681 72.4756C69.2861 74.3238 66.1228 73.8811 62.7712 73.9058C62.0063 73.9116 61.1889 73.86 60.4346 73.9058C60.3083 73.7097 59.954 73.7907 59.7341 73.7884C58.6711 73.7754 58.0922 73.7226 58.0911 72.4368C58.988 67.9408 59.0792 63.2323 59.9996 58.7492C60.1469 58.0282 60.3586 57.3483 61.1912 57.2485C62.4519 57.0982 63.7967 57.3519 65.0434 57.373C67.8231 57.4211 70.3713 57.0466 72.8938 58.5214C75.4163 59.9962 76.3869 62.8647 76.2033 65.6946L76.2045 65.6969Z" fill="#010101"/>
<path d="M79.3585 50.2163C74.6433 48.003 69.8802 48.3658 64.8107 48.1098C62.8788 48.0124 60.92 47.828 58.9799 47.7482C57.0433 47.6683 54.2601 47.3701 52.4299 47.5145C50.705 47.6507 49.9975 48.4644 49.6092 50.0778C49.2373 51.6219 49.0432 53.3984 48.7742 54.986C45.929 71.7876 43.6638 88.6973 40.7916 105.493C40.6162 106.516 40.3285 107.476 40.2268 108.504C40.5683 108.447 40.8817 108.458 41.2781 108.386C43.7784 107.937 46.2541 107.343 48.7543 106.862C48.8257 106.848 48.9146 106.874 48.9882 106.862C49.0853 106.558 49.4373 106.618 49.6887 106.627C50.8827 106.221 52.1024 105.815 53.3093 105.454L56.6457 83.6483C56.8995 83.3946 57.1006 83.3183 57.4491 83.2819C61.4673 82.8568 66.1626 83.6847 70.3047 83.4052C75.3508 83.0647 80.7174 80.202 83.9111 76.3083C90.6342 68.1124 89.4671 54.9613 79.3585 50.2175V50.2163ZM60.4347 73.9059C60.2335 73.9176 59.6523 74.3004 59.7342 73.7885C58.6712 73.7756 58.0923 73.7227 58.0911 72.437C58.9881 67.9409 59.0793 63.2324 59.9996 58.7493C60.147 58.0283 60.3587 57.3485 61.1913 57.2486C62.452 57.0984 63.7968 57.352 65.0434 57.3731C67.8232 57.4213 70.3714 57.0467 72.8939 58.5215C75.4035 59.9881 76.387 62.8649 76.2034 65.6947C76.0256 68.4329 74.5919 71.0326 72.267 72.4734C69.285 74.3216 66.1217 73.8789 62.77 73.9035C62.0052 73.9094 61.1878 73.8578 60.4335 73.9035L60.4347 73.9059Z" fill="white"/>
<path d="M60.4347 73.9059C60.2335 73.9176 59.6523 74.3004 59.7342 73.7885C59.954 73.7908 60.3084 73.7086 60.4347 73.9059Z" fill="#E3F7EE"/>
</g>
<defs>
<linearGradient id="paint0_linear_3527_4134" x1="113.5" y1="61" x2="104.5" y2="85.5" gradientUnits="userSpaceOnUse">
<stop stop-color="#556BD8"/>
<stop offset="1" stop-color="#A56886"/>
</linearGradient>
<linearGradient id="paint1_linear_3527_4134" x1="28" y1="59" x2="38.5" y2="32" gradientUnits="userSpaceOnUse">
<stop stop-color="#B0F99B"/>
<stop offset="1" stop-color="#98F5BA"/>
</linearGradient>
<linearGradient id="paint2_linear_3527_4134" x1="88.5" y1="94.5" x2="64" y2="105" gradientUnits="userSpaceOnUse">
<stop stop-color="#FA742E"/>
<stop offset="1" stop-color="#FB9E2B"/>
</linearGradient>
<linearGradient id="paint3_linear_3527_4134" x1="96.5" y1="45.5" x2="114" y2="60.5" gradientUnits="userSpaceOnUse">
<stop stop-color="#55A3E8"/>
<stop offset="1" stop-color="#566CD8"/>
</linearGradient>
<linearGradient id="paint4_linear_3527_4134" x1="57.5" y1="29.5" x2="78" y2="36.5" gradientUnits="userSpaceOnUse">
<stop stop-color="#88F3D2"/>
<stop offset="1" stop-color="#66C4E5"/>
</linearGradient>
<linearGradient id="paint5_linear_3527_4134" x1="25.5" y1="77" x2="45.5" y2="112" gradientUnits="userSpaceOnUse">
<stop stop-color="#D6FC6D"/>
<stop offset="1" stop-color="#F8C430"/>
</linearGradient>
<linearGradient id="paint6_linear_3527_4134" x1="38.5" y1="32" x2="58" y2="29.5" gradientUnits="userSpaceOnUse">
<stop stop-color="#99F5B9"/>
<stop offset="1" stop-color="#84EED4"/>
</linearGradient>
<linearGradient id="paint7_linear_3527_4134" x1="78.5" y1="36.5" x2="96" y2="45.5" gradientUnits="userSpaceOnUse">
<stop stop-color="#66C5E5"/>
<stop offset="1" stop-color="#56A3E8"/>
</linearGradient>
<linearGradient id="paint8_linear_3527_4134" x1="103.5" y1="84.5" x2="88" y2="94.5" gradientUnits="userSpaceOnUse">
<stop stop-color="#9A6591"/>
<stop offset="1" stop-color="#FA772E"/>
</linearGradient>
<linearGradient id="paint9_linear_3527_4134" x1="24.5" y1="77.5" x2="28.5" y2="59" gradientUnits="userSpaceOnUse">
<stop stop-color="#D9FC69"/>
<stop offset="1" stop-color="#AFF99C"/>
</linearGradient>
<linearGradient id="paint10_linear_3527_4134" x1="64" y1="105" x2="47.5" y2="110" gradientUnits="userSpaceOnUse">
<stop stop-color="#FB9D2A"/>
<stop offset="1" stop-color="#F7C532"/>
</linearGradient>
<clipPath id="clip0_3527_4134">
<rect width="98" height="92" fill="white" transform="translate(21 24)"/>
</clipPath>
</defs>
</svg>
