<svg width="140" height="140" viewBox="0 0 140 140" fill="none" xmlns="http://www.w3.org/2000/svg">
<rect width="140" height="140" rx="30" fill="white"/>
<g clip-path="url(#clip0_1579_2825)">
<path d="M65.9539 68.1435C65.531 68.1435 65.1051 68.1346 64.6733 68.1139C59.6161 67.8748 54.955 65.9287 51.5478 62.6391C48.3521 59.5562 46.8629 56.0834 47.119 52.3184C47.4675 47.189 51.1517 41.8618 57.7814 36.8978C63.0888 22.6083 72.0297 21.5984 78.311 22.0915L78.4569 22.1092C86.8439 23.6064 91.3233 29.0606 91.773 38.3123C92.0023 43.0371 90.9718 47.8889 88.7917 52.339L87.383 55.2182L89.4082 59.2343C90.0188 60.4421 89.9413 61.9038 89.2116 63.0437C88.3628 64.3636 86.8111 65.0458 85.2564 64.78L79.4934 63.7996C75.5501 66.6817 71.0022 68.1376 65.9569 68.1376L65.9539 68.1435ZM76.1249 24.9559C70.6984 24.9559 64.4856 27.0525 60.4351 38.3123L60.2832 38.7346L59.9199 39.0004C53.7845 43.5096 50.3892 48.1812 50.0944 52.5133C49.9008 55.3747 51.0891 58.0679 53.6296 60.5218C56.5156 63.3094 60.4887 64.9572 64.8192 65.161C69.9449 65.4031 74.323 64.0683 78.1919 61.077L78.7101 60.6754L85.7598 61.8743C86.1291 61.9363 86.4984 61.7739 86.6979 61.4608C86.8707 61.1892 86.8886 60.8437 86.7456 60.5572L84.0621 55.2389L86.1142 51.0515C88.0769 47.0443 89.0061 42.6887 88.8006 38.457C88.4164 30.5696 84.9854 26.3025 78.0042 25.0297C77.3937 24.9825 76.7652 24.953 76.1249 24.953V24.9559Z" fill="#EFBB03"/>
<path d="M71.2197 35.318C72.0931 35.318 72.8012 34.6159 72.8012 33.7499C72.8012 32.8839 72.0931 32.1819 71.2197 32.1819C70.3462 32.1819 69.6382 32.8839 69.6382 33.7499C69.6382 34.6159 70.3462 35.318 71.2197 35.318Z" fill="#EFBB03"/>
<path d="M80.801 37.958C81.6744 37.958 82.3825 37.2559 82.3825 36.3899C82.3825 35.5239 81.6744 34.8219 80.801 34.8219C79.9275 34.8219 79.2195 35.5239 79.2195 36.3899C79.2195 37.2559 79.9275 37.958 80.801 37.958Z" fill="#EFBB03"/>
<path d="M76.9585 39.8406C77.0894 38.9844 76.2713 38.1513 75.1313 37.98C73.9913 37.8086 72.961 38.3638 72.8301 39.2201C72.6991 40.0763 73.5172 40.9093 74.6572 41.0806C75.7973 41.252 76.8276 40.6968 76.9585 39.8406Z" fill="#EFBB03"/>
<path d="M62.7939 55.4426C62.1268 55.4426 61.4805 55.1946 60.9771 54.7251L60.8967 54.6424L57.0189 50.4225C56.465 49.8201 56.5097 48.887 57.1172 48.3377C57.7248 47.7885 58.666 47.8328 59.2199 48.4352L62.6063 52.1205L63.6487 46.4478C63.7976 45.6446 64.572 45.1131 65.3821 45.2607C66.1922 45.4084 66.7283 46.1761 66.5794 46.9794L65.3791 53.4759C65.1349 54.3855 64.4469 55.0824 63.5355 55.3393C63.2883 55.4102 63.0381 55.4426 62.7939 55.4426Z" fill="#EFBB03"/>
<path d="M19.4117 100.316C18.6314 100.316 18 99.6904 18 98.9167V84.3998C18.274 84.3998 19.0067 84.3909 20.1891 84.3762C21.3744 84.3614 22.1637 84.3525 22.5628 84.3525C23.6946 84.3525 24.6774 84.4943 25.5083 84.7719C26.3423 85.0524 26.9886 85.4392 27.4472 85.9324C27.9059 86.4255 28.2424 86.963 28.4569 87.5477C28.6713 88.1324 28.7785 88.7732 28.7785 89.4701C28.7785 90.9111 28.2573 92.1307 27.2179 93.1318C26.1785 94.1329 24.7399 94.6319 22.9053 94.6319C21.9731 94.6319 21.2762 94.6083 20.8175 94.564V98.9197C20.8175 99.6934 20.1861 100.319 19.4058 100.319L19.4117 100.316ZM22.8398 86.9689C22.5032 86.9689 21.8301 86.9837 20.8205 87.0132V91.9004C21.5531 91.9772 22.2203 92.0156 22.8159 92.0156C23.7035 92.0156 24.4213 91.8 24.9722 91.3689C25.5232 90.9377 25.7972 90.2969 25.7972 89.4465C25.7972 87.7957 24.8114 86.9689 22.8398 86.9689Z" fill="#EFBB03"/>
<path d="M33.8237 92.3581C33.8237 90.0253 34.607 88.0733 36.1736 86.5023C37.7402 84.9343 39.7387 84.1488 42.172 84.1488C44.6053 84.1488 46.5858 84.9077 48.1703 86.4226C49.7518 87.9375 50.544 89.916 50.544 92.3581C50.544 94.8003 49.7488 96.702 48.1584 98.2464C46.568 99.7938 44.5725 100.565 42.172 100.565C39.7714 100.565 37.7611 99.8056 36.1855 98.2907C34.61 96.7758 33.8237 94.7973 33.8237 92.3552V92.3581ZM36.805 92.3581C36.805 93.9498 37.3203 95.2786 38.3538 96.3476C39.3843 97.4166 40.659 97.9511 42.172 97.9511C43.822 97.9511 45.1354 97.4196 46.1063 96.3594C47.0773 95.2993 47.5627 93.9646 47.5627 92.3581C47.5627 90.7517 47.0475 89.3786 46.014 88.3332C44.9805 87.2878 43.7028 86.7652 42.172 86.7652C40.6411 86.7652 39.3485 87.2878 38.3299 88.3332C37.3113 89.3786 36.805 90.7192 36.805 92.3581Z" fill="#EFBB03"/>
<path d="M54.3711 85.708C54.3711 84.9845 54.9609 84.3998 55.6905 84.3998H66.2844C67.0141 84.3998 67.6038 84.9845 67.6038 85.708C67.6038 86.4314 67.0141 87.0161 66.2844 87.0161H62.3977V98.9197C62.3977 99.6933 61.7663 100.319 60.986 100.319C60.2057 100.319 59.5743 99.6933 59.5743 98.9197V87.0161H55.6876C54.9579 87.0161 54.3682 86.4314 54.3682 85.708H54.3711Z" fill="#EFBB03"/>
<path d="M70.6389 98.521L76.1816 85.4865C76.4735 84.8014 77.1496 84.3555 77.9001 84.3555C78.6506 84.3555 79.3267 84.8014 79.6186 85.4865L85.1612 98.521C85.5246 99.3744 84.8932 100.316 83.958 100.316H83.7972C83.267 100.316 82.7905 99.9975 82.588 99.5102L81.2447 96.2442H74.3887L73.0454 99.5102C72.8459 99.9975 72.3664 100.316 71.8362 100.316C70.904 100.316 70.2696 99.3715 70.633 98.521H70.6389ZM77.8316 87.9699L75.4698 93.6308H80.1726L77.8346 87.9699H77.8316Z" fill="#EFBB03"/>
<path d="M88.2198 85.708C88.2198 84.9845 88.8095 84.3998 89.5392 84.3998H100.133C100.863 84.3998 101.452 84.9845 101.452 85.708C101.452 86.4314 100.863 87.0161 100.133 87.0161H96.2464V98.9197C96.2464 99.6933 95.615 100.319 94.8346 100.319C94.0543 100.319 93.4229 99.6933 93.4229 98.9197V87.0161H89.5362C88.8065 87.0161 88.2168 86.4314 88.2168 85.708H88.2198Z" fill="#EFBB03"/>
<path d="M105.283 92.3581C105.283 90.0253 106.066 88.0733 107.633 86.5023C109.199 84.9343 111.198 84.1488 113.631 84.1488C116.064 84.1488 118.045 84.9077 119.629 86.4226C121.211 87.9375 122.003 89.916 122.003 92.3581C122.003 94.8003 121.208 96.702 119.617 98.2464C118.027 99.7938 116.031 100.565 113.631 100.565C111.23 100.565 109.22 99.8056 107.645 98.2907C106.069 96.7758 105.283 94.7973 105.283 92.3552V92.3581ZM108.264 92.3581C108.264 93.9498 108.779 95.2786 109.813 96.3476C110.843 97.4166 112.118 97.9511 113.631 97.9511C115.281 97.9511 116.594 97.4196 117.565 96.3594C118.536 95.2993 119.022 93.9646 119.022 92.3581C119.022 90.7517 118.506 89.3786 117.473 88.3332C116.44 87.2878 115.162 86.7652 113.631 86.7652C112.1 86.7652 110.808 87.2878 109.789 88.3332C108.77 89.3786 108.264 90.7192 108.264 92.3581Z" fill="#EFBB03"/>
<path d="M42.9316 118.164V110.684C42.9316 110.126 43.3903 109.671 43.9532 109.671H44.0753C44.4 109.671 44.7067 109.825 44.9003 110.088L47.7982 114.018L50.5502 110.106C50.7408 109.834 51.0535 109.671 51.3871 109.671C51.95 109.671 52.4087 110.126 52.4087 110.684V118.164C52.4087 118.613 52.0423 118.973 51.5926 118.973C51.1399 118.973 50.7765 118.61 50.7765 118.164V112.249L47.8131 116.384H47.5719L44.5846 112.291V118.164C44.5846 118.613 44.2183 118.973 43.7685 118.973H43.7537C43.301 118.973 42.9376 118.61 42.9376 118.164H42.9316Z" fill="#EFBB03"/>
<path d="M57.8857 117.544V111.104C57.8857 110.312 58.532 109.671 59.3302 109.671H62.5438C62.9697 109.671 63.3152 110.014 63.3152 110.436C63.3152 110.859 62.9697 111.201 62.5438 111.201H59.5357V113.513H62.1418C62.5677 113.513 62.9131 113.856 62.9131 114.278C62.9131 114.7 62.5677 115.043 62.1418 115.043H59.5357V117.45H62.6779C63.1038 117.45 63.4492 117.792 63.4492 118.214C63.4492 118.637 63.1038 118.979 62.6779 118.979H59.3302C58.532 118.979 57.8857 118.338 57.8857 117.547V117.544Z" fill="#EFBB03"/>
<path d="M68.4737 118.973V109.671H68.6464C68.8251 109.671 69.2391 109.666 69.8914 109.651C70.5436 109.639 70.9904 109.63 71.2316 109.63C72.143 109.63 72.9441 109.751 73.6321 109.996C74.3201 110.241 74.8681 110.578 75.2791 111.012C75.6902 111.446 75.9969 111.931 76.1965 112.468C76.396 113.005 76.4973 113.59 76.4973 114.228C76.4973 115.61 76.0297 116.75 75.0975 117.65C74.1653 118.551 72.8399 119 71.1244 119C70.9636 119 70.5913 118.994 70.0045 118.988C69.4208 118.979 68.9711 118.976 68.6583 118.976H68.4707L68.4737 118.973ZM71.2078 111.16C70.8593 111.16 70.4989 111.172 70.1237 111.198V117.444C70.4275 117.461 70.7819 117.47 71.181 117.47C72.2978 117.47 73.1735 117.178 73.8079 116.593C74.4422 116.009 74.7579 115.22 74.7579 114.228C74.7579 113.236 74.4422 112.533 73.8138 111.984C73.1824 111.434 72.3157 111.16 71.2078 111.16Z" fill="#EFBB03"/>
<path d="M81.489 118.158V110.492C81.489 110.041 81.8583 109.674 82.314 109.674C82.7697 109.674 83.139 110.041 83.139 110.492V118.158C83.139 118.61 82.7697 118.976 82.314 118.976C81.8583 118.976 81.489 118.61 81.489 118.158Z" fill="#EFBB03"/>
<path d="M88.0591 117.925L91.2995 110.306C91.4693 109.905 91.8654 109.645 92.3032 109.645C92.741 109.645 93.1371 109.905 93.3069 110.306L96.5473 117.925C96.7588 118.424 96.3895 118.976 95.8444 118.976H95.7491C95.4394 118.976 95.1594 118.79 95.0432 118.507L94.257 116.599H90.2482L89.4619 118.507C89.3457 118.79 89.0658 118.976 88.756 118.976C88.211 118.976 87.8417 118.424 88.0531 117.925H88.0591ZM92.2645 111.759L90.8855 115.07H93.6315L92.2645 111.759Z" fill="#EFBB03"/>
</g>
<defs>
<clipPath id="clip0_1579_2825">
<rect width="104" height="97" fill="white" transform="translate(18 22)"/>
</clipPath>
</defs>
</svg>
