<svg width="140" height="140" viewBox="0 0 140 140" fill="none" xmlns="http://www.w3.org/2000/svg">
<rect width="140" height="140" rx="30" fill="white"/>
<g clip-path="url(#clip0_799_9679)">
<path d="M78.5618 61.9243C78.5945 61.8946 78.6282 61.8639 78.6609 61.8341C78.8238 61.7934 78.9338 61.6932 79.0012 61.5424C84.454 56.7689 90.1361 52.2671 95.7008 47.6263C95.8281 47.5207 95.9646 47.4259 96.0965 47.3265C96.0956 47.5225 96.0938 47.7175 96.0938 47.9125C96.0847 66.8812 96.0756 85.8498 96.0674 104.819C95.9009 104.827 95.7353 104.841 95.5689 104.841C75.4524 104.842 55.335 104.833 35.2185 104.85C31.1111 104.854 27.5805 102.078 26.4497 98.5092C26.1786 97.6532 26.004 96.7811 26.0049 95.8719C26.0113 81.033 26.0094 66.1941 26.0094 51.3561C26.0094 51.2965 26.0149 51.236 26.0176 51.1764C26.0968 51.1656 26.1632 51.1855 26.2259 51.2378C27.2275 52.0847 28.2237 52.9371 29.2335 53.7731C30.8264 55.0922 32.432 56.3978 34.0267 57.7151C35.1657 58.6568 36.2865 59.6202 37.4318 60.5547C38.9465 61.7916 40.5066 62.9753 41.9867 64.2502C42.7946 64.9463 43.6115 65.6325 44.4302 66.3133C45.4391 67.152 46.458 67.9836 47.4878 68.7989C49.5992 70.471 51.6579 72.21 53.7166 73.9471C55.4287 75.3918 57.3609 76.2107 59.6334 76.1484C60.4348 76.1267 61.2417 76.0075 61.9804 75.743C63.6643 75.1389 65.0034 73.9833 66.277 72.7797C67.375 71.7423 68.5458 70.787 69.6438 69.7478C70.7491 68.7014 71.9463 67.7516 73.0998 66.7548C74.227 65.7806 75.3605 64.8127 76.4685 63.8177C77.0835 63.266 77.7512 62.7704 78.3034 62.1501C78.3198 62.1428 78.3334 62.132 78.3416 62.1167C78.4444 62.086 78.5199 62.0246 78.5618 61.9253V61.9243Z" fill="#6D4AFF"/>
<path d="M96.0669 104.818C96.076 85.849 96.0842 66.8803 96.0933 47.9116C96.0933 47.7166 96.0951 47.5207 96.096 47.3257C96.9712 46.5889 97.8436 45.8477 98.7233 45.1163C100.261 43.8387 101.793 42.5539 103.346 41.2962C104.638 40.2498 105.897 39.1636 107.17 38.0964C108.02 37.384 108.9 36.7024 109.702 35.9268C110.326 35.3228 111.094 34.8776 111.775 34.3287C112.462 33.7752 113.635 33.9675 114.33 34.5661C114.872 35.0329 115 35.6108 114.999 36.2771C114.992 49.6831 114.99 63.0891 114.987 76.4951C114.986 82.8225 114.987 89.1499 114.981 95.4773C114.978 97.5756 114.399 99.4915 113.11 101.184C111.699 103.037 109.828 104.131 107.569 104.668C106.88 104.831 106.204 104.811 105.518 104.836C105.267 104.845 105.001 104.772 104.781 104.971C104.746 105.004 104.664 105.006 104.61 104.994C103.102 104.637 101.572 104.9 100.054 104.844C98.7269 104.795 97.396 104.824 96.0669 104.818Z" fill="url(#paint0_linear_799_9679)"/>
<path d="M78.3031 62.1492C77.7509 62.7695 77.0832 63.2652 76.4682 63.8169C75.3593 64.8118 74.2267 65.7797 73.0995 66.7539C71.946 67.7507 70.7488 68.7006 69.6435 69.747C68.5455 70.7862 67.3747 71.7415 66.2767 72.7789C65.0031 73.9824 63.664 75.1381 61.9801 75.7421C61.2405 76.0067 60.4345 76.1259 59.6331 76.1475C57.3615 76.2098 55.4284 75.3909 53.7163 73.9463C51.6576 72.2092 49.5998 70.4702 47.4875 68.7981C46.4568 67.9828 45.4388 67.1512 44.4299 66.3124C43.6112 65.6317 42.7934 64.9455 41.9864 64.2493C40.5063 62.9736 38.9462 61.7908 37.4315 60.5538C36.2871 59.6194 35.1654 58.656 34.0264 57.7143C32.4317 56.3961 30.8261 55.0914 29.2332 53.7723C28.2234 52.9362 27.2272 52.083 26.2256 51.237C26.1629 51.1837 26.0965 51.1639 26.0173 51.1756C26.0128 47.4169 26.0073 43.6591 26.0037 39.9004C26.0019 38.6463 26.0073 37.3922 26 36.1381C25.9955 35.2713 26.3812 34.6194 27.1463 34.2411C27.9505 33.843 28.7174 33.9657 29.4215 34.5481C32.4153 37.0256 35.421 39.4896 38.4176 41.9644C41.5416 44.5439 44.6592 47.1298 47.7813 49.7111C50.2384 51.7426 52.6965 53.7723 55.1582 55.7984C57.0849 57.3847 59.0417 58.935 60.9358 60.5575C62.2139 61.6517 63.5212 62.709 64.8366 63.7546C66.1593 64.8064 67.6931 65.4095 69.387 65.6127C72.3327 65.9657 74.8125 64.987 76.9795 63.0648C77.317 62.7659 77.6763 62.4905 78.0247 62.2034C78.1075 62.1348 78.1876 62.0599 78.3022 62.1474L78.3031 62.1492Z" fill="url(#paint1_linear_799_9679)"/>
<path d="M79.0007 61.5416C78.9334 61.6923 78.8233 61.7926 78.6605 61.8332C78.6396 61.5822 78.8033 61.5425 79.0007 61.5416Z" fill="#BDAEFF"/>
<path d="M78.5616 61.9244C78.5198 62.0246 78.4433 62.0851 78.3414 62.1158C78.2632 61.8801 78.417 61.9072 78.5616 61.9244Z" fill="#BDAEFF"/>
</g>
<defs>
<linearGradient id="paint0_linear_799_9679" x1="105.533" y1="34.0006" x2="105.533" y2="105.001" gradientUnits="userSpaceOnUse">
<stop stop-color="#967CF7"/>
<stop offset="1" stop-color="#CCC2F6"/>
</linearGradient>
<linearGradient id="paint1_linear_799_9679" x1="26" y1="46.0154" x2="67.0622" y2="72.4506" gradientUnits="userSpaceOnUse">
<stop stop-color="#BDAEFF"/>
<stop offset="1" stop-color="#D4CBF6"/>
</linearGradient>
<clipPath id="clip0_799_9679">
<rect width="89" height="71" fill="white" transform="translate(26 34)"/>
</clipPath>
</defs>
</svg>
