<svg width="140" height="140" viewBox="0 0 140 140" fill="none" xmlns="http://www.w3.org/2000/svg">
<rect width="140" height="140" rx="30" fill="white"/>
<path fill-rule="evenodd" clip-rule="evenodd" d="M34.1429 70.8672L38.8961 75.6679C39.6258 76.4057 39.6216 77.598 38.8835 78.3336C38.5187 78.6972 38.0399 78.879 37.5612 78.879C37.0783 78.879 36.5954 78.693 36.2285 78.323L31.3487 73.3934L29.8134 74.9302C29.0796 75.6637 27.8923 75.6637 27.1585 74.9281C26.4267 74.1924 26.4267 73.0022 27.1605 72.2666L28.5608 70.8651C27.5085 69.9201 26.1821 68.5757 25.1656 67.0431C24.1471 68.5778 22.8185 69.9265 21.7641 70.8715L26.5173 75.6722C27.247 76.4099 27.2428 77.6022 26.5068 78.3336C26.142 78.6972 25.6633 78.879 25.1846 78.879C24.7017 78.879 24.2188 78.693 23.8518 78.323L18.972 73.3934L17.4368 74.9302C16.7029 75.6637 15.5157 75.6637 14.7818 74.9281C14.05 74.1924 14.05 73.0022 14.7839 72.2666L16.1841 70.8651C14.204 69.0894 11.2558 65.9122 11.22 62.7053C11.1968 60.6886 11.9728 58.7776 13.4047 57.3253C14.8619 55.8477 16.8927 55 18.9762 55C21.0597 55 23.0905 55.8477 24.5477 57.3253C24.7713 57.5536 24.9737 57.7946 25.1656 58.0441C25.3575 57.7946 25.56 57.5536 25.7835 57.3253C27.2407 55.8477 29.2715 55 31.355 55C33.4385 55 35.4693 55.8477 36.9265 57.3253C38.3605 58.7776 39.1365 60.6865 39.1133 62.7032C39.0754 65.9122 36.123 69.0915 34.1429 70.8672ZM14.9758 62.6609C14.9948 64.2633 17.0635 66.6562 18.9784 68.3178C20.891 66.6562 22.9598 64.2633 22.9788 62.6609C22.9914 61.6589 22.5992 60.7034 21.8779 59.972C21.1082 59.194 20.0791 58.7649 18.9762 58.7649C17.8733 58.7649 16.8442 59.194 16.0766 59.972C15.3554 60.7034 14.9652 61.6589 14.9758 62.6609ZM27.3566 62.6609C27.3736 64.2633 29.4444 66.6562 31.3571 68.3178C33.2698 66.6562 35.3406 64.2633 35.3596 62.6609C35.3723 61.6589 34.98 60.7034 34.2589 59.972C33.4891 59.194 32.46 58.7649 31.3571 58.7649C30.2563 58.7649 29.2251 59.194 28.4575 59.972C27.7362 60.7034 27.3462 61.6589 27.3566 62.6609Z" fill="#684FFF"/>
<path d="M14.7621 77.064C14.7621 78.1062 13.9207 78.9497 12.8811 78.9497C11.8414 78.9497 11 78.1041 11 77.064C11 76.024 11.8414 75.1784 12.8811 75.1784C13.9207 75.1784 14.7621 76.0219 14.7621 77.064Z" fill="#684FFF"/>
<path d="M119.618 73.7831C119.618 76.9479 120.923 78.394 123.396 78.394C124.632 78.394 126.007 78.1883 127.177 77.5335C127.725 77.1893 128 76.7759 128 76.3288C128 76.1568 127.966 75.9847 127.862 75.8126L127.484 75.0906C127.21 74.5744 126.9 74.4023 126.523 74.4023C126.261 74.4023 125.974 74.4758 125.644 74.5607L125.643 74.5608C125.583 74.5763 125.521 74.5921 125.458 74.608C125.286 74.6415 125.081 74.6772 124.909 74.6772C124.016 74.6772 123.57 73.9196 123.57 72.1651V56.2739C123.57 55.5855 122.986 55 122.298 55H120.89C120.202 55 119.618 55.5855 119.618 56.2739V73.7831Z" fill="#684FFF"/>
<path fill-rule="evenodd" clip-rule="evenodd" d="M110.195 62.1917C114.456 62.1917 117.205 65.4929 117.205 70.07C117.205 74.7837 113.975 78.4312 109.028 78.4333C107.653 78.4333 106.312 78.192 105.419 77.6757V83.6632C105.419 84.3516 104.835 84.9371 104.147 84.9371H102.739C102.051 84.9371 101.467 84.3516 101.467 83.6632V63.8433C101.467 63.155 102.051 62.5694 102.739 62.5694H104.147C104.835 62.5694 105.419 63.155 105.419 63.9461C106.381 63.0164 108.202 62.1917 110.195 62.1917ZM108.684 74.7501C111.434 74.7501 113.014 72.7543 113.014 70.1729C113.014 67.6965 111.57 65.9063 108.959 65.9084C107.617 65.9084 106.381 66.5275 105.419 67.5937V73.8561C106.486 74.5445 107.379 74.7501 108.684 74.7501Z" fill="#684FFF"/>
<path d="M75.235 71.0321L72.0392 63.5315C71.7982 62.9459 71.2156 62.5682 70.5953 62.5682H69.1179C68.2923 62.5682 67.6741 63.2565 67.6741 64.012C67.6741 64.2177 67.7432 64.4255 67.8124 64.5976L74.0321 78.0522L73.6884 78.877C73.0346 80.495 72.3137 81.2863 71.3183 81.2863C71.18 81.2863 71.0082 81.2863 70.872 81.2527C70.5618 81.1834 70.2873 81.1498 70.0819 81.1498C69.6356 81.1498 69.361 81.322 69.0844 81.9075L68.638 82.8372C68.5689 82.9736 68.5354 83.1478 68.5354 83.2842C68.5354 83.662 68.7407 84.0754 69.1536 84.2811C69.9771 84.6945 70.872 84.9359 71.7647 84.9359C74.0321 84.9359 75.476 83.8341 77.7434 78.0543L83.0016 64.6689C83.0704 64.4633 83.1041 64.2912 83.1041 64.0834C83.1041 63.2922 82.45 62.5703 81.593 62.5703H80.5955C79.839 62.5703 79.1517 63.0508 78.9128 63.7749L76.5426 71.0006C76.2775 71.7646 76.1395 72.4973 76.0077 73.1967L75.9936 73.2714C75.941 73.1069 75.8901 72.9443 75.8396 72.7826C75.6567 72.1977 75.4779 71.6255 75.235 71.0321Z" fill="#684FFF"/>
<path d="M91.8103 71.0321L88.6145 63.5315C88.3735 62.9459 87.7913 62.5682 87.1731 62.5682H85.6957C84.8702 62.5682 84.252 63.2565 84.252 64.012C84.252 64.2177 84.3208 64.4255 84.3897 64.5976L90.6098 78.0522L90.2663 78.877C89.6122 80.495 88.8915 81.2863 87.8961 81.2863C87.7576 81.2863 87.5855 81.2863 87.4492 81.2527C87.1394 81.1834 86.8647 81.1498 86.6596 81.1498C86.2128 81.1498 85.9389 81.322 85.662 81.9075L85.2159 82.8372C85.1463 82.9736 85.1126 83.1478 85.1126 83.2842C85.1126 83.662 85.3185 84.0754 85.7309 84.2811C86.5549 84.6945 87.4492 84.9359 88.3421 84.9359C90.6098 84.9359 92.0536 83.8341 94.3213 78.0543L99.579 64.6689C99.6479 64.4633 99.6815 64.2912 99.6815 64.0834C99.6815 63.2922 99.0274 62.5703 98.1705 62.5703H97.1728C96.4169 62.5703 95.7291 63.0508 95.4903 63.7749L93.1201 71.0006C92.8551 71.7646 92.7174 72.4973 92.5849 73.1967L92.5715 73.2714C92.5146 73.0967 92.4607 72.924 92.4068 72.7524C92.2257 72.1778 92.0491 71.6155 91.8103 71.0321Z" fill="#684FFF"/>
<path fill-rule="evenodd" clip-rule="evenodd" d="M51.8823 55.213C53.6007 55.1773 55.7277 55.1437 57.0333 55.1437C64.1122 55.1437 66.344 59.3432 66.3461 63.2992C66.3461 67.3937 63.2886 71.1104 57.5509 71.1104C56.83 71.1104 55.4553 71.1104 54.4242 71.0076V77.1945C54.4242 77.8829 53.8396 78.4684 53.1522 78.4684H51.4695C50.7821 78.4684 50.1974 77.8829 50.1974 77.1945V70.527L48.8039 70.3675C47.7938 70.2521 47.0667 69.3392 47.1819 68.3255L47.2155 68.0359C47.3307 67.0243 48.2422 66.2961 49.2544 66.4115L50.1974 66.5185V56.9003C50.1974 55.979 50.9602 55.213 51.8823 55.213ZM54.4242 66.9823C55.4197 67.0851 56.4507 67.1545 57.4126 67.1545C59.921 67.1545 61.8783 65.9498 61.8804 63.2656C61.8804 60.7534 60.3338 59.0997 57.4482 59.0997C56.7965 59.0997 55.2143 59.1375 55.2143 59.1375C54.7973 59.1627 54.4242 59.5173 54.4242 59.9413V66.9823Z" fill="#684FFF"/>
</svg>
