<svg width="140" height="140" viewBox="0 0 140 140" fill="none" xmlns="http://www.w3.org/2000/svg">
<rect width="140" height="140" rx="30" fill="white"/>
<g clip-path="url(#clip0_3529_4375)">
<path d="M53.9182 103.545C53.8318 103.944 54.4414 104.283 54.749 104.309C55.4276 104.366 56.4477 104.204 57.1405 104.196C58.3718 104.182 58.6816 104.253 59.7925 104.507C60.1526 104.589 60.5653 104.484 60.9483 104.554C61.2187 104.603 61.4135 104.812 61.6368 104.851C62.1337 104.939 62.925 104.452 62.9962 105.074C61.8852 105.054 60.7688 105.101 59.6568 105.08C59.1621 105.07 58.6914 104.879 58.1354 104.971C57.8454 105.02 57.7118 105.243 57.4689 105.288C57.054 105.367 56.4531 105.204 56.0722 105.295C55.9891 105.315 56.0044 105.488 55.9223 105.508C55.4911 105.611 54.7545 105.41 54.3232 105.513C54.24 105.532 54.2564 105.706 54.1733 105.727C53.9314 105.787 53.5067 105.564 53.5921 105.946C53.8099 105.922 54.078 105.992 54.2827 105.944C54.3659 105.925 54.3528 105.75 54.4283 105.729C54.8256 105.619 54.7873 105.926 54.8694 105.944C55.039 105.983 55.6509 105.979 55.8413 105.955C56.0504 105.929 55.9453 105.746 56.1543 105.719C56.5965 105.663 57.2697 105.821 57.6735 105.726C57.7677 105.704 57.7097 105.488 57.9089 105.497C58.3073 105.514 58.64 105.827 59.3416 105.737C59.5506 105.709 59.4456 105.528 59.6546 105.502C59.8637 105.475 60.8028 105.468 60.9582 105.508C61.0709 105.538 60.9834 105.708 61.0841 105.73C61.3314 105.782 61.211 105.581 61.2701 105.54C61.5262 105.361 66.2732 105.546 66.9835 105.625C71.7239 105.666 76.4927 105.361 81.0995 105.727C81.2933 105.742 81.4761 105.765 81.5899 105.948C69.7351 105.404 57.7819 105.732 45.9917 106.822C43.2784 107.073 40.6078 107.506 37.9054 107.583C37.8397 107.585 37.8551 107.783 37.7708 107.804C37.345 107.909 36.4366 107.859 35.9408 107.924C32.2281 108.41 28.3043 109.329 24.6103 109.661C24.5742 109.664 24.537 109.659 24.5008 109.661C24.3925 109.668 24.2819 109.658 24.1725 109.661C23.8529 109.67 23.3034 109.527 23.4074 109.879C19.4409 110.532 15.3025 111.443 11.3754 112.336C7.55657 113.204 3.77938 114.209 0.00219727 115.231V108.35H0.111649C0.294434 108.349 0.476124 108.352 0.658909 108.35C0.841694 108.348 1.02667 108.364 1.20617 108.35C1.34627 108.339 1.50059 108.256 1.64398 108.241C5.68275 107.804 9.69745 107.095 13.7297 106.603C21.3191 105.678 29.007 104.977 36.6412 104.418C36.7496 104.411 36.8612 104.426 36.9696 104.418C37.078 104.411 37.1896 104.426 37.298 104.418C42.8373 104.02 48.369 103.68 53.9215 103.545H53.9182Z" fill="#FC6F83"/>
<path d="M80.4943 103.326C81.0755 103.339 81.6622 103.316 82.2444 103.326C82.39 103.328 82.5367 103.323 82.6823 103.326C83.6159 103.346 84.5484 103.502 85.5258 103.436L85.7447 103.545C85.8673 103.641 88.4241 103.522 88.8663 103.541C93.0353 103.718 97.2175 104.019 101.384 104.31C101.529 104.32 101.678 104.3 101.822 104.31C102.248 104.341 102.774 104.384 103.244 104.419C106.68 104.674 110.493 104.868 113.914 105.284C114.122 105.309 114.018 105.494 114.227 105.52C114.788 105.591 115.5 105.462 116.092 105.513C119.472 105.799 122.954 106.532 126.32 106.603C126.731 106.923 127.283 106.765 127.741 106.822C130.702 107.187 133.632 107.641 136.573 108.105C137.707 108.285 138.858 108.384 139.99 108.57C139.986 110.789 140.041 113.019 139.934 115.235C132.924 113.324 125.837 111.686 118.686 110.349C106.52 108.075 93.9503 106.515 81.5888 105.949C81.4761 105.766 81.2922 105.743 81.0985 105.728C76.4917 105.362 71.7228 105.667 66.9825 105.626C66.2721 105.549 61.5252 105.363 61.2691 105.541C61.21 105.582 61.3304 105.782 61.083 105.731C60.9812 105.71 61.0688 105.539 60.9571 105.509C60.8017 105.469 59.855 105.476 59.6536 105.503C59.4522 105.529 59.5496 105.71 59.3405 105.738C58.6389 105.828 58.3062 105.516 57.9078 105.498C57.7097 105.49 57.7677 105.705 57.6725 105.727C57.2686 105.821 56.5955 105.664 56.1533 105.72C55.9442 105.746 56.0493 105.93 55.8403 105.956C55.6498 105.98 55.038 105.985 54.8683 105.945C54.7862 105.927 54.8245 105.619 54.4272 105.73C54.3517 105.751 54.3648 105.926 54.2817 105.945C54.077 105.993 53.8088 105.924 53.591 105.948C53.5056 105.565 53.9292 105.788 54.1722 105.728C54.2554 105.707 54.239 105.534 54.3222 105.514C54.7534 105.411 55.49 105.612 55.9213 105.509C56.0044 105.49 55.9891 105.316 56.0712 105.296C56.4521 105.204 57.0541 105.367 57.4678 105.29C57.7108 105.244 57.8432 105.021 58.1344 104.973C58.6904 104.88 59.161 105.071 59.6558 105.081C60.7678 105.103 61.8842 105.056 62.9951 105.075C62.924 104.453 62.1327 104.94 61.6357 104.852C61.4125 104.813 61.2187 104.604 60.9473 104.555C60.5642 104.485 60.1516 104.59 59.7915 104.508C58.6816 104.254 58.3708 104.184 57.1395 104.197C56.4477 104.205 55.4265 104.368 54.7479 104.31C54.4404 104.284 53.8307 103.946 53.9172 103.546C55.1868 103.515 57.3868 103.673 58.4616 103.557C58.6696 103.534 58.5678 103.346 58.7769 103.319C59.3909 103.241 60.2129 103.36 60.8663 103.332C67.3677 103.044 73.9874 103.182 80.4932 103.327L80.4943 103.326Z" fill="#FC7B68"/>
<path d="M116.475 120.802C115.252 120.745 113.527 120.704 112.32 120.802C112.471 120.637 112.709 120.599 112.922 120.583C113.705 120.523 114.989 120.514 115.77 120.576C116.05 120.599 116.242 120.644 116.475 120.801V120.802Z" fill="#FC7B68"/>
<path d="M24.1703 109.661C24.2655 110.049 23.7216 109.827 23.4052 109.879C23.3024 109.527 23.8507 109.671 24.1703 109.661Z" fill="#F9ADA8"/>
<path d="M117.351 121.02C117.037 120.97 116.491 121.189 116.586 120.802C117.163 120.839 117.059 120.921 117.351 121.02Z" fill="#FC7B68"/>
<path d="M24.4985 109.661C24.5348 109.659 24.5722 109.664 24.6085 109.661H24.4985Z" fill="#F9ADA8"/>
<path d="M56.8712 9.83033C65.1041 7.82449 73.4104 8.03765 81.4541 10.6742C82.4107 10.9879 83.6541 11.6503 84.5395 11.8646C84.719 11.9083 84.939 11.8023 84.9631 11.8154C84.9883 11.8296 85.0211 12.0307 85.1535 12.1094C85.5355 12.3368 85.9909 12.4975 86.4002 12.6702C86.6957 12.7948 87.0963 13.0484 87.3842 13.1075C87.4181 13.114 87.4575 13.1053 87.4936 13.1075L91.6408 15.5746C92.5054 16.261 93.5266 16.8218 94.3836 17.4766C94.7831 17.7816 95.2122 18.0778 95.5865 18.35C95.6018 18.3609 95.7354 18.5019 95.8054 18.5686C96.3439 19.078 97.0346 19.6048 97.5555 20.0978C97.8894 20.4126 98.5286 21.0619 98.8679 21.4085C101.404 23.9991 104.094 27.7146 105.867 30.9108C107.353 33.59 108.632 36.5162 109.506 39.4556C110.372 42.3731 110.906 45.3594 111.226 48.3862C111.223 48.4223 111.228 48.4594 111.226 48.4955C111.166 49.3984 111.337 50.3899 111.336 51.3354C111.336 51.8798 111.348 52.4296 111.336 52.9739C111.282 55.3613 111.006 57.7158 110.679 60.0736C110.503 60.7306 109.872 62.9266 109.914 63.4601C109.808 63.5519 109.815 63.6623 109.804 63.788C109.801 63.8241 109.805 63.8612 109.804 63.8973C108.832 66.8377 107.785 69.753 106.324 72.4902C105.89 73.3023 104.78 74.7824 104.53 75.5039C104.221 76.3893 105.601 77.8628 106.254 78.4202C108.642 80.4622 112.456 81.6198 115.493 82.2472C115.669 82.4199 114.891 83.078 114.726 83.2299C114.398 83.5327 114.176 83.5688 113.852 83.994C113.138 84.3558 112.498 84.8674 111.842 85.3232C97.1221 95.547 75.7407 100.845 58.294 95.7907C57.1503 95.4595 55.3717 94.5107 54.2476 94.3708C54.2115 94.3664 54.1743 94.3752 54.1381 94.3708L48.2682 91.5495C46.0704 90.1602 43.3517 88.7511 41.561 87.2711C38.0728 84.3886 33.2306 79.5254 30.8435 75.693C30.7964 75.6175 30.8818 75.294 30.6246 75.2557C30.618 75.2197 30.6333 75.1792 30.6246 75.1464C30.502 74.6687 30.1331 74.4676 29.9679 74.1637C28.6665 71.7633 27.4023 69.1081 26.4676 66.5175C26.4556 66.4847 26.4785 66.441 26.4676 66.4082C26.2399 65.7665 26.0057 65.2353 25.8109 64.551C25.4574 63.3103 25.1958 61.9942 24.9364 60.7284C24.2884 57.5715 23.959 54.1304 24.0575 50.8391C24.0848 49.9264 24.2851 48.8617 24.2807 47.949C24.2807 47.8396 24.2807 47.7303 24.2807 47.621C24.3979 47.1302 24.4241 46.5946 24.4996 46.0918C25.9061 36.7359 30.1014 27.7004 36.9673 21.1341C37.1479 20.9614 37.5146 20.5493 37.624 20.3154C37.7893 20.2607 37.8418 20.1645 37.9524 20.0967C38.3486 19.8519 38.2052 19.8388 38.3902 19.6595C38.5598 19.4955 38.7897 19.2408 38.9375 19.1129C39.025 19.0375 39.1038 18.937 39.1564 18.8943C42.7508 15.967 48.0307 12.7194 52.4986 11.1399C53.1487 10.9103 53.8054 10.6819 54.4676 10.484C54.5015 10.4742 54.5431 10.4938 54.577 10.484C55.2951 10.2719 56.0426 10.0063 56.7639 9.82815C56.7978 9.8194 56.8383 9.83689 56.8733 9.82815L56.8712 9.83033ZM69.9944 26.323C64.3741 25.2518 58.2765 27.0653 55.8861 32.5493C55.1506 32.5537 54.3308 32.1001 53.6347 32.0126C52.2764 31.841 51.6426 32.0378 50.443 32.4116C50.1081 32.5155 49.0705 32.5253 49.0103 32.5636C48.8943 32.6379 48.9085 33.1823 48.8855 33.2052C48.7914 33.2992 48.2923 33.0139 48.1161 33.1407C47.999 33.2249 47.9869 33.5375 47.8862 33.6818C45.649 36.8758 43.634 44.0553 43.4173 48.0594C43.4086 48.2277 43.4009 48.4419 43.4173 48.6059C43.2597 48.7655 43.3122 48.959 43.3079 49.1525C43.1962 53.7741 43.1722 56.8545 44.2918 61.3854C44.3652 61.6816 44.4287 61.9636 44.5107 62.2587C44.5491 62.3954 44.595 62.5014 44.6202 62.5867C44.653 62.7015 44.5863 62.9124 44.6202 63.0239C44.6607 63.1584 44.8347 63.2272 44.8391 63.2425C45.7782 66.1928 46.8541 68.9726 49.3223 71.0538C52.2501 73.5232 56.3217 73.9221 59.9325 72.9635C60.077 72.9646 60.2259 72.9711 60.3703 72.9635L60.807 73.2903C60.2992 73.2685 59.706 73.4302 60.1416 74.0118C60.3572 74.2993 60.9548 74.1954 61.1409 74.3277C61.2569 74.4097 61.2 74.6458 61.3138 74.7223C61.4473 74.813 61.941 75.0163 62.2376 75.1956C62.3744 75.2776 62.5988 75.2514 62.7323 75.3574C62.9862 75.5607 62.9928 76.4603 63.1581 76.68C63.2993 76.8659 64.2449 76.9096 64.4814 77.1052C64.7397 77.3184 64.744 78.2202 64.906 78.429C64.9411 78.4738 65.8758 78.7482 66.0027 78.7602C66.3519 78.7919 66.631 78.6301 66.8838 78.6378C67.117 78.6443 67.222 78.8225 67.4004 78.8334C68.0166 78.8695 69.1922 78.5317 69.8138 78.4093C73.6644 77.6551 76.8637 76.3127 80.2753 74.4938C80.9517 74.1331 81.6609 73.8227 82.3198 73.4226C83.6059 72.6432 87.51 69.8864 88.1503 68.7048C88.3725 68.6381 88.39 68.7212 88.4787 68.3768C88.5236 68.3473 88.552 68.2959 88.5881 68.2675C88.8486 68.0631 88.8092 68.0434 88.9165 67.9396C93.427 63.5377 93.9699 58.0755 91.4317 52.4296C91.3923 51.7857 91.9943 51.6699 92.2734 51.413C92.4233 51.2753 92.5733 50.908 92.7922 50.7856C93.0811 50.6238 93.3351 50.7112 93.6284 50.6347C94.0192 50.5331 94.0772 49.3908 94.1899 49.0147C94.2829 48.7076 94.5544 48.5895 94.6003 48.0047C94.6332 47.5904 94.5215 44.098 94.4362 43.9121C94.3825 43.7963 94.1899 43.7044 94.1155 43.5766C92.8666 41.4308 91.7305 40.6164 90.1172 38.9101C90.011 38.7986 89.9563 38.5319 89.8698 38.4772C89.7593 38.4073 89.5437 38.4674 89.397 38.3515C89.2678 38.2499 89.2635 37.9963 89.1266 37.8553C87.3853 36.0516 85.1809 34.436 83.19 32.9702C82.5781 32.5198 82.0768 31.9809 81.3676 31.6771C81.3862 31.3152 81.2384 31.5131 81.1487 31.4584C80.3114 30.9458 79.5244 30.3336 78.6707 29.8374C76.127 28.3584 72.8873 26.8762 69.9934 26.3252L69.9944 26.323Z" fill="#FDFCFD"/>
<path d="M122.929 18.4579C121.93 17.3801 121.782 15.958 121.233 14.6342C121.013 14.6408 121.775 17.7703 121.4 18.3814C121.237 18.647 119.457 18.8317 119.865 17.9124C120.027 17.8829 120.701 17.9529 120.741 17.9124C121.036 17.6162 120.002 14.209 120.582 13.4406C121.163 12.671 121.918 14.2101 122.106 14.6375C122.428 15.3732 122.537 16.3329 123.036 16.9298C123.069 15.5535 121.853 11.6632 122.655 10.5963C122.836 10.3558 122.976 10.3329 123.26 10.4214C124.3 10.7439 125.445 14.5227 125.862 15.5831C125.908 15.6989 125.952 15.9602 126.098 15.946C126.097 13.8625 125.363 11.8425 125.226 9.77431C125.171 8.95121 124.969 6.42833 126.426 7.04812C127.558 7.52908 128.957 13.5717 129.545 14.855L129.708 14.9644C129.528 13.9882 129.617 13.0952 129.709 12.1245C129.853 11.7047 130.242 11.3101 130.366 10.9232C130.56 10.8171 130.989 10.6258 131.198 10.6018C131.352 10.5843 132.045 10.6477 132.115 10.7045C132.132 10.7188 132.191 11.0478 132.224 11.1418C132.336 11.4457 132.516 11.931 132.553 12.2338C132.489 12.2535 132.379 12.3464 132.334 12.3431C132.064 12.3201 132.091 12.1234 131.677 12.3431C131.505 12.4338 131.446 12.5082 131.349 12.671C131.076 13.129 131.111 13.4602 131.13 13.9817C131.058 14.69 131.181 15.5033 131.134 16.2258C131.051 17.5146 130.633 19.7817 129.227 17.7944C128.293 16.475 127.492 13.3236 127.083 11.6883C127.031 11.4795 126.908 10.5286 126.865 10.4859C126.853 10.475 126.549 10.4761 126.537 10.487C126.472 10.5471 126.744 12.0195 126.865 12.2338C126.835 13.4712 127.36 15.1229 127.416 16.4346C127.44 17.0085 127.504 18.8263 126.508 18.5519C125.419 18.2524 124.268 14.2429 123.813 13.1509C123.757 13.0175 123.796 12.8131 123.584 12.7792C123.49 14.6299 124.713 16.9768 123.474 18.5683C123.438 18.565 123.4 18.5727 123.364 18.5683C123.218 18.5486 123.073 18.4852 122.926 18.459L122.929 18.4579Z" fill="#FDFCFD"/>
<path d="M101.821 104.309C101.976 104.155 103.186 104.157 103.244 104.2C103.261 104.213 103.233 104.357 103.244 104.418C102.774 104.383 102.248 104.34 101.822 104.309H101.821Z" fill="#FE4F3D"/>
<path d="M126.319 106.603C126.557 106.608 127.685 106.56 127.741 106.603C127.759 106.616 127.731 106.76 127.741 106.821C127.283 106.765 126.731 106.922 126.32 106.603H126.319Z" fill="#FE4F3D"/>
<path d="M102.366 103.108H101.711V103.325H102.366V103.108Z" fill="#FE4F3D"/>
<path d="M115.601 125.499C114.362 125.456 113.075 125.614 111.844 125.569C111.108 125.543 112.121 124.749 112.352 124.604C113.484 123.896 115.561 123.799 115.6 125.499H115.601Z" fill="#FDFCFD"/>
<path d="M26.6855 122.55C27.4352 121.662 28.8362 120.934 30.0161 120.906C33.0326 120.833 34.1578 123.446 33.246 126.044C32.9713 126.246 32.3978 124.844 31.9841 124.962L26.2455 124.895L26.2543 125.308L30.293 129.704C29.2937 130.235 28.4148 130.363 27.3422 129.976C24.2644 128.865 24.9726 124.578 26.6855 122.549V122.55Z" fill="#FDFCFD"/>
<path d="M50.9652 121.02C53.1345 120.537 55.1714 121.481 55.4374 123.818C55.5348 124.675 55.2229 125.231 55.2305 126.044C54.4863 126.073 54.5158 125.055 53.858 124.962C52.5927 124.783 50.0217 124.89 48.6689 124.952C48.4872 124.961 48.3033 124.946 48.1227 124.952C48.0122 125.312 48.3602 125.368 48.45 125.498C49.1483 126.502 50.3194 127.677 51.1797 128.613C51.5289 128.992 52.4811 129.469 51.9503 129.976C49.7207 130.418 47.8535 130.142 47.211 127.664C46.818 126.15 47.5087 123.706 48.5605 122.549C49.0082 122.056 50.2275 121.19 50.8568 121.019C50.8908 121.011 50.9313 121.027 50.9663 121.019L50.9652 121.02Z" fill="#FDFCFD"/>
<path d="M66.7143 34.4056C66.5435 34.3149 66.1933 34.4078 66.2775 34.0788C66.6223 34.0274 66.3979 34.4307 66.8642 34.2963C66.9627 34.2679 66.8664 33.9192 67.3699 34.1881C67.3677 34.3805 67.0623 34.2307 67.1521 34.5149C67.0426 34.5149 66.9332 34.5149 66.8237 34.5149C66.7898 34.4996 66.7569 34.4286 66.7143 34.4056Z" fill="#FAC3C1"/>
<path d="M50.4431 32.4116C51.6426 32.0378 52.2764 31.8405 53.6345 32.0132C54.3293 32.1017 55.1502 32.5535 55.8855 32.5483C55.3952 33.6721 54.8486 35.7317 54.6833 36.9712C54.6538 37.1887 54.6176 37.6263 54.7927 37.7925C54.1022 39.3939 53.6609 41.7408 53.3708 43.4722C53.1498 44.7914 53.022 45.8527 52.9333 47.1851C52.9333 47.1971 52.8349 47.2092 52.824 47.4038C52.8175 47.5108 52.827 47.6199 52.823 47.728C52.8239 47.7285 52.825 47.7285 52.8259 47.729L52.825 47.731C52.7024 50.5337 52.7478 53.7119 52.8201 56.5288C52.8464 57.5814 53.117 58.9391 53.0437 59.9644L53.0427 59.9663L53.6042 65.3579C54.3122 69.1894 55.2761 72.9203 59.9294 72.9624C56.3207 73.9197 52.2509 73.5207 49.323 71.0522C46.8564 68.9711 45.7796 66.1917 44.8406 63.2417C45.3011 62.9783 45.0652 62.8186 44.6208 63.0229C44.5869 62.9115 44.6537 62.7002 44.6208 62.5854L44.5115 62.2573C44.4294 61.9623 44.366 61.6804 44.2927 61.3843V61.3813C43.1735 56.8515 43.1987 53.7698 43.3103 49.1499C43.7759 49.2196 43.4355 48.7541 43.4197 48.604C43.4033 48.4415 43.41 48.2263 43.4187 48.0581L43.4177 48.0591C43.6346 44.0539 45.6494 36.8761 47.8865 33.6821C47.9871 33.5379 47.9991 33.2255 48.116 33.1411C48.2921 33.0144 48.791 33.3002 48.8855 33.2056C48.9085 33.1826 48.8934 32.6384 49.0105 32.564C49.0718 32.5257 50.1082 32.5155 50.4431 32.4116ZM45.2791 60.6206C45.6408 60.5463 45.4285 60.9762 45.7126 61.1138C46.4765 61.4843 48.3837 61.0232 49.2693 60.9487C49.5366 60.9263 49.7912 60.9243 50.0388 60.9272C49.7917 60.9242 49.538 60.9257 49.2712 60.9478C48.3847 61.0221 46.4765 61.4834 45.7136 61.1128C45.446 60.9826 45.6166 60.5974 45.3406 60.6118L45.2791 60.6206ZM44.4636 60.9526C44.5017 60.942 44.498 61.1466 44.5818 61.1685C44.8129 61.2268 44.9946 61.2399 45.1189 61.1948C44.9946 61.2392 44.8131 61.2257 44.5828 61.1675C44.4986 61.1459 44.5035 60.936 44.4636 60.9526ZM45.2283 61.1265C45.2128 61.1428 45.1951 61.1565 45.1755 61.1685C45.1951 61.1564 45.2129 61.1429 45.2283 61.1265ZM51.1189 60.9214C50.7595 60.9459 50.4069 60.9318 50.0398 60.9272C50.4069 60.9316 50.7595 60.9459 51.1189 60.9214ZM51.6531 60.8511C51.5477 60.8725 51.4437 60.8887 51.3406 60.9009C51.4437 60.8887 51.5476 60.8725 51.6531 60.8511ZM52.2693 60.6675C52.1563 60.7129 52.0451 60.7491 51.9363 60.7808C52.0448 60.7492 52.1557 60.7136 52.2683 60.6685C52.2982 60.6564 52.3274 60.6402 52.3562 60.6226C52.3278 60.6398 52.2988 60.6557 52.2693 60.6675ZM53.0359 60.2847C52.7949 60.2628 52.6274 60.4235 52.4607 60.5503C52.6272 60.4236 52.7955 60.2635 53.0369 60.2856L53.0359 60.2847ZM51.7859 48.1587C51.792 48.1519 51.7983 48.1427 51.8054 48.1313C51.7985 48.1426 51.7919 48.1516 51.7859 48.1587ZM51.9343 47.9106C51.8779 47.9963 51.8374 48.0789 51.8074 48.1284C51.8376 48.0792 51.8787 47.995 51.9363 47.9077L51.9343 47.9106Z" fill="url(#paint0_linear_3529_4375)"/>
<path d="M67.1509 34.5146V34.624C67.0644 34.589 66.9746 34.5846 66.8225 34.5146C66.932 34.5146 67.0414 34.5146 67.1509 34.5146Z" fill="#F9ADA8"/>
<path d="M55.8882 32.5469C58.2787 27.0641 64.3763 25.2512 69.9966 26.3213L69.9946 26.3232L70.5415 26.4365C73.2912 27.0588 76.2878 28.4485 78.6724 29.835C79.526 30.3312 80.3127 30.9434 81.1499 31.4561C81.1296 31.5775 81.1382 31.6335 81.1616 31.6582C81.139 31.6329 81.1309 31.5765 81.1509 31.457L81.1499 31.4561C81.2396 31.5107 81.3872 31.3131 81.3687 31.6748C82.0767 31.9797 82.5781 32.5175 83.1909 32.9678C85.1818 34.4336 87.3861 36.0499 89.1274 37.8535C89.2642 37.9945 89.2689 38.2479 89.3979 38.3496C89.5444 38.4653 89.7599 38.4052 89.8706 38.4746C89.9571 38.5293 90.0125 38.7967 90.1187 38.9082C91.7318 40.6143 92.8679 41.4287 94.1167 43.5742C94.1911 43.7021 94.3834 43.7943 94.437 43.9102C94.5224 44.096 94.6349 47.5886 94.6021 48.0029C94.556 48.5875 94.2828 48.7056 94.1909 49.0127C94.0771 49.3889 94.0201 50.5312 93.6294 50.6328C93.3351 50.7092 93.0823 50.6216 92.7935 50.7832C92.5735 50.9056 92.4248 51.2734 92.2749 51.4111C91.9947 51.668 91.3937 51.7839 91.4331 52.4277C91.3258 52.1883 91.0352 51.7515 90.8853 51.4443C90.5351 50.7231 90.2809 50.1207 89.8618 49.4639C88.5702 47.4429 86.2304 45.4395 84.314 43.9727C83.8882 43.6469 83.3889 43.2495 82.9019 43.0342C82.4932 42.5367 80.883 41.462 80.2778 41.1768C80.2286 41.1538 80.1095 41.1996 80.0591 41.1768C79.9169 40.8001 79.9882 41.0661 79.8394 40.959C79.8 40.9305 79.7715 40.8747 79.73 40.8496C79.3251 40.6026 78.9371 40.3188 78.5278 40.085V39.9756C79.008 39.8838 79.3331 39.7769 79.8384 39.9756C79.893 39.9119 79.7842 39.0079 79.8618 38.7432C79.9538 38.4306 80.3632 38.438 80.395 38.1768C80.4782 37.4893 80.0716 36.7579 80.1919 36.0146C80.263 35.5719 80.5971 35.0578 80.688 34.7627C80.8082 34.3705 80.7371 33.6771 80.8364 33.3828C80.8933 33.2123 81.2154 33.1854 81.3774 33.0488C81.6977 32.7762 81.602 32.6305 81.4702 32.499C81.6015 32.6305 81.696 32.7766 81.3765 33.0479C81.2155 33.1844 80.8935 33.2116 80.8354 33.3809C80.7369 33.676 80.8074 34.3704 80.687 34.7617C80.5962 35.0569 80.2621 35.5721 80.1909 36.0137C80.0707 36.7568 80.4772 37.4883 80.394 38.1758C80.362 38.4366 79.9519 38.4303 79.8608 38.7412C79.7831 39.0057 79.8921 39.9101 79.8374 39.9746C79.332 39.777 79.0059 39.8828 78.5269 39.9746C78.4294 39.9932 78.3028 39.9626 78.1978 39.9746C77.8292 39.7813 77.8424 39.713 77.3237 39.5371C76.7261 38.7568 75.6322 38.6336 74.8354 38.1406C74.273 37.7931 74.0669 37.6767 73.4136 37.3838C73.252 37.3104 73.2757 37.1076 72.8394 37.1338C72.8087 37.0923 72.7628 37.0626 72.73 37.0244C72.4388 36.679 72.4606 36.9366 72.2329 36.8164C70.4653 35.8742 69.0015 35.3817 67.1519 34.6221V34.5117C67.0644 34.2316 67.3695 34.3784 67.3706 34.1865C66.8684 33.9185 66.9635 34.2656 66.8657 34.2949C66.3996 34.4283 66.6233 34.0249 66.2788 34.0771C66.1945 34.4061 66.5446 34.3147 66.7153 34.4043C66.6431 34.5814 66.3629 34.4295 66.2349 34.3945C63.7963 33.7201 60.0452 32.8554 57.7544 34.248C56.8076 34.8242 55.2288 36.7832 54.7954 37.791C54.6192 37.626 54.6555 37.1873 54.6851 36.9697C54.8514 35.7312 55.399 33.6716 55.8882 32.5469ZM67.646 33.9258C67.7289 34.1507 68.0523 34.0233 68.1958 34.1172C68.0534 34.0221 67.7302 34.1495 67.646 33.9258ZM81.3677 31.6748C81.3578 31.8638 81.2388 32.1074 81.2759 32.2539C81.2799 32.2697 81.2859 32.285 81.2935 32.2998C81.2862 32.2855 81.2807 32.2701 81.2769 32.2549C81.24 32.1084 81.3598 31.8647 81.3696 31.6758L81.3677 31.6748ZM68.5054 31.1738C68.4664 31.2725 68.4175 31.3619 68.3716 31.4502C68.4327 31.3344 68.4997 31.2164 68.5396 31.0713L68.5054 31.1738Z" fill="url(#paint1_linear_3529_4375)"/>
<path d="M90.885 51.4453C91.035 51.7525 91.3235 52.1893 91.4319 52.4287L91.4309 52.4277C93.9689 58.0735 93.4257 63.5357 88.9153 67.9375C88.562 67.9058 88.5554 67.9115 88.5872 68.2656C88.5511 68.2941 88.5216 68.3455 88.4768 68.375C88.3885 68.7175 88.3705 68.6335 88.1487 68.7012L88.1497 68.7021H88.1487C87.5071 69.8842 83.6044 72.6397 82.3186 73.4189C81.6598 73.8178 80.952 74.1296 80.2747 74.4902L80.2737 74.4893C76.8626 76.3078 73.6637 77.6502 69.8137 78.4043C69.192 78.5257 68.0157 78.8652 67.4006 78.8291C67.2222 78.8182 67.1172 78.6394 66.884 78.6328C66.6313 78.6252 66.3522 78.7874 66.0032 78.7559C65.8766 78.745 64.9464 78.4719 64.9065 78.4248C64.7445 78.216 64.7399 77.3138 64.4817 77.1006C64.2443 76.905 63.2994 76.8613 63.1584 76.6758C62.9932 76.4572 62.9866 75.5559 62.7327 75.3525C62.6002 75.2465 62.3744 75.2734 62.2375 75.1914C61.9409 75.0132 61.4483 74.8085 61.3137 74.7178C61.2001 74.6401 61.2568 74.4052 61.1409 74.3232C60.9558 74.1921 60.3574 74.2943 60.1418 74.0068C59.7066 73.4267 60.2981 73.2644 60.8069 73.2861L60.3704 72.959C64.6204 72.7229 69.9381 70.0992 73.7131 68.1523L73.7141 68.1562L73.7151 68.1553C76.4146 66.764 79.4621 65.0947 82.0247 63.46L82.0256 63.459C84.4805 61.8937 87.5274 59.6216 89.179 57.2246C90.3588 55.5117 91.0831 53.5626 90.885 51.4453ZM79.2561 73.9697C79.1825 74.0091 79.1158 74.0518 79.0637 74.0977C79.1159 74.0519 79.1825 74.009 79.2561 73.9697ZM79.8127 73.6631C79.7433 73.7436 79.5694 73.8174 79.3967 73.8994C79.5699 73.8173 79.7441 73.7438 79.8127 73.6631ZM74.0315 68.791C74.1381 68.7912 74.1918 68.8038 74.22 68.833C74.1929 68.803 74.1399 68.7906 74.0315 68.791ZM86.9026 68.4375C86.9302 68.5049 86.9577 68.5818 87.0032 68.6543C86.958 68.5817 86.9304 68.5048 86.9026 68.4375ZM73.7561 68.6084C73.81 68.5686 73.8937 68.5529 73.9543 68.4697L73.9553 68.4688C73.8943 68.5523 73.81 68.5677 73.7561 68.6084ZM81.9709 64.5459C82.0095 64.4604 82.2337 64.421 82.2454 64.374C82.2463 64.37 82.2455 64.3654 82.2463 64.3613C82.2456 64.3651 82.2462 64.3694 82.2454 64.373C82.2342 64.4202 82.0084 64.4598 81.9709 64.5459ZM82.927 63.4141C82.9184 63.5912 82.4311 63.9379 82.2454 63.6787V63.6797C82.4316 63.9395 82.921 63.5913 82.927 63.4141Z" fill="url(#paint2_linear_3529_4375)"/>
<path d="M43.4184 48.605C43.4337 48.7536 43.7752 49.2215 43.309 49.1515C43.3133 48.9581 43.2608 48.7646 43.4184 48.605Z" fill="#F9E4E1"/>
<path d="M44.6226 63.0226C45.0669 62.8182 45.3023 62.9778 44.8415 63.2413C44.8371 63.227 44.6631 63.1571 44.6226 63.0226Z" fill="#FAC3C1"/>
<path d="M88.9155 67.9374C88.8094 68.0412 88.8477 68.0609 88.5872 68.2653C88.5554 67.9122 88.5609 67.9057 88.9155 67.9374Z" fill="#FAC3C1"/>
<path d="M44.6224 62.5857C44.5972 62.5005 44.5512 62.3955 44.5129 62.2578L44.6224 62.5857Z" fill="#FAC3C1"/>
<path d="M52.8247 47.4032C52.8357 47.2097 52.9331 47.1966 52.9342 47.1846L52.8247 47.4032Z" fill="#FAC3C1"/>
<path d="M52.8237 61.4924H52.7165C52.6617 61.0377 52.8784 61.0377 52.8237 61.4924Z" fill="#FAC3C1"/>
<path d="M120.495 124.379C120.158 122.463 119.096 121.614 117.351 121.02C117.037 120.97 116.491 121.189 116.586 120.802C116.55 120.799 116.513 120.804 116.477 120.802C115.253 120.746 113.528 120.704 112.321 120.802C107.944 121.156 103.733 126.595 105.957 130.815C107.978 134.648 114.816 134.295 118.191 132.726C118.467 132.597 119.056 132.39 119.106 132.103C119.141 131.899 118.541 129.472 118.427 129.284C118.059 128.673 116.771 129.558 116.285 129.732C114.527 130.36 111.783 130.795 110.898 128.666H118.826C118.879 128.666 119.708 128.29 119.784 128.232C120.596 127.616 120.66 125.322 120.495 124.38V124.379ZM111.845 125.569C111.108 125.542 112.121 124.749 112.352 124.603C113.484 123.896 115.562 123.799 115.6 125.499C114.361 125.456 113.074 125.613 111.843 125.569H111.845Z" fill="#FA257C"/>
<path d="M100.345 120.911L96.4064 128.229C96.1919 128.293 96.2116 128.06 96.17 127.924C95.5691 125.942 95.3732 123.435 94.861 121.364C94.8358 121.264 94.7712 120.911 94.6574 120.911H89.1344C89.1235 121.283 89.2154 121.646 89.2986 122.004C90.1151 125.55 91.3071 129.037 92.1641 132.577C92.3458 133.064 92.7814 133.407 93.2903 133.472C94.0948 133.574 96.6505 133.58 97.4462 133.472C97.9606 133.402 98.5966 132.892 98.9151 132.482C100.745 129.411 102.682 126.406 104.534 123.348C105.003 122.574 105.566 121.741 105.867 120.911H100.345Z" fill="#FA267B"/>
<path d="M72.1825 117.307L66.8796 117.302C66.5994 117.326 66.5808 117.611 66.5261 117.83C66.1178 121.989 64.592 126.518 64.3075 130.632C64.071 131.013 64.0196 131.889 64.1137 132.303C64.1553 132.485 64.2659 132.517 64.3075 132.598C64.5242 133.015 64.5373 132.956 64.8547 133.253C64.8722 133.27 64.7934 133.43 64.985 133.508C65.1984 133.594 65.8475 133.676 66.1079 133.695C69.6903 133.939 73.5474 133.504 77.1593 133.692C77.5183 133.624 77.5829 132.523 77.6508 132.161C77.7843 131.443 77.8883 130.702 77.9791 129.977H69.9957L72.1836 117.307H72.1825Z" fill="#FA267B"/>
<path d="M79.6196 133.363H85.0879L87.1652 121.895H81.5876L79.6196 133.363Z" fill="#FA267B"/>
<path d="M39.1531 132.708C39.0174 132.545 38.9255 132.332 38.7711 132.16C38.4406 131.794 37.0823 130.619 37.0746 130.241C37.0692 129.959 37.6416 129.343 37.8189 129.029C39.7726 125.554 39.9872 120.49 36.2319 118.205C34.103 116.908 30.2788 116.868 27.8883 117.308C27.4013 117.398 26.8518 117.559 26.3768 117.711C26.2039 117.766 25.9861 117.736 25.9193 117.964C25.8832 117.966 25.846 117.96 25.8098 117.964C25.6128 117.986 25.4629 117.947 25.372 118.183C23.3165 118.664 21.0268 121.532 20.288 123.427C19.1617 126.32 19.2548 131.59 22.7474 132.819C22.952 133.113 23.3121 133.178 23.6219 133.257C23.6558 133.265 23.6963 133.248 23.7313 133.257C23.8824 133.456 24.4329 133.621 24.6715 133.683C27.0773 134.299 30.0631 133.952 32.3704 133.257C32.7097 133.155 33.1114 133.013 33.4638 133.038C33.5809 133.305 33.7582 133.633 34.068 133.691C35.1943 133.903 36.9192 133.535 38.1166 133.698C38.3618 133.538 39.8164 133.822 39.8109 133.526C39.8033 133.138 39.3304 132.925 39.152 132.71L39.1531 132.708ZM33.2471 126.044C32.9724 126.245 32.3988 124.844 31.9851 124.962L26.2466 124.894L26.2553 125.308L30.2941 129.704C29.2948 130.235 28.4159 130.363 27.3433 129.976C24.2655 128.865 24.9736 124.577 26.6866 122.549C27.4363 121.661 28.8373 120.933 30.0172 120.905C33.0337 120.831 34.1588 123.445 33.2471 126.043V126.044Z" fill="#FA267B"/>
<path d="M61.246 132.927C60.9352 132.555 58.9574 130.46 58.9508 130.253C59.382 129.416 59.9534 128.669 60.3135 127.789C61.3325 125.292 61.4638 122.106 59.8702 119.829C57.7151 116.749 52.411 116.681 49.1067 117.526C46.1515 117.815 42.9336 120.992 42.0295 123.729C40.4797 128.425 41.8851 132.686 47.0282 133.692C48.8604 134.05 50.7693 134.006 52.6059 133.692C52.7066 133.674 52.8379 133.713 52.9342 133.692C53.314 133.611 53.6632 133.466 54.0277 133.364C54.1262 133.337 54.1995 133.269 54.2466 133.255C54.4195 133.204 55.0751 133.021 55.1758 133.03C55.3652 133.049 55.5031 133.327 55.6683 133.473C55.8084 133.598 55.7165 133.657 56.0438 133.697C57.1328 133.833 59.729 133.786 60.8618 133.691C61.1344 133.668 61.3992 133.54 61.6827 133.583C61.7167 133.26 61.4168 133.132 61.246 132.928V132.927ZM55.2294 126.044C54.4852 126.073 54.5147 125.055 53.8569 124.962C52.5916 124.783 50.0206 124.89 48.6678 124.952C48.4861 124.961 48.3022 124.946 48.1216 124.952C48.0111 125.312 48.3591 125.368 48.4489 125.498C49.1472 126.502 50.3183 127.678 51.1786 128.613C51.5278 128.993 52.48 129.469 51.9492 129.976C49.7196 130.418 47.8524 130.143 47.2099 127.664C46.817 126.151 47.5076 123.706 48.5594 122.549C49.0071 122.056 50.2264 121.19 50.8557 121.019C50.8897 121.011 50.9302 121.027 50.9652 121.019C53.1345 120.536 55.1714 121.48 55.4374 123.817C55.5348 124.674 55.2229 125.23 55.2305 126.043L55.2294 126.044Z" fill="#FA267B"/>
<path d="M88.1492 117.089C87.9029 116.436 87.5352 115.851 86.7569 115.694C86.1298 115.567 84.4957 115.63 83.8871 115.836C81.5 116.643 80.9593 120.635 83.839 121.012C85.7916 121.267 87.5384 120.712 88.1492 118.727C88.3035 118.224 88.4644 117.964 88.3462 117.378C88.3133 117.213 88.17 117.142 88.1492 117.089Z" fill="#FA267B"/>
<path d="M139.989 86.9431C139.744 87.0163 143.526 84.8931 141 85C140.992 84.8754 139.718 85.1362 139.989 85.1952C139.99 84.9045 139.989 84.6115 139.989 84.3207C139.99 81.2644 139.989 78.2027 139.989 75.1463C139.99 72.8771 139.99 70.6078 139.99 68.3385C139.99 63.7989 139.989 59.2592 139.989 54.7217V0H0V108.35H0.109452C0.292237 108.349 0.473927 108.353 0.656712 108.35C0.837307 108.348 1.02447 108.365 1.20397 108.35C1.34298 108.339 1.4984 108.256 1.64068 108.241C5.67946 107.804 9.69416 107.096 13.7264 106.604C21.3158 105.679 29.0037 104.977 36.6379 104.419C36.7463 104.411 36.8579 104.426 36.9663 104.419C37.0747 104.411 37.1863 104.426 37.2947 104.419C42.834 104.021 48.3646 103.681 53.9182 103.545C55.1879 103.513 57.3879 103.672 58.4627 103.555C58.6706 103.533 58.5677 103.344 58.7779 103.318C59.3908 103.24 60.2139 103.359 60.8673 103.331C67.3688 103.043 73.9884 103.181 80.4943 103.326C81.0754 103.34 81.6621 103.316 82.2444 103.326C82.39 103.329 82.5355 103.323 82.6811 103.326C83.6158 103.346 84.5484 103.502 85.5247 103.436L85.7436 103.545C85.8662 103.641 88.424 103.521 88.8651 103.541C93.0342 103.718 97.2163 104.018 101.383 104.309C101.528 104.319 101.676 104.299 101.821 104.309C101.976 104.155 103.186 104.157 103.243 104.2C103.261 104.214 103.233 104.357 103.243 104.419C106.678 104.673 110.492 104.867 113.913 105.283C114.121 105.309 114.017 105.493 114.226 105.519C114.788 105.59 115.499 105.461 116.091 105.512C119.472 105.798 122.954 106.531 126.319 106.603C126.557 106.608 127.684 106.561 127.741 106.604C127.759 106.617 127.73 106.76 127.741 106.821C130.702 107.186 133.632 107.64 136.573 108.104C137.707 108.284 138.858 108.383 139.99 108.569C140.005 101.362 139.989 94.1499 139.99 86.9431H139.989ZM114.725 83.2287C114.397 83.5315 114.176 83.5676 113.851 83.9939C113.494 84.1743 113.156 84.3929 112.824 84.6224C112.494 84.8531 112.17 85.0947 111.841 85.322C97.1211 95.5458 75.7397 100.845 58.293 95.7896C57.1492 95.4583 55.3706 94.5095 54.2466 94.3696C54.2105 94.3652 54.1732 94.374 54.1371 94.3696L48.2672 91.5483C46.0694 90.1601 43.3506 88.75 41.56 87.2699C38.2469 84.5328 33.7145 80.0095 31.2212 76.2788C31.15 76.1028 31.0023 75.9028 30.8414 75.6929C30.7943 75.6164 30.8797 75.2939 30.6236 75.2557C30.6159 75.2196 30.6312 75.1791 30.6236 75.1463C30.501 74.6687 30.1321 74.4675 29.9669 74.1636C28.6655 71.7632 27.4013 69.1081 26.4666 66.5174C26.4556 66.4857 26.4786 66.4409 26.4666 66.4081C26.24 65.7675 26.0058 65.2352 25.811 64.552C25.4574 63.3102 25.1958 61.9941 24.9364 60.7283C24.2874 57.5725 23.9579 54.1315 24.0564 50.839C24.0838 49.9274 24.2841 48.8616 24.2797 47.9489V47.6221C24.3968 47.1312 24.4231 46.5945 24.4986 46.0928C25.9051 36.737 30.1004 27.7014 36.9663 21.134C37.1469 20.9613 37.5136 20.5492 37.623 20.3153C37.7872 20.2606 37.8408 20.1644 37.9503 20.0967C38.3476 19.8518 38.2031 19.8387 38.3881 19.6605C38.5577 19.4955 38.7876 19.2408 38.9353 19.114C39.0229 19.0375 39.1006 18.938 39.1532 18.8953C42.7476 15.968 48.0275 12.7204 52.4964 11.1409C53.1466 10.9102 53.8033 10.6829 54.4655 10.485C54.4983 10.4752 54.541 10.4949 54.5738 10.485C55.2918 10.273 56.0405 10.0084 56.7618 9.83026C56.7957 9.82152 56.8362 9.83791 56.8712 9.83026C65.1031 7.82442 73.4105 8.03757 81.4541 10.6741C82.4108 10.9879 83.653 11.6492 84.5396 11.8645C84.7191 11.9072 84.9391 11.8022 84.9632 11.8153C84.9884 11.8295 85.0212 12.0307 85.1536 12.1094C85.5345 12.3367 85.9909 12.4974 86.4003 12.6701C86.6958 12.7948 87.0953 13.0483 87.3843 13.1063C87.4182 13.1139 87.4576 13.1041 87.4937 13.1063L91.6408 15.5734C92.5055 16.2599 93.5267 16.8206 94.3837 17.4754C94.5632 17.6131 94.7504 17.7487 94.9342 17.881C94.9342 17.8919 94.9321 17.9017 94.931 17.9137C94.9605 17.9247 94.9868 17.9323 95.0131 17.9378C95.2112 18.0799 95.4049 18.2176 95.5866 18.3499C95.6019 18.3597 95.7354 18.5018 95.8055 18.5674C96.344 19.0768 97.0346 19.6048 97.5556 20.0967C97.8884 20.4126 98.5286 21.0608 98.868 21.4073C101.404 23.9979 104.094 27.7134 105.867 30.9107C107.353 33.5888 108.632 36.5161 109.506 39.4555C110.372 42.373 110.907 45.3593 111.226 48.3861C111.223 48.4222 111.228 48.4594 111.226 48.4954C111.166 49.3983 111.337 50.3898 111.336 51.3353C111.336 51.8797 111.348 52.4295 111.336 52.9739C111.282 55.3612 111.006 57.7147 110.679 60.0736C110.503 60.7294 109.873 62.9266 109.914 63.4589C109.808 63.5507 109.815 63.6611 109.804 63.7868C109.801 63.8229 109.805 63.8601 109.804 63.8961C108.832 66.8366 107.785 69.7519 106.324 72.489C105.89 73.3012 104.781 74.7812 104.529 75.5027C104.221 76.3881 105.601 77.8627 106.254 78.4202C108.642 80.461 112.455 81.6197 115.492 82.246C115.668 82.4187 114.891 83.0779 114.725 83.2287Z" fill="url(#paint3_linear_3529_4375)"/>
<path d="M89.86 49.4639C88.5684 47.4428 86.2284 45.4391 84.3119 43.9722C83.8861 43.6465 83.387 43.2497 82.8999 43.0343C82.4917 42.537 80.8805 41.4624 80.2753 41.1771C80.226 41.1542 80.1067 41.2001 80.0564 41.1771C79.9141 40.8 79.9863 41.0657 79.8375 40.9585L79.7948 40.9159C79.774 40.8908 79.7532 40.8645 79.728 40.8492C79.323 40.6022 78.9345 40.3191 78.5251 40.0851V39.9758C78.4277 39.9944 78.3018 39.9638 78.1968 39.9758C77.8279 39.7823 77.8411 39.7146 77.3223 39.5386C76.7246 38.7581 75.6312 38.6346 74.8344 38.1416C74.2718 37.794 74.0661 37.6781 73.4126 37.3852C73.2506 37.3119 73.2747 37.1086 72.838 37.1349C72.8074 37.0933 72.7614 37.0638 72.7285 37.0255C72.4374 36.6801 72.4593 36.9381 72.2316 36.8179C70.464 35.8756 69.0006 35.3826 67.1509 34.6229C67.0644 34.5879 66.9747 34.5836 66.8225 34.5136C66.7886 34.4983 66.7558 34.4272 66.7131 34.4043C66.6408 34.5814 66.3606 34.4294 66.2326 34.3945C63.794 33.72 60.0431 32.8554 57.7522 34.248C56.8055 34.824 55.2261 36.7829 54.7927 37.7907C54.102 39.3921 53.6609 41.739 53.3709 43.4705C53.1498 44.7898 53.0217 45.8512 52.9331 47.1837L52.8236 47.4024C52.8171 47.5106 52.828 47.621 52.8236 47.7303C52.701 50.533 52.747 53.7106 52.8192 56.5276C52.8455 57.5802 53.1159 58.9379 53.0425 59.9632L53.604 65.3555C54.3122 69.1879 55.2764 72.9208 59.9325 72.9612C60.077 72.9623 60.2259 72.9689 60.3703 72.9612C64.6204 72.7251 69.9375 70.1017 73.7125 68.1549C76.4127 66.7634 79.4609 65.0931 82.0243 63.4578C84.4793 61.8925 87.5265 59.6199 89.1781 57.2228C90.358 55.5099 91.0815 53.5609 90.8833 51.4436C90.5331 50.7221 90.2792 50.1198 89.86 49.4629V49.4639Z" fill="url(#paint4_linear_3529_4375)"/>
<rect x="137" y="25" width="25" height="82" fill="url(#paint5_linear_3529_4375)"/>
<path d="M58.9167 33.1116C54.2006 34.4178 51.7067 41.5164 52.0275 55.9537C52.1594 67.7843 54.0888 76.1846 61.8286 73.4968C73.3254 69.9886 87.6079 62.3772 90.6081 54.7647C91.3414 52.903 91.024 50.7889 89.8368 49.1807C84.4802 41.9232 67.0835 31.8258 58.9167 33.1116Z" fill="url(#paint6_linear_3529_4375)"/>
</g>
<defs>
<linearGradient id="paint0_linear_3529_4375" x1="51.5965" y1="31.9497" x2="51.5965" y2="73.4413" gradientUnits="userSpaceOnUse">
<stop stop-color="white"/>
<stop offset="1" stop-color="#F9ADA8"/>
</linearGradient>
<linearGradient id="paint1_linear_3529_4375" x1="57.5" y1="32" x2="94" y2="49" gradientUnits="userSpaceOnUse">
<stop stop-color="#F9ADA8"/>
<stop offset="1" stop-color="white"/>
</linearGradient>
<linearGradient id="paint2_linear_3529_4375" x1="91" y1="52.5" x2="64.5" y2="77.5" gradientUnits="userSpaceOnUse">
<stop stop-color="#FAC3C1"/>
<stop offset="1" stop-color="#FDFCFD"/>
</linearGradient>
<linearGradient id="paint3_linear_3529_4375" x1="7.87507" y1="-7.86486" x2="132.062" y2="116.484" gradientUnits="userSpaceOnUse">
<stop stop-color="#FA0DA5"/>
<stop offset="1" stop-color="#FB5628"/>
</linearGradient>
<linearGradient id="paint4_linear_3529_4375" x1="52.2479" y1="39.6009" x2="79.6519" y2="67.0405" gradientUnits="userSpaceOnUse">
<stop stop-color="#FA0DA5"/>
<stop offset="1" stop-color="#FB5628"/>
</linearGradient>
<linearGradient id="paint5_linear_3529_4375" x1="149.5" y1="25" x2="149.5" y2="107" gradientUnits="userSpaceOnUse">
<stop stop-color="#FB3D55"/>
<stop offset="1" stop-color="#FB532E"/>
</linearGradient>
<linearGradient id="paint6_linear_3529_4375" x1="56.014" y1="33" x2="86.2332" y2="58.2686" gradientUnits="userSpaceOnUse">
<stop stop-color="#FA10A1"/>
<stop offset="1" stop-color="#FB4A3E"/>
</linearGradient>
<clipPath id="clip0_3529_4375">
<rect width="140" height="134" fill="white"/>
</clipPath>
</defs>
</svg>
