<svg width="140" height="140" viewBox="0 0 140 140" fill="none" xmlns="http://www.w3.org/2000/svg">
<g clip-path="url(#clip0_3160_84)">
<rect width="140" height="140" rx="30" fill="white"/>
<path d="M122.432 0.0110382V140H-0.447266V0.0110382C40.5092 0.0406243 81.4751 -0.0247765 122.432 0.0110382ZM95.9271 28.3857C80.5548 20.0642 56.5309 21.6011 42.1801 31.5202C19.2664 47.3581 9.60888 94.5075 36.3672 111.041C47.8575 118.141 65.3211 118.997 78.1334 115.537C80.2169 114.975 82.1976 114.182 84.211 113.424L91.5531 121.339L103.853 110.758L103.76 110.254L98.0355 104.017C106.807 94.3954 112.196 81.8057 113.545 68.8205C115.241 52.4843 111.109 36.6044 95.9271 28.3857Z" fill="#2C96DE"/>
<path d="M139.542 0.0105244V139.999H122.432V0.0105244C128.132 0.0151959 133.841 0.00741007 139.542 0.0105244Z" fill="#FBCD2C"/>
<path d="M95.9263 28.3857C111.109 36.6044 115.24 52.4843 113.544 68.8205C112.196 81.8057 106.806 94.3954 98.0347 104.017L103.759 110.254L103.852 110.758L91.5522 121.339L84.2101 113.424C82.1967 114.182 80.216 114.973 78.1325 115.537C65.3202 118.997 47.855 118.141 36.3663 111.041C9.60956 94.5075 19.2655 47.3597 42.1792 31.5203C56.53 21.6011 80.5539 20.0642 95.9263 28.3857ZM86.7094 44.7546C78.5296 36.4316 62.1046 37.9295 53.7551 45.4242C43.5074 54.6208 37.5622 77.1623 42.8737 89.9123C47.6417 101.354 60.9929 103.575 71.7217 99.7147L61.9333 88.461L74.0061 77.8054L84.1853 89.2739C84.7583 89.6024 85.9417 87.385 86.2142 86.9117C92.3806 76.2155 96.1676 54.381 86.7078 44.7562L86.7094 44.7546Z" fill="#FDFDFE"/>
<path d="M86.7095 44.7545C96.1677 54.3793 92.3807 76.2139 86.2158 86.91C85.9433 87.3834 84.7599 89.6008 84.1868 89.2722L74.0076 77.8037L61.935 88.4594L71.7233 99.713C60.9944 103.573 47.6418 101.354 42.8753 89.9107C37.5638 77.1622 43.5091 54.6191 53.7567 45.4225C62.1078 37.9279 78.5312 36.4299 86.711 44.7529L86.7095 44.7545Z" fill="#2C96DE"/>
</g>
<defs>
<clipPath id="clip0_3160_84">
<rect width="140" height="140" rx="30" fill="white"/>
</clipPath>
</defs>
</svg>
