<svg width="140" height="140" viewBox="0 0 140 140" fill="none" xmlns="http://www.w3.org/2000/svg">
<g clip-path="url(#clip0_2691_5167)">
<rect width="140" height="140" rx="30" fill="white"/>
<g clip-path="url(#clip1_2691_5167)">
<path d="M139.997 1.14297C139.967 22.091 139.973 43.0391 139.973 63.9871C138.135 62.8496 136.861 61.1434 135.412 59.593C130.195 54.0176 124.906 48.5105 119.637 42.9871C115.59 38.7434 111.546 34.4996 107.466 30.2887C106.654 29.4547 105.987 28.4293 104.855 27.9426L104.869 27.9289L104.915 27.8879L104.978 27.9344C104.902 27.8277 104.822 27.7238 104.743 27.6172C104.636 27.4176 104.527 27.2207 104.42 27.0211C102.823 23.9832 99.2906 22.7582 96.0012 24.0707C93.4008 25.1098 91.2351 28.2379 92.6926 31.6777C92.9113 32.1891 92.7855 32.5008 92.4246 32.8645C89.4441 35.8586 86.4828 38.8691 83.516 41.8742C82.1051 40.1187 80.8308 38.2375 78.9113 36.9605L79.007 36.9523C78.9168 36.8156 78.8266 36.6789 78.7363 36.5422C78.3125 35.8996 77.9543 35.2051 77.4566 34.6309C74.8426 31.623 71.523 30.666 67.7359 31.6941C63.7383 32.777 61.6191 35.5523 61.2391 39.6648C58.316 37.2312 55.6555 34.5133 52.8473 31.9539C51.1465 30.4063 49.5797 28.7027 47.7148 27.3328C47.4961 26.9883 47.2992 26.6273 47.0586 26.2992C45.5437 24.2129 42.6371 23.2805 39.9738 24.016C37.4172 24.7188 35.7109 26.693 35.4566 29.2359C35.2023 31.7926 36.5367 33.7367 39.6184 35.3062C39.7332 35.3883 39.9656 35.5086 39.9629 35.4922C40.1844 36.1375 40.7531 36.4656 41.2207 36.8895C43.441 38.9047 45.8555 40.7066 47.8926 42.9215C46.2109 42.9434 44.532 42.9625 42.8504 42.9844C40.8543 43.0117 39.5527 44.0316 39.3641 45.7133C39.2164 47.0477 39.632 48.0457 40.6219 48.7129C40.8543 48.8715 41.1223 49.0109 41.4203 49.1312C41.5187 49.1723 41.6227 49.2105 41.7293 49.2461C41.8359 49.2816 41.9453 49.3145 42.0602 49.3473L42.0629 49.35C42.0848 49.3801 42.1066 49.4129 42.1285 49.443C42.2816 49.6727 42.4184 49.9215 42.618 50.1047C45.6203 52.8336 48.6336 55.5516 51.6441 58.2723C50.9633 59.943 50.7965 61.6793 50.8074 63.4758C50.8676 73.3059 50.884 83.1332 50.9113 92.9633C50.9223 97.5461 53.7742 101.262 58.1902 102.55C59.2375 102.856 59.6203 102.766 59.5957 101.538C59.5246 97.9453 59.5492 94.3496 59.5766 90.7539C59.6148 85.5422 63.6754 81.498 68.8543 81.4816C69.8113 81.4789 70.7656 81.4789 71.7226 81.4816C75.991 81.4953 79.6113 84.3473 80.6613 88.5199C81.1672 90.5379 80.9758 92.5859 80.9156 94.6285C80.5684 94.2758 80.2074 93.9312 79.8711 93.5648C78.1019 91.618 76.4367 89.5645 74.5473 87.7406C72.6988 85.9523 70.4074 85.4793 67.9902 86.5676C65.4691 87.7051 64.1457 89.7477 64.1375 92.4957C64.1129 100.866 64.1512 109.236 64.1758 117.605C64.1812 119.582 64.8922 121.346 66.459 122.503C68.116 123.728 69.5187 125.193 71.0117 126.58C75.4086 130.659 79.7535 134.796 83.9945 139.04C84.2543 139.3 84.5031 139.568 84.4867 139.973C56.7082 139.973 28.9297 139.97 1.14844 139.995C0.270703 139.997 0 139.899 0 138.906C0.0328125 92.9578 0.0328125 47.0066 0.00820312 1.05547C0.00820312 0.210547 0.188672 0.00546875 1.05 0.00546875C47.0012 0.0300781 92.9523 0.0328125 138.901 0C139.88 0 139.997 0.251562 139.997 1.14297Z" fill="#FEC920"/>
<path d="M78.9113 36.9605C80.8309 38.2375 82.1051 40.1187 83.516 41.8742C82.991 42.4402 82.4961 43.0336 81.9383 43.5641C80.8664 44.584 80.541 45.8035 81.0414 47.1652C81.5527 48.557 82.6711 49.2105 84.1258 49.2133C88.8125 49.216 93.502 49.1941 98.1887 49.1723C99.3016 49.1668 100.215 48.702 100.86 47.8023C101.615 46.7523 101.661 45.6012 101.095 44.4664C100.507 43.2934 99.4711 42.8066 98.1832 42.8066C94.1938 42.8066 90.207 42.8066 86.1164 42.8066C86.234 42.5879 86.2859 42.4129 86.4008 42.2953C88.9164 39.725 91.4457 37.1738 93.9477 34.5926C94.3879 34.1387 94.7133 34.1879 95.2383 34.4668C97.6883 35.7711 100.133 35.7355 102.432 34.125C104.579 32.6211 105.317 30.502 104.855 27.9426C105.987 28.4293 106.654 29.4547 107.466 30.2887C111.549 34.4969 115.593 38.7434 119.637 42.9844C124.906 48.5078 130.195 54.0148 135.412 59.5902C136.861 61.1406 138.135 62.8496 139.975 63.9844C139.975 88.9492 139.97 113.914 140.003 138.876C140.003 139.811 139.82 139.997 138.884 139.997C120.753 139.962 102.624 139.97 84.4922 139.97C84.5059 139.565 84.2598 139.297 84 139.035C79.759 134.791 75.4141 130.654 71.0172 126.574C69.5242 125.191 68.1242 123.722 66.4645 122.497C64.8977 121.341 64.1867 119.577 64.1812 117.6C64.1566 109.23 64.1184 100.86 64.143 92.4902C64.1512 89.7394 65.4746 87.6969 67.9957 86.5621C70.4129 85.4738 72.7043 85.9469 74.5555 87.7351C76.4422 89.559 78.1102 91.6125 79.8793 93.5594C80.2129 93.9258 80.5738 94.2703 80.9238 94.623C80.9484 97.032 81.0004 99.441 80.9812 101.853C80.9758 102.618 81.1262 102.739 81.9055 102.577C86.1902 101.678 89.6383 97.5488 89.6355 93.1C89.6273 84.0465 89.6055 74.9957 89.5152 65.9449C89.4961 64.0418 89.693 62.1086 89.2883 60.2301C88.3148 55.702 84.082 52.5328 78.9988 52.5164C73.448 52.5 67.8973 52.6012 62.3492 52.5383C57.6898 52.4863 54.034 54.1434 51.6551 58.2695C48.6445 55.5488 45.6285 52.8309 42.6262 50.102C42.3992 49.8941 42.2516 49.6016 42.0684 49.3473C46.8016 49.3199 51.532 49.2898 56.2625 49.2652C58.1492 49.2543 59.2895 48.6144 59.7926 47.2773C60.3203 45.8773 59.8445 44.573 58.4418 43.3262C54.8734 40.1543 51.3297 36.9523 47.7586 33.7832C47.2445 33.3266 47.0969 32.9984 47.4879 32.3285C48.4203 30.7316 48.3656 29.0309 47.723 27.3301C49.5879 28.7 51.1547 30.4035 52.8555 31.9539C55.6637 34.5133 58.3242 37.2312 61.2473 39.6648C61.8652 46.5145 68.209 48.8195 72.7945 47.5973C77.5523 46.3285 79.759 42.5469 78.9195 36.9605H78.9113Z" fill="#CCA21C"/>
<path d="M51.6441 58.2723C54.023 54.1461 57.6789 52.4891 62.3383 52.541C67.8863 52.6039 73.4371 52.5028 78.9879 52.5192C84.0711 52.5356 88.3039 55.7047 89.2773 60.2328C89.6793 62.1113 89.4851 64.0445 89.5043 65.9477C89.5945 74.9985 89.6164 84.052 89.6246 93.1028C89.6273 97.5488 86.1793 101.68 81.8945 102.58C81.1152 102.744 80.9648 102.624 80.9703 101.855C80.9922 99.4465 80.9375 97.0375 80.9129 94.6258C80.973 92.5832 81.1644 90.5352 80.6559 88.5172C79.6086 84.3446 75.9855 81.4926 71.7172 81.4789C70.7601 81.4762 69.8058 81.4762 68.8488 81.4789C63.6699 81.4953 59.6094 85.5367 59.5711 90.7512C59.5437 94.3469 59.5191 97.9426 59.5902 101.536C59.6148 102.763 59.2293 102.851 58.182 102.547C53.766 101.259 50.9168 97.5434 50.9031 92.9606C50.8758 83.1305 50.8594 73.3031 50.7992 63.4731C50.7883 61.6766 50.9523 59.9375 51.6359 58.2696L51.6441 58.2723Z" fill="#FEFEFD"/>
<path d="M104.855 27.9426C105.317 30.502 104.579 32.6211 102.432 34.125C100.133 35.7356 97.6883 35.7684 95.2383 34.4668C94.716 34.1879 94.3906 34.1387 93.9477 34.5926C91.4457 37.1738 88.9164 39.7277 86.4008 42.2953C86.286 42.4129 86.234 42.5879 86.1164 42.8067C90.2043 42.8067 94.1938 42.8067 98.1832 42.8067C99.4684 42.8067 100.507 43.2934 101.095 44.4664C101.661 45.5984 101.615 46.7524 100.86 47.8024C100.212 48.702 99.3016 49.1668 98.1887 49.1723C93.502 49.1942 88.8125 49.216 84.1258 49.2133C82.6711 49.2133 81.5528 48.5598 81.0414 47.1652C80.541 45.8035 80.8664 44.584 81.9383 43.5641C82.4961 43.0336 82.991 42.4402 83.516 41.8742C86.4828 38.8692 89.4469 35.8586 92.4246 32.8645C92.7883 32.5008 92.9114 32.1891 92.6953 31.6777C91.2352 28.2379 93.4035 25.107 96.0039 24.0707C99.2934 22.7582 102.823 23.9832 104.423 27.0184C104.53 27.218 104.639 27.4176 104.746 27.6145C104.757 27.7703 104.718 27.9617 104.981 27.9317L104.915 27.8852L104.855 27.9399V27.9426Z" fill="#FEFEFD"/>
<path d="M78.9113 36.9606C79.7507 42.5496 77.5441 46.3285 72.7863 47.5973C68.2007 48.8196 61.857 46.5145 61.239 39.6649C61.6191 35.5524 63.7382 32.777 67.7359 31.6914C71.5203 30.666 74.8398 31.6203 77.4539 34.6281C77.9515 35.2024 78.3097 35.8969 78.7335 36.5395C78.7472 36.7281 78.7144 36.9469 79.0042 36.9496L78.9085 36.9578L78.9113 36.9606Z" fill="#FEFEFD"/>
<path d="M39.9629 35.4922C41.6391 35.5824 43.3208 35.7055 44.8711 34.8605C45.3086 34.6226 45.5547 34.9152 45.8145 35.1504C48.6172 37.6551 51.4172 40.168 54.4907 42.9215C52.0817 42.9215 49.9872 42.9215 47.8899 42.9215C45.8528 40.7039 43.4383 38.9047 41.218 36.8894C40.7504 36.4656 40.1817 36.1348 39.9602 35.4922H39.9629Z" fill="#CCA21C"/>
<path d="M104.978 27.9344C104.716 27.9645 104.754 27.773 104.743 27.6172C104.822 27.7238 104.899 27.8277 104.978 27.9344Z" fill="#CCA21C"/>
<path d="M59.7843 47.2801C59.2812 48.6172 58.141 49.257 56.2543 49.2652C51.5238 49.2926 46.796 49.3226 42.0628 49.35H42.0601C41.9453 49.3172 41.8359 49.2844 41.7293 49.2461C41.6226 49.2105 41.5187 49.1722 41.4203 49.1312C41.1222 49.0109 40.8543 48.8715 40.6218 48.7129C39.632 48.0457 39.2164 47.0476 39.364 45.7133C39.5527 44.0316 40.8543 43.0117 42.8503 42.9844C44.532 42.9625 46.2109 42.9433 47.8925 42.9215H54.4933C51.4171 40.1679 48.6199 37.6578 45.8144 35.1504C45.5519 34.9179 45.3086 34.6226 44.8711 34.8633C43.3207 35.7054 41.639 35.5824 39.9628 35.4922C39.9628 35.5086 39.7332 35.3883 39.6183 35.3062C36.5367 33.7367 35.2023 31.7926 35.4566 29.2359C35.7109 26.6929 37.4171 24.7187 39.9738 24.016C42.6371 23.2804 45.5437 24.2129 47.0586 26.2992C47.2992 26.6273 47.496 26.9883 47.7148 27.3328C48.3574 29.0336 48.4148 30.7371 47.4796 32.3312C47.0886 33.0011 47.2363 33.3293 47.7503 33.7859C51.3214 36.9551 54.8652 40.157 58.4335 43.3289C59.8363 44.5758 60.3121 45.8801 59.7843 47.2801Z" fill="#FEFEFD"/>
<path d="M79.007 36.9523C78.7172 36.9469 78.7527 36.7308 78.7363 36.5422C78.8266 36.6789 78.9168 36.8156 79.007 36.9523Z" fill="#CCA21C"/>
<path d="M41.8359 35.8203C45.4603 35.8203 48.3984 33.0658 48.3984 29.668C48.3984 26.2701 45.4603 23.5156 41.8359 23.5156C38.2116 23.5156 35.2734 26.2701 35.2734 29.668C35.2734 33.0658 38.2116 35.8203 41.8359 35.8203Z" fill="#FEFEFD"/>
<path d="M98.7109 35.8203C102.335 35.8203 105.273 33.0658 105.273 29.668C105.273 26.2701 102.335 23.5156 98.7109 23.5156C95.0866 23.5156 92.1484 26.2701 92.1484 29.668C92.1484 33.0658 95.0866 35.8203 98.7109 35.8203Z" fill="#FEFEFD"/>
<path d="M70.4102 48.3984C75.4692 48.3984 79.5703 44.5421 79.5703 39.7852C79.5703 35.0282 75.4692 31.1719 70.4102 31.1719C65.3511 31.1719 61.25 35.0282 61.25 39.7852C61.25 44.5421 65.3511 48.3984 70.4102 48.3984Z" fill="#FEFEFD"/>
<path d="M77.3828 92.832C77.3828 88.9811 74.261 85.8594 70.4102 85.8594C66.5593 85.8594 63.4375 88.9811 63.4375 92.832V117.715C63.4375 121.566 66.5593 124.688 70.4102 124.688C74.261 124.688 77.3828 121.566 77.3828 117.715V92.832Z" fill="black"/>
<path d="M104.784 27.3328L140 63.35L139.973 84.9215L111.691 56.1285L104.784 27.3328Z" fill="#CCA21C"/>
</g>
</g>
<defs>
<clipPath id="clip0_2691_5167">
<rect width="140" height="140" rx="30" fill="white"/>
</clipPath>
<clipPath id="clip1_2691_5167">
<rect width="140" height="140" fill="white"/>
</clipPath>
</defs>
</svg>
