<svg width="140" height="140" viewBox="0 0 140 140" fill="none" xmlns="http://www.w3.org/2000/svg">
<rect width="140" height="140" rx="30" fill="#092BEF"/>
<path d="M83.7033 82.6432C83.0041 82.4252 82.9504 81.4442 83.757 81.1173C97.6322 74.4689 96.718 59.3735 96.718 59.3735C96.6641 44.0604 85.5855 29.8916 67.7308 30.0006C47.8322 30.1096 35.8932 45.9678 36.0007 64.7141C36.1621 97.5203 60.9008 110.054 68.5911 110L68.5374 96.9754C68.5374 94.9045 68.5374 93.2698 69.7742 93.2698C69.7742 93.2698 77.7336 101.335 86.5536 101.335C100.321 101.281 105 89.5642 105 89.5642L83.7033 82.6432ZM67.7845 72.6161C60.7393 72.6705 55.0387 66.894 54.9849 59.755C54.9311 52.6163 60.6319 46.8397 67.6769 46.7852C74.7221 46.7307 80.4227 52.5073 80.4766 59.646C80.4766 66.785 74.7758 72.5614 67.7845 72.6161Z" fill="white"/>
</svg>
