<svg width="140" height="140" viewBox="0 0 140 140" fill="none" xmlns="http://www.w3.org/2000/svg">
<rect width="140" height="140" rx="30" fill="#FF2442"/>
<g clip-path="url(#clip0_820_909)">
<path d="M113.704 84.8367C115.911 84.8367 117.74 84.7682 119.561 84.8573C121.158 84.9361 121.779 84.1993 121.762 82.7358C121.744 80.9672 121.751 79.1987 121.692 77.4336C121.644 76.0147 120.783 75.127 119.416 75.0961C115.501 75.0104 111.583 75.0653 107.416 75.0653C107.416 76.1586 107.416 77.1046 107.416 78.0539C107.416 82.16 107.388 86.2694 107.44 90.3754C107.454 91.479 107.103 91.8972 105.958 91.8595C103.828 91.7909 101.693 91.8389 99.3406 91.8389C99.2989 91.1466 99.233 90.5468 99.2295 89.9504C99.2226 85.5017 99.1948 81.0529 99.2469 76.6042C99.2607 75.4251 98.8998 74.9693 97.6679 75.031C95.9398 75.1167 94.2012 75.0241 92.4695 75.0584C91.5812 75.0755 91.2203 74.7362 91.2376 73.8554C91.2723 72.032 91.2931 70.2018 91.2272 68.3819C91.189 67.2817 91.5673 66.8395 92.7125 66.8875C94.4441 66.9595 96.1792 66.9698 97.9108 66.8875C98.3515 66.867 99.1289 66.4283 99.1462 66.1472C99.2573 64.2313 99.2052 62.3051 99.2052 60.2384C97.7547 60.2384 96.5505 60.2007 95.3463 60.2487C94.3608 60.2898 93.8264 60.0088 93.8542 58.9223C93.8993 57.0406 93.8923 55.159 93.8576 53.2774C93.8403 52.2937 94.3122 51.975 95.2388 52.0024C96.4915 52.0367 97.7477 52.0127 99.0803 52.0127C99.1809 50.9913 99.2642 50.1619 99.3579 49.2262H107.332C107.391 50.083 107.447 50.9056 107.523 51.999C108.519 51.999 109.477 51.9921 110.431 51.999C117.132 52.0572 120.578 55.4469 120.623 62.0275C120.634 63.5595 120.623 65.095 120.623 66.7847C121.401 66.8567 122.077 66.9115 122.751 66.9801C126.936 67.4016 129.799 70.2806 129.924 74.4141C130.031 77.9477 130.021 81.4882 129.927 85.0218C129.833 88.72 127.054 91.4687 123.174 91.7601C121.394 91.8937 119.593 91.8458 117.806 91.8149C117.4 91.8081 116.775 91.623 116.636 91.3385C115.651 89.3095 114.766 87.2325 113.704 84.8402V84.8367ZM107.523 60.211V66.8464H112.572C112.572 64.9442 112.645 63.1414 112.517 61.3489C112.486 60.9444 111.778 60.3206 111.323 60.2624C110.095 60.1116 108.835 60.211 107.523 60.211Z" fill="white"/>
<path d="M65.0411 91.7429C66.3285 88.9668 67.4077 86.5333 68.6119 84.165C68.7924 83.8085 69.5697 83.6132 70.0833 83.5823C71.4644 83.5035 72.8595 83.4795 74.2406 83.5755C75.5766 83.668 75.8959 83.1162 75.889 81.8858C75.8404 75.2092 75.8369 68.5361 75.889 61.8596C75.8994 60.5572 75.5558 59.9505 74.1469 60.0842C73.1301 60.1801 72.0995 60.1013 70.8988 60.1013C70.8988 57.5102 70.8537 55.183 70.9508 52.8592C70.9647 52.5371 71.6553 51.9784 72.0335 51.9715C77.4089 51.9133 82.7843 51.9407 88.1562 51.9201C89.0307 51.9167 89.4124 52.2149 89.3916 53.1129C89.3534 54.9945 89.3464 56.8796 89.395 58.7612C89.4193 59.7072 89.0619 60.043 88.1006 60.1082C84.3389 60.3652 84.3424 60.3926 84.3424 64.1525C84.3424 69.9722 84.384 75.7919 84.3146 81.6116C84.2973 83.0579 84.6617 83.716 86.2441 83.5789C87.6773 83.4555 89.1313 83.5789 90.5749 83.5412C91.557 83.5138 92.0914 83.7948 92.0602 84.8847C92.0081 86.7664 92.1053 88.6549 91.9942 90.5297C91.9699 90.9512 91.3453 91.6847 90.9948 91.6881C82.5067 91.7532 74.0185 91.7395 65.0376 91.7395L65.0411 91.7429Z" fill="white"/>
<path d="M19.6577 84.8025C20.9313 84.8025 21.7329 84.8025 22.5311 84.8025C24.28 84.8025 25.1568 83.9605 25.1615 82.2765C25.1754 72.128 25.1858 61.9795 25.1962 51.831C25.1962 51.1593 25.1962 50.4875 25.1962 49.5244C27.7711 49.5244 30.169 49.497 32.5669 49.5621C32.848 49.569 33.2193 50.0625 33.3581 50.4087C33.5004 50.7548 33.4136 51.1935 33.4136 51.5945C33.4206 62.3154 33.4379 73.0329 33.4275 83.7537C33.4206 89.9093 29.5201 93.0042 23.416 91.7155C23.114 91.6504 22.7184 91.4516 22.6005 91.2083C21.6496 89.217 20.7508 87.2017 19.6612 84.8059L19.6577 84.8025Z" fill="white"/>
<path d="M65.808 49.1131C64.1874 52.7393 62.6917 56.081 61.0052 59.8545H68.8965C66.7033 64.7351 64.7114 69.1633 62.5598 73.948H68.0705C66.9531 76.3917 66.0474 78.4344 65.0619 80.436C64.9404 80.6828 64.3817 80.8267 64.0243 80.8302C61.3696 80.861 58.7114 80.9124 56.0601 80.8164C53.3672 80.7171 52.2429 79.0171 53.225 76.5048C54.1376 74.1707 55.2342 71.9087 56.244 69.6123C56.487 69.0537 56.6987 68.4847 56.9589 67.8266C55.6229 67.7341 54.4604 67.7547 53.3395 67.5525C51.0387 67.1412 50.1399 65.7085 51.0318 63.563C52.6489 59.6695 54.6026 55.9062 56.1191 51.9784C56.9901 49.7163 58.1631 48.7121 60.6582 49.0686C62.2267 49.2948 63.8577 49.1097 65.8114 49.1097L65.808 49.1131Z" fill="white"/>
<path d="M14.0808 88.2744C12.6476 85.0904 11.1971 82.1943 10.0797 79.1782C9.7604 78.3179 10.51 77.1114 10.6002 76.0524C11.0097 71.2883 11.4053 66.5208 11.6968 61.7465C11.787 60.2727 12.3249 59.7689 13.8032 59.8785C15.4689 59.9985 17.1485 59.9231 18.8211 59.906C19.6574 59.8957 20.1398 60.1424 20.0392 61.085C19.3382 67.5833 18.7968 74.1056 17.8876 80.5731C17.5059 83.2979 16.2428 85.8616 14.0843 88.2744H14.0808Z" fill="white"/>
<path d="M44.3654 88.319C41.8287 85.1178 40.51 81.8241 40.0658 78.3179C39.3371 72.5598 38.9449 66.7607 38.4799 60.9718C38.4522 60.6462 39.0664 59.9813 39.403 59.9642C41.4747 59.8717 43.5603 59.8579 45.632 59.9745C46.0172 59.995 46.6384 60.7045 46.68 61.1398C47.0999 65.6742 47.4053 70.2224 47.7905 74.7602C47.8911 75.9427 48.1653 77.108 48.3423 78.2836C48.4013 78.6674 48.5435 79.1199 48.4047 79.4352C47.145 82.2902 45.8298 85.1212 44.3689 88.3155L44.3654 88.319Z" fill="white"/>
<path d="M48.2798 91.1603C49.5082 88.5177 50.5944 86.1426 51.7396 83.7914C51.8715 83.5172 52.3261 83.2121 52.6176 83.2224C56.407 83.3595 60.193 83.548 63.979 83.7365C64.1352 83.7434 64.2844 83.8462 64.6557 83.9867C63.5279 86.4407 62.4383 88.8639 61.2861 91.2562C61.1543 91.5338 60.6615 91.8012 60.3353 91.8012C56.9345 91.8183 53.5337 91.8012 50.1329 91.7326C49.5985 91.7223 49.0675 91.4139 48.2798 91.1603Z" fill="white"/>
<path d="M121.519 57.3697C121.855 56.1358 121.997 54.8026 122.574 53.6887C123.344 52.1943 125.343 51.6014 126.932 52.0812C128.632 52.5953 129.864 54.1376 129.944 55.8548C130.024 57.6439 128.896 59.4775 127.106 59.8785C125.672 60.2007 124.139 60.139 122.653 60.1116C122.358 60.1047 121.925 59.5221 121.82 59.1348C121.678 58.6035 121.786 58.0072 121.786 57.4382C121.699 57.4142 121.609 57.3902 121.522 57.3662L121.519 57.3697Z" fill="white"/>
</g>
<defs>
<clipPath id="clip0_820_909">
<rect width="120" height="43" fill="white" transform="translate(10 49)"/>
</clipPath>
</defs>
</svg>
