<svg width="140" height="140" viewBox="0 0 140 140" fill="none" xmlns="http://www.w3.org/2000/svg">
<rect width="140" height="140" rx="30" fill="#FD0100"/>
<rect x="26" y="26" width="88" height="88" rx="44" fill="white"/>
<g clip-path="url(#clip0_3597_765)">
<path d="M45 57.651V83.4708C45 84.3158 45.6945 85 46.5522 85H68.5454C69.2758 85 69.8146 83.9249 69.392 83.3369L61.9596 73.5334C61.8953 73.4482 61.9324 73.3265 62.0337 73.2887C66.8881 71.4783 69.0533 64.3022 65.2271 59.073C63.8047 56.9971 61.0389 56 58.4955 56L46.6758 56.1303C45.7502 56.1303 45 56.739 45 57.651Z" fill="#FD0100"/>
<path d="M72.1368 57.3758V83.6948C72.1368 84.4156 72.73 85 73.4617 85H87.2859C95.4549 84.6737 97.9883 72.0931 90.6981 69.3427C94.4822 63.8176 92.0946 57.2711 85.5285 56.1315H73.4024C72.7041 56.1315 72.1381 56.6891 72.1381 57.377L72.1368 57.3758Z" fill="#FD0100"/>
</g>
<defs>
<clipPath id="clip0_3597_765">
<rect width="50" height="29" fill="white" transform="translate(45 56)"/>
</clipPath>
</defs>
</svg>
