<svg width="140" height="140" viewBox="0 0 140 140" fill="none" xmlns="http://www.w3.org/2000/svg">
<rect width="140" height="140" rx="30" fill="white"/>
<g clip-path="url(#clip0_2782_2)">
<path d="M82.7895 44.1667C82.7765 44.1796 82.8052 44.2852 82.7626 44.3222C82.4553 44.5889 82.0786 44.6898 81.6787 44.7222C81.1918 44.762 80.8003 44.7472 80.2903 44.8148C75.9518 45.3917 72.526 48.7935 71.8827 53.1176C71.8096 53.6111 71.8226 54.0694 71.7744 54.537C71.7152 55.113 71.494 55.1806 71.0339 55.3704C69.8658 48.7083 76.1684 42.5333 82.7895 44.1667Z" fill="#354F56"/>
<path d="M83.1597 42.1296C80.3078 41.6241 77.667 42.0926 75.1169 43.3898C72.9065 44.5139 71.4754 46.0305 70.3378 48.2389C69.2002 50.4472 68.7309 52.9648 69.0901 55.463C68.5495 55.3204 68.2274 55.1305 68.1644 54.537C68.0274 53.2398 68.4921 51.213 68.9281 49.9768C70.5905 45.2704 75.2631 41.5185 80.2902 41.1111C81.5102 41.012 82.596 40.9342 83.1597 42.1296Z" fill="#11282F"/>
<path d="M83.3449 42.4074C83.4282 42.7102 83.3801 42.8861 83.3449 43.1482C81.5547 42.8195 79.896 42.8 78.1215 43.2472C72.6649 44.6232 69.2151 50.0019 70.0158 55.5556C69.6798 55.5556 69.5585 55.513 69.2753 55.463C68.9948 52.7333 69.4928 50.063 70.9395 47.7296C73.5915 43.4519 78.4002 41.5204 83.3449 42.4074Z" fill="#010304"/>
<path d="M83.2523 43.4259C83.2357 43.4768 83.2708 43.5685 83.2523 43.6111C83.1088 43.9463 82.9968 43.9546 82.7895 44.1666C76.1684 42.5333 69.8658 48.7083 71.0339 55.3703C70.6942 55.5102 70.6757 55.525 70.2934 55.5555C69.1142 48.125 75.9139 41.7296 83.2523 43.4259Z" fill="#11282F"/>
<path d="M83.1597 42.1296C83.1949 42.2046 83.3059 42.2676 83.3448 42.4074C78.4001 41.5195 73.5914 43.4519 70.9395 47.7296C69.4927 50.063 68.9947 52.7343 69.2752 55.463C69.2169 55.4528 69.141 55.4769 69.09 55.463C68.7309 52.9648 69.1872 50.4732 70.3378 48.2389C71.4884 46.0046 72.9064 44.5139 75.1169 43.3898C77.667 42.0926 80.3078 41.6241 83.1597 42.1296Z" fill="#07151A"/>
<path d="M83.3448 43.1481C83.3245 43.3009 83.2837 43.3306 83.2523 43.4259C75.9138 41.7296 69.1141 48.125 70.2934 55.5556C70.2027 55.563 70.1073 55.5556 70.0157 55.5556C69.215 50.0028 72.6649 44.6241 78.1215 43.2472C79.8959 42.8 81.5547 42.8185 83.3448 43.1481Z" fill="#07151A"/>
<path d="M87.0475 72.5C87.003 72.5204 86.6143 73.0796 86.5689 73.1787C86.0145 74.3889 87.1169 75.8167 88.336 75.1315C88.3906 75.1009 88.9765 74.5787 88.9913 74.537C89.5337 75.5333 89.9169 76.6269 90.0771 77.7565C90.1224 78.0759 90.1909 78.6204 90.1983 78.9306C90.2113 79.4657 90.0345 79.988 90.1946 80.463C89.5189 81.6389 88.7293 82.2444 87.4353 82.6611C87.2807 82.7111 87.0836 82.5935 87.14 82.8704C86.2718 82.962 84.6529 82.9 83.8078 82.6852C82.9747 82.4732 81.8399 81.8426 81.2613 81.2046C80.767 80.6593 79.9775 79.2454 80.1052 78.5185C80.2329 77.7917 80.4616 76.7954 80.6874 76.0917C81.5603 73.3769 84.0817 70.8204 87.0475 72.5ZM84.8963 76.6907C83.3884 76.8963 81.5751 78.4333 82.1907 80.0898C83.0182 82.3185 89.057 82.225 89.3643 79.7704C89.6652 77.3648 86.8623 76.4222 84.8972 76.6898L84.8963 76.6907Z" fill="#FE4E00"/>
<path d="M90.1946 80.463C90.0345 79.988 90.2113 79.4667 90.1983 78.9306C90.1909 78.6204 90.1224 78.0759 90.0771 77.7565C89.9169 76.6268 89.5337 75.5333 88.9913 74.537C89.0144 74.4741 89.0598 73.8157 89.0468 73.7028C88.9876 73.163 88.4915 72.4861 87.9185 72.4111C87.7815 72.3935 87.1484 72.4546 87.0475 72.5C84.0817 70.8204 81.5603 73.3768 80.6874 76.0917C80.4616 76.7954 80.2292 77.813 80.1052 78.5185C79.7831 77.3528 79.8645 75.8204 80.1052 74.6296L81.178 72.5083C86.3421 65.9778 93.6426 74.4611 90.1946 80.463Z" fill="#EB420D"/>
<path d="M91.2128 80C90.5158 81.4537 88.7469 82.7 87.14 82.8704C87.0836 82.5926 87.2807 82.7102 87.4353 82.6611C88.7303 82.2454 89.5199 81.6389 90.1946 80.463C93.6426 74.4611 86.3421 65.9778 81.178 72.5084L80.1052 74.6297C80.8679 70.8556 84.1965 68.1398 88.0361 69.9834C91.3674 71.5834 92.7522 76.788 91.2128 80Z" fill="#92292B"/>
<path d="M84.8963 76.6908C86.8623 76.4232 89.6652 77.3658 89.3634 79.7713C89.0561 82.226 83.0182 82.3195 82.1897 80.0908C81.5742 78.4343 83.3875 76.8963 84.8954 76.6917L84.8963 76.6908Z" fill="#FE6B00"/>
<path d="M88.9913 74.537C88.9765 74.5787 88.3905 75.1009 88.3359 75.1315C87.1169 75.8167 86.0144 74.3889 86.5689 73.1787C86.6142 73.0796 87.003 72.5204 87.0474 72.5C87.1483 72.4546 87.7815 72.3935 87.9185 72.4111C88.4914 72.4852 88.9876 73.163 89.0468 73.7028C89.0588 73.8167 89.0135 74.4741 88.9913 74.537Z" fill="#FEC8A2"/>
<path d="M56.5941 72.4074C56.1322 72.5019 55.6231 73.3185 55.5982 73.7732C55.5028 75.55 58.1001 75.8926 58.2603 73.9815C58.7138 74.1361 59.0184 74.8852 59.2016 75.3084C59.5775 76.1741 59.7839 77.0815 59.9292 78.0111C59.956 78.1834 59.8126 78.3861 60.1115 78.3334C59.882 80.2436 58.8277 81.8167 56.9644 82.5C55.9721 82.8639 53.9866 83.0417 52.9842 82.7778C51.5939 82.4121 50.609 81.6065 49.9296 80.3704C50.1332 79.7908 49.9768 79.088 50.0231 78.4732C50.1462 76.838 50.8043 74.8232 51.8762 73.5676C53.0258 72.2204 54.9659 71.3871 56.5941 72.4074ZM53.6099 76.6908C52.1372 76.8898 50.5701 78.1408 50.771 79.7602C51.1283 82.6426 59.6784 82.375 57.8484 78.4213C57.1486 76.9084 55.1131 76.4871 53.6099 76.6908Z" fill="#FE4E00"/>
<path d="M60.1116 75.0926C60.3217 76.0037 60.2227 77.4102 60.1116 78.3334C59.8135 78.3852 59.9561 78.1834 59.9292 78.0111C59.7839 77.0815 59.5784 76.1741 59.2017 75.3084C59.0175 74.8852 58.7139 74.1361 58.2603 73.9815C58.3381 73.0537 57.5402 72.2148 56.5942 72.4074C54.966 71.3871 53.0259 72.2204 51.8762 73.5676C50.8043 74.8232 50.1462 76.838 50.0231 78.4732C49.9768 79.088 50.1323 79.7908 49.9296 80.3704C48.0904 77.025 49.501 71.651 53.3748 70.4371C56.8219 69.3565 59.3776 71.9158 60.1116 75.0926Z" fill="#EB420D"/>
<path d="M60.1116 75.0926C59.3775 71.9158 56.8218 69.3565 53.3748 70.4371C49.501 71.6509 48.0903 77.025 49.9296 80.3704C50.609 81.6065 51.5939 82.4121 52.9842 82.7778C50.8996 82.6398 49.165 81.0648 48.6337 79.0741C47.7247 75.6695 49.0623 71.1528 52.5658 69.813C56.5247 68.2982 59.6237 71.3195 60.1116 75.0926Z" fill="#92292B"/>
<path d="M53.6099 76.6908C55.1132 76.4871 57.1486 76.9093 57.8484 78.4213C59.6784 82.375 51.1292 82.6426 50.771 79.7602C50.5702 78.1408 52.1373 76.8898 53.6099 76.6908Z" fill="#FE6B00"/>
<path d="M58.2603 73.9815C58.1011 75.8926 55.5028 75.55 55.5981 73.7732C55.6222 73.3185 56.1322 72.5009 56.5941 72.4074C57.5401 72.2148 58.338 73.0537 58.2603 73.9815Z" fill="#FEC8A2"/>
<path d="M82.5119 87.5926C81.8899 89.1463 81.2104 90.3111 80.1052 91.5741C75.8316 88.675 70.2648 87.9491 65.2747 89.1926C63.4771 89.6408 61.5564 90.4121 60.1115 91.5741C59.6839 91.0824 59.2997 90.6935 58.9258 90.1213C58.6046 89.6306 57.7687 88.2056 57.7049 87.6852C57.7012 87.6565 57.7039 87.6223 57.7049 87.5926C57.7271 87.0954 58.1297 86.7473 58.5926 86.675C60.5281 86.3723 63.0726 86.2861 65.06 86.2C68.9791 86.0306 73.0908 86.0732 77.0034 86.2973C78.34 86.3741 80.2589 86.4361 81.5316 86.675C82.2083 86.8019 82.237 87.0204 82.5119 87.5926Z" fill="#010304"/>
<path d="M80.1052 91.5741C79.5489 92.2102 79.0842 92.6222 78.439 93.1482C74.5069 90.0232 68.2626 89.6574 63.7807 91.7722C63.0031 92.1389 62.357 92.6796 61.5925 93.0556C60.9177 92.5 60.665 92.2111 60.1115 91.5741C61.5564 90.413 63.4771 89.6408 65.2746 89.1926C70.2647 87.9491 75.8315 88.675 80.1052 91.5741Z" fill="#030B0E"/>
<path d="M78.4391 93.1482C77.5718 93.8556 77.1163 94.126 76.125 94.6297C75.627 94.0037 74.7088 93.5241 73.9664 93.2241C71.1923 92.1037 67.4064 92.251 64.8397 93.85C64.5657 94.0204 64.076 94.3056 63.9992 94.6297C63.005 94.1213 62.4552 93.7658 61.5925 93.0556C62.358 92.6806 63.0032 92.1399 63.7807 91.7723C68.2627 89.6574 74.507 90.0232 78.4391 93.1482Z" fill="#07151A"/>
<path d="M76.125 94.6296C72.1577 96.6454 67.9942 96.6704 63.9991 94.6296C64.076 94.3056 64.5656 94.0204 64.8396 93.85C67.4064 92.2509 71.1923 92.1037 73.9664 93.2241C74.7087 93.5241 75.627 94.0037 76.125 94.6296Z" fill="#11282F"/>
<path d="M81.6788 44.7222C81.1919 44.7621 80.8004 44.7472 80.2903 44.8148C80.3079 45.2917 80.5819 45.7037 80.7532 46.1111C81.5446 47.9963 82.6396 49.2158 84.4557 50.1852C86.966 51.525 89.419 51.5185 91.9533 50.2778C93.7648 49.3908 94.8783 48.313 95.7484 46.4815C96.103 45.7352 96.3649 45.0908 96.4889 44.2593C96.6593 43.1222 96.5843 42.4843 96.3964 41.3889C96.0011 39.0889 94.8904 37.3167 92.9465 35.9972C88.1629 32.7519 81.3409 35.4269 80.2903 41.1111C81.5103 41.0121 82.5961 40.9343 83.1598 42.1296C83.195 42.2046 83.3061 42.2676 83.3449 42.4074C83.4282 42.7102 83.3801 42.8861 83.3449 43.1482C83.3246 43.3009 83.2838 43.3306 83.2524 43.4259C83.2357 43.4769 83.2709 43.5685 83.2524 43.6111C83.1089 43.9463 82.9969 43.9546 82.7896 44.1667C82.7766 44.1796 82.8053 44.2852 82.7627 44.3222C82.4554 44.5889 82.0787 44.6898 81.6788 44.7222Z" fill="url(#paint0_linear_2782_2)"/>
<path d="M109.818 67.3148C108.551 59.6463 99.8333 55.5908 92.9697 59.1185C92.3578 59.4324 91.8034 59.9306 91.1878 60.1732C85.3684 56.6158 78.5825 54.8454 71.7745 54.537C71.7153 55.113 71.494 55.1806 71.034 55.3704C70.6943 55.5102 70.6758 55.525 70.2935 55.5556C70.2028 55.563 70.1074 55.5556 70.0158 55.5556C69.6798 55.5556 69.5585 55.513 69.2753 55.463C69.217 55.4528 69.1411 55.4769 69.0902 55.463C68.5496 55.3204 68.2275 55.1306 68.1645 54.537C61.35 54.8722 54.7317 56.7333 48.8641 60.1806C47.297 59.125 45.6299 58.3083 43.7454 57.9917C37.514 56.9454 31.7621 60.8278 30.3996 66.9435C30.1024 68.2778 30.0247 68.987 30.1219 70.3695C30.2589 72.3195 30.767 73.9796 31.788 75.6472C32.9645 77.5695 34.7436 79.1445 36.7864 80.0917C36.8161 80.8204 36.8744 81.4074 36.9716 82.1287C37.1641 83.5639 37.4982 84.8482 37.9898 86.2028C38.5822 87.8352 39.1922 88.9324 40.1187 90.3695C42.3625 93.85 44.969 96.2833 48.4494 98.5176C49.6416 99.2833 50.7802 99.937 52.0594 100.555C62.7699 105.724 75.9843 105.847 86.8633 101.11C88.1841 100.535 89.4948 99.9398 90.6584 99.0732C91.2887 98.9333 92.0746 98.3269 92.6318 97.9454C95.2838 96.1259 97.484 93.9852 99.3593 91.388C100.186 90.2435 100.776 89.3454 101.396 88.0546C102.183 86.4139 102.613 85.113 102.969 83.3324C103.19 82.2352 103.41 81.1287 103.432 79.9991C105.624 79.0667 107.253 77.4019 108.431 75.3695C109 74.3861 109.224 73.8843 109.541 72.7769C109.747 72.0593 109.951 71.4102 110.004 70.6472C110.077 69.5824 109.993 68.3648 109.819 67.3139L109.818 67.3148ZM78.4391 93.1482C77.5717 93.8556 77.1163 94.1259 76.125 94.6296C72.1577 96.6454 67.9942 96.6704 63.9992 94.6296C63.005 94.1213 62.4552 93.7658 61.5925 93.0556C60.9177 92.5 60.665 92.2111 60.1115 91.5741C59.6839 91.0824 59.2997 90.6935 58.9258 90.1213C58.6046 89.6306 57.7687 88.2056 57.7049 87.6852C57.7011 87.6565 57.7039 87.6222 57.7049 87.5926C57.7271 87.0954 58.1297 86.7472 58.5925 86.675C60.528 86.3722 63.0726 86.2861 65.0599 86.2C68.9791 86.0306 73.0908 86.0732 77.0034 86.2972C78.34 86.3741 80.2589 86.4361 81.5316 86.675C82.2082 86.8019 82.2369 87.0204 82.5119 87.5926C81.8898 89.1463 81.2104 90.3111 80.1052 91.5741C79.5489 92.2102 79.0842 92.6222 78.4391 93.1482ZM80.1052 74.6296C80.8679 70.8556 84.1965 68.1398 88.036 69.9833C91.3674 71.5833 92.7522 76.788 91.2128 80C90.5158 81.4537 88.7469 82.7 87.14 82.8704C86.2718 82.962 84.6529 82.9 83.8077 82.6852C82.9747 82.4732 81.8398 81.8426 81.2613 81.2046C80.767 80.6593 79.9775 79.2454 80.1052 78.5185C79.7831 77.3528 79.8645 75.8204 80.1052 74.6296ZM52.5657 69.813C56.5247 68.2982 59.6237 71.3195 60.1115 75.0926C60.3216 76.0037 60.2226 77.4102 60.1115 78.3333C59.8819 80.2435 58.8276 81.8167 56.9643 82.5C55.9721 82.8639 53.9866 83.0417 52.9841 82.7778C50.8996 82.6408 49.1649 81.0648 48.6336 79.0741C47.7247 75.6695 49.0622 71.1528 52.5657 69.813Z" fill="url(#paint1_linear_2782_2)"/>
<path d="M72.9775 20C73.2663 20.0954 73.7394 20.1651 74.043 20.1846C96.9505 21.654 116.329 40.0035 119.521 62.6543L120 66.9443V73.0557L119.521 77.3457C116.343 99.0437 99.0487 116.342 77.3584 119.521L73.0703 120H66.9609L66.6943 119.97C66.619 119.987 66.5397 120 66.4551 120H25.1494C24.2992 120 23.8371 119.006 24.3848 118.355L35.0127 105.734C27.3851 98.2563 22.1248 88.3695 20.5098 77.3457L20.0312 73.0557C20.1053 71.0399 19.9322 68.9517 20.0312 66.9443C21.2568 42.2083 42.2198 21.2094 66.9609 20H72.9775ZM92.9473 35.9961C88.1636 32.7509 81.3416 35.4262 80.291 41.1104L80.29 41.1113C75.264 41.5198 70.5902 45.2712 68.9277 49.9766C68.4918 51.2117 68.0271 53.2399 68.1641 54.5371C61.3497 54.8723 54.7317 56.7335 48.8643 60.1807C47.2972 59.1251 45.6297 58.3079 43.7451 57.9912C37.5139 56.9451 31.762 60.8278 30.3994 66.9434C30.1023 68.2775 30.0249 68.9869 30.1221 70.3691C30.2591 72.3191 30.7671 73.9799 31.7881 75.6475C32.9645 77.5695 34.7434 79.1446 36.7861 80.0918C36.8158 80.8204 36.8745 81.4077 36.9717 82.1289C37.1642 83.564 37.4978 84.8486 37.9893 86.2031C38.5816 87.8354 39.1926 88.9322 40.1191 90.3691C42.3629 93.8497 44.9689 96.2833 48.4492 98.5176C49.6414 99.2833 50.7803 99.9371 52.0596 100.555C62.7701 105.724 75.9844 105.847 86.8633 101.11C88.1841 100.535 89.4947 99.9399 90.6582 99.0732C91.2886 98.9334 92.0746 98.3268 92.6318 97.9453C95.2837 96.1259 97.4841 93.9849 99.3594 91.3877C100.186 90.2434 100.775 89.3453 101.396 88.0547C102.183 86.4139 102.612 85.1126 102.97 83.332C103.19 82.235 103.409 81.1285 103.432 79.999C105.624 79.0666 107.253 77.4015 108.431 75.3691C109 74.386 109.224 73.8837 109.541 72.7764C109.746 72.059 109.951 71.4102 110.004 70.6475C110.077 69.5826 109.993 68.3644 109.819 67.3135C108.552 59.6453 99.8341 55.5897 92.9707 59.1172C92.3589 59.4311 91.804 59.9293 91.1885 60.1719C85.3691 56.6146 78.5833 54.8445 71.7754 54.5361C71.8235 54.0676 71.8097 53.6088 71.8838 53.1162C72.5273 48.7924 75.9528 45.3904 80.291 44.8135C80.3086 45.2903 80.5827 45.7029 80.7539 46.1104C81.5453 47.9955 82.641 49.2151 84.457 50.1846C86.9672 51.5241 89.4199 51.517 91.9541 50.2764C93.7655 49.3893 94.8789 48.3119 95.749 46.4805C96.1035 45.7343 96.3662 45.0901 96.4902 44.2588C96.6606 43.1218 96.5854 42.4831 96.3975 41.3877C96.0022 39.0878 94.891 37.3155 92.9473 35.9961Z" fill="url(#paint2_linear_2782_2)"/>
</g>
<defs>
<linearGradient id="paint0_linear_2782_2" x1="88.4372" y1="34.596" x2="88.4372" y2="51.1995" gradientUnits="userSpaceOnUse">
<stop stop-color="white"/>
<stop offset="0.514423" stop-color="white"/>
<stop offset="1" stop-color="#CDCDCD"/>
</linearGradient>
<linearGradient id="paint1_linear_2782_2" x1="70.0564" y1="54.537" x2="70.0564" y2="104.552" gradientUnits="userSpaceOnUse">
<stop stop-color="white"/>
<stop offset="0.514423" stop-color="white"/>
<stop offset="1" stop-color="#CDCDCD"/>
</linearGradient>
<linearGradient id="paint2_linear_2782_2" x1="70" y1="20" x2="70" y2="120" gradientUnits="userSpaceOnUse">
<stop stop-color="#FE4E00"/>
<stop offset="1" stop-color="#C53D00"/>
</linearGradient>
<clipPath id="clip0_2782_2">
<rect width="100" height="100" fill="white" transform="translate(20 20)"/>
</clipPath>
</defs>
</svg>
