<svg width="140" height="140" viewBox="0 0 140 140" fill="none" xmlns="http://www.w3.org/2000/svg">
<g clip-path="url(#clip0_3470_1017)">
<rect width="140" height="140" rx="30" fill="white"/>
<g clip-path="url(#clip1_3470_1017)">
<path d="M112.374 -1L115.432 -0.731338C129.594 1.21733 140.695 13.2932 140.873 27.691C140.874 27.9038 140.792 28.2493 141 28.3801V111.873H-1V27.6264C-0.544671 26.981 -0.818566 26.0616 -0.747039 25.3062C0.587547 11.2241 13.2426 -0.733083 27.4485 -0.869158L27.7521 -1H112.375H112.374ZM30.2625 74.0805V76.5909H28.4412C28.2894 76.5909 27.6526 77.1335 27.7451 77.4004L27.766 95.0955C28.408 99.162 34.0691 99.162 34.7687 95.0955L34.7826 77.6569C34.814 77.219 34.4128 76.5892 33.9662 76.5892H32.1448V74.0788C38.4811 73.6583 44.3288 70.5879 48.2646 65.6543C48.835 64.939 50.14 63.3567 49.969 62.4688C49.8486 61.839 49.02 61.7413 48.5419 62.0396C48.2541 62.2193 46.8829 64.4541 46.4537 64.9722C34.4546 79.4206 10.699 70.7938 10.7007 52.0433C10.7007 33.4009 34.2994 24.57 46.4537 39.1144C46.8567 39.5976 48.3343 41.9179 48.5419 42.047C49.4177 42.5965 50.2499 41.8568 49.9027 40.8118C49.6986 40.1977 48.1494 38.2334 47.6522 37.6646C44.5905 34.1703 40.3565 31.6459 36.0143 30.5957C25.2381 27.9893 14.1707 33.9766 10.296 44.2556C4.94545 58.4545 15.2506 73.6095 30.2607 74.077L30.2625 74.0805ZM121.539 37.293C120.842 37.4413 115.702 38.3171 115.639 38.6137C115.552 39.0202 117.03 39.0149 117.152 40.3635C116.791 45.6303 117.612 51.4937 117.143 56.689C117.089 57.2961 116.995 57.7968 116.512 58.1946C116.206 58.4441 115.884 58.2382 116.014 58.8889H122.668C122.827 58.219 122.325 58.4284 121.983 58.0044C121.766 57.7358 121.594 57.1461 121.552 56.8042C121.259 54.3949 121.744 51.4937 121.534 49.0304C121.744 47.2684 125.374 46.4345 125.681 49.1578C125.869 50.8326 125.859 55.1277 125.667 56.8042C125.606 57.3293 125.451 57.8492 125.048 58.1946C124.756 58.4441 124.414 58.233 124.551 58.8889H131.204C131.328 58.158 130.669 58.4301 130.337 57.6834C129.68 56.2006 130.21 51.4833 130.072 49.5363C129.945 47.729 129.437 46.0071 127.537 45.4174C125.466 44.7754 123.577 45.468 122.161 47.0224C121.915 47.2928 121.794 47.6365 121.536 47.8406V37.2948L121.539 37.293ZM31.7698 45.2029L25.9935 46.3351C25.8051 47.0783 26.8379 46.9753 27.2339 47.5423C27.4084 47.7935 27.4799 48.2192 27.5061 48.5262C27.684 50.5656 27.6735 54.3932 27.4991 56.4396C27.4572 56.9385 27.3194 57.7986 26.9408 58.1405C26.6146 58.4353 26.2273 58.2312 26.3721 58.8889H32.8374C32.963 58.8889 33.0974 58.5016 33.0224 58.3917C32.9892 58.3446 32.3804 58.2556 32.1204 57.7236C31.9303 57.3345 31.8047 56.2756 31.7715 55.8133C31.6616 54.2624 31.6215 51.5583 31.7645 50.0335C31.85 49.1089 32.9997 47.9418 33.9051 47.7168C34.0063 49.6114 35.9288 50.7279 37.614 49.73C40.271 48.1564 38.1793 43.8404 34.7826 45.6425C33.4829 46.3316 32.7206 47.6575 31.7715 48.7199V45.2046L31.7698 45.2029ZM51.4815 51.8583V50.037C51.4815 48.2227 49.8067 46.2025 48.1267 45.6076C42.1237 43.4862 36.5673 48.8577 38.9573 54.9026C40.8101 59.5885 47.9854 60.7713 50.5778 56.4134C50.8186 56.0087 51.4972 54.8485 50.7244 54.9235C49.8695 57.2717 46.8707 57.9626 44.8906 56.5006C43.46 55.4434 43.0309 53.5436 43.0693 51.8549H51.4815V51.8583ZM52.8615 58.0097C56.3035 59.756 64.0284 60.0246 62.9747 54.2379C62.4967 51.6159 59.2308 50.4784 57.3415 49.0723C54.8625 47.2283 56.0505 45.0179 58.8959 45.7611C59.6897 45.9687 60.637 46.6404 61.1446 47.2789C61.4499 47.6609 62.0588 49.1054 62.1477 49.163C62.3327 49.2816 62.5281 49.1019 62.5281 49.0339V46.1467C62.5281 45.7297 59.4123 45.2308 58.9552 45.1994C56.1831 45.0127 52.0974 45.8065 52.6661 49.4805C53.2819 53.4581 59.4576 54.0094 59.7385 56.8548C59.8205 57.6922 59.2989 58.5016 58.4371 58.6272C56.3855 58.9238 54.6549 57.3485 53.7966 55.6318C53.5418 55.1207 53.4511 54.0425 52.8615 54.1193V58.0114V58.0097ZM76.7165 51.8583C77.4667 42.0243 62.788 43.4723 63.676 52.9086C64.2325 58.8331 72.151 61.4395 75.5651 56.7955C75.7466 56.5477 76.5107 55.2027 76.3397 54.9968C76.3293 54.9846 76.0414 54.8729 76.0257 54.8729C75.9437 54.8764 75.4046 56.0017 75.1464 56.2511C74.576 56.8059 73.4333 57.2298 72.6413 57.2612C69.5743 57.3816 68.1595 54.5991 68.3043 51.8566H76.7165V51.8583ZM91.5313 56.8809C91.172 56.8077 90.9853 57.1653 90.6887 57.2333C89.6856 57.4636 89.218 56.5547 89.1413 55.6929C88.8761 52.6888 89.9385 48.289 87.1263 46.1571C84.8392 44.423 80.3976 45.0214 78.8711 47.5475C77.3882 50.0021 80.7133 51.5391 81.9206 49.7178C82.423 48.9606 82.3026 47.8685 81.6048 47.2824C81.1216 46.8759 80.0766 46.8113 81.2297 46.1397C82.2782 45.5291 83.4279 45.8082 84.103 46.7939C85.0643 48.1965 84.6752 49.8137 84.759 51.4048C82.7335 52.1654 78.4175 52.4341 77.5574 54.7718C75.9873 59.0424 81.9921 60.5393 84.5008 57.4462C84.6613 57.2473 84.67 56.9333 84.8741 56.8809C85.5231 59.3355 88.7034 59.6338 90.5683 58.3656C91.0219 58.0568 91.6168 57.4776 91.5296 56.8809H91.5313ZM96.8051 45.2029L91.0341 46.3386C90.8684 46.9806 91.3638 46.8585 91.7738 47.1568C92.3478 47.5755 92.4804 48.0901 92.5397 48.7757C92.7054 50.7052 92.6705 53.985 92.5345 55.9354C92.4961 56.4867 92.3617 57.7079 91.9919 58.0917C91.7075 58.3865 91.247 58.2522 91.4057 58.8872H97.9338C98.0926 58.2522 97.639 58.3847 97.3477 58.0917C97.0023 57.741 96.8453 56.8059 96.8051 56.3122C96.6691 54.6584 96.6446 51.5426 96.7982 49.9044C96.8836 48.9798 97.9024 48.0482 98.752 47.7168C99.0382 48.3623 99.1114 48.9572 99.6645 49.4718C101.54 51.2129 104.6 49.1334 103.571 46.6596C102.688 44.5399 100.043 45.0493 98.6858 46.3944L96.8034 48.7181V45.2029H96.8051ZM113.11 46.4432C113.059 46.5322 112.415 46.8201 112.185 47.3365C110.763 50.522 116.215 51.3873 116.13 48.1651C116.065 45.7018 112.309 45.0685 110.43 45.2046C99.9122 45.96 102.676 61.3156 112.374 58.8244C113.675 58.4894 115.177 57.4095 115.749 56.1726C115.885 55.8778 116.292 54.9811 115.7 55.0038C115.613 55.0073 115.454 55.3893 115.325 55.4975C112.939 57.5107 109.287 56.45 108.541 53.3674C108.026 51.2425 108.509 45.735 111.451 45.5867C111.84 45.5675 113.433 45.8832 113.11 46.4415V46.4432ZM70.1884 73.4525H72.3848C73.0582 73.4525 74.5254 73.9846 75.122 74.3562C77.7354 75.9873 77.13 80.34 74.0544 81.1495C71.0816 81.931 68.0287 80.4185 67.6763 77.219H65.7921C66.0119 84.8165 79.3526 85.2649 78.5972 76.9067C78.3704 74.4033 76.8683 73.5118 74.7783 72.6901C74.6475 72.6378 74.4765 72.643 74.4573 72.4476C78.721 72.0673 79.5986 66.0782 76.1304 63.9307C72.4755 61.668 66.0399 63.498 66.1707 68.4282C66.5562 68.3549 67.6762 68.5538 67.9362 68.3723C68.0688 68.2799 68.1734 67.4791 68.2816 67.2122C69.8447 63.3532 77.1632 63.9412 76.3101 68.9637C75.8635 71.5928 72.2714 71.7795 70.1867 71.8178V73.4507L70.1884 73.4525ZM92.7874 68.1787C92.606 62.2699 84.2548 61.1813 81.5123 65.8811C79.1415 69.9442 78.9862 81.3082 84.8758 82.6812C90.9853 84.1065 95.2158 79.5218 93.0718 73.606C91.6029 69.5517 85.8022 68.6637 82.8818 71.5195C82.4038 71.9871 82.1788 72.6081 81.7409 73.0757C81.767 69.7505 82.2154 64.9687 86.4442 64.6599C88.9808 64.475 90.6381 65.6229 91.0306 68.1804H92.7892L92.7874 68.1787ZM101.8 63.0654C96.8976 63.1195 95.5421 66.9889 95.2943 71.2509C95.0449 75.5407 95.3868 82.3742 100.889 82.8679C106.555 83.3755 108.199 79.63 108.488 74.651C108.78 69.6563 108.227 62.9939 101.802 63.0654H101.8Z" fill="#313193"/>
<path d="M141 111.871V114.005L140.583 116.916C138.612 128.312 129.917 137.286 118.755 140.035L112.876 140.998H27.2496L21.9758 140.184C10.5647 137.696 1.59416 128.579 -0.457443 117.042C-0.659811 115.906 -0.66679 114.723 -1 113.63V111.871H141ZM52.0729 118.553C51.1326 118.766 50.9163 120.233 51.6176 120.838C52.3189 121.443 53.7442 121.286 53.9658 120.32C54.2728 118.977 53.3517 118.261 52.0729 118.553ZM57.6328 119.155H55.3736V131.333H57.6328V119.155ZM71.9469 119.155H69.5621V131.333H71.9469V119.155ZM120.409 119.155H118.15V131.333H120.409V119.155ZM48.4669 120.032H46.0821V122.291C46.0821 122.342 45.0773 122.241 45.0773 122.291V124.175C45.2622 124.207 46.0385 124.13 46.0821 124.175C46.2269 124.32 46.0402 127.651 46.0821 128.256C46.1554 129.292 46.3107 130.369 47.2928 130.937C47.5109 131.065 48.446 131.333 48.6553 131.333H50.4767V129.325C50.0126 129.35 48.4687 129.448 48.4687 128.76V124.177H50.4767V122.293H48.6553C48.6414 122.293 48.4669 122.119 48.4669 122.105V120.034V120.032ZM39.6534 122.079C33.7149 122.583 34.2209 131.928 40.4943 131.455C46.5985 130.995 46.1083 121.531 39.6534 122.079ZM65.8567 131.332C66.3329 131.478 67.4878 131.223 68.0531 131.332V122.291H65.6683C65.6177 122.291 65.7066 123.157 65.6683 123.296C63.5765 121.204 60.1153 121.86 59.0128 124.612C57.1862 129.17 61.5808 133.748 65.6683 130.201C65.6927 130.47 65.5601 131.239 65.8584 131.332H65.8567ZM80.3313 122.079C74.2881 122.595 74.8917 131.925 81.1721 131.455C87.2223 131.002 86.7547 121.529 80.3313 122.079ZM93.4155 125.055C93.2166 122.49 90.502 121.607 88.2899 122.253C86.7512 122.703 85.5283 124.416 86.4006 125.979C86.5524 126.251 87.2781 126.935 87.4281 127.014C88.1155 127.378 89.3437 127.49 90.2159 127.813C90.5788 127.947 91.2191 128.136 91.2801 128.512C91.4773 129.706 89.4448 129.866 88.7034 129.198C88.5063 129.02 88.2603 128.443 88.2027 128.443H86.0063C86.0063 129.926 87.0025 130.777 88.3231 131.211C90.3328 131.872 93.6021 131.185 93.48 128.565C93.3666 126.122 90.8021 126.314 89.1849 125.58C87.5677 124.845 88.7435 123.577 90.3555 124.029C90.5108 124.073 90.5177 124.221 90.5614 124.247C90.6172 124.28 90.741 124.203 90.8318 124.299C91.0847 124.564 91.1126 125.055 91.1545 125.055H93.4137H93.4155ZM114.258 131.332C114.341 131.415 116.306 131.269 116.642 131.332V122.291H114.258C114.207 122.291 114.296 123.157 114.258 123.296C110.212 119.844 105.859 124.139 107.508 128.729C108.549 131.632 112.091 132.364 114.258 130.201C114.294 130.398 114.212 131.285 114.258 131.332ZM21.9758 122.293C21.8921 122.209 19.9277 122.356 19.591 122.293V131.333H21.7874C21.8014 131.333 21.9758 131.159 21.9758 131.145V125.494C21.9758 125.306 22.3526 124.702 22.5411 124.552C23.2476 123.987 24.6415 124.06 25.3062 124.676C25.4457 124.805 25.8679 125.618 25.8679 125.746V131.145C25.8679 131.159 26.0424 131.333 26.0563 131.333H28.2527V125.746C28.2527 125.693 28.579 124.992 28.6488 124.887C29.2663 123.966 30.976 123.888 31.7105 124.673C31.8884 124.863 32.2687 125.658 32.2687 125.871V131.333H34.5279V124.994C34.5279 124.92 34.2401 124.102 34.1738 123.966C33.1846 121.92 30.259 121.58 28.5668 122.925C28.3225 123.118 27.8654 123.786 27.8096 123.8C27.5793 123.863 27.5061 123.362 27.3142 123.165C26.0424 121.857 23.3453 121.728 22.0351 123.045C21.8677 122.926 22.0456 122.365 21.9723 122.293H21.9758ZM53.7407 122.293H51.4815V131.333H53.7407V122.293ZM96.0515 122.293H93.6667L96.3201 131.316H98.7974L100.507 125.304L102.063 131.258C102.145 131.38 104.52 131.382 104.603 131.258L107.225 122.291H104.966L103.396 128.821L101.754 122.284C101.292 122.377 99.4638 122.129 99.251 122.413L97.5605 128.819L96.0515 122.291V122.293Z" fill="#FCBC16"/>
<path d="M27.7521 -1L27.4485 -0.869158C13.2426 -0.733083 0.587547 11.2241 -0.747039 25.3044C-0.818566 26.0598 -0.544671 26.981 -1 27.6247V-1H27.7521Z" fill="#FCFCFD"/>
<path d="M112.374 -1H141V28.3801C140.792 28.2492 140.874 27.9038 140.873 27.691C140.695 13.2932 129.596 1.21733 115.432 -0.731338L112.374 -1Z" fill="#FCFCFD"/>
<path d="M27.2496 141H-1V113.63C-0.66679 114.725 -0.659811 115.906 -0.457443 117.042C1.59416 128.579 10.5647 137.696 21.9758 140.184L27.2496 140.998V141Z" fill="#FCFCFD"/>
<path d="M141 114.006V141H112.876L118.755 140.037C129.917 137.287 138.612 128.312 140.583 116.918L141 114.006Z" fill="#FCFCFD"/>
<path d="M30.2623 74.0806C15.2504 73.6131 4.94701 58.4581 10.2976 44.2592C14.1705 33.9802 25.2397 27.9929 36.0158 30.5993C40.358 31.6495 44.5938 34.1739 47.6538 37.6682C48.151 38.2369 49.7001 40.2013 49.9043 40.8154C50.2514 41.8604 49.4193 42.6001 48.5435 42.0505C48.3359 41.9214 46.8583 39.6012 46.4553 39.1179C34.3009 24.5736 10.7023 33.4045 10.7023 52.0469C10.7023 70.7956 34.4562 79.4225 46.4553 64.9758C46.8862 64.4576 48.2556 62.2229 48.5435 62.0432C49.0215 61.7449 49.8502 61.8443 49.9705 62.4723C50.1415 63.3586 48.8366 64.9426 48.2661 65.6579C44.3286 70.5915 38.4826 73.6619 32.1464 74.0824V76.5928H33.9677C34.4143 76.5928 34.8138 77.2226 34.7842 77.6605L34.7702 95.099C34.0706 99.1656 28.4078 99.1656 27.7676 95.099L27.7466 77.404C27.6542 77.1371 28.2909 76.5945 28.4427 76.5945H30.264V74.0841L30.2623 74.0806ZM33.0239 78.4752H29.5086V94.86C29.5086 94.9874 29.9326 95.8004 30.0704 95.9295C30.7037 96.5174 31.8359 96.5121 32.4604 95.9295C32.6 95.8004 33.0222 94.9891 33.0222 94.86V78.4752H33.0239Z" fill="#FCBC16"/>
<path d="M121.539 37.293V47.8389C121.798 47.6347 121.918 47.2911 122.164 47.0207C123.581 45.468 125.47 44.7737 127.541 45.4157C129.442 46.0053 129.948 47.7272 130.076 49.5346C130.213 51.4815 129.683 56.1988 130.341 57.6816C130.672 58.4283 131.332 58.1562 131.208 58.8871H124.554C124.416 58.2329 124.758 58.4423 125.051 58.1928C125.456 57.8474 125.611 57.3275 125.671 56.8024C125.863 55.1259 125.873 50.8308 125.685 49.156C125.378 46.4327 121.747 47.2666 121.538 49.0286C121.745 51.492 121.262 54.3932 121.555 56.8024C121.597 57.1461 121.77 57.7357 121.986 58.0026C122.328 58.4266 122.83 58.2172 122.672 58.8871H116.018C115.885 58.2364 116.21 58.4423 116.515 58.1928C116.998 57.7968 117.093 57.2944 117.147 56.6872C117.616 51.4902 116.794 45.6285 117.155 40.3617C117.032 39.0131 115.556 39.0184 115.643 38.6119C115.706 38.3171 120.845 37.4395 121.543 37.2913L121.539 37.293Z" fill="#FCFCFD"/>
<path d="M91.5315 56.881C91.6187 57.4794 91.0238 58.0586 90.5702 58.3657C88.7053 59.6339 85.5267 59.3356 84.876 56.881C84.6719 56.9334 84.6632 57.2474 84.5027 57.4463C81.994 60.5394 75.9892 59.0425 77.5593 54.7719C78.4194 52.4342 82.7337 52.1655 84.7609 51.4049C84.6771 49.8138 85.0662 48.1966 84.1049 46.794C83.4298 45.8083 82.2801 45.5292 81.2316 46.1398C80.0785 46.8114 81.1235 46.876 81.6067 47.2825C82.3028 47.8686 82.4232 48.9607 81.9225 49.7179C80.7152 51.5392 77.3901 50.0005 78.873 47.5476C80.3995 45.0215 84.8411 44.4231 87.1282 46.1572C89.9405 48.2891 88.878 52.6906 89.1432 55.693C89.22 56.5548 89.6875 57.4637 90.6906 57.2334C90.9872 57.1654 91.1739 56.8078 91.5332 56.881H91.5315ZM84.8778 51.8584C83.5885 52.1166 82.4127 52.7307 81.9835 54.0496C81.5212 55.4697 81.8684 57.865 83.8677 57.1898C84.1311 57.1008 84.8778 56.2722 84.8778 56.0663V51.8602V51.8584Z" fill="#FCFCFD"/>
<path d="M92.7874 68.1788H91.0289C90.6364 65.6213 88.9791 64.4734 86.4425 64.6583C82.2137 64.9671 81.7653 69.7489 81.7392 73.074C82.1788 72.6065 82.4038 71.9837 82.8801 71.5179C85.8005 68.662 91.6011 69.55 93.0701 73.6044C95.2141 79.5202 90.9836 84.1049 84.8741 82.6796C78.9845 81.3066 79.1398 69.9425 81.5106 65.8795C84.2531 61.1796 92.6043 62.27 92.7857 68.1771L92.7874 68.1788ZM86.2314 71.6051C79.8638 72.3727 80.7709 82.2748 88.1731 81.2054C93.1992 80.4779 93.1137 70.7764 86.2314 71.6051Z" fill="#FCFCFD"/>
<path d="M101.8 63.0655C108.227 62.994 108.778 69.6565 108.487 74.6511C108.197 79.6301 106.554 83.3756 100.888 82.868C95.3853 82.3743 95.0434 75.5408 95.2928 71.251C95.5406 66.989 96.8961 63.1213 101.798 63.0655H101.8ZM101.8 64.824C97.9515 64.8886 97.3305 68.5277 97.177 71.6278C97.0217 74.7697 97.0496 80.6193 101.151 81.099C106.627 81.741 106.8 75.5618 106.605 71.6278C106.446 68.4248 105.785 64.7577 101.8 64.824Z" fill="#FCFCFD"/>
<path d="M76.7165 51.8584H68.3043C68.1595 54.5991 69.5743 57.3834 72.6412 57.2631C73.4333 57.2316 74.5759 56.806 75.1464 56.253C75.4046 56.0035 75.9437 54.8782 76.0257 54.8748C76.0431 54.8748 76.3292 54.9847 76.3397 54.9986C76.5107 55.2045 75.7465 56.5495 75.5651 56.7973C72.151 61.4413 64.2325 58.8349 63.6759 52.9104C62.788 43.4741 77.4667 42.0243 76.7165 51.8602V51.8584ZM72.95 51.4816C72.8279 50.058 72.7982 45.6844 70.7431 45.5885C68.866 45.5012 68.1001 50.1086 68.306 51.4816H72.9518H72.95Z" fill="#FCFCFD"/>
<path d="M51.4816 51.8584H43.0694C43.031 53.5471 43.4602 55.4469 44.8907 56.5041C46.8708 57.9661 49.8697 57.2752 50.7245 54.927C51.4973 54.852 50.8187 56.0122 50.578 56.4169C47.9838 60.7731 40.8102 59.5903 38.9575 54.9061C36.5674 48.8612 42.1238 43.4897 48.1269 45.6111C49.8069 46.2043 51.4816 48.2262 51.4816 50.0405V51.8619V51.8584ZM47.7151 51.4815C47.7082 50.1121 47.4639 45.5989 45.5205 45.5762C43.5771 45.5535 42.8775 50.0632 43.0694 51.4815H47.7151Z" fill="#FCFCFD"/>
<path d="M113.11 46.4434C113.432 45.8851 111.84 45.5693 111.451 45.5885C108.511 45.7368 108.028 51.2444 108.541 53.3692C109.286 56.4519 112.937 57.5126 115.325 55.4994C115.453 55.3912 115.611 55.0091 115.7 55.0056C116.292 54.983 115.885 55.8797 115.749 56.1745C115.179 57.4114 113.675 58.4913 112.373 58.8262C102.677 61.3175 99.912 45.9619 110.43 45.2065C112.309 45.0721 116.063 45.7037 116.129 48.167C116.215 51.3892 110.763 50.5239 112.185 47.3383C112.415 46.8202 113.059 46.5341 113.11 46.4451V46.4434Z" fill="#FCFCFD"/>
<path d="M70.1883 73.4524V71.8195C72.2713 71.7811 75.8651 71.5944 76.3099 68.9654C77.1613 63.9428 69.8446 63.3566 68.2815 67.2138C68.1733 67.4808 68.0686 68.2815 67.9361 68.374C67.6761 68.5554 66.5561 68.3565 66.1706 68.4298C66.0397 63.4979 72.4754 61.6679 76.1302 63.9323C79.7851 66.1968 78.7209 72.0689 74.4572 72.4492C74.4764 72.6446 74.6474 72.6394 74.7782 72.6917C76.8682 73.5134 78.372 74.4032 78.597 76.9083C79.3524 85.2665 66.0118 84.8164 65.792 77.2206H67.6761C68.0285 80.4201 71.0815 81.9327 74.0542 81.1511C77.1281 80.3416 77.7352 75.9907 75.1219 74.3578C74.5252 73.9862 73.0563 73.4541 72.3847 73.4541H70.1883V73.4524Z" fill="#FCFCFD"/>
<path d="M31.77 45.2029V48.7182C32.7172 47.6558 33.4814 46.3299 34.7811 45.6408C38.1777 43.8387 40.2694 48.1547 37.6125 49.7283C35.9272 50.7262 34.0047 49.6097 33.9035 47.7151C32.9999 47.9401 31.8502 49.1072 31.763 50.0319C31.6217 51.5566 31.66 54.2607 31.77 55.8116C31.8031 56.2756 31.9287 57.3328 32.1189 57.7219C32.3788 58.254 32.9877 58.3429 33.0208 58.39C33.0976 58.4999 32.9615 58.8872 32.8359 58.8872H26.3705C26.2257 58.2295 26.613 58.4319 26.9393 58.1388C27.3196 57.7969 27.4557 56.9368 27.4975 56.4379C27.672 54.3915 27.6825 50.5639 27.5045 48.5246C27.4783 48.2193 27.4068 47.7918 27.2324 47.5406C26.8363 46.9736 25.8036 47.0783 25.992 46.3334L31.7682 45.2012L31.77 45.2029Z" fill="#FCFCFD"/>
<path d="M96.805 45.2029V48.7182L98.6874 46.3944C100.046 45.0494 102.691 44.5382 103.572 46.6596C104.601 49.1351 101.54 51.2129 99.6661 49.4718C99.113 48.9589 99.0398 48.364 98.7537 47.7168C97.9041 48.0483 96.887 48.9798 96.7998 49.9045C96.6462 51.5426 96.6707 54.6566 96.8067 56.3122C96.8469 56.8059 97.0021 57.7428 97.3493 58.0917C97.6406 58.3865 98.0942 58.2539 97.9355 58.8872H91.4073C91.2468 58.2522 91.7074 58.3865 91.9935 58.0917C92.3651 57.7079 92.4977 56.4884 92.5361 55.9354C92.6721 53.985 92.707 50.7052 92.5413 48.7757C92.482 48.0901 92.3494 47.5755 91.7754 47.1568C91.3655 46.8585 90.87 46.9788 91.0357 46.3386L96.8067 45.2029H96.805Z" fill="#FCFCFD"/>
<path d="M52.8613 58.0097V54.1176C53.4509 54.0408 53.5417 55.119 53.7964 55.6301C54.6529 57.3468 56.3853 58.9221 58.4369 58.6255C59.3004 58.4999 59.8221 57.6922 59.7383 56.8531C59.4592 54.0059 53.2817 53.4564 52.6659 49.4788C52.0972 45.8048 56.1812 45.0128 58.955 45.1977C59.4121 45.2291 62.5279 45.728 62.5279 46.145V49.0322C62.5279 49.1003 62.3307 49.2817 62.1476 49.1613C62.0586 49.1037 61.448 47.6593 61.1444 47.2772C60.6368 46.6387 59.6877 45.967 58.8957 45.7594C56.0521 45.0162 54.864 47.2266 57.3413 49.0706C59.2289 50.475 62.4965 51.6142 62.9745 54.2362C64.0282 60.0247 56.3033 59.756 52.8613 58.008V58.0097Z" fill="#FCFCFD"/>
<path d="M21.976 122.293C22.0476 122.365 21.8696 122.926 22.0389 123.045C23.3508 121.728 26.0478 121.855 27.3179 123.165C27.5098 123.362 27.5831 123.863 27.8133 123.8C27.8692 123.785 28.328 123.118 28.5705 122.925C30.2627 121.579 33.1883 121.92 34.1775 123.966C34.2438 124.102 34.5316 124.919 34.5316 124.994V131.333H32.2724V125.871C32.2724 125.658 31.8921 124.863 31.7142 124.673C30.9797 123.888 29.27 123.966 28.6525 124.887C28.5827 124.992 28.2565 125.693 28.2565 125.745V131.333H26.0601C26.0461 131.333 25.8716 131.159 25.8716 131.145V125.745C25.8716 125.618 25.4477 124.805 25.3099 124.676C24.6452 124.06 23.2513 123.989 22.5448 124.552C22.3564 124.702 21.9795 125.306 21.9795 125.494V131.145C21.9795 131.159 21.8051 131.333 21.7911 131.333H19.5947V122.293C19.9314 122.356 21.8958 122.209 21.9795 122.293H21.976Z" fill="#313193"/>
<path d="M96.0513 122.293L97.5604 128.821L99.2508 122.415C99.4637 122.131 101.292 122.378 101.754 122.286L103.396 128.823L104.966 122.293H107.225L104.603 131.26C104.519 131.382 102.145 131.382 102.063 131.26L100.507 125.306L98.7972 131.318H96.32L93.6665 122.295H96.0513V122.293Z" fill="#313193"/>
<path d="M114.258 131.332C114.211 131.284 114.293 130.398 114.258 130.201C112.091 132.366 108.549 131.632 107.508 128.729C105.861 124.139 110.212 119.842 114.258 123.296C114.296 123.157 114.209 122.291 114.258 122.291H116.642V131.332C116.306 131.269 114.341 131.415 114.258 131.332ZM111.21 124.205C110.739 124.301 109.999 124.99 109.799 125.43C108.881 127.443 110.421 130.084 112.75 129.259C115.249 128.373 114.709 123.488 111.21 124.203V124.205Z" fill="#313193"/>
<path d="M65.8568 131.332C65.5585 131.239 65.6911 130.47 65.6666 130.201C61.5791 133.748 57.1846 129.17 59.0112 124.612C60.1137 121.86 63.5749 121.204 65.6666 123.296C65.705 123.157 65.6178 122.291 65.6666 122.291H68.0515V131.332C67.4845 131.223 66.3296 131.478 65.8551 131.332H65.8568ZM62.748 124.207C60.5394 124.584 60.3667 128.491 62.5299 129.261C65.0578 130.158 66.5895 126.974 65.22 125.063C64.6251 124.233 63.7302 124.039 62.7463 124.207H62.748Z" fill="#313193"/>
<path d="M80.3315 122.078C86.755 121.529 87.2207 131.002 81.1724 131.455C74.892 131.926 74.2883 122.597 80.3315 122.078ZM80.5827 124.076C77.6885 124.308 77.7356 129.524 80.7921 129.453C83.9776 129.378 83.7927 123.818 80.5827 124.076Z" fill="#313193"/>
<path d="M39.6534 122.078C46.1083 121.529 46.5985 130.995 40.4943 131.455C34.2209 131.928 33.7149 122.584 39.6534 122.078ZM39.9046 124.078C36.9267 124.376 37.1622 129.522 40.114 129.453C43.3414 129.376 43.1181 123.755 39.9046 124.078Z" fill="#313193"/>
<path d="M93.4152 125.055H91.156C91.1141 125.055 91.0862 124.563 90.8333 124.299C90.7425 124.205 90.6187 124.282 90.5628 124.247C90.5192 124.221 90.5123 124.073 90.357 124.029C88.745 123.579 87.5046 124.816 89.1864 125.58C90.8682 126.344 93.3681 126.124 93.4815 128.565C93.6036 131.185 90.3343 131.873 88.3246 131.211C87.004 130.777 86.0078 129.926 86.0078 128.443H88.2042C88.2618 128.443 88.5078 129.022 88.7049 129.198C89.4463 129.865 91.4787 129.706 91.2816 128.513C91.2188 128.136 90.5803 127.947 90.2174 127.813C89.3452 127.49 88.117 127.379 87.4296 127.014C87.2796 126.934 86.5539 126.25 86.4021 125.979C85.5298 124.416 86.7527 122.701 88.2914 122.253C90.5035 121.608 93.2181 122.49 93.417 125.055H93.4152Z" fill="#313193"/>
<path d="M48.4668 120.032V122.103C48.4668 122.117 48.6413 122.291 48.6552 122.291H50.4766V124.176H48.4686V128.759C48.4686 129.446 50.0125 129.348 50.4766 129.324V131.332H48.6552C48.4459 131.332 47.5108 131.063 47.2927 130.936C46.3106 130.367 46.1553 129.291 46.082 128.254C46.0401 127.651 46.2251 124.319 46.082 124.174C46.0384 124.13 45.2621 124.205 45.0771 124.174V122.29C45.0771 122.239 46.082 122.34 46.082 122.29V120.031H48.4668V120.032Z" fill="#313193"/>
<path d="M71.9454 119.155H69.5605V131.333H71.9454V119.155Z" fill="#313193"/>
<path d="M57.6327 119.155H55.3735V131.333H57.6327V119.155Z" fill="#313193"/>
<path d="M120.409 119.155H118.15V131.333H120.409V119.155Z" fill="#313193"/>
<path d="M53.7406 122.293H51.4814V131.334H53.7406V122.293Z" fill="#313193"/>
<path d="M52.0731 118.553C53.3518 118.263 54.273 118.977 53.9659 120.32C53.7444 121.286 52.2912 121.419 51.6178 120.838C50.9444 120.257 51.1328 118.765 52.0731 118.553Z" fill="#313193"/>
<path d="M33.0243 78.4751V94.86C33.0243 94.9891 32.6004 95.8003 32.4625 95.9294C31.838 96.5121 30.7058 96.5173 30.0725 95.9294C29.9329 95.8003 29.5107 94.9873 29.5107 94.86V78.4751H33.026H33.0243Z" fill="#313193"/>
<path d="M84.8778 51.8584V56.0646C84.8778 56.2704 84.1311 57.0991 83.8677 57.1881C81.8684 57.8632 81.5213 55.4679 81.9836 54.0479C82.4127 52.729 83.5886 52.1166 84.8778 51.8567V51.8584Z" fill="#313193"/>
<path d="M86.2313 71.6051C93.1136 70.7746 93.1973 80.4779 88.173 81.2054C80.7726 82.2765 79.8636 72.3727 86.2313 71.6051Z" fill="#313193"/>
<path d="M101.8 64.8239C105.785 64.7576 106.446 68.4247 106.604 71.6277C106.8 75.5616 106.627 81.7391 101.151 81.0989C97.0495 80.6191 97.0216 74.7696 97.1769 71.6277C97.3304 68.5276 97.9514 64.8884 101.8 64.8239Z" fill="#313193"/>
<path d="M72.9503 51.4815H68.3045C68.1004 50.1085 68.8663 45.5012 70.7417 45.5884C72.7967 45.6843 72.8264 50.0579 72.9485 51.4815H72.9503Z" fill="#313193"/>
<path d="M47.7152 51.4816H43.0694C42.8775 50.0633 43.6172 45.5536 45.5205 45.5763C47.4239 45.5989 47.7082 50.1121 47.7152 51.4816Z" fill="#313193"/>
<path d="M111.21 124.205C114.71 123.488 115.249 128.375 112.75 129.261C110.421 130.086 108.883 127.443 109.799 125.432C109.999 124.992 110.739 124.303 111.21 124.207V124.205Z" fill="#FCBC16"/>
<path d="M62.7478 124.207C63.7317 124.039 64.6249 124.233 65.2215 125.063C66.591 126.974 65.0576 130.157 62.5314 129.261C60.3664 128.493 60.5409 124.585 62.7495 124.207H62.7478Z" fill="#FCBC16"/>
<path d="M80.5825 124.076C83.7924 123.818 83.9774 129.378 80.7918 129.453C77.7353 129.524 77.6882 124.308 80.5825 124.076Z" fill="#FCBC16"/>
<path d="M39.9047 124.078C43.1182 123.755 43.3415 129.378 40.114 129.453C37.164 129.523 36.9267 124.376 39.9047 124.078Z" fill="#FCBC16"/>
</g>
</g>
<defs>
<clipPath id="clip0_3470_1017">
<rect width="140" height="140" rx="30" fill="white"/>
</clipPath>
<clipPath id="clip1_3470_1017">
<rect width="142" height="142" fill="white" transform="translate(-1 -1)"/>
</clipPath>
</defs>
</svg>
