<svg width="140" height="140" viewBox="0 0 140 140" fill="none" xmlns="http://www.w3.org/2000/svg">
<rect width="140" height="140" rx="30" fill="#FE462D"/>
<g clip-path="url(#clip0_2712_1558)">
<path d="M33.9021 59.6621C41.0454 60.6468 41.7818 70.5919 34.9061 72.5052C35.6139 74.8982 38.4706 76.3206 40.9332 76.4076V80.8738C36.5776 80.7391 32.6938 78.5761 30.6829 74.7944C30.4298 74.3175 30.0903 72.8643 30.0097 72.797C29.7652 72.5978 28.5915 72.8699 28.5915 73.1982V80.5932H24V59.6621C27.0696 59.9651 30.9361 59.2525 33.9021 59.6621ZM28.8791 69.15H33.0419C34.0661 69.15 34.9982 67.001 34.8515 66.0135C34.4372 63.2278 31.0771 63.4746 28.8791 63.5672V69.15Z" fill="#FEFBFB"/>
<path d="M64.7592 59.6621V63.8477H55.0009V67.7557H62.1758V71.9413H55.0009V76.1298H65.3317V80.596H50.1189V59.6621H64.7592Z" fill="#FEFBFB"/>
<path d="M75.9904 74.4915C76.5859 74.1548 78.5192 75.9334 79.4024 76.2645C82.869 77.555 87.2015 75.277 84.2642 72.9316C81.4881 70.7154 75.4438 71.8852 74.5865 66.4343C73.5106 59.5807 81.7758 57.645 87.0519 59.8921C87.6704 60.1558 89.8396 61.2555 89.7072 61.9962C89.6756 62.1729 87.4144 64.6164 87.236 64.6613C86.7642 64.7791 84.7936 63.4129 83.9363 63.2025C80.7056 62.4086 77.7597 64.8465 80.9156 66.6952C84.2901 68.673 89.8194 67.8202 90.3143 73.4647C91.0824 82.254 78.1164 82.9554 73.3811 77.6335L75.9904 74.4915Z" fill="#FEFBFB"/>
<path d="M102.504 59.6621L107.38 67.2002L111.545 59.6621H117L109.535 71.8039V80.596H104.655V71.8039L97.1929 59.6621H102.504Z" fill="#FEFBFB"/>
<path d="M28.8792 69.15V63.5672C31.0771 63.4746 34.4372 63.2277 34.8515 66.0135C34.9982 67.001 34.0661 69.15 33.042 69.15H28.8792Z" fill="#FE462D"/>
</g>
<defs>
<clipPath id="clip0_2712_1558">
<rect width="93" height="22" fill="white" transform="translate(24 59)"/>
</clipPath>
</defs>
</svg>
