<svg width="140" height="140" viewBox="0 0 140 140" fill="none" xmlns="http://www.w3.org/2000/svg">
<rect width="140" height="140" rx="30" fill="white"/>
<g clip-path="url(#clip0_800_9776)">
<path d="M68.3081 108.751C66.4537 111.797 63.7776 113.71 60.5213 114.837C57.9822 115.716 55.3874 116.371 52.7021 116.656C49.9459 116.949 47.1887 117.138 44.4291 116.873C37.2202 116.181 32.4286 111.184 31.2554 104.839C30.7726 102.223 31.0349 99.679 31.5292 97.1032C32.2789 93.2016 32.9334 89.2812 33.6007 85.3633C34.1902 81.9028 34.7646 78.44 35.3031 74.9725C35.9193 71.0056 36.4891 67.0316 37.0786 63.0599C37.4964 60.2402 37.9327 57.4228 38.3238 54.5996C38.7068 51.8324 39.1013 49.064 39.3822 46.2851C39.6769 43.3697 39.8846 40.4426 40.0436 37.5166C40.1179 36.143 40.0193 34.7564 39.945 33.3793C39.6595 28.0514 43.416 24.9131 47.1156 24.1183C49.5444 23.5966 52.0151 23.2558 54.4799 22.9325C56.7579 22.6337 59.0487 22.412 61.3395 22.2568C63.6337 22.0992 65.9361 21.9942 68.235 22C71.6363 22.0082 75.0446 22.0198 78.4367 22.2346C84.2089 22.5999 89.8128 23.7845 94.9177 26.6544C101.958 30.6121 106.281 36.6565 108.098 44.5321C108.917 48.0754 109.156 51.6713 108.906 55.2987C108.399 62.6596 105.485 68.9328 100.406 74.2093C99.3983 75.255 98.3179 76.233 97.2271 77.1912C96.8488 77.5238 96.7931 77.7958 96.9753 78.2311C99.0328 83.1294 101.055 88.0418 103.139 92.9284C104.34 95.747 105.634 98.5271 106.887 101.322C108.811 105.613 107.12 110.504 103.003 112.76C99.3693 114.75 95.4713 115.857 91.4015 116.364C89.0086 116.662 86.5913 116.989 84.1915 116.943C77.7114 116.818 72.3872 114.222 68.4659 108.929C68.4311 108.883 68.3893 108.842 68.3081 108.75V108.751ZM98.5941 104.378C97.3431 103.148 96.6387 101.78 95.9691 100.405C91.8634 91.9621 88.7637 83.1318 85.9995 74.1719C85.8881 73.8113 85.9937 73.6584 86.2838 73.4786C88.9877 71.7957 91.5187 69.8933 93.7619 67.6104C97.8015 63.4999 99.9391 58.5899 99.8289 52.7882C99.794 50.915 99.6014 49.022 99.2591 47.1803C98.3318 42.1851 95.6813 38.2858 91.3945 35.6061C87.912 33.4294 83.9884 32.5249 79.9604 32.148C76.7877 31.8515 73.5999 31.6519 70.4155 31.5889C67.5596 31.5329 64.6944 31.6578 61.8396 31.8235C59.4699 31.9624 57.1084 32.2495 54.7491 32.5238C53.0827 32.7175 51.4267 33.0035 49.7649 33.2462C49.2671 33.3186 49.1081 33.5438 49.1092 34.1005C49.1185 36.8409 49.1475 39.5859 48.992 42.3193C48.8528 44.7772 48.5081 47.2235 48.2076 49.6697C47.878 52.3657 47.5101 55.0571 47.133 57.7461C46.7349 60.5891 46.309 63.4275 45.8947 66.2683C45.4944 69.0121 45.1172 71.7607 44.689 74.4999C44.1471 77.9673 43.575 81.429 42.9947 84.8906C42.3599 88.6755 41.7078 92.4581 41.0474 96.2395C40.6854 98.3076 40.3059 100.372 40.6726 102.481C40.9906 104.311 41.8482 105.797 43.6028 106.538C44.4964 106.915 45.4746 107.133 46.4355 107.294C48.1344 107.58 49.8253 107.278 51.5091 107.049C53.8649 106.729 56.2067 106.32 58.4255 105.422C59.1833 105.115 59.8912 104.684 60.6559 104.291C60.027 103.262 59.8715 102.256 59.8169 101.218C59.6695 98.429 59.9631 95.6618 60.3229 92.9109C60.9159 88.3732 61.6168 83.8495 62.2551 79.3177C62.3143 78.8999 62.5115 78.8333 62.8713 78.8357C64.8046 78.8473 66.7391 78.859 68.6725 78.8287C69.1541 78.8205 69.3282 78.9921 69.4721 79.4321C71.6595 86.1394 73.8714 92.8386 76.0647 99.5448C76.537 100.987 77.036 102.411 77.9006 103.674C79.6784 106.271 82.011 107.723 85.2626 107.332C86.6041 107.171 87.9561 107.101 89.2941 106.924C91.7659 106.599 94.2098 106.125 96.5668 105.283C97.2294 105.047 97.8584 104.71 98.593 104.379L98.5941 104.378Z" fill="url(#paint0_linear_800_9776)"/>
<path d="M63.9657 68.0645C65.2167 59.4022 66.4642 50.7715 67.721 42.0672C68.5705 42.031 69.4141 41.9505 70.2543 41.968C72.2689 42.0112 74.2649 42.2014 76.1588 42.9787C79.1226 44.1948 80.7926 46.4789 81.1314 49.602C81.6559 54.4268 80.7949 59.0241 78.1432 63.1451C76.2214 66.1317 73.3203 67.6245 69.8551 67.9466C68.0146 68.1182 66.1532 68.0598 64.3011 68.1018C64.1908 68.1042 64.0794 68.0773 63.9634 68.0633L63.9657 68.0645Z" fill="url(#paint1_linear_800_9776)"/>
</g>
<defs>
<linearGradient id="paint0_linear_800_9776" x1="69.9998" y1="21.9998" x2="69.9998" y2="116.999" gradientUnits="userSpaceOnUse">
<stop stop-color="#37BCE2"/>
<stop offset="1" stop-color="#1E73AE"/>
</linearGradient>
<linearGradient id="paint1_linear_800_9776" x1="72.6205" y1="41.9655" x2="72.6205" y2="68.102" gradientUnits="userSpaceOnUse">
<stop stop-color="#37BCE2"/>
<stop offset="1" stop-color="#1E73AE"/>
</linearGradient>
<clipPath id="clip0_800_9776">
<rect width="78" height="95" fill="white" transform="translate(31 22)"/>
</clipPath>
</defs>
</svg>
