<svg width="140" height="140" viewBox="0 0 140 140" fill="none" xmlns="http://www.w3.org/2000/svg">
<g clip-path="url(#clip0_3450_501)">
<rect width="140" height="140" rx="30" fill="#EE7311"/>
<g clip-path="url(#clip1_3450_501)">
<path d="M6 3.00122H144L143.999 141H6V3.00122ZM103.038 45.7048C114.507 54.1762 126.43 38.6075 116.815 30.211C110.63 24.8091 100.288 28.5075 99.3992 36.7842C99.1154 39.4218 100.923 44.143 103.038 45.7037V45.7048ZM29.6405 40.3271V111.854H46.1881L46.4822 82.7059C55.2287 82.6956 66.4756 83.0088 72.1745 90.674C76.8756 96.9961 77.6549 104.164 77.8071 111.853H94.3548C94.3308 104.03 93.1864 95.842 89.4122 89.0327C88.8767 88.0675 87.635 86.1866 86.9553 85.317C85.3257 83.2311 82.9957 81.3883 81.0606 79.58L85.1987 76.3147C93.1177 69.192 93.8959 56.6122 89.0392 47.4613C79.7835 30.021 48.137 31.7947 32.9408 38.6513C31.8033 39.165 30.6212 39.4575 29.6405 40.326V40.3271Z" fill="#EE7311"/>
<path d="M29.6406 40.3271C30.6214 39.4586 31.8035 39.1661 32.941 38.6524C48.136 31.7958 79.7836 30.022 89.0393 47.4624C93.8961 56.6145 93.1179 69.1931 85.1988 76.3157L81.0608 79.5811C82.997 81.3894 85.3258 83.2322 86.9554 85.3181C87.6352 86.1877 88.878 88.0686 89.4124 89.0338C93.1865 95.8431 94.3309 104.031 94.355 111.854H77.8073C77.6562 104.165 76.8758 96.9972 72.1747 90.6751C66.4757 83.0099 55.2288 82.6966 46.4824 82.707L46.1883 111.855H29.6406V40.3271ZM72.0728 50.7173C67.9966 47.2435 61.7964 46.7103 56.6661 47.0063C53.2216 47.2044 49.3147 47.9335 46.2363 49.4457L46.2249 70.1802C47.0317 71.0198 60.0398 71.2456 61.9944 71.1062C68.3056 70.6559 74.7679 67.834 75.7211 60.8323C76.148 57.696 74.5012 52.7871 72.0728 50.7185V50.7173Z" fill="#FDFCFA"/>
<path d="M103.038 45.7048C100.925 44.143 99.1167 39.4229 99.3994 36.7854C100.289 28.5086 110.63 24.8102 116.816 30.2121C126.429 38.6086 114.507 54.1773 103.038 45.7059V45.7048Z" fill="#FDFCFA"/>
<path d="M72.0726 50.7172C74.4998 52.7858 76.1477 57.6948 75.7208 60.8311C74.7676 67.8328 68.3053 70.6546 61.9941 71.105C60.0395 71.2444 47.0314 71.0186 46.2246 70.179L46.2361 49.4445C49.3144 47.9322 53.2202 47.2031 56.6659 47.005C61.7961 46.7102 67.9963 47.2423 72.0726 50.7161V50.7172Z" fill="#EE7414"/>
<circle cx="110" cy="38" r="11" fill="white"/>
</g>
</g>
<defs>
<clipPath id="clip0_3450_501">
<rect width="140" height="140" rx="30" fill="white"/>
</clipPath>
<clipPath id="clip1_3450_501">
<rect width="138" height="138" fill="white" transform="translate(6 3)"/>
</clipPath>
</defs>
</svg>
