<svg width="140" height="140" viewBox="0 0 140 140" fill="none" xmlns="http://www.w3.org/2000/svg">
<g clip-path="url(#clip0_2717_1990)">
<rect width="140" height="140" rx="30" fill="url(#paint0_linear_2717_1990)"/>
<path fill-rule="evenodd" clip-rule="evenodd" d="M77.9491 63.0499C76.0342 63.0499 74.4832 64.6174 74.4832 66.552C74.4832 68.4849 76.0342 70.0524 77.9491 70.0524C79.8624 70.0524 81.4134 68.4849 81.4134 66.552C81.4134 64.6174 79.8624 63.0499 77.9491 63.0499ZM77.9491 52.9101C76.0342 52.9101 74.4832 54.4776 74.4832 56.4121C74.4832 58.3459 76.0342 59.9134 77.9491 59.9134C79.8624 59.9134 81.4134 58.3459 81.4134 56.4121C81.4134 54.4776 79.8624 52.9101 77.9491 52.9101ZM68.2663 73.0712C66.3522 73.0712 64.8012 74.6403 64.8012 76.5733C64.8012 78.507 66.3522 80.0753 68.2663 80.0753C70.1804 80.0753 71.7306 78.507 71.7306 76.5733C71.7306 74.6403 70.1804 73.0712 68.2663 73.0712ZM68.2663 63.0499C66.3522 63.0499 64.8012 64.6174 64.8012 66.552C64.8012 68.4849 66.3522 70.0524 68.2663 70.0524C70.1804 70.0524 71.7306 68.4849 71.7306 66.552C71.7306 64.6174 70.1804 63.0499 68.2663 63.0499ZM68.2663 52.9101C66.3522 52.9101 64.8012 54.4776 64.8012 56.4121C64.8012 58.3459 66.3522 59.9134 68.2663 59.9134C70.1804 59.9134 71.7306 58.3459 71.7306 56.4121C71.7306 54.4776 70.1804 52.9101 68.2663 52.9101ZM58.6381 63.0499C56.7232 63.0499 55.1722 64.6174 55.1722 66.552C55.1722 68.4849 56.7232 70.0524 58.6381 70.0524C60.5513 70.0524 62.1024 68.4849 62.1024 66.552C62.1024 64.6174 60.5513 63.0499 58.6381 63.0499ZM58.6381 52.9101C56.7232 52.9101 55.1722 54.4776 55.1722 56.4121C55.1722 58.3459 56.7232 59.9134 58.6381 59.9134C60.5513 59.9134 62.1024 58.3459 62.1024 56.4121C62.1024 54.4776 60.5513 52.9101 58.6381 52.9101ZM96.2232 91.6446H88.7597V100.11C88.7597 106.123 83.9363 111 77.9837 111C72.0334 111 67.2084 106.123 67.2084 100.11V91.6446H40.5961C36.5029 91.6446 32.7639 89.3007 30.9438 85.5956C29.1245 81.8913 29.539 77.4642 32.0145 74.1701L69.4029 27.3059C72.2005 23.5813 77.0383 22.078 81.4222 23.5699C85.807 25.0619 88.7597 29.2153 88.7597 33.8909V69.8656H96.2232C102.176 69.8656 107 74.7402 107 80.7543C107 86.7691 102.176 91.6446 96.2232 91.6446Z" fill="white"/>
</g>
<defs>
<linearGradient id="paint0_linear_2717_1990" x1="70" y1="0" x2="70" y2="140" gradientUnits="userSpaceOnUse">
<stop stop-color="#5ACEFF"/>
<stop offset="1" stop-color="#1A9CFA"/>
</linearGradient>
<clipPath id="clip0_2717_1990">
<rect width="140" height="140" rx="30" fill="white"/>
</clipPath>
</defs>
</svg>
