<svg width="140" height="140" viewBox="0 0 140 140" fill="none" xmlns="http://www.w3.org/2000/svg">
<rect width="140" height="140" rx="30" fill="#20C894"/>
<g clip-path="url(#clip0_822_1178)">
<path d="M39.5146 116C37.797 116 37.8169 116.005 38.2359 114.287C40.4308 105.298 42.895 96.3878 45.8081 87.6C46.011 86.9869 45.8098 86.2096 45.6884 85.5269C44.9501 81.3874 44.182 77.2545 43.4221 73.1199C43.3722 72.8498 43.3439 72.5731 43.2608 72.3146C42.5857 70.2398 44.0922 68.9589 45.0848 67.5536C47.4942 64.1432 49.9634 60.7743 52.4874 57.4467C54.4777 54.8251 56.5429 52.2566 58.6762 49.751C59.1235 49.2273 59.9831 48.9357 60.7047 48.7799C64.9863 47.8536 69.2729 46.9488 73.5761 46.1351C76.4012 45.5999 79.2561 45.2237 82.1011 44.7928C82.2624 44.768 82.57 44.8658 82.5899 44.9552C82.6265 45.1226 82.555 45.3712 82.4369 45.5054C75.7261 53.1995 69.5922 61.3277 63.9987 69.8587C60.0696 75.8509 56.4481 82.0221 53.1159 88.3656C49.1137 95.9851 45.5587 103.8 42.4544 111.822C42.0902 112.765 41.7094 113.703 41.3619 114.651C40.8681 115.997 40.8781 116 39.5129 116H39.5146Z" fill="#F7F7F7"/>
<path d="M63.3867 44.6255C63.5896 44.2775 63.6711 44.0488 63.824 43.8897C68.247 39.3077 72.7514 34.8003 77.0745 30.1272C79.4988 27.5039 82.6348 26.6853 85.8721 25.918C89.2492 25.1177 92.6811 24.821 96.1297 25.1061C98.6039 25.3115 101.068 25.7838 102.894 27.7194C104.119 29.0169 104.631 30.6873 105.105 32.3494C106.123 35.9139 106.056 39.5712 105.933 43.2252C105.902 44.1532 105.715 45.0745 105.611 45.9992C105.479 47.1493 104.638 47.8784 103.981 48.7053C100.348 53.2807 96.6934 57.8395 93.0652 62.4198C92.3502 63.3213 91.7383 64.3023 91.0433 65.2204C90.8854 65.4292 90.5761 65.5236 90.3383 65.6694C90.2618 65.4242 90.1354 65.1839 90.1172 64.9353C89.8877 61.9807 89.6732 59.0243 89.457 56.0696C89.4487 55.9603 89.4504 55.8492 89.4487 55.7382C89.3922 51.4429 89.334 47.1476 89.2808 42.8507C89.2642 41.4935 88.2948 40.6964 86.9563 40.8919C84.9726 41.1803 82.979 41.4007 80.9953 41.6907C78.3133 42.0851 75.6279 42.4745 72.9592 42.9451C69.9962 43.4688 67.0481 44.0852 64.0917 44.6536C63.9371 44.6835 63.7692 44.6437 63.3884 44.6238L63.3867 44.6255Z" fill="#F7F7F7"/>
<path d="M87.2025 69.8471C87.5417 70.7867 86.7303 71.4993 86.2647 72.3063C83.0041 77.9555 79.7301 83.5964 76.4295 89.2223C76.2001 89.6118 75.7761 90.0277 75.3587 90.1487C68.0493 92.2698 60.8894 94.8069 53.8344 97.6505C53.4403 97.8096 53.003 97.861 52.584 97.9621C52.6921 97.5378 52.7303 97.0788 52.9182 96.6927C57.5456 87.2023 62.765 78.0466 68.6861 69.2969C72.6135 63.4936 76.7737 57.861 81.2648 52.4753C82.5136 50.9789 83.7673 49.4859 85.031 48.0027C85.1756 47.8337 85.4034 47.7359 85.5913 47.605C85.6761 47.8138 85.8274 48.0176 85.8374 48.2297C85.9638 51.0303 86.0186 53.8358 86.1982 56.6331C86.4127 59.9722 86.732 63.3064 86.998 66.6422C87.0778 67.6547 87.126 68.6689 87.2009 69.8471H87.2025Z" fill="#F7F7F7"/>
<path d="M66.8354 96.3115C66.709 96.7308 66.6542 96.9545 66.576 97.1683C65.6898 99.6076 64.1683 101.268 61.6409 102.33C57.3743 104.123 53.2773 106.319 49.1071 108.341C48.8743 108.453 48.6166 108.516 48.1211 108.692C48.3755 108.029 48.5318 107.583 48.713 107.149C49.2933 105.762 49.8686 104.372 50.4789 102.996C50.6052 102.713 50.8197 102.38 51.0808 102.259C56.1173 99.9456 61.3317 98.0979 66.8354 96.3115Z" fill="#F7F7F7"/>
</g>
<defs>
<clipPath id="clip0_822_1178">
<rect width="68" height="91" fill="white" transform="translate(38 25)"/>
</clipPath>
</defs>
</svg>
