<svg width="140" height="140" viewBox="0 0 140 140" fill="none" xmlns="http://www.w3.org/2000/svg">
<rect width="140" height="140" rx="30" fill="white"/>
<g clip-path="url(#clip0_3612_951)">
<path d="M76.3409 19.8514L74.7848 27.0702C76.8815 27.4631 78.9587 28.2451 80.9068 29.1043C81.1883 29.2285 82.5363 30.0046 82.6888 29.8961L85.8324 23.8092C85.9135 23.6431 86.067 23.6176 86.2371 23.6685C91.0972 26.3537 95.276 30.3194 98.2661 34.9898C98.5731 35.4698 100.762 39.1569 100.57 39.3758L93.931 42.1597C95.1323 44.7169 95.929 47.5057 96.273 50.3169L102.969 49.3365C103.097 49.3267 103.282 49.317 103.361 49.4313C103.427 49.5261 103.578 51.4371 103.597 51.7333C104.037 58.4106 102.591 65.1856 99.3521 71.0242C99.1899 71.3164 98.0501 73.2489 97.9358 73.3213C97.6357 73.5099 92.7277 69.8277 91.9339 69.5589C90.6876 71.3399 89.2771 73.0124 87.6789 74.4904C87.3847 74.7621 85.9566 75.8178 85.8637 76.0035C85.7093 76.3134 89.6319 80.8343 89.9213 81.6212C89.9164 81.8059 89.7395 81.8978 89.6212 82.0014C88.9037 82.6349 87.4472 83.5351 86.5939 84.0532C79.1161 88.5937 69.9667 90.0804 61.4009 88.1636C61.1204 88.101 60.7186 88.0267 60.4635 87.9299C60.3667 87.8938 60.2905 87.971 60.3247 87.7755L62.0861 81.2771C59.2886 80.6828 56.6728 79.4013 54.2212 77.9683L50.7443 83.9017C50.6749 83.9418 50.6045 83.9163 50.5351 83.8948C50.104 83.7599 48.8333 82.8382 48.3807 82.5283C44.0113 79.5293 39.7084 74.8999 37.3233 70.1444C37.2099 69.9176 36.8013 69.2666 36.9293 69.0672L43.3349 66.0859C42.0895 63.3489 41.1648 60.4477 40.7875 57.4507L33.5648 58.3246L33.2677 55.1536C33.0037 48.4294 34.8981 41.1373 38.5051 35.4766C38.7162 35.1462 39.6566 33.6575 39.8569 33.5089C40.0036 33.4004 40.1355 33.3701 40.2997 33.4679L45.8236 37.4961C47.5743 35.3886 49.4735 33.3887 51.6895 31.7592L47.4355 26.0428C48.6612 25.0966 49.9799 24.2452 51.3386 23.5013C58.8985 19.3685 67.8925 17.9052 76.3409 19.8514ZM77.1024 30.7143C76.9587 30.6497 76.7857 30.6928 76.6371 30.6409C57.88 24.124 40.0085 41.2634 44.9272 60.2004C46.4687 66.1367 50.6631 71.7671 55.883 74.9322C56.0951 75.0612 56.6239 75.1981 56.752 75.3134C56.9631 75.5021 56.618 75.4121 57.1909 75.6712C60.2455 77.0563 62.5407 78.0367 65.957 78.4336C74.7594 79.456 84.3799 74.7582 88.9291 67.3429C93.3445 60.1466 94.2281 51.0833 90.5811 43.3591C87.6545 37.1608 83.1902 33.4737 77.1024 30.7133V30.7143Z" fill="#590E9E"/>
<path d="M28 96.0275C30.5669 96.1155 33.21 95.9121 35.7691 96.0236C37.0692 96.0803 38.7006 96.2543 39.8863 96.7899C44.6663 98.9502 44.3251 106.277 39.3311 107.893L43.9214 115.268H38.8424C37.64 113.004 36.2647 110.799 34.8864 108.626H32.3958V115.268H28V96.0275ZM32.3948 104.915L32.4535 105.112C33.6206 105.075 34.7975 105.156 35.9646 105.11C36.1523 105.103 36.3566 105.211 36.3019 104.915C38.3869 104.738 39.4494 102.657 38.3517 100.862C38.0799 100.418 37.0281 99.7381 36.5453 99.7381H32.3938V104.915H32.3948Z" fill="#590E9E"/>
<path d="M64.6267 114.292V120.641H60.7685C60.7578 120.641 60.6219 120.505 60.6219 120.494V101.643C60.6219 101.611 60.7509 101.495 60.7196 101.399H64.3823C64.6277 101.399 64.4986 102.537 64.5299 102.766C68.0587 99.7088 73.3264 101.253 74.7887 105.644C75.6176 108.132 75.2472 111.342 73.518 113.366C71.3 115.963 67.3617 116.285 64.6277 114.292H64.6267ZM60.9151 120.348V101.985H60.8174V120.348H60.9151ZM67.2385 104.743C63.4869 105.329 63.7147 112.334 68.0899 112.143C72.5366 111.95 72.2169 103.964 67.2385 104.743ZM64.5289 114.39C64.4224 114.283 64.2279 114.478 64.3344 114.584C64.441 114.691 64.6355 114.496 64.5289 114.39Z" fill="#590E9E"/>
<path d="M83.5754 117.319C85.6418 117.933 87.3016 117.521 87.762 115.22L82.595 101.939L82.5012 101.497C83.9019 101.589 85.2987 101.244 86.6868 101.51L89.7297 110.287L92.8782 101.52C93.4002 101.235 93.9906 101.503 94.4657 101.497C94.8929 101.492 95.3386 101.376 95.8371 101.395C96.1968 101.409 96.5917 101.53 96.9573 101.547C96.8987 101.879 96.7804 102.208 96.6641 102.523C94.9437 107.205 93.1861 112.284 91.2663 116.855C90.3035 119.148 89.1931 120.913 86.4541 121.127C86.113 121.153 83.5744 121.035 83.5744 120.689V117.319H83.5754Z" fill="#590E9E"/>
<path d="M49.2928 105.208C49.5215 107.388 48.2449 112.356 51.8802 112.044C52.7922 111.966 54.0786 111.013 54.0786 110.043V101.545C54.0786 101.535 54.2144 101.399 54.2252 101.399H58.1811V115.268H54.2741V113.901C51.9144 116.31 47.2224 116.242 45.7581 112.894C45.6418 112.627 45.2889 111.541 45.2889 111.313V101.399H49.2937C49.2986 101.592 49.2859 101.79 49.2937 101.985C48.9976 101.931 49.1061 102.135 49.0982 102.323C49.0015 104.758 49.1706 107.214 49.0982 109.652C49.237 109.81 49.194 109.543 49.196 109.458C49.2361 108.123 49.1706 106.781 49.1921 105.445C49.194 105.319 49.2937 105.221 49.2937 105.208H49.2928ZM49.0963 101.595C48.8705 101.652 48.3465 101.466 48.2185 101.691C48.4433 101.633 48.9604 101.821 49.0963 101.595Z" fill="#590E9E"/>
<path d="M110.142 103.938C111.812 106.721 111.884 109.123 110.631 112.143C109.657 114.489 106.321 115.699 103.942 115.56C94.9603 115.036 94.9926 101.66 104.034 101.2C106.169 101.091 109.003 102.039 110.143 103.938H110.142ZM103.867 104.745C100.049 105.266 100.26 112.329 104.619 112.145C108.927 111.961 108.825 104.069 103.867 104.745Z" fill="#590E9E"/>
<path d="M81.1336 115.269H77.2755C77.2647 115.269 77.1288 115.133 77.1288 115.122V101.497L80.8902 101.396C80.9724 101.385 81.1336 101.497 81.1336 101.546V115.269Z" fill="#590E9E"/>
<path d="M81.2314 99.6414H77.1288V95.7344H81.0848C81.0955 95.7344 81.2314 95.8702 81.2314 95.881V99.6414Z" fill="#590E9E"/>
<path d="M110.142 103.938C111.888 105.924 112.053 109.135 111.038 111.525C110.945 111.743 110.842 112.012 110.631 112.142C111.884 109.123 111.812 106.721 110.142 103.938Z" fill="#450983"/>
<path d="M49.2927 101.985C49.3299 103.034 49.3103 104.155 49.2927 105.208C49.2927 105.221 49.193 105.319 49.1911 105.445C49.1696 106.781 49.2351 108.123 49.195 109.458C49.1921 109.542 49.2351 109.81 49.0973 109.652C49.1696 107.214 49.0015 104.759 49.0973 102.323C49.1051 102.134 48.9966 101.931 49.2927 101.985Z" fill="#450983"/>
<path d="M88.459 44.5546C88.4072 44.6445 88.372 44.7432 88.3612 44.8478C88.1139 44.8253 88.1618 44.8009 88.068 44.5546C88.1755 44.5712 88.3417 44.5604 88.459 44.5546Z" fill="#450983"/>
<path d="M36.3019 104.915C36.3566 105.211 36.1523 105.103 35.9646 105.11C34.7975 105.156 33.6216 105.075 32.4535 105.112L32.3948 104.915C33.6617 104.837 35.0497 105.02 36.3019 104.915Z" fill="#450983"/>
<path d="M60.9151 101.985H60.8174V120.348H60.9151V101.985Z" fill="#450983"/>
<path d="M64.529 114.39C64.6355 114.496 64.441 114.691 64.3344 114.584C64.2279 114.478 64.4224 114.283 64.529 114.39Z" fill="#450983"/>
<path d="M49.0963 101.595C48.9604 101.821 48.4433 101.634 48.2185 101.691C48.3466 101.466 48.8705 101.652 49.0963 101.595Z" fill="#450983"/>
<path d="M88.5568 44.5547C88.7953 44.5371 88.8578 44.2526 88.9468 44.8469C88.7542 44.8352 88.5529 44.8655 88.3613 44.8469C88.372 44.7423 88.4062 44.6446 88.459 44.5537C88.4913 44.5517 88.5245 44.5556 88.5568 44.5537V44.5547Z" fill="#590E9E"/>
<path d="M70.8778 31.9547C71.2111 31.5813 70.9188 31.419 70.9755 31.3691H71.2678C71.2688 31.7162 71.1945 31.985 71.4633 32.2479C71.779 32.5548 72.2023 32.4796 72.5376 32.2479C72.8435 32.0368 72.5786 31.9097 72.6353 31.8579C72.8465 31.6663 72.9501 32.2958 73.0253 32.4434C73.1857 32.7533 73.6001 32.8061 73.9031 32.6848C73.996 32.6477 74.0742 32.4678 74.1974 32.4434C74.2042 32.4424 74.2277 32.5539 74.2932 32.5421L74.2951 32.0524C74.5121 31.9811 74.7223 32.1296 74.8806 32.1502C74.0498 33.2792 75.9031 33.7816 75.7594 32.4434C75.9784 32.5128 76.2159 32.5284 76.5404 32.6389C75.951 33.3144 76.167 33.9693 77.1269 33.7132C77.1953 33.6946 77.3566 33.7552 77.4045 33.7014C77.4524 33.6477 77.4798 33.1619 77.5179 33.0289C77.7457 32.9458 77.9363 33.2928 78.0057 33.3222C77.7535 33.6232 77.5482 34.0269 77.9118 34.3437C78.4573 34.8187 78.7847 34.1169 78.8844 34.1032C78.8913 34.1032 78.9294 34.197 78.9802 34.2019L79.0301 33.8109C79.0731 33.8989 79.2256 33.8881 79.2579 33.9292C79.3057 33.9898 79.2774 34.1179 79.2754 34.2019C79.2647 34.5783 78.9754 34.8989 79.4338 35.1657C79.816 35.3896 80.2031 35.2117 80.252 34.7874H80.7397L80.6752 35.1335L80.7397 35.1775C80.3419 35.6027 80.6127 35.7161 80.7397 36.0562C80.7417 36.0611 80.6459 36.0983 80.6664 36.1295C80.9538 36.5851 81.6234 36.1471 81.7163 36.2507C81.7329 36.2693 81.6957 36.5098 81.814 36.7395C82.0388 37.1764 82.5501 37.3191 82.8883 36.935C82.9156 36.9037 82.9782 36.8695 82.986 36.8372C82.9929 36.8109 82.986 36.7727 82.986 36.7395C83.3281 36.6095 83.4259 37.107 83.4748 37.1305C82.9342 37.6779 83.1297 37.5674 83.2793 38.107C83.2832 38.1217 83.0896 38.2536 83.2744 38.3553C83.5813 38.5234 83.9244 38.2487 84.2558 38.7913C84.3115 38.8831 84.2323 39.1265 84.4933 39.2859C84.7328 39.4325 84.899 39.3318 85.0368 39.3768C85.0563 39.3836 85.3222 39.6505 85.33 39.67C85.3379 39.6906 85.33 39.7345 85.33 39.7678L85.0368 39.8665C84.9821 39.9408 85.2079 40.0249 85.2323 40.061C85.461 40.4041 85.7074 40.9926 86.2088 40.452L86.5021 40.5507L86.4033 40.7443C85.9771 40.9017 86.287 41.5556 86.5011 41.8186C86.6761 42.0346 86.8197 42.0649 86.8481 42.105C86.9869 42.3014 86.7582 42.9329 87.1853 43.0883C87.2938 43.1704 87.763 43.146 87.8686 43.0883C88.2234 43.0287 87.9556 43.2584 88.0641 43.4793C87.6946 43.5771 87.722 44.1753 87.8686 44.4558C87.896 44.5076 87.9048 44.5321 87.9663 44.5536C87.9918 44.5624 88.0299 44.5487 88.0641 44.5536C88.1579 44.7989 88.11 44.8234 88.3573 44.8468C88.3446 44.971 88.3573 45.1098 88.3573 45.2378C88.3573 45.2701 88.3573 45.3033 88.3573 45.3356C88.1921 45.4548 88.3319 45.4754 88.3573 45.5311C88.588 46.0335 88.6819 46.0482 89.2361 46.0198C89.3876 46.012 89.4912 45.9885 89.6261 45.9221C89.6975 46.4792 89.5558 46.2339 89.2351 46.358C88.7904 46.5291 88.7337 46.8908 88.9429 47.2896C89.1227 47.6307 89.2606 47.532 89.5294 47.5828C89.6594 47.6073 89.7601 47.7774 90.0171 47.5828C90.0758 47.8311 89.7552 47.9738 89.9204 48.1684C89.8627 48.1635 89.7786 48.1586 89.7249 48.1684C89.0582 47.9905 89.5098 48.1889 89.5294 48.2661C89.5352 48.2876 89.4091 48.5183 89.4228 48.705C89.46 49.2113 89.9204 49.2456 90.3104 49.0481C90.3162 49.2094 90.7112 49.4958 90.3397 49.6141C90.1598 49.6717 89.8822 49.5789 89.8226 49.8301C89.6936 49.9435 89.72 50.0148 89.7161 50.1683C89.6985 50.8565 89.9448 50.7949 90.5059 50.8066C90.6036 50.8086 90.7014 50.8027 90.7991 50.8066L90.7014 51.3921C89.7649 51.1536 89.7122 52.2523 90.2126 52.3687C90.1814 52.4987 90.152 52.6306 90.1149 52.7596C90.0396 53.0236 89.9595 53.22 90.0171 53.5416H90.8969C90.8969 53.6062 90.8949 53.6716 90.8969 53.7362C90.5411 53.6071 90.1256 53.5612 90.0416 53.9991C89.9174 54.6462 89.8519 55.1506 90.6036 55.1037V55.2992C89.6496 55.0792 89.6515 56.5582 90.6036 56.3734C91.1422 57.22 90.4443 56.7038 89.9653 56.7527C89.7366 56.7762 89.8529 56.9277 89.8226 56.959C89.8089 56.9736 89.6691 56.9091 89.63 57.0293C89.5997 57.1212 89.5137 57.7996 89.5391 57.8319C89.5694 57.87 89.6965 57.8211 89.7249 57.8387C89.7972 57.8807 89.9507 57.9834 90.0181 58.0342C90.0289 58.042 89.9868 58.1564 90.0416 58.2092C90.0592 58.2258 90.5587 58.2717 90.3104 58.522C90.2029 58.6305 89.9565 58.2747 89.6271 58.6197C89.242 59.0234 89.241 59.3128 89.6271 59.694C89.807 59.8719 89.9243 59.8993 90.1149 60.0371L89.8226 60.3773C89.2234 59.7722 88.5499 60.8758 89.1393 61.3538C89.3387 61.516 89.7483 61.4193 89.631 61.9735C89.6232 62.0087 89.3945 62.4144 89.3348 62.5268C89.5176 61.7878 88.4649 61.5151 88.3622 62.2912C88.2889 62.8484 88.5616 62.8621 89.0416 62.9178C88.9732 63.0263 88.9624 63.2706 88.9321 63.2951C88.9135 63.3107 88.4922 63.4016 88.4561 63.4055C88.1912 63.4378 87.9781 63.0976 87.6956 63.6763C87.5392 63.9979 87.721 64.2569 87.9673 64.4798C88.2137 64.7027 88.5783 64.6 87.8696 64.9686C87.5333 64.5893 87.1883 64.8337 86.8931 65.0663C86.7914 65.1465 86.6154 65.0585 86.5988 65.5032C86.5949 65.6137 86.7464 65.5247 86.7953 65.555C86.8354 65.5795 86.8618 65.6323 86.8931 65.6528C87.1628 66.167 86.6927 65.947 86.4991 65.9891C85.8149 66.1386 86.1277 66.2139 86.112 66.3361C86.0602 66.7398 85.7289 66.5853 86.112 67.2148C86.2362 67.4191 86.46 67.5267 86.4053 67.8004L86.0143 67.8981C85.941 67.6176 85.4092 67.3781 85.1355 67.6049C85.1003 67.6342 85.07 67.6703 85.0378 67.7026C85.0045 67.7358 84.9811 67.774 84.94 67.8004C84.9019 67.8248 84.7641 67.7388 84.7387 67.8561C84.6976 68.0408 84.8706 68.4445 84.8433 68.4826C84.7856 68.5628 84.2225 68.553 84.1678 68.5931C84.1238 68.6254 84.1746 68.7495 84.159 68.7759C83.943 69.1356 83.9606 69.0164 83.8658 69.4592C83.8579 69.4963 83.6927 69.6537 83.768 69.7514C83.8335 69.8365 84.3262 69.7114 84.158 70.2402C83.5588 70.3966 83.9821 69.8648 83.4748 69.9479C83.2685 69.8199 83.119 69.943 82.986 69.9479C82.9694 69.9479 82.8941 69.8072 82.815 69.8629C82.7954 69.8766 82.5041 70.1913 82.4982 70.2138C82.4249 70.4767 82.5373 70.855 82.596 71.1199L82.7905 71.0222C82.8423 71.1913 82.7661 71.4581 82.596 71.3154C82.5716 71.2949 82.6165 71.1424 82.596 71.1209C82.5755 71.0994 82.4445 71.1434 82.4005 71.1209C81.3184 70.5696 81.5168 71.1659 81.424 71.9019C81.3878 72.1873 81.2774 72.071 81.1307 72.2929C80.9851 71.7533 80.2637 71.8921 79.9587 72.2929C79.6704 72.6722 80.1542 72.898 80.1542 72.9371C80.1562 73.0524 80.0242 73.2206 80.0555 73.3672C79.7173 73.419 79.9059 72.9889 79.6635 72.8276C79.5687 72.765 79.4749 72.7866 79.3732 72.7807C78.8385 72.7475 78.7007 72.9175 78.5922 73.3672C78.5863 73.3906 78.5052 73.4327 78.4974 73.5187C78.4817 73.6907 78.6557 73.8833 78.5472 74.0524C78.3654 74.3349 78.295 74.0446 78.2022 73.9527C77.7349 73.4962 77.6381 73.4425 77.0301 73.855C76.5111 74.2078 76.8757 74.1981 76.9343 74.5871C76.9734 74.85 76.7408 74.7191 76.6401 74.636C76.5101 74.026 75.2032 74.1238 75.5659 75.027C75.4437 75.3965 75.3518 75.3427 74.9794 75.3202C74.9686 75.0915 74.7858 74.7562 74.5366 74.7318C74.1749 74.6956 74.0459 75.0436 73.8357 75.1052C73.1778 75.2958 71.9227 74.7787 72.3421 76.1022C72.3079 76.0973 71.6911 76.1882 71.6588 76.2C71.8827 75.4962 71.1456 75.2889 70.6823 75.6135C70.6451 75.6399 70.5982 75.6643 70.5845 75.7112C70.5767 75.7366 70.5865 75.7748 70.5845 75.809C70.393 75.8745 70.5318 76.3495 70.4868 76.3955L69.999 76.2977C70.1056 75.458 69.174 75.3192 68.9248 76.0045C68.8397 76.2371 68.8485 76.5685 68.828 76.591C68.7987 76.6222 68.175 76.6623 68.3392 76.3945C68.6354 75.5734 67.0773 75.1628 67.265 76.2967C67.2044 76.1824 67.1956 75.9888 67.0705 76.0045C67.3002 76.6828 67.0402 76.848 66.5807 76.2967C66.9082 75.5753 66.2367 75.3104 65.6042 75.7102C65.5817 75.7239 65.481 75.6721 65.4273 75.7317C65.397 75.765 65.4292 76.2058 65.2152 76.0025C65.134 75.9263 65.1702 75.4326 65.0206 75.2674C64.8574 75.0876 64.3129 75.0504 64.1389 75.2215C64.006 75.3515 63.921 75.7132 63.9434 75.9048C63.8936 75.8099 63.8281 75.7298 63.8447 75.6125C63.658 75.6271 63.8428 75.8862 63.5046 75.808C63.3961 75.7826 63.5182 75.4629 63.3579 75.417C63.3658 75.3456 63.3736 75.1765 63.3579 75.1237C63.3413 75.067 63.2915 75.0553 63.2602 75.026C63.2289 74.9967 63.1136 74.9439 63.0647 74.9282C63.1478 74.6018 62.4704 74.7181 62.3521 74.7533C62.0149 74.854 62.0579 75.2792 61.7959 75.416V74.7327C61.7939 74.6995 61.8027 74.6565 61.7959 74.635C61.7724 74.5715 61.747 74.5666 61.6981 74.5372C61.1908 74.2303 60.9787 74.3241 60.6239 74.7327C60.4812 74.897 60.6053 75.0543 60.3785 75.0279C60.185 75.0055 60.1557 74.8452 60.0374 74.7327C60.3414 74.4669 60.272 73.9116 59.8663 73.7768C59.7177 73.7279 59.5653 73.7797 59.4519 73.7562C59.2945 73.724 58.8908 73.6741 58.8693 73.6536C58.8419 73.6282 58.8957 73.1111 58.5721 73.072C58.0394 72.724 57.8752 73.1267 57.5956 73.3652C57.1293 73.7631 57.1176 73.5197 57.2046 73.072C57.2329 72.9263 57.3033 72.7973 57.2955 72.639C57.2672 72.1043 56.5956 71.9743 56.2281 72.3877C56.2007 72.419 56.143 72.4405 56.1303 72.4855C56.1196 72.5236 56.1225 72.6341 56.1303 72.681C55.7032 72.8071 55.5966 72.3213 55.5438 72.29C56.6895 71.4875 54.9691 70.6419 54.7628 71.7035C54.4833 71.725 54.2995 71.5422 54.1763 71.3125C54.7276 71.1238 54.8019 70.3174 54.2027 70.1542C54.0014 70.0994 53.8489 70.2265 53.6876 70.2372C53.236 70.2675 53.2526 70.0505 53.1988 70.0417C53.8723 69.2461 52.4862 68.4132 52.3201 69.553C52.235 69.421 52.0034 69.0007 51.9291 68.9665C52.6378 68.3712 52.0464 68.1738 52.0268 67.8922C52.0258 67.8737 52.1617 67.7837 52.1246 67.6977L51.3426 67.599C51.6172 66.8395 50.7678 66.5589 50.2683 67.1102C50.2018 66.9705 50.1549 66.9275 50.0728 66.817C50.1539 66.6391 50.8274 66.4827 50.7531 66.2843C50.6046 65.8874 50.2771 65.9021 49.9751 66.1337L49.585 66.035V65.9402C49.8265 65.9783 49.7493 65.7896 49.7796 65.7437C49.8666 65.6098 50.0621 65.4993 50.0679 65.3048C50.0884 64.5981 49.2546 64.4544 48.9008 65.0595C48.8294 64.906 48.6056 64.6303 48.6027 64.5306C48.6007 64.4642 48.7346 64.4407 48.804 64.3762C49.7708 63.4671 49.0054 63.7613 48.9018 63.2042C48.9008 63.1973 49.0181 63.168 49.0005 63.1084L48.414 63.1064C48.4277 62.8493 48.5098 62.7545 48.5108 62.5209C48.5147 61.8689 48.5039 61.8552 47.9243 61.7399C47.59 61.6734 47.0289 61.7428 47.5333 61.3489C47.6701 61.2423 47.9067 61.1583 47.9595 61.0312C48.0611 60.7907 47.936 60.604 47.9233 60.3724C47.9213 60.3401 48.0426 60.2238 48.0162 60.1857C47.9526 60.0928 47.3935 59.9217 47.2391 59.9814C47.198 59.8377 47.2997 59.7839 47.3368 59.6891C47.458 59.3744 47.6691 59.1075 47.4267 58.7683C47.2967 58.5865 46.8285 58.5503 46.6535 58.6148C46.4404 58.6148 46.3124 58.4946 46.3593 58.2737C46.3798 58.1789 46.5284 58.2649 46.6242 58.1974C46.677 58.1603 46.6438 58.0352 46.6535 58.0283C46.762 57.9531 47.0592 58.0968 47.1403 57.6833C47.2048 57.3529 47.1521 57.1115 46.849 56.9541C46.5978 56.8241 46.284 56.8778 46.2625 56.8563C46.2518 56.8466 46.2528 56.5748 46.2625 56.5641C46.3202 56.5015 46.7386 56.7195 46.6535 56.3686C46.6858 56.3686 46.72 56.3725 46.7513 56.3686C47.1716 56.3109 47.154 55.3148 47.0426 55.1975C47.0015 55.1545 46.1452 55.2268 45.9703 55.1956C45.9243 54.7449 46.5353 54.9776 46.6477 54.8935C46.6858 54.8652 46.6359 54.7303 46.6535 54.7078C46.6868 54.6619 46.7092 54.6443 46.7513 54.61C46.8187 54.5553 46.9536 54.5201 47.0445 54.5113C47.0983 54.439 46.8549 54.3363 46.849 54.3168C46.7249 53.9121 46.9712 53.5328 46.1658 53.6335C45.8803 53.4908 45.6702 52.9942 46.068 53.047C46.6379 53.2572 47.1227 52.6375 46.849 52.1448C46.7718 52.007 46.6017 52.0265 46.5558 51.9718C46.5392 51.9522 46.5812 51.8731 46.5538 51.8408C46.4971 51.7734 46.3652 51.7528 46.3583 51.7284C46.2557 51.3667 46.5656 51.4997 46.85 51.4821C46.8451 51.4312 46.7503 51.3931 46.7513 51.3863C46.764 51.2963 47.2772 51.0989 47.1423 50.5075C47.0983 50.314 46.7542 50.0823 47.0445 49.7265C47.0885 49.7245 47.1775 49.6473 47.24 49.6287C47.3124 49.6072 47.4404 49.6532 47.5294 49.6268C47.5929 49.3394 47.5147 49.1771 47.4355 48.9445C47.4248 48.9122 47.4492 48.8673 47.4355 48.8467C47.4101 48.8086 47.3759 48.7744 47.3378 48.749C47.2537 48.6923 47.1433 48.6718 47.0445 48.6512C47.0963 48.3248 46.3681 48.5369 46.9468 48.0647C47.068 48.1166 47.5685 48.0814 47.6819 47.9699C47.979 47.6767 47.718 47.3443 47.7288 47.186C47.7366 47.0638 47.851 46.5907 48.021 46.6963V46.6014L47.8265 46.5027C48.5665 46.5037 48.4619 45.5418 48.1198 45.4284C47.8578 44.9358 48.3915 45.1968 48.7327 45.1137C49.2683 44.9827 49.0288 44.8087 48.9985 44.5497C48.9849 44.4324 49.0269 44.2447 48.9985 44.1587C48.936 43.97 48.6623 43.8038 48.7063 43.5732C48.9702 43.6973 49.0279 43.6103 49.194 43.5732C49.8587 43.4226 49.8861 43.0639 49.585 42.4989C49.5948 42.4969 49.6271 42.3679 49.7268 42.3513C49.8793 42.3269 50.3954 42.3425 50.4589 42.2956C50.4951 42.2692 50.4472 42.148 50.4638 42.1079C50.6339 41.6964 50.7267 41.6895 50.5616 41.2291C50.4726 40.9818 50.2644 40.9017 50.2634 40.8782C50.2576 40.7345 50.3876 40.4716 50.5616 40.5459C51.0454 41.3269 52.1138 40.2487 51.3426 39.7648C51.5205 39.6857 51.6339 39.4677 51.6358 39.2761C52.4745 40.1509 53.2213 38.4863 52.2223 38.3973C52.2096 37.976 52.7247 38.1275 52.9251 38.2126C53.0346 38.2585 52.9975 38.413 53.279 38.4413C53.6798 38.4814 53.6416 38.2517 53.7628 38.2067C53.8596 38.1705 54.017 38.2272 54.0786 38.2018C54.1069 38.1901 54.0903 37.6095 54.0844 37.5792C54.06 37.4599 53.9144 37.5401 53.8821 37.5195C53.7863 37.458 53.6084 37.2331 53.5889 37.2263L53.7853 36.6408H53.8792C53.885 36.7141 53.9271 36.7874 53.9789 36.8353C54.2447 37.0826 54.4383 37.3524 54.8137 37.1334C55.3014 36.849 55.1831 36.4199 54.8576 36.0543C54.9661 35.9995 54.7374 35.6222 55.4441 35.9565C55.5399 36.0015 55.5693 36.1286 55.7941 36.152C56.0052 36.1735 56.0883 36.0797 56.2252 36.0543C56.2936 36.0416 56.5731 36.064 56.6171 35.8861C56.6699 35.677 56.6738 35.2635 56.4197 35.37C56.4158 35.3378 56.4265 35.3026 56.4197 35.2723C56.3962 35.1667 56.362 35.0778 56.3219 34.98C56.5565 34.9292 56.7256 35.1188 56.9074 35.1745C57.6386 35.3993 58.2163 34.8764 57.7862 34.2958C57.7119 33.9791 58.0433 34.0827 58.275 34.198C58.5907 34.7327 59.5076 34.3505 59.447 33.7679C59.4274 33.5851 59.2613 33.417 59.2515 33.2215C59.3678 33.1834 59.5653 32.9214 59.838 33.026C59.5975 33.5519 60.4333 34.0729 60.8243 33.5724C60.9738 33.3808 60.879 33.198 60.9132 33.026C60.9201 32.9908 61.0315 32.8031 61.0598 32.7308C61.1723 32.6917 61.3658 32.851 61.4997 32.9282C61.6092 32.9908 61.6395 33.2029 61.9367 33.2098C62.3364 33.2195 62.5046 32.8412 62.574 32.8305C62.5808 32.8295 62.6258 32.9312 62.6698 32.9292C62.7714 32.7484 62.5407 32.0778 62.574 32.0495C62.5955 32.0309 62.8125 32.0143 62.875 32.1052C63.0178 32.3134 62.8105 32.6663 63.2572 32.7327C63.6111 32.7846 64.0774 32.7425 64.136 32.3417C64.3247 32.2958 64.5221 32.2186 64.7225 32.244C65.3657 32.3261 65.1164 32.7494 65.7968 32.0485C66.3412 31.4874 66.2542 32.1707 66.5778 32.244C66.8456 32.3036 67.0392 32.1883 67.2611 32.1462C67.2787 32.1433 67.3813 32.3545 67.5455 32.0896C67.6638 31.898 67.6589 31.6771 67.653 31.463C67.8505 31.4297 67.9375 31.6272 68.0431 31.7553C68.177 31.9175 68.132 32.0944 68.3823 32.1482C69.0137 32.2821 68.9639 31.9781 69.2151 31.853C69.2376 31.8422 69.6813 31.7425 69.6999 31.7582C69.7116 31.768 69.6931 31.9351 69.8006 32.0485C70.1369 32.4043 70.5767 32.2851 70.8749 31.9508L70.8778 31.9547ZM80.2539 40.452C80.0682 39.9613 79.4514 39.5811 79.0301 39.2829C78.1288 38.6466 77.0595 38.2145 76.1719 37.6466C76.0214 37.5498 75.9598 37.3524 75.9422 37.3436C75.9099 37.327 75.7369 37.4394 75.5659 37.3856C72.2717 36.3426 70.6618 35.7229 67.0196 35.9604C61.6747 36.3074 57.5086 36.7278 52.9066 45.1127C52.5859 45.6963 51.8734 47.3121 51.6651 47.9543C51.5879 48.1908 51.3875 48.8526 51.7824 48.8526H60.9152V42.1617C60.9152 41.9417 61.1986 41.4227 61.402 41.2819L61.3062 41.233C61.5154 41.0366 61.8467 40.8753 62.1341 40.8401C67.6257 41.4276 74.733 38.9594 78.6352 43.9759C82.6322 49.1146 79.5531 56.8045 73.0273 57.4467H69.0225L77.3224 69.0291C77.3977 69.0926 77.4026 69.1454 77.5248 69.1258C77.7124 69.0955 78.5022 68.5325 78.7906 68.3849C78.8854 68.336 79.0907 68.3487 79.166 68.2696C79.2148 68.2197 79.1669 68.1073 79.1816 68.0916C79.2129 68.0574 79.2491 68.0281 79.2794 67.9939C79.5364 68.0213 79.7183 67.8277 79.8981 67.6801C80.4318 67.2451 81.0271 66.6674 81.4279 66.1376C81.4435 66.1171 81.4123 66.0604 81.4279 66.0399C81.9039 65.7848 82.3115 65.2774 82.64 64.8591C85.5969 61.0889 86.937 55.9052 86.2 51.1585C85.9302 49.4244 85.3799 47.4968 84.4562 46.0169C84.4444 45.9895 84.4679 45.9465 84.4562 45.9191C84.422 45.839 84.3809 45.7764 84.3584 45.7236C84.3359 45.6709 84.2949 45.6054 84.2607 45.5281C83.5862 43.9964 82.7025 42.8772 81.5256 41.7189C81.4934 41.6866 81.4611 41.6524 81.4279 41.6211C81.2431 41.1529 80.8521 40.6837 80.3536 40.5468C80.3184 40.5175 80.2911 40.4784 80.2559 40.4491L80.2539 40.452ZM63.6004 44.1587C63.4948 44.3229 63.5456 46.8028 63.5485 47.2446C63.5798 51.1839 63.6453 55.2044 63.659 59.1564C63.659 59.2659 63.658 59.3773 63.6522 59.4907C63.6052 60.3431 62.8223 60.9804 61.9787 60.8445C61.9738 60.8445 61.9689 60.8425 61.964 60.8425C61.1908 60.7135 60.9582 60.1544 60.9113 59.4535C60.75 57.043 61.0374 54.4517 60.9181 52.0216L60.8174 51.8799H57.1059C57.1186 51.8799 57.2163 51.7792 57.3424 51.7782C58.2535 51.7743 59.1762 51.8203 60.0863 51.7822C60.2065 51.7773 60.4489 51.8564 60.4274 51.6844H51.149C51.1275 51.8564 51.3699 51.7773 51.4902 51.7822C52.9955 51.8447 54.5742 51.7773 56.0893 51.7782C56.2154 51.7782 56.3131 51.8799 56.3258 51.8799H50.9535C50.1217 59.4232 54.2966 66.8747 61.1742 70.033C65.4371 71.9909 70.2561 72.1179 74.6881 70.6322L74.5972 70.2842C72.7429 67.7847 70.9433 65.2432 69.1203 62.7223C68.9795 62.4984 67.7879 60.7995 67.395 60.2502C66.8065 59.4262 66.1809 58.3636 65.5065 57.6442C65.4674 57.6031 65.0099 56.9756 64.9894 56.9355C64.6951 56.3686 64.5642 55.6296 64.9346 55.0704C65.2064 54.6599 65.571 54.5494 66.0412 54.5152C69.1408 54.2914 73.5972 55.4018 75.9569 53.0998C76.0399 53.0187 79.3703 49.8536 76.5981 46.1156C75.732 44.9485 74.3059 43.9739 72.7878 43.8674C69.9365 43.669 66.8622 44.0316 63.9865 43.8635C63.7929 43.8293 63.66 44.0687 63.6013 44.1597L63.6004 44.1587Z" fill="#590E9E"/>
<path d="M47.632 46.6055H47.3397V46.8H47.632V46.6055Z" fill="#590E9E"/>
<path d="M59.0589 73.857V73.9528C58.6522 74.0016 58.6522 73.8081 59.0589 73.857Z" fill="#590E9E"/>
<path d="M90.2166 58.0333H90.3143C90.1999 58.0705 90.2684 58.0372 90.2166 58.0333Z" fill="#590E9E"/>
<path d="M53.9809 71.3165C53.9476 71.3087 53.9115 71.2481 53.8831 71.2188C53.9203 71.2461 53.9506 71.2823 53.9809 71.3165Z" fill="#590E9E"/>
<path d="M62.0383 75.418C62.1018 75.4502 62.1018 75.4835 62.0383 75.5157V75.418Z" fill="#590E9E"/>
<path d="M81.9147 36.1541C81.8687 36.2 81.7593 36.0632 81.8658 36.0563C81.9 36.0544 81.9362 36.1326 81.9147 36.1541Z" fill="#590E9E"/>
<path d="M56.5692 34.6897C56.6328 34.722 56.6328 34.7552 56.5692 34.7874V34.6897Z" fill="#590E9E"/>
<path d="M72.781 31.5657C72.8347 31.6282 72.9774 31.6927 72.8807 31.7573C72.8338 31.6996 72.6842 31.6341 72.781 31.5657Z" fill="#590E9E"/>
<path d="M56.3248 51.8799C56.3121 51.8799 56.2144 51.7783 56.0883 51.7783C54.5732 51.7783 52.9945 51.8448 51.4892 51.7822C51.3689 51.7773 51.1265 51.8565 51.148 51.6844H60.4264C60.4479 51.8565 60.2055 51.7773 60.0852 51.7822C59.1762 51.8203 58.2534 51.7744 57.3414 51.7783C57.2153 51.7783 57.1176 51.8799 57.1049 51.8799C56.8448 51.8799 56.5829 51.8799 56.3238 51.8799H56.3248Z" fill="#450983"/>
<path d="M73.0263 57.4467C72.1476 57.5328 71.6676 57.4712 70.8328 57.4428C70.2307 57.4223 69.6227 57.4653 69.0215 57.4467H73.0263Z" fill="#450983"/>
<path d="M81.5237 41.7218C82.7006 42.8801 83.5842 43.9994 84.2587 45.5311C83.7387 45.0072 83.5207 44.2457 83.0828 43.6533L81.5247 41.7218H81.5237Z" fill="#450983"/>
<path d="M81.4259 41.6241C81.0799 41.2927 80.7026 40.8479 80.3517 40.5498C80.8512 40.6867 81.2412 41.1559 81.4259 41.6241Z" fill="#450983"/>
<path d="M47.4365 48.9495C47.5166 49.1811 47.5938 49.3444 47.5303 49.6318C47.4414 49.6581 47.3133 49.6122 47.241 49.6337C47.3671 49.4216 47.4687 49.2056 47.4365 48.9504V48.9495Z" fill="#450983"/>
<path d="M56.4226 35.3731C56.6768 35.2665 56.6728 35.68 56.6201 35.8892C56.5751 36.0671 56.2955 36.0446 56.2281 36.0573C56.5976 35.8609 56.4607 35.6614 56.4236 35.3741L56.4226 35.3731Z" fill="#450983"/>
<path d="M86.896 65.0654L86.7982 65.5542C86.7484 65.5239 86.5969 65.6128 86.6017 65.5024C86.6184 65.0576 86.7943 65.1456 86.896 65.0654Z" fill="#450983"/>
<path d="M85.2352 40.0611C85.2117 40.0249 84.9849 39.9418 85.0397 39.8665L85.3329 39.7678C85.3329 39.8226 85.2244 39.9672 85.2352 40.0611Z" fill="#450983"/>
<path d="M46.851 54.3218C46.8568 54.3413 47.1002 54.443 47.0465 54.5163C46.9556 54.5261 46.8217 54.5603 46.7532 54.615L46.851 54.3218Z" fill="#450983"/>
<path d="M89.7288 48.1684C89.6721 48.1782 89.5978 48.2466 89.5333 48.2662C89.5137 48.1889 89.0621 47.9905 89.7288 48.1684Z" fill="#450983"/>
<path d="M84.4542 45.9212L84.3564 45.7257C84.3789 45.7785 84.42 45.8411 84.4542 45.9212Z" fill="#450983"/>
<path d="M88.3613 45.5311C88.3358 45.4754 88.1961 45.4548 88.3613 45.3356V45.5311Z" fill="#450983"/>
<path d="M85.0397 67.7164C85.072 67.6793 85.1023 67.6382 85.1375 67.605C85.1111 67.649 85.072 67.6793 85.0397 67.7164Z" fill="#450983"/>
<path d="M87.9702 44.5547C87.9087 44.5332 87.8999 44.5087 87.8725 44.4569L87.9702 44.5547Z" fill="#450983"/>
<path d="M47.4365 48.8517L47.3387 48.7539C47.3769 48.7793 47.4111 48.8135 47.4365 48.8517Z" fill="#450983"/>
<path d="M56.1293 72.4885C56.142 72.4435 56.1997 72.422 56.2271 72.3907L56.1293 72.4885Z" fill="#450983"/>
<path d="M61.7939 74.6371L61.6962 74.5393C61.745 74.5686 61.7705 74.5735 61.7939 74.6371Z" fill="#450983"/>
<path d="M63.357 75.1258L63.2592 75.0281C63.2905 75.0574 63.3403 75.0691 63.357 75.1258Z" fill="#450983"/>
<path d="M70.5845 75.7113C70.5982 75.6644 70.6451 75.6399 70.6823 75.6135L70.5845 75.7113Z" fill="#450983"/>
<path d="M82.8912 36.9361L82.9889 36.8384C82.9811 36.8706 82.9185 36.9048 82.8912 36.9361Z" fill="#450983"/>
<path d="M68.6715 72.6313C58.4792 72.6313 50.1862 64.1759 50.1862 53.7822C50.1862 43.3886 58.4782 34.9332 68.6715 34.9332C78.8649 34.9332 87.1569 43.3886 87.1569 53.7822C87.1569 64.1759 78.8649 72.6313 68.6715 72.6313ZM68.6715 36.204C59.1791 36.204 51.4569 44.0894 51.4569 53.7822C51.4569 63.4751 59.1791 71.3605 68.6715 71.3605C78.164 71.3605 85.8862 63.4751 85.8862 53.7822C85.8862 44.0894 78.164 36.204 68.6715 36.204Z" fill="#590E9E"/>
<path d="M68.5701 79C61.9067 79 55.6432 76.4071 50.9314 71.6992C46.2196 66.9912 43.6248 60.7306 43.6248 54.072C43.6248 47.4134 46.2196 41.1538 50.9314 36.4449C55.6432 31.7369 61.9076 29.144 68.5701 29.144C75.2326 29.144 81.497 31.7369 86.2088 36.4449C90.9206 41.1528 93.5163 47.4134 93.5163 54.072C93.5163 60.7306 90.9215 66.9903 86.2088 71.6992C81.497 76.4071 75.2326 79 68.5701 79ZM68.5701 33.1829C62.9854 33.1829 57.7342 35.3556 53.7848 39.3021C49.8364 43.2477 47.6617 48.4931 47.6617 54.073C47.6617 59.6529 49.8364 64.8983 53.7848 68.8438C57.7342 72.7894 62.9844 74.9631 68.5701 74.9631C74.1558 74.9631 79.406 72.7904 83.3554 68.8438C87.3038 64.8983 89.4785 59.6529 89.4785 54.073C89.4785 48.4931 87.3038 43.2477 83.3554 39.3021C79.406 35.3566 74.1558 33.1829 68.5701 33.1829Z" fill="#450983"/>
<path d="M67.9634 76.9234C67.7779 76.9186 67.6308 76.7647 67.6356 76.5782C67.6404 76.3927 67.7952 76.2456 67.9807 76.2514C68.1663 76.2552 68.3134 76.41 68.3086 76.5965C68.3038 76.7792 68.1538 76.9234 67.9721 76.9234H67.9634ZM69.0758 76.5917C69.069 76.4061 69.2133 76.2504 69.3998 76.2437C69.5853 76.236 69.7411 76.3811 69.7478 76.5667C69.7545 76.7532 69.6103 76.909 69.4238 76.9157H69.4113C69.2315 76.9157 69.0825 76.7734 69.0758 76.5917ZM66.506 76.8397C66.3204 76.8234 66.1839 76.66 66.2002 76.4744C66.2166 76.2898 66.38 76.1523 66.5656 76.1696C66.7502 76.186 66.8867 76.3494 66.8703 76.535C66.855 76.709 66.7079 76.8407 66.5358 76.8407C66.5262 76.8407 66.5156 76.8407 66.506 76.8407V76.8397ZM70.5131 76.5148C70.4938 76.3302 70.6294 76.1648 70.814 76.1466C70.9986 76.1273 71.1639 76.2629 71.1822 76.4475C71.2014 76.6321 71.0659 76.7974 70.8813 76.8157C70.8697 76.8176 70.8582 76.8176 70.8476 76.8176C70.6765 76.8176 70.5304 76.6888 70.5131 76.5148ZM65.0552 76.6638C64.8716 76.635 64.7457 76.4638 64.7745 76.2792C64.8024 76.0956 64.9745 75.9697 65.1581 75.9985C65.3417 76.0264 65.4677 76.1985 65.4398 76.3821C65.4138 76.5484 65.2706 76.6676 65.1071 76.6676C65.0898 76.6676 65.0725 76.6657 65.0552 76.6638ZM71.9417 76.3465C71.9119 76.1639 72.0359 75.9908 72.2195 75.9601C72.4022 75.9293 72.5762 76.0543 72.606 76.2369C72.6368 76.4206 72.5128 76.5936 72.3291 76.6244C72.3109 76.6273 72.2916 76.6282 72.2734 76.6282C72.1119 76.6282 71.9696 76.5119 71.9417 76.3465ZM63.6199 76.3946C63.4382 76.3552 63.3238 76.1754 63.3632 75.9937C63.4035 75.812 63.5833 75.6976 63.7641 75.738C63.9458 75.7774 64.0602 75.9572 64.0208 76.1389C63.9862 76.2956 63.8468 76.4033 63.692 76.4033C63.6689 76.4033 63.6439 76.4004 63.6199 76.3946ZM73.3578 76.0879C73.3165 75.9072 73.429 75.7264 73.6097 75.6841C73.7914 75.6418 73.9712 75.7553 74.0135 75.936C74.0558 76.1168 73.9433 76.2975 73.7616 76.3398C73.7366 76.3456 73.7107 76.3485 73.6857 76.3485C73.5328 76.3485 73.3944 76.2437 73.3578 76.0879ZM62.2037 76.035C62.0249 75.9831 61.922 75.7966 61.974 75.6178C62.0259 75.4399 62.2124 75.3371 62.3902 75.388C62.5691 75.4399 62.6719 75.6265 62.621 75.8053C62.5777 75.9524 62.4431 76.0485 62.2979 76.0485C62.2662 76.0485 62.2355 76.0437 62.2037 76.035ZM74.7547 75.7389C74.7009 75.5611 74.8018 75.3736 74.9797 75.3198C75.1575 75.2659 75.346 75.3669 75.3989 75.5447C75.4527 75.7226 75.3518 75.911 75.1739 75.9639C75.1412 75.9735 75.1085 75.9783 75.0768 75.9783C74.9316 75.9783 74.798 75.8841 74.7547 75.7389ZM60.8136 75.5842C60.6395 75.5217 60.5482 75.3284 60.6117 75.1534C60.6742 74.9785 60.8674 74.8881 61.0414 74.9516C61.2164 75.014 61.3077 75.2073 61.2443 75.3813C61.1952 75.5188 61.0654 75.6043 60.928 75.6043C60.8905 75.6043 60.852 75.5976 60.8136 75.5842ZM76.1257 75.3005C76.0603 75.1265 76.1497 74.9323 76.3237 74.8679C76.4977 74.8025 76.6919 74.892 76.7563 75.066C76.8217 75.24 76.7323 75.4332 76.5583 75.4986C76.5198 75.513 76.4804 75.5197 76.441 75.5197C76.3045 75.5197 76.1757 75.4361 76.1257 75.3005ZM59.4541 75.0448C59.284 74.9708 59.2051 74.7727 59.2792 74.6016C59.3532 74.4314 59.5522 74.3536 59.7224 74.4276C59.8925 74.5016 59.9704 74.6997 59.8964 74.8698C59.8416 74.9967 59.7176 75.0727 59.5878 75.0727C59.5436 75.0727 59.4974 75.064 59.4541 75.0448ZM77.4639 74.7756C77.388 74.6064 77.4639 74.4074 77.6331 74.3315C77.8033 74.2555 78.0023 74.3315 78.0783 74.5016C78.1542 74.6708 78.0783 74.8698 77.9081 74.9458C77.8639 74.966 77.8168 74.9756 77.7716 74.9756C77.6428 74.9756 77.5197 74.9006 77.4639 74.7756ZM58.1322 74.4189C57.9669 74.3334 57.9015 74.1315 57.9861 73.9661C58.0717 73.8008 58.2736 73.7354 58.4389 73.82C58.6043 73.9046 58.6696 74.1075 58.585 74.2728C58.5254 74.3891 58.4072 74.4564 58.2851 74.4564C58.2341 74.4564 58.1813 74.4439 58.1322 74.4189ZM78.7657 74.1661C78.6791 74.0017 78.7426 73.7988 78.907 73.7123C79.0714 73.6248 79.2752 73.6883 79.3617 73.8527C79.4482 74.0171 79.3848 74.2209 79.2204 74.3074C79.1704 74.3334 79.1166 74.3459 79.0637 74.3459C78.9435 74.3459 78.8262 74.2805 78.7657 74.1661ZM56.8526 73.7094C56.693 73.6143 56.6411 73.4085 56.7363 73.248C56.8315 73.0893 57.0382 73.0365 57.1978 73.1316C57.3573 73.2278 57.4093 73.4335 57.3141 73.5931C57.2516 73.6989 57.1401 73.7575 57.0257 73.7575C56.9661 73.7575 56.9074 73.7421 56.8526 73.7094ZM80.027 73.4749C79.9299 73.3162 79.9799 73.1086 80.1385 73.0124C80.2972 72.9153 80.5039 72.9653 80.601 73.1239C80.6981 73.2826 80.6481 73.4893 80.4894 73.5864C80.4346 73.62 80.3741 73.6354 80.3145 73.6354C80.201 73.6354 80.0905 73.5787 80.027 73.4749ZM55.622 72.9211C55.4692 72.8153 55.4307 72.6058 55.5355 72.4529C55.6413 72.3 55.8499 72.2606 56.0037 72.3664C56.1566 72.4712 56.195 72.6807 56.0902 72.8336C56.0249 72.9288 55.9201 72.9797 55.8124 72.9797C55.747 72.9797 55.6807 72.9605 55.622 72.9211ZM81.2413 72.7038C81.1345 72.5519 81.1711 72.3414 81.3239 72.2347C81.4758 72.1279 81.6854 72.1645 81.7921 72.3173C81.8988 72.4692 81.8623 72.6788 81.7104 72.7855C81.6518 72.8269 81.5835 72.8471 81.5172 72.8471C81.4114 72.8471 81.3066 72.7971 81.2413 72.7038ZM54.4443 72.0549C54.2982 71.9405 54.2732 71.729 54.3876 71.5828C54.503 71.4367 54.7145 71.4107 54.8606 71.5261C55.0067 71.6405 55.0317 71.852 54.9173 71.9982C54.851 72.0828 54.752 72.127 54.652 72.127C54.5799 72.127 54.5068 72.1039 54.4443 72.0549ZM82.4045 71.8568C82.2882 71.7117 82.3113 71.5002 82.4564 71.3838C82.6016 71.2675 82.8131 71.2906 82.9295 71.4357C83.0458 71.5809 83.0227 71.7924 82.8775 71.9087C82.816 71.9587 82.741 71.9828 82.667 71.9828C82.5689 71.9828 82.4709 71.9395 82.4045 71.8568ZM53.3253 71.1166C53.1868 70.9925 53.1753 70.7801 53.2993 70.6416C53.4233 70.5032 53.6358 70.4907 53.7742 70.6147C53.9127 70.7387 53.9252 70.9512 53.8011 71.0896C53.7348 71.1646 53.6425 71.2021 53.5502 71.2021C53.4704 71.2021 53.3897 71.1742 53.3262 71.1166H53.3253ZM83.5121 70.9377C83.3871 70.8003 83.3967 70.5868 83.5342 70.4618C83.6717 70.3369 83.8841 70.3465 84.0091 70.484C84.1341 70.6214 84.1245 70.8339 83.987 70.9589C83.9226 71.0175 83.8418 71.0473 83.7611 71.0473C83.6697 71.0473 83.5784 71.0098 83.5121 70.9377ZM52.2668 70.109C52.137 69.9763 52.1379 69.7629 52.2706 69.6331C52.4033 69.5024 52.6157 69.5043 52.7465 69.636C52.8772 69.7687 52.8753 69.9821 52.7427 70.1129C52.6773 70.1773 52.5917 70.209 52.5071 70.209C52.4196 70.209 52.3331 70.1754 52.2668 70.109ZM84.559 69.9494C84.4254 69.8206 84.4215 69.6072 84.5504 69.4735C84.6792 69.3399 84.8926 69.3361 85.0263 69.4649C85.1599 69.5947 85.1637 69.8071 85.0349 69.9408C84.9686 70.009 84.8811 70.0436 84.7926 70.0436C84.709 70.0436 84.6244 70.0119 84.559 69.9494ZM51.2756 69.0361C51.1535 68.8957 51.1689 68.6833 51.3092 68.5612C51.4496 68.44 51.662 68.4554 51.7841 68.5958C51.9053 68.7361 51.8899 68.9486 51.7505 69.0697C51.6861 69.1255 51.6082 69.1524 51.5294 69.1524C51.4352 69.1524 51.3419 69.113 51.2756 69.0361ZM85.5416 68.8967C85.4002 68.7765 85.3829 68.5641 85.5031 68.4227C85.6233 68.2804 85.8357 68.2631 85.9771 68.3833C86.1184 68.5045 86.1357 68.716 86.0155 68.8582C85.9492 68.9361 85.854 68.9765 85.7588 68.9765C85.6819 68.9765 85.605 68.9505 85.5416 68.8967ZM50.3536 67.9036C50.2411 67.7555 50.2699 67.544 50.418 67.4315C50.5661 67.3191 50.7766 67.3479 50.8891 67.495C51.0025 67.643 50.9737 67.8545 50.8256 67.967C50.7651 68.0132 50.693 68.0363 50.6218 68.0363C50.5209 68.0363 50.4199 67.9901 50.3536 67.9036ZM86.4549 67.7834C86.3059 67.6719 86.2751 67.4613 86.3866 67.3123C86.4972 67.1633 86.7077 67.1325 86.8577 67.2441C87.0058 67.3546 87.0365 67.5661 86.926 67.7151C86.8596 67.8036 86.7587 67.8507 86.6558 67.8507C86.5856 67.8507 86.5155 67.8286 86.4549 67.7834ZM49.5066 66.7143C49.4037 66.5595 49.446 66.35 49.6008 66.2471C49.7556 66.1442 49.9642 66.1865 50.0671 66.3413C50.17 66.4961 50.1286 66.7047 49.9738 66.8076C49.9162 66.846 49.8517 66.8643 49.7873 66.8643C49.6787 66.8643 49.572 66.8114 49.5066 66.7143ZM87.2961 66.6144C87.1404 66.5124 87.0961 66.3048 87.198 66.149C87.299 65.9923 87.5076 65.9491 87.6634 66.05C87.8191 66.151 87.8633 66.3596 87.7614 66.5153C87.697 66.6144 87.5893 66.6682 87.4797 66.6682C87.4163 66.6682 87.3528 66.6509 87.2961 66.6144ZM48.7375 65.4732C48.6442 65.3126 48.7 65.1069 48.8605 65.0136C49.0221 64.9213 49.2278 64.9761 49.3201 65.1367C49.4133 65.2982 49.3576 65.5039 49.197 65.5972C49.1442 65.627 49.0865 65.6414 49.0288 65.6414C48.9125 65.6414 48.8 65.5818 48.7375 65.4732ZM88.0614 65.3934C87.8989 65.302 87.8422 65.0973 87.9326 64.9348C88.0239 64.7733 88.2296 64.7156 88.3911 64.8069C88.5536 64.8983 88.6103 65.103 88.519 65.2655C88.4575 65.3751 88.3431 65.4366 88.2258 65.4366C88.17 65.4366 88.1133 65.4232 88.0614 65.3934ZM48.0491 64.1868C47.9664 64.0195 48.0347 63.8177 48.201 63.7359C48.3683 63.6533 48.5702 63.7215 48.6519 63.8878C48.7346 64.0542 48.6663 64.257 48.5 64.3387C48.452 64.3628 48.401 64.3743 48.351 64.3743C48.227 64.3743 48.1078 64.3051 48.0491 64.1868ZM88.7459 64.1263C88.5786 64.0455 88.5084 63.8436 88.5892 63.6763C88.6699 63.509 88.8709 63.4389 89.0382 63.5196C89.2054 63.6004 89.2766 63.8013 89.1958 63.9686C89.1372 64.0888 89.017 64.159 88.892 64.159C88.843 64.159 88.793 64.1484 88.7459 64.1263ZM47.4444 62.8591C47.3733 62.6871 47.454 62.49 47.6252 62.4188C47.7972 62.3467 47.9943 62.4284 48.0655 62.5996C48.1366 62.7707 48.0559 62.9678 47.8847 63.0399C47.8424 63.0572 47.7982 63.0658 47.7549 63.0658C47.6232 63.0658 47.4982 62.988 47.4444 62.8591ZM89.3487 62.8168C89.1766 62.7467 89.0939 62.5505 89.1631 62.3784C89.2333 62.2064 89.4294 62.1227 89.6015 62.1919C89.7736 62.2621 89.8573 62.4582 89.7871 62.6303C89.7342 62.762 89.6083 62.8409 89.4756 62.8409C89.4333 62.8409 89.39 62.8332 89.3487 62.8168ZM46.9272 61.4949C46.8666 61.319 46.9599 61.1277 47.1358 61.0671C47.3117 61.0075 47.5031 61.1008 47.5636 61.2767C47.6232 61.4517 47.53 61.6439 47.354 61.7035C47.3185 61.716 47.281 61.7228 47.2454 61.7228C47.105 61.7228 46.9743 61.6343 46.9272 61.4949ZM89.8659 61.4709C89.69 61.4122 89.5938 61.2219 89.6525 61.045C89.7111 60.8691 89.9015 60.7729 90.0784 60.8316C90.2543 60.8902 90.3505 61.0806 90.2918 61.2575C90.2447 61.3978 90.113 61.4872 89.9717 61.4872C89.9371 61.4872 89.9015 61.4824 89.8659 61.4709ZM46.4974 60.099C46.4484 59.9192 46.5542 59.7346 46.733 59.6856C46.9128 59.6366 47.0973 59.7423 47.1464 59.9211C47.1954 60.1009 47.0897 60.2855 46.9099 60.3345C46.881 60.3432 46.8512 60.347 46.8214 60.347C46.6734 60.347 46.5378 60.248 46.4974 60.099ZM90.2947 60.0971C90.1149 60.05 90.0072 59.8654 90.0543 59.6856C90.1015 59.5058 90.2851 59.3981 90.4649 59.4452C90.6446 59.4923 90.7523 59.676 90.7052 59.8558C90.6658 60.0077 90.5302 60.1076 90.3803 60.1076C90.3524 60.1076 90.3235 60.1038 90.2947 60.0971ZM46.1581 58.678C46.1206 58.4954 46.2388 58.3175 46.4205 58.28C46.6022 58.2435 46.7801 58.3608 46.8176 58.5425C46.8551 58.7242 46.7378 58.902 46.5551 58.9395C46.533 58.9443 46.5099 58.9463 46.4878 58.9463C46.3311 58.9463 46.1908 58.8367 46.1581 58.678ZM90.635 58.6973C90.4524 58.6627 90.3332 58.4858 90.3678 58.3031C90.4033 58.1214 90.5802 58.0012 90.7619 58.0368C90.9446 58.0724 91.0638 58.2483 91.0292 58.431C90.9975 58.5915 90.8562 58.704 90.6985 58.704C90.6773 58.704 90.6562 58.7021 90.635 58.6973ZM45.911 57.2379H45.9119C45.886 57.0533 46.0148 56.8841 46.1984 56.8581C46.383 56.8331 46.5532 56.961 46.5782 57.1456C46.6042 57.3292 46.4753 57.4994 46.2907 57.5253C46.2754 57.5273 46.26 57.5282 46.2446 57.5282C46.0792 57.5282 45.935 57.4061 45.911 57.2379ZM90.8831 57.2802C90.6994 57.2561 90.5687 57.0879 90.5918 56.9033C90.6158 56.7197 90.784 56.5889 90.9686 56.612C91.1523 56.636 91.283 56.8043 91.2599 56.9889C91.2378 57.159 91.0936 57.2831 90.9263 57.2831C90.9119 57.2831 90.8975 57.2831 90.8831 57.2802ZM45.7572 55.7852C45.7437 55.5997 45.8831 55.4391 46.0677 55.4247C46.2532 55.4112 46.4148 55.5506 46.4282 55.7352C46.4426 55.9208 46.3032 56.0823 46.1177 56.0957C46.109 56.0967 46.1013 56.0967 46.0927 56.0967C45.9177 56.0967 45.7706 55.9621 45.7572 55.7852ZM91.0407 55.8496C90.8552 55.8371 90.7148 55.6775 90.7264 55.492C90.7379 55.3064 90.8975 55.1661 91.083 55.1776C91.2686 55.1891 91.4099 55.3487 91.3974 55.5343C91.3868 55.7131 91.2388 55.8496 91.0619 55.8496H91.0407ZM45.6956 54.3258C45.6937 54.1403 45.8427 53.9884 46.0283 53.9855C46.2138 53.9836 46.3667 54.1326 46.3686 54.3191C46.3705 54.5046 46.2215 54.6565 46.036 54.6585H46.0321C45.8475 54.6585 45.6976 54.5104 45.6956 54.3258ZM90.7706 54.0749C90.7706 53.9788 90.811 53.8922 90.8754 53.8307C90.81 53.7711 90.7677 53.6855 90.7658 53.5894C90.7619 53.4038 90.909 53.25 91.0946 53.2452C91.2801 53.2414 91.4339 53.3894 91.4388 53.575C91.4407 53.673 91.4003 53.7634 91.334 53.8259C91.4013 53.8874 91.4436 53.9768 91.4436 54.0749C91.4436 54.2604 91.2926 54.4114 91.1071 54.4114C90.9215 54.4114 90.7706 54.2604 90.7706 54.0749ZM46.0446 53.2192C45.8591 53.2096 45.7158 53.051 45.7254 52.8655C45.7351 52.6799 45.8937 52.5376 46.0792 52.5472C46.2648 52.5569 46.4071 52.7155 46.3975 52.901C46.3888 53.0808 46.2398 53.2202 46.0619 53.2202C46.0562 53.2202 46.0504 53.2202 46.0446 53.2192ZM90.6908 52.1733C90.6744 51.9887 90.8119 51.8252 90.9975 51.8098C91.1821 51.7935 91.3455 51.931 91.3609 52.1165C91.3763 52.3011 91.2388 52.4646 91.0542 52.4799C91.0446 52.4799 91.035 52.4819 91.0254 52.4819C90.8523 52.4819 90.7052 52.3492 90.6908 52.1733ZM46.1436 51.7839C45.9591 51.7618 45.8264 51.5955 45.8485 51.4109C45.8696 51.2263 46.0369 51.0936 46.2215 51.1148C46.4061 51.1369 46.5378 51.3032 46.5167 51.4878C46.4965 51.6599 46.3513 51.7858 46.1831 51.7858C46.1696 51.7858 46.1571 51.7849 46.1436 51.7839ZM90.5254 50.7658C90.4976 50.5812 90.6245 50.4101 90.8081 50.3831C90.9917 50.3553 91.1638 50.4822 91.1907 50.6658C91.2186 50.8494 91.0917 51.0205 90.9081 51.0484C90.8908 51.0513 90.8744 51.0523 90.8581 51.0523C90.6937 51.0523 90.5504 50.9321 90.5254 50.7658ZM46.334 50.3572C46.1513 50.3235 46.0302 50.1486 46.0629 49.9659C46.0965 49.7823 46.2715 49.6611 46.4542 49.6948C46.6368 49.7284 46.758 49.9034 46.7253 50.0861C46.6955 50.2485 46.5542 50.362 46.3946 50.362C46.3744 50.362 46.3542 50.362 46.334 50.3572ZM90.2707 49.3708C90.2312 49.1891 90.3466 49.0103 90.5283 48.9709C90.71 48.9314 90.8888 49.0468 90.9283 49.2285C90.9677 49.4102 90.8523 49.589 90.6706 49.6284C90.6466 49.6342 90.6225 49.6361 90.5995 49.6361C90.4437 49.6361 90.3043 49.5285 90.2707 49.3708ZM46.6157 48.9449C46.4349 48.9007 46.3253 48.718 46.3705 48.5373C46.4148 48.3565 46.5984 48.2469 46.7782 48.2921C46.9589 48.3373 47.0685 48.52 47.0233 48.7007C46.9849 48.8536 46.8483 48.9555 46.6974 48.9555C46.6705 48.9555 46.6426 48.9516 46.6157 48.9449ZM89.9265 47.996C89.8755 47.8172 89.9794 47.6307 90.1582 47.5797C90.337 47.5288 90.5235 47.6326 90.5745 47.8114C90.6245 47.9902 90.5216 48.1758 90.3428 48.2277C90.312 48.2363 90.2812 48.2402 90.2505 48.2402C90.1034 48.2402 89.9688 48.1431 89.9265 47.996ZM46.9868 47.5547C46.8099 47.498 46.7128 47.3086 46.7686 47.1317C46.8253 46.9548 47.0147 46.8567 47.1916 46.9135C47.3685 46.9702 47.4665 47.1596 47.4098 47.3365C47.3646 47.4797 47.2319 47.5711 47.0897 47.5711C47.056 47.5711 47.0214 47.5653 46.9868 47.5547ZM89.4948 46.6452C89.4323 46.4703 89.5246 46.278 89.6996 46.2155C89.8746 46.153 90.0668 46.2443 90.1293 46.4203C90.1909 46.5952 90.0995 46.7875 89.9246 46.85C89.8871 46.8625 89.8496 46.8692 89.8121 46.8692C89.6736 46.8692 89.5438 46.7827 89.4948 46.6452ZM47.4492 46.1886C47.2762 46.1203 47.1906 45.9261 47.2579 45.7521C47.3262 45.58 47.5213 45.4945 47.6944 45.5617C47.8674 45.63 47.952 45.8252 47.8847 45.9982C47.8328 46.1309 47.7059 46.2117 47.5713 46.2117C47.5309 46.2117 47.4886 46.204 47.4492 46.1886ZM88.9785 45.3281C88.9045 45.157 88.9834 44.959 89.1545 44.8859C89.3247 44.8119 89.5227 44.8917 89.5967 45.0618C89.6698 45.233 89.591 45.431 89.4198 45.5041C89.3766 45.5223 89.3323 45.5319 89.2872 45.5319C89.1574 45.5319 89.0333 45.455 88.9785 45.3281ZM47.9972 44.8551C47.829 44.7773 47.7559 44.5763 47.8347 44.4081C47.9136 44.2398 48.1135 44.1668 48.2827 44.2456C48.451 44.3244 48.5231 44.5254 48.4443 44.6936C48.3875 44.8157 48.2664 44.8878 48.1395 44.8869C48.0914 44.8869 48.0434 44.8772 47.9972 44.8551ZM88.3777 44.0456C88.2931 43.8803 88.3594 43.6774 88.5248 43.5928C88.6901 43.5092 88.893 43.5745 88.9776 43.7409C89.0612 43.9062 88.9959 44.1091 88.8295 44.1927C88.7815 44.2177 88.7286 44.2293 88.6776 44.2293C88.5546 44.2293 88.4373 44.162 88.3777 44.0456ZM48.6298 43.5611C48.4673 43.4717 48.4077 43.2669 48.4971 43.1044C48.5865 42.941 48.7904 42.8814 48.9538 42.9708C49.1163 43.0602 49.1759 43.265 49.0865 43.4275C49.0259 43.539 48.9105 43.6024 48.7913 43.6024C48.7365 43.6024 48.6817 43.589 48.6298 43.5611ZM87.6951 42.8035H87.696C87.6009 42.6439 87.6537 42.4372 87.8143 42.343C87.9739 42.2488 88.1806 42.3017 88.2748 42.4613C88.369 42.6218 88.3161 42.8275 88.1566 42.9218C88.1027 42.9544 88.0441 42.9689 87.9854 42.9689C87.8701 42.9689 87.7585 42.9102 87.6951 42.8035ZM49.3441 42.3094C49.1874 42.2103 49.1413 42.0027 49.2413 41.845C49.3403 41.6883 49.5479 41.6421 49.7046 41.7421C49.8623 41.8412 49.9085 42.0488 49.8085 42.2065C49.745 42.3074 49.6354 42.3622 49.5249 42.3622C49.4624 42.3622 49.4008 42.3449 49.3441 42.3094ZM86.9356 41.6085C86.8308 41.4547 86.8712 41.2451 87.024 41.1403C87.1779 41.0355 87.3874 41.0759 87.4913 41.2287C87.5961 41.3826 87.5566 41.5922 87.4028 41.6969C87.3451 41.7364 87.2798 41.7556 87.2144 41.7556C87.1067 41.7556 87.001 41.7037 86.9356 41.6085ZM50.1373 41.1076C49.9873 40.998 49.9536 40.7875 50.0632 40.6375C50.1728 40.4866 50.3834 40.4539 50.5334 40.5635C50.6833 40.6731 50.717 40.8836 50.6074 41.0336C50.542 41.124 50.4392 41.172 50.3353 41.172C50.2661 41.172 50.1969 41.1509 50.1373 41.1076ZM86.1011 40.4625C85.9867 40.3164 86.0126 40.1049 86.1597 39.9905C86.3059 39.8761 86.5174 39.903 86.6318 40.0491C86.7462 40.1962 86.7193 40.4077 86.5731 40.5212C86.5116 40.5692 86.4385 40.5923 86.3664 40.5923C86.2665 40.5923 86.1674 40.5481 86.1011 40.4625ZM51.0045 39.9578C50.8622 39.8386 50.842 39.6271 50.9612 39.4838C51.0804 39.3406 51.2919 39.3213 51.4352 39.4406C51.5774 39.5588 51.5976 39.7713 51.4784 39.9136C51.4121 39.9943 51.3159 40.0357 51.2198 40.0357C51.1439 40.0357 51.0679 40.0097 51.0045 39.9578ZM85.1945 39.3723C85.0714 39.2339 85.0839 39.0204 85.2233 38.8974C85.3618 38.7743 85.5752 38.7868 85.6983 38.9262C85.8213 39.0656 85.8088 39.2781 85.6694 39.4011C85.606 39.4579 85.5262 39.4857 85.4464 39.4857C85.3531 39.4857 85.2608 39.4473 85.1945 39.3723ZM51.9437 38.8656C51.8091 38.7387 51.8024 38.5253 51.9303 38.3907C52.0572 38.2552 52.2706 38.2494 52.4062 38.3773C52.5408 38.5042 52.5465 38.7176 52.4196 38.8522C52.3533 38.9224 52.2639 38.9579 52.1745 38.9579C52.0918 38.9579 52.0091 38.9272 51.9437 38.8656ZM84.2206 38.3417C84.0889 38.2109 84.0879 37.9975 84.2187 37.8658C84.3504 37.7341 84.5629 37.7331 84.6946 37.8639C84.8263 37.9956 84.8273 38.208 84.6965 38.3398C84.6311 38.4061 84.5446 38.4397 84.4581 38.4397C84.3725 38.4397 84.286 38.4071 84.2206 38.3417ZM52.9494 37.836C52.8224 37.7004 52.8301 37.487 52.9667 37.3611C53.1022 37.2342 53.3156 37.2418 53.4416 37.3774C53.5685 37.513 53.5618 37.7264 53.4252 37.8533C53.3608 37.9139 53.2781 37.9437 53.1955 37.9437C53.1061 37.9437 53.0157 37.9071 52.9494 37.836ZM83.1833 37.3745C83.0429 37.2524 83.0285 37.04 83.1515 36.8996C83.2736 36.7602 83.4861 36.7458 83.6265 36.8679C83.7659 36.9909 83.7803 37.2034 83.6582 37.3428C83.5909 37.4187 83.4986 37.4582 83.4044 37.4582C83.3256 37.4582 83.2467 37.4303 83.1833 37.3745ZM54.0194 36.8727C53.9011 36.7294 53.9223 36.517 54.0655 36.3987C54.2097 36.2814 54.4212 36.3026 54.5395 36.4458C54.6568 36.5891 54.6366 36.8015 54.4924 36.9198C54.4299 36.9707 54.3539 36.9957 54.279 36.9957C54.1819 36.9957 54.0857 36.9534 54.0194 36.8727ZM82.0863 36.4756C81.9392 36.3622 81.9113 36.1516 82.0238 36.0036C82.1373 35.8565 82.3488 35.8286 82.4959 35.942C82.643 36.0545 82.6708 36.266 82.5584 36.4131C82.492 36.4997 82.392 36.5448 82.2911 36.5448C82.219 36.5448 82.1469 36.5227 82.0863 36.4756ZM55.1471 35.9795C55.0385 35.8286 55.0731 35.6181 55.224 35.5094C55.3749 35.4008 55.5845 35.4354 55.6932 35.5863C55.8018 35.7373 55.7672 35.9478 55.6163 36.0555C55.5567 36.0987 55.4884 36.1189 55.4201 36.1189C55.3153 36.1189 55.2125 36.0709 55.1471 35.9795ZM80.9336 35.6479C80.7798 35.544 80.7384 35.3354 80.8423 35.1806C80.9451 35.0268 81.1547 34.9855 81.3085 35.0893C81.4633 35.1922 81.5047 35.4017 81.4008 35.5556C81.3355 35.6527 81.2297 35.7046 81.1211 35.7046C81.0567 35.7046 80.9913 35.6863 80.9336 35.6479ZM56.3287 35.1595C56.2306 35.0018 56.2777 34.7941 56.4354 34.6951C56.593 34.5971 56.8007 34.6442 56.8997 34.8018C56.9978 34.9595 56.9507 35.1672 56.793 35.2652C56.7372 35.3008 56.6757 35.3171 56.6142 35.3171C56.5027 35.3171 56.3931 35.2614 56.3287 35.1595ZM79.7309 34.8951C79.5703 34.8018 79.5165 34.5951 79.6098 34.4346C79.703 34.274 79.9088 34.2192 80.0693 34.3134C80.2299 34.4067 80.2847 34.6124 80.1914 34.773C80.1289 34.8807 80.0164 34.9403 79.9001 34.9403C79.8424 34.9403 79.7847 34.9258 79.7309 34.8951ZM57.5612 34.4163C57.4727 34.2529 57.5333 34.0491 57.6967 33.9606C57.8602 33.8722 58.064 33.9327 58.1524 34.0962C58.2409 34.2596 58.1803 34.4644 58.0169 34.5528C57.9659 34.5797 57.9111 34.5932 57.8573 34.5932C57.7371 34.5932 57.6217 34.5288 57.5612 34.4163ZM78.4821 34.2202C78.3157 34.1375 78.2484 33.9356 78.3321 33.7693C78.4148 33.603 78.6166 33.5357 78.783 33.6184C78.9493 33.701 79.0166 33.9039 78.9339 34.0702C78.8753 34.1875 78.756 34.2558 78.633 34.2558C78.582 34.2558 78.5311 34.2442 78.4821 34.2202ZM58.8369 33.7539C58.7591 33.5857 58.8331 33.3857 59.0023 33.3078H59.0013C59.1705 33.23 59.3705 33.304 59.4484 33.4722C59.5262 33.6414 59.4522 33.8414 59.283 33.9193C59.2378 33.9404 59.1898 33.95 59.1427 33.95C59.0157 33.95 58.8937 33.8779 58.8369 33.7539ZM77.1928 33.627C77.0217 33.5549 76.9409 33.3578 77.013 33.1867C77.0851 33.0156 77.2832 32.9348 77.4543 33.0069C77.6254 33.079 77.7052 33.2761 77.6331 33.4482C77.5793 33.5761 77.4543 33.6539 77.3236 33.6539C77.2793 33.6539 77.2351 33.6453 77.1928 33.627ZM60.1521 33.1752C60.0858 33.0021 60.1723 32.8069 60.3454 32.7406C60.5194 32.6733 60.7136 32.7598 60.7809 32.9329C60.8472 33.1069 60.7607 33.3011 60.5876 33.3684C60.5472 33.3838 60.5069 33.3905 60.4665 33.3905C60.3309 33.3905 60.204 33.3088 60.1521 33.1752ZM75.8671 33.1184C75.6921 33.0569 75.5988 32.8656 75.6604 32.6896C75.7209 32.5137 75.9122 32.4214 76.0882 32.482C76.2641 32.5435 76.3564 32.7348 76.2958 32.9108C76.2478 33.0492 76.117 33.1367 75.9776 33.1367C75.9411 33.1367 75.9036 33.1309 75.8671 33.1184ZM61.5048 32.681C61.449 32.5031 61.5481 32.3147 61.725 32.2589C61.9028 32.2041 62.0912 32.3022 62.147 32.4801C62.2028 32.657 62.1037 32.8464 61.9259 32.9012C61.8922 32.9117 61.8586 32.9175 61.8259 32.9175C61.6827 32.9175 61.55 32.8252 61.5048 32.681ZM74.5144 32.6954C74.3346 32.6464 74.2298 32.4608 74.2798 32.282C74.3288 32.1022 74.5144 31.9974 74.6932 32.0474C74.873 32.0965 74.9778 32.282 74.9278 32.4608C74.8864 32.6099 74.7518 32.7079 74.6038 32.7079C74.574 32.7079 74.5442 32.7041 74.5144 32.6954ZM62.8854 32.2743C62.8411 32.0945 62.9517 31.9119 63.1324 31.8677C63.3132 31.8244 63.4949 31.935 63.5391 32.1157C63.5833 32.2964 63.4728 32.4781 63.292 32.5224C63.2651 32.5281 63.2382 32.532 63.2122 32.532C63.0603 32.532 62.9229 32.4281 62.8854 32.2743ZM73.1367 32.3618C72.954 32.3234 72.8377 32.1455 72.8762 31.9638C72.9137 31.7811 73.0915 31.6648 73.2742 31.7033C73.4559 31.7408 73.5722 31.9186 73.5347 32.1013C73.5011 32.2599 73.3617 32.3685 73.205 32.3685C73.1828 32.3685 73.1598 32.3666 73.1367 32.3618ZM64.29 31.958C64.2573 31.7754 64.3794 31.6004 64.562 31.5677C64.7457 31.536 64.9197 31.6581 64.9524 31.8407C64.985 32.0244 64.862 32.1984 64.6793 32.2311C64.6591 32.2339 64.6399 32.2359 64.6207 32.2359C64.4601 32.2359 64.3178 32.1215 64.29 31.958ZM71.7398 32.1167C71.5562 32.0897 71.4283 31.9196 71.4543 31.735C71.4812 31.5514 71.6513 31.4235 71.835 31.4494C72.0196 31.4764 72.1465 31.6465 72.1205 31.8302C72.0965 31.9984 71.9523 32.1195 71.7879 32.1195C71.7725 32.1195 71.7561 32.1195 71.7398 32.1167ZM65.7109 31.7321C65.6907 31.5475 65.8234 31.3812 66.008 31.36C66.1926 31.3399 66.3589 31.4725 66.38 31.6571C66.4002 31.8427 66.2675 32.008 66.083 32.0292C66.0705 32.0301 66.057 32.0311 66.0445 32.0311C65.8763 32.0311 65.7301 31.9042 65.7109 31.7321ZM70.3304 31.9599C70.1458 31.9465 70.0074 31.784 70.0218 31.5985C70.0362 31.4129 70.1977 31.2754 70.3833 31.2899C70.5688 31.3043 70.7073 31.4658 70.6928 31.6513C70.6784 31.8273 70.5313 31.9619 70.3573 31.9619C70.3487 31.9619 70.34 31.9609 70.3304 31.9599ZM67.1443 31.5965C67.1347 31.411 67.278 31.2533 67.4645 31.2447C67.65 31.236 67.8077 31.3793 67.8163 31.5648C67.825 31.7504 67.6818 31.908 67.4962 31.9167C67.4904 31.9167 67.4847 31.9167 67.4799 31.9167C67.301 31.9167 67.153 31.7763 67.1443 31.5956V31.5965ZM68.9143 31.8946C68.7287 31.8917 68.5807 31.7388 68.5835 31.5523C68.5864 31.3668 68.7383 31.2187 68.9248 31.2216C69.1104 31.2245 69.2584 31.3773 69.2556 31.5629C69.2527 31.7475 69.1027 31.8946 68.92 31.8946H68.9143Z" fill="white"/>
</g>
<defs>
<clipPath id="clip0_3612_951">
<rect width="83.6637" height="102.131" fill="white" transform="translate(28 19)"/>
</clipPath>
</defs>
</svg>
