<svg width="140" height="140" viewBox="0 0 140 140" fill="none" xmlns="http://www.w3.org/2000/svg">
<rect width="140" height="140" rx="30" fill="white"/>
<g clip-path="url(#clip0_833_899)">
<path d="M29 50.5825C38.3747 50.5508 47.7449 50.5146 57.1196 50.4965C65.059 50.4829 72.9939 50.4603 80.9334 50.5237C82.9637 50.5372 85.0212 50.7002 87.0197 51.0533C92.62 52.04 96.7759 55.6702 97.4254 61.2558C98.0568 66.6693 98.0295 72.2232 97.648 77.6685C97.2256 83.6343 93.7282 87.4501 87.7328 88.7673C87.3013 88.8623 86.8834 89.0253 86.0522 89.2833C90.5852 95.4211 94.9864 101.378 99.8055 107.905C98.0068 107.905 96.785 107.905 95.5587 107.905C92.3066 107.905 89.0545 107.837 85.807 107.941C84.3444 107.986 83.4587 107.502 82.6639 106.284C79.4391 101.369 76.0553 96.5527 72.8713 91.6144C71.7358 89.8536 70.4913 89.0705 68.3066 89.1158C60.8259 89.2606 53.3361 89.2335 45.8554 89.1248C43.8342 89.0977 43.2574 89.7404 43.3164 91.7094C43.4527 96.2268 43.2755 100.749 43.4027 105.266C43.4572 107.262 42.9849 108.054 40.7911 107.964C36.8713 107.801 32.9334 107.977 29.0045 108.009C29 88.8623 29 69.7201 29 50.5825ZM62.3974 76.6455C62.3974 76.6455 62.3974 76.6139 62.3974 76.5957C68.134 76.5957 73.8706 76.6818 79.6071 76.5641C82.7638 76.5007 83.7176 75.3736 83.8312 72.2187C83.8812 70.7929 83.863 69.3626 83.8403 67.9322C83.7812 64.3337 82.7184 63.0844 79.1302 63.0573C67.807 62.9713 56.4837 63.0301 45.1605 62.9894C43.7661 62.9849 43.321 63.5461 43.3482 64.8769C43.4073 68.0363 43.4527 71.2003 43.3255 74.3507C43.2528 76.1341 43.8751 76.7044 45.6419 76.6772C51.2286 76.5912 56.8153 76.6455 62.402 76.6455H62.3974Z" fill="#0F253D"/>
<path d="M119 36.7997C119.027 42.3038 114.694 46.708 109.185 46.7714C103.734 46.8348 99.1969 42.3762 99.1788 36.94C99.1606 31.4359 103.53 27.0317 109.044 27.0001C114.581 26.9684 118.973 31.2911 119 36.7997Z" fill="#FF0B40"/>
</g>
<defs>
<clipPath id="clip0_833_899">
<rect width="90" height="81" fill="white" transform="translate(29 27)"/>
</clipPath>
</defs>
</svg>
