<svg width="140" height="140" viewBox="0 0 140 140" fill="none" xmlns="http://www.w3.org/2000/svg">
<rect width="140" height="140" rx="30" fill="url(#paint0_linear_2643_302)"/>
<g clip-path="url(#clip0_2643_302)">
<path d="M33.5698 67.9116H29.0834C29.0255 67.78 28.9591 67.6455 28.9053 67.506C28.4654 66.368 27.6433 65.7557 26.4428 65.6143C25.741 65.5319 25.0533 65.5089 24.3733 65.7322C23.9616 65.8675 23.6004 66.0839 23.304 66.4053C22.5229 67.2519 22.7256 68.5037 23.7339 69.0543C24.4507 69.4461 25.2291 69.6192 26.0261 69.7605C27.7895 70.074 29.5147 70.4888 31.1315 71.3382C33.257 72.4542 34.3268 75.1764 33.8809 77.3476C33.3367 79.9952 31.7463 81.6494 29.2419 82.4453C27.2239 83.0867 25.1694 83.0968 23.1368 82.5577C21.2741 82.0642 19.7839 81.0182 18.8594 79.2485C18.4714 78.5054 18.2632 77.7122 18.1375 76.8904C18.0915 76.5907 18.0528 76.2896 18.0009 75.9185C19.528 75.8725 21.0068 75.8928 22.4933 75.8389C22.527 75.9517 22.5652 76.0355 22.5762 76.123C22.726 77.313 23.5572 78.2039 24.7258 78.4221C25.5201 78.5703 26.3153 78.6389 27.1228 78.5169C27.6292 78.4405 28.0901 78.2656 28.5105 77.9783C29.2501 77.4732 29.4687 76.3637 28.985 75.6101C28.7113 75.1838 28.352 74.8564 27.8665 74.717C26.993 74.466 26.119 74.211 25.2327 74.014C23.7189 73.677 22.2255 73.3068 20.8587 72.5223C19.4036 71.6877 18.5998 70.4391 18.3885 68.7758C18.2537 67.7127 18.2742 66.6622 18.6371 65.6438C19.3453 63.655 20.734 62.3756 22.7155 61.7628C24.6279 61.1717 26.5817 61.0713 28.505 61.6311C31.1032 62.3875 32.7797 64.0983 33.3626 66.8178C33.4355 67.1584 33.4933 67.5028 33.5708 67.9121L33.5698 67.9116Z" fill="white"/>
<path d="M70.6001 82.6422H66.9357C66.8838 82.1289 66.8328 81.6248 66.7777 81.0815C65.3676 82.3665 63.7231 82.9488 61.9205 82.9963C59.3705 83.063 57.2054 82.1667 55.5677 80.1212C54.4477 78.7226 53.8967 77.1181 53.8379 75.3309C53.8024 74.2564 53.7796 73.175 54.0875 72.1354C55.0261 68.9653 57.082 67.0041 60.3374 66.4548C62.2639 66.1298 64.1166 66.4332 65.8162 67.4594C66.1496 67.6606 66.4529 67.9138 66.8464 68.1983C66.8464 67.8341 66.8405 67.5353 66.8478 67.237C66.8596 66.761 66.9102 66.7076 67.3747 66.6993C68.3302 66.6822 69.2857 66.6707 70.2412 66.6601C70.3596 66.6588 70.478 66.6767 70.5873 66.6855C70.7285 67.1191 70.7449 81.9908 70.5996 82.6422H70.6001ZM62.2283 78.8303C63.6174 78.8786 64.7196 78.4261 65.4842 77.317C65.7748 76.8958 65.9948 76.4101 66.1692 75.9253C66.6679 74.5409 66.3245 73.2717 65.553 72.0889C64.8453 71.0038 63.7823 70.5508 62.5503 70.427C61.4887 70.3206 60.5159 70.5853 59.7121 71.2902C58.4196 72.4241 57.8894 73.8494 58.2593 75.5754C58.487 76.6375 58.9961 77.5159 59.8897 78.1397C60.6125 78.6443 61.425 78.8528 62.2283 78.8298V78.8303Z" fill="white"/>
<path d="M47.8176 68.2325C47.8481 67.7808 47.8759 67.4167 47.8959 67.0521C47.9091 66.8113 48.0202 66.6879 48.2657 66.6879C49.2973 66.6879 50.3288 66.6833 51.3604 66.6847C51.4469 66.6847 51.5339 66.7164 51.6733 66.7436C51.7019 72.0343 51.7065 77.3162 51.6705 82.6032C51.5494 82.6281 51.492 82.6497 51.4351 82.6497C50.4031 82.652 49.371 82.6571 48.3395 82.6497C47.9547 82.647 47.9351 82.6147 47.9105 82.2248C47.8877 81.8625 47.8672 81.5002 47.8417 81.0711C47.5384 81.3031 47.3102 81.5002 47.0606 81.6645C45.948 82.397 44.7366 82.8256 43.4058 82.9522C41.5194 83.1317 39.7715 82.7423 38.2184 81.6562C36.6877 80.5854 35.6266 79.1425 35.1424 77.295C34.9635 76.6114 34.8091 75.9254 34.7754 75.2178C34.6624 72.8413 35.2536 70.6955 36.8335 68.8798C37.972 67.5714 39.4267 66.8288 41.0954 66.5051C42.7577 66.1829 44.3959 66.2869 45.948 67.0125C46.4791 67.2606 46.9536 67.6321 47.4514 67.9512C47.5516 68.0152 47.6409 68.0962 47.8167 68.232L47.8176 68.2325ZM39.132 74.4255C39.1493 74.67 39.1557 74.9163 39.1862 75.1589C39.3015 76.0769 39.597 76.9231 40.2446 77.5998C41.457 78.8668 42.9508 79.0942 44.5649 78.6854C45.0212 78.5698 45.4971 78.336 45.8465 78.0224C47.123 76.877 47.6882 75.3941 47.2879 73.7165C46.8853 72.0297 45.8465 70.8732 44.0571 70.4879C41.4525 69.9271 39.0974 72.1581 39.132 74.425V74.4255Z" fill="white"/>
<path d="M89.7291 82.6363H85.4868V61.6651C85.8625 61.5546 89.0232 61.5228 89.7014 61.6186C89.7706 62.0389 89.7323 62.48 89.7428 62.9164C89.7537 63.3763 89.7474 63.8363 89.7474 64.2962C89.7474 64.7409 89.7455 65.1856 89.7446 65.6299C89.7437 66.0898 89.7433 66.5497 89.7433 67.0097C89.7433 67.4493 89.7433 67.889 89.7433 68.3986C89.8694 68.3153 89.9509 68.2826 90.0038 68.2232C90.906 67.2062 92.0541 66.6773 93.3689 66.4692C94.5872 66.2767 95.7809 66.3398 96.9632 66.7251C98.6597 67.2785 99.6999 68.4677 100.281 70.1227C100.621 71.0891 100.72 72.0973 100.726 73.1106C100.747 76.1312 100.744 79.1517 100.75 82.1718C100.75 82.3085 100.737 82.4453 100.731 82.5746C100.412 82.6865 97.195 82.7201 96.4631 82.6174C96.4522 82.4365 96.4304 82.2441 96.4299 82.0516C96.4285 79.2917 96.4358 76.5321 96.424 73.7722C96.4222 73.3624 96.3716 72.9439 96.2764 72.5462C96.01 71.433 95.32 70.7111 94.2001 70.4786C93.1039 70.2512 92.0486 70.3631 91.131 71.0817C90.3153 71.7203 89.7897 72.5135 89.7956 73.6156C89.8079 75.9 89.7952 78.1844 89.7838 80.4689C89.7801 81.1728 89.7492 81.8762 89.7291 82.6349V82.6363Z" fill="white"/>
<path d="M79.3321 62.9183C79.3549 64.1567 79.3781 65.4048 79.4018 66.6856H83.0967C83.1381 67.9369 83.1787 69.1532 83.0803 70.4064H79.4059C79.3867 70.5394 79.359 70.6407 79.359 70.742C79.3617 72.6286 79.3653 74.5148 79.3758 76.401C79.3781 76.784 79.4091 77.167 79.4273 77.5496C79.4469 77.9603 79.6304 78.2775 79.9556 78.521C80.3318 78.8028 80.743 78.9777 81.2176 78.9777C81.929 78.9777 82.6403 78.9777 83.3936 78.9777C83.3936 79.3294 83.395 79.7332 83.3936 80.1369C83.3918 80.5665 83.3854 80.9955 83.3832 81.4251C83.3813 81.8367 83.3832 82.2482 83.3832 82.6879C83.1049 82.7367 82.8717 82.7979 82.6353 82.8159C81.4098 82.9103 80.1851 83.0074 78.9636 82.7468C76.7452 82.274 75.251 80.7124 75.1444 78.3903C75.0292 75.8798 75.0702 73.362 75.0433 70.8479C75.0419 70.7272 75.0433 70.6062 75.0433 70.434H72.3558C72.3002 69.1817 72.3098 67.9788 72.3111 66.7095C73.2302 66.6796 74.1142 66.6506 75.0433 66.6197V63.4136C75.4559 63.1894 78.7601 62.8128 79.3335 62.9174L79.3321 62.9183Z" fill="white"/>
<path d="M106.929 66.6579V82.5595C106.594 82.6828 103.196 82.722 102.617 82.6032C102.606 82.1474 102.582 81.6774 102.584 81.2078C102.591 79.2314 102.612 77.255 102.617 75.2781C102.624 72.612 102.622 69.946 102.623 67.2799C102.623 67.2491 102.623 67.2187 102.623 67.1878C102.629 66.7275 102.64 66.7123 103.111 66.6704C103.307 66.6529 103.505 66.6441 103.701 66.6432C104.611 66.6372 105.52 66.6345 106.43 66.6335C106.578 66.6335 106.726 66.6483 106.929 66.6589L106.929 66.6579Z" fill="white"/>
<path d="M114.656 58.1551C114.815 58.1233 114.886 58.0989 114.958 58.0961C115.822 58.063 116.686 58.0349 117.55 58.0008C117.828 57.9898 118.049 58.0883 118.232 58.2987C119.112 59.312 119.993 60.3262 120.881 61.3326C121.05 61.5237 121.031 61.6701 120.878 61.851C119.993 62.9011 119.112 63.954 118.236 65.011C118.098 65.1768 117.939 65.2679 117.728 65.2679C116.759 65.2688 115.79 65.2679 114.815 65.2679C114.877 64.837 115.929 63.4531 117.559 61.6249C116.61 60.491 115.657 59.3516 114.656 58.1546V58.1551Z" fill="#FFC226"/>
<path d="M108.773 65.2202C108.967 64.9394 109.088 64.7308 109.24 64.548C109.951 63.6922 110.669 62.8419 111.387 61.992C111.622 61.7144 111.641 61.6582 111.437 61.3539C111.276 61.1136 111.098 60.8825 110.907 60.6661C110.28 59.9594 109.642 59.262 109.011 58.559C108.921 58.46 108.843 58.3513 108.709 58.1842C108.886 58.1409 109.007 58.0903 109.129 58.0852C109.946 58.0525 110.764 58.0337 111.582 58.0019C111.875 57.9904 112.099 58.0866 112.3 58.3117C113.235 59.3563 114.183 60.3894 115.125 61.4276C115.145 61.4492 115.154 61.4805 115.182 61.5339C115.136 61.609 115.094 61.7066 115.029 61.7835C114.13 62.84 113.232 63.8971 112.321 64.9435C112.21 65.0719 112.037 65.2091 111.881 65.2253C110.886 65.3265 109.889 65.2911 108.774 65.2193L108.773 65.2202Z" fill="#FFC226"/>
<path d="M102.771 58.1841C102.969 58.1358 103.068 58.0948 103.169 58.0902C103.867 58.0589 104.564 58.0345 105.261 58.0101C105.618 57.9977 105.902 58.1279 106.13 58.418C106.876 59.3654 107.637 60.3009 108.383 61.2479C108.641 61.5762 108.624 61.5817 108.368 61.9118C107.601 62.9007 106.834 63.8887 106.079 64.8868C105.887 65.1404 105.667 65.2583 105.35 65.2523C104.606 65.2385 103.863 65.2468 103.119 65.2431C103.048 65.2431 102.977 65.2229 102.836 65.2012C102.951 65.0115 103.03 64.8513 103.136 64.7123C103.811 63.8256 104.491 62.9417 105.174 62.061C105.451 61.7037 105.483 61.619 105.206 61.2576C104.527 60.3732 103.826 59.5068 103.134 58.6339C103.032 58.5059 102.929 58.3802 102.77 58.1846L102.771 58.1841Z" fill="#FFC226"/>
</g>
<defs>
<linearGradient id="paint0_linear_2643_302" x1="1.21524e-06" y1="73" x2="140" y2="73" gradientUnits="userSpaceOnUse">
<stop stop-color="#26018D"/>
<stop offset="1" stop-color="#4A00AB"/>
</linearGradient>
<clipPath id="clip0_2643_302">
<rect width="103" height="25" fill="white" transform="translate(18 58)"/>
</clipPath>
</defs>
</svg>
