<svg width="140" height="140" viewBox="0 0 140 140" fill="none" xmlns="http://www.w3.org/2000/svg">
<rect width="140" height="140" rx="30" fill="white"/>
<g clip-path="url(#clip0_841_3671)">
<path d="M58.1609 64.5022C58.0837 64.8798 58.0043 65.2569 57.9298 65.635C57.7443 66.5787 57.5588 67.5229 57.377 68.4671C57.2076 69.346 57.0472 70.2263 56.8746 71.1041C56.7673 71.6505 56.6413 72.1938 56.5298 72.7392C56.4488 73.1355 56.3786 73.5339 56.3014 73.9312C56.0907 75.0163 55.8767 76.1004 55.6681 77.1861C55.6263 77.4035 55.4633 77.4106 55.2858 77.4106C54.348 77.4106 53.4102 77.4106 52.4719 77.4106C52.3555 77.4106 52.2397 77.4106 52.1233 77.4106C51.6188 77.4116 51.5356 77.328 51.4547 76.8627C51.3415 76.2145 51.2016 75.5708 51.0745 74.9251C51.0011 74.5526 50.9303 74.1796 50.86 73.8065C50.6289 72.579 50.4059 71.3505 50.1657 70.125C49.9399 68.974 49.6917 67.827 49.4606 66.677C49.364 66.1971 49.289 65.713 49.1978 65.2316C49.171 65.0907 49.1244 64.9528 49.0863 64.8134C49.0482 64.8154 49.0096 64.8175 48.9715 64.8195C48.9555 64.9923 48.9254 65.1652 48.9249 65.3385C48.9211 66.7566 48.9319 68.1747 48.9206 69.5928C48.9029 71.8867 48.8724 74.1811 48.845 76.475C48.8423 76.7026 48.8203 76.9296 48.8128 77.1572C48.8069 77.332 48.7292 77.4141 48.5329 77.4136C47.4252 77.4091 46.3174 77.4091 45.2101 77.4126C44.9699 77.4136 44.8611 77.3042 44.8659 77.0898C44.8804 76.441 44.9007 75.7928 44.919 75.1441C44.9206 75.0853 44.9291 75.026 44.9297 74.9672C44.9436 73.8451 44.956 72.723 44.9699 71.6008C44.9812 70.6896 44.9892 69.7783 45.0069 68.8675C45.0208 68.1428 45.0487 67.4185 45.0686 66.6937C45.1039 65.4044 45.1426 64.115 45.1683 62.8256C45.1731 62.5961 45.2584 62.5145 45.5007 62.515C47.4391 62.5205 49.3775 62.521 51.3158 62.515C51.5598 62.5139 51.6702 62.5971 51.7062 62.8251C51.8155 63.5165 51.9389 64.2062 52.0595 64.896C52.2316 65.8762 52.4107 66.8549 52.5791 67.8356C52.7432 68.792 52.8944 69.7509 53.0568 70.7073C53.1555 71.2891 53.2686 71.8684 53.3694 72.4498C53.407 72.6657 53.4247 72.8851 53.4563 73.1021C53.4735 73.2191 53.5013 73.3347 53.5244 73.4513C53.5544 73.4528 53.5845 73.4543 53.614 73.4558C53.6703 73.2835 53.748 73.1147 53.7791 72.9389C53.8837 72.3489 53.9646 71.7554 54.0676 71.165C54.2381 70.1843 54.4231 69.2061 54.5925 68.2259C54.6949 67.6354 54.778 67.0424 54.874 66.451C54.933 66.0845 54.9973 65.7191 55.0633 65.3537C55.177 64.7227 55.2976 64.0927 55.4081 63.4612C55.4445 63.2534 55.4697 63.0431 55.4815 62.8327C55.4933 62.6204 55.6118 62.5312 55.8209 62.5221C55.8923 62.519 55.9636 62.5185 56.0354 62.5185C57.8757 62.5185 59.7159 62.5185 61.5556 62.5185C62.0065 62.5185 62.0371 62.5545 62.0441 62.9802C62.0709 64.6249 62.1014 66.269 62.1309 67.9137C62.1427 68.5796 62.1518 69.2461 62.1685 69.9121C62.2226 72.1031 62.2795 74.2941 62.3368 76.4851C62.3427 76.7041 62.3636 76.923 62.3663 77.142C62.3685 77.326 62.2698 77.4136 62.0655 77.4131C60.9491 77.4091 59.8322 77.4091 58.7159 77.4121C58.4885 77.4126 58.3915 77.3052 58.3824 77.104C58.3813 77.0786 58.3797 77.0533 58.3791 77.0279C58.3593 75.9494 58.3271 74.8704 58.3212 73.7918C58.3062 70.8548 58.303 67.9177 58.2912 64.9807C58.2907 64.819 58.2596 64.6573 58.243 64.4956C58.2156 64.4982 58.1877 64.5002 58.1604 64.5027L58.1609 64.5022Z" fill="black"/>
<path d="M100.233 65.8342C100.214 65.9345 100.175 66.0349 100.177 66.1347C100.203 67.8463 100.234 69.5573 100.264 71.2689C100.265 71.3363 100.269 71.4037 100.269 71.4711C100.28 73.0828 100.288 74.694 100.304 76.3057C100.306 76.515 100.349 76.7238 100.375 76.9327C100.401 77.144 100.311 77.253 100.078 77.253C98.9444 77.2525 97.8098 77.2514 96.6757 77.255C96.4907 77.2555 96.414 77.1785 96.4242 77.0092C96.428 76.9504 96.4242 76.8911 96.4242 76.8318C96.4242 72.207 96.4242 67.5822 96.4242 62.9574C96.4242 62.6645 96.5762 62.518 96.88 62.518C98.5588 62.518 100.238 62.518 101.917 62.518C102.305 62.518 102.383 62.5976 102.483 62.9498C102.648 63.5337 102.841 64.1105 103.02 64.6913C103.179 65.2082 103.333 65.7267 103.491 66.2442C103.654 66.7774 103.82 67.3095 103.983 67.8427C104.23 68.6501 104.472 69.459 104.723 70.2654C104.889 70.7975 105.072 71.3251 105.238 71.8573C105.399 72.3737 105.549 72.8932 105.704 73.4112C105.729 73.4964 105.756 73.5815 105.781 73.6667C105.808 73.6692 105.834 73.6722 105.86 73.6748C105.888 73.5901 105.941 73.505 105.94 73.4209C105.924 72.1984 105.902 70.9754 105.88 69.753C105.878 69.6262 105.871 69.5 105.869 69.3733C105.846 67.7459 105.827 66.119 105.8 64.4916C105.791 63.9528 105.768 63.4141 105.737 62.8758C105.722 62.626 105.824 62.5175 106.087 62.5185C107.186 62.5216 108.284 62.521 109.383 62.5195C109.629 62.5195 109.723 62.6199 109.723 62.8606C109.718 67.5528 109.718 72.245 109.723 76.9372C109.723 77.1709 109.631 77.2535 109.395 77.253C107.707 77.2499 106.019 77.2494 104.332 77.255C104.096 77.256 103.993 77.1354 103.935 76.9509C103.643 76.0239 103.359 75.0949 103.062 74.1699C102.832 73.4543 102.582 72.7447 102.352 72.0296C102.116 71.2972 101.896 70.5603 101.661 69.828C101.489 69.2892 101.299 68.7555 101.125 68.2173C100.899 67.5173 100.684 66.8149 100.46 66.115C100.427 66.0131 100.374 65.9173 100.33 65.819C100.298 65.824 100.266 65.8286 100.234 65.8337L100.233 65.8342Z" fill="black"/>
<path d="M85.1029 68.3551C85.1029 70.1361 85.112 71.9166 85.0975 73.6976C85.0932 74.2318 85.3109 74.6463 85.7715 74.9119C86.3067 75.2206 86.8992 75.2079 87.43 74.9094C87.8938 74.6484 88.112 74.2059 88.1131 73.692C88.1174 71.2785 88.1147 68.8645 88.1147 66.451C88.1147 65.2609 88.1142 64.0709 88.1147 62.8809C88.1147 62.553 88.1512 62.5195 88.5002 62.5195C89.5721 62.519 90.644 62.518 91.7153 62.52C92.1351 62.521 92.1673 62.555 92.1673 62.9554C92.1673 66.4748 92.1791 69.9942 92.1593 73.5131C92.1539 74.4375 91.9812 75.3458 91.392 76.1263C91.008 76.6346 90.5024 77.0087 89.9003 77.2752C88.3662 77.9549 86.7437 77.9184 85.1238 77.7699C84.2101 77.6863 83.3211 77.4339 82.5769 76.8784C81.9399 76.403 81.4889 75.811 81.2546 75.0589C81.0766 74.4877 81.0546 73.9119 81.0535 73.3326C81.046 69.8807 81.0498 66.4292 81.0498 62.9772C81.0498 62.5276 81.0589 62.519 81.5248 62.5195C82.5699 62.5195 83.6149 62.518 84.6595 62.5205C85.0696 62.5215 85.1029 62.557 85.1029 62.9371C85.1029 64.743 85.1029 66.5493 85.1029 68.3551Z" fill="black"/>
<path d="M113.806 69.9263C113.806 68.5761 113.733 67.2213 113.826 65.8767C113.922 64.4662 114.624 63.3543 116.033 62.7096C116.791 62.3624 117.582 62.1739 118.42 62.1404C118.812 62.1247 119.205 62.0532 119.593 62.075C120.705 62.1374 121.813 62.2301 122.827 62.7344C123.751 63.1941 124.384 63.8712 124.719 64.822C124.975 65.5508 124.907 66.2888 124.92 67.0277C124.923 67.2264 124.818 67.3095 124.602 67.308C123.504 67.3024 122.405 67.3065 121.306 67.3045C121.022 67.3039 120.947 67.23 120.932 66.9568C120.914 66.6202 120.918 66.2812 120.873 65.9482C120.788 65.3339 120.327 64.9229 119.669 64.8463C119.107 64.781 118.561 64.8311 118.168 65.2589C117.997 65.4454 117.869 65.7059 117.825 65.9492C117.751 66.3531 117.74 66.7703 117.738 67.1818C117.73 69.1483 117.731 71.1153 117.738 73.0818C117.739 73.3843 117.754 73.694 117.825 73.987C117.943 74.4745 118.323 74.7877 118.805 74.8992C119.528 75.0665 120.256 75.0026 120.718 74.3519C120.9 74.0959 120.974 73.7381 120.996 73.4203C121.038 72.8152 121.011 72.2055 121.008 71.5978C121.006 71.3231 120.938 71.2607 120.638 71.2557C120.325 71.2506 120.012 71.2516 119.7 71.2552C119.499 71.2572 119.399 71.1634 119.398 70.9795C119.396 70.4057 119.398 69.8315 119.396 69.2578C119.396 69.0728 119.5 69.0038 119.683 69.0038C121.344 69.0054 123.005 69.0054 124.667 69.0054C124.902 69.0054 124.996 69.1118 124.995 69.3368C124.989 70.6449 125.019 71.9541 124.979 73.2617C124.96 73.8876 124.936 74.5277 124.673 75.1253C124.352 75.8546 123.854 76.4466 123.137 76.8576C122.144 77.4273 121.047 77.6574 119.898 77.6615C119.203 77.664 118.498 77.6817 117.814 77.5844C116.497 77.3979 115.287 76.9489 114.488 75.8668C113.987 75.1886 113.78 74.4021 113.78 73.5719C113.78 72.3565 113.78 71.1411 113.78 69.9253C113.789 69.9253 113.797 69.9253 113.806 69.9253L113.806 69.9263Z" fill="black"/>
<path d="M17.1657 72.4764C17.7641 72.4764 18.3625 72.4739 18.9609 72.4775C19.2934 72.4795 19.3245 72.5139 19.325 72.8302C19.3255 73.2017 19.3239 73.5727 19.325 73.9442C19.3271 74.6228 19.6848 75.0724 20.3915 75.19C20.9588 75.2843 21.5363 75.299 21.9883 74.8529C22.4752 74.3725 22.628 73.2585 21.8741 72.6371C21.3813 72.2311 20.8387 71.8677 20.2783 71.5479C19.0698 70.8571 17.7722 70.3037 16.673 69.4451C15.6713 68.6636 15.0933 67.691 15.0997 66.431C15.1024 65.8436 15.14 65.2648 15.3378 64.7088C15.5963 63.982 16.0418 63.3825 16.7293 62.9456C17.792 62.2695 18.9931 62.0764 20.2328 62.0145C21.0639 61.9735 21.8928 62.0145 22.7084 62.1813C23.7095 62.3855 24.6414 62.7256 25.2998 63.5178C25.7336 64.0398 25.9835 64.6379 26.0092 65.3084C26.0248 65.7128 26.0419 66.1173 26.0462 66.5217C26.0489 66.8025 25.9781 66.8618 25.6811 66.8623C24.6092 66.8638 23.5379 66.8638 22.466 66.8623C22.1481 66.8618 22.0789 66.7868 22.065 66.4878C22.0505 66.1852 22.0435 65.8806 21.9947 65.5821C21.9073 65.0454 21.4204 64.647 20.8478 64.6384C20.4869 64.6328 20.1341 64.6151 19.7824 64.796C19.2934 65.0474 19.0746 65.9019 19.2467 66.3423C19.4628 66.8958 19.9212 67.2252 20.4242 67.5004C21.2928 67.9753 22.1861 68.4097 23.058 68.88C23.8548 69.3098 24.6382 69.7659 25.2891 70.3873C26.0082 71.0741 26.3899 71.9083 26.4157 72.8784C26.436 73.6381 26.4323 74.3983 26.2044 75.1363C25.9594 75.9294 25.4977 76.5822 24.7567 77.0435C24.0457 77.4859 23.2655 77.7282 22.4264 77.8681C21.6349 77.9998 20.843 78.0262 20.0537 77.9796C18.7695 77.904 17.5228 77.6557 16.4746 76.8808C15.9174 76.4687 15.5255 75.9406 15.2804 75.3035C14.9571 74.4622 15.0059 73.5945 15 72.7283C14.9984 72.4982 15.1603 72.4764 15.3437 72.4759C15.9512 72.4759 16.5582 72.4759 17.1657 72.4759V72.4764Z" fill="black"/>
<path d="M68.2921 72.4391C68.8814 72.4391 69.4712 72.4472 70.0599 72.4351C70.3125 72.43 70.4187 72.5101 70.4095 72.7549C70.3961 73.1173 70.4305 73.4822 70.4015 73.843C70.3382 74.6271 71.0138 75.1714 71.7688 75.1775C72.2905 75.1816 72.8031 75.1618 73.1533 74.7335C73.5393 74.2612 73.5892 73.2815 73.1222 72.767C72.7313 72.3368 72.2562 72.018 71.7511 71.7331C70.6154 71.092 69.4621 70.4792 68.3377 69.8209C67.6176 69.3992 67.0342 68.832 66.6347 68.1113C66.3934 67.6765 66.2958 67.2021 66.2604 66.7267C66.2058 65.9827 66.2776 65.2407 66.5709 64.5377C66.8497 63.8692 67.3146 63.3375 67.9623 62.9529C68.943 62.3705 70.0278 62.1947 71.1672 62.1237C71.8782 62.0796 72.5763 62.1217 73.2702 62.1921C74.4166 62.3082 75.4814 62.6472 76.2761 63.5078C76.7705 64.0436 76.9935 64.6867 77.053 65.3785C77.089 65.7977 77.0595 66.2219 77.0632 66.6436C77.0648 66.8448 76.9726 66.9254 76.7533 66.9238C75.6638 66.9168 74.5742 66.9218 73.4846 66.9193C73.1956 66.9188 73.1275 66.8493 73.112 66.5736C73.0921 66.23 73.0927 65.8838 73.0439 65.5438C72.9785 65.0881 72.6273 64.8114 72.2042 64.7171C71.5302 64.5666 70.9286 64.6102 70.5007 65.2346C70.2396 65.6152 70.1425 66.4348 70.6943 66.8965C71.149 67.2771 71.6648 67.604 72.1897 67.8954C73.3978 68.5665 74.6771 69.1174 75.7967 69.9379C77.089 70.8852 77.5748 72.1274 77.4525 73.6221C77.4139 74.0914 77.3689 74.5668 77.2552 75.0229C77.0354 75.9043 76.4874 76.587 75.6713 77.0609C74.7463 77.5981 73.7249 77.7867 72.6492 77.8794C71.8911 77.9453 71.1543 77.8875 70.4144 77.8155C69.1114 77.6888 67.9334 77.2732 67.0562 76.3001C66.7092 75.9149 66.4899 75.4629 66.3334 74.9682C66.099 74.2282 66.18 73.4802 66.1537 72.7331C66.1462 72.5167 66.2385 72.4315 66.4701 72.4351C67.0771 72.4442 67.6846 72.4381 68.2916 72.4381L68.2921 72.4391Z" fill="black"/>
<path d="M35.3286 64.2549C35.3061 64.4074 35.2852 64.5605 35.2605 64.713C35.1125 65.6289 34.9613 66.5437 34.8154 67.46C34.6256 68.6511 34.4412 69.8426 34.2524 71.0337C34.1087 71.9424 33.9629 72.8507 33.816 73.7589C33.6347 74.8825 33.4476 76.0051 33.2728 77.1298C33.2337 77.3817 33.0696 77.4131 32.854 77.4126C31.7822 77.4106 30.7103 77.4126 29.6384 77.4111C28.9955 77.4101 28.8733 77.5028 29.0293 76.7481C29.217 75.8394 29.3939 74.9286 29.572 74.0184C29.7334 73.1897 29.8867 72.36 30.0492 71.5314C30.2245 70.6373 30.409 69.7453 30.5843 68.8513C30.7436 68.0393 30.8937 67.2259 31.0529 66.414C31.2299 65.5118 31.4138 64.6107 31.5924 63.709C31.6529 63.4029 31.7066 63.0953 31.7655 62.7886C31.8042 62.5889 31.9334 62.5165 32.1462 62.517C34.2717 62.5215 36.3978 62.5225 38.5233 62.517C38.7999 62.5165 38.9061 62.6092 38.9468 62.8768C39.0289 63.4181 39.1651 63.9523 39.2745 64.49C39.3533 64.8783 39.4267 65.268 39.4997 65.6573C39.7313 66.8848 39.9597 68.1123 40.193 69.3394C40.3806 70.3251 40.5678 71.3114 40.7651 72.2957C40.934 73.1395 41.1206 73.9804 41.2916 74.8237C41.3855 75.287 41.4616 75.7538 41.5512 76.2175C41.6069 76.5074 41.6863 76.7938 41.7286 77.0847C41.7683 77.3579 41.7045 77.4106 41.4107 77.4106C40.223 77.4111 39.0348 77.405 37.8471 77.4156C37.5962 77.4177 37.4927 77.3264 37.4594 77.1044C37.334 76.2621 37.2047 75.4203 37.0702 74.5794C36.9806 74.0219 36.8734 73.4664 36.7854 72.9089C36.6803 72.242 36.5886 71.5735 36.49 70.906C36.4106 70.3723 36.3318 69.8381 36.2487 69.3049C36.1173 68.4636 35.9811 67.6227 35.8498 66.7814C35.7248 65.9811 35.6042 65.1808 35.4787 64.3806C35.4717 64.3355 35.4374 64.2939 35.4154 64.2508C35.3865 64.2518 35.3575 64.2534 35.3286 64.2544V64.2549Z" fill="black"/>
</g>
<defs>
<clipPath id="clip0_841_3671">
<rect width="110" height="16" fill="white" transform="translate(15 62)"/>
</clipPath>
</defs>
</svg>
