<svg width="140" height="140" viewBox="0 0 140 140" fill="none" xmlns="http://www.w3.org/2000/svg">
<rect width="140" height="140" rx="30" fill="#4F5DE9"/>
<g clip-path="url(#clip0_2755_323)">
<path d="M130 50V91H10V50H130ZM123.716 54.0843H118.966V59.2682H123.716V54.0843ZM31.6015 55.663C28.305 55.1446 22.0368 54.1346 19.2046 56.2144C17.2598 57.6439 17.3011 61.3418 17.528 63.5677C18.0046 68.2521 22.4184 67.7054 25.6659 68.893C27.367 69.5151 27.3732 70.4623 27.1678 72.2311C27.0498 73.2412 26.492 73.6135 25.5556 73.7203C22.9318 74.0188 20.3356 73.392 17.8161 72.7762L17.0605 76.6877C20.1747 77.9774 23.859 78.4722 27.1985 77.9177C29.1709 77.591 31.0559 76.8181 31.767 74.7461C32.3954 72.9176 32.4904 69.0611 31.6368 67.3284C30.2192 64.4537 25.318 64.9501 23.1939 63.5724C21.9663 62.776 21.951 59.6939 23.7303 59.4379C26.1425 59.0907 28.895 59.7253 31.3027 59.895L31.6 55.6599L31.6015 55.663ZM78.8123 77.8046H84.023L85.1019 73.4124L92.5165 73.3967L93.6782 77.8046H98.7356L91.9218 55.33L85.4774 55.4949L78.8123 77.803V77.8046ZM48.1609 71.2069V66.5728C48.1609 59.7128 37.0897 59.1048 35.1693 64.7239C34.4215 66.9105 34.4184 72.828 35.4146 74.9267C36.7602 77.759 40.2437 78.2947 43.0253 78.1188C43.7134 78.0748 47.8667 77.4292 47.9893 76.9296C47.7195 76.4018 47.5203 73.5192 47.1525 73.4218C44.7433 73.8585 38.8031 75.6148 39.577 71.2085H48.1594L48.1609 71.2069ZM55.4406 61.3103H51.5326V77.8046H56.2835V67.8295C57.5862 66.8901 59.0621 66.2366 60.5533 65.6868L60.2667 60.9962C60.0567 60.7684 56.3586 62.4744 55.8988 62.8797C55.695 62.5718 55.7701 61.4187 55.4406 61.3103ZM67.7778 77.6475C71.1218 78.3183 75.7057 78.8885 76.9287 74.6958C77.505 72.7197 77.5004 66.3984 76.9287 64.4191C75.5893 59.785 70.4751 60.6427 67.246 62.5718C67.1172 62.5765 66.8828 61.3103 66.6284 61.3103H63.0268V85.0306L67.7778 84.4023V77.6475ZM106.092 77.6475C109.442 78.2664 113.876 78.9655 115.205 74.8136C115.822 72.8815 115.83 66.3623 115.244 64.4191C113.845 59.7693 108.838 60.6474 105.559 62.5702C105.49 62.5702 105.194 61.3103 104.943 61.3103H101.341V85.0306L106.092 84.4023V77.6475ZM123.716 61.3103H118.966V77.8046H123.716V61.3103Z" fill="#4F5DE9"/>
<path d="M78.8123 77.8046L85.4774 55.4965L91.9218 55.3316L98.7356 77.8062H93.6782L92.5165 73.3983L85.1019 73.414L84.023 77.8062H78.8123V77.8046ZM91.226 69.1648L88.8506 59.895L86.3218 69.1648H91.226Z" fill="#FCFCFE"/>
<path d="M106.092 77.6475V84.4023L101.341 85.0307V61.3103H104.943C105.194 61.3103 105.49 62.5686 105.559 62.5702C108.838 60.6474 113.845 59.7693 115.244 64.4191C115.83 66.3639 115.822 72.883 115.205 74.8136C113.877 78.9655 109.442 78.268 106.092 77.6475ZM106.092 73.5632C107.405 73.6308 110.303 74.622 110.771 72.7825C110.985 71.9389 110.953 67.7337 110.843 66.7315C110.51 63.6981 106.092 66.1204 106.092 66.5744V73.5648V73.5632Z" fill="#FCFCFE"/>
<path d="M67.7778 77.6475V84.4023L63.0268 85.0306V61.3103H66.6283C66.8827 61.3103 67.1172 62.5749 67.246 62.5718C70.4751 60.6427 75.5892 59.785 76.9287 64.4191C77.5004 66.3984 77.505 72.7197 76.9287 74.6958C75.7057 78.8885 71.1218 78.3183 67.7778 77.6475ZM67.7778 73.5632C69.4973 73.6418 72.2467 74.8435 72.5287 72.228C72.636 71.232 72.6682 67.176 72.4567 66.3324C71.8666 63.9824 67.7778 66.0591 67.7778 66.5728V73.5632Z" fill="#FCFCFE"/>
<path d="M31.6015 55.663L31.3042 59.8981C28.895 59.7285 26.1425 59.0938 23.7318 59.441C21.9525 59.6971 21.9678 62.7791 23.1954 63.5756C25.3195 64.9532 30.2207 64.4568 31.6383 67.3315C32.4935 69.0642 32.3969 72.9207 31.7686 74.7492C31.0575 76.8212 29.1724 77.5941 27.2 77.9208C23.8605 78.4738 20.1778 77.9805 17.0621 76.6908L17.8176 72.7794C20.3372 73.3951 22.9333 74.0219 25.5571 73.7235C26.4935 73.6166 27.0513 73.2443 27.1694 72.2343C27.3747 70.4654 27.3686 69.5182 25.6674 68.8961C22.4184 67.7085 18.0061 68.2568 17.5295 63.5708C17.3027 61.3433 17.2613 57.6455 19.2061 56.2176C22.0383 54.1361 28.3065 55.1462 31.6031 55.6662L31.6015 55.663Z" fill="#FCFCFE"/>
<path d="M48.1609 71.2069H39.5785C38.8046 75.6132 44.7448 73.857 47.154 73.4203C47.5218 73.5177 47.7195 76.4002 47.9908 76.9281C47.8682 77.4276 43.7149 78.0732 43.0268 78.1172C40.2437 78.2931 36.7601 77.759 35.4161 74.9252C34.4199 72.8265 34.423 66.909 35.1709 64.7223C37.0912 59.1033 48.1624 59.7128 48.1624 66.5712V71.2053L48.1609 71.2069ZM43.7165 67.5939C44.1471 63.7531 39.0069 63.9196 39.4253 67.5939H43.7165Z" fill="#FCFCFE"/>
<path d="M55.4406 61.3103C55.7701 61.4203 55.695 62.5718 55.8989 62.8797C56.3586 62.4744 60.0567 60.77 60.2667 60.9962L60.5533 65.6868C59.0621 66.2366 57.5862 66.8901 56.2836 67.8295V77.8046H51.5326V61.3103H55.4406Z" fill="#FCFCFE"/>
<path d="M123.716 61.3103H118.966V77.8046H123.716V61.3103Z" fill="#FCFCFE"/>
<path d="M123.716 54.0843H118.966V59.2682H123.716V54.0843Z" fill="#FCFCFE"/>
<path d="M91.2261 69.1648H86.3218L88.8506 59.895L91.2261 69.1648Z" fill="#515FE9"/>
<path d="M106.092 73.5632V66.5728C106.092 66.1188 110.51 63.6965 110.843 66.7299C110.953 67.7321 110.984 71.9389 110.771 72.7809C110.303 74.622 107.405 73.6308 106.092 73.5617V73.5632Z" fill="#515FE9"/>
<path d="M67.7778 73.5632V66.5728C67.7778 66.0607 71.8667 63.9824 72.4567 66.3325C72.6682 67.176 72.6375 71.232 72.5287 72.228C72.2452 74.8419 69.4973 73.6418 67.7778 73.5632Z" fill="#515FE9"/>
<path d="M43.7165 67.5939H39.4253C39.0069 63.9196 44.1471 63.7531 43.7165 67.5939Z" fill="#515FE9"/>
</g>
<defs>
<clipPath id="clip0_2755_323">
<rect width="120" height="41" fill="white" transform="translate(10 50)"/>
</clipPath>
</defs>
</svg>
