<svg width="140" height="140" viewBox="0 0 140 140" fill="none" xmlns="http://www.w3.org/2000/svg">
<rect width="140" height="140" rx="30" fill="white"/>
<path d="M70.0879 94.3929H70.0835C70.1276 94.6436 70.0923 94.8944 70.0901 95.1452C70.0835 96.2534 70.0746 97.3617 70.0658 98.47C70.0658 98.5707 70.0416 98.6693 70.207 98.6715C71.1778 98.6872 72.1508 98.6222 73.1348 98.7163C73.1348 98.9379 73.1348 99.1596 73.1348 99.3835C73.1304 104.063 73.126 108.74 73.1149 113.419C73.1149 113.614 73.1679 113.668 73.362 113.668C74.6924 113.661 76.0206 113.668 77.351 113.668C77.7548 113.668 77.757 113.668 77.757 113.247C77.7614 110.321 77.7768 107.394 77.7636 104.468C77.7548 102.625 77.8342 100.783 77.7151 98.9424C77.6996 98.7096 77.7923 98.6625 78.0019 98.6648C79.2484 98.6737 80.4972 98.6648 81.7438 98.6737C81.9247 98.6737 81.9754 98.6245 81.9754 98.4431C81.9754 97.0908 81.9842 95.7407 81.9931 94.3884H81.9997C82.0063 94.2115 81.907 94.1914 81.7548 94.1914C80.4906 94.1981 79.2264 94.1914 77.96 94.1981C77.7768 94.1981 77.7018 94.1712 77.7129 93.963C77.7217 93.7973 77.7702 93.6361 77.7658 93.4727C77.7393 91.883 77.821 90.2933 77.7305 88.7037C77.7173 88.4552 77.6312 88.444 77.4481 88.444C76.0647 88.4462 74.6814 88.4462 73.2958 88.4395C73.1348 88.4395 73.0862 88.4887 73.0929 88.6455C73.1083 89.0171 73.1171 89.3888 73.1149 89.7605C73.1105 91.1621 73.1701 92.5659 73.1017 93.9675C73.0907 94.1779 73.0245 94.2003 72.8502 94.2003C71.9985 94.1914 71.1447 94.1981 70.2931 94.1958C70.1541 94.1958 70.0239 94.1869 70.0901 94.3951L70.0879 94.3929ZM41.1479 94.319L41.1435 94.3347V94.319C42.1341 94.3235 43.1247 94.3279 44.1153 94.3302C44.5831 94.3302 45.0508 94.3235 45.5186 94.3212C45.6156 94.3212 45.7149 94.3414 45.7039 94.1869C45.6774 93.8107 45.6884 93.4279 45.6222 93.0584C45.4281 91.9435 45.0641 90.8934 44.486 89.9105C43.7182 88.6007 42.6857 87.5909 41.3531 86.9036C40.3536 86.3864 39.2769 86.1311 38.165 86.0281C37.2383 85.9408 36.3293 86.0684 35.4225 86.2498C34.0965 86.5118 32.8941 87.0513 31.8836 87.9604C31.1401 88.6276 30.5113 89.3955 30.1186 90.3583C29.7457 91.2718 29.5935 92.2076 29.5538 93.1794C29.545 93.3965 29.6023 93.598 29.62 93.8085C29.6685 94.3817 29.7766 94.9459 29.9796 95.4788C30.5907 97.0841 31.7314 98.2662 33.0552 99.2693C33.909 99.9164 34.8224 100.478 35.7358 101.04C36.9559 101.79 38.2267 102.451 39.438 103.212C40.1992 103.691 40.9294 104.213 41.459 104.97C41.9443 105.664 42.0282 106.445 41.8892 107.251C41.8142 107.681 41.7061 108.136 41.2538 108.362C41.203 108.686 40.8986 108.758 40.6956 108.921C40.0403 109.448 39.2372 109.539 38.4496 109.627C37.7811 109.701 37.0993 109.627 36.4727 109.392C34.9041 108.803 33.8428 107.506 33.6906 105.606C33.6774 105.435 33.6222 105.379 33.4589 105.382C32.027 105.386 30.5974 105.386 29.1655 105.382C29.0287 105.382 29 105.426 29 105.559C29 105.928 29.0684 106.286 29.1103 106.651C29.2206 107.598 29.5626 108.467 29.984 109.298C30.4848 110.289 31.1622 111.149 32.0028 111.881C32.7088 112.495 33.5031 112.947 34.3437 113.321C35.107 113.661 35.9145 113.865 36.7441 113.93C36.978 113.948 37.214 114.053 37.4545 113.966C37.5693 113.972 37.6818 113.981 37.7965 113.99C37.8274 113.99 37.8583 113.99 37.8892 113.99C37.973 113.988 38.0546 113.984 38.1385 113.981C38.1429 113.981 38.1451 113.981 38.1495 113.981C38.7298 113.917 39.3189 114.004 39.8947 113.885C41.0486 113.65 42.1694 113.319 43.1931 112.705C44.6669 111.821 45.7171 110.589 46.2378 108.915C46.5665 107.858 46.5732 106.781 46.4562 105.695C46.3503 104.708 45.9819 103.821 45.4546 102.995C44.7441 101.882 43.7998 101 42.7607 100.219C41.2648 99.0947 39.6344 98.1879 38.0061 97.2834C37.1346 96.7997 36.2433 96.3497 35.46 95.7161C34.7628 95.1519 34.2797 94.4533 34.187 93.5353C34.059 92.2457 34.7606 91.2203 35.9212 90.7299C36.7375 90.3874 37.5825 90.3538 38.4319 90.5598C39.0695 90.7143 39.6542 90.9986 40.0911 91.5136C40.6515 92.1741 40.9272 92.9555 41.0221 93.8219C41.0398 93.9787 40.9648 94.1936 41.1501 94.319H41.1479Z" fill="#FEFEFF"/>
<path d="M57.8113 113.996C57.7413 113.856 57.6166 113.829 57.481 113.832C56.9406 113.841 56.4178 113.714 55.9081 113.57C55.2716 113.389 54.6634 113.105 54.0772 112.789C53.2109 112.319 52.4387 111.726 51.7497 111.024C51.2597 110.524 50.8659 109.939 50.4984 109.341C49.8947 108.356 49.5075 107.28 49.2559 106.157C49.0153 105.085 48.9475 103.985 49.0393 102.895C49.1312 101.799 49.4309 100.741 49.8378 99.7113C50.1397 98.9474 50.5531 98.2543 51.0081 97.5878C51.5615 96.7774 52.2944 96.1375 53.095 95.5905C54.215 94.8222 55.4553 94.3107 56.7875 94.1003C57.7588 93.9475 58.7475 93.9963 59.7319 94.0693C60.0885 94.0959 60.4494 94.1468 60.7863 94.2199C61.1757 94.3063 61.5716 94.4458 61.9544 94.603C62.6807 94.9019 63.3632 95.2695 64.0041 95.7278C65.0366 96.4674 65.8329 97.4217 66.4804 98.5067C67.047 99.4522 67.4363 100.477 67.6639 101.56C67.7864 102.143 67.8629 102.729 67.9176 103.323C67.9745 103.927 67.9614 104.532 67.9985 105.134C68.0095 105.309 67.9614 105.373 67.7732 105.373C63.1641 105.367 58.5528 105.367 53.9437 105.367C53.6309 105.367 53.5719 105.415 53.6112 105.725C53.7272 106.611 54.0663 107.399 54.6284 108.09C55.37 109.002 56.3631 109.492 57.4722 109.72C58.24 109.877 59.0429 109.868 59.8172 109.726C60.6747 109.569 61.5038 109.297 62.206 108.73C62.6807 108.347 63.1116 107.924 63.4179 107.388C63.4748 107.289 63.5229 107.242 63.6432 107.246C64.4745 107.282 65.297 107.382 66.1195 107.51C66.5154 107.572 66.9179 107.612 67.3182 107.632C67.5042 107.641 67.561 107.687 67.5129 107.873C67.2745 108.796 66.8085 109.594 66.2463 110.349C65.5791 111.248 64.761 111.974 63.8269 112.567C62.9213 113.139 61.9369 113.508 60.8935 113.728C60.4735 113.816 60.0491 113.867 59.6225 113.852C59.5963 113.92 59.7647 113.916 59.6641 114H57.8091L57.8113 113.996ZM58.4391 102.158C58.5485 102.158 58.6578 102.158 58.7672 102.158C60.2132 102.158 61.6569 102.158 63.1029 102.154C63.1816 102.154 63.3326 102.233 63.3238 102.054C63.3151 101.895 63.3238 101.737 63.2844 101.569C63.1248 100.9 62.8491 100.307 62.3985 99.7866C61.8844 99.1909 61.2807 98.7259 60.5522 98.4469C59.581 98.0749 58.5857 98.0085 57.5532 98.1613C56.4725 98.3207 55.5559 98.7525 54.7881 99.5364C54.1581 100.181 53.8016 100.962 53.6156 101.835C53.55 102.14 53.5784 102.16 53.8869 102.16C55.405 102.16 56.9231 102.16 58.4391 102.16V102.158Z" fill="black"/>
<path d="M93.1696 113.998C93.0952 113.883 92.9901 113.852 92.8565 113.854C91.5626 113.87 90.3738 113.465 89.2397 112.888C87.867 112.19 86.7439 111.196 85.8506 109.923C85.2683 109.094 84.8282 108.193 84.5151 107.24C84.3028 106.593 84.1714 105.912 84.0904 105.22C84.0138 104.566 83.9962 103.914 84.0006 103.26C84.0072 102.535 84.1451 101.819 84.329 101.119C84.5173 100.396 84.7757 99.6914 85.1084 99.0285C85.277 98.6926 85.4916 98.37 85.7061 98.054C86.1746 97.3623 86.7329 96.759 87.3591 96.2044C87.8517 95.769 88.3881 95.4066 88.9617 95.1017C89.7104 94.7039 90.503 94.4078 91.3349 94.231C92.2917 94.0277 93.2637 94.0343 94.2336 94.0012C94.7218 93.9835 95.1553 94.1713 95.6129 94.2641C96.6069 94.4652 97.5352 94.8475 98.4175 95.3624C99.2275 95.8353 99.8821 96.4806 100.502 97.1656C100.964 97.6761 101.338 98.2573 101.658 98.8694C102.076 99.6671 102.441 100.494 102.603 101.382C102.715 101.994 102.855 102.604 102.908 103.232C102.958 103.861 102.987 104.487 103 105.117C103.004 105.335 102.952 105.391 102.733 105.391C98.2007 105.384 93.6666 105.386 89.1346 105.386C88.5654 105.386 88.5413 105.391 88.6442 105.956C88.8259 106.946 89.231 107.835 89.9775 108.524C90.6343 109.13 91.4181 109.527 92.2895 109.682C93.7126 109.934 95.1269 109.903 96.4492 109.218C97.2593 108.798 97.938 108.204 98.4087 107.399C98.4831 107.271 98.5554 107.242 98.7152 107.245C99.3173 107.258 99.9062 107.388 100.504 107.432C101.145 107.479 101.785 107.567 102.424 107.649C102.595 107.671 102.518 107.813 102.496 107.91C102.306 108.719 101.909 109.43 101.434 110.093C100.489 111.41 99.3063 112.44 97.8154 113.092C96.8127 113.529 95.7859 113.852 94.6824 113.854C94.5445 113.861 94.3737 113.781 94.319 114H93.1718L93.1696 113.998ZM93.4301 102.191V102.184C94.9408 102.184 96.4492 102.184 97.9599 102.184C98.0584 102.184 98.1591 102.208 98.2533 102.155C98.3146 102.122 98.3846 102.107 98.3583 102.003C98.3058 101.786 98.273 101.563 98.216 101.349C98.0081 100.58 97.5855 99.9544 97.0119 99.4064C96.1668 98.5998 95.1378 98.2529 94.0213 98.1645C93.1937 98.0982 92.3617 98.1424 91.5582 98.4318C90.9408 98.6528 90.3651 98.9666 89.9009 99.4108C89.231 100.054 88.7449 100.838 88.5807 101.791C88.5238 102.122 88.5698 102.195 88.8982 102.195C90.4088 102.195 91.9173 102.195 93.4279 102.195L93.4301 102.191Z" fill="black"/>
<path d="M109.994 85V108.702C109.994 110.377 109.991 112.052 110 113.728C110 113.955 109.947 113.998 109.768 113.998C108.607 113.989 107.447 113.984 106.287 114C106.053 114.004 106.004 113.926 106.004 113.663C106.011 109.759 106.007 105.857 106.009 101.953C106.009 96.6463 106.011 91.3392 106.017 86.0322C106.017 85.6881 105.966 85.3418 106.041 85H109.996H109.994Z" fill="black"/>
<path d="M37.6836 113.964C37.4366 114.054 37.1918 113.949 36.9539 113.929C36.1019 113.864 35.2747 113.658 34.4884 113.32C33.625 112.946 32.8093 112.493 32.0841 111.88C31.2185 111.148 30.5251 110.288 30.0107 109.296C29.5778 108.466 29.2289 107.595 29.1133 106.65C29.0702 106.285 29 105.927 29 105.557C29 105.425 29.0295 105.38 29.17 105.38C30.6406 105.385 32.109 105.385 33.5797 105.38C33.7474 105.38 33.8018 105.436 33.8177 105.604C33.9763 107.505 35.0663 108.799 36.6752 109.39C37.3187 109.625 38.0189 109.699 38.7056 109.625C39.5146 109.538 40.3394 109.446 41.0124 108.92C41.2209 108.757 41.5336 108.685 41.5857 108.36C42.0503 108.134 42.1613 107.68 42.2384 107.25C42.3834 106.446 42.295 105.662 41.7965 104.968C41.2526 104.212 40.5026 103.69 39.7208 103.211C38.4767 102.45 37.1714 101.789 35.9183 101.039C34.9802 100.477 34.042 99.9151 33.165 99.268C31.8054 98.265 30.6338 97.0828 30.0061 95.4775C29.7977 94.9447 29.6866 94.3782 29.6368 93.8073C29.6186 93.5968 29.5597 93.3953 29.5688 93.1781C29.6096 92.2064 29.7682 91.2683 30.1489 90.3571C30.5523 89.3943 31.1981 88.6264 31.9618 87.9592C32.9996 87.0524 34.2346 86.5128 35.5965 86.2486C36.5279 86.0695 37.4615 85.9419 38.4132 86.027C39.5553 86.13 40.6612 86.3852 41.6877 86.9024C43.0541 87.5898 44.1147 88.5995 44.9055 89.9093C45.497 90.8922 45.8731 91.9423 46.0725 93.0572C46.1383 93.4267 46.1292 93.8095 46.1564 94.1857C46.1677 94.3379 46.0658 94.32 45.966 94.32C45.4856 94.32 45.0052 94.329 44.5248 94.329C43.5074 94.329 42.4899 94.3222 41.4724 94.3178H41.4792C41.2889 94.1924 41.3659 93.9774 41.3478 93.8207C41.2504 92.9565 40.9671 92.1751 40.3915 91.5124C39.9428 90.9974 39.3423 90.7108 38.6874 90.5586C37.815 90.3526 36.9471 90.3862 36.1087 90.7287C34.9167 91.2168 34.1961 92.2423 34.3275 93.5341C34.4204 94.4521 34.919 95.1506 35.635 95.7149C36.4395 96.3485 37.3527 96.7985 38.2501 97.2821C39.9224 98.1866 41.5971 99.0912 43.1335 100.217C44.2008 100.999 45.1707 101.881 45.9003 102.994C46.4419 103.82 46.8204 104.706 46.9291 105.694C47.0492 106.78 47.0424 107.857 46.7048 108.913C46.17 110.588 45.0913 111.82 43.5776 112.704C42.5262 113.317 41.3727 113.649 40.1898 113.884C39.5984 114 38.9934 113.915 38.3996 113.98L38.3928 113.969L38.3883 113.982C38.3022 113.985 38.2184 113.989 38.1323 113.991C38.1005 113.951 38.0688 113.958 38.0371 113.991C37.9192 113.982 37.8037 113.973 37.6858 113.964H37.6836Z" fill="black"/>
<path d="M81.9953 94.8967C81.9886 96.2367 81.9797 97.5744 81.9775 98.9144C81.9775 99.0941 81.9265 99.1451 81.7445 99.1429C80.491 99.134 79.2352 99.1429 77.9816 99.134C77.7709 99.134 77.6799 99.1784 77.6932 99.4091C77.813 101.233 77.7331 103.058 77.742 104.884C77.7553 107.784 77.7398 110.683 77.7354 113.583C77.7354 114 77.7354 114 77.3271 114C75.9893 114 74.6536 113.991 73.3157 114C73.1205 114 73.0672 113.947 73.0672 113.754C73.0783 109.117 73.0828 104.483 73.0872 99.8461C73.0872 99.6265 73.0872 99.4046 73.0872 99.185C72.0977 99.0941 71.1192 99.1562 70.143 99.1407C69.9788 99.1384 70.001 99.0408 70.001 98.941C70.0099 97.8428 70.0165 96.7447 70.0254 95.6466C70.0254 95.3981 70.0631 95.1496 70.0188 94.9011H70.0232C69.9566 94.6948 70.0875 94.7037 70.2273 94.7037C71.0837 94.7059 71.9424 94.7015 72.7988 94.7081C72.9763 94.7081 73.0428 94.6882 73.0517 94.4774C73.1205 93.0887 73.0606 91.6977 73.065 90.3089C73.065 89.9429 73.0561 89.5724 73.0428 89.2041C73.0362 89.0488 73.0872 89 73.247 89C74.6381 89.0067 76.0292 89.0067 77.4225 89.0044C77.6067 89.0044 77.691 89.0177 77.7065 89.2618C77.7975 90.8369 77.7154 92.412 77.742 93.9871C77.7442 94.1491 77.6976 94.3088 77.6888 94.473C77.6777 94.6793 77.7531 94.7081 77.9373 94.7059C79.2086 94.697 80.4799 94.7059 81.7534 94.6993C81.9065 94.6993 82.0063 94.717 81.9997 94.8945H81.993L81.9953 94.8967Z" fill="black"/>
<path d="M34.2089 93.6492H34.2007L34.2034 93.6684L34.2089 93.6492Z" fill="#01B0FF"/>
<path d="M86.2526 27.5059C84.4136 30.2749 82.5793 33.0531 80.7265 35.8175C79.0724 38.2829 77.3998 40.7345 75.7365 43.1907C75.6025 43.3839 75.5516 43.508 75.6625 43.6414C75.5008 43.5862 75.3668 43.6046 75.2744 43.7564C75.0804 44.083 74.8817 44.4096 74.6691 44.7223C72.6685 47.6661 70.6586 50.6053 68.6626 53.5536C67.5213 55.2371 66.4032 56.939 65.2804 58.6408C65.1557 58.8294 64.6012 59.8873 64.4903 60.1265C64.5088 60.0115 64.4395 59.9057 64.227 59.7677C59.9762 56.9804 55.7392 54.17 51.5115 51.3596C50.3287 50.5731 49.169 49.7589 48 48.954V48.724C48.596 48.655 48.6376 48.0617 48.8779 47.7075C51.1049 44.4418 53.2812 41.1438 55.4712 37.8505C56.5755 36.1946 57.689 34.5434 58.7795 32.8829C59.1814 32.2758 59.8514 32.3401 60.4151 32.2068C61.6488 31.9078 62.9101 31.7146 64.1577 31.4708C65.1326 31.2868 66.1029 31.0753 67.0778 30.9097C67.4428 30.8499 67.1748 30.9188 68.0989 30.6889C68.6019 30.5637 68.621 30.5601 68.9121 30.4957C70.118 30.2335 71.3239 29.9667 72.5253 29.7322C73.6434 29.516 74.78 29.3136 75.9074 29.102C78.1576 28.6788 80.3985 28.2189 82.6486 27.7773C83.7483 27.5611 84.8526 27.3634 85.9338 27.0552C86.1001 27.0046 86.3265 26.954 86.4328 27.0736C86.5714 27.2438 86.345 27.3679 86.2526 27.5059Z" fill="url(#paint0_linear_833_853)"/>
<path d="M91.8567 55.0118C90.0824 57.652 88.3174 60.2968 86.5524 62.9416C85.559 64.4272 84.5564 65.9037 83.5722 67.3986C82.796 68.5853 81.8719 69.6708 81.1789 70.9127C81.0449 71.1565 80.7676 71.3175 80.4858 71.3543C78.5082 71.6211 76.5723 72.0948 74.6132 72.4628C71.938 72.9642 69.2766 73.5529 66.5968 74.0405C64.7809 74.3716 62.9744 74.758 61.1585 75.0846C59.8602 75.3192 58.5618 75.6273 57.2589 75.8665C56.6028 75.9861 55.9559 76.1839 55.2675 76.2299C54.884 76.2575 54.3988 76.4277 53.9784 76.5841C53.8074 76.6485 53.715 76.6209 53.6087 76.4553C53.4932 76.2667 53.6457 76.2391 53.7196 76.1425C54.7685 74.758 55.7018 73.2907 56.6628 71.8464C57.4252 70.7011 58.2199 69.5742 58.9869 68.4289C59.7216 67.3296 60.4331 66.2119 61.1678 65.1126C62.212 63.5487 63.2701 61.9848 64.3328 60.4348C64.4205 60.3106 64.4806 60.214 64.4899 60.1266C65.5618 60.1772 90.2164 55.0532 91.9167 54.4323C92.0415 54.5886 92.0184 54.768 91.8567 55.0118Z" fill="#00B0FF"/>
<path d="M91.9171 54.4321C90.2168 55.053 65.5622 60.177 64.4902 60.1264C64.6011 59.8873 65.1556 58.8293 65.2803 58.6408C66.4031 56.9389 67.5212 55.237 68.6625 53.5536C70.6585 50.6052 72.6684 47.666 74.669 44.7223C74.8816 44.4095 75.0803 44.0829 75.2743 43.7564C75.3667 43.6046 75.5007 43.5862 75.6624 43.6414C75.7086 43.7012 75.7826 43.761 75.8888 43.83C78.1298 45.2742 80.3337 46.7645 82.5515 48.2456C83.5218 48.8941 84.4828 49.5611 85.4578 50.205C86.3264 50.7708 87.1719 51.3687 88.0267 51.9437C88.7336 52.4175 89.4914 52.8636 90.2076 53.3374C90.6881 53.6548 91.1779 53.9491 91.6722 54.2343C91.7831 54.2987 91.8663 54.3631 91.9171 54.4321Z" fill="#2F48FA"/>
<path d="M92 54.3955C92 54.3955 91.9584 54.4185 91.9168 54.4323C91.866 54.3633 91.7828 54.2989 91.6719 54.2345C91.1775 53.9494 90.6878 53.655 90.2072 53.3376C89.4911 52.8639 88.7333 52.4177 88.0264 51.9439C87.1716 51.369 86.3261 50.771 85.4574 50.2053C84.4825 49.5613 83.5215 48.8944 82.5512 48.2458C80.3334 46.7647 78.1294 45.2745 75.8885 43.8302C75.7822 43.7612 75.7083 43.7014 75.6621 43.6416C75.907 43.7244 76.2073 43.982 76.4753 44.1614C81.0172 47.1741 85.5683 50.1777 90.1194 53.1766C90.7247 53.5768 91.3392 53.9678 92 54.3955Z" fill="black"/>
<defs>
<linearGradient id="paint0_linear_833_853" x1="67.4058" y1="31.3788" x2="60.7631" y2="58.9903" gradientUnits="userSpaceOnUse">
<stop stop-color="#13D7CE"/>
<stop offset="1" stop-color="#00B0FF"/>
</linearGradient>
</defs>
</svg>
