<svg width="140" height="140" viewBox="0 0 140 140" fill="none" xmlns="http://www.w3.org/2000/svg">
<rect width="140" height="140" rx="30" fill="url(#paint0_linear_3527_4061)"/>
<g clip-path="url(#clip0_3527_4061)">
<path d="M63.6094 56.3773C63.5378 58.0759 65.8479 59.2649 67.1025 59.9867C76.0445 65.1304 103.921 69.833 104.943 82.2631C105.681 91.2346 99.0234 94.5883 91.6709 97.4271C77.5891 102.863 61.9829 105.601 47.0166 107.603C43.579 108.063 38.51 108.997 35.209 109C34.7385 109 34.1511 109.006 34 108.444C40.2442 106.933 46.5938 105.788 52.8457 104.307C62.8491 101.937 74.9601 99.2217 84.1631 94.7865C91.0051 91.4886 94.6936 85.1107 86.8408 80.1928C80.5468 76.2518 70.2739 74.1262 63.0801 71.1869C56.5442 68.5169 43.8481 62.9988 40.7295 56.6439L63.6094 56.3773ZM83.6543 31.0023C84.248 31.0611 85.9551 33.4779 86.4395 34.1312C99.4799 51.6984 78.5581 50.1622 67.5889 53.7826C66.4909 54.145 63.6629 55.1273 63.6094 56.3773L40.7295 56.6429C37.0999 49.2459 45.2556 42.426 51.582 39.7748C60.303 36.1193 70.8154 35.9941 80.1006 32.5502C80.9708 32.2277 82.9418 30.9313 83.6543 31.0023Z" fill="url(#paint1_linear_3527_4061)"/>
</g>
<defs>
<linearGradient id="paint0_linear_3527_4061" x1="70" y1="0" x2="70" y2="140" gradientUnits="userSpaceOnUse">
<stop stop-color="white"/>
<stop offset="1" stop-color="#E2E2E2"/>
</linearGradient>
<linearGradient id="paint1_linear_3527_4061" x1="69.4997" y1="30.9995" x2="69.4997" y2="109" gradientUnits="userSpaceOnUse">
<stop stop-color="#F12D2D"/>
<stop offset="1" stop-color="#C31616"/>
</linearGradient>
<clipPath id="clip0_3527_4061">
<rect width="71" height="78" fill="white" transform="translate(34 31)"/>
</clipPath>
</defs>
</svg>
