<svg width="140" height="140" viewBox="0 0 140 140" fill="none" xmlns="http://www.w3.org/2000/svg">
<rect width="140" height="140" rx="30" fill="black"/>
<g clip-path="url(#clip0_3251_447)">
<path d="M47.2231 44.2769C51.3154 38.2338 58.4769 34.9424 65.4769 34.187C76.1385 33.2158 87.7692 34.9424 96.1154 42.3345C92.6154 45.6259 88.9538 48.7554 85.4538 52.0467C81.5769 48.5395 76.3538 46.8129 71.0769 46.8129C67.2 46.5971 63.1077 48 61.0077 51.2913C59.4462 53.6115 60.0385 57.1187 62.1923 58.8992C65.6923 61.8129 70.1615 63.1618 74.4154 64.7266C80.6077 66.669 86.8538 68.8273 91.8615 73.0899C98.8615 78.7554 100.423 90.1942 94.9846 97.3705C90.3538 103.576 82.7615 106.921 75.1692 107.46C68.3846 107.676 61.6 107.46 55.1923 105.14C50.3462 103.576 46.0923 100.878 42 97.964C45.5 94.6726 49.1615 91.3813 52.6615 88.0359C58.6923 92.6762 66.4462 95.2122 73.9846 94.241C77.2692 93.6474 80.7692 91.9208 81.9538 88.6295C82.7077 85.7158 80.9846 82.8021 78.4538 81.4532C70.7 76.9748 61.6 76.0036 54.0077 71.1474C49.9692 68.5575 46.4692 64.6726 45.1231 60.0323C43.5615 54.5827 44.1538 48.7554 47.2231 44.2769Z" fill="white"/>
</g>
<defs>
<clipPath id="clip0_3251_447">
<rect width="56" height="75" fill="white" transform="translate(42 33)"/>
</clipPath>
</defs>
</svg>
