<svg width="140" height="140" viewBox="0 0 140 140" fill="none" xmlns="http://www.w3.org/2000/svg">
<rect width="140" height="140" rx="30" fill="white"/>
<g clip-path="url(#clip0_3614_1273)">
<path d="M88.6733 38.348L92.4432 25.1851C83.0294 20.7755 73.4847 18.6633 63.695 20.9031C59.7684 21.8007 56.0666 23.5313 52.851 25.9728C48.1264 29.5617 44.889 34.3021 46.8925 43.0966C47.2547 44.6872 47.8962 46.2079 48.8469 47.5282C51.0955 50.6518 55.3748 53.4818 63.7603 55.7161C73.8974 58.0794 83.5959 57.9984 80.7276 62.9076C77.5829 68.9545 60.1484 68.3959 49.3522 58.9728L44.7733 73.0855C54.5521 78.9375 65.0038 82.4153 77.113 80.0464C79.205 79.6375 81.2547 79.0254 83.2132 78.1799C89.4728 75.4776 94.1729 71.0914 95.2162 62.7594C95.4096 61.2113 95.445 59.6426 95.2407 58.0959C94.35 51.3545 89.9781 47.8232 84.2728 45.5203C81.1212 44.2481 77.7967 43.4603 74.4204 43.1186C59.7916 41.6363 57.035 36.7217 64.538 34.733C66.201 34.2925 67.9239 34.1237 69.6426 34.1813C76.417 34.4105 82.8673 35.5112 88.672 38.3466L88.6733 38.348Z" fill="#7903D4"/>
<path d="M36.6996 101.659L37.6189 98.4507C35.324 97.3761 32.9978 96.8614 30.6116 97.4076C29.6541 97.6272 28.7525 98.0485 27.968 98.6428C26.8158 99.517 26.0272 100.673 26.5162 102.816C26.6047 103.205 26.7613 103.574 26.9929 103.896C27.5417 104.658 28.5836 105.347 30.6279 105.892C33.0985 106.468 35.4629 106.448 34.7629 107.645C33.9961 109.119 29.7468 108.983 27.1154 106.685L26 110.125C28.3834 111.55 30.9303 112.399 33.8817 111.821C34.391 111.721 34.8909 111.572 35.3689 111.367C36.8943 110.708 38.0397 109.639 38.2944 107.609C38.3421 107.231 38.3503 106.85 38.2999 106.472C38.0833 104.83 37.0169 103.969 35.6263 103.408C34.8582 103.098 34.0478 102.906 33.2252 102.822C29.6596 102.461 28.9881 101.263 30.8173 100.778C31.2231 100.671 31.6426 100.63 32.0621 100.644C33.7128 100.7 35.2858 100.968 36.6996 101.659Z" fill="#7903D4"/>
<path d="M98.0477 101.659L98.967 98.4507C96.6721 97.3761 94.3459 96.8614 91.9597 97.4076C91.0023 97.6272 90.1006 98.0485 89.3161 98.6428C88.1639 99.517 87.3754 100.673 87.8643 102.816C87.9528 103.205 88.1095 103.574 88.341 103.896C88.8899 104.658 89.9318 105.347 91.9761 105.892C94.4467 106.468 96.811 106.448 96.111 107.645C95.3442 109.119 91.0949 108.983 88.4636 106.685L87.3481 110.125C89.7315 111.55 92.2784 112.399 95.2298 111.821C95.7391 111.721 96.239 111.572 96.717 111.367C98.2424 110.708 99.3878 109.639 99.6425 107.609C99.6902 107.231 99.6984 106.85 99.648 106.472C99.4314 104.83 98.365 103.969 96.9744 103.408C96.2063 103.098 95.3959 102.906 94.5733 102.822C91.0077 102.461 90.3363 101.263 92.1654 100.778C92.5712 100.671 92.9907 100.63 93.4102 100.644C95.0609 100.7 96.634 100.968 98.0477 101.659Z" fill="#7903D4"/>
<path d="M40.1698 91.6091V111.817H43.6687V104.472C43.6687 103.321 44.2053 102.218 45.1505 101.576C45.9813 101.01 47.2588 100.785 48.17 101.333C49.2555 101.985 49.4788 103.385 49.4788 104.658V112.006H53.1016V102.06C51.9644 96.1409 45.7729 96.1807 43.6061 99.0381V91.6091H40.1698Z" fill="#7903D4"/>
<path d="M62.3643 96.8971C58.2213 96.8971 54.8627 100.282 54.8627 104.456C54.8627 108.631 58.2213 112.014 62.3643 112.014C66.5074 112.014 69.8647 108.631 69.8647 104.456C69.8647 100.282 66.5061 96.8971 62.3643 96.8971ZM62.3643 108.535C60.128 108.535 58.3166 106.709 58.3166 104.456C58.3166 102.204 60.128 100.378 62.3643 100.378C64.6007 100.378 66.4121 102.203 66.4121 104.456C66.4121 106.71 64.5993 108.535 62.3643 108.535Z" fill="#7903D4"/>
<path d="M78.6684 96.8971C74.5253 96.8971 71.1667 100.282 71.1667 104.456C71.1667 108.631 74.5253 112.014 78.6684 112.014C82.8114 112.014 86.1687 108.631 86.1687 104.456C86.1687 100.282 82.8101 96.8971 78.6684 96.8971ZM78.6684 108.535C76.432 108.535 74.6206 106.709 74.6206 104.456C74.6206 102.204 76.432 100.378 78.6684 100.378C80.9047 100.378 82.7161 102.203 82.7161 104.456C82.7161 106.71 80.9033 108.535 78.6684 108.535Z" fill="#7903D4"/>
<path d="M74.7078 97.3568H71.2593V118.842H74.7078V97.3568Z" fill="#7903D4"/>
<path d="M100.028 97.5146H104.182L107.474 106.124L110.845 97.3568L115 97.5146L105.829 119L101.596 118.842L105.357 110.785L100.028 97.5146Z" fill="#7903D4"/>
</g>
<defs>
<clipPath id="clip0_3614_1273">
<rect width="89" height="99" fill="white" transform="translate(26 20)"/>
</clipPath>
</defs>
</svg>
