<svg width="140" height="140" viewBox="0 0 140 140" fill="none" xmlns="http://www.w3.org/2000/svg">
<rect width="140" height="140" rx="30" fill="#E94C29"/>
<g clip-path="url(#clip0_645_12888)">
<path d="M54.7052 32.1203C54.7845 31.1152 54.8177 30.1729 54.9401 29.2417C55.6127 24.1301 57.565 19.6552 61.5209 16.2471C64.1348 13.996 67.1813 12.8411 70.6483 13.0172C73.751 13.1751 76.4372 14.4049 78.7439 16.4667C82.0433 19.4153 83.9324 23.1756 84.7676 27.4906C85.0577 28.9876 85.1711 30.519 85.3768 32.1203H85.934C92.5539 32.1203 99.1739 32.1568 105.793 32.0981C107.729 32.0809 109.169 33.8046 108.984 35.6499C108.722 38.2623 108.617 40.89 108.432 43.5106C108.252 46.0471 108.049 48.5807 107.869 51.1172C107.717 53.2337 107.588 55.3512 107.438 57.4667C107.254 60.0701 107.059 62.6724 106.871 65.2758C106.726 67.2911 106.585 69.3064 106.444 71.3216C106.258 74.009 106.083 76.6984 105.884 79.3848C105.752 81.1804 105.632 82.9801 105.423 84.7676C105.158 87.0501 104.679 89.282 103.501 91.3004C102.177 93.5687 100.176 94.8764 97.6893 95.506C95.9577 95.9443 94.1951 96.004 92.4194 96C85.8336 95.9848 79.2467 95.9929 72.6609 95.9929C63.0326 95.9929 53.4033 95.9929 43.775 95.9899C42.2061 95.9899 40.6794 95.7732 39.2681 95.0212C37.3528 93.9999 36.1603 92.3571 35.3884 90.3722C34.6808 88.5543 34.3836 86.6473 34.2652 84.7049C34.0484 81.142 33.8225 77.58 33.5957 74.0171C33.421 71.2781 33.2454 68.5381 33.0607 65.8001C32.8448 62.5915 32.613 59.3838 32.3982 56.1752C32.2436 53.8734 32.1111 51.5697 31.9555 49.2679C31.7778 46.6312 31.5821 43.9944 31.3994 41.3576C31.2589 39.3251 31.0993 37.2927 31.0019 35.2581C30.9206 33.5708 32.3259 32.1244 33.9992 32.1234C40.6523 32.1173 47.3053 32.1203 53.9584 32.1203C54.1903 32.1203 54.4222 32.1203 54.7042 32.1203H54.7052ZM54.8859 82.7675C54.4473 84.1168 54.0036 85.4904 53.5539 86.8609C53.1855 87.9824 53.1785 87.9895 54.2335 88.4824C57.0481 89.7983 60.0293 90.4734 63.0979 90.8155C66.7296 91.2214 70.3311 91.1111 73.8855 90.193C76.8296 89.4329 79.4977 88.1433 81.6639 85.9377C83.8029 83.7595 84.9924 81.1349 85.2403 78.078C85.4772 75.1558 84.9723 72.4057 83.3121 69.9461C81.8877 67.8346 79.9032 66.372 77.725 65.1412C75.1503 63.6856 72.3498 62.7767 69.6154 61.7058C67.4804 60.8687 65.3875 59.9375 63.6178 58.4182C61.0231 56.1903 60.3857 52.514 62.1302 49.6536C63.4863 47.4298 65.6214 46.3751 68.0576 45.9024C71.1974 45.293 74.3152 45.5846 77.3727 46.449C78.6977 46.8235 79.9795 47.3529 81.2995 47.8175C81.3055 47.8073 81.3517 47.7537 81.3738 47.6919C81.9359 46.1625 82.502 44.6341 83.041 43.0966C83.0792 42.9863 82.9417 42.7109 82.8252 42.6644C81.7893 42.2484 80.7625 41.7848 79.6904 41.4902C75.3932 40.309 71.0338 40.0813 66.6463 40.8829C63.4683 41.4639 60.5553 42.6866 58.1723 44.9418C54.8608 48.0766 53.6744 51.9401 54.6069 56.4171C55.178 59.1601 56.7911 61.2564 58.9322 62.967C61.3041 64.8608 64.0143 66.1139 66.842 67.12C69.2661 67.9824 71.7013 68.8134 73.9126 70.1698C76.0698 71.4927 77.7742 73.1841 78.2118 75.8289C78.7007 78.7886 77.9579 81.3474 75.6381 83.3192C73.7801 84.8982 71.5347 85.5379 69.1768 85.7677C65.6676 86.1088 62.2447 85.5966 58.9262 84.4346C57.5771 83.9619 56.2772 83.3455 54.8839 82.7645L54.8859 82.7675ZM60.202 32.095H79.7767C79.6864 31.1567 79.6372 30.2549 79.5067 29.3651C79.0811 26.4713 78.0111 23.8537 76.0286 21.6836C74.4557 19.9629 72.5354 18.8808 70.1555 18.8292C67.8317 18.7786 65.9105 19.7402 64.2974 21.3577C62.2657 23.3942 61.1365 25.9146 60.6115 28.7163C60.4057 29.8125 60.3385 30.934 60.202 32.094V32.095Z" fill="white"/>
</g>
<g clip-path="url(#clip1_645_12888)">
<path d="M74.0109 120.159C74.0109 120.369 74.0109 120.533 74.0109 120.698C74.0109 122.286 74.0025 123.876 74.0173 125.464C74.0204 125.829 73.932 125.983 73.5236 125.992C71.8531 126.026 71.8541 126.039 71.8531 124.4C71.851 120.343 71.851 116.286 71.8436 112.228C71.8436 111.762 71.8215 111.295 71.771 110.833C71.7183 110.359 71.8394 110.102 72.3836 110.178C72.6068 110.209 72.8425 110.212 73.0657 110.178C73.6394 110.09 73.8162 110.361 73.7867 110.875C73.7678 111.202 73.7836 111.53 73.7836 111.858C73.8383 111.9 73.8931 111.943 73.9488 111.985C73.9688 111.902 73.9667 111.804 74.0131 111.739C75.8372 109.168 80.5624 109.169 82.0645 112.81C83.0171 115.118 82.9234 117.417 81.5519 119.549C80.1845 121.672 77.152 122.324 75.0615 121.013C74.7025 120.788 74.3983 120.476 74.0131 120.159H74.0109ZM73.9004 115.914C73.9373 115.921 73.9741 115.927 74.0109 115.934C74.0109 116.228 74.0099 116.521 74.0109 116.815C74.0194 118.345 75.0088 119.592 76.4583 119.901C77.9498 120.219 79.3961 119.492 80.0088 118.055C80.6172 116.629 80.6624 115.168 80.073 113.721C79.5667 112.478 78.6688 111.714 77.2551 111.684C75.9435 111.656 74.7941 112.392 74.3152 113.702C74.0604 114.398 74.032 115.174 73.9015 115.914H73.9004Z" fill="white"/>
<path d="M48.3356 111.749C49.2735 110.638 50.3177 110.017 51.665 109.961C53.725 109.876 55.3755 111.178 55.7018 113.197C55.8113 113.875 55.8681 114.568 55.8776 115.255C55.9007 117.121 55.8755 118.987 55.8934 120.853C55.8976 121.298 55.7618 121.488 55.2923 121.438C54.7787 121.384 54.0923 121.551 53.7945 121.283C53.5313 121.047 53.6808 120.345 53.6776 119.849C53.6692 118.19 53.7092 116.531 53.6545 114.873C53.6334 114.232 53.525 113.547 53.2566 112.972C52.6545 111.677 50.8313 111.332 49.5998 112.223C48.7956 112.804 48.3261 113.577 48.3314 114.597C48.3409 116.377 48.3345 118.156 48.3335 119.936C48.3335 120.936 47.8177 121.435 46.7861 121.433C46.5967 121.433 46.4072 121.433 46.1788 121.433C46.1609 121.158 46.1346 120.937 46.1346 120.717C46.1314 115.707 46.1314 110.696 46.1325 105.686C46.1325 105.001 46.1356 105.001 46.8177 105C47.8282 104.999 48.3335 105.491 48.3335 106.478V111.749H48.3356Z" fill="white"/>
<path d="M42.3955 107.985C41.5134 107.771 40.7134 107.488 39.8923 107.404C39.2524 107.339 38.5597 107.434 37.9376 107.614C37.1303 107.846 36.6061 108.453 36.4819 109.293C36.3503 110.18 36.6156 110.988 37.4124 111.45C38.3418 111.988 39.3492 112.395 40.3187 112.866C40.6944 113.048 41.0671 113.24 41.4271 113.451C43.1955 114.486 43.7881 116.054 43.4944 117.996C43.2491 119.614 41.8302 121.01 40.0239 121.419C38.0682 121.863 36.1714 121.685 34.3377 120.856C34.0124 120.709 33.9314 120.54 34.0535 120.213C34.2093 119.795 34.3251 119.362 34.4777 118.871C34.7135 118.979 34.9114 119.069 35.1082 119.16C36.4429 119.774 37.8271 120.057 39.2903 119.731C40.3534 119.493 41.1134 118.883 41.3186 117.805C41.5207 116.742 41.2313 115.763 40.2366 115.203C39.2555 114.65 38.1882 114.246 37.1692 113.758C36.0966 113.243 35.1345 112.586 34.6219 111.472C33.6703 109.402 34.644 106.98 36.8187 106.092C38.7039 105.322 40.6081 105.44 42.4986 106.14C42.8902 106.285 42.9576 106.483 42.7986 106.847C42.6344 107.224 42.5218 107.622 42.3944 107.988L42.3955 107.985Z" fill="white"/>
<path d="M63.4388 109.95C67.1829 109.921 69.206 112.232 69.3776 115.223C69.4671 116.775 69.2155 118.262 68.2345 119.536C66.805 121.393 64.3156 122.125 61.9588 121.413C59.8946 120.791 58.4199 118.832 58.283 116.53C58.2094 115.291 58.3136 114.073 58.882 112.946C59.9051 110.918 61.624 109.992 63.4377 109.949L63.4388 109.95ZM67.2608 115.892C67.104 115.172 67.0219 114.425 66.7724 113.737C66.3598 112.602 65.5808 111.776 64.2966 111.611C63.0945 111.457 62.0935 111.851 61.3472 112.821C60.1598 114.364 60.1641 117.226 61.3598 118.766C62.6461 120.421 64.8377 120.465 66.1766 118.852C66.885 117.999 67.125 116.986 67.2608 115.892Z" fill="white"/>
<path d="M105.004 119.443C105.117 119.881 105.242 120.307 105.325 120.741C105.341 120.824 105.211 120.995 105.114 121.028C102.898 121.791 100.666 122.058 98.5115 120.899C96.8884 120.025 96.1684 118.535 96.0021 116.773C95.8094 114.732 96.2073 112.84 97.7273 111.337C99.1294 109.95 100.876 109.665 102.73 110.136C104.467 110.577 105.394 111.846 105.776 113.501C105.937 114.198 105.921 114.933 105.994 115.65C106.038 116.093 105.867 116.253 105.398 116.248C103.191 116.228 100.984 116.239 98.7768 116.239C98.5694 116.239 98.362 116.239 98.1705 116.239C97.8599 117.358 98.6631 118.888 99.8346 119.507C100.898 120.068 102.038 120.002 103.169 119.869C103.769 119.798 104.352 119.599 105.003 119.444L105.004 119.443ZM98.1515 114.573C98.1789 114.594 98.2062 114.632 98.2336 114.632C100.038 114.642 101.842 114.651 103.646 114.643C103.736 114.643 103.892 114.497 103.904 114.406C104.042 113.34 103.122 111.991 102.074 111.655C99.821 110.934 98.201 112.878 98.1526 114.573H98.1515Z" fill="white"/>
<path d="M86.4383 116.238C86.3467 118.3 87.7961 119.853 89.7351 119.935C90.9372 119.986 92.1119 119.876 93.3129 119.38C93.434 119.85 93.5582 120.272 93.6413 120.7C93.6592 120.795 93.5634 120.962 93.4719 121.019C91.7656 122.088 87.774 121.781 86.172 120.445C84.6162 119.148 84.1794 117.397 84.2962 115.498C84.4109 113.643 85.0457 111.987 86.6456 110.839C89.634 108.694 93.6297 110.305 94.2066 113.896C94.3013 114.485 94.2782 115.093 94.3276 115.69C94.3676 116.182 94.095 116.245 93.6803 116.243C91.4719 116.23 89.2624 116.237 87.054 116.237C86.8519 116.237 86.6498 116.237 86.4393 116.237L86.4383 116.238ZM86.473 114.618H92.2066C92.2298 112.619 91.134 111.581 89.5624 111.493C88.0172 111.407 86.4477 112.989 86.473 114.618Z" fill="white"/>
</g>
<defs>
<clipPath id="clip0_645_12888">
<rect width="78" height="83" fill="white" transform="translate(31 13)"/>
</clipPath>
<clipPath id="clip1_645_12888">
<rect width="72" height="21" fill="white" transform="translate(34 105)"/>
</clipPath>
</defs>
</svg>
