<svg width="140" height="140" viewBox="0 0 140 140" fill="none" xmlns="http://www.w3.org/2000/svg">
<g clip-path="url(#clip0_2715_1640)">
<rect width="140" height="140" rx="30" fill="#01C151"/>
<g clip-path="url(#clip1_2715_1640)">
<path d="M68 142.5L29 100L44.5 92.5L29 73L44.5 41L98.5 26.5L148 73L160.5 105.5L144.5 148.5L68 142.5Z" fill="#00AA47"/>
<path d="M106.025 30.7476C112.33 36.0909 113.558 44.6025 112.801 52.624C112.684 53.8623 112.163 54.8237 110.977 55.2674L81.3077 55.2732C76.4465 53.1112 79.2493 45.1637 72.8378 44.7345C68.3416 44.4329 61.9058 44.4691 57.391 44.7272C55.4485 44.8374 53.7093 45.2536 53.4645 47.5562C52.8003 53.7942 55.5129 58.7619 61.0899 61.269C72.0806 66.2106 91.0258 66.8211 103.016 66.3194L112.949 65.4436L112.946 94.9166C112.17 103.676 105.764 110.897 97.2813 112.652C79.892 113.34 62.3896 112.762 44.9602 112.949C35.6257 112.172 27.7642 104.294 27.1501 94.7788C27.0084 92.5864 26.891 87.8782 27.1687 85.8061C27.2932 84.8752 28.0605 84.1314 28.8678 83.7616L58.7952 83.7268C62.4369 84.4881 61.85 92.9402 65.619 94.0495C71.8358 94.4221 78.1671 94.367 84.3882 94.0872C86.7415 93.207 86.7558 91.1799 86.6442 88.9744C86.2119 80.3599 80.957 77.6904 73.5134 75.6241C62.7045 72.6241 49.8372 72.1267 38.6719 72.5472C35.2392 72.6763 32.0371 73.0373 28.656 73.2635C28.1578 73.2969 27.6525 73.2447 27.1558 73.2664L27.1587 44.082C27.9216 35.3369 34.3503 28.0898 42.8216 26.3483C60.1637 25.6595 77.6189 26.2381 95.001 26.0511C99.072 26.5165 102.885 28.0869 106.025 30.7476Z" fill="white"/>
</g>
</g>
<defs>
<clipPath id="clip0_2715_1640">
<rect width="140" height="140" rx="30" fill="white"/>
</clipPath>
<clipPath id="clip1_2715_1640">
<rect width="140" height="141" fill="white" transform="translate(0 -1)"/>
</clipPath>
</defs>
</svg>
