<svg width="140" height="140" viewBox="0 0 140 140" fill="none" xmlns="http://www.w3.org/2000/svg">
<rect width="140" height="140" rx="30" fill="white"/>
<g clip-path="url(#clip0_812_80)">
<path d="M73.0219 24C73.3908 24.2214 73.8228 24.1939 74.2135 24.2088C74.9732 24.2375 75.7042 24.4623 76.4639 24.4692C76.9176 24.4738 76.8935 24.9235 76.8305 25.1334C76.5108 26.2049 76.5108 27.328 76.2542 28.4098C76.174 28.7494 76.0181 28.8492 75.7821 28.7964C74.3636 28.4798 72.9107 28.5108 71.4773 28.3765C70.3338 28.2698 69.1674 28.2389 68.0124 28.4396C67.3834 28.5486 66.7348 28.4958 66.0943 28.5509C65.6097 28.5933 65.1227 28.6507 64.638 28.6989C63.6618 28.7964 63.6423 28.8205 63.5358 27.9062C63.4154 26.8749 63.286 25.8458 63.0717 24.8294C63.0075 24.5266 63.1874 24.4853 63.4258 24.4646C64.6919 24.3545 65.9477 24.1423 67.2195 24.0987C67.3284 24.0952 67.4521 24.1193 67.5254 23.9989H73.023L73.0219 24Z" fill="#3A76F0"/>
<path d="M70.2918 32.6142C71.307 32.6074 73.2078 32.8047 75.1156 33.0123C76.612 33.1752 78.0718 33.5068 79.5338 33.7959C80.8882 34.0643 82.1738 34.6838 83.4903 35.1472C85.138 35.7277 86.718 36.4895 88.227 37.3361C89.7555 38.193 91.2543 39.1406 92.6327 40.2488C93.5138 40.9566 94.4591 41.5956 95.2703 42.3757C95.8409 42.924 96.3806 43.5194 96.9409 44.0873C98.0019 45.1622 98.93 46.3484 99.8787 47.5185C100.823 48.6841 101.588 49.9735 102.389 51.2308C103.048 52.2656 103.485 53.4415 104.051 54.537C104.52 55.4468 104.934 56.3989 105.253 57.3488C106.001 59.5824 106.574 61.8745 106.96 64.2113C107.039 64.6885 106.991 65.1967 107.203 65.6935C107.331 65.9929 107.22 66.477 107.243 66.8865C107.329 68.4616 107.499 70.0413 107.357 71.6187C107.268 72.6156 107.199 73.6171 107.092 74.614C106.899 76.3956 106.515 78.1244 106.06 79.8406C104.795 84.6106 102.585 88.9172 99.6232 92.8577C99.2073 93.4118 98.6779 93.8787 98.3216 94.442C97.6341 95.5307 96.4734 96.1123 95.7229 97.1115C95.5361 97.3605 95.1809 97.4912 95.2073 97.8882C95.2107 97.9398 95.1271 98.0178 95.0663 98.0499C93.8266 98.7015 92.824 99.6755 91.7114 100.5C90.9942 101.033 90.1726 101.423 89.437 101.932C88.25 102.756 86.9105 103.294 85.6696 104.016C84.9432 104.439 84.1125 104.691 83.3104 104.97C82.6665 105.193 82.034 105.452 81.3889 105.659C80.7564 105.863 80.1113 106.047 79.4685 106.226C78.7868 106.416 78.081 106.522 77.3866 106.666C76.3863 106.874 75.3757 107.012 74.3663 107.164C72.4001 107.461 70.4316 107.327 68.4642 107.383C67.5132 107.411 66.592 107.178 65.6547 107.146C64.3474 107.101 63.0744 106.816 61.8163 106.54C60.3428 106.218 58.8716 105.821 57.4553 105.27C55.6037 104.551 53.7727 103.793 52.0529 102.781C51.4594 102.432 50.8108 102.176 50.2448 101.771C50.1096 101.675 49.9538 101.651 49.7693 101.73C49.0658 102.035 48.2901 102.137 47.5567 102.291C46.6241 102.488 45.7051 102.764 44.7644 102.938C43.7802 103.121 42.7982 103.405 41.8209 103.625C40.8366 103.847 39.8753 104.181 38.8601 104.303C38.0202 104.405 37.1975 104.65 36.3852 104.932C35.9406 105.086 35.4227 105.049 34.9678 105.265C34.8189 105.336 34.7169 105.143 34.7799 104.877C34.9758 104.047 35.1786 103.22 35.3803 102.393C35.7046 101.064 36.0827 99.7443 36.3428 98.4021C36.7369 96.3647 37.3442 94.3824 37.7968 92.361C37.9366 91.7347 38.058 91.1026 38.2425 90.49C38.364 90.085 38.3044 89.7454 38.0844 89.4116C36.7083 87.3237 35.7149 85.0385 34.8372 82.7189C34.1268 80.8398 33.6123 78.8827 33.2789 76.8866C33.0085 75.2656 32.7679 73.6481 32.6899 72.0007C32.6097 70.2925 32.5742 68.574 32.7392 66.8888C33.3052 61.1081 34.9907 55.6659 38.0294 50.679C39.197 48.7621 40.4195 46.8612 41.9377 45.2219C43.2565 43.7971 44.6223 42.3975 46.1566 41.17C47.8088 39.8484 49.5035 38.6095 51.3551 37.5896C52.9397 36.7177 54.545 35.8975 56.2328 35.2275C58.7386 34.2329 61.3339 33.563 63.9681 33.0846C65.7464 32.7622 67.5694 32.651 70.2906 32.612L70.2918 32.6142Z" fill="#3A76F0"/>
<path d="M29.7508 110.235C32.7632 109.528 35.6838 108.842 38.6572 108.144C38.8772 109.112 39.127 110.129 39.3298 111.155C39.3836 111.43 39.5119 111.675 39.5555 111.966C39.6414 112.542 39.2988 112.599 38.97 112.65C37.6546 112.859 36.3782 113.236 35.08 113.503C34.4062 113.641 33.7348 113.821 33.0588 113.955C32.196 114.124 31.3309 114.317 30.4704 114.517C29.0714 114.841 27.8752 114.435 26.8462 113.473C26.4017 113.056 25.9892 112.64 25.76 112.028C25.4426 111.183 25.2914 110.37 25.4804 109.466C25.8253 107.817 26.2676 106.193 26.6136 104.548C26.8829 103.265 27.3057 102.016 27.4501 100.707C27.4787 100.443 27.6804 100.425 27.9187 100.425C28.4057 100.426 28.8331 100.639 29.2868 100.755C30.043 100.948 30.7981 101.143 31.5601 101.311C31.8316 101.372 31.8717 101.426 31.7629 101.708C31.5028 102.384 31.4512 103.117 31.2461 103.817C30.8955 105.015 30.6789 106.252 30.3994 107.472C30.1931 108.37 29.9777 109.267 29.7486 110.237L29.7508 110.235Z" fill="#3A76F0"/>
<path d="M59.9599 110.446C59.6483 111.736 59.3435 113.007 59.0341 114.277C58.9573 114.594 58.8611 114.706 58.4486 114.606C56.4377 114.12 54.5151 113.392 52.5832 112.669C51.049 112.094 49.6729 111.212 48.1685 110.589C48.0115 110.523 47.8774 110.471 47.6884 110.518C46.42 110.832 45.1378 111.092 43.8797 111.441C43.3985 111.574 43.316 111.373 43.2507 111.011C43.0891 110.121 42.9275 109.226 42.6193 108.375C42.2825 107.443 42.4681 107.237 43.4225 107.04C44.3907 106.842 45.367 106.652 46.3237 106.373C46.9195 106.198 47.5406 106.097 48.141 105.917C48.7723 105.728 49.312 106.133 49.7795 106.412C50.8863 107.07 52.0424 107.595 53.2123 108.125C54.7683 108.829 56.3564 109.422 57.9731 109.957C58.6159 110.169 59.2644 110.35 59.9599 110.446Z" fill="#3A76F0"/>
<path d="M34.0957 91.5155C34.0246 92.2681 33.6179 93.0241 33.5228 93.8455C33.3967 94.9273 33.0346 95.9506 32.8261 97.0094C32.7402 97.4477 32.5752 97.6542 32.0825 97.4305C31.7032 97.2584 31.1933 97.3478 30.8737 97.2262C30.3558 97.0301 29.792 96.9532 29.297 96.6974C29.1974 96.6458 29.0816 96.5265 29.0014 96.5471C28.2475 96.7433 28.5156 96.2018 28.6061 95.9391C29.0083 94.7701 29.0553 93.5151 29.501 92.3599C29.6179 92.057 29.5102 91.8081 29.3681 91.5522C28.4938 89.9737 27.7582 88.3264 27.0811 86.6606C26.5448 85.3414 26.1885 83.9475 25.7508 82.5881C25.6992 82.4264 25.6477 82.2635 25.5858 82.1051C25.2432 81.2241 25.5468 80.8283 26.4784 80.7044C27.3572 80.5874 28.2234 80.3431 29.0828 80.1113C29.4277 80.0184 29.5503 80.0826 29.6385 80.4268C30.5929 84.1563 32.0447 87.6839 33.9811 91.0119C34.0579 91.1439 34.1461 91.2723 34.0957 91.5155Z" fill="#3A76F0"/>
<path d="M36.321 45.2838C36.2465 45.2184 36.1778 45.1507 36.1022 45.0945C35.1637 44.3924 34.2345 43.6789 33.28 42.9998C32.9947 42.7967 32.9054 42.7325 33.1586 42.3745C34.7238 40.1628 36.5949 38.2309 38.5232 36.3461C39.653 35.2413 40.9077 34.2857 42.1371 33.2991C42.4969 33.01 42.7341 32.9814 43.0354 33.4345C43.6415 34.3488 44.3118 35.2218 44.9902 36.0856C45.2102 36.3667 45.2056 36.4952 44.9203 36.712C44.2248 37.2397 43.5396 37.7835 42.883 38.3594C41.7177 39.3827 40.5364 40.3956 39.5075 41.5577C38.5095 42.6854 37.4932 43.8016 36.612 45.028C36.5318 45.1393 36.4642 45.246 36.321 45.285V45.2838Z" fill="#3A76F0"/>
<path d="M106.907 42.5684C106.938 42.7703 106.808 42.8403 106.708 42.9194C105.775 43.6559 104.744 44.2639 103.896 45.1129C103.718 45.2907 103.482 45.3148 103.287 45.0417C101.848 43.0112 100.121 41.2331 98.3249 39.5261C97.2902 38.5429 96.2063 37.6114 95.041 36.782C94.7992 36.6099 94.617 36.4504 94.8749 36.1178C95.5772 35.2103 96.2659 34.2891 96.9293 33.353C97.1665 33.0192 97.3567 32.9825 97.6614 33.2452C98.5128 33.9817 99.426 34.6425 100.284 35.3755C101.681 36.5686 102.923 37.9154 104.217 39.206C105.183 40.1696 105.949 41.3317 106.804 42.4066C106.851 42.4652 106.884 42.5328 106.906 42.5684H106.907Z" fill="#3A76F0"/>
<path d="M107.024 97.4052C106.979 97.4809 106.958 97.5647 106.904 97.6014C106.244 98.0625 105.904 98.8036 105.406 99.399C104.652 100.301 103.816 101.119 103.033 101.987C102.46 102.623 101.804 103.182 101.194 103.784C100.081 104.88 98.846 105.831 97.6131 106.785C97.3278 107.005 97.1674 107.004 96.9451 106.658C96.3 105.658 95.5907 104.699 94.8081 103.8C94.6237 103.587 94.7142 103.525 94.8987 103.373C95.9895 102.47 97.1376 101.635 98.1573 100.645C98.8906 99.9336 99.6813 99.2923 100.34 98.4927C101.276 97.3559 102.278 96.2741 103.169 95.0993C103.359 94.8493 103.494 94.73 103.857 94.9548C104.441 95.3162 104.939 95.7785 105.478 96.188C105.812 96.4427 106.192 96.6056 106.533 96.8396C106.751 96.9888 106.838 97.2159 107.025 97.4029L107.024 97.4052Z" fill="#3A76F0"/>
<path d="M80.0231 29.2817C80.2648 28.2893 80.5009 27.2959 80.7507 26.3058C80.9901 25.3583 80.9913 25.3869 81.987 25.5957C83.3677 25.886 84.7037 26.3586 86.0099 26.8381C87.5521 27.4049 89.0738 28.0783 90.5553 28.8193C91.512 29.2977 92.4012 29.8931 93.3705 30.3462C93.6547 30.4793 93.7807 30.672 93.5378 31.0391C92.9202 31.9695 92.3611 32.94 91.7996 33.9071C91.6048 34.2432 91.4399 34.3431 91.0675 34.1125C89.7269 33.2819 88.3301 32.5534 86.8738 31.942C85.9377 31.5496 84.9833 31.1998 84.0414 30.8269C83.0835 30.4495 82.1004 30.1856 81.1276 29.8725C80.8469 29.7818 80.549 29.7818 80.2729 29.635C80.101 29.5432 79.9474 29.5203 80.0242 29.2817H80.0231Z" fill="#3A76F0"/>
<path d="M114.538 58.6027C114.686 58.9365 114.509 58.9962 114.241 59.0593C113.114 59.3277 111.988 59.603 110.872 59.9162C110.502 60.0195 110.341 59.8256 110.294 59.5732C110.085 58.4662 109.732 57.405 109.334 56.3576C108.71 54.7206 108.105 53.0813 107.299 51.5153C106.853 50.6504 106.338 49.8267 105.899 48.9617C105.722 48.6141 105.659 48.3824 106.099 48.1082C107.048 47.5162 108.066 47.0493 109.004 46.4436C109.287 46.2612 109.488 46.353 109.62 46.5939C110.383 47.9866 111.125 49.3919 111.813 50.8236C112.422 52.0901 112.825 53.4357 113.366 54.724C113.849 55.877 114.029 57.1228 114.563 58.2528C114.609 58.3491 114.546 58.4971 114.536 58.6027H114.538Z" fill="#3A76F0"/>
<path d="M114.926 76.9336C114.235 76.656 113.41 76.7455 112.642 76.5126C112.278 76.4025 111.9 76.4805 111.526 76.3715C111.197 76.2763 111.147 76.1317 111.17 75.8507C111.261 74.7551 111.461 73.6745 111.526 72.5709C111.601 71.2826 111.702 69.9966 111.634 68.7071C111.599 68.0291 111.638 67.2995 111.453 66.6904C111.295 66.165 111.712 65.5592 111.18 65.1382C111.388 64.7344 111.152 64.3203 111.199 63.9417C111.243 63.5952 111.773 63.5723 112.076 63.5517C112.666 63.5104 113.247 63.422 113.831 63.3497C113.996 63.3291 114.12 63.1914 114.302 63.1719C115.394 63.0526 115.778 63.461 115.63 64.5944C115.578 64.9891 115.759 65.355 115.784 65.7554C115.905 67.6907 116.105 69.6318 115.927 71.5579C115.827 72.634 116.029 73.7284 115.628 74.8205C115.472 75.2461 115.474 75.931 115.581 76.508C115.656 76.9164 115.269 76.8889 114.924 76.9336H114.926Z" fill="#3A76F0"/>
<path d="M58.6022 25.426C58.9356 25.3479 58.9975 25.5051 59.041 25.6829C59.3298 26.8565 59.6047 28.0347 59.9164 29.2025C60.0092 29.5524 59.8408 29.6648 59.5807 29.713C57.3154 30.134 55.2037 31.0116 53.0943 31.8927C51.5853 32.5236 50.1587 33.3175 48.7437 34.1285C48.4687 34.2857 48.3415 34.2501 48.1845 33.9794C47.6002 32.971 47.0043 31.9684 46.3879 30.9784C46.1954 30.6698 46.2699 30.5264 46.5598 30.3612C49.0416 28.9421 51.6093 27.7146 54.2985 26.7315C55.6552 26.2359 57.0416 25.8653 58.4257 25.4776C58.5174 25.4523 58.6079 25.4237 58.6033 25.4248L58.6022 25.426Z" fill="#3A76F0"/>
<path d="M73.9767 115.874C72.0265 116.089 69.9137 115.959 67.8042 115.978C66.5404 115.99 65.2984 115.811 64.0529 115.637C63.9784 115.627 63.9005 115.637 63.8249 115.635C63.064 115.624 63.119 115.628 63.1729 114.868C63.2508 113.766 63.5407 112.697 63.6152 111.602C63.6415 111.221 63.9658 111.166 64.0895 111.209C64.7736 111.447 65.4783 111.383 66.1623 111.472C66.8761 111.565 67.5888 111.623 68.3004 111.642C69.6455 111.676 70.9907 111.623 72.3347 111.583C73.492 111.549 74.616 111.306 75.7664 111.279C76.3153 111.267 76.4127 111.658 76.423 111.968C76.439 112.435 76.5857 112.876 76.6155 113.308C76.6613 113.978 76.7942 114.634 76.8446 115.3C76.8687 115.627 76.5765 115.593 76.4745 115.608C75.6977 115.719 74.9128 115.782 73.9755 115.875L73.9767 115.874Z" fill="#3A76F0"/>
<path d="M91.4258 105.698C91.6492 105.756 91.8097 105.971 91.883 106.139C92.3241 107.152 92.9738 108.039 93.5295 108.982C93.7002 109.271 93.738 109.417 93.3874 109.624C91.2597 110.874 89.0494 111.958 86.7555 112.86C85.431 113.381 84.0629 113.791 82.7074 114.232C82.2479 114.382 81.769 114.472 81.3038 114.606C81.101 114.665 81.0024 114.719 80.9337 114.415C80.6702 113.243 80.3482 112.085 80.0606 110.918C79.9666 110.538 80.1179 110.316 80.5292 110.254C81.3943 110.122 82.2124 109.836 83.0362 109.538C83.647 109.318 84.3035 109.197 84.9028 108.94C87.0443 108.021 89.2213 107.169 91.1565 105.834C91.2333 105.781 91.325 105.748 91.4247 105.698H91.4258Z" fill="#3A76F0"/>
<path d="M109.242 93.7606C108.87 93.7629 108.552 93.538 108.38 93.3533C107.712 92.634 106.809 92.3037 106.026 91.784C105.634 91.5247 105.62 91.3641 105.89 90.9534C106.737 89.6674 107.653 88.4044 107.971 86.843C108.042 86.4954 108.416 86.3245 108.528 85.9677C108.853 84.9341 109.182 83.8993 109.588 82.8956C109.913 82.0914 110.104 81.2528 110.348 80.4291C110.443 80.109 110.537 80.0104 110.891 80.1067C111.992 80.4073 113.103 80.6723 114.216 80.9281C114.553 81.0061 114.625 81.122 114.541 81.4742C114.088 83.3934 113.406 85.2347 112.709 87.0736C111.977 89.0043 111.026 90.8284 110.05 92.6409C109.872 92.9702 109.761 93.3281 109.475 93.5977C109.392 93.6757 109.35 93.7743 109.244 93.7606H109.242Z" fill="#3A76F0"/>
<path d="M34.2299 48.5533C34.1692 48.6657 34.1107 48.785 34.0431 48.8997C32.1044 52.2036 30.6355 55.7037 29.7005 59.4206C29.5768 59.9139 29.3923 59.9942 28.9237 59.86C27.8821 59.5617 26.8257 59.3082 25.7681 59.0719C25.4095 58.9916 25.3671 58.8711 25.4553 58.5292C26.4613 54.6162 27.9578 50.9027 29.9446 47.3866C30.0007 47.2868 30.058 47.1881 30.1107 47.0872C30.4125 46.5036 30.8322 46.371 31.37 46.6891C32.2179 47.1916 33.068 47.6906 33.9114 48.2011C34.042 48.2803 34.2517 48.3124 34.2299 48.5544V48.5533Z" fill="#3A76F0"/>
<path d="M24.7895 76.8866C24.4801 76.9921 24.2911 76.578 24.3747 76.2178C24.518 75.6075 24.2728 75.0694 24.2086 74.5096C24.0218 72.8622 24.0195 71.2149 24.0023 69.5629C23.9806 67.5485 24.1513 65.5512 24.4526 63.5608C24.4996 63.2522 24.573 63.1146 24.9064 63.1685C26.0866 63.3589 27.2679 63.5436 28.4526 63.71C28.738 63.7501 28.7735 63.8568 28.7299 64.1218C28.3404 66.4758 28.3644 68.8517 28.306 71.2286C28.2877 71.9617 28.3083 72.7257 28.3449 73.4312C28.3782 74.0691 28.4183 74.7998 28.6623 75.479C28.9087 76.1604 28.463 76.5975 27.7846 76.4334C27.4249 76.3462 27.1854 76.4323 26.868 76.5252C26.2791 76.6973 25.6546 76.7466 24.7907 76.8889L24.7895 76.8866Z" fill="#3A76F0"/>
</g>
<defs>
<clipPath id="clip0_812_80">
<rect width="92" height="92" fill="white" transform="translate(24 24)"/>
</clipPath>
</defs>
</svg>
