<svg width="140" height="140" viewBox="0 0 140 140" fill="none" xmlns="http://www.w3.org/2000/svg">
<rect width="140" height="140" rx="30" fill="white"/>
<g clip-path="url(#clip0_3599_879)">
<path d="M28.8794 62.5359C27.925 62.7703 25.226 63.7275 24.6259 64.4156C23.3341 65.8978 25.9347 67.3856 26.9763 68.13C27.9138 68.8003 29.3369 69.5156 30.0972 70.2984C30.6766 70.8956 32.5628 73.3134 32.7878 74.0194C33.356 75.8081 31.3178 77.6625 30.1938 78.8587C27.4581 81.7697 22.4444 86.7619 19.0722 88.7053C16.5278 90.1716 16.0544 88.4006 16.4481 86.1797C17.0978 82.5206 18.9335 78.3544 19.9328 74.6944C20.2244 73.6266 20.1719 73.5225 19.3253 72.7762C17.8366 71.4637 15.4741 70.5619 13.7341 69.5672C12.6785 68.9625 10.5147 67.8019 11.5478 66.3234C12.7966 64.5366 19.571 63.2091 21.7844 62.3269C23.2581 61.7391 23.3219 61.3725 23.995 60.0441C25.0244 58.0153 25.8391 55.7653 26.8966 53.775C27.3475 52.9256 28.0825 51.3984 29.2553 51.9197C30.2931 52.3809 32.8572 56.085 33.4244 57.2025C33.7731 57.8906 34.4378 59.1272 33.9803 59.8191C33.1488 61.0753 30.145 61.7334 28.8794 62.5359Z" fill="#01643B"/>
<path d="M60.9916 60.3188C63.2716 60.1894 68.1269 60.691 69.7244 62.4872C70.7135 63.5991 70.5635 65.2632 69.3419 66.1313C67.5213 67.4241 66.1657 65.9091 64.4538 65.4113C62.95 64.9735 60.8341 64.8479 59.3688 65.4338C56.8535 66.4388 56.5469 69.3366 59.2319 70.3444C61.0947 71.0429 63.4704 71.2332 65.4616 71.8875C69.3391 73.1625 72.2163 75.5091 71.8647 79.9679C71.2985 87.15 63.2322 88.1335 57.5247 87.2016C55.2579 86.8313 49.541 84.8607 52.0197 81.6666C53.726 79.4682 55.6975 81.5063 57.5191 82.1569C59.6819 82.9285 64.4782 83.4075 65.5525 80.775C66.3644 78.7857 65.1588 77.7179 63.4244 77.1029C59.1569 75.5888 52.7997 75.8354 51.686 70.0229C50.5038 63.8494 55.4735 60.6329 60.9907 60.3197L60.9916 60.3188Z" fill="#01643B"/>
<path d="M30.0972 70.2984C29.3369 69.5156 27.9138 68.8003 26.9763 68.13C25.9347 67.3856 23.335 65.8978 24.626 64.4156C25.226 63.7275 27.925 62.7703 28.8794 62.5359C33.1619 61.4821 39.5069 60.78 43.9131 60.7518C45.2097 60.7434 47.4897 61.1765 46.8447 62.9362C46.1088 64.9471 41.2994 67.5431 39.6072 69.0853C39.0456 69.5981 38.8413 69.8756 39.1994 70.6087C39.6888 71.6109 40.7481 72.8559 41.3763 73.86C42.6625 75.915 44.0678 78.2925 45.0072 80.5228C45.4844 81.6553 46.5513 84.044 44.561 84.3187C42.8228 84.5587 37.6835 82.6059 35.9341 81.8184C34.9806 81.3881 32.0191 80.1609 32.2675 78.8793C32.7981 77.5809 33.9353 76.3546 34.4866 75.1031C35.1869 73.5131 34.4603 73.0068 33.2697 72.1321C32.605 71.6437 31.8128 71.16 31.0947 70.7493C30.791 70.5759 30.4469 70.3265 30.0953 70.2975L30.0972 70.2984Z" fill="#B8D431"/>
<path d="M120.195 86.8341C117.804 88.0247 115.136 87.1191 114.687 84.3281C113.993 85.1184 113.267 85.8084 112.348 86.3409C108.164 88.7616 101.064 87.4838 101.124 81.6628C101.189 75.3 110.057 75.1866 114.596 75.0206C114.444 74.1075 114.406 73.2853 113.799 72.5428C112.28 70.6838 108.873 70.9303 107.108 72.3178C106.714 72.6272 106.413 73.0744 106.007 73.3697C103.483 75.2016 100.415 71.7984 103.011 69.21C105.692 66.5353 112.654 66.3713 115.969 67.7578C118.574 68.8472 119.977 71.1356 120.213 73.9022L120.195 86.8359V86.8341ZM114.595 78.2484C112.567 78.3272 108.421 78.2456 107.101 80.0728C106.341 81.1247 106.72 82.6519 107.819 83.2828C109.021 83.9719 111.059 83.79 112.256 83.1628C114.11 82.1906 114.684 80.2303 114.594 78.2484H114.595Z" fill="#01643B"/>
<path d="M88.1163 73.8207C88.4135 74.1423 88.9835 74.3326 89.395 74.461C93.671 75.7932 99.8594 75.6432 99.2191 82.0257C98.5891 88.3107 87.7685 88.5573 83.7091 86.0298C82.4922 85.2723 81.6119 83.7798 82.7875 82.5479C84.1947 81.0732 85.736 82.5169 87.2406 82.9716C88.7791 83.4357 90.745 83.6719 92.2985 83.1582C94.2363 82.5179 93.9672 80.5182 92.1531 79.9369C88.2944 78.7004 82.1828 78.8363 82.3703 73.0585C82.5766 66.676 91.4885 65.9223 96.0428 67.8235C97.5372 68.4469 99.2706 69.9385 98.0125 71.6541C96.7544 73.3698 95.0256 71.9157 93.6344 71.4432C92.2431 70.9707 89.8675 70.6885 88.5803 71.4957C87.775 72.001 87.43 73.0763 88.1163 73.8198V73.8207Z" fill="#01643B"/>
<path d="M124.784 60.3168C126.381 60.1237 127.806 60.7987 128.476 62.2837C129.024 63.4997 128.718 64.6809 128.93 65.9447C128.58 71.97 129.383 78.4997 128.925 84.4669C128.625 88.3715 123.463 88.3106 123.208 84.5653L123.26 60.9468C123.401 60.6328 124.437 60.359 124.784 60.3168Z" fill="#01643B"/>
<path d="M76.54 69.2035C78.1262 69.0348 79.5184 70.1476 79.6553 71.746C80.0191 75.9779 79.3853 80.7339 79.6412 85.0201C79.09 88.2507 74.3172 88.1139 74.0275 84.7529C73.6675 80.5829 74.2937 75.8917 74.0425 71.6673C74.1972 70.3398 75.2022 69.346 76.5391 69.2035H76.54Z" fill="#01643B"/>
<path d="M12.5088 60.7358C12.0841 60.3101 12.7816 57.7808 12.5397 57.1048C11.4944 56.7448 8.94161 56.9773 10.4819 55.3442C11.4204 54.3495 12.4413 54.4142 12.5707 52.752C12.5838 52.5814 12.476 52.4183 12.4919 52.2158C12.7169 49.3967 14.6904 52.3526 15.6241 52.4389C16.4772 52.5176 17.6819 51.3898 18.3888 51.7329C19.3225 52.1867 17.2563 54.2173 17.4682 54.8951C17.5338 55.1061 19.3591 56.4289 19.6975 56.8798C20.2047 57.5558 20.1522 58.3076 19.181 58.3311C18.1938 58.3554 16.975 57.9954 15.9982 57.9542C15.8163 57.9467 15.6344 57.9298 15.4544 57.9711C15.2369 58.0376 14.2029 59.7973 13.8888 60.1479C13.6235 60.4442 12.9204 61.1483 12.5088 60.7358Z" fill="#FF0019"/>
<path d="M76.5419 60.5062C79.0441 60.2971 80.7738 62.2153 79.8578 64.6575C78.9344 67.1193 73.9703 66.929 73.6591 63.8906C73.4528 61.8806 74.5572 60.6712 76.5419 60.5062Z" fill="#01643B"/>
</g>
<defs>
<clipPath id="clip0_3599_879">
<rect width="119.071" height="38.2416" fill="white" transform="translate(10 51)"/>
</clipPath>
</defs>
</svg>
