<svg width="140" height="140" viewBox="0 0 140 140" fill="none" xmlns="http://www.w3.org/2000/svg">
<rect width="140" height="140" rx="30" fill="white"/>
<g clip-path="url(#clip0_2776_483)">
<path d="M75.4907 85.7047C91.2359 85.7047 104 72.7871 104 56.8524C104 40.9176 91.2359 28 75.4907 28C59.7454 28 46.9814 40.9176 46.9814 56.8524C46.9814 72.7871 59.7454 85.7047 75.4907 85.7047Z" fill="#583CC4"/>
<path d="M44.6073 67.4924C42.8578 64.3465 42.6869 60.2721 43.1528 55.8229C37.9286 64.8941 33.3004 74.2865 37.8553 88.6241C41.3219 98.3376 47.2885 104.981 56.5 108.5C43.6002 98.9326 36.7324 86.8124 44.6094 67.4924H44.6073Z" fill="#583CC4"/>
<path d="M60.5017 86.7321C52.4335 82.9068 47.9457 77.455 45.7506 70.9615C41.387 85.365 44.0886 96.4724 53.8534 104.288C63.4433 112.42 78.351 113.217 94.9899 110.806C69.7762 110.207 54.4129 104.275 60.5017 86.73V86.7321Z" fill="#583CC4"/>
<path d="M63.722 88.2021L74.3189 90.6191C64.0536 95.5665 59.2851 100.695 74.9414 106.495C63.1687 105.303 59.4275 99.2065 63.722 88.2021Z" fill="#583CC4"/>
</g>
<defs>
<clipPath id="clip0_2776_483">
<rect width="68" height="84" fill="white" transform="translate(36 28)"/>
</clipPath>
</defs>
</svg>
