<svg width="140" height="140" viewBox="0 0 140 140" fill="none" xmlns="http://www.w3.org/2000/svg">
<rect width="140" height="140" rx="30" fill="white"/>
<g clip-path="url(#clip0_2944_3475)">
<path d="M32.6051 91.0881C31.9994 91.6999 28.8046 92.6232 27.9747 92.3582C27.2054 92.1127 27.2381 92.0272 26.2931 91.8563C25.3481 91.6853 25.5783 91.0124 25.2633 90.5739C25.107 90.3565 24.5897 90.1453 24.3535 89.7813C23.6496 88.692 24.3595 88.3818 24.3789 87.6282C24.391 87.1593 23.9391 86.893 24.2796 86.0491C24.4649 85.5899 25.0307 85.5728 25.227 85.3616C25.4233 85.1503 25.4378 84.5775 25.8679 84.2356C26.2374 83.9425 29.3268 82.9471 29.7883 82.9593C30.2984 82.9728 30.5795 83.3355 30.9151 83.4112C31.3875 83.5175 31.9364 83.3208 32.3992 83.6249C32.8377 83.9131 32.7796 84.5018 33.0049 84.8462C33.1975 85.1393 33.8021 85.353 34.0311 85.7658C34.5181 86.6439 34.0311 87.0933 33.9838 87.7846C33.9523 88.245 34.2346 88.6248 34.048 89.1829C33.9087 89.5994 33.418 89.6409 33.1988 89.9132C32.9661 90.2027 32.9298 90.7608 32.6063 91.0869L32.6051 91.0881Z" fill="#EF6E22"/>
<path d="M81.1748 32.3771C83.4437 32.3771 85.283 30.523 85.283 28.2358C85.283 25.9486 83.4437 24.0945 81.1748 24.0945C78.9059 24.0945 77.0665 25.9486 77.0665 28.2358C77.0665 30.523 78.9059 32.3771 81.1748 32.3771Z" fill="#EF6E22"/>
<path d="M56.1158 105.447C56.8245 105.296 57.1734 105.414 57.6023 105.968C58.2565 106.813 59.1506 109.471 59.7757 110.006C60.1974 110.367 61.6912 110.554 61.9044 110.912C62.2327 111.461 61.169 115.228 60.6323 115.494C59.9926 115.81 58.8647 114.971 58.1765 115.086C56.919 115.643 55.5718 116.702 54.3312 117.203C53.3838 117.585 53.0724 117.487 52.5382 116.69C51.6683 115.391 51.1934 113.651 50.1248 112.528C49.7165 112.379 48.4069 112.116 48.2906 111.681C48.2009 111.347 49.3301 107.475 49.6039 107.309C50.2036 106.945 51.4042 107.751 52.0632 107.594C53.1621 107.211 55.1078 105.66 56.1158 105.447Z" fill="#03559F"/>
<path d="M82.1149 114.783C81.5079 114.263 80.2855 111.548 80.2843 110.731C80.2819 109.5 81.3456 108.366 82.396 107.878C83.782 107.236 87.8635 106.017 89.2786 106.278C90.2405 106.455 92.5351 109.792 92.5 110.848C92.4334 112.889 88.7358 113.91 87.1354 114.364C86.0463 114.675 82.9836 115.527 82.1137 114.781L82.1149 114.783Z" fill="#EF6E22"/>
<path d="M71.3154 118.001C73.2732 118.001 74.8603 116.401 74.8603 114.428C74.8603 112.454 73.2732 110.854 71.3154 110.854C69.3576 110.854 67.7705 112.454 67.7705 114.428C67.7705 116.401 69.3576 118.001 71.3154 118.001Z" fill="#D2A02F"/>
<path d="M63.8719 112.288C65.8054 111.977 67.172 113.795 66.4572 115.627C65.9484 116.93 63.0686 117.017 62.5646 115.501C62.1757 114.331 62.452 112.518 63.8719 112.288Z" fill="#CEA132"/>
<path d="M79.2472 115.634C77.4227 117.34 74.1104 114.105 76.6316 112.326C79.1673 110.536 81.0039 113.992 79.2472 115.634Z" fill="#0BACE7"/>
<path d="M97.672 100.441C98.6436 100.262 99.3245 100.96 99.8818 101.697C101.125 103.34 99.4953 105.255 97.924 104.776C97.3013 104.587 96.0328 103.162 95.9395 102.495C95.8256 101.673 96.9075 100.581 97.6708 100.441H97.672Z" fill="#BD2135"/>
<path d="M94.0374 104.349C96.9438 103.822 97.3146 108.897 94.161 108.444C91.5865 108.074 91.9997 104.717 94.0374 104.349Z" fill="#0BACE7"/>
<path d="M35.7648 97.7551C38.2471 97.3337 39.1376 100.238 36.7933 101.357C33.8602 102.755 33.3393 98.1666 35.7648 97.7551Z" fill="#0BACE7"/>
<path d="M41.8296 37.2549C42.8286 37.2549 43.6384 36.4385 43.6384 35.4315C43.6384 34.4245 42.8286 33.6082 41.8296 33.6082C40.8306 33.6082 40.0208 34.4245 40.0208 35.4315C40.0208 36.4385 40.8306 37.2549 41.8296 37.2549Z" fill="#CEA132"/>
<path d="M46.1547 110.052C47.1517 110.052 47.9599 109.237 47.9599 108.232C47.9599 107.227 47.1517 106.413 46.1547 106.413C45.1577 106.413 44.3495 107.227 44.3495 108.232C44.3495 109.237 45.1577 110.052 46.1547 110.052Z" fill="#0BACE7"/>
<path d="M74.1371 28.2309C75.13 28.2309 75.9349 27.4195 75.9349 26.4186C75.9349 25.4176 75.13 24.6062 74.1371 24.6062C73.1441 24.6062 72.3392 25.4176 72.3392 26.4186C72.3392 27.4195 73.1441 28.2309 74.1371 28.2309Z" fill="#0BACE7"/>
<path d="M87.849 32.2402C88.8413 32.2402 89.6457 31.4293 89.6457 30.4291C89.6457 29.4288 88.8413 28.6179 87.849 28.6179C86.8567 28.6179 86.0523 29.4288 86.0523 30.4291C86.0523 31.4293 86.8567 32.2402 87.849 32.2402Z" fill="#0BACE7"/>
<path d="M104.564 101.773C108.144 101.773 111.046 98.8478 111.046 95.2393C111.046 91.6308 108.144 88.7056 104.564 88.7056C100.985 88.7056 98.0827 91.6308 98.0827 95.2393C98.0827 98.8478 100.985 101.773 104.564 101.773Z" fill="#04ADED"/>
<path d="M108.21 85.1725C110.554 84.6315 111.375 88.3991 108.916 88.57C106.217 88.7581 106.552 85.5547 108.21 85.1725Z" fill="#0BACE7"/>
<path d="M109.061 51.3459C110.724 51.0992 111.596 53.6846 110.61 54.6176C110.393 54.8228 109.086 55.4139 108.782 55.4615C106.722 55.7803 105.733 53.0471 107.233 52.0701C107.542 51.8686 108.708 51.3984 109.06 51.3459H109.061Z" fill="#0BACE7"/>
<path d="M111.845 56.7242C112.067 56.9501 112.254 57.7635 112.253 58.0957C112.243 60.7214 108.378 59.9459 109.001 57.5144C109.26 56.5019 111.119 55.9841 111.845 56.7242Z" fill="#CEA132"/>
<path d="M34.7059 94.7935C34.7883 95.0231 34.7858 95.0475 34.827 95.282C34.8816 95.6728 34.7119 96.0245 34.5847 96.3811C34.5714 96.4177 34.5981 96.469 34.5847 96.5032C34.2504 96.5069 34.1074 96.9698 33.8869 97.1078C33.6519 97.2543 33.3841 97.3252 33.1285 97.4229C32.9407 97.4949 32.696 97.3874 32.7675 97.7245C32.656 97.7379 32.5203 97.7269 32.404 97.7245L31.1465 97.0992C29.2177 94.6152 33.1806 92.1677 34.7059 94.7935Z" fill="#BD2135"/>
<path d="M34.7059 94.7934C33.1818 92.1677 29.2177 94.6139 31.1465 97.0992L32.404 97.7245C31.0071 97.6988 30.2718 96.6107 30.4741 95.2294C30.5322 94.8337 31.2579 93.9728 31.5899 93.7786C32.3762 93.3182 33.5695 93.3682 34.2831 93.9386C34.6272 94.2133 34.5811 94.4454 34.7059 94.7947V94.7934Z" fill="#BB2437"/>
<path d="M34.5847 96.5032C34.3594 97.0735 33.366 97.6499 32.7675 97.7244C32.696 97.3874 32.9395 97.4948 33.1285 97.4228C33.3841 97.3251 33.6519 97.2543 33.8869 97.1077C34.1074 96.9697 34.2504 96.5056 34.5847 96.5032Z" fill="#BB2437"/>
<path d="M34.5847 96.3811C34.7119 96.0245 34.8815 95.6728 34.827 95.282C34.9082 95.7546 35.0972 95.9586 34.5847 96.3811Z" fill="#BB2437"/>
<path d="M33.7367 38.8597C34.1389 38.4603 35.6739 37.3026 36.2348 37.0424C37.3119 36.5417 37.891 36.6077 38.9329 37.2244C40.3794 38.0805 40.337 39.0526 39.7628 40.4766C39.1146 42.0814 37.3918 45.0051 35.8229 45.5657C34.7144 45.9626 34.4212 45.9088 33.4144 45.3532C32.4077 44.7975 31.3246 43.5445 31.43 42.3403C31.4518 42.0948 31.6905 41.4781 31.814 41.2558C32.0551 40.8198 33.2509 39.3787 33.618 38.9818C33.6592 38.9378 33.6967 38.9012 33.7391 38.8597H33.7367Z" fill="#C12033"/>
<path d="M29.7775 46.2249C30.6425 45.1966 32.7554 45.6192 32.8959 47.0945C33.194 50.205 28.8579 49.7178 29.4031 47.0078C29.4298 46.8759 29.6903 46.3275 29.7775 46.2237V46.2249Z" fill="#0BACE7"/>
<path d="M33.7367 38.8596C34.0129 38.5958 34.3824 38.1061 34.6429 37.8802C34.7822 37.758 35.2293 37.4075 35.3904 37.2903C36.8854 36.2046 37.8559 36.1802 39.3497 37.2939C40.9307 38.4725 40.4606 39.4397 39.7785 40.9797C39.0965 42.5197 37.3167 45.3103 35.6497 45.855C34.6199 46.1909 33.916 45.9771 33.0401 45.3641C32.6609 45.0991 31.7789 44.2136 31.5523 43.8106C30.4123 41.7809 32.3701 40.2848 33.6168 38.9817C33.2509 39.3786 32.0551 40.8197 31.8128 41.2557C31.6892 41.4792 31.4506 42.0947 31.4288 42.3402C31.3246 43.5444 32.4271 44.8072 33.4132 45.3531C34.3994 45.899 34.7132 45.9625 35.8217 45.5656C37.3919 45.005 39.1146 42.0813 39.7616 40.4766C40.3358 39.0538 40.3782 38.0804 38.9317 37.2243C37.8898 36.6076 37.3107 36.5416 36.2336 37.0424C35.6727 37.3025 34.1377 38.4603 33.7355 38.8596H33.7367Z" fill="#BB2437"/>
<path d="M27.6476 50.4909C28.5017 50.3443 29.6745 50.6765 30.4632 51.0136C32.129 51.7256 32.5579 52.9127 32.4089 54.6786C32.3083 55.8718 30.6292 61.2441 30.044 62.3091C28.8761 64.4365 27.0831 64.2802 25.0707 63.4107C21.7948 61.994 23.5672 58.1201 24.3487 55.5909C24.8672 53.9104 25.5565 50.8475 27.6476 50.4909ZM27.6428 52.9298C27.4768 52.9798 27.2648 53.2534 27.1327 53.3914C26.4773 54.079 25.5868 57.2677 25.3409 58.3021C25.095 59.3365 24.7981 60.6506 26.0351 61.2173C26.9825 61.6508 27.9953 61.8719 28.5938 60.8497C28.9161 60.2989 30.2621 55.9622 30.3469 55.2892C30.3808 55.0218 30.3869 54.1999 30.319 53.9678C30.1058 53.2436 28.274 52.7405 27.6428 52.9298Z" fill="#D2A02F"/>
<path d="M27.6428 52.9297C28.274 52.7391 30.1058 53.2435 30.319 53.9677C30.3881 54.1998 30.3808 55.0217 30.3469 55.2891C30.2621 55.9621 28.9161 60.2988 28.5938 60.8496C27.9941 61.8718 26.9813 61.6507 26.0351 61.2172C24.7982 60.6505 25.0841 59.3828 25.3409 58.302C25.5978 57.2212 26.4773 54.0789 27.1327 53.3913C27.2648 53.2533 27.478 52.9785 27.6428 52.9297Z" fill="#EF6E22"/>
<path d="M113.656 71.6309C115.308 73.2503 113.091 76.4366 111.043 74.4472C109.082 72.542 112.265 70.2668 113.656 71.6309Z" fill="#EF6E22"/>
<path d="M109.093 76.3524C110.88 75.6917 112.494 75.8407 114.004 76.9582C116.715 78.9623 115.313 83.9865 111.933 84.5276C110.876 84.6961 109.403 84.3871 108.534 83.7533C108.179 83.4944 107.936 82.957 107.517 82.8251C107.505 82.7885 107.53 82.7384 107.517 82.703C106.841 80.854 106.617 80.1762 107.274 78.1843C107.287 78.1477 107.261 78.0976 107.274 78.0622L108.971 76.3524C109.007 76.339 109.057 76.3658 109.092 76.3524H109.093Z" fill="#03559F"/>
<path d="M109.093 76.3523C110.337 75.3033 112.632 75.6562 113.86 76.6149C117.961 79.8159 114.415 86.3447 109.459 84.4713C108.883 84.2539 107.697 83.3771 107.518 82.8251C107.936 82.957 108.179 83.4943 108.536 83.7532C109.404 84.3871 110.877 84.6973 111.934 84.5275C115.313 83.9865 116.715 78.9622 114.006 76.9581C112.495 75.8406 110.881 75.6916 109.094 76.3523H109.093Z" fill="#1C528B"/>
<path d="M107.518 82.703C107.222 82.7604 107.095 82.2536 107.012 82.0521C106.522 80.865 106.426 79.2151 107.276 78.1843C106.618 80.1762 106.842 80.854 107.518 82.703Z" fill="#1C528B"/>
<path d="M108.972 76.3523L107.276 78.0621C107.484 77.4759 108.399 76.5587 108.972 76.3523Z" fill="#1C528B"/>
<path d="M112.58 60.388C115.201 60.0888 116.768 60.8167 117.66 63.3826C118.38 65.4575 118.063 69.1567 115.701 70.0067C113.79 70.6943 109.756 70.4537 108.241 68.9686C107.34 68.0844 106.9 66.0278 107.033 64.8114C107.311 62.2785 110.298 60.6494 112.58 60.388ZM112.459 62.4642C110.245 62.7341 108.675 64.3828 109.521 66.7007C110.125 68.3604 113.109 68.6364 114.494 68.0563C116.476 67.2271 116.019 62.7048 113.761 62.4263C113.387 62.3799 112.841 62.4165 112.46 62.4629L112.459 62.4642Z" fill="#BB2437"/>
<path d="M112.459 62.4641C112.84 62.4177 113.387 62.381 113.76 62.4275C116.018 62.7059 116.476 67.2282 114.493 68.0575C113.108 68.6364 110.124 68.3616 109.519 66.7019C108.674 64.3827 110.244 62.734 112.457 62.4653L112.459 62.4641Z" fill="#0BACE7"/>
<path d="M110.031 45.9159C110.031 48.3572 108.068 50.3356 105.646 50.3356C103.224 50.3356 101.262 48.3572 101.262 45.9159C101.262 43.4745 103.224 41.4961 105.646 41.4961C108.068 41.4961 110.031 43.4745 110.031 45.9159ZM105.063 43.8959C103.184 44.2439 102.994 47.6183 105.307 47.9908C108.384 48.4866 108.694 43.223 105.063 43.8959Z" fill="#CEA132"/>
<path d="M99.5644 39.1465C101.178 37.2474 104.134 39.2649 102.604 41.4168C101.036 43.6212 98.033 40.9478 99.5644 39.1465Z" fill="#EF6E22"/>
<path d="M105.063 43.896C108.693 43.223 108.383 48.4867 105.307 47.9909C102.994 47.6184 103.186 44.244 105.063 43.896Z" fill="#06559F"/>
<path d="M68.9918 23.1053C69.0269 23.1187 69.0766 23.093 69.1129 23.1053C69.1868 23.7831 69.9525 23.5009 69.9089 24.191L70.6879 25.6699C70.6964 25.7493 70.6843 25.8336 70.6879 25.9142C70.4783 26.4588 70.505 27.0854 70.3148 27.6508C70.3014 27.6923 69.9974 28.3127 69.9477 28.4031C69.6496 28.9405 68.9518 29.3948 68.4151 29.6671C67.4217 30.1703 65.9654 30.66 64.8072 30.9213C64.5904 30.9702 64.3178 30.7675 64.3892 31.1656C64.3081 31.1656 64.2281 31.1656 64.1469 31.1656C62.996 31.1583 60.7062 31.0239 59.7019 30.3925C59.3796 30.1898 58.9265 29.4827 58.4528 29.3337C58.4177 29.2897 58.3644 29.258 58.3317 29.2116L57.6653 27.6239C57.4594 26.8374 57.4509 26.3563 57.6871 25.571C58.0736 24.2911 58.958 23.9101 60.046 23.3336C62.6834 21.9365 66.066 22 68.9918 23.1053Z" fill="#03559F"/>
<path d="M64.388 31.1657C64.3178 30.7676 64.5891 30.9703 64.806 30.9215C65.9654 30.6601 67.4217 30.1704 68.4139 29.6673C68.9506 29.3949 69.6484 28.9406 69.9465 28.4032C69.9961 28.3129 70.3002 27.6925 70.3135 27.6509C70.5038 27.0855 70.4771 26.4578 70.6867 25.9143C70.74 27.2223 70.4517 28.4765 69.4122 29.3314C68.5072 30.0752 65.5365 31.1816 64.3868 31.1657H64.388Z" fill="#1C528B"/>
<path d="M68.9918 23.1053C66.066 22.0001 62.6834 21.9366 60.0459 23.3337C58.958 23.9101 58.0736 24.2912 57.6871 25.5711C57.4497 26.3563 57.4594 26.8375 57.6653 27.624L58.3317 29.2117C57.4448 27.9611 56.8863 26.5762 57.6593 25.0532C58.7617 22.877 63.0493 21.8999 65.2954 22.0086C66.4343 22.0636 68.1134 22.3616 68.9918 23.1066V23.1053Z" fill="#1C528B"/>
<path d="M58.4516 29.3337C58.9265 29.484 59.3784 30.1911 59.7007 30.3926C60.705 31.024 62.9948 31.1583 64.1457 31.1656C62.1504 31.5699 59.8654 31.1021 58.4928 29.534C58.4322 29.4644 58.4673 29.3545 58.4516 29.3337Z" fill="#1C528B"/>
<path d="M70.6879 25.6699L69.9089 24.1909C69.9525 23.5009 69.1868 23.783 69.1129 23.1052C70.0167 23.4105 70.5982 24.7588 70.6879 25.6699Z" fill="#1C528B"/>
<path d="M53.6951 26.432C54.2852 26.3307 55.046 26.3111 55.4833 26.7691C55.8516 27.155 56.3205 28.7109 56.2636 29.2593C56.0976 30.8616 53.5049 31.4221 52.8168 30.0677C52.1335 28.7195 51.7422 26.7679 53.6951 26.432Z" fill="#0BACE7"/>
<path d="M51.6816 30.8506C51.6816 33.2504 49.7517 35.1959 47.3711 35.1959C44.9904 35.1959 43.0605 33.2504 43.0605 30.8506C43.0605 28.4508 44.9904 26.5054 47.3711 26.5054C49.7517 26.5054 51.6816 28.4508 51.6816 30.8506ZM49.4028 30.8519C49.4028 29.7246 48.4953 28.8099 47.3771 28.8099C46.2589 28.8099 45.3515 29.7246 45.3515 30.8519C45.3515 31.9791 46.2589 32.8938 47.3771 32.8938C48.4953 32.8938 49.4028 31.9791 49.4028 30.8519Z" fill="#0BACE7"/>
<path d="M47.3771 32.8937C48.4958 32.8937 49.4027 31.9795 49.4027 30.8518C49.4027 29.724 48.4958 28.8098 47.3771 28.8098C46.2584 28.8098 45.3514 29.724 45.3514 30.8518C45.3514 31.9795 46.2584 32.8937 47.3771 32.8937Z" fill="#EF6E22"/>
<path d="M100.672 34.4631C100.672 37.5956 98.1517 40.1358 95.0442 40.1358C91.9366 40.1358 89.4167 37.5956 89.4167 34.4631C89.4167 31.3305 91.9366 28.7903 95.0442 28.7903C98.1517 28.7903 100.672 31.3305 100.672 34.4631ZM99.6576 34.4618C99.6576 31.8923 97.5908 29.8088 95.0418 29.8088C92.4927 29.8088 90.4259 31.8923 90.4259 34.4618C90.4259 37.0314 92.4927 39.1149 95.0418 39.1149C97.5908 39.1149 99.6576 37.0314 99.6576 34.4618Z" fill="#1FA5DC"/>
<path d="M95.0418 39.1149C97.5911 39.1149 99.6577 37.0317 99.6577 34.4619C99.6577 31.8921 97.5911 29.8088 95.0418 29.8088C92.4925 29.8088 90.4259 31.8921 90.4259 34.4619C90.4259 37.0317 92.4925 39.1149 95.0418 39.1149Z" fill="#BD2135"/>
<path d="M24.6236 65.6407C26.6759 65.3769 29.2989 66.2391 28.4932 68.8086C27.7614 71.1412 23.7332 71.2414 22.7337 69.1872C21.8711 67.4152 22.7094 65.8874 24.6236 65.6407Z" fill="#0BACE7"/>
<path d="M28.406 73.5437C28.4387 73.5584 28.4908 73.5303 28.5272 73.5437C28.3321 74.1519 29.1923 74.1849 29.4588 74.5586C29.8744 75.1411 30.3384 76.7898 30.3541 77.514C30.3699 78.2382 30.0076 78.4056 29.9846 78.5155C29.8925 78.9588 29.7072 80.0176 29.3389 80.3535C29.2771 80.4096 29.1063 80.3645 29.0493 80.4121C28.9463 80.4988 28.933 80.7504 28.7622 80.925C27.7263 81.9887 25.038 82.0742 23.7562 81.4673C22.6077 80.925 22.3375 80.0921 21.5004 79.2836C21.4895 79.2458 21.5101 79.1994 21.5004 79.1615C21.0897 77.6032 21.0945 75.6137 22.3436 74.4548C22.5592 74.2545 22.8524 74.1482 23.0644 73.9614C23.6884 73.4142 23.6726 73.0711 24.7169 72.9404C26.0956 72.7682 27.2139 73.0234 28.406 73.5449V73.5437ZM28.5853 77.3882C28.5853 75.8201 27.3241 74.5488 25.7685 74.5488C24.213 74.5488 22.9518 75.8201 22.9518 77.3882C22.9518 78.9563 24.213 80.2277 25.7685 80.2277C27.3241 80.2277 28.5853 78.9563 28.5853 77.3882Z" fill="#03559F"/>
<path d="M28.5272 73.5437C29.0687 73.7464 29.6938 74.5842 29.958 75.0935C31.8746 78.7988 28.6241 82.9987 24.6455 82.0364C23.3189 81.7152 21.8868 80.6136 21.5004 79.2836C22.3363 80.0933 22.6077 80.925 23.7562 81.4673C25.0392 82.073 27.7276 81.9888 28.7622 80.925C28.933 80.7504 28.9463 80.4988 29.0493 80.4121C29.1063 80.3645 29.2771 80.4097 29.3389 80.3535C29.7072 80.0176 29.8925 78.9588 29.9846 78.5155C30.0076 78.4043 30.3699 78.226 30.3541 77.514C30.3384 76.802 29.8744 75.1423 29.4588 74.5586C29.1923 74.1861 28.3321 74.1519 28.5272 73.5437Z" fill="#1C528B"/>
<path d="M21.5003 79.1614C21.2096 78.9965 21.0884 78.4006 21.0472 78.0916C20.5178 74.1396 24.5631 71.3502 28.0886 73.1992C28.2606 73.2896 28.4702 73.2517 28.4072 73.5436C27.2163 73.0233 26.0968 72.7681 24.7181 72.9391C23.6726 73.0697 23.6883 73.4129 23.0656 73.96C22.8536 74.1469 22.5604 74.2531 22.3448 74.4534C21.0957 75.6136 21.0909 77.6031 21.5016 79.1602L21.5003 79.1614Z" fill="#1C528B"/>
<path d="M25.7697 80.2275C27.3254 80.2275 28.5865 78.9562 28.5865 77.388C28.5865 75.8198 27.3254 74.5486 25.7697 74.5486C24.2141 74.5486 22.9529 75.8198 22.9529 77.388C22.9529 78.9562 24.2141 80.2275 25.7697 80.2275Z" fill="#04ADED"/>
<path d="M41.7012 99.9533C42.949 99.7579 45.0583 101.262 45.1164 102.558C45.1625 103.573 43.4591 106.425 42.7637 107.253C42.147 107.987 39.8802 110.001 38.9147 109.793C38.7196 109.751 37.5117 108.904 37.3118 108.716C36.3996 107.854 35.5794 106.174 35.9428 104.896C36.007 104.669 37.5759 102.835 37.8558 102.55C38.6857 101.705 40.549 100.134 41.6999 99.9533H41.7012ZM42.3384 102.365C41.4964 101.164 39.8487 102.588 39.1085 103.265C39.0516 103.318 39.0819 103.451 39.0673 103.464C39.0055 103.524 38.6384 103.485 38.7039 103.831C37.4972 104.825 37.4342 105.522 38.3404 106.762C38.4458 106.906 38.4688 107.099 38.6397 107.253C38.7172 107.322 39.5762 107.826 39.6331 107.835C39.7446 107.855 40.9343 107.324 40.8846 107.006C40.9149 106.989 40.973 107.022 41.0057 107.006C41.494 106.769 41.6648 106.433 41.975 106.029C42.319 105.58 42.4995 105.349 42.7019 104.808C42.7261 104.743 42.7915 104.691 42.823 104.564C42.8327 104.526 42.8157 104.48 42.823 104.441C43.5366 103.913 43.1986 102.711 42.4596 102.365C42.4269 102.349 42.3735 102.38 42.3384 102.365Z" fill="#D2A02F"/>
<path d="M42.3384 102.365C42.3736 102.38 42.4269 102.349 42.4596 102.365C43.1502 102.97 42.9818 103.623 42.823 104.442C42.8158 104.481 42.8327 104.526 42.823 104.564L42.7019 104.808C42.4996 105.349 42.3191 105.58 41.975 106.029L41.0058 107.006C40.9731 107.022 40.9149 106.989 40.8846 107.006C40.8786 107.01 40.8422 106.897 40.7671 106.939C40.6532 107.003 40.0026 107.606 39.9505 107.616C39.2309 107.757 38.9728 106.967 38.3404 106.762C37.4342 105.522 37.4972 104.825 38.7039 103.831C38.9341 103.642 38.985 103.537 39.0673 103.465C39.323 103.24 39.4126 103.19 39.7143 102.895C40.4412 102.186 41.4141 101.979 42.3384 102.365Z" fill="#C12033"/>
<path d="M42.3384 102.365C41.414 101.979 40.4412 102.186 39.7143 102.895C39.4138 103.188 39.323 103.239 39.0673 103.464C38.985 103.537 38.9341 103.642 38.7039 103.831C38.6385 103.485 39.0055 103.524 39.0673 103.464C39.0819 103.45 39.0516 103.317 39.1085 103.265C39.8488 102.588 41.4964 101.164 42.3384 102.365Z" fill="#BD2135"/>
<path d="M42.823 104.441C42.9817 103.623 43.1501 102.97 42.4595 102.365C43.1986 102.711 43.5366 103.913 42.823 104.441Z" fill="#BD2135"/>
<path d="M38.3404 106.762C38.9728 106.967 39.2296 107.757 39.9505 107.615C40.0026 107.606 40.6544 107.002 40.7671 106.939C40.8422 106.896 40.8785 107.008 40.8846 107.006C40.9342 107.324 39.7445 107.855 39.6331 107.835C39.5761 107.825 38.7172 107.322 38.6396 107.253C38.4676 107.099 38.4458 106.906 38.3404 106.762Z" fill="#BD2135"/>
<path d="M41.0057 107.006L41.9749 106.029C41.6648 106.433 41.494 106.769 41.0057 107.006Z" fill="#BD2135"/>
<path d="M42.7018 104.808L42.823 104.563C42.7915 104.69 42.7261 104.743 42.7018 104.808Z" fill="#BD2135"/>
<path d="M39.2236 70.5378V66.2426L39.7748 67.7142L35.1856 60.0239H37.748L41.2638 65.9263H39.7894L43.3209 60.0239H45.6894L41.1002 67.7142L41.6369 66.2426V70.5378H39.2236Z" fill="#03559F"/>
<path d="M49.3991 70.6576C48.734 70.6576 48.1404 70.5281 47.6182 70.2668C47.0972 70.0066 46.6914 69.6085 46.4043 69.0724C46.1159 68.5375 45.9717 67.8536 45.9717 67.0219V62.4556H48.2966V66.6763C48.2966 67.3467 48.4384 67.8401 48.7207 68.1552C49.003 68.4703 49.404 68.6278 49.9201 68.6278C50.2775 68.6278 50.5949 68.5509 50.8735 68.3946C51.151 68.2395 51.3703 67.9989 51.529 67.674C51.6877 67.3492 51.7676 66.9413 51.7676 66.4503V62.4556H54.0925V70.5355H51.8876V68.3128L52.2898 68.9588C52.022 69.5194 51.6271 69.9419 51.1049 70.2277C50.5828 70.5135 50.0146 70.6551 49.3991 70.6551V70.6576Z" fill="#03559F"/>
<path d="M58.7266 70.5378L55.3149 60.0239H57.8179L60.7825 69.3361H59.531L62.6301 60.0239H64.8653L67.8457 69.3361H66.639L69.6787 60.0239H71.9878L68.5762 70.5378H65.9835L63.3461 62.3675H64.0318L61.3204 70.5378H58.7278H58.7266Z" fill="#03559F"/>
<path d="M75.042 70.6576C74.4157 70.6576 73.8802 70.5502 73.4332 70.3352C72.9861 70.1203 72.6432 69.8272 72.4046 69.4571C72.1659 69.0871 72.0472 68.6706 72.0472 68.2102C72.0472 67.7498 72.1635 67.3089 72.3973 66.9487C72.6311 66.5884 73.0006 66.3051 73.5071 66.0999C74.0135 65.8947 74.6737 65.7921 75.4891 65.7921H77.6202V67.1587H75.7423C75.1959 67.1587 74.8203 67.2491 74.6168 67.4286C74.4133 67.6094 74.3115 67.8341 74.3115 68.104C74.3115 68.4044 74.4278 68.6426 74.6616 68.8172C74.8955 68.9931 75.2153 69.0798 75.6224 69.0798C76.0294 69.0798 76.3578 68.987 76.6655 68.8025C76.9732 68.6169 77.1961 68.3446 77.3354 67.9843L77.6928 69.0651C77.5232 69.5854 77.2155 69.9811 76.7697 70.2522C76.3226 70.5221 75.7459 70.6576 75.0408 70.6576H75.042ZM77.4857 70.538V68.9613L77.3367 68.6157V65.7921C77.3367 65.2914 77.1852 64.9006 76.8823 64.6209C76.5795 64.3413 76.1154 64.2008 75.4891 64.2008C75.0614 64.2008 74.6422 64.268 74.2303 64.4035C73.8184 64.5391 73.4683 64.7211 73.1799 64.9519L72.3452 63.3142C72.7826 63.004 73.3084 62.7634 73.925 62.5936C74.5405 62.4239 75.1668 62.3384 75.8029 62.3384C77.0241 62.3384 77.9727 62.629 78.6487 63.2091C79.3235 63.7905 79.6616 64.6966 79.6616 65.9277V70.538H77.4857Z" fill="#03559F"/>
<path d="M84.2338 70.6576C83.6075 70.6576 83.072 70.5502 82.6249 70.3352C82.1779 70.1203 81.835 69.8272 81.5964 69.4571C81.3577 69.0871 81.239 68.6706 81.239 68.2102C81.239 67.7498 81.3553 67.3089 81.5891 66.9487C81.8229 66.5884 82.1924 66.3051 82.6988 66.0999C83.2052 65.8947 83.8655 65.7921 84.6809 65.7921H86.8119V67.1587H84.9341C84.3877 67.1587 84.0121 67.2491 83.8086 67.4286C83.605 67.6094 83.5033 67.8341 83.5033 68.104C83.5033 68.4044 83.6196 68.6426 83.8534 68.8172C84.0872 68.9931 84.4071 69.0798 84.8141 69.0798C85.2212 69.0798 85.5495 68.987 85.8573 68.8025C86.165 68.6169 86.3879 68.3446 86.5272 67.9843L86.8846 69.0651C86.715 69.5854 86.4073 69.9811 85.9614 70.2522C85.5144 70.5221 84.9377 70.6576 84.2326 70.6576H84.2338ZM86.6774 70.538V68.9613L86.5284 68.6157V65.7921C86.5284 65.2914 86.377 64.9006 86.0741 64.6209C85.7712 64.3413 85.3072 64.2008 84.6809 64.2008C84.2532 64.2008 83.834 64.268 83.4221 64.4035C83.0102 64.5391 82.6601 64.7211 82.3717 64.9519L81.537 63.3142C81.9743 63.004 82.5001 62.7634 83.1168 62.5936C83.7322 62.4239 84.3586 62.3384 84.9946 62.3384C86.2159 62.3384 87.1645 62.629 87.8405 63.2091C88.5153 63.7905 88.8533 64.6966 88.8533 65.9277V70.538H86.6774Z" fill="#03559F"/>
<path d="M95.8256 62.3371C96.4616 62.3371 97.0298 62.4653 97.5314 62.7205C98.033 62.9758 98.4279 63.3666 98.7163 63.8917C99.0046 64.4169 99.1488 65.091 99.1488 65.9117V70.5378H96.8239V66.272C96.8239 65.621 96.6821 65.1411 96.3999 64.8297C96.1164 64.5195 95.7166 64.3644 95.2005 64.3644C94.8334 64.3644 94.5026 64.4425 94.2094 64.5976C93.9162 64.7527 93.6885 64.9909 93.5237 65.3108C93.3602 65.6308 93.2778 66.0424 93.2778 66.5419V70.5366H90.9529V59.3926H93.2778V64.6941L92.7568 64.0187C93.0452 63.4777 93.4571 63.0625 93.9938 62.7718C94.5305 62.4812 95.1411 62.3358 95.8268 62.3358L95.8256 62.3371Z" fill="#03559F"/>
<path d="M102.336 70.6575C101.919 70.6575 101.577 70.5219 101.308 70.252C101.04 69.9821 100.905 69.6609 100.905 69.2909C100.905 68.9208 101.04 68.5923 101.308 68.3371C101.575 68.0818 101.918 67.9536 102.336 67.9536C102.754 67.9536 103.108 68.0818 103.372 68.3371C103.635 68.5923 103.767 68.9099 103.767 69.2909C103.767 69.6719 103.635 69.9821 103.372 70.252C103.109 70.5219 102.764 70.6575 102.336 70.6575ZM101.413 66.8874L100.951 60.0239H103.722L103.261 66.8874H101.413Z" fill="#03559F"/>
<path d="M38.8965 75.4876V74.6376C38.8965 74.2554 38.6857 74.0429 38.3065 74.0429C37.9273 74.0429 37.7165 74.2554 37.7165 74.6376V78.5469C37.7165 78.9291 37.9273 79.1416 38.3065 79.1416C38.6857 79.1416 38.8965 78.9291 38.8965 78.5469V77.3415H38.2786V76.5342H39.8754V79.9489H39.4647L39.1521 79.6875C38.9159 79.8915 38.59 80.0038 38.1744 80.0038C37.2707 80.0038 36.7667 79.4958 36.7667 78.5847V74.6523C36.7667 73.7412 37.2707 73.2332 38.1744 73.2332H38.4676C39.3714 73.2332 39.8754 73.7412 39.8754 74.6523V75.4876H38.8965Z" fill="#4A4D54"/>
<path d="M43.3016 73.2844V74.0465H41.4795V76.0555H43.1392V76.8627H41.4795V79.1441H43.3016V79.9513H40.486V73.2918L43.3016 73.2844Z" fill="#4A4D54"/>
<path d="M46.2116 73.2881H47.2051V79.9476H46.0929L44.7469 74.8391V79.9476H43.7535V73.2881H45.114L46.2129 77.4514V73.2881H46.2116Z" fill="#4A4D54"/>
<path d="M50.6834 73.2844V74.0465H48.8612V76.0555H50.521V76.8627H48.8612V79.1441H50.6834V79.9513H47.8678V73.2918L50.6834 73.2844Z" fill="#4A4D54"/>
<path d="M53.0119 73.2881C53.8672 73.2881 54.3434 73.768 54.3434 74.6303V76.2008C54.3434 76.6893 54.1846 77.0508 53.8963 77.2767C54.1507 77.4221 54.2888 77.692 54.2888 78.073V79.9489H53.3754V78.073C53.3754 77.7323 53.1864 77.543 52.8496 77.543H52.1299V79.9489H51.1365V73.2893H53.0131L53.0119 73.2881ZM53.4287 74.877C53.4287 74.342 53.1318 74.0428 52.6012 74.0428H52.1275V76.765H52.6012C53.1331 76.765 53.4287 76.467 53.4287 75.9309V74.8757V74.877Z" fill="#4A4D54"/>
<path d="M57.2147 73.2881L58.3208 79.9476H57.2558L57.1226 79.0061H55.8359L55.7027 79.9476H54.6378L55.7439 73.2881H57.2159H57.2147ZM56.9893 78.0645L56.4914 74.5545C56.489 74.5399 56.4684 74.5399 56.4671 74.5545L55.9692 78.0645H56.9893Z" fill="#4A4D54"/>
<path d="M57.7901 73.2832H61.0382V74.0428H59.9115V79.9476H58.918V74.0428H57.7913V73.2832H57.7901Z" fill="#4A4D54"/>
<path d="M61.3011 79.9476V73.2881H62.2945V79.9476H61.3011Z" fill="#4A4D54"/>
<path d="M66.1059 74.844V78.3893C66.1059 79.425 65.5329 80.0014 64.5067 80.0014C63.4806 80.0014 62.9075 79.4237 62.9075 78.3893V74.844C62.9075 73.8084 63.4794 73.2319 64.5067 73.2319C65.5341 73.2319 66.1059 73.8084 66.1059 74.844ZM65.098 74.6401C65.098 74.2566 64.8859 74.0429 64.5055 74.0429C64.1251 74.0429 63.9131 74.2566 63.9131 74.6401V78.5432C63.9131 78.9267 64.1251 79.1404 64.5055 79.1404C64.8859 79.1404 65.098 78.9267 65.098 78.5432V74.6401Z" fill="#4A4D54"/>
<path d="M69.1698 73.2881H70.1633V79.9476H69.0511L67.7051 74.8391V79.9476H66.7117V73.2881H68.0722L69.171 77.4514V73.2881H69.1698Z" fill="#4A4D54"/>
<path d="M76.1216 73.2881V78.3893C76.1216 79.4249 75.5485 80.0014 74.5224 80.0014C73.4962 80.0014 72.9232 79.4237 72.9232 78.3893V73.2881H73.9311V78.5432C73.9311 78.9267 74.1432 79.1404 74.5236 79.1404C74.904 79.1404 75.116 78.9267 75.116 78.5432V73.2881H76.124H76.1216Z" fill="#4A4D54"/>
<path d="M79.2133 73.2881H80.2067V79.9476H79.0946L77.7486 74.8391V79.9476H76.7551V73.2881H78.1157L79.2145 77.4514V73.2881H79.2133Z" fill="#4A4D54"/>
<path d="M83.8219 79.1404V79.9476H80.8707V73.2881H81.8641V79.1404H83.8219Z" fill="#4A4D54"/>
<path d="M84.0606 79.9476V73.2881H85.0541V79.9476H84.0606Z" fill="#4A4D54"/>
<path d="M90.2551 73.2881V79.9476H89.2616V75.523L88.3736 79.9476H87.6055L86.7174 75.523V79.9476H85.724V73.2881H87.2687L87.9907 77.9387L88.7128 73.2881H90.2575H90.2551Z" fill="#4A4D54"/>
<path d="M90.9238 79.9476V73.2881H91.9173V79.9476H90.9238Z" fill="#4A4D54"/>
<path d="M92.179 73.2832H95.427V74.0428H94.3003V79.9476H93.3069V74.0428H92.1802V73.2832H92.179Z" fill="#4A4D54"/>
<path d="M98.5067 73.2844V74.0465H96.6846V76.0555H98.3444V76.8627H96.6846V79.1441H98.5067V79.9513H95.6912V73.2918L98.5067 73.2844Z" fill="#4A4D54"/>
<path d="M102.201 74.9698C102.201 74.9698 102.247 77.1729 102.201 78.2574C102.165 79.3431 101.601 79.9476 100.524 79.9476H98.9562V73.2795H100.524C101.601 73.2795 102.165 73.8841 102.201 74.9698ZM101.29 74.8904C101.29 74.3469 100.989 74.0428 100.449 74.0428H99.8091V79.1404H100.449C100.988 79.1404 101.29 78.8375 101.29 78.2928V74.8892V74.8904Z" fill="#4A4D54"/>
</g>
<defs>
<clipPath id="clip0_2944_3475">
<rect width="97" height="96" fill="white" transform="translate(21 22)"/>
</clipPath>
</defs>
</svg>
