<svg width="140" height="140" viewBox="0 0 140 140" fill="none" xmlns="http://www.w3.org/2000/svg">
<rect width="140" height="140" rx="30" fill="#0277C7"/>
<g clip-path="url(#clip0_698_62)">
<path d="M60.0019 69.4168C59.9658 64.1173 64.3456 59.9483 69.521 60.0005C74.5289 60.0508 79.2339 64.0546 78.8776 70.146C78.6072 74.766 74.7488 78.871 69.4139 78.8859C64.2054 78.9008 59.8966 74.5747 60.0019 69.4162V69.4168ZM69.4587 74.8716C72.5639 74.9629 74.9338 72.3324 74.9338 69.4566C74.9338 66.5112 72.5427 64.0124 69.4463 63.9906C66.4869 63.9695 64.021 66.459 63.9618 69.3578C63.9014 72.3436 66.4956 75.0244 69.4587 74.8716Z" fill="white"/>
<path d="M42.9055 67.5463C43.5167 68.427 44.1248 69.3078 44.7391 70.1848C45.3889 71.1134 46.0487 72.0352 46.696 72.965C47.2499 73.7607 47.8062 74.5551 48.3364 75.3663C48.6728 75.8812 49.0273 76.4005 49.2604 76.9638C49.6298 77.8576 49.4086 78.8477 48.2511 79.2223C47.1595 79.5751 45.9652 78.9515 45.4176 78.0005C45.0637 77.385 44.6681 76.793 44.2886 76.1924C43.936 75.634 43.5846 75.075 43.2252 74.5216C42.804 73.8737 42.3741 73.2315 41.948 72.5861C41.5679 72.0103 41.1854 71.4364 40.8097 70.8581C40.6919 70.6768 40.5948 70.483 40.4876 70.2954C40.3742 70.0973 40.2515 70.0258 40.0558 70.2209C39.2683 71.006 38.522 71.8433 37.6628 72.542C37.1326 72.9731 37.0778 73.4346 37.0815 74.0209C37.089 75.2607 37.0859 76.5023 37.0143 77.7396C36.98 78.3285 36.6541 78.7974 36.0853 79.1024C35.3801 79.48 34.7452 79.3459 34.1209 78.9633C33.5858 78.6353 33.4063 78.0837 33.3646 77.5117C33.3129 76.8017 33.3353 76.0856 33.3359 75.3725C33.3366 70.8234 33.3216 66.2736 33.3596 61.7244C33.3665 60.9393 33.6612 60.1722 34.562 59.9343C35.7875 59.6114 36.8909 60.1126 37.0111 61.4505C37.1357 62.8363 37.079 64.2388 37.0884 65.6338C37.0946 66.5643 37.0753 67.4947 37.0766 68.4246C37.0766 68.5146 37.1389 68.6047 37.1725 68.6948C37.2441 68.6469 37.3276 68.6097 37.3862 68.5494C37.917 68.0009 38.4441 67.4488 38.9705 66.8966C39.568 66.2699 40.1618 65.6388 40.7617 65.0146C41.0764 64.6878 41.4059 64.3754 41.7212 64.0499C42.057 63.7027 42.381 63.3431 42.7161 62.9953C43.0445 62.6543 43.3815 62.3213 43.713 61.9828C43.994 61.6959 44.2693 61.4027 44.5534 61.1188C44.8811 60.7915 45.1908 60.4399 45.5534 60.1561C46.0562 59.7635 46.663 59.776 47.2449 59.9201C48.6535 60.2685 48.6965 61.9754 47.8237 62.8288C46.9757 63.6574 46.1253 64.4829 45.2649 65.2978C44.6967 65.8357 44.1049 66.3494 43.5323 66.8829C43.3155 67.0848 43.1242 67.3134 42.9068 67.5457L42.9055 67.5463Z" fill="white"/>
<path d="M22.3698 59.7485C22.4166 59.7485 22.4627 59.7504 22.5094 59.7548C22.8589 59.7846 24.4096 59.9262 25.1896 60.1504C26.536 60.538 27.7203 61.2312 28.5222 62.4616C29.0031 63.2002 29.2336 63.9747 29.0567 64.8312C28.8237 65.9592 27.6668 66.3934 26.6786 65.9108C26.5727 65.8592 26.4755 65.7592 26.4107 65.6586C26.131 65.2275 25.8556 64.7934 25.5952 64.3505C25.0357 63.4008 24.3566 62.6641 23.1567 62.5033C22.1499 62.3685 21.1867 62.4275 20.2603 62.797C19.5008 63.0995 18.8055 63.8896 18.7949 64.6424C18.7862 65.289 19.094 65.8033 19.5949 66.1356C20.0858 66.4611 20.6441 66.7213 21.2085 66.894C22.3007 67.2282 23.4296 67.4443 24.5224 67.776C25.7136 68.1375 26.9204 68.4853 27.9552 69.2251C29.0611 70.0152 29.7177 71.0512 29.9046 72.4221C30.0729 73.6538 29.9046 74.8122 29.3682 75.9072C29.005 76.6482 28.4623 77.2625 27.777 77.76C26.9079 78.3905 25.9615 78.8234 24.9118 79.0191C23.4551 79.2905 21.9885 79.339 20.5244 79.0806C19.9481 78.9787 19.3656 78.8607 18.8174 78.6625C18.0672 78.3917 17.3732 77.9886 16.7994 77.4259C15.9066 76.5507 15.2188 75.5408 15.0375 74.278C14.9073 73.373 15.0936 72.6624 15.9571 72.2481C16.7707 71.8581 17.724 72.2363 18.1121 73.0879C18.347 73.6028 18.552 74.1358 18.8336 74.6246C19.3426 75.5091 20.0248 76.1824 21.0964 76.3905C22.3081 76.6259 23.4788 76.5594 24.6283 76.1066C25.5684 75.7364 26.2257 74.6755 26.2587 73.655C26.2967 72.4736 25.3348 71.6953 24.5224 71.4177C23.6663 71.1245 22.7879 70.896 21.9188 70.6419C20.9612 70.3618 19.988 70.127 19.0491 69.7953C17.9657 69.4127 16.9726 68.84 16.2648 67.9083C15.6948 67.158 15.4001 66.2984 15.359 65.335C15.3129 64.2424 15.5434 63.2275 16.1577 62.3436C16.7228 61.5306 17.4997 60.938 18.433 60.5411C19.2105 60.2107 20.0123 59.992 20.8422 59.8976C21.2708 59.8485 21.973 59.779 22.2091 59.756C22.2627 59.7504 22.3162 59.7479 22.3704 59.7479L22.3698 59.7485Z" fill="white"/>
<path d="M89.9319 67.1518C89.9319 67.1518 89.9281 63.389 89.9338 61.5076C89.9362 60.6685 90.7462 59.8287 91.6365 59.8461C92.4028 59.861 93.0395 60.0504 93.3691 60.7914C93.4912 61.0666 93.5759 61.384 93.5772 61.6828C93.5952 64.9493 93.5859 68.2164 93.6009 71.4836C93.6058 72.4985 93.7267 73.5116 94.1479 74.4414C94.3391 74.8644 94.6669 75.27 95.0307 75.5625C96.1596 76.4687 97.4966 76.4514 98.8467 76.2774C99.071 76.2489 99.2971 76.2122 99.5127 76.1489C100.738 75.7886 101.399 74.9488 101.736 73.7339C102.009 72.7476 102.02 71.7625 102.019 70.7643C102.018 67.8698 102.009 64.9748 102.028 62.0803C102.031 61.6561 102.116 61.2113 102.266 60.8138C102.491 60.2126 102.989 59.9119 103.635 59.8604C104.313 59.8057 104.897 59.9573 105.342 60.5219C105.723 61.0051 105.763 61.5778 105.768 62.1362C105.792 64.5139 105.793 66.8916 105.774 69.2692C105.763 70.6426 105.759 72.0208 105.64 73.3873C105.463 75.4234 104.567 77.098 102.794 78.2067C102.069 78.6595 101.274 78.9707 100.403 79.0912C99.4897 79.2172 98.5838 79.411 97.6573 79.3396C96.4605 79.2477 95.2481 79.1719 94.1099 78.7812C92.8402 78.3452 91.7524 77.6346 91.0371 76.4246C90.5287 75.565 90.1462 74.6538 90.082 73.6836C89.9381 71.5115 89.935 67.6425 89.935 67.6425L89.9331 67.1524L89.9319 67.1518Z" fill="white"/>
<path d="M118.804 70.6643C118.804 72.9799 118.814 75.296 118.799 77.6116C118.794 78.3694 118.344 79.0005 117.554 79.2197C116.639 79.4738 115.749 79.1359 115.351 78.2967C115.244 78.07 115.179 77.8048 115.169 77.5545C115.14 76.8837 115.146 76.211 115.146 75.5389C115.145 71.5997 115.146 67.6605 115.146 63.7213C115.146 63.4 114.986 63.2393 114.664 63.2393C113.315 63.2393 111.965 63.2598 110.617 63.2312C109.227 63.2014 108.647 62.0983 109.165 60.9088C109.329 60.5343 109.716 60.3163 110.099 60.2598C110.752 60.1647 111.418 60.1287 112.078 60.1268C115.71 60.1175 119.342 60.125 122.974 60.1312C123.507 60.1324 124.038 60.1908 124.466 60.5461C124.641 60.6908 124.831 60.8803 124.892 61.0852C125.241 62.2741 124.742 63.1499 123.454 63.2188C122.068 63.2927 120.674 63.2387 119.283 63.2412C118.832 63.2418 118.825 63.248 118.825 63.6853C118.825 66.0114 118.825 68.3375 118.825 70.6643C118.818 70.6643 118.811 70.6643 118.804 70.6643H118.804Z" fill="white"/>
<path d="M69.553 87C64.8641 87 60.4563 85.1795 57.1412 81.8744C53.8261 78.5694 52 74.1743 52 69.5003C52 64.8263 53.8261 60.4312 57.1412 57.1262C60.4563 53.8205 64.8641 52 69.553 52C74.2419 52 78.6497 53.8205 81.9648 57.1256C85.2799 60.4306 87.106 64.8257 87.106 69.4997C87.106 74.1737 85.2799 78.5688 81.9648 81.8738C78.6497 85.1788 74.2412 86.9994 69.553 86.9994V87ZM69.553 56.0995C62.1415 56.0995 56.1119 62.1107 56.1119 69.4997C56.1119 76.8886 62.1415 82.8999 69.553 82.8999C76.9645 82.8999 82.9941 76.8886 82.9941 69.4997C82.9941 62.1107 76.9645 56.0995 69.553 56.0995Z" fill="#00B1D6"/>
<circle cx="69.5" cy="69.5" r="2.5" fill="#00AFD8"/>
</g>
<defs>
<clipPath id="clip0_698_62">
<rect width="110" height="35" fill="white" transform="translate(15 52)"/>
</clipPath>
</defs>
</svg>
