<svg width="140" height="140" viewBox="0 0 140 140" fill="none" xmlns="http://www.w3.org/2000/svg">
<rect width="140" height="140" rx="30" fill="white"/>
<path d="M79.2083 49.0578C79.2083 56.9758 76.0489 64.5695 70.4251 70.1684C64.8014 75.7673 57.174 78.9127 49.2208 78.9127C41.2677 78.9127 33.6402 75.7673 28.0165 70.1684C22.3928 64.5695 19.2334 56.9758 19.2334 49.0578C19.2334 41.1398 22.3928 33.5461 28.0165 27.9472C33.6402 22.3483 41.2677 19.2029 49.2208 19.2029C57.174 19.2029 64.8014 22.3483 70.4251 27.9472C76.0489 33.5461 79.2083 41.1398 79.2083 49.0578Z" fill="#00B7F0"/>
<path d="M121 91.9318C121 95.8538 120.224 99.7373 118.716 103.361C117.209 106.984 114.999 110.276 112.214 113.05C109.428 115.823 106.121 118.023 102.482 119.524C98.8422 121.025 94.9414 121.797 91.0021 121.797C83.0462 121.797 75.4162 118.651 69.7905 113.05C64.1649 107.449 61.0044 99.8526 61.0044 91.9318C61.0044 84.0111 64.1649 76.4148 69.7905 70.814C75.4162 65.2132 83.0462 62.0667 91.0021 62.0667C94.9414 62.0667 98.8422 62.8391 102.482 64.34C106.121 65.8409 109.428 68.0407 112.214 70.814C114.999 73.5872 117.209 76.8795 118.716 80.5029C120.224 84.1263 121 88.0099 121 91.9318Z" fill="#00B7F0"/>
<path opacity="0.05" fill-rule="evenodd" clip-rule="evenodd" d="M19.3428 51.612C19.8086 57.2529 21.865 62.6465 25.2737 67.1678C28.6825 71.6891 33.304 75.153 38.6028 77.1582C43.9017 79.1634 49.6608 79.6277 55.213 78.4974C60.7652 77.3672 65.8831 74.6885 69.9737 70.7718C74.0643 66.8552 76.9602 61.8609 78.3256 56.3677C79.6911 50.8744 79.4704 45.1072 77.689 39.7341C75.9076 34.3611 72.6385 29.6022 68.2605 26.009C63.8825 22.4157 58.5748 20.1352 52.9524 19.4316C45.3183 21.9825 38.3448 26.1914 32.5335 31.7556C26.7221 37.3198 22.2173 44.1012 19.3428 51.612V51.612Z" fill="#00B7F0"/>
<path opacity="0.05" fill-rule="evenodd" clip-rule="evenodd" d="M120.922 89.788C120.53 84.0784 118.51 78.6003 115.099 74.0016C111.689 69.403 107.031 65.8763 101.677 63.8386C96.3231 61.801 90.4969 61.3377 84.8877 62.5035C79.2785 63.6693 74.1208 66.4154 70.0249 70.4171C65.929 74.4188 63.0661 79.5086 61.775 85.0844C60.4838 90.6602 60.8184 96.4887 62.7392 101.881C64.6599 107.272 68.0865 112.002 72.6135 115.51C77.1405 119.017 82.5786 121.157 88.2845 121.674C95.71 119.033 102.474 114.814 108.108 109.309C113.743 103.803 118.115 97.1418 120.922 89.7846V89.788Z" fill="#00B7F0"/>
<path opacity="0.1" fill-rule="evenodd" clip-rule="evenodd" d="M20.7461 58.4385C22.3212 63.2515 25.0926 67.5869 28.8011 71.0391C32.5096 74.4913 37.034 76.9477 41.9513 78.1784C46.8685 79.4091 52.0179 79.3739 56.9179 78.0762C61.8179 76.7785 66.3083 74.2606 69.9692 70.7581C73.6301 67.2556 76.3419 62.8828 77.851 58.0487C79.3601 53.2147 79.6171 48.0773 78.5981 43.117C77.5791 38.1568 75.3173 33.5357 72.0242 29.686C68.7312 25.8363 64.5144 22.8838 59.7684 21.1045C50.4157 23.0508 41.7986 27.5827 34.8992 34.1836C27.9998 40.7845 23.0958 49.1888 20.7461 58.4385V58.4385Z" fill="#00B7F0"/>
<path opacity="0.1" fill-rule="evenodd" clip-rule="evenodd" d="M119.559 82.7702C118.007 77.9002 115.233 73.508 111.502 70.0114C107.77 66.5148 103.205 64.0301 98.2406 62.7938C93.2761 61.5575 88.0775 61.6107 83.1395 62.9484C78.2015 64.2861 73.6882 66.8637 70.0293 70.4359C66.3703 74.0082 63.6873 78.4563 62.2357 83.357C60.784 88.2577 60.6119 93.4479 61.7357 98.4338C62.8595 103.42 65.242 108.035 68.6563 111.842C72.0705 115.648 76.4031 118.518 81.2417 120.179C90.4747 118.11 98.9489 113.514 105.716 106.907C112.483 100.301 117.276 91.9431 119.559 82.7702V82.7702Z" fill="#00B7F0"/>
<path opacity="0.1" fill-rule="evenodd" clip-rule="evenodd" d="M21.8496 61.27C23.8007 65.6615 26.7815 69.5193 30.5399 72.5175C34.2984 75.5158 38.7241 77.5662 43.4432 78.4956C48.1622 79.4251 53.0359 79.2062 57.6524 77.8575C62.2689 76.5088 66.4926 74.0699 69.9665 70.7468C73.4404 67.4238 76.0625 63.3143 77.6112 58.7656C79.1599 54.2169 79.5898 49.3627 78.8644 44.6131C78.139 39.8635 76.2796 35.3581 73.4436 31.4776C70.6075 27.5971 66.8779 24.4555 62.5701 22.3184C52.6075 23.8674 43.3607 28.433 36.0786 35.3988C28.7966 42.3645 23.83 51.3948 21.8496 61.27V61.27Z" fill="#00B7F0"/>
<path opacity="0.1" fill-rule="evenodd" clip-rule="evenodd" d="M118.453 79.8804C116.512 75.4379 113.52 71.5326 109.735 68.4999C105.949 65.4672 101.483 63.3977 96.7206 62.4692C91.9579 61.5408 87.0407 61.7811 82.3915 63.1696C77.7424 64.5581 73.5001 67.0532 70.0292 70.4406C66.5583 73.828 63.9626 78.0065 62.4649 82.617C60.9673 87.2275 60.6125 92.1323 61.4311 96.91C62.2497 101.688 64.2171 106.195 67.1645 110.046C70.1118 113.897 73.951 116.975 78.352 119.017C88.2274 117.341 97.3563 112.696 104.521 105.704C111.686 98.7115 116.546 89.7031 118.453 79.8804V79.8804Z" fill="#00B7F0"/>
<path d="M117.617 70.7222C117.617 76.9319 116.389 83.0807 114.002 88.8177C111.615 94.5546 108.116 99.7674 103.706 104.158C99.2955 108.549 94.0596 112.032 88.2971 114.409C82.5347 116.785 76.3585 118.008 70.1213 118.008C63.884 118.008 57.7079 116.785 51.9454 114.409C46.183 112.032 40.9471 108.549 36.5367 104.158C32.1263 99.7674 28.6278 94.5546 26.2409 88.8177C23.854 83.0807 22.6255 76.9319 22.6255 70.7222C22.6255 64.5126 23.854 58.3637 26.2409 52.6268C28.6278 46.8898 32.1263 41.6771 36.5367 37.2862C40.9471 32.8953 46.183 29.4123 51.9454 27.0359C57.7079 24.6596 63.884 23.4365 70.1213 23.4365C76.3585 23.4365 82.5347 24.6596 88.2971 27.0359C94.0596 29.4123 99.2955 32.8953 103.706 37.2862C108.116 41.6771 111.615 46.8898 114.002 52.6268C116.389 58.3637 117.617 64.5126 117.617 70.7222Z" fill="#00B7F0"/>
<path fill-rule="evenodd" clip-rule="evenodd" d="M56.7666 69.081C54.8472 67.8191 53.2456 66.1315 52.0865 64.1496C50.9675 62.0558 50.4152 59.7064 50.4843 57.334C50.3995 54.3231 51.4282 51.3865 53.3738 49.0854C55.3958 46.7745 57.9946 45.04 60.9058 44.0583C64.0719 42.941 67.4079 42.3798 70.7658 42.3997C72.9627 42.3789 75.1574 42.5471 77.3254 42.9024C78.8772 43.1417 80.4014 43.5347 81.8754 44.0754C83.2289 44.533 84.4508 45.3122 85.4359 46.3461C86.1618 47.1967 86.5525 48.2824 86.5349 49.4C86.5608 49.9806 86.4719 50.5606 86.2734 51.1069C86.0748 51.6532 85.7705 52.1551 85.3777 52.5838C85.0061 52.979 84.555 53.2911 84.0541 53.4998C83.5531 53.7084 83.0137 53.8088 82.4711 53.7945C81.7246 53.7883 80.988 53.6227 80.3108 53.3088C78.6417 52.5626 76.9222 51.9341 75.1651 51.428C73.5477 51.0019 71.8803 50.7949 70.2077 50.8124C68.0277 50.7323 65.871 51.2833 63.9973 52.3992C63.2066 52.8791 62.5594 53.5623 62.1234 54.3774C61.6874 55.1926 61.4785 56.1097 61.5186 57.033C61.5071 58.2453 61.9688 59.4143 62.8059 60.2921C63.8005 61.3233 64.976 62.1636 66.274 62.7715C67.7279 63.4919 69.8962 64.4472 72.7788 65.6373C73.0981 65.7382 73.4094 65.8628 73.7101 66.01C76.5232 67.1216 79.2203 68.5064 81.7624 70.1446C83.7702 71.4522 85.4631 73.1877 86.7198 75.2264C87.9572 77.3691 88.5769 79.8121 88.5104 82.2849C88.6142 85.3126 87.7456 88.2941 86.0317 90.7934C84.2863 93.1597 81.8717 94.9499 79.0988 95.9333C75.7569 97.1261 72.2255 97.7008 68.6774 97.6296C63.8016 97.8 58.9492 96.8829 54.4728 94.945C53.3284 94.4359 52.325 93.6566 51.549 92.6743C50.9048 91.774 50.5707 90.6891 50.5973 89.5828C50.5653 88.9993 50.6604 88.4158 50.8762 87.8726C51.0919 87.3294 51.4231 86.8394 51.8469 86.4365C52.7353 85.6594 53.8886 85.253 55.0685 85.3012C56.3831 85.319 57.6744 85.6509 58.8345 86.269C60.277 86.9894 61.4147 87.5297 62.2478 87.8899C63.1992 88.2878 64.1847 88.5992 65.1921 88.8201C66.4344 89.0923 67.7035 89.2231 68.9752 89.21C71.2242 89.3704 73.4622 88.7745 75.3329 87.5172C76.0331 86.9698 76.5928 86.2637 76.9655 85.4573C77.3382 84.6509 77.5132 83.7674 77.476 82.8799C77.4782 81.6216 76.998 80.4101 76.134 79.4943C74.9922 78.3169 73.6557 77.3451 72.1831 76.6217C70.4417 75.7052 67.9926 74.588 64.8361 73.2703C62.0129 72.1465 59.3096 70.7431 56.7666 69.081" fill="white"/>
</svg>
