<svg width="140" height="140" viewBox="0 0 140 140" fill="none" xmlns="http://www.w3.org/2000/svg">
<rect width="140" height="140" rx="30" fill="url(#paint0_linear_671_18869)"/>
<g clip-path="url(#clip0_671_18869)">
<path d="M36.8485 75.8759C36.8485 73.1345 36.8299 70.3932 36.8547 67.6549C36.8701 65.9545 38.5852 64.3366 40.1364 64.8189C41.4621 65.2341 42.0029 66.5132 42.9084 65.6431C44.5647 64.0466 47.5622 64.5777 49.166 65.9789C49.6234 66.3788 49.9849 66.2842 50.4824 65.985C55.4546 62.972 61.3692 65.521 62.5991 71.2266C62.8216 72.2553 62.8401 73.336 62.8525 74.3923C62.8834 77.5121 62.871 80.6351 62.8618 83.755C62.8587 85.669 61.5824 86.9909 59.7685 86.9939C57.9391 86.997 56.7215 85.7179 56.7123 83.7489C56.6999 80.5893 56.7339 77.4297 56.6875 74.2701C56.6752 73.4887 56.4774 72.701 56.2704 71.9379C56.0664 71.1869 55.5225 70.8877 54.7036 70.8999C53.8446 70.9152 53.415 71.3914 53.2203 72.0783C53.0349 72.7255 52.9422 73.4215 52.936 74.0961C52.9082 77.2924 52.9268 80.4916 52.9237 83.6878C52.9237 85.669 51.6413 87.0122 49.7779 86.997C47.9794 86.9817 46.768 85.6843 46.7556 83.697C46.7371 80.5374 46.7649 77.3778 46.7402 74.2183C46.734 73.5405 46.6599 72.8445 46.4806 72.1943C46.2674 71.4158 45.7946 70.8816 44.8335 70.8999C43.8725 70.9183 43.4306 71.4555 43.2421 72.2462C43.0845 72.9056 42.9887 73.5924 42.9856 74.2701C42.9609 77.4664 42.9794 80.6656 42.9702 83.8618C42.9671 85.6874 41.6754 86.997 39.9016 86.997C38.1278 86.997 36.8516 85.6996 36.8485 83.8649C36.8423 81.1998 36.8485 78.5348 36.8485 75.8698V75.8759Z" fill="white"/>
<path d="M114.746 86.7344C111.282 86.7283 108.887 85.6568 107.15 83.3062C106.05 81.8195 106.229 80.0917 107.515 79.1453C108.908 78.1226 110.491 78.4493 111.699 80.0123C112.802 81.4349 115.633 81.5325 116.841 80.1893C117.437 79.5269 117.564 78.9164 116.612 78.489C115.673 78.0677 114.696 77.7227 113.751 77.3137C112.459 76.752 111.053 76.3429 109.919 75.5523C106.047 72.8506 106.344 67.5694 110.466 65.2493C113.21 63.7046 116.087 63.5886 118.967 64.9379C120.75 65.7713 121.402 67.3129 120.747 68.8424C120.157 70.2161 118.241 70.9732 116.523 70.0787C115.79 69.6971 114.647 69.6422 113.84 69.8772C113.562 69.9566 113.096 70.2741 113.052 70.5458C113.015 70.7778 113.395 71.1899 113.689 71.3395C114.224 71.6173 114.839 71.7424 115.404 71.9683C116.717 72.4873 118.105 72.8903 119.316 73.5863C124.109 76.3429 124.242 82.0607 119.641 85.1714C118.003 86.2765 116.195 86.8016 114.752 86.7344H114.746Z" fill="white"/>
<path d="M25.5939 86.7436C21.7991 86.71 19.3795 85.611 17.6675 83.181C16.589 81.6516 16.8424 80.055 18.233 79.0751C19.5587 78.141 21.2182 78.4066 22.2256 79.9329C23.2639 81.502 26.1965 81.3158 27.2224 80.4336C28.1 79.6765 28.0753 78.9042 27.037 78.3913C26.1532 77.9548 25.2107 77.6098 24.262 77.3198C22.4821 76.7703 20.801 76.0743 19.4877 74.6944C17.068 72.1546 17.3461 68.0639 20.0933 65.8904C22.7725 63.7718 26.8547 63.439 29.8522 65.0967C31.5023 66.0094 32.0648 67.5541 31.2768 69.0072C30.5135 70.4145 28.9746 70.7412 27.2811 70.1428C26.3973 69.8284 25.3528 69.9017 24.3825 69.92C24.1044 69.9261 23.8325 70.3474 23.5574 70.5794C23.7738 70.8266 23.9468 71.1655 24.2218 71.3059C24.7626 71.5807 25.3683 71.7211 25.9307 71.9562C27.4418 72.5881 29.0425 73.0826 30.43 73.9191C35.0437 76.694 34.0054 82.0515 31.0295 84.5761C29.231 86.0994 27.1359 86.8138 25.5939 86.7466V86.7436Z" fill="white"/>
<path d="M82.985 70.5396C82.985 74.8776 82.9943 79.2185 82.9819 83.5565C82.9757 85.4614 81.8973 86.7802 80.2656 86.9481C78.1149 87.1679 76.681 85.8277 76.6656 83.5168C76.6408 79.71 76.6563 75.9033 76.6563 72.0965C76.6563 67.2244 76.6347 62.3522 76.6656 57.4801C76.6841 54.7509 79.1655 53.1727 81.3812 54.4457C82.5617 55.1264 82.9912 56.2071 82.9881 57.5198C82.9757 61.8577 82.985 66.1987 82.985 70.5366V70.5396Z" fill="white"/>
<path d="M94.7279 75.9339C93.0747 75.9339 91.4183 75.9339 89.7651 75.9339C86.9962 75.9339 85.9919 74.9051 86.1155 72.2004C86.2731 68.7295 88.7916 65.3776 92.0827 64.2542C96.7613 62.6576 102.021 65.6981 103.093 70.6466C103.254 71.3823 103.334 72.1455 103.343 72.8964C103.371 74.7617 102.277 75.8851 100.386 75.9217C98.501 75.9583 96.616 75.9309 94.731 75.9309L94.7279 75.9339ZM98.1395 70.8206C97.6574 69.5445 96.3904 68.8333 94.6723 68.8485C93.0314 68.8638 91.7613 69.6117 91.3472 70.8206H98.1395Z" fill="white"/>
<path d="M72.9572 75.9064C72.9572 78.4554 72.9942 81.0044 72.9448 83.5504C72.9046 85.6049 71.7767 86.8626 70.0091 86.9817C68.2292 87.1007 66.715 85.8552 66.7026 84.0908C66.6593 78.6538 66.6686 73.2139 66.6964 67.777C66.7057 66.1254 68.0777 64.7914 69.6847 64.7242C71.1587 64.6632 72.7254 65.8141 72.7965 67.3587C72.9324 70.2008 72.8336 73.0551 72.8336 75.9033C72.8737 75.9033 72.9139 75.9033 72.951 75.9033L72.9572 75.9064Z" fill="white"/>
<path d="M94.8667 86.9543C91.4953 86.9726 88.8254 85.8217 86.9774 83.0956C85.9329 81.554 86.2172 79.9421 87.6109 78.9775C89.088 77.9548 90.63 78.257 91.8198 79.8017C93.232 81.6334 96.2573 81.6028 97.6881 79.7407C98.8098 78.2784 100.37 77.9823 101.826 78.9531C103.192 79.8628 103.559 81.4746 102.58 82.9674C100.757 85.7484 98.0682 86.9695 94.8667 86.9512V86.9543Z" fill="white"/>
<path d="M66.6871 58.4753C66.6747 56.836 68.0653 55.4256 69.7371 55.392C71.4336 55.3554 72.9355 56.8055 72.9231 58.4692C72.9108 60.1146 71.514 61.525 69.8576 61.5585C68.1549 61.5921 66.6995 60.1787 66.6871 58.4753Z" fill="white"/>
</g>
<defs>
<linearGradient id="paint0_linear_671_18869" x1="13.5" y1="1.83071e-06" x2="126.5" y2="140" gradientUnits="userSpaceOnUse">
<stop stop-color="#83509B"/>
<stop offset="0.495" stop-color="#BA536D"/>
<stop offset="1" stop-color="#DA3B25"/>
</linearGradient>
<clipPath id="clip0_671_18869">
<rect width="106" height="33" fill="white" transform="translate(17 54)"/>
</clipPath>
</defs>
</svg>
