<svg width="140" height="140" viewBox="0 0 140 140" fill="none" xmlns="http://www.w3.org/2000/svg">
<rect width="140" height="140" rx="30" fill="black"/>
<g clip-path="url(#clip0_3612_859)">
<path d="M94.2488 60.6353L95.4712 56.3191L110.279 56.3263C113.763 56.6687 115.249 59.1747 114.594 62.5246L110.54 77.2563L95.0352 77.2276C90.133 76.2317 90.4575 70.8819 93.2151 67.7297C97.1933 63.1816 102.717 65.2489 107.949 64.7707C109.52 64.6269 111.096 62.4868 110.042 61.1431C109.916 60.9822 109.274 60.6362 109.112 60.6362H94.2479L94.2488 60.6353ZM108.707 68.7184C108.269 68.7885 107.858 68.9548 107.408 68.9907C104.325 69.2361 100.95 68.7669 97.836 69.0276C95.8487 69.2478 94.4654 72.4908 96.9875 73.0292L107.481 73.0328L108.707 68.7184Z" fill="#FAFAFA"/>
<path d="M93.7993 56.3245L89.7097 71.3196C88.9052 76.1265 79.6716 80.1964 77.4111 74.7343C76.1033 71.5749 78.9678 65.9644 79.5503 62.5974C80.0464 59.7311 76.0385 60.4753 75.4076 62.4958L71.3745 76.9642L71.2119 77.251H67.1258L71.4581 61.7795C72.7929 56.8548 82.5901 53.3575 83.8943 59.8991C84.439 62.6307 82.1479 67.8654 81.5403 70.7839C81.3362 71.7663 81.4567 72.8072 82.6395 73.0076C83.915 73.2242 85.0331 72.3901 85.5167 71.2576L89.5074 56.4782L89.6225 56.3245H93.7984H93.7993Z" fill="#FAFAFA"/>
<path d="M70.8973 56.3245L69.7603 60.6397L55.2272 60.637C54.2466 60.7179 53.2659 61.3093 52.8704 62.2315C52.3446 63.4575 52.8525 64.6467 54.2349 64.7707C57.2127 65.0377 63.4415 64.0031 65.7192 65.6803C69.3576 68.3597 67.2948 73.4794 64.2828 75.7085C63.5188 76.2739 61.634 77.2509 60.7055 77.2509H45.1235L46.2578 73.0417L60.9743 73.0291C63.3148 72.7927 64.3889 69.2163 61.6969 68.9853C58.8548 68.7417 55.6595 69.2064 52.7985 68.9916C49.3704 68.7345 47.7022 65.5878 48.5615 62.4131C49.2913 59.7175 52.6655 56.3254 55.5858 56.3254H70.8982L70.8973 56.3245Z" fill="#FAFAFA"/>
<path d="M39.815 62.8722C38.8605 63.1644 37.9706 63.6317 37.1752 64.2277C36.4624 62.6655 35.5249 61.3577 34.067 60.4175C27.662 56.2874 19.6616 63.0241 22.9234 70.0359C25.8392 76.3025 35.0261 75.5349 37.2165 69.1209C38.2034 69.0274 39.1894 68.8728 40.1817 68.8989C38.5854 77.6112 27.3465 80.2618 21.6354 73.659C13.2511 63.9661 26.6877 50.6275 36.5801 58.264C38.0102 59.3677 39.4168 61.0944 39.815 62.8713V62.8722Z" fill="#FAFAFA"/>
<path d="M122 56.3245L116.342 77.25H112.121L117.689 56.3245H122Z" fill="#FAFAFA"/>
<path d="M22.6699 68.5377L23.8824 68.3597C28.2525 68.1494 34.7312 67.9687 38.8155 66.5881C41.8194 65.5733 39.8815 64.2035 37.8088 64.2287C37.7234 64.2341 37.7405 64.0462 37.7549 64.0022C37.7782 63.9285 38.9584 63.382 39.131 63.311C40.152 62.8966 40.472 62.9677 41.5452 63.1771C42.3991 63.3443 44.088 63.7874 44.5671 64.5559C45.6106 66.2313 42.889 67.0384 41.7457 67.362C36.8129 68.7597 28.4979 68.9592 23.3377 68.6303C23.1103 68.6159 22.8964 68.5341 22.6681 68.5359L22.6699 68.5377Z" fill="#EC960F"/>
<path d="M111.312 80.3034C111.325 79.9753 111.325 79.3929 111.718 79.3183C112.172 79.232 114.082 79.2589 114.59 79.3156C116.57 79.5358 114.821 82.59 114.735 83.754C114.643 83.8897 111.794 83.8447 111.468 83.7854C109.961 83.5113 110.541 81.3199 111.993 81.1195C112.452 81.0566 114.311 81.2633 114.501 80.9334C114.616 80.7339 114.593 80.3034 114.32 80.3034H111.312ZM114.097 82.8183C114.107 82.6655 114.397 82.0102 114.142 82.0102H111.896C111.868 82.0102 111.518 82.3707 111.502 82.4327C111.466 82.572 111.644 82.8192 111.717 82.8192H114.097V82.8183Z" fill="#EC960F"/>
<path d="M105.43 79.3156C105.694 79.3955 105.43 80.2557 105.374 80.2917C105.2 80.404 102.78 80.2054 102.128 80.4139C101.783 80.5245 101.785 81.1114 102.107 81.1114H104.352C104.462 81.1114 104.851 81.4934 104.915 81.6264C105.205 82.2233 104.889 83.0088 104.399 83.4034C104.236 83.5355 103.722 83.8061 103.544 83.8061H100.177C100.147 83.6479 100.298 82.8758 100.368 82.83C100.567 82.7005 103.098 82.9162 103.632 82.8165C104.091 82.7302 104.13 82.1001 103.903 82.1001H101.748C101.723 82.1001 101.372 81.9428 101.312 81.9069C100.37 81.3415 100.926 80.0814 101.672 79.5996C101.751 79.5483 102.247 79.3156 102.287 79.3156H105.43Z" fill="#EC960F"/>
<path d="M105.384 83.807C105.406 83.2498 106.332 79.4918 106.552 79.3605C106.689 79.2787 109.408 79.2742 109.743 79.3147C111.331 79.5061 110.768 81.8907 109.102 82.0912C108.518 82.1613 107.21 81.9716 106.789 82.1136C106.498 82.2116 106.479 83.4781 106.241 83.7207C106.07 83.8951 105.627 83.7774 105.384 83.8079V83.807ZM109.561 80.3034H107.226C107.086 80.3034 106.996 80.9901 106.911 81.1105C107.652 80.9182 110.251 81.6993 109.561 80.3034Z" fill="#EC960F"/>
</g>
<defs>
<clipPath id="clip0_3612_859">
<rect width="103" height="27.8429" fill="white" transform="translate(19 56)"/>
</clipPath>
</defs>
</svg>
