<svg width="140" height="140" viewBox="0 0 140 140" fill="none" xmlns="http://www.w3.org/2000/svg">
<rect width="140" height="140" rx="30" fill="#FFF853"/>
<path d="M56.6667 33.7857L68.6207 31H73.2184L86.092 37.5L92.5287 51.4286V61.6429L100.805 60.7143V63.5V68.1429L95.2874 70L93.4483 72.7857L98.046 82.0714L110 88.5714L107.241 92.2857L98.9655 95.0714L97.1264 98.7857L95.2874 101.571H85.1724L80.5747 103.429L70.4598 109L64.023 107.143L56.6667 103.429L51.1494 101.571H43.7931L41.0345 99.7143L38.2759 95.0714L33.6782 94.1429L30 91.3571V88.5714L34.5977 85.7857L42.8736 79.2857L44.7126 72.7857L37.3563 68.1429L38.2759 63.5L41.0345 60.7143L46.5517 61.6429L49.3103 44.9286L56.6667 33.7857Z" fill="white"/>
<path d="M69.9628 34.4911C81.2366 34.4949 90.6276 43.8957 90.6412 55.2149C90.6445 57.8661 90.7261 60.3075 90.8755 62.5565C90.9677 63.944 92.1199 64.9723 93.4412 64.9723C93.6358 64.9723 93.834 64.9501 94.0331 64.9033L97.5648 64.0741C97.7151 64.0387 97.8659 64.0218 98.015 64.0218C98.9119 64.0218 99.7379 64.6357 99.9393 65.5449C100.224 66.8297 99.5053 68.1278 98.2623 68.5643L92.9013 70.7319C91.5479 71.2791 90.821 72.7545 91.2021 74.1658C95.5031 90.092 107.516 88.4357 107.516 90.5106C107.516 93.1162 98.4614 93.4841 97.6433 94.3036C96.8253 95.1232 97.6078 99.1003 95.78 99.8703C95.4355 100.015 94.946 100.066 94.3489 100.066C92.9722 100.066 91.0251 99.7968 88.9729 99.7968C87.1927 99.7968 85.3335 99.9993 83.699 100.756C79.3629 102.762 75.1824 106.509 70.0001 106.509C64.8177 106.509 60.6373 102.762 56.3011 100.756C54.6663 99.9991 52.8076 99.7968 51.0273 99.7968C48.9753 99.7968 47.0278 100.066 45.6513 100.066C45.0545 100.066 44.5645 100.015 44.2202 99.8703C42.3923 99.1003 43.1749 95.1232 42.3568 94.3036C41.5388 93.4841 32.4839 93.116 32.4839 90.5104C32.4839 88.4354 44.4971 90.0917 48.7981 74.1657C49.1792 72.7545 48.4523 71.2791 47.0987 70.7317L41.7377 68.5641C40.4946 68.1276 39.7759 66.8295 40.0607 65.5447C40.2621 64.6353 41.0881 64.0215 41.985 64.0217C42.1339 64.0217 42.2849 64.0385 42.4352 64.0739L45.9669 64.9032C46.166 64.9499 46.3642 64.9721 46.5588 64.9721C47.88 64.9721 49.0323 63.9437 49.1245 62.5563C49.2739 60.3073 49.3557 57.8659 49.3589 55.2147C49.3726 43.8957 58.6887 34.4951 69.9628 34.4911ZM69.9642 30H69.961C66.5959 30.0011 63.3178 30.6783 60.2181 32.0131C57.2428 33.2941 54.565 35.1208 52.2591 37.4423C49.9564 39.7608 48.1442 42.4524 46.8729 45.4424C45.551 48.5515 44.8788 51.8376 44.8746 55.2094C44.8727 56.8648 44.8384 58.4713 44.7724 60.0098L43.4584 59.7012C42.9763 59.588 42.4806 59.5305 41.9854 59.5304C40.5554 59.5302 39.1447 60.0143 38.0133 60.8935C36.833 61.8108 36.0053 63.117 35.6829 64.5715C34.9158 68.0338 36.8246 71.5292 40.1323 72.7583L44.0668 74.3491C41.4615 82.3587 36.6574 83.8936 33.4223 84.9274C32.5639 85.2018 31.8225 85.4387 31.1165 85.7896C28.3037 87.1879 28 89.5569 28 90.5104C28 92.3369 28.8631 94.0036 30.4305 95.2035C31.2109 95.801 32.1776 96.2939 33.3857 96.7105C35.0324 97.2784 36.9413 97.6387 38.4928 97.9276C38.5677 98.5034 38.6777 99.1219 38.863 99.7453C39.6322 102.334 41.2556 103.493 42.482 104.01C43.6457 104.5 44.8481 104.557 45.6513 104.557C46.4369 104.557 47.2673 104.495 48.1465 104.43C49.0897 104.36 50.0651 104.288 51.0273 104.288C52.5185 104.288 53.6285 104.466 54.4208 104.832C55.5086 105.336 56.6622 106.014 57.8836 106.733C61.2839 108.733 65.1377 111 70.0001 111C74.8625 111 78.7161 108.733 82.1164 106.733C83.3378 106.014 84.4914 105.336 85.5794 104.832C86.3716 104.466 87.4817 104.288 88.9729 104.288C89.9351 104.288 90.9105 104.36 91.8535 104.43C92.7327 104.495 93.5632 104.557 94.3487 104.557C95.1519 104.557 96.3541 104.5 97.518 104.01C98.7444 103.493 100.368 102.334 101.137 99.7453C101.322 99.1219 101.432 98.5034 101.507 97.9276C103.059 97.6386 104.968 97.2784 106.614 96.7105C107.823 96.2939 108.789 95.801 109.57 95.2035C111.137 94.0036 112 92.3369 112 90.5104C112 89.5569 111.696 87.1879 108.883 85.7897C108.177 85.4389 107.436 85.2019 106.577 84.9276C103.342 83.8939 98.5382 82.3589 95.9328 74.3492L99.8672 72.7585C103.175 71.5294 105.084 68.0338 104.317 64.5715C103.994 63.117 103.167 61.8108 101.986 60.8935C100.855 60.0145 99.4446 59.5304 98.015 59.5304C97.5198 59.5304 97.024 59.5878 96.5416 59.701L95.2274 60.0096C95.1614 58.4713 95.1271 56.8648 95.1252 55.2092C95.121 51.8347 94.4434 48.5454 93.111 45.4322C91.832 42.4436 90.0099 39.7527 87.6955 37.4341C85.3812 35.1156 82.6959 33.2909 79.7144 32.0109C76.6089 30.6778 73.3284 30.0013 69.9642 30Z" fill="#050505"/>
</svg>
