<svg width="140" height="140" viewBox="0 0 140 140" fill="none" xmlns="http://www.w3.org/2000/svg">
<rect width="140" height="140" rx="30" fill="white"/>
<g clip-path="url(#clip0_817_774)">
<path d="M93.7716 64.0143V61.8513H97.0431V78.131H93.7822V75.9925C93.663 75.979 93.6021 75.9559 93.5876 75.9735C91.6016 78.4569 88.9961 78.9593 86.1351 78.2247C82.9867 77.4155 81.1371 75.1914 80.5175 71.9817C79.9496 69.0353 80.4169 66.2695 82.4598 63.9586C85.1792 60.8819 90.4604 60.6253 93.103 63.4277C93.2844 63.6191 93.4446 63.831 93.6154 64.0333C93.667 64.0265 93.7186 64.0197 93.7703 64.0129L93.7716 64.0143ZM93.7292 70.0482C93.7438 67.0272 91.5196 64.704 88.595 64.6836C85.8345 64.6646 83.6341 66.9321 83.6196 69.8092C83.605 72.9253 85.7127 75.2865 88.5248 75.3082C91.5063 75.3299 93.7147 73.0991 93.7292 70.0496V70.0482Z" fill="#222D4D"/>
<path d="M126.991 71.3693H114.293C114.326 72.9348 115.463 74.4718 117.008 75.0109C118.965 75.6938 121.86 75.6436 123.717 73.0896C124.555 73.5159 125.407 73.9491 126.312 74.408C125.368 76.1609 124.022 77.3367 122.25 77.9436C119.044 79.0394 115.981 78.7705 113.418 76.3741C110.827 73.9518 110.293 70.8031 111.136 67.4345C111.941 64.2206 114.105 62.3035 117.232 61.6789C122.397 60.647 126.731 63.8866 126.988 69.4304C127.016 70.036 126.992 70.6429 126.992 71.3707L126.991 71.3693ZM123.646 68.6225C123.551 66.3754 121.715 64.408 118.562 64.6239C116.12 64.7909 114.343 66.632 114.377 68.6225H123.646Z" fill="#222D4D"/>
<path d="M58.6735 61.4942C63.5894 61.5295 67.1296 65.1195 67.0621 70.0577C66.9959 74.8642 63.6529 78.5031 58.6047 78.5234C53.7272 78.5438 50.277 74.8303 50.3088 69.7848C50.3379 65.0041 53.9139 61.4589 58.6748 61.4942H58.6735ZM53.5949 69.8961C53.6028 73.0353 55.7264 75.3096 58.647 75.3082C61.5028 75.3069 63.7495 72.9959 63.7535 70.0577C63.7575 66.9593 61.524 64.6103 58.602 64.6416C55.7622 64.6714 53.5896 66.9525 53.5962 69.8975L53.5949 69.8961Z" fill="#222D4D"/>
<path d="M36.4247 73.2539H39.3493C39.9027 75.7794 42.3414 76.0278 44.1552 75.3286C44.9125 75.0367 45.3984 74.4637 45.4143 73.5961C45.4302 72.7515 44.9893 72.1636 44.2346 71.9029C43.3622 71.6015 42.4539 71.4141 41.5735 71.1371C40.7977 70.8927 39.998 70.6755 39.2791 70.3035C36.5015 68.8642 36.0036 65.3408 38.2226 63.0951C40.3899 60.9022 44.8794 60.9552 46.9699 63.1874C47.7762 64.0482 48.1059 65.0855 48.1628 66.3428C47.1725 66.3428 46.2126 66.3551 45.2541 66.3266C45.1482 66.3238 44.9906 66.1093 44.9549 65.9681C44.5444 64.332 42.1799 63.8025 40.8347 64.9783C39.7623 65.9165 40.1211 67.4956 41.5497 68.0211C42.3944 68.332 43.3052 68.4528 44.1605 68.7393C45.0528 69.038 45.9968 69.2987 46.7727 69.8079C49.3676 71.5119 49.4219 75.2879 46.9434 77.1602C44.4173 79.0693 40.4812 78.9796 38.0822 76.9226C37.0019 75.9953 36.4366 74.7882 36.4233 73.2553L36.4247 73.2539Z" fill="#222D4D"/>
<path d="M103.099 65.1208C104.653 61.0177 107.939 61.038 110.312 62.1093C110.129 63.129 109.945 64.1623 109.75 65.2498C109.274 65.1208 108.824 64.981 108.367 64.8764C106.492 64.4487 104.974 65.1955 104.106 66.9674C103.337 68.5356 103.117 70.2274 103.09 71.9504C103.061 73.7549 103.083 75.5594 103.083 77.3652C103.083 77.6083 103.083 77.8527 103.083 78.1419H99.8301V61.8948H103.1V65.1208H103.099Z" fill="#222D4D"/>
<path d="M79.7669 62.0428C79.5657 63.1697 79.3843 64.1853 79.1936 65.2498C78.7197 65.1208 78.2682 64.9823 77.8101 64.8737C76.0625 64.4623 74.6088 65.0896 73.7072 66.6728C72.8149 68.2396 72.5805 69.983 72.5434 71.7522C72.505 73.6259 72.5342 75.501 72.5342 77.3747C72.5342 77.6178 72.5342 77.8595 72.5342 78.1432H69.2627V61.8907H72.4878V65.11C72.5329 65.1602 72.5765 65.2118 72.6216 65.262C73.9031 61.535 76.4239 60.8778 79.7682 62.0428H79.7669Z" fill="#222D4D"/>
<path d="M13 69.9978C12.9974 65.0595 16.9771 60.9862 21.7937 60.9998C26.6089 61.0134 30.5476 65.088 30.549 70.0548C30.549 74.8966 26.5546 78.9944 21.8281 78.9984C16.9162 79.0039 13.0026 75.0147 13 69.9978ZM27.2033 67.399C27.8865 65.6379 27.4244 64.253 25.8145 63.2252C24.9301 62.6603 23.9782 62.3535 22.9283 62.4811C22.0187 62.5911 21.3502 63.0772 20.9781 64.0561C20.5346 63.2944 19.9216 63.0147 19.2451 63.0351C17.5491 63.084 16.3443 64.0195 15.5473 65.4845C14.9025 66.6685 14.7582 67.8715 15.9325 68.8817C14.357 69.7343 13.9043 71.1383 14.6099 72.9876C14.9925 73.991 15.5711 74.8504 16.5177 75.4126C17.3293 75.8946 18.125 75.8552 18.738 75.4682C19.1008 76.0914 19.302 76.7758 19.7508 77.1424C21.0668 78.215 22.5827 78.1539 24.0576 77.513C25.3392 76.9563 26.2157 76.048 25.8979 74.4309C27.7356 74.9767 29.0873 73.2659 29.3786 71.4737C29.6593 69.7534 29.2449 67.6176 27.202 67.399H27.2033Z" fill="#222D4D"/>
<path d="M24.9383 73.3788C23.0199 72.6157 21.3146 72.761 19.6531 74.1269C19.808 72.0047 19.0811 70.3971 17.3428 69.205C19.3803 68.6986 20.5904 67.4589 21.1941 65.4494C22.2798 67.239 23.7997 68.0577 25.8743 68.0387C24.5861 69.649 24.1955 71.3775 24.9383 73.3788Z" fill="#222D4D"/>
</g>
<defs>
<clipPath id="clip0_817_774">
<rect width="114" height="18" fill="white" transform="translate(13 61)"/>
</clipPath>
</defs>
</svg>
