<svg width="140" height="140" viewBox="0 0 140 140" fill="none" xmlns="http://www.w3.org/2000/svg">
<rect width="140" height="140" rx="30" fill="white"/>
<path fill-rule="evenodd" clip-rule="evenodd" d="M70.5006 20C42.6102 20 20 42.609 20 70.4994C20 98.3916 42.6102 121 70.5006 121C98.3916 121 121.001 98.3916 121.001 70.4994C121.001 42.609 98.3916 20 70.5006 20Z" fill="#1ED760"/>
<path fill-rule="evenodd" clip-rule="evenodd" d="M100.372 64.7694C84.0941 55.1021 57.2433 54.2132 41.7037 58.9296C39.2083 59.6864 36.5695 58.2777 35.8132 55.7823C35.057 53.2858 36.4645 50.6487 38.9617 49.8901C56.8001 44.4754 86.4538 45.5211 105.194 56.6453C107.439 57.978 108.175 60.8768 106.844 63.1176C105.513 65.3621 102.611 66.1021 100.372 64.7694ZM99.8393 79.0878C98.6978 80.941 96.2748 81.5217 94.4241 80.3844C80.8528 72.042 60.1584 69.6256 44.1026 74.4993C42.0203 75.1283 39.821 73.9542 39.189 71.8761C38.5613 69.7939 39.736 67.5988 41.8141 66.9656C60.156 61.4002 82.9567 64.0958 98.544 73.675C100.395 74.8147 100.977 77.2389 99.8393 79.0878ZM93.66 92.8389C92.7531 94.3265 90.8149 94.7933 89.3326 93.8863C77.4734 86.6384 62.547 85.0012 44.9685 89.0168C43.2746 89.4052 41.5867 88.3432 41.2002 86.6499C40.8118 84.956 41.8695 83.2681 43.5671 82.8815C62.8039 78.4836 79.3054 80.3765 92.6162 88.5103C94.1002 89.4166 94.5676 91.3554 93.66 92.8389Z" fill="white"/>
</svg>
