<svg width="140" height="140" viewBox="0 0 140 140" fill="none" xmlns="http://www.w3.org/2000/svg">
<rect width="140" height="140" rx="30" fill="#13222F"/>
<g clip-path="url(#clip0_2659_2380)">
<path d="M69.6482 105C55.6103 104.749 42.3729 101.695 30.0803 94.8464C24.8066 91.9066 21.9443 87.4398 22 81.3725C22.0557 75.47 24.837 71.0235 30.0347 68.2714C34.7232 65.7882 39.503 65.9581 44.227 68.3805C60.96 76.9539 77.8019 77.1416 94.5881 68.6747C103.74 64.0583 114.497 68.8726 116.686 78.8461C118.028 84.9718 115.004 91.625 109.404 94.7906C101.275 99.3842 92.5693 102.347 83.3466 103.671C78.81 104.32 74.2177 104.571 69.6507 105H69.6482ZM68.8959 99.4705C82.6931 99.3791 95.0237 96.6397 106.501 90.372C111.04 87.8938 112.99 82.0244 110.635 77.5246C108.061 72.6139 102.215 70.6405 97.4757 73.2201C90.168 77.1974 82.3664 79.3839 74.0911 79.914C62.6495 80.6445 51.7728 78.7066 41.6636 73.0451C38.9863 71.546 36.0657 71.4192 33.2364 72.6291C29.5787 74.1942 27.5169 77.0832 27.3218 81.0478C27.1293 85.0073 28.8974 88.079 32.3574 90.0321C43.9433 96.5687 56.4842 99.3512 68.8984 99.4705H68.8959Z" fill="white"/>
<path d="M51.5702 40.7655C53.5738 38.7363 55.4077 36.8796 57.2644 35C59.0223 36.8669 60.7751 38.7236 62.6901 40.7553C60.9372 42.3609 58.9691 44.1644 56.9452 46.0186C59.0957 48.1822 60.9296 50.0263 62.799 51.9058C60.9068 53.6788 59.0501 55.4214 57.1985 57.1564C55.6078 55.4924 53.7891 53.5901 51.7247 51.434C49.6375 53.7194 47.8366 55.6878 46.0204 57.6764C44.0143 55.5787 42.2741 53.7575 40.5162 51.921C42.269 50.2368 44.1688 48.4131 46.1648 46.498C43.9687 44.3978 42.0664 42.5765 40.1591 40.7528C42.2336 38.7591 44.1004 36.9633 46.0356 35.0989C47.7226 36.8263 49.5717 38.7185 51.5727 40.768L51.5702 40.7655Z" fill="white"/>
<path d="M89.4309 37.0267C94.4335 36.8669 98.6332 40.8213 98.77 45.8207C98.9144 51.0916 95.0617 55.3098 89.978 55.4518C84.836 55.5939 80.4767 51.5177 80.3324 46.432C80.1905 41.4478 84.3092 37.189 89.4283 37.0267H89.4309Z" fill="white"/>
<path d="M46.6967 84.5076C44.0573 82.7346 41.7802 80.4771 38.429 80.2184C38.7634 80.4644 39.08 80.7384 39.4346 80.9489C41.1317 81.9686 42.8795 82.9122 44.5335 84.0003C46.2813 85.1519 46.489 86.1132 45.5949 87.8431C44.7818 89.4183 43.7154 89.9002 41.9043 89.1647C39.5283 88.1982 37.1651 87.1583 34.9208 85.9255C32.9375 84.8348 32.7576 83.5539 34.0343 81.6794C36.4609 83.4093 38.814 85.3092 41.9727 85.7531C41.5649 85.4639 41.1723 85.157 40.7518 84.8906C39.1484 83.8811 37.4665 82.9832 35.9492 81.8595C34.5915 80.8551 34.4902 79.7999 35.2526 78.2932C36.01 76.8017 37.1043 76.1397 38.6798 76.7611C41.1368 77.7301 43.5482 78.869 45.838 80.1778C47.4617 81.1036 47.6162 82.3744 46.6967 84.5051V84.5076Z" fill="white"/>
<path d="M105.784 86.3109C104.512 86.8968 103.438 87.5132 102.288 87.8708C101.739 88.0408 100.964 87.8708 100.416 87.5994C98.499 86.6457 96.6347 85.5778 94.4386 84.3832C95.2846 86.4479 96.0065 88.2057 96.7943 90.1309C95.7102 90.5646 94.7147 90.9603 93.5673 91.4194C92.24 88.1524 90.9456 84.9716 89.5778 81.6031C90.9912 81.0882 92.3033 80.5429 93.6584 80.1599C94.0612 80.0457 94.6311 80.3197 95.0567 80.5403C96.9159 81.5042 98.7523 82.5137 100.885 83.6628C100.209 82.0343 99.7098 80.6646 99.0765 79.3659C98.5902 78.3666 98.8283 77.8136 99.8187 77.4306C100.366 77.2201 100.872 76.9106 101.632 76.5276C103.008 79.7667 104.358 82.9526 105.784 86.3109Z" fill="white"/>
<path d="M71.7835 94.8997C72.4446 92.9085 73.0348 91.1254 73.6301 89.3422C74.124 87.866 74.5723 86.372 75.1549 84.9312C75.317 84.5279 75.8464 84.0942 76.272 84.0105C77.465 83.7771 78.6885 83.6909 79.9068 83.6148C80.2285 83.5945 80.7301 83.7315 80.8694 83.9623C82.6982 87.0264 84.4764 90.1184 86.3685 93.3778C85.1223 93.6162 84.0685 93.9028 82.9996 93.9739C82.6754 93.9967 82.1637 93.4894 81.994 93.1115C81.6394 92.315 81.1835 92.0639 80.3324 92.2744C79.727 92.4241 79.0785 92.4367 78.4504 92.4266C77.1129 92.4038 76.0567 92.6828 75.8743 94.2833C75.849 94.5116 75.8743 94.8743 75.2385 94.8743C74.1645 94.9377 73.0829 94.9022 71.7886 94.9022L71.7835 94.8997ZM79.9271 89.2357C79.2989 88.3301 78.8354 87.6605 78.2325 86.7879C77.9286 87.8381 77.7158 88.5787 77.4524 89.4843C78.2933 89.4005 78.9747 89.3321 79.9271 89.2357Z" fill="white"/>
<path d="M60.8323 93.705C60.7 93.705 60.5659 93.7277 60.4337 93.7234C59.986 93.7088 59.0295 93.5021 59 93.5C57.5 93.3927 58 93 58.2776 90.5242C58.4067 89.2712 58.5385 88.0207 58.6854 86.6155C57.0187 86.4532 55.4127 86.2959 53.67 86.1259C53.7942 84.9389 53.9081 83.871 54.0373 82.656C55.8054 82.8412 57.467 83.0187 59.1261 83.1887C61.6389 83.4474 64.9847 83.7666 67.5 84C67.8939 84.0365 67.7206 84.2718 67.5306 85.0708C67.3508 85.8342 67.2925 86.6282 67.1608 87.5362C65.4763 87.379 63.8983 87.2293 62.2189 87.0721C61.9823 89.1102 61.7499 91.1128 61.5178 93.0952C61.4771 93.4429 61.1824 93.705 60.8323 93.705V93.705Z" fill="white"/>
</g>
<defs>
<clipPath id="clip0_2659_2380">
<rect width="95" height="70" fill="white" transform="translate(22 35)"/>
</clipPath>
</defs>
</svg>
