<svg width="140" height="140" viewBox="0 0 140 140" fill="none" xmlns="http://www.w3.org/2000/svg">
<rect width="140" height="140" rx="30" fill="white"/>
<g clip-path="url(#clip0_838_1120)">
<path d="M125 69.5C125 100.152 100.373 125 70 125C39.6265 125 15 100.157 15 69.5C15 38.8426 39.6265 14 70 14C100.373 14 125 38.8482 125 69.5Z" fill="white"/>
<path d="M69.5396 33.732C71.4758 34.8533 73.5299 36.2958 75.0901 37.8227L74.4783 38.4425C71.3916 38.1101 68.1421 38.5214 65.2181 38.5721C64.8926 38.2397 64.236 37.7438 64.8477 37.3269L69.5396 33.732ZM124.091 72.2045C124.13 73.6019 124.265 74.802 123.72 76.2332C118.085 77.8447 114.381 71.8496 108.915 72.7567L109.532 75.8613C114.589 76.0304 117.754 80.8986 122.979 80.6901C122.239 82.1776 123.31 86.1049 120.022 84.5329C116.609 83.7102 114.14 80.6901 110.397 80.6901C109.948 81.524 110.228 82.6735 110.15 83.6595C114.101 84.2793 116.935 87.6318 120.886 88.2516C120.516 89.6152 120.145 91.1365 119.034 91.9704C115.824 91.1872 113.315 88.2911 109.897 88.3756L109.285 91.2267C112.535 91.3112 114.634 94.1961 117.552 95.0638C117.631 96.2639 116.559 97.3401 115.947 98.4163C113.354 97.6331 111.379 95.4018 108.416 95.5652C108.376 94.444 109.039 93.1706 108.786 91.9761C105.458 92.9677 103.23 89.8687 100.766 88.0037C100.693 81.9128 94.3064 77.9179 93.9697 72.2102C93.9023 71.072 94.0763 69.8606 94.5926 68.5534C96.6916 63.6795 96.0294 57.3519 93.7283 52.8105C93.0268 51.616 91.7921 50.6694 90.636 49.9707C92.3253 53.5655 94.385 57.814 93.3579 62.2314C93.2401 65.646 91.2365 68.9196 91.2084 72.2102C91.2028 73.3821 91.4498 74.5541 92.1232 75.7374C94.8003 80.5774 99.61 85.1527 97.8028 91.221C97.3033 93.0861 95.8217 94.5285 95.4513 96.4217C98.5829 99.0248 101.541 101.96 105.694 102.124C107.175 101.177 106.35 96.9682 109.398 98.9065L113.843 101.138C113.517 102.332 112.524 103.403 111.62 104.225C109.931 103.403 108.287 102.411 106.188 102.496C105.565 103.155 105.031 103.899 105.082 104.845C106.564 105.088 107.922 105.719 109.156 106.586C108.584 107.826 107.462 108.604 106.434 109.556L102.989 108.316C102.41 109.144 101.215 110.012 101.636 110.919C102.41 111.257 103.275 111.708 103.847 112.288C102.326 113.939 100.396 115.004 98.538 116.126C96.9386 110.88 91.6686 107.201 92.1232 101.132L91.8763 100.884C90.636 102.282 91.0513 104.518 91.1299 106.333C92.6115 110.13 96.1472 113.072 96.686 117.236C96.0687 118.306 94.6712 118.52 93.5993 118.977C93.7227 111.46 82.3692 105.764 89.6482 98.1628C92.0783 94.4383 96.1472 90.8886 94.7049 85.7668C93.2232 80.8197 87.9926 77.7545 88.0375 72.2102L88.0488 71.7763C89.2385 65.9953 92.8641 59.8368 89.9008 53.6839C89.0758 51.2103 87.2294 48.3987 84.7207 47.3619C88.4641 51.6611 89.9457 58.6761 87.8074 64.4627C86.7299 66.7616 85.2426 69.5056 85.0967 72.2102H85.0855C85.0069 73.6244 85.2931 75.0274 86.2023 76.3572C89.0421 80.9831 93.9753 86.0654 91.1355 92.1C87.9253 96.9288 82.3355 101.842 85.4559 108.203C87.7176 112.001 91.2197 115.793 90.2712 120.464L86.5671 121.704C89.0365 112.993 76.9421 107.871 82.0044 99.1601C85.1304 94.4947 90.7202 90.1167 87.5549 83.9243C85.6635 80.0872 81.7518 77.8165 81.8753 73.0215L82.01 72.2158C83.284 65.4149 88.436 58.9747 84.8329 51.7062C83.8845 49.5594 81.9931 47.3732 79.8942 46.1336L79.7707 46.2632C83.9687 50.3539 85.2426 57.0815 82.9809 62.485C81.9258 65.6572 79.6079 68.8182 79.1365 72.2158C78.912 73.816 79.1028 75.4782 80.0232 77.2305C82.6947 81.4789 87.3865 85.9866 84.4569 91.4859C81.3758 96.0216 76.235 100.439 78.2891 106.344C80.5508 111.511 85.2763 116.43 82.7283 122.831L78.9064 123.698C81.9482 117.455 77.3855 111.269 74.7141 105.854C71.4646 98.0895 81.7013 94.3707 81.8641 87.2712C81.8248 82.6904 76.9758 80.0872 75.9488 75.8782C73.8498 74.0977 71.6722 76.5882 69.1635 76.1262C67.3115 76.498 64.4661 73.5625 63.3549 76.746C62.036 81.4113 56.0365 84.8371 58.6743 90.3702C61.1829 95.2835 67.2273 98.884 65.2069 105.245C63.3998 111.19 57.434 116.847 61.1324 123.698C59.6115 123.203 56.7717 124.149 56.811 121.709C54.4651 113.41 64.4605 108.575 61.3737 100.276C59.937 95.1934 53.3931 92.3874 54.8355 86.2739C55.9018 81.2423 61.5253 77.7264 60.734 72.2158C60.6722 71.7538 60.5544 71.2805 60.3972 70.7903C58.2982 64.8459 54.0161 58.8958 56.5697 51.9541C57.2712 49.9707 58.6686 48.2804 59.8977 46.5055C55.8232 48.6917 53.7692 53.3176 53.8533 58.0281C53.6738 63.1442 57.4396 67.5335 57.9783 72.2158C58.1916 74.109 57.8829 76.0416 56.5641 78.0982C53.8926 81.7381 50.3962 85.5752 52.0013 90.3702C53.5222 95.2046 59.5273 98.1346 59.1569 103.752C59.1176 110.395 51.4232 114.537 53.6064 121.969L49.7789 120.723C48.2579 114.12 55.2508 110.739 55.3294 104.626C56.3171 97.5993 47.388 94.9905 47.9268 88.139C47.8875 82.9327 52.4503 79.6365 54.4651 75.2584C54.813 74.1935 54.9253 73.1849 54.8804 72.2214C54.6334 67.3814 50.2896 63.595 51.0079 58.152C51.2493 54.1459 52.6074 50.6356 55.2003 47.6211C51.6253 49.0636 50.1436 53.1993 49.1559 56.6645C47.4385 62.2258 51.5355 67.2293 51.9452 72.2158C52.1248 74.4189 51.5916 76.6051 49.5263 78.842C46.563 82.3467 43.5549 86.7698 45.6988 91.4859C47.9661 96.6865 55.0824 100.732 51.9957 107.217C50.312 111.308 46.2768 114.401 46.4452 119.236C45.3789 118.779 44.2676 118.329 43.3584 117.506C43.3584 111.353 52.0743 107.51 47.9212 101.025C47.5508 102.304 47.4722 104.045 47.186 105.488C45.7436 109.246 42.6625 112.255 41.5064 116.142C39.5758 115.393 37.561 113.821 35.9559 112.17L38.1783 110.807C37.9314 109.978 37.2748 109.28 36.6967 108.575C35.2544 108.373 34.3059 109.325 33.1161 109.697C32.0891 108.784 31.0957 107.961 30.2763 106.846C31.0171 104.733 36.7809 106.479 33.8625 103.008C31.8926 101.769 29.9115 103.538 28.1829 104.366L25.8426 101.397C27.8574 100.157 29.8666 98.4219 32.3753 98.9178C32.9926 100.033 33.0375 101.679 34.2273 102.259C38.4646 102.175 41.4671 98.9572 44.7166 96.4386C42.4549 93.0579 40.6084 88.3869 42.6232 84.2962C44.234 80.1943 48.4319 76.746 48.6227 72.2158C48.6676 71.1847 48.5049 70.0972 48.0559 68.9309C45.8334 63.1893 45.0533 55.4306 49.2906 50.3482C46.984 50.968 45.6258 53.8529 44.8457 56.0447C42.2977 61.6511 45.5192 66.8461 45.6314 72.2158C45.6482 73.1849 45.5697 74.1484 45.334 75.1288C43.1508 79.5463 39.6207 83.4229 39.0426 88.5108C36.534 90.1167 34.4743 92.9283 30.8936 91.9817C30.7702 92.9283 31.0564 94.3764 31.3819 95.4526C28.5477 95.3342 26.6115 97.4303 24.2263 98.4219C22.9523 98.0106 22.6212 96.3597 22.1329 95.2046C24.9278 94.258 26.9426 91.4464 30.1528 91.4859C30.5232 90.4491 29.9452 89.4969 29.7824 88.5052C25.7921 86.7247 19.4615 97.3007 18.9283 88.1333C22.9186 87.8854 25.4666 84.1666 29.4176 83.7947L29.5355 80.8253C25.0513 80.3689 22.1666 85.0005 17.688 84.5441L16.7003 80.5831C21.886 80.9099 24.9727 76.2445 29.9115 75.9909C30.5681 75.1232 30.6467 73.8442 30.7758 72.6497C25.388 71.9453 21.6896 77.9405 15.9707 76.1205C15.9707 76.1205 15.7743 73.6244 15.6676 72.2158H15.6732C15.634 71.6636 15.5947 71.2805 15.5947 71.2805C20.6962 73.2695 25.1748 69.5901 29.5411 67.6913C30.6523 67.3588 32.3809 67.9336 32.8804 66.6996C32.8355 65.7474 34.5641 64.6374 33.1273 63.9781C26.7462 63.1104 22.509 70.8353 15.9707 67.3194L15.4824 66.3277C16.8462 47.6493 27.3355 29.6076 44.7334 20.7276C51.7768 16.682 60.5319 14.6254 69.36 14.5522C80.012 14.462 90.7819 17.268 98.7906 22.9589C106.569 27.7482 114.005 35.6422 118.046 43.6544C121.907 50.675 123.687 58.5521 124.214 66.9363C117.468 72.058 112.939 62.1131 106.07 64.3387C106.44 65.4149 106.648 66.5249 107.428 67.4377C113.517 67.3927 117.709 73.7991 124.085 71.2748V72.2102L124.091 72.2045ZM46.5799 49.2213C42.3033 46.4097 36.8763 49.0579 32.8916 50.5849C32.5212 46.8267 31.0003 43.4009 27.8294 40.9217C27.5207 40.7696 27.0942 40.4428 26.7125 40.4202C26.4824 40.4033 26.2635 40.4991 26.0952 40.7921C27.5319 49.6721 21.785 55.8644 17.7105 62.5977C19.0686 63.7133 21.2462 63.5443 22.8906 63.2175C27.2064 61.482 31.3202 58.4676 36.4666 59.4987C37.9875 56.8955 40.5411 54.3769 42.6345 52.3147C43.9141 51.2047 45.6707 50.4947 46.5799 49.2157V49.2213ZM59.662 54.7995C59.5778 55.3348 59.7013 56.287 60.5263 55.9208C61.8059 54.1459 64.062 55.5489 65.4651 55.6729V55.1714C64.6962 53.96 63.1192 53.3571 61.5197 53.4134C61.1493 53.4247 60.7732 53.481 60.4141 53.5656C59.8753 53.6839 59.5049 54.1797 59.6676 54.7939L59.662 54.7995ZM79.7763 49.4805C78.6258 46.9168 75.9936 45.8857 73.6028 45.2659C72.4299 45.1194 71.2176 45.0236 70.011 45.0124C69.7865 45.0124 69.562 45.0124 69.3375 45.0124C65.9646 45.08 62.7431 45.9477 60.7732 48.7368C60.4926 49.5256 59.2467 50.63 60.4028 51.3343C62.9957 51.1652 65.9533 50.8384 67.6819 53.0753C67.6819 55.0587 68.9559 57.7013 66.8176 58.6479C65.0442 57.0026 62.9452 59.3466 61.0202 58.0281C60.111 57.4928 59.5385 58.1182 59.1681 58.9014C58.6294 64.0232 61.3008 69.669 66.0712 72.5201C68.0018 73.2187 70.6059 73.8836 72.6207 72.8919C77.4753 70.6212 79.4845 65.4206 80.388 60.6312C80.2646 59.7184 80.3095 57.9436 79.0355 57.8985C77.5988 58.8113 75.4998 58.2704 73.9732 57.8985C73.0697 58.1915 73.0304 59.5156 72.0033 59.7635L71.3804 59.262C70.8472 56.997 70.5161 53.774 72.6151 52.202C74.961 51.2498 77.7166 50.8384 80.1467 51.5822C80.6013 50.799 79.8998 50.1792 79.7763 49.4805ZM77.3013 53.5543C77.1385 53.5543 76.9814 53.5656 76.8187 53.5712C75.9544 54.1459 73.4457 53.7346 74.3493 55.6785C75.9151 54.4333 78.0926 55.3066 79.6584 55.9264C80.2365 55.6391 80.113 55.0587 80.1467 54.5629C79.6472 53.6275 78.4462 53.5374 77.2957 53.5599L77.3013 53.5543ZM95.21 36.0929C92.1625 35.9295 89.6146 37.6649 86.8197 38.4538C86.5783 36.0647 88.3855 33.5405 88.7952 31.1402C84.2717 31.4332 80.6911 34.1659 76.9477 36.3521C76.0834 34.2504 75.2135 32.1375 74.3549 30.0302L79.288 25.3197L79.4171 24.6999L72.7498 24.328C71.5993 22.3052 71.1503 19.8768 69.7921 18.0174C68.6809 20.1247 67.9345 22.3503 66.8232 24.4576L60.1615 24.8295V25.3197L65.2181 29.9006C64.6008 32.2558 64.0283 34.8139 62.5074 36.5944C59.5442 34.8139 56.6258 32.8756 53.3819 31.6416C52.6018 31.3881 51.485 30.9768 50.7891 31.512C51.8161 33.7828 53.2528 36.2281 53.0115 38.7073C51.6533 38.4538 50.587 37.5804 49.3074 37.2142C47.7809 36.7972 45.9681 35.9802 44.4921 36.4761C46.9615 39.9413 48.9763 43.5699 49.6722 47.7451C57.8605 43.7784 67.4125 41.5922 77.3238 43.2882C81.9707 44.0319 86.2416 45.9308 90.4003 47.4972C90.563 43.1192 93.3186 39.6089 95.2156 36.0929H95.21ZM109.274 59.8818C113.467 60.9975 117.67 65.584 122.109 62.6089C118.243 56.1687 112.49 50.2186 114.09 41.795C114.258 41.2203 113.888 40.64 113.354 40.5555C110.846 41.5866 108.904 44.0658 107.91 46.5055C107.501 47.9479 107.259 49.4805 106.687 50.8384C103.684 49.2664 100.474 47.7451 96.8151 48.117C95.4962 48.2804 93.6049 48.3705 93.3579 49.7284C97.511 51.9597 100.929 55.6785 103.477 59.6396C105.25 59.3522 107.422 59.6001 109.274 59.8818ZM65.3416 65.7023L65.4595 66.4517C67.0646 67.5279 67.5584 69.3478 69.7865 69.1844C71.762 69.3028 73.238 67.4434 74.2258 65.9615C71.5544 65.5896 68.3049 66.1643 65.3416 65.7079V65.7023ZM67.5641 62.361C67.6426 62.6935 67.362 63.1893 67.811 63.3527C69.1299 63.0653 71.5095 64.057 72.2447 62.485C71.734 61.9103 70.8921 61.6454 70.0166 61.6454C69.1411 61.6454 68.2263 61.9046 67.5641 62.3554V62.361Z" fill="#007042"/>
<path opacity="0.99" d="M65.3477 60.9243H74.3665V64.643H65.3477V60.9243Z" fill="white"/>
<path d="M67.0145 62.9132C68.1819 63.1893 68.4681 63.6063 69.3885 63.719C70.365 63.7021 70.2247 63.4992 71.9365 62.9076C72.0487 62.8682 72.2002 62.6202 72.0094 62.4287C70.9487 61.3694 70.2135 62.1244 69.5513 62.1469C68.6701 62.1582 67.8395 61.3919 66.9809 62.3892C66.8349 62.5921 66.7564 62.7893 67.0145 62.9132Z" fill="#007042"/>
<path d="M109.622 123.952V118.656H107.736V117.574H112.787V118.656H110.907V123.952H109.622Z" fill="#007042"/>
<path d="M113.602 123.952V117.574H115.521L116.671 121.924L117.811 117.574H119.736V123.952H118.546V118.932L117.283 123.952H116.049L114.791 118.932V123.952H113.602Z" fill="#007042"/>
</g>
<defs>
<clipPath id="clip0_838_1120">
<rect width="110" height="111" fill="white" transform="translate(15 14)"/>
</clipPath>
</defs>
</svg>
