<svg width="140" height="140" viewBox="0 0 140 140" fill="none" xmlns="http://www.w3.org/2000/svg">
<g clip-path="url(#clip0_602_3253)">
<rect width="140" height="140" rx="30" fill="url(#paint0_linear_602_3253)"/>
<g clip-path="url(#clip1_602_3253)">
<path d="M-44.5858 33.1106C-35.9337 33.1759 -28.8898 38.3227 -26.0712 46.4923C-25.695 47.587 -24.6701 48.8233 -23.6342 49.2645C-1.43953 58.7574 20.7933 68.1633 43.0588 77.4929C44.0402 77.9014 45.425 77.6236 46.5426 77.3567C47.3222 77.1716 47.7911 77.1062 48.4235 76.9101C49.9664 76.4363 51.5365 76.0496 53.0903 75.6139C55.6091 74.9059 57.1629 72.9288 58.7167 70.7122C62.7184 65.0153 66.9272 59.46 70.869 53.725C71.8339 52.3199 72.4282 50.4681 72.6245 48.7579C74.151 35.6431 86.4723 25.856 99.6877 27.1033C114.184 28.4703 124.167 40.6157 122.891 54.689C121.85 66.2081 112.511 75.6901 100.963 77.1988C99.0171 77.4548 96.9127 78.1791 95.3316 79.312C88.8766 83.9577 82.5687 88.805 76.2881 93.6849C75.4922 94.3058 74.7725 95.4876 74.6744 96.4734C73.7748 105.514 66.7364 112.622 57.2774 113.858C48.9741 114.942 40.0385 109.414 37.2744 101.212C36.4675 98.8208 35.0827 97.6716 32.8365 96.7348C11.4869 87.7919 -9.81909 78.7455 -31.1142 69.6665C-33.0878 68.8223 -34.6525 68.904 -36.6751 69.7917C-44.0297 73.016 -51.1172 72.0847 -57.207 66.8616C-63.3131 61.6331 -65.3357 54.7871 -63.1386 47.0151C-60.996 39.4392 -55.6804 35.0713 -48.1023 33.3557C-46.9683 33.0997 -45.758 33.1868 -44.5858 33.1106ZM114.751 52.1074C114.735 42.5546 107.113 35.1421 97.3161 35.1584C88.2005 35.1747 80.4425 42.9903 80.388 52.2109C80.3334 61.4044 88.2605 69.3724 97.5233 69.4323C107.015 69.4922 114.768 61.6985 114.751 52.1074ZM-39.5156 66.3115C-40.4587 65.8159 -40.8894 65.5381 -41.3583 65.3475C-43.6154 64.4162 -45.8834 63.5284 -48.135 62.5917C-54.4101 59.9829 -57.027 54.03 -54.5628 48.0227C-52.3112 42.5328 -45.9542 40.0438 -40.0171 42.3966C-37.1222 43.5458 -34.2872 44.8257 -31.136 46.1709C-34.2817 38.9981 -42.6286 35.5887 -49.7215 38.2465C-57.4359 41.1385 -61.3831 49.4605 -58.7335 57.2379C-56.1656 64.7866 -48.0314 68.8169 -39.5156 66.3115ZM41.8104 100.634C45.2178 108.183 53.5919 111.38 61.1319 108.33C68.5737 105.318 72.2265 96.822 69.3588 89.1808C66.6492 81.9534 58.4823 78.0865 50.5443 80.6518C53.5701 81.9643 56.2633 83.1516 58.9729 84.2954C65.0136 86.8443 67.8541 93.1076 65.4825 98.701C63.0346 104.463 56.8521 106.854 50.7515 104.376C47.9056 103.221 45.0869 102.012 41.8104 100.64V100.634Z" fill="white"/>
<path d="M110.461 52.026C110.499 59.1444 104.725 65.0047 97.6269 65.0591C90.5885 65.1136 84.6623 59.2207 84.6514 52.1513C84.6459 45.0983 90.2886 39.4341 97.3652 39.3959C104.703 39.3578 110.422 44.8695 110.461 52.026Z" fill="white"/>
</g>
</g>
<defs>
<linearGradient id="paint0_linear_602_3253" x1="70" y1="0" x2="70" y2="140" gradientUnits="userSpaceOnUse">
<stop stop-color="#0079AC"/>
<stop offset="1" stop-color="#041745"/>
</linearGradient>
<clipPath id="clip0_602_3253">
<rect width="140" height="140" rx="30" fill="white"/>
</clipPath>
<clipPath id="clip1_602_3253">
<rect width="187" height="87" fill="white" transform="translate(-64 27)"/>
</clipPath>
</defs>
</svg>
