<svg width="140" height="140" viewBox="0 0 140 140" fill="none" xmlns="http://www.w3.org/2000/svg">
<g clip-path="url(#clip0_3599_897)">
<rect width="140" height="140" rx="30" fill="white"/>
<g clip-path="url(#clip1_3599_897)">
<path d="M106.915 76.0889C106.48 75.9012 106.003 75.7855 105.502 75.7609C105.965 75.7206 106.433 75.8504 106.915 76.0889Z" fill="#940EDA"/>
<path d="M107.841 76.6413V76.6536C107.806 76.6255 107.773 76.5975 107.736 76.5712C107.771 76.594 107.806 76.6168 107.841 76.6413Z" fill="#940EDA"/>
<path d="M107.736 76.5711C107.488 76.4045 107.246 76.2572 107.006 76.1327C107.268 76.2519 107.513 76.3993 107.736 76.5711Z" fill="#940EDA"/>
<path d="M0 0H139.998V139.998H0V0ZM48.6717 42.3813C48.5805 41.8955 48.805 41.5921 48.9891 41.1975C50.6639 37.6218 58.4292 28.6762 61.3824 25.4284C62.2294 24.4972 65.0283 22.9013 63.7148 21.4616C62.1312 19.7272 61.1422 22.861 60.6546 23.6063C59.2113 25.8125 57.4822 27.9449 55.8881 30.0511C54.5343 31.8399 48.093 40.347 46.5638 40.6872C46.2306 40.7608 44.1384 41.0099 43.8649 40.9958C43.3738 40.9713 41.7534 39.1966 41.2799 38.7003C36.5222 33.7075 31.6926 28.7095 27.482 23.2416C26.5385 22.3437 25.2969 22.7874 25.4302 24.1745C25.5494 25.4179 26.8366 25.6546 27.6188 26.3859C32.0731 30.5492 37.5148 35.8523 41.4272 40.468C43.2914 42.6671 42.7565 42.7092 39.9805 43.1301C32.5869 44.2507 23.4204 43.1073 16.2952 44.5997C12.9667 45.2976 11.897 47.4967 12.0338 50.7235C12.2302 55.3708 13.5525 61.5069 14.2627 66.2647C15.4044 73.9072 16.8073 81.5182 18.0489 89.1414C18.5259 89.2063 18.3067 88.5206 18.319 88.1892C18.3996 86.1602 18.3786 83.9225 18.3295 81.8865C18.191 76.1046 17.614 70.1894 17.486 64.4093C17.4211 61.5227 17.0458 54.4343 18.0787 52.1282C18.3523 51.5179 18.9205 50.6306 19.4273 50.1957C20.9425 48.8944 27.6521 48.2385 29.9775 47.8948C45.2661 45.6291 60.7248 44.4015 76.0099 42.1112L48.6682 42.3865L48.6717 42.3813ZM43.7491 56.6019C40.3066 54.6991 36.8028 53.6311 32.8009 54.2642C26.2105 55.3059 20.1007 64.1392 25.7055 69.7247C23.68 69.0372 21.3125 73.432 20.9021 74.9208C20.2656 77.2287 23.4099 77.7232 23.9465 78.7561C24.3429 79.5172 23.0855 80.2327 24.7515 81.7567C29.2777 85.8989 37.0062 85.4938 41.5693 81.6269C42.1357 81.1464 43.7158 79.0367 43.8894 79.0297C44.063 79.0227 45.9272 80.5256 47.0355 79.8452C46.3972 83.6121 46.5515 84.3381 50.4394 84.5065C52.4386 84.5924 55.348 84.7257 56.1477 82.5318C56.523 81.5042 57.8943 72.9953 58.3836 73.0076C58.4695 75.4364 60.2723 76.5833 61.3736 78.223C62.012 79.17 62.2856 80.2713 63.0256 81.2201C66.775 86.0392 75.966 85.5271 80.8518 82.9001C82.9317 81.783 84.0821 79.512 86.4127 79.8452C86.3391 82.2267 85.2395 83.8348 88.312 84.3714C89.3326 84.5503 93.8536 84.6941 94.6112 84.3521C95.9896 83.7313 95.9545 80.1152 96.3929 80.1152C97.0681 81.0956 97.0611 83.8559 98.1764 84.3504C98.8779 84.6625 103.813 84.5749 104.798 84.4205C105.921 84.2452 107.394 83.4069 107.467 82.1478C107.545 80.8255 104.484 75.4978 104.763 74.5561C106.138 73.6389 107.192 72.5867 108.286 71.3679C108.462 74.5999 104.691 80.6273 110.479 80.1188C110.898 80.5379 108.839 84.1329 111.976 84.4977C113.127 84.631 117.179 84.6643 118.212 84.4346C118.537 84.3627 118.854 84.1768 119.098 83.9541C120.46 82.7124 120.962 75.454 121.848 73.3057C122.958 70.6068 128.212 65.6403 130.002 62.5942C131.916 59.3411 129.094 58.8589 126.337 59.0623C129.173 55.5339 127.109 54.6202 123.477 54.4045C118.593 54.1151 118.572 54.9306 116.083 58.794C114.901 54.3729 114.675 54.1099 110.07 54.4185C107.429 54.5957 105.018 54.9341 105.693 58.2468C103.604 53.6224 97.6538 54.1906 93.3766 54.4045C92.4068 54.4536 90.1375 54.5711 89.3449 54.7465C87.1037 55.2428 87.0002 59.6761 86.4127 61.5245C85.1395 60.9229 85.1132 59.4867 84.4574 58.4239C81.0447 52.8841 71.0978 53.2102 65.9981 56.0109C65.1037 56.5019 62.6521 58.7186 62.2189 58.7957C61.3719 58.9465 62.0891 57.2805 62.1014 56.7422C62.1365 55.3182 61.7542 54.6553 60.2846 54.4326C56.6264 53.8766 49.4679 53.8451 45.8255 54.4326C44.6926 54.6149 43.6842 55.3655 43.7561 56.6036L43.7491 56.6019ZM107.462 93.7905C107.653 88.3768 105.782 89.4606 101.572 89.4027C98.2378 89.3554 94.8023 89.273 91.4633 89.4115C89.2642 89.5027 86.6214 88.7241 85.6569 91.2617C84.5433 94.1938 83.7419 97.2417 88.0507 96.9366L85.5885 108.667C85.9392 110.661 87.5561 110.18 89.1397 110.196C89.145 111.306 88.0875 113.319 88.9398 114.226C89.75 115.089 95.6862 115.38 96.528 113.891C97.4837 112.783 99.0147 101.151 99.6688 101.168C100.197 101.182 100.207 101.47 100.335 101.868C100.879 103.565 101.012 109.24 102.278 110.042C102.846 110.401 104.099 110.408 104.163 110.48C104.302 110.629 104.218 113.668 105.002 114.428C105.666 115.073 110.298 115.154 111.131 114.275C113.972 109.405 117.128 104.674 119.812 99.7144C120.296 98.8183 121.765 96.4754 121.63 95.6231C121.25 93.2012 117.632 94.5235 117.583 93.6519C117.548 93.0153 119.747 91.3739 117.995 89.9499C117.132 89.2484 112.325 89.159 111.352 89.6132C109.947 90.2673 109.716 94.4253 107.459 93.7887L107.462 93.7905Z" fill="#D8008C"/>
<path d="M43.7492 56.6018C43.6772 55.3637 44.6856 54.6131 45.8185 54.4307C49.4609 53.8415 56.6177 53.8748 60.2776 54.4307C61.7472 54.6535 62.1312 55.3164 62.0944 56.7403C62.0804 57.2787 61.3649 58.9447 62.2119 58.7939C62.6451 58.7167 65.0967 56.5018 65.9911 56.0091C71.0908 53.2084 81.0359 52.8822 84.4504 58.4221C85.1045 59.4849 85.1326 60.9211 86.4057 61.5226C86.9932 59.6743 87.0967 55.2409 89.3379 54.7447C90.1323 54.5693 92.3998 54.45 93.3696 54.4027C97.6468 54.1887 103.597 53.6205 105.686 58.245C105.011 54.9341 107.422 54.5938 110.063 54.4167C114.666 54.1063 114.894 54.3694 116.076 58.7922C118.565 54.9288 118.586 54.1133 123.47 54.4027C127.102 54.6184 129.164 55.5303 126.33 59.0605C129.089 58.857 131.909 59.3393 129.995 62.5924C128.205 65.6385 122.951 70.605 121.841 73.3039C120.957 75.4539 120.453 82.7106 119.091 83.9522C118.847 84.175 118.53 84.3608 118.205 84.4327C117.172 84.6625 113.121 84.6292 111.969 84.4959C108.832 84.1311 110.891 80.5343 110.472 80.1169C104.684 80.6255 108.455 74.5981 108.279 71.3661C107.185 72.5849 106.131 73.6371 104.756 74.5543C104.479 75.4977 107.538 80.8254 107.46 82.1459C107.383 83.4665 105.915 84.2433 104.791 84.4187C103.808 84.573 98.8709 84.6607 98.1694 84.3486C97.0541 83.854 97.0629 81.0937 96.3859 80.1134C95.9475 80.1134 95.9826 83.7295 94.6042 84.3503C93.8466 84.6905 89.3256 84.5467 88.305 84.3696C85.2325 83.833 86.3338 82.2231 86.4057 79.8434C84.0751 79.5102 82.9247 81.7812 80.8448 82.8983C75.959 85.5253 66.768 86.0374 63.0186 81.2182C62.2803 80.2677 62.005 79.1682 61.3666 78.2212C60.2636 76.5815 58.4608 75.4346 58.3766 73.0057C57.8873 72.9935 56.516 81.5023 56.1407 82.53C55.341 84.7239 52.4316 84.5906 50.4324 84.5046C46.5463 84.3363 46.3902 83.6103 47.0285 79.8434C45.9202 80.5238 44.0508 79.0209 43.8824 79.0279C43.7141 79.0349 42.1287 81.1428 41.5623 81.6251C37.001 85.4937 29.2707 85.8988 24.7445 81.7549C23.0785 80.2292 24.3359 79.5154 23.9396 78.7543C23.4029 77.7232 20.2586 77.2269 20.8952 74.919C21.3055 73.4319 23.673 69.0372 25.6985 69.7229C20.0937 64.1374 26.2036 55.3041 32.7939 54.2624C36.7958 53.6293 40.2997 54.6991 43.7421 56.6L43.7492 56.6018ZM42.0621 57.4716C41.5343 56.5702 36.0382 55.4812 34.8773 55.4987C29.6829 55.5759 23.217 61.228 25.3706 66.6416C26.8349 70.3261 32.7343 69.416 33.0885 71.5151C33.4428 73.6143 30.7316 74.0597 29.1375 73.8072C27.5241 73.5511 25.8283 71.0644 24.5095 71.3433C24.2587 71.3959 22.2122 75.5293 22.47 75.966C22.5804 76.1519 25.7862 77.8933 26.2562 78.0581C29.0778 79.0419 31.7031 78.8806 34.4476 77.7863C38.1882 76.2939 42.0849 71.95 40.4891 67.6553C39.0984 63.9129 33.3218 64.902 32.4011 62.8817C32.0451 62.1014 32.5396 61.1368 33.2551 60.7335C35.7348 59.3375 39.9384 62.2311 40.4715 61.954C41.0537 61.3543 42.3936 58.0346 42.0639 57.4716H42.0621ZM44.0245 61.2491H48.6735L45.1153 78.0616C47.1951 78.6018 49.5153 78.7508 51.553 77.9354L55.206 61.4069C55.5602 60.8843 58.9466 61.6068 59.6287 61.1281C60.104 60.7949 60.481 57.0069 60.4495 56.2213C60.2232 55.404 54.2485 56.0739 53.1875 55.5619L45.5993 56.0564C44.9837 56.3423 44.3542 60.395 44.028 61.2491H44.0245ZM82.2074 58.0661C78.5124 54.2957 70.2508 55.162 66.084 57.7434C61.3719 60.6633 58.424 68.4497 60.1426 73.7055C62.3873 80.5659 73.8616 79.7118 78.6071 76.0081C83.0755 72.52 86.6302 62.5784 82.2074 58.0661ZM85.45 78.4755C87.0756 78.7491 89.3484 78.2756 91.0547 78.4755C91.5335 77.4654 92.3753 70.5383 92.6979 70.2718C92.8821 70.1192 93.4134 70.2718 93.6449 70.5523C94.3973 71.4678 95.2513 76.9849 95.716 78.4615C96.9155 78.3299 102.434 78.9472 102.794 77.7547C103.081 76.8025 99.5654 70.2823 99.8337 69.3563C99.9126 69.0845 102.962 67.671 103.874 65.7245C105.519 62.2153 105.288 57.3366 100.967 56.123C99.1901 55.6232 92.6295 55.8021 90.6742 56.0774C90.1586 56.1511 89.4782 56.3002 89.166 56.7579C88.689 57.4576 87.6561 62.4556 87.3632 63.7042C86.9371 65.5158 84.3627 77.4022 84.8134 78.1546C84.8309 78.1844 85.3921 78.4632 85.4517 78.4737L85.45 78.4755ZM108.828 78.4755H115.117L117.469 68.113C117.037 61.6857 124.715 58.0451 126.021 56.6965C126.725 55.9705 123.124 56.0739 122.365 56.0511C121.225 56.0178 121.048 55.3427 119.854 56.4334C118.554 57.6207 117 60.6739 115.526 62.0663L113.493 55.8951L108.151 56.0599C107.334 56.2283 107.129 56.7018 107.234 57.4822C107.704 61.0053 110.721 65.6876 110.435 69.2809C110.329 70.6032 110.142 77.4724 108.828 78.4737V78.4755ZM45.117 71.3661C45.0065 69.5212 46.2306 67.6693 45.6624 65.8998C45.2082 66.0086 45.2065 66.7065 44.8522 67.1344C44.042 68.113 43.2827 68.2427 42.113 67.8131L42.3655 68.7881L45.117 71.3678V71.3661ZM108.553 71.0925C108.749 70.7084 108.379 70.363 108.285 70.5488C108.088 70.9329 108.458 71.2784 108.553 71.0925Z" fill="#560339"/>
<path d="M107.462 93.7905C109.717 94.4271 109.951 90.2691 111.355 89.615C112.329 89.1608 117.136 89.252 117.998 89.9517C119.75 91.3757 117.551 93.0171 117.586 93.6537C117.635 94.5253 121.253 93.2013 121.634 95.6249C121.767 96.4772 120.299 98.8201 119.815 99.7162C117.132 104.677 113.975 109.407 111.134 114.277C110.301 115.156 105.67 115.075 105.005 114.43C104.221 113.67 104.306 110.631 104.167 110.482C104.1 110.412 102.85 110.403 102.282 110.044C101.017 109.244 100.882 103.569 100.339 101.87C100.211 101.47 100.2 101.182 99.6723 101.17C99.0165 101.152 97.4873 112.785 96.5315 113.893C95.688 115.382 89.7535 115.091 88.9433 114.228C88.091 113.32 89.1467 111.308 89.1432 110.198C87.5597 110.182 85.9445 110.663 85.592 108.669L88.0542 96.9384C83.7454 97.2435 84.5468 94.1956 85.6604 91.2634C86.6232 88.7259 89.2677 89.5045 91.4669 89.4133C94.8076 89.2748 98.2413 89.3572 101.575 89.4045C105.784 89.4624 107.657 88.3786 107.466 93.7923L107.462 93.7905ZM87.2265 108.827H92.0123L95.1706 95.1689C95.8861 94.8497 98.3694 95.56 98.7218 95.3145C99.1725 95.0023 99.7618 91.2705 99.5338 91.0513C95.5564 90.7286 91.4476 90.4655 87.4983 91.1863C87.0388 91.4511 86.1286 95.0952 86.4092 95.4267C87.5667 95.0549 88.7574 95.1426 89.9604 95.1566L87.2265 108.827ZM106.919 99.8039L105.703 91.0355C105.135 90.569 100.867 90.9969 100.611 91.174C100.151 91.4897 100.586 93.7432 100.665 94.4341C101.214 99.2409 102.347 104.028 103.115 108.8C104.406 108.685 106.454 109.311 107.317 108.272C109.807 103.802 112.686 99.5408 115.166 95.0672C115.47 94.52 117.337 91.3476 117.032 91.0565C115.373 91.2494 113.751 90.4147 112.108 90.9145L106.919 99.8039Z" fill="#560339"/>
<path d="M48.6718 42.3812L76.0134 42.1058C60.7283 44.3961 45.2696 45.6237 29.981 47.8895C27.6574 48.2332 20.946 48.8908 19.4309 50.1903C18.924 50.6252 18.3558 51.5143 18.0823 52.1229C17.0494 54.429 17.4246 61.5173 17.4895 64.4039C17.6175 70.184 18.1945 76.0992 18.333 81.8811C18.3821 83.9171 18.4032 86.1548 18.3225 88.1838C18.3085 88.5153 18.5295 89.201 18.0525 89.1361C16.8126 81.5128 15.4079 73.9019 14.2663 66.2593C13.556 61.5016 12.2337 55.3654 12.0373 50.7182C11.9005 47.4914 12.9703 45.2923 16.2988 44.5943C23.424 43.1019 32.5905 44.2453 39.984 43.1247C42.7601 42.7038 43.295 42.6617 41.4308 40.4626C37.5183 35.8469 32.0767 30.5438 27.6223 26.3806C26.8402 25.6493 25.553 25.4143 25.4337 24.1692C25.3004 22.782 26.542 22.3383 27.4855 23.2362C31.6961 28.7042 36.5257 33.7022 41.2835 38.6949C41.757 39.1912 43.3774 40.9642 43.8684 40.9905C44.142 41.0045 46.2341 40.7572 46.5673 40.6818C48.0965 40.3399 54.5378 31.8345 55.8917 30.0458C57.4858 27.9413 59.2149 25.8071 60.6582 23.601C61.1457 22.8557 62.1348 19.7201 63.7183 21.4562C65.0319 22.896 62.233 24.4901 61.386 25.423C58.4328 28.6709 50.6674 37.6182 48.9927 41.1922C48.8068 41.5885 48.5823 41.8919 48.6753 42.3759L48.6718 42.3812Z" fill="#FCFBFB"/>
<path d="M82.2074 58.0662C86.6302 62.5784 83.0754 72.5218 78.6071 76.0081C73.8616 79.7119 62.3872 80.5642 60.1425 73.7055C58.4239 68.4497 61.3719 60.6634 66.084 57.7435C70.2508 55.1621 78.5124 54.2957 82.2074 58.0662ZM69.3844 61.5805C69.0688 61.6419 68.3392 62.0032 68.1025 62.2224C67.1134 63.1396 65.9507 69.6983 65.8911 71.2433C65.8455 72.4727 66.3295 73.6792 67.7184 73.7476C69.0021 73.8107 76.6622 69.7545 77.532 68.6479C79.3927 66.2769 75.624 64.4145 73.8072 63.322C72.5639 62.5749 70.8207 61.3052 69.3844 61.5823V61.5805Z" fill="#FCFBFB"/>
<path d="M85.4499 78.4756C85.3903 78.465 84.8291 78.188 84.8116 78.1564C84.3609 77.4041 86.9353 65.5176 87.3614 63.7061C87.6543 62.4574 88.689 57.4594 89.1642 56.7597C89.4764 56.302 90.1568 56.1529 90.6724 56.0793C92.6277 55.8022 99.1883 55.6251 100.965 56.1249C105.286 57.3384 105.519 62.2172 103.872 65.7263C102.96 67.6711 99.9108 69.0864 99.8319 69.3582C99.5636 70.2841 103.08 76.8043 102.792 77.7566C102.434 78.9473 96.9155 78.3318 95.7142 78.4633C95.2495 76.9867 94.3972 71.4696 93.6431 70.5542C93.4116 70.2736 92.8803 70.121 92.6961 70.2736C92.3735 70.5402 91.5317 77.4655 91.0529 78.4773C89.3449 78.2774 87.0721 78.7509 85.4482 78.4773L85.4499 78.4756ZM93.7887 65.8982C95.2442 65.8754 96.6033 66.2314 97.624 64.9459C98.7674 63.5044 98.7551 61.0843 96.6454 60.7178C96.328 60.6634 94.6953 60.6459 94.6234 60.716C94.434 60.8984 93.8273 65.2142 93.7887 65.8982Z" fill="#FCFBFB"/>
<path d="M42.0621 57.4716C42.3918 58.0345 41.052 61.3543 40.4698 61.954C39.9366 62.2311 35.7348 59.3375 33.2534 60.7335C32.5379 61.1351 32.0433 62.1013 32.3993 62.8817C33.3218 64.902 39.0966 63.9129 40.4873 67.6553C42.0831 71.95 38.1865 76.2956 34.4459 77.7863C31.7013 78.8806 29.0761 79.0419 26.2544 78.0581C25.7827 77.8932 22.5769 76.1518 22.4682 75.966C22.2104 75.5293 24.257 71.3976 24.5077 71.3432C25.8265 71.0644 27.5223 73.5511 29.1357 73.8072C30.7298 74.0597 33.441 73.616 33.0868 71.5151C32.7325 69.4142 26.8331 70.3244 25.3688 66.6416C23.2153 61.228 28.5623 54.9884 34.8755 55.4987C36.7327 55.6495 41.5325 56.5702 42.0604 57.4716H42.0621Z" fill="#FCFBFB"/>
<path d="M108.828 78.4755C109.444 74.5508 110.435 69.2827 110.435 69.2827L106.648 56.0617L113.493 55.8968L115.526 62.0681C117.453 59.2569 120.034 55.7197 120.034 55.7197L126.611 56.1108C126.611 56.1108 119.371 65.1282 117.469 68.1112L115.117 78.4738H108.828V78.4755Z" fill="#FCFBFB"/>
<path d="M43.8491 61.249C44.177 60.395 45.4204 55.7056 45.4204 55.7056C45.4204 55.7056 60.218 55.0533 60.4459 55.8705C60.4775 56.6561 60.1022 60.7948 59.6252 61.128C58.943 61.6068 55.5567 60.8843 55.2024 61.4069L51.5495 77.9353C49.5135 78.749 47.1934 78.6017 45.1117 78.0616L48.67 61.249H43.8456H43.8491Z" fill="#FCFBFB"/>
<path d="M45.117 71.3662L42.3654 68.7865L42.1129 67.8115C43.2809 68.2429 44.042 68.1113 44.8522 67.1328C45.2064 66.7049 45.2099 66.0069 45.6624 65.8982C46.2323 67.6677 45.0065 69.5196 45.117 71.3644V71.3662Z" fill="#D8008C"/>
<path d="M108.553 71.0925C108.458 71.2784 108.088 70.9329 108.285 70.5489C108.379 70.363 108.749 70.7085 108.553 71.0925Z" fill="#D8008C"/>
<path d="M106.919 99.8039L112.108 90.7391L117.57 90.8812C117.57 90.8812 115.469 94.5201 115.166 95.0672C112.686 99.5409 107.317 108.8 107.317 108.8H103.115C103.115 108.8 101.216 99.241 100.665 94.4341C100.586 93.7432 100.151 91.4897 100.611 91.1741C100.867 90.9987 105.135 90.569 105.703 91.0355L106.919 99.8039Z" fill="#FCFBFB"/>
<path d="M87.2265 108.827L89.9604 95.1567C88.7574 95.1444 87.5667 95.055 86.4092 95.4267C86.1286 95.0953 87.0388 91.4511 87.4983 91.1863C91.4476 90.4656 95.5582 90.7286 99.5338 91.0513C99.76 91.2688 99.1708 95.0006 98.7218 95.3145C98.3693 95.5583 95.8861 94.8498 95.1706 95.1689L92.0122 108.827H87.2265Z" fill="#FCFBFB"/>
<path d="M69.3845 61.5805C70.8225 61.3034 72.5639 62.5731 73.8073 63.3201C75.6259 64.4127 79.3945 66.2751 77.5321 68.6461C76.6623 69.7527 69.0022 73.8107 67.7185 73.7458C66.3296 73.6774 65.8438 72.4709 65.8912 71.2415C65.9491 69.6965 67.1117 63.136 68.1026 62.2206C68.3393 62.0014 69.0671 61.6401 69.3845 61.5787V61.5805Z" fill="#560339"/>
<path d="M93.7887 65.8981C93.8273 65.2142 94.4358 60.8984 94.6235 60.716C94.6954 60.6459 96.3281 60.6634 96.6455 60.7178C98.7552 61.0825 98.7674 63.5044 97.624 64.9459C96.6034 66.2313 95.2425 65.8753 93.7887 65.8981Z" fill="#560339"/>
</g>
</g>
<defs>
<clipPath id="clip0_3599_897">
<rect width="140" height="140" rx="30" fill="white"/>
</clipPath>
<clipPath id="clip1_3599_897">
<rect width="140" height="140" fill="white"/>
</clipPath>
</defs>
</svg>
