<svg width="140" height="140" viewBox="0 0 140 140" fill="none" xmlns="http://www.w3.org/2000/svg">
<rect width="140" height="140" rx="30" fill="#23282E"/>
<g clip-path="url(#clip0_812_74)">
<path d="M70.0779 69.9446C58.754 69.9446 47.4335 69.9446 36.1096 69.9446C34.5932 69.9446 33.0768 69.9547 31.5604 69.9211C31.2042 69.9144 30.8513 69.7531 30.4985 69.6625C30.658 69.3064 30.736 68.8698 30.9938 68.6112C33.5551 66.0553 36.1571 63.5363 38.7319 60.9937C44.0139 55.771 49.2857 50.5382 54.5677 45.3155C59.463 40.4757 64.3549 35.6291 69.2874 30.8262C69.7183 30.4064 70.4578 30.0772 71.0549 30.0739C83.6713 30.0168 96.2843 30.0101 108.894 30C109.196 30 109.498 30.0739 109.996 30.1411C109.718 30.5206 109.586 30.7624 109.396 30.9505C97.0985 43.1021 84.7908 55.2471 72.4933 67.4021C71.652 68.2317 70.8615 69.1116 70.0473 69.9681L70.0745 69.9446H70.0779Z" fill="#00D664"/>
<path d="M70.0509 69.9681C70.4648 70.005 70.8786 70.0789 71.2891 70.0789C83.6409 70.0856 95.9961 70.0823 108.348 70.0823C108.511 70.0823 108.684 70.042 108.83 70.0924C109.081 70.1797 109.389 70.267 109.518 70.4585C109.59 70.5626 109.403 70.9287 109.243 71.0899C107.975 72.3595 106.679 73.6055 105.403 74.8684C93.9301 86.2072 82.457 97.5461 71.0008 108.898C70.251 109.641 69.4776 110.003 68.3716 110C55.9554 109.963 43.5357 109.98 31.1195 109.973C30.821 109.973 30.5224 109.903 30 109.839C30.3596 109.406 30.553 109.127 30.7904 108.895C43.1117 96.7198 55.4363 84.548 67.7542 72.3729C68.5514 71.587 69.3046 70.7574 70.078 69.9446L70.0543 69.9681H70.0509Z" fill="#00D664"/>
</g>
<defs>
<clipPath id="clip0_812_74">
<rect width="80" height="80" fill="white" transform="translate(30 30)"/>
</clipPath>
</defs>
</svg>
