<svg width="140" height="140" viewBox="0 0 140 140" fill="none" xmlns="http://www.w3.org/2000/svg">
<rect width="140" height="140" rx="30" fill="#5CBCA5"/>
<g clip-path="url(#clip0_2492_1266)">
<path d="M69.9554 30C77.9042 30 85.853 30 93.8017 30C99.991 30 105.332 33.7549 107.588 39.575C108.499 41.9322 108.706 44.352 108.644 46.8553C108.623 47.8357 108.644 47.8566 109.575 47.9609C113.632 48.399 116.613 51.2568 117.648 55.0952C117.876 55.9087 118 56.764 118 57.6193C118 63.0847 118.041 68.5502 118 74.0156C117.959 78.146 115.764 81.588 111.852 83.1943C110.776 83.6323 109.637 83.7575 108.499 83.7784C106.801 83.7992 105.104 83.7992 103.407 83.7784C102.972 83.7784 102.868 83.9035 102.868 84.3207C102.889 85.781 102.868 87.2412 102.868 88.7014C102.868 91.6845 101.792 94.1669 99.5149 96.1069C98.1073 97.3168 96.472 98.0261 94.6298 98.0261C86.5775 98.0678 78.5045 98.0469 70.4522 98.0469C69.0446 98.0469 67.6577 98.0469 66.2501 98.0469C65.7533 98.0469 65.4014 98.2138 65.0702 98.5684C61.634 102.156 58.1978 105.724 54.7409 109.27C53.561 110.48 52.0913 110.125 51.4703 108.581C51.3461 108.289 51.3668 107.997 51.3668 107.705C51.3668 104.722 51.3668 101.739 51.3668 98.7562C51.3668 98.2347 51.2633 98.0261 50.6837 98.0469C49.0898 98.0887 47.5166 98.0469 45.9228 98.0469C42.114 98.0469 38.6571 95.4394 37.5393 91.7679C37.1667 90.5372 37.0218 89.2855 37.0218 88.013C37.0218 86.5528 37.0218 85.0926 37.0218 83.6323C37.0218 83.1317 36.8769 83.0065 36.4008 83.0065C34.4964 83.0274 32.592 83.0482 30.6876 83.0065C26.7132 82.9439 23.8152 81.1082 22.0143 77.5411C21.3519 76.206 21.0414 74.7666 21.0414 73.2647C21.0414 67.7575 21 62.2503 21.0414 56.7432C21.0828 52.279 23.8359 48.4198 28.3278 47.2934C29.0523 47.1056 29.8182 47.0639 30.5841 47.043C31.0809 47.043 31.2672 46.897 31.2465 46.3755C31.1844 44.7484 31.35 43.1421 31.7226 41.5567C32.4678 38.3651 34.1031 35.6949 36.5457 33.5463C38.3673 31.94 40.4994 30.897 42.8592 30.3755C43.8321 30.146 44.8257 30 45.84 30C53.8715 30 61.9238 30 69.9554 30ZM69.7691 52.2164C65.2772 52.2164 60.7646 52.2164 56.2727 52.2164C49.2761 52.2164 42.2589 52.2164 35.2623 52.2164C34.869 52.2164 34.5792 52.2164 34.5999 52.7797C34.6413 59.4342 34.5999 66.1095 34.6827 72.764C34.7241 76.498 37.7256 79.3977 41.4309 79.3977C48.386 79.3977 55.3412 79.3977 62.2964 79.3977C62.8553 79.3977 63.1037 79.2308 63.29 78.7093C64.7597 74.7875 66.2708 70.8866 67.7612 66.9857C68.1752 65.9009 68.8583 65.3794 69.8519 65.3794C70.8041 65.3794 71.4665 65.9009 71.8805 66.9439C73.3916 70.8866 74.9027 74.8292 76.4138 78.7718C76.5794 79.189 76.7864 79.3559 77.2625 79.3559C84.2384 79.3559 91.2143 79.3559 98.2108 79.3559C98.749 79.3559 99.2665 79.2934 99.784 79.1682C102.93 78.3338 104.876 75.6845 104.876 72.1382C104.897 65.7549 104.897 59.3716 104.938 52.9883C104.938 52.3625 104.814 52.1747 104.172 52.1747C92.7254 52.1956 81.2576 52.1747 69.8105 52.1747L69.7691 52.2164ZM69.8726 73.7445C69.7277 74.0574 69.6449 74.2034 69.5828 74.3703C68.6306 76.8735 67.6784 79.3768 66.7262 81.8801C66.1466 83.4446 65.567 83.8618 63.911 83.8618C58.8188 83.8618 53.7059 83.8618 48.6137 83.8618C46.2954 83.8618 43.977 83.8618 41.6586 83.8618C41.286 83.8618 40.9962 83.8618 40.9962 84.3833C40.9962 85.9061 40.9341 87.4289 40.9755 88.9726C41.0583 91.8305 43.2111 93.8957 46.047 93.8957C48.3446 93.8957 50.6423 93.8957 52.94 93.8957C54.4718 93.8957 55.217 94.6467 55.217 96.1904C55.217 98.0887 55.217 99.987 55.217 101.885C55.217 102.115 55.0928 102.469 55.3619 102.574C55.6103 102.657 55.7759 102.323 55.9415 102.156C58.2599 99.7575 60.5783 97.3585 62.876 94.9387C63.5591 94.2295 64.2836 93.8748 65.2979 93.8957C74.8199 93.9166 84.3626 93.8957 93.8846 93.9166C94.6298 93.9166 95.3336 93.7705 96.0167 93.4576C98.0038 92.5398 98.8318 90.8501 98.956 88.764C99.0388 87.4081 98.9146 86.0313 98.956 84.6754C98.9767 84.0078 98.749 83.8827 98.128 83.8827C90.6347 83.8827 83.162 83.8827 75.6686 83.8827C74.1782 83.8827 73.5986 83.4863 73.0604 82.1095C72.0047 79.3768 70.9697 76.6441 69.8726 73.7653V73.7445ZM69.9347 47.8774C79.1048 47.8774 88.2542 47.8774 97.4242 47.8774C97.7761 47.8774 98.1073 47.8774 98.4592 47.8774C98.8525 47.8983 98.9767 47.7314 98.9767 47.3559C98.956 46.5841 98.9974 45.8331 98.956 45.0613C98.8732 43.8096 98.4385 42.6832 97.5898 41.7236C96.472 40.4928 95.0645 40.0756 93.4499 40.0756C77.7179 40.0756 61.9859 40.0756 46.2747 40.0756C46.0677 40.0756 45.8607 40.0756 45.6537 40.0756C43.5837 40.2425 42.1554 41.3064 41.3481 43.2047C40.8099 44.4355 41.0376 45.7497 40.9755 47.043C40.9341 47.7106 41.1618 47.8566 41.8035 47.8566C51.2012 47.8566 60.5783 47.8566 69.9761 47.8566L69.9347 47.8774Z" fill="#374951"/>
<path d="M69.7691 52.2164C81.2162 52.2164 92.684 52.2164 104.131 52.2164C104.773 52.2164 104.918 52.4042 104.897 53.03C104.856 59.4133 104.856 65.7966 104.835 72.1799C104.835 75.7471 102.889 78.3964 99.7426 79.2099C99.2251 79.3351 98.7076 79.3977 98.1694 79.3977C91.1936 79.3977 84.2177 79.3977 77.2211 79.3977C76.745 79.3977 76.538 79.2308 76.3724 78.8136C74.882 74.8709 73.3502 70.9283 71.8391 66.9857C71.4251 65.9218 70.7627 65.4211 69.8105 65.4211C68.8169 65.4211 68.1338 65.9426 67.7198 67.0274C66.2294 70.9283 64.7183 74.8292 63.2486 78.751C63.0623 79.2725 62.7932 79.4394 62.255 79.4394C55.2998 79.4185 48.3446 79.4394 41.3895 79.4394C37.6842 79.4394 34.6827 76.5398 34.6413 72.8057C34.5792 66.1512 34.5999 59.4759 34.5585 52.8214C34.5585 52.2582 34.8276 52.2582 35.2209 52.2582C42.2175 52.2582 49.2347 52.2582 56.2313 52.2582C60.7232 52.2582 65.2358 52.2582 69.7277 52.2582L69.7691 52.2164ZM58.8602 66.0887C58.8602 64.8788 58.8602 63.8983 58.8602 62.9387C58.8188 60.9987 58.1357 59.309 56.6867 58.0156C54.6788 56.2216 52.3397 55.7836 49.8971 56.8683C47.3924 57.9739 46.0469 60.0391 45.9434 62.7927C45.8606 64.7536 45.9227 66.7353 45.9434 68.6962C45.9434 72.2216 48.5516 75.1838 51.8429 75.3924C55.3619 75.6219 58.3013 73.1812 58.7981 69.5932C58.9637 68.3416 58.7981 67.09 58.8809 66.0887H58.8602ZM81.0506 65.9009C81.0506 67.0482 80.9885 68.2164 81.0506 69.3638C81.2576 72.5971 84.0314 75.3299 87.1571 75.4133C90.5519 75.4967 93.512 73.0561 93.8639 69.7184C94.133 67.2151 94.1123 64.6701 93.8639 62.1669C93.5327 58.6832 90.5933 56.1799 87.2606 56.3259C83.8658 56.472 81.1541 59.2464 81.0299 62.7093C80.9885 63.7731 81.0299 64.837 81.0299 65.9009H81.0506Z" fill="#FEFEFE"/>
<path d="M69.8726 73.7445C70.9697 76.6232 72.0047 79.3768 73.0604 82.0887C73.5986 83.4655 74.1782 83.8618 75.6686 83.8618C83.162 83.8618 90.6347 83.8618 98.128 83.8618C98.749 83.8618 98.9767 83.987 98.956 84.6545C98.9146 86.0105 99.0388 87.3873 98.956 88.7432C98.8318 90.8292 97.9831 92.4981 96.0166 93.4368C95.3335 93.7497 94.6297 93.8957 93.8845 93.8957C84.3626 93.8957 74.8199 93.8957 65.2979 93.8749C64.2836 93.8749 63.5591 94.2086 62.876 94.9179C60.5783 97.3377 58.2599 99.7367 55.9415 102.136C55.7759 102.303 55.6103 102.636 55.3619 102.553C55.0928 102.449 55.217 102.115 55.217 101.864C55.217 99.9661 55.217 98.0678 55.217 96.1695C55.217 94.6258 54.4511 93.8957 52.94 93.8749C50.6423 93.8749 48.3446 93.8749 46.0469 93.8749C43.2111 93.8749 41.0583 91.8097 40.9755 88.9518C40.9341 87.429 41.0169 85.9062 40.9962 84.3625C40.9962 83.841 41.286 83.841 41.6586 83.841C43.977 83.841 46.2953 83.841 48.6137 83.841C53.7059 83.841 58.8188 83.841 63.911 83.841C65.5877 83.841 66.1466 83.4238 66.7262 81.8592C67.6577 79.356 68.6306 76.8527 69.5828 74.3495C69.6449 74.1826 69.7277 74.0157 69.8726 73.7236V73.7445Z" fill="#5CBCA5"/>
<path d="M58.8602 66.0886C58.7981 67.09 58.9637 68.3416 58.7774 69.5932C58.2806 73.1812 55.3205 75.6428 51.8222 75.3924C48.5309 75.163 45.9434 72.2216 45.9227 68.6962C45.9227 66.7353 45.8606 64.7536 45.9227 62.7927C46.0262 60.0182 47.3717 57.9739 49.8764 56.8683C52.319 55.7836 54.6581 56.2425 56.666 58.0156C58.115 59.309 58.7981 60.9987 58.8395 62.9387C58.8602 63.9192 58.8395 64.8787 58.8395 66.0886H58.8602ZM54.5339 62.1877C54.5753 60.3312 53.1677 58.7875 51.3875 58.7458C49.5866 58.704 48.0962 60.206 48.0548 62.0834C48.0134 63.8983 49.4624 65.442 51.2426 65.4837C53.0021 65.5254 54.4925 64.0235 54.5132 62.1877H54.5339Z" fill="#374951"/>
<path d="M81.0506 65.9009C81.0506 64.8371 81.0092 63.7732 81.0506 62.7093C81.1748 59.2464 83.8865 56.472 87.2813 56.326C90.6347 56.1799 93.574 58.7041 93.8845 62.1669C94.1122 64.6702 94.1329 67.2152 93.8845 69.7184C93.5326 73.0561 90.5726 75.4968 87.1778 75.4133C84.0521 75.3299 81.2783 72.5972 81.0713 69.3638C81.0092 68.2165 81.0713 67.0483 81.0713 65.9009H81.0506ZM89.6618 62.1252C89.6618 60.2895 88.2335 58.7458 86.474 58.7249C84.6731 58.7249 83.2034 60.2269 83.1827 62.1043C83.1827 63.9192 84.6524 65.4629 86.4326 65.4629C88.1921 65.4629 89.6618 63.9609 89.6825 62.1252H89.6618Z" fill="#374951"/>
<path d="M54.5339 62.1877C54.4925 64.0443 53.0021 65.5254 51.2633 65.4837C49.4831 65.4419 48.0341 63.8774 48.0755 62.0834C48.1169 60.206 49.6073 58.704 51.4082 58.7457C53.1884 58.7874 54.5753 60.3311 54.5546 62.1877H54.5339Z" fill="#FEFEFE"/>
<path d="M89.6618 62.1252C89.6618 63.9818 88.1921 65.4837 86.4119 65.4629C84.6524 65.4629 83.162 63.9192 83.162 62.1043C83.162 60.2269 84.6524 58.7041 86.4533 58.7249C88.2128 58.7249 89.6618 60.2686 89.6411 62.1252H89.6618Z" fill="#FEFEFE"/>
</g>
<defs>
<clipPath id="clip0_2492_1266">
<rect width="97" height="80" fill="white" transform="translate(21 30)"/>
</clipPath>
</defs>
</svg>
