<svg width="140" height="140" viewBox="0 0 140 140" fill="none" xmlns="http://www.w3.org/2000/svg">
<rect width="140" height="140" rx="30" fill="#F14038"/>
<circle cx="70.5" cy="69.5" r="49.5" fill="#F7F7F7"/>
<path d="M81.2824 45.3225C81.7321 45.158 82.652 44.7898 83.3266 44.5042C84.7712 43.893 85.686 43.8392 86.2314 44.3333C86.4487 44.5302 86.9326 45.473 87.3069 46.4286C87.681 47.3843 88.107 48.4422 88.2531 48.7795C88.3995 49.1168 88.6973 49.8527 88.9153 50.4148C89.6642 52.3481 91.1972 56.1392 91.3949 56.5475C91.5036 56.7723 91.7708 57.4163 91.9885 57.9784C92.2064 58.5406 92.5801 59.5065 92.8193 60.1248C93.0583 60.7432 93.3404 61.4331 93.4462 61.658C93.5519 61.8829 94.1959 63.4655 94.877 65.1748C95.7766 67.4329 96.0792 68.4272 95.9829 68.8105C95.8406 69.3773 95.2445 69.767 93.4454 70.4685C92.8271 70.7097 91.4603 71.2586 90.4083 71.6883C88.6354 72.4126 88.4567 72.4481 87.9665 72.173C87.3582 71.8314 86.8216 70.8351 85.7721 68.0972C85.3626 67.0291 84.9025 65.8793 84.7494 65.542C84.4816 64.9518 84.1727 64.1795 83.2373 61.7602C82.9983 61.1418 82.7168 60.4519 82.6117 60.227C82.3703 59.7103 80.6442 55.4505 80.1266 54.0944C79.9119 53.5323 79.6525 52.8883 79.5501 52.6635C79.2425 51.9883 78.313 49.6585 77.971 48.7055C77.6791 47.8923 77.6801 47.7533 77.9814 47.1212C78.1631 46.7404 78.4062 46.4286 78.5217 46.4286C78.6372 46.4286 79.1214 46.2471 79.5982 46.0251C80.0747 45.8033 80.8327 45.4871 81.2824 45.3225Z" fill="#F14038"/>
<path d="M52.4404 57.5166C52.7667 56.9005 56.9164 52.7469 57.5696 52.3828C57.7944 52.2575 58.2084 52.2052 58.4895 52.2663C58.8129 52.3368 63.2598 56.6346 70.6014 63.9718C80.6748 74.0393 82.2023 75.6453 82.2023 76.1672C82.2023 76.6662 81.7399 77.231 79.4853 79.4853C77.2318 81.7389 76.666 82.2023 76.1678 82.2023C75.6465 82.2023 74.0334 80.6695 63.9751 70.6171C57.5784 64.2239 52.3297 58.818 52.2636 58.5545C52.1976 58.292 52.2773 57.8249 52.4404 57.5166Z" fill="#F14038"/>
<path d="M46.4286 78.5315C46.4286 78.4213 46.6817 78.1942 46.9908 78.0264C47.7514 77.6136 47.9726 77.6329 49.3927 78.2337C50.0673 78.5192 50.9872 78.8856 51.4369 79.0481C51.8867 79.2104 52.4386 79.4318 52.6635 79.5397C52.8883 79.6478 53.5323 79.9119 54.0944 80.1266C55.4505 80.6442 59.7103 82.3703 60.227 82.6117C60.4519 82.7168 61.1189 82.9895 61.7091 83.2178C64.209 84.1852 64.962 84.4863 65.542 84.7494C65.8793 84.9025 67.0291 85.3626 68.0972 85.7721C70.8351 86.8216 71.8314 87.3582 72.173 87.9665C72.4481 88.4567 72.4126 88.6354 71.6883 90.4083C71.2586 91.4603 70.7097 92.8271 70.4685 93.4454C69.767 95.2445 69.3773 95.8406 68.8105 95.9829C68.4272 96.0792 67.4329 95.7766 65.1748 94.877C63.4655 94.1959 61.8829 93.5519 61.658 93.4462C61.4331 93.3404 60.7432 93.0583 60.1248 92.8193C59.5065 92.5801 58.5406 92.2064 57.9784 91.9885C57.4163 91.7708 56.7723 91.5036 56.5475 91.3949C56.1392 91.1972 52.3481 89.6642 50.4148 88.9153C49.8527 88.6973 49.1168 88.3995 48.7795 88.2531C48.4422 88.107 47.3843 87.681 46.4286 87.3069C45.473 86.9326 44.5302 86.4487 44.3333 86.2314C43.8392 85.686 43.893 84.7712 44.5042 83.3266C44.7898 82.652 45.158 81.7321 45.3225 81.2824C45.4871 80.8327 45.8033 80.0747 46.0251 79.5982C46.2471 79.1214 46.4286 78.6415 46.4286 78.5315Z" fill="#F14038"/>
</svg>
