<svg width="140" height="140" viewBox="0 0 140 140" fill="none" xmlns="http://www.w3.org/2000/svg">
<g clip-path="url(#clip0_3450_542)">
<rect width="140" height="140" rx="30" fill="#EE7311"/>
<g clip-path="url(#clip1_3450_542)">
<path d="M146 -7V146H-6V-7H146ZM145.681 87.867C145.691 56.4636 145.674 25.0425 145.681 -6.36093H-5.68122V145.68C26.6041 145.67 58.9047 145.693 91.19 145.68C109.348 145.673 127.523 145.683 145.681 145.68C145.681 126.414 145.674 107.131 145.681 87.8645V87.867Z" fill="#FBFDFD"/>
<path d="M91.1901 145.681C58.9047 145.693 26.6042 145.67 -5.68115 145.681V-6.36084H145.681C145.674 25.0426 145.691 56.4637 145.681 87.8671C144.859 88.0751 144.705 87.5324 144.237 87.0911C136.753 80.0283 129.644 72.3747 122.256 65.18C120.741 63.7015 119.04 61.8477 117.338 60.2221C117.166 60.0598 115.782 58.8273 116.047 60.0801C113.732 55.8855 108.566 50.9657 103.939 49.5404C103.85 47.2808 99.2077 48.6807 98.8383 48.2648C98.7295 48.1405 99.0129 47.2808 98.7928 47.0348C98.6992 46.9309 98.097 46.9714 97.7403 46.6646C97.3507 46.3298 97.0875 45.2774 96.8497 45.1404C96.5512 44.9705 96.0401 45.1734 95.734 44.9984C95.395 44.8057 90.9169 39.7109 90.6537 39.2239C90.2135 38.4048 91.2028 37.786 89.28 38.0447C86.4185 34.3472 78.1834 26.6149 74.0519 24.7205C65.0198 20.5792 58.4721 24.3198 51.8207 30.3555C45.0682 36.485 38.6824 43.5149 32.2588 50.0324C29.2658 53.0705 24.0185 57.3589 22.579 61.4191C17.1875 76.6174 30.8015 84.4917 39.5932 93.7558C40.3851 94.5901 40.9898 95.3332 41.7994 96.1777C40.838 95.8328 40.7267 97.9782 40.8431 98.0923C40.9063 98.1532 41.979 97.93 42.4724 98.5387C43.3579 99.6342 41.6451 100.588 44.4559 101.171C44.6735 101.217 46.6823 101.562 46.2649 100.649C49.9536 104.333 55.4564 110.435 59.6486 113.106C58.8668 114.062 60.5088 114.031 60.5644 114.092C60.7441 114.297 60.4683 114.98 60.653 115.286C60.7036 115.373 61.8522 115.809 62.3734 116.286C68.7945 122.21 75.2131 129.529 81.4673 135.803C83.7064 138.05 88.3438 143.284 90.5171 144.61C91.0383 144.927 91.4077 144.56 91.1952 145.686L91.1901 145.681Z" fill="#67B5D3"/>
<path d="M52.8807 28.8745C59.4943 22.1155 70.1338 21.4137 77.578 27.2455L156.973 89.4444C165.573 96.1816 166.517 108.855 159.011 116.792L125.066 152.684C117.903 160.258 105.907 160.444 98.5128 153.094L26.8143 81.8279C19.5888 74.6459 19.5078 62.9807 26.6329 55.6991L52.8807 28.8745Z" fill="#50A3C3"/>
<path d="M41.7993 96.1724C40.9897 95.3279 40.385 94.5849 39.5932 93.7505C30.7989 84.4865 17.1875 76.6122 22.5789 61.4139C24.0185 57.3562 29.2657 53.0653 32.2587 50.0272C38.6798 43.5096 45.0681 36.4798 51.8207 30.3503C58.4695 24.3146 65.0171 20.5714 74.0518 24.7153C78.1833 26.6097 86.4184 34.342 89.2799 38.0395C92.2071 41.8207 92.073 45.224 88.1566 48.252C84.7588 50.8793 82.4286 49.9967 79.3395 47.5977C74.9019 44.1512 69.9759 34.7883 63.5649 38.6151C56.0927 45.4626 48.7569 52.6675 41.747 60.0514C38.2152 63.7717 34.8678 68.9007 38.1308 72.8589C44.8597 81.0187 54.2928 88.3141 62.0175 96.1647C64.5468 98.7352 67.4426 102.213 70.8726 101.099C72.5829 100.544 74.0853 99.1701 75.6396 97.7591C76.4518 97.0217 77.2131 96.2312 77.9346 95.4047C84.9595 87.3566 95.4411 79.8551 101.697 71.7278C103.304 69.6432 104.154 67.0768 102.153 64.8983C99.787 62.3243 96.6447 63.8383 94.3728 65.6617C82.5905 75.1286 70.0923 98.541 52.6277 83.5583C37.0075 70.1555 47.4488 58.538 58.9932 47.7676C62.4846 44.5114 65.8014 40.7378 70.6464 44.7371C72.7893 46.5072 73.9556 48.427 73.6647 51.2952C73.2751 55.1296 65.1613 61.0664 62.4011 64.2643C60.41 66.5721 58.1077 69.5468 60.9514 72.3415C63.3777 74.7304 66.3758 73.2114 68.5718 71.4184C78.4565 63.3463 88.9282 44.9095 103.939 49.5352C108.566 50.9604 113.732 55.8803 116.047 60.0748C121.128 69.2806 116.518 76.5031 110.173 83.2616C103.089 90.8062 94.7877 98.6273 87.2002 105.743C79.0916 113.349 71.413 120.597 59.6459 113.098C55.4537 110.427 49.951 104.326 46.2622 100.641C45.6297 100.007 44.9795 99.3602 44.3496 98.7236C43.6437 98.0136 43.077 96.989 42.1181 96.4869C42.0194 96.3728 41.903 96.2764 41.7993 96.1673V96.1724Z" fill="#FBFDFD"/>
<path d="M41.7991 96.1724C41.9029 96.2814 42.0192 96.3778 42.1179 96.4919C42.9123 97.41 43.3551 98.9874 44.3494 98.7287C44.9793 99.3652 45.627 100.012 46.2621 100.646C46.682 101.559 44.6707 101.214 44.4531 101.168C41.6448 100.585 43.3576 99.6315 42.4696 98.536C41.9762 97.9273 40.9035 98.1505 40.8403 98.0896C40.7239 97.9755 40.8352 95.83 41.7966 96.1749L41.7991 96.1724Z" fill="#67B5D3"/>
<path d="M44.3472 98.7263C43.3554 98.9849 42.9127 97.4075 42.1157 96.4895C43.0721 96.9916 43.6413 98.0136 44.3472 98.7263Z" fill="#67B5D3"/>
</g>
</g>
<defs>
<clipPath id="clip0_3450_542">
<rect width="140" height="140" rx="30" fill="white"/>
</clipPath>
<clipPath id="clip1_3450_542">
<rect width="152" height="153" fill="white" transform="translate(-6 -7)"/>
</clipPath>
</defs>
</svg>
