<svg width="140" height="140" viewBox="0 0 140 140" fill="none" xmlns="http://www.w3.org/2000/svg">
<rect width="140" height="140" rx="30" fill="#F4133B"/>
<g clip-path="url(#clip0_836_1084)">
<path d="M83.5454 60.4424L79.6634 74.0967C79.3188 74.2714 79.3446 74.5895 79.2777 74.825C78.0545 79.1213 76.8468 83.4226 75.6357 87.7232C75.5902 87.8852 75.544 88.0472 75.4917 88.2075C75.2885 88.8371 75.2851 88.8531 74.5934 88.8548C72.0802 88.8616 69.5671 88.8599 67.0531 88.8565C66.1951 88.8557 66.1856 88.8523 65.9439 88.0286C64.4696 82.9846 62.9988 77.9407 61.5287 72.8958C61.3402 72.2502 61.161 71.603 60.9253 70.7726C60.7839 71.1582 60.6896 71.3726 60.6262 71.5962C59.1107 76.9491 57.5987 82.3036 56.0867 87.6573C56.0259 87.8734 55.9573 88.0886 55.905 88.3071C55.8124 88.6936 55.5853 88.8489 55.1696 88.8464C52.599 88.8312 50.0284 88.8405 47.4587 88.8303C46.8192 88.827 46.7832 88.7941 46.5835 88.1367C45.9809 86.1467 45.3655 84.1594 44.7998 82.1585C42.8069 75.1009 40.8329 68.0392 38.8512 60.9782C38.8358 60.9242 38.8135 60.8719 38.7998 60.8179C38.5906 59.974 38.7123 59.7985 39.5823 59.7917C41.8384 59.7757 44.0944 59.7715 46.3512 59.7681C47.2512 59.7672 47.259 59.7757 47.4707 60.6795C48.177 63.6872 48.8807 66.6957 49.5818 69.705C50.2127 72.4131 50.8384 75.122 51.4693 77.8301C51.519 78.047 51.5884 78.2588 51.6964 78.6386C51.8113 78.2529 51.8833 78.0242 51.9484 77.7938C53.5607 72.1177 55.1713 66.4417 56.7827 60.7647C56.8281 60.6027 56.8813 60.4424 56.9259 60.2803C57.0313 59.8989 57.2764 59.7529 57.6819 59.7554C59.967 59.7672 62.2513 59.774 64.5365 59.7521C65.0696 59.747 65.2128 60.0466 65.3285 60.4508C65.8453 62.261 66.3768 64.0669 66.8885 65.8788C68.0353 69.9346 69.1736 73.9929 70.3162 78.0495C70.3539 78.182 70.4011 78.3111 70.4439 78.4419C70.4928 78.4571 70.5416 78.4715 70.5905 78.4867C70.9274 77.0385 71.2548 75.5887 71.6011 74.1431C72.6854 69.608 73.7757 65.0745 74.8677 60.5419C75.0562 59.7596 75.0742 59.7453 75.9031 59.7453C78.1874 59.7453 80.4726 59.7529 82.7569 59.7613C83.5334 59.7647 83.6569 59.79 83.8626 60.3715C83.8437 60.3352 83.8249 60.3082 83.8051 60.3023C83.7854 60.2964 83.7649 60.2938 83.7451 60.2938C83.6543 60.2938 83.5711 60.3521 83.5454 60.4424Z" fill="white"/>
<path d="M104.099 60.5032C104.061 60.6947 103.993 60.8821 103.931 61.0686C100.954 70.0114 97.9771 78.9542 94.9959 87.8954C94.6968 88.7941 94.6822 88.7933 93.7342 88.795C90.9639 88.8 88.1936 88.8051 85.4233 88.8042C84.5636 88.8042 84.561 88.7967 84.2902 87.9806C83.0156 84.1349 81.7427 80.2893 80.4673 76.4436L84.7016 62.9513C86.5145 68.5802 88.239 74.2343 89.6148 79.988C89.679 80.2564 89.7682 80.5188 89.9705 80.8015C90.0502 80.55 90.1419 80.3011 90.207 80.0462C91.8331 73.641 93.7068 67.3025 95.5616 60.9589C95.6242 60.7437 95.6919 60.5285 95.7536 60.3125C95.8531 59.9648 96.0871 59.812 96.4505 59.8205C96.9074 59.8314 97.3642 59.8314 97.8211 59.8331C99.592 59.8407 101.362 59.8466 103.133 59.8542C103.304 59.8551 103.478 59.8475 103.646 59.8728C104.067 59.9378 104.18 60.0939 104.099 60.5032Z" fill="#F7D712"/>
<path d="M27.4825 58.6052C30.9197 58.6643 34.0611 59.6263 36.942 61.4432C37.6586 61.8947 37.6929 62.0314 37.2189 62.7032C36.2254 64.11 35.2234 65.5108 34.2146 66.9075C33.7586 67.5387 33.6351 67.5632 32.9597 67.1598C31.6594 66.3826 30.3102 65.7201 28.7948 65.4695C27.7414 65.2957 26.6914 65.337 25.6619 65.6442C25.4991 65.6931 25.3371 65.7522 25.1828 65.8239C24.5048 66.1379 23.9536 66.5775 23.8971 67.3708C23.8414 68.1539 24.3488 68.6451 24.9865 68.9421C25.8848 69.3607 26.8182 69.7101 27.7551 70.0401C29.1222 70.5228 30.5348 70.8924 31.872 71.4418C32.97 71.8924 34.0423 72.4536 35.0271 73.1085C37.7409 74.9119 38.6777 77.5466 38.3589 80.6504C37.9911 84.2387 35.8671 86.5274 32.5671 87.827C29.8422 88.9004 26.9991 89.1966 24.0822 88.8776C21.1765 88.5595 18.4628 87.6919 15.9625 86.1982C14.7573 85.4784 14.7565 85.4345 15.5493 84.2767C16.4579 82.9492 17.357 81.615 18.2708 80.2901C18.7773 79.5559 18.8682 79.5399 19.6336 80.0251C21.1302 80.9728 22.6936 81.7737 24.4628 82.096C25.6791 82.318 26.9022 82.3551 28.1082 82.0285C28.434 81.9408 28.7588 81.8066 29.0442 81.6302C30.2254 80.9019 30.366 79.4462 29.2834 78.5837C28.7168 78.1331 28.044 77.7753 27.3651 77.5052C25.9928 76.9592 24.5819 76.5103 23.1925 76.0048C21.3651 75.3389 19.6156 74.5246 18.1019 73.2899C16.9122 72.3194 15.9539 71.1675 15.5819 69.6662C14.8293 66.6315 15.5896 63.9876 17.8962 61.8289C19.6722 60.1664 21.8793 59.347 24.2519 58.9453C25.3165 58.7647 26.4042 58.7132 27.4817 58.6035L27.4825 58.6052Z" fill="white"/>
<path d="M114.383 81.7889H117.888C117.927 82.1214 117.977 82.361 117.978 82.5999C117.985 84.3974 117.987 86.1949 117.98 87.9924C117.977 88.7603 117.923 88.8245 117.162 88.8202C115.225 88.8093 113.285 88.9198 111.365 88.5122C108.144 87.8278 106.405 85.9788 106.06 82.761C105.976 81.9813 105.93 81.1939 105.929 80.4091C105.919 73.5566 105.934 66.7033 105.91 59.8508C105.907 59.0921 106.107 58.5276 106.67 57.9951C108.838 55.9486 111.158 54.0887 113.594 52.3663C113.768 52.243 113.977 52.1679 114.31 52C114.34 52.4371 114.38 52.7553 114.381 53.0734C114.385 57.2583 114.383 61.4424 114.383 65.6273C114.383 70.6266 114.383 75.6259 114.383 80.6251V81.7889Z" fill="white"/>
<path d="M123.999 83.2218C123.987 84.0556 123.32 84.7037 122.478 84.6995C121.638 84.6961 120.969 84.0387 120.963 83.21C120.957 82.3433 121.656 81.6673 122.532 81.6926C123.373 81.7171 124.011 82.3821 123.999 83.2218ZM123.583 83.2471C123.607 82.6057 123.126 82.0969 122.493 82.0918C121.896 82.0867 121.404 82.55 121.378 83.1425C121.349 83.7762 121.837 84.2935 122.472 84.3011C123.069 84.3087 123.561 83.8421 123.583 83.2471Z" fill="white"/>
<path d="M121.962 83.8412V82.4792C122.218 82.4631 122.435 82.4125 122.639 82.4454C122.994 82.5019 123.175 82.7129 123.101 83.0961C123.052 83.3509 123.037 83.6117 122.991 83.9965C122.774 83.8108 122.608 83.6699 122.438 83.5248C122.336 83.6539 122.226 83.7914 122.115 83.929C122.064 83.9003 122.013 83.8708 121.962 83.8421V83.8412ZM122.735 82.9416C122.63 82.8665 122.578 82.81 122.514 82.7906C122.478 82.7796 122.422 82.8302 122.376 82.853C122.41 82.9112 122.432 83.0041 122.481 83.0201C122.534 83.037 122.612 82.9838 122.735 82.9425V82.9416Z" fill="white"/>
<path d="M84.7017 62.9513L80.4674 76.4436C80.2994 75.9364 80.1314 75.4292 79.9634 74.922C79.8759 74.6587 79.6136 74.4874 79.3394 74.5338L83.3979 60.5006C83.4237 60.4103 83.5111 59.9014 83.6019 59.9014C83.6217 59.9014 83.6619 59.9588 83.6765 59.9723C83.7528 60.0424 83.8437 60.3343 83.8625 60.3706C83.8891 60.4457 83.9165 60.5301 83.9482 60.6255C83.95 60.6314 83.9508 60.6356 83.9525 60.6398L84.682 62.8897L84.7017 62.9504V62.9513Z" fill="#F4B529"/>
<path d="M83.9483 60.6264C83.9165 60.531 83.889 60.4466 83.8623 60.3715C83.8993 60.45 83.9311 60.5715 83.9483 60.6264Z" fill="black"/>
</g>
<defs>
<clipPath id="clip0_836_1084">
<rect width="109" height="37" fill="white" transform="translate(15 52)"/>
</clipPath>
</defs>
</svg>
