<svg width="140" height="140" viewBox="0 0 140 140" fill="none" xmlns="http://www.w3.org/2000/svg">
<rect width="140" height="140" rx="30" fill="black"/>
<g clip-path="url(#clip0_822_1168)">
<path d="M63.2262 55.9828C62.8379 55.9215 62.4522 55.8039 62.064 55.8064C54.8346 55.8269 47.6052 55.7962 40.3783 55.9087C32.8825 56.0263 26.5209 48.1057 29.9542 40.1468C30.6774 38.4696 31.3295 36.7592 32.1035 35.105C34.2527 30.5362 37.785 28.0358 42.8803 28.0307C61.6123 28.0102 80.3443 28 99.0763 28C103.783 28 107.389 30.0274 109.678 34.1923C111.462 37.4367 111.338 40.7987 109.917 44.1556C109.105 46.0732 108.252 47.9728 107.473 49.9031C104.43 57.4453 98.8606 61.4388 90.8318 62.014C89.3144 62.124 87.7894 62.1649 86.2821 62.3515C85.904 62.3975 85.3635 62.8245 85.2595 63.1824C83.4274 69.5537 81.6562 75.9454 79.8621 82.3294C77.9438 89.1557 76.0356 95.9872 74.0842 102.803C72.7317 107.525 68.4128 110.606 63.7235 110.852C60.3511 111.028 56.9483 111.072 53.581 110.852C46.6485 110.394 41.2994 104.02 43.03 97.13C44.1592 92.6379 45.466 88.1893 46.7348 83.733C48.2446 78.4228 49.6809 73.0896 51.3632 67.8356C53.0913 62.4359 56.857 58.8796 62.0564 56.8163C62.4624 56.6552 62.8633 56.484 63.2668 56.3178C63.2515 56.2078 63.2388 56.0953 63.2236 55.9854L63.2262 55.9828ZM71.1432 36.4703V36.4933C68.9457 36.4933 66.7482 36.4933 64.5482 36.4933C57.1945 36.4907 49.8382 36.4933 42.4845 36.4754C41.2639 36.4728 40.1575 36.7285 39.6221 37.9404C38.7619 39.8834 37.9524 41.8495 37.2089 43.8412C36.7141 45.1681 37.1912 46.5513 38.3787 47.1214C39.0309 47.4359 39.8404 47.5202 40.5788 47.5228C50.6806 47.5484 60.7825 47.5305 70.8844 47.5509C73.4295 47.556 75.9594 47.7145 78.2787 48.9775C80.2834 50.0692 81.9404 51.5496 83.2472 53.4287C83.6811 54.0525 84.1429 54.4233 85.0311 54.2903C87.1575 53.9707 89.3043 53.7688 91.4459 53.5796C94.9579 53.2677 97.6502 51.5802 99.2767 48.4841C100.535 46.0834 101.528 43.5293 102.497 40.9905C103.423 38.5565 102.608 36.4012 99.4214 36.4345C89.997 36.5342 80.5701 36.4703 71.1432 36.4703ZM58.6307 102.422V102.435C60.237 102.435 61.8432 102.435 63.4495 102.435C65.3678 102.435 66.0022 101.924 66.5072 100.096C67.6262 96.0383 68.7706 91.9885 69.91 87.9388C71.1381 83.5643 72.379 79.1898 73.6021 74.8128C74.5638 71.3715 75.4773 67.9174 76.4669 64.4838C76.8044 63.3103 76.7308 63.1518 75.5128 63.2694C73.2443 63.4867 70.9757 63.8012 68.6996 63.8651C63.6068 64.0108 60.0872 66.5343 58.6231 71.4098C57.5954 74.8307 56.7123 78.2924 55.7506 81.7337C54.6062 85.8269 53.4009 89.9023 52.3123 94.0083C51.7921 95.9667 51.3252 97.9686 51.1247 99.9782C50.9674 101.538 52.0052 102.399 53.5607 102.417C55.2507 102.438 56.9433 102.422 58.6332 102.422H58.6307Z" fill="white"/>
</g>
<defs>
<clipPath id="clip0_822_1168">
<rect width="82" height="83" fill="white" transform="translate(29 28)"/>
</clipPath>
</defs>
</svg>
