<svg width="140" height="140" viewBox="0 0 140 140" fill="none" xmlns="http://www.w3.org/2000/svg">
<rect width="140" height="140" rx="30" fill="url(#paint0_linear_2385_14)"/>
<g clip-path="url(#clip0_2385_14)">
<path d="M46.6849 111C45.7385 110.055 44.3678 110.248 43.2305 109.771C38.5496 107.803 36.2835 103.723 33.9664 99.7025C32.672 97.458 30.8727 95.41 31.0043 92.547C31.0764 90.9504 31.5475 89.5753 32.6296 88.4175C36.6399 84.125 41.3463 80.8566 47.0838 79.2265C49.7871 78.4575 52.2187 79.0969 54.1411 81.1868C55.8896 83.0885 57.4428 85.1616 58.7074 87.3893C59.6707 89.0862 60.6383 89.2409 62.234 88.267C71.88 82.3738 79.6927 74.6958 85.5958 65.1454C86.6525 63.4401 87.62 61.6763 88.5706 59.9125C89.2921 58.5708 89.2709 57.4632 87.5564 56.7778C85.5448 55.9753 83.6182 54.9763 81.6194 54.1446C77.8679 52.5772 76.3614 49.3213 77.4053 45.3967C78.6615 40.6611 81.021 36.4439 83.4994 32.2894C85.1544 29.5141 88.1293 28.3731 91.3036 29.3385C94.9023 30.4378 98.4967 31.6164 101.845 33.3552C106.789 35.9173 109.369 41.3759 108.945 46.8428C108.44 53.3505 107.209 59.645 105.007 65.789C101.158 76.5348 94.932 85.7467 86.4572 93.4331C77.0828 101.934 66.0151 107.309 53.6107 110.051C52.0108 110.406 50.309 110.264 48.7855 111H46.6764H46.6849Z" fill="#F7F7F7"/>
</g>
<defs>
<linearGradient id="paint0_linear_2385_14" x1="6.5" y1="10" x2="105" y2="101.5" gradientUnits="userSpaceOnUse">
<stop stop-color="#42F2F7"/>
<stop offset="1" stop-color="#4A64E7"/>
</linearGradient>
<clipPath id="clip0_2385_14">
<rect width="78" height="82" fill="white" transform="translate(31 29)"/>
</clipPath>
</defs>
</svg>
