<svg width="140" height="140" viewBox="0 0 140 140" fill="none" xmlns="http://www.w3.org/2000/svg">
<rect width="140" height="140" rx="30" fill="url(#paint0_linear_832_751)"/>
<g clip-path="url(#clip0_832_751)">
<path d="M35.1604 37.3211C36.1786 36.5235 37.1453 35.6511 38.2237 34.9454C41.2011 32.9914 44.4962 32.0017 48.0797 32C63.8116 32 79.5436 32 95.2755 32C103.198 32 111.122 32.0034 119.045 32.0085C120.149 32.0085 120.163 32.0204 119.742 33.022C118.226 36.6409 116.629 40.2274 115.202 43.8802C114.253 46.3103 113.119 48.6384 111.407 50.5907C109.893 52.315 108.476 54.1346 106.316 55.2876C104.573 56.2178 102.796 57.0256 100.944 57.614C99.812 57.9728 98.5242 57.9184 97.3051 57.9286C93.2716 57.9609 89.2382 57.9507 85.2065 57.9252C84.3394 57.9201 83.838 58.0188 83.522 59.051C82.739 61.5985 81.6951 64.0677 80.9601 66.6372C80.524 67.0335 80.5824 67.6219 80.3918 68.1116C79.4337 70.5673 78.6077 73.0705 77.7046 75.5414C76.7533 78.1433 75.9377 80.7928 74.9589 83.3811C73.1646 88.124 71.5643 92.9315 69.806 97.6863C69.1895 99.3546 68.6143 101.04 68.0048 102.713C67.4931 104.114 66.5263 105.181 65.4497 106.114C63.336 107.948 60.9201 109.308 58.3032 110.352C55.7808 111.357 53.1966 111.968 50.4802 111.978C45.5882 111.997 40.698 111.98 35.806 112.002C34.9887 112.005 34.9835 111.784 35.1999 111.054C35.9605 108.485 36.9565 105.994 37.8116 103.458C38.5465 101.278 39.46 99.1352 40.2069 96.9618C41.1238 94.2937 42.0253 91.6101 42.9559 88.9471C43.9604 86.0714 44.9924 83.2025 46.0227 80.3337C46.7936 78.1875 47.6676 76.0737 48.3441 73.9021C49.0104 71.7645 49.8311 69.7034 50.7034 67.6457C51.8882 64.8482 53.8663 62.7327 56.2359 60.9046C57.8276 59.6768 59.6426 58.9354 61.564 58.4099C61.7219 58.3657 61.9074 58.3521 62.0173 58.0919C61.6447 57.8487 61.2171 57.9473 60.8222 57.9473C49.6371 57.9388 38.4537 57.9371 27.2687 57.9354C27.0678 57.9354 26.8669 57.9201 26.6677 57.9354C26.0255 57.9898 25.8813 57.7586 26.0787 57.1447C27.1193 53.9204 28.1873 50.7029 29.1283 47.4514C29.9422 44.6335 31.4051 42.1643 32.9883 39.7393C32.9883 39.7393 33.0123 39.7019 33.0106 39.7019C33.7249 38.9094 34.4409 38.1153 35.1569 37.3228L35.1604 37.3211Z" fill="#F6F6F6"/>
</g>
<defs>
<linearGradient id="paint0_linear_832_751" x1="131" y1="7.99998" x2="12.5" y2="140" gradientUnits="userSpaceOnUse">
<stop stop-color="#F7A901"/>
<stop offset="1" stop-color="#F72975"/>
</linearGradient>
<clipPath id="clip0_832_751">
<rect width="94" height="80" fill="white" transform="translate(26 32)"/>
</clipPath>
</defs>
</svg>
