<svg width="140" height="140" viewBox="0 0 140 140" fill="none" xmlns="http://www.w3.org/2000/svg">
<g clip-path="url(#clip0_697_37)">
<rect width="140" height="140" rx="30" fill="white"/>
<g clip-path="url(#clip1_697_37)">
<path d="M142.569 30.0462C142.423 25.5659 141.746 21.1664 139.872 16.9623C137.394 11.4141 133.985 6.71485 128.668 3.59211C125.527 1.74608 122.375 0.0179608 118.648 -0.68272C114.805 -1.40361 110.938 -1.88533 107.088 -1.87186C80.9405 -1.77753 54.7891 -2.36031 28.6445 -1.60573C26.6756 -1.54846 24.7508 -1.42382 22.8124 -0.918526C15.6213 0.954448 9.38933 4.15467 4.81106 10.2519C0.449673 16.0561 -1.86488 22.5711 -1.90893 29.6689C-2.06482 55.6614 -1.97332 81.654 -1.97332 107.643C-1.97332 108.428 -1.9496 109.213 -1.93943 109.995C0.381897 109.759 2.70661 109.546 5.02455 109.277C11.3345 108.543 17.6377 108.425 23.9849 108.937C28.2582 109.28 32.5043 109.755 36.6929 110.577C44.2804 112.066 51.4613 114.771 58.3101 118.345C58.0322 117.042 57.3442 115.809 57.6323 114.411C58.5235 109.459 64.8742 108.384 68.5205 111.059C69.8286 112.022 70.7605 112.076 72.1397 111.076C75.3184 108.772 79.3138 109.169 81.7843 111.739C82.6078 112.595 83.0551 113.559 83.0652 114.734C82.9263 115.937 82.7874 117.139 82.6518 118.345C89.426 114.788 96.5154 112.097 104.045 110.601C112.866 108.849 121.775 108.239 130.746 108.768C134.731 109.004 138.696 109.614 142.674 110.052C142.383 109.092 142.976 108.233 142.966 107.279C142.712 81.5361 143.41 55.7861 142.569 30.0462ZM94.4923 95.4689C94.0619 95.1286 93.5061 94.8827 93.54 94.2023H93.5366C92.8792 94.1854 92.564 93.8384 92.5403 93.2018L92.5132 93.1748C91.9066 93.1243 91.8592 92.7066 91.8897 92.2383L91.7948 92.1137C91.5135 92.0429 91.5813 91.8071 91.5576 91.6185C91.5508 91.5309 91.5067 91.4703 91.4322 91.4332C91.3102 91.3894 91.2661 91.3018 91.2966 91.1705C90.7036 89.8062 90.6934 88.3576 90.6934 86.9091C90.6968 79.8181 90.6968 72.7271 90.7002 65.636C90.6765 65.5586 90.6426 65.4845 90.6392 65.407C90.6392 65.3834 90.707 65.3564 90.7476 65.3295C90.9205 61.7116 94.4923 58.4709 98.0708 58.1644C101.212 57.8949 103.717 58.8482 105.804 60.9974C107.038 62.2708 107.59 64.009 107.617 65.7169C107.719 73.0538 107.685 80.3874 107.698 87.7243C107.702 89.22 106.936 90.5169 106.617 91.9318C105.909 94.4347 103.049 96.5738 100.053 96.8231C98.0505 96.9915 96.1392 96.7557 94.4923 95.4689ZM50.1837 87.6671C50.1973 89.0718 49.1738 90.1969 49.367 91.5949C49.1671 92.3798 48.757 93.0367 48.1165 93.5454C47.2626 95.6474 43.3044 97.5339 39.9495 96.6883C37.8553 96.1561 35.7237 95.4992 34.7003 93.2658C34.7206 93.0569 34.8358 92.7638 34.7409 92.6527C32.9042 90.554 33.1618 88.0107 33.1685 85.5212C33.1787 79.0332 33.2363 72.5452 33.2024 66.0571C33.1889 63.0961 35.1679 59.3468 38.594 58.481C44.277 57.0493 49.6788 59.6028 50.0278 66.0268C50.4175 73.2223 50.1092 80.4514 50.1837 87.6671Z" fill="url(#paint0_radial_697_37)"/>
<path d="M82.6492 118.342C89.4234 114.785 96.5127 112.093 104.046 110.597C112.867 108.846 121.776 108.236 130.743 108.765C134.732 109.001 138.697 109.61 142.672 110.048C143.024 110.284 142.899 110.5 142.644 110.712C141.967 110.688 141.275 110.749 140.618 110.628C135.857 109.742 131.024 109.647 126.216 109.418C120.831 109.162 115.456 109.829 110.095 110.382C109.465 110.446 108.855 110.644 108.519 111.227C106.777 114.256 104.49 116.819 101.837 119.083C100.661 120.083 99.5118 121.118 98.2207 122.253C99.3051 122.809 100.261 123.26 101.183 123.776C102.941 124.763 104.764 125.648 106.184 127.148C107.872 128.926 108.126 130.092 107.008 132.278C105.541 135.141 103.026 137.105 100.681 139.177C99.6948 140.049 98.6985 140.885 97.9157 141.946C79.6196 141.946 61.3268 141.939 43.0307 141.936C41.8277 140.37 40.2349 139.211 38.7168 137.995C36.6598 136.351 35.0331 134.387 33.8674 132.066C32.9016 130.146 33.2235 128.788 34.7248 127.208C36.6225 125.211 39.1132 124.099 41.4922 122.869C42.5766 122.307 42.8477 122.111 41.7531 121.32C38.0458 118.625 35.0094 115.286 32.4407 111.514C32.095 111.008 31.7019 110.483 31.0242 110.402C29.8008 110.254 28.5537 110.24 27.3473 110.011C25.0023 109.567 22.6166 109.92 20.2885 109.573C17.9773 109.23 15.6695 109.287 13.3821 109.439C8.34972 109.772 3.3309 110.277 -1.69469 110.712C-1.92851 110.523 -1.97935 110.271 -1.94207 109.988C0.379259 109.752 2.70398 109.54 5.01853 109.27C11.3285 108.532 17.6316 108.418 23.9789 108.93C28.2521 109.273 32.4983 109.748 36.6869 110.57C44.2778 112.063 51.4587 114.764 58.3074 118.339C59.8256 121.33 62.2249 123.503 65.0139 125.254C68.179 127.238 71.3441 127.542 74.8075 125.591C78.054 123.765 80.7311 121.502 82.6458 118.339L82.6492 118.342Z" fill="#E1D4BE"/>
<path d="M97.9189 141.953C98.7018 140.892 99.6947 140.056 100.684 139.184C103.029 137.112 105.544 135.148 107.011 132.285C108.129 130.099 107.875 128.933 106.188 127.154C104.768 125.655 102.945 124.766 101.186 123.782C100.264 123.267 99.3084 122.812 98.2239 122.26C99.5151 121.124 100.664 120.09 101.84 119.09C104.497 116.829 106.781 114.262 108.523 111.234C108.858 110.651 109.468 110.456 110.098 110.389C115.459 109.836 120.834 109.169 126.219 109.425C131.024 109.654 135.86 109.748 140.621 110.634C141.279 110.756 141.97 110.695 142.648 110.719C142.499 117.422 140.794 123.732 136.653 129.037C131.265 135.94 124.27 140.316 115.273 141.404C109.478 142.104 103.707 141.865 97.9223 141.953H97.9189Z" fill="#D5C1A3"/>
<path d="M-1.69202 110.719C3.33357 110.284 8.35238 109.779 13.3848 109.445C15.6756 109.294 17.98 109.236 20.2911 109.58C22.6192 109.927 25.0083 109.573 27.35 110.018C28.5564 110.247 29.8035 110.261 31.0268 110.409C31.7046 110.49 32.0977 111.015 32.4434 111.52C35.0087 115.293 38.0451 118.632 41.7558 121.327C42.847 122.122 42.5793 122.317 41.4949 122.876C39.1159 124.106 36.6251 125.217 34.7274 127.215C33.2262 128.795 32.9076 130.152 33.8701 132.073C35.0358 134.394 36.6624 136.357 38.7194 138.001C40.2376 139.214 41.8303 140.376 43.0334 141.943C36.4117 141.987 29.7764 142.276 23.2224 140.979C18.6814 140.08 14.4319 138.365 10.7686 135.589C3.89272 130.381 -0.214506 123.472 -1.3362 114.886C-1.51581 113.498 -1.75641 112.12 -1.69541 110.715L-1.69202 110.719Z" fill="#D5C1A3"/>
<path d="M57.6326 114.411C58.5238 109.455 64.8744 108.384 68.5208 111.059C69.8323 112.019 70.7608 112.076 72.14 111.076C75.3187 108.772 79.3141 109.169 81.7846 111.739C82.608 112.595 83.0554 113.558 83.0655 114.734C82.9266 115.937 82.7876 117.143 82.6521 118.345C80.7374 121.509 78.0637 123.769 74.8138 125.598C71.3504 127.549 68.1853 127.245 65.0202 125.261C62.2278 123.513 59.8319 121.337 58.3137 118.345C58.0325 117.045 57.3445 115.812 57.636 114.414L57.6326 114.411Z" fill="#301B18"/>
<path d="M91.2971 91.1669C90.704 89.8026 90.6973 88.3541 90.6973 86.9089C90.6973 79.8179 90.6973 72.7269 90.7006 65.6359C90.7616 65.5415 90.7786 65.4405 90.7481 65.3293C90.9209 61.7114 94.4927 58.4673 98.0713 58.1608C101.213 57.8913 103.717 58.848 105.801 60.9972C107.035 62.2706 107.59 64.0054 107.614 65.7167C107.716 73.0503 107.682 80.3872 107.699 87.7241C107.699 89.2165 106.933 90.5167 106.618 91.9282C106.482 92.0057 106.293 92.0529 106.215 92.1708C104.117 95.4249 100.179 96.9778 96.5938 95.819C95.5127 95.4687 94.5503 94.7512 93.5371 94.2021H93.5337C93.3236 93.7507 92.9915 93.4172 92.5374 93.2016L92.5103 93.1746C92.3036 92.8647 92.0968 92.5514 91.8901 92.2381C91.8901 92.2381 91.7918 92.1135 91.7952 92.1135C91.7173 91.9484 91.636 91.78 91.558 91.6149C91.5512 91.5307 91.5072 91.4701 91.4326 91.433C91.4191 91.3286 91.375 91.241 91.2971 91.1669ZM99.2303 65.5348C99.3184 65.4506 99.4912 65.3394 99.4743 65.2821C99.4065 65.0362 99.237 65.0126 99.0473 65.1878C98.7728 63.298 97.79 62.5266 95.7161 62.5737C93.9403 62.6108 92.9271 63.4934 92.8661 65.3428C92.778 68.0242 92.778 70.7124 92.8797 73.3939C92.9305 74.7683 93.8014 75.7755 95.184 76.0349C97.0445 76.3852 98.5762 75.6239 98.9219 74.1383C99.5827 71.3053 99.3963 68.415 99.2303 65.5348Z" fill="#301B18"/>
<path d="M34.7012 93.2657C34.7181 93.0568 34.8367 92.7638 34.7419 92.6526C32.9085 90.5539 33.1661 88.0072 33.1695 85.5211C33.1796 79.0331 33.2372 72.5451 33.2067 66.057C33.1932 63.096 35.1722 59.3467 38.5983 58.4809C44.2813 57.0492 49.6797 59.6027 50.0287 66.0233C50.4184 73.2188 50.1135 80.4513 50.1846 87.667C50.1982 89.0683 49.1748 90.1935 49.3713 91.5948C48.5648 91.9991 48.1649 92.6661 48.1141 93.552L48.1276 93.5352C47.5109 93.451 47.3211 94.0472 46.911 94.2999C44.5558 95.7484 42.1294 96.8668 39.2761 95.9202C37.5749 95.3542 36.2871 94.0506 34.7046 93.2691L34.7012 93.2657ZM35.3112 69.5672H35.3213C35.3213 70.1264 35.3213 70.6856 35.3213 71.2448C35.3213 71.804 35.3247 72.3632 35.3213 72.9224C35.3112 74.4484 36.3685 75.8531 37.7003 76.0788C39.598 76.3988 40.9027 75.6847 41.3805 73.8723C42.0854 71.2077 41.8143 68.4656 41.8278 65.7572C41.838 63.6484 40.5909 62.3684 38.6051 62.2639C36.765 62.1696 35.3925 63.5811 35.3213 65.7067C35.2773 66.9935 35.3146 68.2803 35.3146 69.5672H35.3112Z" fill="#301B18"/>
<path d="M34.7012 93.2656C36.2871 94.0471 37.5715 95.3508 39.2727 95.9167C42.126 96.8633 44.5524 95.7449 46.9076 94.2964C47.3143 94.0471 47.5041 93.4475 48.1242 93.5317C47.2804 95.6371 43.3121 97.537 39.9504 96.6848C37.8561 96.1559 35.7246 95.499 34.7012 93.2622V93.2656Z" fill="#D5C1A3"/>
<path d="M93.5405 94.1988C94.5572 94.7479 95.5162 95.4654 96.5972 95.8157C100.183 96.9745 104.12 95.4216 106.218 92.1675C106.293 92.0496 106.486 92.0024 106.621 91.9249C105.91 94.4278 103.053 96.5669 100.054 96.8196C98.051 96.988 96.1397 96.7488 94.4928 95.462C94.0624 95.1252 93.5067 94.8792 93.5405 94.1954V94.1988Z" fill="#D5C1A3"/>
<path d="M48.1104 93.5486C48.1612 92.6627 48.5611 91.999 49.3676 91.5914C49.1643 92.3831 48.7542 93.0366 48.1104 93.5486Z" fill="#D5C1A3"/>
<path d="M92.5371 93.2017C92.9912 93.4139 93.3233 93.7474 93.5334 94.2022C92.8794 94.1887 92.5608 93.8383 92.5371 93.2017Z" fill="#D5C1A3"/>
<path d="M91.89 92.2382C92.0967 92.5514 92.3034 92.8614 92.5101 93.1746C91.9036 93.1241 91.8561 92.7064 91.89 92.2382Z" fill="#D5C1A3"/>
<path d="M91.2971 91.167C91.375 91.2411 91.4191 91.3287 91.4326 91.4331C91.314 91.3859 91.2666 91.2984 91.2971 91.167Z" fill="#D5C1A3"/>
<path d="M91.5576 91.615C91.6356 91.7834 91.7169 91.9485 91.7948 92.1136C91.5102 92.0428 91.5813 91.807 91.5576 91.615Z" fill="#D5C1A3"/>
<path d="M90.7481 65.3293C90.7786 65.4371 90.7616 65.5416 90.7006 65.6359C90.6769 65.5584 90.6464 65.4843 90.6396 65.4068C90.6396 65.3832 90.7108 65.3563 90.7481 65.3293Z" fill="url(#paint1_radial_697_37)"/>
<path d="M99.2304 65.5348C99.3998 68.4117 99.5828 71.302 98.922 74.1384C98.5764 75.6206 97.0446 76.3853 95.1842 76.0349C93.8049 75.7756 92.934 74.7683 92.8798 73.3939C92.7781 70.7125 92.7781 68.0243 92.8662 65.3428C92.9272 63.4934 93.9405 62.6108 95.7162 62.5738C97.7902 62.53 98.7695 63.298 99.0474 65.1879C98.9728 65.3731 98.8881 65.5652 99.2304 65.5382V65.5348Z" fill="#F8F8F8"/>
<path d="M99.23 65.5348C98.8877 65.5618 98.9691 65.3697 99.047 65.1845C99.2368 65.0127 99.4062 65.0363 99.474 65.2822C99.4909 65.3394 99.3147 65.4506 99.23 65.5348Z" fill="url(#paint2_radial_697_37)"/>
<path d="M35.3111 69.5671C35.3111 68.2803 35.2772 66.9935 35.3179 65.7066C35.389 63.581 36.7615 62.1695 38.6016 62.2639C40.5874 62.3683 41.8345 63.6484 41.8244 65.7572C41.8108 68.4689 42.0819 71.211 41.377 73.8722C40.8992 75.6812 39.5945 76.3987 37.6968 76.0787C36.365 75.853 35.3077 74.4483 35.3179 72.9223C35.3213 72.3631 35.3179 71.8039 35.3179 71.2447C35.3179 70.6855 35.3179 70.1263 35.3179 69.5671H35.3077H35.3111Z" fill="#F8F8F8"/>
</g>
</g>
<defs>
<radialGradient id="paint0_radial_697_37" cx="0" cy="0" r="1" gradientUnits="userSpaceOnUse" gradientTransform="translate(70.4994 58.1736) rotate(90) scale(60.1719 72.4994)">
<stop stop-color="#F07C3A"/>
<stop offset="1" stop-color="#C5472D"/>
</radialGradient>
<radialGradient id="paint1_radial_697_37" cx="0" cy="0" r="1" gradientUnits="userSpaceOnUse" gradientTransform="translate(90.7013 65.4826) rotate(90) scale(0.153275 0.0616312)">
<stop stop-color="#C5472D"/>
<stop offset="1" stop-color="#5F2216"/>
</radialGradient>
<radialGradient id="paint2_radial_697_37" cx="0" cy="0" r="1" gradientUnits="userSpaceOnUse" gradientTransform="translate(99.2268 65.3054) rotate(90) scale(0.231995 0.248311)">
<stop stop-color="#C5472D"/>
<stop offset="1" stop-color="#5F2216"/>
</radialGradient>
<clipPath id="clip0_697_37">
<rect width="140" height="140" rx="30" fill="white"/>
</clipPath>
<clipPath id="clip1_697_37">
<rect width="145" height="144" fill="white" transform="translate(-2 -2)"/>
</clipPath>
</defs>
</svg>
