<svg width="140" height="140" viewBox="0 0 140 140" fill="none" xmlns="http://www.w3.org/2000/svg">
<rect width="140" height="140" rx="30" fill="#FE7500"/>
<g clip-path="url(#clip0_1531_7582)">
<path d="M40.4683 55.2056C40.4927 54.9737 40.6327 54.8237 40.8029 54.7112C41.7761 54.0673 42.5062 53.1834 43.2104 52.2736C45.2405 49.6508 47.1536 46.9473 48.8139 44.0695C49.9623 42.0793 51.0254 40.0448 51.9159 37.9251C52.4175 36.731 52.8553 35.5097 53.3183 34.2993C53.8013 33.037 54.2785 31.7725 54.7618 30.5103C54.8266 30.3408 54.8574 30.1492 55.0595 30C56.104 30.2389 57.1568 30.5646 58.2184 30.8547C59.3022 31.1506 60.3852 31.4502 61.4685 31.7492C62.5338 32.0434 63.5996 32.3363 64.6637 32.635C65.7248 32.9326 66.7986 33.1885 67.8517 33.5365C67.8517 33.6976 67.8716 33.8265 67.8483 33.9474C67.7352 34.5326 67.5492 35.0977 67.2708 35.6225C66.8893 36.3413 66.4864 37.0495 66.073 37.7505C65.7439 38.3087 65.3821 38.8471 65.043 39.3992C64.9706 39.5172 64.8517 39.6531 64.995 39.799C65.1073 39.9131 65.2321 39.8363 65.3557 39.8037C67.2791 39.2967 69.2006 38.7809 71.1287 38.2928C71.9488 38.0852 72.7831 37.9332 73.6127 37.7633C75.1457 37.4499 76.68 37.1422 78.2136 36.8321C79.7651 36.5184 81.3137 36.1887 82.8694 35.8975C83.7192 35.7383 84.5801 35.6383 85.4374 35.5223C86.2404 35.4134 87.0433 35.2962 87.8499 35.2235C88.6761 35.1492 89.5101 35.1576 90.3344 35.0699C91.5885 34.9362 92.8434 34.9964 94.098 34.9763C94.3564 34.9721 94.616 34.9677 94.8735 34.983C95.9044 35.0442 96.9353 35.1097 97.9656 35.1807C98.4988 35.2174 99.0322 35.2572 99.5632 35.3165C100.167 35.3842 100.773 35.4529 101.37 35.5618C102.456 35.7594 103.545 35.9543 104.619 36.2088C107.577 36.9101 110.415 37.932 113.021 39.5348C114.382 40.3719 115.631 41.351 116.722 42.5236C118.344 44.2658 119.467 46.2761 119.989 48.6171C120.304 50.0275 120.595 51.4412 120.78 52.8752C120.955 54.2343 121.143 55.5921 121.29 56.9542C121.405 58.0222 121.468 59.0957 121.552 60.1669C121.611 60.9244 121.665 61.6822 121.722 62.4398C121.726 62.4952 121.733 62.5506 121.736 62.606C121.783 63.7173 121.824 64.8287 121.88 65.9395C121.993 68.2184 121.999 70.499 121.998 72.7799C121.998 74.0781 122.01 75.3768 121.976 76.6741C121.933 78.3787 121.853 80.0828 121.782 81.7866C121.746 82.6385 121.703 83.4901 121.647 84.3406C121.6 85.043 121.531 85.7437 121.468 86.445C121.426 86.9246 121.375 87.4037 121.332 87.8834C121.183 89.5443 120.977 91.1983 120.678 92.8389C120.506 93.7854 120.306 94.7272 120.119 95.671C119.861 96.9703 119.393 98.1918 118.802 99.3736C117.977 101.024 116.992 102.561 115.718 103.901C114.163 105.535 112.311 106.726 110.246 107.603C108.611 108.298 106.91 108.78 105.176 109.139C104.131 109.355 103.077 109.539 102.019 109.681C100.979 109.821 99.935 109.955 98.8794 109.943C98.5298 109.939 98.1791 110.005 97.8294 109.999C96.7775 109.982 95.7231 109.981 94.6744 109.907C93.7207 109.84 92.7716 109.698 91.8286 109.521C91.0509 109.375 90.2635 109.281 89.483 109.149C88.3395 108.955 87.1978 108.751 86.0571 108.542C85.6046 108.46 85.1557 108.356 84.7071 108.255C84.4578 108.198 84.4013 108.131 84.4404 107.862C84.5144 107.35 84.5912 106.836 84.7043 106.331C85.085 104.632 85.5153 102.946 86.0216 101.281C86.0743 101.107 86.15 100.941 86.2221 100.752C86.3801 100.766 86.5079 100.762 86.6288 100.79C88.2256 101.158 89.8179 101.547 91.4191 101.895C92.336 102.095 93.2615 102.279 94.1928 102.378C94.9603 102.46 95.7425 102.427 96.5174 102.41C98.1605 102.376 99.7265 101.993 101.22 101.307C102.167 100.872 103.034 100.308 103.81 99.6133C104.748 98.7734 105.43 97.74 105.95 96.6008C106.446 95.5145 106.724 94.3661 106.862 93.1799C107.103 91.0922 107.092 88.9992 107.02 86.904C106.998 86.274 106.992 85.6432 106.992 85.0129C106.991 76.9461 106.987 68.879 106.994 60.8123C106.996 59.0881 107.036 57.3638 107.07 55.6397C107.094 54.4144 107.031 53.1917 106.942 51.9721C106.87 50.9941 106.732 50.0203 106.485 49.067C105.937 46.9487 104.741 45.2886 102.957 44.0453C101.744 43.2004 100.398 42.6561 98.9792 42.2845C98.1771 42.0743 97.3614 41.9359 96.5399 41.8151C94.7765 41.5554 93.0053 41.5927 91.235 41.6277C90.5551 41.6411 89.8764 41.7438 89.1985 41.8171C88.5577 41.8861 87.9159 41.9515 87.2795 42.0517C86.2978 42.2062 85.3179 42.3755 84.3419 42.5623C81.6577 43.0765 79.0667 43.9298 76.469 44.7586C74.6607 45.3357 72.8535 45.9159 71.0463 46.4966C70.8919 46.5462 70.7416 46.6082 70.6099 46.657C70.5589 46.8507 70.6371 46.949 70.7649 47.0044C70.8819 47.0553 71.008 47.0868 71.132 47.1199C72.3777 47.4518 73.6238 47.782 74.8698 48.113C75.0478 48.1603 75.2286 48.2007 75.4016 48.2625C75.5807 48.3268 75.6525 48.483 75.5904 48.66C75.5291 48.8346 75.4567 49.0055 75.3808 49.1742C74.8839 50.2778 74.2362 51.2908 73.5178 52.2588C72.9223 53.0617 72.3056 53.849 71.7037 54.6472C71.595 54.7914 71.4445 54.9164 71.4281 55.1566C71.4977 55.1864 71.5742 55.243 71.6541 55.2485C71.8748 55.2644 72.0969 55.2613 72.3184 55.2613C82.1449 55.2619 91.9714 55.2616 101.798 55.2619C102.001 55.2619 102.205 55.2558 102.407 55.27C102.531 55.2786 102.652 55.3209 102.778 55.3487C102.798 55.4434 102.826 55.5147 102.826 55.5859C102.827 57.5701 102.825 59.5542 102.821 61.5383C102.821 61.5895 102.789 61.6405 102.767 61.7106C102.578 61.7958 102.373 61.766 102.175 61.7663C100.531 61.7691 98.8872 61.7685 97.2433 61.7677C93.4384 61.7655 89.6332 61.7616 85.8284 61.7613C85.6104 61.7613 85.3869 61.7246 85.1909 61.8006C85.0376 61.9551 85.0869 62.1318 85.0861 62.2922C85.0814 63.3493 85.0836 64.4063 85.0836 65.4634C85.0836 66.7059 85.082 67.9484 85.0858 69.1908C85.0864 69.3712 85.0423 69.5617 85.166 69.7518C85.2228 69.7646 85.2918 69.7913 85.3617 69.7941C85.5461 69.8016 85.731 69.7997 85.9157 69.8C91.2907 69.8005 96.6658 69.8002 102.041 69.8022C102.277 69.8022 102.518 69.7732 102.779 69.8598C102.797 69.9706 102.823 70.0753 102.829 70.1808C102.838 70.3473 102.833 70.5146 102.834 70.6814C102.846 72.276 102.86 73.8707 102.868 75.4653C102.869 75.7017 102.904 75.9475 102.769 76.1694C102.532 76.2574 102.29 76.2195 102.052 76.2195C96.6405 76.2214 91.2286 76.2203 85.8167 76.2206C85.5979 76.2206 85.3795 76.2287 85.1391 76.2334C85.1066 76.3676 85.0678 76.47 85.0595 76.5747C85.0465 76.7406 85.0526 76.9082 85.0526 77.075C85.0526 79.8938 85.0589 82.7125 85.0487 85.5313C85.0451 86.4948 84.9882 87.4578 84.9788 88.4216C84.9758 88.7331 85.0362 89.0471 85.0903 89.3559C85.1111 89.475 85.1948 89.583 85.2458 89.6874C86.992 89.4564 90.2992 87.678 92.1852 86.195C92.2686 86.0132 92.1949 85.8392 92.1494 85.6604C91.7557 84.1178 91.3642 82.5744 90.9738 81.0307C90.9292 80.8539 90.897 80.6738 90.8651 80.5238C91.0362 80.2437 91.2929 80.1616 91.5267 80.0697C92.2814 79.7729 93.0394 79.4823 93.8058 79.2181C95.2867 78.7075 96.7797 78.234 98.3077 77.8832C98.5409 77.8297 98.7766 77.7866 99.0128 77.7479C99.1775 77.7209 99.3014 77.7913 99.3707 77.945C99.4392 78.0967 99.5052 78.2498 99.5676 78.4043C101.348 82.8169 103.128 87.23 104.908 91.6429C105.233 92.4499 105.565 93.2545 105.885 94.0638C105.958 94.2489 106.079 94.4257 106.043 94.6635C105.919 94.8205 105.716 94.8689 105.534 94.9477C104.164 95.5432 102.791 96.1356 101.42 96.7297C99.8623 97.4043 98.3049 98.0802 96.7467 98.7534C96.5285 98.8477 96.3056 98.9313 96.1093 99.0101C95.8614 98.9174 95.778 98.7211 95.6981 98.5387C95.5573 98.2172 95.4281 97.889 95.3172 97.5557C94.9015 96.3066 94.6218 95.0212 94.3295 93.7398C94.243 93.3609 94.169 92.9789 94.077 92.6011C94.0257 92.3901 93.877 92.3414 93.7004 92.4602C93.6547 92.4912 93.6117 92.5265 93.5693 92.5621C92.7733 93.2317 91.9051 93.794 90.9935 94.2874C88.9473 95.3948 86.8761 96.4494 84.6954 97.2731C82.6226 98.0563 80.5035 98.6738 78.3406 99.1506C76.9911 99.4482 75.6309 99.6818 74.2662 99.8884C73.5018 100.004 72.729 100.063 71.9596 100.145C71.3552 100.21 70.7502 100.27 70.1452 100.333C70.1083 100.337 70.0717 100.342 70.0348 100.344C69.1504 100.386 68.2659 100.454 67.3812 100.466C65.793 100.487 64.2043 100.472 62.6158 100.479C61.6177 100.483 60.6284 100.391 59.638 100.272C58.7375 100.163 57.8544 99.9911 56.9998 99.6916C54.8627 98.9421 53.0968 97.6941 51.8458 95.7693C51.4925 95.2261 51.1377 94.6835 50.8044 94.1281C50.2462 93.1977 49.9216 92.1741 49.6701 91.1262C49.191 89.1312 49.0482 87.1042 49.0953 85.0572C49.1283 83.624 49.3116 82.2131 49.672 80.8278C49.885 80.009 49.8259 80.0561 50.6718 80.0561C54.4399 80.0558 58.2079 80.0552 61.9759 80.0574C62.1941 80.0574 62.4176 80.0274 62.6613 80.1215C62.6757 80.2217 62.7109 80.3278 62.7026 80.4305C62.6599 80.9659 62.6266 81.5034 62.552 82.0346C62.3946 83.1563 62.3255 84.2857 62.29 85.4143C62.264 86.2453 62.3322 87.0794 62.5518 87.8934C62.8842 89.1265 63.6137 90.0324 64.7286 90.6368C65.5324 91.0724 66.3983 91.3238 67.2877 91.4939C67.7757 91.5872 68.2717 91.6393 68.7655 91.6999C69.1748 91.7503 69.5732 91.6724 69.9991 91.5669C70.0182 91.4486 70.0543 91.3255 70.0554 91.2022C70.0617 90.5716 70.0595 89.941 70.0598 89.3108C70.0615 85.2495 70.0634 81.1883 70.0626 77.1271C70.0626 76.8896 70.0989 76.6465 69.9994 76.3771C69.866 76.3612 69.7249 76.3309 69.5837 76.33C68.697 76.325 67.8106 76.3267 66.9239 76.3264C62.1955 76.3253 57.467 76.3253 52.7383 76.3214C52.5021 76.3214 52.2581 76.367 52.0385 76.2593C51.9084 76.0909 51.9215 75.901 51.9215 75.7173C51.9193 73.974 51.919 72.2309 51.9215 70.4876C51.9215 70.3058 51.9007 70.1148 52.0659 69.9194C52.2523 69.9158 52.4713 69.9077 52.6906 69.9077C56.8096 69.9069 60.9287 69.9077 65.0474 69.9069C66.5067 69.9069 67.9659 69.9055 69.4249 69.9005C69.6054 69.8999 69.795 69.9442 69.9858 69.8234C70.0994 69.6761 70.0515 69.4837 70.0523 69.3047C70.0579 68.0436 70.0573 66.7827 70.059 65.5216C70.0604 64.4832 70.064 63.4445 70.0626 62.4061C70.0623 62.224 70.0972 62.0352 70.0046 61.8674C69.8399 61.7287 69.6481 61.7708 69.4676 61.773C68.6735 61.7833 67.8797 61.8017 67.0859 61.8139C66.6611 61.8206 66.2361 61.8281 65.8116 61.8209C65.5523 61.8164 65.3532 61.9041 65.1816 62.1012C64.9143 62.4083 64.6254 62.6962 64.3529 62.9985C62.7902 64.7337 61.0687 66.3086 59.407 67.9439C58.9587 68.3852 58.5037 68.82 58.0518 69.2577C57.9719 69.3348 57.8954 69.4155 57.8119 69.4884C57.5743 69.6964 57.4681 69.7011 57.2339 69.5124C57.1332 69.4314 57.0389 69.3423 56.943 69.2554C55.4743 67.9278 54.0057 66.6001 52.537 65.2724C52.4821 65.2229 52.425 65.1753 52.3734 65.1224C52.1727 64.9161 52.1655 64.8083 52.3363 64.5959C52.3709 64.5528 52.4097 64.5127 52.4477 64.4723C54.093 62.7335 55.5392 60.8345 56.9058 58.8721C58.7383 56.241 60.4046 53.5072 61.8991 50.6686C61.9909 50.4944 62.1339 50.3334 62.109 50.1291C61.9967 49.9974 61.8841 50.0578 61.7887 50.0965C61.4641 50.2282 61.1452 50.3738 60.823 50.5116C59.4323 51.1074 58.0415 51.7037 56.6494 52.2959C56.4251 52.3913 56.2229 52.5035 56.0741 52.7082C54.8286 54.4211 53.3347 55.9144 51.8985 57.4587C51.1925 58.2176 50.4819 58.9723 49.7732 59.7287C49.672 59.8368 49.5658 59.94 49.4669 60.0497C49.323 60.209 49.153 60.2346 48.9645 60.1527C48.6936 60.0355 48.4213 59.9205 48.1565 59.7905C46.3646 58.9105 44.6294 57.9258 42.9193 56.8969C42.286 56.5161 41.666 56.1129 41.0475 55.7084C40.834 55.5687 40.6088 55.4323 40.4696 55.2054L40.4683 55.2056Z" fill="white"/>
<path d="M22.5561 60.6508C22.7563 60.1614 26.989 53.3421 27.9652 51.9223C28.0256 51.8343 28.108 51.7619 28.1756 51.687C28.5025 51.7174 28.7662 51.8566 29.0135 52.0105C29.4996 52.3126 29.9848 52.6191 30.4439 52.9598C31.0373 53.4003 31.6129 53.8663 32.1818 54.3384C33.7331 55.6255 35.2872 56.9092 36.821 58.2168C38.7505 59.8618 40.5718 61.6249 42.3546 63.4275C43.032 64.1124 43.6495 64.8501 44.1779 65.6602C44.9812 66.8921 45.4289 68.249 45.6352 69.6998C45.8113 70.9375 45.7996 72.18 45.7079 73.4172C45.6067 74.7841 45.3527 76.1329 45.023 77.4648C44.2833 80.4533 43.2804 83.3553 42.1547 86.2161C40.9747 89.2156 39.625 92.1395 38.2345 95.0452C36.7645 98.1172 35.2941 101.189 33.8388 104.268C33.3802 105.238 32.9701 106.232 32.5373 107.214C32.4558 107.399 32.3707 107.583 32.3016 107.735C32.125 107.852 31.9822 107.825 31.8461 107.755C31.4856 107.569 31.1166 107.396 30.7717 107.184C29.717 106.536 28.6672 105.88 27.6244 105.213C25.2588 103.699 22.9013 102.173 20.5345 100.661C19.8497 100.223 19.1443 99.8185 18.4495 99.3965C18.294 99.3021 18.1101 99.2428 17.9995 99.029C18.1032 98.9193 18.2066 98.7932 18.3267 98.6855C21.9666 95.4246 25.3844 91.9338 28.8253 88.4672C30.5853 86.6941 32.2783 84.8573 33.8332 82.8963C34.604 81.9241 35.3379 80.9249 36.0242 79.891C36.7866 78.742 37.3789 77.514 37.7302 76.1736C37.8766 75.6154 37.9653 75.0472 37.9994 74.4754C38.0535 73.5745 37.8843 72.7056 37.5197 71.8774C37.1654 71.072 36.6732 70.359 36.0785 69.7162C35.117 68.6767 34.014 67.81 32.8154 67.0664C31.2613 66.1023 29.6915 65.1633 28.139 64.1964C26.3829 63.1026 24.638 61.9899 22.8891 60.8844C22.7818 60.8164 22.6803 60.739 22.5547 60.6511L22.5561 60.6508Z" fill="white"/>
<path d="M36.3152 48.2104C33.1291 48.0706 30.4987 46.9342 28.4656 44.5342C27.5489 43.4523 26.9645 42.1998 26.7662 40.79C26.6229 39.7708 26.6986 38.758 27.0058 37.7667C27.6338 35.7394 28.8543 34.1598 30.5947 32.9766C30.9451 32.7383 31.32 32.5345 31.6904 32.3277C32.4571 31.8995 33.2952 31.6896 34.1509 31.5367C34.3863 31.4947 34.6239 31.4618 34.8568 31.4081C35.2957 31.3065 35.7343 31.3199 36.1774 31.3725C36.6709 31.4309 37.1703 31.4502 37.6596 31.532C39.7097 31.8747 41.5488 32.6679 43.0336 34.1698C44.3098 35.4607 45.0526 37.0125 45.3171 38.819C45.7083 41.491 44.5566 44.5364 42.0423 46.3276C40.709 47.2775 39.2287 47.8563 37.6094 48.0734C37.1539 48.1344 36.695 48.1709 36.3155 48.2104H36.3152Z" fill="white"/>
</g>
<defs>
<clipPath id="clip0_1531_7582">
<rect width="104" height="80" fill="white" transform="translate(18 30)"/>
</clipPath>
</defs>
</svg>
