<svg width="140" height="140" viewBox="0 0 140 140" fill="none" xmlns="http://www.w3.org/2000/svg">
<rect width="140" height="140" rx="30" fill="white"/>
<g clip-path="url(#clip0_3599_966)">
<path d="M49.8547 66.0167L35.4656 89.7811C32.4294 93.4131 26.8735 91.7276 28.2043 85.4992L46.078 40.9044L49.8547 66.0167Z" fill="url(#paint0_linear_3599_966)"/>
<path d="M55.4192 103.773L46.0751 43.2851C45.6495 40.6064 46.6682 38.6883 48.4814 36.6736C49.7299 35.2861 52.1531 34.4575 54.2558 34.5228C57.4395 34.6221 60.1947 36.7814 61.2219 39.7977L69.6863 66.3798L55.4192 103.773Z" fill="url(#paint1_linear_3599_966)"/>
<path d="M78.0854 106.474C70.2396 122.557 47.6585 111.128 57.9729 95.0049L82.2623 34.1141C83.1164 31.9746 84.4302 30.0337 86.1781 28.5355C96.6344 19.5717 117.002 28.3936 110.97 46.5425C110.484 47.9982 109.84 49.3943 109.097 50.7364L78.0883 106.471L78.0854 106.474Z" fill="url(#paint2_linear_3599_966)"/>
</g>
<defs>
<linearGradient id="paint0_linear_3599_966" x1="50" y1="52.5" x2="28" y2="92" gradientUnits="userSpaceOnUse">
<stop stop-color="#850CFF"/>
<stop offset="1" stop-color="#1895E5"/>
</linearGradient>
<linearGradient id="paint1_linear_3599_966" x1="57.8326" y1="34.5192" x2="57.8326" y2="103.773" gradientUnits="userSpaceOnUse">
<stop stop-color="#A607E8"/>
<stop offset="1" stop-color="#F200A0"/>
</linearGradient>
<linearGradient id="paint2_linear_3599_966" x1="105.5" y1="27.5" x2="63" y2="114" gradientUnits="userSpaceOnUse">
<stop stop-color="#FF9501"/>
<stop offset="1" stop-color="#F70297"/>
</linearGradient>
<clipPath id="clip0_3599_966">
<rect width="84.065" height="89.235" fill="white" transform="translate(28 25)"/>
</clipPath>
</defs>
</svg>
