<svg width="140" height="140" viewBox="0 0 140 140" fill="none" xmlns="http://www.w3.org/2000/svg">
<rect width="140" height="140" rx="30" fill="#F7F7F7"/>
<g clip-path="url(#clip0_3463_491)">
<path d="M67.5202 88.9464C67.0693 88.8133 67.4336 88.0438 67.4427 87.685C67.8572 72.2249 68.2055 56.3271 67.7843 40.8806C67.7479 39.5244 66.7961 38.8046 65.5665 38.5022C62.7225 37.8026 54.7893 38.6556 51.4899 38.9332C46.7287 39.3349 41.915 39.9577 37.1902 40.6482C31.4976 41.4809 25.8552 42.6431 20.1899 43.575C21.9956 40.2736 24.6324 37.164 27.4901 34.7156C42.17 22.1395 65.6325 18.8539 84.3519 22.2591C98.0573 24.7527 112.444 31.1637 119.796 43.4126C119.739 43.5863 119.379 43.4961 119.22 43.478C116.629 43.1937 113.6 42.3158 110.963 41.8555C103.775 40.6053 96.4588 39.5583 89.1792 38.9354C85.7864 38.6443 78.0764 37.7891 75.1004 38.5044C72.2951 39.1769 73.1694 41.3342 73.0693 43.5886C72.4317 57.7533 72.7732 72.8297 73.2264 87.0125C73.2378 87.3578 73.6727 88.9487 73.149 88.9487H67.5202V88.9464Z" fill="#1D68B1"/>
<path d="M18.0131 48.7743C22.9042 47.8626 27.8157 46.9013 32.75 46.2243C36.3614 45.7301 40.1822 45.272 43.8141 45.0193C47.4459 44.7665 55.987 44.0218 58.9449 45.0644C61.8185 46.0776 61.7821 48.9458 61.4132 51.4686C61.0033 54.2759 60.2838 57.2884 59.7122 60.0911C57.8633 69.1469 55.609 78.1237 53.1203 87.0193C52.8789 87.193 51.3146 86.7688 50.8911 86.6695C38.6999 83.8013 24.1315 76.1289 18.9672 64.2253C16.8336 59.3104 16.3145 53.9058 18.0131 48.7743Z" fill="#1D68B1"/>
<path d="M121.984 48.5961C127.369 66.7663 110.328 79.6899 95.0584 84.9703C94.1271 85.293 87.9769 87.2472 87.5761 86.9042C84.1447 75.0886 81.5625 63.0587 79.2468 50.9745C78.9804 48.4268 79.2696 45.9242 82.0111 45.0126C84.9667 44.0309 93.378 44.7779 96.855 45.0216C100.589 45.2811 104.381 45.7256 108.09 46.2266C112.749 46.854 117.364 47.7634 121.984 48.5983V48.5961Z" fill="#1D68B1"/>
<path d="M111.592 119H103.736L99.4829 107.776L95.1087 119H87.1255L95.2271 99.591C96.5911 99.8437 103.112 99.2141 103.743 99.8572L111.59 119H111.592Z" fill="#2169B2"/>
<path d="M70.9017 119H63.0459L58.7925 107.776L54.4183 119H46.4351L54.5367 99.5909C55.8323 99.8256 62.5268 99.2366 63.0482 99.8639L70.9017 119Z" fill="#2169B2"/>
<path d="M48.4956 99.6113V105.224H42.8304V118.619C42.8304 118.646 42.4706 119.002 42.4433 119.002H34.3303V105.226H28.4077V99.6136H48.4956V99.6113Z" fill="#2169B2"/>
<path d="M89.186 99.6113V105.224H83.6483C83.621 105.224 83.2612 105.58 83.2612 105.607V119.002H75.0207V105.226H69.0981V99.6136H89.186V99.6113Z" fill="#2169B2"/>
</g>
<defs>
<clipPath id="clip0_3463_491">
<rect width="106" height="98" fill="white" transform="translate(17 21)"/>
</clipPath>
</defs>
</svg>
