<svg width="140" height="140" viewBox="0 0 140 140" fill="none" xmlns="http://www.w3.org/2000/svg">
<rect width="140" height="140" rx="30" fill="#02AFE3"/>
<path d="M115.928 32.783L101.545 105.29C101.545 105.29 99.5325 110.317 94.0043 107.906L60.8188 82.4625L48.7481 76.6304L28.4344 69.7921C28.4344 69.7921 25.3171 68.6833 25.0172 66.2723C24.7134 63.8574 28.537 62.5513 28.537 62.5513L109.291 30.8732C109.291 30.8732 115.928 27.9571 115.928 32.783Z" fill="#FEFEFE"/>
<path d="M74.9053 93.106L60.8665 109.329C60.8665 109.329 59.6975 110.225 58.4112 109.663C56.5214 109.388 52.0152 88.3314 48.5752 76.4394L51.4553 75.2874L74.9053 93.106Z" fill="#B5D2E5"/>
<path d="M57.3344 107.16C55.4088 106.979 49.5656 79.683 48.5752 76.4394L99.5876 43.8512C102.318 42.1939 103.778 43.5 101.426 45.6939C99.8047 47.2092 60.1913 82.8175 60.1913 82.8175L57.3344 107.16Z" fill="#D3E7F2"/>
</svg>
