<svg width="140" height="140" viewBox="0 0 140 140" fill="none" xmlns="http://www.w3.org/2000/svg">
<rect width="140" height="140" rx="30" fill="#00DFA7"/>
<path d="M100.865 54.0709V68.1001C100.865 69.7208 111.554 89.0069 112.984 93.0755C116.233 102.316 111.532 112.774 101.123 113.538C80.8426 115.023 58.7781 112.371 38.3095 113.534C26.6261 111.433 23.6265 101.341 27.7611 91.0635C29.1133 87.7011 39.0389 69.3792 39.0389 68.1001V54.0709C40.649 53.781 44.4794 54.5833 45.7034 53.8397C46.778 53.1868 53.4105 37.4587 55.1167 34.719C59.5627 27.5817 67.6274 24.0806 75.7881 27.0711C86.3204 30.9315 88.6386 44.9482 93.9617 53.6013C95.1697 54.6776 99.1176 53.7863 100.865 54.0709ZM92.3036 54.0709C86.3791 44.3932 83.7247 27.2081 69.2179 27.8948C55.7572 28.5316 53.3803 44.7952 47.6 54.0709H59.4897C61.0892 50.9702 64.7132 40.901 67.695 39.6895C75.2918 36.603 77.4213 49.7053 80.6522 54.0709H92.3036ZM78.5119 54.0709C77.0922 51.6106 74.0072 42.5786 71.7353 41.5913C65.7059 38.9726 63.8023 50.5023 61.3916 54.0709H78.5119ZM63.2935 55.9727H40.9408V67.3868H57.1111C57.3032 64.0689 58.5308 60.8578 60.6746 58.3477C61.5268 57.3496 62.5729 56.8853 63.2935 55.9727ZM98.961 55.9727H68.2856C67.0278 55.9727 63.3433 58.0897 62.347 59.0699C60.6159 60.7689 58.5361 65.2502 58.5361 67.6251V98.2986H65.4319C66.8837 98.2986 68.7411 95.7084 68.9688 94.2265C69.8851 88.2313 67.1417 73.7235 70.8956 69.5233C71.2052 69.1782 73.8044 67.3885 73.993 67.3885H98.961V55.9745V55.9727ZM51.8787 69.2885H39.9889C39.5975 70.6192 39.0887 72.0086 38.4945 73.2628C32.9544 84.9757 17.7857 105.518 37.8469 111.614C48.2049 110.479 62.0374 113.178 71.9773 111.501C75.6405 110.881 78.8678 107.884 80.1683 104.474C80.4885 103.636 81.3638 100.627 81.3638 99.962V69.2885H74.468C73.6336 69.2885 71.2283 71.9428 71.0006 72.955C69.5755 79.2811 72.6267 90.7877 69.9793 96.662C69.1272 98.553 67.01 99.9638 64.9658 100.209C60.2797 100.773 48.3098 100.697 43.524 100.227C40.8767 99.9673 39.6331 97.8859 39.594 95.333L51.8752 69.2867L51.8787 69.2885ZM57.1093 69.2885L53.8553 69.3668L41.6311 94.4845C40.7451 96.1549 42.236 98.7736 44.0311 98.7736H57.1093V69.2885ZM82.7925 69.2885V98.7736H95.8707C97.6658 98.7736 99.1567 96.1549 98.2707 94.4845L86.0465 69.3668L82.7925 69.2885ZM77.0851 111.613H103.005C103.51 111.613 107.664 109.27 108.244 108.768C112.466 105.125 113.116 98.3449 111.265 93.3655C109.251 87.9484 103.45 75.8068 100.484 70.8576C100.125 70.2581 99.7598 69.7208 99.1994 69.2885H88.023C91.0084 77.3065 96.5325 85.3546 99.5179 93.2196C100.455 95.6871 100.617 99.5582 97.2851 100.188C95.1412 100.594 83.3315 99.7165 82.812 100.22C82.5434 104.918 80.3533 108.437 77.0851 111.611V111.613Z" fill="#00DFA7"/>
<path d="M51.8785 69.2891L39.5973 95.3354C39.6365 97.8882 40.8801 99.9697 43.5274 100.229C48.3132 100.699 60.283 100.776 64.9692 100.212C67.0134 99.9661 69.1305 98.5554 69.9827 96.6643C72.63 90.79 69.5788 79.2817 71.0039 72.9574C71.2316 71.9451 73.637 69.2908 74.4714 69.2908H81.3672V99.9643C81.3672 100.63 80.4919 103.638 80.1716 104.476C78.8711 107.886 75.642 110.884 71.9806 111.503C62.0408 113.181 48.21 110.484 37.8502 111.617C17.789 105.522 32.9559 84.9781 38.4978 73.2651C39.0921 72.0109 39.6009 70.6215 39.9923 69.2908H51.8821L51.8785 69.2891Z" fill="black"/>
<path d="M98.9605 55.973V67.387H73.9925C73.8039 67.387 71.2047 69.1749 70.8951 69.5218C67.1412 73.722 69.8846 88.2298 68.9683 94.225C68.7424 95.7069 66.8832 98.2971 65.4315 98.2971H58.5356V67.6236C58.5356 65.2487 60.6154 60.7692 62.3465 59.0684C63.3428 58.09 67.0291 55.9712 68.2851 55.9712H98.9605V55.973Z" fill="black"/>
<path d="M77.085 111.613C80.3532 108.437 82.545 104.92 82.8119 100.222C83.3314 99.7185 95.1411 100.596 97.2849 100.19C100.615 99.5584 100.454 95.6891 99.5177 93.2216C96.5324 85.3549 91.0082 77.3067 88.0229 69.2905H99.1993C99.7597 69.7228 100.124 70.2601 100.484 70.8596C103.45 75.8088 109.251 87.9504 111.265 93.3675C113.115 98.3469 112.466 105.127 108.244 108.77C107.664 109.272 103.51 111.615 103.005 111.615H77.085V111.613Z" fill="black"/>
<path d="M92.3032 54.0712H80.6519C77.421 49.7055 75.2896 36.6032 67.6946 39.6897C64.7111 40.9012 61.0888 50.9704 59.4894 54.0712H47.5996C53.3799 44.7955 55.7568 28.5319 69.2175 27.895C83.7261 27.2083 86.3788 44.3934 92.3032 54.0712Z" fill="black"/>
<path d="M63.2931 55.9727C62.5726 56.8853 61.5265 57.3496 60.6743 58.3476C58.5305 60.8578 57.3029 64.0689 57.1107 67.3867H40.9404V55.9727H63.2931Z" fill="black"/>
</svg>
