<svg width="140" height="140" viewBox="0 0 140 140" fill="none" xmlns="http://www.w3.org/2000/svg">
<rect width="140" height="140" rx="30" fill="white"/>
<path d="M69.7793 114.271C61.9535 114.271 54.7696 111.638 50.1445 107.706C47.7954 108.411 44.7907 109.546 42.895 110.954C41.2715 112.157 41.4744 113.385 41.7667 113.88C43.0505 116.058 63.7918 115.271 69.7793 114.593V114.271ZM69.7793 114.271C77.6064 114.271 84.7898 111.638 89.4154 107.706C91.7633 108.411 94.7686 109.546 96.665 110.954C98.2872 112.157 98.0849 113.385 97.792 113.88C96.5082 116.058 75.7675 115.271 69.7793 114.593V114.271Z" fill="#FAAB07"/>
<path d="M69.8249 67.1251C82.7492 67.0372 93.107 64.5224 96.6169 63.5584C97.4536 63.328 97.9007 62.9157 97.9007 62.9157C97.9038 62.7971 97.9538 60.8006 97.9538 59.7713C97.9538 42.4277 89.8088 25.0006 69.7775 25C49.7461 25.0006 41.6006 42.4283 41.6006 59.7707C41.6006 60.8012 41.6505 62.7971 41.6543 62.915C41.6543 62.915 42.0183 63.301 42.6845 63.4881C45.9253 64.3943 56.478 67.0341 69.7294 67.1251H69.8249ZM104.945 81.5729C104.144 78.9814 103.051 75.9595 101.943 73.0574C101.943 73.0574 101.306 72.9783 100.983 73.0718C91.0471 75.9733 79.0026 77.8229 69.8249 77.7111H69.7294C60.6029 77.821 48.6403 75.9934 38.737 73.1201C38.3586 73.0103 37.6118 73.0574 37.6118 73.0574C36.504 75.9595 35.4107 78.9821 34.6096 81.5729C30.7887 93.9307 32.027 99.0445 32.9692 99.1587C34.9917 99.4048 40.8406 89.8568 40.8406 89.8568C40.8406 99.5592 49.5557 114.456 69.5127 114.593H70.0422C89.9987 114.456 98.7137 99.5592 98.7137 89.8568C98.7137 89.8568 104.563 99.4048 106.586 99.1594C107.527 99.0445 108.766 93.9301 104.945 81.5729Z" fill="black"/>
<path d="M62.6497 50.6219C59.9323 50.7455 57.6107 47.6344 57.4646 43.6785C57.3172 39.7214 59.399 36.4132 62.1165 36.2896C64.8308 36.1672 67.1518 39.2771 67.2992 43.2342C67.4478 47.192 65.3653 50.5001 62.6497 50.6219ZM82.0898 43.6785C81.9443 47.6338 79.6227 50.7455 76.9052 50.6219C74.189 50.4995 72.1072 47.192 72.2558 43.2348C72.4032 39.2777 74.7235 36.1678 77.4385 36.2896C80.1559 36.4132 82.2378 39.7214 82.0898 43.6785Z" fill="white"/>
<path d="M86.919 56.2083C86.1935 54.5922 78.8796 52.7909 69.8262 52.7909H69.7288C60.6747 52.7909 53.3615 54.5922 52.6353 56.2089C52.6009 56.2809 52.5828 56.3595 52.5822 56.4393C52.5835 56.5508 52.6183 56.6593 52.6821 56.7506C53.2941 57.6462 61.4146 62.0772 69.7288 62.0772H69.8262C78.1397 62.0772 86.2603 57.6474 86.8722 56.7506C86.9365 56.6591 86.9714 56.55 86.9721 56.438C86.9715 56.3587 86.9533 56.2804 86.919 56.2089" fill="#FAAB07"/>
<path d="M65.9897 43.7369C66.114 45.2997 65.261 46.688 64.0878 46.8392C62.912 46.9911 61.8598 45.8476 61.735 44.2848C61.6119 42.7208 62.4636 41.3325 63.6351 41.1819C64.8127 41.0287 65.8667 42.1735 65.9897 43.7363V43.7369ZM73.4553 44.2591C73.6957 43.8267 75.3311 41.5528 78.7173 42.3806C79.6071 42.5984 80.0186 42.9185 80.1054 43.044C80.2334 43.2298 80.269 43.4947 80.1385 43.8511C79.8812 44.5578 79.3498 44.5384 79.0557 44.4003C78.8653 44.3112 76.5068 42.7308 74.3339 45.0888C74.184 45.2501 73.9167 45.306 73.6639 45.1139C73.4097 44.9206 73.3054 44.5302 73.4553 44.2591Z" fill="black"/>
<path d="M69.8249 77.1425H69.7294C63.4877 77.2178 55.9197 76.3869 48.5903 74.9346C47.9634 78.586 47.585 83.1765 47.9097 88.6499C48.7314 102.484 56.9057 111.181 69.5233 111.307H70.0354C82.6536 111.181 90.8273 102.484 91.6503 88.6499C91.975 83.1752 91.5959 78.586 90.9684 74.9339C83.6383 76.3869 76.0685 77.2185 69.8256 77.1419" fill="white"/>
<path d="M52.0452 75.9846V89.5995C52.0452 89.5995 58.2501 90.8572 64.4668 89.9861V77.4281C60.5286 77.204 56.2813 76.7051 52.0452 75.9846Z" fill="#EB1923"/>
<path d="M97.9007 62.9157C97.9007 62.9157 85.8307 66.7454 69.8249 66.854H69.7294C53.7499 66.746 41.6955 62.9282 41.6543 62.9157L37.6118 73.0567C47.723 76.1208 60.2538 78.0953 69.7294 77.9804H69.8249C79.3005 78.0953 91.8307 76.1208 101.943 73.0567L97.9007 62.9157Z" fill="#EB1923"/>
</svg>
