<svg width="140" height="140" viewBox="0 0 140 140" fill="none" xmlns="http://www.w3.org/2000/svg">
<rect width="140" height="140" rx="30" fill="white"/>
<g clip-path="url(#clip0_840_3595)">
<path d="M113.958 67.7022C113.958 78.0931 114.005 86.0953 113.933 94.0974C113.905 97.0266 113.321 99.9323 112.175 102.622C111.266 104.757 109.867 106.666 108.164 108.333C105.616 110.826 102.589 112.325 99.1227 113.184C96.3741 113.867 93.6129 113.975 90.8261 113.978C76.3932 113.989 61.9603 113.969 47.5273 113.998C45.0484 114.004 42.5986 113.881 40.1724 113.364C37.1817 112.726 34.4623 111.41 32.1254 109.559C29.2767 107.304 27.1183 104.396 26.102 100.873C25.3734 98.347 25 95.7295 25 93.0778C25.0073 77.704 25.0237 62.3303 25 46.9565C24.9964 44.2741 25.3935 41.6638 26.2222 39.1327C28.0673 33.4851 31.8231 29.5723 37.4585 27.5006C39.096 26.8989 40.8063 26.5801 42.5694 26.3405C46.3798 25.8217 50.183 26.0541 53.9843 26.0396C66.5976 25.9874 79.2109 26.018 91.8242 26.0216C95.4634 26.0216 99.0862 26.3693 102.447 27.7709C105.676 29.1166 108.35 31.2909 110.343 34.2039C111.302 35.6055 112.108 37.0755 112.672 38.686C113.304 40.4892 113.636 42.3447 113.75 44.2309C114.275 52.8473 113.781 61.4728 113.956 67.704L113.958 67.7022ZM104.84 70.2261C104.84 70.2261 104.855 70.2261 104.862 70.2261C104.862 63.1535 104.849 56.081 104.869 49.0084C104.877 46.8412 104.623 44.7335 104 42.6456C103.279 40.2208 101.715 38.477 99.6764 37.1133C97.0809 35.3767 94.0773 34.9461 91.0538 34.9335C77.5917 34.8777 64.1296 34.9119 50.6656 34.8957C48.6038 34.8939 46.5529 34.9984 44.5092 35.2452C43.043 35.4217 41.6405 35.746 40.3236 36.4918C39.0723 37.2016 38.056 38.1365 37.0542 39.1273C35.9249 40.2442 35.1271 41.5431 34.792 43.0779C34.3767 44.9749 34.1017 46.9097 34.098 48.8445C34.0689 63.5282 34.0743 78.2138 34.1199 92.8976C34.1253 94.4685 34.3075 96.0934 34.9869 97.5346C35.9504 99.5775 37.0014 101.579 39.1306 102.779C40.6114 103.613 42.1596 104.45 43.7989 104.593C46.2287 104.804 48.6748 105.032 51.1283 105.023C57.8894 104.996 64.6523 105.074 71.4134 105C78.5971 104.921 85.7826 105.295 92.9626 104.845C95.0755 104.713 97.1136 104.328 98.9842 103.234C99.9041 102.696 100.82 102.116 101.478 101.337C103.598 98.8298 104.851 95.9547 104.844 92.6112C104.829 85.1495 104.838 77.686 104.838 70.2243L104.84 70.2261Z" fill="#2575DF"/>
<path d="M104.84 70.2261C104.84 77.6877 104.829 85.1512 104.846 92.6129C104.853 95.9564 103.598 98.8316 101.48 101.339C100.822 102.117 99.9079 102.698 98.9863 103.236C97.1157 104.33 95.0775 104.713 92.9647 104.847C85.7846 105.297 78.5991 104.922 71.4155 105.002C64.6544 105.075 57.8932 104.998 51.1303 105.025C48.675 105.034 46.2307 104.805 43.8009 104.594C42.1616 104.452 40.6134 103.614 39.1326 102.78C37.0034 101.581 35.9524 99.5792 34.9889 97.5363C34.3095 96.0952 34.1274 94.4684 34.1219 92.8993C34.0764 78.2156 34.0709 63.53 34.1 48.8462C34.1037 46.9114 34.3805 44.9767 34.794 43.0797C35.1292 41.5449 35.9269 40.246 37.0562 39.1291C38.058 38.1383 39.0762 37.2015 40.3257 36.4935C41.6425 35.7477 43.045 35.4235 44.5113 35.2469C46.5549 35.0001 48.6058 34.8938 50.6677 34.8974C64.1298 34.9136 77.5919 34.8794 91.0558 34.9353C94.0794 34.9479 97.0829 35.3784 99.6784 37.115C101.717 38.4787 103.279 40.2226 104.002 42.6474C104.624 44.7353 104.877 46.843 104.871 49.0101C104.849 56.0827 104.864 63.1553 104.864 70.2279C104.857 70.2279 104.849 70.2279 104.842 70.2279L104.84 70.2261ZM69.0695 99.9737V99.9827C70.7379 99.9827 72.4045 99.9827 74.0729 99.9827C81.1692 99.9809 88.2654 99.9899 95.3617 99.9647C96.7933 99.9593 98.2614 99.9125 99.1502 98.4929C99.8168 97.4282 99.8678 96.2339 99.866 95.0305C99.8606 78.5452 99.8606 62.06 99.8478 45.5747C99.8478 44.7407 99.795 43.9048 99.7094 43.0743C99.5655 41.6746 98.642 40.5955 97.3725 40.3072C96.6385 40.1415 95.8972 40.0532 95.1376 40.0532C83.6754 40.0586 72.2114 40.0388 60.7492 40.0532C54.6256 40.0604 48.5002 39.9343 42.3802 40.1631C41.0834 40.2118 39.9887 40.6549 39.4295 42.0565C39.1071 42.8653 39.1071 43.6454 39.1071 44.438C39.0798 61.1629 39.0725 77.8877 39.0671 94.6125C39.0671 95.4214 39.0907 96.2321 39.1636 97.0373C39.3075 98.6262 40.8138 99.9701 42.413 99.9701C51.2979 99.9701 60.1828 99.9701 69.0695 99.9701V99.9737Z" fill="#022766"/>
<g opacity="0.58" filter="url(#filter0_f_840_3595)">
<path d="M69.0844 101.25C59.7944 101.25 50.5043 101.25 41.2124 101.25C39.5403 101.25 37.9653 99.8483 37.8148 98.1914C37.7386 97.3516 37.7139 96.5062 37.7139 95.6627C37.7196 78.2212 37.7272 60.7797 37.7558 43.3383C37.7558 42.5117 37.7558 41.6982 38.0929 40.8547C38.6775 39.3931 39.8221 38.929 41.1781 38.8802C47.5791 38.6416 53.9819 38.775 60.3848 38.7656C72.3696 38.7506 84.3564 38.7712 96.3413 38.7656C97.1354 38.7656 97.9125 38.8577 98.6781 39.0305C100.007 39.3292 100.973 40.4564 101.122 41.9161C101.211 42.7803 101.264 43.6539 101.266 44.5237C101.278 61.7153 101.28 78.9069 101.285 96.0985C101.285 97.3535 101.234 98.599 100.537 99.7093C99.6075 101.19 98.0705 101.239 96.5755 101.244C89.1557 101.27 81.7358 101.261 74.316 101.263C72.5715 101.263 70.8289 101.263 69.0844 101.263V101.254V101.25ZM83.7965 56.7293C83.7146 56.8101 83.6308 56.8928 83.5489 56.9736C83.1375 57.1314 82.8766 57.4507 82.6309 57.7889C82.5414 57.8772 82.4519 57.9655 82.3643 58.0519C82.212 58.1026 82.0996 58.1947 82.0577 58.3544C81.9301 58.531 81.8044 58.7057 81.6768 58.8823C81.3949 58.9199 81.2388 59.0777 81.2026 59.3538C77.7345 62.7072 74.4569 66.241 71.1812 69.7748C69.8862 71.1706 68.6768 72.6435 67.4028 74.06C67.2561 74.2234 67.1457 74.6893 66.6924 74.2591C63.7595 71.4674 60.6133 68.9106 57.5776 66.2316C57.0843 65.7958 56.8672 65.8502 56.4615 66.2748C55.4788 67.3043 54.4409 68.2831 53.4353 69.2938C53.0125 69.7184 52.9135 70.1054 53.4182 70.6202C55.3855 72.6209 57.3033 74.6705 59.2516 76.692C62.2264 79.7805 65.205 82.8653 68.1893 85.9444C68.8749 86.6508 69.2691 86.6376 69.8272 85.8392C70.4994 84.8792 71.1032 83.876 71.7507 82.8991C73.5447 80.1882 75.293 77.4434 77.1594 74.7814C79.3457 71.6609 81.6121 68.5931 83.8898 65.5346C85.6286 63.1994 87.4436 60.9169 89.3499 58.7095C90.7421 57.0976 92.1133 55.4688 93.5093 53.8588C93.9283 53.3759 94.0673 52.9795 93.6084 52.3953C93.0218 51.6476 92.4142 50.851 92.1038 49.9774C91.7934 49.102 91.4944 49.4477 91.1021 49.7746C90.1232 50.5899 89.1462 51.4033 88.2339 52.3013C86.796 53.7197 85.2896 55.0686 83.9488 56.5828C83.8174 56.5509 83.766 56.596 83.7984 56.7275L83.7965 56.7293Z" fill="black"/>
</g>
<path d="M69.0688 99.9738C60.1839 99.9738 51.2991 99.9738 42.4124 99.9738C40.8131 99.9738 39.3068 98.6299 39.1629 97.041C39.0901 96.2357 39.0664 95.4251 39.0664 94.6162C39.0719 77.8914 39.0792 61.1665 39.1065 44.4417C39.1065 43.649 39.1065 42.869 39.4289 42.0601C39.988 40.6586 41.0827 40.2136 42.3796 40.1668C48.5014 39.938 54.625 40.0659 60.7486 40.0569C72.2108 40.0425 83.6748 40.0623 95.137 40.0569C95.8965 40.0569 96.6396 40.1452 97.3718 40.3109C98.6432 40.5973 99.5667 41.6782 99.7087 43.078C99.7943 43.9066 99.8453 44.7443 99.8472 45.5784C99.8581 62.0637 99.8599 78.5489 99.8654 95.0342C99.8654 96.2375 99.8162 97.4319 99.1496 98.4966C98.2607 99.9161 96.7908 99.963 95.361 99.9684C88.2647 99.9936 81.1685 99.9846 74.0723 99.9864C72.4038 99.9864 70.7372 99.9864 69.0688 99.9864V99.9774V99.9738ZM83.1393 57.2826C83.061 57.36 82.9808 57.4393 82.9025 57.5167C82.5091 57.6681 82.2595 57.9743 82.0246 58.2986C81.939 58.3833 81.8534 58.4679 81.7696 58.5508C81.6239 58.5994 81.5164 58.6877 81.4763 58.8408C81.3543 59.0102 81.2341 59.1777 81.112 59.347C80.8425 59.3831 80.6931 59.5344 80.6585 59.7992C77.3417 63.0148 74.207 66.4034 71.0742 69.792C69.8356 71.1305 68.679 72.5428 67.4605 73.9011C67.3203 74.0578 67.2146 74.5046 66.7811 74.0921C63.9761 71.4151 60.9671 68.9633 58.0638 66.3944C57.5921 65.9764 57.3844 66.0287 56.9965 66.4358C56.0566 67.423 55.0639 68.3616 54.1022 69.3308C53.6979 69.7379 53.6032 70.109 54.0858 70.6026C55.9674 72.5212 57.8015 74.4866 59.6648 76.425C62.5099 79.3866 65.3586 82.3446 68.2128 85.2972C68.8685 85.9746 69.2455 85.962 69.7792 85.1963C70.4221 84.2758 70.9995 83.3138 71.6188 82.377C73.3346 79.7775 75.0066 77.1456 76.7916 74.5929C78.8826 71.6006 81.0501 68.6588 83.2285 65.726C84.8915 63.4868 86.6273 61.298 88.4505 59.1813C89.782 57.6356 91.0934 56.0738 92.4285 54.5299C92.8292 54.0669 92.9622 53.6868 92.5232 53.1266C91.9622 52.4096 91.3812 51.6458 91.0843 50.8081C90.7874 49.9686 90.5015 50.3001 90.1262 50.6135C89.19 51.3954 88.2556 52.1754 87.3832 53.0365C86.008 54.3966 84.5673 55.6901 83.285 57.142C83.1593 57.1114 83.1101 57.1547 83.1411 57.2808L83.1393 57.2826Z" fill="#F8F8F8"/>
<path d="M81.1107 59.3452C81.2328 59.1759 81.353 59.0084 81.4732 58.8408C81.7318 58.9057 81.8175 58.794 81.7683 58.5508C81.8539 58.4661 81.9395 58.3815 82.0215 58.2986C82.4896 58.2319 82.6881 57.8644 82.9012 57.5168C82.9795 57.4393 83.0597 57.36 83.138 57.2826C83.2618 57.3132 83.3092 57.2645 83.2837 57.142C84.5642 55.6901 86.0067 54.3966 87.3819 53.0365C88.2525 52.1754 89.1869 51.3954 90.1249 50.6135C90.4983 50.3019 90.7843 49.9686 91.083 50.8081C91.3799 51.6458 91.9609 52.4096 92.5219 53.1266C92.9609 53.6886 92.8261 54.0687 92.4272 54.5299C91.0921 56.072 89.7807 57.6357 88.4492 59.1813C86.6242 61.298 84.8902 63.485 83.2272 65.7261C81.0488 68.6588 78.8813 71.6006 76.7903 74.5929C75.0053 77.1474 73.3333 79.7775 71.6175 82.377C71 83.3138 70.4208 84.2776 69.7779 85.1963C69.2442 85.962 68.8672 85.9746 68.2115 85.2972C65.3573 82.3446 62.5086 79.3866 59.6635 76.425C57.802 74.4866 55.9679 72.5212 54.0845 70.6026C53.6018 70.1108 53.6966 69.7379 54.1009 69.3308C55.0626 68.3634 56.0553 67.4248 56.9952 66.4358C57.3831 66.0287 57.5908 65.9765 58.0625 66.3944C60.9658 68.9633 63.9748 71.4151 66.7798 74.0921C67.2115 74.5046 67.319 74.0578 67.4592 73.9011C68.6759 72.5428 69.8343 71.1305 71.0729 69.792C74.2057 66.4034 77.3404 63.0148 80.6554 59.7992C80.8812 59.7218 81.0306 59.5686 81.1107 59.3452Z" fill="#022766"/>
<path d="M82.9027 57.5167C82.6878 57.8662 82.4911 58.2319 82.0229 58.2986C82.2616 57.9743 82.5111 57.6662 82.9027 57.5167Z" fill="#2575DF"/>
<path d="M81.1106 59.3452C81.0305 59.5686 80.8811 59.7217 80.6553 59.7992C80.6917 59.5326 80.8411 59.3812 81.1106 59.3452Z" fill="#2575DF"/>
<path d="M81.7682 58.5508C81.8156 58.794 81.7318 58.9075 81.4731 58.8408C81.515 58.6859 81.6225 58.5994 81.7682 58.5508Z" fill="#2575DF"/>
<path d="M83.2854 57.142C83.3109 57.2645 83.2635 57.3131 83.1397 57.2825C83.1087 57.1546 83.1597 57.1114 83.2854 57.142Z" fill="#2575DF"/>
</g>
<defs>
<filter id="filter0_f_840_3595" x="34.3139" y="35.3368" width="70.3713" height="69.3264" filterUnits="userSpaceOnUse" color-interpolation-filters="sRGB">
<feFlood flood-opacity="0" result="BackgroundImageFix"/>
<feBlend mode="normal" in="SourceGraphic" in2="BackgroundImageFix" result="shape"/>
<feGaussianBlur stdDeviation="1.7" result="effect1_foregroundBlur_840_3595"/>
</filter>
<clipPath id="clip0_840_3595">
<rect width="89" height="88" fill="white" transform="translate(25 26)"/>
</clipPath>
</defs>
</svg>
