<svg width="140" height="140" viewBox="0 0 140 140" fill="none" xmlns="http://www.w3.org/2000/svg">
<rect width="140" height="140" rx="30" fill="#0169D8"/>
<g clip-path="url(#clip0_683_135)">
<path d="M79.5076 43.974C80.0457 43.974 80.4278 43.974 80.81 43.974C85.4561 43.974 90.1041 43.974 94.7502 43.974C96.0994 43.974 96.1423 44.0223 95.8576 45.35C95.0446 49.1591 94.2004 52.9624 93.4205 56.7773C93.2431 57.6431 92.8434 57.931 91.9719 57.9252C87.1952 57.8943 82.4185 57.9368 77.6417 57.8885C76.7 57.8788 76.3764 58.1784 76.1814 59.077C73.9471 69.3332 71.6133 79.5661 69.4394 89.8338C68.9773 92.0157 68.8818 94.3135 68.9247 96.5514C68.9929 100.038 72.0929 102.479 75.9904 102.359C78.7024 102.276 81.3559 101.87 83.9236 100.971C84.8185 100.658 85.0018 100.809 84.801 101.719C83.8554 105.994 82.9117 110.269 81.9115 114.53C81.8238 114.901 81.3773 115.369 81.0088 115.467C76.2146 116.768 71.3482 117.4 66.3784 116.722C62.0638 116.132 58.0026 114.907 54.7349 111.863C51.7168 109.053 50.3657 105.459 49.9211 101.476C49.2271 95.2624 50.4612 89.2289 51.7597 83.2167C53.5144 75.0999 55.3335 66.9986 57.1662 58.8992C57.3572 58.0528 57.1155 57.8962 56.3454 57.902C52.6078 57.9252 48.8722 57.9156 45.1347 57.9098C43.9571 57.9098 43.8654 57.8209 44.1072 56.6942C44.9514 52.7653 45.8366 48.8441 46.6632 44.9113C46.825 44.1364 47.2189 43.9566 47.9422 43.9624C51.6798 43.9876 55.4154 43.9431 59.1529 43.9953C60.0673 44.0088 60.4494 43.7595 60.6386 42.8415C61.4964 38.6498 62.4498 34.4774 63.3252 30.2895C63.4656 29.617 63.7892 29.3232 64.4131 29.1242C70.5234 27.1684 76.626 25.1876 82.7304 23.2163C83.9626 22.8182 84.0367 22.8743 83.7618 24.1517C82.4185 30.3842 81.0615 36.6129 79.7104 42.8435C79.6441 43.1527 79.5973 43.4658 79.5076 43.9702V43.974Z" fill="white"/>
</g>
<defs>
<clipPath id="clip0_683_135">
<rect width="52" height="94" fill="white" transform="translate(44 23)"/>
</clipPath>
</defs>
</svg>
