<svg width="140" height="140" viewBox="0 0 140 140" fill="none" xmlns="http://www.w3.org/2000/svg">
<rect width="140" height="140" rx="30" fill="black"/>
<path fill-rule="evenodd" clip-rule="evenodd" d="M90.751 56.5962C97.181 61.1714 104.881 63.6157 112.77 63.5861V47.9371C111.219 47.9414 109.673 47.7752 108.158 47.4416V59.9086C100.251 59.9226 92.5397 57.4502 86.1126 52.8405V85.0252C86.0932 90.3064 84.6461 95.484 81.925 100.009C79.2038 104.534 75.31 108.237 70.6563 110.726C66.0027 113.216 60.7627 114.398 55.4921 114.148C50.2214 113.898 45.1165 112.226 40.7188 109.307C44.7866 113.427 49.9843 116.245 55.6536 117.406C61.323 118.567 67.209 118.018 72.5664 115.828C77.9238 113.639 82.5115 109.907 85.7486 105.106C88.9858 100.306 90.7267 94.6511 90.751 88.8592V56.5962ZM96.4578 40.6343C93.188 37.0869 91.1816 32.5571 90.751 27.7499V25.7156H86.3732C86.9144 28.7712 88.0919 31.6787 89.8294 34.249C91.5668 36.8193 93.8252 38.9949 96.4578 40.6343V40.6343ZM50.8555 96.9184C49.3382 94.9325 48.4083 92.5601 48.1717 90.0712C47.9352 87.5824 48.4014 85.0771 49.5174 82.8404C50.6334 80.6037 52.3543 78.7255 54.4843 77.4195C56.6143 76.1136 59.0677 75.4323 61.5655 75.4533C62.9446 75.4528 64.3155 75.6639 65.6306 76.0792V59.9086C64.0933 59.7048 62.5427 59.6176 60.9922 59.6478V72.2191C57.79 71.206 54.324 71.4364 51.2837 72.8645C48.2434 74.2926 45.8516 76.8137 44.5839 79.9265C43.3163 83.0393 43.2657 86.5156 44.4422 89.6641C45.6188 92.8125 47.9362 95.4023 50.9337 96.9184H50.8555Z" fill="#EE1D52"/>
<path fill-rule="evenodd" clip-rule="evenodd" d="M86.1095 52.7361C92.5365 57.3459 100.248 59.8183 108.155 59.8043V47.3373C103.65 46.3839 99.5576 44.0394 96.4547 40.6343C93.8221 38.9949 91.5637 36.8193 89.8263 34.249C88.0888 31.6787 86.9112 28.7712 86.3701 25.7156H74.8522V88.8592C74.8415 91.6542 73.9566 94.3756 72.3216 96.6414C70.6867 98.9073 68.3839 100.604 65.7364 101.493C63.089 102.382 60.2298 102.419 57.5603 101.598C54.8909 100.778 52.5451 99.1414 50.8524 96.9184C48.1697 95.5637 46.0213 93.3438 44.7538 90.617C43.4863 87.8902 43.1737 84.8155 43.8662 81.8891C44.5588 78.9626 46.2163 76.355 48.5711 74.487C50.926 72.619 53.841 71.5996 56.8458 71.5932C58.2245 71.5976 59.5947 71.8086 60.9109 72.2191V59.6478C55.2239 59.7844 49.7005 61.5801 45.0187 64.8143C40.3369 68.0486 36.7005 72.5806 34.5559 77.8542C32.4112 83.1278 31.8517 88.9134 32.9459 94.5008C34.0401 100.088 36.7405 105.234 40.7156 109.307C45.1143 112.247 50.2272 113.937 55.5097 114.197C60.7922 114.458 66.0465 113.28 70.7128 110.788C75.3791 108.296 79.2828 104.584 82.0079 100.047C84.733 95.5106 86.1776 90.3188 86.1877 85.0252L86.1095 52.7361Z" fill="white"/>
<path fill-rule="evenodd" clip-rule="evenodd" d="M108.157 47.336V43.9715C104.02 43.9891 99.9629 42.8314 96.457 40.633C99.552 44.0479 103.648 46.3944 108.157 47.336V47.336ZM86.3724 25.7143C86.3724 25.1145 86.19 24.4885 86.1118 23.8886V21.8542H70.2161V85.024C70.2023 88.5611 68.787 91.9482 66.2808 94.442C63.7745 96.9358 60.3821 98.3325 56.8481 98.3256C54.7673 98.3361 52.7135 97.8534 50.8547 96.9172C52.5474 99.1401 54.8932 100.777 57.5627 101.597C60.2321 102.417 63.0913 102.381 65.7387 101.492C68.3862 100.603 70.689 98.906 72.3239 96.6402C73.9589 94.3743 74.8438 91.6529 74.8545 88.858V25.7143H86.3724ZM60.9133 59.6205V56.0473C54.3723 55.1579 47.7232 56.5121 42.0497 59.8892C36.3761 63.2664 32.0126 68.4672 29.6703 74.6442C27.3281 80.8212 27.1451 87.6101 29.1513 93.9045C31.1575 100.199 35.2345 105.628 40.718 109.306C36.773 105.224 34.1013 100.08 33.0294 94.5023C31.9575 88.9251 32.5318 83.1562 34.682 77.9002C36.8323 72.6443 40.4654 68.129 45.1376 64.9059C49.8098 61.6829 55.3187 59.8916 60.9914 59.7509L60.9133 59.6205Z" fill="#69C9D0"/>
</svg>
