<svg width="140" height="140" viewBox="0 0 140 140" fill="none" xmlns="http://www.w3.org/2000/svg">
<rect width="140" height="140" rx="30" fill="white"/>
<g clip-path="url(#clip0_859_7299)">
<path d="M22 70.0092C21.9967 43.5226 43.5226 21.995 70.0092 22C96.4958 22.005 118.012 43.5359 118 70.0292C117.988 96.5075 96.4341 118.027 69.9491 118C43.4992 117.972 22.0033 96.4574 22 70.0092ZM69.9858 25.1743C45.259 25.1776 25.2043 45.2089 25.1726 69.9291C25.1426 94.696 45.1873 114.802 69.9308 114.824C94.7427 114.846 114.836 94.7777 114.827 69.9842C114.819 45.2206 94.7544 25.1693 69.9858 25.1743Z" fill="black"/>
<path d="M52.9553 62.2895C51.2339 62.0427 49.5892 61.8225 47.9545 61.5506C47.7827 61.5223 47.5308 61.192 47.5358 61.0068C47.6259 57.6074 48.3198 54.3864 50.5533 51.6892C52.3931 49.4674 54.7784 48.3782 57.6791 48.3065C60.8367 48.2264 63.7641 48.9403 66.558 50.4132C69.3787 51.8994 72.2593 53.2772 75.1284 54.67C76.8664 55.514 78.6879 56.0611 80.6512 56.0478C82.893 56.0311 84.2892 55.1054 84.918 52.9469C85.27 51.7359 85.3767 50.4516 85.6119 49.0921C87.1965 49.0921 88.8546 49.0771 90.5126 49.1171C90.666 49.1205 90.9313 49.4607 90.9429 49.6576C91.1114 52.4765 90.8011 55.2188 89.2999 57.6841C87.4217 60.7683 84.5594 62.1611 81.0248 62.2929C77.5103 62.4247 74.1976 61.7458 71.1234 59.9443C68.7548 58.5565 66.3295 57.2621 63.9125 55.9594C62.2795 55.0787 60.5314 54.5866 58.6583 54.5416C56.6316 54.4932 55.142 55.3539 54.3614 57.2071C53.8593 58.398 53.5708 59.6808 53.2105 60.9301C53.0954 61.3254 53.0553 61.7424 52.9553 62.2912V62.2895Z" fill="black"/>
<path d="M66.166 62.2428C67.6239 62.7883 68.9933 63.297 70.3611 63.8125C71.6966 64.3162 72.3644 65.2686 72.3644 66.6698C72.3644 76.6613 72.3644 86.6544 72.3644 96.6459C72.3644 97.0045 72.3644 97.3615 72.3644 97.7969H66.166V62.2412V62.2428Z" fill="black"/>
</g>
<defs>
<clipPath id="clip0_859_7299">
<rect width="96" height="96" fill="white" transform="translate(22 22)"/>
</clipPath>
</defs>
</svg>
