<svg width="140" height="140" viewBox="0 0 140 140" fill="none" xmlns="http://www.w3.org/2000/svg">
<rect width="140" height="140" rx="30" fill="white"/>
<g clip-path="url(#clip0_3450_560)">
<path d="M98.513 59.5166C98.5421 58.5108 98.2128 58.0658 99.4236 57.889C100.743 57.6969 104.55 57.7244 105.915 57.8727C106.402 57.9255 107.066 58.1379 107.39 58.5199C109.276 63.0146 111.276 67.4758 113.068 72.0102C113.772 73.7902 114.352 76.0356 115.1 77.6804C115.174 77.843 115.199 78.0665 115.43 78.0848C117.496 71.3427 120.622 64.9511 123.167 58.3746C123.326 58.1714 123.677 58.0515 123.922 57.9875C124.909 57.7264 129.347 57.7376 130.483 57.8697C130.896 57.9174 131.153 58.1318 131.536 58.2029V90.3265C131.536 90.3895 131.127 90.7258 131.006 90.7776C130.486 91.0011 126.061 90.993 125.273 90.9015C124.993 90.869 124.054 90.6221 124.054 90.3265V71.5124C123.771 71.5561 123.769 71.8385 123.683 72.0427C121.875 76.3383 120.446 80.8199 118.526 85.0728C117.92 85.8653 114.453 85.7281 113.39 85.6509C112.815 85.6092 112.026 85.6021 111.713 85.0443C109.823 80.6756 107.954 76.3028 106.2 71.8741C106.1 71.6231 106.295 71.4321 105.833 71.5134V90.5744C105.406 90.6496 105.06 90.8578 104.613 90.9036C103.401 91.0295 100.952 91.0184 99.7258 90.9086C99.3664 90.8771 98.6093 90.8141 98.512 90.4098V59.5166H98.513Z" fill="#063B87"/>
<path d="M71.5085 64.9388V90.49C71.5085 90.7054 70.5195 90.874 70.2856 90.8984C69.4874 90.9817 64.9012 90.9939 64.4564 90.7114C64.35 90.6434 64.2416 90.6058 64.2185 90.4585L64.0247 64.9388H56.4606C55.9928 64.9388 55.9255 63.8294 55.8934 63.3762C55.8341 62.5482 55.7849 58.5005 56.1323 58.0342C56.2568 57.8676 56.4285 57.8615 56.6152 57.8645L79.3777 57.895C79.5263 57.9255 79.5645 58.023 79.6117 58.151C79.9239 58.9973 79.8828 61.8827 79.8125 62.8916C79.7844 63.2909 79.6277 64.9388 79.2362 64.9388H71.5095H71.5085Z" fill="#063B86"/>
<path d="M46.5684 58.2536C47.4429 59.0542 47.3696 61.581 47.2491 62.7006C47.1286 63.8152 46.7561 64.7509 45.5463 64.9246L9.93475 64.9399C8.90465 64.822 8.22495 64.2551 8.07836 63.2005C7.97596 62.47 7.96291 59.9981 8.10146 59.3082C8.22093 58.7169 8.82533 57.9702 9.45584 57.8828L45.4058 57.8645C45.7652 57.8686 46.3064 58.0139 46.5674 58.2536H46.5684Z" fill="#E30D2C"/>
<path d="M85.454 57.9102C86.2261 57.7405 90.5844 57.7598 91.3966 57.9143C92.3434 58.0941 92.1255 58.4639 92.3113 59.2909L92.3354 89.8356C92.3203 90.6687 91.8033 90.7937 91.0934 90.8811C89.9017 91.0284 86.9319 91.0416 85.7412 90.9034C85.3556 90.8587 84.9149 90.7785 84.8496 90.3253L84.9289 58.1997C85.0655 58.0443 85.2572 57.9529 85.455 57.9092L85.454 57.9102Z" fill="#063B86"/>
<path d="M31.7344 83.8352H45.8877C46.2291 83.8352 46.9339 84.7456 47.0654 85.1103C47.4911 86.2889 47.6025 90.9004 45.7251 90.9004H31.7344C31.7174 90.9004 31.4905 90.6718 31.4905 90.6536V84.0811C31.4905 84.0364 31.6812 83.9186 31.7344 83.8342V83.8352Z" fill="#E30D2C"/>
<path d="M23.6815 70.854V77.9192H9.44788C9.06235 77.9192 8.19289 76.9185 8.09851 76.4877C7.97201 75.9096 7.98506 72.7011 8.13968 72.1616C8.24911 71.7806 9.03022 70.853 9.44788 70.853H23.6825L23.6815 70.854Z" fill="#E40D2C"/>
<path d="M23.6812 83.8352V90.9004H9.44764C9.00087 90.9004 8.23683 89.9078 8.13442 89.4323C7.94969 88.5697 7.93262 85.284 8.41052 84.5952C8.51293 84.4468 9.36833 83.8352 9.44764 83.8352H23.6822H23.6812Z" fill="#E30D2C"/>
<path d="M45.968 71.0184C47.4991 71.2409 47.3676 74.2005 47.2672 75.3699C47.1487 76.7405 46.8204 77.8733 45.2422 77.9251L31.6521 77.9191L31.5708 70.9646L45.968 71.0174V71.0184Z" fill="#E40D2C"/>
<path d="M98.5128 90.4078C98.7357 80.126 98.2156 69.7933 98.5128 59.5166V90.4078Z" fill="#123F61"/>
<path d="M45.9681 71.0186L31.6521 71.0176L31.6532 77.9203L31.4895 70.853L45.9681 71.0186Z" fill="#97303B"/>
</g>
<defs>
<clipPath id="clip0_3450_560">
<rect width="124" height="42" fill="white" transform="translate(8 49)"/>
</clipPath>
</defs>
</svg>
