<svg width="140" height="140" viewBox="0 0 140 140" fill="none" xmlns="http://www.w3.org/2000/svg">
<rect width="140" height="140" rx="30" fill="#3164B7"/>
<g clip-path="url(#clip0_2714_1605)">
<path d="M35.2636 65.9645L110.024 65.9004C112.378 66.1282 113.757 68.6342 113.4 70.877L108.1 104.833C107.643 106.797 106.025 108.206 104.178 108.823C79.3947 109.179 54.5437 108.863 29.7343 108.982C27.6176 108.856 26.035 107.292 26 105.147L31.2228 69.8352C31.8466 67.9154 33.3745 66.5396 35.2636 65.9667V65.9645ZM94.1547 72.5359H88.4678L83.6566 101.024H89.0151L94.1547 72.5359ZM104.655 72.5359H98.9682L94.1569 101.024H99.5154L104.655 72.5359ZM73.5962 101.024H78.7358L82.1265 81.3699C78.3659 81.6176 74.7695 80.2529 71.0724 81.3633C64.3983 83.3694 61.2594 90.6352 62.321 97.2818C63.0434 101.816 67.9685 101.677 71.2738 100.115C71.589 99.9647 73.7188 98.485 73.8151 98.5978L73.5984 101.026L73.5962 101.024ZM41.0073 81.3699H35.3205L37.2905 101.022L42.5462 100.922L47.677 89.0958L48.8809 101.022C50.3716 100.887 52.1446 101.208 53.5937 101.037C53.9089 101 54.1672 101.015 54.3226 100.67L63.5315 81.3699H57.5163L52.4861 94.8421L52.1578 81.3699H46.7993L41.003 94.8399V81.3699H41.0073Z" fill="#FBFCFC"/>
<path d="M58.7224 61.0543L61.568 40.2985C64.059 40.3494 66.4428 39.5244 66.4866 42.9461C67.5263 42.3179 68.1852 41.2496 69.2928 40.6989C72.0902 39.3098 75.8268 39.6637 76.6607 43.1673C78.158 41.8181 79.7187 40.3605 81.8223 40.1017C87.1611 39.4403 88.5576 42.4175 88.2599 47.2636C87.9863 51.7204 86.4409 56.5134 86.2833 61.0565H80.3776L82.3454 47.6949C82.19 44.0608 78.2083 44.6625 77.475 47.6329L75.3496 61.0543H69.6627C69.7656 57.0465 71.0658 52.9258 71.3832 48.991C71.6919 45.1844 69.9057 43.7357 67.0732 46.6266C65.5825 51.1984 65.5431 56.3055 64.6303 61.0543H58.7246H58.7224Z" fill="#FBFCFC"/>
<path d="M96.1446 53.5672C96.5627 58.0484 102.661 57.0177 105.202 54.9231C105.798 55.6685 107.689 56.6926 107.072 57.6392C107.004 57.7432 105.41 59.3114 105.303 59.3843C100.516 62.6202 92.6839 62.0341 90.7182 55.799C88.1331 47.5887 95.3544 37.7549 104.171 40.4489C107.63 41.5062 110.333 46.1289 106.914 48.6504C104.033 50.7737 99.4739 52.2556 96.1446 53.565V53.5672ZM102.619 46.6354C104.401 44.3683 99.9664 43.1075 97.876 45.2663C96.7618 46.4164 96.4007 48.4889 96.1249 50.0106C97.7972 49.2299 99.8242 48.4402 101.38 47.4803C101.648 47.3166 102.482 46.8101 102.619 46.6354Z" fill="#FBFCFC"/>
<path d="M44.7242 33.0083L43.6319 40.513C44.6103 40.4909 45.5997 40.5506 46.5804 40.513C47.0379 40.4953 48.2462 39.9402 48.4125 40.6413C48.5242 41.108 47.734 43.9104 47.7624 44.6845L43.3386 44.7C43.089 44.7597 43.0431 45.2839 42.9993 45.5029C42.6206 47.4537 41.5984 52.7997 41.675 54.505C41.78 56.8606 43.8376 56.9712 45.5976 56.1949C45.3174 57.3694 45.4706 59.4264 45.1313 60.4703C44.9934 60.8972 42.9205 61.2002 42.3995 61.2445C31.7679 62.1646 36.6733 51.3488 37.0848 45.0694C37.0213 44.6292 35.0666 44.6978 34.6638 44.7089C34.9177 44.1183 34.9528 40.6612 35.1016 40.513C35.141 40.4732 35.8721 40.5307 36.207 40.4157C37.6036 39.9402 37.7831 38.6507 38.512 37.662C39.9873 35.6581 42.2704 33.4816 44.7264 33.0061L44.7242 33.0083Z" fill="#FBFCFC"/>
<path d="M56.9735 40.2963L53.5938 61.0675L48.2244 60.8309L51.0787 41.0793C51.0481 40.8404 51.4946 40.2941 51.6128 40.2941H56.9714L56.9735 40.2963Z" fill="#FBFCFC"/>
<path d="M53.8542 31.073C56.3999 30.6328 58.3743 32.1944 58.0482 34.8662C57.5031 39.3142 50.3278 38.7679 51.083 33.7935C51.269 32.5615 52.6546 31.2809 53.8542 31.073Z" fill="#FBFCFC"/>
<path d="M41.0074 81.3699V94.8399L46.8037 81.3699H52.1622L52.4906 94.8421L57.5208 81.3699H63.536L54.3271 100.67C54.1717 101.015 53.9134 101 53.5982 101.037C52.1469 101.208 50.3761 100.889 48.8854 101.022L47.6815 89.0958L42.5506 100.922L37.295 101.022L35.325 81.3699H41.0118H41.0074Z" fill="#56A371"/>
<path d="M73.5963 101.024L73.813 98.5956C73.7167 98.4828 71.589 99.9647 71.2717 100.113C67.9664 101.674 63.0434 101.814 62.3189 97.2796C61.2595 90.633 64.3962 83.3672 71.0703 81.361C74.7674 80.2507 78.3638 81.6154 82.1244 81.3677L78.7337 101.022H73.5941L73.5963 101.024ZM75.7852 85.3445C71.0659 85.3556 67.4957 90.1044 68.1437 94.716C68.5639 97.7131 73.3161 96.0232 74.2267 94.2604C74.7258 93.2961 75.2818 89.3656 75.4985 88.0363C75.643 87.1472 75.8487 86.2558 75.7874 85.3445H75.7852Z" fill="#56A371"/>
<path d="M94.1546 72.5359L89.015 101.024H83.6565L88.47 72.5359H94.1546Z" fill="#56A371"/>
<path d="M104.655 72.5359L99.5155 101.024H94.1548L98.9683 72.5359H104.655Z" fill="#56A371"/>
<path d="M75.7851 85.3445C75.8464 86.2558 75.6428 87.1472 75.4962 88.0363C75.2794 89.3679 74.7235 93.2961 74.2244 94.2604C73.3138 96.0232 68.5616 97.7109 68.1413 94.716C67.4956 90.1044 71.0636 85.3556 75.7829 85.3445H75.7851Z" fill="#FBFCFC"/>
</g>
<defs>
<clipPath id="clip0_2714_1605">
<rect width="87.4545" height="78" fill="white" transform="translate(26 31)"/>
</clipPath>
</defs>
</svg>
