<svg width="140" height="140" viewBox="0 0 140 140" fill="none" xmlns="http://www.w3.org/2000/svg">
<rect width="140" height="140" rx="30" fill="white"/>
<g clip-path="url(#clip0_812_41)">
<path d="M71.4663 36.1506L69.7675 34.9026L67.5019 33.2389L60.2683 31.7719H40.8154V88.8361H46.5544C48.5004 80.2429 54.615 73.2709 62.614 70.2419C63.6913 69.833 64.8027 69.4967 65.9437 69.2375H65.9448C65.9557 69.2229 65.9678 69.2073 65.9799 69.1905C66.0161 69.1425 66.0579 69.0877 66.104 69.0274C67.4547 67.2598 69.2821 66.4956 71.3038 66.414C71.3565 66.4151 71.4081 66.4174 71.4597 66.4196V88.8004H71.5223V36.192L71.4663 36.1506ZM56.976 68.6073C49.8467 68.5794 44.0407 62.6018 44.0627 55.3091C44.0847 48.0231 49.961 42.0925 57.1276 42.1226C64.2931 42.1539 70.1101 48.1226 70.0892 55.4219C70.0684 62.7224 64.1888 68.6352 56.976 68.6073ZM65.9239 51.4678C64.4227 48.803 60.3331 46.517 58.4322 47.317C59.1471 48.2611 59.4304 49.3237 59.247 50.4969C59.0593 51.6946 58.4366 52.6175 57.4625 53.2924C56.6521 53.8555 55.7461 54.0991 54.7665 53.9728C53.2697 53.7795 52.2045 52.9371 51.472 51.5538C49.8402 54.2912 49.8753 58.7068 52.8305 61.7236C55.6802 64.633 60.4836 64.9839 63.6924 62.4923C67.0814 59.861 68.0247 55.1974 65.9239 51.4678Z" fill="#5FB74E"/>
<path d="M83.0346 31.7361L75.5946 33.2032L72.87 35.1495L71.7971 35.916L71.5237 36.1104L71.4665 36.1506L71.46 36.1562V88.8004H71.5226V66.4229C71.539 66.4241 71.5544 66.4241 71.5698 66.4252C71.6576 66.4207 71.7466 66.4162 71.8355 66.414C73.8573 66.4956 75.6846 67.2598 77.0353 69.0274C77.0672 69.0687 77.0968 69.1078 77.1243 69.1436C77.1364 69.1603 77.1485 69.176 77.1594 69.1905C77.166 69.1983 77.1726 69.2073 77.1781 69.2151C77.1847 69.2229 77.1902 69.2307 77.1946 69.2374H77.1957C78.3433 69.4989 79.4623 69.8386 80.5462 70.2497C80.5473 70.2497 80.5484 70.2508 80.5495 70.2508C87.581 72.9212 93.1531 78.6407 95.7108 85.8283C95.8821 86.3054 96.0391 86.7892 96.1819 87.2786C98.7571 85.4697 100.805 83.1166 102.276 80.1725C102.55 79.6217 102.806 79.0496 103.04 78.4575V31.7361H83.0346ZM73.0501 55.4219C73.0292 48.1226 78.8462 42.1539 86.0118 42.1226C93.1784 42.0925 99.0547 48.0231 99.0766 55.3091C99.0986 62.6018 93.2926 68.5793 86.1633 68.6073C78.9505 68.6352 73.071 62.7224 73.0501 55.4219ZM91.6673 51.5538C90.9348 52.937 89.8696 53.7795 88.3728 53.9728C87.3932 54.099 86.4873 53.8555 85.6768 53.2924C84.7027 52.6175 84.0801 51.6946 83.8923 50.4968C83.7089 49.3237 83.9922 48.2611 84.7071 47.317C82.8062 46.517 78.7166 48.803 77.2154 51.4678C75.1147 55.1974 76.058 59.861 79.4469 62.4923C82.6558 64.9839 87.4591 64.633 90.3089 61.7235C93.264 58.7068 93.2992 54.2912 91.6673 51.5538Z" fill="#499D4B"/>
<path d="M71 66L71.5 75.8322" stroke="#FBD066"/>
<path d="M97 87.4442C96.164 88.0154 95.2759 88.5328 94.3357 89H71V75.712C71.0162 75.712 71.0336 75.7074 71.0498 75.7017C71.1887 75.7508 71.8773 76.6279 72 76.5C73.7727 74.6427 74.9669 71.8043 76.7419 69.9481C77.2398 69.4284 77.3613 69.4877 76.9804 69C86.5641 71.1121 94.2292 78.2398 97 87.4442Z" fill="#5FB64E"/>
<path d="M71.5226 88.8004V88.8361H46.5547C48.7631 79.0854 56.3382 71.4218 65.945 69.2374C65.5837 69.7145 65.699 69.6564 66.1712 70.1648C67.8547 71.9804 69.5404 73.7949 71.2217 75.6117C71.304 75.6999 71.3776 75.777 71.46 75.7983V88.8004H71.5226Z" fill="#89C45E"/>
<path d="M71.4599 75.7983V78.7111C71.4818 78.7234 71.5027 78.7301 71.5225 78.7323V75.8027C71.5005 75.8061 71.4796 75.8038 71.4599 75.7983ZM101.176 50.9806C99.9298 46.6332 97.281 43.3785 93.354 41.2366C90.0738 39.4467 86.5717 38.9059 82.9478 39.7092C77.9138 40.8243 74.2196 43.7773 71.9024 48.4801C71.8398 48.6086 71.7674 48.7326 71.6982 48.8589C71.6685 48.8522 71.6389 48.8455 71.6081 48.8376C71.6048 48.8153 71.6015 48.7929 71.5971 48.7717H71.5422C71.5378 48.7929 71.5345 48.8153 71.5313 48.8376C71.528 48.8388 71.5258 48.8388 71.5225 48.8399C71.5005 48.8455 71.4807 48.8499 71.4599 48.8544C71.4533 48.8566 71.4478 48.8577 71.4412 48.8589C71.372 48.7326 71.2995 48.6086 71.2369 48.4801C68.9198 43.7773 65.2256 40.8243 60.1916 39.7092C56.5677 38.9059 53.0656 39.4467 49.7854 41.2366C45.8583 43.3785 43.2096 46.6332 41.9631 50.9806C40.8353 54.918 41.1769 58.7806 42.9976 62.4554C44.9315 66.3592 47.9613 69.0341 52.0037 70.5123C54.3208 71.3603 56.7247 71.5916 59.1396 71.2341C60.3212 71.0586 61.4699 70.6318 62.6142 70.2419C62.6185 70.2408 62.6229 70.2385 62.6273 70.2374C62.7152 70.2072 62.8019 70.1793 62.8898 70.1491C63.2456 70.0307 63.4323 70.0776 63.6673 70.3335C66.1546 73.0296 68.6497 75.7178 71.1414 78.4094C71.2897 78.5692 71.383 78.6697 71.4599 78.7111C71.4818 78.7234 71.5027 78.7301 71.5225 78.7323C71.5389 78.7345 71.5543 78.7334 71.5697 78.7301C71.6784 78.7558 71.775 78.6496 71.998 78.4094C74.4897 75.7178 76.9847 73.0296 79.4721 70.3335C79.7071 70.0776 79.8938 70.0307 80.2496 70.1491C80.3484 70.1827 80.4473 70.2162 80.5461 70.2497C80.5472 70.2497 80.5483 70.2508 80.5494 70.2508C81.686 70.6374 82.827 71.0598 83.9998 71.2341C86.4147 71.5916 88.8186 71.3603 91.1357 70.5123C95.1781 69.0341 98.2079 66.3592 100.142 62.4554C101.963 58.7806 102.304 54.918 101.176 50.9806ZM71.4599 61.9191C71.4785 61.8844 71.4983 61.8509 71.517 61.8163H71.6224C72.1374 62.7403 72.602 63.576 73.0983 64.4665C72.6635 64.4408 72.2879 64.4185 71.9134 64.3961L71.5225 64.385L71.4599 64.3827L71.3336 64.3794C71.3061 64.3872 71.2743 64.3928 71.238 64.395C70.8592 64.4185 70.4803 64.4408 70.041 64.4665C70.5187 63.6096 70.9668 62.8029 71.4599 61.9191ZM56.9762 68.6073C49.8469 68.5793 44.0409 62.6017 44.0628 55.3091C44.0848 48.0231 49.9611 42.0925 57.1277 42.1226C64.2932 42.1539 70.1102 48.1226 70.0894 55.4219C70.0685 62.7224 64.1889 68.6352 56.9762 68.6073ZM77.2 69.2441C77.2351 69.2899 77.2659 69.3313 77.2911 69.3693C77.3043 69.3871 77.3153 69.4039 77.3252 69.4195C77.3373 69.4374 77.3471 69.4542 77.3559 69.4698C77.3636 69.4821 77.3702 69.4944 77.3746 69.5067C77.3768 69.51 77.3779 69.5123 77.379 69.5156C77.3856 69.5279 77.39 69.5402 77.3933 69.5514C77.3966 69.5603 77.3988 69.5693 77.4009 69.5771C77.4009 69.5793 77.402 69.5816 77.402 69.5838C77.4031 69.5838 77.4031 69.5871 77.4031 69.5894C77.4053 69.6005 77.4064 69.6117 77.4064 69.6229C77.4064 69.6397 77.4042 69.6564 77.3977 69.6732C77.3966 69.681 77.3944 69.6888 77.39 69.6955C77.3878 69.7045 77.3823 69.7134 77.3768 69.7223C77.3702 69.7346 77.3625 69.7469 77.3526 69.7603C77.3493 69.7648 77.346 69.7693 77.3427 69.7726C77.3416 69.7749 77.3406 69.7771 77.3384 69.7782C77.3329 69.786 77.3263 69.7938 77.3186 69.8017C77.3109 69.8106 77.3032 69.8195 77.2933 69.8296C77.2922 69.8307 77.2911 69.8329 77.29 69.8341C77.2845 69.8397 77.278 69.8464 77.2725 69.8531L77.1956 69.9313C77.1703 69.9559 77.1429 69.9827 77.1143 70.0128C77.099 70.0274 77.0836 70.043 77.0682 70.0598C77.0364 70.0922 77.0034 70.1268 76.9683 70.1648C75.2848 71.9804 73.5991 73.7949 71.9178 75.6117C71.8014 75.7368 71.7015 75.8407 71.5697 75.7927C71.5543 75.7983 71.5378 75.8027 71.5225 75.8027C71.5005 75.8061 71.4796 75.8038 71.4599 75.7983C71.3775 75.777 71.3039 75.6999 71.2216 75.6117C69.5403 73.7949 67.8546 71.9804 66.1711 70.1648C66.136 70.1268 66.103 70.0922 66.0712 70.0598L66.0481 70.0363C66.0097 69.9972 65.9745 69.9626 65.9438 69.9313C65.9317 69.9179 65.9196 69.9056 65.9075 69.8944L65.8669 69.8531C65.8614 69.8464 65.8548 69.8397 65.8493 69.8341C65.8493 69.8329 65.8471 69.8307 65.8461 69.8296C65.8362 69.8195 65.8285 69.8106 65.8208 69.8017C65.8131 69.7938 65.8065 69.786 65.801 69.7782C65.7999 69.7771 65.7977 69.7749 65.7966 69.7726C65.7933 69.7693 65.79 69.7648 65.7867 69.7603C65.7769 69.7469 65.7692 69.7346 65.7626 69.7223C65.7571 69.7134 65.7516 69.7045 65.7494 69.6955C65.745 69.6888 65.7428 69.681 65.7417 69.6732C65.7351 69.6564 65.7329 69.6397 65.7329 69.6229C65.7329 69.6117 65.734 69.6005 65.7362 69.5894C65.7362 69.5871 65.7362 69.5849 65.7373 69.5838C65.7373 69.5816 65.7384 69.5793 65.7384 69.5771C65.7406 69.5693 65.7428 69.5603 65.7461 69.5514C65.7494 69.5402 65.7538 69.5279 65.7604 69.5156C65.7615 69.5123 65.7626 69.51 65.7648 69.5067C65.7692 69.4944 65.7758 69.4821 65.7835 69.4698C65.7922 69.4542 65.8021 69.4374 65.8142 69.4195C65.8241 69.4039 65.8351 69.3871 65.8482 69.3693C65.8735 69.3313 65.9043 69.2899 65.9394 69.2441C65.9405 69.2419 65.9427 69.2397 65.9438 69.2374H65.9449C65.9493 69.2307 65.9548 69.2229 65.9614 69.2151C65.9668 69.2073 65.9734 69.1983 65.98 69.1905C65.991 69.176 66.0031 69.1603 66.0152 69.1436C66.0426 69.1078 66.0723 69.0687 66.1041 69.0274C67.4549 67.2598 69.2822 66.4956 71.3039 66.414C71.3566 66.4151 71.4083 66.4173 71.4599 66.4196C71.4807 66.4207 71.5016 66.4218 71.5225 66.4229C71.5389 66.424 71.5543 66.424 71.5697 66.4252C71.6575 66.4207 71.7465 66.4162 71.8354 66.414C73.8572 66.4956 75.6845 67.2598 77.0353 69.0274C77.0671 69.0687 77.0968 69.1078 77.1242 69.1436C77.1363 69.1603 77.1484 69.176 77.1594 69.1905C77.1659 69.1983 77.1725 69.2073 77.178 69.2151C77.1846 69.2229 77.1901 69.2307 77.1945 69.2374H77.1956C77.1956 69.2374 77.1989 69.2419 77.2 69.2441ZM86.1632 68.6073C78.9505 68.6352 73.0709 62.7224 73.05 55.4219C73.0292 48.1226 78.8461 42.1539 86.0117 42.1226C93.1783 42.0925 99.0546 48.0231 99.0765 55.3091C99.0985 62.6017 93.2925 68.5793 86.1632 68.6073ZM71.4599 75.7983V78.7111C71.4818 78.7234 71.5027 78.7301 71.5225 78.7323V75.8027C71.5005 75.8061 71.4796 75.8038 71.4599 75.7983Z" fill="#4D4C4B"/>
<path d="M99.5441 109.655C99.0115 109.398 98.5074 109.126 97.9814 108.907C96.1058 108.128 93.961 108.957 93.1418 110.839C92.2841 112.811 92.9013 115.518 94.9845 116.424C96.7471 117.189 98.6864 116.775 99.7484 114.911C100.199 114.121 100.362 113.244 100.369 112.351C100.39 109.393 100.401 106.436 100.363 103.48C100.353 102.682 101.058 101.576 101.91 101.329C102.439 101.175 102.583 101.262 102.583 101.815C102.583 105.33 102.579 108.845 102.584 112.361C102.586 113.534 102.43 114.669 101.879 115.717C100.965 117.454 99.6089 118.63 97.6564 118.879C94.4025 119.294 91.7702 117.842 90.8214 114.468C90.3536 112.806 90.4041 111.105 91.2782 109.524C92.0579 108.115 93.166 107.121 94.7177 106.701C96.321 106.267 97.8672 106.484 99.3519 107.203C99.465 107.258 99.5957 107.421 99.599 107.539C99.621 108.193 99.6078 108.849 99.6012 109.505C99.6012 109.554 99.565 109.602 99.5441 109.654V109.655Z" fill="#3CAF41"/>
<path d="M66.7244 115.79C67.358 116.069 67.9357 116.398 68.5561 116.587C70.915 117.302 73.2815 115.944 73.4803 113.2C73.555 112.167 73.4199 111.167 72.8653 110.309C72.3964 109.582 71.7068 109.069 70.8513 108.811C68.2662 108.034 66.2851 109.834 66.0315 112.231C65.9469 113.032 65.8986 113.841 65.8942 114.648C65.8788 117.579 65.8887 120.508 65.8887 123.439C65.8887 123.861 65.694 124.018 65.3045 123.911C64.3633 123.651 63.6902 122.783 63.6891 121.803C63.6858 118.789 63.6517 115.774 63.7023 112.761C63.7319 110.986 64.2678 109.369 65.5592 108.079C66.8123 106.829 68.3508 106.421 70.0409 106.501C71.195 106.555 72.2921 106.864 73.2244 107.593C73.9053 108.126 74.4324 108.765 74.8618 109.564C75.367 110.504 75.5987 111.457 75.7107 112.487C76.005 115.184 74.2732 117.949 71.7112 118.697C70.1232 119.162 68.5397 119.03 67.0418 118.258C66.9122 118.191 66.742 118.037 66.7376 117.916C66.709 117.21 66.7233 116.503 66.7233 115.789L66.7244 115.79Z" fill="#3CAF41"/>
<path d="M88.3044 116.362C87.8058 116.922 87.4149 117.486 86.9086 117.905C85.7467 118.864 84.3631 119.168 82.897 119.023C81.2607 118.863 79.8035 118.227 78.6888 116.984C77.3491 115.492 76.7077 113.727 77.1294 111.687C77.6379 109.222 79.0051 107.476 81.4167 106.719C83.3703 106.105 85.1812 106.521 86.835 107.701C88.6525 108.998 89.3388 110.846 89.3345 113.034C89.3345 113.419 89.1104 113.412 88.8491 113.412C86.8207 113.41 84.7913 113.411 82.763 113.41C81.8175 113.41 80.8709 113.406 79.9254 113.408C79.3203 113.408 79.2753 113.511 79.4367 114.097C79.9001 115.777 81.8988 116.902 83.2869 116.844C84.2368 116.805 85.0022 116.318 85.6754 115.675C86.4496 114.935 86.4441 114.929 87.3072 115.594C87.6103 115.828 87.9145 116.061 88.3066 116.362H88.3044ZM83.2067 111.396C84.2203 111.396 85.2339 111.4 86.2486 111.393C86.7351 111.39 86.8032 111.256 86.6308 110.813C86.3771 110.163 85.9422 109.676 85.3701 109.319C84.4169 108.723 83.412 108.415 82.282 108.754C81.185 109.084 80.4712 109.86 79.8858 110.797C79.8057 110.925 79.7255 111.142 79.7793 111.244C79.8331 111.343 80.0572 111.387 80.2065 111.388C81.2069 111.4 82.2063 111.394 83.2067 111.396Z" fill="#3CAF41"/>
<path d="M119.987 115.165C119.987 115.932 119.999 116.725 119.977 117.517C119.972 117.668 119.873 117.865 119.756 117.958C118.496 118.949 117.065 119.114 115.551 118.81C114.401 118.58 113.422 118.04 112.642 117.132C111.15 115.392 110.751 113.388 111.12 111.145C111.514 108.754 113.546 106.876 115.9 106.58C117.684 106.357 119.394 106.522 120.89 107.605C122.104 108.483 122.866 109.707 122.914 111.25C122.987 113.605 122.973 115.962 123.001 118.319C123.004 118.63 122.861 118.7 122.587 118.659C121.575 118.511 120.797 117.597 120.786 116.49C120.772 115.067 120.812 113.643 120.766 112.221C120.748 111.65 120.651 111.047 120.435 110.525C120.035 109.566 119.204 109.05 118.244 108.809C116.262 108.311 114.799 108.9 113.63 110.642C113.477 110.872 113.453 111.191 113.364 111.467C112.738 113.402 113.741 115.315 114.779 116.057C116.131 117.022 118.125 117.132 119.445 115.652C119.609 115.468 119.811 115.321 119.988 115.164L119.987 115.165Z" fill="#3CAF41"/>
<path d="M49.8483 112.734C49.7846 109.199 52.4444 106.507 55.9058 106.477C59.2102 106.448 61.882 109.14 62.0489 112.301C62.2642 116.372 59.0345 118.84 56.1771 118.956C52.6585 119.1 49.6715 116.084 49.8472 112.735L49.8483 112.734ZM55.4446 108.637C54.7582 108.668 53.7578 109.058 53.033 109.998C52.0556 111.265 51.9304 112.693 52.3829 114.19C53.2526 117.064 56.8305 117.552 58.6216 115.662C59.5473 114.685 59.7483 113.491 59.6703 112.188C59.5462 110.116 57.8111 108.6 55.4457 108.638L55.4446 108.637Z" fill="#3CAF41"/>
<path d="M37.5902 112.741C37.7901 116.196 34.7613 118.849 31.7688 118.952C28.2756 119.072 25.3303 116.291 25.4017 112.703C25.4719 109.16 27.9329 106.524 31.513 106.481C34.8547 106.44 37.7857 109.279 37.5902 112.741ZM35.2797 112.714C35.2797 110.643 34.1793 109.14 32.252 108.717C30.8145 108.402 29.5725 108.843 28.6094 109.993C28.1668 110.523 27.9747 111.166 27.8055 111.837C27.5134 113 27.7451 114.129 28.3118 115.049C29.3001 116.653 30.9683 117.131 32.6979 116.586C34.3879 116.054 35.2775 114.639 35.2786 112.714H35.2797Z" fill="#3CAF41"/>
<path d="M41.7534 118.66C40.7584 118.715 39.7855 117.941 39.6416 117.002C39.6032 116.755 39.5801 116.503 39.5801 116.254C39.5768 112.082 39.5856 107.91 39.5713 103.738C39.568 102.635 39.9546 101.817 40.9912 101.386C41.0791 101.349 41.1691 101.311 41.2625 101.293C41.6809 101.215 41.7797 101.295 41.7808 101.732C41.7841 102.751 41.7819 103.769 41.7819 104.788C41.7819 106.685 41.7808 108.583 41.7819 110.481C41.7819 111.084 41.8456 111.136 42.4507 111.143C43.4742 111.154 44.2144 110.753 44.691 109.781C45.1412 108.864 45.7046 108.005 46.2108 107.114C46.3492 106.869 46.5304 106.767 46.8115 106.772C47.4957 106.787 48.1809 106.777 48.9035 106.777C48.8728 106.875 48.8607 106.982 48.8113 107.067C48.1414 108.218 47.4726 109.37 46.7885 110.511C46.6402 110.758 46.4403 110.978 46.2427 111.189C45.9088 111.545 45.911 111.639 46.3635 111.833C47.2684 112.22 47.8756 112.881 48.1161 113.846C48.2161 114.246 48.2446 114.673 48.2523 115.088C48.271 116.162 48.2501 117.237 48.2666 118.312C48.2721 118.673 48.1535 118.713 47.824 118.66C46.7379 118.487 45.9879 117.372 46.0428 116.339C46.0681 115.867 46.0505 115.388 46 114.919C45.8967 113.946 45.2345 113.334 44.2715 113.306C43.6279 113.287 42.9822 113.297 42.3376 113.303C41.8665 113.307 41.783 113.39 41.7819 113.867C41.7775 115.304 41.7819 116.742 41.7797 118.179C41.7797 118.341 41.7622 118.504 41.7523 118.66H41.7534Z" fill="#3CAF41"/>
<path d="M20.2194 103.68C20.2194 104.541 20.2172 105.32 20.2194 106.097C20.2216 106.69 20.3007 106.773 20.886 106.776C22.049 106.779 23.2119 106.776 24.4078 106.776C24.4078 107.395 24.41 107.99 24.4078 108.586C24.4067 108.905 24.1717 108.875 23.9675 108.875C22.9385 108.877 21.9106 108.875 20.8816 108.876C20.2875 108.876 20.2216 108.941 20.2205 109.548C20.2183 111.334 20.2139 113.12 20.2227 114.906C20.226 115.55 20.2754 116.191 21.02 116.434C21.199 116.492 21.3956 116.513 21.5844 116.514C22.407 116.524 23.2306 116.529 24.0531 116.516C24.3364 116.512 24.4397 116.596 24.4221 116.899C24.3946 117.387 24.4067 117.876 24.4155 118.364C24.4199 118.608 24.3364 118.733 24.085 118.724C22.9495 118.68 21.8107 118.68 20.6795 118.587C19.2014 118.465 18.2339 117.112 18.0945 115.806C18.0121 115.032 18.0099 114.247 18.0066 113.467C17.9967 110.969 17.9989 108.472 18.0066 105.973C18.0099 104.83 18.5777 104.073 19.6484 103.76C19.8142 103.712 19.9921 103.709 20.2205 103.676L20.2194 103.68Z" fill="#3CAF41"/>
<path d="M108.081 112.816C108.081 114.628 108.081 116.441 108.081 118.254C108.081 118.735 108.053 118.738 107.584 118.653C106.678 118.487 105.834 117.682 105.831 116.488C105.824 113.379 105.831 110.269 105.822 107.16C105.822 106.859 105.949 106.771 106.218 106.777C106.698 106.786 107.177 106.791 107.656 106.775C107.976 106.763 108.086 106.882 108.083 107.211C108.071 109.08 108.078 110.949 108.078 112.817H108.079L108.081 112.816Z" fill="#3CAF41"/>
<path d="M108.266 104.13C108.261 104.939 107.777 105.411 106.987 105.44C106.103 105.473 105.626 104.756 105.596 104.068C105.564 103.311 106.168 102.757 106.946 102.767C107.768 102.777 108.27 103.296 108.266 104.131V104.13Z" fill="#3CAF41"/>
<path d="M63.6922 62.4922C60.4834 64.9838 55.68 64.633 52.8302 61.7235C49.8751 58.7068 49.8399 54.2912 51.4718 51.5538C52.2043 52.937 53.2695 53.7795 54.7663 53.9728C55.7459 54.099 56.6519 53.8555 57.4623 53.2923C58.4364 52.6175 59.059 51.6946 59.2468 50.4968C59.4302 49.3237 59.1469 48.2611 58.432 47.317C60.3329 46.517 64.4225 48.803 65.9237 51.4678C68.0245 55.1973 67.0811 59.861 63.6922 62.4922Z" fill="#4D4C4B"/>
<path d="M90.3083 61.7235C87.4585 64.633 82.6551 64.9838 79.4463 62.4922C76.0574 59.861 75.114 55.1973 77.2148 51.4678C78.716 48.803 82.8056 46.517 84.7065 47.317C83.9916 48.2611 83.7083 49.3237 83.8917 50.4968C84.0795 51.6946 84.7021 52.6175 85.6762 53.2923C86.4867 53.8555 87.3926 54.099 88.3722 53.9728C89.869 53.7795 90.9342 52.937 91.6667 51.5538C93.2986 54.2912 93.2634 58.7068 90.3083 61.7235Z" fill="#4D4C4B"/>
<path d="M104.569 29.0289C104.537 29.0289 104.503 29.0278 104.465 29.0278C100.407 28.9954 96.3466 28.9485 92.2878 28.9362C90.9865 28.9317 89.684 29.0066 88.3838 29.0747C88.017 29.0937 87.8732 28.973 87.8029 28.6144C87.4954 27.049 86.9968 25.5496 86.2709 24.1284C85.254 22.1351 83.9066 20.4111 82.2209 18.9631C80.1838 17.2123 77.8568 16.0369 75.2607 15.4335C74.033 15.1486 72.8041 15.0011 71.5698 15C70.3355 15.0011 69.1066 15.1486 67.8789 15.4335C65.2828 16.0369 62.9558 17.2123 60.9187 18.9631C59.233 20.4111 57.8856 22.1351 56.8687 24.1284C56.1428 25.5496 55.6442 27.049 55.3367 28.6144C55.2664 28.973 55.1226 29.0937 54.7558 29.0747C53.4556 29.0066 52.1531 28.9317 50.8518 28.9362C46.793 28.9485 42.7331 28.9954 38.6743 29.0278C38.1559 29.0323 38.1559 29.0289 38.1559 29.5719V60.2599C38.1559 70.5167 38.1581 80.7736 38.1504 91.0305C38.1493 91.2383 38.1713 91.3791 38.2602 91.4629C38.3294 91.5311 38.4381 91.5635 38.6073 91.5668C38.6193 91.5668 38.6314 91.5668 38.6446 91.5668C38.9137 91.5668 39.1816 91.5668 39.4507 91.5668C41.7963 91.5635 44.142 91.5612 46.4877 91.559L46.4778 91.5679H87.3977L87.5064 91.5489C87.5196 91.5478 87.5316 91.5456 87.5437 91.5433C90.3561 91.1255 92.8621 90.3936 94.997 89.3679L95.0189 89.3568C95.0497 89.3423 95.0804 89.3277 95.1112 89.3121C98.4551 87.6808 100.982 85.2719 102.622 82.149C102.862 81.6898 103.085 81.2138 103.284 80.7368C104.019 78.9658 104.517 76.9614 104.762 74.7804L104.77 74.7078V29.039C104.717 29.0323 104.651 29.03 104.569 29.0289ZM59.7206 28.7842C60.2312 26.7652 61.168 24.9854 62.5594 23.4413C64.0309 21.8089 65.7945 20.6625 67.8525 19.9754C68.9759 19.6 70.1334 19.4301 71.5698 19.3955C73.0062 19.4301 74.1637 19.6 75.2871 19.9754C77.3451 20.6625 79.1087 21.8089 80.5802 23.4413C81.9716 24.9854 82.9084 26.7652 83.419 28.7842C83.5793 29.4166 83.564 29.4267 82.916 29.4859C79.056 29.839 75.3749 30.8401 71.8916 32.5831C71.8048 32.6266 71.6851 32.6412 71.5698 32.6311C71.4545 32.6412 71.3348 32.6266 71.248 32.5831C67.7647 30.8401 64.0836 29.839 60.2236 29.4859C59.5756 29.4267 59.5603 29.4166 59.7206 28.7842ZM87.2296 88.8484C82.0101 88.8328 76.7894 88.8138 71.5698 88.8004H71.46C67.5922 88.8104 63.7234 88.8238 59.8557 88.8361C55.5322 88.8495 51.2087 88.864 46.8852 88.8719C45.853 88.8741 44.8196 88.8562 43.7873 88.8361C43.0526 88.8227 42.318 88.8082 41.5833 88.8004C41.3681 88.7981 41.2176 88.797 41.1122 88.778C40.8629 88.7344 40.864 88.5881 40.864 88.0808C40.864 69.4922 40.864 50.9047 40.8629 32.3171C40.8629 31.7797 40.8673 31.773 41.3823 31.7719C45.1326 31.7652 48.8861 31.6948 52.6352 31.7719C52.6561 31.7719 52.6759 31.773 52.6967 31.773C56.2174 31.8468 59.7371 32.0479 63.2062 32.7574C65.4783 33.2222 67.6757 33.9037 69.7677 34.9026C70.0401 35.0322 70.3113 35.1685 70.5804 35.3093C70.6177 35.3283 70.6528 35.3495 70.6891 35.3696C70.7637 35.411 70.8362 35.4512 70.9043 35.4914H70.9021L71.5237 36.1104L71.5698 36.1562L71.7971 35.916L71.885 35.8221C71.9882 35.7294 72.0826 35.6277 72.1793 35.5283C72.2518 35.4534 72.3572 35.421 72.4483 35.3707C72.4494 35.3707 72.4494 35.3696 72.4505 35.3696C72.4868 35.3495 72.5219 35.3283 72.5592 35.3093C72.6625 35.2545 72.7657 35.202 72.87 35.1495C75.1114 34.0143 77.479 33.259 79.9334 32.7574C83.4025 32.0479 86.9222 31.8468 90.4429 31.773C91.7651 31.7451 93.0873 31.7361 94.4094 31.7361C96.8243 31.7361 99.2403 31.7663 101.655 31.7719H101.757C102.272 31.773 102.277 31.7797 102.277 32.3171V41.8355L101.969 74.5603C101.751 76.4664 101.319 78.2038 100.687 79.7256C100.517 80.1312 100.329 80.5345 100.125 80.9222C99.0657 82.9401 97.6117 84.5591 95.7108 85.8283C95.1309 86.2171 94.5083 86.5724 93.8428 86.8965L93.8197 86.9076C93.8044 86.9155 93.789 86.9233 93.7736 86.93L93.7484 86.9423C91.9781 87.7937 89.8894 88.4171 87.5305 88.8004C87.4306 88.8171 87.3307 88.8328 87.2296 88.8484Z" fill="#4D4C4B"/>
<path d="M86.0115 42.1226C78.846 42.1539 73.029 48.1225 73.0499 55.4219C73.0707 62.7224 78.9503 68.6352 86.1631 68.6073C93.2923 68.5793 99.0983 62.6017 99.0764 55.3091C99.0544 48.0231 93.1781 42.0924 86.0115 42.1226ZM90.3086 61.7235C87.4589 64.633 82.6555 64.9838 79.4467 62.4922C76.0577 59.861 75.1144 55.1973 77.2152 51.4678C78.7164 48.803 82.806 46.517 84.7069 47.317C83.992 48.2611 83.7087 49.3237 83.8921 50.4968C84.0798 51.6946 84.7025 52.6175 85.6766 53.2923C86.487 53.8555 87.393 54.099 88.3726 53.9728C89.8694 53.7795 90.9346 52.937 91.6671 51.5538C93.2989 54.2912 93.2638 58.7068 90.3086 61.7235Z" fill="#FEFEFE"/>
<path d="M57.1274 42.1226C49.9608 42.0924 44.0845 48.0231 44.0626 55.3091C44.0406 62.6017 49.8466 68.5793 56.9759 68.6073C64.1886 68.6352 70.0682 62.7224 70.0891 55.4219C70.1099 48.1225 64.293 42.1539 57.1274 42.1226ZM63.6923 62.4922C60.4834 64.9838 55.6801 64.633 52.8303 61.7235C49.8752 58.7068 49.84 54.2912 51.4719 51.5538C52.2044 52.937 53.2696 53.7795 54.7664 53.9728C55.7459 54.099 56.6519 53.8555 57.4624 53.2923C58.4365 52.6175 59.0591 51.6946 59.2469 50.4968C59.4303 49.3237 59.147 48.2611 58.4321 47.317C60.333 46.517 64.4225 48.803 65.9237 51.4678C68.0245 55.1973 67.0812 59.861 63.6923 62.4922Z" fill="#FEFEFE"/>
<path d="M71.4597 66.4196V75.7983C71.3773 75.777 71.3038 75.6999 71.2214 75.6117C69.5401 73.7949 67.8544 71.9804 66.1709 70.1648C65.6394 69.5916 65.5604 69.7391 66.1039 69.0274C67.4547 67.2598 69.282 66.4956 71.3038 66.414C71.3565 66.4151 71.4081 66.4174 71.4597 66.4196Z" fill="#FDF8B4"/>
<path d="M76.9683 70.1648C75.2848 71.9804 73.5991 73.7949 71.9178 75.6117C71.8014 75.7368 71.7015 75.8407 71.5697 75.7927C71.5543 75.7983 71.5378 75.8027 71.5225 75.8027V66.4229C71.5389 66.4241 71.5543 66.4241 71.5697 66.4252C71.6575 66.4207 71.7465 66.4162 71.8354 66.414C73.8572 66.4956 75.6845 67.2598 77.0353 69.0274C77.5788 69.7391 77.4998 69.5916 76.9683 70.1648Z" fill="#FBD066"/>
</g>
<defs>
<clipPath id="clip0_812_41">
<rect width="105" height="109" fill="white" transform="translate(18 15)"/>
</clipPath>
</defs>
</svg>
