<svg width="140" height="140" viewBox="0 0 140 140" fill="none" xmlns="http://www.w3.org/2000/svg">
<rect width="140" height="140" rx="30" fill="white"/>
<g clip-path="url(#clip0_3527_4095)">
<path d="M134 6H6V134H134V6Z" fill="#FEFEFE"/>
<path d="M118.28 93.5774L76.0149 97.8374L74.3574 83.0149L116.42 78.4224L118.28 93.5774Z" fill="#FE008E"/>
<path d="M107.053 32.7002L98.0602 74.3602L83.3477 71.3727L92.1952 29.9452L93.1677 29.7227L107.053 32.7002Z" fill="#00CDEE"/>
<path d="M82.0998 44.4276L74.4949 57.6226L37.7148 36.0676L45.5148 23.2451L82.0998 44.4276Z" fill="#0081E9"/>
<path d="M58.6452 78.3574L75.5852 116.955L75.5077 117.287L62.0077 123.27L44.6802 84.4874L58.6452 78.3574Z" fill="#0081E9"/>
<path d="M51.0374 49.1699L60.8599 60.3149L60.7849 60.6374L29.3299 88.8249L19.5674 77.8649L19.5849 77.3674L51.0374 49.1699Z" fill="#002546"/>
<path d="M68.5024 61.1475L78.0899 70.7825L68.7174 80.3375L58.8999 70.7475L68.5024 61.1475Z" fill="#0018B2"/>
<path d="M97.0125 101.877C105.937 100.57 109.395 112.272 101.945 116.042C96.6225 118.735 90.3725 114.635 90.8375 108.677C91.09 105.45 93.765 102.355 97.0125 101.877Z" fill="#FE008E"/>
<path d="M39.8798 101.882C49.9548 100.815 51.2123 116.257 41.3048 117.03C31.4848 117.795 30.1498 102.915 39.8798 101.882Z" fill="#0081E9"/>
<path d="M65.2223 27.3698C58.7923 20.9523 67.6023 10.2898 75.2398 15.9798C83.6723 22.2623 72.8623 34.9923 65.2223 27.3698Z" fill="#0081E9"/>
<path d="M121.435 61.8024C115.487 67.8924 105.2 60.6674 109.342 52.8274C114.612 42.8499 129.477 53.5649 121.435 61.8024Z" fill="#00CDEE"/>
<path d="M24.4001 45.7327C36.3401 43.8652 36.3326 62.2952 24.6551 60.5777C16.4326 59.3702 16.6676 46.9402 24.4001 45.7327Z" fill="#002546"/>
</g>
<defs>
<clipPath id="clip0_3527_4095">
<rect width="128" height="128" fill="white" transform="translate(6 6)"/>
</clipPath>
</defs>
</svg>
