<svg width="140" height="140" viewBox="0 0 140 140" fill="none" xmlns="http://www.w3.org/2000/svg">
<rect width="140" height="140" rx="30" fill="#E2E2E2"/>
<circle cx="86" cy="80" r="16" fill="white"/>
<circle cx="54" cy="60" r="16" fill="white"/>
<path d="M78.1218 57.9098C80.6291 69.0857 71.6972 79.238 61.7191 82.6417C55.5166 84.7571 48.7864 84.7284 42.5757 82.6704C39.2687 85.2751 35.3653 87.4216 31.221 88.3452C28.8547 88.8731 24.1721 89.4091 22.3105 87.5134C22.1351 87.3347 21.8262 87.165 22.1245 86.9372C22.3965 86.729 24.4793 86.1537 25.0643 85.9045C28.8358 84.2981 32.754 81.0902 32.5598 76.6227C25.2397 69.4382 23.492 59.3957 29.4504 50.6934C36.6173 40.2264 51.4501 36.8062 62.9981 41.4451C69.943 44.235 76.4438 50.4311 78.1218 57.9098ZM54.7226 56.0371C54.3875 56.3797 52.4555 58.5884 52.1892 58.5409L46.1751 52.6292C45.1738 52.0498 43.7146 52.3178 43.0787 53.3029C42.1766 54.7003 42.8395 55.7355 43.7744 56.8247C44.3897 57.5418 48.7798 61.5881 48.7798 61.9471C47.0026 64.0543 45.0427 66.0115 43.0115 67.8777C42.5863 69.0669 42.5396 70.3635 43.6572 71.165C45.7974 72.6993 47.2255 70.2848 48.5152 68.9907C48.9617 68.5423 51.9163 65.4664 52.1711 65.4664C54.2531 67.2351 56.0574 69.3652 58.0869 71.2158C59.7887 72.469 62.0968 70.7224 61.688 68.7669C61.611 68.3965 61.1357 67.7031 60.8858 67.3916C60.2549 66.6048 55.5616 62.3282 55.5616 61.9471L55.687 61.6848L61.1292 56.2329C62.7179 54.4176 60.8531 51.7014 58.6113 52.435C57.719 52.7267 55.5281 55.2126 54.721 56.0379L54.7226 56.0371Z" fill="#37B3F3"/>
<path d="M78.122 57.9098C85.1783 55.5855 92.954 55.8338 99.7374 58.9122C113.177 65.0107 119.205 80.06 108.815 92.126C107.871 93.2218 107.149 93.1283 107.372 94.8462C107.915 99.0277 111.945 101.858 115.581 103.297C116.238 103.557 117.249 103.722 117.814 104.014C117.902 104.059 118.062 104.026 117.975 104.232C117.527 105.282 114.848 105.905 113.817 105.97C107.937 106.342 101.851 103.204 97.2736 99.8088C84.0828 104.271 67.8243 98.7335 62.5689 85.3423C62.3887 84.8825 62.3919 85.0152 62.233 84.7218C61.9863 84.2645 61.92 83.1761 61.7192 82.6417C71.6974 79.238 80.6292 69.0857 78.122 57.9098ZM77.9106 81.827C79.5681 83.6736 81.7984 85.3537 83.5125 87.1814C85.0037 88.192 86.1967 87.7838 87.3446 86.5462C91.117 82.4794 94.3247 77.339 98.0913 73.2017C99.8407 70.6954 96.8312 67.5859 94.3354 69.5742C93.8446 69.9651 93.5783 70.5216 93.1834 70.9847C92.5205 71.7625 92.1313 72.342 91.4996 73.1451C89.3578 75.8662 87.1685 78.5544 84.9595 81.2222C82.9873 80.0576 81.1896 76.2186 78.5193 77.4652C76.7454 78.2938 76.666 80.4411 77.9106 81.827Z" fill="#52B058"/>
<path d="M65.51 38.3338C65.1184 37.5454 65.8877 36.9307 66.3736 36.5832C71.0992 33.2006 76.1907 31.0675 81.9586 32.403C88.4681 33.9102 93.3514 39.4199 95.8885 45.6011V45.6011L99.4429 44.7487C100.365 44.5274 100.901 45.3167 100.385 46.1142L95.8328 53.1593C95.1847 54.1625 93.8622 54.4797 92.8298 53.8806L85.1893 49.4433C84.4732 49.0278 84.6477 47.9476 85.4581 47.7787L89.1755 47.0042C85.6351 34.3785 75.2923 33.4941 66.7366 38.5256C66.358 38.7485 65.805 38.66 65.51 38.3338Z" fill="#E48D07"/>
</svg>
