<svg width="140" height="140" viewBox="0 0 140 140" fill="none" xmlns="http://www.w3.org/2000/svg">
<rect width="140" height="140" rx="30" fill="#0091EB"/>
<path d="M81.004 91.0945L89.0122 83.083C90.0908 82.0174 91.4554 81.2879 92.9404 80.9832C94.4255 80.6784 95.967 80.8115 97.3779 81.3663L107.138 85.2647C108.564 85.8437 109.786 86.8319 110.651 88.1049C111.517 89.3778 111.986 90.8785 112 92.4178V110.3C111.992 111.348 111.772 112.382 111.353 113.342C110.935 114.302 110.326 115.167 109.565 115.885C108.803 116.604 107.904 117.161 106.922 117.522C105.94 117.884 104.894 118.043 103.849 117.99C35.4573 113.734 21.6574 55.7941 19.0476 33.6196C18.9265 32.5307 19.0372 31.4284 19.3724 30.3854C19.7077 29.3423 20.2599 28.3821 20.9927 27.5679C21.7255 26.7536 22.6224 26.1039 23.6243 25.6613C24.6262 25.2188 25.7104 24.9934 26.8056 25.0001H44.0733C45.6142 25.0047 47.1184 25.4703 48.3927 26.3372C49.6669 27.204 50.6527 28.4323 51.2234 29.8642L55.1203 39.6282C55.6932 41.034 55.8394 42.5775 55.5405 44.066C55.2417 45.5544 54.5111 46.9218 53.44 47.9973L45.4318 56.0087C45.4318 56.0087 50.0437 87.2318 81.004 91.0945Z" fill="white"/>
<path d="M93.9585 43.9005C94.7243 43.7861 95.5436 43.7907 96.3158 43.9005C96.4982 43.9277 96.4954 43.9386 96.588 44.0819C96.6379 44.8023 96.6488 45.5346 96.6206 46.2786C96.5998 45.6643 96.6188 45.0528 96.6787 44.444C96.8293 44.5383 96.7695 44.7878 96.7713 44.9412C96.8121 48.2502 96.4882 52.1463 96.7667 55.3619C96.8302 56.0951 96.9981 56.5124 97.5026 56.9833C97.5915 57.0668 97.645 57.2456 97.7013 57.281C97.8782 57.3935 99.0078 57.6439 99.2646 57.6666C100.86 57.8063 102.303 57.4488 102.573 55.675C102.605 52.0229 102.623 48.3736 102.623 44.7279C102.654 44.1763 102.783 43.9703 103.298 43.9005C103.944 43.7997 104.649 43.7907 105.293 43.9005C105.691 43.944 105.727 44.4975 105.75 44.8477C106.011 48.7583 105.624 53.0464 105.647 56.9788C105.454 58.8679 103.199 59.5466 101.598 59.8188C98.1414 60.4067 93.8215 59.9095 93.5021 55.6332C93.2363 52.0656 93.7117 48.1767 93.5003 44.5755C93.5683 44.169 93.5412 43.9268 93.9585 43.9005Z" fill="white"/>
<path d="M103.027 43.9003H103.299C103.258 44.1589 102.966 43.9611 102.94 43.9929C102.92 44.0183 102.959 44.1381 102.925 44.1816C102.734 44.4348 102.698 44.4883 102.665 44.853C102.357 48.3236 102.968 52.2043 102.573 55.6748L102.568 44.3939C102.662 44.0119 102.674 43.9384 103.026 43.8994L103.027 43.9003Z" fill="white"/>
<path d="M96.6796 44.444C96.5762 47.8166 96.8176 51.2708 96.6796 54.6343C96.6751 54.745 96.7477 54.9709 96.5898 54.95V44.0811C96.6724 44.2117 96.715 44.2725 96.6796 44.4431V44.444Z" fill="white"/>
<path d="M76.1877 43.8096C77.0787 43.835 77.9851 43.865 78.9079 43.9003C79.0694 43.9593 79.1664 43.9475 79.1864 44.1236C79.2336 44.5364 79.2835 45.333 78.9079 45.5308C77.9733 45.5517 77.0515 45.5889 76.1423 45.6415L76.1877 56.0378C76.3365 56.633 76.4735 57.1602 76.9998 57.5367C77.4797 57.8797 77.7456 57.8089 78.2736 57.8497C78.5077 57.935 78.7645 57.9151 78.9995 57.8497C79.6301 57.925 79.8787 58.7398 79.4931 59.2044C78.6457 60.2233 76.018 59.9838 74.9301 59.424C74.031 58.9603 73.0147 57.661 73.0147 56.6276V45.6225C72.5901 45.5508 71.348 45.7949 71.1102 45.441C71.1066 45.0744 71.0767 44.7124 71.0195 44.354C71.0222 44.3241 71.0141 44.2923 71.0195 44.2633L71.3824 43.9013C71.9286 43.8677 72.4721 43.8377 73.0147 43.8105C73.2161 43.1935 72.7534 42.1646 73.2116 41.4251C73.3995 41.1221 74.4855 40.1794 74.8103 39.9208C75.3674 39.4771 76.0307 39.0806 76.1804 40.1503C76.2657 40.761 76.2857 43.228 76.1886 43.8105L76.1877 43.8096Z" fill="white"/>
<path d="M78.9076 45.5302C78.4602 45.7652 76.2835 45.5239 76.1864 45.62V56.0362L76.0957 45.5293H78.9076V45.5302Z" fill="white"/>
<path d="M78.907 43.9006H76.096C76.0724 43.8271 76.1849 43.818 76.1868 43.8098C76.9879 43.9051 78.1892 43.6402 78.907 43.9006Z" fill="white"/>
<path d="M73.0122 43.8099C72.9351 44.0458 71.6249 43.799 71.3799 43.9006C71.8871 43.7128 72.4687 43.8489 73.0122 43.8099Z" fill="white"/>
<path d="M71.1085 45.44C70.9761 45.2431 70.9915 44.6107 71.0178 44.353C71.2918 44.6316 71.0505 45.0226 71.1848 45.3801L71.1085 45.44Z" fill="white"/>
<path d="M71.3805 43.9004C71.3551 43.9113 71.2208 44.3486 71.0176 44.2624C71.0756 43.9639 71.1337 43.9911 71.3805 43.9004Z" fill="white"/>
<path d="M86.0713 43.6279C87.5067 43.4156 89.5073 43.1779 90.7504 44.1197C91.9317 45.0152 91.1877 47.1566 89.6616 46.9715C88.8912 46.878 88.6472 46.1839 88.1109 45.8019C87.973 45.7039 87.4259 45.488 87.4313 45.439C87.1192 45.3691 86.7862 45.3691 86.4342 45.439C85.6711 45.6967 85.5014 46.2837 85.4379 47.025C85.1122 50.8476 85.6766 55.1121 85.4379 58.9819C85.408 59.3911 85.1594 59.6143 84.7574 59.6615C84.1432 59.7332 82.3639 59.8683 82.2668 59.0653L82.255 46.0169C82.2051 45.8945 82.343 45.7629 82.3521 45.7103C82.4056 45.6259 82.4355 45.5052 82.4428 45.3482C82.9201 44.1741 84.507 43.9355 85.6167 43.7177C86.1375 43.6914 86.289 43.6615 86.0703 43.627L86.0713 43.6279Z" fill="white"/>
<path d="M86.4336 45.4402C86.821 45.3096 87.1168 45.344 87.5233 45.3513C87.5142 45.3958 87.4326 45.4266 87.4317 45.4402H86.4345H86.4336Z" fill="white"/>
<path d="M82.4429 45.3496V46.0737C82.2796 46.1054 82.3721 45.8659 82.3521 45.7116C82.383 45.5411 82.3694 45.5293 82.4429 45.3496Z" fill="white"/>
<path d="M119.866 53.6109C119.441 53.708 118.727 55.1153 118.353 55.5408C116.817 57.2902 114.354 57.5742 112.643 55.8965C111.501 54.7759 111.12 53.1037 110.908 51.5658C112.144 51.2509 113.454 51.0631 114.724 50.8744C114.663 50.868 114.634 50.8608 114.636 50.8535C114.643 50.8335 114.853 50.8118 115.268 50.7836C116.709 50.7101 118.309 50.428 119.711 50.1494C119.514 50.1231 119.636 50.0932 120.074 50.0587C120.12 50.0423 120.213 50.0877 120.316 50.0315C120.532 49.9135 120.754 49.537 120.791 49.2811C121.163 46.726 118.723 44.0158 116.284 43.564C109.301 42.2728 106.783 49.9398 108.67 55.4265C110.579 60.9758 118.012 61.7425 120.499 56.3257C120.89 55.4737 121.653 53.2026 119.866 53.6109ZM115.126 45.7171C116.356 45.9013 117.188 47.3212 117.445 48.4273L111.006 49.4245C111.24 47.1434 112.639 45.3442 115.126 45.7171Z" fill="white"/>
<path d="M115.269 50.7837C115.167 50.9525 114.89 50.8499 114.724 50.8744C114.21 50.7646 114.989 50.7982 115.269 50.7837Z" fill="white"/>
<path d="M120.074 50.0596C119.904 50.1222 119.873 50.1176 119.711 50.1503C119.572 50.1394 119.407 50.2093 119.44 50.0605H120.074V50.0596Z" fill="white"/>
</svg>
