<svg width="140" height="140" viewBox="0 0 140 140" fill="none" xmlns="http://www.w3.org/2000/svg">
<rect width="140" height="140" rx="30" fill="white"/>
<g clip-path="url(#clip0_3599_940)">
<path d="M63.8376 45.8172C65.9644 32.1755 86.2618 32.8936 87.4181 47.0791C87.4181 56.5 87.4181 62 87.4181 72.488C87.1106 76.1497 85.2638 79.4351 82.2743 81.5412C78.1791 84.4274 72.0488 84.37 68.1853 81.0778C68.9676 80.2702 69.9082 79.3112 70.7112 78.4508C76.0936 72.6785 71.2137 64.7518 63.8353 65.5089V45.8172H63.8376ZM83.3022 60.0141V46.8473C83.3022 42.0225 77.165 39.1294 72.8724 40.5381C70.7961 41.2195 67.7333 44.1355 67.7333 46.3885V60.0118H83.3045L83.3022 60.0141Z" fill="#0572BC"/>
<path d="M63.8376 65.5111C71.4615 64.4558 76.0982 72.6807 70.7135 78.4531C69.9105 79.3134 61.3116 89.4655 58.001 87.0313C55.732 85.3634 50.1799 79.8778 48.3812 77.6478C43.4531 71.5428 50.2602 63.6849 57.5926 65.6878C59.3707 66.1742 59.8548 67.5186 60.0613 67.3488C61.4837 66.1879 62.3096 65.7199 63.8376 65.5088V65.5111ZM55.2295 69.4206C52.1392 69.0466 50.1592 72.0177 51.4325 74.8236C51.912 75.8812 57.8725 81.9266 59.0243 82.803C59.8227 83.411 60.0039 83.4431 60.8711 82.8076C62.0917 81.9128 67.8434 75.9684 68.3917 74.7593C70.0689 71.0747 66.3613 68.0692 62.7593 70.0423C61.6351 70.6572 60.8207 72.5935 59.3088 71.9924C59.0747 71.9007 56.7575 69.6041 55.2273 69.4206H55.2295Z" fill="#27B677"/>
<path d="M70.7617 54.2349C70.117 53.5925 70.1629 50.1305 70.2409 49.1279C70.4314 46.7166 71.255 44.1447 73.5974 43.0963C74.6115 42.642 77.1031 42.0248 77.5298 43.4611C78.1171 45.441 75.6806 45.2896 74.6092 46.1683C72.4342 47.9532 74.3867 53.1841 72.6706 54.3037C72.2071 54.6066 71.1609 54.6318 70.7617 54.2349Z" fill="#0572BC"/>
<path d="M28.2435 96.385H27V94.0471H28.2435V90.475H30.7878V94.0471H32.3181V96.385H30.7878V104.748H28.2435V96.385Z" fill="#0070BB"/>
<path d="M33.6029 94.0494H35.9385V95.0933C36.6084 94.0884 37.143 93.7993 38.235 93.7993H38.4254V96.2725C36.8952 96.3115 36.1472 97.1421 36.1472 98.8031V104.752H33.6029V94.0517V94.0494Z" fill="#0070BB"/>
<path d="M49.3301 104.748H46.9762V103.724C46.0011 104.67 45.2165 105 43.934 105C42.4978 105 41.3323 104.401 40.6417 103.321C40.0865 102.451 39.8961 101.545 39.8961 99.7851V94.0494H42.4404V99.2827C42.4404 100.769 42.5941 101.524 42.9773 102.006C43.3397 102.43 43.8009 102.644 44.4502 102.644C45.3312 102.644 46.0585 102.277 46.4209 101.621C46.6894 101.139 46.7834 100.462 46.7834 99.0899V94.0494H49.3278V104.75L49.3301 104.748Z" fill="#0070BB"/>
<path d="M53.6754 100.538C53.9806 101.832 55.091 102.644 56.6029 102.644C57.656 102.644 58.2869 102.355 58.9385 101.581H61.7122C61.5402 102.123 61.2717 102.566 60.8702 103.068C59.7598 104.38 58.4016 105 56.6603 105C53.4253 105 50.92 102.566 50.92 99.4386C50.92 96.3115 53.3886 93.7993 56.5065 93.7993C59.6245 93.7993 61.9784 96.2335 61.9784 99.5556C61.9784 99.9411 61.96 100.173 61.882 100.54H53.6731L53.6754 100.538ZM59.473 98.2777C59.1472 96.9058 58.1148 96.1532 56.5455 96.1532C54.9763 96.1532 54.0012 96.8874 53.5997 98.2777H59.473Z" fill="#0070BB"/>
<path d="M63.5683 94.0494H65.9039V95.0543C66.6495 94.1458 67.4158 93.7993 68.6593 93.7993C70.1322 93.7993 71.0522 94.2811 71.7772 95.4604C72.6375 94.3018 73.6722 93.7993 75.1635 93.7993C76.8291 93.7993 78.1667 94.4555 78.8366 95.5957C79.2381 96.3092 79.4676 97.3348 79.4676 98.5691V104.75H76.9232V98.8788C76.9232 97.7776 76.7695 97.1788 76.407 96.7727C76.0629 96.3666 75.5467 96.1555 74.9341 96.1555C74.1104 96.1555 73.4612 96.541 73.117 97.2361C72.8876 97.7179 72.7912 98.3167 72.7912 99.4776V104.75H70.2469V98.8788C70.2469 97.8349 70.0932 97.1994 69.7697 96.7933C69.4256 96.3873 68.852 96.1555 68.2004 96.1555C67.3011 96.1555 66.6701 96.5616 66.3627 97.3141C66.1906 97.7386 66.1149 98.4544 66.1149 99.4776V104.75H63.5706V94.0494H63.5683Z" fill="#21B573"/>
<path d="M83.7762 100.538C84.0813 101.832 85.1917 102.644 86.7036 102.644C87.7567 102.644 88.3876 102.355 89.0392 101.581H91.813C91.6409 102.123 91.3725 102.566 90.971 103.068C89.8605 104.38 88.5023 105 86.761 105C83.5261 105 81.0208 102.566 81.0208 99.4386C81.0208 96.3115 83.4894 93.7993 86.6073 93.7993C89.7252 93.7993 92.0791 96.2335 92.0791 99.5556C92.0791 99.9411 92.0607 100.173 91.9827 100.54H83.7739L83.7762 100.538ZM89.5738 98.2777C89.248 96.9058 88.2156 96.1532 86.6463 96.1532C85.077 96.1532 84.1019 96.8874 83.7005 98.2777H89.5738Z" fill="#21B573"/>
<path d="M104.328 104.748H101.993V103.357C100.96 104.516 99.9255 105 98.4916 105C95.4884 105 93.1712 102.566 93.1712 99.379C93.1712 96.1923 95.5067 93.6617 98.4709 93.6617C99.8108 93.6617 101.036 94.1642 101.782 94.9947V90.475H104.326V104.748H104.328ZM95.7362 99.301C95.7362 101.175 97.1334 102.641 98.8931 102.641C100.653 102.641 101.974 101.194 101.974 99.3584C101.974 97.4266 100.634 96.0179 98.7967 96.0179C97.0737 96.0179 95.7362 97.4472 95.7362 99.301Z" fill="#21B573"/>
<path d="M108.233 101.35C108.481 102.258 108.903 102.644 109.649 102.644C110.319 102.644 110.796 102.199 110.796 101.6C110.796 101.251 110.624 100.962 110.319 100.769C110.05 100.595 109.956 100.556 108.999 100.228C106.875 99.5144 106.053 98.6242 106.053 97.0595C106.053 95.2241 107.584 93.7948 109.575 93.7948C110.665 93.7948 111.7 94.2582 112.37 95.0498C112.828 95.6096 113.021 96.1304 113.058 96.9999H110.571C110.456 96.4401 110.112 96.151 109.575 96.151C109.038 96.151 108.6 96.5364 108.6 97.0595C108.6 97.3693 108.772 97.6193 109.098 97.7731C109.277 97.8511 109.711 97.9994 110.399 98.2181C112.542 98.8743 113.345 99.7255 113.345 101.348C113.345 103.394 111.679 104.998 109.557 104.998C108.238 104.998 107.012 104.399 106.343 103.454C105.941 102.873 105.769 102.352 105.673 101.348H108.238L108.233 101.35Z" fill="#21B573"/>
</g>
<defs>
<clipPath id="clip0_3599_940">
<rect width="86.3423" height="69" fill="white" transform="translate(27 36)"/>
</clipPath>
</defs>
</svg>
