<svg width="140" height="140" viewBox="0 0 140 140" fill="none" xmlns="http://www.w3.org/2000/svg">
<rect width="140" height="140" rx="30" fill="#E92E43"/>
<g clip-path="url(#clip0_842_3713)">
<path d="M67.3403 92.5629C67.2598 92.7974 67.1722 93.0295 67.0994 93.2663C65.4399 98.6829 63.7817 104.1 62.1234 109.517C62.0891 109.629 62.0536 109.741 62.0169 109.853C61.8363 110.403 61.7143 110.498 61.1235 110.499C59.3492 110.502 57.5743 110.502 55.8 110.499C55.1997 110.498 55.102 110.429 54.9161 109.848C54.1879 107.57 53.4656 105.291 52.7398 103.013C52.6818 102.831 52.6131 102.653 52.442 102.467C52.3603 102.68 52.2697 102.889 52.1993 103.105C51.4788 105.324 50.7613 107.543 50.0431 109.763C49.798 110.519 49.7489 110.562 48.9662 110.563C47.2707 110.566 45.5751 110.566 43.879 110.563C43.0863 110.562 43.0561 110.537 42.8204 109.758C41.1841 104.355 39.5501 98.9515 37.9131 93.5484C37.835 93.2916 37.7444 93.0383 37.5484 92.782C37.5313 92.9387 37.4999 93.096 37.4993 93.2527C37.4952 94.4103 37.4993 95.5678 37.4958 96.7254C37.4934 97.3304 37.4188 97.4081 36.8161 97.4122C35.8109 97.4187 34.805 97.414 33.7992 97.414C33.5848 97.414 33.3705 97.414 33.0923 97.414C33.0704 97.6443 33.0384 97.8305 33.0378 98.0166C33.0337 99.4098 33.023 100.802 33.0396 102.196C33.0556 103.558 33.496 104.359 35.2869 104.29C35.8268 104.27 36.365 104.093 36.8954 103.958C37.3276 103.847 37.4898 103.926 37.4922 104.369C37.5017 106.037 37.4904 107.705 37.5023 109.372C37.504 109.652 37.4075 109.825 37.1494 109.907C36.4573 110.128 35.7759 110.397 35.069 110.549C33.2764 110.934 31.4731 110.961 29.684 110.508C27.2271 109.884 25.8003 108.298 25.3817 105.828C25.2675 105.156 25.2396 104.464 25.2325 103.78C25.213 101.877 25.2272 99.9736 25.2237 98.0708C25.2237 97.8411 25.197 97.6113 25.1793 97.3186C24.6411 97.3186 24.1533 97.3215 23.6649 97.318C23.0545 97.3133 23.0065 97.2744 23.0048 96.6988C23 95.0901 22.9994 93.4813 23.0048 91.8725C23.0065 91.3665 23.0847 91.2893 23.5838 91.2787C24.0935 91.2681 24.6038 91.2763 25.1739 91.2763C25.1935 91.0183 25.2219 90.811 25.2231 90.6036C25.2284 89.6617 25.2219 88.7203 25.2272 87.7784C25.2302 87.227 25.2325 87.2146 25.7239 87.0626C27.9778 86.3657 30.2328 85.6736 32.489 84.9855C32.9703 84.8388 33.129 84.9602 33.1313 85.4857C33.1385 87.1922 33.1343 88.8994 33.1343 90.606C33.1343 90.8357 33.1343 91.066 33.1343 91.3735H33.9004C37.272 91.3735 40.6436 91.3735 44.0151 91.3735C44.9144 91.3735 44.9428 91.3871 45.1714 92.2695C45.6675 94.1858 46.1523 96.1045 46.6455 98.0219C46.7065 98.2593 46.7888 98.4908 46.861 98.7253C46.9007 98.7235 46.9397 98.7218 46.9794 98.72C47.0398 98.5415 47.1055 98.3648 47.16 98.1845C47.7822 96.1404 48.4032 94.0963 49.0243 92.0522C49.0639 91.9208 49.1006 91.7883 49.1468 91.6592C49.299 91.2298 49.4132 91.1391 49.8786 91.1356C50.8643 91.1285 51.85 91.1332 52.8363 91.1326C53.5657 91.1326 54.2957 91.1297 55.025 91.1338C55.6194 91.1367 55.6922 91.1844 55.8592 91.747C56.4157 93.6262 56.9645 95.5077 57.5186 97.3881C57.6607 97.87 57.8123 98.3495 57.9591 98.8302C58.0053 98.8337 58.0515 98.8372 58.0976 98.8402C58.1574 98.6523 58.2249 98.4661 58.2758 98.2758C58.8282 96.2123 59.3776 94.1481 59.9276 92.084C60.1218 91.3553 60.2195 91.2769 60.9915 91.2769C65.5068 91.2758 70.0216 91.2769 74.537 91.2769C74.6554 91.2769 74.7738 91.2752 74.8916 91.2811C75.1468 91.2928 75.293 91.4348 75.3226 91.6805C75.3433 91.8548 75.3404 92.0327 75.3404 92.2089C75.341 98.016 75.341 103.823 75.3404 109.63C75.3404 109.748 75.3463 109.866 75.3374 109.983C75.3066 110.394 75.2125 110.498 74.7892 110.499C72.5413 110.505 70.294 110.505 68.046 110.499C67.5825 110.498 67.5055 110.412 67.496 109.942C67.4866 109.491 67.4937 109.04 67.4937 108.588C67.4937 103.487 67.4937 98.3866 67.4937 93.2857V92.5882C67.4428 92.5806 67.3913 92.5735 67.3403 92.5658V92.5629Z" fill="white"/>
<path d="M46.6351 49.1982C46.5853 37.4701 56.2756 28.0195 67.8917 28C79.4694 27.9812 89.2502 37.377 89.2171 49.2583C89.1839 61.0882 79.4273 70.4175 67.8899 70.3975C56.2774 70.3775 46.5853 60.9327 46.6345 49.1976L46.6351 49.1982ZM52.1628 49.2011C52.116 57.7511 59.0711 64.8642 67.8935 64.8866C76.4731 64.9084 83.671 58.088 83.6917 49.197C83.7124 40.5239 76.6608 33.5239 67.9486 33.5127C59.0966 33.5015 52.1119 40.637 52.1622 49.2011H52.1628Z" fill="white"/>
<path d="M106.688 110.998C103.321 110.965 100.82 110.166 98.707 108.334C93.5398 103.854 94.4408 95.7056 100.469 92.3231C102.408 91.2351 104.501 90.8062 106.716 90.8863C108.896 90.9653 110.919 91.5502 112.699 92.8079C115.751 94.9651 117.266 97.9418 116.961 101.656C116.637 105.616 114.463 108.371 110.866 110.033C109.648 110.596 107.842 111.029 106.687 110.998L106.688 110.998ZM102.949 100.758C102.989 101.738 103.288 102.588 103.948 103.297C105.448 104.906 108.047 104.528 108.974 102.54C109.593 101.214 109.475 99.8981 108.629 98.6988C107.909 97.6785 106.87 97.2732 105.641 97.4475C104.495 97.6101 103.702 98.2799 103.289 99.3456C103.115 99.7933 103.059 100.286 102.949 100.758H102.949Z" fill="white"/>
<path d="M84.8878 97.6467C84.8878 101.55 84.8878 105.453 84.8878 109.356C84.8878 109.493 84.889 109.63 84.8872 109.768C84.8772 110.452 84.8322 110.499 84.1443 110.499C82.0349 110.501 79.9261 110.501 77.8167 110.499C77.0962 110.499 77.0684 110.475 77.0684 109.785C77.0672 101.704 77.0672 93.6233 77.0678 85.5422C77.0678 85.4444 77.0731 85.3461 77.0713 85.2483C77.0666 84.9755 77.2193 84.8612 77.4739 84.8495C77.5917 84.8442 77.7101 84.84 77.8285 84.84C79.9178 84.8395 82.0076 84.8395 84.0969 84.84C84.2348 84.84 84.3728 84.8442 84.5101 84.853C84.7457 84.8683 84.8659 85.0015 84.876 85.2312C84.8843 85.4268 84.8872 85.6229 84.8872 85.8191C84.8878 89.7612 84.8872 93.704 84.8872 97.6461L84.8878 97.6467Z" fill="white"/>
<path d="M94.4451 100.876C94.4451 103.7 94.4451 106.524 94.4451 109.348C94.4451 109.485 94.4463 109.622 94.4451 109.759C94.4386 110.468 94.412 110.498 93.7193 110.499C92.379 110.502 91.0392 110.5 89.6989 110.5C88.8908 110.5 88.0826 110.503 87.2745 110.499C86.6943 110.495 86.6446 110.444 86.6387 109.85C86.6322 109.163 86.6369 108.477 86.6369 107.791C86.6369 102.614 86.6369 97.4364 86.6369 92.2595C86.6369 91.6033 86.9761 91.2751 87.6546 91.2751C89.6255 91.2751 91.5963 91.2751 93.5672 91.2751C93.7246 91.2751 93.8827 91.2716 94.0402 91.2816C94.2977 91.2987 94.4315 91.4418 94.438 91.6993C94.4428 91.8754 94.4451 92.0521 94.4451 92.2289C94.4451 95.1118 94.4451 97.9942 94.4451 100.877V100.876Z" fill="white"/>
<path d="M94.5395 84.8948C94.5395 85.4421 94.5395 85.9098 94.5395 86.3769C94.5395 87.2588 94.5413 88.1406 94.5389 89.0225C94.5372 89.7159 94.4939 89.7636 93.8078 89.7642C91.8186 89.7671 89.8288 89.7653 87.8396 89.7653C87.5442 89.7653 87.2481 89.7765 86.9533 89.7606C86.5721 89.7406 86.4525 89.6351 86.4489 89.2611C86.4383 87.948 86.4383 86.6349 86.4489 85.3219C86.4519 84.949 86.5348 84.8836 86.9018 84.8465C87.019 84.8347 87.138 84.8388 87.2558 84.8388C89.4227 84.8388 91.5889 84.8371 93.7557 84.8406C93.9872 84.8406 94.2187 84.8712 94.5389 84.8936L94.5395 84.8948Z" fill="white"/>
<path d="M75.3558 84.9183C75.3736 85.0892 75.3961 85.204 75.3967 85.3195C75.399 86.5937 75.4032 87.8685 75.3961 89.1427C75.3931 89.6887 75.3233 89.7618 74.7839 89.763C72.4981 89.7683 70.2129 89.7688 67.9271 89.7624C67.4256 89.7612 67.3356 89.674 67.3315 89.178C67.3208 87.9232 67.3214 86.6685 67.3315 85.4138C67.3351 84.9278 67.4067 84.8476 67.8738 84.8459C70.2188 84.8376 72.5632 84.8412 74.9082 84.8453C75.0409 84.8453 75.1741 84.8877 75.357 84.9183H75.3558Z" fill="white"/>
<path d="M73.1692 58.8291C70.7769 58.8197 68.8232 56.8598 68.8208 54.4669C68.8184 52.057 70.8041 50.0959 73.2332 50.1089C75.6735 50.1218 77.6313 52.0782 77.6029 54.5023C77.5721 57.1048 75.3947 58.9033 73.1692 58.8291Z" fill="white"/>
<path d="M66.9953 43.9164C67.0018 46.3582 65.0677 48.2933 62.622 48.2904C60.2007 48.288 58.2659 46.3747 58.2535 43.9688C58.2405 41.5206 60.1634 39.5943 62.599 39.5631C64.9925 39.5325 67.0457 41.5312 66.9959 43.9164H66.9953Z" fill="white"/>
<path d="M73.2464 39.569C75.4742 39.5342 77.6132 41.3722 77.6037 43.9724C77.5954 46.3599 75.6263 48.2904 73.215 48.291C70.7859 48.291 68.7873 46.3199 68.8257 43.9129C68.8701 41.1419 71.1749 39.4918 73.2464 39.569Z" fill="white"/>
<path d="M66.995 54.4905C67.0412 56.8609 64.9981 58.8567 62.5892 58.8385C60.2015 58.8202 58.1969 56.8044 58.2455 54.4198C58.294 52.0169 60.2122 50.1024 62.6306 50.1095C65.0834 50.1165 67.0045 52.0452 66.9944 54.4911L66.995 54.4905Z" fill="white"/>
</g>
<defs>
<clipPath id="clip0_842_3713">
<rect width="94" height="83" fill="white" transform="translate(23 28)"/>
</clipPath>
</defs>
</svg>
