<svg width="140" height="140" viewBox="0 0 140 140" fill="none" xmlns="http://www.w3.org/2000/svg">
<rect width="140" height="140" rx="30" fill="#9146FF"/>
<path d="M48.8285 30.4922L44.8518 34.4689L37.8926 79.2069L58.7703 90.1428L61.7528 94.1195L81.6364 87.1603L103.508 70.2593L104.502 54.3524L103.508 31.4864L100.526 30.4922H48.8285Z" fill="white"/>
<path d="M46.4227 27.3569L29.939 42.6503V97.7065H49.7195V113L66.2032 97.7065H79.3903L109.061 70.1784V27.3569H46.4227ZM102.468 67.1197L89.2805 79.3545H76.0935L64.5549 90.0598V79.3545H49.7195V33.4743H102.468V67.1197Z" fill="black"/>
<path d="M92.5793 44.1797H85.9858V62.5317H92.5793V44.1797Z" fill="black"/>
<path d="M74.4504 44.1797H67.8569V62.5317H74.4504V44.1797Z" fill="black"/>
</svg>
