<svg width="140" height="140" viewBox="0 0 140 140" fill="none" xmlns="http://www.w3.org/2000/svg">
<rect width="140" height="140" rx="30" fill="#3181B7"/>
<path fill-rule="evenodd" clip-rule="evenodd" d="M115.797 46.5888C116.464 44.5201 115.797 43 112.621 43H102.119C99.4482 43 98.2171 44.3131 97.5494 45.7612C97.5494 45.7612 92.2086 57.863 84.6425 65.7239C82.1947 67.9994 81.082 68.7234 79.7468 68.7234C79.0793 68.7234 78.1129 67.9994 78.1129 65.9308V46.5888C78.1129 44.1064 77.3379 43 75.1124 43H58.6085C56.9398 43 55.9361 44.1522 55.9361 45.2441C55.9361 47.5974 59.7189 48.1401 60.1089 54.76V69.1373C60.1089 72.2895 59.4965 72.861 58.1613 72.861C54.6009 72.861 45.9403 60.7051 40.8037 46.7956C39.7971 44.0921 38.7874 43 36.1033 43H25.6009C22.6002 43 22 44.3131 22 45.7612C22 48.3471 25.5606 61.1729 38.5786 78.136C47.2572 89.7204 59.4847 96 70.6113 96C77.2872 96 78.1131 94.6053 78.1131 92.2028V83.4474C78.1131 80.6579 78.7455 80.1012 80.8595 80.1012C82.4172 80.1012 85.0876 80.8252 91.3186 86.4106C98.4395 93.0303 99.6135 96 103.619 96H114.121C117.122 96 118.622 94.6053 117.757 91.8528C116.81 89.1096 113.41 85.1295 108.899 80.4114C106.451 77.7222 102.779 74.8262 101.666 73.3779C100.109 71.5163 100.554 70.6886 101.666 69.0338C101.666 69.0338 114.462 52.2775 115.797 46.5888Z" fill="white"/>
</svg>
