<svg width="140" height="140" viewBox="0 0 140 140" fill="none" xmlns="http://www.w3.org/2000/svg">
<rect width="140" height="140" rx="30" fill="black"/>
<g clip-path="url(#clip0_2125_386)">
<path d="M33.3261 98.5288V109.545C33.3261 109.734 33.3261 109.923 33.3172 110.112C33.2684 111.272 33.06 112.402 32.5854 113.469C31.7161 115.438 30.2392 116.761 28.1812 117.402C26.141 118.044 24.0786 118.053 22.0562 117.354C19.3418 116.418 17.7584 114.489 17.2085 111.712C17.1818 111.571 17.1597 111.431 17.1375 111.294C17.0488 111.215 17.102 111.075 17 111.009C17.0444 111.013 17.0798 111.026 17.102 111.048C17.1153 111.057 17.1286 111.07 17.1375 111.083C17.1818 111.154 17.1774 111.259 17.2218 111.329C17.3903 112.063 17.5544 112.802 17.8693 113.491C18.8495 115.627 20.5438 116.91 22.8013 117.468C24.8149 117.965 26.8152 117.864 28.7445 117.086C30.7891 116.26 32.0887 114.735 32.7717 112.678C33.1043 111.677 33.2241 110.64 33.2241 109.585C33.2152 105.995 33.2241 102.4 33.2241 98.81C33.2241 98.2564 33.2196 98.252 32.6785 98.252H29.6848C29.1614 98.252 29.157 98.2564 29.157 98.7925V109.563C29.157 110.231 29.0461 110.877 28.8155 111.501C28.3187 112.845 27.3873 113.672 25.937 113.874C24.5266 114.071 23.2492 113.812 22.2646 112.718C21.5594 111.931 21.2534 110.965 21.2534 109.919C21.2445 106.685 21.2534 103.446 21.2534 100.207V98.8672C21.2534 98.457 21.042 98.252 20.6192 98.252H17.5101C17.3371 98.252 17.1508 98.2783 17 98.1509C18.3084 98.1509 19.6124 98.1553 20.9207 98.1553C21.005 98.1553 21.0848 98.1597 21.1691 98.1553C21.2844 98.1509 21.3465 98.1904 21.3421 98.3179C21.3421 98.4102 21.3421 98.5068 21.3421 98.5991C21.3421 102.251 21.3421 105.898 21.3421 109.545C21.3421 110.117 21.3953 110.675 21.5594 111.22C22.034 112.797 23.2359 113.738 24.8992 113.825C25.4225 113.852 25.9459 113.817 26.4515 113.667C27.7421 113.285 28.4828 112.384 28.8332 111.132C28.9973 110.552 29.0505 109.954 29.0505 109.352V98.6167C29.0505 98.3091 29.2087 98.1553 29.5251 98.1553H32.9447C33.3749 98.1597 33.3305 98.1026 33.3305 98.5288H33.3261Z" fill="#FEFEFE"/>
<path d="M49.213 111.593C49.0755 109.624 48.1175 108.201 46.3168 107.348C46.1616 107.273 45.9975 107.221 45.8422 107.155C45.8733 107.041 45.9753 107.045 46.0418 107.014C46.9865 106.562 47.6341 105.841 48.0066 104.874C48.2683 104.193 48.3348 103.481 48.3038 102.756C48.2506 101.688 47.8514 100.77 47.0841 100.014C46.5519 99.4912 45.9221 99.1264 45.2302 98.8584C44.2189 98.4673 43.1678 98.3223 42.09 98.3223H35.8142C35.3218 98.3223 35.4061 98.2959 35.4061 98.7441C35.4061 104.914 35.4061 111.083 35.4061 117.253C35.4061 117.323 35.4106 117.394 35.4061 117.464C35.3884 117.626 35.4726 117.67 35.619 117.657C35.69 117.653 35.7609 117.657 35.8319 117.657H41.9259C42.4714 117.657 43.017 117.648 43.5625 117.578C44.6092 117.442 45.6072 117.161 46.5252 116.638C47.6429 116.001 48.4679 115.104 48.907 113.883C49.1731 113.144 49.2707 112.375 49.2174 111.593H49.213ZM39.726 102.194C39.726 102.044 39.7748 101.987 39.9301 101.992C40.6885 102.009 41.4513 101.961 42.2098 102.027C42.3029 102.035 42.396 102.044 42.4892 102.062C43.8508 102.352 44.5294 103.622 43.9927 104.901C43.6867 105.621 43.1012 105.973 42.3428 106.065C41.682 106.149 41.0123 106.1 40.3514 106.105C40.1518 106.105 39.9034 106.188 39.7704 106.056C39.6506 105.933 39.7349 105.696 39.7305 105.511C39.7305 105.028 39.7305 104.545 39.7305 104.066C39.7305 103.442 39.7349 102.818 39.7305 102.194H39.726ZM44.8354 112.221C44.6004 113.188 43.8641 113.795 42.7952 113.904C42.0146 113.988 41.2296 113.94 40.449 113.948C40.2272 113.948 39.9434 114.041 39.7926 113.909C39.624 113.759 39.7393 113.465 39.7349 113.237C39.7216 112.67 39.7305 112.107 39.7305 111.54C39.7305 110.811 39.7349 110.081 39.7305 109.352C39.7305 109.203 39.7482 109.115 39.9345 109.119C40.8393 109.141 41.7396 109.08 42.64 109.163C42.9726 109.194 43.2964 109.273 43.6024 109.405C44.2544 109.686 44.6758 110.165 44.8354 110.859C44.9419 111.312 44.9463 111.769 44.8354 112.221Z" fill="#FEFEFE"/>
<path d="M55.1474 98.6475V117.222C55.1474 117.279 55.1474 117.341 55.1429 117.398C55.1429 117.568 55.0498 117.654 54.8635 117.657H52.6193C52.0959 117.657 51.5726 117.653 51.0492 117.657C50.894 117.662 50.8319 117.613 50.8496 117.459C50.8496 117.389 50.8496 117.319 50.8496 117.249V98.7441C50.8496 98.3223 50.8496 98.3179 51.2931 98.3179C52.4685 98.3179 53.6438 98.3223 54.8192 98.3179C55.1784 98.3179 55.1474 98.3091 55.1474 98.6475Z" fill="#FEFEFE"/>
<path d="M70.551 110.973C70.7018 112.366 70.4978 113.698 69.8015 114.928C68.9676 116.414 67.6459 117.275 66.0182 117.71C65.6545 117.807 65.2775 117.859 64.905 117.934V118C64.8872 117.978 64.8828 117.956 64.8916 117.934C64.8916 117.93 64.8961 117.93 64.8916 117.925C64.9005 117.917 64.905 117.912 64.9094 117.903C65.0469 117.793 65.2199 117.793 65.3795 117.758C67.096 117.42 68.5995 116.699 69.5398 115.17C70.6175 113.412 70.8437 111.536 70.0897 109.589C69.8059 108.855 69.2781 108.293 68.666 107.81C67.677 107.027 66.5149 106.575 65.344 106.149C64.4614 105.832 63.5699 105.538 62.745 105.09C62.4079 104.909 62.0797 104.716 61.8313 104.426C61.033 103.49 61.3568 102.207 62.5144 101.759C63.7296 101.293 64.8562 101.535 65.8541 102.33C66.2488 102.651 66.5948 103.029 66.8121 103.499C66.9097 103.71 67.0294 103.71 67.2024 103.591C68.1294 102.936 69.0608 102.282 70.001 101.644C70.2361 101.482 70.1518 101.306 70.041 101.126C69.4732 100.163 68.6793 99.4428 67.6903 98.9243C66.6303 98.3662 65.4904 98.1289 64.2973 98.0982C63.2329 98.0674 62.1862 98.1421 61.1794 98.52C59.3121 99.2143 58.0436 100.462 57.64 102.431C57.2276 104.404 57.8884 106.487 59.7468 107.704C60.7181 108.341 61.7781 108.781 62.8514 109.185C63.7385 109.523 64.6388 109.84 65.4283 110.376C66.1513 110.868 66.4883 111.549 66.3331 112.415C66.1912 113.232 65.6811 113.746 64.8828 113.992C63.499 114.427 61.7781 113.878 60.8512 112.705C60.6028 112.388 60.3544 112.072 60.1903 111.703C60.0794 111.461 59.9685 111.413 59.7379 111.58C58.8242 112.239 57.915 112.898 57.0058 113.562C56.824 113.698 56.7885 113.839 56.8727 114.05C57.2542 114.964 57.8795 115.693 58.638 116.317C59.6226 117.134 60.7846 117.552 62.0309 117.767C62.2083 117.793 62.3857 117.807 62.5454 117.903C62.5543 117.912 62.5587 117.921 62.5632 117.93V117.938C62.5632 117.938 62.5676 117.978 62.5498 118V117.938C61.6273 117.815 60.727 117.613 59.8887 117.209C58.4561 116.515 57.3828 115.478 56.7574 114.014C56.6332 113.72 56.6377 113.716 56.8861 113.535C57.9283 112.775 58.975 112.019 60.0129 111.268C60.1459 111.321 60.1504 111.439 60.1947 111.532C60.6205 112.384 61.2015 113.1 62.0487 113.571C62.8692 114.028 63.7474 114.164 64.6655 113.966C65.7743 113.729 66.4218 112.819 66.2666 111.738C66.2 111.281 65.9517 110.93 65.6146 110.635C65.2819 110.345 64.8961 110.134 64.4969 109.95C63.6808 109.567 62.8248 109.286 61.991 108.952C61.1661 108.618 60.3544 108.253 59.627 107.735C58.7222 107.098 58.0348 106.285 57.7066 105.221C56.7973 102.268 58.2299 99.478 61.1394 98.4321C62.3946 97.9795 63.6897 97.9136 65.0025 98.0454C65.9206 98.1377 66.7988 98.3706 67.6193 98.7881C68.7281 99.3462 69.6152 100.142 70.2095 101.236C70.3825 101.556 70.3514 101.504 70.1075 101.675C69.0563 102.405 68.0096 103.134 66.9363 103.881C66.8698 103.758 66.8121 103.648 66.7456 103.543C66.2267 102.655 65.5303 101.978 64.4925 101.728C63.7917 101.556 63.0998 101.592 62.439 101.895C61.7737 102.198 61.4277 102.769 61.4854 103.442C61.5253 103.872 61.7338 104.224 62.0487 104.514C62.3281 104.773 62.6519 104.966 62.9934 105.133C63.6986 105.476 64.4393 105.727 65.1755 105.99C65.9339 106.267 66.6879 106.548 67.4064 106.909C67.8633 107.137 68.3023 107.401 68.7015 107.713C69.7748 108.548 70.4091 109.624 70.551 110.973Z" fill="#FEFEFE"/>
<path d="M80.4549 117.934C80.4549 117.934 80.4549 117.978 80.446 118V117.934C79.5989 117.807 78.7606 117.657 77.9534 117.363C75.1326 116.335 73.1013 114.489 72.2275 111.606C71.2207 108.262 71.7485 105.138 73.9794 102.369C74.2766 102 74.627 101.688 75.0262 101.35C75.0262 101.429 74.9774 101.504 74.8798 101.587C74.1347 102.238 73.5315 103.011 73.048 103.872C72.3872 105.05 72.0457 106.32 71.9037 107.665C71.7618 108.974 71.8949 110.253 72.2807 111.501C72.9904 113.795 74.4451 115.5 76.5652 116.647C77.674 117.244 78.8582 117.618 80.1045 117.78C80.2242 117.798 80.3396 117.824 80.4371 117.903C80.446 117.912 80.4549 117.921 80.4549 117.93V117.934Z" fill="#FEFEFE"/>
<path d="M91.5651 105.634C92.1151 107.972 91.88 110.27 90.8688 112.459C89.5648 115.276 87.3428 117.007 84.3091 117.714C83.8833 117.811 83.4442 117.864 83.014 117.934C83.0096 117.956 83.0096 117.978 83.0096 118C82.9963 117.978 82.9918 117.956 83.0007 117.934C83.0007 117.93 83.0051 117.93 83.0007 117.925C83.0096 117.917 83.014 117.912 83.0184 117.903C83.1559 117.793 83.3245 117.789 83.4886 117.763C85.3602 117.499 87.0279 116.792 88.456 115.552C90.1991 114.036 91.1837 112.103 91.574 109.866C91.9687 107.612 91.6982 105.432 90.6692 103.371C89.4318 100.889 87.4537 99.2451 84.7748 98.5068C81.9496 97.729 79.1775 97.9488 76.5208 99.2451C75.8688 99.5615 75.279 99.9789 74.7467 100.471C74.5649 100.638 74.5427 100.774 74.729 100.937C74.7911 100.994 74.8443 101.056 74.902 101.117C74.9641 101.174 74.9995 101.231 75.0173 101.288C74.8576 101.148 74.7113 101.016 74.5738 100.88C74.383 100.695 74.383 100.691 74.5782 100.502C74.9197 100.168 75.2923 99.8779 75.6914 99.6186C76.818 98.8847 78.051 98.4233 79.3727 98.1861C81.1335 97.8697 82.8987 97.8565 84.6284 98.3574C88.3629 99.4384 90.6825 101.89 91.5651 105.634Z" fill="#FEFEFE"/>
<path d="M36.6614 62.8646C36.3199 60.6938 36.1912 58.5142 36.2755 56.3215C36.4307 52.2743 37.2867 48.3766 38.777 44.6106C39.0254 43.9866 39.2826 43.367 39.5931 42.7694C39.6862 42.5936 39.6418 42.5101 39.491 42.4047C38.7238 41.8686 37.9653 41.3237 37.2025 40.7832C37.1049 40.7173 37.0118 40.647 36.8876 40.5547C36.9763 40.3877 37.0561 40.2251 37.1492 40.0625C38.5375 37.5709 40.2229 35.2859 42.13 33.1591C44.6182 30.3906 47.4257 27.9913 50.6146 26.0447C54.3047 23.7948 58.2743 22.2831 62.5498 21.5537C64.0844 21.29 65.6323 21.1538 67.1846 21.0659V21C67.2024 21.022 67.2068 21.0483 67.1935 21.0659C67.1935 21.0659 67.1846 21.0879 67.1713 21.0923C66.8786 21.1933 66.5681 21.2065 66.2621 21.2241C63.7473 21.3559 61.2902 21.7954 58.873 22.4897C56.8949 23.0565 54.9833 23.808 53.1516 24.7352C50.517 26.071 48.0865 27.7057 45.8556 29.6392C42.6268 32.434 39.908 35.6462 37.6948 39.2847C37.5129 39.5879 37.3444 39.8999 37.167 40.2075C37.0339 40.4404 37.0783 40.5898 37.2956 40.7392C38.0052 41.2314 38.7104 41.7324 39.4112 42.2377C39.7882 42.5058 39.7926 42.5497 39.5975 42.9628C38.1427 46.0607 37.2113 49.3125 36.7013 52.6874C36.4086 54.6077 36.2844 56.5456 36.3465 58.4879C36.4174 60.7158 36.6835 62.9217 37.1847 65.0969C37.85 68.0191 38.8879 70.8051 40.2938 73.4549C41.5401 75.797 43.0481 77.9634 44.7956 79.9672C47.3237 82.8587 50.2775 85.2404 53.6261 87.1388C56.5756 88.8086 59.7246 89.9731 63.0421 90.7113C64.4792 91.0277 65.9383 91.2518 67.402 91.3925C68.9632 91.5419 70.5288 91.6166 72.0945 91.5419C75.483 91.3925 78.7917 90.8124 82.0028 89.705C85.1429 88.6152 88.0657 87.1256 90.7668 85.2009C92.5586 83.9265 94.2218 82.5072 95.7254 80.9164C97.8055 78.7149 99.584 76.298 101.021 73.6307C102.316 71.227 103.301 68.709 103.984 66.0812C104.432 64.3674 104.72 62.6273 104.884 60.8652C105.035 59.292 105.062 57.7145 105.004 56.1413C104.92 53.7288 104.636 51.3339 104.121 48.9698C103.438 45.8586 102.4 42.8749 100.928 40.0405C99.686 37.6588 98.1648 35.4573 96.3951 33.4271C93.9424 30.606 91.0817 28.2814 87.8617 26.3918C83.4708 23.8168 78.7429 22.1953 73.6867 21.501C72.5424 21.3428 71.3981 21.2724 70.2538 21.1626C70.1563 21.1538 70.0631 21.1494 69.9788 21.0923C69.97 21.0879 69.9611 21.0791 69.9611 21.0659C69.9611 21.0659 69.9522 21.0176 69.9611 20.9956V21.0615C71.0167 21.145 72.0678 21.2021 73.119 21.3296C75.0528 21.5713 76.9599 21.9448 78.836 22.4677C83.3732 23.7333 87.5468 25.7371 91.299 28.5758C97.4108 33.203 101.482 39.2144 103.598 46.5309C104.259 48.8072 104.676 51.1318 104.906 53.4915C105.093 55.3899 105.168 57.297 105.088 59.2041C104.902 63.6248 103.891 67.8609 102.001 71.8729C98.9232 78.4161 94.213 83.4959 87.9194 87.1256C84.5397 89.0766 80.9073 90.3818 77.0575 91.0849C74.1923 91.6078 71.305 91.7616 68.3999 91.5638C62.8381 91.1815 57.6267 89.6567 52.8455 86.7872C46.6584 83.074 42.1256 77.8975 39.1717 71.3632C37.9476 68.6431 37.1182 65.8044 36.6569 62.8602L36.6614 62.8646Z" fill="#FEFEFE"/>
<path d="M107.031 98.7222C107.031 99.7944 107.031 100.867 107.031 101.939C107.031 102.365 107.084 102.317 106.658 102.317C103.855 102.321 101.052 102.321 98.249 102.321C97.9681 102.321 97.8277 102.454 97.8277 102.721V106.43C97.8277 106.795 97.8188 106.755 98.1515 106.755H105.816C106.268 106.755 106.215 106.702 106.215 107.146C106.215 107.994 106.215 108.842 106.215 109.69C106.215 109.989 106.21 109.994 105.9 109.994H98.1293C97.7966 109.994 97.8277 109.967 97.8277 110.301V117.398C97.8232 117.648 97.8232 117.653 97.5749 117.653C97.0426 117.657 96.506 117.657 95.9737 117.657C95.2597 117.657 94.5456 117.653 93.836 117.657C93.4767 117.657 93.5122 117.666 93.5122 117.328V98.7134C93.5122 98.2959 93.4545 98.3179 93.9158 98.3179C98.1603 98.3179 102.4 98.3179 106.64 98.3223C107.102 98.3223 107.031 98.2915 107.031 98.7222Z" fill="#FEFEFE"/>
<path d="M123.92 102.264C123.951 102.277 123.978 102.295 124 102.317C123.973 102.317 123.947 102.312 123.92 102.312C122.292 102.312 120.665 102.317 119.041 102.321C118.944 102.321 118.851 102.325 118.753 102.317C118.598 102.304 118.5 102.347 118.523 102.528C118.536 102.611 118.523 102.695 118.523 102.778V117.178C118.523 117.262 118.514 117.345 118.523 117.429C118.549 117.618 118.465 117.662 118.283 117.657C116.988 117.653 115.693 117.653 114.402 117.657C114.216 117.662 114.141 117.605 114.163 117.42C114.172 117.341 114.163 117.257 114.163 117.174C114.163 112.362 114.167 107.546 114.163 102.734C114.163 102.251 114.225 102.321 113.755 102.321C112.162 102.317 110.575 102.321 108.982 102.321C108.898 102.321 108.814 102.317 108.734 102.317C108.645 102.317 108.605 102.273 108.605 102.185V102.009C108.605 100.796 108.605 99.5834 108.605 98.3706C108.61 98.3179 108.641 98.2871 108.694 98.2871C108.801 98.2827 108.907 98.2783 109.013 98.2783H123.565C123.707 98.2783 123.849 98.2871 123.991 98.2915C123.956 98.3223 123.916 98.3486 123.871 98.3618C123.725 98.419 123.561 98.3882 123.41 98.3882C118.696 98.3882 113.981 98.3882 109.266 98.3882C109.111 98.3882 108.942 98.3443 108.809 98.4585C108.792 98.4673 108.778 98.4805 108.765 98.4981C108.703 98.6167 108.707 98.7485 108.707 98.876C108.707 99.8207 108.707 100.761 108.712 101.702C108.712 102.167 108.743 102.198 109.222 102.198C110.637 102.202 112.047 102.198 113.462 102.198C113.604 102.198 113.746 102.198 113.888 102.211C114.114 102.229 114.234 102.343 114.256 102.567C114.269 102.73 114.269 102.897 114.269 103.059V116.901C114.269 117.32 114.476 117.53 114.89 117.53H117.848C118.367 117.53 118.385 117.512 118.385 116.994C118.385 112.366 118.385 107.744 118.385 103.116C118.385 102.504 118.694 102.198 119.312 102.198H123.481C123.605 102.202 123.738 102.194 123.858 102.238H123.867C123.867 102.238 123.894 102.251 123.907 102.26L123.92 102.264Z" fill="#FEFEFE"/>
<path d="M33.3261 98.5288V109.545C33.3261 109.734 33.3261 109.923 33.3172 110.112C33.2684 111.272 33.0599 112.402 32.5854 113.469C31.7161 115.438 30.2391 116.761 28.1812 117.402C26.141 118.044 24.0786 118.053 22.0561 117.354C19.3418 116.418 17.7584 114.489 17.2084 111.712C17.1818 111.571 17.1596 111.431 17.1375 111.294C17.0975 111.215 17.1108 111.127 17.102 111.048C17.102 111.017 17.0931 110.987 17.0798 110.956V110.934C17.0754 110.903 17.0754 110.868 17.0754 110.837C17.0754 110.824 17.0754 110.811 17.0754 110.798C17.0754 110.604 17.0665 110.415 17.0044 110.231V98.1509C18.3128 98.1509 19.6167 98.1553 20.9251 98.1553C21.0094 98.1553 21.0892 98.1597 21.1735 98.1553C21.2888 98.1509 21.3509 98.1904 21.3465 98.3179C21.3465 98.4102 21.3465 98.5068 21.3465 98.5991C21.3465 102.251 21.3465 105.898 21.3465 109.545C21.3465 110.117 21.3997 110.675 21.5638 111.22C22.0384 112.797 23.2403 113.738 24.9035 113.825C25.4269 113.852 25.9503 113.817 26.4559 113.667C27.7465 113.285 28.4872 112.384 28.8376 111.132C29.0017 110.552 29.0549 109.954 29.0549 109.352V98.6167C29.0549 98.3091 29.2131 98.1553 29.5295 98.1553H32.9491C33.3793 98.1597 33.3349 98.1026 33.3349 98.5288H33.3261Z" fill="white"/>
<path d="M124 98.2915V102.317C123.973 102.317 123.947 102.312 123.92 102.312C123.902 102.29 123.885 102.264 123.871 102.242C123.8 102.106 123.818 101.952 123.814 101.807V99.0913C123.814 98.6812 123.601 98.4761 123.175 98.4761C118.54 98.4761 113.901 98.4761 109.266 98.4717C109.12 98.4717 108.965 98.4937 108.818 98.4629C108.747 98.4497 108.676 98.4234 108.614 98.3706C108.619 98.3179 108.65 98.2871 108.703 98.2871C108.809 98.2827 108.916 98.2783 109.022 98.2783H123.574C123.716 98.2783 123.858 98.2871 124 98.2915Z" fill="#AAAAAA"/>
<path d="M67.7568 21H69.4688C69.491 21.0483 69.4776 21.0835 69.4333 21.1099C68.8833 21.2153 68.3378 21.2153 67.7878 21.1099C67.7435 21.0835 67.7346 21.0439 67.7523 20.9956L67.7568 21Z" fill="#B4B4B4"/>
<path d="M64.2618 118H63.193C63.1708 117.956 63.1797 117.921 63.224 117.89C63.5611 117.793 63.8982 117.793 64.2352 117.89C64.2752 117.916 64.284 117.956 64.2618 118Z" fill="#3C3C3C"/>
<path d="M82.1536 118H81.2266C81.2044 117.956 81.2133 117.921 81.2532 117.895C81.5459 117.798 81.8342 117.798 82.127 117.895C82.1669 117.921 82.1757 117.96 82.1536 118.004V118Z" fill="#3F3F3F"/>
<path d="M17 110.231C17.1286 110.455 17.1685 110.697 17.1286 110.952C16.9468 110.912 17.102 110.732 17 110.657V110.235V110.231Z" fill="#343434"/>
<path d="M17.1375 111.294C17.0488 111.215 17.102 111.075 17 111.009V110.653C17.0532 110.688 17.0621 110.741 17.071 110.798C17.071 110.811 17.071 110.824 17.071 110.837C17.0798 110.881 17.0887 110.921 17.1242 110.952C17.1242 110.995 17.1286 111.039 17.1331 111.083C17.1464 111.154 17.1508 111.22 17.1331 111.294H17.1375Z" fill="#A7A7A7"/>
<path d="M67.7568 21C67.7568 21.022 67.7568 21.0395 67.7568 21.0615H67.7524C67.5705 21.2065 67.3842 21.2109 67.198 21.0703C67.198 21.0703 67.198 21.0703 67.1891 21.0703V21.0044H67.7612L67.7568 21Z" fill="#CCCCCC"/>
<path d="M69.9656 21V21.0659C69.8059 21.1977 69.6374 21.2021 69.4777 21.0659V21.0615C69.4777 21.0395 69.4777 21.022 69.4733 21H69.9745H69.9656Z" fill="#DEDEDE"/>
<path d="M64.2618 118C64.2618 118 64.2707 117.96 64.2707 117.943C64.3461 117.851 64.4348 117.855 64.5324 117.903C64.5679 117.93 64.5723 117.965 64.5501 118.004H64.2663L64.2618 118Z" fill="#7C7C7C"/>
<path d="M80.9428 118H80.659C80.6323 117.965 80.6368 117.934 80.6678 117.903C80.7565 117.851 80.8452 117.851 80.9339 117.903C80.965 117.934 80.9694 117.965 80.9428 118Z" fill="#B5B5B5"/>
<path d="M80.9428 118C80.9428 118 80.9428 117.96 80.9384 117.938C81.0315 117.846 81.1246 117.846 81.2222 117.938C81.2222 117.956 81.2266 117.978 81.2311 117.996H80.9472L80.9428 118Z" fill="#767676"/>
<path d="M62.847 117.934C62.847 117.934 62.847 117.938 62.847 117.943C62.8558 117.96 62.847 117.978 62.8381 118H62.5498V117.938C62.5498 117.938 62.5587 117.93 62.5631 117.93C62.6385 117.851 62.7228 117.859 62.8204 117.899C62.8337 117.912 62.8425 117.921 62.847 117.934Z" fill="#CECECE"/>
<path d="M82.1536 118C82.1536 118 82.1536 117.96 82.158 117.943C82.2334 117.851 82.3221 117.855 82.4197 117.903C82.4552 117.93 82.4596 117.965 82.4374 118.004H82.1536V118Z" fill="#5F5F5F"/>
<path d="M82.4419 118C82.4419 118 82.4419 117.96 82.4463 117.943C82.5217 117.851 82.6104 117.855 82.708 117.903C82.7435 117.93 82.7479 117.965 82.7257 118.004H82.4419V118Z" fill="#979797"/>
<path d="M83.014 117.934C83.014 117.934 83.0096 117.978 83.0096 118H82.7257C82.7257 118 82.7257 117.96 82.7301 117.943C82.8188 117.855 82.9031 117.851 82.9963 117.925C83.0007 117.925 83.0051 117.93 83.0096 117.934H83.014Z" fill="#D3D3D3"/>
<path d="M63.1886 117.943C63.1886 117.943 63.193 117.982 63.193 118.004H62.9801C62.9535 117.969 62.9579 117.938 62.989 117.908C63.0644 117.873 63.1309 117.873 63.1841 117.943H63.1886Z" fill="#686868"/>
<path d="M64.9049 117.934V118H64.692C64.6787 117.978 64.6699 117.96 64.6787 117.943C64.6787 117.943 64.6802 117.94 64.6832 117.934C64.6832 117.934 64.692 117.917 64.7009 117.908C64.7719 117.877 64.8384 117.873 64.8916 117.925C64.8961 117.925 64.9005 117.93 64.9049 117.934Z" fill="#D7D7D7"/>
<path d="M80.6589 118H80.446V117.934C80.446 117.934 80.446 117.93 80.4549 117.93C80.5214 117.873 80.588 117.877 80.6501 117.934C80.6545 117.96 80.6545 117.982 80.6545 118H80.6589Z" fill="#E1E1E1"/>
<path d="M62.9756 117.943C62.9756 117.943 62.9756 117.982 62.9756 118.004H62.8337C62.8337 118.004 62.8292 117.965 62.8292 117.947C62.878 117.899 62.9224 117.899 62.9712 117.947L62.9756 117.943Z" fill="#919191"/>
<path d="M64.6921 117.943C64.6921 117.943 64.6921 117.982 64.6921 118.004H64.5502C64.5502 118.004 64.5502 117.965 64.5502 117.943C64.599 117.899 64.6433 117.899 64.6921 117.943Z" fill="#B1B1B1"/>
<path d="M104.911 53.4959C104.68 51.1362 104.263 48.8116 103.602 46.5353C101.487 39.2188 97.4152 33.2074 91.3034 28.5802C87.5512 25.7415 83.3776 23.7377 78.8404 22.4721C76.9643 21.9492 75.0571 21.5757 73.1234 21.334C72.0722 21.2065 71.0211 21.1494 69.9655 21.0659C69.8058 21.0967 69.6373 21.0747 69.4776 21.0615H67.7523C67.5705 21.0747 67.3842 21.0923 67.1979 21.0659H67.189C65.6367 21.1538 64.0888 21.29 62.5542 21.5537C58.2787 22.2831 54.3091 23.7948 50.619 26.0447C47.4301 27.9913 44.6226 30.3906 42.1344 33.1591C40.2273 35.2859 38.5419 37.5709 37.1536 40.0625C37.0605 40.2251 36.9807 40.3877 36.892 40.5547C37.0161 40.647 37.1093 40.7173 37.2069 40.7832C37.9697 41.3237 38.7281 41.8686 39.4954 42.4047C39.6462 42.5101 39.6906 42.5936 39.5975 42.7694C39.287 43.367 39.0297 43.9866 38.7814 44.6106C37.2911 48.3765 36.4351 52.2743 36.2799 56.3215C36.1956 58.5142 36.3243 60.6938 36.6658 62.8646C37.127 65.8088 37.9564 68.6475 39.1805 71.3676C42.1344 77.9019 46.6672 83.0784 52.8544 86.7916C57.6355 89.6611 62.8469 91.1859 68.4087 91.5682C71.3138 91.766 74.2011 91.6122 77.0663 91.0892C80.9161 90.3862 84.5485 89.081 87.9282 87.13C94.2218 83.5003 98.932 78.4204 102.01 71.8773C103.899 67.8653 104.911 63.6292 105.097 59.2085C105.177 57.3014 105.097 55.3943 104.915 53.4959H104.911ZM44.5694 67.4171C44.5827 67.5753 44.5472 67.6588 44.3919 67.7027C44.1879 67.7642 43.9883 67.8433 43.7621 67.9268C43.363 67.0128 43.0791 66.1076 42.8352 65.1848C42.3429 63.304 42.1344 61.3925 42.2497 59.4502C42.4537 55.9436 43.4517 52.6742 45.3233 49.6904C48.2462 45.0281 52.3665 41.8993 57.6799 40.3306C59.9064 39.6758 62.1905 39.3858 64.5057 39.5308C70.653 39.9087 75.8156 42.3344 79.8649 46.9704C81.4882 48.8248 82.637 50.9472 83.3155 53.3158C83.3333 53.3861 83.351 53.452 83.3732 53.5223C83.4087 53.6234 83.3954 53.7068 83.2712 53.7376C83.249 53.742 83.2268 53.7552 83.2047 53.764C82.8351 53.9192 82.5231 53.8401 82.2688 53.5267C79.6964 50.3496 76.5696 47.88 72.7819 46.2717C70.0808 45.1248 67.26 44.5667 64.3239 44.6238C61.1926 44.6853 58.2121 45.3621 55.4268 46.8166C52.2734 48.4644 49.7985 50.833 47.9091 53.8123C46.2725 56.3962 45.2302 59.2041 44.7468 62.2098C44.4673 63.9368 44.3919 65.6769 44.5694 67.4171ZM75.9131 67.4259C76.3522 67.7291 76.7913 68.0323 77.226 68.3355C77.5054 68.5289 77.5453 68.4849 77.2925 68.8057C76.0018 70.4228 74.3697 71.5565 72.3694 72.1234C67.4285 73.5208 62.2438 70.7128 60.8112 65.8264C59.1701 60.228 62.8558 55.3152 67.7257 54.199C71.4469 53.3465 75.0882 55.2712 76.4675 58.5186C77.6961 61.4145 77.1506 64.0862 75.1769 66.4987C75.1104 66.5822 75.035 66.6569 74.9507 66.7536C75.2789 66.9821 75.5982 67.2062 75.9131 67.4259ZM50.6323 68.687C50.4061 67.1403 50.344 65.5891 50.5214 64.0379C51.0847 59.0811 53.462 55.1965 57.6267 52.3886C57.6755 52.3534 57.7287 52.3314 57.7775 52.2919C57.8884 52.204 57.9771 52.204 58.0746 52.3226C58.2121 52.4852 58.3629 52.6346 58.4871 52.7665C56.3715 55.2756 55.1208 58.1451 54.5265 61.309C54.2781 62.6229 54.2869 63.9544 54.4377 65.2815C54.6728 67.3292 55.2716 69.2627 56.3138 71.0512C58.1678 74.2283 60.8866 76.3859 64.3372 77.647C66.6657 78.4995 69.074 78.8028 71.5489 78.6621C74.9596 78.4688 78.082 77.4405 80.885 75.4938C83.6748 73.5603 85.7416 71.0204 87.2186 67.9971C88.2963 65.8 88.9705 63.4842 89.3031 61.0673C89.5116 59.5337 89.5737 57.9913 89.4805 56.4489C89.2987 53.43 88.5314 50.5561 87.1698 47.8492C84.4465 42.4398 80.2552 38.5333 74.7467 35.9846C72.4315 34.9124 69.9965 34.2269 67.464 33.8797C65.3972 33.5941 63.326 33.5545 61.2458 33.7699C55.6086 34.3455 50.5392 36.3537 45.9931 39.6934C45.8541 39.7959 45.7196 39.7901 45.5895 39.6758C45.1903 39.3243 45.1858 39.3243 45.4919 38.8804C49.3949 33.2689 54.6994 29.6392 61.339 27.921C64.3505 27.1388 67.4152 26.8664 70.5199 27.0641C78.7916 27.5871 85.7815 30.8345 91.432 36.8327C95.0556 40.6777 97.4506 45.1995 98.6659 50.3276C99.2824 52.9334 99.5086 55.5788 99.3888 58.2462C99.2203 62.0077 98.4707 65.6462 96.914 69.0913C93.4456 76.755 87.6887 81.9183 79.6033 84.4714C76.5429 85.4382 73.3895 85.8117 70.1828 85.6315C63.4413 85.2492 57.0457 81.7381 53.4088 76.0651C51.954 73.802 51.0271 71.3412 50.6323 68.687Z" fill="white"/>
<path d="M91.5651 105.634C90.6825 101.89 88.3629 99.4384 84.6284 98.3574C82.8987 97.8565 81.1335 97.8697 79.3727 98.1861C78.051 98.4233 76.818 98.8847 75.6914 99.6186C75.2923 99.8779 74.9197 100.168 74.5782 100.502C74.383 100.691 74.383 100.695 74.5738 100.88C74.7112 101.016 74.8576 101.148 75.0173 101.288C75.0306 101.297 75.0439 101.31 75.0572 101.324C75.0483 101.332 75.035 101.341 75.0262 101.35C74.627 101.688 74.2766 102 73.9794 102.369C71.7485 105.138 71.2207 108.262 72.2275 111.606C73.1013 114.489 75.1326 116.335 77.9534 117.363C78.7606 117.657 79.5989 117.807 80.446 117.934H80.4549C80.517 117.938 80.5791 117.938 80.6456 117.938H80.6545C80.752 117.938 80.8452 117.943 80.9383 117.943H82.7346C82.8233 117.938 82.9076 117.938 83.0007 117.934H83.014C83.4442 117.864 83.8833 117.811 84.3091 117.714C87.3428 117.007 89.5648 115.276 90.8688 112.459C91.88 110.27 92.1151 107.972 91.5651 105.634ZM82.0915 113.979C81.0536 114.032 80.0557 113.869 79.1154 113.412C77.5099 112.626 76.5696 111.334 76.2458 109.607C76.0418 108.539 76.1083 107.476 76.5164 106.452C76.8136 105.7 77.2615 105.063 77.8736 104.536C77.9357 104.483 78.0199 104.457 78.051 104.338C77.9046 104.189 77.7494 104.035 77.5941 103.877C77.3813 103.661 77.3768 103.661 77.6163 103.455C77.9445 103.165 78.3082 102.923 78.703 102.725C80.2021 101.97 81.781 101.776 83.4043 102.194C84.8945 102.58 86.03 103.472 86.7174 104.835C87.7863 106.953 87.7863 109.11 86.6598 111.202C85.7018 112.99 84.1228 113.883 82.0915 113.979Z" fill="white"/>
<path d="M49.213 111.593C49.0755 109.624 48.1175 108.201 46.3168 107.348C46.1616 107.273 45.9975 107.221 45.8422 107.155C45.8733 107.041 45.9753 107.045 46.0418 107.014C46.9865 106.562 47.6341 105.841 48.0066 104.874C48.2683 104.193 48.3348 103.481 48.3038 102.756C48.2506 101.688 47.8514 100.77 47.0841 100.014C46.5519 99.4912 45.9221 99.1264 45.2302 98.8584C44.2189 98.4673 43.1678 98.3223 42.09 98.3223H35.8142C35.3218 98.3223 35.4061 98.2959 35.4061 98.7441C35.4061 104.914 35.4061 111.083 35.4061 117.253C35.4061 117.323 35.4106 117.394 35.4061 117.464C35.3884 117.626 35.4726 117.67 35.619 117.657C35.69 117.653 35.7609 117.657 35.8319 117.657H41.9259C42.4714 117.657 43.017 117.648 43.5625 117.578C44.6092 117.442 45.6072 117.161 46.5252 116.638C47.6429 116.001 48.4679 115.104 48.907 113.883C49.1731 113.144 49.2707 112.375 49.2174 111.593H49.213ZM39.726 102.194C39.726 102.044 39.7748 101.987 39.9301 101.992C40.6885 102.009 41.4513 101.961 42.2098 102.027C42.3029 102.035 42.396 102.044 42.4892 102.062C43.8508 102.352 44.5294 103.622 43.9927 104.901C43.6867 105.621 43.1012 105.973 42.3428 106.065C41.682 106.149 41.0123 106.1 40.3514 106.105C40.1518 106.105 39.9034 106.188 39.7704 106.056C39.6506 105.933 39.7349 105.696 39.7305 105.511C39.7305 105.028 39.7305 104.545 39.7305 104.066C39.7305 103.442 39.7349 102.818 39.7305 102.194H39.726ZM44.8354 112.221C44.6004 113.188 43.8641 113.795 42.7952 113.904C42.0146 113.988 41.2296 113.94 40.449 113.948C40.2272 113.948 39.9434 114.041 39.7926 113.909C39.624 113.759 39.7393 113.465 39.7349 113.237C39.7216 112.67 39.7305 112.107 39.7305 111.54C39.7305 110.811 39.7349 110.081 39.7305 109.352C39.7305 109.203 39.7482 109.115 39.9345 109.119C40.8393 109.141 41.7396 109.08 42.64 109.163C42.9726 109.194 43.2964 109.273 43.6024 109.405C44.2544 109.686 44.6758 110.165 44.8354 110.859C44.9419 111.312 44.9463 111.769 44.8354 112.221Z" fill="white"/>
<path d="M69.8015 114.928C68.9676 116.414 67.6459 117.275 66.0182 117.71C65.6545 117.807 65.2775 117.859 64.905 117.934H64.8916C64.8251 117.938 64.7586 117.938 64.6921 117.943H62.8337C62.7406 117.943 62.6519 117.943 62.5632 117.938H62.5498C61.6273 117.815 60.727 117.613 59.8887 117.209C58.4561 116.515 57.3828 115.478 56.7574 114.014C56.6332 113.72 56.6377 113.716 56.8861 113.535C57.9283 112.775 58.975 112.019 60.0129 111.268C60.1459 111.321 60.1504 111.439 60.1947 111.532C60.6205 112.384 61.2015 113.1 62.0487 113.571C62.8692 114.028 63.7474 114.164 64.6655 113.966C65.7743 113.729 66.4218 112.819 66.2666 111.738C66.2 111.281 65.9517 110.93 65.6146 110.635C65.2819 110.345 64.8961 110.134 64.4969 109.95C63.6808 109.567 62.8248 109.286 61.991 108.952C61.1661 108.618 60.3544 108.253 59.627 107.735C58.7222 107.098 58.0348 106.285 57.7066 105.221C56.7973 102.268 58.2299 99.478 61.1394 98.4321C62.3946 97.9795 63.6897 97.9136 65.0025 98.0454C65.9206 98.1377 66.7988 98.3706 67.6193 98.7881C68.7281 99.3462 69.6152 100.142 70.2095 101.236C70.3825 101.556 70.3514 101.504 70.1075 101.675C69.0563 102.405 68.0096 103.134 66.9363 103.881C66.8698 103.758 66.8121 103.648 66.7456 103.543C66.2267 102.655 65.5303 101.978 64.4925 101.728C63.7917 101.556 63.0998 101.592 62.439 101.895C61.7737 102.198 61.4277 102.769 61.4854 103.442C61.5253 103.872 61.7338 104.224 62.0487 104.514C62.3281 104.773 62.6519 104.966 62.9934 105.133C63.6986 105.476 64.4393 105.727 65.1755 105.99C65.9339 106.267 66.6879 106.548 67.4064 106.909C67.8633 107.137 68.3023 107.401 68.7015 107.713C69.7748 108.548 70.4091 109.624 70.551 110.973C70.7018 112.366 70.4978 113.698 69.8015 114.928Z" fill="white"/>
<path d="M107.031 101.939C107.031 102.365 107.084 102.317 106.658 102.317C103.855 102.321 101.052 102.321 98.249 102.321C97.9681 102.321 97.8277 102.454 97.8277 102.721V106.43C97.8277 106.795 97.8188 106.755 98.1515 106.755H105.816C106.268 106.755 106.215 106.702 106.215 107.146C106.215 107.994 106.215 108.842 106.215 109.69C106.215 109.989 106.21 109.994 105.9 109.994H98.1293C97.7966 109.994 97.8277 109.967 97.8277 110.301V117.398C97.8232 117.648 97.8232 117.653 97.5749 117.653C97.0426 117.657 96.506 117.657 95.9737 117.657C95.2597 117.657 94.5456 117.653 93.836 117.657C93.4767 117.657 93.5122 117.666 93.5122 117.328V98.7134C93.5122 98.2959 93.4545 98.3179 93.9158 98.3179C98.1603 98.3179 102.4 98.3179 106.64 98.3223C107.102 98.3223 107.031 98.2915 107.031 98.7222C107.031 99.7944 107.031 100.867 107.031 101.939Z" fill="white"/>
<path d="M123.929 98.7441C123.929 99.9174 123.925 101.091 123.92 102.264V102.312C122.292 102.312 120.665 102.317 119.041 102.321C118.944 102.321 118.851 102.325 118.753 102.317C118.598 102.304 118.5 102.347 118.523 102.528C118.536 102.611 118.523 102.695 118.523 102.778V117.178C118.523 117.262 118.514 117.345 118.523 117.429C118.549 117.618 118.465 117.662 118.283 117.657C116.988 117.653 115.693 117.653 114.402 117.657C114.216 117.662 114.141 117.605 114.163 117.42C114.172 117.341 114.163 117.257 114.163 117.174C114.163 112.362 114.167 107.546 114.163 102.734C114.163 102.251 114.225 102.321 113.755 102.321C112.162 102.317 110.575 102.321 108.982 102.321C108.898 102.321 108.814 102.317 108.734 102.317C108.645 102.317 108.605 102.273 108.605 102.185V102.009C108.605 100.796 108.605 99.5834 108.605 98.3706C108.73 98.3311 108.863 98.3442 108.991 98.3442H123.53C123.721 98.3442 123.818 98.3355 123.871 98.3618C123.938 98.3926 123.92 98.4849 123.92 98.7441H123.929Z" fill="white"/>
<path d="M55.1474 98.6475V117.222C55.1474 117.279 55.1474 117.341 55.1429 117.398C55.1429 117.568 55.0498 117.654 54.8635 117.657H52.6193C52.0959 117.657 51.5726 117.653 51.0492 117.657C50.894 117.662 50.8319 117.613 50.8496 117.459C50.8496 117.389 50.8496 117.319 50.8496 117.249V98.7441C50.8496 98.3223 50.8496 98.3179 51.2931 98.3179C52.4685 98.3179 53.6438 98.3223 54.8192 98.3179C55.1784 98.3179 55.1474 98.3091 55.1474 98.6475Z" fill="white"/>
</g>
<defs>
<clipPath id="clip0_2125_386">
<rect width="107" height="97" fill="white" transform="translate(17 21)"/>
</clipPath>
</defs>
</svg>
