<svg width="140" height="140" viewBox="0 0 140 140" fill="none" xmlns="http://www.w3.org/2000/svg">
<rect width="140" height="140" rx="30" fill="#1E4B81"/>
<g clip-path="url(#clip0_2542_287)">
<path fill-rule="evenodd" clip-rule="evenodd" d="M69.31 24.0458C44.353 24.0458 24 44.4636 24 69.5C24 94.5365 44.353 114.954 69.31 114.954C94.2669 114.954 114.62 94.5365 114.62 69.5C114.609 44.4636 94.2555 24.0458 69.31 24.0458ZM64.763 87.9058H55.35V83.6416C52.6378 87.7801 49.3558 89.5292 44.3986 89.5292C36.5355 89.5292 32.148 85.0021 32.148 76.9195V51.5058H41.618V74.9075C41.618 79.3088 43.6123 81.4352 47.6806 81.4352C52.3187 81.4352 55.2817 78.5886 55.2817 74.2558V51.4372H64.7516V87.9058H64.763ZM96.9906 87.9058V65.4073C96.9906 61.0745 94.9963 58.8796 90.928 58.8796C86.2898 58.8796 83.3269 61.7262 83.3269 66.059V87.9058H73.8569V51.4372H83.2699V51.5058V56.7418C85.9821 52.6033 89.2642 50.8542 94.2214 50.8542C102.085 50.8542 106.472 55.3813 106.472 63.4639V87.9058H96.9906Z" fill="white"/>
</g>
<defs>
<clipPath id="clip0_2542_287">
<rect width="91" height="91" fill="white" transform="translate(24 24)"/>
</clipPath>
</defs>
</svg>
