<svg width="140" height="140" viewBox="0 0 140 140" fill="none" xmlns="http://www.w3.org/2000/svg">
<rect width="140" height="140" rx="30" fill="#0176F7"/>
<g clip-path="url(#clip0_845_3730)">
<path d="M93.4892 116.652C92.866 114.898 92.2366 113.147 91.6135 111.393C90.3485 107.836 89.0741 104.283 87.8355 100.718C87.5822 99.9862 87.1657 99.6864 86.3996 99.7376C85.6785 99.7858 84.9496 99.7858 84.2285 99.7376C83.4453 99.6864 83.0785 100.033 82.8268 100.755C81.5897 104.322 80.3045 107.871 79.038 111.427C78.3961 113.229 77.7698 115.038 77.114 116.835C76.8871 117.456 77.0674 117.705 77.717 117.692C78.4676 117.677 79.2182 117.672 79.9689 117.699C80.5485 117.719 80.8873 117.494 81.0412 116.923C81.2168 116.274 81.4608 115.645 81.6364 114.997C81.7731 114.495 82.0544 114.269 82.5781 114.272C84.3637 114.284 86.1494 114.284 87.935 114.27C88.4509 114.267 88.768 114.467 88.9016 114.971C88.9731 115.244 89.0819 115.51 89.1658 115.782C89.8558 117.995 89.5093 117.655 91.7191 117.689C92.0548 117.689 92.392 117.689 92.7277 117.688C93.8031 117.68 93.8389 117.633 93.4892 116.652ZM86.9031 111.188C86.3607 111.188 85.8168 111.188 85.2744 111.19C84.7305 111.19 84.1866 111.188 83.6442 111.19C83.1329 111.19 82.9387 110.985 83.1003 110.46C83.711 108.457 84.4477 106.494 84.9465 104.455C84.9885 104.286 85.0336 104.07 85.2511 104.052C85.5277 104.028 85.5759 104.277 85.6241 104.469C86.1229 106.506 86.8689 108.468 87.4672 110.475C87.6304 111.023 87.3926 111.188 86.9031 111.188Z" fill="white"/>
<path d="M107.841 100.636C106.273 104.406 104.697 108.174 103.126 111.943C102.489 113.47 101.85 114.997 101.218 116.526C100.897 117.3 100.313 117.689 99.468 117.692H98.8464V117.686C98.4594 117.686 98.0709 117.677 97.6824 117.688C97.0685 117.706 96.9706 117.419 97.1913 116.908C97.5192 116.148 97.8129 115.375 98.1641 114.626C98.4252 114.071 98.4252 113.573 98.1812 112.998C96.4609 108.953 94.7716 104.897 93.0699 100.844C92.6596 99.8635 92.7296 99.7547 93.8236 99.7454C94.0552 99.7439 94.2883 99.7439 94.5214 99.7454C96.9629 99.7703 96.4174 99.472 97.4166 101.692C98.318 103.696 99.1401 105.734 100.009 107.752C100.104 107.974 100.141 108.31 100.47 108.303C100.786 108.297 100.845 107.98 100.941 107.752C101.956 105.374 102.977 102.998 103.961 100.609C104.214 99.994 104.581 99.7081 105.249 99.7423C105.92 99.7765 106.595 99.7392 107.266 99.7516C108.048 99.7672 108.144 99.9101 107.841 100.636Z" fill="white"/>
<path d="M46.4061 112.258C46.0005 115.619 43.2902 117.852 39.8899 117.989C37.1672 118.099 34.8143 117.393 33.1872 115.047C32.4801 114.026 32.073 112.875 32.0419 111.637C31.9984 109.829 32.031 108.019 32.031 106.209H32.003C32.003 104.401 31.9953 102.591 32.0046 100.782C32.0108 99.8619 32.1243 99.7594 33.038 99.7485C33.6068 99.7423 34.1772 99.778 34.7444 99.7407C35.4904 99.6926 35.7437 100.017 35.739 100.746C35.7173 103.951 35.7343 107.155 35.7343 110.362C35.7343 110.907 35.7841 111.44 35.9581 111.965C36.5129 113.647 37.7919 114.53 39.548 114.421C41.1767 114.32 42.4044 113.195 42.7121 111.51C42.8287 110.874 42.8753 110.231 42.8737 109.582C42.8675 106.686 42.8691 103.792 42.8768 100.897C42.8784 99.8386 42.9716 99.7532 44.0315 99.747C44.6516 99.7438 45.2732 99.7501 45.8933 99.7547C46.3284 99.7563 46.5864 99.9613 46.5802 100.409C46.5211 104.361 46.8817 108.327 46.4061 112.258Z" fill="white"/>
<path d="M75.2948 116.9C75.3026 117.4 75.1021 117.685 74.5691 117.683C70.9466 117.682 67.324 117.682 63.7015 117.685C63.0457 117.685 62.9633 117.267 62.9649 116.749C62.9695 114.085 62.9649 111.423 62.9649 108.759C62.9649 106.094 62.9618 103.536 62.9664 100.924C62.9695 99.865 63.0814 99.7563 64.1102 99.747C64.6806 99.7423 65.2494 99.7687 65.8181 99.7439C66.5144 99.7143 66.7925 100.014 66.7832 100.712C66.7599 102.573 66.777 104.435 66.7786 106.298C66.7801 108.547 66.7988 110.797 66.7723 113.046C66.763 113.778 67.0272 114.054 67.7701 114.043C69.9178 114.011 72.0655 114.028 74.2132 114.036C75.1643 114.04 75.2808 114.165 75.2933 115.115C75.2995 115.71 75.2855 116.305 75.2933 116.9H75.2948Z" fill="white"/>
<path d="M55.9949 99.8588C54.0057 99.6506 52.0149 99.7811 50.0257 99.7501C49.0529 99.7361 48.9565 99.8417 48.9534 100.813C48.9472 103.449 48.9519 106.087 48.9519 108.723V116.631C48.9643 117.607 49.0342 117.678 50.0257 117.688C50.5681 117.692 51.112 117.692 51.6544 117.688C52.6676 117.677 52.764 117.587 52.7687 116.574C52.778 114.919 52.792 113.265 52.7655 111.612C52.7547 110.943 53.022 110.672 53.6809 110.694C54.3522 110.716 55.0267 110.707 55.6981 110.679C58.7067 110.556 60.8063 108.446 60.8871 105.476C60.9726 102.349 59.0673 100.177 55.9949 99.8588ZM57.1558 105.725C57.0252 106.576 56.3306 107.205 55.3795 107.3C54.7128 107.365 54.0383 107.332 53.367 107.345C52.9287 107.354 52.778 107.103 52.7795 106.706C52.7811 106.216 52.7795 105.726 52.7795 105.235H52.7733C52.7733 105.158 52.7609 105.078 52.7749 105.004C52.8883 104.404 52.4159 103.466 53.1261 103.261C54.2186 102.947 55.4463 102.885 56.4798 103.627C57.1962 104.143 57.277 104.925 57.1558 105.725Z" fill="white"/>
<path d="M102.571 47.5526C101.477 43.6193 99.7633 39.9485 97.3405 36.6335C93.1429 30.8888 87.6493 26.8561 80.9979 24.4078C73.7078 21.7235 66.2731 21.1999 58.739 23.2614C52.4886 24.9717 47.2514 28.3753 42.7928 33.0295C40.6 35.3177 38.7087 37.8296 37.0987 40.559C36.7568 41.1385 36.7428 41.5361 37.3644 41.8965C37.7436 42.114 38.084 42.4014 38.4398 42.6593C39.422 43.3708 39.408 43.3645 38.9356 44.4458C37.1748 48.4692 36.2206 52.6977 36.0186 57.0644C35.829 61.1733 36.4553 65.1952 37.7669 69.1161C39.7763 75.1264 43.1689 80.2061 47.9973 84.2902C58.708 93.3514 74.1367 94.9856 86.4216 88.079C97.8999 81.6275 103.597 71.555 104.014 58.4703C104.052 54.7373 103.557 51.1007 102.571 47.5526ZM46.594 56.384C44.9001 59.6292 44.0795 63.0949 44.207 66.7688C44.2194 67.1556 44.2054 67.544 44.2085 67.9323C44.2116 68.2865 44.0687 68.5289 43.7066 68.6112C43.3118 68.7013 43.217 68.3922 43.1145 68.1374C42.339 66.2298 41.8852 64.2398 41.8246 62.1861C41.4967 51.2234 49.3727 41.9556 60.2574 40.4565C68.497 39.3225 77.0692 43.5028 81.1191 50.6409C81.6693 51.6087 82.1433 52.6153 82.4183 53.7012C82.4991 54.0212 82.7913 54.394 82.3064 54.655C81.7998 54.9269 81.5418 54.5618 81.2854 54.234C80.0344 52.634 78.5844 51.2359 76.9636 50.0211C73.1483 47.1627 68.898 45.5332 62.8262 45.5409C56.1173 45.7258 50.2756 49.3345 46.594 56.384ZM74.791 66.9614C74.4708 67.4011 74.4429 67.6481 74.9215 67.9386C75.3629 68.2057 75.7576 68.5491 76.199 68.8162C76.7227 69.1332 76.774 69.4345 76.359 69.913C74.3714 72.2028 71.8553 73.4036 68.8451 73.2933C63.0112 73.0805 58.924 67.8842 59.9745 62.1504C60.7857 57.7246 65.3298 54.3039 69.7092 54.7933C73.5431 55.2205 76.6061 58.7173 76.3668 62.2887C76.4709 64.058 75.7965 65.5773 74.791 66.9614ZM98.2822 61.397C97.7212 65.8631 96.3956 70.0481 93.9262 73.7935C88.8413 81.5064 81.6506 85.7488 72.4008 86.3951C66.73 86.7912 61.5954 85.2657 57.2223 81.6508C51.6494 77.0464 49.1411 71.1169 50.1761 63.8608C50.7915 59.5406 53.0014 56.1588 56.4748 53.566C56.6395 53.4418 56.8198 53.3392 56.9923 53.2227C57.2565 53.0456 57.4942 52.9959 57.7413 53.2787C57.99 53.5645 57.8905 53.7897 57.6854 54.0274C56.61 55.2779 55.8889 56.7335 55.2377 58.2326C53.8717 61.3752 53.6075 64.6142 54.3643 67.9417C55.8594 74.5174 61.5566 78.5455 67.4185 79.1979C75.7731 80.1285 82.8131 76.1936 86.3796 68.5242C89.2438 62.3617 89.4598 56.022 86.7417 49.8098C83.3212 41.9975 77.2246 37.1678 68.943 35.2291C61.7291 33.5405 54.9813 35.0769 48.6096 38.6312C47.6803 39.1485 46.8023 39.7435 45.9413 40.3617C45.6725 40.5544 45.416 40.806 45.0602 40.4658C44.6965 40.121 44.9576 39.8506 45.1379 39.585C47.155 36.6133 49.6835 34.1573 52.7046 32.2232C57.4134 29.2111 62.6009 27.8409 69.6113 27.8099C79.7158 28.2464 88.6408 33.2019 94.6255 43.1766C96.3288 46.0178 97.443 49.1123 98.0118 52.3699C98.534 55.3541 98.6661 58.3538 98.2822 61.397Z" fill="white"/>
</g>
<defs>
<clipPath id="clip0_845_3730">
<rect width="76" height="96" fill="white" transform="translate(32 22)"/>
</clipPath>
</defs>
</svg>
