<svg width="140" height="140" viewBox="0 0 140 140" fill="none" xmlns="http://www.w3.org/2000/svg">
<rect width="140" height="140" rx="30" fill="url(#paint0_linear_561_10513)"/>
<path d="M47.0123 108.861C47.0123 107.232 47.0123 105.604 47.0123 103.975C47.0239 103.908 47.0215 103.84 47.0054 103.774C46.9893 103.709 46.9598 103.647 46.9186 103.593C46.8775 103.539 46.8256 103.494 46.7663 103.461C46.7069 103.428 46.6413 103.407 46.5735 103.4C42.4992 102.253 38.7386 100.21 35.5721 97.4228C33.2649 95.3433 31.344 92.8787 29.8966 90.1412C27.8566 86.1868 26.4989 81.9221 25.8799 77.5236C25.1129 72.0062 24.8465 66.4317 25.084 60.8672C25.136 58.2729 25.2699 55.7081 25.5675 53.1139C26.042 48.184 27.2971 43.3589 29.2867 38.8159C31.7434 33.2301 36.2003 28.7432 41.798 26.2204C45.6112 24.4915 49.6228 23.2292 53.7441 22.4617C57.7857 21.7032 61.8777 21.2376 65.9876 21.0687C69.6924 20.9389 73.4013 20.993 77.1006 21.2309C82.3951 21.4523 87.6417 22.3212 92.7212 23.8178C96.4872 24.8934 100.07 26.5205 103.351 28.6452C106.547 30.8194 109.133 33.7641 110.863 37.2018C112.898 41.217 114.281 45.5249 114.962 49.9668C115.404 52.604 115.695 55.264 115.832 57.9339C116.026 61.2431 116.003 64.567 115.877 67.8614C115.75 71.1558 115.468 74.3545 115.059 77.5826C114.542 82.4277 113.038 87.1186 110.64 91.372C107.519 96.7527 102.518 100.816 96.5817 102.796C92.5224 104.204 88.3311 105.207 84.0703 105.788C80.9537 106.215 77.8295 106.525 74.6905 106.65C72.2879 106.761 69.8853 106.731 67.4827 106.694C66.1215 106.694 64.7677 106.562 63.4139 106.444C63.281 106.419 63.1437 106.434 63.0193 106.486C62.8948 106.539 62.7888 106.627 62.7147 106.739C59.9774 109.996 57.136 113.165 54.2722 116.32C53.7505 116.895 53.1466 117.392 52.4795 117.794C52.0417 118.078 51.5424 118.257 51.022 118.315C50.5017 118.373 49.9748 118.31 49.4839 118.129C48.993 117.948 48.552 117.655 48.1963 117.275C47.8406 116.894 47.5803 116.435 47.4363 115.937C47.1528 115.05 47.0123 114.125 47.0198 113.195C47.0123 111.736 47.0123 110.298 47.0123 108.861ZM50.3224 115.045L50.672 114.72L56.8831 107.888C59.2733 105.26 61.661 102.629 64.0462 99.995C64.1635 99.8343 64.3216 99.7074 64.5046 99.6271C64.6875 99.5468 64.8887 99.5161 65.0876 99.5381C65.8984 99.6191 66.7092 99.6486 67.5274 99.656C70.354 99.656 73.1805 99.656 76.0071 99.457C78.5734 99.258 81.1322 98.9484 83.6761 98.5505C86.4151 98.078 89.1265 97.4605 91.7988 96.7006C97.7495 95.116 102.354 91.7258 105.247 86.235C106.956 82.8593 108.027 79.2026 108.409 75.4452C108.861 71.9038 109.131 68.3419 109.22 64.7733C109.351 60.2904 109.042 55.8055 108.297 51.3819C107.78 48.177 106.85 45.0511 105.53 42.0808C103.849 38.3958 101.469 35.3446 97.8016 33.3841C92.1782 30.3771 86.0936 29.0358 79.823 28.3504C78.0453 28.1587 76.2675 28.0556 74.4823 27.9892C70.8269 27.8025 67.1638 27.8222 63.5107 28.0482C60.8834 28.2414 58.2703 28.5909 55.6855 29.0947C51.8841 29.7813 48.2067 31.0232 44.7734 32.7798C42.7829 33.7763 40.9772 35.0995 39.4326 36.6933C36.9293 39.4655 35.0931 42.764 34.0621 46.3408C32.839 50.5064 32.1713 54.8127 32.076 59.15C31.8367 63.4872 31.8914 67.8355 32.2397 72.1656C32.4564 74.7424 32.8918 77.2966 33.5414 79.801C34.5079 83.7037 36.3827 87.3282 39.0161 90.3844C41.859 93.5025 45.5334 95.761 49.6157 96.8996C50.129 97.0543 50.3596 97.2312 50.3596 97.8061C50.315 99.9287 50.3596 102.051 50.3596 104.174L50.3224 115.045Z" fill="white"/>
<path d="M45.1168 49.216C45.0648 47.6019 45.9499 46.4301 47.0211 45.3762C48.4338 44.0353 49.9902 42.8515 51.6626 41.8459C52.4252 41.3799 53.332 41.2023 54.2162 41.3459C55.1004 41.4894 55.9026 41.9444 56.4753 42.6271C58.4987 44.7346 60.3099 47.0327 61.883 49.4887C62.6619 50.5934 63.2501 51.8188 63.6235 53.1147C63.7728 53.6205 63.7825 54.1566 63.6517 54.6673C63.5208 55.1779 63.2543 55.6446 62.8797 56.0186C62.0216 56.8532 61.107 57.6288 60.1424 58.3401C59.6563 58.7239 59.2949 59.2409 59.1032 59.8267C58.9114 60.4124 58.8977 61.0412 59.0638 61.6346C59.6595 64.421 61.0095 66.9943 62.969 69.0784C65.3499 71.9584 68.4177 74.2052 71.895 75.6156C72.7495 76.0509 73.7285 76.1836 74.6695 75.9915C75.1849 75.8522 75.6429 75.5557 75.9787 75.1439C76.4994 74.488 77.0647 73.8542 77.5333 73.154C78.1411 72.2807 79.0692 71.6771 80.1196 71.4719C81.1701 71.2668 82.2599 71.4763 83.1567 72.0559C85.6781 73.5054 88.0587 75.1831 90.2678 77.0675C90.7885 77.5097 91.3315 77.9372 91.8522 78.3868C92.4683 78.8523 92.9132 79.5053 93.1188 80.2455C93.3244 80.9857 93.2792 81.7722 92.9903 82.4846C92.5307 83.6824 91.8608 84.7903 91.0117 85.7569C89.9564 87.2101 88.6122 88.434 87.0619 89.3535C86.3207 89.7847 85.488 90.038 84.6303 90.093C83.7726 90.148 82.9139 90.0033 82.1228 89.6704C76.1046 87.2697 70.4814 83.9933 65.4385 79.9492C60.5061 75.9261 56.1956 71.2082 52.6445 65.9461C49.6564 61.5899 47.2792 56.8519 45.578 51.8618C45.3969 51.2583 45.2479 50.6457 45.1317 50.0267C45.0987 49.7577 45.0937 49.486 45.1168 49.216Z" fill="white"/>
<path d="M70.7981 41.3739C75.8333 41.4662 80.6761 43.3064 84.4823 46.5739C88.2884 49.8414 90.8164 54.3288 91.6256 59.2538C91.9513 61.0444 92.1255 62.8588 92.1463 64.6782C92.1463 65.1056 92.0347 65.4152 91.5735 65.4594C91.1123 65.5036 90.9933 65.113 90.9933 64.7224C91.0624 61.0423 90.3 57.3935 88.7618 54.0431C87.4665 51.2902 85.5476 48.8704 83.1544 46.9722C80.7612 45.0739 77.9582 43.7483 74.9636 43.0985C73.3803 42.7353 71.7612 42.5475 70.1361 42.5384C69.9778 42.5411 69.82 42.5213 69.6675 42.4795C69.5376 42.4432 69.427 42.3583 69.359 42.2429C69.291 42.1274 69.2709 41.9902 69.303 41.8604C69.3039 41.7988 69.3173 41.7379 69.3422 41.6815C69.3671 41.625 69.4031 41.574 69.4481 41.5315C69.4931 41.489 69.5462 41.4558 69.6043 41.4338C69.6624 41.4118 69.7243 41.4015 69.7865 41.4034C70.1212 41.3592 70.4634 41.3739 70.7981 41.3739Z" fill="white"/>
<path d="M85.1568 61.3615C85.1318 59.314 84.6229 57.3008 83.6708 55.4833C82.7188 53.6658 81.3502 52.0947 79.6747 50.896C77.7192 49.535 75.4459 48.6903 73.0694 48.4417C72.6677 48.3902 72.266 48.368 71.8569 48.3238C71.4478 48.2796 71.2024 48.1101 71.2395 47.6974C71.2767 47.2846 71.5371 47.1372 71.9834 47.1667C78.5738 47.5647 84.1823 51.2571 85.908 58.1334C86.2237 59.4593 86.381 60.8173 86.3767 62.1796C86.3767 62.3049 86.3767 62.4302 86.3767 62.5481C86.3767 62.9166 86.1386 63.1598 85.7741 63.1524C85.6933 63.1497 85.6139 63.1308 85.5407 63.0966C85.4675 63.0625 85.4021 63.0139 85.3485 62.9539C85.2949 62.8939 85.2542 62.8237 85.2289 62.7476C85.2036 62.6715 85.1943 62.5911 85.2014 62.5112C85.1419 62.1649 85.1568 61.8111 85.1568 61.3615Z" fill="white"/>
<path d="M73.6106 53.1507C77.2257 53.394 79.7473 55.148 80.439 58.9584C80.523 59.4465 80.5826 59.9385 80.6176 60.4324C80.6176 60.8304 80.5283 61.1694 80.0894 61.1694C79.6506 61.1694 79.5018 60.8746 79.4869 60.4324C79.4828 58.9718 79.0287 57.5473 78.1852 56.3494C77.2988 55.2644 76.0263 54.5575 74.6297 54.3742C74.3174 54.3163 74.002 54.2769 73.685 54.2563C73.1643 54.2563 72.8742 53.9983 72.9412 53.6003C73.0081 53.2023 73.3205 53.1286 73.6106 53.1507Z" fill="white"/>
<defs>
<linearGradient id="paint0_linear_561_10513" x1="70" y1="0" x2="70" y2="140" gradientUnits="userSpaceOnUse">
<stop stop-color="#9A48CF"/>
<stop offset="1" stop-color="#723692"/>
</linearGradient>
</defs>
</svg>
