<svg width="140" height="140" viewBox="0 0 140 140" fill="none" xmlns="http://www.w3.org/2000/svg">
<rect width="140" height="140" rx="30" fill="#52B4BF"/>
<g clip-path="url(#clip0_691_62)">
<path d="M76.8672 76.8375C76.7144 77.1682 76.5657 77.5013 76.4085 77.8295C75.6543 79.4041 74.7972 80.9157 73.6767 82.2632C72.9333 83.1569 72.105 83.9542 71.0625 84.4944C69.3404 85.3864 67.752 85.1336 66.2387 83.9675C65.4253 83.3403 65.0366 82.5337 64.9246 81.5345C64.7846 80.2877 64.8042 79.043 64.8798 77.7954C64.9402 76.8026 65.0098 75.8107 65.057 74.8171C65.1066 73.777 65.1446 72.7361 65.1654 71.6952C65.171 71.4058 65.1206 71.1093 65.0542 70.826C64.973 70.4781 64.7579 70.4123 64.5415 70.6895C64.2072 71.1181 63.8868 71.5663 63.6273 72.0427C62.5771 73.9712 61.7337 75.9969 60.9215 78.0338C60.1141 80.0574 59.3538 82.0999 58.5568 84.128C58.4196 84.4775 58.2381 84.8226 58.0125 85.1212C57.6122 85.6516 57.0911 85.7536 56.4841 85.4811C56.3513 85.4213 56.2109 85.3599 56.103 85.2656C55.6978 84.9129 55.1995 84.837 54.6997 84.758C54.5093 84.7279 54.3173 84.7062 54.1278 84.6729C53.5867 84.5774 53.3899 84.3527 53.3851 83.7849C53.3759 82.6902 53.3791 81.5951 53.3775 80.5C53.3771 80.1272 53.3775 79.7544 53.3775 79.3215C53.3152 79.417 53.2764 79.4707 53.2436 79.5277C52.6045 80.6248 51.9107 81.6846 51.0761 82.6445C50.2774 83.563 49.3996 84.4009 48.2619 84.8716C46.1459 85.7472 44.2096 85.3262 42.4943 83.882C41.241 82.827 40.6008 81.3973 40.272 79.8162C40.0361 78.6818 40.0433 77.5386 40.1397 76.3889C40.3236 74.2011 40.7387 72.0611 41.4302 69.9777C41.7101 69.135 42.0312 68.3064 42.5411 67.5716C42.7103 67.3276 42.9226 67.1097 43.1382 66.9043C43.3494 66.7028 43.6321 66.6202 43.914 66.6394C44.5367 66.682 45.1698 66.7 45.7748 66.8349C46.6906 67.0387 47.4081 67.5668 47.8396 68.4291C48.0491 68.8481 48.0527 69.2799 47.9251 69.7321C47.8392 70.0371 47.8272 70.3621 47.7704 70.6763C47.5516 71.8821 47.3157 73.0848 47.1097 74.2926C46.8482 75.8291 46.5882 77.3664 46.3703 78.9094C46.2659 79.6469 46.2403 80.3977 46.2163 81.1433C46.2059 81.4647 46.2615 81.7966 46.3379 82.1112C46.4535 82.5863 46.7542 82.7432 47.2289 82.6156C47.7008 82.4888 48.0695 82.1898 48.4162 81.8652C49.2948 81.0413 49.9759 80.0606 50.597 79.0382C51.9427 76.8223 52.9992 74.4776 53.6767 71.968C53.9138 71.0896 54.0346 70.194 54.1074 69.2879C54.1458 68.8112 54.2194 68.3336 54.3213 67.8661C54.4817 67.1322 55.028 66.8252 55.7106 66.7016C56.1681 66.619 56.6288 66.5532 57.0831 66.4569C57.2387 66.424 57.3943 66.3421 57.525 66.2478C58.0253 65.8878 58.7688 65.9416 59.2791 66.3882C59.723 66.7767 59.9297 67.2658 59.8577 67.8509C59.6746 69.3457 59.4774 70.8384 59.2859 72.3324C59.1443 73.4363 59.0031 74.5406 58.8627 75.6445C58.8603 75.663 58.8663 75.6827 58.8735 75.7469C58.9243 75.6706 58.9607 75.6281 58.9843 75.5795C59.437 74.6582 59.8825 73.7333 60.3408 72.8151C61.0923 71.3095 61.8753 69.8224 62.971 68.5295C63.1646 68.3011 63.379 68.0893 63.5945 67.8814C64.1768 67.3196 64.8682 66.991 65.6804 66.9492C67.0166 66.881 68.3079 67.0608 69.5176 67.6739C70.251 68.0459 70.6717 68.6498 70.8721 69.4368C71.0977 70.322 71.182 71.2216 71.1992 72.1313C71.224 73.4548 71.1392 74.773 71.0433 76.092C70.9501 77.3692 70.8925 78.6497 70.8337 79.9294C70.8229 80.1658 70.8625 80.4093 70.9113 80.6425C70.9953 81.0462 71.22 81.1429 71.5608 80.9085C71.7779 80.7592 71.9783 80.5743 72.1522 80.3752C72.9305 79.486 73.5147 78.4663 74.0622 77.427C75.2835 75.1088 76.2605 72.6919 76.9384 70.1571C77.2715 68.9123 77.5282 67.6535 77.5742 66.3597C77.5758 66.3144 77.5742 66.2687 77.5742 66.2253C77.1915 66.1607 76.8148 66.1194 76.4497 66.0307C75.7302 65.8561 75.0892 65.5327 74.6073 64.9452C74.285 64.552 74.1114 64.0961 74.0514 63.5957C74.0138 63.2819 74.0894 63.1278 74.3865 63.0163C74.6705 62.9095 74.968 62.8108 75.2675 62.7779C76.0402 62.6929 76.8168 62.6415 77.5926 62.5877C77.7558 62.5765 77.8006 62.5171 77.8082 62.3582C77.887 60.6712 78.2009 59.024 78.6948 57.4128C78.9651 56.5304 79.6302 56.0898 80.508 55.9686C81.2746 55.8627 82.0349 55.9269 82.7691 56.1921C82.8871 56.2347 83.0018 56.2912 83.1098 56.3559C83.5541 56.6215 83.7889 56.9634 83.7781 57.4863C83.7725 57.7551 83.7449 57.8502 83.7645 58.0701C83.8189 58.6849 83.7929 58.8699 83.7769 59.3057C83.7529 59.9585 83.7341 60.6114 83.7241 61.2647C83.7173 61.6985 83.7397 62.1331 83.7277 62.5665C83.7233 62.7294 83.7661 62.7647 83.9224 62.7731C84.7187 62.8177 85.5201 62.8325 86.3075 62.9433C87.1341 63.0596 87.86 63.4436 88.4614 64.0383C88.5274 64.1038 88.5886 64.176 88.6426 64.2514C88.8754 64.5765 88.8406 64.8509 88.5294 65.1082C88.1675 65.4067 87.7348 65.5211 87.2817 65.5941C86.3639 65.7422 85.4481 65.9039 84.5311 66.0584C84.2364 66.1081 83.9416 66.1591 83.6453 66.1952C83.5345 66.2085 83.4981 66.2514 83.4893 66.3549C83.4425 66.9067 83.391 67.4576 83.3422 68.0094C83.2666 68.8597 83.1914 69.7104 83.117 70.5607C83.0574 71.2385 83.001 71.9167 82.9403 72.594C82.8683 73.3978 82.7927 74.2011 82.7195 75.0049C82.6463 75.8087 82.5751 76.6128 82.5008 77.4162C82.4284 78.1999 82.3528 78.9832 82.2788 79.7665C82.2064 80.5301 82.1356 81.2938 82.062 82.057C81.9753 82.953 81.8869 83.8491 81.7977 84.7452C81.7549 85.1765 81.7165 85.6083 81.6613 86.0381C81.5942 86.5613 81.2574 86.9646 80.8387 86.9931C80.438 87.0208 80.0461 86.9674 79.6806 86.7644C79.1575 86.4739 78.6392 86.1653 78.0897 85.9341C77.4055 85.6464 77.1047 85.1368 77.0028 84.4366C76.744 82.6585 76.7188 80.8724 76.7964 79.0827C76.8276 78.3624 76.8764 77.6433 76.9164 76.9234C76.918 76.8977 76.912 76.8717 76.91 76.846C76.8956 76.8432 76.8812 76.8404 76.8664 76.8379L76.8672 76.8375Z" fill="white"/>
<path d="M102.985 78.9733C102.612 79.4624 102.291 79.9139 101.938 80.3384C99.9987 82.6755 97.606 84.3223 94.6507 85.0948C93.5293 85.3877 92.3888 85.5266 91.2314 85.3949C89.2167 85.1654 87.7466 84.1401 86.8444 82.3139C86.3845 81.3834 86.1345 80.3914 86.0386 79.3613C85.6618 75.3104 86.936 71.8012 89.5638 68.7615C90.6475 67.5079 91.9609 66.5452 93.5433 66.0019C95.0978 65.4682 96.6662 65.4213 98.2111 66.0212C99.6692 66.5874 100.475 67.6957 100.694 69.237C100.9 70.686 100.585 72.0504 99.9763 73.3546C99.2477 74.9159 98.1687 76.1639 96.6242 76.9665C95.8424 77.3726 95.0066 77.5933 94.1272 77.6703C93.241 77.7478 92.3756 77.6346 91.5142 77.4484C91.4822 77.4416 91.4502 77.4364 91.365 77.4203C91.3978 77.6535 91.4158 77.8669 91.4586 78.0752C91.7025 79.265 92.2808 80.2124 93.4325 80.7148C94.2028 81.0507 95.0114 81.0539 95.824 80.911C97.3853 80.6366 98.6818 79.8424 99.8279 78.7891C101.743 77.0287 103.136 74.9011 104.15 72.5115C105.182 70.0793 106.824 68.1969 109.18 66.9734C110.256 66.4144 111.401 66.0549 112.597 65.8599C112.892 65.8117 113.19 65.7848 113.485 65.7331C113.539 65.7234 113.617 65.6476 113.625 65.5938C113.722 64.9213 113.811 64.2471 113.897 63.573C114.036 62.4951 114.151 61.4141 114.313 60.3403C114.491 59.1549 114.711 57.9759 114.913 56.7942C115.035 56.0871 115.528 55.7553 116.155 55.5606C116.243 55.5333 116.342 55.5057 116.429 55.5189C116.771 55.5703 117.026 55.4178 117.301 55.236C117.991 54.7793 118.749 54.5121 119.594 54.5486C120.511 54.5883 121.1 55.2609 120.987 56.1778C120.881 57.0369 120.743 57.8925 120.625 58.7504C120.507 59.6087 120.395 60.4679 120.283 61.3266C120.167 62.2054 120.053 63.0842 119.94 63.9634C119.826 64.8559 119.713 65.7487 119.601 66.6416C119.484 67.5673 119.366 68.4931 119.255 69.4196C119.152 70.2804 119.055 71.1415 118.961 72.003C118.866 72.8582 118.767 73.7125 118.69 74.5692C118.606 75.4994 118.529 76.4308 118.481 77.3629C118.432 78.316 118.406 79.271 118.4 80.2253C118.392 81.5382 118.612 82.8272 118.858 84.1116C118.903 84.3452 118.925 84.588 118.917 84.8251C118.909 85.1152 118.731 85.24 118.446 85.2914C117.767 85.4138 117.095 85.5715 116.415 85.6943C115.966 85.7754 115.509 85.8235 115.055 85.8801C114.641 85.9319 114.339 85.7284 114.086 85.4286C113.782 85.0667 113.581 84.6462 113.424 84.2035C113.104 83.2979 112.961 82.3585 112.903 81.403C112.897 81.3067 112.884 81.2112 112.829 81.1069C112.735 81.2798 112.644 81.4536 112.549 81.6257C111.858 82.8737 110.986 83.9648 109.808 84.7862C108.969 85.3713 108.05 85.7733 107.022 85.8323C105.687 85.909 104.668 85.3315 103.957 84.2068C103.49 83.4676 103.252 82.6434 103.114 81.7878C102.979 80.9552 102.934 80.1169 102.985 79.2742C102.99 79.1912 102.986 79.1077 102.986 78.9729L102.985 78.9733ZM113.532 69.9698C113.001 70.1227 112.557 70.3305 112.132 70.5793C110.695 71.4208 109.644 72.6367 108.825 74.0652C107.852 75.7634 107.246 77.5868 107.064 79.5411C107.009 80.139 107.003 80.7433 107.249 81.3147C107.392 81.6478 107.603 81.9187 107.978 81.9941C108.354 82.0695 108.687 81.9319 108.996 81.7341C109.424 81.46 109.747 81.0788 110.037 80.6671C110.764 79.6338 111.262 78.4845 111.699 77.308C112.433 75.3301 112.954 73.2932 113.336 71.2193C113.409 70.8217 113.462 70.4204 113.532 69.9702L113.532 69.9698ZM91.5537 75.0002C91.8425 74.9541 92.0788 74.9248 92.3116 74.8774C94.6287 74.4059 96.2535 73.0977 97.0957 70.8626C97.3153 70.2808 97.4465 69.6744 97.4353 69.0456C97.4277 68.5998 97.2209 68.3871 96.7822 68.4052C96.5794 68.4136 96.3719 68.4505 96.1779 68.5111C95.4777 68.7298 94.9234 69.1796 94.4291 69.7005C93.1214 71.0789 92.2332 72.7037 91.6697 74.513C91.6249 74.6567 91.5993 74.806 91.5533 74.9998L91.5537 75.0002Z" fill="white"/>
<path d="M29.0678 80.5417C29.165 80.2817 29.2682 80.0236 29.3582 79.7608C29.9668 77.9807 30.3983 76.1521 30.8327 74.3247C31.6365 70.9423 32.4119 67.5527 33.2413 64.1767C33.7724 62.0158 34.3779 59.8718 35.2729 57.8273C35.5308 57.2374 35.8627 56.6788 36.1795 56.1166C36.4222 55.6861 36.8021 55.4385 37.2944 55.3522C37.4296 55.3285 37.566 55.2499 37.6775 55.1648C38.0747 54.8618 38.4562 54.538 38.8549 54.237C38.9793 54.1431 39.1324 54.0757 39.2832 54.0308C39.7435 53.8927 40.123 54.2435 39.9958 54.7029C39.4808 56.5604 39.15 58.4577 38.7841 60.3469C38.4078 62.2891 38.0639 64.2373 37.6855 66.1791C37.306 68.1273 36.9085 70.0719 36.5058 72.0153C36.1775 73.5996 35.8559 75.1858 35.4832 76.7596C35.0621 78.5393 34.5102 80.2789 33.6544 81.9064C32.8082 83.5156 31.6917 84.8723 30.0692 85.7563C28.9459 86.3687 27.7577 86.6853 26.4692 86.6187C25.7814 86.5829 25.1035 86.5203 24.4509 86.2872C23.3159 85.8823 22.6404 85.0773 22.3553 83.9104C21.7694 81.516 21.2771 79.1019 20.8548 76.6738C20.5841 75.1188 20.3454 73.5578 20.1194 71.9952C19.9154 70.5839 19.7351 69.169 19.5699 67.7525C19.4496 66.7196 19.368 65.6819 19.274 64.6458C19.106 62.7971 19.0308 60.9436 19 59.0873C18.9801 57.8646 19.5187 56.981 20.5433 56.363C21.0788 56.04 21.6559 55.8273 22.2657 55.6993C23.1831 55.5067 24.1033 55.5007 25.0199 55.6889C26.3432 55.9601 27.0719 56.8181 27.3326 58.1106C27.5158 59.0175 27.5642 59.9356 27.5094 60.8593C27.4542 61.7883 27.509 62.7137 27.5978 63.6386C27.6537 64.2229 27.6901 64.8091 27.7337 65.3946C27.8117 66.4391 27.8901 67.4837 27.9661 68.5282C28.0241 69.3267 28.0765 70.1257 28.1364 70.9238C28.21 71.9082 28.2884 72.8925 28.3652 73.8768C28.4212 74.5951 28.474 75.3134 28.5352 76.0313C28.6079 76.8884 28.6823 77.7456 28.7667 78.6015C28.8263 79.2046 28.9043 79.8065 28.9755 80.4085C28.9807 80.4514 28.9983 80.4927 29.0103 80.5349C29.0294 80.5369 29.0486 80.5393 29.0678 80.5413V80.5417Z" fill="white"/>
<path d="M49.6923 61.3001C49.8195 62.8812 48.2579 64.1544 46.733 63.9237C45.604 63.7531 44.7174 63.1942 44.1292 62.2263C43.4709 61.1436 43.5813 60.4205 44.3959 59.5931C45.0534 58.9254 45.8384 58.4526 46.7558 58.2408C47.9527 57.9643 49.0945 58.4655 49.4756 59.8226C49.6096 60.2993 49.6576 60.8005 49.7451 61.2905L49.6923 61.3001Z" fill="white"/>
</g>
<defs>
<clipPath id="clip0_691_62">
<rect width="102" height="33" fill="white" transform="translate(19 54)"/>
</clipPath>
</defs>
</svg>
