<svg width="140" height="140" viewBox="0 0 140 140" fill="none" xmlns="http://www.w3.org/2000/svg">
<rect width="140" height="140" rx="30" fill="white"/>
<g clip-path="url(#clip0_2656_1326)">
<path d="M112.623 40.0342C111.367 41.5212 110.467 43.2513 109.33 44.8208C104.694 51.2222 99.3071 56.9068 93.0202 61.7429C92.8916 61.8418 92.7506 61.9159 92.6013 62.0106C92.2903 61.6687 92.4313 61.2898 92.4313 60.952C92.423 56.3342 92.4313 51.7206 92.4271 47.1029C92.4271 45.5128 91.9461 45.0391 90.3246 45.035C87.4507 45.0309 84.5727 45.0432 81.6988 45.035C80.5376 45.035 79.476 45.2986 78.4475 45.8671C76.9919 46.6745 75.4782 47.3871 73.9729 48.108C72.7039 48.7177 72.0569 49.628 72.1067 51.0986C72.1813 53.356 72.1233 55.6134 72.1357 57.8707C72.144 59.675 73.0149 60.2187 74.6364 59.4237C75.8971 58.8099 77.1536 58.1879 78.4019 57.5494C78.8539 57.3188 79.0654 57.3435 79.0654 57.9161C79.0654 61.8994 79.0654 65.8869 79.0862 69.8703C79.0862 70.3275 78.8373 70.5046 78.489 70.6735C74.57 72.5561 70.4935 74.0308 66.3257 75.2707C65.6415 75.4766 65.6124 75.1389 65.6124 74.6322C65.6207 72.2759 65.6124 69.9156 65.6124 67.5593C65.6124 60.7831 65.6124 54.011 65.6124 47.2347C65.6124 45.4511 65.177 45.0185 63.3482 45.0185C60.4411 45.0185 57.5299 45.0309 54.6228 45.0309C53.5943 45.0309 52.6654 45.3028 51.7572 45.793C50.2601 46.6003 48.7216 47.3295 47.1913 48.0709C45.8975 48.6971 45.2215 49.628 45.2796 51.1398C45.3625 53.3931 45.2961 55.6546 45.3127 57.9161C45.3252 59.642 46.2126 60.1899 47.7719 59.4361C49.0036 58.8388 50.2394 58.2456 51.4462 57.603C52.118 57.2446 52.2797 57.3847 52.2756 58.122C52.2549 63.403 52.2632 68.6839 52.2632 73.9649C52.2632 74.9288 52.2134 75.8927 52.2797 76.8525C52.3337 77.6269 52.1429 77.9482 51.2845 78.0018C45.1551 78.3972 39.0673 78.1665 32.9836 77.2644C31.2253 77.0049 30.5161 76.317 30.0599 74.6404C27.9367 66.8343 26.6096 58.9006 26.1493 50.8185C25.9295 46.934 25.9627 43.0619 26.1866 39.1856C26.2364 38.3411 26.4769 38.0734 27.3519 38.0528C37.9393 37.8015 47.7927 35.0169 56.8083 29.4558C61.6064 26.494 65.9774 23.0173 69.4402 18.5191C69.7097 18.1689 69.8839 17.654 70.4271 18.346C76.5482 26.1109 84.6059 31.1488 93.7791 34.572C99.4895 36.7017 110.023 37.8221 111.508 38.0445C112.213 38.1516 112.926 38.267 113.635 38.3823C113.299 38.9343 112.959 39.4863 112.623 40.0342Z" fill="#EB2225"/>
<path d="M113.075 39.4492C113.075 39.4492 113.295 38.9343 113.635 38.3823C114.129 42.2545 114.041 46.139 113.847 50.0194C113.312 60.7584 111.421 71.2461 107.663 81.3549C103.205 93.3462 96.4456 103.784 86.5218 112.064C81.7029 116.085 76.3947 119.314 70.6386 121.827C70.2156 122.012 69.8714 122.074 69.4194 121.872C55.6015 115.817 45.1468 106.108 37.732 93.0949C37.6697 92.9837 37.6283 92.856 37.537 92.6418C38.7107 92.5264 39.8262 92.3987 40.95 92.3122C44.4253 92.0527 47.8466 91.4595 51.2388 90.7016C52.1139 90.508 52.3005 90.7016 52.2631 91.5584C52.1926 93.2143 52.2341 94.8785 52.2466 96.5386C52.259 97.8444 52.6778 98.2646 54.0008 98.2687C57.2437 98.2811 60.4867 98.2811 63.7297 98.2687C65.2143 98.2646 65.6166 97.8527 65.6207 96.345C65.6332 93.2555 65.629 90.1661 65.6207 87.0766C65.6207 86.6317 65.6124 86.2898 66.164 86.0715C70.452 84.3661 74.5244 82.2199 78.4848 79.8719C78.6217 79.7937 78.7668 79.7319 78.9203 79.6536C79.1525 80.0326 79.0447 80.4033 79.0447 80.7535C79.053 85.8696 79.0447 90.9817 79.0447 96.0978C79.0447 97.9268 79.3806 98.2687 81.1845 98.2728C84.2616 98.277 87.3387 98.277 90.4117 98.2728C92.0539 98.2728 92.4271 97.9021 92.4271 96.2873C92.4271 87.6203 92.4313 78.9492 92.4188 70.2822C92.4188 69.6519 92.5474 69.1865 93.0451 68.7169C99.9208 62.196 105.548 54.7359 109.899 46.3367C110.828 44.5448 111.628 42.6911 112.486 40.8621C112.607 40.6026 113.079 39.441 113.079 39.441L113.075 39.4492Z" fill="#07080A"/>
<path d="M26 46.1018C32.8965 49.2695 39.6645 52.1077 45.3086 52.2808V58.5668C45.4123 59.436 45.997 59.885 47.2121 59.5925L51.9894 57.3475C52.1595 57.261 52.3585 57.3846 52.3585 57.5741L52.3461 77.2108C52.3461 77.5897 52.0351 77.9316 51.6577 77.9687C44.6285 78.6814 38.3913 78.2653 32.6145 77.0542C31.4741 76.8153 30.4746 76.1109 30.1429 75.0028C27.5344 66.2781 25.9295 53.8502 26 46.1018Z" fill="#C31A1D"/>
<path d="M72.2062 53.5125C70.1659 54.0933 67.8809 54.2745 65.5959 53.8791V74.9946C65.5959 75.1635 65.8156 75.3942 65.9815 75.3489C71.0575 74.0348 75.2377 72.3912 78.7627 70.521C78.9037 70.4469 79.0903 70.3068 79.0779 69.932L78.9866 57.397C78.9866 57.2487 78.829 57.1539 78.6963 57.2281L74.5078 59.5019C74.1346 59.7038 73.7033 59.8067 73.2886 59.7326C72.7951 59.6461 72.4302 59.3413 72.2311 58.6492C72.1482 58.3691 72.1274 58.0808 72.1316 57.7883C72.1523 56.6926 72.2062 53.5125 72.2062 53.5125Z" fill="#C31A1D"/>
<path d="M92.4023 48.8412V61.4916C92.4023 62.4226 92.7921 61.8953 93.0202 61.7429C102.044 55.6875 114.228 38.8231 113.635 38.3823C113.635 38.3823 112.847 39.0249 112.69 39.1444C106.361 43.7292 99.7425 46.5344 92.535 48.6682C92.4562 48.6929 92.4023 48.763 92.4023 48.8453V48.8412Z" fill="#C31A1D"/>
</g>
<defs>
<clipPath id="clip0_2656_1326">
<rect width="88" height="104" fill="white" transform="translate(26 18)"/>
</clipPath>
</defs>
</svg>
