<svg width="140" height="140" viewBox="0 0 140 140" fill="none" xmlns="http://www.w3.org/2000/svg">
<rect width="140" height="140" rx="30" fill="#3F5CF6"/>
<g clip-path="url(#clip0_841_3628)">
<path d="M48.4345 64.9058C48.3477 64.8896 48.2574 64.8866 48.1689 64.8866C47.1689 64.8854 46.1695 64.8938 45.1695 64.883C44.4036 64.8747 43.8451 65.1706 43.4173 65.8367C41.7132 68.4903 39.9788 71.1248 38.2563 73.7665C37.1714 75.4299 36.0609 77.0778 35.0122 78.7639C34.4067 79.7379 33.5986 79.7631 32.9522 78.7544C31.1536 75.9471 29.326 73.1596 27.5054 70.3666C26.4644 68.7696 25.4157 67.1785 24.3694 65.585C24.1068 65.1856 23.7348 64.9793 23.2613 64.9249C22.6089 64.8496 21.9559 64.9094 21.4271 64.8854C21.0462 64.8854 20.7889 64.8854 20.5311 64.8854C20.2637 64.8854 19.9963 64.8813 19.7295 64.886C19.0902 64.898 18.8305 65.3207 19.1116 65.8876C19.1377 65.9408 19.1716 65.9904 19.2043 66.0406C20.7848 68.4563 22.3653 70.8719 23.9469 73.2869C25.1591 75.1381 26.3682 76.9917 27.5862 78.8387C28.2256 79.8079 28.8376 80.7963 29.5286 81.7314C30.5066 83.0558 31.7454 83.8929 33.4305 83.9683C34.5517 84.0185 35.6479 83.9515 36.6568 83.3913C37.5196 82.9117 38.1547 82.1841 38.6942 81.3811C39.9729 79.4779 41.2254 77.5573 42.4839 75.6404C44.3911 72.735 46.2972 69.8291 48.1974 66.919C48.441 66.5459 48.7244 66.1937 48.9021 65.7811C49.0999 65.3225 48.9199 64.9984 48.4339 64.9058H48.4345Z" fill="white"/>
<path d="M91.2244 65.0875C91.0473 64.9757 90.8685 64.8824 90.6468 64.8836C89.5975 64.889 88.5482 64.8908 87.4995 64.886C86.7651 64.8824 86.2316 65.1826 85.8287 65.82C84.8864 67.3124 83.9024 68.7785 82.9381 70.2572C81.5768 72.3458 80.2192 74.4361 78.8573 76.5247C78.3041 77.3731 77.7581 78.2264 77.1835 79.0605C76.833 79.5693 76.2679 79.6554 75.8128 79.3122C75.6613 79.198 75.5561 79.0378 75.4527 78.8793C74.7748 77.8395 74.0962 76.8003 73.4183 75.7605C71.9649 73.5321 70.514 71.303 69.0583 69.0763C68.2876 67.8972 67.5104 66.7229 66.7362 65.5461C66.4968 65.1826 66.1575 64.9733 65.7297 64.9357C64.495 64.8268 63.2574 64.8854 62.0215 64.9004C61.5182 64.9064 61.2859 65.3536 61.4885 65.8188C61.5474 65.9545 61.6294 66.0813 61.7102 66.2051C63.2104 68.4987 64.7113 70.7918 66.2134 73.0848C67.9222 75.6936 69.6281 78.3035 71.3428 80.9081C71.8687 81.7063 72.4409 82.4723 73.2074 83.0576C74.388 83.9599 75.7558 84.0622 77.1651 83.9491C78.4277 83.8481 79.4776 83.3112 80.3196 82.3611C80.7284 81.9001 81.1009 81.4092 81.439 80.8943C83.3825 77.9322 85.3219 74.9677 87.2624 72.0032C88.5625 70.0174 89.8608 68.0305 91.1608 66.0448C91.345 65.7638 91.4424 65.4744 91.2725 65.1497C91.2565 65.1294 91.2398 65.1085 91.2232 65.0881L91.2244 65.0875Z" fill="white"/>
<path d="M120.245 70.1179C119.472 67.9899 118.083 66.3887 116.025 65.4158C114.52 64.7043 112.916 64.446 111.27 64.4269C109.756 64.4095 108.241 64.4233 106.727 64.4233C105.242 64.4233 103.758 64.4167 102.273 64.4251C101.252 64.431 100.239 64.5243 99.2421 64.7617C97.3146 65.2209 95.6652 66.1453 94.4364 67.7358C93.2118 69.3209 92.6313 71.1583 92.4388 73.1351C92.2742 74.8254 92.484 76.4727 93.0431 78.0704C93.9011 80.5213 95.4887 82.2863 97.9212 83.2394C99.3241 83.7889 100.79 83.9791 102.282 83.985C105.222 83.9964 108.162 83.991 111.101 83.9874C112.052 83.9862 112.998 83.8984 113.928 83.6945C116.833 83.0577 118.957 81.4313 120.106 78.6414C121.264 75.8293 121.28 72.97 120.245 70.1191L120.245 70.1179ZM115.917 76.7011C115.231 78.2497 114.02 79.0982 112.392 79.3948C111.934 79.4785 111.471 79.5096 111.005 79.509C108.095 79.506 105.186 79.509 102.276 79.506C101.48 79.5048 100.702 79.3978 99.9509 79.1078C98.7685 78.6515 97.9331 77.836 97.4411 76.6712C96.8232 75.2093 96.7703 73.7067 97.2611 72.2077C97.8612 70.375 99.1565 69.3275 101.038 69.0028C101.37 68.9454 101.703 68.9035 102.04 68.9334C102.13 68.8706 102.232 68.8964 102.328 68.8964C105.236 68.8952 108.144 68.8946 111.052 68.8964C111.148 68.8964 111.25 68.8695 111.339 68.9334C113.709 68.9107 115.67 70.1687 116.247 72.704C116.556 74.063 116.49 75.406 115.917 76.7011H115.917Z" fill="white"/>
<path d="M57.4618 66.0646C57.4576 65.2251 57.1118 64.8897 56.2794 64.8867C55.5373 64.8837 54.7945 64.8825 54.0524 64.8897C53.2865 64.8963 52.9758 65.1904 52.9075 65.9558C52.8985 66.0544 52.9021 66.1549 52.9021 66.2541C52.9021 71.4017 52.9021 76.5487 52.9015 81.6962C52.9015 82.0747 52.8932 82.4532 52.9039 82.8311C52.9247 83.5737 53.2289 83.9462 53.9175 83.9743C54.7476 84.0084 55.5806 84.0096 56.4107 83.9773C57.1415 83.9486 57.4309 83.615 57.463 82.8813C57.4659 82.8119 57.4642 82.742 57.4642 82.672C57.4642 79.9341 57.4642 77.1962 57.4642 74.4583C57.4642 73.2338 57.4642 72.0092 57.4642 70.7846C57.4642 69.2115 57.4701 67.6383 57.4618 66.0652V66.0646Z" fill="white"/>
<path d="M56.1414 57.5089C55.4754 56.8446 54.9442 56.8284 54.2674 57.476C53.7303 57.9902 53.2128 58.5247 52.6917 59.0551C52.5182 59.2321 52.3566 59.424 52.2627 59.6578C52.0785 60.1182 52.2538 60.5051 52.5604 60.8286C53.1403 61.4402 53.738 62.0358 54.3393 62.6265C54.5681 62.8507 54.8402 63.0158 55.1646 63.0283C55.5027 63.0194 55.7689 62.8794 55.9947 62.6552C56.5639 62.0896 57.1384 61.5293 57.6946 60.9511C58.3589 60.2605 58.347 59.7332 57.6732 59.0485C57.1652 58.5325 56.6542 58.0195 56.1414 57.5083V57.5089Z" fill="white"/>
</g>
<defs>
<clipPath id="clip0_841_3628">
<rect width="102" height="27" fill="white" transform="translate(19 57)"/>
</clipPath>
</defs>
</svg>
