<svg width="140" height="140" viewBox="0 0 140 140" fill="none" xmlns="http://www.w3.org/2000/svg">
<g clip-path="url(#clip0_2771_2)">
<rect width="140" height="140" rx="30" fill="white"/>
<g clip-path="url(#clip1_2771_2)">
<path d="M108.238 -3H31.7619C12.5634 -3 -3 12.5634 -3 31.7619V108.238C-3 127.437 12.5634 143 31.7619 143H108.238C127.437 143 143 127.437 143 108.238V31.7619C143 12.5634 127.437 -3 108.238 -3Z" fill="#13C1AC"/>
<path d="M111.488 70.0139C112.601 75.6036 110.744 88.6567 97.2499 92.2094C96.5581 92.3901 96.0888 93.0889 96.0019 93.8189C95.6686 96.7569 94.7039 99.5881 93.1739 102.118C91.6438 104.649 89.5847 106.818 87.1376 108.478C78.0717 114.554 65.9329 111.93 59.8808 102.753C59.4011 101.988 58.685 101.692 57.6978 101.984C54.9341 102.922 51.9924 103.213 49.0986 102.836C46.2049 102.458 43.4361 101.423 41.0051 99.8083C31.8905 93.8015 29.2417 81.315 35.0747 71.9223C35.3174 71.526 35.4157 71.0579 35.353 70.5974C35.2903 70.1369 35.0704 69.7122 34.7306 69.3951C28.0493 63.3918 26.4121 54.1764 30.5244 46.0873C35.2763 36.7607 46.4975 33.3679 55.9249 38.4014C56.6653 38.7977 57.6213 38.8672 58.1671 38.2207C62.9781 32.485 68.8042 28.3135 78.1308 28.2857C92.7308 28.251 103.194 40.9912 102.749 55.7546C102.719 56.0773 102.782 56.402 102.932 56.6895C103.082 56.9769 103.312 57.2148 103.594 57.3745C104.863 58.167 109.889 61.9804 111.485 70.0139H111.488ZM88.9591 89.6057C88.9661 87.9511 89.8803 86.9742 91.5559 86.9047C98.6612 86.4806 104.268 80.1887 103.858 72.8679C103.736 70.7543 102.822 68.029 101.772 66.2075C101.265 65.328 100.17 64.9109 99.3112 65.4358C99.0064 65.6525 98.7632 65.9448 98.6056 66.284C96.9092 69.6698 94.1734 72.7949 91.2221 75.0926C90.6711 75.5092 89.9811 75.6982 89.2947 75.6206C88.6083 75.5429 87.978 75.2046 87.5339 74.6755C86.5606 73.5249 86.6614 71.7311 87.8085 70.7821C96.4642 63.5795 97.5697 51.5692 90.7494 43.3376C84.1099 35.332 73.5283 34.4212 65.255 40.6088C64.2052 41.3944 62.2029 43.0978 60.941 45.6458C60.2945 46.939 58.3096 47.4082 57.1659 46.5496C57.1416 46.5322 56.9678 46.355 56.9434 46.3341C51.1243 41.5717 43.0665 42.7328 39.0515 48.3781C34.8453 54.2911 35.8534 62.4567 41.9159 66.8784C43.9008 68.3245 46.1499 68.8598 48.5728 69.0162C49.201 69.067 49.787 69.353 50.2136 69.8169C50.6402 70.2809 50.8761 70.8888 50.874 71.5191C50.8814 71.8464 50.8242 72.172 50.7057 72.4772C50.5873 72.7825 50.4098 73.0614 50.1835 73.298C49.9572 73.5346 49.6865 73.7243 49.3869 73.8563C49.0872 73.9883 48.7645 74.0599 48.4372 74.0671C46.7145 74.0837 44.9983 73.8531 43.3411 73.3823C42.4825 73.1529 41.7177 73.5979 41.3075 74.3348C37.6262 81.016 39.8997 89.5049 46.3897 93.294C49.2054 94.9486 52.5321 95.4979 55.7302 94.8339C56.1792 94.736 56.5753 94.4738 56.8409 94.0989C57.1065 93.7239 57.2224 93.2633 57.1659 92.8073C56.615 87.912 57.8899 82.9855 60.7464 78.972C60.938 78.6716 61.1877 78.4125 61.4809 78.2099C61.7741 78.0074 62.1048 77.8655 62.4536 77.7927C62.8024 77.7198 63.1623 77.7174 63.5121 77.7856C63.8618 77.8538 64.1944 77.9913 64.4902 78.1899C65.7347 79.0416 66.0789 80.7275 65.2654 81.9998C61.386 88.1457 63.0754 96.3704 69.0441 100.368C75.0161 104.366 82.9975 102.621 86.8769 96.4747C88.177 94.4237 88.8966 92.053 88.9591 89.6057Z" fill="white"/>
</g>
</g>
<defs>
<clipPath id="clip0_2771_2">
<rect width="140" height="140" rx="30" fill="white"/>
</clipPath>
<clipPath id="clip1_2771_2">
<rect width="146" height="146" fill="white" transform="translate(-3 -3)"/>
</clipPath>
</defs>
</svg>
