<svg width="140" height="140" viewBox="0 0 140 140" fill="none" xmlns="http://www.w3.org/2000/svg">
<rect width="140" height="140" rx="30" fill="#0071DC"/>
<g clip-path="url(#clip0_2176_7385)">
<path d="M80.4833 77.8169C80.609 76.5028 81.3222 75.1235 82.8134 74.2244C83.5768 73.7642 84.3535 73.7362 85.1964 74.1326C91.1611 76.943 97.1365 79.7308 103.114 82.5133C104.591 83.2009 105.069 84.4711 104.991 85.9355C104.857 88.4826 103.695 90.5082 101.498 91.8277C100.196 92.6097 98.9055 92.6337 97.5652 91.6747C92.2832 87.896 86.9601 84.1745 81.6397 80.449C80.8445 79.8917 80.4542 79.1762 80.482 77.8182L80.4833 77.8169Z" fill="#FCBB31"/>
<path d="M99.3422 46.5859C100.548 46.5938 101.45 46.9902 102.22 47.6499C104.18 49.3284 105.266 51.4073 104.906 54.0634C104.754 55.186 104.151 55.9987 103.092 56.4908C97.0889 59.2852 91.0924 62.0956 85.0998 64.9127C84.3522 65.2638 83.6364 65.2266 82.9537 64.8355C81.3275 63.9045 80.4966 62.4747 80.4847 60.594C80.4794 59.7734 80.8366 59.1256 81.53 58.6375C86.939 54.8375 92.3401 51.0242 97.7399 47.211C98.2758 46.8332 98.8328 46.5499 99.3422 46.5845V46.5859Z" fill="#FCBB31"/>
<path d="M70.1733 30C71.4964 30.0359 72.891 30.3538 74.0792 31.3048C74.9578 32.0084 75.446 32.8902 75.3402 34.0633C75.0319 37.4723 74.7368 40.8812 74.4391 44.2914C74.2049 46.9755 73.972 49.6596 73.7405 52.3423C73.6876 52.9581 73.6545 53.5766 73.5844 54.1911C73.4481 55.3854 72.3618 56.3165 70.819 56.532C70.0992 56.633 69.3728 56.6144 68.6596 56.4162C67.2227 56.0172 66.5082 55.1966 66.3772 53.7109C66.0014 49.4215 65.6441 45.1307 65.271 40.8413C65.0752 38.5975 64.8635 36.3563 64.6544 34.1139C64.5274 32.7412 65.1982 31.7876 66.2634 31.0627C67.3907 30.2953 68.6649 30.008 70.172 30H70.1733Z" fill="#FCBB31"/>
<path d="M75.3694 105.228C75.4871 106.263 74.811 107.195 73.7763 107.916C71.6315 109.412 68.145 109.35 66.0557 107.783C64.9853 106.98 64.5248 105.938 64.6783 104.554C64.9734 101.875 65.1785 99.1855 65.4113 96.4988C65.7395 92.7334 66.0782 88.9693 66.372 85.2026C66.4805 83.8087 67.2492 83.0253 68.4903 82.6449C69.7539 82.2579 71.0109 82.3071 72.2044 82.9375C73.0909 83.4057 73.5395 84.1199 73.6215 85.1574C73.9219 88.9241 74.2831 92.6855 74.6139 96.4496C74.8613 99.2679 75.0995 102.086 75.3694 105.225V105.228Z" fill="#FCBB31"/>
<path d="M35.0331 86.4103C35.0013 84.209 35.6748 83.0559 37.252 82.3323C43.0712 79.6629 48.8666 76.9443 54.6501 74.1977C55.8065 73.6484 56.791 73.7987 57.7079 74.5675C59.0205 75.6687 59.7019 77.0746 59.4756 78.8329C59.3962 79.4528 59.0853 79.9449 58.5666 80.3093C53.0689 84.1758 47.5765 88.0476 42.0788 91.9127C41.0944 92.6057 40.0266 92.5711 39.0052 92.067C36.4621 90.8114 35.262 88.6501 35.0344 86.4103H35.0331Z" fill="#FCBB31"/>
<path d="M40.4474 46.5951C41.0719 46.5685 41.6012 46.7415 42.0868 47.0846C47.5779 50.9577 53.0703 54.8309 58.5666 58.696C59.2944 59.2081 59.5683 59.9449 59.5325 60.7642C59.4611 62.4627 58.7122 63.8207 57.2567 64.7278C56.5329 65.1787 55.7682 65.309 54.9372 64.9193C48.8666 62.0637 42.7867 59.224 36.7121 56.3777C35.7211 55.9135 35.2686 55.0476 35.0754 54.0302C34.5528 51.261 36.7108 47.6246 39.373 46.7654C39.7302 46.6497 40.0954 46.5685 40.4447 46.5965L40.4474 46.5951Z" fill="#FCBB31"/>
</g>
<defs>
<clipPath id="clip0_2176_7385">
<rect width="70" height="79" fill="white" transform="translate(35 30)"/>
</clipPath>
</defs>
</svg>
