<svg width="140" height="140" viewBox="0 0 140 140" fill="none" xmlns="http://www.w3.org/2000/svg">
<g clip-path="url(#clip0_3527_4115)">
<rect width="140" height="140" rx="30" fill="white"/>
<g clip-path="url(#clip1_3527_4115)">
<path d="M0 -4L29.2816 10.3088L13.748 57.8886L43.9297 17.2815L68.3916 29.4454L55.1735 77.9195L82.8509 36.4254L110.891 50.7342L60.1747 114.404L28.0331 98.3067L42.3183 51.4467L13.9295 91.3341L0 84.3541V-4Z" fill="#86BC25"/>
<path d="M118.15 58.6591L109.07 75.1637C128.712 79.8388 139.817 86.0262 133.59 95.3036C111.037 82.3181 93.8045 83.1324 83.2504 101.287C75.1787 118.09 84.9416 131.396 103.357 143L144.224 142.345L145 64.7665C136.544 60.9712 127.732 58.441 118.15 58.6591ZM113.41 124.852C104.076 108.355 117.025 104.058 119.312 114.455C132 111.5 128.733 124.278 113.41 124.852Z" fill="#E40075"/>
</g>
</g>
<defs>
<clipPath id="clip0_3527_4115">
<rect width="140" height="140" rx="30" fill="white"/>
</clipPath>
<clipPath id="clip1_3527_4115">
<rect width="145" height="147" fill="white" transform="translate(0 -4)"/>
</clipPath>
</defs>
</svg>
