<svg width="140" height="140" viewBox="0 0 140 140" fill="none" xmlns="http://www.w3.org/2000/svg">
<g clip-path="url(#clip0_3527_4042)">
<rect width="140" height="140" rx="30" fill="white"/>
<g clip-path="url(#clip1_3527_4042)">
<path d="M124.152 0C125.272 0.259219 126.406 0.41125 127.514 0.736094C133.552 2.50688 138.32 7.72734 139.62 13.8764L139.999 16.2848V123.607C139.285 132.328 132.254 139.381 123.44 139.89L16.7701 139.895C7.8068 139.386 0.598984 132.209 0.103516 123.228L0.108984 16.5583C0.518047 8.13422 7.47758 0.879375 15.847 0H124.153H124.152ZM70.273 18.1967C70.1768 17.4814 70.3441 16.5845 70.273 15.8473C69.5063 15.8922 68.6335 16.7037 68.1402 17.267C67.0115 18.5555 65.3709 21.7744 66.7184 23.2816C68.6095 25.3958 75.3601 24.8773 77.8418 24.0177C80.6254 23.0541 80.6462 21.4178 79.5809 18.9427C79.4234 18.5752 78.4904 16.8131 78.2509 16.6644C77.5377 16.2214 76.7109 18.8573 76.059 18.0917C75.6663 17.6302 75.5909 15.1506 75.3546 14.315C74.6524 11.8245 73.4745 12.6416 72.9484 14.642C72.6574 15.7478 72.442 18.5773 71.742 19.3364C71.042 20.0955 70.3584 18.8366 70.272 18.1945L70.273 18.1967ZM107.65 35.7372C107.506 34.7287 108.424 35.2242 108.667 34.2956C108.91 33.3692 108.762 32.0064 108.143 31.2539C106.649 29.4361 99.6293 28.7427 97.1957 28.4298C79.8663 26.2052 61.989 26.2544 44.6563 28.537C42.0029 28.887 38.8409 29.3136 36.3624 30.2969C35.4448 30.6611 34.6605 30.8448 34.5337 31.9648C34.328 33.7662 34.9723 35.1488 36.9629 34.9398C41.2285 34.4936 45.9655 33.1034 50.2487 32.3794C53.9193 31.7581 58.0646 31.5131 61.7976 31.36C73.8168 30.8656 85.8415 31.1894 97.7448 32.7994C99.2694 33.0061 103.139 33.5486 104.257 34.4837C104.428 34.627 104.599 34.8425 104.588 35.0798C103.187 35.0383 101.777 35.0284 100.376 34.9759C95.6546 34.7987 90.9055 34.5253 86.1773 34.4203C71.6916 34.0977 57.392 34.7452 43.0048 36.3934C39.741 36.7675 34.4571 37.1733 31.6199 38.7789C28.833 40.3561 29.8721 43.3497 32.9368 43.0456C35.0182 42.8389 37.5065 41.5964 39.7312 41.8523C40.4924 41.9398 39.8985 42.4222 39.4851 42.5994C37.7034 43.3617 33.2245 43.1834 33.2157 45.9561C33.2059 48.8491 36.591 48.2759 38.4701 47.8144C41.9121 46.9689 44.8226 45.6302 48.5041 44.952C59.563 42.9133 70.8013 42.0602 82.0166 41.7441C89.7352 41.5264 96.9802 41.7036 104.63 42.8553C106.285 43.1047 108.935 44.1492 110.421 44.0355C112.518 43.8747 111.752 42.093 112.473 41.0539C113.181 40.0334 114.85 40.2817 114.322 38.4092C113.926 37.0081 111.569 35.7372 110.218 35.7372H107.65ZM105.463 80.3283C105.367 80.2353 105.672 78.2173 105.688 77.8728C105.79 75.4195 105.429 72.9892 105.351 70.5502C105.194 65.7147 105.528 60.8311 105.25 56.0055C105.159 54.425 105.021 52.3873 104.424 50.9294C104.14 50.2348 102.487 47.4327 101.96 47.0553C100.626 46.1005 98.9479 46.8267 98.3398 48.2289C97.3652 50.4766 98.5345 52.1402 98.8801 54.2883C99.2738 56.7394 99.2137 59.6214 99.346 62.1283C99.6063 67.0622 99.929 72.0519 99.778 76.988C99.7507 77.8794 99.8076 78.7795 99.7824 79.6709L84.4819 78.6866L85.7026 77.2297C86.991 75.1308 86.0471 72.6688 85.7955 70.4331C85.1218 64.4602 85.7955 58.1656 85.3559 52.185C85.2093 50.1944 83.7305 48.3295 82.0713 47.273C80.5948 46.3323 78.7365 46.7961 78.3909 48.6052C77.9588 50.8627 78.2979 53.5041 78.3679 55.7856C78.5735 62.5002 79.0723 69.1983 79.1226 75.903C79.1291 76.72 79.3916 77.6508 79.4562 78.4678L64.3854 78.1277C62.5894 74.1377 62.5446 69.7222 62.6201 65.4041C62.6737 62.3131 62.7524 58.7497 63.063 55.6828C63.284 53.4975 65.1248 47.9478 61.3732 47.9741C60.578 47.9795 57.2957 48.6511 56.646 49.0481C55.9963 49.4452 55.8027 50.3617 55.7415 51.0945C55.4024 55.1436 55.4921 59.6838 55.4166 63.7755C55.3412 67.8508 54.686 74.2011 58.0865 77.1619L59.5641 78.2513L42.3452 79.1328C42.0324 77.0645 42.2468 74.9262 42.4076 72.8427C42.8112 67.6178 43.6971 62.4258 44.1543 57.2119C44.2593 56.0208 44.4726 54.8658 43.8852 53.7666C43.5374 53.1147 41.5807 51.287 40.9113 50.948C39.8023 50.3858 38.4974 51.0092 37.7023 51.8525C36.8371 52.7691 37.0799 53.5095 36.941 54.5891C36.1677 60.5981 34.8695 67.0512 34.5391 73.0614C34.4068 75.4611 34.6868 77.8487 34.9755 80.2189C29.2498 81.0512 23.4595 81.597 17.7927 82.763C15.4587 83.4498 11.5059 84.7514 13.2077 87.9408C13.7043 88.8716 14.3682 89.1144 15.3701 89.2752C20.6113 90.1195 23.3785 88.1256 28.0324 86.6633C37.0745 83.8239 48.1848 83.3055 57.6566 82.9544C69.8552 82.5027 82.4213 82.6295 94.5915 83.6063C101.541 84.1641 110.348 85.3573 116.917 87.6192C119.565 88.5314 122.97 91.1236 125.71 90.242C127.406 89.6952 127.595 87.6214 126.836 86.2247C125.758 84.2406 121.142 83.0747 119.019 82.5661C114.575 81.5019 110.001 80.873 105.466 80.3272L105.463 80.3283ZM22.9509 102.405H18.3604L22.3909 123.107L27.5993 123.177L30.874 109.179L33.9988 123.158L39.403 123.064L43.6063 102.405H39.2346L36.6665 118.144L33.2704 102.398L28.7543 102.415L25.2477 118.033L22.952 102.406L22.9509 102.405ZM59.4537 102.405H46.4479V123.169H59.7807V119.672H50.8185V114.535H58.3052C58.3173 114.535 58.4693 114.383 58.4693 114.371V111.038H50.8185V105.901H59.4526V102.403L59.4537 102.405ZM71.7485 102.405H63.1691V123.169H72.186C72.7515 123.169 74.4107 122.701 74.9718 122.457C79.3632 120.55 79.2724 113.425 74.3177 112.457C76.3762 111.04 77.2085 109.255 76.9296 106.733C76.6409 104.122 74.181 102.639 71.7496 102.405H71.7485ZM89.1796 123.169C93.7504 123.085 98.9501 123.918 102.501 120.372C106.202 116.678 106.295 108.067 102.236 104.594C98.6362 101.514 93.5371 102.603 89.1785 102.406V123.17L89.1796 123.169ZM121.529 102.405H108.524V123.169H121.856V119.672H112.894V114.535H120.545V111.038H113.058C113.046 111.038 112.894 110.885 112.894 110.873V105.901H121.528V102.403L121.529 102.405ZM82.4837 119.15C80.691 119.513 80.3388 122.37 81.9784 123.212C83.9351 124.218 86.0263 122.585 85.3241 120.412C84.937 119.214 83.6026 118.922 82.4837 119.149V119.15Z" fill="#FED700"/>
<path d="M15.8473 0C7.47797 0.879375 0.518438 8.13422 0.110469 16.5583L0.105 123.228C0.600469 132.209 7.80828 139.386 16.7716 139.895L123.442 139.89C132.255 139.381 139.287 132.327 140 123.607V140H0V0H15.8473Z" fill="#FEFEFD"/>
<path d="M124.152 -0.000371094H140V16.2834L139.621 13.8749C138.321 7.72588 133.553 2.5065 127.516 0.734629C126.408 0.409785 125.273 0.257754 124.153 -0.00146484L124.152 -0.000371094Z" fill="#FEFEFD"/>
<path d="M105.464 80.3283C110 80.874 114.574 81.5029 119.018 82.5672C121.14 83.0758 125.756 84.2417 126.835 86.2258C127.594 87.6214 127.404 89.6962 125.708 90.2431C122.968 91.1258 119.563 88.5325 116.915 87.6203C110.345 85.3584 101.539 84.1651 94.5897 83.6073C82.4195 82.6306 69.8534 82.5037 57.6548 82.9554C48.183 83.3065 37.0726 83.825 28.0306 86.6644C23.3767 88.1256 20.6106 90.1206 15.3683 89.2762C14.3653 89.1144 13.7025 88.8715 13.2059 87.9418C11.5041 84.7525 15.4569 83.4498 17.7909 82.764C23.4576 81.5981 29.248 81.0512 34.9737 80.22C34.685 77.8487 34.405 75.4622 34.5373 73.0625C34.8676 67.0523 36.167 60.6003 36.9392 54.5901C37.0781 53.5106 36.8353 52.7712 37.7005 51.8536C38.4956 51.0114 39.8005 50.3879 40.9095 50.949C41.5789 51.2881 43.5356 53.1158 43.8834 53.7676C44.4697 54.8658 44.2564 56.0219 44.1525 57.2129C43.6953 62.4258 42.8094 67.6189 42.4058 72.8437C42.245 74.9262 42.0306 77.0656 42.3434 79.1339L59.5623 78.2523L58.0847 77.1629C54.6842 74.2022 55.3383 67.8518 55.4148 63.7765C55.4903 59.6848 55.4017 55.1458 55.7397 51.0956C55.8009 50.3628 55.9814 49.455 56.6442 49.0492C57.307 48.6434 60.5762 47.9806 61.3714 47.9751C65.123 47.9489 63.2822 53.4986 63.0612 55.6839C62.7517 58.7518 62.6719 62.3153 62.6183 65.4051C62.5428 69.7233 62.5877 74.1387 64.3836 78.1287L79.4544 78.4689C79.3898 77.6508 79.1262 76.7211 79.1208 75.904C79.0705 69.1994 78.5717 62.5012 78.3661 55.7867C78.2961 53.5051 77.957 50.8637 78.3891 48.6062C78.7358 46.7972 80.593 46.3345 82.0695 47.274C83.7287 48.3306 85.2075 50.1954 85.3541 52.1861C85.7937 58.1678 85.1211 64.4612 85.7937 70.4342C86.0453 72.6687 86.9903 75.1308 85.7008 77.2308L84.4802 78.6876L99.7806 79.672C99.8047 78.7806 99.7489 77.8815 99.7762 76.989C99.9272 72.0529 99.6056 67.0633 99.3442 62.1293C99.2119 59.6225 99.2731 56.7404 98.8783 54.2893C98.5327 52.1412 97.3645 50.4776 98.338 48.23C98.9461 46.8278 100.624 46.1015 101.958 47.0564C102.487 47.4337 104.138 50.2359 104.422 50.9304C105.02 52.3873 105.157 54.4261 105.248 56.0065C105.525 60.8311 105.192 65.7158 105.349 70.5512C105.428 72.9903 105.789 75.4206 105.686 77.8739C105.672 78.2184 105.366 80.2353 105.462 80.3294L105.464 80.3283Z" fill="#343433"/>
<path d="M107.65 35.7369H110.218C111.569 35.7369 113.926 37.0068 114.322 38.4089C114.851 40.2803 113.182 40.0332 112.473 41.0536C111.753 42.0927 112.518 43.8733 110.422 44.0352C108.934 44.1489 106.285 43.1044 104.63 42.855C96.9805 41.7033 89.7344 41.5261 82.0169 41.7438C70.8016 42.061 59.5633 42.9141 48.5044 44.9517C44.8239 45.6299 41.9123 46.9686 38.4703 47.8141C36.5912 48.2757 33.2061 48.8477 33.2159 45.9558C33.2247 43.1843 37.7036 43.3614 39.4853 42.5991C39.8998 42.4219 40.4927 41.9385 39.7314 41.8521C37.5067 41.5972 35.0184 42.8397 32.937 43.0453C29.8723 43.3494 28.8344 40.3547 31.6202 38.7786C34.4584 37.173 39.7423 36.7672 43.005 36.3932C57.3933 34.7449 71.6919 34.0974 86.1775 34.42C90.9058 34.525 95.6537 34.7985 100.377 34.9757C101.778 35.0282 103.187 35.038 104.589 35.0796C104.6 34.8422 104.428 34.6268 104.257 34.4835C103.139 33.5483 99.2697 33.0047 97.745 32.7991C85.8417 31.1891 73.817 30.8653 61.7978 31.3597C58.0648 31.5139 53.9195 31.7589 50.2489 32.3791C45.9658 33.1032 41.2287 34.4933 36.9631 34.9396C34.9725 35.1485 34.3283 33.766 34.5339 31.9646C34.6619 30.8446 35.445 30.6608 36.3627 30.2966C38.8422 29.3133 42.0031 28.8857 44.6566 28.5368C61.9892 26.253 79.8666 26.2049 97.1959 28.4296C99.6284 28.7424 106.649 29.4358 108.143 31.2536C108.762 32.0061 108.91 33.3689 108.667 34.2953C108.423 35.2239 107.506 34.7285 107.65 35.7369Z" fill="#343433"/>
<path d="M22.9518 102.404L25.2476 118.032L28.7541 102.415L33.2702 102.397L36.6674 118.143L39.2355 102.404H43.6073L39.404 123.064L33.9998 123.158L30.8749 109.179L27.6002 123.177L22.3918 123.105L18.3613 102.404H22.9518Z" fill="#343433"/>
<path d="M71.7494 102.405C74.1808 102.639 76.6396 104.122 76.9294 106.733C77.2083 109.256 76.3771 111.041 74.3175 112.457C79.2722 113.425 79.363 120.55 74.9716 122.458C74.4116 122.7 72.7524 123.17 72.1858 123.17H63.1689V102.405H71.7483H71.7494ZM67.5418 111.148H70.1099C70.2521 111.148 71.2769 110.824 71.4443 110.734C73.0214 109.875 73.1221 106.916 71.465 106.078C71.3196 106.004 70.4205 105.684 70.3286 105.684H67.5418V111.148ZM67.5418 119.891H71.0932C71.3568 119.891 72.2755 119.529 72.5347 119.366C74.2027 118.321 74.0889 115.369 72.2077 114.623C72.0491 114.561 71.1982 114.317 71.0932 114.317H67.5418V119.891Z" fill="#343433"/>
<path d="M89.1797 123.17V102.405C93.5383 102.602 98.6373 101.513 102.237 104.593C106.296 108.067 106.202 116.677 102.503 120.371C98.9502 123.917 93.7516 123.084 89.1808 123.168L89.1797 123.17ZM93.6608 119.673H95.9008C101.512 119.673 102.138 109.926 98.7445 107.102C98.1167 106.58 96.7091 105.902 95.9008 105.902H93.6608V119.673Z" fill="#343433"/>
<path d="M121.53 102.405V105.903H112.896V110.875C112.896 110.887 113.048 111.039 113.06 111.039H120.546V114.537H112.896V119.673H121.858V123.171H108.525V102.406H121.531L121.53 102.405Z" fill="#343433"/>
<path d="M59.4549 102.405V105.903H50.8208V111.039H58.4716V114.373C58.4716 114.385 58.3196 114.537 58.3075 114.537H50.8208V119.673H59.783V123.171H46.4502V102.406H59.456L59.4549 102.405Z" fill="#343433"/>
<path d="M70.2736 18.1963C70.36 18.8383 71.0261 20.1169 71.7436 19.3382C72.4611 18.5594 72.659 15.7485 72.95 14.6438C73.4761 12.6422 74.654 11.8252 75.3562 14.3167C75.5914 15.1513 75.6668 17.6319 76.0606 18.0935C76.7125 18.8591 77.5393 16.2232 78.2525 16.6661C78.492 16.8149 79.425 18.5769 79.5825 18.9444C80.6478 21.4196 80.627 23.0547 77.8434 24.0194C75.3628 24.8791 68.6111 25.3975 66.72 23.2833C65.3725 21.7761 67.012 18.5583 68.1418 17.2688C68.6351 16.7066 69.5079 15.895 70.2747 15.8491C70.3458 16.5863 70.1784 17.4832 70.2747 18.1985L70.2736 18.1963Z" fill="#343433"/>
<path d="M82.484 119.15C83.6029 118.923 84.9373 119.214 85.3245 120.413C86.0267 122.586 83.9354 124.219 81.9787 123.213C80.3403 122.371 80.6914 119.514 82.484 119.151V119.15Z" fill="#343433"/>
<path d="M67.5415 119.891V114.317H71.0929C71.1979 114.317 72.0499 114.56 72.2074 114.623C74.0887 115.369 74.2024 118.321 72.5345 119.366C72.2742 119.529 71.3565 119.891 71.0929 119.891H67.5415Z" fill="#FED700"/>
<path d="M67.5415 111.148V105.684H70.3284C70.4203 105.684 71.3193 106.004 71.4648 106.077C73.1207 106.916 73.0212 109.875 71.444 110.733C71.2778 110.824 70.2518 111.148 70.1096 111.148H67.5415Z" fill="#FED700"/>
<path d="M93.6606 119.673V105.903H95.9006C96.7089 105.903 98.1166 106.58 98.7444 107.103C102.138 109.928 101.512 119.673 95.9006 119.673H93.6606Z" fill="#FED700"/>
</g>
</g>
<defs>
<clipPath id="clip0_3527_4042">
<rect width="140" height="140" rx="30" fill="white"/>
</clipPath>
<clipPath id="clip1_3527_4042">
<rect width="140" height="140" fill="white"/>
</clipPath>
</defs>
</svg>
