<svg width="140" height="140" viewBox="0 0 140 140" fill="none" xmlns="http://www.w3.org/2000/svg">
<rect width="140" height="140" rx="30" fill="#57D435"/>
<path d="M88.3746 51.5711C90.2307 51.5711 92.0435 51.7254 93.832 51.9459C90.5986 37.7431 75.6845 27 57.7506 27C37.4517 27 21 40.7532 21 57.7139C21 67.4925 26.5006 76.1682 35.0324 81.7817L30.1873 91.4998L43.3861 85.8298C46.2164 86.838 49.1574 87.6682 52.2988 88.0545C51.8695 86.1801 51.6256 84.2587 51.6256 82.2865C51.6256 65.3499 68.1071 51.5711 88.3746 51.5711ZM70.0006 40.8203C72.5369 40.8203 74.5939 42.8842 74.5939 45.4281C74.5939 47.9728 72.5371 50.0351 70.0006 50.0351C67.4629 50.0351 65.4068 47.9728 65.4068 45.4281C65.4068 42.8839 67.4629 40.8203 70.0006 40.8203ZM45.5001 50.0351C42.9634 50.0351 40.9064 47.9728 40.9064 45.4281C40.9064 42.8842 42.9636 40.8203 45.5001 40.8203C48.0366 40.8203 50.094 42.8842 50.094 45.4281C50.0938 47.9728 48.0364 50.0351 45.5001 50.0351Z" fill="white"/>
<path d="M119 82.2861C119 68.7155 105.285 57.7139 88.3747 57.7139C71.4636 57.7139 57.7506 68.7155 57.7506 82.2861C57.7506 95.8556 71.4636 106.857 88.3747 106.857C91.1557 106.857 93.8011 106.464 96.3679 105.906L112.875 113L107.166 101.557C114.321 97.0592 119 90.143 119 82.2861ZM79.1875 80.7501C76.651 80.7501 74.5937 78.6872 74.5937 76.142C74.5937 73.5981 76.6508 71.5358 79.1875 71.5358C81.7249 71.5358 83.781 73.5989 83.781 76.142C83.781 78.6874 81.7245 80.7501 79.1875 80.7501ZM97.5622 80.7501C95.0244 80.7501 92.9688 78.6872 92.9688 76.142C92.9688 73.5981 95.0242 71.5358 97.5622 71.5358C100.1 71.5358 102.156 73.5989 102.156 76.142C102.156 78.6874 100.1 80.7501 97.5622 80.7501Z" fill="white"/>
</svg>
