<svg width="140" height="140" viewBox="0 0 140 140" fill="none" xmlns="http://www.w3.org/2000/svg">
<rect width="140" height="140" rx="30" fill="white"/>
<path d="M26.5015 85.5801C26.5015 97.4587 41.969 107.085 61.0394 107.085C80.1099 107.085 95.5774 97.4587 95.5774 85.5801C95.5774 73.7015 80.1099 64.0748 61.0394 64.0748C41.969 64.0748 26.5015 73.7015 26.5015 85.5801Z" fill="white"/>
<path d="M61.8558 105.34C44.9668 107.015 30.386 99.3727 29.2882 88.2964C28.1904 77.2059 40.9979 66.8755 57.8728 65.2007C74.7618 63.5259 89.3426 71.1681 90.4263 82.2445C91.5381 93.3349 78.7307 103.679 61.8558 105.34ZM95.6197 68.5363C94.1841 68.1 93.1989 67.8185 93.9448 65.9326C95.5774 61.837 95.7463 58.3044 93.973 55.771C90.6656 51.0421 81.6018 51.2954 71.2151 55.6444C71.2151 55.6444 67.9499 57.0658 68.7943 54.4903C70.3847 49.3532 70.1454 45.0606 67.6684 42.5695C62.0387 36.9257 47.0498 42.7806 34.2001 55.6303C24.5874 65.2429 19 75.4467 19 84.2712C19 101.132 40.632 111.392 61.7854 111.392C89.5255 111.392 107.977 95.2772 107.977 82.4838C107.991 74.743 101.474 70.3518 95.6197 68.5363Z" fill="#E6162D"/>
<path d="M88.3433 29.3538C97.4634 27.4116 107.343 30.2405 114.043 37.6716C120.742 45.0887 122.558 55.208 119.686 64.0607V64.0747C119.025 66.1155 116.829 67.2414 114.775 66.5799C112.72 65.9184 111.594 63.7229 112.255 61.6681C114.296 55.3628 113.001 48.1709 108.244 42.8931C103.487 37.6153 96.4641 35.6027 89.9759 36.982C87.8648 37.4324 85.7959 36.0953 85.3456 33.9842C84.8952 31.8872 86.2322 29.8042 88.3433 29.3538Z" fill="#FF9933"/>
<path d="M91.2426 42.9213C95.676 41.9642 100.489 43.3435 103.755 46.9606C107.02 50.5776 107.892 55.5036 106.499 59.8243C105.922 61.5977 104.036 62.5547 102.263 61.9918C100.489 61.4147 99.5323 59.5147 100.095 57.7554C100.785 55.6443 100.349 53.2376 98.7582 51.4643C97.1678 49.705 94.8034 49.0295 92.636 49.4939C90.8345 49.888 89.047 48.7339 88.653 46.9183C88.273 45.1028 89.427 43.3013 91.2426 42.9213Z" fill="#FF9933"/>
<path d="M62.7849 85.2704C62.1938 86.2838 60.8849 86.7623 59.8715 86.3401C58.8582 85.9319 58.5486 84.7919 59.1256 83.8067C59.7167 82.8215 60.9693 82.343 61.9686 82.7371C62.9819 83.103 63.3479 84.243 62.7849 85.2704ZM57.3945 92.1668C55.7619 94.7705 52.2574 95.9105 49.6256 94.7142C47.0359 93.532 46.2618 90.506 47.8944 87.9586C49.513 85.4253 52.8908 84.2993 55.5086 85.3971C58.1545 86.5371 58.9989 89.5349 57.3945 92.1668ZM63.5308 73.7296C55.4945 71.6326 46.4167 75.6437 42.9263 82.723C39.3655 89.9431 42.8137 97.9653 50.9204 100.583C59.3367 103.299 69.2449 99.1335 72.6931 91.3505C76.099 83.7223 71.8486 75.883 63.5308 73.7296Z" fill="black"/>
</svg>
