<svg width="140" height="140" viewBox="0 0 140 140" fill="none" xmlns="http://www.w3.org/2000/svg">
<rect width="140" height="140" rx="30" fill="white"/>
<g clip-path="url(#clip0_839_1373)">
<path d="M124.989 69.5137C124.989 75.6194 124.993 81.7268 124.984 87.8325C124.984 88.6518 124.956 89.4748 124.859 90.2868C124.556 92.7849 123.362 94.8304 121.464 96.4545C119.49 98.1424 117.155 98.9763 114.559 98.9891C109.759 99.0146 104.958 98.9891 100.159 98.9891C92.6364 98.9891 85.1161 98.9891 77.5939 98.9854C76.8925 98.9854 76.1948 98.9672 75.4953 98.8413C73.5051 98.4872 71.8453 97.5001 70.3195 96.2483C69.2161 95.3432 68.4119 94.2082 67.7913 92.9363C67.1359 91.5915 66.9358 90.1609 66.9376 88.6846C66.9413 85.0096 66.9394 81.3327 66.9413 77.6576C66.9449 69.1524 66.9468 60.6454 66.9504 52.1402C66.9504 51.746 66.9578 51.35 66.9394 50.9559C66.8201 48.4031 67.8042 46.2736 69.5135 44.447C70.8722 42.9926 72.5356 41.9927 74.4561 41.4325C75.3099 41.1843 76.1893 41.062 77.078 41.0456C78.4219 41.0219 79.7677 41.0091 81.1135 41.0091C92.0893 41.0073 103.067 41.011 114.043 41.0018C114.996 41.0018 115.934 41.0894 116.87 41.239C117.661 41.365 118.407 41.646 119.117 42.0036C121.521 43.208 123.342 44.9816 124.416 47.4578C124.767 48.268 125 49.1056 124.998 50.0125C124.984 56.5141 124.991 63.0139 124.991 69.5155H124.989V69.5137ZM94.399 74.5683C94.1273 74.5847 93.8556 74.6139 93.5838 74.6121C91.4137 74.603 89.2416 74.592 87.0715 74.5701C86.0763 74.561 86.0488 74.5756 86.0451 75.5737C86.0451 75.665 86.0469 75.7562 86.0469 75.8475C86.0469 78.3382 86.0598 80.8309 86.0488 83.3217C86.0396 85.4183 86.0011 87.5131 85.9864 89.6098C85.9809 90.3671 86.0818 90.4601 86.8107 90.4838C86.9337 90.4875 87.0549 90.4838 87.1779 90.4838C94.4247 90.4802 101.672 90.4784 108.92 90.4747C109.164 90.4747 109.41 90.4802 109.655 90.4674C110.833 90.4109 112.063 89.6244 112.614 88.5916C113.082 87.712 113.277 86.7686 113.283 85.7814C113.299 82.3783 113.319 78.9751 113.323 75.5737C113.323 74.6486 113.238 74.5829 112.33 74.5847C109.394 74.5884 106.458 74.592 103.522 74.5975C103.003 74.5975 102.483 74.6267 101.963 74.6121C101.433 74.5957 101.302 74.4789 101.297 73.9588C101.282 72.3786 101.29 70.8002 101.301 69.2199C101.301 69.0831 101.391 68.948 101.438 68.8094C101.6 68.7948 101.719 68.7729 101.839 68.7729C103.825 68.7838 105.814 68.8039 107.8 68.8094C109.97 68.8148 112.142 68.8112 114.313 68.8057C114.61 68.8057 114.928 68.875 115.24 68.6123C115.26 68.4481 115.302 68.2419 115.304 68.0375C115.31 67.4298 115.3 66.8222 115.297 66.2145C115.292 65.3606 114.873 64.9336 114.041 64.9336C110.646 64.9336 107.253 64.9336 103.858 64.9336C103.186 64.9336 102.512 64.9445 101.84 64.9336C101.67 64.9317 101.501 64.866 101.279 64.8186C101.271 64.4427 101.255 64.1142 101.258 63.7858C101.264 63.1179 101.291 62.4501 101.288 61.7804C101.288 61.5797 101.214 61.3789 101.179 61.2001C100.407 61.0523 98.106 61.0103 95.2693 61.0906C95.0931 61.0961 94.9186 61.1399 94.7515 61.1654C94.5441 61.5395 94.6028 61.9118 94.6028 62.2694C94.59 66.0375 94.5845 69.8038 94.5716 73.572C94.5716 73.8676 94.6432 74.1796 94.3972 74.5683H94.399ZM84.7048 59.5815C84.8462 59.5688 85.0243 59.5396 85.2024 59.5396C85.9368 59.5396 86.6694 59.5578 87.4038 59.5578C92.2344 59.5523 97.0631 59.5377 101.894 59.5359C105.837 59.5359 109.781 59.5487 113.723 59.556C114.182 59.556 114.641 59.5706 115.098 59.556C115.552 59.5396 115.695 59.4064 115.701 58.9392C115.715 57.786 115.704 56.6309 115.704 55.4758C115.704 55.4156 115.699 55.3536 115.69 55.2952C115.651 55.0452 115.519 54.901 115.284 54.8773C115.133 54.8627 114.979 54.8718 114.827 54.8718C112.381 54.8718 109.935 54.8718 107.49 54.8682C103.118 54.8627 98.7467 54.8536 94.3752 54.8499C89.3004 54.8445 84.2256 54.8445 79.1508 54.8426C78.9984 54.8426 78.8442 54.8335 78.6918 54.8426C78.3797 54.8645 78.2622 54.9758 78.2347 55.297C78.2145 55.5379 78.2181 55.7824 78.2181 56.0251C78.2181 60.5505 78.2273 65.0777 78.2181 69.6031C78.2126 73.218 78.1686 76.831 77.8601 80.4367C77.7279 81.9878 77.4507 83.5078 76.8962 84.9676C76.529 85.9329 76.1379 86.8909 75.7413 87.8434C75.5632 88.2722 75.4806 88.7084 75.4861 89.1718C75.499 90.0824 75.4843 90.993 75.4861 91.9035C75.4861 92.0203 75.5082 92.1353 75.521 92.2557C75.6385 92.2885 75.7248 92.336 75.8056 92.3305C75.9874 92.3159 76.182 92.3086 76.3435 92.2374C76.9843 91.9546 77.6728 91.7302 78.2402 91.3342C79.5731 90.4036 80.7151 89.2704 81.5267 87.8361C82.8651 85.4676 83.5243 82.891 83.9374 80.2342C84.3101 77.8255 84.3743 75.3949 84.4551 72.9698C84.5469 70.1779 84.5102 67.3824 84.5194 64.5887C84.5231 63.2219 84.501 61.8552 84.501 60.4884C84.501 60.1928 84.4312 59.8753 84.7067 59.5834L84.7048 59.5815ZM98.0068 53.3573C100.26 53.4814 102.211 51.1329 102.175 49.2406C102.132 47.029 100.153 45.0948 97.994 45.1221C95.497 45.1532 93.7748 47.3301 93.7913 49.2151C93.8133 51.7168 96.0496 53.4595 98.005 53.3573H98.0068Z" fill="#B30F00"/>
<path d="M27.1673 62.419C26.9966 62.5668 26.8846 62.6252 26.8313 62.7164C26.6936 62.9518 26.5596 63.1945 26.4659 63.45C26.0069 64.7054 25.5351 65.9572 25.1238 67.2291C24.9769 67.6816 24.9292 68.1834 24.9292 68.6633C24.9237 74.8912 24.9384 81.121 24.9402 87.3489C24.9402 89.2028 24.9163 91.055 24.8998 92.9089C24.8998 93.0877 24.8759 93.2647 24.8594 93.4947C24.6391 93.5476 24.4408 93.6333 24.2407 93.6352C22.5277 93.6479 20.8165 93.6461 19.1035 93.6425C18.9878 93.6425 18.8721 93.5914 18.7748 93.5695C18.5527 93.3031 18.6371 93.0202 18.6371 92.7556C18.6371 86.8617 18.6408 80.9659 18.6426 75.0719C18.6426 74.7416 18.6794 74.4077 18.5784 74.0591C17.9064 73.9551 17.4052 74.3821 16.8323 74.5318C16.2797 74.6777 15.7839 75.0226 15.1285 75.0317C15.1156 74.7763 15.0973 74.5409 15.0899 74.3055C15.0624 73.426 15.055 72.5464 15.0055 71.6669C14.9816 71.2344 15.1266 70.9114 15.4149 70.603C16.1842 69.7783 16.9517 68.9516 17.6916 68.1031C19.1475 66.4353 20.2969 64.5813 20.9799 62.4664C21.0901 62.1234 21.1396 61.7584 21.2131 61.4026C21.2553 61.1982 21.2883 60.9939 21.3196 60.8296C21.6041 60.6143 21.8869 60.6435 22.1586 60.6435C23.4126 60.6399 24.6648 60.649 25.9188 60.6453C26.253 60.6453 26.589 60.6253 26.9231 60.5979C27.0057 60.5906 27.0828 60.5231 27.1508 60.4902C27.3124 57.2349 27.4739 53.9959 27.6355 50.7077C27.8062 50.6748 27.9476 50.6256 28.089 50.6219C29.0364 50.6019 29.9838 50.5873 30.9312 50.5836C31.4856 50.58 31.5719 50.673 31.5719 51.2168C31.5719 53.5561 31.5664 55.8955 31.5683 58.2348C31.5683 58.5688 31.5756 58.9027 31.6013 59.2366C31.6178 59.4392 31.7537 59.5815 31.9593 59.5851C32.4128 59.5943 32.8663 59.576 33.2482 59.5705C33.5475 59.326 33.4851 59.0687 33.4851 58.8333C33.4887 57.4958 33.4851 56.1601 33.4832 54.8225C33.4759 52.7861 33.4649 50.7515 33.4612 48.7151C33.4612 48.5964 33.4979 48.4797 33.5236 48.3337C33.7054 48.2899 33.8761 48.2224 34.0524 48.2078C34.774 48.1512 38.009 48.2552 38.4423 48.3392C38.6627 48.5983 38.5837 48.9158 38.5837 49.2096C38.5782 51.9741 38.5635 54.7386 38.5543 57.5031C38.5543 58.0195 38.5543 58.5359 38.5727 59.0523C38.5782 59.2257 38.6388 59.3972 38.6737 59.5778C39.2924 59.6782 39.7551 59.337 40.2196 59.2348C40.4767 58.8662 40.4087 58.5213 40.4087 58.1947C40.4161 55.9758 40.4124 53.7587 40.4179 51.5398C40.4179 51.2442 40.339 50.9321 40.5336 50.6657C41.2441 50.5289 44.022 50.5179 44.773 50.6584C44.7968 50.8099 44.8464 50.9832 44.8464 51.1548C44.8427 53.7368 44.8427 56.3207 44.8189 58.9027C44.8097 59.8516 44.6334 60.7785 44.1854 61.6325C43.4804 62.9774 42.3733 63.7456 40.8347 63.8204C39.3989 63.8916 37.9631 63.9299 36.5274 63.97C33.7458 64.0467 30.9642 64.1142 28.1826 64.1835C27.9127 64.1908 27.6428 64.1708 27.4042 64.1653C27.0112 63.6252 27.4537 63.0485 27.1728 62.4153L27.1673 62.419Z" fill="black"/>
<path d="M45.2285 93.2502C45.2285 92.8761 45.2377 92.6061 45.2285 92.336C45.1863 91.274 45.1661 90.2101 45.0798 89.1518C45.0394 88.6628 45.1404 88.2668 45.4305 87.8799C46.0676 87.0278 46.69 86.1647 47.3032 85.2942C48.0046 84.2997 48.6784 83.287 49.3816 82.2962C49.8057 81.6976 49.8388 81.1174 49.6019 80.413C48.9428 78.455 48.3516 76.4752 47.7622 74.4953C47.3804 73.2143 47.0021 71.9297 46.7084 70.6286C46.3742 69.1488 46.0676 67.6616 45.9299 66.1434C45.8161 64.9044 45.6361 63.6708 45.4911 62.4336C45.4599 62.1672 45.4544 61.8972 45.4397 61.6417C46.1355 61.4538 49.2825 61.3935 50.5438 61.5377C50.5824 61.6891 50.6668 61.8588 50.6613 62.0249C50.5603 64.5376 50.9771 66.9901 51.5279 69.4243C51.7685 70.49 52.0622 71.5428 52.3321 72.6012C52.4147 72.9242 52.4974 73.249 52.8535 73.4588C52.9362 73.364 53.0445 73.2891 53.0775 73.1906C53.1436 72.9899 53.1748 72.7782 53.2097 72.5684C53.5163 70.6797 53.8211 68.7911 54.1241 66.9007C54.1626 66.6616 54.2104 66.4207 54.2214 66.1781C54.3334 63.7201 54.4399 61.2622 54.5464 58.806C54.5482 58.7476 54.528 58.6874 54.5188 58.629C54.3426 58.3845 54.08 58.452 53.845 58.4538C51.7666 58.4721 49.6864 58.4995 47.608 58.5177C47.2794 58.5214 46.9397 58.5725 46.6257 58.4392C46.6514 57.6491 48.3828 49.1549 48.6766 48.3958C49.2402 48.2023 49.8535 48.3082 50.4557 48.2881C51.0671 48.268 51.6803 48.2589 52.2899 48.2826C52.8921 48.3064 53.5053 48.1622 54.1277 48.3757C54.1167 49.2169 53.8725 50.0052 53.766 50.8099C53.6632 51.5873 53.4943 52.3573 53.3474 53.1748C53.5439 53.2478 53.7018 53.3409 53.8689 53.3609C54.1094 53.3901 54.3573 53.3682 54.6014 53.3646C56.588 53.3445 58.5764 53.3208 60.563 53.3044C60.8623 53.3025 61.1762 53.2314 61.5049 53.4431C61.7179 53.9321 61.5379 54.4813 61.5655 55.0142C61.593 55.5598 61.5728 56.1072 61.5655 56.6546C61.5581 57.1948 61.5967 57.7367 61.5343 58.2349C61.2093 58.494 60.8935 58.4028 60.5979 58.4119C60.4767 58.4155 60.3537 58.3973 60.2307 58.3973C59.7588 58.3991 59.6615 58.4958 59.634 58.9922C59.6248 59.1746 59.6266 59.3571 59.6285 59.5396C59.6597 61.8807 59.5661 64.2164 59.3916 66.5503C59.1309 70.0502 58.5287 73.4789 57.3481 76.7963C56.8285 78.2561 56.3512 79.7324 55.8279 81.1904C55.681 81.6009 55.7031 81.9184 55.9583 82.2925C56.6982 83.3764 57.5666 84.3545 58.3928 85.3691C58.9308 86.0296 59.5202 86.6482 60.0801 87.2887C60.2399 87.4712 60.3813 87.6719 60.5281 87.8653C60.7209 88.119 60.8127 88.4091 60.7833 88.7211C60.6695 89.9656 60.8182 91.2083 60.7944 92.4509C60.7907 92.6261 60.765 92.8013 60.7485 93.0039C60.3647 93.0367 60.1444 92.8159 59.9278 92.6152C57.9559 90.7977 55.9876 88.9784 54.0231 87.1537C53.6926 86.8471 53.3786 86.5205 53.0206 86.1665C52.7893 86.3344 52.5763 86.4511 52.4092 86.6117C50.3033 88.6409 48.2029 90.6755 46.1006 92.7101C45.8877 92.9163 45.7096 93.1699 45.2304 93.2447L45.2285 93.2502Z" fill="black"/>
<path d="M37.4929 92.5695C37.4745 90.8178 37.4598 89.0897 37.4359 87.3617C37.4121 85.661 37.3827 83.9621 37.3533 82.2615C37.3221 80.5425 37.357 78.82 37.2982 77.0609C36.2903 76.9277 35.3924 76.9678 34.4451 77.0116C34.3973 77.2634 34.3312 77.4623 34.3275 77.6612C34.3147 78.4806 34.3331 79.3017 34.3147 80.121C34.2945 81.0316 34.2761 81.9421 34.2064 82.8509C34.0264 85.1829 33.1525 87.2686 31.825 89.17C30.986 90.3725 29.9872 91.4327 28.7938 92.3086C28.0722 92.8396 27.268 93.1954 26.4528 93.5367C26.3776 93.5677 26.2766 93.5403 26.1223 93.5403C26.093 93.4107 26.0342 93.2739 26.0361 93.137C26.0397 92.3469 26.1444 91.5477 26.0471 90.7721C25.9185 89.7576 26.2343 88.931 26.7962 88.1354C27.112 87.6901 27.3855 87.2139 27.7068 86.7704C27.962 86.4164 28.1199 86.0387 28.2117 85.6154C28.5973 83.8545 28.713 82.0699 28.7277 80.2761C28.746 77.9678 28.7277 75.6613 28.7258 73.353C28.7258 73.0245 28.7424 72.6961 28.7497 72.4151C29.0435 72.1505 29.3317 72.2435 29.5943 72.2435C33.1084 72.2435 36.6226 72.2545 40.1367 72.26C40.9005 72.26 41.6643 72.2472 42.4281 72.2454C42.6374 72.2454 42.8467 72.2654 43.1001 72.2782C43.1497 72.4698 43.2139 72.6359 43.2341 72.8074C43.2616 73.0482 43.2616 73.2928 43.2616 73.5355C43.247 76.3584 43.2304 79.1831 43.2157 82.006C43.2157 82.3016 43.2286 82.599 43.2359 82.9713C43.4508 82.9257 43.6105 82.9312 43.7188 82.8618C44.2311 82.5297 44.725 82.1739 45.2317 81.8345C45.4006 81.7213 45.5897 81.6356 45.7348 81.5571C45.9735 81.652 45.9753 81.8107 45.9716 81.9586C45.9459 83.2943 45.9019 84.63 45.889 85.9639C45.8835 86.4584 45.7201 86.7978 45.2996 87.1044C42.9367 88.8269 40.5976 90.5842 38.2493 92.3268C38.062 92.4655 37.8931 92.6717 37.4965 92.5659L37.4929 92.5695Z" fill="black"/>
<path d="M27.7383 47.9779C27.3436 50.9376 26.4403 53.5507 24.54 55.7933C23.1501 57.4319 21.5583 58.8188 19.8012 60.0395C18.5986 60.8753 17.3152 61.5723 16.0263 62.2639C15.7619 62.4062 15.4847 62.5248 15.1469 62.6854C15.0918 62.4975 15.0128 62.3643 15.0202 62.2347C15.0642 61.2347 15.145 60.2384 15.011 59.2385C14.9541 58.8224 15.1744 58.4775 15.4333 58.1673C16.0759 57.3973 16.7203 56.6291 17.3648 55.8608C17.8715 55.255 18.3783 54.6492 18.8832 54.0415C19.5276 53.2642 20.0289 52.392 20.4511 51.4851C20.9101 50.496 21.3673 49.5034 21.5968 48.4231C21.6978 47.9432 21.841 47.8465 22.3716 47.8392C23.1042 47.8301 23.8368 47.8483 24.5693 47.8538C25.4231 47.8611 26.2787 47.8629 27.1324 47.8793C27.305 47.883 27.4776 47.9341 27.742 47.9797L27.7383 47.9779Z" fill="black"/>
<path d="M26.9287 70.3658C26.7469 69.4808 26.813 66.6707 27.0132 65.8952C27.452 65.6744 27.944 65.6981 28.4269 65.6963C30.5053 65.6908 32.5837 65.6908 34.662 65.6871C37.6878 65.6835 40.7136 65.6871 43.7394 65.6689C44.6978 65.6634 44.8447 65.7693 44.7951 66.7564C44.751 67.6031 44.8134 68.4553 44.8263 69.3056C44.8318 69.6341 44.8832 69.9699 44.7253 70.302C44.4003 70.4552 44.0607 70.3968 43.7339 70.3968C41.2589 70.3968 38.7821 70.3841 36.3071 70.3841C33.5256 70.3841 30.7458 70.3932 27.9642 70.395C27.6337 70.395 27.3014 70.3768 26.9305 70.3658H26.9287Z" fill="black"/>
<path d="M92.4602 86.9475C92.4107 86.6866 92.3574 86.5406 92.3574 86.3946C92.3574 84.0589 92.3611 81.7214 92.3684 79.3857C92.3684 79.2707 92.4143 79.1558 92.4327 79.0664C92.7265 78.8072 93.0459 78.8967 93.3397 78.8967C95.5393 78.8967 97.737 78.9113 99.9365 78.9094C102.013 78.9058 104.09 78.8857 106.166 78.8766C106.284 78.8766 106.399 78.9131 106.487 78.9295C106.737 79.1813 106.678 79.4715 106.684 79.7342C106.699 80.5846 106.689 81.4331 106.691 82.2834C106.691 83.0717 106.7 83.8618 106.699 84.6501C106.699 85.0406 106.77 85.4512 106.487 85.787C106.133 86.2066 105.76 86.6008 105.222 86.8052C104.782 86.973 104.332 86.9931 103.871 86.9931C101.306 86.9876 98.7395 86.9858 96.1745 86.9876C95.2271 86.9876 94.2816 87.0041 93.3342 87.0041C93.0643 87.0041 92.7962 86.973 92.4602 86.9511V86.9475Z" fill="#B40E00"/>
</g>
<defs>
<clipPath id="clip0_839_1373">
<rect width="110" height="58" fill="white" transform="translate(15 41)"/>
</clipPath>
</defs>
</svg>
