<svg width="140" height="140" viewBox="0 0 140 140" fill="none" xmlns="http://www.w3.org/2000/svg">
<rect width="140" height="140" rx="30" fill="url(#paint0_linear_560_10474)"/>
<path d="M24 116L30.6061 91.4785C25.2784 81.9261 23.5858 70.7793 25.8388 60.0835C28.0917 49.3877 34.1392 39.8604 42.8714 33.2498C51.6037 26.6392 62.435 23.3888 73.3777 24.095C84.3205 24.8012 94.6407 29.4166 102.445 37.0944C110.249 44.7722 115.013 54.9973 115.863 65.8933C116.713 76.7894 113.592 87.6256 107.073 96.4134C100.553 105.201 91.0732 111.351 80.3715 113.735C69.6698 116.118 58.4646 114.576 48.812 109.39L24 116ZM50.0084 100.214L51.5428 101.121C58.5344 105.251 66.7005 106.961 74.7685 105.982C82.8364 105.004 90.3531 101.393 96.1471 95.7129C101.941 90.0324 105.687 82.6013 106.801 74.5775C107.915 66.5537 106.335 58.388 102.306 51.3529C98.2775 44.3177 92.027 38.8084 84.5287 35.6834C77.0304 32.5584 68.7055 31.9932 60.8513 34.0761C52.9972 36.1589 46.0549 40.7726 41.1063 47.1983C36.1578 53.624 33.481 61.5007 33.493 69.6009C33.4865 76.3174 35.3502 82.9038 38.8768 88.6272L39.8391 90.2084L36.1459 103.895L50.0084 100.214Z" fill="white"/>
<path fill-rule="evenodd" clip-rule="evenodd" d="M86.9196 75.4898C86.0425 74.7803 85.0155 74.2809 83.9168 74.0297C82.8181 73.7785 81.6768 73.7821 80.5797 74.0402C78.9313 74.7268 77.8662 77.3209 76.8011 78.6179C76.5765 78.9288 76.2464 79.1469 75.8729 79.2311C75.4994 79.3154 75.1081 79.2601 74.7723 79.0757C68.7375 76.7053 63.6791 72.3585 60.4187 66.7412C60.1406 66.3907 60.0089 65.9456 60.0515 65.4997C60.0941 65.0538 60.3075 64.6419 60.6469 64.3506C61.8348 63.1713 62.7071 61.7105 63.1829 60.1035C63.2885 58.3309 62.8836 56.5653 62.0163 55.0171C61.3459 52.8467 60.0699 50.914 58.3392 49.4476C57.4465 49.045 56.4567 48.91 55.4893 49.0589C54.5218 49.2078 53.618 49.6343 52.8868 50.2868C51.6175 51.3851 50.6099 52.7549 49.9384 54.2954C49.2669 55.8358 48.9486 57.5077 49.0068 59.188C49.0107 60.1315 49.1299 61.071 49.3618 61.9855C49.9507 64.1825 50.8563 66.2816 52.0499 68.2163C52.9111 69.6982 53.8508 71.1329 54.8649 72.5142C58.1605 77.0512 62.3032 80.9034 67.0629 83.8568C69.4514 85.3577 72.0042 86.578 74.6709 87.4936C77.4409 88.7528 80.4994 89.2362 83.5214 88.8923C85.2432 88.631 86.8746 87.9492 88.272 86.9071C89.6694 85.8649 90.79 84.4943 91.5351 82.9159C91.9729 81.9623 92.1058 80.8963 91.9155 79.864C91.459 77.7532 88.6441 76.507 86.9196 75.4898Z" fill="white"/>
<defs>
<linearGradient id="paint0_linear_560_10474" x1="140" y1="-8.10623e-06" x2="3.99999" y2="140" gradientUnits="userSpaceOnUse">
<stop stop-color="#1AE67A"/>
<stop offset="1" stop-color="#04BD0B"/>
</linearGradient>
</defs>
</svg>
