<svg width="140" height="140" viewBox="0 0 140 140" fill="none" xmlns="http://www.w3.org/2000/svg">
<g clip-path="url(#clip0_3517_29)">
<rect width="140" height="140" rx="30" fill="white"/>
<g clip-path="url(#clip1_3517_29)">
<path d="M-0.0541992 44.4705C0.564844 44.2923 0.431187 43.7365 0.543741 43.284C6.46217 19.772 21.5537 3.79415 46.1912 0.265137L139.946 0.274516V24.98H48.3977C44.531 24.98 36.3873 29.4798 33.5336 32.2139C15.5133 49.4744 26.1684 80.5321 51.4061 82.0891L139.946 82.0774V106.508H122.24L100.142 139.998H58.1429C58.028 136.518 58.8558 132.937 60.5136 129.88C64.2443 123 70.0056 116.04 74.0575 109.325C74.2404 109.022 75.5629 106.623 75.4339 106.508C66.5493 106.112 57.2191 107.029 48.386 106.518C30.9214 105.507 14.3128 94.2214 6.16438 79.015C3.17937 73.4459 1.54969 67.8441 -0.0518544 61.7615V44.4681L-0.0541992 44.4705Z" fill="#01A5E8"/>
<path d="M-0.0541992 44.4703V0H140.22V140H100.142L122.24 106.511H139.946V82.0796L51.4061 82.0913C26.1684 80.5343 15.5133 49.4766 33.5336 32.2161C36.3873 29.482 44.531 24.9822 48.3977 24.9822H139.946V0.274349L46.1912 0.264969C21.5537 3.79399 6.46217 19.7719 0.543741 43.2838C0.431187 43.734 0.5625 44.2921 -0.0541992 44.4703ZM58.4173 40.3527H51.0052L56.7829 65.5952H64.9923L67.8882 51.3314L70.9295 65.6257L79.5422 65.5975L85.5942 40.3551H78.4565L75.7083 54.6283L72.13 40.3668L64.9852 40.4723L61.2991 54.9049L58.4173 40.3527ZM96.8472 40.3527H89.7095V65.6069H96.8472V40.3527ZM110.023 40.3527H102.885V65.4709C102.885 65.499 103.267 65.8836 103.298 65.8836H116.886V59.2945H110.023V40.3527ZM128.965 40.3527H121.827V65.8812H135.826V59.2922H128.962V40.3504L128.965 40.3527Z" fill="#FCFDFD"/>
<path d="M-0.0541992 61.7642C1.54734 67.8467 3.17702 73.4486 6.16203 79.0177C14.3128 94.2241 30.9191 105.51 48.3836 106.521C57.2191 107.032 66.5469 106.115 75.4316 106.511C75.5582 106.626 74.2357 109.025 74.0552 109.327C70.0032 116.041 64.2419 123.003 60.5112 129.882C58.8534 132.94 58.0233 136.521 58.1406 140H-0.0541992V61.7665V61.7642Z" fill="#FCFDFD"/>
<path d="M58.4175 40.353L61.2993 54.9052L64.9854 40.4726L72.1302 40.3648L75.7085 54.6262L78.4567 40.353H85.5921L79.5423 65.5955L70.9297 65.6236L67.886 51.3293L64.9925 65.5931L56.7808 65.5955L51.0054 40.353H58.4175Z" fill="#282574"/>
<path d="M128.965 40.353V59.2948H135.828V65.8815H121.827V40.353H128.965Z" fill="#282574"/>
<path d="M110.023 40.353V59.2948H116.886V65.8839H103.298C103.27 65.8839 102.885 65.5017 102.885 65.4712V40.353H110.023Z" fill="#282574"/>
<path d="M96.8472 40.353H89.7095V65.6072H96.8472V40.353Z" fill="#282574"/>
</g>
</g>
<defs>
<clipPath id="clip0_3517_29">
<rect width="140" height="140" rx="30" fill="white"/>
</clipPath>
<clipPath id="clip1_3517_29">
<rect width="140.274" height="140" fill="white" transform="translate(-0.0541992)"/>
</clipPath>
</defs>
</svg>
