<svg width="140" height="140" viewBox="0 0 140 140" fill="none" xmlns="http://www.w3.org/2000/svg">
<rect width="140" height="140" rx="30" fill="black"/>
<path d="M59 48.7774L69.5003 34.2222L80 48.7774L69.5003 62.2222L59 48.7774Z" fill="white"/>
<path d="M33 47.2222H50.7123L69 73.7708L60.0287 87.2222L33 47.2222Z" fill="#FFDE47"/>
<path d="M106 47.2222H87.7955L69 73.7708L78.2201 87.2222L106 47.2222Z" fill="#FFBF36"/>
<path d="M27.0534 105.033L23.0342 93.4204H25.2251L27.9757 101.969L30.8086 93.3877H32.5218L35.3547 101.969L38.1052 93.4204H40.2302L36.211 105.033H34.4651L31.6322 96.7475L28.7993 105.033H27.0534Z" fill="white"/>
<path d="M42.4209 104.95V93.4199H44.4471V104.95H42.4209Z" fill="white"/>
<path d="M47.5273 104.95V93.4199H49.4052L55.5821 101.392V93.4199H57.5751V104.95H55.8783L49.5203 96.747V104.95H47.5273Z" fill="white"/>
<path d="M65.8931 105.149C64.2239 105.149 62.8295 104.575 61.7092 103.428C60.5889 102.28 60.0293 100.866 60.0293 99.1862C60.0293 97.5063 60.5894 96.1062 61.7092 94.9532C62.8295 93.8002 64.251 93.2236 65.9755 93.2236C66.9745 93.2236 67.8229 93.3776 68.5201 93.6851C69.2173 93.9925 69.8734 94.4376 70.4883 95.0192L69.1869 96.518C68.1546 95.5624 67.0783 95.0852 65.9585 95.0852C64.8388 95.0852 63.9515 95.4806 63.2323 96.2709C62.513 97.0618 62.1531 98.0332 62.1531 99.1862C62.1531 100.339 62.5153 101.298 63.2401 102.094C63.965 102.89 64.871 103.288 65.958 103.288C66.6168 103.288 67.199 103.164 67.7039 102.917C68.2087 102.67 68.7305 102.294 69.2687 101.789L70.5701 103.107C69.9219 103.788 69.236 104.298 68.5111 104.639C67.7862 104.979 66.9136 105.149 65.892 105.149L65.8931 105.149Z" fill="white"/>
<path d="M72.6963 104.95V93.4199H74.7225V103.106H80.7843V104.95H72.6969H72.6963Z" fill="white"/>
<path d="M81.9023 104.95L86.9759 93.3379H88.8537L93.9273 104.95H91.7859L90.6165 102.167H85.1645L83.9788 104.95H81.9035H81.9023ZM85.9052 100.372H89.8748L87.8818 95.7596L85.9052 100.372Z" fill="white"/>
<path d="M99.9394 105.116C98.1055 105.116 96.5023 104.501 95.1299 103.271L96.3489 101.821C97.5019 102.821 98.7153 103.32 99.989 103.32C100.615 103.32 101.112 103.186 101.48 102.917C101.848 102.648 102.032 102.288 102.032 101.838C102.032 101.387 101.856 101.066 101.505 100.808C101.153 100.55 100.461 100.3 99.4295 100.058C98.0897 99.7403 97.1149 99.3364 96.5057 98.8479C95.8965 98.3593 95.5913 97.6097 95.5913 96.5994C95.5913 95.5891 95.9591 94.8066 96.6947 94.1861C97.4303 93.5656 98.3746 93.2554 99.5276 93.2554C101.109 93.2554 102.503 93.7388 103.712 94.7051L102.625 96.2372C101.559 95.4463 100.516 95.0515 99.4949 95.0515C98.9127 95.0515 98.4541 95.1835 98.1196 95.4469C97.7845 95.7103 97.617 96.0454 97.617 96.4516C97.617 96.9017 97.8009 97.2503 98.1687 97.4974C98.5365 97.7445 99.2642 98 100.351 98.2634C101.625 98.5709 102.561 98.9827 103.16 99.4988C103.758 100.015 104.057 100.74 104.057 101.673C104.057 102.738 103.678 103.578 102.921 104.193C102.163 104.808 101.169 105.116 99.9394 105.116Z" fill="white"/>
<path d="M106.446 104.95V93.4199H108.473V98.2131H113.974V93.4199H116V104.95H113.974V100.091H108.473V104.95H106.446Z" fill="white"/>
</svg>
