<svg width="140" height="140" viewBox="0 0 140 140" fill="none" xmlns="http://www.w3.org/2000/svg">
<rect width="140" height="140" rx="30" fill="url(#paint0_linear_3582_364)"/>
<g clip-path="url(#clip0_3582_364)">
<path d="M25 128C25 117.899 17.1002 110 7 110C17.1012 110 25 102.1 25 92C25 102.101 32.8998 110 43 110C32.8988 110 25 117.9 25 128Z" fill="#FEFEFE"/>
</g>
<g clip-path="url(#clip1_3582_364)">
<path d="M21 42C21 33.0212 13.9779 26 5 26C13.9788 26 21 18.9779 21 10C21 18.9788 28.0221 26 37 26C28.0212 26 21 33.0221 21 42Z" fill="#FEFEFE"/>
</g>
<path d="M68.7179 120.265C95.8735 120.265 117.888 97.6753 117.888 69.8093C117.888 41.9433 95.8735 19.3535 68.7179 19.3535C41.5623 19.3535 19.5483 41.9433 19.5483 69.8093C19.5483 97.6753 41.5623 120.265 68.7179 120.265Z" fill="#FBB000"/>
<path d="M68.7179 117.257C95.8735 117.257 117.888 95.3406 117.888 68.3053C117.888 41.27 95.8735 19.3535 68.7179 19.3535C41.5623 19.3535 19.5483 41.27 19.5483 68.3053C19.5483 95.3406 41.5623 117.257 68.7179 117.257Z" fill="url(#paint1_linear_3582_364)"/>
<path d="M68.7183 108.603C91.057 108.603 109.166 90.5612 109.166 68.3053C109.166 46.0493 91.057 28.0073 68.7183 28.0073C46.3796 28.0073 28.2705 46.0493 28.2705 68.3053C28.2705 90.5612 46.3796 108.603 68.7183 108.603Z" fill="url(#paint2_linear_3582_364)"/>
<path d="M68.7182 105.404C89.2531 105.404 105.9 88.7942 105.9 68.3053C105.9 47.8165 89.2531 31.207 68.7182 31.207C48.1834 31.207 31.5366 47.8165 31.5366 68.3053C31.5366 88.7942 48.1834 105.404 68.7182 105.404Z" fill="#FBDF40"/>
<path d="M43.6514 75.1757C44.688 103.813 87.8079 110.098 93.7864 75.5742C88.5258 69.9254 52.1008 69.4482 43.6514 75.1757Z" fill="#F8871D"/>
<path d="M48.7666 73.111C49.2401 76.1593 50.0508 77.4348 52.0406 78.698C53.4501 79.5936 55.019 80.2067 56.6498 80.5742C64.0595 82.2435 72.3356 82.2373 81.5835 80.3472C82.8692 80.0847 84.1116 79.6291 85.2489 78.9775C87.4212 77.7313 88.4284 76.2643 88.6713 73.1342C74.2991 71.4772 60.9047 71.1097 48.7666 73.1125V73.111Z" fill="#F1FFFF"/>
<path d="M88.6713 73.1328C88.5723 74.3867 88.4377 74.8515 88.0803 75.8568C74.2604 74.3002 61.2203 74.0238 49.4706 75.8599C49.1225 74.8484 48.9538 74.3156 48.7666 73.1096C59.7148 70.4891 75.5307 69.9038 88.6713 73.1312V73.1328Z" fill="#EDCD99"/>
<path d="M54.3242 94.7625C54.9261 92.0076 57.2655 90.6703 60.0459 90.431C61.0114 90.3476 61.9768 90.2565 62.9392 90.1345C67.2127 89.5924 71.6455 89.6542 76.2393 90.3306C76.445 90.3615 76.6539 90.3846 76.8612 90.4062C80.4462 90.7738 82.5288 92.318 83.2142 94.3641C75.1082 100.524 63.815 101.463 54.3258 94.764L54.3242 94.7625Z" fill="#FEFEFE"/>
<path d="M42.7306 47.1574L45.661 42.6899H61.22L59.3014 47.3705H57.4896V48.8591H62.5522C62.2969 50.4157 61.9596 51.9367 60.0472 52.7953L57.9693 53.0609C57.2374 56.4891 54.7634 58.2449 50.8829 58.6448L56.2642 65.9845H49.7627L43.8477 58.912V55.1888C47.9014 55.5656 51.0052 55.2352 51.6272 53.0609H42.7816L44.7002 49.1787C53.1187 49.3918 54.3983 47.2114 42.729 47.1574H42.7306Z" fill="url(#paint3_linear_3582_364)"/>
<path d="M74.8839 47.1574L77.8143 42.6899H93.3733L91.4548 47.3705H89.6429V48.8591H94.7055C94.4502 50.4157 94.1129 51.9367 92.2005 52.7953L90.1226 53.0609C89.3908 56.4891 86.9167 58.2449 83.0363 58.6448L88.4175 65.9845H81.9161L76.001 58.912V55.1888C80.0547 55.5656 83.1585 55.2352 83.7805 53.0609H74.9349L76.8535 49.1787C85.272 49.3918 86.5516 47.2114 74.8823 47.1574H74.8839Z" fill="url(#paint4_linear_3582_364)"/>
<g clip-path="url(#clip2_3582_364)">
<path d="M122 107C122 96.8988 114.1 89 104 89C114.101 89 122 81.1002 122 71C122 81.1012 129.9 89 140 89C129.899 89 122 96.8998 122 107Z" fill="#FEFEFE"/>
</g>
<defs>
<linearGradient id="paint0_linear_3582_364" x1="70" y1="0" x2="70" y2="140" gradientUnits="userSpaceOnUse">
<stop stop-color="#13BA2F"/>
<stop offset="1" stop-color="#12B92D"/>
</linearGradient>
<linearGradient id="paint1_linear_3582_364" x1="68.7179" y1="19.3535" x2="68.7179" y2="117.257" gradientUnits="userSpaceOnUse">
<stop stop-color="#FDFC01"/>
<stop offset="0.524038" stop-color="#F4C80D"/>
<stop offset="1" stop-color="#FFFB02"/>
</linearGradient>
<linearGradient id="paint2_linear_3582_364" x1="68.7183" y1="28.0073" x2="68.7183" y2="108.603" gradientUnits="userSpaceOnUse">
<stop stop-color="#E5A412"/>
<stop offset="1" stop-color="#FDF7A6"/>
</linearGradient>
<linearGradient id="paint3_linear_3582_364" x1="52.6406" y1="42.6899" x2="52.6406" y2="65.9845" gradientUnits="userSpaceOnUse">
<stop stop-color="#FC7F00"/>
<stop offset="1" stop-color="#FCC312"/>
</linearGradient>
<linearGradient id="paint4_linear_3582_364" x1="84.7939" y1="42.6899" x2="84.7939" y2="65.9845" gradientUnits="userSpaceOnUse">
<stop stop-color="#FC7F00"/>
<stop offset="1" stop-color="#FCC312"/>
</linearGradient>
<clipPath id="clip0_3582_364">
<rect width="36" height="36" fill="white" transform="translate(7 92)"/>
</clipPath>
<clipPath id="clip1_3582_364">
<rect width="32" height="32" fill="white" transform="translate(5 10)"/>
</clipPath>
<clipPath id="clip2_3582_364">
<rect width="36" height="36" fill="white" transform="translate(104 71)"/>
</clipPath>
</defs>
</svg>
