<svg width="140" height="140" viewBox="0 0 140 140" fill="none" xmlns="http://www.w3.org/2000/svg">
<rect width="140" height="140" rx="30" fill="#00BCE0"/>
<g clip-path="url(#clip0_829_52)">
<path d="M95.8739 51.0401C96.3947 50.9903 96.9151 50.9799 97.4355 51.0488C97.462 51.0508 97.4884 51.0525 97.5149 51.0545C97.8254 51.0464 98.1309 51.0902 98.4354 51.1454C98.4496 51.1534 98.4645 51.1567 98.4808 51.1547C98.5679 51.1554 98.6557 51.1487 98.7375 51.1895C98.7551 51.1942 98.7727 51.1985 98.7903 51.2032C98.8765 51.2018 98.9626 51.2015 99.0423 51.2409C99.0541 51.251 99.0677 51.2567 99.0833 51.2577C99.8166 51.3282 100.251 51.7376 100.451 52.4207C100.63 53.0316 100.614 53.6586 100.526 54.2879C100.493 54.5242 100.492 54.7675 100.464 55.0065C100.455 55.081 100.453 55.1558 100.42 55.2257C100.418 55.2421 100.415 55.2588 100.412 55.2752C100.412 55.3774 100.412 55.4797 100.37 55.5763C100.367 55.593 100.364 55.6097 100.361 55.6261C100.304 55.9429 100.271 56.2621 100.191 56.5769C100.132 56.8048 100.115 57.0488 100.066 57.2834C99.8661 58.2436 99.6163 59.1914 99.3559 60.1372C99.1219 60.9884 98.8575 61.8296 98.5757 62.6658C98.2452 63.646 97.8739 64.6112 97.4796 65.5677C97.3013 66.0002 97.2213 66.4597 97.1043 66.9082C96.8754 67.7852 96.6679 68.6675 96.454 69.5481C96.4011 69.7657 96.3557 69.9853 96.3072 70.2038C96.2963 70.2155 96.2906 70.2292 96.2892 70.2453C96.3116 70.4415 96.2113 70.6153 96.1763 70.8007C96.0424 71.5146 95.8871 72.2245 95.7769 72.9427C95.7708 72.9834 95.7546 73.0226 95.7427 73.0627C95.7346 73.0744 95.7302 73.0871 95.7295 73.1014C95.7054 73.3273 95.664 73.5489 95.6003 73.7688C95.5447 73.96 95.5827 74.1655 95.5328 74.3621C95.4294 74.7684 95.3938 75.1882 95.343 75.6013C95.3101 75.869 95.2863 76.1481 95.248 76.4131C95.1901 76.8161 95.2077 77.2232 95.1341 77.6222C95.1246 77.6366 95.1206 77.652 95.1222 77.669C95.1063 77.8706 95.1287 78.0744 95.0822 78.2739C95.0731 78.288 95.0694 78.3034 95.0711 78.3201C95.0182 78.6195 95.0839 78.9233 95.0382 79.2231C95.0331 79.2415 95.028 79.2599 95.0229 79.2786C95.0219 79.8404 95.0212 80.4025 95.0202 80.9643C95.0185 80.981 95.0222 80.9967 95.0317 81.0111C95.0809 81.4529 95.1107 81.8967 95.2179 82.3315C95.3674 82.9388 95.6301 83.4785 96.1343 83.8773C96.5133 84.177 96.9463 84.3244 97.4382 84.3401C97.8973 84.3548 98.3415 84.3117 98.7815 84.1831C98.9985 84.1196 99.2047 84.0343 99.4064 83.9384C99.8414 83.7309 100.242 83.4675 100.615 83.1661C100.927 82.9144 101.198 82.6193 101.491 82.3479C101.714 82.1417 101.898 81.9084 102.083 81.6722C102.262 81.4426 102.475 81.2407 102.644 81.0007C102.73 80.8784 102.785 80.7421 102.876 80.6211C103.264 80.1084 103.597 79.5593 103.883 78.9858C103.951 78.8491 104.049 78.7214 104.077 78.5654C104.148 78.5584 104.172 78.5166 104.164 78.4514C104.258 78.2405 104.337 78.0216 104.452 77.8218C104.517 77.7065 104.473 77.5571 104.589 77.4662C104.646 77.4518 104.704 77.4378 104.636 77.3659C104.658 77.3151 104.679 77.264 104.7 77.2132C104.818 77.1604 104.809 77.0487 104.826 76.9491C104.839 76.7951 104.945 76.6661 104.948 76.509C104.96 76.4936 104.972 76.4786 104.984 76.4632C104.991 76.4458 104.998 76.4285 105.005 76.4111C105.064 76.4007 105.078 76.3566 105.094 76.3071C105.146 76.1437 105.202 75.9813 105.26 75.8195C105.275 75.7774 105.283 75.742 105.243 75.7109C105.377 75.2724 105.365 74.8132 105.439 74.3661C105.451 74.2929 105.447 74.217 105.476 74.1465C105.48 74.1291 105.483 74.1117 105.487 74.0947C105.486 73.9767 105.485 73.8587 105.527 73.7458C105.531 73.7284 105.534 73.7113 105.538 73.694C105.539 73.457 105.573 73.2241 105.629 72.9941C105.632 72.9768 105.636 72.9597 105.639 72.9423C105.658 72.6048 105.718 72.2729 105.782 71.9417C105.785 71.9247 105.788 71.9073 105.792 71.8903C105.792 71.8608 105.793 71.8314 105.793 71.8017C105.844 71.7726 105.854 71.7402 105.802 71.7028C105.792 71.5587 105.856 71.4287 105.881 71.2914C105.885 71.2746 105.89 71.2576 105.894 71.2406C105.891 71.036 105.942 70.8392 105.981 70.6407C105.986 70.6233 105.991 70.6056 105.995 70.5882C105.994 70.4873 106 70.387 106.033 70.2901C106.088 70.2309 106.142 70.1714 106.053 70.0979C106.059 70.0311 106.066 69.9642 106.072 69.8974C106.138 69.8803 106.174 69.8546 106.102 69.7968C106.109 69.7299 106.116 69.6634 106.123 69.5966C106.202 69.5765 106.204 69.5227 106.184 69.4592C106.182 69.3483 106.198 69.2403 106.238 69.1364C106.242 69.1197 106.246 69.1026 106.25 69.0856C106.286 68.73 106.36 68.3811 106.439 68.0332C106.445 68.0034 106.451 67.9734 106.457 67.9436C106.457 67.9353 106.457 67.9269 106.457 67.9185C106.457 67.6884 106.336 67.5821 106.096 67.5997C105.894 67.6144 105.693 67.6284 105.492 67.6425C105.404 67.5683 105.318 67.5639 105.234 67.6482C104.762 67.6482 104.292 67.717 103.819 67.694C103.786 67.6986 103.754 67.7036 103.721 67.7083C103.647 67.7244 103.573 67.7274 103.499 67.709C103.477 67.706 103.455 67.7033 103.433 67.7003L102.946 67.6712L102.901 67.6405C102.881 67.6298 102.861 67.6194 102.84 67.6087C102.828 67.598 102.814 67.592 102.798 67.5907C102.628 67.5553 102.488 67.4563 102.337 67.3805C102.319 67.3678 102.301 67.3551 102.283 67.3424C102.069 67.1542 101.978 66.9139 101.974 66.6362C101.97 66.3521 102.012 66.0707 102.032 65.7883C102.082 65.7592 102.091 65.7268 102.04 65.6897C102.062 65.4721 102.084 65.2546 102.107 65.037C102.173 65.02 102.209 64.9942 102.137 64.9367C102.149 64.9 102.16 64.8629 102.172 64.8261C102.175 64.8091 102.178 64.792 102.181 64.775C102.222 64.3298 102.289 63.8743 102.477 63.4799C102.661 63.0929 103.008 62.8015 103.497 62.7771C103.515 62.7738 103.532 62.7704 103.549 62.7674C103.635 62.73 103.724 62.737 103.814 62.7397C103.832 62.7651 103.849 62.7617 103.863 62.7363C104.598 62.7343 105.333 62.728 106.068 62.7313C106.488 62.7333 106.909 62.7514 107.33 62.7624C107.36 62.7848 107.389 62.7835 107.417 62.7574C107.537 62.597 107.486 62.3928 107.557 62.22C107.591 62.1481 107.642 62.0803 107.608 61.9937C107.66 61.5118 107.763 61.0392 107.863 60.566C107.895 60.4941 107.947 60.4263 107.913 60.3401C107.944 60.1185 107.975 59.8969 108.005 59.6753C108.085 59.6549 108.086 59.6011 108.066 59.538C108.116 59.0935 108.227 58.6593 108.304 58.2192C108.35 57.9508 108.42 57.6865 108.48 57.4204C108.555 57.3827 108.559 57.3335 108.504 57.2744C108.456 57.145 108.568 57.0414 108.564 56.9191C108.642 56.9007 108.645 56.8473 108.629 56.7841C108.641 56.6788 108.652 56.5736 108.664 56.4679C108.72 56.4549 108.769 56.4385 108.709 56.3724C108.728 56.3226 108.676 56.2484 108.762 56.221C108.824 56.2019 108.873 56.1789 108.796 56.1164C108.882 55.9536 108.971 55.7942 109.155 55.7163C109.171 55.7006 109.187 55.6849 109.204 55.6692C109.285 55.6104 109.351 55.5271 109.462 55.5165C109.476 55.5058 109.491 55.4951 109.506 55.4844C109.677 55.4466 109.838 55.3657 110.018 55.3654C110.067 55.3654 110.117 55.3748 110.161 55.343C110.375 55.2875 110.595 55.2955 110.812 55.2945C111.442 55.2912 112.073 55.3069 112.703 55.3143C112.847 55.3159 112.989 55.324 113.13 55.351C113.162 55.3547 113.194 55.3584 113.225 55.3624C113.358 55.4259 113.504 55.3427 113.637 55.4018C113.654 55.4048 113.671 55.4075 113.688 55.4105C113.984 55.4299 114.275 55.471 114.556 55.5683C115.44 55.8727 115.883 56.6437 115.573 57.5976C115.511 57.7894 115.507 57.9846 115.464 58.1767C115.321 58.8094 115.198 59.4464 115.068 60.0817C115.057 60.0934 115.051 60.1075 115.049 60.1232C115.045 60.194 115.057 60.2679 115.015 60.3327C115.005 60.3444 115 60.3578 114.998 60.3732C114.996 60.6335 114.913 60.8801 114.866 61.1331C114.854 61.1448 114.847 61.1592 114.846 61.1759C114.817 61.5185 114.734 61.8517 114.66 62.1862C114.65 62.1979 114.644 62.2116 114.643 62.2273C114.649 62.4877 114.534 62.7313 114.533 63.0087C114.882 63.0425 115.236 63.0197 115.584 63.0729C115.613 63.0739 115.643 63.0752 115.672 63.0762C115.999 63.0886 116.329 63.0578 116.654 63.1233C116.698 63.125 116.741 63.1267 116.784 63.1287C117.141 63.1638 117.5 63.1073 117.855 63.1668C117.87 63.1765 117.886 63.1805 117.903 63.1788C118.21 63.1731 118.516 63.1872 118.822 63.2136C118.855 63.2186 118.887 63.2236 118.92 63.2286C119.243 63.2263 119.567 63.2289 119.888 63.264C119.907 63.2681 119.925 63.2724 119.943 63.2767C120.247 63.2777 120.552 63.2751 120.855 63.3155C120.873 63.3192 120.891 63.3232 120.909 63.3269C121.075 63.3309 121.24 63.3349 121.406 63.3389C121.421 63.3636 121.437 63.3656 121.455 63.3419C121.843 63.3927 122.228 63.4455 122.559 63.6841C122.792 63.8529 122.915 64.0859 122.969 64.3499C123.012 64.5608 123.013 64.781 122.946 64.9936C122.942 65.0106 122.938 65.0273 122.934 65.0444C122.917 65.0811 122.89 65.1162 122.884 65.1546C122.757 65.9267 122.293 66.4383 121.594 66.7595C121.245 66.9203 120.87 67.0169 120.492 67.0807C120.295 67.1141 120.088 67.09 119.886 67.0917C119.818 67.0914 119.748 67.0727 119.684 67.1121C119.029 67.1238 118.373 67.1358 117.718 67.1475C117.678 67.1402 117.638 67.1355 117.601 67.1572C117.31 67.1682 117.019 67.1796 116.728 67.1906C116.674 67.1231 116.623 67.1248 116.573 67.1946C116.133 67.183 115.696 67.2254 115.257 67.2354C115.02 67.2408 114.784 67.2401 114.547 67.2421C114.514 67.2475 114.481 67.2531 114.448 67.2585C114.306 67.2662 114.164 67.2745 114.021 67.2819C113.875 67.2892 113.785 67.3611 113.754 67.4974C113.7 67.7314 113.646 67.9653 113.592 68.1989C113.581 68.2106 113.576 68.2243 113.575 68.2397C113.57 68.3109 113.582 68.3844 113.541 68.4496C113.531 68.4613 113.525 68.4747 113.524 68.49C113.519 68.5609 113.531 68.6341 113.491 68.6996C113.48 68.7113 113.474 68.725 113.473 68.741C113.468 68.8119 113.481 68.8857 113.439 68.9509C113.429 68.9626 113.423 68.976 113.422 68.9913C113.394 69.3306 113.302 69.6591 113.246 69.994C113.218 70.1651 113.174 70.3335 113.136 70.5033C113.125 70.515 113.118 70.5294 113.117 70.5457C113.085 70.9254 112.986 71.2937 112.92 71.6673C112.844 72.0981 112.76 72.5279 112.68 72.9584C112.668 72.9701 112.661 72.9845 112.66 73.0015C112.656 73.1927 112.616 73.3785 112.571 73.5633C112.562 73.5767 112.558 73.591 112.559 73.6071C112.484 74.0733 112.409 74.5395 112.333 75.0057C112.297 75.226 112.258 75.4459 112.22 75.6658C112.216 75.6835 112.211 75.7009 112.206 75.7186C112.194 75.9208 112.166 76.121 112.117 76.3182C112.113 76.3352 112.109 76.3523 112.104 76.369C112.038 76.4906 112.06 76.6216 112.057 76.7513C112.054 76.8405 112.059 76.9348 112.015 77.0197C112.011 77.0367 112.007 77.0534 112.002 77.0705C111.994 77.396 111.936 77.7168 111.891 78.038C111.83 78.4718 111.808 78.9103 111.72 79.3421C111.697 79.4574 111.735 79.5977 111.709 79.7264C111.705 79.7438 111.702 79.7612 111.698 79.7785C111.689 80.1328 111.676 80.4871 111.672 80.8417C111.669 81.1872 111.718 81.5315 111.696 81.8777C111.693 81.9325 111.728 81.9686 111.749 82.012C111.753 82.0298 111.758 82.0475 111.763 82.0652C111.855 82.4084 111.931 82.7543 112.107 83.0728C112.504 83.789 113.106 84.1974 113.922 84.3204C114.214 84.3645 114.509 84.305 114.8 84.3625C114.853 84.3729 114.918 84.304 114.99 84.3241C115.007 84.3197 115.024 84.3154 115.042 84.3114C115.479 84.2198 115.908 84.1079 116.312 83.9073C116.785 83.6727 117.214 83.382 117.598 83.0244C117.613 83.0117 117.628 82.9986 117.642 82.9859C117.89 82.7697 118.118 82.5344 118.316 82.2721C118.329 82.259 118.341 82.2457 118.354 82.2326C118.836 81.6815 119.232 81.0723 119.594 80.4406C119.669 80.3103 119.746 80.1823 119.844 80.0673C119.859 80.0636 119.87 80.0549 119.877 80.0416C119.897 80.0342 119.917 80.0269 119.937 80.0195C119.951 80.0091 119.966 79.9988 119.979 79.9888C120.185 79.9403 120.389 79.8868 120.601 79.9533C120.619 79.9567 120.636 79.9604 120.654 79.9637C121.23 80.0573 121.7 80.347 122.104 80.7471C122.293 80.9339 122.322 81.1772 122.245 81.4168C122.038 82.0615 121.67 82.6263 121.305 83.1915C120.593 84.2943 119.75 85.2906 118.781 86.1826C118.468 86.471 118.134 86.7367 117.793 86.9941C117.044 87.5595 116.22 87.991 115.356 88.356C114.911 88.5438 114.454 88.6875 113.982 88.7864C113.922 88.7132 113.896 88.752 113.88 88.8175C113.829 88.8235 113.778 88.8292 113.728 88.8352C113.666 88.763 113.642 88.8028 113.625 88.8673C113.528 88.8753 113.43 88.883 113.332 88.891C113.315 88.8944 113.297 88.898 113.279 88.9014C112.758 89.007 112.229 88.996 111.7 88.9933C111.305 88.9913 110.912 88.9706 110.525 88.888C110.445 88.8108 110.36 88.8198 110.273 88.8747C110.255 88.876 110.238 88.8777 110.22 88.879C110.2 88.7781 110.15 88.7614 110.071 88.8275C110.032 88.8178 109.994 88.8078 109.955 88.7981C109.944 88.7904 109.931 88.7864 109.917 88.7861C109.844 88.7811 109.773 88.7787 109.698 88.759C109.231 88.634 108.789 88.4425 108.338 88.2764C108.323 88.2624 108.309 88.2483 108.294 88.2343C108.091 88.1357 107.901 88.0127 107.705 87.9028C107.559 87.8209 107.443 87.6745 107.306 87.5649C106.612 87.0094 106.153 86.2852 105.787 85.4955C105.7 85.3067 105.623 85.1128 105.542 84.9213C105.532 84.9076 105.521 84.8942 105.511 84.8805C105.507 84.8455 105.503 84.8104 105.499 84.7753C105.562 84.7265 105.533 84.6984 105.476 84.677C105.465 84.6586 105.453 84.6403 105.442 84.6222C105.428 84.6075 105.414 84.5931 105.4 84.5784C105.402 84.5427 105.403 84.5072 105.405 84.4715C105.464 84.401 105.411 84.3883 105.355 84.3766C105.351 84.3428 105.347 84.3091 105.344 84.2753C105.415 84.2085 105.365 84.1897 105.303 84.176C105.3 84.1423 105.297 84.1082 105.294 84.0744C105.364 84.0069 105.314 83.9889 105.252 83.9755C105.196 83.6597 105.138 83.3442 105.082 83.028C105.064 82.9231 105.059 82.8155 105.008 82.6942C104.873 82.8796 104.744 83.0508 104.623 83.2279C104.269 83.7466 103.874 84.2325 103.455 84.7007C103.187 85.0002 102.923 85.304 102.622 85.5714C102.206 85.9413 101.801 86.321 101.347 86.6525C101.056 86.8657 100.743 87.0512 100.467 87.2885C100.305 87.4279 100.093 87.5108 99.9068 87.623C99.2514 88.0181 98.551 88.3205 97.8224 88.5478C97.3111 88.7072 96.7914 88.8553 96.2492 88.891C96.2313 88.8944 96.2136 88.898 96.1957 88.9014C95.6451 89.0117 95.0873 89.001 94.5306 88.9906C94.2526 88.9856 93.9753 88.9592 93.6976 88.9422C93.6667 88.8887 93.6328 88.8807 93.5942 88.9348C93.5572 88.9241 93.5203 88.9134 93.4837 88.9024C93.4664 88.898 93.4494 88.894 93.4321 88.8897C93.2219 88.9011 93.0222 88.8429 92.8208 88.7974C92.8093 88.7898 92.7964 88.7858 92.7825 88.7854C92.4204 88.7533 92.0831 88.6277 91.7427 88.5154C91.2328 88.3469 90.7588 88.1063 90.3292 87.7875C90.2509 87.7293 90.1258 87.745 90.0861 87.6324C90.0712 87.6164 90.0559 87.6003 90.041 87.5843C89.8142 87.3754 89.566 87.1849 89.3657 86.954C89.0812 86.6258 88.8503 86.2591 88.651 85.8698C88.4201 85.4193 88.259 84.9464 88.1024 84.4701C88.0888 84.4561 88.0756 84.4421 88.062 84.4277C88.0464 84.1018 87.943 83.791 87.8949 83.4702C87.8434 83.1263 87.7796 82.7844 87.7932 82.4345C87.7922 82.4057 87.7908 82.3773 87.7898 82.3486C87.7118 81.8436 87.7488 81.3349 87.744 80.828C87.7413 80.5542 87.7908 80.2799 87.7816 80.0068C87.7755 79.8183 87.7898 79.6382 87.8325 79.4574C87.8362 79.4397 87.8403 79.4219 87.844 79.4042C87.8383 79.2361 87.8512 79.0697 87.8868 78.9049C87.8959 78.8909 87.8993 78.8755 87.8976 78.8588C87.9386 78.3207 87.9844 77.7833 88.0875 77.2523C88.0912 77.2346 88.0949 77.2172 88.0987 77.1995C88.1139 76.7613 88.2156 76.3345 88.2787 75.9027C88.3441 75.4539 88.4058 75.0047 88.4692 74.5556C88.5543 74.5415 88.5645 74.4884 88.5431 74.4185C88.5431 74.1776 88.6306 73.9456 88.6215 73.7037C88.7066 73.6896 88.7171 73.6365 88.6954 73.5666C88.712 73.2638 88.7808 72.9704 88.8534 72.6776L88.8429 72.6633L88.8256 72.672C88.597 72.7943 88.4092 72.9738 88.217 73.1382C88.0051 73.32 87.7776 73.4731 87.547 73.6251C87.3436 73.7591 87.1497 73.9129 86.9327 74.0202C86.6659 74.1522 86.4319 74.342 86.1576 74.4533C85.5721 74.6909 84.991 74.9396 84.38 75.113C84.1946 75.1655 84.0112 75.2103 83.8206 75.234C83.7203 75.2464 83.663 75.2925 83.6379 75.4031C83.5531 75.7764 83.4473 76.1447 83.3707 76.5204C83.3439 76.6514 83.2921 76.7787 83.2541 76.9084C83.0839 77.4896 82.8886 78.0634 82.6909 78.6366C82.559 79.0186 82.4058 79.3919 82.2549 79.7645C82.0251 80.3317 81.7643 80.8878 81.4755 81.4299C81.1185 82.0999 80.693 82.7273 80.2739 83.3599C79.5717 84.42 78.6974 85.3237 77.7229 86.1382C77.4537 86.3631 77.1574 86.5563 76.8767 86.7658C76.3098 87.1889 75.6924 87.5148 75.0598 87.8196C74.5441 88.0679 74.006 88.2647 73.4581 88.4342C73.4419 88.4479 73.4259 88.4619 73.4097 88.4756C73.235 88.4856 73.073 88.5505 72.9045 88.5862C72.8865 88.5999 72.8682 88.6136 72.8502 88.6273C72.6956 88.6116 72.5559 88.6989 72.4024 88.6892C72.3844 88.6935 72.3668 88.6982 72.3488 88.7025C72.0816 88.764 71.8175 88.8436 71.5388 88.8399C71.5212 88.8432 71.5039 88.8466 71.4863 88.8496C71.389 88.8897 71.2862 88.891 71.1832 88.89C71.1645 88.895 71.1459 88.9004 71.1276 88.9054C70.1918 89.011 69.2544 89.0264 68.3152 88.9505C68.2979 88.9472 68.2803 88.9435 68.2627 88.9402C67.9877 88.9519 67.7195 88.9047 67.452 88.8519C67.4347 88.8476 67.4174 88.8432 67.4001 88.8389C67.1143 88.8392 66.8414 88.753 66.5613 88.7146C66.4718 88.7022 66.3813 88.6898 66.2915 88.6755C66.2793 88.6126 66.2633 88.5585 66.1904 88.6313C66.1528 88.6197 66.1148 88.6076 66.0772 88.5959C66.0657 88.5882 66.0528 88.5842 66.0389 88.5839C65.9287 88.6046 65.8388 88.5217 65.732 88.5254C65.7239 88.4529 65.6792 88.4312 65.6113 88.4415C65.4001 88.382 65.1753 88.3613 64.9851 88.239C64.8868 88.1758 64.7597 88.1992 64.6651 88.129C64.6458 88.0024 64.544 88.0401 64.4657 88.0314C64.3338 88.0037 64.2389 87.8938 64.1036 87.8734C64.0887 87.8593 64.0741 87.8453 64.0592 87.8313C63.6663 87.6214 63.2882 87.3884 62.9339 87.1194C62.9207 87.107 62.9075 87.0943 62.8943 87.082C62.6454 86.9426 62.4444 86.7341 62.2538 86.5402C62.0321 86.3146 61.7544 86.1238 61.6144 85.8233C61.6015 85.8086 61.5886 85.7943 61.5757 85.7796C61.3414 85.4644 61.1143 85.1446 60.9231 84.8013C60.8305 84.6352 60.7593 84.4564 60.6549 84.2987C60.4888 84.0484 60.4386 83.7519 60.2992 83.4933C60.1589 83.2329 60.1277 82.9411 60.0304 82.6708C59.8897 82.2794 59.8795 81.8653 59.7652 81.473C59.674 81.1602 59.6808 80.8386 59.6364 80.5222C59.5927 80.21 59.5577 79.8945 59.5747 79.577C59.57 79.5586 59.5652 79.5403 59.5601 79.5219C59.5347 78.8658 59.5038 78.2098 59.5594 77.5541C59.5645 77.5357 59.5696 77.517 59.5747 77.4986C59.5761 77.2817 59.572 77.0644 59.6164 76.8502C59.6262 76.8359 59.63 76.8201 59.6283 76.8031C59.632 76.2918 59.7368 75.7921 59.812 75.2891C59.8537 75.0097 59.8907 74.724 59.9592 74.4556C60.0304 74.1762 60.0249 73.8771 60.1687 73.6111C60.2704 73.4229 60.2799 73.199 60.3365 72.9928C60.4355 72.6325 60.5664 72.286 60.6935 71.9357C60.8827 71.4133 61.1299 70.915 61.3214 70.3943C61.3347 70.3803 61.3479 70.3659 61.3615 70.3519C61.3689 70.3155 61.3767 70.2787 61.3842 70.2423C61.3971 70.2356 61.4055 70.2249 61.4096 70.2109C61.551 69.9806 61.6795 69.7436 61.7792 69.4923C61.7924 69.478 61.8056 69.4639 61.8188 69.4495C62.1263 68.9222 62.4501 68.4051 62.7885 67.8958C63.0319 67.5292 63.3201 67.201 63.5883 66.8551C63.9534 66.3839 64.3935 65.9842 64.8136 65.5654C65.0302 65.3495 65.2581 65.1443 65.4808 64.9344C65.4974 64.921 65.514 64.9073 65.5307 64.894C65.5564 64.8231 65.6263 64.8118 65.6839 64.784C65.7002 64.7676 65.7161 64.7516 65.7324 64.7352C66.0168 64.5307 66.2999 64.3235 66.5868 64.1219C66.779 63.9869 66.9773 63.8603 67.1726 63.7296C67.1862 63.7259 67.1964 63.7179 67.2028 63.7055C67.3211 63.6708 67.4164 63.5959 67.5178 63.5317C67.532 63.52 67.5463 63.5087 67.5605 63.497C67.7585 63.3927 67.9541 63.2828 68.1559 63.1852C68.3935 63.0702 68.6376 62.9673 68.8773 62.856C69.4646 62.5839 70.0765 62.3654 70.6977 62.1989C71.47 61.992 72.2617 61.853 73.0625 61.7731C73.9152 61.6883 74.7696 61.6796 75.6216 61.733C76.499 61.7882 77.3609 61.9463 78.2034 62.214C79.232 62.5408 80.1651 63.0268 80.9811 63.7236C81.6514 64.2961 82.2139 64.9618 82.6431 65.7271C83.1388 66.6105 83.4833 67.5499 83.686 68.5425C83.7823 69.0144 83.8603 69.4876 83.9203 69.9646C83.9339 70.0715 83.9315 70.1808 83.9366 70.2887C83.9345 70.3054 83.9383 70.3208 83.9474 70.3349C83.9671 70.499 83.9868 70.663 84.0064 70.8278C84.6787 70.7115 85.3158 70.5063 85.9159 70.2112C86.2343 70.0548 86.5414 69.8693 86.8459 69.6808C87.2992 69.3997 87.7169 69.0799 88.1285 68.7477C88.4231 68.5098 88.6635 68.217 88.9337 67.9543C89.208 67.6879 89.5009 67.4386 89.744 67.1412C89.8305 67.0352 89.8986 66.933 89.9197 66.7916C89.9942 66.2883 90.0837 65.7873 90.1648 65.2847C90.1858 65.1533 90.2051 65.0226 90.2034 64.8876C90.2021 64.767 90.2828 64.6614 90.2987 64.5367C90.334 64.261 90.3465 63.9789 90.4106 63.7115C90.4662 63.4793 90.5306 63.249 90.5611 63.0124C90.6238 62.5274 90.7656 62.0569 90.833 61.5736C90.8717 61.2969 90.9514 61.0285 90.989 60.7531C91.027 60.4768 91.0863 60.205 91.1531 59.9357C91.2087 59.7108 91.1992 59.4791 91.265 59.2542C91.3419 58.9912 91.3755 58.7155 91.427 58.4454C91.4318 58.421 91.4291 58.3953 91.4297 58.3702C91.4864 58.3572 91.5338 58.3398 91.4738 58.2747C91.4762 58.2232 91.4786 58.1714 91.4809 58.1199C91.5372 58.1066 91.5847 58.0895 91.525 58.0243C91.5274 57.9725 91.5298 57.9211 91.5321 57.8693C91.5884 57.8559 91.6355 57.8389 91.5762 57.7737C91.5786 57.7219 91.581 57.6704 91.5833 57.6186C91.6396 57.6056 91.6864 57.5879 91.6274 57.5234C91.6298 57.4716 91.6322 57.4201 91.6349 57.3683C91.6911 57.3549 91.7373 57.3372 91.6783 57.2727C91.6806 57.2209 91.683 57.1694 91.6854 57.1176C91.742 57.1043 91.7885 57.0866 91.7288 57.0221C91.7312 56.9693 91.7335 56.9164 91.7359 56.8636C91.7461 56.8489 91.7562 56.8342 91.7661 56.8195C91.7813 56.5969 91.838 56.3821 91.8875 56.1658C91.9515 56.1504 91.9919 56.1271 91.9224 56.0666C91.9712 55.7641 92.0766 55.4723 92.0926 55.1639C92.1495 55.1502 92.1953 55.1318 92.1346 55.0679C92.1011 54.8811 92.2275 54.7274 92.2465 54.5493C92.2584 54.4363 92.2957 54.3243 92.2953 54.208C92.3052 54.1933 92.3153 54.1786 92.3252 54.1639C92.3587 53.9447 92.4513 53.7361 92.4479 53.5102C92.5048 53.4968 92.5513 53.4788 92.4909 53.4143C92.5404 53.1951 92.5896 52.9761 92.6391 52.7569C92.6533 52.7422 92.6676 52.7275 92.6818 52.7128C92.71 52.6456 92.6883 52.5634 92.7473 52.5056C92.7595 52.4912 92.7717 52.4765 92.7835 52.4621C92.9093 52.2249 93.0239 51.9795 93.2446 51.8068C93.2602 51.79 93.2755 51.7733 93.2911 51.7566C93.2918 51.7269 93.3077 51.7102 93.3362 51.7035C93.3545 51.6918 93.3731 51.6798 93.3914 51.6681C93.4474 51.6353 93.4748 51.5645 93.5484 51.5561C93.5637 51.5437 93.5793 51.5314 93.5945 51.519C94.0244 51.3061 94.4913 51.2262 94.9595 51.1507C94.9768 51.1467 94.9941 51.1424 95.0114 51.1383C95.2775 51.0732 95.5481 51.0488 95.8214 51.0494C95.8393 51.0454 95.8576 51.0414 95.8756 51.0374L95.8739 51.0401ZM67.0577 78.277C67.0404 79.0376 67.0455 79.7983 67.0574 80.5589C67.0611 80.5763 67.0645 80.594 67.0682 80.6114C67.1197 81.0332 67.1621 81.4566 67.2567 81.872C67.4364 82.6601 67.7185 83.4013 68.2566 84.0297C68.5624 84.3869 68.936 84.6623 69.3693 84.8301C70.0979 85.1125 70.8445 85.1212 71.5856 84.8495C71.6551 84.8241 71.7324 84.8114 71.7934 84.7733C72.1823 84.5323 72.5732 84.3037 72.9106 83.9795C73.193 83.7081 73.4605 83.4294 73.7155 83.135C73.8972 82.9254 74.0389 82.6891 74.1979 82.4646C74.4532 82.1046 74.6729 81.7226 74.878 81.3343C75.1825 80.7574 75.4571 80.1662 75.6972 79.5603C75.9654 78.8835 76.2006 78.1957 76.4071 77.4982C76.5956 76.8606 76.7428 76.2126 76.9008 75.5672C76.9618 75.3186 77.0276 75.0679 77.0279 74.8082C77.0923 74.7962 77.1466 74.7795 77.0713 74.7083C77.0778 74.6414 77.0845 74.5746 77.091 74.5078C77.1601 74.4894 77.1923 74.4616 77.1181 74.4062C77.1852 74.2137 77.1439 74.0783 76.956 73.956C76.776 73.8383 76.5997 73.7007 76.4614 73.5312C76.1949 73.2044 75.903 72.8942 75.7189 72.5095C75.5724 72.2034 75.3964 71.905 75.2981 71.5838C75.1364 71.0544 75.0109 70.514 74.9672 69.9565C74.9126 69.2647 74.9062 68.5749 74.9692 67.8841C74.9733 67.8684 74.9774 67.8524 74.9815 67.8367C74.9703 67.5763 75.0208 67.3216 75.0604 67.067C75.1188 66.6927 75.0954 66.3026 75.269 65.9484C75.2893 65.9066 75.27 65.8652 75.2239 65.8468C75.1693 65.8251 75.1133 65.8047 75.0564 65.7896C74.1328 65.5443 73.2317 65.6105 72.3583 65.9918C71.6182 66.315 71.0157 66.8177 70.4946 67.4202C69.7026 68.3363 69.136 69.3824 68.6824 70.4919C68.1816 71.7165 67.8222 72.9824 67.5656 74.2768C67.4018 75.1027 67.2811 75.9345 67.1892 76.7717C67.1374 77.2436 67.1221 77.7178 67.0608 78.1887C67.0594 78.2181 67.0584 78.2479 67.057 78.2773L67.0577 78.277Z" fill="white"/>
<path d="M44.1615 88.8919C44.0089 88.8856 43.8536 88.909 43.7055 88.8512C43.6882 88.8478 43.6709 88.8448 43.6536 88.8415C43.3692 88.8037 43.085 88.7659 42.8006 88.7282C42.7897 88.6737 42.7829 88.6129 42.7043 88.6724C42.6684 88.674 42.6321 88.6754 42.5961 88.677C42.5816 88.663 42.567 88.6493 42.5527 88.6353C42.5158 88.6289 42.4788 88.6229 42.4422 88.6166C42.4273 88.6062 42.412 88.5958 42.3971 88.5858C42.3205 88.5902 42.2476 88.5821 42.1913 88.5226C42.1761 88.4555 42.1527 88.4117 42.0883 88.4885C41.9103 88.4926 41.7899 88.3502 41.6285 88.3121C41.6217 88.2994 41.6112 88.291 41.597 88.287C41.5004 88.2105 41.3875 88.1654 41.2742 88.1209C41.2603 88.1086 41.2461 88.0962 41.2322 88.0838C40.8782 87.9478 40.6249 87.6637 40.3086 87.4726C40.2954 87.4599 40.2818 87.4475 40.2686 87.4348C40.0886 87.2787 39.8841 87.142 39.7363 86.9606C39.6014 86.7951 39.4325 86.6598 39.3169 86.477C39.225 86.3316 39.0715 86.2333 38.9803 86.0826C38.7894 85.7668 38.588 85.457 38.4022 85.1378C38.2011 84.7929 38.0543 84.4236 37.8702 84.0717C37.858 84.057 37.8455 84.0426 37.8333 84.0279C37.758 83.8822 37.7648 83.7071 37.6651 83.57C37.6536 83.5557 37.6417 83.5413 37.6302 83.5269C37.6268 83.3581 37.5064 83.2194 37.5034 83.0507C37.5146 82.9895 37.5068 82.9387 37.4329 82.9233C37.4257 82.906 37.419 82.8889 37.4118 82.8715C37.4017 82.8565 37.3912 82.8415 37.381 82.8261C37.3779 82.7903 37.3745 82.7549 37.3715 82.7191C37.4302 82.6703 37.4013 82.6433 37.3471 82.6222C37.2837 82.4367 37.2203 82.2512 37.1565 82.0658C37.143 82.0514 37.1294 82.037 37.1159 82.0227C37.1182 81.7326 36.9772 81.4739 36.9274 81.1948C36.9145 81.123 36.8979 81.0528 36.8989 80.9793C36.8948 80.9619 36.8907 80.9448 36.8867 80.9278C36.8372 80.7991 36.8097 80.6658 36.7968 80.5291C36.7921 80.5114 36.7877 80.4937 36.7829 80.4759C36.6531 80.0124 36.5948 79.5351 36.4974 79.0653C36.5734 78.9944 36.5191 78.9774 36.4544 78.965C36.4785 78.7016 36.3815 78.449 36.3859 78.1873C36.3812 78.1646 36.3761 78.1418 36.3713 78.1191C36.255 77.4554 36.1791 76.7873 36.1374 76.1152C36.1394 76.0985 36.1357 76.0828 36.1262 76.0688C36.0923 75.902 36.0767 75.7342 36.0865 75.5641C36.0886 75.5474 36.0848 75.532 36.0757 75.5176C36.0367 75.3345 36.0316 75.149 36.0353 74.9632C36.0313 74.9472 36.0272 74.9314 36.0231 74.9154C35.9852 74.7008 35.9824 74.4843 35.9821 74.2674C35.9777 74.249 35.9729 74.2306 35.9685 74.2122C35.9597 74.1086 35.9512 74.0054 35.9424 73.9018C36.0082 73.8336 36.0082 73.7677 35.936 73.7039C35.9184 73.3216 35.8672 72.9409 35.8828 72.5572C35.8777 72.5248 35.8726 72.4927 35.8675 72.4603C35.838 72.1091 35.8224 71.7575 35.8319 71.4049C35.8299 71.3608 35.8282 71.3167 35.8261 71.2726C35.8221 71.2609 35.8163 71.2495 35.8146 71.2375C35.8139 71.2328 35.8221 71.2271 35.8261 71.2218C35.8272 71.182 35.8444 71.1302 35.7868 71.1202C35.7468 71.1131 35.7373 71.1536 35.7322 71.187C35.5325 71.6622 35.3006 72.1231 35.0802 72.589C34.8884 72.9944 34.7043 73.4035 34.5096 73.8078C34.3377 74.1651 34.1645 74.522 33.9967 74.8813C33.7404 75.4301 33.4742 75.9742 33.2145 76.5209C32.8772 77.2311 32.5195 77.9313 32.1869 78.6428C31.6858 79.7139 31.128 80.7567 30.5978 81.8131C30.2821 82.4414 29.9668 83.0711 29.624 83.685C29.1172 84.5924 28.6205 85.5054 28.0817 86.3961C27.7956 86.8686 27.5149 87.3389 27.1355 87.7443C26.8425 88.0571 26.5076 88.3188 26.1319 88.5313C25.4823 88.899 24.7717 88.9845 24.0407 88.9965C23.2263 89.0099 22.4214 88.9123 21.6162 88.8127C21.3399 88.7786 21.0663 88.7258 20.7852 88.7212C20.6557 88.7192 20.5367 88.6333 20.4001 88.6303C20.1044 88.6236 19.8196 88.5541 19.5355 88.4802C19.3195 88.4237 19.1083 88.3549 18.8883 88.3074C18.6893 88.2646 18.4841 88.1433 18.3122 88.0237C17.8874 87.7286 17.484 87.4004 17.3304 86.8727C17.2758 86.6852 17.1646 86.5207 17.1025 86.3339C17.0361 86.1337 16.9635 85.9275 16.9479 85.726C16.9313 85.5088 16.8439 85.3153 16.8083 85.1067C16.7862 84.9777 16.7947 84.8467 16.7615 84.719C16.6333 84.2301 16.5828 83.7278 16.5085 83.2298C16.4336 82.7268 16.3689 82.2222 16.3102 81.7169C16.2437 81.1457 16.1844 80.5735 16.1542 79.999C16.1522 79.9576 16.1549 79.9158 16.1553 79.874C16.157 79.8567 16.1532 79.8409 16.1434 79.8266C16.0539 79.5178 16.1132 79.2003 16.0854 78.8881C16.0573 78.568 16.0485 78.2471 16.0512 77.9259C16.0457 77.9072 16.0407 77.8885 16.0352 77.8695C15.9922 76.5112 15.9864 75.1534 16.0369 73.7955C16.0424 73.7631 16.0481 73.731 16.0535 73.6986C16.0437 73.2955 16.0552 72.8928 16.0905 72.4911C16.0952 72.4593 16.0997 72.4276 16.1044 72.3958C16.0986 72.1104 16.1075 71.8257 16.1403 71.5416C16.1444 71.5235 16.1488 71.5058 16.1529 71.4878C16.1559 71.0042 16.2003 70.5229 16.2404 70.042C16.3071 69.2382 16.3804 68.4345 16.4621 67.632C16.5279 66.9857 16.6021 66.34 16.6862 65.696C16.8083 64.7619 16.9313 63.8278 17.0744 62.897C17.2327 61.8673 17.408 60.8406 17.5979 59.8159C17.765 58.9146 17.94 58.0149 18.1302 57.1179C18.1437 57.053 18.1434 56.9852 18.1498 56.919C18.2061 56.9083 18.2675 56.9006 18.2051 56.8234C18.1546 56.7228 18.2675 56.657 18.2614 56.5658C18.2719 56.5497 18.2827 56.5334 18.2933 56.5173C18.2987 56.4769 18.2909 56.4277 18.3112 56.3973C18.4367 56.2108 18.5296 56.0097 18.6147 55.8031C18.7276 55.5304 18.9568 55.3473 19.1632 55.1481C19.229 55.0846 19.2992 55.0254 19.3673 54.9643C19.3819 54.9472 19.3968 54.9302 19.4114 54.9131C19.4792 54.8637 19.547 54.8139 19.6148 54.7644C19.6311 54.755 19.6474 54.746 19.6633 54.7367C19.7972 54.5963 19.9868 54.5569 20.1543 54.479C20.2929 54.4145 20.4401 54.3687 20.5838 54.3142C20.5977 54.3139 20.6106 54.3099 20.6225 54.3022C20.9093 54.2126 21.1999 54.1411 21.5003 54.1144C21.5298 54.109 21.5589 54.1037 21.5884 54.0983C21.6864 54.0599 21.7895 54.0572 21.8929 54.0589C21.9105 54.0555 21.9281 54.0522 21.9458 54.0489C22.2329 54.0014 22.5208 53.958 22.8134 53.961C22.83 53.963 22.8456 53.9593 22.8602 53.9506C23.148 53.9041 23.4382 53.9021 23.7288 53.9105C23.7613 53.9055 23.7942 53.9001 23.8268 53.8951C24.2645 53.8691 24.7022 53.851 25.1406 53.8664C25.9709 53.8958 26.3648 54.3821 26.3187 55.1461C26.2997 55.4599 26.2228 55.7687 26.1421 56.0738C26.1309 56.0855 26.1248 56.0996 26.1234 56.1156C26.0668 56.4201 26.0132 56.7249 25.9526 57.0286C25.8658 57.4624 25.7739 57.8952 25.6844 58.3287C25.6732 58.3404 25.6671 58.3544 25.6657 58.3705C25.6356 58.7134 25.5562 59.0473 25.4793 59.3818C25.4691 59.3935 25.4633 59.4069 25.4623 59.4222C25.4579 59.5108 25.467 59.6014 25.4243 59.6846C25.4162 59.696 25.4118 59.7083 25.4111 59.7224C25.4064 59.7929 25.4148 59.8654 25.3809 59.9316C25.3691 59.9433 25.3623 59.9576 25.3609 59.9743C25.3599 60.1485 25.3233 60.3166 25.2772 60.4833C25.2663 60.495 25.2602 60.5087 25.2589 60.5248C25.2575 60.7166 25.2151 60.9021 25.1711 61.0873C25.1619 61.1006 25.1578 61.115 25.1589 61.131C25.067 61.7035 24.9758 62.2764 24.8829 62.8489C24.8646 62.9628 24.8412 63.0761 24.8202 63.1898C24.8154 63.2075 24.8107 63.2248 24.8059 63.2426C24.7768 63.5036 24.7456 63.7616 24.6734 64.0186C24.6222 64.2007 24.6506 64.4066 24.6123 64.5994C24.5432 64.9463 24.5432 65.3033 24.4587 65.6482C24.456 65.6646 24.453 65.6813 24.4499 65.6976C24.4516 65.816 24.4523 65.9343 24.4103 66.0479C24.4069 66.0653 24.4031 66.0823 24.3997 66.0997C24.4004 66.218 24.4025 66.3363 24.3584 66.4493C24.355 66.4663 24.3519 66.483 24.3485 66.5001C24.3404 66.8573 24.2757 67.2093 24.2373 67.5632C24.1597 68.2784 24.0794 68.9929 24.0305 69.7105C24.0261 69.7763 24.0112 69.8415 24.0014 69.907C23.9926 69.921 23.9892 69.9364 23.9909 69.9528C23.9993 70.1556 23.981 70.3568 23.9525 70.5573C23.9424 70.5717 23.9383 70.5874 23.94 70.6045C23.941 70.8234 23.94 71.0423 23.901 71.2592C23.8915 71.2736 23.8875 71.2889 23.8891 71.306C23.8997 71.5753 23.8773 71.843 23.8508 72.1104C23.8468 72.1261 23.8427 72.1418 23.8383 72.1575C23.8451 72.4767 23.8298 72.7955 23.8024 73.1134C23.7973 73.1454 23.7925 73.1772 23.7874 73.2093C23.7905 73.6414 23.7742 74.0725 23.7556 74.5047C23.7328 75.0274 23.7451 75.5517 23.7423 76.0754C23.741 76.3502 23.7403 76.6249 23.7393 76.8993C23.7359 76.9678 23.7183 77.0373 23.7549 77.1028C23.7668 77.6362 23.7783 78.1696 23.7901 78.7033C23.7952 78.7217 23.8 78.7404 23.8051 78.7588C23.8169 79.0746 23.8291 79.3901 23.841 79.7059C23.8454 79.724 23.8495 79.742 23.8539 79.7601C23.88 79.9937 23.8959 80.228 23.8891 80.4632C23.8871 80.48 23.8908 80.4953 23.8997 80.5094C23.937 80.7096 23.9407 80.9117 23.94 81.1143C23.938 81.1313 23.942 81.1467 23.9512 81.1611C24.0085 81.3412 23.9688 81.528 23.9949 81.7122C24.0654 82.2138 24.1119 82.7185 24.1716 83.2218C24.1977 83.4424 24.2319 83.6616 24.2702 83.935C24.4126 83.668 24.5337 83.448 24.6479 83.2245C24.9873 82.5617 25.3413 81.9057 25.6573 81.2323C25.999 80.5043 26.392 79.8012 26.7269 79.0709C26.9829 78.5128 27.2775 77.9737 27.5284 77.4129C27.8064 76.7913 28.1316 76.1904 28.4279 75.5765C28.7313 74.9478 29.0243 74.3145 29.3226 73.6835C29.6173 73.0609 29.9143 72.4393 30.2072 71.816C30.4344 71.333 30.6564 70.8478 30.8812 70.3638C31.027 70.0497 31.1823 69.7395 31.3176 69.421C31.4464 69.1176 31.5952 68.8228 31.7268 68.5204C31.8383 68.2637 31.9716 68.0137 32.0882 67.7574C32.5012 66.8507 32.9178 65.9453 33.3169 65.0329C33.6898 64.1807 34.0719 63.3325 34.4432 62.4796C34.729 61.8228 35.0168 61.1665 35.3094 60.5121C35.3437 60.4352 35.3759 60.359 35.3895 60.2758C35.5102 60.2434 35.5244 60.1515 35.521 60.0489C35.6342 59.6819 35.8105 59.3397 35.9584 58.9864C36.1377 58.557 36.3272 58.1309 36.531 57.7118C36.6958 57.3732 36.8894 57.0464 37.1515 56.7706C37.2867 56.6286 37.4688 56.532 37.6576 56.4759C37.9448 56.3903 38.234 56.3188 38.5398 56.2977C38.7351 56.2844 38.9331 56.2272 39.1325 56.1991C39.3854 56.1637 39.6377 56.156 39.8913 56.1607C39.9275 56.1667 39.9635 56.1681 39.996 56.1463C40.1706 56.1273 40.3452 56.129 40.5198 56.145C40.5385 56.15 40.5575 56.1554 40.5761 56.1604C41.0596 56.1504 41.5376 56.2152 42.014 56.2804C42.2174 56.3081 42.4185 56.3713 42.6124 56.4411C42.8291 56.519 42.9847 56.6821 43.0542 56.8953C43.1193 57.0955 43.2088 57.2907 43.2095 57.5106C43.2112 57.9684 43.2223 58.426 43.1779 58.8828C43.1701 58.9647 43.1759 59.0483 43.1752 59.1308C43.1698 59.1629 43.1644 59.1953 43.1589 59.2274C43.1589 59.5559 43.1678 59.8844 43.1298 60.212C43.1193 60.3009 43.1264 60.3914 43.1257 60.4813C43.1206 60.4997 43.1159 60.5181 43.1108 60.5365C43.1061 60.6421 43.1342 60.7477 43.0732 60.852C43.0176 60.9469 43.124 61.0334 43.1105 61.1384C43.0847 61.3352 43.085 61.5358 43.0745 61.7346C43.0698 61.753 43.065 61.771 43.0603 61.7894C43.0708 62.2058 43.0393 62.6209 43.0254 63.0367C43.0203 63.0551 43.0149 63.0738 43.0094 63.0922C42.9976 63.5413 42.9857 63.9905 42.9738 64.4397C42.9687 64.4581 42.9637 64.4764 42.9586 64.4952C42.9464 65.0453 42.9342 65.5957 42.922 66.1458C42.9165 66.1782 42.9108 66.2103 42.9053 66.2427C42.9016 66.9579 42.9213 67.6745 42.8884 68.3883C42.8525 69.1701 42.9182 69.9494 42.9026 70.7301C42.8931 71.195 42.9077 71.6606 42.926 72.1254C42.9399 72.4824 42.9637 72.8386 42.9562 73.1959C42.9545 73.213 42.9582 73.2287 42.9681 73.2427C42.9986 73.7931 43.0294 74.3439 43.0599 74.8944C43.0633 74.9117 43.0667 74.9291 43.0705 74.9465C43.1033 75.13 43.1152 75.3148 43.1088 75.5009C43.1067 75.5176 43.1105 75.533 43.1193 75.5471C43.1522 75.9859 43.2132 76.422 43.26 76.8595C43.2837 77.0821 43.3325 77.3036 43.3386 77.5262C43.3471 77.8407 43.4461 78.1405 43.4671 78.4517C43.4705 78.469 43.4739 78.4864 43.4773 78.5041C43.5173 78.6863 43.5604 78.8677 43.5678 79.0552C43.5719 79.0723 43.576 79.0893 43.58 79.1064C43.6214 79.2578 43.6651 79.4085 43.6655 79.5672C43.6668 79.5833 43.6729 79.5973 43.6841 79.6093C43.8272 80.2092 43.9598 80.8118 44.174 81.3927C44.4131 82.0397 44.6633 82.6814 45.1349 83.2081C45.4271 83.5343 45.7726 83.7779 46.2293 83.807C46.5351 83.8264 46.8274 83.7766 47.0678 83.5593C47.1461 83.4885 47.2407 83.4353 47.3278 83.3742C47.3437 83.3632 47.36 83.3518 47.376 83.3408C47.7865 82.9327 48.1544 82.4935 48.407 81.9698C48.4202 81.9551 48.4334 81.9404 48.4466 81.9257C48.6436 81.6173 48.8057 81.2931 48.9057 80.9408C48.9159 80.9054 48.9305 80.8817 48.9667 80.8723C49.0237 80.8576 49.0813 80.8436 49.0142 80.772C49.1105 80.5963 49.159 80.4027 49.2244 80.2159C49.2363 80.2009 49.2481 80.1859 49.26 80.1708C49.2668 80.1534 49.2739 80.1361 49.2807 80.1183C49.3475 80.1006 49.3834 80.0742 49.3102 80.0171C49.2959 79.9389 49.3363 79.878 49.3766 79.8172C49.4987 79.7908 49.4529 79.6929 49.4634 79.6187L49.4841 79.5669C49.6265 79.4098 49.6903 79.227 49.6713 79.0168L49.777 78.6144C49.8961 78.5659 49.9208 78.4797 49.8791 78.3671C49.8828 78.3327 49.8866 78.2986 49.8903 78.2642C49.9466 78.2505 49.9957 78.2337 49.9337 78.1682C49.9323 78.1328 49.931 78.0974 49.93 78.0623C49.9442 78.0476 49.9581 78.0329 49.9723 78.0185C49.9784 77.9824 49.9845 77.9467 49.991 77.9106C50.0015 77.8959 50.0123 77.8812 50.0229 77.8661C50.0259 77.8147 50.029 77.7632 50.032 77.7117C50.0462 77.6973 50.0601 77.6833 50.0744 77.6689C50.0812 77.6335 50.0883 77.5984 50.0951 77.563C50.152 77.549 50.1985 77.5306 50.1368 77.4667C50.1388 77.432 50.1405 77.3972 50.1425 77.3625C50.2514 77.307 50.2887 77.2264 50.2314 77.1135L50.2398 77.0116C50.3019 76.9982 50.3517 76.9798 50.2812 76.9126C50.2843 76.8789 50.2873 76.8451 50.2904 76.811C50.3524 76.7977 50.4026 76.7796 50.3321 76.7121C50.3351 76.6783 50.3382 76.6443 50.3412 76.6105C50.4219 76.5955 50.4304 76.5423 50.4141 76.4762C50.4389 76.3037 50.4639 76.1316 50.4887 75.9591C50.5724 75.9468 50.5833 75.8933 50.5663 75.8244C50.5823 75.5618 50.6643 75.3121 50.7226 75.0574C50.7813 75.0317 50.8003 75.0003 50.7369 74.9575C50.7701 74.6507 50.8206 74.3473 50.9247 74.0548C51.0105 74.0167 50.9834 73.9452 50.9783 73.88C50.9939 73.5655 51.0769 73.2614 51.1281 72.9523C51.217 72.9095 51.1868 72.8363 51.177 72.7681C51.18 72.6415 51.1888 72.5158 51.2248 72.3931C51.2793 72.334 51.3339 72.2745 51.2441 72.201C51.2509 72.1341 51.2576 72.0673 51.2644 72.0005C51.3305 71.9834 51.3658 71.9573 51.2946 71.9002C51.3048 71.8641 51.3146 71.828 51.3248 71.7919C51.3295 71.7742 51.3343 71.7568 51.339 71.7391C51.38 71.2849 51.4512 70.8351 51.5323 70.3869C51.5357 70.3699 51.5387 70.3528 51.5421 70.3358C51.6011 69.8244 51.6686 69.3138 51.7164 68.8014C51.7618 68.3135 51.8374 67.8289 51.8601 67.3379C51.8788 66.9339 51.9432 66.5318 51.9876 66.1288C51.9913 66.1111 51.9954 66.0933 51.9991 66.0756C51.9974 65.8751 52.0029 65.6753 52.0388 65.4774C52.0425 65.4597 52.0463 65.4423 52.05 65.4246C52.0547 64.9333 52.0927 64.4444 52.149 63.9561C52.149 63.9237 52.149 63.8913 52.149 63.8585C52.1622 63.5293 52.1758 63.2001 52.189 62.8709C52.1944 62.8388 52.1995 62.8064 52.2049 62.7743C52.1965 62.3218 52.2192 61.87 52.2392 61.4181C52.2609 61.386 52.2592 61.3509 52.2531 61.3152C52.2575 60.7323 52.2646 60.1495 52.2656 59.5666C52.2666 58.9336 52.2615 58.3003 52.2592 57.6673C52.2592 57.6523 52.2595 57.6369 52.2592 57.6219C52.2582 57.4394 52.2568 57.2569 52.2558 57.0741C52.2602 57.0393 52.2602 57.0056 52.2378 56.9758C52.2259 56.5263 52.2144 56.0768 52.2026 55.6273C52.1975 55.6086 52.1924 55.5899 52.1873 55.5715C52.1754 55.256 52.1636 54.9405 52.1517 54.6247C52.1473 54.6063 52.1425 54.5883 52.1381 54.5699C52.1107 54.3212 52.093 54.0723 52.1012 53.8219C52.0978 53.8046 52.0941 53.7868 52.0907 53.7695C52.0544 53.5696 52.0463 53.3677 52.0527 53.1652C52.0507 53.1385 52.0486 53.1117 52.0466 53.085C52.0286 52.9841 52.0283 52.8831 52.0466 52.7819C52.0486 52.7555 52.0503 52.7291 52.0524 52.7023C52.0581 52.5877 52.0639 52.4727 52.0697 52.3581C52.1314 52.3447 52.1819 52.327 52.1117 52.2592C52.1151 52.2254 52.1188 52.1913 52.1222 52.1576C52.2141 52.1198 52.2727 52.0667 52.2175 51.9601C52.287 51.7305 52.4199 51.5456 52.6175 51.4059C52.6328 51.3949 52.6481 51.3839 52.6633 51.3732C52.7247 51.3184 52.7942 51.2776 52.8749 51.2566C52.8891 51.2459 52.9034 51.2355 52.9173 51.2248C53.1912 51.1376 53.4723 51.0981 53.7598 51.0961C53.7818 51.0935 53.8039 51.0908 53.8262 51.0881C54.4399 51.037 55.0549 51.0113 55.6703 51.0049C56.286 50.9986 56.9027 50.9848 57.5164 51.058C57.715 51.0818 57.9134 51.1095 58.1121 51.1356C58.1239 51.1473 58.1385 51.154 58.1555 51.1553C58.6783 51.2241 59.1499 51.4136 59.5716 51.7288C59.9619 52.0206 60.1775 52.4256 60.3196 52.8688C60.4304 53.214 60.5091 53.5703 60.5043 53.9379C60.5067 53.9593 60.5091 53.981 60.5115 54.0024C60.5508 54.4265 60.5532 54.8506 60.5165 55.2751C60.5067 55.3904 60.5148 55.5073 60.5145 55.6236C60.5091 55.6561 60.5033 55.6881 60.4979 55.7206C60.5043 56.2914 60.4586 56.8595 60.4081 57.4277C60.3982 57.4421 60.3945 57.4578 60.3962 57.4748C60.4003 57.6613 60.3945 57.8468 60.3555 58.0299C60.3467 58.044 60.3433 58.059 60.3453 58.0754C60.2935 58.2408 60.3643 58.4156 60.3057 58.5804C60.2965 58.5944 60.2928 58.6098 60.2945 58.6265C60.2345 59.315 60.1748 60.0038 60.051 60.6852C60.048 60.7019 60.0449 60.7186 60.0419 60.7353C60.0368 60.9726 59.9982 61.2052 59.948 61.4365C59.9398 61.4482 59.9358 61.4609 59.9354 61.4749C59.9286 61.5622 59.9442 61.6524 59.9019 61.7353C59.8975 61.7523 59.893 61.7694 59.8886 61.7864C59.8927 61.991 59.8398 62.1875 59.8018 62.386C59.7971 62.4037 59.7924 62.4211 59.7876 62.4388C59.7679 62.7255 59.7073 63.0056 59.6506 63.2867C59.6388 63.2984 59.632 63.3127 59.6306 63.3295C59.6001 63.6881 59.5225 64.0386 59.4459 64.3896C59.4347 64.4013 59.4282 64.4153 59.4272 64.4313C59.3896 64.8447 59.2841 65.2461 59.199 65.6505C59.1329 65.966 59.0936 66.2885 58.9861 66.595C58.9763 66.6067 58.9705 66.6201 58.9695 66.6351C58.9715 66.7778 58.9295 66.9115 58.8861 67.0452C58.8752 67.0569 58.8691 67.0709 58.8678 67.0866C58.8149 67.3446 58.7749 67.606 58.7064 67.86C58.6169 68.1925 58.5389 68.5277 58.4514 68.8602C58.1229 70.1065 57.7967 71.3541 57.3963 72.5806C57.1926 73.2046 56.9464 73.8162 56.7535 74.4418C56.5521 75.0945 56.3111 75.7305 56.0676 76.3665C55.6957 77.3384 55.2922 78.2982 54.8484 79.2404C54.5647 79.8433 54.267 80.4405 53.954 81.0291C53.2048 82.4387 52.3653 83.7943 51.3577 85.0412C50.7942 85.7384 50.1829 86.3931 49.495 86.9779C48.9559 87.4361 48.3802 87.8399 47.7591 88.1747C47.2081 88.4715 46.6219 88.6871 45.9971 88.803C45.7485 88.8492 45.5044 88.8846 45.2535 88.8893C45.2352 88.8936 45.2169 88.898 45.199 88.902C44.8714 88.9203 44.5439 88.9501 44.2164 88.901C44.1984 88.897 44.1808 88.8933 44.1629 88.8893L44.1615 88.8919Z" fill="white"/>
<path d="M105.243 75.7116C105.283 75.7427 105.275 75.7781 105.26 75.8202C105.203 75.982 105.147 76.1444 105.094 76.3078C105.078 76.3573 105.064 76.4014 105.005 76.4118C105.053 76.1678 105.133 75.9345 105.243 75.7116Z" fill="#0EBFE1"/>
<path d="M49.6686 79.0186C49.6876 79.2288 49.6238 79.4119 49.4814 79.5687C49.512 79.3748 49.5794 79.193 49.6686 79.0186Z" fill="#0EBFE1"/>
<path d="M105.235 67.6489C105.319 67.5646 105.405 67.569 105.493 67.6432C105.409 67.723 105.322 67.706 105.235 67.6489Z" fill="#0EBFE1"/>
<path d="M104.826 76.9498C104.809 77.0494 104.818 77.161 104.7 77.2139C104.715 77.1136 104.707 77.0023 104.826 76.9498Z" fill="#0EBFE1"/>
<path d="M50.2295 77.1146C50.2868 77.2276 50.2495 77.3081 50.1406 77.3636C50.1484 77.273 50.1484 77.1798 50.2295 77.1146Z" fill="#0EBFE1"/>
<path d="M49.8765 78.3689C49.9182 78.4815 49.8938 78.5678 49.7744 78.6162C49.7961 78.5286 49.7842 78.4281 49.8765 78.3689Z" fill="#0EBFE1"/>
<path d="M35.5192 60.0503C35.523 60.1526 35.5084 60.2448 35.3877 60.2772C35.3965 60.182 35.4152 60.0921 35.5192 60.0503Z" fill="#0EBFE1"/>
<path d="M35.9355 73.705C36.0074 73.7689 36.0077 73.8347 35.9419 73.9029C35.8541 73.8397 35.8612 73.7732 35.9355 73.705Z" fill="#0EBFE1"/>
<path d="M110.273 88.8754C110.361 88.8205 110.446 88.8115 110.526 88.8887C110.437 88.9846 110.358 88.8723 110.273 88.8754Z" fill="#0EBFE1"/>
<path d="M106.054 70.0983C106.144 70.1721 106.089 70.2313 106.034 70.2904C106.033 70.2256 105.953 70.1527 106.054 70.0983Z" fill="#0EBFE1"/>
<path d="M51.2421 72.2028C51.332 72.2763 51.2774 72.3358 51.2228 72.3949C51.2221 72.3301 51.1411 72.2576 51.2421 72.2028Z" fill="#0EBFE1"/>
<path d="M49.4611 79.6205C49.4506 79.6943 49.4963 79.7923 49.3743 79.819C49.3628 79.7358 49.397 79.6716 49.4611 79.6205Z" fill="#0EBFE1"/>
<path d="M107.609 61.9941C107.642 62.0806 107.591 62.1485 107.558 62.2203C107.53 62.1351 107.498 62.0489 107.609 61.9941Z" fill="#0EBFE1"/>
<path d="M64.4648 88.0338C64.5432 88.0425 64.6452 88.0047 64.6642 88.1314C64.5801 88.1341 64.5181 88.0923 64.4648 88.0338Z" fill="#0EBFE1"/>
<path d="M107.914 60.3404C107.947 60.4266 107.896 60.4941 107.864 60.5663C107.835 60.4814 107.802 60.3955 107.914 60.3404Z" fill="#0EBFE1"/>
<path d="M51.1749 72.7699C51.1847 72.8381 51.2152 72.9113 51.1261 72.954C51.0684 72.8738 51.0898 72.8137 51.1749 72.7699Z" fill="#0EBFE1"/>
<path d="M50.9763 73.8818C50.9814 73.947 51.0085 74.0185 50.9227 74.0566C50.8674 73.9768 50.879 73.9166 50.9763 73.8818Z" fill="#0EBFE1"/>
<path d="M108.505 57.2751C108.56 57.3339 108.556 57.3834 108.481 57.4211C108.452 57.3667 108.408 57.3092 108.505 57.2751Z" fill="#0EBFE1"/>
<path d="M110.071 88.8282C110.151 88.7621 110.2 88.7788 110.22 88.8797C110.165 88.88 110.097 88.9135 110.071 88.8282Z" fill="#0EBFE1"/>
<path d="M104.164 78.4521C104.172 78.5176 104.148 78.5594 104.077 78.5661C104.057 78.4919 104.103 78.4668 104.164 78.4521Z" fill="#0EBFE1"/>
<path d="M102.138 64.9371C102.209 64.9946 102.173 65.0206 102.107 65.0373C102.083 64.9936 102.077 64.9558 102.138 64.9371Z" fill="#0EBFE1"/>
<path d="M36.4535 78.9658C36.5183 78.9781 36.5725 78.9948 36.4966 79.066C36.4362 79.0517 36.4468 79.0082 36.4535 78.9658Z" fill="#0EBFE1"/>
<path d="M49.3082 80.0189C49.3814 80.076 49.3455 80.1024 49.2787 80.1201C49.2651 80.0797 49.2482 80.0386 49.3082 80.0189Z" fill="#0EBFE1"/>
<path d="M102.041 65.6904C102.092 65.7275 102.083 65.7596 102.033 65.789C101.963 65.7506 101.971 65.7182 102.041 65.6904Z" fill="#0EBFE1"/>
<path d="M49.9316 78.1697C49.9933 78.2352 49.9442 78.2519 49.8882 78.2656C49.8625 78.2158 49.873 78.182 49.9316 78.1697Z" fill="#0EBFE1"/>
<path d="M50.1349 77.4682C50.1962 77.532 50.1501 77.5504 50.0932 77.5645C50.0678 77.5157 50.0701 77.4789 50.1349 77.4682Z" fill="#0EBFE1"/>
<path d="M104.636 77.3663C104.704 77.4385 104.645 77.4522 104.589 77.4665C104.586 77.4248 104.566 77.3743 104.636 77.3663Z" fill="#0EBFE1"/>
<path d="M49.0123 80.7738C49.0794 80.8453 49.0218 80.8597 48.9648 80.8741C48.9621 80.832 48.9414 80.7818 49.0123 80.7738Z" fill="#0EBFE1"/>
<path d="M50.2789 76.9141C50.3494 76.9812 50.2995 76.9996 50.2375 77.013C50.2199 76.9672 50.2172 76.9274 50.2789 76.9141Z" fill="#0EBFE1"/>
<path d="M42.7041 88.6728C42.7828 88.6133 42.7899 88.6741 42.8004 88.7286C42.7526 88.7363 42.7119 88.732 42.7041 88.6728Z" fill="#0EBFE1"/>
<path d="M23.7533 77.1033C23.7167 77.0377 23.7343 76.9682 23.7377 76.8997C23.7902 76.9639 23.7767 77.0334 23.7533 77.1033Z" fill="#0EBFE1"/>
<path d="M50.3307 76.7136C50.4012 76.7811 50.351 76.7991 50.289 76.8125C50.2717 76.7667 50.269 76.7269 50.3307 76.7136Z" fill="#0EBFE1"/>
<path d="M106.185 69.4599C106.205 69.5234 106.204 69.5772 106.124 69.5973C106.079 69.5231 106.137 69.4937 106.185 69.4599Z" fill="#0EBFE1"/>
<path d="M50.4125 76.4776C50.4288 76.5438 50.4206 76.5969 50.3396 76.6119C50.3053 76.5364 50.3616 76.5083 50.4125 76.4776Z" fill="#0EBFE1"/>
<path d="M108.71 56.3737C108.769 56.4399 108.721 56.4563 108.665 56.4693C108.642 56.4202 108.644 56.3824 108.71 56.3737Z" fill="#0EBFE1"/>
<path d="M50.5651 75.8259C50.582 75.8947 50.5712 75.9482 50.4874 75.9606C50.4647 75.8884 50.5101 75.8546 50.5651 75.8259Z" fill="#0EBFE1"/>
<path d="M18.2038 56.8239C18.2662 56.9011 18.2048 56.9088 18.1486 56.9195C18.1408 56.8727 18.1442 56.8326 18.2038 56.8239Z" fill="#0EBFE1"/>
<path d="M37.3455 82.6234C37.3998 82.6444 37.4289 82.6715 37.3699 82.7203C37.2926 82.7049 37.3259 82.6625 37.3455 82.6234Z" fill="#0EBFE1"/>
<path d="M108.629 56.7851C108.646 56.8479 108.642 56.9014 108.564 56.9201C108.521 56.8446 108.583 56.8185 108.629 56.7851Z" fill="#0EBFE1"/>
<path d="M106.103 69.7975C106.175 69.8553 106.139 69.881 106.073 69.8981C106.048 69.8543 106.043 69.8165 106.103 69.7975Z" fill="#0EBFE1"/>
<path d="M91.7271 57.0251C91.7868 57.0896 91.7403 57.1073 91.6837 57.1207C91.659 57.0715 91.6603 57.0338 91.7271 57.0251Z" fill="#0EBFE1"/>
<path d="M91.6764 57.2758C91.7354 57.3399 91.6893 57.358 91.633 57.3713C91.6083 57.3222 91.6093 57.2844 91.6764 57.2758Z" fill="#0EBFE1"/>
<path d="M37.4319 82.9238C37.5058 82.9391 37.5133 82.9899 37.5024 83.0511C37.4438 83.0277 37.397 82.9976 37.4319 82.9238Z" fill="#0EBFE1"/>
<path d="M50.7352 74.9593C50.7986 75.0021 50.7797 75.0331 50.721 75.0592C50.7017 75.0228 50.6657 74.9837 50.7352 74.9593Z" fill="#0EBFE1"/>
<path d="M91.6259 57.5264C91.6849 57.5912 91.6382 57.6086 91.5819 57.6216C91.5575 57.5725 91.5588 57.5347 91.6259 57.5264Z" fill="#0EBFE1"/>
<path d="M91.5749 57.7767C91.6346 57.8416 91.5875 57.8589 91.5309 57.8723C91.5068 57.8232 91.5081 57.7854 91.5749 57.7767Z" fill="#0EBFE1"/>
<path d="M88.5426 74.4205C88.564 74.4904 88.5538 74.5435 88.4687 74.5576C88.4467 74.4874 88.4904 74.4516 88.5426 74.4205Z" fill="#0EBFE1"/>
<path d="M91.5241 58.027C91.5842 58.0922 91.5367 58.1096 91.4801 58.1226C91.456 58.0735 91.4574 58.0357 91.5241 58.027Z" fill="#0EBFE1"/>
<path d="M91.4731 58.2777C91.5335 58.3432 91.4857 58.3603 91.4291 58.3733C91.4053 58.3242 91.4067 58.2864 91.4731 58.2777Z" fill="#0EBFE1"/>
<path d="M105.252 83.9766C105.314 83.9899 105.364 84.008 105.294 84.0755C105.232 84.0621 105.235 84.0223 105.252 83.9766Z" fill="#0EBFE1"/>
<path d="M66.1895 88.6337C66.2623 88.5609 66.2783 88.615 66.2905 88.6779C66.2474 88.6842 66.2023 88.6952 66.1895 88.6337Z" fill="#0EBFE1"/>
<path d="M105.303 84.1771C105.365 84.1908 105.415 84.2091 105.344 84.2763C105.283 84.262 105.285 84.2225 105.303 84.1771Z" fill="#0EBFE1"/>
<path d="M108.066 59.5386C108.086 59.6018 108.085 59.6556 108.006 59.676C107.96 59.6021 108.018 59.5727 108.066 59.5386Z" fill="#0EBFE1"/>
<path d="M65.6104 88.4439C65.6782 88.4335 65.7229 88.4553 65.731 88.5278C65.6575 88.5462 65.6324 88.4974 65.6104 88.4439Z" fill="#0EBFE1"/>
<path d="M88.6951 73.5687C88.7165 73.6385 88.7063 73.6917 88.6212 73.7057C88.5988 73.6352 88.6429 73.5997 88.6951 73.5687Z" fill="#0EBFE1"/>
<path d="M35.7314 71.1881C35.7365 71.1547 35.746 71.1143 35.786 71.1213C35.844 71.1313 35.8264 71.1831 35.8254 71.2229C35.7938 71.2112 35.7626 71.1995 35.7314 71.1878V71.1881Z" fill="#0EBFE1"/>
<path d="M105.355 84.3773C105.411 84.389 105.465 84.4017 105.405 84.4722C105.345 84.4625 105.337 84.4264 105.355 84.3773Z" fill="#0EBFE1"/>
<path d="M105.477 84.6777C105.534 84.6991 105.562 84.7271 105.5 84.7759C105.425 84.7586 105.458 84.7164 105.477 84.6777Z" fill="#0EBFE1"/>
<path d="M93.5947 88.9362C93.6334 88.882 93.6673 88.8901 93.6981 88.9435C93.6591 89.0013 93.6246 89.002 93.5947 88.9362Z" fill="#0EBFE1"/>
<path d="M105.803 71.7031C105.855 71.7409 105.845 71.7733 105.794 71.8021C105.732 71.7636 105.736 71.7309 105.803 71.7031Z" fill="#0EBFE1"/>
<path d="M42.0869 88.489C42.1513 88.4121 42.1747 88.4559 42.19 88.5231C42.1459 88.5405 42.1076 88.5408 42.0869 88.489Z" fill="#0EBFE1"/>
<path d="M51.2928 71.902C51.364 71.9591 51.3288 71.9852 51.2627 72.0022C51.2376 71.9585 51.2328 71.9207 51.2928 71.902Z" fill="#0EBFE1"/>
<path d="M16.1038 72.3966C16.099 72.4284 16.0946 72.4601 16.0899 72.4919C16.0645 72.4558 16.0739 72.4247 16.1038 72.3966Z" fill="#0EBFE1"/>
<path d="M52.2519 61.3167C52.258 61.3524 52.2597 61.3875 52.238 61.4196C52.2139 61.3815 52.218 61.3471 52.2519 61.3167Z" fill="#0EBFE1"/>
<path d="M35.8261 71.2737C35.8282 71.3178 35.8299 71.3619 35.8319 71.406C35.7915 71.3636 35.7888 71.3195 35.8261 71.2737Z" fill="#0EBFE1"/>
<path d="M35.8664 72.4618C35.8715 72.4942 35.8766 72.5263 35.8817 72.5587C35.8515 72.5303 35.842 72.4986 35.8664 72.4618Z" fill="#0EBFE1"/>
<path d="M23.7861 73.2097C23.7912 73.1777 23.796 73.1459 23.8011 73.1138C23.8258 73.1503 23.8156 73.1813 23.7861 73.2097Z" fill="#0EBFE1"/>
<path d="M16.0529 73.6993C16.0475 73.7318 16.0417 73.7638 16.0363 73.7963C16.0132 73.7592 16.0227 73.7277 16.0529 73.6993Z" fill="#0EBFE1"/>
<path d="M43.1582 59.2298C43.1636 59.1977 43.1691 59.1653 43.1745 59.1332C43.1979 59.1703 43.188 59.2018 43.1582 59.2298Z" fill="#0EBFE1"/>
<path d="M52.2366 56.9773C52.259 57.007 52.259 57.0411 52.2546 57.0756C52.2237 57.0471 52.2149 57.0151 52.2366 56.9773Z" fill="#0EBFE1"/>
<path d="M106.458 67.944C106.452 67.974 106.445 68.0038 106.439 68.0335C106.42 67.9984 106.424 67.968 106.458 67.944Z" fill="#0EBFE1"/>
<path d="M107.418 62.758C107.39 62.7841 107.361 62.7855 107.331 62.7631C107.359 62.7453 107.388 62.7457 107.418 62.758Z" fill="#0EBFE1"/>
<path d="M52.2033 62.7758C52.1978 62.8078 52.1928 62.8403 52.1873 62.8723C52.1633 62.8356 52.1731 62.8038 52.2033 62.7758Z" fill="#0EBFE1"/>
<path d="M103.722 67.709C103.754 67.7043 103.787 67.6993 103.82 67.6946C103.791 67.7241 103.759 67.7347 103.722 67.709Z" fill="#0EBFE1"/>
<path d="M42.9033 66.2449C42.9087 66.2125 42.9145 66.1804 42.9199 66.1479C42.9426 66.185 42.9335 66.2165 42.9033 66.2449Z" fill="#0EBFE1"/>
<path d="M23.9379 70.6046C23.9362 70.5872 23.9402 70.5715 23.9504 70.5574C23.9514 70.5691 23.9541 70.5808 23.9528 70.5922C23.9521 70.5969 23.943 70.6005 23.9379 70.6046Z" fill="#0EBFE1"/>
<path d="M68.2617 88.9422C68.2793 88.9455 68.2966 88.9492 68.3143 88.9526C68.2916 88.9753 68.2766 88.9596 68.2617 88.9422Z" fill="#0EBFE1"/>
<path d="M59.4258 64.4338C59.4271 64.4178 59.4332 64.4037 59.4444 64.392C59.4604 64.4158 59.4417 64.4241 59.4258 64.4338Z" fill="#0EBFE1"/>
<path d="M42.957 64.4976C42.9621 64.4792 42.9672 64.4609 42.9723 64.4421C42.9913 64.4672 42.9767 64.4829 42.957 64.4976Z" fill="#0EBFE1"/>
<path d="M65.7311 64.7379C65.7148 64.7543 65.6989 64.7703 65.6826 64.7867C65.6826 64.7546 65.6992 64.7389 65.7311 64.7379Z" fill="#0EBFE1"/>
<path d="M102.182 64.7753C102.179 64.7924 102.175 64.8094 102.172 64.8265C102.17 64.8141 102.167 64.8017 102.167 64.7897C102.167 64.7847 102.177 64.7803 102.182 64.7753Z" fill="#0EBFE1"/>
<path d="M65.5293 64.8967C65.5127 64.91 65.4961 64.9237 65.4795 64.9371C65.4829 64.9077 65.4968 64.891 65.5293 64.8967Z" fill="#0EBFE1"/>
<path d="M67.2025 63.7089C67.1958 63.7209 67.1856 63.729 67.1724 63.733C67.1659 63.7046 67.171 63.6905 67.2025 63.7089Z" fill="#0EBFE1"/>
<path d="M52.049 65.426C52.0452 65.4437 52.0415 65.4611 52.0378 65.4788C52.0361 65.4661 52.0324 65.4531 52.0334 65.4404C52.0334 65.4354 52.0435 65.4307 52.0493 65.426H52.049Z" fill="#0EBFE1"/>
<path d="M24.4482 65.6978C24.4513 65.6814 24.454 65.6647 24.4571 65.6483C24.4591 65.6603 24.4632 65.672 24.4628 65.6841C24.4628 65.6888 24.4537 65.6934 24.4486 65.6978H24.4482Z" fill="#0EBFE1"/>
<path d="M67.5594 63.5003C67.5451 63.512 67.5309 63.5234 67.5166 63.5351C67.516 63.5057 67.5221 63.4846 67.5594 63.5003Z" fill="#0EBFE1"/>
<path d="M24.3978 66.0995C24.4012 66.0821 24.4049 66.065 24.4083 66.0477C24.41 66.06 24.4134 66.0727 24.4127 66.0851C24.4127 66.0901 24.4029 66.0945 24.3975 66.0991L24.3978 66.0995Z" fill="#0EBFE1"/>
<path d="M51.9982 66.0771C51.9944 66.0948 51.9904 66.1125 51.9866 66.1302C51.9714 66.1192 51.9694 66.1058 51.9816 66.0915C51.9863 66.0858 51.9927 66.0818 51.9982 66.0771Z" fill="#0EBFE1"/>
<path d="M24.3477 66.5002C24.351 66.4832 24.3541 66.4661 24.3575 66.4494C24.3595 66.4618 24.3629 66.4741 24.3626 66.4862C24.3626 66.4912 24.3531 66.4955 24.3477 66.5002Z" fill="#0EBFE1"/>
<path d="M58.9678 66.6379C58.9688 66.6225 58.9746 66.6091 58.9844 66.5978C59.001 66.6202 58.983 66.6285 58.9678 66.6379Z" fill="#0EBFE1"/>
<path d="M58.8662 67.0894C58.8676 67.0734 58.8733 67.0597 58.8845 67.048C58.9008 67.0714 58.8821 67.0797 58.8662 67.0894Z" fill="#0EBFE1"/>
<path d="M59.6289 63.3319C59.6303 63.3152 59.637 63.3008 59.6489 63.2891C59.6645 63.3135 59.6452 63.3222 59.6289 63.3319Z" fill="#0EBFE1"/>
<path d="M24.8047 63.2427C24.8094 63.225 24.8142 63.2076 24.8189 63.1899C24.8335 63.2126 24.823 63.2286 24.8047 63.2427Z" fill="#0EBFE1"/>
<path d="M102.284 67.3431C102.302 67.3558 102.32 67.3685 102.338 67.3812C102.305 67.3895 102.292 67.3695 102.284 67.3431Z" fill="#0EBFE1"/>
<path d="M102.799 67.5914C102.815 67.5927 102.829 67.5987 102.841 67.6094C102.818 67.6238 102.808 67.6094 102.799 67.5914Z" fill="#0EBFE1"/>
<path d="M102.902 67.6412L102.947 67.6719C102.909 67.694 102.906 67.6679 102.902 67.6412Z" fill="#0EBFE1"/>
<path d="M103.434 67.701C103.456 67.704 103.478 67.7067 103.5 67.7097C103.475 67.7274 103.454 67.7214 103.434 67.701Z" fill="#0EBFE1"/>
<path d="M43.0078 63.0946C43.0132 63.0759 43.0183 63.0575 43.0237 63.0391C43.0427 63.0645 43.0278 63.0802 43.0078 63.0946Z" fill="#0EBFE1"/>
<path d="M103.864 62.737C103.849 62.7624 103.833 62.7654 103.814 62.7403C103.831 62.7393 103.847 62.7383 103.864 62.737Z" fill="#0EBFE1"/>
<path d="M106.251 69.0863C106.247 69.1033 106.243 69.1201 106.239 69.1371C106.224 69.1157 106.233 69.1 106.251 69.0863Z" fill="#0EBFE1"/>
<path d="M61.8167 69.4522C61.8035 69.4666 61.7903 69.4806 61.7771 69.495C61.7672 69.4599 61.7856 69.4502 61.8167 69.4522Z" fill="#0EBFE1"/>
<path d="M103.55 62.7678C103.533 62.7711 103.515 62.7745 103.498 62.7775C103.513 62.7601 103.528 62.7461 103.55 62.7678Z" fill="#0EBFE1"/>
<path d="M59.7861 62.4412C59.7909 62.4235 59.7956 62.4061 59.8004 62.3884C59.815 62.4112 59.8044 62.4272 59.7861 62.4412Z" fill="#0EBFE1"/>
<path d="M23.9887 69.9529C23.987 69.9365 23.9904 69.9211 23.9992 69.9071C24.0009 69.9181 24.004 69.9295 24.0033 69.9405C24.0033 69.9449 23.9938 69.9489 23.9887 69.9529Z" fill="#0EBFE1"/>
<path d="M61.4075 70.2135C61.4034 70.2276 61.3949 70.2379 61.3821 70.2449C61.3637 70.2132 61.3787 70.2079 61.4075 70.2135Z" fill="#0EBFE1"/>
<path d="M96.2881 70.246C96.2891 70.2303 96.2952 70.2166 96.3061 70.2045C96.3223 70.2276 96.3037 70.2363 96.2881 70.246Z" fill="#0EBFE1"/>
<path d="M83.9468 70.3382C83.9377 70.3242 83.9343 70.3085 83.936 70.2921C83.9434 70.3021 83.9519 70.3118 83.9577 70.3232C83.959 70.3259 83.9505 70.3332 83.9465 70.3386L83.9468 70.3382Z" fill="#0EBFE1"/>
<path d="M51.5404 70.3372C51.537 70.3542 51.5339 70.3713 51.5306 70.3883C51.5285 70.376 51.5248 70.3636 51.5255 70.3512C51.5255 70.3462 51.5353 70.3419 51.5404 70.3369V70.3372Z" fill="#0EBFE1"/>
<path d="M61.3598 70.3546C61.3465 70.3687 61.3333 70.383 61.3197 70.3971C61.3106 70.3623 61.3289 70.3526 61.3598 70.3546Z" fill="#0EBFE1"/>
<path d="M59.8877 61.7889C59.8921 61.7718 59.8965 61.7548 59.9009 61.7377C59.9155 61.7595 59.9057 61.7752 59.8877 61.7889Z" fill="#0EBFE1"/>
<path d="M43.0586 61.7916C43.0633 61.7732 43.0681 61.7551 43.0728 61.7368C43.0928 61.7615 43.0779 61.7769 43.0586 61.7916Z" fill="#0EBFE1"/>
<path d="M105.996 70.5886C105.992 70.6059 105.987 70.6237 105.983 70.641C105.968 70.6186 105.978 70.6026 105.996 70.5886Z" fill="#0EBFE1"/>
<path d="M23.8871 71.3061C23.8854 71.289 23.8891 71.2733 23.899 71.2593C23.9003 71.2706 23.9034 71.2823 23.902 71.2937C23.9017 71.2984 23.8925 71.3021 23.8871 71.3061Z" fill="#0EBFE1"/>
<path d="M105.895 71.2409C105.891 71.258 105.886 71.2747 105.882 71.2917C105.868 71.2703 105.877 71.2546 105.895 71.2409Z" fill="#0EBFE1"/>
<path d="M59.9336 61.477C59.9339 61.463 59.9383 61.4503 59.9461 61.4386C59.9607 61.447 59.9617 61.457 59.9489 61.4677C59.9441 61.4714 59.9387 61.474 59.9336 61.477Z" fill="#0EBFE1"/>
<path d="M16.152 71.4886C16.1479 71.5066 16.1435 71.5243 16.1394 71.5424C16.1381 71.5294 16.1347 71.516 16.1361 71.503C16.1364 71.4976 16.1466 71.4933 16.1523 71.4886H16.152Z" fill="#0EBFE1"/>
<path d="M51.3375 71.7409C51.3328 71.7586 51.328 71.776 51.3233 71.7937C51.3087 71.771 51.3192 71.7549 51.3375 71.7409Z" fill="#0EBFE1"/>
<path d="M25.1574 61.1311C25.1564 61.1151 25.1604 61.1007 25.1696 61.0873C25.1706 61.0984 25.1733 61.1094 25.1723 61.1201C25.172 61.1244 25.1628 61.1274 25.1574 61.1311Z" fill="#0EBFE1"/>
<path d="M105.792 71.8906C105.789 71.9077 105.786 71.925 105.783 71.9421C105.78 71.9297 105.777 71.9174 105.777 71.905C105.777 71.9 105.787 71.8956 105.792 71.8906Z" fill="#0EBFE1"/>
<path d="M23.8369 72.158C23.841 72.1423 23.8454 72.1265 23.8495 72.1108C23.8505 72.1225 23.8532 72.1342 23.8518 72.1456C23.8512 72.1503 23.842 72.154 23.8369 72.158Z" fill="#0EBFE1"/>
<path d="M60.04 60.7374C60.0431 60.7207 60.0461 60.704 60.0492 60.6873C60.0512 60.6993 60.055 60.7117 60.0546 60.7234C60.0546 60.7281 60.0451 60.7328 60.04 60.7374Z" fill="#0EBFE1"/>
<path d="M43.1094 60.5389C43.1145 60.5205 43.1192 60.5021 43.1243 60.4838C43.144 60.5085 43.129 60.5245 43.1094 60.5389Z" fill="#0EBFE1"/>
<path d="M25.2578 60.5252C25.2592 60.5092 25.2653 60.4955 25.2761 60.4838C25.2921 60.5072 25.2737 60.5155 25.2578 60.5252Z" fill="#0EBFE1"/>
<path d="M105.64 72.9427C105.637 72.9601 105.633 72.9771 105.63 72.9945C105.628 72.9821 105.624 72.9694 105.625 72.9571C105.625 72.952 105.635 72.9477 105.64 72.9427H105.64Z" fill="#0EBFE1"/>
<path d="M112.66 73.0025C112.662 72.9858 112.668 72.9714 112.681 72.9594C112.696 72.9838 112.677 72.9925 112.66 73.0025Z" fill="#0EBFE1"/>
<path d="M95.7285 73.1018C95.7292 73.0877 95.7333 73.0747 95.7417 73.063C95.7424 73.0727 95.7448 73.0827 95.7431 73.0921C95.7424 73.0957 95.7336 73.0984 95.7285 73.1014V73.1018Z" fill="#0EBFE1"/>
<path d="M42.9664 73.2452C42.9565 73.2308 42.9528 73.2154 42.9545 73.1984C42.9623 73.2084 42.9708 73.2181 42.9765 73.2294C42.9779 73.2325 42.9701 73.2398 42.9664 73.2455V73.2452Z" fill="#0EBFE1"/>
<path d="M112.561 73.6081C112.56 73.5921 112.564 73.5777 112.573 73.5643C112.574 73.5754 112.577 73.5864 112.576 73.5971C112.575 73.6014 112.566 73.6044 112.561 73.6081Z" fill="#0EBFE1"/>
<path d="M25.3594 59.9745C25.3607 59.9578 25.3675 59.9434 25.3794 59.9317C25.395 59.9561 25.3756 59.9648 25.3594 59.9745Z" fill="#0EBFE1"/>
<path d="M25.4102 59.7225C25.4108 59.7088 25.4152 59.6961 25.4234 59.6847C25.4241 59.6944 25.4264 59.7041 25.4247 59.7134C25.4241 59.7171 25.4152 59.7195 25.4102 59.7225Z" fill="#0EBFE1"/>
<path d="M25.4609 59.4223C25.462 59.407 25.4677 59.3936 25.4779 59.3819C25.4938 59.4043 25.4762 59.413 25.4609 59.4223Z" fill="#0EBFE1"/>
<path d="M105.538 73.6943C105.535 73.7117 105.531 73.7291 105.528 73.7461C105.526 73.7334 105.523 73.721 105.524 73.7083C105.524 73.7033 105.533 73.699 105.539 73.694L105.538 73.6943Z" fill="#0EBFE1"/>
<path d="M60.2924 58.6286C60.2907 58.6119 60.2944 58.5965 60.3036 58.5825C60.3049 58.5938 60.308 58.6052 60.3073 58.6162C60.307 58.6206 60.2978 58.6246 60.2927 58.6286H60.2924Z" fill="#0EBFE1"/>
<path d="M105.487 74.0951C105.483 74.1124 105.48 74.1298 105.476 74.1469C105.474 74.1342 105.471 74.1218 105.472 74.1091C105.472 74.1041 105.482 74.0994 105.487 74.0947L105.487 74.0951Z" fill="#0EBFE1"/>
<path d="M35.9681 74.2133C35.9725 74.2317 35.9772 74.2501 35.9817 74.2685C35.9732 74.2564 35.9633 74.2454 35.9572 74.2324C35.9556 74.2287 35.9644 74.22 35.9681 74.2137V74.2133Z" fill="#0EBFE1"/>
<path d="M25.6641 58.3706C25.6654 58.3545 25.6715 58.3405 25.6827 58.3288C25.699 58.3522 25.68 58.3609 25.6641 58.3706Z" fill="#0EBFE1"/>
<path d="M60.3432 58.0775C60.3415 58.0611 60.3449 58.0461 60.3534 58.032C60.3551 58.0431 60.3581 58.0544 60.3574 58.0655C60.3574 58.0698 60.3479 58.0735 60.3432 58.0778V58.0775Z" fill="#0EBFE1"/>
<path d="M52.2578 57.623C52.2578 57.638 52.2578 57.6534 52.2578 57.6684C52.2446 57.6608 52.2313 57.6531 52.2178 57.6457L52.2578 57.623Z" fill="#0EBFE1"/>
<path d="M36.0227 74.9165C36.0268 74.9325 36.0309 74.9483 36.0349 74.9643C36.0271 74.9539 36.018 74.9442 36.0119 74.9329C36.0105 74.9302 36.0187 74.9222 36.0227 74.9168V74.9165Z" fill="#0EBFE1"/>
<path d="M43.0691 74.9489C43.0657 74.9315 43.0623 74.9142 43.0586 74.8968C43.0664 74.9085 43.0755 74.9195 43.081 74.9319C43.0823 74.9352 43.0732 74.9432 43.0688 74.9489H43.0691Z" fill="#0EBFE1"/>
<path d="M60.3949 57.4766C60.3932 57.4595 60.397 57.4438 60.4068 57.4294C60.4081 57.4411 60.4109 57.4528 60.4098 57.4639C60.4095 57.4685 60.4 57.4722 60.3949 57.4762V57.4766Z" fill="#0EBFE1"/>
<path d="M36.0754 75.5187C36.0846 75.5328 36.088 75.5485 36.0863 75.5652C36.0788 75.5548 36.07 75.5455 36.0646 75.5341C36.0632 75.5314 36.0717 75.5241 36.0754 75.5187Z" fill="#0EBFE1"/>
<path d="M43.1175 75.5495C43.1084 75.5354 43.105 75.5201 43.107 75.5034C43.1145 75.5134 43.1229 75.5231 43.1287 75.5341C43.1301 75.5368 43.1216 75.5441 43.1175 75.5495Z" fill="#0EBFE1"/>
<path d="M112.207 75.7196C112.212 75.7019 112.217 75.6845 112.221 75.6668C112.236 75.6895 112.225 75.7056 112.207 75.7196Z" fill="#0EBFE1"/>
<path d="M91.7645 56.8222C91.7543 56.8369 91.7442 56.8516 91.734 56.8663C91.7116 56.8299 91.7381 56.8262 91.7645 56.8222Z" fill="#0EBFE1"/>
<path d="M18.2919 56.5178C18.2814 56.5338 18.2705 56.5502 18.26 56.5662C18.24 56.5305 18.2661 56.5241 18.2919 56.5178Z" fill="#0EBFE1"/>
<path d="M36.1253 76.0695C36.1344 76.0839 36.1381 76.0993 36.1364 76.116C36.129 76.1056 36.1202 76.0959 36.1144 76.0849C36.113 76.0822 36.1215 76.0745 36.1253 76.0695Z" fill="#0EBFE1"/>
<path d="M112.104 76.37C112.109 76.353 112.113 76.3359 112.117 76.3192C112.132 76.3409 112.122 76.3563 112.104 76.37Z" fill="#0EBFE1"/>
<path d="M104.984 76.4639C104.972 76.4792 104.96 76.4943 104.948 76.5097C104.933 76.4739 104.955 76.4662 104.984 76.4639Z" fill="#0EBFE1"/>
<path d="M59.6265 76.8055C59.6282 76.8225 59.6244 76.8382 59.6146 76.8526C59.6132 76.8409 59.6105 76.8292 59.6116 76.8182C59.6119 76.8135 59.6214 76.8098 59.6265 76.8058V76.8055Z" fill="#0EBFE1"/>
<path d="M112.003 77.0711C112.007 77.0541 112.011 77.0374 112.016 77.0203C112.03 77.042 112.021 77.0574 112.003 77.0711Z" fill="#0EBFE1"/>
<path d="M52.1478 63.8603C52.1478 63.8927 52.1478 63.9251 52.1478 63.9579C52.1176 63.9255 52.1172 63.893 52.1478 63.8603Z" fill="#0EBFE1"/>
<path d="M59.5733 77.5009C59.5682 77.5193 59.5631 77.538 59.5581 77.5564C59.5384 77.5313 59.5533 77.5153 59.5733 77.5009Z" fill="#0EBFE1"/>
<path d="M95.1215 77.6697C95.1198 77.6527 95.1235 77.637 95.1334 77.6229C95.1347 77.6343 95.1378 77.646 95.1364 77.6573C95.1361 77.662 95.1266 77.6657 95.1215 77.6697Z" fill="#0EBFE1"/>
<path d="M50.0724 77.6704C50.0581 77.6847 50.0442 77.6988 50.03 77.7132C50.0256 77.6811 50.0419 77.6687 50.0724 77.6704Z" fill="#0EBFE1"/>
<path d="M16.0342 77.8702C16.0397 77.889 16.0447 77.9077 16.0502 77.9267C16.0413 77.9147 16.0312 77.9037 16.0247 77.8903C16.0227 77.8859 16.0308 77.8769 16.0342 77.8702Z" fill="#0EBFE1"/>
<path d="M50.0202 77.8676L49.9884 77.912C49.967 77.8749 49.9928 77.8706 50.0202 77.8676Z" fill="#0EBFE1"/>
<path d="M49.9699 78.02C49.9557 78.0347 49.9418 78.0494 49.9276 78.0638C49.9228 78.0313 49.9394 78.0193 49.9699 78.02Z" fill="#0EBFE1"/>
<path d="M36.3711 78.1202C36.3759 78.143 36.3809 78.1654 36.3857 78.1884C36.3789 78.174 36.3704 78.1597 36.3657 78.1443C36.3636 78.1373 36.3691 78.1283 36.3711 78.1202Z" fill="#0EBFE1"/>
<path d="M95.0707 78.3208C95.069 78.3041 95.0727 78.2887 95.0819 78.2747C95.0833 78.286 95.0863 78.2974 95.0856 78.3084C95.0853 78.3128 95.0761 78.3168 95.071 78.3208H95.0707Z" fill="#0EBFE1"/>
<path d="M43.475 78.5066C43.4716 78.4892 43.4682 78.4718 43.4648 78.4541C43.4723 78.4658 43.4815 78.4768 43.4869 78.4895C43.4882 78.4929 43.4794 78.5009 43.475 78.5066Z" fill="#0EBFE1"/>
<path d="M23.803 78.7592C23.7979 78.7408 23.7932 78.7221 23.7881 78.7037C23.7966 78.7154 23.8067 78.7268 23.8128 78.7398C23.8149 78.7438 23.8064 78.7525 23.8027 78.7592H23.803Z" fill="#0EBFE1"/>
<path d="M87.8966 78.8605C87.8983 78.8772 87.8949 78.8922 87.8858 78.9066C87.8844 78.8952 87.881 78.8839 87.882 78.8728C87.8824 78.8685 87.8915 78.8645 87.8966 78.8605Z" fill="#0EBFE1"/>
<path d="M43.5776 79.1085C43.5736 79.0915 43.5695 79.0744 43.5654 79.0574C43.5725 79.0684 43.5807 79.0788 43.5854 79.0905C43.5871 79.0948 43.5803 79.1022 43.5776 79.1082V79.1085Z" fill="#0EBFE1"/>
<path d="M95.0225 79.2792C95.0275 79.2609 95.0326 79.2425 95.0377 79.2238C95.057 79.2488 95.0421 79.2645 95.0225 79.2792Z" fill="#0EBFE1"/>
<path d="M87.8439 79.4059C87.8401 79.4237 87.8361 79.4414 87.8323 79.4591C87.8171 79.4481 87.8151 79.4347 87.8273 79.4203C87.832 79.4146 87.8385 79.4106 87.8439 79.4059Z" fill="#0EBFE1"/>
<path d="M59.5593 79.5246C59.5641 79.5429 59.5688 79.5613 59.5739 79.5797C59.5654 79.568 59.5556 79.5566 59.5491 79.5436C59.5471 79.5396 59.5556 79.5309 59.5593 79.5242V79.5246Z" fill="#0EBFE1"/>
<path d="M43.6817 79.6114C43.6705 79.5997 43.6644 79.5857 43.6631 79.5693C43.679 79.579 43.6977 79.5877 43.6817 79.6114Z" fill="#0EBFE1"/>
<path d="M23.8518 79.7605C23.8473 79.7425 23.8433 79.7244 23.8389 79.7064C23.847 79.7181 23.8568 79.7294 23.8629 79.7421C23.8646 79.7458 23.8558 79.7542 23.8518 79.7605Z" fill="#0EBFE1"/>
<path d="M111.699 79.7792C111.703 79.7619 111.706 79.7445 111.71 79.7271C111.712 79.7398 111.715 79.7525 111.715 79.7649C111.715 79.7699 111.705 79.7746 111.699 79.7792Z" fill="#0EBFE1"/>
<path d="M16.1428 79.827C16.1527 79.8414 16.1567 79.8571 16.1547 79.8745C16.1469 79.8641 16.1378 79.8544 16.132 79.8431C16.1306 79.8404 16.1388 79.8324 16.1428 79.827Z" fill="#0EBFE1"/>
<path d="M49.2584 80.1722C49.2465 80.1873 49.2346 80.2023 49.2228 80.2174C49.2075 80.1816 49.2295 80.1742 49.2584 80.1722Z" fill="#0EBFE1"/>
<path d="M23.8978 80.5101C23.889 80.4961 23.8852 80.4807 23.8873 80.464C23.8947 80.474 23.9032 80.4837 23.909 80.4951C23.9103 80.4977 23.9018 80.5051 23.8978 80.5104V80.5101Z" fill="#0EBFE1"/>
<path d="M36.7816 80.4767C36.7864 80.4945 36.7908 80.5122 36.7955 80.5299C36.7881 80.5185 36.7792 80.5078 36.7738 80.4955C36.7718 80.4911 36.7786 80.4831 36.7813 80.4767H36.7816Z" fill="#0EBFE1"/>
<path d="M36.886 80.9289C36.8901 80.946 36.8941 80.9633 36.8982 80.9804C36.8914 80.9694 36.8829 80.9587 36.8782 80.9466C36.8765 80.9423 36.8833 80.9346 36.886 80.9286V80.9289Z" fill="#0EBFE1"/>
<path d="M95.0315 81.0114C95.022 80.9971 95.0182 80.9817 95.0199 80.9647C95.0274 80.9747 95.0362 80.9844 95.042 80.9957C95.0433 80.9984 95.0352 81.0061 95.0315 81.0114Z" fill="#0EBFE1"/>
<path d="M23.9502 81.1618C23.9407 81.1475 23.937 81.1321 23.939 81.1151C23.9468 81.1254 23.9556 81.1351 23.9614 81.1461C23.9627 81.1488 23.9543 81.1565 23.9505 81.1618H23.9502Z" fill="#0EBFE1"/>
<path d="M48.4448 81.9275C48.4316 81.9422 48.4184 81.9569 48.4052 81.9716C48.3974 81.9385 48.415 81.9275 48.4448 81.9275Z" fill="#0EBFE1"/>
<path d="M37.1148 82.0234C37.1284 82.0378 37.142 82.0522 37.1555 82.0665C37.1237 82.0689 37.1081 82.0565 37.1148 82.0234Z" fill="#0EBFE1"/>
<path d="M111.764 82.0659C111.759 82.0482 111.755 82.0305 111.75 82.0128C111.757 82.0241 111.766 82.0348 111.772 82.0472C111.774 82.0515 111.767 82.0595 111.764 82.0662V82.0659Z" fill="#0EBFE1"/>
<path d="M87.7896 82.35C87.7906 82.3787 87.7919 82.4071 87.793 82.4359C87.7608 82.4085 87.7587 82.3801 87.7896 82.35Z" fill="#0EBFE1"/>
<path d="M37.3801 82.8268C37.3903 82.8419 37.4008 82.8569 37.411 82.8723C37.3842 82.868 37.3608 82.8619 37.3801 82.8268Z" fill="#0EBFE1"/>
<path d="M47.3743 83.3425C47.3584 83.3535 47.3421 83.3649 47.3262 83.3759C47.3313 83.3495 47.3387 83.3265 47.3743 83.3425Z" fill="#0EBFE1"/>
<path d="M37.6291 83.5273C37.6407 83.5417 37.6525 83.5561 37.664 83.5705C37.6339 83.5705 37.6142 83.5624 37.6291 83.5273Z" fill="#0EBFE1"/>
<path d="M37.8316 84.0287C37.8438 84.0434 37.8563 84.0578 37.8685 84.0725C37.8387 84.0725 37.82 84.0631 37.8316 84.0287Z" fill="#0EBFE1"/>
<path d="M88.0621 84.4287C88.0757 84.4427 88.0889 84.4571 88.1025 84.4712C88.0706 84.4742 88.0554 84.4615 88.0621 84.4287Z" fill="#0EBFE1"/>
<path d="M105.4 84.5791C105.414 84.5938 105.428 84.6082 105.442 84.6229C105.412 84.6236 105.395 84.6115 105.4 84.5791Z" fill="#0EBFE1"/>
<path d="M105.512 84.8812C105.522 84.8949 105.532 84.9083 105.542 84.922C105.513 84.9227 105.492 84.917 105.512 84.8812Z" fill="#0EBFE1"/>
<path d="M61.5747 85.7822C61.5876 85.7969 61.6005 85.8113 61.6134 85.826C61.5842 85.8253 61.5652 85.816 61.5747 85.7822Z" fill="#0EBFE1"/>
<path d="M62.8938 87.0847C62.9071 87.097 62.9203 87.1097 62.9335 87.1221C62.9003 87.1301 62.8884 87.1161 62.8938 87.0847Z" fill="#0EBFE1"/>
<path d="M40.2677 87.4352C40.281 87.4479 40.2945 87.4603 40.3077 87.473C40.2745 87.4807 40.2626 87.467 40.2677 87.4352Z" fill="#0EBFE1"/>
<path d="M90.0404 87.5853C90.0553 87.6014 90.0706 87.6174 90.0855 87.6335C90.0546 87.6318 90.0373 87.6177 90.0404 87.5853Z" fill="#0EBFE1"/>
<path d="M64.0587 87.8339C64.0736 87.848 64.0881 87.862 64.1031 87.876C64.0702 87.8807 64.0576 87.8643 64.0587 87.8339Z" fill="#0EBFE1"/>
<path d="M41.2308 88.0843C41.2447 88.0967 41.2589 88.109 41.2728 88.1214C41.2365 88.1334 41.2287 88.1144 41.2308 88.0843Z" fill="#0EBFE1"/>
<path d="M108.294 88.235C108.309 88.249 108.324 88.2631 108.338 88.2771C108.306 88.2818 108.293 88.2654 108.294 88.235Z" fill="#0EBFE1"/>
<path d="M41.5959 88.2875C41.6101 88.2915 41.6207 88.2998 41.6274 88.3125C41.5956 88.3306 41.5898 88.3162 41.5959 88.2875Z" fill="#0EBFE1"/>
<path d="M73.4092 88.4777C73.4255 88.464 73.4414 88.4499 73.4577 88.4362C73.4553 88.4656 73.4421 88.483 73.4092 88.4777Z" fill="#0EBFE1"/>
<path d="M42.3965 88.5862C42.4114 88.5966 42.4267 88.607 42.4416 88.617C42.4063 88.6354 42.4002 88.6126 42.3965 88.5862Z" fill="#0EBFE1"/>
<path d="M66.0381 88.5862C66.052 88.5866 66.0649 88.5906 66.0764 88.5983C66.055 88.6203 66.0476 88.5996 66.0381 88.5862Z" fill="#0EBFE1"/>
<path d="M72.8496 88.6294C72.8676 88.6157 72.8859 88.602 72.9039 88.5883C72.8971 88.6167 72.8835 88.6361 72.8496 88.6294Z" fill="#0EBFE1"/>
<path d="M42.5521 88.6357C42.5667 88.6498 42.5813 88.6635 42.5955 88.6775C42.5613 88.6839 42.5494 88.6672 42.5521 88.6357Z" fill="#0EBFE1"/>
<path d="M72.3477 88.7045C72.3656 88.7002 72.3833 88.6955 72.4012 88.6912C72.387 88.7092 72.3704 88.7192 72.3477 88.7045Z" fill="#0EBFE1"/>
<path d="M92.7822 88.7867C92.7961 88.7871 92.809 88.7911 92.8205 88.7988C92.7992 88.8208 92.7917 88.8001 92.7822 88.7867Z" fill="#0EBFE1"/>
<path d="M109.917 88.7867C109.931 88.7871 109.944 88.7911 109.955 88.7988C109.934 88.8208 109.926 88.8001 109.917 88.7867Z" fill="#0EBFE1"/>
<path d="M43.6533 88.8419C43.6706 88.8453 43.6879 88.8483 43.7052 88.8516C43.6832 88.8733 43.6679 88.8593 43.6533 88.8419Z" fill="#0EBFE1"/>
<path d="M67.3994 88.8412C67.4167 88.8456 67.434 88.8499 67.4513 88.8543C67.4293 88.8687 67.4133 88.859 67.3994 88.8412Z" fill="#0EBFE1"/>
<path d="M71.4854 88.8516C71.503 88.8483 71.5203 88.8449 71.5379 88.8419C71.523 88.8593 71.5077 88.8737 71.4854 88.8516Z" fill="#0EBFE1"/>
<path d="M44.1611 88.892C44.1791 88.896 44.1971 88.8997 44.2147 88.9037C44.191 88.9254 44.1757 88.9101 44.1611 88.892Z" fill="#0EBFE1"/>
<path d="M45.1973 88.9051C45.2156 88.9008 45.2339 88.8964 45.2519 88.8924C45.2369 88.9111 45.2213 88.9262 45.1973 88.9051Z" fill="#0EBFE1"/>
<path d="M71.127 88.9074C71.1456 88.9024 71.1639 88.897 71.1826 88.892C71.168 88.9107 71.1514 88.9228 71.127 88.9074Z" fill="#0EBFE1"/>
<path d="M93.4326 88.8911C93.4499 88.8954 93.4669 88.8994 93.4841 88.9038C93.4621 88.9181 93.4465 88.9084 93.4326 88.8911Z" fill="#0EBFE1"/>
<path d="M96.1953 88.9028C96.2133 88.8994 96.2309 88.8957 96.2489 88.8924C96.234 88.9101 96.2184 88.9248 96.1953 88.9028Z" fill="#0EBFE1"/>
<path d="M88.0977 77.2012C88.094 77.2189 88.0903 77.2363 88.0865 77.254C88.0848 77.2413 88.0814 77.2282 88.0821 77.2155C88.0825 77.2105 88.0923 77.2059 88.0977 77.2012Z" fill="#0EBFE1"/>
<path d="M77.0285 74.8079C77.022 74.7658 77.0115 74.722 77.0719 74.7079C77.1471 74.7791 77.0929 74.7955 77.0285 74.8079Z" fill="#0EBFE1"/>
<path d="M77.0917 74.5078C77.0666 74.465 77.0629 74.4279 77.1188 74.4062C77.1931 74.4617 77.1609 74.4897 77.0917 74.5078Z" fill="#0EBFE1"/>
<path d="M74.9699 67.8838C74.9685 67.8721 74.9658 67.8604 74.9672 67.8487C74.9675 67.844 74.977 67.8403 74.9824 67.836C74.9784 67.8517 74.9743 67.8677 74.9702 67.8835L74.9699 67.8838Z" fill="#0EBFE1"/>
<path d="M88.8252 72.674L88.8425 72.6653L88.8527 72.6797L88.836 72.6917L88.8252 72.674Z" fill="#0EBFE1"/>
<path d="M67.0613 78.1884C67.0936 78.2192 67.0905 78.2486 67.0576 78.277C67.059 78.2476 67.06 78.2178 67.0613 78.1884Z" fill="#0EBFE1"/>
<path d="M67.0576 80.559C67.0654 80.5707 67.0746 80.5817 67.0803 80.5941C67.0817 80.5974 67.0725 80.6054 67.0685 80.6114C67.0647 80.5941 67.0613 80.5763 67.0576 80.559Z" fill="#0EBFE1"/>
</g>
<defs>
<clipPath id="clip0_829_52">
<rect width="107" height="38" fill="white" transform="translate(16 51)"/>
</clipPath>
</defs>
</svg>
