<svg width="140" height="140" viewBox="0 0 140 140" fill="none" xmlns="http://www.w3.org/2000/svg">
<rect width="140" height="140" rx="30" fill="#602A8A"/>
<g clip-path="url(#clip0_609_4246)">
<path d="M21.5768 73.4398L12 57H17.1199L23.7579 69.0668L30.4907 57H35.9922L25.8443 73.4398V83.9169H21.5768V73.4398Z" fill="white"/>
<path d="M106.69 57.0277C101.035 57.0277 96.1913 60.4841 94.1773 65.3861C92.0157 61.9879 88.205 59.7308 83.8595 59.7308C79.0015 59.7308 74.8064 62.5529 72.8425 66.6352V60.3677H68.6474V69.9835H56.3435V60.3677H51.8615V81.6155L42.5465 60.3677H37.7804L27.042 83.7369H32.109L33.9753 79.0537H46.1009L48.0926 83.7369H56.3435V74.1322H68.6697L68.6474 83.7369H72.8425V77.0956C74.8064 81.1806 79.0015 84 83.8595 84C88.7176 84 92.9544 81.1502 94.9043 77.0319C97.2192 81.1253 101.629 83.8892 106.69 83.8892C114.153 83.8892 120.197 77.8794 120.197 70.4599C120.197 63.0403 114.153 57.0277 106.69 57.0277ZM35.9893 74.7581L40.1259 65.7766L44.2179 74.7581H35.9893ZM83.8595 79.1921C79.7898 79.1921 76.4889 75.913 76.4889 71.8668C76.4889 67.8205 79.7898 64.5386 83.8595 64.5386C87.9292 64.5386 91.2274 67.8205 91.2274 71.8668C91.2274 75.913 87.9292 79.1921 83.8595 79.1921ZM106.69 78.569C102.186 78.569 98.5312 74.9382 98.5312 70.4599C98.5312 65.9816 102.186 62.3507 106.69 62.3507C111.194 62.3507 114.846 65.9816 114.846 70.4599C114.846 74.9382 111.194 78.569 106.69 78.569Z" fill="white"/>
<path d="M121.551 76.1678L123.448 57.0277L128 57.7506L124.799 76.4891L121.551 76.1678Z" fill="white"/>
<path d="M122.401 83.7424C123.773 83.7424 124.885 82.6364 124.885 81.272C124.885 79.9077 123.773 78.8016 122.401 78.8016C121.028 78.8016 119.916 79.9077 119.916 81.272C119.916 82.6364 121.028 83.7424 122.401 83.7424Z" fill="white"/>
</g>
<defs>
<clipPath id="clip0_609_4246">
<rect width="116" height="27" fill="white" transform="translate(12 57)"/>
</clipPath>
</defs>
</svg>
