<svg width="140" height="140" viewBox="0 0 140 140" fill="none" xmlns="http://www.w3.org/2000/svg">
<rect width="140" height="140" rx="30" fill="#00D3C4"/>
<g clip-path="url(#clip0_667_18762)">
<path d="M80.1472 53.8294C78.6758 56.928 75.4098 59.9519 71.144 62.9385C69.5677 64.0431 68.0439 65.2245 66.6227 66.5268C60.6605 71.997 56.351 77.8011 54.7835 84.1629C54.301 85.7967 53.9299 87.4415 53.6766 89.0995C53.3339 91.3351 53.2902 93.6013 53.4452 95.8566C53.5413 97.2753 53.5631 98.5863 53.502 99.7787V99.8621C53.502 100.697 53.4016 101.505 53.2116 102.271C52.6986 104.346 51.5415 106.119 49.9958 107.289C48.7405 108.24 47.2298 108.796 45.6055 108.796C42.8046 108.796 40.3442 107.146 38.9426 104.658C38.3313 103.571 37.9209 102.326 37.7702 100.989C37.7637 100.923 37.7571 100.857 37.7528 100.789C37.7244 100.484 37.7091 100.174 37.7091 99.8621V99.7897C37.7004 99.3922 37.7069 98.9969 37.7157 98.6104C37.8532 93.2588 36.0412 88.1267 33.8275 83.0429C30.317 76.7777 25.4377 71.3119 19.779 66.2984C15.0437 62.1018 13.9107 57.7603 16.0108 53.2914C17.2793 50.5925 19.5803 48.4909 22.3769 47.4918C24.9574 46.5672 27.6186 46.6748 30.4021 48.4207C32.4696 49.7163 34.0829 51.6378 35.085 53.8734C36.3992 56.8006 37.4973 60.2923 38.4099 64.2758C38.9688 66.72 39.591 69.1488 40.3114 71.5512C41.5252 75.6094 42.667 79.055 44.3633 80.6339C45.6994 80.1991 46.708 73.8417 47.5398 64.3176C48.3585 54.3784 49.7579 46.7627 51.7533 41.523C53.2662 37.5526 56.1763 34.2454 59.9925 32.414C63.8086 30.5825 67.4523 30.6045 71.1352 31.9857C75.233 33.5229 78.6038 36.6171 80.5031 40.5787C82.4024 44.5403 82.5946 48.9367 80.1494 53.8316L80.1472 53.8294Z" fill="white"/>
<path d="M123.858 102.217C123.542 100.958 122.913 99.7153 121.393 98.5163C119.935 97.0406 121.083 94.6645 121.708 92.8396C125.229 82.5601 124.089 75.467 120.725 69.8979C113.475 57.0535 102.402 54.2404 88.799 58.0636C85.2055 59.0738 81.7649 60.5737 78.5186 62.4271C70.6636 66.9092 64.1491 72.2389 60.6976 79.4945C57.759 85.6718 59.2043 93.1141 64.3237 97.6269C67.8866 100.769 73.1873 104.044 81.0379 106.143C94.2481 109.674 101.016 109.578 109.019 106.143C111.554 105.06 113.711 104.753 114.704 106.815C116.014 108.508 117.756 109.439 120.391 108.796C123.352 107.665 124.417 105.418 123.858 102.217ZM97.8678 66.8608C101.695 66.8608 105.199 68.2487 107.908 70.5545C102.592 81.6905 94.8899 88.9197 85.5832 92.1457C83.5245 89.4907 82.2976 86.1506 82.2976 82.5228C82.2976 73.8727 89.2683 66.8608 97.8678 66.8608ZM97.8678 98.1847C94.5341 98.1847 91.4493 97.1328 88.9169 95.3365C97.883 91.634 105.526 84.3345 110.875 73.9166C112.495 76.3849 113.436 79.3451 113.436 82.5228C113.436 91.1728 106.465 98.1847 97.8678 98.1847Z" fill="white"/>
</g>
<defs>
<clipPath id="clip0_667_18762">
<rect width="109" height="78" fill="white" transform="translate(15 31)"/>
</clipPath>
</defs>
</svg>
