<svg width="140" height="140" viewBox="0 0 140 140" fill="none" xmlns="http://www.w3.org/2000/svg">
<rect width="140" height="140" rx="30" fill="#B11B1C"/>
<g clip-path="url(#clip0_830_288)">
<path d="M17 53.3355H59.5672L58.4166 55.4032H42.2339L51.7447 60.222L95.922 45.1484L110.879 54.6361L115.713 60.6805L109.116 61.6754L108.118 57.3901L97.1506 52.1128L89.5564 57.3151L103.438 90.2911L118.32 88.3792L122 95.0349L116.325 92.3588L98.914 98.9366L89.0187 85.5473L75.2152 93.8872L71.6103 116L58.2634 105.059L67.621 107.354L65.5512 92.0502L77.5914 77.3602L69.5015 65.3494L49.2904 65.7299L39.6264 58.0044L32.4167 55.4032H17.766L17 53.3355Z" fill="white"/>
<path d="M73.8722 48.7475C79.0618 48.7475 83.2688 44.5507 83.2688 39.3738C83.2688 34.1968 79.0618 30 73.8722 30C68.6826 30 64.4756 34.1968 64.4756 39.3738C64.4756 44.5507 68.6826 48.7475 73.8722 48.7475Z" fill="white"/>
</g>
<defs>
<clipPath id="clip0_830_288">
<rect width="105" height="86" fill="white" transform="translate(17 30)"/>
</clipPath>
</defs>
</svg>
