<svg width="140" height="140" viewBox="0 0 140 140" fill="none" xmlns="http://www.w3.org/2000/svg">
<rect width="140" height="140" rx="30" fill="#F7DD00"/>
<g clip-path="url(#clip0_834_945)">
<path d="M67.4631 121C51.8022 120.39 39.7833 113.012 31.3555 99.5524C29.9835 97.3593 28.8865 94.9811 27.8114 92.6173C26.1063 88.8703 27.0584 86.9786 30.9862 85.9183C40.8838 83.2424 50.8357 80.7443 60.6608 77.8251C76.3253 73.1739 91.9174 68.2576 107.528 63.4068C111.007 62.3247 112.82 63.3632 113.396 66.9941C117.621 93.6449 99.2772 117.856 72.6689 120.721C71.0543 120.895 69.418 120.898 67.4631 121ZM73.7369 112.979C78.2259 112.943 82.762 111.687 87.4392 108.887C94.104 104.901 99.3243 99.6322 101.638 91.9529C102.202 90.0757 101.858 89.6218 99.9904 89.5456C87.4718 89.0336 75.1162 97.5336 71.0905 109.421C69.9755 112.722 70.1855 113.005 73.7332 112.976L73.7369 112.979Z" fill="black"/>
<path d="M73.7324 112.979C70.1846 113.008 69.9711 112.722 71.0897 109.425C75.1117 97.5371 87.471 89.0372 99.9895 89.5492C101.858 89.6254 102.201 90.0793 101.637 91.9565C99.3234 99.6358 94.1031 104.904 87.4384 108.891C82.7611 111.687 78.2287 112.947 73.736 112.983L73.7324 112.979Z" fill="white"/>
</g>
<defs>
<clipPath id="clip0_834_945">
<rect width="87" height="58" fill="white" transform="translate(27 63)"/>
</clipPath>
</defs>
</svg>
