<svg width="140" height="140" viewBox="0 0 140 140" fill="none" xmlns="http://www.w3.org/2000/svg">
<g clip-path="url(#clip0_668_18806)">
<rect width="140" height="140" rx="30" fill="white"/>
<path d="M29.6263 118.643C29.0645 118.394 28.6588 118.113 29.3144 117.552C29.72 117.24 30.1572 116.96 30.5938 116.679C34.6827 114.03 38.5223 111.131 41.0502 106.861C43.1725 103.308 42.8295 101.22 40.1763 98.6019C25.3812 83.8283 18.8891 66.1564 22.1351 45.2736C23.9765 33.4924 29.3764 23.3003 37.2422 14.4488C41.9866 9.08773 47.6365 4.75582 53.8166 1.14044C54.1912 0.922437 54.7221 0.859906 54.7841 0.298839C54.6595 -0.0126727 54.4406 0.0808383 54.2533 0.0808383C43.7343 0.0808383 33.2154 -0.137163 22.728 0.14337C12.6773 0.454882 4.00031 8.21572 4.03133 19.3424C4.09396 51.8504 4.03133 84.3584 4.03133 116.897C4.03133 126.996 11.7409 135.442 21.8226 135.816C30.3439 136.159 38.8653 135.879 47.4176 135.847C48.0421 135.878 48.666 135.91 49.2906 135.91H94.3625C105.599 135.91 116.836 135.972 128.073 135.91C138.498 135.91 146.957 127.494 146.957 117.116V98.6959C146.957 98.2594 147.113 97.7918 146.832 97.3248C146.27 97.3558 146.052 97.8234 145.739 98.1354C139.684 104.213 132.536 109.107 124.701 112.566C105.505 121.012 85.9658 121.604 66.1453 114.81C64.4287 114.187 62.5557 114.125 60.7764 114.561C58.1543 115.215 55.5638 115.994 52.9732 116.773C45.3574 119.142 37.5852 120.202 29.6258 118.644L29.6263 118.643ZM52.2557 66.1254C52.7865 65.4399 53.0675 65.0343 53.3794 64.6293C57.4683 59.4552 61.5572 54.2817 65.6461 49.0766C66.8325 47.5804 68.0183 46.0533 68.7675 44.2456C69.6413 42.1883 68.7048 40.2561 66.5826 39.5081C65.6461 39.2275 64.6476 39.103 63.6485 39.165C58.0922 39.134 52.5056 39.134 46.9494 39.165C46.1692 39.165 45.389 39.2585 44.6398 39.4455C42.8921 39.8821 41.8304 41.6582 42.2676 43.435C42.5795 44.6196 43.516 45.5542 44.7024 45.8347C45.4516 46.0217 46.2318 46.1152 47.012 46.0842C50.3833 46.1152 53.785 46.0842 57.1563 46.1152C57.5309 46.1152 57.9992 45.8657 58.2801 46.4267C57.9992 46.8008 57.7182 47.1748 57.4373 47.5179C52.5992 53.6265 47.7922 59.7667 42.9541 65.8759C41.7677 67.403 41.1438 69.0862 42.0177 70.9564C42.8915 72.8267 44.6708 73.1692 46.4811 73.2942C47.9169 73.3877 49.3842 73.3252 50.851 73.3252C55.9073 73.3252 60.9327 73.3562 65.9896 73.2942C68.6738 73.2632 70.1096 71.6426 69.8286 69.1488C69.6103 67.185 68.2682 66.1564 65.7708 66.1254C61.3699 66.0944 56.9685 66.1254 52.2557 66.1254ZM88.4633 49.7312C84.5617 46.3338 80.2539 46.1158 76.0404 48.609C70.9214 51.6014 69.0484 56.4944 69.6729 62.167C70.2658 67.4656 72.576 71.798 78.1316 73.5742C81.5966 74.6963 84.811 74.2913 87.6515 71.9845C88.4007 71.3924 88.619 71.5169 89.1498 72.1715C90.1799 73.4807 91.9592 73.9792 93.5197 73.3872C95.0801 72.9196 96.1102 71.486 96.1102 69.8653C96.1412 63.6316 96.1728 57.3979 96.1102 51.1648C96.0792 48.6716 93.738 47.0819 91.3031 47.5804C89.9611 47.8609 89.2119 48.7651 88.4627 49.7312H88.4633ZM110.094 61.2944C109.969 69.0862 116.43 74.9768 124.546 74.1668C132.006 73.4187 136.844 67.8396 136.594 59.9543C136.344 52.1625 130.538 46.8329 122.579 47.0819C115.119 47.2999 109.844 53.284 110.094 61.2944H110.094ZM107.347 55.0923C107.347 50.1987 107.378 45.3367 107.347 40.4432C107.347 37.9499 105.755 36.3912 103.383 36.4228C101.073 36.4538 99.5441 38.0125 99.5125 40.4122C99.4815 41.8768 99.5125 43.311 99.5125 44.7757V69.5538C99.5125 71.486 100.698 73.1692 102.259 73.5742C104.413 74.1662 106.629 72.8886 107.191 70.7379C107.285 70.3638 107.347 69.9898 107.316 69.5848C107.378 64.7537 107.347 59.9227 107.347 55.0917L107.347 55.0923Z" fill="#FDFEFE"/>
<path d="M67 144.5C58.4787 144.5 27.5213 150.812 19 150.5C8.91827 150.094 -12 127.65 -12 117.583C-12 85.075 -10.9374 51.5395 -11 19C-11 7.87334 12.7086 0.485915 22.7277 0.205382C33.2157 -0.0751511 43.734 0.14285 54.253 0.14285C54.4403 0.14285 54.6902 0.0493391 54.7838 0.360851C54.7212 0.921917 54.1593 0.984449 53.8163 1.20245C47.6362 4.81783 41.9863 9.15031 37.2419 14.5108C29.4071 23.3623 23.9762 33.5234 22.1348 45.3356C18.8888 66.1869 25.4125 83.8903 40.176 98.6639C42.7981 101.313 43.1411 103.37 41.0499 106.923C38.5214 111.193 34.6824 114.092 30.5935 116.741C30.1563 116.991 29.7197 117.302 29.2825 117.583C28.6269 118.144 29.0326 118.425 29.5944 118.674C29.7191 118.955 34.9373 121.047 32.5 120.5C36.0896 123.679 45.473 124.758 49 128C50.6541 129.527 48.408 132.41 50 134C50.6555 134.592 66.8437 143.378 67 144.5Z" fill="#0180C7"/>
<path d="M53.5 143.5C53.3437 142.409 46.1381 134.601 45.4826 133.947C43.8906 132.326 42.2365 130.767 40.5819 129.24C37.0549 125.999 33.6526 122.602 30.063 119.422C29.8757 119.173 29.7194 118.924 29.5947 118.643C37.5542 120.201 45.3263 119.142 52.9732 116.804C55.5638 116.025 58.1549 115.246 60.7764 114.592C62.5557 114.124 64.4281 114.218 66.1453 114.841C85.9348 121.636 105.474 121.012 124.701 112.597C132.536 109.137 139.684 104.275 145.739 98.1975C146.051 97.8859 146.27 97.4184 146.832 97.3868C147.113 97.8234 146.957 98.291 146.957 98.7579V116.991C147.019 127.401 138.654 135.878 128.229 135.972V144.5C116.992 144.563 104.737 142 93.5 142L66.1453 147C77.6622 163.028 58.7405 146 53.5 143.5Z" fill="#0172B1"/>
<path d="M52.2556 66.1255C56.9689 66.1255 61.4008 66.0946 65.8022 66.1255C68.2681 66.1565 69.6102 67.1851 69.8601 69.1489C70.141 71.6111 68.7053 73.2628 66.0211 73.2943C60.9648 73.3569 55.9394 73.3253 50.8824 73.3253C49.4157 73.3253 47.9794 73.3878 46.5126 73.2943C44.7023 73.2008 42.923 72.8268 42.0492 70.9566C41.1753 69.0863 41.7992 67.4037 42.9856 65.876C47.7927 59.7674 52.6307 53.6272 57.4688 47.518C57.7497 47.1439 58.0307 46.7699 58.3116 46.4268C57.9996 45.8968 57.5624 46.1463 57.1878 46.1153C53.8165 46.0844 50.4148 46.1153 47.0435 46.0843C46.2633 46.0843 45.4831 45.9908 44.7339 45.8348C42.9546 45.4298 41.8624 43.6531 42.268 41.9079C42.549 40.7232 43.4855 39.7572 44.6713 39.4766C45.4205 39.2896 46.2007 39.1961 46.9809 39.1961C52.5371 39.1651 58.1237 39.1651 63.68 39.1961C64.679 39.1651 65.6465 39.2896 66.614 39.5392C68.7363 40.2563 69.6418 42.2194 68.799 44.2767C68.0498 46.0534 66.864 47.5805 65.6776 49.1077C61.5887 54.3127 57.4998 59.4868 53.4109 64.6294C53.0674 65.0344 52.7554 65.44 52.2561 66.1255H52.2556Z" fill="#0180C7"/>
<path d="M88.463 49.7312C89.2121 48.7651 89.9923 47.861 91.2724 47.612C93.7382 47.1135 96.0478 48.7032 96.0794 51.1964C96.1731 57.4301 96.142 63.6638 96.0794 69.8969C96.0794 71.5176 95.0183 72.9512 93.4889 73.4188C91.9285 74.0108 90.1492 73.5433 89.1191 72.2031C88.5882 71.5486 88.3699 71.4241 87.6207 72.0161C84.7803 74.3223 81.5652 74.7279 78.1009 73.6058C72.5446 71.7981 70.2661 67.4656 69.6422 62.1986C68.9866 56.495 70.8906 51.633 76.0096 48.6407C80.2547 46.1159 84.5619 46.3344 88.4635 49.7318L88.463 49.7312ZM77.4137 61.1075C77.4763 62.4786 77.913 63.7877 78.7248 64.8789C80.4104 67.1231 83.6255 67.5907 85.904 65.9075C86.2786 65.627 86.6222 65.2839 86.9342 64.8789C88.6819 62.5101 88.6819 58.6142 86.9342 56.2455C86.0603 55.0298 84.6866 54.3133 83.2199 54.2817C79.7865 54.0637 77.3827 56.713 77.4143 61.1075H77.4137ZM110.094 61.2945C109.844 53.2841 115.119 47.3 122.61 47.082C130.57 46.8324 136.375 52.1625 136.625 59.9543C136.875 67.8397 132.037 73.4188 124.577 74.1669C116.43 74.9775 109.969 69.0863 110.094 61.2945ZM117.929 60.5464C117.866 62.1045 118.334 63.6322 119.271 64.9098C120.987 67.1541 124.202 67.5901 126.45 65.845C126.793 65.5954 127.074 65.2839 127.355 64.9724C129.166 62.6036 129.166 58.6142 127.386 56.2455C126.512 55.0608 125.139 54.3133 123.672 54.2817C120.301 54.0947 117.929 56.6505 117.929 60.5464ZM107.348 55.0918C107.348 59.9228 107.379 64.7538 107.348 69.5848C107.379 71.7975 105.631 73.6368 103.415 73.6987C103.04 73.6987 102.635 73.6678 102.26 73.5743C100.7 73.1692 99.5133 71.517 99.5133 69.5539V44.7757C99.5133 43.3111 99.4823 41.8769 99.5133 40.4123C99.5444 38.0125 101.074 36.4538 103.384 36.4538C105.756 36.4228 107.348 37.981 107.348 40.4742C107.379 45.3362 107.348 50.2298 107.348 55.0918H107.348Z" fill="#0180C7"/>
<path d="M77.4139 61.1075C77.3828 56.713 79.7861 54.0637 83.1884 54.2507C84.6552 54.3133 86.0289 55.0298 86.9027 56.2455C88.6504 58.5832 88.6504 62.5101 86.9027 64.8789C85.217 67.1231 82.002 67.5907 79.7235 65.9075C79.3489 65.627 79.0053 65.2839 78.6933 64.8789C77.9131 63.7877 77.4759 62.4791 77.4139 61.1075ZM117.929 60.5464C117.929 56.6815 120.301 54.0947 123.672 54.2817C125.139 54.3127 126.513 55.0608 127.386 56.2455C129.166 58.6142 129.166 62.6346 127.355 64.9724C125.608 67.1851 122.361 67.5591 120.145 65.814C119.802 65.5644 119.521 65.2529 119.271 64.9098C118.335 63.6322 117.898 62.1045 117.929 60.5464H117.929Z" fill="#FDFEFE"/>
</g>
<defs>
<clipPath id="clip0_668_18806">
<rect width="140" height="140" rx="30" fill="white"/>
</clipPath>
</defs>
</svg>
