<svg width="140" height="140" viewBox="0 0 140 140" fill="none" xmlns="http://www.w3.org/2000/svg">
<rect width="140" height="140" rx="30" fill="white"/>
<g clip-path="url(#clip0_3517_23)">
<path d="M93.2365 27.315C100.071 34.3121 101.872 45.5168 100.182 54.9278C98.8973 62.0767 95.114 69.1167 96.7729 76.5493C97.7407 80.8845 100.629 85.0377 104.744 86.7956C106.779 87.6652 112.163 88.0305 109.054 91.5233C107.41 93.3685 102.729 92.8356 98.9086 92.0032C96.1315 91.3972 93.604 90.0033 91.4896 88.0864C91.2384 87.86 91.0326 87.7483 90.929 87.8572C91.7549 93.0218 93.6722 98.0576 96.9772 102.122C98.6461 104.174 105.676 108.635 102.112 111.51C99.5912 113.543 95.7568 111.695 93.316 110.252C88.4655 107.386 83.8009 100.901 82.0639 95.5562C81.3813 93.4574 81.2749 91.0319 80.5639 89.019C80.4064 88.5749 80.7101 88.2769 79.9466 88.4116C79.7664 95.4488 78.7815 103.281 76.3804 109.897C74.8932 113.994 71.5427 121.41 66.6297 121.95C65.1071 122.117 62.3824 121.99 62.3937 119.907C65.2688 109.744 67.7835 99.2309 67.0413 88.5448C67.0228 88.2755 67.1633 87.5792 66.634 87.8586C66.2594 88.0563 64.0214 94.6808 63.5205 95.804C60.4183 102.761 54.1913 110.917 46.9113 113.685C44.6606 114.54 40.5665 115.466 39.7051 112.251C39.146 110.165 42.2723 108.937 43.5594 107.805C48.9023 103.106 52.5806 93.2869 53.5939 86.3357C53.3611 85.9088 53.1313 86.2684 52.9198 86.4876C52.2386 87.1924 51.4638 88.668 50.7103 89.5233C47.9061 92.7081 43.3011 97.1092 39.1048 98.0418C35.8537 98.7639 30.0623 98.3083 31.1337 93.5963C31.4928 92.0161 36.014 89.9503 37.5183 88.6795C40.5878 86.0893 44.3257 80.6653 44.7685 76.5951C45.5703 69.2213 40.1025 62.5223 38.8437 55.4823C36.4639 42.1687 40.5864 29.4969 52.2386 22.3237C64.1818 14.967 83.3964 17.2392 93.2365 27.315ZM51.8654 39.6916C46.1606 40.6601 46.443 50.9794 52.1478 51.7473C60.4396 52.8648 60.346 38.2518 51.8654 39.6916ZM80.4277 39.6974C74.3582 40.6128 74.8222 52.2244 81.7205 51.8233C88.8273 51.4107 88.4697 38.4839 80.4277 39.6974Z" fill="#020202"/>
</g>
<defs>
<clipPath id="clip0_3517_23">
<rect width="79" height="104" fill="white" transform="translate(31 18)"/>
</clipPath>
</defs>
</svg>
