<svg width="140" height="140" viewBox="0 0 140 140" fill="none" xmlns="http://www.w3.org/2000/svg">
<rect width="140" height="140" rx="30" fill="white"/>
<g clip-path="url(#clip0_3599_858)">
<path d="M35.5853 75.1331H26.2498C29.7296 70.8198 33.3611 66.6043 36.9081 62.3365C37.7251 61.1161 36.966 59.4469 35.5063 59.2999L22.0108 59.3179C19.7279 59.7284 20.1829 63.277 22.3048 63.277H30.9367L20.7834 75.4083C20.4605 75.7773 20.2189 76.1783 20 76.6146V77.5512C20.3526 78.4323 20.9296 79.0124 21.9146 79.1101L35.4203 79.1023C37.0825 78.9303 37.8822 76.8921 36.6704 75.6874C36.4859 75.5036 35.8238 75.1331 35.5853 75.1331Z" fill="#940EDA"/>
<path d="M77.2555 60.3592C73.6905 58.1623 68.9199 58.5681 65.7794 61.3271C65.5433 58.7026 61.8211 58.5618 61.4787 61.2067L61.4904 84.6789C61.757 86.312 63.6248 87.1064 64.9562 86.0509C65.2783 85.7953 65.7786 85.0924 65.7786 84.6875V77.161C72.1511 82.2654 81.0684 78.5159 81.9487 70.4132C82.3764 66.4769 80.6548 62.4529 77.2555 60.3592ZM72.2997 75.5216C64.2533 76.1759 63.4191 63.6131 71.1528 62.9103C79.2351 62.1761 79.9442 74.9 72.2997 75.5216Z" fill="#940EDA"/>
<path d="M109.664 58.9301C101.675 58.9802 96.8156 67.8529 100.978 74.6585C105.189 81.5431 115.688 80.8082 119.045 73.5225C122.194 66.6903 117.168 58.884 109.664 58.9301ZM111.088 75.3285C102.624 77.1978 101.059 63.6874 109.119 62.9103C116.765 62.1723 118.061 73.7891 111.088 75.3285Z" fill="#940EDA"/>
<path d="M56.755 73.1832C54.9069 71.8002 53.6646 74.0103 52.2651 74.7835C49.2458 76.4504 45.4642 75.0228 44.1258 71.9096C41.8976 66.7286 46.6166 60.969 52.029 63.5123C52.0783 63.5764 51.7077 64.0071 51.6366 64.0939C50.2973 65.7357 48.5641 67.4096 47.3437 69.0897C46.5494 70.1842 46.9535 71.9229 48.353 72.2122C49.3482 72.4186 49.8595 72.1536 50.5069 71.4679C52.6592 69.1913 54.5629 66.3963 56.6722 64.0517C58.2804 61.1145 52.7647 59.1889 50.6609 58.9879C43.0015 58.2585 37.2271 65.7443 39.9392 72.9698C42.3557 79.4087 50.8907 81.6009 56.0929 77.0453C57.2312 76.0477 58.3804 74.3989 56.755 73.1832Z" fill="#940EDA"/>
<path d="M95.893 63.2769C95.9555 63.2769 96.5372 62.9869 96.6302 62.9212C97.7099 62.1652 97.6818 60.4296 96.5833 59.7025C96.4981 59.6462 95.9423 59.3773 95.893 59.3773H90.9324V55.8287C90.9324 55.7583 90.7378 55.2439 90.6846 55.1407C90.049 53.9039 88.3368 53.6248 87.3002 54.5418C87.0969 54.7216 86.6364 55.4292 86.6364 55.6723V59.3773H84.7226C84.5795 59.3773 84.0088 59.7369 83.8759 59.8581C82.9158 60.7376 83.0855 62.3419 84.2034 63.0158C84.2871 63.0658 84.7546 63.2769 84.8007 63.2769H86.6364C86.9085 67.9928 85.4684 73.6046 89.3696 77.2009C90.8926 78.605 93.5742 79.6323 95.6585 79.422C97.9429 79.1914 98.0047 75.8656 95.8578 75.4801C94.4771 75.2323 93.6586 75.4645 92.4585 74.4286C91.7299 73.7993 90.9324 72.2278 90.9324 71.2717V63.2769H95.893Z" fill="#940EDA"/>
</g>
<defs>
<clipPath id="clip0_3599_858">
<rect width="100" height="32.5294" fill="white" transform="translate(20 54)"/>
</clipPath>
</defs>
</svg>
