<svg width="140" height="140" viewBox="0 0 140 140" fill="none" xmlns="http://www.w3.org/2000/svg">
<g clip-path="url(#clip0_692_41)">
<rect width="140" height="140" rx="30" fill="white"/>
<rect width="140" height="140" fill="#008BF0"/>
<g clip-path="url(#clip1_692_41)">
<rect x="13" y="13" width="114" height="114" fill="white"/>
<path d="M3.01338 69.8881C3.01338 57.6161 3.05179 45.3419 2.99982 33.0699C2.96367 24.5753 6.10217 17.4227 12.0674 11.5217C16.487 7.15011 21.8354 4.39388 27.9994 3.35691C29.4026 3.12195 30.8329 3.02029 32.27 3.02255C56.5555 3.03159 80.8434 3.07451 105.129 2.99996C111.618 2.97962 117.59 4.50007 122.968 8.10801C130.115 12.8998 134.939 19.343 136.607 27.9212C136.857 29.2112 136.989 30.5261 136.989 31.8477C136.989 57.2976 137.029 82.7475 136.961 108.195C136.943 115.086 134.349 121.109 129.916 126.346C125.648 131.39 120.293 134.705 113.873 136.275C111.856 136.767 109.797 136.984 107.721 136.984C82.7956 136.984 57.8683 136.962 32.9433 137C25.7828 137.011 19.4877 134.723 14.0083 130.204C8.21033 125.426 4.59506 119.324 3.35231 111.88C3.13087 110.547 3.01112 109.196 3.01112 107.836C3.02242 95.1867 3.0179 82.5374 3.0179 69.8881H3.01338ZM55.7783 38.0311C51.7495 38.0311 47.7207 38.0402 43.692 38.0266C42.3724 38.0221 42.2707 37.8368 42.6074 36.5468C43.3892 33.5557 44.4353 30.6526 45.4815 27.7472C45.6013 27.4129 45.947 27.0446 45.6442 26.7035C45.3618 26.3849 44.9324 26.5702 44.5732 26.6448C40.6416 27.4603 37.9414 29.6405 36.6896 33.5579C35.6932 36.6756 34.586 39.7617 33.4833 42.8432C32.1253 46.6364 30.5278 50.3347 28.797 53.972C28.4287 54.747 28.5101 54.9209 29.4139 54.808C33.1218 54.3448 36.0005 52.6052 38.0182 49.4514C38.7164 48.3602 39.1119 47.1357 39.5028 45.9225C39.8304 44.9081 40.3727 44.4902 41.4731 44.5354C43.466 44.619 45.4634 44.5557 47.4586 44.5602C49.0877 44.5625 49.0923 44.5896 49.1216 46.1891C49.2256 52.2121 48.9793 58.2239 48.6607 64.2356C48.5816 65.7312 48.5274 65.8419 47.0338 65.8419C42.5147 65.8464 37.9956 65.8667 33.4788 65.8283C32.41 65.8193 31.6011 66.1695 30.8962 66.9466C29.6828 68.2886 29.2376 69.9559 28.797 71.6322C28.6773 72.0908 28.8467 72.3665 29.3529 72.371C29.6534 72.3732 29.9562 72.38 30.2567 72.38C35.5666 72.38 40.8743 72.3778 46.1842 72.3823C47.6665 72.3823 47.7026 72.441 47.5377 73.9344C46.9208 79.5236 45.4002 84.8553 42.9282 89.9069C39.4756 96.9556 34.5024 102.773 28.4445 107.707C28.0875 107.996 27.4571 108.231 27.6582 108.805C27.8254 109.284 28.431 109.176 28.8671 109.212C32.3536 109.499 35.6683 108.755 38.8927 107.511C39.7355 107.185 40.5354 106.783 41.211 106.144C43.1994 104.262 44.772 102.066 46.1458 99.7186C48.5183 95.6679 50.3124 91.3731 51.5213 86.8366C51.6998 86.1634 51.9551 85.698 52.6104 86.4639C54.0068 88.0905 55.428 89.6968 56.777 91.3596C60.0917 95.451 63.3726 99.5718 66.667 103.681C66.85 103.912 66.9879 104.273 67.3268 104.223C67.6906 104.169 67.6702 103.767 67.738 103.491C68.2713 101.316 68.443 99.1019 68.2532 96.8788C68.1131 95.2386 67.5979 93.7385 66.4207 92.4869C65.3158 91.3099 64.3329 90.0176 63.2664 88.8022C61.2825 86.5407 59.2738 84.2996 57.2854 82.0426C56.7725 81.462 56.3002 81.34 55.6698 81.9274C54.9558 82.5916 54.1627 83.1745 53.399 83.7845C53.1165 84.0081 52.8521 84.4916 52.4748 84.2702C52.0613 84.0285 52.4206 83.5857 52.511 83.2513C53.3538 80.1607 54.1514 77.0566 54.2666 73.8395C54.3096 72.6873 54.7479 72.3552 55.8393 72.3665C59.868 72.4094 63.8968 72.3823 67.9256 72.3823C69.0938 72.3823 70.2597 72.3778 71.4279 72.3778C72.0176 72.3778 72.3791 72.1518 72.2865 71.4967C72.1035 70.1954 72.0967 68.8737 71.6877 67.6018C71.2268 66.174 70.8585 65.8509 69.3491 65.8487C65.1689 65.8419 60.991 65.8487 56.8109 65.8464C54.9264 65.8464 54.8541 65.7673 54.9897 63.847C55.4099 57.955 55.6585 52.0585 55.6472 46.1507C55.6449 44.6144 55.7014 44.5625 57.2379 44.5625C61.2283 44.558 65.2209 44.5421 69.2112 44.5738C70.1806 44.5806 70.6302 44.2372 70.5195 43.2544C70.3839 42.0615 70.3455 40.8596 69.9592 39.6984C69.5773 38.5485 68.9062 38.0018 67.6363 38.0176C63.6844 38.0695 59.7302 38.0356 55.776 38.0356L55.7783 38.0311ZM76.9208 68.4219C76.9208 78.1342 76.9208 87.8488 76.9208 97.5611C76.9208 97.9384 76.9321 98.3134 76.9253 98.6907C76.9095 99.7209 77.384 100.207 78.4415 100.175C79.6458 100.139 80.8502 100.184 82.0568 100.166C82.8476 100.155 83.2972 100.478 83.5164 101.266C83.9502 102.825 84.4654 104.361 84.9399 105.909C85.3489 107.242 85.3489 107.253 86.4719 106.496C89.0975 104.732 91.7615 103.031 94.5068 101.458C95.962 100.625 97.4804 100.105 99.218 100.143C102.718 100.222 106.22 100.168 109.723 100.166C111.442 100.166 111.655 99.9558 111.655 98.1959C111.657 78.4302 111.657 58.6667 111.655 38.9009C111.655 37.0936 111.467 36.9196 109.632 36.9196C99.4281 36.9196 89.224 36.9196 79.0199 36.9196C77.0586 36.9196 76.9231 37.0529 76.9231 39.0568C76.9208 48.8459 76.9231 58.6328 76.9231 68.4219H76.9208Z" fill="#008BF0"/>
<path d="M83.6611 68.4152C83.6611 60.7746 83.6611 53.1362 83.6611 45.4956C83.6611 43.4804 83.8193 43.2816 85.941 43.2567C89.2151 43.2161 92.4892 43.2432 95.7655 43.2409C98.2126 43.2409 100.66 43.2296 103.105 43.2477C104.625 43.2567 104.917 43.5436 104.917 45.0099C104.921 60.6277 104.921 76.2456 104.917 91.8634C104.917 93.3974 104.682 93.6166 103.143 93.6346C102.766 93.6392 102.384 93.6798 102.015 93.6301C98.6284 93.1602 95.6751 94.1 92.993 96.1921C91.7842 97.1364 90.3968 97.8503 89.0886 98.6704C88.126 99.2736 87.9723 99.2126 87.665 98.0559C87.3668 96.9286 87.0617 95.8012 86.8132 94.6626C86.6482 93.9012 86.2393 93.6324 85.4688 93.6234C83.8261 93.6053 83.6634 93.4132 83.6634 91.7866C83.6589 83.9969 83.6634 76.2072 83.6611 68.4152Z" fill="#008BF0"/>
</g>
</g>
<defs>
<clipPath id="clip0_692_41">
<rect width="140" height="140" rx="30" fill="white"/>
</clipPath>
<clipPath id="clip1_692_41">
<rect width="134" height="134" fill="white" transform="translate(3 3)"/>
</clipPath>
</defs>
</svg>
