<svg width="140" height="140" viewBox="0 0 140 140" fill="none" xmlns="http://www.w3.org/2000/svg">
<rect width="140" height="140" rx="30" fill="#1E1F3D"/>
<path d="M119.979 94.9678C119.979 96.6486 120.033 97.747 119.966 98.8414C119.846 100.943 118.261 102.467 116.248 102.5C114.322 102.533 112.687 101.175 112.5 99.1181C112.172 95.5005 112.127 91.8541 111.724 88.2448C110.811 80.0641 108.69 72.2095 104.619 64.9827C97.5428 52.4329 86.4492 46.4656 72.2761 45.747C64.3866 45.3465 56.7003 46.3458 49.5702 49.9923C39.4229 55.1832 33.7039 63.9297 30.2302 74.3693C28.1634 80.5803 27.0428 86.9935 26.7813 93.539C26.7149 95.1867 26.6817 96.8344 26.5531 98.4738C26.358 100.976 24.8681 102.521 22.7473 102.504C20.5228 102.488 18.8253 100.791 19.0121 98.255C19.4479 92.3827 19.7218 86.4608 20.7427 80.6794C22.5356 70.5412 26.3954 61.1959 33.2391 53.2794C41.0166 44.2893 51.0602 39.6889 62.7514 38.4005C71.7242 37.4094 80.5351 38.1816 88.9808 41.4935C101.643 46.4615 109.674 55.91 114.633 68.2245C118.161 76.9875 119.626 86.1594 119.979 94.9637V94.9678Z" fill="#29F596"/>
<path d="M99.5519 97.6061C99.5519 97.4037 99.5478 97.1807 99.5478 96.9288C99.5478 96.9123 99.5478 96.8917 99.5478 96.8751C99.3901 92.155 98.6928 88.0337 97.427 84.284C95.2315 77.7964 91.7536 73.514 86.79 71.1972C83.4864 69.6569 79.8176 69.1366 75.879 69.6528C70.7618 70.3259 66.5991 72.8202 63.5113 77.0654C60.9216 80.6293 59.22 85.0521 58.4563 90.21C58.1243 92.4399 57.9915 94.7071 57.867 96.904C57.838 97.3748 57.813 97.8456 57.784 98.3164C57.7176 99.3859 58.0372 100.352 58.6846 101.046C59.2532 101.653 60.0168 101.988 60.8469 101.996H60.8759C62.5692 101.996 63.8392 100.612 63.9678 98.622C64.0052 98.0397 64.0218 97.4615 64.0384 96.8999L64.055 96.3342C64.1546 93.4517 64.5738 90.6601 65.3084 88.0295C66.6987 83.0616 68.8029 79.857 71.9404 77.9492C74.0986 76.6318 76.6094 76.0826 79.6225 76.2643C84.6318 76.5657 88.2052 79.1096 90.5376 84.0362C91.8947 86.9021 92.7331 90.1728 93.0942 94.0298C93.1772 94.9053 93.2187 95.7808 93.2602 96.7058C93.2934 97.4326 93.3307 98.1842 93.3888 98.9317C93.5216 100.707 94.8746 102.029 96.5015 101.992C98.1491 101.959 99.4565 100.571 99.5436 98.7582C99.5602 98.3824 99.5602 98.019 99.5561 97.6019L99.5519 97.6061Z" fill="#F600BB" stroke="#F600BB" stroke-width="3"/>
</svg>
