<svg width="140" height="140" viewBox="0 0 140 140" fill="none" xmlns="http://www.w3.org/2000/svg">
<rect width="140" height="140" rx="30" fill="#00D287"/>
<g clip-path="url(#clip0_822_1082)">
<path d="M40.0436 67.2541L39.1129 69.3246C39.0592 69.3313 39.0269 69.3549 39.0408 69.4145C38.8831 69.773 38.7255 70.1318 38.5674 70.4903C38.5141 70.4996 38.4823 70.525 38.4948 70.5847C38.4491 70.6679 38.3672 70.7361 38.3842 70.8456C38.3349 70.8607 38.2996 70.8848 38.3161 70.9444C37.9466 71.7535 37.5771 72.5621 37.2076 73.3711C37.153 73.3791 37.123 73.4063 37.1333 73.4651C37.1189 73.4887 37.1122 73.5141 37.1131 73.5417C37.0638 73.559 37.028 73.584 37.0486 73.6445C36.9707 74.4665 37.1073 74.7501 37.7455 75.0889C37.7554 75.1428 37.7827 75.1731 37.8423 75.1611C39.2262 75.4759 40.6008 75.833 42 76.0814C42.0156 76.1317 42.0407 76.1665 42.1016 76.1429C42.4711 76.1598 42.803 76.37 43.1797 76.3513C43.1936 76.4034 43.2218 76.4345 43.2813 76.4216C44.303 76.6478 45.3286 76.858 46.344 77.1104C46.6584 77.1884 46.8837 77.4319 46.9253 77.7863C46.9253 77.9965 46.9262 78.2071 46.9267 78.4173C46.5652 79.1132 45.8374 79.3986 45.2758 79.8706C45.2153 79.8608 45.1893 79.8906 45.1862 79.9467C44.7629 80.2518 44.3397 80.5563 43.916 80.8613C43.8564 80.8515 43.8295 80.8805 43.826 80.937C42.1639 82.1423 40.5013 83.3472 38.8393 84.5525C38.7788 84.5414 38.7528 84.5708 38.7497 84.6273C38.3264 84.9323 37.9027 85.2369 37.4795 85.5419C37.4195 85.5321 37.3935 85.5615 37.3908 85.6176C36.199 86.4823 35.0072 87.3466 33.8158 88.2113C33.2242 88.6405 32.6325 89.0706 32.0409 89.4998C31.9813 89.4909 31.9535 89.5203 31.949 89.5764C31.6472 89.7915 31.3453 90.007 31.0434 90.2221C30.9834 90.2118 30.9574 90.2412 30.9552 90.2973C29.9452 91.0186 28.9294 91.7324 27.9266 92.4635C26.7572 93.3166 26.1727 93.0303 25.3002 92.4622C22.4168 90.5845 19.5261 88.7171 16.6373 86.8483C16.0322 86.4569 15.8365 85.7948 16.1402 85.1585C17.1483 83.0458 18.1493 80.9294 19.1616 78.8189C19.9131 77.2516 20.6821 75.6923 21.435 74.1254C22.0155 72.917 22.5758 71.6992 23.1603 70.4925C23.4178 69.9609 23.6973 69.4386 23.8885 68.8793C24.1223 68.1972 23.914 67.5823 23.3367 67.153C23.2292 67.0729 23.1298 66.9803 23.0348 66.8854C20.9504 64.8047 18.8812 62.7084 16.7757 60.6487C16.017 59.9064 16.3878 59.023 17.0408 58.6245C18.9927 57.4325 20.9947 56.3216 22.8987 55.0526C23.0922 54.9235 23.3542 54.9177 23.5154 54.7258C23.6484 54.7529 23.6762 54.6643 23.6946 54.565C24.6884 53.972 25.6832 53.3802 26.6757 52.7849C27.4375 52.3276 28.1967 51.8659 28.9572 51.4059C29.1193 51.3823 29.2783 51.3547 29.2989 51.1468C30.1781 50.6249 31.0622 50.1111 31.9356 49.5799C33.2286 48.7931 34.5154 47.9957 35.8026 47.2C36.1829 46.9631 36.6021 46.9969 37.0195 47.009C37.0294 47.0637 37.058 47.0931 37.1176 47.0811C37.6654 47.3803 38.0949 47.8287 38.566 48.2236C38.9669 48.5602 39.3557 48.9111 39.7498 49.2553C39.7498 49.3132 39.778 49.3421 39.8376 49.3368C40.6312 50.0657 41.424 50.795 42.2199 51.5212C42.2611 51.5591 42.3265 51.5707 42.3807 51.5947C42.3807 51.6517 42.4062 51.6815 42.4662 51.6753C42.7542 51.8378 42.8706 52.1918 43.1927 52.316C43.1949 52.373 43.2218 52.4037 43.2822 52.3993C43.9509 53.0017 44.6192 53.6046 45.2879 54.2071C45.2838 54.2645 45.3125 54.2917 45.3689 54.2925C45.4339 54.4738 45.4988 54.6545 45.5638 54.8358C45.5638 54.9863 45.5646 55.1363 45.5651 55.2868C45.5588 55.3741 45.5526 55.4609 45.5463 55.5482C45.4916 55.5584 45.4612 55.5856 45.4755 55.6452C45.1365 56.3928 44.7974 57.14 44.4584 57.8876C44.41 57.9027 44.3724 57.925 44.3881 57.9855C44.281 58.3155 44.0602 58.5996 43.9971 58.9469C43.8963 58.9816 43.8036 59.0217 43.8434 59.1575C43.6862 59.5146 43.5286 59.8721 43.3714 60.2292C43.3172 60.239 43.2854 60.2653 43.2993 60.3254C43.1421 60.6829 42.9844 61.0405 42.8272 61.398C42.773 61.4087 42.7416 61.4354 42.7546 61.4955C42.5974 61.8535 42.4407 62.2115 42.2835 62.5695C42.2302 62.5798 42.1979 62.6065 42.21 62.6657C42.0112 63.005 41.841 63.3563 41.7388 63.7374C41.6851 63.7486 41.6537 63.7762 41.6654 63.8358C41.3832 64.2851 41.2296 64.7914 41.0146 65.2705C40.96 65.2794 40.9282 65.3052 40.9421 65.3658C40.6657 65.9695 40.3894 66.5733 40.1126 67.1771C40.0597 67.1771 40.0275 67.1953 40.0432 67.255L40.0436 67.2541Z" fill="white"/>
<path d="M119.338 57.8809C120.066 58.1796 120.836 58.3969 121.456 58.9099C122.315 59.62 123.058 60.4206 123.432 61.4973C123.419 61.5565 123.448 61.5868 123.503 61.5988C123.512 61.6553 123.521 61.7114 123.529 61.768C123.51 61.8281 123.543 61.8521 123.595 61.8637C124.106 63.5326 123.984 65.2499 123.989 66.9571C123.994 68.8454 123.996 70.7338 123.987 72.6221C123.983 73.5305 124.062 74.4437 123.866 75.344C123.814 75.3578 123.781 75.3841 123.8 75.4438C123.672 75.9126 123.391 76.2858 123.053 76.6246C122.995 76.6197 122.965 76.6482 122.962 76.7052C122.492 77.0013 121.991 77.2306 121.428 77.2417C120.042 77.2698 118.801 76.0836 118.797 74.7073C118.786 71.6479 118.815 68.5885 118.784 65.5296C118.776 64.7236 118.698 63.911 118.209 63.1879C117.415 62.0156 116.068 61.772 114.95 61.8797C114.364 61.9363 113.81 62.0926 113.354 62.4933C113.294 62.488 113.266 62.5178 113.262 62.5748C113.172 62.6643 113.082 62.7542 112.992 62.8437C112.935 62.8477 112.904 62.8754 112.909 62.9346C112.703 63.1456 112.579 63.4074 112.452 63.6675C112.399 63.6661 112.361 63.6773 112.388 63.7427C112.377 63.8028 112.367 63.8625 112.357 63.9226C112.303 63.9302 112.271 63.9524 112.292 64.0134C112.256 64.2539 112.133 64.4792 112.165 64.7312C112.07 64.7682 112.089 64.843 112.102 64.9164C112.106 67.6811 112.111 70.4461 112.113 73.2108C112.113 73.9232 112.158 74.6392 111.991 75.3427C111.939 75.3569 111.906 75.3841 111.924 75.4442C111.834 75.8325 111.589 76.137 111.366 76.4536C111.264 76.4745 111.145 76.4714 111.133 76.6188C109.898 77.496 108.928 77.4065 107.825 76.5943C107.248 76.17 106.938 75.4522 106.936 74.7229C106.922 67.3801 106.937 60.0373 106.924 52.6944C106.923 51.905 106.972 51.1619 107.443 50.4917C107.849 49.9138 108.38 49.5651 109.095 49.5113C109.367 49.5113 109.639 49.5108 109.912 49.5104C110.404 49.5629 110.863 49.6952 111.215 50.0696C111.198 50.1222 111.213 50.1404 111.267 50.1186C111.927 50.7322 112.104 51.5323 112.109 52.3779C112.123 54.366 112.114 56.354 112.114 58.3421V59.2665C112.659 58.7099 113.195 58.3644 113.81 58.1502C113.871 58.1623 113.893 58.1284 113.901 58.0763C114.383 57.9481 114.825 57.6698 115.349 57.6992C115.427 57.7117 115.505 57.7259 115.529 57.619C116.251 57.5371 116.977 57.514 117.703 57.5456C117.77 57.6716 117.881 57.6155 117.979 57.611C118.13 57.6173 118.28 57.6235 118.431 57.6297C118.462 57.7295 118.537 57.717 118.614 57.7019C118.796 57.7268 118.96 57.8466 119.156 57.8114C119.19 57.9045 119.263 57.8964 119.339 57.8813L119.338 57.8809Z" fill="white"/>
<path d="M102.93 60.2238C103.218 60.5017 103.522 60.7666 103.794 61.06C104.466 61.7849 104.719 62.6291 104.478 63.6016C104.46 63.6728 104.471 63.7508 104.468 63.8256C104.413 63.8367 104.383 63.8643 104.399 63.9244C104.247 64.4071 103.947 64.786 103.564 65.1075C103.504 65.0995 103.477 65.1288 103.472 65.1854C103.219 65.3047 102.971 65.4401 102.711 65.5412C101.532 65.9975 100.599 65.5661 99.789 64.7219C98.84 63.7321 97.6862 63.2138 96.3032 63.2213C96.1536 63.2222 95.9999 63.2062 95.8611 63.2859C95.8015 63.293 95.742 63.3002 95.6824 63.3068C94.4986 63.472 93.5854 64.0785 92.8688 65.0059C92.8137 65.0104 92.785 65.0371 92.794 65.0946C91.9045 66.3092 91.7321 67.6366 92.1647 69.0583C92.1455 69.1188 92.1786 69.1429 92.2319 69.1536C92.2333 69.2836 92.2597 69.4051 92.3457 69.5084C92.3304 69.5685 92.3627 69.5899 92.4164 69.5935C92.8746 70.5183 93.6029 71.1724 94.4969 71.6715C94.8964 71.8946 95.3532 71.8812 95.7679 72.0304C95.7988 72.1319 95.8763 72.1123 95.9511 72.1003C97.1788 72.176 98.2734 71.8412 99.2202 71.053C99.325 71.0295 99.3797 70.9591 99.4043 70.8598C99.643 70.822 99.7299 70.598 99.8549 70.4497C100.227 70.008 100.654 69.6661 101.21 69.4906C101.27 69.5026 101.293 69.4688 101.301 69.4172L101.57 69.3998C101.669 69.4047 101.78 69.459 101.844 69.3312C102.025 69.3299 102.206 69.3286 102.386 69.3272C102.447 69.4617 102.561 69.4038 102.659 69.4007C102.69 69.3993 102.721 69.3976 102.752 69.3962C102.84 69.4323 102.903 69.5387 103.021 69.492C103.176 69.5561 103.331 69.6198 103.485 69.6839C103.483 69.7377 103.504 69.7671 103.563 69.7587C104.3 70.2249 104.694 70.8936 104.76 71.7557C104.76 71.936 104.76 72.1163 104.76 72.2967C104.728 72.9597 104.425 73.5073 104.02 74.0114C103.964 74.0123 103.934 74.0367 103.94 74.0951C103.604 74.429 103.266 74.7625 102.93 75.0965C102.87 75.0907 102.843 75.1196 102.84 75.1766C101.558 76.2359 100.097 76.9679 98.4714 77.2934C96.6391 77.6603 94.8207 77.5637 93.0377 76.8993C91.9435 76.4919 90.9859 75.8948 90.0839 75.1815C90.0274 75.137 89.9526 75.1152 89.8864 75.0827C89.8729 74.9651 89.7753 74.9549 89.6888 74.9304C89.4994 74.7425 89.3095 74.5546 89.12 74.3667C89.0958 74.2848 89.0891 74.1895 88.974 74.1766C88.5539 73.5603 88.0917 72.9677 87.7226 72.3229C87.1198 71.2708 86.7498 70.1376 86.6092 68.9211C86.3781 66.9224 86.6253 65.0011 87.5699 63.2204C88.5221 61.4247 89.8958 60.0057 91.6989 59.0003C92.4433 58.5848 93.2338 58.3506 94.0467 58.1498C94.1224 58.1641 94.1959 58.1725 94.2299 58.0795C94.3199 58.0728 94.41 58.0661 94.5 58.0594C94.6455 58.0955 94.7123 57.9975 94.7781 57.8982C95.7223 57.8746 96.6659 57.7264 97.6105 57.8947C97.8121 57.9307 98.0168 57.9517 98.2196 57.9793C98.2443 58.0826 98.3204 58.0741 98.3992 58.0599C98.4306 58.0572 98.462 58.0545 98.4938 58.0518C98.603 58.1226 98.711 58.1966 98.8525 58.1498C100.334 58.518 101.67 59.1717 102.844 60.1446C102.844 60.2011 102.87 60.2305 102.93 60.2234L102.93 60.2238Z" fill="white"/>
<path d="M68.7553 62.3059C67.4928 63.3616 66.3283 64.5162 65.2215 65.7304C65.1642 65.7299 65.1342 65.7562 65.1387 65.815C64.9246 66.0563 64.7101 66.2977 64.496 66.539C64.4391 66.5399 64.4109 66.567 64.4158 66.6249C64.2613 66.807 64.1068 66.9891 63.9527 67.1713C63.8981 67.1726 63.868 67.1962 63.8757 67.2545C63.7798 67.3747 63.684 67.495 63.5881 67.6152C63.5317 67.6192 63.5021 67.6464 63.5084 67.7051C62.3985 69.0187 61.428 70.4332 60.4637 71.8519C60.3983 71.948 60.3611 72.0629 60.3105 72.1693C60.2742 72.2009 60.2384 72.2326 60.2021 72.2642C60.2433 72.2659 60.2845 72.2677 60.3257 72.2695C61.6936 72.2789 63.0614 72.2909 64.4292 72.2971C65.3317 72.3016 66.2342 72.2944 67.1371 72.2993C67.7619 72.3029 68.3406 72.4632 68.8498 72.8354C68.8498 72.8924 68.8776 72.9205 68.9358 72.9165C68.9999 72.9801 69.0644 73.0438 69.1284 73.1075C69.123 73.1658 69.1539 73.1916 69.2095 73.1948C69.3376 73.4659 69.4661 73.7375 69.5942 74.0087C69.5736 74.0679 69.6041 74.096 69.6578 74.1093C69.7022 74.9135 69.6538 75.6887 69.0317 76.3098C68.5869 76.7537 68.0517 76.9937 67.4287 76.9946C63.6992 77.0018 59.9692 77.0164 56.2397 76.9897C54.5982 76.9777 53.5466 75.4073 54.334 73.5942C55.6306 70.6087 57.3084 67.8516 59.2867 65.2687C59.9307 64.4276 60.594 63.6025 61.3093 62.8193C61.3648 62.7587 61.4616 62.7124 61.4405 62.5949C61.3044 62.5089 61.1516 62.5539 61.0079 62.5534C59.4828 62.5494 57.9578 62.5445 56.4328 62.5534C55.279 62.5597 54.5651 61.8321 54.209 61.032C53.8283 60.1771 54.128 59.084 54.8638 58.4441C55.3363 58.0331 55.9105 57.8337 56.5465 57.8337C60.1403 57.8337 63.7341 57.8154 67.3275 57.8457C68.329 57.8542 69.2108 58.2883 69.5933 59.2483C69.948 60.1379 69.9364 61.3731 68.8458 62.2248C68.7853 62.2199 68.758 62.2502 68.7558 62.3077L68.7553 62.3059Z" fill="white"/>
<path d="M84.1867 75.5342C84.0407 75.9683 83.7957 76.3361 83.4396 76.6291C83.3796 76.6202 83.3527 76.6495 83.3492 76.7061C81.6235 77.8428 79.8597 76.9514 79.3227 75.2853C79.2363 75.0168 79.2448 74.7438 79.2443 74.4704C79.243 67.1508 79.2528 59.8311 79.2295 52.5114C79.2269 51.6993 79.3187 50.9561 79.8687 50.3417C80.2597 49.9044 80.7188 49.5389 81.3552 49.5117C81.6575 49.5117 81.9603 49.5117 82.2626 49.5117C82.3826 49.5469 82.5027 49.5821 82.6227 49.6177C82.6599 49.7054 82.7333 49.6943 82.8068 49.6849C83.0289 49.7152 83.1763 49.8938 83.376 49.9686C83.4051 50.0963 83.5055 50.1373 83.617 50.1649L83.6139 50.1618C83.6994 50.4201 83.8369 50.6405 84.0747 50.7874C84.1885 51.173 84.3977 51.535 84.3627 51.9567C84.3556 52.0542 84.3081 52.1592 84.4151 52.2358C84.4169 59.5916 84.4214 66.9468 84.4133 74.3026C84.4133 74.6815 84.309 75.0608 84.2534 75.4398C84.2015 75.4509 84.1683 75.4758 84.1863 75.5355L84.1867 75.5342Z" fill="white"/>
<path d="M76.8413 75.6245C76.4539 76.6758 75.589 77.1371 74.567 77.2186C73.6582 77.2912 72.9138 76.8267 72.3822 76.0751C72.0046 75.5422 71.898 74.9473 71.9124 74.3003C71.9393 73.0874 71.9195 71.8732 71.9195 70.6594C71.9204 67.2434 71.9298 63.8269 71.9164 60.4108C71.9133 59.5666 72.2304 58.8934 72.8364 58.3301C72.8946 58.3377 72.9174 58.3074 72.9188 58.254C73.1759 58.0924 73.4473 57.9623 73.7406 57.88C73.819 57.8929 73.8987 57.908 73.9193 57.7971C74.2866 57.7909 74.6539 57.7847 75.0211 57.7784C75.0605 57.9338 75.1806 57.884 75.2827 57.88C76.2649 58.2442 76.8812 58.909 77.0205 59.9656C77.0276 60.0894 76.9394 60.2336 77.0989 60.3244C77.1011 64.9699 77.1029 69.6153 77.1074 74.2607C77.1074 74.6944 76.964 75.1031 76.9107 75.527C76.8579 75.5386 76.8243 75.564 76.8404 75.6245H76.8413Z" fill="white"/>
</g>
<defs>
<clipPath id="clip0_822_1082">
<rect width="108" height="46" fill="white" transform="translate(16 47)"/>
</clipPath>
</defs>
</svg>
