<svg width="140" height="140" viewBox="0 0 140 140" fill="none" xmlns="http://www.w3.org/2000/svg">
<rect width="140" height="140" rx="30" fill="white"/>
<g clip-path="url(#clip0_828_31)">
<path d="M48.7124 74.1738L45.6152 55.2991C45.0739 51.997 41.9173 49.7515 38.5669 50.2866L19.1681 53.3788C15.816 53.9122 13.5393 57.0233 14.0806 60.3253L17.1778 79.2C17.7208 82.5021 20.8756 84.7477 24.2278 84.2125L43.6266 81.1221C46.977 80.5869 49.2554 77.4776 48.7124 74.1738ZM42.8357 77.7976L23.9153 80.8123C22.3317 81.0653 20.839 80.0036 20.5823 78.4429L17.5549 59.9864C17.2983 58.4257 18.3755 56.9544 19.959 56.7015L38.8794 53.6868C40.463 53.4338 41.9557 54.4955 42.2106 56.0562L45.2398 74.5128C45.4964 76.0735 44.4192 77.5447 42.8357 77.7976Z" fill="#E32527"/>
<path d="M62.8818 88.3629C64.4269 88.4025 65.7101 89.447 65.6962 91.1385C65.6805 93.0295 64.4653 93.9398 62.8468 93.9983C61.0189 94.0637 60.0045 92.7112 59.9539 91.2124C59.898 89.5261 61.2074 88.3732 62.8818 88.3629ZM64.392 91.2417C64.4217 91.0541 64.3885 90.8494 64.3483 90.648C64.2506 90.1456 64.0236 89.7223 63.5417 89.4676C63.3427 89.3627 63.1192 89.4435 62.9272 89.3833C62.3964 89.2181 61.6422 89.7223 61.4711 90.1714C61.3157 90.5741 61.2458 90.9784 61.2843 91.4C61.382 92.4806 61.9599 93.0502 62.9446 93.0261C63.4893 93.0123 63.9188 92.7766 64.1702 92.2862C64.3344 91.9661 64.4217 91.622 64.392 91.24V91.2417Z" fill="black"/>
<path d="M85.9405 91.0059C85.9702 89.237 87.545 88.2355 89.0604 88.3749C90.6824 88.5229 91.791 89.6964 91.6636 91.3707C91.5274 93.1585 90.2319 94.0809 88.5436 93.9948C86.7977 93.9053 85.8899 92.5236 85.9405 91.0059ZM87.2464 91.1642C87.2394 91.3759 87.2447 91.5772 87.2953 91.782C87.5013 92.6182 88.0321 93.0433 88.9015 93.0278C89.4829 93.0174 89.9823 92.7008 90.1935 92.1554C90.4379 91.5204 90.4292 90.8803 90.1883 90.2522C90.0416 89.8668 89.7902 89.5605 89.3712 89.4194C89.228 89.3712 89.0761 89.428 88.9417 89.3901C88.3795 89.2284 87.6393 89.6345 87.421 90.2023C87.2988 90.5172 87.2115 90.8321 87.2464 91.1659V91.1642Z" fill="black"/>
<path d="M77.0009 90.4915C77.0236 89.8634 76.973 89.2353 77.0166 88.6073C77.0254 88.4713 77.062 88.4455 77.1616 88.4438C77.4741 88.4386 77.7866 88.4421 78.0974 88.4386C78.1829 88.4386 78.2108 88.4816 78.2161 88.5556C78.2266 88.7053 78.251 88.8533 78.251 89.0013C78.2545 90.4656 78.2597 91.9317 78.251 93.396C78.2493 93.8864 78.2685 93.9209 77.6906 93.9346C77.0358 93.9501 77.0289 93.9415 77.0149 93.3031C77.0044 92.8179 77.0097 92.3309 77.0149 91.8457C77.0166 91.6925 76.9765 91.6409 76.8054 91.6461C76.1821 91.6598 75.5571 91.6581 74.932 91.6478C74.7435 91.6443 74.6736 91.6856 74.6806 91.8887C74.6981 92.4238 74.6876 92.9607 74.6859 93.4958C74.6859 93.8193 74.5689 93.9346 74.2476 93.9346C74.0888 93.9346 73.9281 93.9364 73.7693 93.9346C73.5301 93.9295 73.4131 93.8159 73.4131 93.5802C73.4131 91.9231 73.4201 90.2643 73.4166 88.6073C73.4166 88.4748 73.4725 88.4438 73.5807 88.4421C73.8775 88.4386 74.1778 88.418 74.4729 88.4455C74.6806 88.4644 74.6789 88.6709 74.6824 88.8241C74.6911 89.3661 74.6946 89.9098 74.6824 90.4536C74.6771 90.6325 74.7243 90.6773 74.9058 90.6738C75.5221 90.6618 76.1402 90.6704 76.7565 90.6687C76.8194 90.6687 76.8874 90.6893 76.9468 90.648C77.0166 90.6119 77.0673 90.5706 76.9992 90.4915H77.0009Z" fill="black"/>
<path d="M50.2068 92.9538C50.8597 92.9538 51.5144 92.9349 52.1674 92.959C52.8134 92.9831 52.7156 92.9298 52.7244 93.4993C52.7244 93.563 52.7313 93.6284 52.7209 93.692C52.6964 93.8486 52.6283 93.9433 52.438 93.9415C51.1897 93.9347 49.9396 93.9364 48.6913 93.9415C48.5254 93.9415 48.3928 93.8848 48.3386 93.7488C48.2932 93.6353 48.2897 93.5148 48.3823 93.3737C48.6791 92.9246 49.016 92.5013 49.2971 92.0436C49.5101 91.696 49.7808 91.3914 50.0042 91.0524C50.2382 90.6962 50.4791 90.3418 50.7462 90.0062C50.8772 89.841 50.975 89.6518 51.0884 89.4728C51.1042 89.4642 51.1181 89.4556 51.1338 89.447C51.1234 89.4401 51.1146 89.4332 51.1042 89.4263C50.3796 89.4212 49.6533 89.4126 48.9288 89.4109C48.6197 89.4109 48.6197 89.416 48.6197 89.1115C48.6197 89.0185 48.6197 88.9256 48.6197 88.8327C48.6197 88.4731 48.6529 88.4404 49.0335 88.4387C49.5712 88.4387 50.1072 88.4387 50.645 88.4387C51.277 88.4387 51.9073 88.4438 52.5393 88.4352C52.7121 88.4335 52.7593 88.5058 52.775 88.6555C52.7959 88.8654 52.7296 89.0392 52.6126 89.2095C51.8514 90.316 51.0919 91.4241 50.3394 92.5357C50.2539 92.6613 50.1387 92.7749 50.109 92.9332C50.1334 92.9883 50.1701 92.9883 50.212 92.9521L50.2068 92.9538Z" fill="black"/>
<path d="M74.7589 55.7052L56.9297 47.5627C53.8499 46.1569 50.1957 47.4767 48.7676 50.5138L40.6124 67.8622C39.186 70.8975 40.5269 74.499 43.6067 75.9049L61.4359 84.0456C64.5174 85.4532 68.1716 84.1317 69.598 81.0963L77.7531 63.7479C79.1795 60.7126 77.8404 57.1111 74.7589 55.7052ZM74.5023 62.4969L66.5269 79.4599C65.853 80.895 64.1263 81.5196 62.6685 80.8554L45.2793 72.9142C43.8232 72.25 43.1894 70.5465 43.8651 69.1114L51.8386 52.1485C52.5125 50.7134 54.241 50.0888 55.6971 50.7547L73.0863 58.6941C74.5424 59.3601 75.1762 61.0619 74.5023 62.4969Z" fill="#079B48"/>
<path d="M102.717 74.7846L100.119 55.8376C99.6633 52.5235 96.5678 50.1971 93.2034 50.6479L73.7296 53.2411C70.367 53.6885 68.0082 56.7393 68.4622 60.0569L71.0618 79.0038C71.5158 82.3197 74.613 84.6444 77.9756 84.1953L93.1476 82.1734L92.9241 78.7664L77.7539 80.7865C76.1634 80.9999 74.6986 79.9003 74.4856 78.3327L71.9435 59.8056C71.727 58.2381 72.8427 56.7961 74.4349 56.5844L93.4252 54.0532C95.0174 53.8416 96.4805 54.9411 96.6953 56.507L99.2356 75.0341C99.4049 76.2679 98.7519 77.4207 97.6904 77.9645L99.2617 78.5547L100.664 80.1636C102.169 78.8713 103.005 76.8804 102.717 74.7846ZM97.6904 77.9645C97.5962 78.011 97.4984 78.0557 97.3971 78.0936C97.5228 78.0523 97.6206 78.0092 97.6904 77.9645ZM92.9241 78.7664C94.3488 78.6063 95.8014 78.4463 96.7459 78.257L92.9241 78.7664Z" fill="#216DB6"/>
<path d="M119.755 53.0622L100.104 53.1345C96.7104 53.1482 93.9675 55.8687 93.9815 59.2172L94.0548 78.3363C94.0688 81.6814 96.8308 84.3829 100.225 84.3709L119.875 84.2969C123.271 84.2848 126.014 81.5609 126 78.2158L125.926 59.0968C125.912 55.7517 123.152 53.0484 119.756 53.0622H119.755ZM122.443 59.3205L122.515 78.0162C122.522 79.5976 121.226 80.8847 119.62 80.8915L100.455 80.9621C98.8508 80.969 97.5449 79.6905 97.5397 78.1091L97.4663 59.4151C97.4594 57.8338 98.7566 56.5467 100.361 56.5415L119.526 56.4692C121.13 56.4641 122.436 57.7408 122.443 59.3222V59.3205Z" fill="#F9B01D"/>
<path d="M43.4775 77.6169C45.5272 76.7789 45.398 74.7175 44.6927 71.1865L48.1356 70.6652C49.5271 76.8839 48.8602 78.4859 46.0109 80.2083L43.4775 77.6169Z" fill="#E32527"/>
<path d="M68.9229 74.3648L73.5844 64.45L75.8873 67.7159L70.3074 79.5872L68.9229 74.3648Z" fill="#079B48"/>
<path d="M100.663 80.1636C99.7887 80.9172 98.6871 81.4352 97.4492 81.6004L93.1491 82.1734H93.1473L92.9238 78.7663C94.3485 78.6063 95.8011 78.4463 96.7456 78.257C96.9708 78.226 97.1873 78.171 97.3899 78.0953C97.3899 78.0953 97.3951 78.0953 97.3968 78.0935C97.5226 78.0522 97.6203 78.0092 97.6902 77.9645L99.2615 78.5547L100.663 80.1636Z" fill="#216DB6"/>
<path d="M97.3894 78.0953C97.1868 78.171 96.9703 78.2261 96.7451 78.2571C97 78.2055 97.2183 78.1521 97.3894 78.0953Z" fill="#F9B01D"/>
</g>
<defs>
<clipPath id="clip0_828_31">
<rect width="112" height="47" fill="white" transform="translate(14 47)"/>
</clipPath>
</defs>
</svg>
