<svg width="140" height="140" viewBox="0 0 140 140" fill="none" xmlns="http://www.w3.org/2000/svg">
<rect width="140" height="140" rx="30" fill="#F7E100"/>
<g clip-path="url(#clip0_813_591)">
<path d="M42.3891 83.2138C38.708 80.6011 35.0553 78.4394 31.0813 76.9802C27.1642 75.5442 23.1253 74.4323 19.115 73.2736C18.275 73.03 17.9821 72.6982 18.0106 71.874C18.0547 70.6661 18.0702 69.4531 18.0054 68.2478C17.9536 67.2577 18.2647 66.8352 19.312 66.6227C29.9458 64.4765 39.3794 59.8732 47.5245 52.6831C47.9652 52.2917 48.393 51.8848 49.1033 51.2264H36.3982C36.5589 49.3368 36.7222 47.6313 36.8466 45.9232C37.1318 42.0482 37.4273 38.1758 37.6503 34.2983C37.7073 33.2978 38.2154 33.233 38.9957 33.233C46.2102 33.2485 53.4221 33.2252 60.6367 33.2615C61.6632 33.2667 62.3087 33.0878 62.6457 31.9836C63.929 27.7847 65.3392 23.6246 66.5887 19.4178C66.8816 18.4277 67.1772 17.9196 68.2867 18.0207C69.3573 18.1166 70.4539 18.127 71.522 18.0207C72.7196 17.9015 73.207 18.3888 73.417 19.5241C74.2258 23.9149 75.6542 28.1112 77.4247 32.204C77.7773 33.0204 78.1947 33.2641 79.0527 33.2615C86.2232 33.2278 93.3936 33.2693 100.564 33.2174C101.772 33.2096 102.296 33.43 102.379 34.7933C102.672 39.7466 103.099 44.6946 103.512 49.6401C103.587 50.5369 103.338 51.1771 102.677 51.7992C101.01 53.3622 99.4131 55.0003 97.6269 56.7654C98.5369 57.3797 99.3223 57.9422 100.136 58.4554C106.444 62.4366 113.259 65.1686 120.574 66.6097C121.624 66.8171 122.073 67.1773 121.972 68.2815C121.876 69.3105 121.855 70.3629 121.972 71.3867C122.122 72.7008 121.575 73.1803 120.336 73.4214C113.015 74.8522 106.174 77.5582 99.9497 81.6638C97.1137 83.5352 94.5187 85.7721 91.8201 87.8534C91.5971 88.0245 91.4312 88.2708 91.0346 88.7114H103.563C103.436 90.4273 103.328 91.9565 103.211 93.4884C102.913 97.4489 102.581 101.407 102.34 105.37C102.275 106.422 101.922 106.744 100.867 106.738C93.6529 106.697 86.4409 106.736 79.2264 106.7C78.2854 106.694 77.6969 106.884 77.3936 107.858C76.1052 111.964 74.7054 116.036 73.4921 120.165C73.1318 121.393 72.8492 122.197 71.3379 121.969C70.3243 121.816 69.264 121.873 68.2349 121.961C67.1979 122.049 66.8117 121.632 66.625 120.642C65.7929 116.215 64.3904 111.966 62.5991 107.832C62.1869 106.878 61.6399 106.7 60.73 106.705C53.5595 106.731 46.3891 106.694 39.2186 106.744C38.0495 106.751 37.6918 106.417 37.6192 105.238C37.3159 100.24 36.9218 95.2483 36.4967 90.2614C36.4215 89.3879 36.647 88.8021 37.2588 88.2241C38.9465 86.6223 40.5952 84.979 42.3865 83.2242L42.3891 83.2138ZM69.9303 116.995C77.0074 92.589 92.7118 76.9361 117.365 69.9015C109.013 67.8176 101.578 64.3988 94.9387 59.6606C83.115 71.4748 71.426 83.1542 59.6542 94.9166C64.4085 101.57 67.8071 108.973 69.9303 116.995ZM70.0132 22.7562C62.9153 47.3981 47.2523 63.0354 22.8635 69.9663C22.9257 70.0181 22.9802 70.0907 23.0553 70.1244C23.2523 70.2099 23.4494 70.2955 23.6568 70.3473C31.0916 72.242 37.9639 75.3757 44.2374 79.7847C45.1085 80.3964 45.5414 80.1268 46.1791 79.4892C57.2433 68.3982 68.3178 57.3149 79.4338 46.2757C80.3152 45.3997 80.2634 44.8683 79.5997 43.9248C76.38 39.35 73.881 34.3864 72.0404 29.104C71.3379 27.0874 70.7365 25.0346 70.0106 22.7588L70.0132 22.7562Z" fill="#450FA1"/>
<path d="M69.9299 116.995C67.8068 108.973 64.4082 101.57 59.6538 94.9166C71.4257 83.1542 83.1146 71.4748 94.9383 59.6606C101.577 64.3962 109.012 67.815 117.365 69.9015C92.7115 76.9361 77.007 92.589 69.9299 116.995Z" fill="white"/>
<path d="M70.0104 22.7563C70.7337 25.0294 71.3351 27.0822 72.0402 29.1014C73.8808 34.3838 76.3772 39.3474 79.5995 43.9222C80.2632 44.8657 80.3176 45.3971 79.4336 46.2732C68.3176 57.3123 57.2431 68.3956 46.1789 79.4866C45.5412 80.1242 45.1083 80.3938 44.2372 79.7821C37.9611 75.3731 31.0888 72.242 23.6565 70.3447C23.4492 70.2929 23.2521 70.2048 23.0551 70.1218C22.9799 70.0907 22.9255 70.0155 22.8633 69.9637C47.2521 63.0328 62.9151 47.3955 70.013 22.7537L70.0104 22.7563Z" fill="white"/>
</g>
<defs>
<clipPath id="clip0_813_591">
<rect width="104" height="104" fill="white" transform="translate(18 18)"/>
</clipPath>
</defs>
</svg>
