<svg width="140" height="140" viewBox="0 0 140 140" fill="none" xmlns="http://www.w3.org/2000/svg">
<rect width="140" height="140" rx="30" fill="black"/>
<g clip-path="url(#clip0_610_4300)">
<path d="M18.0234 52.0312H23.3192C23.3192 52.2232 23.3192 52.3926 23.3192 52.5611C23.3192 59.5538 23.3201 66.5457 23.3148 73.5385C23.3131 75.4119 23.5993 77.2208 24.5221 78.8777C26.0043 81.5395 28.3067 82.994 31.3315 83.1939C36.172 83.5143 39.9645 80.3688 40.6203 75.5682C40.7061 74.937 40.7568 74.2954 40.7577 73.6589C40.7674 66.6086 40.7638 59.5573 40.7638 52.507C40.7638 52.3629 40.7638 52.2197 40.7638 52.0451C40.9039 52.0303 41.0151 52.0076 41.1263 52.0076C42.6426 52.005 44.1598 52.0146 45.6761 51.9989C46.0009 51.9954 46.0972 52.087 46.0972 52.4153C46.0885 63.9433 46.0893 75.4713 46.0876 87.0002C46.0876 87.1128 46.0727 87.2263 46.0631 87.3546H40.8085V84.293C39.8008 84.9984 38.8474 85.7937 37.782 86.3891C32.1597 89.5327 23.3008 88.2267 19.5967 81.0786C18.5058 78.9738 18.0077 76.7171 18.0051 74.3556C17.9963 67.0433 18.0016 59.7311 18.0016 52.4188C18.0016 52.3044 18.0138 52.1901 18.0226 52.0312H18.0234Z" fill="white"/>
<path d="M50.0713 52.0358H55.1543V64.861C58.418 61.7811 62.2053 60.5606 66.5591 61.2381C69.8053 61.7436 72.5385 63.2486 74.6694 65.7463C79.0486 70.8795 79.0039 78.4677 74.5854 83.4089C72.043 86.2522 68.8362 87.7747 65.0314 87.9651C61.2318 88.1554 57.9497 86.8755 55.1333 84.2033V87.3478H50.0713V52.0358ZM72.8467 74.5365C72.8178 69.5011 68.8581 65.5778 63.832 65.6057C58.9713 65.6328 55.0291 69.68 55.0562 74.6142C55.0842 79.5991 59.0913 83.5084 64.1436 83.4796C68.9088 83.4525 72.8747 79.3773 72.8467 74.5365Z" fill="white"/>
<path d="M106.068 76.1752H85.1804C85.3984 78.4912 87.2317 81.6035 90.4797 82.8824C93.3976 84.0322 98.0149 83.8489 101.155 79.7082C102.377 80.6083 103.6 81.5092 104.844 82.4259C103.693 83.9484 102.337 85.1793 100.717 86.1178C95.5206 89.1262 88.4407 88.4007 84.1342 84.2819C80.1526 80.4747 79.0302 75.7561 80.5606 70.5679C82.0428 65.5446 85.5394 62.3957 90.7169 61.3516C98.3677 59.8081 105.364 65.0741 106.055 72.815C106.152 73.9054 106.068 75.0123 106.068 76.1743V76.1752ZM100.943 72.1009C100.394 68.9642 97.571 65.5891 93.1858 65.5603C88.7708 65.5306 85.8729 68.9083 85.2671 72.1009H100.943Z" fill="white"/>
<path d="M109.029 61.6327H114.064V64.6C116.018 61.7645 118.824 61.1639 122 61.4546V66.1697C121.389 66.1697 120.808 66.1897 120.23 66.1662C116.821 66.0274 114.648 68.3513 114.212 71.4443C114.145 71.9175 114.122 72.3994 114.121 72.8778C114.115 77.5283 114.118 82.1779 114.118 86.8284V87.3574H109.029V61.6327Z" fill="white"/>
</g>
<defs>
<clipPath id="clip0_610_4300">
<rect width="104" height="36" fill="white" transform="translate(18 52)"/>
</clipPath>
</defs>
</svg>
